<?xml version="1.0" encoding="UTF-8" standalone="no"?>
<!-- Created with Inkscape (http://www.inkscape.org/) -->
<svg id="svg2" xmlns:rdf="http://www.w3.org/1999/02/22-rdf-syntax-ns#" xmlns="http://www.w3.org/2000/svg" height="100%" width="100%" version="1.1" xmlns:cc="http://creativecommons.org/ns#" viewBox="0 0 512 512" xmlns:dc="http://purl.org/dc/elements/1.1/">
 <metadata id="metadata60">
  <rdf:RDF>
   <cc:Work rdf:about="">
    <dc:format>image/svg+xml</dc:format>
    <dc:type rdf:resource="http://purl.org/dc/dcmitype/StillImage"/>
   </cc:Work>
  </rdf:RDF>
 </metadata>
 <rect id="rect4" rx="25.988" height="512" width="512" y="0" x="0" fill="#b59a6e"/>
 <path id="path6" style="color:#000000" d="m251.19 40.969c-101.14 0.529-194.16 81.87-207.72 182.28-12.192 72.66 17.771 148.33 72.59 196.59 30.79 30.638 61.45 61.4 92.13 92.16h277.81c14.397 0 26-11.603 26-26v-277.84c-39.15-39.4-78.24-78.84-118.37-117.19-38.18-32.101-87.73-50.171-137.62-49.97-1.609-0.033-3.207-0.04-4.813-0.031" fill-opacity="0.235"/>
 <text id="text8" style="word-spacing:0;letter-spacing:0" font-size="129.23px" line-height="125%" y="116.12" x="65.580002" font-family="Gentium Book Basic">
  <tspan id="tspan10" y="116.12" x="65.580002"/>
 </text>
 <text id="text12" style="text-anchor:middle" transform="scale(4.0128 .2492)" font-size="46.954px" y="116.81" x="213.42" font-family="Arial"/>
 <text id="text14" style="word-spacing:0;letter-spacing:0" font-size="129.23px" line-height="125%" y="36.119999" x="646.84998" font-family="Gentium Book Basic">
  <tspan id="tspan16" y="36.119999" x="646.84998"/>
 </text>
 <text id="text18" style="text-anchor:middle" transform="scale(4.0128 .2492)" font-size="46.954px" y="-204.23" x="358.26999" font-family="Arial"/>
 <text id="text20" style="word-spacing:0;letter-spacing:0" font-size="129.23px" line-height="125%" y="-145.14" x="-424.73001" font-family="Gentium Book Basic">
  <tspan id="tspan22" y="-145.14" x="-424.73001"/>
 </text>
 <text id="text24" style="text-anchor:middle" transform="scale(4.0128 .2492)" font-size="46.954px" y="-931.58002" x="91.230003" font-family="Arial"/>
 <text id="text26" style="word-spacing:0;letter-spacing:0" font-size="129.23px" line-height="125%" y="-361.60999" x="673.32001" font-family="Gentium Book Basic">
  <tspan id="tspan28" y="-361.60999" x="673.32001"/>
 </text>
 <text id="text30" style="text-anchor:middle" transform="scale(4.0128 .2492)" font-size="46.954px" y="-1800.25" x="364.87" font-family="Arial"/>
 <text id="text32" style="word-spacing:0;letter-spacing:0" font-size="129.23px" line-height="125%" y="-441.60999" x="1254.59" font-family="Gentium Book Basic">
  <tspan id="tspan34" y="-441.60999" x="1254.59"/>
 </text>
 <text id="text36" style="text-anchor:middle" transform="scale(4.0128 .2492)" font-size="46.954px" y="-2121.28" x="509.72" font-family="Arial"/>
 <text id="text38" style="word-spacing:0;letter-spacing:0" font-size="129.23px" line-height="125%" y="-914.01001" x="865.46997" font-family="Gentium Book Basic">
  <tspan id="tspan40" y="-914.01001" x="865.46997"/>
 </text>
 <text id="text42" style="text-anchor:middle" transform="scale(4.0128 .2492)" font-size="46.954px" y="-4016.9299" x="412.75" font-family="Arial"/>
 <text id="text44" style="word-spacing:0;letter-spacing:0" font-size="129.23px" line-height="125%" y="-994.02002" x="1446.73" font-family="Gentium Book Basic">
  <tspan id="tspan46" y="-994.02002" x="1446.73"/>
 </text>
 <text id="text48" style="text-anchor:middle" transform="scale(4.0128 .2492)" font-size="46.954px" y="-4337.9702" x="557.59998" font-family="Arial"/>
 <text id="text50" style="word-spacing:0;letter-spacing:0" font-size="208.33px" line-height="125%" y="420.70001" x="-386.07001" font-family="Gentium Book Basic">
  <tspan id="tspan52" y="420.70001" x="-386.07001"/>
 </text>
 <path id="path54" style="color:#000000" d="m256 41c-118.49 0-215 96.48-215 214.92s96.51 215.08 215 215.08 215-96.64 215-215.08-96.51-214.92-215-214.92m-22.76 47.28v145.06h-145.28c10.03-75.63 69.6-135.02 145.28-145.06m45.527 0c75.63 10.07 135.09 69.45 145.12 145.06h-145.13v-145.06m-190.81 190.55h145.28v145.06c-75.6-10.05-135.16-69.5-145.28-145.06m190.81 0h145.12c-10.121 75.51-69.56 134.96-145.12 145.06v-145.06" fill="#fff"/>
</svg>
