<?xml version="1.0" encoding="UTF-8" standalone="no"?>
<!-- Created with Inkscape (http://www.inkscape.org/) -->
<svg id="svg2" xmlns:rdf="http://www.w3.org/1999/02/22-rdf-syntax-ns#" xmlns="http://www.w3.org/2000/svg" height="100%" width="100%" version="1.1" xmlns:cc="http://creativecommons.org/ns#" viewBox="0 0 512 512" xmlns:dc="http://purl.org/dc/elements/1.1/">
 <metadata id="metadata80">
  <rdf:RDF>
   <cc:Work rdf:about="">
    <dc:format>image/svg+xml</dc:format>
    <dc:type rdf:resource="http://purl.org/dc/dcmitype/StillImage"/>
   </cc:Work>
  </rdf:RDF>
 </metadata>
 <rect id="rect4" rx="25.988" height="512" width="512" y="0" x="0" fill="#ef6a47"/>
 <path id="path6" d="m157.78 40.625c-23.32 0.234-52.1 14.232-29.375 34.688 4.47 5.741 9.82 9.392 14.281 15.13 4.655 3.504 8.521 8.875 13.188 12.344 4.471 5.742 9.813 9.386 14.281 15.13 3.934 2.666 6.997 7.4 10.906 10.09-21.536 26.808-44.42 52.5-66.62 78.75 6.255 9.747 15.11 15.35 22.13 23.938 9.653 8.713 18.441 18.756 28.09 27.469 8.247 9.06 17.16 17.1 25.531 25.969-7.774 4.221-10.324 18.425-16.03 26.594l-61.906 121.28c16.622 18.272 34.36 34.35 51.28 52.06 9.415 9.257 18.772 18.59 28.13 27.938h294.34c14.397 0 26-11.603 26-26v-290.47c-46.797-46.45-93.52-93-139.62-140.12-29.07-26.678-82.34-15.192-95.97 22.563-8.974 5.591-1.861 45.523-14.219 29.19-19.772-18.848-37.715-39.809-58.875-57.06-11.548-6.776-25.304-9.03-38.531-9.09-2.232-0.279-4.588-0.399-7-0.375" fill-opacity="0.235"/>
 <text id="text8" style="word-spacing:0;letter-spacing:0" font-size="129.23px" line-height="125%" y="94.639999" x="53.310001" font-family="Gentium Book Basic">
  <tspan id="tspan10" y="94.639999" x="53.310001"/>
 </text>
 <text id="text12" style="text-anchor:middle" transform="scale(4.0128 .2492)" font-size="46.954px" y="30.615" x="210.37" font-family="Arial"/>
 <text id="text14" style="word-spacing:0;letter-spacing:0" font-size="129.23px" line-height="125%" y="14.64" x="634.58002" font-family="Gentium Book Basic">
  <tspan id="tspan16" y="14.64" x="634.58002"/>
 </text>
 <text id="text18" style="text-anchor:middle" transform="scale(4.0128 .2492)" font-size="46.954px" y="-290.41" x="355.20999" font-family="Arial"/>
 <text id="text20" style="word-spacing:0;letter-spacing:0" font-size="129.23px" line-height="125%" y="-166.62" x="-437" font-family="Gentium Book Basic">
  <tspan id="tspan22" y="-166.62" x="-437"/>
 </text>
 <text id="text24" style="text-anchor:middle" transform="scale(4.0128 .2492)" font-size="46.954px" y="-1017.77" x="88.18" font-family="Arial"/>
 <text id="text26" style="word-spacing:0;letter-spacing:0" font-size="129.23px" line-height="125%" y="-383.09" x="661.04999" font-family="Gentium Book Basic">
  <tspan id="tspan28" y="-383.09" x="661.04999"/>
 </text>
 <text id="text30" style="text-anchor:middle" transform="scale(4.0128 .2492)" font-size="46.954px" y="-1886.4399" x="361.81" font-family="Arial"/>
 <text id="text32" style="word-spacing:0;letter-spacing:0" font-size="129.23px" line-height="125%" y="-463.10001" x="1242.3199" font-family="Gentium Book Basic">
  <tspan id="tspan34" y="-463.10001" x="1242.3199"/>
 </text>
 <text id="text36" style="text-anchor:middle" transform="scale(4.0128 .2492)" font-size="46.954px" y="-2207.47" x="506.66" font-family="Arial"/>
 <text id="text38" style="word-spacing:0;letter-spacing:0" font-size="129.23px" line-height="125%" y="-935.5" x="853.20001" font-family="Gentium Book Basic">
  <tspan id="tspan40" y="-935.5" x="853.20001"/>
 </text>
 <text id="text42" style="text-anchor:middle" transform="scale(4.0128 .2492)" font-size="46.954px" y="-4103.1201" x="409.69" font-family="Arial"/>
 <text id="text44" style="word-spacing:0;letter-spacing:0" font-size="129.23px" line-height="125%" y="-1015.5" x="1434.46" font-family="Gentium Book Basic">
  <tspan id="tspan46" y="-1015.5" x="1434.46"/>
 </text>
 <text id="text48" style="text-anchor:middle" transform="scale(4.0128 .2492)" font-size="46.954px" y="-4424.1499" x="554.53998" font-family="Arial"/>
 <g id="g50" style="word-spacing:0;letter-spacing:0" line-height="125%" transform="matrix(1.588 0 0 1.588 -150.52 -150.52)">
  <text id="text52" font-size="208.33px" y="535.94" x="277.98999" font-family="Gentium Book Basic">
   <tspan id="tspan54" y="535.94" x="277.98999"/>
  </text>
  <g id="g56" transform="matrix(1.1599 0 0 1.1599 -40.943 -24.336)" font-size="140.17px" font-family="Aller" fill="#fff">
   <text id="text58" y="216.77" x="171.14999">
    <tspan id="tspan60" y="216.77" x="171.14999">20</tspan>
   </text>
   <text id="text62" y="349.72" x="173.33">
    <tspan id="tspan64" y="349.72" x="173.33">48</tspan>
   </text>
  </g>
 </g>
 <g id="g66" style="word-spacing:0;letter-spacing:0" fill-opacity="0.235" font-size="330.82px" font-family="Gentium Book Basic" line-height="125%">
  <text id="text68" y="700.52002" x="290.91">
   <tspan id="tspan70" y="700.52002" x="290.91"/>
  </text>
  <text id="text72" y="930.52002" x="520.90997">
   <tspan id="tspan74" y="930.52002" x="520.90997"/>
  </text>
 </g>
</svg>
