<?xml version="1.0" encoding="UTF-8" standalone="no"?>
<!-- Created with Inkscape (http://www.inkscape.org/) -->
<svg id="svg2" xmlns:rdf="http://www.w3.org/1999/02/22-rdf-syntax-ns#" xmlns="http://www.w3.org/2000/svg" height="100%" width="100%" version="1.1" xmlns:cc="http://creativecommons.org/ns#" viewBox="0 0 512 512" xmlns:dc="http://purl.org/dc/elements/1.1/">
 <metadata id="metadata10">
  <rdf:RDF>
   <cc:Work rdf:about="">
    <dc:format>image/svg+xml</dc:format>
    <dc:type rdf:resource="http://purl.org/dc/dcmitype/StillImage"/>
    <dc:title/>
   </cc:Work>
  </rdf:RDF>
 </metadata>
 <defs id="defs8">
  <clipPath id="clipPath3218">
   <path id="path3220" fill="#5c805a" d="m26 0c-14.397 0-26 11.603-26 26v460c0 14.397 11.603 26 26 26h460c14.397 0 26-11.603 26-26v-460c0-14.397-11.6-26-26-26h-460z"/>
  </clipPath>
 </defs>
 <path id="rect2986" fill="#5c805a" d="m26 0c-14.397 0-26 11.603-26 26v460c0 14.397 11.603 26 26 26h460c14.397 0 26-11.603 26-26v-460c0-14.397-11.6-26-26-26h-460z"/>
 <g id="g3145" opacity=".25" clip-path="url(#clipPath3218)">
  <path id="path3147" d="m471 256c0 118.74-96.259 215-215 215l388.91 388.91c118.74 0 215-96.259 215-215z"/>
  <path id="path3149" d="m256 471c-64.768 0-122.85-28.639-162.26-73.944l388.91 388.91c39.417 45.305 97.496 73.944 162.26 73.944z"/>
  <path id="path3151" d="m93.736 397.06c-32.848-37.76-52.736-87.09-52.736-141.06l388.91 388.91c0 53.973 19.888 103.3 52.736 141.06z"/>
  <path id="path3153" d="m41 256c0-118.74 96.259-215 215-215l388.91 388.91c-118.74 0-215 96.259-215 215z"/>
  <path id="path3155" d="m256 41c59.371 0 113.12 24.065 152.03 62.972l388.91 388.91c-38.91-38.91-92.66-62.97-152.03-62.97z"/>
  <path id="path3157" d="m408.03 103.97c38.907 38.907 62.972 92.657 62.972 152.03l388.91 388.91c0-59.371-24.065-113.12-62.972-152.03z"/>
 </g>
 <text id="text20" style="word-spacing:0;letter-spacing:0" font-size="129.23px" line-height="125%" y="21.00507" x="-250.43733" font-family="Gentium Book Basic">
  <tspan id="tspan22" y="21.00507" x="-250.43733"/>
 </text>
 <text id="text24" style="text-anchor:middle" transform="scale(4.0128 .24920)" font-size="46.954px" y="-264.85834" x="134.67152" font-family="Arial"/>
 <text id="text26" style="word-spacing:0;letter-spacing:0" font-size="129.23px" line-height="125%" y="-58.99493" x="330.83267" font-family="Gentium Book Basic">
  <tspan id="tspan28" y="-58.99493" x="330.83267"/>
 </text>
 <text id="text30" style="text-anchor:middle" transform="scale(4.0128 .24920)" font-size="46.954px" y="-585.89648" x="279.52078" font-family="Arial"/>
 <text id="text32" style="word-spacing:0;letter-spacing:0" font-size="129.23px" line-height="125%" y="-240.25491" x="-740.74738" font-family="Gentium Book Basic">
  <tspan id="tspan34" y="-240.25491" x="-740.74738"/>
 </text>
 <text id="text36" style="text-anchor:middle" transform="scale(4.0128 .24920)" font-size="46.954px" y="-1313.2428" x="12.482161" font-family="Arial"/>
 <text id="text38" style="word-spacing:0;letter-spacing:0" font-size="129.23px" line-height="125%" y="-456.72491" x="357.30264" font-family="Gentium Book Basic">
  <tspan id="tspan40" y="-456.72491" x="357.30264"/>
 </text>
 <text id="text42" style="text-anchor:middle" transform="scale(4.0128 .24920)" font-size="46.954px" y="-2181.9185" x="286.12076" font-family="Arial"/>
 <text id="text44" style="word-spacing:0;letter-spacing:0" font-size="129.23px" line-height="125%" y="-536.72491" x="938.57269" font-family="Gentium Book Basic">
  <tspan id="tspan46" y="-536.72491" x="938.57269"/>
 </text>
 <text id="text48" style="text-anchor:middle" transform="scale(4.0128 .24920)" font-size="46.954px" y="-2502.9468" x="430.97" font-family="Arial"/>
 <text id="text50" style="word-spacing:0;letter-spacing:0" font-size="129.23px" line-height="125%" y="-1009.1249" x="549.4527" font-family="Gentium Book Basic">
  <tspan id="tspan52" y="-1009.1249" x="549.4527"/>
 </text>
 <text id="text54" style="text-anchor:middle" transform="scale(4.0128 .24920)" font-size="46.954px" y="-4398.5972" x="334.00046" font-family="Arial"/>
 <text id="text56" style="word-spacing:0;letter-spacing:0" font-size="129.23px" line-height="125%" y="-1089.1349" x="1130.7126" font-family="Gentium Book Basic">
  <tspan id="tspan58" y="-1089.1349" x="1130.7126"/>
 </text>
 <text id="text60" style="text-anchor:middle" transform="scale(4.0128 .24920)" font-size="46.954px" y="-4719.6357" x="478.84976" font-family="Arial"/>
 <text id="text62" style="word-spacing:0;letter-spacing:0" font-size="208.33px" line-height="125%" y="325.58517" x="-702.08734" font-family="Gentium Book Basic">
  <tspan id="tspan64" y="325.58517" x="-702.08734"/>
 </text>
 <path id="path3181" fill="#fff" d="m471 256c0 118.74-96.259 215-215 215s-215-96.259-215-215 96.259-215 215-215 215 96.259 215 215z"/>
 <path id="path3511" d="m471 256c0 118.74-96.259 215-215 215s-215-96.259-215-215 96.259-215 215-215 215 96.259 215 215z"/>
 <path id="path3569" fill="#fff" d="m355.29 256c0 54.839-44.455 99.294-99.294 99.294s-99.294-44.456-99.294-99.294c0-54.839 44.455-99.294 99.294-99.294s99.294 44.456 99.294 99.294z"/>
 <path id="path6802" d="m293.3 280.22q0 6.9871-2.2514 12.887-2.1738 5.8226-6.7542 10.092-4.5029 4.27-11.568 6.6767-7.0648 2.4066-16.692 2.4066-9.6267 0-16.691-2.4066-6.9871-2.4067-11.645-6.599-4.5805-4.27-6.8319-10.093-2.1738-5.9002-2.1738-12.81 0-5.978 1.7855-10.636 1.8633-4.6581 4.891-7.9964 3.1054-3.4159 6.9873-5.4345 3.9593-2.096 8.1516-2.7948v-0.31006q-4.5805-1.0875-8.2293-3.4935-3.5712-2.4067-6.0555-5.745-2.4066-3.416-3.7264-7.5307-1.2418-4.1145-1.2418-8.695 0-5.745 2.1738-10.791 2.2514-5.124 6.599-8.928 4.3476-3.8819 10.791-6.0555 6.4438-2.2516 14.906-2.2516 8.9281 0 15.449 2.2516 6.599 2.2514 10.869 6.1331 4.3474 3.8042 6.4436 8.928 2.096 5.124 2.096 10.869 0 4.5028-1.3197 8.6174-1.2418 4.1146-3.7266 7.5305-2.4067 3.3383-6.0555 5.745-3.5712 2.329-8.3069 3.2607v0.31006q4.7357 0.77589 8.7728 2.8724 4.0371 2.0186 6.9871 5.4345 2.9502 3.3383 4.6581 7.9964 1.708 4.6581 1.708 10.558zm-17.23-51.55q0-4.1147-1.0876-7.5305-1.0096-3.4159-3.4158-5.8226-2.4067-2.4843-6.2885-3.8041-3.8817-1.3976-9.5491-1.3976-5.5121 0-9.3162 1.3976-3.804 1.3197-6.2883 3.8041-2.4067 2.4067-3.4936 5.8226-1.0875 3.4159-1.0875 7.5305 0 3.2607 0.85381 6.6767 0.85381 3.4159 3.1054 6.2107t6.2109 4.5805q3.9593 1.7855 10.17 1.7855 6.599 0 10.558-1.7855 4.0371-1.7857 6.1331-4.5805 2.1738-2.7948 2.7948-6.2107 0.69798-3.416 0.69798-6.6767zm2.7172 50.23q0-3.9593-1.0875-7.6081-1.0876-3.7266-3.7266-6.5214-2.6395-2.8724-7.1424-4.5804-4.4252-1.7857-11.102-1.7857-6.1331 0-10.481 1.7857-4.2698 1.7079-6.9871 4.5804-2.6396 2.8726-3.8817 6.6766-1.2418 3.7266-1.2418 7.7634 0 5.0464 1.2418 9.2386 1.2418 4.1147 3.9593 7.1424 2.7172 2.95 7.1424 4.5804 4.4252 1.6303 10.714 1.6303 6.366 0 10.714-1.6303 4.3474-1.6304 6.9871-4.5804 2.6397-3.0278 3.7264-7.22 1.1639-4.27 1.1639-9.4715z"/>
</svg>
