<?xml version="1.0" encoding="UTF-8" standalone="no"?>
<svg xmlns="http://www.w3.org/2000/svg" viewBox="0 0 512 512">
 <text style="word-spacing:0;letter-spacing:0" font-size="129.23" y="91.57" x="-732.13" font-family="Gentium Book Basic" line-height="125%">
  <tspan y="91.57" x="-732.13"/>
 </text>
 <text style="text-anchor:middle" transform="scale(4.0128.2492)" font-size="46.954" y="18.314" x="14.632" font-family="Arial"/>
 <text style="word-spacing:0;letter-spacing:0" font-size="129.23" y="11.572" x="-150.86" font-family="Gentium Book Basic" line-height="125%">
  <tspan y="11.572" x="-150.86"/>
 </text>
 <text style="text-anchor:middle" transform="scale(4.0128.2492)" font-size="46.954" y="-302.72" x="159.48" font-family="Arial"/>
 <text style="word-spacing:0;letter-spacing:0" font-size="129.23" y="-169.69" x="-1222.44" font-family="Gentium Book Basic" line-height="125%">
  <tspan y="-169.69" x="-1222.44"/>
 </text>
 <text style="text-anchor:middle" transform="scale(4.0128.2492)" font-size="46.954" y="-1030.07" x="-107.56" font-family="Arial"/>
 <text style="word-spacing:0;letter-spacing:0" font-size="129.23" y="-386.16" x="-124.39" font-family="Gentium Book Basic" line-height="125%">
  <tspan y="-386.16" x="-124.39"/>
 </text>
 <text style="text-anchor:middle" transform="scale(4.0128.2492)" font-size="46.954" y="-1898.75" x="166.08" font-family="Arial"/>
 <text style="word-spacing:0;letter-spacing:0" font-size="129.23" y="-466.16" x="456.88" font-family="Gentium Book Basic" line-height="125%">
  <tspan y="-466.16" x="456.88"/>
 </text>
 <text style="text-anchor:middle" transform="scale(4.0128.2492)" font-size="46.954" y="-2219.77" x="310.93" font-family="Arial"/>
 <text style="word-spacing:0;letter-spacing:0" font-size="129.23" y="-938.56" x="67.757" font-family="Gentium Book Basic" line-height="125%">
  <tspan y="-938.56" x="67.757"/>
 </text>
 <text style="text-anchor:middle" transform="scale(4.0128.2492)" font-size="46.954" y="-4115.42" x="213.96" font-family="Arial"/>
 <text style="word-spacing:0;letter-spacing:0" font-size="129.23" y="-1018.57" x="649.02" font-family="Gentium Book Basic" line-height="125%">
  <tspan y="-1018.57" x="649.02"/>
 </text>
 <text style="text-anchor:middle" transform="scale(4.0128.2492)" font-size="46.954" y="-4436.46" x="358.81" font-family="Arial"/>
 <text style="word-spacing:0;letter-spacing:0" font-size="208.33" y="396.15" x="-1183.78" font-family="Gentium Book Basic" line-height="125%">
  <tspan y="396.15" x="-1183.78"/>
 </text>
 <path d="m26 0c-14.397 0-26 11.603-26 26v460c0 14.397 11.603 26 26 26h460c14.397 0 26-11.603 26-26v-460c0-14.397-11.603-26-26-26h-460" fill="#707175"/>
 <text style="word-spacing:0;letter-spacing:0" font-size="129.23" y="251.11" x="-149.19" font-family="&apos;Gentium Book Basic&apos;" line-height="125%">
  <tspan y="251.11" x="-149.19"/>
 </text>
 <text style="text-anchor:middle" transform="scale(4.0128.2492)" font-size="46.954" y="658.53" x="159.9" font-family="Arial"/>
 <text style="word-spacing:0;letter-spacing:0" font-size="129.23" y="171.11" x="432.08" font-family="&apos;Gentium Book Basic&apos;" line-height="125%">
  <tspan y="171.11" x="432.08"/>
 </text>
 <text style="text-anchor:middle" transform="scale(4.0128.2492)" font-size="46.954" y="337.49" x="304.75" font-family="Arial"/>
 <text style="word-spacing:0;letter-spacing:0" font-size="129.23" y="-10.146" x="-639.5" font-family="&apos;Gentium Book Basic&apos;" line-height="125%">
  <tspan y="-10.146" x="-639.5"/>
 </text>
 <text style="text-anchor:middle" transform="scale(4.0128.2492)" font-size="46.954" y="-389.86" x="37.713" font-family="Arial"/>
 <text style="word-spacing:0;letter-spacing:0" font-size="129.23" y="-226.62" x="458.55" font-family="&apos;Gentium Book Basic&apos;" line-height="125%">
  <tspan y="-226.62" x="458.55"/>
 </text>
 <text style="text-anchor:middle" transform="scale(4.0128.2492)" font-size="46.954" y="-1258.53" x="311.35" font-family="Arial"/>
 <text style="word-spacing:0;letter-spacing:0" font-size="129.23" y="-306.62" x="1039.82" font-family="&apos;Gentium Book Basic&apos;" line-height="125%">
  <tspan y="-306.62" x="1039.82"/>
 </text>
 <text style="text-anchor:middle" transform="scale(4.0128.2492)" font-size="46.954" y="-1579.56" x="456.2" font-family="Arial"/>
 <text style="word-spacing:0;letter-spacing:0" font-size="129.23" y="-779.02" x="650.7" font-family="&apos;Gentium Book Basic&apos;" line-height="125%">
  <tspan y="-779.02" x="650.7"/>
 </text>
 <text style="text-anchor:middle" transform="scale(4.0128.2492)" font-size="46.954" y="-3475.21" x="359.23" font-family="Arial"/>
 <text style="word-spacing:0;letter-spacing:0" font-size="129.23" y="-859.03" x="1231.96" font-family="&apos;Gentium Book Basic&apos;" line-height="125%">
  <tspan y="-859.03" x="1231.96"/>
 </text>
 <text style="text-anchor:middle" transform="scale(4.0128.2492)" font-size="46.954" y="-3796.25" x="504.08" font-family="Arial"/>
 <text style="word-spacing:0;letter-spacing:0" font-size="208.33" y="555.69" x="-600.84" font-family="&apos;Gentium Book Basic&apos;" line-height="125%">
  <tspan y="555.69" x="-600.84"/>
 </text>
 <path opacity=".25" d="m256.32 41c-62.36 35.771-124.69 71.63-187.02 107.54 0.055 14.628 0.027 29.28 0.027 43.938l190.98 190.98c-1.336 0.782-2.675 1.556-4.01 2.34-37.586-21.859-75.36-43.44-113.03-65.16-24.911 14.08-49.74 28.27-74.6 42.43l148.95 148.95h268.39c14.397 0 26-11.603 26-26v-268.89l-68.69-68.69c-62.25-35.936-124.66-71.62-187-107.42"/>
 <path d="m69.29 148.53c62.33-35.909 124.66-71.76 187.02-107.53 62.33 35.799 124.75 71.49 187 107.42-0.083 71.79-0.11 143.58 0.027 215.37-62.22 35.991-124.72 71.43-187.05 107.2-62.5-36.07-125.32-71.57-187.63-107.95 24.856-14.16 49.684-28.348 74.59-42.43 37.669 21.721 75.45 43.31 113.03 65.16 37.504-22.02 75.5-43.2 112.87-65.44-0.33-28.733-0.027-57.44-0.165-86.17-37.531 21.776-75.12 43.498-112.7 65.19-62.39-35.497-124.58-71.35-186.97-106.9 0-14.655 0.027-29.31-0.027-43.938m110.75 21.556c25.296 14.847 50.866 29.31 76.24 44.05 25.543-14.655 51.06-29.338 76.66-43.965-25.598-14.545-51.09-29.31-76.66-43.91-25.433 14.573-50.756 29.365-76.24 43.828z" fill="#fff"/>
</svg>
