<svg xmlns="http://www.w3.org/2000/svg" xmlns:svg="http://www.w3.org/2000/svg" id="svg2" width="100%" height="100%" version="1.1" viewBox="0 0 512 512"><metadata id="metadata60"/><g id="g4181" transform="translate(365.97183,-320.90141)"><rect id="rect4" width="512" height="512" x="-365.976" y="320.898" rx="25.988" style="fill:#80b3ff"/><path id="path6" d="m -106.50583,361.89841 c -36.472,7.109 -57.654,43.1 -79.22,70.13 -57.792,85.27 -103.5,179.57 -131.12,278.94 -4.45,25.1 -18.777,59.64 6.219,78.28 14.597,14.523 29.16,29.09 43.719,43.656 l 386.94,0 c 14.397,0 26,-11.603 26,-26 l 0,-212.97 c -14.412,-14.284 -29.07,-28.339 -43.12,-42.938 -56.853001,-56.5 -113.050001,-113.66 -170.280001,-169.78 -11.06,-9.413 -23.929,-19.19 -39.119999,-19.313" style="fill-opacity:.23500001;fill-rule:evenodd"/><path id="path54" d="m -324.96583,764.67841 c -0.258,-103.15 149,-401.2 218.46,-402.77 34.740999,-0.835 86.799999,65.18 130.569999,150.46 43.781,85.28 79.300001,189.86 80.961001,266.32 0,0 -168.080001,-328.31 -210,-329.28 -42.692,-1.049 -158.57,231.31 -144.78,257.18 13.461,25.277 263.239999,-56.21 263.239999,-56.21 -5.38,8.3 -168.459999,116.12 -290.759999,141.52 -18.46,-0.84 -46.159,0 -47.69,-27.22" style="fill:#fff;fill-rule:evenodd"/></g></svg>