<?xml version="1.0" encoding="UTF-8" standalone="no"?>
<svg xmlns="http://www.w3.org/2000/svg" viewBox="0 0 512 512">
 <text style="word-spacing:0;letter-spacing:0" font-size="129.23" y="91.57" x="-732.13" font-family="Gentium Book Basic" line-height="125%">
  <tspan y="91.57" x="-732.13"/>
 </text>
 <text style="text-anchor:middle" transform="scale(4.0128.2492)" font-size="46.954" y="18.314" x="14.632" font-family="Arial"/>
 <text style="word-spacing:0;letter-spacing:0" font-size="129.23" y="11.572" x="-150.86" font-family="Gentium Book Basic" line-height="125%">
  <tspan y="11.572" x="-150.86"/>
 </text>
 <text style="text-anchor:middle" transform="scale(4.0128.2492)" font-size="46.954" y="-302.72" x="159.48" font-family="Arial"/>
 <text style="word-spacing:0;letter-spacing:0" font-size="129.23" y="-169.69" x="-1222.44" font-family="Gentium Book Basic" line-height="125%">
  <tspan y="-169.69" x="-1222.44"/>
 </text>
 <text style="text-anchor:middle" transform="scale(4.0128.2492)" font-size="46.954" y="-1030.07" x="-107.56" font-family="Arial"/>
 <text style="word-spacing:0;letter-spacing:0" font-size="129.23" y="-386.16" x="-124.39" font-family="Gentium Book Basic" line-height="125%">
  <tspan y="-386.16" x="-124.39"/>
 </text>
 <text style="text-anchor:middle" transform="scale(4.0128.2492)" font-size="46.954" y="-1898.75" x="166.08" font-family="Arial"/>
 <text style="word-spacing:0;letter-spacing:0" font-size="129.23" y="-466.16" x="456.88" font-family="Gentium Book Basic" line-height="125%">
  <tspan y="-466.16" x="456.88"/>
 </text>
 <text style="text-anchor:middle" transform="scale(4.0128.2492)" font-size="46.954" y="-2219.77" x="310.93" font-family="Arial"/>
 <text style="word-spacing:0;letter-spacing:0" font-size="129.23" y="-938.56" x="67.757" font-family="Gentium Book Basic" line-height="125%">
  <tspan y="-938.56" x="67.757"/>
 </text>
 <text style="text-anchor:middle" transform="scale(4.0128.2492)" font-size="46.954" y="-4115.42" x="213.96" font-family="Arial"/>
 <text style="word-spacing:0;letter-spacing:0" font-size="129.23" y="-1018.57" x="649.02" font-family="Gentium Book Basic" line-height="125%">
  <tspan y="-1018.57" x="649.02"/>
 </text>
 <text style="text-anchor:middle" transform="scale(4.0128.2492)" font-size="46.954" y="-4436.46" x="358.81" font-family="Arial"/>
 <g style="word-spacing:0;letter-spacing:0" line-height="125%">
  <text y="396.15" x="-1183.78" font-family="Gentium Book Basic" font-size="208.33">
   <tspan y="396.15" x="-1183.78"/>
  </text>
  <text y="251.11" x="-149.19" font-family="&apos;Gentium Book Basic&apos;" font-size="129.23">
   <tspan y="251.11" x="-149.19"/>
  </text>
 </g>
 <text style="text-anchor:middle" transform="scale(4.0128.2492)" font-size="46.954" y="658.53" x="159.9" font-family="Arial"/>
 <text style="word-spacing:0;letter-spacing:0" font-size="129.23" y="171.11" x="432.08" font-family="&apos;Gentium Book Basic&apos;" line-height="125%">
  <tspan y="171.11" x="432.08"/>
 </text>
 <text style="text-anchor:middle" transform="scale(4.0128.2492)" font-size="46.954" y="337.49" x="304.75" font-family="Arial"/>
 <text style="word-spacing:0;letter-spacing:0" font-size="129.23" y="-10.146" x="-639.5" font-family="&apos;Gentium Book Basic&apos;" line-height="125%">
  <tspan y="-10.146" x="-639.5"/>
 </text>
 <text style="text-anchor:middle" transform="scale(4.0128.2492)" font-size="46.954" y="-389.86" x="37.713" font-family="Arial"/>
 <text style="word-spacing:0;letter-spacing:0" font-size="129.23" y="-226.62" x="458.55" font-family="&apos;Gentium Book Basic&apos;" line-height="125%">
  <tspan y="-226.62" x="458.55"/>
 </text>
 <text style="text-anchor:middle" transform="scale(4.0128.2492)" font-size="46.954" y="-1258.53" x="311.35" font-family="Arial"/>
 <text style="word-spacing:0;letter-spacing:0" font-size="129.23" y="-306.62" x="1039.82" font-family="&apos;Gentium Book Basic&apos;" line-height="125%">
  <tspan y="-306.62" x="1039.82"/>
 </text>
 <text style="text-anchor:middle" transform="scale(4.0128.2492)" font-size="46.954" y="-1579.56" x="456.2" font-family="Arial"/>
 <text style="word-spacing:0;letter-spacing:0" font-size="129.23" y="-779.02" x="650.7" font-family="&apos;Gentium Book Basic&apos;" line-height="125%">
  <tspan y="-779.02" x="650.7"/>
 </text>
 <text style="text-anchor:middle" transform="scale(4.0128.2492)" font-size="46.954" y="-3475.21" x="359.23" font-family="Arial"/>
 <text style="word-spacing:0;letter-spacing:0" font-size="129.23" y="-859.03" x="1231.96" font-family="&apos;Gentium Book Basic&apos;" line-height="125%">
  <tspan y="-859.03" x="1231.96"/>
 </text>
 <text style="text-anchor:middle" transform="scale(4.0128.2492)" font-size="46.954" y="-3796.25" x="504.08" font-family="Arial"/>
 <text style="word-spacing:0;letter-spacing:0" font-size="208.33" y="555.69" x="-600.84" font-family="&apos;Gentium Book Basic&apos;" line-height="125%">
  <tspan y="555.69" x="-600.84"/>
 </text>
 <path d="m26 0c-14.397 0-26 11.603-26 26v460c0 14.397 11.603 26 26 26h460c14.397 0 26-11.603 26-26v-460c0-14.397-11.603-26-26-26h-460" fill="#e63232"/>
 <text style="word-spacing:0;letter-spacing:0" font-size="129.23" y="267.92" x="-143.05" font-family="&apos;Gentium Book Basic&apos;" line-height="125%">
  <tspan y="267.92" x="-143.05"/>
 </text>
 <text style="text-anchor:middle" transform="scale(4.0128.2492)" font-size="46.954" y="725.99" x="161.43" font-family="Arial"/>
 <text style="word-spacing:0;letter-spacing:0" font-size="129.23" y="187.92" x="438.22" font-family="&apos;Gentium Book Basic&apos;" line-height="125%">
  <tspan y="187.92" x="438.22"/>
 </text>
 <text style="text-anchor:middle" transform="scale(4.0128.2492)" font-size="46.954" y="404.95" x="306.28" font-family="Arial"/>
 <text style="word-spacing:0;letter-spacing:0" font-size="129.23" y="6.665" x="-633.36" font-family="&apos;Gentium Book Basic&apos;" line-height="125%">
  <tspan y="6.665" x="-633.36"/>
 </text>
 <text style="text-anchor:middle" transform="scale(4.0128.2492)" font-size="46.954" y="-322.4" x="39.24" font-family="Arial"/>
 <text style="word-spacing:0;letter-spacing:0" font-size="129.23" y="-209.81" x="464.69" font-family="&apos;Gentium Book Basic&apos;" line-height="125%">
  <tspan y="-209.81" x="464.69"/>
 </text>
 <text style="text-anchor:middle" transform="scale(4.0128.2492)" font-size="46.954" y="-1191.07" x="312.88" font-family="Arial"/>
 <text style="word-spacing:0;letter-spacing:0" font-size="129.23" y="-289.81" x="1045.96" font-family="&apos;Gentium Book Basic&apos;" line-height="125%">
  <tspan y="-289.81" x="1045.96"/>
 </text>
 <text style="text-anchor:middle" transform="scale(4.0128.2492)" font-size="46.954" y="-1512.1" x="457.73" font-family="Arial"/>
 <text style="word-spacing:0;letter-spacing:0" font-size="129.23" y="-762.21" x="656.84" font-family="&apos;Gentium Book Basic&apos;" line-height="125%">
  <tspan y="-762.21" x="656.84"/>
 </text>
 <text style="text-anchor:middle" transform="scale(4.0128.2492)" font-size="46.954" y="-3407.75" x="360.76" font-family="Arial"/>
 <text style="word-spacing:0;letter-spacing:0" font-size="129.23" y="-842.22" x="1238.1" font-family="&apos;Gentium Book Basic&apos;" line-height="125%">
  <tspan y="-842.22" x="1238.1"/>
 </text>
 <text style="text-anchor:middle" transform="scale(4.0128.2492)" font-size="46.954" y="-3728.79" x="505.61" font-family="Arial"/>
 <text style="word-spacing:0;letter-spacing:0" font-size="208.33" y="572.5" x="-594.7" font-family="&apos;Gentium Book Basic&apos;" line-height="125%">
  <tspan y="572.5" x="-594.7"/>
 </text>
 <path opacity=".25" d="m135.9 130.66v50.74h-34.449v34.488h-28.41v19.691h-32.04v40.836l94.9 94.9v10.02l130.66 130.66h219.44c14.397 0 26-11.603 26-26v-219.44l-135.9-135.9h-37.701v104.92h-59.838l-104.92-104.92h-37.74"/>
 <path d="m135.9 130.66v50.739h-34.45v34.489h-28.409v19.691h-32.04v40.836h32.04v19.691h28.409v34.489h34.45v50.739h37.739v-104.92h164.76v104.92h37.701v-50.739h34.489v-34.489h28.371v-19.691h32.04v-40.836h-32.04v-19.691h-28.371v-34.489h-34.489v-50.739h-37.701v104.92h-164.76v-104.92h-37.739" fill="#fff"/>
</svg>
