<?xml version="1.0" encoding="UTF-8" standalone="no"?>
<svg xmlns="http://www.w3.org/2000/svg" viewBox="0 0 512 512">
 <text style="word-spacing:0;letter-spacing:0" font-size="129.23" y="91.57" x="-732.13" font-family="Gentium Book Basic" line-height="125%">
  <tspan y="91.57" x="-732.13"/>
 </text>
 <text style="text-anchor:middle" transform="scale(4.0128.2492)" font-size="46.954" y="18.314" x="14.632" font-family="Arial"/>
 <text style="word-spacing:0;letter-spacing:0" font-size="129.23" y="11.572" x="-150.86" font-family="Gentium Book Basic" line-height="125%">
  <tspan y="11.572" x="-150.86"/>
 </text>
 <text style="text-anchor:middle" transform="scale(4.0128.2492)" font-size="46.954" y="-302.72" x="159.48" font-family="Arial"/>
 <text style="word-spacing:0;letter-spacing:0" font-size="129.23" y="-169.69" x="-1222.44" font-family="Gentium Book Basic" line-height="125%">
  <tspan y="-169.69" x="-1222.44"/>
 </text>
 <text style="text-anchor:middle" transform="scale(4.0128.2492)" font-size="46.954" y="-1030.07" x="-107.56" font-family="Arial"/>
 <text style="word-spacing:0;letter-spacing:0" font-size="129.23" y="-386.16" x="-124.39" font-family="Gentium Book Basic" line-height="125%">
  <tspan y="-386.16" x="-124.39"/>
 </text>
 <text style="text-anchor:middle" transform="scale(4.0128.2492)" font-size="46.954" y="-1898.75" x="166.08" font-family="Arial"/>
 <text style="word-spacing:0;letter-spacing:0" font-size="129.23" y="-466.16" x="456.88" font-family="Gentium Book Basic" line-height="125%">
  <tspan y="-466.16" x="456.88"/>
 </text>
 <text style="text-anchor:middle" transform="scale(4.0128.2492)" font-size="46.954" y="-2219.77" x="310.93" font-family="Arial"/>
 <text style="word-spacing:0;letter-spacing:0" font-size="129.23" y="-938.56" x="67.757" font-family="Gentium Book Basic" line-height="125%">
  <tspan y="-938.56" x="67.757"/>
 </text>
 <text style="text-anchor:middle" transform="scale(4.0128.2492)" font-size="46.954" y="-4115.42" x="213.96" font-family="Arial"/>
 <text style="word-spacing:0;letter-spacing:0" font-size="129.23" y="-1018.57" x="649.02" font-family="Gentium Book Basic" line-height="125%">
  <tspan y="-1018.57" x="649.02"/>
 </text>
 <text style="text-anchor:middle" transform="scale(4.0128.2492)" font-size="46.954" y="-4436.46" x="358.81" font-family="Arial"/>
 <g style="word-spacing:0;letter-spacing:0" line-height="125%">
  <text y="396.15" x="-1183.78" font-family="Gentium Book Basic" font-size="208.33">
   <tspan y="396.15" x="-1183.78"/>
  </text>
  <text y="251.11" x="-149.19" font-family="&apos;Gentium Book Basic&apos;" font-size="129.23">
   <tspan y="251.11" x="-149.19"/>
  </text>
 </g>
 <text style="text-anchor:middle" transform="scale(4.0128.2492)" font-size="46.954" y="658.53" x="159.9" font-family="Arial"/>
 <text style="word-spacing:0;letter-spacing:0" font-size="129.23" y="171.11" x="432.08" font-family="&apos;Gentium Book Basic&apos;" line-height="125%">
  <tspan y="171.11" x="432.08"/>
 </text>
 <text style="text-anchor:middle" transform="scale(4.0128.2492)" font-size="46.954" y="337.49" x="304.75" font-family="Arial"/>
 <text style="word-spacing:0;letter-spacing:0" font-size="129.23" y="-10.146" x="-639.5" font-family="&apos;Gentium Book Basic&apos;" line-height="125%">
  <tspan y="-10.146" x="-639.5"/>
 </text>
 <text style="text-anchor:middle" transform="scale(4.0128.2492)" font-size="46.954" y="-389.86" x="37.713" font-family="Arial"/>
 <text style="word-spacing:0;letter-spacing:0" font-size="129.23" y="-226.62" x="458.55" font-family="&apos;Gentium Book Basic&apos;" line-height="125%">
  <tspan y="-226.62" x="458.55"/>
 </text>
 <text style="text-anchor:middle" transform="scale(4.0128.2492)" font-size="46.954" y="-1258.53" x="311.35" font-family="Arial"/>
 <text style="word-spacing:0;letter-spacing:0" font-size="129.23" y="-306.62" x="1039.82" font-family="&apos;Gentium Book Basic&apos;" line-height="125%">
  <tspan y="-306.62" x="1039.82"/>
 </text>
 <text style="text-anchor:middle" transform="scale(4.0128.2492)" font-size="46.954" y="-1579.56" x="456.2" font-family="Arial"/>
 <text style="word-spacing:0;letter-spacing:0" font-size="129.23" y="-779.02" x="650.7" font-family="&apos;Gentium Book Basic&apos;" line-height="125%">
  <tspan y="-779.02" x="650.7"/>
 </text>
 <text style="text-anchor:middle" transform="scale(4.0128.2492)" font-size="46.954" y="-3475.21" x="359.23" font-family="Arial"/>
 <text style="word-spacing:0;letter-spacing:0" font-size="129.23" y="-859.03" x="1231.96" font-family="&apos;Gentium Book Basic&apos;" line-height="125%">
  <tspan y="-859.03" x="1231.96"/>
 </text>
 <text style="text-anchor:middle" transform="scale(4.0128.2492)" font-size="46.954" y="-3796.25" x="504.08" font-family="Arial"/>
 <g style="word-spacing:0;letter-spacing:0" font-family="&apos;Gentium Book Basic&apos;" line-height="125%">
  <text y="555.69" x="-600.84" font-size="208.33">
   <tspan y="555.69" x="-600.84"/>
  </text>
  <text y="66.58" x="1880.38" font-size="129.23">
   <tspan y="66.58" x="1880.38"/>
  </text>
 </g>
 <text style="text-anchor:middle" transform="scale(4.0128.2492)" font-size="46.954" y="-81.998" x="665.67" font-family="Arial"/>
 <text style="word-spacing:0;letter-spacing:0" font-size="129.23" y="-13.423" x="2461.64" font-family="&apos;Gentium Book Basic&apos;" line-height="125%">
  <tspan y="-13.423" x="2461.64"/>
 </text>
 <text style="text-anchor:middle" transform="scale(4.0128.2492)" font-size="46.954" y="-403.03" x="810.52" font-family="Arial"/>
 <text style="word-spacing:0;letter-spacing:0" font-size="129.23" y="-194.68" x="1390.06" font-family="&apos;Gentium Book Basic&apos;" line-height="125%">
  <tspan y="-194.68" x="1390.06"/>
 </text>
 <text style="text-anchor:middle" transform="scale(4.0128.2492)" font-size="46.954" y="-1130.37" x="543.48" font-family="Arial"/>
 <text style="word-spacing:0;letter-spacing:0" font-size="129.23" y="-411.15" x="2488.11" font-family="&apos;Gentium Book Basic&apos;" line-height="125%">
  <tspan y="-411.15" x="2488.11"/>
 </text>
 <text style="text-anchor:middle" transform="scale(4.0128.2492)" font-size="46.954" y="-1999.04" x="817.12" font-family="Arial"/>
 <text style="word-spacing:0;letter-spacing:0" font-size="129.23" y="-491.16" x="3069.39" font-family="&apos;Gentium Book Basic&apos;" line-height="125%">
  <tspan y="-491.16" x="3069.39"/>
 </text>
 <text style="text-anchor:middle" transform="scale(4.0128.2492)" font-size="46.954" y="-2320.08" x="961.97" font-family="Arial"/>
 <text style="word-spacing:0;letter-spacing:0" font-size="129.23" y="-963.56" x="2680.27" font-family="&apos;Gentium Book Basic&apos;" line-height="125%">
  <tspan y="-963.56" x="2680.27"/>
 </text>
 <text style="text-anchor:middle" transform="scale(4.0128.2492)" font-size="46.954" y="-4215.72" x="865" font-family="Arial"/>
 <text style="word-spacing:0;letter-spacing:0" font-size="129.23" y="-1043.56" x="3261.53" font-family="&apos;Gentium Book Basic&apos;" line-height="125%">
  <tspan y="-1043.56" x="3261.53"/>
 </text>
 <text style="text-anchor:middle" transform="scale(4.0128.2492)" font-size="46.954" y="-4536.75" x="1009.84" font-family="Arial"/>
 <text style="word-spacing:0;letter-spacing:0" font-size="208.33" y="371.16" x="1428.72" font-family="&apos;Gentium Book Basic&apos;" line-height="125%">
  <tspan y="371.16" x="1428.72"/>
 </text>
 <path d="m26 0c-14.397 0-26 11.603-26 26v460c0 14.397 11.603 26 26 26h460c14.397 0 26-11.603 26-26v-460c0-14.397-11.603-26-26-26h-460" fill="#ef6a47"/>
 <g fill-rule="evenodd">
  <path opacity=".25" d="m371.93 41.08c-6.237-0.137-11.556 1.559-15.334 5.215l0.004 0.006-0.203 0.152-0.006-0.004-25.559 25.611 4.25 4.25 176.92 176.92v-94.98l-91.45-91.45c-16.08-16.08-34.662-25.407-48.613-25.713l99.05 99.05v0.006l-99.05-99.05m-55.25 45.14l-27.04 27.04 109.18 109.19-0.004 0.004 113.18 113.18v-54.14l-86.09-86.09-109.23-109.18m-43.709 43.699l-164.9 164.9 109.16 109.16-0.006 0.004-109.16-109.16-20.293 20.293 76.05 76.05v0.004l-76.06-76.06-5.162 5.113 0.002 0.002-41.15 128.96 20.576 20.578-0.076 0.023 42.2 42.2h381.84c14.397 0 26-11.603 26-26v-117.06l-129.84-129.84-0.006 0.006-109.18-109.19"/>
  <path d="m371.93 41.08c-6.237-0.137-11.557 1.558-15.335 5.214l-0.204 0.153-25.558 25.61 109.24 109.19 25.2-25.25 0.358-0.358 0.153-0.153c11.869-12.226 2.827-40.621-20.447-63.896l-24.792-24.792c-16.08-16.08-34.661-25.406-48.612-25.712m-55.26 45.14l-27.04 27.04 109.19 109.19 27.09-27.04-109.24-109.19m-43.705 43.705l-164.9 164.9-20.293 20.293-5.163 5.112-41.15 128.97a16.784 18.699 0.7854 0 0 5.4184 18.555 16.784 18.699 0.7854 0 0 15.079 2.0447l130.76-41.25 4.243-4.294 19.68-19.68 165.52-165.47-109.19-109.19m-161.48 209.22a4.6839 4.6839 0 0 1 3.7826 1.3802l9.61 9.61 35.782-1.84a4.6839 4.6839 0 0 1 3.3226 1.1246 4.6839 4.6839 0 0 1 1.5846 3.7315l-1.789 39.05 7.156 7.156a4.6839 4.6839 0 0 1 -2.1469 7.8209l-61.65 16.511a4.6839 4.6839 0 0 1 -4.5494 -1.1757l-11.961-11.961a4.6839 4.6839 0 0 1 -1.1757 -4.6005l17.993-63.38a4.6839 4.6839 0 0 1 4.0382 -3.4248" fill="#fff"/>
 </g>
</svg>
