<svg xmlns="http://www.w3.org/2000/svg" viewBox="0 0 512 512"><text x="-732.13" y="91.57" line-height="125%" style="letter-spacing:0;word-spacing:0;font-size:129.23;font-family:Gentium Book Basic"><tspan x="-732.13" y="91.57"/></text><text x="14.632" y="18.314" transform="scale(4.0128.2492)" style="font-size:46.954;font-family:Arial;text-anchor:middle"/><text x="-150.86" y="11.572" line-height="125%" style="letter-spacing:0;word-spacing:0;font-size:129.23;font-family:Gentium Book Basic"><tspan x="-150.86" y="11.572"/></text><text x="159.48" y="-302.72" transform="scale(4.0128.2492)" style="font-size:46.954;font-family:Arial;text-anchor:middle"/><text x="-1222.44" y="-169.69" line-height="125%" style="letter-spacing:0;word-spacing:0;font-size:129.23;font-family:Gentium Book Basic"><tspan x="-1222.44" y="-169.69"/></text><text x="-107.56" y="-1030.07" transform="scale(4.0128.2492)" style="font-size:46.954;font-family:Arial;text-anchor:middle"/><text x="-124.39" y="-386.16" line-height="125%" style="letter-spacing:0;word-spacing:0;font-size:129.23;font-family:Gentium Book Basic"><tspan x="-124.39" y="-386.16"/></text><text x="166.08" y="-1898.75" transform="scale(4.0128.2492)" style="font-size:46.954;font-family:Arial;text-anchor:middle"/><text x="456.88" y="-466.16" line-height="125%" style="letter-spacing:0;word-spacing:0;font-size:129.23;font-family:Gentium Book Basic"><tspan x="456.88" y="-466.16"/></text><text x="310.93" y="-2219.77" transform="scale(4.0128.2492)" style="font-size:46.954;font-family:Arial;text-anchor:middle"/><text x="67.757" y="-938.56" line-height="125%" style="letter-spacing:0;word-spacing:0;font-size:129.23;font-family:Gentium Book Basic"><tspan x="67.757" y="-938.56"/></text><text x="213.96" y="-4115.42" transform="scale(4.0128.2492)" style="font-size:46.954;font-family:Arial;text-anchor:middle"/><text x="649.02" y="-1018.57" line-height="125%" style="letter-spacing:0;word-spacing:0;font-size:129.23;font-family:Gentium Book Basic"><tspan x="649.02" y="-1018.57"/></text><text x="358.81" y="-4436.46" transform="scale(4.0128.2492)" style="font-size:46.954;font-family:Arial;text-anchor:middle"/><g line-height="125%" style="letter-spacing:0;word-spacing:0"><text x="-1183.78" y="396.15" style="font-size:208.33;font-family:Gentium Book Basic"><tspan x="-1183.78" y="396.15"/></text><text x="-149.19" y="251.11" style="font-size:129.23;font-family:&apos;Gentium Book Basic&apos;"><tspan x="-149.19" y="251.11"/></text></g><text x="159.9" y="658.53" transform="scale(4.0128.2492)" style="font-size:46.954;font-family:Arial;text-anchor:middle"/><text x="432.08" y="171.11" line-height="125%" style="letter-spacing:0;word-spacing:0;font-size:129.23;font-family:&apos;Gentium Book Basic&apos;"><tspan x="432.08" y="171.11"/></text><text x="304.75" y="337.49" transform="scale(4.0128.2492)" style="font-size:46.954;font-family:Arial;text-anchor:middle"/><text x="-639.5" y="-10.146" line-height="125%" style="letter-spacing:0;word-spacing:0;font-size:129.23;font-family:&apos;Gentium Book Basic&apos;"><tspan x="-639.5" y="-10.146"/></text><text x="37.713" y="-389.86" transform="scale(4.0128.2492)" style="font-size:46.954;font-family:Arial;text-anchor:middle"/><text x="458.55" y="-226.62" line-height="125%" style="letter-spacing:0;word-spacing:0;font-size:129.23;font-family:&apos;Gentium Book Basic&apos;"><tspan x="458.55" y="-226.62"/></text><text x="311.35" y="-1258.53" transform="scale(4.0128.2492)" style="font-size:46.954;font-family:Arial;text-anchor:middle"/><text x="1039.82" y="-306.62" line-height="125%" style="letter-spacing:0;word-spacing:0;font-size:129.23;font-family:&apos;Gentium Book Basic&apos;"><tspan x="1039.82" y="-306.62"/></text><text x="456.2" y="-1579.56" transform="scale(4.0128.2492)" style="font-size:46.954;font-family:Arial;text-anchor:middle"/><text x="650.7" y="-779.02" line-height="125%" style="letter-spacing:0;word-spacing:0;font-size:129.23;font-family:&apos;Gentium Book Basic&apos;"><tspan x="650.7" y="-779.02"/></text><text x="359.23" y="-3475.21" transform="scale(4.0128.2492)" style="font-size:46.954;font-family:Arial;text-anchor:middle"/><text x="1231.96" y="-859.03" line-height="125%" style="letter-spacing:0;word-spacing:0;font-size:129.23;font-family:&apos;Gentium Book Basic&apos;"><tspan x="1231.96" y="-859.03"/></text><text x="504.08" y="-3796.25" transform="scale(4.0128.2492)" style="font-size:46.954;font-family:Arial;text-anchor:middle"/><text x="-600.84" y="555.69" line-height="125%" style="letter-spacing:0;word-spacing:0;font-size:208.33;font-family:&apos;Gentium Book Basic&apos;"><tspan x="-600.84" y="555.69"/></text><path d="m26 0c-14.397 0-26 11.603-26 26v460c0 14.397 11.603 26 26 26h460c14.397 0 26-11.603 26-26v-460c0-14.397-11.603-26-26-26h-460" style="fill:#e63232"/><text x="-143.05" y="267.92" line-height="125%" style="letter-spacing:0;word-spacing:0;font-size:129.23;font-family:&apos;Gentium Book Basic&apos;"><tspan x="-143.05" y="267.92"/></text><text x="161.43" y="725.99" transform="scale(4.0128.2492)" style="font-size:46.954;font-family:Arial;text-anchor:middle"/><text x="438.22" y="187.92" line-height="125%" style="letter-spacing:0;word-spacing:0;font-size:129.23;font-family:&apos;Gentium Book Basic&apos;"><tspan x="438.22" y="187.92"/></text><text x="306.28" y="404.95" transform="scale(4.0128.2492)" style="font-size:46.954;font-family:Arial;text-anchor:middle"/><text x="-633.36" y="6.665" line-height="125%" style="letter-spacing:0;word-spacing:0;font-size:129.23;font-family:&apos;Gentium Book Basic&apos;"><tspan x="-633.36" y="6.665"/></text><text x="39.24" y="-322.4" transform="scale(4.0128.2492)" style="font-size:46.954;font-family:Arial;text-anchor:middle"/><text x="464.69" y="-209.81" line-height="125%" style="letter-spacing:0;word-spacing:0;font-size:129.23;font-family:&apos;Gentium Book Basic&apos;"><tspan x="464.69" y="-209.81"/></text><text x="312.88" y="-1191.07" transform="scale(4.0128.2492)" style="font-size:46.954;font-family:Arial;text-anchor:middle"/><text x="1045.96" y="-289.81" line-height="125%" style="letter-spacing:0;word-spacing:0;font-size:129.23;font-family:&apos;Gentium Book Basic&apos;"><tspan x="1045.96" y="-289.81"/></text><text x="457.73" y="-1512.1" transform="scale(4.0128.2492)" style="font-size:46.954;font-family:Arial;text-anchor:middle"/><text x="656.84" y="-762.21" line-height="125%" style="letter-spacing:0;word-spacing:0;font-size:129.23;font-family:&apos;Gentium Book Basic&apos;"><tspan x="656.84" y="-762.21"/></text><text x="360.76" y="-3407.75" transform="scale(4.0128.2492)" style="font-size:46.954;font-family:Arial;text-anchor:middle"/><text x="1238.1" y="-842.22" line-height="125%" style="letter-spacing:0;word-spacing:0;font-size:129.23;font-family:&apos;Gentium Book Basic&apos;"><tspan x="1238.1" y="-842.22"/></text><text x="505.61" y="-3728.79" transform="scale(4.0128.2492)" style="font-size:46.954;font-family:Arial;text-anchor:middle"/><text x="-594.7" y="572.5" line-height="125%" style="letter-spacing:0;word-spacing:0;font-size:208.33;font-family:&apos;Gentium Book Basic&apos;"><tspan x="-594.7" y="572.5"/></text><path d="m135.9 130.66v50.74h-34.449v34.488h-28.41v19.691h-32.04v40.836l94.9 94.9v10.02l130.66 130.66h219.44c14.397 0 26-11.603 26-26v-219.44l-135.9-135.9h-37.701v104.92h-59.838l-104.92-104.92h-37.74" style="opacity:.25"/><path d="m135.9 130.66v50.739h-34.45v34.489h-28.409v19.691h-32.04v40.836h32.04v19.691h28.409v34.489h34.45v50.739h37.739v-104.92h164.76v104.92h37.701v-50.739h34.489v-34.489h28.371v-19.691h32.04v-40.836h-32.04v-19.691h-28.371v-34.489h-34.489v-50.739h-37.701v104.92h-164.76v-104.92h-37.739" style="fill:#fff"/></svg>