<?xml version="1.0" encoding="UTF-8" standalone="no"?>
<svg xmlns="http://www.w3.org/2000/svg" viewBox="0 0 512 512">
 <text style="word-spacing:0;letter-spacing:0" font-size="129.23" y="91.57" x="-732.13" font-family="Gentium Book Basic" line-height="125%">
  <tspan y="91.57" x="-732.13"/>
 </text>
 <text style="text-anchor:middle" transform="scale(4.0128.2492)" font-size="46.954" y="18.314" x="14.632" font-family="Arial"/>
 <text style="word-spacing:0;letter-spacing:0" font-size="129.23" y="11.572" x="-150.86" font-family="Gentium Book Basic" line-height="125%">
  <tspan y="11.572" x="-150.86"/>
 </text>
 <text style="text-anchor:middle" transform="scale(4.0128.2492)" font-size="46.954" y="-302.72" x="159.48" font-family="Arial"/>
 <text style="word-spacing:0;letter-spacing:0" font-size="129.23" y="-169.69" x="-1222.44" font-family="Gentium Book Basic" line-height="125%">
  <tspan y="-169.69" x="-1222.44"/>
 </text>
 <text style="text-anchor:middle" transform="scale(4.0128.2492)" font-size="46.954" y="-1030.07" x="-107.56" font-family="Arial"/>
 <text style="word-spacing:0;letter-spacing:0" font-size="129.23" y="-386.16" x="-124.39" font-family="Gentium Book Basic" line-height="125%">
  <tspan y="-386.16" x="-124.39"/>
 </text>
 <text style="text-anchor:middle" transform="scale(4.0128.2492)" font-size="46.954" y="-1898.75" x="166.08" font-family="Arial"/>
 <text style="word-spacing:0;letter-spacing:0" font-size="129.23" y="-466.16" x="456.88" font-family="Gentium Book Basic" line-height="125%">
  <tspan y="-466.16" x="456.88"/>
 </text>
 <text style="text-anchor:middle" transform="scale(4.0128.2492)" font-size="46.954" y="-2219.77" x="310.93" font-family="Arial"/>
 <text style="word-spacing:0;letter-spacing:0" font-size="129.23" y="-938.56" x="67.757" font-family="Gentium Book Basic" line-height="125%">
  <tspan y="-938.56" x="67.757"/>
 </text>
 <text style="text-anchor:middle" transform="scale(4.0128.2492)" font-size="46.954" y="-4115.42" x="213.96" font-family="Arial"/>
 <text style="word-spacing:0;letter-spacing:0" font-size="129.23" y="-1018.57" x="649.02" font-family="Gentium Book Basic" line-height="125%">
  <tspan y="-1018.57" x="649.02"/>
 </text>
 <text style="text-anchor:middle" transform="scale(4.0128.2492)" font-size="46.954" y="-4436.46" x="358.81" font-family="Arial"/>
 <g style="word-spacing:0;letter-spacing:0" line-height="125%">
  <text y="396.15" x="-1183.78" font-family="Gentium Book Basic" font-size="208.33">
   <tspan y="396.15" x="-1183.78"/>
  </text>
  <text y="251.11" x="-149.19" font-family="&apos;Gentium Book Basic&apos;" font-size="129.23">
   <tspan y="251.11" x="-149.19"/>
  </text>
 </g>
 <text style="text-anchor:middle" transform="scale(4.0128.2492)" font-size="46.954" y="658.53" x="159.9" font-family="Arial"/>
 <text style="word-spacing:0;letter-spacing:0" font-size="129.23" y="171.11" x="432.08" font-family="&apos;Gentium Book Basic&apos;" line-height="125%">
  <tspan y="171.11" x="432.08"/>
 </text>
 <text style="text-anchor:middle" transform="scale(4.0128.2492)" font-size="46.954" y="337.49" x="304.75" font-family="Arial"/>
 <text style="word-spacing:0;letter-spacing:0" font-size="129.23" y="-10.146" x="-639.5" font-family="&apos;Gentium Book Basic&apos;" line-height="125%">
  <tspan y="-10.146" x="-639.5"/>
 </text>
 <text style="text-anchor:middle" transform="scale(4.0128.2492)" font-size="46.954" y="-389.86" x="37.713" font-family="Arial"/>
 <text style="word-spacing:0;letter-spacing:0" font-size="129.23" y="-226.62" x="458.55" font-family="&apos;Gentium Book Basic&apos;" line-height="125%">
  <tspan y="-226.62" x="458.55"/>
 </text>
 <text style="text-anchor:middle" transform="scale(4.0128.2492)" font-size="46.954" y="-1258.53" x="311.35" font-family="Arial"/>
 <text style="word-spacing:0;letter-spacing:0" font-size="129.23" y="-306.62" x="1039.82" font-family="&apos;Gentium Book Basic&apos;" line-height="125%">
  <tspan y="-306.62" x="1039.82"/>
 </text>
 <text style="text-anchor:middle" transform="scale(4.0128.2492)" font-size="46.954" y="-1579.56" x="456.2" font-family="Arial"/>
 <text style="word-spacing:0;letter-spacing:0" font-size="129.23" y="-779.02" x="650.7" font-family="&apos;Gentium Book Basic&apos;" line-height="125%">
  <tspan y="-779.02" x="650.7"/>
 </text>
 <text style="text-anchor:middle" transform="scale(4.0128.2492)" font-size="46.954" y="-3475.21" x="359.23" font-family="Arial"/>
 <text style="word-spacing:0;letter-spacing:0" font-size="129.23" y="-859.03" x="1231.96" font-family="&apos;Gentium Book Basic&apos;" line-height="125%">
  <tspan y="-859.03" x="1231.96"/>
 </text>
 <text style="text-anchor:middle" transform="scale(4.0128.2492)" font-size="46.954" y="-3796.25" x="504.08" font-family="Arial"/>
 <text style="word-spacing:0;letter-spacing:0" font-size="208.33" y="555.69" x="-600.84" font-family="&apos;Gentium Book Basic&apos;" line-height="125%">
  <tspan y="555.69" x="-600.84"/>
 </text>
 <path d="m26 0c-14.397 0-26 11.603-26 26v460c0 14.397 11.603 26 26 26h460c14.397 0 26-11.603 26-26v-460c0-14.397-11.603-26-26-26h-460" fill="#d23638"/>
 <text style="word-spacing:0;letter-spacing:0" font-size="129.23" y="66.58" x="1880.38" font-family="&apos;Gentium Book Basic&apos;" line-height="125%">
  <tspan y="66.58" x="1880.38"/>
 </text>
 <text style="text-anchor:middle" transform="scale(4.0128.2492)" font-size="46.954" y="-81.998" x="665.67" font-family="Arial"/>
 <text style="word-spacing:0;letter-spacing:0" font-size="129.23" y="-13.423" x="2461.64" font-family="&apos;Gentium Book Basic&apos;" line-height="125%">
  <tspan y="-13.423" x="2461.64"/>
 </text>
 <text style="text-anchor:middle" transform="scale(4.0128.2492)" font-size="46.954" y="-403.03" x="810.52" font-family="Arial"/>
 <text style="word-spacing:0;letter-spacing:0" font-size="129.23" y="-194.68" x="1390.06" font-family="&apos;Gentium Book Basic&apos;" line-height="125%">
  <tspan y="-194.68" x="1390.06"/>
 </text>
 <text style="text-anchor:middle" transform="scale(4.0128.2492)" font-size="46.954" y="-1130.37" x="543.48" font-family="Arial"/>
 <text style="word-spacing:0;letter-spacing:0" font-size="129.23" y="-411.15" x="2488.11" font-family="&apos;Gentium Book Basic&apos;" line-height="125%">
  <tspan y="-411.15" x="2488.11"/>
 </text>
 <text style="text-anchor:middle" transform="scale(4.0128.2492)" font-size="46.954" y="-1999.04" x="817.12" font-family="Arial"/>
 <text style="word-spacing:0;letter-spacing:0" font-size="129.23" y="-491.16" x="3069.39" font-family="&apos;Gentium Book Basic&apos;" line-height="125%">
  <tspan y="-491.16" x="3069.39"/>
 </text>
 <text style="text-anchor:middle" transform="scale(4.0128.2492)" font-size="46.954" y="-2320.08" x="961.97" font-family="Arial"/>
 <text style="word-spacing:0;letter-spacing:0" font-size="129.23" y="-963.56" x="2680.27" font-family="&apos;Gentium Book Basic&apos;" line-height="125%">
  <tspan y="-963.56" x="2680.27"/>
 </text>
 <text style="text-anchor:middle" transform="scale(4.0128.2492)" font-size="46.954" y="-4215.72" x="865" font-family="Arial"/>
 <text style="word-spacing:0;letter-spacing:0" font-size="129.23" y="-1043.56" x="3261.53" font-family="&apos;Gentium Book Basic&apos;" line-height="125%">
  <tspan y="-1043.56" x="3261.53"/>
 </text>
 <text style="text-anchor:middle" transform="scale(4.0128.2492)" font-size="46.954" y="-4536.75" x="1009.84" font-family="Arial"/>
 <text style="word-spacing:0;letter-spacing:0" font-size="208.33" y="371.16" x="1428.72" font-family="&apos;Gentium Book Basic&apos;" line-height="125%">
  <tspan y="371.16" x="1428.72"/>
 </text>
 <path opacity=".25" d="m81.28 41.01c-22.297 0-40.28 17.981-40.28 40.28v161.02l27.365 27.365c-9.119-0.012-18.236-0.026-27.355-0.035l0.01 0.01v161.06c0 11.148 4.497 21.22 11.779 28.5l0.041 0.041 52.748 52.748h380.41c14.397 0 26-11.603 26-26v-380.42l-52.789-52.789c-7.282-7.282-17.351-11.776-28.498-11.777l-0.002-0.002h-161.02v27.34l-27.34-27.34h-161.07m383.55 141.42h6.16v6.16l-6.16-6.16m-282.39 285.32l3.242 3.242h-3.242v-3.242"/>
 <path d="m81.28 41.01c-22.297 0-40.28 17.982-40.28 40.28v161.02h201.3c-0.124-67.08 0.016-134.19 0.05-201.3h-161.07m188.41 0v201.3c67.1-0.206 134.19-0.018 201.3 0.05v-161.07c0-22.297-17.982-40.28-40.28-40.28h-161.02m-136.55 55.43h41.938v36.704h36.704v41.938h-36.704v36.704h-41.938v-36.704h-36.704v-41.938h36.704v-36.704m167.06 36.704h115.34v41.938h-115.34v-41.938m-259.19 136.5v161.07c0 22.297 17.982 40.28 40.28 40.28h161.02v-201.3c-67.1 0.206-134.19 0.018-201.3-0.05m228.69 0.05c0.206 67.1 0.018 134.19-0.05 201.3h161.07c22.297 0 40.28-17.982 40.28-40.28v-161.02h-201.3m-141.52 32.577l25.923 25.988 25.988-25.972 29.655 29.655-25.923 25.923 25.923 25.988-29.655 29.655-25.972-25.923-25.923 25.923-29.655-29.655 25.988-25.972-25.972-25.923 29.655-29.655m172.04 4.985h115.34v41.938h-115.34v-41.938m0 59.31h115.34v41.938h-115.34v-41.938" fill="#fff"/>
</svg>
