<svg xmlns="http://www.w3.org/2000/svg" viewBox="0 0 512 512"><text x="-732.13" y="91.57" line-height="125%" style="letter-spacing:0;word-spacing:0;font-size:129.23;font-family:Gentium Book Basic"><tspan x="-732.13" y="91.57"/></text><text x="14.632" y="18.314" transform="scale(4.0128.2492)" style="font-size:46.954;font-family:Arial;text-anchor:middle"/><text x="-150.86" y="11.572" line-height="125%" style="letter-spacing:0;word-spacing:0;font-size:129.23;font-family:Gentium Book Basic"><tspan x="-150.86" y="11.572"/></text><text x="159.48" y="-302.72" transform="scale(4.0128.2492)" style="font-size:46.954;font-family:Arial;text-anchor:middle"/><text x="-1222.44" y="-169.69" line-height="125%" style="letter-spacing:0;word-spacing:0;font-size:129.23;font-family:Gentium Book Basic"><tspan x="-1222.44" y="-169.69"/></text><text x="-107.56" y="-1030.07" transform="scale(4.0128.2492)" style="font-size:46.954;font-family:Arial;text-anchor:middle"/><text x="-124.39" y="-386.16" line-height="125%" style="letter-spacing:0;word-spacing:0;font-size:129.23;font-family:Gentium Book Basic"><tspan x="-124.39" y="-386.16"/></text><text x="166.08" y="-1898.75" transform="scale(4.0128.2492)" style="font-size:46.954;font-family:Arial;text-anchor:middle"/><text x="456.88" y="-466.16" line-height="125%" style="letter-spacing:0;word-spacing:0;font-size:129.23;font-family:Gentium Book Basic"><tspan x="456.88" y="-466.16"/></text><text x="310.93" y="-2219.77" transform="scale(4.0128.2492)" style="font-size:46.954;font-family:Arial;text-anchor:middle"/><text x="67.757" y="-938.56" line-height="125%" style="letter-spacing:0;word-spacing:0;font-size:129.23;font-family:Gentium Book Basic"><tspan x="67.757" y="-938.56"/></text><text x="213.96" y="-4115.42" transform="scale(4.0128.2492)" style="font-size:46.954;font-family:Arial;text-anchor:middle"/><text x="649.02" y="-1018.57" line-height="125%" style="letter-spacing:0;word-spacing:0;font-size:129.23;font-family:Gentium Book Basic"><tspan x="649.02" y="-1018.57"/></text><text x="358.81" y="-4436.46" transform="scale(4.0128.2492)" style="font-size:46.954;font-family:Arial;text-anchor:middle"/><g line-height="125%" style="letter-spacing:0;word-spacing:0"><text x="-1183.78" y="396.15" style="font-size:208.33;font-family:Gentium Book Basic"><tspan x="-1183.78" y="396.15"/></text><text x="-149.19" y="251.11" style="font-size:129.23;font-family:&apos;Gentium Book Basic&apos;"><tspan x="-149.19" y="251.11"/></text></g><text x="159.9" y="658.53" transform="scale(4.0128.2492)" style="font-size:46.954;font-family:Arial;text-anchor:middle"/><text x="432.08" y="171.11" line-height="125%" style="letter-spacing:0;word-spacing:0;font-size:129.23;font-family:&apos;Gentium Book Basic&apos;"><tspan x="432.08" y="171.11"/></text><text x="304.75" y="337.49" transform="scale(4.0128.2492)" style="font-size:46.954;font-family:Arial;text-anchor:middle"/><text x="-639.5" y="-10.146" line-height="125%" style="letter-spacing:0;word-spacing:0;font-size:129.23;font-family:&apos;Gentium Book Basic&apos;"><tspan x="-639.5" y="-10.146"/></text><text x="37.713" y="-389.86" transform="scale(4.0128.2492)" style="font-size:46.954;font-family:Arial;text-anchor:middle"/><text x="458.55" y="-226.62" line-height="125%" style="letter-spacing:0;word-spacing:0;font-size:129.23;font-family:&apos;Gentium Book Basic&apos;"><tspan x="458.55" y="-226.62"/></text><text x="311.35" y="-1258.53" transform="scale(4.0128.2492)" style="font-size:46.954;font-family:Arial;text-anchor:middle"/><text x="1039.82" y="-306.62" line-height="125%" style="letter-spacing:0;word-spacing:0;font-size:129.23;font-family:&apos;Gentium Book Basic&apos;"><tspan x="1039.82" y="-306.62"/></text><text x="456.2" y="-1579.56" transform="scale(4.0128.2492)" style="font-size:46.954;font-family:Arial;text-anchor:middle"/><text x="650.7" y="-779.02" line-height="125%" style="letter-spacing:0;word-spacing:0;font-size:129.23;font-family:&apos;Gentium Book Basic&apos;"><tspan x="650.7" y="-779.02"/></text><text x="359.23" y="-3475.21" transform="scale(4.0128.2492)" style="font-size:46.954;font-family:Arial;text-anchor:middle"/><text x="1231.96" y="-859.03" line-height="125%" style="letter-spacing:0;word-spacing:0;font-size:129.23;font-family:&apos;Gentium Book Basic&apos;"><tspan x="1231.96" y="-859.03"/></text><text x="504.08" y="-3796.25" transform="scale(4.0128.2492)" style="font-size:46.954;font-family:Arial;text-anchor:middle"/><text x="-600.84" y="555.69" line-height="125%" style="letter-spacing:0;word-spacing:0;font-size:208.33;font-family:&apos;Gentium Book Basic&apos;"><tspan x="-600.84" y="555.69"/></text><path d="m26 0c-14.397 0-26 11.603-26 26v460c0 14.397 11.603 26 26 26h460c14.397 0 26-11.603 26-26v-460c0-14.397-11.603-26-26-26h-460" style="fill:#d23638"/><text x="1880.38" y="66.58" line-height="125%" style="letter-spacing:0;word-spacing:0;font-size:129.23;font-family:&apos;Gentium Book Basic&apos;"><tspan x="1880.38" y="66.58"/></text><text x="665.67" y="-81.998" transform="scale(4.0128.2492)" style="font-size:46.954;font-family:Arial;text-anchor:middle"/><text x="2461.64" y="-13.423" line-height="125%" style="letter-spacing:0;word-spacing:0;font-size:129.23;font-family:&apos;Gentium Book Basic&apos;"><tspan x="2461.64" y="-13.423"/></text><text x="810.52" y="-403.03" transform="scale(4.0128.2492)" style="font-size:46.954;font-family:Arial;text-anchor:middle"/><text x="1390.06" y="-194.68" line-height="125%" style="letter-spacing:0;word-spacing:0;font-size:129.23;font-family:&apos;Gentium Book Basic&apos;"><tspan x="1390.06" y="-194.68"/></text><text x="543.48" y="-1130.37" transform="scale(4.0128.2492)" style="font-size:46.954;font-family:Arial;text-anchor:middle"/><text x="2488.11" y="-411.15" line-height="125%" style="letter-spacing:0;word-spacing:0;font-size:129.23;font-family:&apos;Gentium Book Basic&apos;"><tspan x="2488.11" y="-411.15"/></text><text x="817.12" y="-1999.04" transform="scale(4.0128.2492)" style="font-size:46.954;font-family:Arial;text-anchor:middle"/><text x="3069.39" y="-491.16" line-height="125%" style="letter-spacing:0;word-spacing:0;font-size:129.23;font-family:&apos;Gentium Book Basic&apos;"><tspan x="3069.39" y="-491.16"/></text><text x="961.97" y="-2320.08" transform="scale(4.0128.2492)" style="font-size:46.954;font-family:Arial;text-anchor:middle"/><text x="2680.27" y="-963.56" line-height="125%" style="letter-spacing:0;word-spacing:0;font-size:129.23;font-family:&apos;Gentium Book Basic&apos;"><tspan x="2680.27" y="-963.56"/></text><text x="865" y="-4215.72" transform="scale(4.0128.2492)" style="font-size:46.954;font-family:Arial;text-anchor:middle"/><text x="3261.53" y="-1043.56" line-height="125%" style="letter-spacing:0;word-spacing:0;font-size:129.23;font-family:&apos;Gentium Book Basic&apos;"><tspan x="3261.53" y="-1043.56"/></text><text x="1009.84" y="-4536.75" transform="scale(4.0128.2492)" style="font-size:46.954;font-family:Arial;text-anchor:middle"/><text x="1428.72" y="371.16" line-height="125%" style="letter-spacing:0;word-spacing:0;font-size:208.33;font-family:&apos;Gentium Book Basic&apos;"><tspan x="1428.72" y="371.16"/></text><path d="m81.28 41.01c-22.297 0-40.28 17.981-40.28 40.28v161.02l27.365 27.365c-9.119-.012-18.236-.026-27.355-.035l.01.01v161.06c0 11.148 4.497 21.22 11.779 28.5.014.014.027.027.041.041l52.748 52.748h380.41c14.397 0 26-11.603 26-26v-380.42l-52.789-52.789c-7.282-7.282-17.351-11.776-28.498-11.777l-.002-.002h-161.02v27.34l-27.34-27.34h-161.07m383.55 141.42h6.16v6.16l-6.16-6.16m-282.39 285.32l3.242 3.242h-3.242v-3.242" style="opacity:.25"/><path d="m81.28 41.01c-22.297 0-40.28 17.982-40.28 40.28v161.02h201.3c-.124-67.08.016-134.19.05-201.3h-161.07m188.41 0v201.3c67.1-.206 134.19-.018 201.3.05v-161.07c0-22.297-17.982-40.28-40.28-40.28h-161.02m-136.55 55.43h41.938v36.704h36.704v41.938h-36.704v36.704h-41.938v-36.704h-36.704v-41.938h36.704v-36.704m167.06 36.704h115.34v41.938h-115.34v-41.938m-259.19 136.5v161.07c0 22.297 17.982 40.28 40.28 40.28h161.02v-201.3c-67.1.206-134.19.018-201.3-.05m228.69.05c.206 67.1.018 134.19-.05 201.3h161.07c22.297 0 40.28-17.982 40.28-40.28v-161.02h-201.3m-141.52 32.577l25.923 25.988 25.988-25.972 29.655 29.655-25.923 25.923 25.923 25.988-29.655 29.655-25.972-25.923-25.923 25.923-29.655-29.655 25.988-25.972-25.972-25.923 29.655-29.655m172.04 4.985h115.34v41.938h-115.34v-41.938m0 59.31h115.34v41.938h-115.34v-41.938" style="fill:#fff"/></svg>