<?xml version="1.0" encoding="UTF-8" standalone="no"?>
<!-- Created with Inkscape (http://www.inkscape.org/) -->
<svg id="svg2" xmlns:rdf="http://www.w3.org/1999/02/22-rdf-syntax-ns#" xmlns="http://www.w3.org/2000/svg" height="100%" width="100%" version="1.1" xmlns:cc="http://creativecommons.org/ns#" viewBox="0 0 512 512" xmlns:dc="http://purl.org/dc/elements/1.1/">
 <metadata id="metadata62">
  <rdf:RDF>
   <cc:Work rdf:about="">
    <dc:format>image/svg+xml</dc:format>
    <dc:type rdf:resource="http://purl.org/dc/dcmitype/StillImage"/>
   </cc:Work>
  </rdf:RDF>
 </metadata>
 <rect id="rect4" rx="25.988" height="512" width="512" y="0" x="0" fill="#cd1d31"/>
 <path id="path6" fill="#661019" d="m48.34 0v512h40v-512h-40" fill-rule="evenodd"/>
 <path id="path8" d="m176.5 40.906c-25.84-0.051-42.38 29.856-32.406 53.19 5.475 38.757 52.1 65.29 32.906 106.66-10.465 55.24-26.01 109.79-49.875 160.81-33.24 16.231-81 32.515-86.06 74.63 3.392 24.52 26.628 37.583 41.688 55.09 6.936 6.902 13.856 13.805 20.781 20.719h382.47c14.397 0 26-11.603 26-26v-124.85c-38.723-38.723 44.36 44.15-91.91-92.12-74.23-73.815-147.67-148.5-222.41-221.78-5.379-3.92-11.952-6.325-18.656-6.25-0.852-0.065-1.698-0.092-2.531-0.094" fill-opacity="0.235"/>
 <text id="text10" style="word-spacing:0;letter-spacing:0" font-size="129.23px" line-height="125%" y="197.42" x="169.89999" font-family="Gentium Book Basic">
  <tspan id="tspan12" y="197.42" x="169.89999"/>
 </text>
 <text id="text14" style="text-anchor:middle" transform="scale(4.0128 .2492)" font-size="46.954px" y="443.06" x="239.42" font-family="Arial"/>
 <text id="text16" style="word-spacing:0;letter-spacing:0" font-size="129.23px" line-height="125%" y="117.42" x="751.16998" font-family="Gentium Book Basic">
  <tspan id="tspan18" y="117.42" x="751.16998"/>
 </text>
 <text id="text20" style="text-anchor:middle" transform="scale(4.0128 .2492)" font-size="46.954px" y="122.03" x="384.26999" font-family="Arial"/>
 <text id="text22" style="word-spacing:0;letter-spacing:0" font-size="129.23px" line-height="125%" y="-63.839001" x="-320.41" font-family="Gentium Book Basic">
  <tspan id="tspan24" y="-63.839001" x="-320.41"/>
 </text>
 <text id="text26" style="text-anchor:middle" transform="scale(4.0128 .2492)" font-size="46.954px" y="-605.32001" x="117.23" font-family="Arial"/>
 <text id="text28" style="word-spacing:0;letter-spacing:0" font-size="129.23px" line-height="125%" y="-280.31" x="777.64001" font-family="Gentium Book Basic">
  <tspan id="tspan30" y="-280.31" x="777.64001"/>
 </text>
 <text id="text32" style="text-anchor:middle" transform="scale(4.0128 .2492)" font-size="46.954px" y="-1473.99" x="390.87" font-family="Arial"/>
 <text id="text34" style="word-spacing:0;letter-spacing:0" font-size="129.23px" line-height="125%" y="-360.32001" x="1358.91" font-family="Gentium Book Basic">
  <tspan id="tspan36" y="-360.32001" x="1358.91"/>
 </text>
 <text id="text38" style="text-anchor:middle" transform="scale(4.0128 .2492)" font-size="46.954px" y="-1795.03" x="535.71997" font-family="Arial"/>
 <text id="text40" style="word-spacing:0;letter-spacing:0" font-size="129.23px" line-height="125%" y="-832.71997" x="969.78998" font-family="Gentium Book Basic">
  <tspan id="tspan42" y="-832.71997" x="969.78998"/>
 </text>
 <text id="text44" style="text-anchor:middle" transform="scale(4.0128 .2492)" font-size="46.954px" y="-3690.6799" x="438.75" font-family="Arial"/>
 <text id="text46" style="word-spacing:0;letter-spacing:0" font-size="129.23px" line-height="125%" y="-912.71997" x="1551.05" font-family="Gentium Book Basic">
  <tspan id="tspan48" y="-912.71997" x="1551.05"/>
 </text>
 <text id="text50" style="text-anchor:middle" transform="scale(4.0128 .2492)" font-size="46.954px" y="-4011.71" x="583.59998" font-family="Arial"/>
 <text id="text52" style="word-spacing:0;letter-spacing:0" font-size="208.33px" line-height="125%" y="502" x="-281.75" font-family="Gentium Book Basic">
  <tspan id="tspan54" y="502" x="-281.75"/>
 </text>
 <path id="path56" d="m176.82 41.1c-20.966-0.367-39.06 20.486-34.627 41.32 2.984 31.834 23.51 57.667 39.528 83.954 1.801 9.789-3.362 19.318-3.707 29.04-10.443 57.05-26.376 113.8-50.887 166.16-30.33 13.963-64.68 27.752-82.42 57.846-11.259 20.88 4.594 49.06 27.865 51.26 21.589 2.953 37.614-15.548 49.42-31.05 12.322-16.674 20.431-36.528 30.684-54.45 62.05-24.988 127.32-42.45 193.96-49.08 26.943 19.283 55.49 42.03 90.04 43.41 20.08-0.299 36.33-19.793 34.13-39.593-1.294-18.03-17.309-30.669-33.9-34.05-26.759-8.06-55.42-3.646-82.64-3.45-52.38-41.854-100.73-90.01-138.82-145.11 2.827-33.498 8.503-70.55-8.939-101.03-6.623-9.611-17.85-16.202-29.679-15.16m0.998 30.422c5.898 1.137 6.29 9.922 7.941 14.619 1.554 9.574 1.384 19.344 1.271 29.01-7.02-13.13-16.15-26.843-14.522-42.4 1.851-0.073 3.491-1.01 5.31-1.226m32.501 130.64c31.22 38.817 65.896 74.57 103.74 106.97-49.9 7.61-99.47 20.359-146.95 37.557 18.208-47.589 32.07-96.75 41.21-146.93 0.666 0.803 1.331 1.604 1.997 2.407m194.73 130.49c12.1 1.168 26.07 0.467 35.764 8.809 0.909 7.529-8.301 8.628-13.206 5.903-10.233-3.417-20.357-7.712-29.04-14.257 2.165-0.134 4.321-0.412 6.494-0.454m-302.48 79.19c-5.756 10.705-14.13 20.798-22.872 28.379-2.908 4.707-10.888-3.996-7.216-7.673 7.581-11.867 20.817-18.16 32.534-25.25-0.817 1.514-1.632 3.03-2.451 4.541" fill="#fff"/>
</svg>
