<?xml version="1.0" encoding="UTF-8" standalone="no"?>
<!-- Created with Inkscape (http://www.inkscape.org/) -->
<svg id="svg2" xmlns:rdf="http://www.w3.org/1999/02/22-rdf-syntax-ns#" xmlns="http://www.w3.org/2000/svg" height="100%" width="100%" version="1.1" xmlns:cc="http://creativecommons.org/ns#" viewBox="0 0 512 512" xmlns:dc="http://purl.org/dc/elements/1.1/">
 <metadata id="metadata60">
  <rdf:RDF>
   <cc:Work rdf:about="">
    <dc:format>image/svg+xml</dc:format>
    <dc:type rdf:resource="http://purl.org/dc/dcmitype/StillImage"/>
   </cc:Work>
  </rdf:RDF>
 </metadata>
 <rect id="rect4" rx="25.988" height="512" width="512" y="0" x="0" fill="#c50e0e"/>
 <path id="path6" d="m315.53 42.656c-2.567 0.007-5.03 0.119-7.563 0.313-35.33 2.692-60.959 25.375-75.56 67.906-21.1 61.46-56.82 98.02-119.53 121.84-37.06 14.08-49.991 23.525-61.53 45.625-9.305 17.823-11.279 43.917-5.219 65.781 2.574 9.285 12.1 22.468 22.875 33 0.556 0.565 1.123 1.136 1.688 1.688 0.738 0.75 1.465 1.492 2.219 2.219 0.344 0.346 0.715 0.659 1.063 1 0.499 0.507 0.963 1 1.469 1.5 0.646 0.659 1.282 1.328 1.938 1.969 0.556 0.565 1.123 1.136 1.688 1.688 0.556 0.565 1.123 1.136 1.688 1.688 0.738 0.75 1.465 1.492 2.219 2.219 0.344 0.346 0.715 0.659 1.063 1 0.285 0.302 0.524 0.577 0.813 0.875l0.344 0.313c0.752 0.774 1.483 1.531 2.25 2.281 0.556 0.565 1.123 1.136 1.688 1.688 0.556 0.565 1.123 1.136 1.688 1.688 0.738 0.75 1.465 1.492 2.219 2.219 0.344 0.346 0.715 0.659 1.063 1 0.052 0.054 0.104 0.102 0.156 0.156 0.509 0.516 0.984 1.027 1.5 1.531 0.298 0.315 0.606 0.626 0.906 0.938 0.088 0.088 0.194 0.162 0.281 0.25 0.743 0.765 1.491 1.54 2.25 2.281 0.556 0.565 1.123 1.136 1.688 1.688 0.556 0.565 1.123 1.136 1.688 1.688 0.738 0.75 1.465 1.492 2.219 2.219 0.344 0.346 0.684 0.659 1.031 1 0.298 0.315 0.606 0.626 0.906 0.938l0.281 0.25c0.743 0.765 1.491 1.54 2.25 2.281 0.556 0.565 1.123 1.136 1.688 1.688 0.556 0.565 1.123 1.136 1.688 1.688 0.738 0.75 1.465 1.492 2.219 2.219 0.344 0.346 0.684 0.659 1.031 1 0.276 0.293 0.564 0.554 0.844 0.844 0.115 0.115 0.227 0.229 0.344 0.344 0.752 0.774 1.483 1.531 2.25 2.281 0.556 0.565 1.123 1.136 1.688 1.688 0.556 0.565 1.123 1.136 1.688 1.688 0.738 0.75 1.465 1.492 2.219 2.219 0.344 0.346 0.715 0.659 1.063 1 0.285 0.302 0.524 0.577 0.813 0.875l0.344 0.313c0.752 0.774 1.483 1.531 2.25 2.281 0.556 0.565 1.123 1.136 1.688 1.688 0.556 0.565 1.123 1.136 1.688 1.688 0.738 0.75 1.465 1.492 2.219 2.219 0.344 0.346 0.715 0.659 1.063 1 0.052 0.054 0.104 0.102 0.156 0.156 0.509 0.516 1.015 1.027 1.531 1.531 0.298 0.315 0.575 0.626 0.875 0.938l0.281 0.25c0.743 0.765 1.491 1.54 2.25 2.281 0.556 0.565 1.123 1.136 1.688 1.688 0.556 0.565 1.123 1.136 1.688 1.688 0.738 0.75 1.465 1.492 2.219 2.219 0.344 0.346 0.684 0.659 1.031 1 0.499 0.507 0.994 1.034 1.5 1.531 0.646 0.659 1.282 1.297 1.938 1.938 0.556 0.565 1.123 1.136 1.688 1.688 0.556 0.565 1.123 1.136 1.688 1.688 0.738 0.75 1.465 1.492 2.219 2.219 0.344 0.346 0.684 0.659 1.031 1 0.276 0.293 0.564 0.554 0.844 0.844 0.115 0.115 0.227 0.229 0.344 0.344 0.752 0.774 1.483 1.531 2.25 2.281 0.556 0.565 1.123 1.136 1.688 1.688 0.556 0.565 1.123 1.136 1.688 1.688 0.738 0.75 1.465 1.492 2.219 2.219 0.344 0.346 0.715 0.659 1.063 1 0.052 0.054 0.104 0.102 0.156 0.156 0.509 0.516 0.984 1.027 1.5 1.531 0.298 0.315 0.606 0.626 0.906 0.938l0.281 0.25c0.743 0.765 1.491 1.54 2.25 2.281 0.556 0.565 1.123 1.136 1.688 1.688 0.556 0.565 1.123 1.136 1.688 1.688 0.738 0.75 1.465 1.492 2.219 2.219 0.344 0.346 0.684 0.659 1.031 1 0.298 0.315 0.606 0.626 0.906 0.938 0.088 0.088 0.194 0.162 0.281 0.25 0.743 0.765 1.491 1.54 2.25 2.281 0.556 0.565 1.123 1.136 1.688 1.688 0.556 0.565 1.123 1.136 1.688 1.688 0.738 0.75 1.465 1.492 2.219 2.219 0.344 0.346 0.684 0.659 1.031 1 0.285 0.302 0.555 0.577 0.844 0.875l0.344 0.344c0.752 0.774 1.483 1.5 2.25 2.25 0.556 0.565 1.123 1.136 1.688 1.688 0.556 0.565 1.123 1.136 1.688 1.688 0.738 0.75 1.465 1.492 2.219 2.219 0.344 0.346 0.684 0.659 1.031 1 0.276 0.293 0.564 0.554 0.844 0.844 0.115 0.115 0.227 0.26 0.344 0.375 0.752 0.774 1.483 1.5 2.25 2.25 0.227 0.23 0.459 0.457 0.688 0.688h282.13c14.397 0 26-11.603 26-26v-282.87c-0.408-0.394-0.821-0.783-1.219-1.188-0.533-0.565-1.135-1.126-1.688-1.688-0.276-0.293-0.562-0.615-0.844-0.906-0.283-0.27-0.562-0.517-0.844-0.781-0.276-0.293-0.562-0.615-0.844-0.906-0.287-0.271-0.559-0.515-0.844-0.781-0.536-0.568-1.131-1.123-1.688-1.688-0.536-0.568-1.131-1.123-1.688-1.688-0.523-0.553-1.082-1.075-1.625-1.625-0.533-0.565-1.135-1.126-1.688-1.688-0.276-0.293-0.562-0.615-0.844-0.906-0.283-0.27-0.562-0.517-0.844-0.781-0.276-0.293-0.562-0.615-0.844-0.906-0.283-0.27-0.562-0.517-0.844-0.781-0.536-0.568-1.131-1.123-1.688-1.688-0.536-0.568-1.131-1.123-1.688-1.688-0.519-0.55-1.086-1.079-1.625-1.625-0.533-0.565-1.135-1.126-1.688-1.688-0.533-0.565-1.135-1.126-1.688-1.688-0.276-0.293-0.562-0.615-0.844-0.906-0.283-0.27-0.562-0.517-0.844-0.781-0.276-0.293-0.562-0.615-0.844-0.906-0.288-0.275-0.557-0.512-0.844-0.781-0.536-0.568-1.131-1.123-1.688-1.688-0.268-0.283-0.571-0.561-0.844-0.844-0.111-0.105-0.201-0.208-0.313-0.313-0.164-0.169-0.304-0.363-0.469-0.531-0.528-0.558-1.14-1.069-1.688-1.625-0.533-0.565-1.135-1.126-1.688-1.688-0.276-0.293-0.562-0.615-0.844-0.906-0.283-0.27-0.562-0.517-0.844-0.781-0.276-0.293-0.562-0.615-0.844-0.906-0.288-0.275-0.557-0.512-0.844-0.781-0.536-0.568-1.131-1.123-1.688-1.688-0.268-0.283-0.571-0.561-0.844-0.844-0.111-0.105-0.201-0.208-0.313-0.313-0.164-0.169-0.304-0.363-0.469-0.531-0.528-0.558-1.14-1.069-1.688-1.625-0.533-0.565-1.135-1.126-1.688-1.688-0.276-0.293-0.562-0.615-0.844-0.906-0.283-0.27-0.562-0.517-0.844-0.781-0.276-0.293-0.562-0.615-0.844-0.906-0.287-0.271-0.559-0.515-0.844-0.781-0.536-0.568-1.131-1.123-1.688-1.688-0.536-0.568-1.1-1.123-1.656-1.688-0.523-0.553-1.113-1.075-1.656-1.625-0.533-0.565-1.135-1.126-1.688-1.688-0.276-0.293-0.562-0.615-0.844-0.906-0.283-0.27-0.562-0.517-0.844-0.781-0.276-0.293-0.562-0.615-0.844-0.906-0.283-0.27-0.562-0.517-0.844-0.781-0.536-0.568-1.131-1.123-1.688-1.688-0.536-0.568-1.1-1.123-1.656-1.688-0.268-0.283-0.571-0.561-0.844-0.844-0.111-0.105-0.233-0.208-0.344-0.313-0.164-0.169-0.304-0.363-0.469-0.531-0.528-0.558-1.14-1.069-1.688-1.625-0.533-0.565-1.135-1.126-1.688-1.688-0.276-0.293-0.562-0.615-0.844-0.906-0.283-0.27-0.562-0.517-0.844-0.781-0.276-0.293-0.562-0.615-0.844-0.906-0.288-0.275-0.557-0.512-0.844-0.781-0.536-0.568-1.1-1.123-1.656-1.688-0.268-0.283-0.571-0.561-0.844-0.844-0.111-0.105-0.232-0.208-0.344-0.313-0.164-0.169-0.304-0.363-0.469-0.531-0.528-0.558-1.14-1.069-1.688-1.625-0.533-0.565-1.135-1.126-1.688-1.688-0.276-0.293-0.562-0.615-0.844-0.906-0.283-0.27-0.562-0.517-0.844-0.781-0.276-0.293-0.562-0.615-0.844-0.906-0.288-0.275-0.526-0.512-0.813-0.781-0.536-0.568-1.131-1.123-1.688-1.688-0.536-0.568-1.131-1.123-1.688-1.688-0.523-0.553-1.113-1.075-1.656-1.625-0.533-0.565-1.135-1.126-1.688-1.688-0.276-0.293-0.562-0.615-0.844-0.906-0.283-0.27-0.562-0.517-0.844-0.781-0.276-0.293-0.562-0.615-0.844-0.906-0.283-0.27-0.531-0.517-0.813-0.781-0.536-0.568-1.131-1.123-1.688-1.688-0.536-0.568-1.131-1.123-1.688-1.688-0.519-0.55-1.117-1.079-1.656-1.625-0.533-0.565-1.135-1.126-1.688-1.688-0.533-0.565-1.135-1.126-1.688-1.688-0.276-0.293-0.562-0.615-0.844-0.906-0.283-0.27-0.531-0.517-0.813-0.781-0.276-0.293-0.562-0.615-0.844-0.906-0.288-0.275-0.557-0.512-0.844-0.781-0.536-0.568-1.131-1.123-1.688-1.688-0.268-0.283-0.571-0.561-0.844-0.844-0.111-0.105-0.201-0.208-0.313-0.313-0.164-0.169-0.335-0.363-0.5-0.531-0.528-0.558-1.14-1.069-1.688-1.625-0.533-0.565-1.135-1.126-1.688-1.688-0.276-0.293-0.531-0.615-0.813-0.906-0.283-0.27-0.562-0.517-0.844-0.781-0.276-0.293-0.562-0.615-0.844-0.906-0.288-0.275-0.557-0.512-0.844-0.781-0.536-0.568-1.131-1.123-1.688-1.688-0.268-0.283-0.571-0.561-0.844-0.844-0.111-0.105-0.201-0.208-0.313-0.313-0.164-0.169-0.335-0.363-0.5-0.531-0.528-0.558-1.14-1.069-1.688-1.625-0.533-0.565-1.135-1.126-1.688-1.688-0.276-0.293-0.531-0.615-0.813-0.906-0.283-0.27-0.562-0.517-0.844-0.781-0.276-0.293-0.562-0.615-0.844-0.906-0.287-0.271-0.559-0.515-0.844-0.781-0.536-0.568-1.131-1.123-1.688-1.688-0.536-0.568-1.131-1.123-1.688-1.688-0.523-0.553-1.113-1.075-1.656-1.625-0.533-0.565-1.135-1.126-1.688-1.688-0.276-0.293-0.531-0.615-0.813-0.906-0.283-0.27-0.562-0.517-0.844-0.781-0.276-0.293-0.562-0.615-0.844-0.906-0.283-0.27-0.562-0.517-0.844-0.781-1.338-1.419-2.749-2.821-4.219-4.219-16.527-15.728-30.04-22.08-52.28-23.875-2.728-0.219-5.308-0.319-7.875-0.313h-0.031" fill-opacity="0.235"/>
 <text id="text8" style="word-spacing:0;letter-spacing:0" font-size="129.23px" line-height="125%" y="175.95" x="179.10001" font-family="Gentium Book Basic">
  <tspan id="tspan10" y="175.95" x="179.10001"/>
 </text>
 <text id="text12" style="text-anchor:middle" transform="scale(4.0128 .2492)" font-size="46.954px" y="356.88" x="241.71001" font-family="Arial"/>
 <text id="text14" style="word-spacing:0;letter-spacing:0" font-size="129.23px" line-height="125%" y="95.949997" x="760.37" font-family="Gentium Book Basic">
  <tspan id="tspan16" y="95.949997" x="760.37"/>
 </text>
 <text id="text18" style="text-anchor:middle" transform="scale(4.0128 .2492)" font-size="46.954px" y="35.849998" x="386.56" font-family="Arial"/>
 <text id="text20" style="word-spacing:0;letter-spacing:0" font-size="129.23px" line-height="125%" y="-85.32" x="-311.20999" font-family="Gentium Book Basic">
  <tspan id="tspan22" y="-85.32" x="-311.20999"/>
 </text>
 <text id="text24" style="text-anchor:middle" transform="scale(4.0128 .2492)" font-size="46.954px" y="-691.51001" x="119.52" font-family="Arial"/>
 <text id="text26" style="word-spacing:0;letter-spacing:0" font-size="129.23px" line-height="125%" y="-301.78" x="786.84003" font-family="Gentium Book Basic">
  <tspan id="tspan28" y="-301.78" x="786.84003"/>
 </text>
 <text id="text30" style="text-anchor:middle" transform="scale(4.0128 .2492)" font-size="46.954px" y="-1560.17" x="393.16" font-family="Arial"/>
 <text id="text32" style="word-spacing:0;letter-spacing:0" font-size="129.23px" line-height="125%" y="-381.79001" x="1368.11" font-family="Gentium Book Basic">
  <tspan id="tspan34" y="-381.79001" x="1368.11"/>
 </text>
 <text id="text36" style="text-anchor:middle" transform="scale(4.0128 .2492)" font-size="46.954px" y="-1881.21" x="538.01001" font-family="Arial"/>
 <text id="text38" style="word-spacing:0;letter-spacing:0" font-size="129.23px" line-height="125%" y="-854.19" x="978.98999" font-family="Gentium Book Basic">
  <tspan id="tspan40" y="-854.19" x="978.98999"/>
 </text>
 <text id="text42" style="text-anchor:middle" transform="scale(4.0128 .2492)" font-size="46.954px" y="-3776.8601" x="441.04001" font-family="Arial"/>
 <text id="text44" style="word-spacing:0;letter-spacing:0" font-size="129.23px" line-height="125%" y="-934.19" x="1560.25" font-family="Gentium Book Basic">
  <tspan id="tspan46" y="-934.19" x="1560.25"/>
 </text>
 <text id="text48" style="text-anchor:middle" transform="scale(4.0128 .2492)" font-size="46.954px" y="-4097.8901" x="585.89001" font-family="Arial"/>
 <text id="text50" style="word-spacing:0;letter-spacing:0" font-size="208.33px" line-height="125%" y="480.53" x="-272.54999" font-family="Gentium Book Basic">
  <tspan id="tspan52" y="480.53" x="-272.54999"/>
 </text>
 <path id="path54" d="m307.93 42.987c-35.33 2.692-60.923 25.37-75.53 67.902-21.1 61.46-56.796 97.99-119.51 121.83-37.06 14.08-50.02 23.514-61.56 45.616-9.305 17.823-11.234 43.964-5.174 65.828 4.03 14.551 25.03 38.588 41.39 47.17 15.489 8.13 44.522 9.128 87.43 2.593 25.15-3.83 31.21-4.044 54.31 0.519 32.533 6.423 63.24 21.913 89.5 44.581 24.291 20.972 34.04 26.07 52.764 29.03 18.18 2.871 32.2 1.042 50.707-6.74 16.463-6.925 34.553-25.404 41.906-42.514 2.733-6.355 5.142-20.279 5.174-31.621 0.069-24.485-7.417-41.24-26.903-63.761-19.01-21.965-32.567-43.93-40.35-65.32-9.258-25.438-11.229-76.41-4.138-108.34 7.957-35.835 1.264-60.57-22.245-82.938-16.527-15.728-30.01-22.05-52.25-23.853-5.457-0.438-10.473-0.384-15.521 0m-34.14 161.73c18.14-0.394 36.938 6.382 51.735 20.736 36.81 35.704 28.06 93.07-17.589 116.12-14.448 7.296-37.946 8.859-54.31 3.629-15.431-4.929-33.934-20.5-42.43-36.29-3.581-6.662-5.118-17.581-5.174-32.15-0.071-18.402 1.35-23.597 8.795-36.29 13.38-22.808 35.653-35.26 58.977-35.771" fill="#f9f9f9"/>
</svg>
