<svg xmlns="http://www.w3.org/2000/svg" viewBox="0 0 512 512"><text x="-732.13" y="91.57" line-height="125%" style="letter-spacing:0;word-spacing:0;font-size:129.23;font-family:Gentium Book Basic"><tspan x="-732.13" y="91.57"/></text><text x="14.632" y="18.314" transform="scale(4.0128.2492)" style="font-size:46.954;font-family:Arial;text-anchor:middle"/><text x="-150.86" y="11.572" line-height="125%" style="letter-spacing:0;word-spacing:0;font-size:129.23;font-family:Gentium Book Basic"><tspan x="-150.86" y="11.572"/></text><text x="159.48" y="-302.72" transform="scale(4.0128.2492)" style="font-size:46.954;font-family:Arial;text-anchor:middle"/><text x="-1222.44" y="-169.69" line-height="125%" style="letter-spacing:0;word-spacing:0;font-size:129.23;font-family:Gentium Book Basic"><tspan x="-1222.44" y="-169.69"/></text><text x="-107.56" y="-1030.07" transform="scale(4.0128.2492)" style="font-size:46.954;font-family:Arial;text-anchor:middle"/><text x="-124.39" y="-386.16" line-height="125%" style="letter-spacing:0;word-spacing:0;font-size:129.23;font-family:Gentium Book Basic"><tspan x="-124.39" y="-386.16"/></text><text x="166.08" y="-1898.75" transform="scale(4.0128.2492)" style="font-size:46.954;font-family:Arial;text-anchor:middle"/><text x="456.88" y="-466.16" line-height="125%" style="letter-spacing:0;word-spacing:0;font-size:129.23;font-family:Gentium Book Basic"><tspan x="456.88" y="-466.16"/></text><text x="310.93" y="-2219.77" transform="scale(4.0128.2492)" style="font-size:46.954;font-family:Arial;text-anchor:middle"/><text x="67.757" y="-938.56" line-height="125%" style="letter-spacing:0;word-spacing:0;font-size:129.23;font-family:Gentium Book Basic"><tspan x="67.757" y="-938.56"/></text><text x="213.96" y="-4115.42" transform="scale(4.0128.2492)" style="font-size:46.954;font-family:Arial;text-anchor:middle"/><text x="649.02" y="-1018.57" line-height="125%" style="letter-spacing:0;word-spacing:0;font-size:129.23;font-family:Gentium Book Basic"><tspan x="649.02" y="-1018.57"/></text><text x="358.81" y="-4436.46" transform="scale(4.0128.2492)" style="font-size:46.954;font-family:Arial;text-anchor:middle"/><g line-height="125%" style="letter-spacing:0;word-spacing:0"><text x="-1183.78" y="396.15" style="font-size:208.33;font-family:Gentium Book Basic"><tspan x="-1183.78" y="396.15"/></text><text x="-149.19" y="251.11" style="font-size:129.23;font-family:&apos;Gentium Book Basic&apos;"><tspan x="-149.19" y="251.11"/></text></g><text x="159.9" y="658.53" transform="scale(4.0128.2492)" style="font-size:46.954;font-family:Arial;text-anchor:middle"/><text x="432.08" y="171.11" line-height="125%" style="letter-spacing:0;word-spacing:0;font-size:129.23;font-family:&apos;Gentium Book Basic&apos;"><tspan x="432.08" y="171.11"/></text><text x="304.75" y="337.49" transform="scale(4.0128.2492)" style="font-size:46.954;font-family:Arial;text-anchor:middle"/><text x="-639.5" y="-10.146" line-height="125%" style="letter-spacing:0;word-spacing:0;font-size:129.23;font-family:&apos;Gentium Book Basic&apos;"><tspan x="-639.5" y="-10.146"/></text><text x="37.713" y="-389.86" transform="scale(4.0128.2492)" style="font-size:46.954;font-family:Arial;text-anchor:middle"/><text x="458.55" y="-226.62" line-height="125%" style="letter-spacing:0;word-spacing:0;font-size:129.23;font-family:&apos;Gentium Book Basic&apos;"><tspan x="458.55" y="-226.62"/></text><text x="311.35" y="-1258.53" transform="scale(4.0128.2492)" style="font-size:46.954;font-family:Arial;text-anchor:middle"/><text x="1039.82" y="-306.62" line-height="125%" style="letter-spacing:0;word-spacing:0;font-size:129.23;font-family:&apos;Gentium Book Basic&apos;"><tspan x="1039.82" y="-306.62"/></text><text x="456.2" y="-1579.56" transform="scale(4.0128.2492)" style="font-size:46.954;font-family:Arial;text-anchor:middle"/><text x="650.7" y="-779.02" line-height="125%" style="letter-spacing:0;word-spacing:0;font-size:129.23;font-family:&apos;Gentium Book Basic&apos;"><tspan x="650.7" y="-779.02"/></text><text x="359.23" y="-3475.21" transform="scale(4.0128.2492)" style="font-size:46.954;font-family:Arial;text-anchor:middle"/><text x="1231.96" y="-859.03" line-height="125%" style="letter-spacing:0;word-spacing:0;font-size:129.23;font-family:&apos;Gentium Book Basic&apos;"><tspan x="1231.96" y="-859.03"/></text><text x="504.08" y="-3796.25" transform="scale(4.0128.2492)" style="font-size:46.954;font-family:Arial;text-anchor:middle"/><g line-height="125%" style="letter-spacing:0;word-spacing:0;font-family:&apos;Gentium Book Basic&apos;"><text x="-600.84" y="555.69" style="font-size:208.33"><tspan x="-600.84" y="555.69"/></text><text x="1880.38" y="66.58" style="font-size:129.23"><tspan x="1880.38" y="66.58"/></text></g><text x="665.67" y="-81.998" transform="scale(4.0128.2492)" style="font-size:46.954;font-family:Arial;text-anchor:middle"/><text x="2461.64" y="-13.423" line-height="125%" style="letter-spacing:0;word-spacing:0;font-size:129.23;font-family:&apos;Gentium Book Basic&apos;"><tspan x="2461.64" y="-13.423"/></text><text x="810.52" y="-403.03" transform="scale(4.0128.2492)" style="font-size:46.954;font-family:Arial;text-anchor:middle"/><text x="1390.06" y="-194.68" line-height="125%" style="letter-spacing:0;word-spacing:0;font-size:129.23;font-family:&apos;Gentium Book Basic&apos;"><tspan x="1390.06" y="-194.68"/></text><text x="543.48" y="-1130.37" transform="scale(4.0128.2492)" style="font-size:46.954;font-family:Arial;text-anchor:middle"/><text x="2488.11" y="-411.15" line-height="125%" style="letter-spacing:0;word-spacing:0;font-size:129.23;font-family:&apos;Gentium Book Basic&apos;"><tspan x="2488.11" y="-411.15"/></text><text x="817.12" y="-1999.04" transform="scale(4.0128.2492)" style="font-size:46.954;font-family:Arial;text-anchor:middle"/><text x="3069.39" y="-491.16" line-height="125%" style="letter-spacing:0;word-spacing:0;font-size:129.23;font-family:&apos;Gentium Book Basic&apos;"><tspan x="3069.39" y="-491.16"/></text><text x="961.97" y="-2320.08" transform="scale(4.0128.2492)" style="font-size:46.954;font-family:Arial;text-anchor:middle"/><text x="2680.27" y="-963.56" line-height="125%" style="letter-spacing:0;word-spacing:0;font-size:129.23;font-family:&apos;Gentium Book Basic&apos;"><tspan x="2680.27" y="-963.56"/></text><text x="865" y="-4215.72" transform="scale(4.0128.2492)" style="font-size:46.954;font-family:Arial;text-anchor:middle"/><text x="3261.53" y="-1043.56" line-height="125%" style="letter-spacing:0;word-spacing:0;font-size:129.23;font-family:&apos;Gentium Book Basic&apos;"><tspan x="3261.53" y="-1043.56"/></text><text x="1009.84" y="-4536.75" transform="scale(4.0128.2492)" style="font-size:46.954;font-family:Arial;text-anchor:middle"/><g line-height="125%" style="letter-spacing:0;word-spacing:0;font-family:&apos;Gentium Book Basic&apos;"><text x="1428.72" y="371.16" style="font-size:208.33"><tspan x="1428.72" y="371.16"/></text><text x="-78.62" y="189.75" style="font-size:129.23"><tspan x="-78.62" y="189.75"/></text></g><text x="177.49" y="412.29" transform="scale(4.0128.2492)" style="font-size:46.954;font-family:Arial;text-anchor:middle"/><text x="502.65" y="109.75" line-height="125%" style="letter-spacing:0;word-spacing:0;font-size:129.23;font-family:&apos;Gentium Book Basic&apos;"><tspan x="502.65" y="109.75"/></text><text x="322.34" y="91.25" transform="scale(4.0128.2492)" style="font-size:46.954;font-family:Arial;text-anchor:middle"/><text x="-568.93" y="-71.51" line-height="125%" style="letter-spacing:0;word-spacing:0;font-size:129.23;font-family:&apos;Gentium Book Basic&apos;"><tspan x="-568.93" y="-71.51"/></text><text x="55.3" y="-636.09" transform="scale(4.0128.2492)" style="font-size:46.954;font-family:Arial;text-anchor:middle"/><text x="529.12" y="-287.98" line-height="125%" style="letter-spacing:0;word-spacing:0;font-size:129.23;font-family:&apos;Gentium Book Basic&apos;"><tspan x="529.12" y="-287.98"/></text><text x="328.94" y="-1504.77" transform="scale(4.0128.2492)" style="font-size:46.954;font-family:Arial;text-anchor:middle"/><text x="1110.39" y="-367.98" line-height="125%" style="letter-spacing:0;word-spacing:0;font-size:129.23;font-family:&apos;Gentium Book Basic&apos;"><tspan x="1110.39" y="-367.98"/></text><text x="473.79" y="-1825.8" transform="scale(4.0128.2492)" style="font-size:46.954;font-family:Arial;text-anchor:middle"/><text x="721.27" y="-840.38" line-height="125%" style="letter-spacing:0;word-spacing:0;font-size:129.23;font-family:&apos;Gentium Book Basic&apos;"><tspan x="721.27" y="-840.38"/></text><text x="376.82" y="-3721.45" transform="scale(4.0128.2492)" style="font-size:46.954;font-family:Arial;text-anchor:middle"/><text x="1302.53" y="-920.39" line-height="125%" style="letter-spacing:0;word-spacing:0;font-size:129.23;font-family:&apos;Gentium Book Basic&apos;"><tspan x="1302.53" y="-920.39"/></text><text x="521.67" y="-4042.48" transform="scale(4.0128.2492)" style="font-size:46.954;font-family:Arial;text-anchor:middle"/><text x="-530.27" y="494.33" line-height="125%" style="letter-spacing:0;word-spacing:0;font-size:208.33;font-family:&apos;Gentium Book Basic&apos;"><tspan x="-530.27" y="494.33"/></text><path d="m26 0c-14.397 0-26 11.603-26 26v460c0 14.397 11.603 26 26 26h460c14.397 0 26-11.603 26-26v-460c0-14.397-11.603-26-26-26h-460" style="fill:#73b547"/><text x="-250.44" y="21.01" line-height="125%" style="letter-spacing:0;word-spacing:0;font-size:129.23;font-family:&apos;Gentium Book Basic&apos;"><tspan x="-250.44" y="21.01"/></text><text x="134.67" y="-264.86" transform="scale(4.0128.2492)" style="font-size:46.954;font-family:Arial;text-anchor:middle"/><text x="330.83" y="-58.995" line-height="125%" style="letter-spacing:0;word-spacing:0;font-size:129.23;font-family:&apos;Gentium Book Basic&apos;"><tspan x="330.83" y="-58.995"/></text><text x="279.52" y="-585.9" transform="scale(4.0128.2492)" style="font-size:46.954;font-family:Arial;text-anchor:middle"/><text x="-740.75" y="-240.25" line-height="125%" style="letter-spacing:0;word-spacing:0;font-size:129.23;font-family:&apos;Gentium Book Basic&apos;"><tspan x="-740.75" y="-240.25"/></text><text x="12.482" y="-1313.24" transform="scale(4.0128.2492)" style="font-size:46.954;font-family:Arial;text-anchor:middle"/><text x="357.3" y="-456.72" line-height="125%" style="letter-spacing:0;word-spacing:0;font-size:129.23;font-family:&apos;Gentium Book Basic&apos;"><tspan x="357.3" y="-456.72"/></text><text x="286.12" y="-2181.92" transform="scale(4.0128.2492)" style="font-size:46.954;font-family:Arial;text-anchor:middle"/><text x="938.57" y="-536.72" line-height="125%" style="letter-spacing:0;word-spacing:0;font-size:129.23;font-family:&apos;Gentium Book Basic&apos;"><tspan x="938.57" y="-536.72"/></text><text x="430.97" y="-2502.95" transform="scale(4.0128.2492)" style="font-size:46.954;font-family:Arial;text-anchor:middle"/><text x="549.45" y="-1009.12" line-height="125%" style="letter-spacing:0;word-spacing:0;font-size:129.23;font-family:&apos;Gentium Book Basic&apos;"><tspan x="549.45" y="-1009.12"/></text><text x="334" y="-4398.6" transform="scale(4.0128.2492)" style="font-size:46.954;font-family:Arial;text-anchor:middle"/><text x="1130.71" y="-1089.13" line-height="125%" style="letter-spacing:0;word-spacing:0;font-size:129.23;font-family:&apos;Gentium Book Basic&apos;"><tspan x="1130.71" y="-1089.13"/></text><text x="478.85" y="-4719.64" transform="scale(4.0128.2492)" style="font-size:46.954;font-family:Arial;text-anchor:middle"/><g line-height="125%" style="letter-spacing:0;word-spacing:0;font-family:&apos;Gentium Book Basic&apos;"><text x="-702.09" y="325.59" style="font-size:208.33"><tspan x="-702.09" y="325.59"/></text><text x="-391.57" y="174.41" style="font-size:129.23"><tspan x="-391.57" y="174.41"/></text></g><text x="99.5" y="350.73" transform="scale(4.0128.2492)" style="font-size:46.954;font-family:Arial;text-anchor:middle"/><text x="189.7" y="94.41" line-height="125%" style="letter-spacing:0;word-spacing:0;font-size:129.23;font-family:&apos;Gentium Book Basic&apos;"><tspan x="189.7" y="94.41"/></text><text x="244.35" y="29.695" transform="scale(4.0128.2492)" style="font-size:46.954;font-family:Arial;text-anchor:middle"/><text x="-881.88" y="-86.85" line-height="125%" style="letter-spacing:0;word-spacing:0;font-size:129.23;font-family:&apos;Gentium Book Basic&apos;"><tspan x="-881.88" y="-86.85"/></text><text x="-22.689" y="-697.65" transform="scale(4.0128.2492)" style="font-size:46.954;font-family:Arial;text-anchor:middle"/><text x="216.17" y="-303.32" line-height="125%" style="letter-spacing:0;word-spacing:0;font-size:129.23;font-family:&apos;Gentium Book Basic&apos;"><tspan x="216.17" y="-303.32"/></text><text x="250.95" y="-1566.33" transform="scale(4.0128.2492)" style="font-size:46.954;font-family:Arial;text-anchor:middle"/><text x="797.44" y="-383.32" line-height="125%" style="letter-spacing:0;word-spacing:0;font-size:129.23;font-family:&apos;Gentium Book Basic&apos;"><tspan x="797.44" y="-383.32"/></text><text x="395.8" y="-1887.36" transform="scale(4.0128.2492)" style="font-size:46.954;font-family:Arial;text-anchor:middle"/><text x="408.32" y="-855.72" line-height="125%" style="letter-spacing:0;word-spacing:0;font-size:129.23;font-family:&apos;Gentium Book Basic&apos;"><tspan x="408.32" y="-855.72"/></text><text x="298.83" y="-3783.01" transform="scale(4.0128.2492)" style="font-size:46.954;font-family:Arial;text-anchor:middle"/><text x="989.58" y="-935.73" line-height="125%" style="letter-spacing:0;word-spacing:0;font-size:129.23;font-family:&apos;Gentium Book Basic&apos;"><tspan x="989.58" y="-935.73"/></text><text x="443.68" y="-4104.04" transform="scale(4.0128.2492)" style="font-size:46.954;font-family:Arial;text-anchor:middle"/><g line-height="125%" style="letter-spacing:0;word-spacing:0;font-family:&apos;Gentium Book Basic&apos;"><text x="-843.22" y="478.99" style="font-size:208.33"><tspan x="-843.22" y="478.99"/></text><text x="-1548.88" y="397.64" style="font-size:199.47"><tspan x="-1548.88" y="397.64"/></text></g><text x="-81.78" y="1056.72" transform="scale(4.0128.2492)" style="font-size:72.48;font-family:Arial;text-anchor:middle"/><text x="-1054.91" y="197.32" line-height="125%" style="letter-spacing:0;word-spacing:0;font-size:208.33;font-family:&apos;Gentium Book Basic&apos;"><tspan x="-1054.91" y="197.32"/></text><text x="54.84" y="228.91" transform="scale(4.0128.2492)" style="font-size:75.7;font-family:Arial;text-anchor:middle"/><text x="-1585.76" y="412.83" line-height="125%" style="letter-spacing:0;word-spacing:0;font-size:199.47;font-family:&apos;Gentium Book Basic&apos;"><tspan x="-1585.76" y="412.83"/></text><text x="-90.97" y="1117.66" transform="scale(4.0128.2492)" style="font-size:72.48;font-family:Arial;text-anchor:middle"/><text x="-1091.79" y="212.51" line-height="125%" style="letter-spacing:0;word-spacing:0;font-size:208.33;font-family:&apos;Gentium Book Basic&apos;"><tspan x="-1091.79" y="212.51"/></text><text x="45.649" y="289.85" transform="scale(4.0128.2492)" style="font-size:75.7;font-family:Arial;text-anchor:middle"/><text x="1541.35" y="198.74" line-height="125%" style="letter-spacing:0;word-spacing:0;font-size:129.23;font-family:&apos;Gentium Book Basic&apos;"><tspan x="1541.35" y="198.74"/></text><text x="581.19" y="448.35" transform="scale(4.0128.2492)" style="font-size:46.954;font-family:Arial;text-anchor:middle"/><text x="2122.62" y="118.74" line-height="125%" style="letter-spacing:0;word-spacing:0;font-size:129.23;font-family:&apos;Gentium Book Basic&apos;"><tspan x="2122.62" y="118.74"/></text><text x="726.04" y="127.31" transform="scale(4.0128.2492)" style="font-size:46.954;font-family:Arial;text-anchor:middle"/><text x="1051.04" y="-62.52" line-height="125%" style="letter-spacing:0;word-spacing:0;font-size:129.23;font-family:&apos;Gentium Book Basic&apos;"><tspan x="1051.04" y="-62.52"/></text><text x="459" y="-600.04" transform="scale(4.0128.2492)" style="font-size:46.954;font-family:Arial;text-anchor:middle"/><text x="2149.09" y="-278.99" line-height="125%" style="letter-spacing:0;word-spacing:0;font-size:129.23;font-family:&apos;Gentium Book Basic&apos;"><tspan x="2149.09" y="-278.99"/></text><text x="732.64" y="-1468.71" transform="scale(4.0128.2492)" style="font-size:46.954;font-family:Arial;text-anchor:middle"/><text x="2730.36" y="-358.99" line-height="125%" style="letter-spacing:0;word-spacing:0;font-size:129.23;font-family:&apos;Gentium Book Basic&apos;"><tspan x="2730.36" y="-358.99"/></text><text x="877.49" y="-1789.74" transform="scale(4.0128.2492)" style="font-size:46.954;font-family:Arial;text-anchor:middle"/><text x="2341.24" y="-831.39" line-height="125%" style="letter-spacing:0;word-spacing:0;font-size:129.23;font-family:&apos;Gentium Book Basic&apos;"><tspan x="2341.24" y="-831.39"/></text><text x="780.52" y="-3685.39" transform="scale(4.0128.2492)" style="font-size:46.954;font-family:Arial;text-anchor:middle"/><text x="2922.5" y="-911.4" line-height="125%" style="letter-spacing:0;word-spacing:0;font-size:129.23;font-family:&apos;Gentium Book Basic&apos;"><tspan x="2922.5" y="-911.4"/></text><text x="925.36" y="-4006.43" transform="scale(4.0128.2492)" style="font-size:46.954;font-family:Arial;text-anchor:middle"/><text x="1089.7" y="503.32" line-height="125%" style="letter-spacing:0;word-spacing:0;font-size:208.33;font-family:&apos;Gentium Book Basic&apos;"><tspan x="1089.7" y="503.32"/></text><path d="m256.29 59.04c-7.567 50.12-26.12 177.25-29.15 239.53-.139 2.86-.213 5.715-.25 8.564l-120.91-120.91c2.851 16.284 6.956 38.563 12.154 63.57 7.9 37.998 18.271 81.31 29.611 114.73 5.771 12.429 11.357 25.897 18.857 38.529l-29.3-29.3c-15.332-7.204-32.408-14.04-49.07-20.09-25.881-9.389-47.29-15.902-63.07-20.465 8.741 9.872 20.241 22.479 34.836 37.07l141.73 141.73h284.27c14.397 0 26-11.603 26-26v-253.2l-40.949-40.949c-16.16 3.929-40.26 10.83-60.22 21.721l-154.53-154.54" style="opacity:.25"/><path d="m256.29 59.04c-7.567 50.12-26.12 177.25-29.15 239.53-.689 14.159-.079 28.24 1.42 41.766 1.743 13.13 1.328 14.277 7.393 41.724 5.074 21.235 11.273 39.11 15.996 51.33 1.188-3.553 2.535-7.586 4.051-12.03 7.21-21.376 3.363-10.01 8.854-25.352 11.01-30.936 24.15-65.53 34.415-82.82 2.858-4.813 6.101-9.847 9.606-14.994-.366-86.19-36.23-194.18-52.583-239.15m-150.31 127.18c2.851 16.284 6.955 38.564 12.154 63.57 7.9 37.998 18.271 81.31 29.612 114.73 14.665 31.583 28.08 69.898 74.969 84.07 6.492 1.892 14.369 3.102 22.22 3.842v-.71c-5.416-15.586-.617-.92-6.265-17.17-7.814-21.06-18.02-53.697-22.428-90.13-5.376-10.04-10.146-18.743-13.699-24.725-9.101-15.325-37.491-54.45-63.23-89.13-17.481-23.549-24.618-32.86-33.33-44.36zm365.07 5.638c-19.762 4.805-51.41 14.05-72.839 29.612-27.13 19.698-56.57 52.27-76.56 80.73-8.599 13.788-.248.648-13.824 21.927-8.74 16.586-20.933 48.17-30.907 76.18-2.628 7.381-4.907 13.968-7.02 20.09-4.307 22.382 10.717 11.166 24.475-2.965 10.233-11.652 20.678-22.68 28.818-28.19 13.266-8.983 29.497-17.561 46.736-25.519 7.695-23.336 15.209-50.31 40.68-93.22 8.551-14.408 26.496-37.32 42.517-57.09 9.558-11.795 12.342-14.932 17.917-21.551m-445.89 141.33c10.537 11.9 25.09 27.777 44.23 46.32 32.884 31.847 74.12 64.47 100.91 69.08 9.542 1.643 18.522 2.751 26.939 3.508-25.648-13.337-41.25-34.08-51.08-56.01-3.02-6.75-5.99-14.27-8.854-22.345-15.332-7.204-32.408-14.04-49.07-20.09-25.881-9.389-47.29-15.902-63.07-20.465m461.68.501c-12.12 3.774-28.28 8.964-46.44 15.453-19.17 6.852-40.26 15.04-60.02 23.932-10.49 4.408-3.041.98-16.623 7.852-12.413 6.133-23.867 12.484-33.371 18.92-6.959 4.712-22.325 21.12-34.832 35.793-5.467 6.412-8.544 10.202-11.193 13.532.111.223.275.549.376.752 18.791 3.192 15.407 3.493 30.865 2.589 7.664-.932 16.376-2.179 26.521-3.926 26.784-4.612 68.02-37.23 100.91-69.08 18.725-18.13 33.25-33.914 43.812-45.817z" style="fill:#fff"/></svg>