<svg xmlns="http://www.w3.org/2000/svg" xmlns:svg="http://www.w3.org/2000/svg" id="svg2" version="1.1" viewBox="0 0 512 512"><metadata id="metadata586"/><g id="g3935" transform="translate(553.46479,-421.85915)"><path id="path362" d="m -527.46479,421.85915 c -14.397,0 -26,11.603 -26,26 l 0,460 c 0,14.397 11.603,26 26,26 l 460.000001,0 c 14.397,0 26,-11.603 26,-26 l 0,-460 c 0,-14.397 -11.603,-26 -26,-26 l -460.000001,0" style="fill:#f38725"/><path id="path578" d="m -252.68479,462.85915 c -61.21,0 -71.75,1.807 -104.53,17.908 -96.71,47.49 -155.32,168.24 -136.58,281.36 6.949,41.932 22.908,75.08 45.33,97.51 l 74.22,74.22 306.780001,0 c 14.397,0 26,-11.603 26,-26 l 0,-323.01 -90.760001,-90.76 c -23.562,-23.562 -56.07,-31.22 -120.46,-31.22" style="opacity:.25"/><path id="path580" d="m -329.68479,887.37915 c 12.917,-3.587 36.968,-18.401 53.45,-32.901 l 29.962,-26.371 6.04,15.867 c 7.886,20.747 37.23,43.517 56.08,43.517 37.18,0 80.58,-30.29 80.58,-56.24 0,-12.797 -3.3,-15.07 -21.896,-15.07 -42.16,0 -49.3,-31.581 -27,-119.47 12.568,-49.549 14.566,-66.27 8.754,-73.27 -11.356,-13.687 -41.469,-27.671 -59.57,-27.671 -14.817,0 -16.937,3.964 -26.857,50.25 -18.406,85.86 -22.372,97.67 -39.679,118.25 -31.373,37.28 -75.28,49.39 -104.62,28.836 -54.32,-38.04 -42.23,-162.74 20.813,-214.7 30.26,-24.94 62.19,-34.489 115.33,-34.489 50.679,0 78.13,8.336 110.49,33.565 20.308,15.844 25.03,17.323 28.260001,8.878 6.077,-15.833 -2.918001,-51.879 -18.764001,-75.19 -25.19,-37.07 -56.42,-48.29 -134.36,-48.29 -61.21,0 -71.75,1.807 -104.53,17.908 -96.71,47.49 -155.32,168.24 -136.58,281.36 16.253,98.08 81.8,148.11 164.11,125.26" style="fill:#fff"/></g></svg>