<svg xmlns="http://www.w3.org/2000/svg" viewBox="0 0 512 512"><text x="-732.13" y="91.57" line-height="125%" style="letter-spacing:0;word-spacing:0;font-size:129.23;font-family:Gentium Book Basic"><tspan x="-732.13" y="91.57"/></text><text x="14.632" y="18.314" transform="scale(4.0128.2492)" style="font-size:46.954;font-family:Arial;text-anchor:middle"/><text x="-150.86" y="11.572" line-height="125%" style="letter-spacing:0;word-spacing:0;font-size:129.23;font-family:Gentium Book Basic"><tspan x="-150.86" y="11.572"/></text><text x="159.48" y="-302.72" transform="scale(4.0128.2492)" style="font-size:46.954;font-family:Arial;text-anchor:middle"/><text x="-1222.44" y="-169.69" line-height="125%" style="letter-spacing:0;word-spacing:0;font-size:129.23;font-family:Gentium Book Basic"><tspan x="-1222.44" y="-169.69"/></text><text x="-107.56" y="-1030.07" transform="scale(4.0128.2492)" style="font-size:46.954;font-family:Arial;text-anchor:middle"/><text x="-124.39" y="-386.16" line-height="125%" style="letter-spacing:0;word-spacing:0;font-size:129.23;font-family:Gentium Book Basic"><tspan x="-124.39" y="-386.16"/></text><text x="166.08" y="-1898.75" transform="scale(4.0128.2492)" style="font-size:46.954;font-family:Arial;text-anchor:middle"/><text x="456.88" y="-466.16" line-height="125%" style="letter-spacing:0;word-spacing:0;font-size:129.23;font-family:Gentium Book Basic"><tspan x="456.88" y="-466.16"/></text><text x="310.93" y="-2219.77" transform="scale(4.0128.2492)" style="font-size:46.954;font-family:Arial;text-anchor:middle"/><text x="67.757" y="-938.56" line-height="125%" style="letter-spacing:0;word-spacing:0;font-size:129.23;font-family:Gentium Book Basic"><tspan x="67.757" y="-938.56"/></text><text x="213.96" y="-4115.42" transform="scale(4.0128.2492)" style="font-size:46.954;font-family:Arial;text-anchor:middle"/><text x="649.02" y="-1018.57" line-height="125%" style="letter-spacing:0;word-spacing:0;font-size:129.23;font-family:Gentium Book Basic"><tspan x="649.02" y="-1018.57"/></text><text x="358.81" y="-4436.46" transform="scale(4.0128.2492)" style="font-size:46.954;font-family:Arial;text-anchor:middle"/><g line-height="125%" style="letter-spacing:0;word-spacing:0"><text x="-1183.78" y="396.15" style="font-size:208.33;font-family:Gentium Book Basic"><tspan x="-1183.78" y="396.15"/></text><text x="-149.19" y="251.11" style="font-size:129.23;font-family:&apos;Gentium Book Basic&apos;"><tspan x="-149.19" y="251.11"/></text></g><text x="159.9" y="658.53" transform="scale(4.0128.2492)" style="font-size:46.954;font-family:Arial;text-anchor:middle"/><text x="432.08" y="171.11" line-height="125%" style="letter-spacing:0;word-spacing:0;font-size:129.23;font-family:&apos;Gentium Book Basic&apos;"><tspan x="432.08" y="171.11"/></text><text x="304.75" y="337.49" transform="scale(4.0128.2492)" style="font-size:46.954;font-family:Arial;text-anchor:middle"/><text x="-639.5" y="-10.146" line-height="125%" style="letter-spacing:0;word-spacing:0;font-size:129.23;font-family:&apos;Gentium Book Basic&apos;"><tspan x="-639.5" y="-10.146"/></text><text x="37.713" y="-389.86" transform="scale(4.0128.2492)" style="font-size:46.954;font-family:Arial;text-anchor:middle"/><text x="458.55" y="-226.62" line-height="125%" style="letter-spacing:0;word-spacing:0;font-size:129.23;font-family:&apos;Gentium Book Basic&apos;"><tspan x="458.55" y="-226.62"/></text><text x="311.35" y="-1258.53" transform="scale(4.0128.2492)" style="font-size:46.954;font-family:Arial;text-anchor:middle"/><text x="1039.82" y="-306.62" line-height="125%" style="letter-spacing:0;word-spacing:0;font-size:129.23;font-family:&apos;Gentium Book Basic&apos;"><tspan x="1039.82" y="-306.62"/></text><text x="456.2" y="-1579.56" transform="scale(4.0128.2492)" style="font-size:46.954;font-family:Arial;text-anchor:middle"/><text x="650.7" y="-779.02" line-height="125%" style="letter-spacing:0;word-spacing:0;font-size:129.23;font-family:&apos;Gentium Book Basic&apos;"><tspan x="650.7" y="-779.02"/></text><text x="359.23" y="-3475.21" transform="scale(4.0128.2492)" style="font-size:46.954;font-family:Arial;text-anchor:middle"/><text x="1231.96" y="-859.03" line-height="125%" style="letter-spacing:0;word-spacing:0;font-size:129.23;font-family:&apos;Gentium Book Basic&apos;"><tspan x="1231.96" y="-859.03"/></text><text x="504.08" y="-3796.25" transform="scale(4.0128.2492)" style="font-size:46.954;font-family:Arial;text-anchor:middle"/><g line-height="125%" style="letter-spacing:0;word-spacing:0;font-family:&apos;Gentium Book Basic&apos;"><text x="-600.84" y="555.69" style="font-size:208.33"><tspan x="-600.84" y="555.69"/></text><text x="1880.38" y="66.58" style="font-size:129.23"><tspan x="1880.38" y="66.58"/></text></g><text x="665.67" y="-81.998" transform="scale(4.0128.2492)" style="font-size:46.954;font-family:Arial;text-anchor:middle"/><text x="2461.64" y="-13.423" line-height="125%" style="letter-spacing:0;word-spacing:0;font-size:129.23;font-family:&apos;Gentium Book Basic&apos;"><tspan x="2461.64" y="-13.423"/></text><text x="810.52" y="-403.03" transform="scale(4.0128.2492)" style="font-size:46.954;font-family:Arial;text-anchor:middle"/><text x="1390.06" y="-194.68" line-height="125%" style="letter-spacing:0;word-spacing:0;font-size:129.23;font-family:&apos;Gentium Book Basic&apos;"><tspan x="1390.06" y="-194.68"/></text><text x="543.48" y="-1130.37" transform="scale(4.0128.2492)" style="font-size:46.954;font-family:Arial;text-anchor:middle"/><text x="2488.11" y="-411.15" line-height="125%" style="letter-spacing:0;word-spacing:0;font-size:129.23;font-family:&apos;Gentium Book Basic&apos;"><tspan x="2488.11" y="-411.15"/></text><text x="817.12" y="-1999.04" transform="scale(4.0128.2492)" style="font-size:46.954;font-family:Arial;text-anchor:middle"/><text x="3069.39" y="-491.16" line-height="125%" style="letter-spacing:0;word-spacing:0;font-size:129.23;font-family:&apos;Gentium Book Basic&apos;"><tspan x="3069.39" y="-491.16"/></text><text x="961.97" y="-2320.08" transform="scale(4.0128.2492)" style="font-size:46.954;font-family:Arial;text-anchor:middle"/><text x="2680.27" y="-963.56" line-height="125%" style="letter-spacing:0;word-spacing:0;font-size:129.23;font-family:&apos;Gentium Book Basic&apos;"><tspan x="2680.27" y="-963.56"/></text><text x="865" y="-4215.72" transform="scale(4.0128.2492)" style="font-size:46.954;font-family:Arial;text-anchor:middle"/><text x="3261.53" y="-1043.56" line-height="125%" style="letter-spacing:0;word-spacing:0;font-size:129.23;font-family:&apos;Gentium Book Basic&apos;"><tspan x="3261.53" y="-1043.56"/></text><text x="1009.84" y="-4536.75" transform="scale(4.0128.2492)" style="font-size:46.954;font-family:Arial;text-anchor:middle"/><g line-height="125%" style="letter-spacing:0;word-spacing:0;font-family:&apos;Gentium Book Basic&apos;"><text x="1428.72" y="371.16" style="font-size:208.33"><tspan x="1428.72" y="371.16"/></text><text x="-78.62" y="189.75" style="font-size:129.23"><tspan x="-78.62" y="189.75"/></text></g><text x="177.49" y="412.29" transform="scale(4.0128.2492)" style="font-size:46.954;font-family:Arial;text-anchor:middle"/><text x="502.65" y="109.75" line-height="125%" style="letter-spacing:0;word-spacing:0;font-size:129.23;font-family:&apos;Gentium Book Basic&apos;"><tspan x="502.65" y="109.75"/></text><text x="322.34" y="91.25" transform="scale(4.0128.2492)" style="font-size:46.954;font-family:Arial;text-anchor:middle"/><text x="-568.93" y="-71.51" line-height="125%" style="letter-spacing:0;word-spacing:0;font-size:129.23;font-family:&apos;Gentium Book Basic&apos;"><tspan x="-568.93" y="-71.51"/></text><text x="55.3" y="-636.09" transform="scale(4.0128.2492)" style="font-size:46.954;font-family:Arial;text-anchor:middle"/><text x="529.12" y="-287.98" line-height="125%" style="letter-spacing:0;word-spacing:0;font-size:129.23;font-family:&apos;Gentium Book Basic&apos;"><tspan x="529.12" y="-287.98"/></text><text x="328.94" y="-1504.77" transform="scale(4.0128.2492)" style="font-size:46.954;font-family:Arial;text-anchor:middle"/><text x="1110.39" y="-367.98" line-height="125%" style="letter-spacing:0;word-spacing:0;font-size:129.23;font-family:&apos;Gentium Book Basic&apos;"><tspan x="1110.39" y="-367.98"/></text><text x="473.79" y="-1825.8" transform="scale(4.0128.2492)" style="font-size:46.954;font-family:Arial;text-anchor:middle"/><text x="721.27" y="-840.38" line-height="125%" style="letter-spacing:0;word-spacing:0;font-size:129.23;font-family:&apos;Gentium Book Basic&apos;"><tspan x="721.27" y="-840.38"/></text><text x="376.82" y="-3721.45" transform="scale(4.0128.2492)" style="font-size:46.954;font-family:Arial;text-anchor:middle"/><text x="1302.53" y="-920.39" line-height="125%" style="letter-spacing:0;word-spacing:0;font-size:129.23;font-family:&apos;Gentium Book Basic&apos;"><tspan x="1302.53" y="-920.39"/></text><text x="521.67" y="-4042.48" transform="scale(4.0128.2492)" style="font-size:46.954;font-family:Arial;text-anchor:middle"/><g line-height="125%" style="letter-spacing:0;word-spacing:0;font-family:&apos;Gentium Book Basic&apos;"><text x="-530.27" y="494.33" style="font-size:208.33"><tspan x="-530.27" y="494.33"/></text><text x="-250.44" y="21.01" style="font-size:129.23"><tspan x="-250.44" y="21.01"/></text></g><text x="134.67" y="-264.86" transform="scale(4.0128.2492)" style="font-size:46.954;font-family:Arial;text-anchor:middle"/><text x="330.83" y="-58.995" line-height="125%" style="letter-spacing:0;word-spacing:0;font-size:129.23;font-family:&apos;Gentium Book Basic&apos;"><tspan x="330.83" y="-58.995"/></text><text x="279.52" y="-585.9" transform="scale(4.0128.2492)" style="font-size:46.954;font-family:Arial;text-anchor:middle"/><text x="-740.75" y="-240.25" line-height="125%" style="letter-spacing:0;word-spacing:0;font-size:129.23;font-family:&apos;Gentium Book Basic&apos;"><tspan x="-740.75" y="-240.25"/></text><text x="12.482" y="-1313.24" transform="scale(4.0128.2492)" style="font-size:46.954;font-family:Arial;text-anchor:middle"/><text x="357.3" y="-456.72" line-height="125%" style="letter-spacing:0;word-spacing:0;font-size:129.23;font-family:&apos;Gentium Book Basic&apos;"><tspan x="357.3" y="-456.72"/></text><text x="286.12" y="-2181.92" transform="scale(4.0128.2492)" style="font-size:46.954;font-family:Arial;text-anchor:middle"/><text x="938.57" y="-536.72" line-height="125%" style="letter-spacing:0;word-spacing:0;font-size:129.23;font-family:&apos;Gentium Book Basic&apos;"><tspan x="938.57" y="-536.72"/></text><text x="430.97" y="-2502.95" transform="scale(4.0128.2492)" style="font-size:46.954;font-family:Arial;text-anchor:middle"/><text x="549.45" y="-1009.12" line-height="125%" style="letter-spacing:0;word-spacing:0;font-size:129.23;font-family:&apos;Gentium Book Basic&apos;"><tspan x="549.45" y="-1009.12"/></text><text x="334" y="-4398.6" transform="scale(4.0128.2492)" style="font-size:46.954;font-family:Arial;text-anchor:middle"/><text x="1130.71" y="-1089.13" line-height="125%" style="letter-spacing:0;word-spacing:0;font-size:129.23;font-family:&apos;Gentium Book Basic&apos;"><tspan x="1130.71" y="-1089.13"/></text><text x="478.85" y="-4719.64" transform="scale(4.0128.2492)" style="font-size:46.954;font-family:Arial;text-anchor:middle"/><g line-height="125%" style="letter-spacing:0;word-spacing:0;font-family:&apos;Gentium Book Basic&apos;"><text x="-702.09" y="325.59" style="font-size:208.33"><tspan x="-702.09" y="325.59"/></text><text x="-391.57" y="174.41" style="font-size:129.23"><tspan x="-391.57" y="174.41"/></text></g><text x="99.5" y="350.73" transform="scale(4.0128.2492)" style="font-size:46.954;font-family:Arial;text-anchor:middle"/><text x="189.7" y="94.41" line-height="125%" style="letter-spacing:0;word-spacing:0;font-size:129.23;font-family:&apos;Gentium Book Basic&apos;"><tspan x="189.7" y="94.41"/></text><text x="244.35" y="29.695" transform="scale(4.0128.2492)" style="font-size:46.954;font-family:Arial;text-anchor:middle"/><text x="-881.88" y="-86.85" line-height="125%" style="letter-spacing:0;word-spacing:0;font-size:129.23;font-family:&apos;Gentium Book Basic&apos;"><tspan x="-881.88" y="-86.85"/></text><text x="-22.689" y="-697.65" transform="scale(4.0128.2492)" style="font-size:46.954;font-family:Arial;text-anchor:middle"/><text x="216.17" y="-303.32" line-height="125%" style="letter-spacing:0;word-spacing:0;font-size:129.23;font-family:&apos;Gentium Book Basic&apos;"><tspan x="216.17" y="-303.32"/></text><text x="250.95" y="-1566.33" transform="scale(4.0128.2492)" style="font-size:46.954;font-family:Arial;text-anchor:middle"/><text x="797.44" y="-383.32" line-height="125%" style="letter-spacing:0;word-spacing:0;font-size:129.23;font-family:&apos;Gentium Book Basic&apos;"><tspan x="797.44" y="-383.32"/></text><text x="395.8" y="-1887.36" transform="scale(4.0128.2492)" style="font-size:46.954;font-family:Arial;text-anchor:middle"/><text x="408.32" y="-855.72" line-height="125%" style="letter-spacing:0;word-spacing:0;font-size:129.23;font-family:&apos;Gentium Book Basic&apos;"><tspan x="408.32" y="-855.72"/></text><text x="298.83" y="-3783.01" transform="scale(4.0128.2492)" style="font-size:46.954;font-family:Arial;text-anchor:middle"/><text x="989.58" y="-935.73" line-height="125%" style="letter-spacing:0;word-spacing:0;font-size:129.23;font-family:&apos;Gentium Book Basic&apos;"><tspan x="989.58" y="-935.73"/></text><text x="443.68" y="-4104.04" transform="scale(4.0128.2492)" style="font-size:46.954;font-family:Arial;text-anchor:middle"/><g line-height="125%" style="letter-spacing:0;word-spacing:0;font-family:&apos;Gentium Book Basic&apos;"><text x="-843.22" y="478.99" style="font-size:208.33"><tspan x="-843.22" y="478.99"/></text><text x="-1548.88" y="397.64" style="font-size:199.47"><tspan x="-1548.88" y="397.64"/></text></g><text x="-81.78" y="1056.72" transform="scale(4.0128.2492)" style="font-size:72.48;font-family:Arial;text-anchor:middle"/><text x="-1054.91" y="197.32" line-height="125%" style="letter-spacing:0;word-spacing:0;font-size:208.33;font-family:&apos;Gentium Book Basic&apos;"><tspan x="-1054.91" y="197.32"/></text><text x="54.84" y="228.91" transform="scale(4.0128.2492)" style="font-size:75.7;font-family:Arial;text-anchor:middle"/><text x="-1585.76" y="412.83" line-height="125%" style="letter-spacing:0;word-spacing:0;font-size:199.47;font-family:&apos;Gentium Book Basic&apos;"><tspan x="-1585.76" y="412.83"/></text><text x="-90.97" y="1117.66" transform="scale(4.0128.2492)" style="font-size:72.48;font-family:Arial;text-anchor:middle"/><text x="-1091.79" y="212.51" line-height="125%" style="letter-spacing:0;word-spacing:0;font-size:208.33;font-family:&apos;Gentium Book Basic&apos;"><tspan x="-1091.79" y="212.51"/></text><text x="45.649" y="289.85" transform="scale(4.0128.2492)" style="font-size:75.7;font-family:Arial;text-anchor:middle"/><text x="1541.35" y="198.74" line-height="125%" style="letter-spacing:0;word-spacing:0;font-size:129.23;font-family:&apos;Gentium Book Basic&apos;"><tspan x="1541.35" y="198.74"/></text><text x="581.19" y="448.35" transform="scale(4.0128.2492)" style="font-size:46.954;font-family:Arial;text-anchor:middle"/><text x="2122.62" y="118.74" line-height="125%" style="letter-spacing:0;word-spacing:0;font-size:129.23;font-family:&apos;Gentium Book Basic&apos;"><tspan x="2122.62" y="118.74"/></text><text x="726.04" y="127.31" transform="scale(4.0128.2492)" style="font-size:46.954;font-family:Arial;text-anchor:middle"/><text x="1051.04" y="-62.52" line-height="125%" style="letter-spacing:0;word-spacing:0;font-size:129.23;font-family:&apos;Gentium Book Basic&apos;"><tspan x="1051.04" y="-62.52"/></text><text x="459" y="-600.04" transform="scale(4.0128.2492)" style="font-size:46.954;font-family:Arial;text-anchor:middle"/><text x="2149.09" y="-278.99" line-height="125%" style="letter-spacing:0;word-spacing:0;font-size:129.23;font-family:&apos;Gentium Book Basic&apos;"><tspan x="2149.09" y="-278.99"/></text><text x="732.64" y="-1468.71" transform="scale(4.0128.2492)" style="font-size:46.954;font-family:Arial;text-anchor:middle"/><text x="2730.36" y="-358.99" line-height="125%" style="letter-spacing:0;word-spacing:0;font-size:129.23;font-family:&apos;Gentium Book Basic&apos;"><tspan x="2730.36" y="-358.99"/></text><text x="877.49" y="-1789.74" transform="scale(4.0128.2492)" style="font-size:46.954;font-family:Arial;text-anchor:middle"/><text x="2341.24" y="-831.39" line-height="125%" style="letter-spacing:0;word-spacing:0;font-size:129.23;font-family:&apos;Gentium Book Basic&apos;"><tspan x="2341.24" y="-831.39"/></text><text x="780.52" y="-3685.39" transform="scale(4.0128.2492)" style="font-size:46.954;font-family:Arial;text-anchor:middle"/><text x="2922.5" y="-911.4" line-height="125%" style="letter-spacing:0;word-spacing:0;font-size:129.23;font-family:&apos;Gentium Book Basic&apos;"><tspan x="2922.5" y="-911.4"/></text><text x="925.36" y="-4006.43" transform="scale(4.0128.2492)" style="font-size:46.954;font-family:Arial;text-anchor:middle"/><text x="1089.7" y="503.32" line-height="125%" style="letter-spacing:0;word-spacing:0;font-size:208.33;font-family:&apos;Gentium Book Basic&apos;"><tspan x="1089.7" y="503.32"/></text><path d="m26 0c-14.397 0-26 11.603-26 26v460c0 14.397 11.603 26 26 26h460c14.397 0 26-11.603 26-26v-460c0-14.397-11.603-26-26-26h-460" style="fill:#f38725"/><text x="-250.44" y="21.01" line-height="125%" style="letter-spacing:0;word-spacing:0;font-size:129.23;font-family:&apos;Gentium Book Basic&apos;"><tspan x="-250.44" y="21.01"/></text><text x="134.67" y="-264.86" transform="scale(4.0128.2492)" style="font-size:46.954;font-family:Arial;text-anchor:middle"/><text x="330.83" y="-58.995" line-height="125%" style="letter-spacing:0;word-spacing:0;font-size:129.23;font-family:&apos;Gentium Book Basic&apos;"><tspan x="330.83" y="-58.995"/></text><text x="279.52" y="-585.9" transform="scale(4.0128.2492)" style="font-size:46.954;font-family:Arial;text-anchor:middle"/><text x="-740.75" y="-240.25" line-height="125%" style="letter-spacing:0;word-spacing:0;font-size:129.23;font-family:&apos;Gentium Book Basic&apos;"><tspan x="-740.75" y="-240.25"/></text><text x="12.482" y="-1313.24" transform="scale(4.0128.2492)" style="font-size:46.954;font-family:Arial;text-anchor:middle"/><text x="357.3" y="-456.72" line-height="125%" style="letter-spacing:0;word-spacing:0;font-size:129.23;font-family:&apos;Gentium Book Basic&apos;"><tspan x="357.3" y="-456.72"/></text><text x="286.12" y="-2181.92" transform="scale(4.0128.2492)" style="font-size:46.954;font-family:Arial;text-anchor:middle"/><text x="938.57" y="-536.72" line-height="125%" style="letter-spacing:0;word-spacing:0;font-size:129.23;font-family:&apos;Gentium Book Basic&apos;"><tspan x="938.57" y="-536.72"/></text><text x="430.97" y="-2502.95" transform="scale(4.0128.2492)" style="font-size:46.954;font-family:Arial;text-anchor:middle"/><text x="549.45" y="-1009.12" line-height="125%" style="letter-spacing:0;word-spacing:0;font-size:129.23;font-family:&apos;Gentium Book Basic&apos;"><tspan x="549.45" y="-1009.12"/></text><text x="334" y="-4398.6" transform="scale(4.0128.2492)" style="font-size:46.954;font-family:Arial;text-anchor:middle"/><text x="1130.71" y="-1089.13" line-height="125%" style="letter-spacing:0;word-spacing:0;font-size:129.23;font-family:&apos;Gentium Book Basic&apos;"><tspan x="1130.71" y="-1089.13"/></text><text x="478.85" y="-4719.64" transform="scale(4.0128.2492)" style="font-size:46.954;font-family:Arial;text-anchor:middle"/><g line-height="125%" style="letter-spacing:0;word-spacing:0;font-family:&apos;Gentium Book Basic&apos;"><text x="-702.09" y="325.59" style="font-size:208.33"><tspan x="-702.09" y="325.59"/></text><text x="-391.57" y="174.41" style="font-size:129.23"><tspan x="-391.57" y="174.41"/></text></g><text x="99.5" y="350.73" transform="scale(4.0128.2492)" style="font-size:46.954;font-family:Arial;text-anchor:middle"/><text x="189.7" y="94.41" line-height="125%" style="letter-spacing:0;word-spacing:0;font-size:129.23;font-family:&apos;Gentium Book Basic&apos;"><tspan x="189.7" y="94.41"/></text><text x="244.35" y="29.695" transform="scale(4.0128.2492)" style="font-size:46.954;font-family:Arial;text-anchor:middle"/><text x="-881.88" y="-86.85" line-height="125%" style="letter-spacing:0;word-spacing:0;font-size:129.23;font-family:&apos;Gentium Book Basic&apos;"><tspan x="-881.88" y="-86.85"/></text><text x="-22.689" y="-697.65" transform="scale(4.0128.2492)" style="font-size:46.954;font-family:Arial;text-anchor:middle"/><text x="216.17" y="-303.32" line-height="125%" style="letter-spacing:0;word-spacing:0;font-size:129.23;font-family:&apos;Gentium Book Basic&apos;"><tspan x="216.17" y="-303.32"/></text><text x="250.95" y="-1566.33" transform="scale(4.0128.2492)" style="font-size:46.954;font-family:Arial;text-anchor:middle"/><text x="797.44" y="-383.32" line-height="125%" style="letter-spacing:0;word-spacing:0;font-size:129.23;font-family:&apos;Gentium Book Basic&apos;"><tspan x="797.44" y="-383.32"/></text><text x="395.8" y="-1887.36" transform="scale(4.0128.2492)" style="font-size:46.954;font-family:Arial;text-anchor:middle"/><text x="408.32" y="-855.72" line-height="125%" style="letter-spacing:0;word-spacing:0;font-size:129.23;font-family:&apos;Gentium Book Basic&apos;"><tspan x="408.32" y="-855.72"/></text><text x="298.83" y="-3783.01" transform="scale(4.0128.2492)" style="font-size:46.954;font-family:Arial;text-anchor:middle"/><text x="989.58" y="-935.73" line-height="125%" style="letter-spacing:0;word-spacing:0;font-size:129.23;font-family:&apos;Gentium Book Basic&apos;"><tspan x="989.58" y="-935.73"/></text><text x="443.68" y="-4104.04" transform="scale(4.0128.2492)" style="font-size:46.954;font-family:Arial;text-anchor:middle"/><g line-height="125%" style="letter-spacing:0;word-spacing:0;font-family:&apos;Gentium Book Basic&apos;"><text x="-843.22" y="478.99" style="font-size:208.33"><tspan x="-843.22" y="478.99"/></text><text x="-1548.88" y="397.64" style="font-size:199.47"><tspan x="-1548.88" y="397.64"/></text></g><text x="-81.78" y="1056.72" transform="scale(4.0128.2492)" style="font-size:72.48;font-family:Arial;text-anchor:middle"/><text x="-1054.91" y="197.32" line-height="125%" style="letter-spacing:0;word-spacing:0;font-size:208.33;font-family:&apos;Gentium Book Basic&apos;"><tspan x="-1054.91" y="197.32"/></text><text x="54.84" y="228.91" transform="scale(4.0128.2492)" style="font-size:75.7;font-family:Arial;text-anchor:middle"/><text x="-1585.76" y="412.83" line-height="125%" style="letter-spacing:0;word-spacing:0;font-size:199.47;font-family:&apos;Gentium Book Basic&apos;"><tspan x="-1585.76" y="412.83"/></text><text x="-90.97" y="1117.66" transform="scale(4.0128.2492)" style="font-size:72.48;font-family:Arial;text-anchor:middle"/><text x="-1091.79" y="212.51" line-height="125%" style="letter-spacing:0;word-spacing:0;font-size:208.33;font-family:&apos;Gentium Book Basic&apos;"><tspan x="-1091.79" y="212.51"/></text><text x="45.649" y="289.85" transform="scale(4.0128.2492)" style="font-size:75.7;font-family:Arial;text-anchor:middle"/><text x="1541.35" y="198.74" line-height="125%" style="letter-spacing:0;word-spacing:0;font-size:129.23;font-family:&apos;Gentium Book Basic&apos;"><tspan x="1541.35" y="198.74"/></text><text x="581.19" y="448.35" transform="scale(4.0128.2492)" style="font-size:46.954;font-family:Arial;text-anchor:middle"/><text x="2122.62" y="118.74" line-height="125%" style="letter-spacing:0;word-spacing:0;font-size:129.23;font-family:&apos;Gentium Book Basic&apos;"><tspan x="2122.62" y="118.74"/></text><text x="726.04" y="127.31" transform="scale(4.0128.2492)" style="font-size:46.954;font-family:Arial;text-anchor:middle"/><text x="1051.04" y="-62.52" line-height="125%" style="letter-spacing:0;word-spacing:0;font-size:129.23;font-family:&apos;Gentium Book Basic&apos;"><tspan x="1051.04" y="-62.52"/></text><text x="459" y="-600.04" transform="scale(4.0128.2492)" style="font-size:46.954;font-family:Arial;text-anchor:middle"/><text x="2149.09" y="-278.99" line-height="125%" style="letter-spacing:0;word-spacing:0;font-size:129.23;font-family:&apos;Gentium Book Basic&apos;"><tspan x="2149.09" y="-278.99"/></text><text x="732.64" y="-1468.71" transform="scale(4.0128.2492)" style="font-size:46.954;font-family:Arial;text-anchor:middle"/><text x="2730.36" y="-358.99" line-height="125%" style="letter-spacing:0;word-spacing:0;font-size:129.23;font-family:&apos;Gentium Book Basic&apos;"><tspan x="2730.36" y="-358.99"/></text><text x="877.49" y="-1789.74" transform="scale(4.0128.2492)" style="font-size:46.954;font-family:Arial;text-anchor:middle"/><text x="2341.24" y="-831.39" line-height="125%" style="letter-spacing:0;word-spacing:0;font-size:129.23;font-family:&apos;Gentium Book Basic&apos;"><tspan x="2341.24" y="-831.39"/></text><text x="780.52" y="-3685.39" transform="scale(4.0128.2492)" style="font-size:46.954;font-family:Arial;text-anchor:middle"/><text x="2922.5" y="-911.4" line-height="125%" style="letter-spacing:0;word-spacing:0;font-size:129.23;font-family:&apos;Gentium Book Basic&apos;"><tspan x="2922.5" y="-911.4"/></text><text x="925.36" y="-4006.43" transform="scale(4.0128.2492)" style="font-size:46.954;font-family:Arial;text-anchor:middle"/><g line-height="125%" style="letter-spacing:0;word-spacing:0;font-family:&apos;Gentium Book Basic&apos;"><text x="1089.7" y="503.32" style="font-size:208.33"><tspan x="1089.7" y="503.32"/></text><text x="1446.24" y="238.84" style="font-size:129.23"><tspan x="1446.24" y="238.84"/></text></g><text x="557.48" y="609.28" transform="scale(4.0128.2492)" style="font-size:46.954;font-family:Arial;text-anchor:middle"/><text x="2027.51" y="158.84" line-height="125%" style="letter-spacing:0;word-spacing:0;font-size:129.23;font-family:&apos;Gentium Book Basic&apos;"><tspan x="2027.51" y="158.84"/></text><text x="702.33" y="288.24" transform="scale(4.0128.2492)" style="font-size:46.954;font-family:Arial;text-anchor:middle"/><text x="955.93" y="-22.418" line-height="125%" style="letter-spacing:0;word-spacing:0;font-size:129.23;font-family:&apos;Gentium Book Basic&apos;"><tspan x="955.93" y="-22.418"/></text><text x="435.3" y="-439.1" transform="scale(4.0128.2492)" style="font-size:46.954;font-family:Arial;text-anchor:middle"/><text x="2053.98" y="-238.89" line-height="125%" style="letter-spacing:0;word-spacing:0;font-size:129.23;font-family:&apos;Gentium Book Basic&apos;"><tspan x="2053.98" y="-238.89"/></text><text x="708.93" y="-1307.78" transform="scale(4.0128.2492)" style="font-size:46.954;font-family:Arial;text-anchor:middle"/><text x="2635.25" y="-318.89" line-height="125%" style="letter-spacing:0;word-spacing:0;font-size:129.23;font-family:&apos;Gentium Book Basic&apos;"><tspan x="2635.25" y="-318.89"/></text><text x="853.78" y="-1628.81" transform="scale(4.0128.2492)" style="font-size:46.954;font-family:Arial;text-anchor:middle"/><text x="2246.13" y="-791.29" line-height="125%" style="letter-spacing:0;word-spacing:0;font-size:129.23;font-family:&apos;Gentium Book Basic&apos;"><tspan x="2246.13" y="-791.29"/></text><text x="756.81" y="-3524.46" transform="scale(4.0128.2492)" style="font-size:46.954;font-family:Arial;text-anchor:middle"/><text x="2827.39" y="-871.3" line-height="125%" style="letter-spacing:0;word-spacing:0;font-size:129.23;font-family:&apos;Gentium Book Basic&apos;"><tspan x="2827.39" y="-871.3"/></text><text x="901.66" y="-3845.5" transform="scale(4.0128.2492)" style="font-size:46.954;font-family:Arial;text-anchor:middle"/><text x="994.59" y="543.42" line-height="125%" style="letter-spacing:0;word-spacing:0;font-size:208.33;font-family:&apos;Gentium Book Basic&apos;"><tspan x="994.59" y="543.42"/></text><path d="m300.78 41c-61.21 0-71.75 1.807-104.53 17.908-96.71 47.49-155.32 168.24-136.58 281.36 6.949 41.932 22.908 75.08 45.33 97.51l74.22 74.22h306.78c14.397 0 26-11.603 26-26v-323.01l-90.76-90.76c-23.562-23.562-56.07-31.22-120.46-31.22" style="opacity:.25"/><path d="m223.78 465.52c12.917-3.587 36.968-18.401 53.45-32.901l29.962-26.371 6.04 15.867c7.886 20.747 37.23 43.517 56.08 43.517 37.18 0 80.58-30.29 80.58-56.24 0-12.797-3.3-15.07-21.896-15.07-42.16 0-49.3-31.581-27-119.47 12.568-49.549 14.566-66.27 8.754-73.27-11.356-13.687-41.469-27.671-59.57-27.671-14.817 0-16.937 3.964-26.857 50.25-18.406 85.86-22.372 97.67-39.679 118.25-31.373 37.28-75.28 49.39-104.62 28.836-54.32-38.04-42.23-162.74 20.813-214.7 30.26-24.94 62.19-34.489 115.33-34.489 50.679 0 78.13 8.336 110.49 33.565 20.308 15.844 25.03 17.323 28.26 8.878 6.077-15.833-2.918-51.879-18.764-75.19-25.19-37.07-56.42-48.29-134.36-48.29-61.21 0-71.75 1.807-104.53 17.908-96.71 47.49-155.32 168.24-136.58 281.36 16.253 98.08 81.8 148.11 164.11 125.26" style="fill:#fff"/></svg>