<?xml version="1.0" encoding="UTF-8" standalone="no"?>
<svg xmlns="http://www.w3.org/2000/svg" viewBox="0 0 512 512">
 <text style="word-spacing:0;letter-spacing:0" font-size="129.23" y="91.57" x="-732.13" font-family="Gentium Book Basic" line-height="125%">
  <tspan y="91.57" x="-732.13"/>
 </text>
 <text style="text-anchor:middle" transform="scale(4.0128.2492)" font-size="46.954" y="18.314" x="14.632" font-family="Arial"/>
 <text style="word-spacing:0;letter-spacing:0" font-size="129.23" y="11.572" x="-150.86" font-family="Gentium Book Basic" line-height="125%">
  <tspan y="11.572" x="-150.86"/>
 </text>
 <text style="text-anchor:middle" transform="scale(4.0128.2492)" font-size="46.954" y="-302.72" x="159.48" font-family="Arial"/>
 <text style="word-spacing:0;letter-spacing:0" font-size="129.23" y="-169.69" x="-1222.44" font-family="Gentium Book Basic" line-height="125%">
  <tspan y="-169.69" x="-1222.44"/>
 </text>
 <text style="text-anchor:middle" transform="scale(4.0128.2492)" font-size="46.954" y="-1030.07" x="-107.56" font-family="Arial"/>
 <text style="word-spacing:0;letter-spacing:0" font-size="129.23" y="-386.16" x="-124.39" font-family="Gentium Book Basic" line-height="125%">
  <tspan y="-386.16" x="-124.39"/>
 </text>
 <text style="text-anchor:middle" transform="scale(4.0128.2492)" font-size="46.954" y="-1898.75" x="166.08" font-family="Arial"/>
 <text style="word-spacing:0;letter-spacing:0" font-size="129.23" y="-466.16" x="456.88" font-family="Gentium Book Basic" line-height="125%">
  <tspan y="-466.16" x="456.88"/>
 </text>
 <text style="text-anchor:middle" transform="scale(4.0128.2492)" font-size="46.954" y="-2219.77" x="310.93" font-family="Arial"/>
 <text style="word-spacing:0;letter-spacing:0" font-size="129.23" y="-938.56" x="67.757" font-family="Gentium Book Basic" line-height="125%">
  <tspan y="-938.56" x="67.757"/>
 </text>
 <text style="text-anchor:middle" transform="scale(4.0128.2492)" font-size="46.954" y="-4115.42" x="213.96" font-family="Arial"/>
 <text style="word-spacing:0;letter-spacing:0" font-size="129.23" y="-1018.57" x="649.02" font-family="Gentium Book Basic" line-height="125%">
  <tspan y="-1018.57" x="649.02"/>
 </text>
 <text style="text-anchor:middle" transform="scale(4.0128.2492)" font-size="46.954" y="-4436.46" x="358.81" font-family="Arial"/>
 <g style="word-spacing:0;letter-spacing:0" line-height="125%">
  <text y="396.15" x="-1183.78" font-family="Gentium Book Basic" font-size="208.33">
   <tspan y="396.15" x="-1183.78"/>
  </text>
  <text y="251.11" x="-149.19" font-family="&apos;Gentium Book Basic&apos;" font-size="129.23">
   <tspan y="251.11" x="-149.19"/>
  </text>
 </g>
 <text style="text-anchor:middle" transform="scale(4.0128.2492)" font-size="46.954" y="658.53" x="159.9" font-family="Arial"/>
 <text style="word-spacing:0;letter-spacing:0" font-size="129.23" y="171.11" x="432.08" font-family="&apos;Gentium Book Basic&apos;" line-height="125%">
  <tspan y="171.11" x="432.08"/>
 </text>
 <text style="text-anchor:middle" transform="scale(4.0128.2492)" font-size="46.954" y="337.49" x="304.75" font-family="Arial"/>
 <text style="word-spacing:0;letter-spacing:0" font-size="129.23" y="-10.146" x="-639.5" font-family="&apos;Gentium Book Basic&apos;" line-height="125%">
  <tspan y="-10.146" x="-639.5"/>
 </text>
 <text style="text-anchor:middle" transform="scale(4.0128.2492)" font-size="46.954" y="-389.86" x="37.713" font-family="Arial"/>
 <text style="word-spacing:0;letter-spacing:0" font-size="129.23" y="-226.62" x="458.55" font-family="&apos;Gentium Book Basic&apos;" line-height="125%">
  <tspan y="-226.62" x="458.55"/>
 </text>
 <text style="text-anchor:middle" transform="scale(4.0128.2492)" font-size="46.954" y="-1258.53" x="311.35" font-family="Arial"/>
 <text style="word-spacing:0;letter-spacing:0" font-size="129.23" y="-306.62" x="1039.82" font-family="&apos;Gentium Book Basic&apos;" line-height="125%">
  <tspan y="-306.62" x="1039.82"/>
 </text>
 <text style="text-anchor:middle" transform="scale(4.0128.2492)" font-size="46.954" y="-1579.56" x="456.2" font-family="Arial"/>
 <text style="word-spacing:0;letter-spacing:0" font-size="129.23" y="-779.02" x="650.7" font-family="&apos;Gentium Book Basic&apos;" line-height="125%">
  <tspan y="-779.02" x="650.7"/>
 </text>
 <text style="text-anchor:middle" transform="scale(4.0128.2492)" font-size="46.954" y="-3475.21" x="359.23" font-family="Arial"/>
 <text style="word-spacing:0;letter-spacing:0" font-size="129.23" y="-859.03" x="1231.96" font-family="&apos;Gentium Book Basic&apos;" line-height="125%">
  <tspan y="-859.03" x="1231.96"/>
 </text>
 <text style="text-anchor:middle" transform="scale(4.0128.2492)" font-size="46.954" y="-3796.25" x="504.08" font-family="Arial"/>
 <g style="word-spacing:0;letter-spacing:0" font-family="&apos;Gentium Book Basic&apos;" line-height="125%">
  <text y="555.69" x="-600.84" font-size="208.33">
   <tspan y="555.69" x="-600.84"/>
  </text>
  <text y="66.58" x="1880.38" font-size="129.23">
   <tspan y="66.58" x="1880.38"/>
  </text>
 </g>
 <text style="text-anchor:middle" transform="scale(4.0128.2492)" font-size="46.954" y="-81.998" x="665.67" font-family="Arial"/>
 <text style="word-spacing:0;letter-spacing:0" font-size="129.23" y="-13.423" x="2461.64" font-family="&apos;Gentium Book Basic&apos;" line-height="125%">
  <tspan y="-13.423" x="2461.64"/>
 </text>
 <text style="text-anchor:middle" transform="scale(4.0128.2492)" font-size="46.954" y="-403.03" x="810.52" font-family="Arial"/>
 <text style="word-spacing:0;letter-spacing:0" font-size="129.23" y="-194.68" x="1390.06" font-family="&apos;Gentium Book Basic&apos;" line-height="125%">
  <tspan y="-194.68" x="1390.06"/>
 </text>
 <text style="text-anchor:middle" transform="scale(4.0128.2492)" font-size="46.954" y="-1130.37" x="543.48" font-family="Arial"/>
 <text style="word-spacing:0;letter-spacing:0" font-size="129.23" y="-411.15" x="2488.11" font-family="&apos;Gentium Book Basic&apos;" line-height="125%">
  <tspan y="-411.15" x="2488.11"/>
 </text>
 <text style="text-anchor:middle" transform="scale(4.0128.2492)" font-size="46.954" y="-1999.04" x="817.12" font-family="Arial"/>
 <text style="word-spacing:0;letter-spacing:0" font-size="129.23" y="-491.16" x="3069.39" font-family="&apos;Gentium Book Basic&apos;" line-height="125%">
  <tspan y="-491.16" x="3069.39"/>
 </text>
 <text style="text-anchor:middle" transform="scale(4.0128.2492)" font-size="46.954" y="-2320.08" x="961.97" font-family="Arial"/>
 <text style="word-spacing:0;letter-spacing:0" font-size="129.23" y="-963.56" x="2680.27" font-family="&apos;Gentium Book Basic&apos;" line-height="125%">
  <tspan y="-963.56" x="2680.27"/>
 </text>
 <text style="text-anchor:middle" transform="scale(4.0128.2492)" font-size="46.954" y="-4215.72" x="865" font-family="Arial"/>
 <text style="word-spacing:0;letter-spacing:0" font-size="129.23" y="-1043.56" x="3261.53" font-family="&apos;Gentium Book Basic&apos;" line-height="125%">
  <tspan y="-1043.56" x="3261.53"/>
 </text>
 <text style="text-anchor:middle" transform="scale(4.0128.2492)" font-size="46.954" y="-4536.75" x="1009.84" font-family="Arial"/>
 <g style="word-spacing:0;letter-spacing:0" font-family="&apos;Gentium Book Basic&apos;" line-height="125%">
  <text y="371.16" x="1428.72" font-size="208.33">
   <tspan y="371.16" x="1428.72"/>
  </text>
  <text y="189.75" x="-78.62" font-size="129.23">
   <tspan y="189.75" x="-78.62"/>
  </text>
 </g>
 <text style="text-anchor:middle" transform="scale(4.0128.2492)" font-size="46.954" y="412.29" x="177.49" font-family="Arial"/>
 <text style="word-spacing:0;letter-spacing:0" font-size="129.23" y="109.75" x="502.65" font-family="&apos;Gentium Book Basic&apos;" line-height="125%">
  <tspan y="109.75" x="502.65"/>
 </text>
 <text style="text-anchor:middle" transform="scale(4.0128.2492)" font-size="46.954" y="91.25" x="322.34" font-family="Arial"/>
 <text style="word-spacing:0;letter-spacing:0" font-size="129.23" y="-71.51" x="-568.93" font-family="&apos;Gentium Book Basic&apos;" line-height="125%">
  <tspan y="-71.51" x="-568.93"/>
 </text>
 <text style="text-anchor:middle" transform="scale(4.0128.2492)" font-size="46.954" y="-636.09" x="55.3" font-family="Arial"/>
 <text style="word-spacing:0;letter-spacing:0" font-size="129.23" y="-287.98" x="529.12" font-family="&apos;Gentium Book Basic&apos;" line-height="125%">
  <tspan y="-287.98" x="529.12"/>
 </text>
 <text style="text-anchor:middle" transform="scale(4.0128.2492)" font-size="46.954" y="-1504.77" x="328.94" font-family="Arial"/>
 <text style="word-spacing:0;letter-spacing:0" font-size="129.23" y="-367.98" x="1110.39" font-family="&apos;Gentium Book Basic&apos;" line-height="125%">
  <tspan y="-367.98" x="1110.39"/>
 </text>
 <text style="text-anchor:middle" transform="scale(4.0128.2492)" font-size="46.954" y="-1825.8" x="473.79" font-family="Arial"/>
 <text style="word-spacing:0;letter-spacing:0" font-size="129.23" y="-840.38" x="721.27" font-family="&apos;Gentium Book Basic&apos;" line-height="125%">
  <tspan y="-840.38" x="721.27"/>
 </text>
 <text style="text-anchor:middle" transform="scale(4.0128.2492)" font-size="46.954" y="-3721.45" x="376.82" font-family="Arial"/>
 <text style="word-spacing:0;letter-spacing:0" font-size="129.23" y="-920.39" x="1302.53" font-family="&apos;Gentium Book Basic&apos;" line-height="125%">
  <tspan y="-920.39" x="1302.53"/>
 </text>
 <text style="text-anchor:middle" transform="scale(4.0128.2492)" font-size="46.954" y="-4042.48" x="521.67" font-family="Arial"/>
 <g style="word-spacing:0;letter-spacing:0" font-family="&apos;Gentium Book Basic&apos;" line-height="125%">
  <text y="494.33" x="-530.27" font-size="208.33">
   <tspan y="494.33" x="-530.27"/>
  </text>
  <text y="21.01" x="-250.44" font-size="129.23">
   <tspan y="21.01" x="-250.44"/>
  </text>
 </g>
 <text style="text-anchor:middle" transform="scale(4.0128.2492)" font-size="46.954" y="-264.86" x="134.67" font-family="Arial"/>
 <text style="word-spacing:0;letter-spacing:0" font-size="129.23" y="-58.995" x="330.83" font-family="&apos;Gentium Book Basic&apos;" line-height="125%">
  <tspan y="-58.995" x="330.83"/>
 </text>
 <text style="text-anchor:middle" transform="scale(4.0128.2492)" font-size="46.954" y="-585.9" x="279.52" font-family="Arial"/>
 <text style="word-spacing:0;letter-spacing:0" font-size="129.23" y="-240.25" x="-740.75" font-family="&apos;Gentium Book Basic&apos;" line-height="125%">
  <tspan y="-240.25" x="-740.75"/>
 </text>
 <text style="text-anchor:middle" transform="scale(4.0128.2492)" font-size="46.954" y="-1313.24" x="12.482" font-family="Arial"/>
 <text style="word-spacing:0;letter-spacing:0" font-size="129.23" y="-456.72" x="357.3" font-family="&apos;Gentium Book Basic&apos;" line-height="125%">
  <tspan y="-456.72" x="357.3"/>
 </text>
 <text style="text-anchor:middle" transform="scale(4.0128.2492)" font-size="46.954" y="-2181.92" x="286.12" font-family="Arial"/>
 <text style="word-spacing:0;letter-spacing:0" font-size="129.23" y="-536.72" x="938.57" font-family="&apos;Gentium Book Basic&apos;" line-height="125%">
  <tspan y="-536.72" x="938.57"/>
 </text>
 <text style="text-anchor:middle" transform="scale(4.0128.2492)" font-size="46.954" y="-2502.95" x="430.97" font-family="Arial"/>
 <text style="word-spacing:0;letter-spacing:0" font-size="129.23" y="-1009.12" x="549.45" font-family="&apos;Gentium Book Basic&apos;" line-height="125%">
  <tspan y="-1009.12" x="549.45"/>
 </text>
 <text style="text-anchor:middle" transform="scale(4.0128.2492)" font-size="46.954" y="-4398.6" x="334" font-family="Arial"/>
 <text style="word-spacing:0;letter-spacing:0" font-size="129.23" y="-1089.13" x="1130.71" font-family="&apos;Gentium Book Basic&apos;" line-height="125%">
  <tspan y="-1089.13" x="1130.71"/>
 </text>
 <text style="text-anchor:middle" transform="scale(4.0128.2492)" font-size="46.954" y="-4719.64" x="478.85" font-family="Arial"/>
 <g style="word-spacing:0;letter-spacing:0" font-family="&apos;Gentium Book Basic&apos;" line-height="125%">
  <text y="325.59" x="-702.09" font-size="208.33">
   <tspan y="325.59" x="-702.09"/>
  </text>
  <text y="174.41" x="-391.57" font-size="129.23">
   <tspan y="174.41" x="-391.57"/>
  </text>
 </g>
 <text style="text-anchor:middle" transform="scale(4.0128.2492)" font-size="46.954" y="350.73" x="99.5" font-family="Arial"/>
 <text style="word-spacing:0;letter-spacing:0" font-size="129.23" y="94.41" x="189.7" font-family="&apos;Gentium Book Basic&apos;" line-height="125%">
  <tspan y="94.41" x="189.7"/>
 </text>
 <text style="text-anchor:middle" transform="scale(4.0128.2492)" font-size="46.954" y="29.695" x="244.35" font-family="Arial"/>
 <text style="word-spacing:0;letter-spacing:0" font-size="129.23" y="-86.85" x="-881.88" font-family="&apos;Gentium Book Basic&apos;" line-height="125%">
  <tspan y="-86.85" x="-881.88"/>
 </text>
 <text style="text-anchor:middle" transform="scale(4.0128.2492)" font-size="46.954" y="-697.65" x="-22.689" font-family="Arial"/>
 <text style="word-spacing:0;letter-spacing:0" font-size="129.23" y="-303.32" x="216.17" font-family="&apos;Gentium Book Basic&apos;" line-height="125%">
  <tspan y="-303.32" x="216.17"/>
 </text>
 <text style="text-anchor:middle" transform="scale(4.0128.2492)" font-size="46.954" y="-1566.33" x="250.95" font-family="Arial"/>
 <text style="word-spacing:0;letter-spacing:0" font-size="129.23" y="-383.32" x="797.44" font-family="&apos;Gentium Book Basic&apos;" line-height="125%">
  <tspan y="-383.32" x="797.44"/>
 </text>
 <text style="text-anchor:middle" transform="scale(4.0128.2492)" font-size="46.954" y="-1887.36" x="395.8" font-family="Arial"/>
 <text style="word-spacing:0;letter-spacing:0" font-size="129.23" y="-855.72" x="408.32" font-family="&apos;Gentium Book Basic&apos;" line-height="125%">
  <tspan y="-855.72" x="408.32"/>
 </text>
 <text style="text-anchor:middle" transform="scale(4.0128.2492)" font-size="46.954" y="-3783.01" x="298.83" font-family="Arial"/>
 <text style="word-spacing:0;letter-spacing:0" font-size="129.23" y="-935.73" x="989.58" font-family="&apos;Gentium Book Basic&apos;" line-height="125%">
  <tspan y="-935.73" x="989.58"/>
 </text>
 <text style="text-anchor:middle" transform="scale(4.0128.2492)" font-size="46.954" y="-4104.04" x="443.68" font-family="Arial"/>
 <g style="word-spacing:0;letter-spacing:0" font-family="&apos;Gentium Book Basic&apos;" line-height="125%">
  <text y="478.99" x="-843.22" font-size="208.33">
   <tspan y="478.99" x="-843.22"/>
  </text>
  <text y="397.64" x="-1548.88" font-size="199.47">
   <tspan y="397.64" x="-1548.88"/>
  </text>
 </g>
 <text style="text-anchor:middle" transform="scale(4.0128.2492)" font-size="72.48" y="1056.72" x="-81.78" font-family="Arial"/>
 <text style="word-spacing:0;letter-spacing:0" font-size="208.33" y="197.32" x="-1054.91" font-family="&apos;Gentium Book Basic&apos;" line-height="125%">
  <tspan y="197.32" x="-1054.91"/>
 </text>
 <text style="text-anchor:middle" transform="scale(4.0128.2492)" font-size="75.7" y="228.91" x="54.84" font-family="Arial"/>
 <text style="word-spacing:0;letter-spacing:0" font-size="199.47" y="412.83" x="-1585.76" font-family="&apos;Gentium Book Basic&apos;" line-height="125%">
  <tspan y="412.83" x="-1585.76"/>
 </text>
 <text style="text-anchor:middle" transform="scale(4.0128.2492)" font-size="72.48" y="1117.66" x="-90.97" font-family="Arial"/>
 <text style="word-spacing:0;letter-spacing:0" font-size="208.33" y="212.51" x="-1091.79" font-family="&apos;Gentium Book Basic&apos;" line-height="125%">
  <tspan y="212.51" x="-1091.79"/>
 </text>
 <text style="text-anchor:middle" transform="scale(4.0128.2492)" font-size="75.7" y="289.85" x="45.649" font-family="Arial"/>
 <text style="word-spacing:0;letter-spacing:0" font-size="129.23" y="198.74" x="1541.35" font-family="&apos;Gentium Book Basic&apos;" line-height="125%">
  <tspan y="198.74" x="1541.35"/>
 </text>
 <text style="text-anchor:middle" transform="scale(4.0128.2492)" font-size="46.954" y="448.35" x="581.19" font-family="Arial"/>
 <text style="word-spacing:0;letter-spacing:0" font-size="129.23" y="118.74" x="2122.62" font-family="&apos;Gentium Book Basic&apos;" line-height="125%">
  <tspan y="118.74" x="2122.62"/>
 </text>
 <text style="text-anchor:middle" transform="scale(4.0128.2492)" font-size="46.954" y="127.31" x="726.04" font-family="Arial"/>
 <text style="word-spacing:0;letter-spacing:0" font-size="129.23" y="-62.52" x="1051.04" font-family="&apos;Gentium Book Basic&apos;" line-height="125%">
  <tspan y="-62.52" x="1051.04"/>
 </text>
 <text style="text-anchor:middle" transform="scale(4.0128.2492)" font-size="46.954" y="-600.04" x="459" font-family="Arial"/>
 <text style="word-spacing:0;letter-spacing:0" font-size="129.23" y="-278.99" x="2149.09" font-family="&apos;Gentium Book Basic&apos;" line-height="125%">
  <tspan y="-278.99" x="2149.09"/>
 </text>
 <text style="text-anchor:middle" transform="scale(4.0128.2492)" font-size="46.954" y="-1468.71" x="732.64" font-family="Arial"/>
 <text style="word-spacing:0;letter-spacing:0" font-size="129.23" y="-358.99" x="2730.36" font-family="&apos;Gentium Book Basic&apos;" line-height="125%">
  <tspan y="-358.99" x="2730.36"/>
 </text>
 <text style="text-anchor:middle" transform="scale(4.0128.2492)" font-size="46.954" y="-1789.74" x="877.49" font-family="Arial"/>
 <text style="word-spacing:0;letter-spacing:0" font-size="129.23" y="-831.39" x="2341.24" font-family="&apos;Gentium Book Basic&apos;" line-height="125%">
  <tspan y="-831.39" x="2341.24"/>
 </text>
 <text style="text-anchor:middle" transform="scale(4.0128.2492)" font-size="46.954" y="-3685.39" x="780.52" font-family="Arial"/>
 <text style="word-spacing:0;letter-spacing:0" font-size="129.23" y="-911.4" x="2922.5" font-family="&apos;Gentium Book Basic&apos;" line-height="125%">
  <tspan y="-911.4" x="2922.5"/>
 </text>
 <text style="text-anchor:middle" transform="scale(4.0128.2492)" font-size="46.954" y="-4006.43" x="925.36" font-family="Arial"/>
 <text style="word-spacing:0;letter-spacing:0" font-size="208.33" y="503.32" x="1089.7" font-family="&apos;Gentium Book Basic&apos;" line-height="125%">
  <tspan y="503.32" x="1089.7"/>
 </text>
 <path d="m26 0c-14.397 0-26 11.603-26 26v460c0 14.397 11.603 26 26 26h460c14.397 0 26-11.603 26-26v-460c0-14.397-11.603-26-26-26h-460" fill="#f38725"/>
 <text style="word-spacing:0;letter-spacing:0" font-size="129.23" y="21.01" x="-250.44" font-family="&apos;Gentium Book Basic&apos;" line-height="125%">
  <tspan y="21.01" x="-250.44"/>
 </text>
 <text style="text-anchor:middle" transform="scale(4.0128.2492)" font-size="46.954" y="-264.86" x="134.67" font-family="Arial"/>
 <text style="word-spacing:0;letter-spacing:0" font-size="129.23" y="-58.995" x="330.83" font-family="&apos;Gentium Book Basic&apos;" line-height="125%">
  <tspan y="-58.995" x="330.83"/>
 </text>
 <text style="text-anchor:middle" transform="scale(4.0128.2492)" font-size="46.954" y="-585.9" x="279.52" font-family="Arial"/>
 <text style="word-spacing:0;letter-spacing:0" font-size="129.23" y="-240.25" x="-740.75" font-family="&apos;Gentium Book Basic&apos;" line-height="125%">
  <tspan y="-240.25" x="-740.75"/>
 </text>
 <text style="text-anchor:middle" transform="scale(4.0128.2492)" font-size="46.954" y="-1313.24" x="12.482" font-family="Arial"/>
 <text style="word-spacing:0;letter-spacing:0" font-size="129.23" y="-456.72" x="357.3" font-family="&apos;Gentium Book Basic&apos;" line-height="125%">
  <tspan y="-456.72" x="357.3"/>
 </text>
 <text style="text-anchor:middle" transform="scale(4.0128.2492)" font-size="46.954" y="-2181.92" x="286.12" font-family="Arial"/>
 <text style="word-spacing:0;letter-spacing:0" font-size="129.23" y="-536.72" x="938.57" font-family="&apos;Gentium Book Basic&apos;" line-height="125%">
  <tspan y="-536.72" x="938.57"/>
 </text>
 <text style="text-anchor:middle" transform="scale(4.0128.2492)" font-size="46.954" y="-2502.95" x="430.97" font-family="Arial"/>
 <text style="word-spacing:0;letter-spacing:0" font-size="129.23" y="-1009.12" x="549.45" font-family="&apos;Gentium Book Basic&apos;" line-height="125%">
  <tspan y="-1009.12" x="549.45"/>
 </text>
 <text style="text-anchor:middle" transform="scale(4.0128.2492)" font-size="46.954" y="-4398.6" x="334" font-family="Arial"/>
 <text style="word-spacing:0;letter-spacing:0" font-size="129.23" y="-1089.13" x="1130.71" font-family="&apos;Gentium Book Basic&apos;" line-height="125%">
  <tspan y="-1089.13" x="1130.71"/>
 </text>
 <text style="text-anchor:middle" transform="scale(4.0128.2492)" font-size="46.954" y="-4719.64" x="478.85" font-family="Arial"/>
 <g style="word-spacing:0;letter-spacing:0" font-family="&apos;Gentium Book Basic&apos;" line-height="125%">
  <text y="325.59" x="-702.09" font-size="208.33">
   <tspan y="325.59" x="-702.09"/>
  </text>
  <text y="174.41" x="-391.57" font-size="129.23">
   <tspan y="174.41" x="-391.57"/>
  </text>
 </g>
 <text style="text-anchor:middle" transform="scale(4.0128.2492)" font-size="46.954" y="350.73" x="99.5" font-family="Arial"/>
 <text style="word-spacing:0;letter-spacing:0" font-size="129.23" y="94.41" x="189.7" font-family="&apos;Gentium Book Basic&apos;" line-height="125%">
  <tspan y="94.41" x="189.7"/>
 </text>
 <text style="text-anchor:middle" transform="scale(4.0128.2492)" font-size="46.954" y="29.695" x="244.35" font-family="Arial"/>
 <text style="word-spacing:0;letter-spacing:0" font-size="129.23" y="-86.85" x="-881.88" font-family="&apos;Gentium Book Basic&apos;" line-height="125%">
  <tspan y="-86.85" x="-881.88"/>
 </text>
 <text style="text-anchor:middle" transform="scale(4.0128.2492)" font-size="46.954" y="-697.65" x="-22.689" font-family="Arial"/>
 <text style="word-spacing:0;letter-spacing:0" font-size="129.23" y="-303.32" x="216.17" font-family="&apos;Gentium Book Basic&apos;" line-height="125%">
  <tspan y="-303.32" x="216.17"/>
 </text>
 <text style="text-anchor:middle" transform="scale(4.0128.2492)" font-size="46.954" y="-1566.33" x="250.95" font-family="Arial"/>
 <text style="word-spacing:0;letter-spacing:0" font-size="129.23" y="-383.32" x="797.44" font-family="&apos;Gentium Book Basic&apos;" line-height="125%">
  <tspan y="-383.32" x="797.44"/>
 </text>
 <text style="text-anchor:middle" transform="scale(4.0128.2492)" font-size="46.954" y="-1887.36" x="395.8" font-family="Arial"/>
 <text style="word-spacing:0;letter-spacing:0" font-size="129.23" y="-855.72" x="408.32" font-family="&apos;Gentium Book Basic&apos;" line-height="125%">
  <tspan y="-855.72" x="408.32"/>
 </text>
 <text style="text-anchor:middle" transform="scale(4.0128.2492)" font-size="46.954" y="-3783.01" x="298.83" font-family="Arial"/>
 <text style="word-spacing:0;letter-spacing:0" font-size="129.23" y="-935.73" x="989.58" font-family="&apos;Gentium Book Basic&apos;" line-height="125%">
  <tspan y="-935.73" x="989.58"/>
 </text>
 <text style="text-anchor:middle" transform="scale(4.0128.2492)" font-size="46.954" y="-4104.04" x="443.68" font-family="Arial"/>
 <g style="word-spacing:0;letter-spacing:0" font-family="&apos;Gentium Book Basic&apos;" line-height="125%">
  <text y="478.99" x="-843.22" font-size="208.33">
   <tspan y="478.99" x="-843.22"/>
  </text>
  <text y="397.64" x="-1548.88" font-size="199.47">
   <tspan y="397.64" x="-1548.88"/>
  </text>
 </g>
 <text style="text-anchor:middle" transform="scale(4.0128.2492)" font-size="72.48" y="1056.72" x="-81.78" font-family="Arial"/>
 <text style="word-spacing:0;letter-spacing:0" font-size="208.33" y="197.32" x="-1054.91" font-family="&apos;Gentium Book Basic&apos;" line-height="125%">
  <tspan y="197.32" x="-1054.91"/>
 </text>
 <text style="text-anchor:middle" transform="scale(4.0128.2492)" font-size="75.7" y="228.91" x="54.84" font-family="Arial"/>
 <text style="word-spacing:0;letter-spacing:0" font-size="199.47" y="412.83" x="-1585.76" font-family="&apos;Gentium Book Basic&apos;" line-height="125%">
  <tspan y="412.83" x="-1585.76"/>
 </text>
 <text style="text-anchor:middle" transform="scale(4.0128.2492)" font-size="72.48" y="1117.66" x="-90.97" font-family="Arial"/>
 <text style="word-spacing:0;letter-spacing:0" font-size="208.33" y="212.51" x="-1091.79" font-family="&apos;Gentium Book Basic&apos;" line-height="125%">
  <tspan y="212.51" x="-1091.79"/>
 </text>
 <text style="text-anchor:middle" transform="scale(4.0128.2492)" font-size="75.7" y="289.85" x="45.649" font-family="Arial"/>
 <text style="word-spacing:0;letter-spacing:0" font-size="129.23" y="198.74" x="1541.35" font-family="&apos;Gentium Book Basic&apos;" line-height="125%">
  <tspan y="198.74" x="1541.35"/>
 </text>
 <text style="text-anchor:middle" transform="scale(4.0128.2492)" font-size="46.954" y="448.35" x="581.19" font-family="Arial"/>
 <text style="word-spacing:0;letter-spacing:0" font-size="129.23" y="118.74" x="2122.62" font-family="&apos;Gentium Book Basic&apos;" line-height="125%">
  <tspan y="118.74" x="2122.62"/>
 </text>
 <text style="text-anchor:middle" transform="scale(4.0128.2492)" font-size="46.954" y="127.31" x="726.04" font-family="Arial"/>
 <text style="word-spacing:0;letter-spacing:0" font-size="129.23" y="-62.52" x="1051.04" font-family="&apos;Gentium Book Basic&apos;" line-height="125%">
  <tspan y="-62.52" x="1051.04"/>
 </text>
 <text style="text-anchor:middle" transform="scale(4.0128.2492)" font-size="46.954" y="-600.04" x="459" font-family="Arial"/>
 <text style="word-spacing:0;letter-spacing:0" font-size="129.23" y="-278.99" x="2149.09" font-family="&apos;Gentium Book Basic&apos;" line-height="125%">
  <tspan y="-278.99" x="2149.09"/>
 </text>
 <text style="text-anchor:middle" transform="scale(4.0128.2492)" font-size="46.954" y="-1468.71" x="732.64" font-family="Arial"/>
 <text style="word-spacing:0;letter-spacing:0" font-size="129.23" y="-358.99" x="2730.36" font-family="&apos;Gentium Book Basic&apos;" line-height="125%">
  <tspan y="-358.99" x="2730.36"/>
 </text>
 <text style="text-anchor:middle" transform="scale(4.0128.2492)" font-size="46.954" y="-1789.74" x="877.49" font-family="Arial"/>
 <text style="word-spacing:0;letter-spacing:0" font-size="129.23" y="-831.39" x="2341.24" font-family="&apos;Gentium Book Basic&apos;" line-height="125%">
  <tspan y="-831.39" x="2341.24"/>
 </text>
 <text style="text-anchor:middle" transform="scale(4.0128.2492)" font-size="46.954" y="-3685.39" x="780.52" font-family="Arial"/>
 <text style="word-spacing:0;letter-spacing:0" font-size="129.23" y="-911.4" x="2922.5" font-family="&apos;Gentium Book Basic&apos;" line-height="125%">
  <tspan y="-911.4" x="2922.5"/>
 </text>
 <text style="text-anchor:middle" transform="scale(4.0128.2492)" font-size="46.954" y="-4006.43" x="925.36" font-family="Arial"/>
 <g style="word-spacing:0;letter-spacing:0" font-family="&apos;Gentium Book Basic&apos;" line-height="125%">
  <text y="503.32" x="1089.7" font-size="208.33">
   <tspan y="503.32" x="1089.7"/>
  </text>
  <text y="238.84" x="1446.24" font-size="129.23">
   <tspan y="238.84" x="1446.24"/>
  </text>
 </g>
 <text style="text-anchor:middle" transform="scale(4.0128.2492)" font-size="46.954" y="609.28" x="557.48" font-family="Arial"/>
 <text style="word-spacing:0;letter-spacing:0" font-size="129.23" y="158.84" x="2027.51" font-family="&apos;Gentium Book Basic&apos;" line-height="125%">
  <tspan y="158.84" x="2027.51"/>
 </text>
 <text style="text-anchor:middle" transform="scale(4.0128.2492)" font-size="46.954" y="288.24" x="702.33" font-family="Arial"/>
 <text style="word-spacing:0;letter-spacing:0" font-size="129.23" y="-22.418" x="955.93" font-family="&apos;Gentium Book Basic&apos;" line-height="125%">
  <tspan y="-22.418" x="955.93"/>
 </text>
 <text style="text-anchor:middle" transform="scale(4.0128.2492)" font-size="46.954" y="-439.1" x="435.3" font-family="Arial"/>
 <text style="word-spacing:0;letter-spacing:0" font-size="129.23" y="-238.89" x="2053.98" font-family="&apos;Gentium Book Basic&apos;" line-height="125%">
  <tspan y="-238.89" x="2053.98"/>
 </text>
 <text style="text-anchor:middle" transform="scale(4.0128.2492)" font-size="46.954" y="-1307.78" x="708.93" font-family="Arial"/>
 <text style="word-spacing:0;letter-spacing:0" font-size="129.23" y="-318.89" x="2635.25" font-family="&apos;Gentium Book Basic&apos;" line-height="125%">
  <tspan y="-318.89" x="2635.25"/>
 </text>
 <text style="text-anchor:middle" transform="scale(4.0128.2492)" font-size="46.954" y="-1628.81" x="853.78" font-family="Arial"/>
 <text style="word-spacing:0;letter-spacing:0" font-size="129.23" y="-791.29" x="2246.13" font-family="&apos;Gentium Book Basic&apos;" line-height="125%">
  <tspan y="-791.29" x="2246.13"/>
 </text>
 <text style="text-anchor:middle" transform="scale(4.0128.2492)" font-size="46.954" y="-3524.46" x="756.81" font-family="Arial"/>
 <text style="word-spacing:0;letter-spacing:0" font-size="129.23" y="-871.3" x="2827.39" font-family="&apos;Gentium Book Basic&apos;" line-height="125%">
  <tspan y="-871.3" x="2827.39"/>
 </text>
 <text style="text-anchor:middle" transform="scale(4.0128.2492)" font-size="46.954" y="-3845.5" x="901.66" font-family="Arial"/>
 <text style="word-spacing:0;letter-spacing:0" font-size="208.33" y="543.42" x="994.59" font-family="&apos;Gentium Book Basic&apos;" line-height="125%">
  <tspan y="543.42" x="994.59"/>
 </text>
 <path opacity=".25" d="m300.78 41c-61.21 0-71.75 1.807-104.53 17.908-96.71 47.49-155.32 168.24-136.58 281.36 6.949 41.932 22.908 75.08 45.33 97.51l74.22 74.22h306.78c14.397 0 26-11.603 26-26v-323.01l-90.76-90.76c-23.562-23.562-56.07-31.22-120.46-31.22"/>
 <path d="m223.78 465.52c12.917-3.587 36.968-18.401 53.45-32.901l29.962-26.371 6.04 15.867c7.886 20.747 37.23 43.517 56.08 43.517 37.18 0 80.58-30.29 80.58-56.24 0-12.797-3.3-15.07-21.896-15.07-42.16 0-49.3-31.581-27-119.47 12.568-49.549 14.566-66.27 8.754-73.27-11.356-13.687-41.469-27.671-59.57-27.671-14.817 0-16.937 3.964-26.857 50.25-18.406 85.86-22.372 97.67-39.679 118.25-31.373 37.28-75.28 49.39-104.62 28.836-54.32-38.04-42.23-162.74 20.813-214.7 30.26-24.94 62.19-34.489 115.33-34.489 50.679 0 78.13 8.336 110.49 33.565 20.308 15.844 25.03 17.323 28.26 8.878 6.077-15.833-2.918-51.879-18.764-75.19-25.19-37.07-56.42-48.29-134.36-48.29-61.21 0-71.75 1.807-104.53 17.908-96.71 47.49-155.32 168.24-136.58 281.36 16.253 98.08 81.8 148.11 164.11 125.26" fill="#fff"/>
</svg>
