<?xml version="1.0" encoding="UTF-8" standalone="no"?>
<!-- Created with Inkscape (http://www.inkscape.org/) -->
<svg id="svg2" xmlns:rdf="http://www.w3.org/1999/02/22-rdf-syntax-ns#" xmlns="http://www.w3.org/2000/svg" height="100%" width="100%" version="1.1" xmlns:cc="http://creativecommons.org/ns#" viewBox="0 0 512 512" xmlns:dc="http://purl.org/dc/elements/1.1/">
 <metadata id="metadata68">
  <rdf:RDF>
   <cc:Work rdf:about="">
    <dc:format>image/svg+xml</dc:format>
    <dc:type rdf:resource="http://purl.org/dc/dcmitype/StillImage"/>
   </cc:Work>
  </rdf:RDF>
 </metadata>
 <rect id="rect4" rx="25.988" height="512" width="512" y="0" x="0" fill="#487387"/>
 <path id="path6" fill-opacity="0.235" d="m252.44 60.38c-74.59 0.488-145.05 53.72-165.53 125.59 4.654 3.507 8.293 7.515 11.719 11.688 5.242 3.602 7.993 8.605 13.281 12.188 2.912 4.665 8.46 7.887 11.438 12.531 4.047 3.151 7.678 6.516 10.375 10.406 10.178 5.158-6.525 3.06-12.438 3.438-26.515 0.027-53.15-0.032-79.59 0.063-1.115 62.765 28.477 123.37 75 164.72 36.971 37.01 73.981 74.01 111 111h258.31c14.397 0 26-11.603 26-26v-103.81c-0.778-1.675-1.566-3.358-2.375-5.063 0.809-1.67 1.597-3.345 2.375-5.03v-128.69c-47.15-47.14-93.86-94.71-141.75-141.06-31.523-26.96-72.73-42.11-114.22-41.938h-0.031c-1.186-0.019-2.379-0.039-3.563-0.031" fill-rule="evenodd"/>
 <text id="text8" style="word-spacing:0;letter-spacing:0" font-size="129.23px" line-height="125%" y="109.98" x="154.56" font-family="Gentium Book Basic">
  <tspan id="tspan10" y="109.98" x="154.56"/>
 </text>
 <text id="text12" style="text-anchor:middle" transform="scale(4.0128 .2492)" font-size="46.954px" y="92.169998" x="235.60001" font-family="Arial"/>
 <text id="text14" style="word-spacing:0;letter-spacing:0" font-size="129.23px" line-height="125%" y="29.981001" x="735.83002" font-family="Gentium Book Basic">
  <tspan id="tspan16" y="29.981001" x="735.83002"/>
 </text>
 <text id="text18" style="text-anchor:middle" transform="scale(4.0128 .2492)" font-size="46.954px" y="-228.85001" x="380.45001" font-family="Arial"/>
 <text id="text20" style="word-spacing:0;letter-spacing:0" font-size="129.23px" line-height="125%" y="-151.28" x="-335.75" font-family="Gentium Book Basic">
  <tspan id="tspan22" y="-151.28" x="-335.75"/>
 </text>
 <text id="text24" style="text-anchor:middle" transform="scale(4.0128 .2492)" font-size="46.954px" y="-956.21002" x="113.41" font-family="Arial"/>
 <text id="text26" style="word-spacing:0;letter-spacing:0" font-size="129.23px" line-height="125%" y="-367.75" x="762.29999" font-family="Gentium Book Basic">
  <tspan id="tspan28" y="-367.75" x="762.29999"/>
 </text>
 <text id="text30" style="text-anchor:middle" transform="scale(4.0128 .2492)" font-size="46.954px" y="-1824.88" x="387.04999" font-family="Arial"/>
 <text id="text32" style="word-spacing:0;letter-spacing:0" font-size="129.23px" line-height="125%" y="-447.76001" x="1343.5699" font-family="Gentium Book Basic">
  <tspan id="tspan34" y="-447.76001" x="1343.5699"/>
 </text>
 <text id="text36" style="text-anchor:middle" transform="scale(4.0128 .2492)" font-size="46.954px" y="-2145.9099" x="531.89001" font-family="Arial"/>
 <text id="text38" style="word-spacing:0;letter-spacing:0" font-size="129.23px" line-height="125%" y="-920.15997" x="954.45001" font-family="Gentium Book Basic">
  <tspan id="tspan40" y="-920.15997" x="954.45001"/>
 </text>
 <text id="text42" style="text-anchor:middle" transform="scale(4.0128 .2492)" font-size="46.954px" y="-4041.5701" x="434.92999" font-family="Arial"/>
 <text id="text44" style="word-spacing:0;letter-spacing:0" font-size="129.23px" line-height="125%" y="-1000.16" x="1535.71" font-family="Gentium Book Basic">
  <tspan id="tspan46" y="-1000.16" x="1535.71"/>
 </text>
 <text id="text48" style="text-anchor:middle" transform="scale(4.0128 .2492)" font-size="46.954px" y="-4362.5898" x="579.77002" font-family="Arial"/>
 <g id="g50" style="word-spacing:0;letter-spacing:0" transform="translate(-575.08,-121.38)" font-size="208.33px" font-family="Gentium Book Basic" line-height="125%">
  <text id="text52" y="535.94" x="277.98999">
   <tspan id="tspan54" y="535.94" x="277.98999"/>
  </text>
  <text id="text56" y="470.64001" x="-1767.8199">
   <tspan id="tspan58" y="470.64001" x="-1767.8199"/>
  </text>
 </g>
 <text id="text60" style="text-anchor:middle" transform="scale(4.0128 .2492)" font-size="75.7px" y="838.62" x="-266.12" font-family="Arial"/>
 <path id="path62" fill="#fff" d="m256 60.4c-64.6 0-121.07 34.754-151.88 86.51-7.24 12.163-13.02 25.26-17.201 39.07l169.88 50.27h-215.11c-0.001 0.337 0 0.695 0 1.034 0 118.36 95.95 214.31 214.31 214.31s214.31-95.95 214.31-214.31c0-0.337 0.001-0.695 0-1.034h-37.67c-0.15-32.65-9.18-63.15-24.77-89.33-30.8-51.751-87.28-86.51-151.88-86.51" fill-rule="evenodd"/>
</svg>
