<svg xmlns="http://www.w3.org/2000/svg" viewBox="0 0 512 512"><text x="-732.13" y="91.57" line-height="125%" style="letter-spacing:0;word-spacing:0;font-size:129.23;font-family:Gentium Book Basic"><tspan x="-732.13" y="91.57"/></text><text x="14.632" y="18.314" transform="scale(4.0128.2492)" style="font-size:46.954;font-family:Arial;text-anchor:middle"/><text x="-150.86" y="11.572" line-height="125%" style="letter-spacing:0;word-spacing:0;font-size:129.23;font-family:Gentium Book Basic"><tspan x="-150.86" y="11.572"/></text><text x="159.48" y="-302.72" transform="scale(4.0128.2492)" style="font-size:46.954;font-family:Arial;text-anchor:middle"/><text x="-1222.44" y="-169.69" line-height="125%" style="letter-spacing:0;word-spacing:0;font-size:129.23;font-family:Gentium Book Basic"><tspan x="-1222.44" y="-169.69"/></text><text x="-107.56" y="-1030.07" transform="scale(4.0128.2492)" style="font-size:46.954;font-family:Arial;text-anchor:middle"/><text x="-124.39" y="-386.16" line-height="125%" style="letter-spacing:0;word-spacing:0;font-size:129.23;font-family:Gentium Book Basic"><tspan x="-124.39" y="-386.16"/></text><text x="166.08" y="-1898.75" transform="scale(4.0128.2492)" style="font-size:46.954;font-family:Arial;text-anchor:middle"/><text x="456.88" y="-466.16" line-height="125%" style="letter-spacing:0;word-spacing:0;font-size:129.23;font-family:Gentium Book Basic"><tspan x="456.88" y="-466.16"/></text><text x="310.93" y="-2219.77" transform="scale(4.0128.2492)" style="font-size:46.954;font-family:Arial;text-anchor:middle"/><text x="67.757" y="-938.56" line-height="125%" style="letter-spacing:0;word-spacing:0;font-size:129.23;font-family:Gentium Book Basic"><tspan x="67.757" y="-938.56"/></text><text x="213.96" y="-4115.42" transform="scale(4.0128.2492)" style="font-size:46.954;font-family:Arial;text-anchor:middle"/><text x="649.02" y="-1018.57" line-height="125%" style="letter-spacing:0;word-spacing:0;font-size:129.23;font-family:Gentium Book Basic"><tspan x="649.02" y="-1018.57"/></text><text x="358.81" y="-4436.46" transform="scale(4.0128.2492)" style="font-size:46.954;font-family:Arial;text-anchor:middle"/><g line-height="125%" style="letter-spacing:0;word-spacing:0"><text x="-1183.78" y="396.15" style="font-size:208.33;font-family:Gentium Book Basic"><tspan x="-1183.78" y="396.15"/></text><text x="-149.19" y="251.11" style="font-size:129.23;font-family:&apos;Gentium Book Basic&apos;"><tspan x="-149.19" y="251.11"/></text></g><text x="159.9" y="658.53" transform="scale(4.0128.2492)" style="font-size:46.954;font-family:Arial;text-anchor:middle"/><text x="432.08" y="171.11" line-height="125%" style="letter-spacing:0;word-spacing:0;font-size:129.23;font-family:&apos;Gentium Book Basic&apos;"><tspan x="432.08" y="171.11"/></text><text x="304.75" y="337.49" transform="scale(4.0128.2492)" style="font-size:46.954;font-family:Arial;text-anchor:middle"/><text x="-639.5" y="-10.146" line-height="125%" style="letter-spacing:0;word-spacing:0;font-size:129.23;font-family:&apos;Gentium Book Basic&apos;"><tspan x="-639.5" y="-10.146"/></text><text x="37.713" y="-389.86" transform="scale(4.0128.2492)" style="font-size:46.954;font-family:Arial;text-anchor:middle"/><text x="458.55" y="-226.62" line-height="125%" style="letter-spacing:0;word-spacing:0;font-size:129.23;font-family:&apos;Gentium Book Basic&apos;"><tspan x="458.55" y="-226.62"/></text><text x="311.35" y="-1258.53" transform="scale(4.0128.2492)" style="font-size:46.954;font-family:Arial;text-anchor:middle"/><text x="1039.82" y="-306.62" line-height="125%" style="letter-spacing:0;word-spacing:0;font-size:129.23;font-family:&apos;Gentium Book Basic&apos;"><tspan x="1039.82" y="-306.62"/></text><text x="456.2" y="-1579.56" transform="scale(4.0128.2492)" style="font-size:46.954;font-family:Arial;text-anchor:middle"/><text x="650.7" y="-779.02" line-height="125%" style="letter-spacing:0;word-spacing:0;font-size:129.23;font-family:&apos;Gentium Book Basic&apos;"><tspan x="650.7" y="-779.02"/></text><text x="359.23" y="-3475.21" transform="scale(4.0128.2492)" style="font-size:46.954;font-family:Arial;text-anchor:middle"/><text x="1231.96" y="-859.03" line-height="125%" style="letter-spacing:0;word-spacing:0;font-size:129.23;font-family:&apos;Gentium Book Basic&apos;"><tspan x="1231.96" y="-859.03"/></text><text x="504.08" y="-3796.25" transform="scale(4.0128.2492)" style="font-size:46.954;font-family:Arial;text-anchor:middle"/><g line-height="125%" style="letter-spacing:0;word-spacing:0;font-family:&apos;Gentium Book Basic&apos;"><text x="-600.84" y="555.69" style="font-size:208.33"><tspan x="-600.84" y="555.69"/></text><text x="1880.38" y="66.58" style="font-size:129.23"><tspan x="1880.38" y="66.58"/></text></g><text x="665.67" y="-81.998" transform="scale(4.0128.2492)" style="font-size:46.954;font-family:Arial;text-anchor:middle"/><text x="2461.64" y="-13.423" line-height="125%" style="letter-spacing:0;word-spacing:0;font-size:129.23;font-family:&apos;Gentium Book Basic&apos;"><tspan x="2461.64" y="-13.423"/></text><text x="810.52" y="-403.03" transform="scale(4.0128.2492)" style="font-size:46.954;font-family:Arial;text-anchor:middle"/><text x="1390.06" y="-194.68" line-height="125%" style="letter-spacing:0;word-spacing:0;font-size:129.23;font-family:&apos;Gentium Book Basic&apos;"><tspan x="1390.06" y="-194.68"/></text><text x="543.48" y="-1130.37" transform="scale(4.0128.2492)" style="font-size:46.954;font-family:Arial;text-anchor:middle"/><text x="2488.11" y="-411.15" line-height="125%" style="letter-spacing:0;word-spacing:0;font-size:129.23;font-family:&apos;Gentium Book Basic&apos;"><tspan x="2488.11" y="-411.15"/></text><text x="817.12" y="-1999.04" transform="scale(4.0128.2492)" style="font-size:46.954;font-family:Arial;text-anchor:middle"/><text x="3069.39" y="-491.16" line-height="125%" style="letter-spacing:0;word-spacing:0;font-size:129.23;font-family:&apos;Gentium Book Basic&apos;"><tspan x="3069.39" y="-491.16"/></text><text x="961.97" y="-2320.08" transform="scale(4.0128.2492)" style="font-size:46.954;font-family:Arial;text-anchor:middle"/><text x="2680.27" y="-963.56" line-height="125%" style="letter-spacing:0;word-spacing:0;font-size:129.23;font-family:&apos;Gentium Book Basic&apos;"><tspan x="2680.27" y="-963.56"/></text><text x="865" y="-4215.72" transform="scale(4.0128.2492)" style="font-size:46.954;font-family:Arial;text-anchor:middle"/><text x="3261.53" y="-1043.56" line-height="125%" style="letter-spacing:0;word-spacing:0;font-size:129.23;font-family:&apos;Gentium Book Basic&apos;"><tspan x="3261.53" y="-1043.56"/></text><text x="1009.84" y="-4536.75" transform="scale(4.0128.2492)" style="font-size:46.954;font-family:Arial;text-anchor:middle"/><g line-height="125%" style="letter-spacing:0;word-spacing:0;font-family:&apos;Gentium Book Basic&apos;"><text x="1428.72" y="371.16" style="font-size:208.33"><tspan x="1428.72" y="371.16"/></text><text x="-78.62" y="189.75" style="font-size:129.23"><tspan x="-78.62" y="189.75"/></text></g><text x="177.49" y="412.29" transform="scale(4.0128.2492)" style="font-size:46.954;font-family:Arial;text-anchor:middle"/><text x="502.65" y="109.75" line-height="125%" style="letter-spacing:0;word-spacing:0;font-size:129.23;font-family:&apos;Gentium Book Basic&apos;"><tspan x="502.65" y="109.75"/></text><text x="322.34" y="91.25" transform="scale(4.0128.2492)" style="font-size:46.954;font-family:Arial;text-anchor:middle"/><text x="-568.93" y="-71.51" line-height="125%" style="letter-spacing:0;word-spacing:0;font-size:129.23;font-family:&apos;Gentium Book Basic&apos;"><tspan x="-568.93" y="-71.51"/></text><text x="55.3" y="-636.09" transform="scale(4.0128.2492)" style="font-size:46.954;font-family:Arial;text-anchor:middle"/><text x="529.12" y="-287.98" line-height="125%" style="letter-spacing:0;word-spacing:0;font-size:129.23;font-family:&apos;Gentium Book Basic&apos;"><tspan x="529.12" y="-287.98"/></text><text x="328.94" y="-1504.77" transform="scale(4.0128.2492)" style="font-size:46.954;font-family:Arial;text-anchor:middle"/><text x="1110.39" y="-367.98" line-height="125%" style="letter-spacing:0;word-spacing:0;font-size:129.23;font-family:&apos;Gentium Book Basic&apos;"><tspan x="1110.39" y="-367.98"/></text><text x="473.79" y="-1825.8" transform="scale(4.0128.2492)" style="font-size:46.954;font-family:Arial;text-anchor:middle"/><text x="721.27" y="-840.38" line-height="125%" style="letter-spacing:0;word-spacing:0;font-size:129.23;font-family:&apos;Gentium Book Basic&apos;"><tspan x="721.27" y="-840.38"/></text><text x="376.82" y="-3721.45" transform="scale(4.0128.2492)" style="font-size:46.954;font-family:Arial;text-anchor:middle"/><text x="1302.53" y="-920.39" line-height="125%" style="letter-spacing:0;word-spacing:0;font-size:129.23;font-family:&apos;Gentium Book Basic&apos;"><tspan x="1302.53" y="-920.39"/></text><text x="521.67" y="-4042.48" transform="scale(4.0128.2492)" style="font-size:46.954;font-family:Arial;text-anchor:middle"/><g line-height="125%" style="letter-spacing:0;word-spacing:0;font-family:&apos;Gentium Book Basic&apos;"><text x="-530.27" y="494.33" style="font-size:208.33"><tspan x="-530.27" y="494.33"/></text><text x="-250.44" y="21.01" style="font-size:129.23"><tspan x="-250.44" y="21.01"/></text></g><text x="134.67" y="-264.86" transform="scale(4.0128.2492)" style="font-size:46.954;font-family:Arial;text-anchor:middle"/><text x="330.83" y="-58.995" line-height="125%" style="letter-spacing:0;word-spacing:0;font-size:129.23;font-family:&apos;Gentium Book Basic&apos;"><tspan x="330.83" y="-58.995"/></text><text x="279.52" y="-585.9" transform="scale(4.0128.2492)" style="font-size:46.954;font-family:Arial;text-anchor:middle"/><text x="-740.75" y="-240.25" line-height="125%" style="letter-spacing:0;word-spacing:0;font-size:129.23;font-family:&apos;Gentium Book Basic&apos;"><tspan x="-740.75" y="-240.25"/></text><text x="12.482" y="-1313.24" transform="scale(4.0128.2492)" style="font-size:46.954;font-family:Arial;text-anchor:middle"/><text x="357.3" y="-456.72" line-height="125%" style="letter-spacing:0;word-spacing:0;font-size:129.23;font-family:&apos;Gentium Book Basic&apos;"><tspan x="357.3" y="-456.72"/></text><text x="286.12" y="-2181.92" transform="scale(4.0128.2492)" style="font-size:46.954;font-family:Arial;text-anchor:middle"/><text x="938.57" y="-536.72" line-height="125%" style="letter-spacing:0;word-spacing:0;font-size:129.23;font-family:&apos;Gentium Book Basic&apos;"><tspan x="938.57" y="-536.72"/></text><text x="430.97" y="-2502.95" transform="scale(4.0128.2492)" style="font-size:46.954;font-family:Arial;text-anchor:middle"/><text x="549.45" y="-1009.12" line-height="125%" style="letter-spacing:0;word-spacing:0;font-size:129.23;font-family:&apos;Gentium Book Basic&apos;"><tspan x="549.45" y="-1009.12"/></text><text x="334" y="-4398.6" transform="scale(4.0128.2492)" style="font-size:46.954;font-family:Arial;text-anchor:middle"/><text x="1130.71" y="-1089.13" line-height="125%" style="letter-spacing:0;word-spacing:0;font-size:129.23;font-family:&apos;Gentium Book Basic&apos;"><tspan x="1130.71" y="-1089.13"/></text><text x="478.85" y="-4719.64" transform="scale(4.0128.2492)" style="font-size:46.954;font-family:Arial;text-anchor:middle"/><g line-height="125%" style="letter-spacing:0;word-spacing:0;font-family:&apos;Gentium Book Basic&apos;"><text x="-702.09" y="325.59" style="font-size:208.33"><tspan x="-702.09" y="325.59"/></text><text x="-391.57" y="174.41" style="font-size:129.23"><tspan x="-391.57" y="174.41"/></text></g><text x="99.5" y="350.73" transform="scale(4.0128.2492)" style="font-size:46.954;font-family:Arial;text-anchor:middle"/><text x="189.7" y="94.41" line-height="125%" style="letter-spacing:0;word-spacing:0;font-size:129.23;font-family:&apos;Gentium Book Basic&apos;"><tspan x="189.7" y="94.41"/></text><text x="244.35" y="29.695" transform="scale(4.0128.2492)" style="font-size:46.954;font-family:Arial;text-anchor:middle"/><text x="-881.88" y="-86.85" line-height="125%" style="letter-spacing:0;word-spacing:0;font-size:129.23;font-family:&apos;Gentium Book Basic&apos;"><tspan x="-881.88" y="-86.85"/></text><text x="-22.689" y="-697.65" transform="scale(4.0128.2492)" style="font-size:46.954;font-family:Arial;text-anchor:middle"/><text x="216.17" y="-303.32" line-height="125%" style="letter-spacing:0;word-spacing:0;font-size:129.23;font-family:&apos;Gentium Book Basic&apos;"><tspan x="216.17" y="-303.32"/></text><text x="250.95" y="-1566.33" transform="scale(4.0128.2492)" style="font-size:46.954;font-family:Arial;text-anchor:middle"/><text x="797.44" y="-383.32" line-height="125%" style="letter-spacing:0;word-spacing:0;font-size:129.23;font-family:&apos;Gentium Book Basic&apos;"><tspan x="797.44" y="-383.32"/></text><text x="395.8" y="-1887.36" transform="scale(4.0128.2492)" style="font-size:46.954;font-family:Arial;text-anchor:middle"/><text x="408.32" y="-855.72" line-height="125%" style="letter-spacing:0;word-spacing:0;font-size:129.23;font-family:&apos;Gentium Book Basic&apos;"><tspan x="408.32" y="-855.72"/></text><text x="298.83" y="-3783.01" transform="scale(4.0128.2492)" style="font-size:46.954;font-family:Arial;text-anchor:middle"/><text x="989.58" y="-935.73" line-height="125%" style="letter-spacing:0;word-spacing:0;font-size:129.23;font-family:&apos;Gentium Book Basic&apos;"><tspan x="989.58" y="-935.73"/></text><text x="443.68" y="-4104.04" transform="scale(4.0128.2492)" style="font-size:46.954;font-family:Arial;text-anchor:middle"/><g line-height="125%" style="letter-spacing:0;word-spacing:0;font-family:&apos;Gentium Book Basic&apos;"><text x="-843.22" y="478.99" style="font-size:208.33"><tspan x="-843.22" y="478.99"/></text><text x="-1548.88" y="397.64" style="font-size:199.47"><tspan x="-1548.88" y="397.64"/></text></g><text x="-81.78" y="1056.72" transform="scale(4.0128.2492)" style="font-size:72.48;font-family:Arial;text-anchor:middle"/><text x="-1054.91" y="197.32" line-height="125%" style="letter-spacing:0;word-spacing:0;font-size:208.33;font-family:&apos;Gentium Book Basic&apos;"><tspan x="-1054.91" y="197.32"/></text><text x="54.84" y="228.91" transform="scale(4.0128.2492)" style="font-size:75.7;font-family:Arial;text-anchor:middle"/><text x="-1585.76" y="412.83" line-height="125%" style="letter-spacing:0;word-spacing:0;font-size:199.47;font-family:&apos;Gentium Book Basic&apos;"><tspan x="-1585.76" y="412.83"/></text><text x="-90.97" y="1117.66" transform="scale(4.0128.2492)" style="font-size:72.48;font-family:Arial;text-anchor:middle"/><text x="-1091.79" y="212.51" line-height="125%" style="letter-spacing:0;word-spacing:0;font-size:208.33;font-family:&apos;Gentium Book Basic&apos;"><tspan x="-1091.79" y="212.51"/></text><text x="45.649" y="289.85" transform="scale(4.0128.2492)" style="font-size:75.7;font-family:Arial;text-anchor:middle"/><text x="1541.35" y="198.74" line-height="125%" style="letter-spacing:0;word-spacing:0;font-size:129.23;font-family:&apos;Gentium Book Basic&apos;"><tspan x="1541.35" y="198.74"/></text><text x="581.19" y="448.35" transform="scale(4.0128.2492)" style="font-size:46.954;font-family:Arial;text-anchor:middle"/><text x="2122.62" y="118.74" line-height="125%" style="letter-spacing:0;word-spacing:0;font-size:129.23;font-family:&apos;Gentium Book Basic&apos;"><tspan x="2122.62" y="118.74"/></text><text x="726.04" y="127.31" transform="scale(4.0128.2492)" style="font-size:46.954;font-family:Arial;text-anchor:middle"/><text x="1051.04" y="-62.52" line-height="125%" style="letter-spacing:0;word-spacing:0;font-size:129.23;font-family:&apos;Gentium Book Basic&apos;"><tspan x="1051.04" y="-62.52"/></text><text x="459" y="-600.04" transform="scale(4.0128.2492)" style="font-size:46.954;font-family:Arial;text-anchor:middle"/><text x="2149.09" y="-278.99" line-height="125%" style="letter-spacing:0;word-spacing:0;font-size:129.23;font-family:&apos;Gentium Book Basic&apos;"><tspan x="2149.09" y="-278.99"/></text><text x="732.64" y="-1468.71" transform="scale(4.0128.2492)" style="font-size:46.954;font-family:Arial;text-anchor:middle"/><text x="2730.36" y="-358.99" line-height="125%" style="letter-spacing:0;word-spacing:0;font-size:129.23;font-family:&apos;Gentium Book Basic&apos;"><tspan x="2730.36" y="-358.99"/></text><text x="877.49" y="-1789.74" transform="scale(4.0128.2492)" style="font-size:46.954;font-family:Arial;text-anchor:middle"/><text x="2341.24" y="-831.39" line-height="125%" style="letter-spacing:0;word-spacing:0;font-size:129.23;font-family:&apos;Gentium Book Basic&apos;"><tspan x="2341.24" y="-831.39"/></text><text x="780.52" y="-3685.39" transform="scale(4.0128.2492)" style="font-size:46.954;font-family:Arial;text-anchor:middle"/><text x="2922.5" y="-911.4" line-height="125%" style="letter-spacing:0;word-spacing:0;font-size:129.23;font-family:&apos;Gentium Book Basic&apos;"><tspan x="2922.5" y="-911.4"/></text><text x="925.36" y="-4006.43" transform="scale(4.0128.2492)" style="font-size:46.954;font-family:Arial;text-anchor:middle"/><g line-height="125%" style="letter-spacing:0;word-spacing:0;font-family:&apos;Gentium Book Basic&apos;"><text x="1089.7" y="503.32" style="font-size:208.33"><tspan x="1089.7" y="503.32"/></text><text x="28.762" y="189.75" style="font-size:129.23"><tspan x="28.762" y="189.75"/></text></g><text x="204.25" y="412.29" transform="scale(4.0128.2492)" style="font-size:46.954;font-family:Arial;text-anchor:middle"/><text x="610.03" y="109.75" line-height="125%" style="letter-spacing:0;word-spacing:0;font-size:129.23;font-family:&apos;Gentium Book Basic&apos;"><tspan x="610.03" y="109.75"/></text><text x="349.1" y="91.25" transform="scale(4.0128.2492)" style="font-size:46.954;font-family:Arial;text-anchor:middle"/><text x="-461.55" y="-71.51" line-height="125%" style="letter-spacing:0;word-spacing:0;font-size:129.23;font-family:&apos;Gentium Book Basic&apos;"><tspan x="-461.55" y="-71.51"/></text><text x="82.06" y="-636.09" transform="scale(4.0128.2492)" style="font-size:46.954;font-family:Arial;text-anchor:middle"/><text x="636.5" y="-287.98" line-height="125%" style="letter-spacing:0;word-spacing:0;font-size:129.23;font-family:&apos;Gentium Book Basic&apos;"><tspan x="636.5" y="-287.98"/></text><text x="355.7" y="-1504.77" transform="scale(4.0128.2492)" style="font-size:46.954;font-family:Arial;text-anchor:middle"/><text x="1217.77" y="-367.98" line-height="125%" style="letter-spacing:0;word-spacing:0;font-size:129.23;font-family:&apos;Gentium Book Basic&apos;"><tspan x="1217.77" y="-367.98"/></text><text x="500.55" y="-1825.8" transform="scale(4.0128.2492)" style="font-size:46.954;font-family:Arial;text-anchor:middle"/><text x="828.65" y="-840.38" line-height="125%" style="letter-spacing:0;word-spacing:0;font-size:129.23;font-family:&apos;Gentium Book Basic&apos;"><tspan x="828.65" y="-840.38"/></text><text x="403.58" y="-3721.45" transform="scale(4.0128.2492)" style="font-size:46.954;font-family:Arial;text-anchor:middle"/><text x="1409.91" y="-920.39" line-height="125%" style="letter-spacing:0;word-spacing:0;font-size:129.23;font-family:&apos;Gentium Book Basic&apos;"><tspan x="1409.91" y="-920.39"/></text><text x="548.43" y="-4042.48" transform="scale(4.0128.2492)" style="font-size:46.954;font-family:Arial;text-anchor:middle"/><text x="-422.89" y="494.33" line-height="125%" style="letter-spacing:0;word-spacing:0;font-size:208.33;font-family:&apos;Gentium Book Basic&apos;"><tspan x="-422.89" y="494.33"/></text><path d="m26 0c-14.397 0-26 11.603-26 26v460c0 14.397 11.603 26 26 26h460c14.397 0 26-11.603 26-26v-460c0-14.397-11.603-26-26-26h-460" style="fill:#e96d63"/><text x="97.79" y="172.88" line-height="125%" style="letter-spacing:0;word-spacing:0;font-size:129.23;font-family:&apos;Gentium Book Basic&apos;"><tspan x="97.79" y="172.88"/></text><text x="221.45" y="344.57" transform="scale(4.0128.2492)" style="font-size:46.954;font-family:Arial;text-anchor:middle"/><text x="679.06" y="92.88" line-height="125%" style="letter-spacing:0;word-spacing:0;font-size:129.23;font-family:&apos;Gentium Book Basic&apos;"><tspan x="679.06" y="92.88"/></text><text x="366.3" y="23.538" transform="scale(4.0128.2492)" style="font-size:46.954;font-family:Arial;text-anchor:middle"/><text x="-392.52" y="-88.38" line-height="125%" style="letter-spacing:0;word-spacing:0;font-size:129.23;font-family:&apos;Gentium Book Basic&apos;"><tspan x="-392.52" y="-88.38"/></text><text x="99.26" y="-703.82" transform="scale(4.0128.2492)" style="font-size:46.954;font-family:Arial;text-anchor:middle"/><text x="705.53" y="-304.85" line-height="125%" style="letter-spacing:0;word-spacing:0;font-size:129.23;font-family:&apos;Gentium Book Basic&apos;"><tspan x="705.53" y="-304.85"/></text><text x="372.9" y="-1572.47" transform="scale(4.0128.2492)" style="font-size:46.954;font-family:Arial;text-anchor:middle"/><text x="1286.8" y="-384.86" line-height="125%" style="letter-spacing:0;word-spacing:0;font-size:129.23;font-family:&apos;Gentium Book Basic&apos;"><tspan x="1286.8" y="-384.86"/></text><text x="517.75" y="-1893.51" transform="scale(4.0128.2492)" style="font-size:46.954;font-family:Arial;text-anchor:middle"/><text x="897.68" y="-857.26" line-height="125%" style="letter-spacing:0;word-spacing:0;font-size:129.23;font-family:&apos;Gentium Book Basic&apos;"><tspan x="897.68" y="-857.26"/></text><text x="420.78" y="-3789.15" transform="scale(4.0128.2492)" style="font-size:46.954;font-family:Arial;text-anchor:middle"/><text x="1478.94" y="-937.26" line-height="125%" style="letter-spacing:0;word-spacing:0;font-size:129.23;font-family:&apos;Gentium Book Basic&apos;"><tspan x="1478.94" y="-937.26"/></text><text x="565.63" y="-4110.18" transform="scale(4.0128.2492)" style="font-size:46.954;font-family:Arial;text-anchor:middle"/><text x="-353.86" y="477.46" line-height="125%" style="letter-spacing:0;word-spacing:0;font-size:208.33;font-family:&apos;Gentium Book Basic&apos;"><tspan x="-353.86" y="477.46"/></text><path d="m90.84 71.7c-27.602.005-49.836 22.2-49.836 49.805l-.004-.004v262.17c0 13.793 5.552 26.24 14.551 35.23l.211.211c-.069-.068-.142-.132-.211-.201l93.09 93.09h337.36c14.397 0 26-11.603 26-26v-248.41l-75.79-75.79c-11.11-11.11-23.915-17.556-33.725-17.773l68.51 68.51c0 .003 0 .005 0 .008l-68.52-68.52c-.534-.012-1.11-.028-1.654 0-3.232.168-6.123 1.105-8.385 2.871l-60.63-60.63c-9.01-9.01-21.484-14.57-35.3-14.57h-205.66-.01" style="opacity:.25"/><path d="m90.85 71.7c-27.607 0-49.847 22.2-49.847 49.804v262.17c0 27.607 22.24 49.804 49.847 49.804h73.22c-.124-.609-.231-1.236-.297-1.867 5.308-34.24 20.723-66.34 29.1-99.91 50.41-51.866 102.65-102.6 153.49-154.16v-56.04c0-27.607-22.24-49.804-49.847-49.804h-205.67m3.351 44.586c13.757 0 24.902 11.188 24.902 24.945 0 13.757-11.145 24.902-24.902 24.902-13.757 0-24.902-11.145-24.902-24.902 0-13.757 11.145-24.945 24.902-24.945m66.39 6.279h138.81c10.338 0 18.666 8.328 18.666 18.666 0 10.338-8.328 18.624-18.666 18.624h-138.81c-10.338 0-18.666-8.285-18.666-18.624 0-10.338 8.328-18.666 18.666-18.666m240.24 21.466c-3.703.192-6.959 1.39-9.333 3.691l-.127.127-17.521 17.605-.382.382.382.382 75 75 .424.339.339-.339 17.351-17.351.212-.255c.086-.086.116-.148.127-.17 4.219-4.401 4.678-11.567 2.121-19.557-2.567-8.02-8.166-16.985-16.205-25.03l-17.01-17.05c-11.12-11.12-23.915-17.558-33.726-17.775-.534-.012-1.11-.028-1.654 0m-36.31 30.756l-.382.382-18.539 18.581-.382.382.382.382 75 75 .339.382.424-.382 18.539-18.581.382-.382-.382-.382-75-75-.382-.382m-270.32 15.781c13.757 0 24.902 11.145 24.902 24.902 0 13.757-11.145 24.902-24.902 24.902-13.757 0-24.902-11.145-24.902-24.902 0-13.757 11.145-24.902 24.902-24.902m66.39 6.236h138.81c3.63 0 6.981 1.062 9.842 2.842-11.546 11.505-23.11 22.992-34.659 34.49h-113.99c-10.338 0-18.666-8.328-18.666-18.666 0-10.338 8.328-18.666 18.666-18.666m173.89 8.02l-.424.339-113.14 113.27-14 13.957-3.521 3.521-.127.085v.127l-28.3 88.58-.042.042c-1.017 4.771.526 10.04 3.903 13.236l.042.042c3.131 2.341 7.299 2.947 10.86 1.527h.042l89.77-28.381.085-.042.085-.085 2.927-2.97 13.533-13.49 113.65-113.61.382-.424-.382-.382-75-74.961-.339-.382m-240.28 59.986c13.757 0 24.902 11.145 24.902 24.902 0 13.757-11.145 24.902-24.902 24.902-13.757 0-24.902-11.145-24.902-24.902 0-13.757 11.145-24.902 24.902-24.902m66.39 6.236h76.997c-12.371 12.392-24.711 24.853-36.993 37.33h-40c-10.338 0-18.666-8.328-18.666-18.666 0-10.338 8.328-18.666 18.666-18.666m-66.39 68c13.757 0 24.902 11.145 24.902 24.902 0 13.757-11.145 24.945-24.902 24.945-13.757 0-24.902-11.188-24.902-24.945 0-13.757 11.145-24.902 24.902-24.902m66.39 6.279h17.351c-3.889 12.511-8.588 24.853-12.812 37.29h-4.539c-10.338 0-18.666-8.328-18.666-18.666 0-10.338 8.328-18.624 18.666-18.624m62.87 3.394h.042.042c.106-.004.191-.004.297 0 .012 0 .03-.001.042 0h.042c.983.012 1.898.445 2.588 1.145l6.448 6.406 24.308-1.273c.011-.001.032 0 .042 0 .961-.043 1.948.341 2.673.976.853.753 1.333 1.875 1.273 3.01l-1.23 26.514 4.709 4.751c.934.94 1.323 2.327.976 3.606-.347 1.279-1.391 2.291-2.673 2.63l-42.3 11.369h-.042c-1.27.348-2.663-.014-3.606-.933h-.042l-8.23-8.23c-.962-.95-1.303-2.347-.933-3.648l12.387-43.526c.389-1.474 1.667-2.63 3.182-2.8m122.9 10.945c-19.686 19.66-39.36 39.33-58.968 59.01-13.627 5.765-27.713 10.423-41.914 14.806h51.03c27.607 0 49.847-22.2 49.847-49.804v-24.01" style="fill:#fff"/></svg>