<?xml version="1.0" encoding="UTF-8" standalone="no"?>
<svg xmlns="http://www.w3.org/2000/svg" viewBox="0 0 512 512">
 <text style="word-spacing:0;letter-spacing:0" font-size="129.23" y="91.57" x="-732.13" font-family="Gentium Book Basic" line-height="125%">
  <tspan y="91.57" x="-732.13"/>
 </text>
 <text style="text-anchor:middle" transform="scale(4.0128.2492)" font-size="46.954" y="18.314" x="14.632" font-family="Arial"/>
 <text style="word-spacing:0;letter-spacing:0" font-size="129.23" y="11.572" x="-150.86" font-family="Gentium Book Basic" line-height="125%">
  <tspan y="11.572" x="-150.86"/>
 </text>
 <text style="text-anchor:middle" transform="scale(4.0128.2492)" font-size="46.954" y="-302.72" x="159.48" font-family="Arial"/>
 <text style="word-spacing:0;letter-spacing:0" font-size="129.23" y="-169.69" x="-1222.44" font-family="Gentium Book Basic" line-height="125%">
  <tspan y="-169.69" x="-1222.44"/>
 </text>
 <text style="text-anchor:middle" transform="scale(4.0128.2492)" font-size="46.954" y="-1030.07" x="-107.56" font-family="Arial"/>
 <text style="word-spacing:0;letter-spacing:0" font-size="129.23" y="-386.16" x="-124.39" font-family="Gentium Book Basic" line-height="125%">
  <tspan y="-386.16" x="-124.39"/>
 </text>
 <text style="text-anchor:middle" transform="scale(4.0128.2492)" font-size="46.954" y="-1898.75" x="166.08" font-family="Arial"/>
 <text style="word-spacing:0;letter-spacing:0" font-size="129.23" y="-466.16" x="456.88" font-family="Gentium Book Basic" line-height="125%">
  <tspan y="-466.16" x="456.88"/>
 </text>
 <text style="text-anchor:middle" transform="scale(4.0128.2492)" font-size="46.954" y="-2219.77" x="310.93" font-family="Arial"/>
 <text style="word-spacing:0;letter-spacing:0" font-size="129.23" y="-938.56" x="67.757" font-family="Gentium Book Basic" line-height="125%">
  <tspan y="-938.56" x="67.757"/>
 </text>
 <text style="text-anchor:middle" transform="scale(4.0128.2492)" font-size="46.954" y="-4115.42" x="213.96" font-family="Arial"/>
 <text style="word-spacing:0;letter-spacing:0" font-size="129.23" y="-1018.57" x="649.02" font-family="Gentium Book Basic" line-height="125%">
  <tspan y="-1018.57" x="649.02"/>
 </text>
 <text style="text-anchor:middle" transform="scale(4.0128.2492)" font-size="46.954" y="-4436.46" x="358.81" font-family="Arial"/>
 <g style="word-spacing:0;letter-spacing:0" line-height="125%">
  <text y="396.15" x="-1183.78" font-family="Gentium Book Basic" font-size="208.33">
   <tspan y="396.15" x="-1183.78"/>
  </text>
  <text y="251.11" x="-149.19" font-family="&apos;Gentium Book Basic&apos;" font-size="129.23">
   <tspan y="251.11" x="-149.19"/>
  </text>
 </g>
 <text style="text-anchor:middle" transform="scale(4.0128.2492)" font-size="46.954" y="658.53" x="159.9" font-family="Arial"/>
 <text style="word-spacing:0;letter-spacing:0" font-size="129.23" y="171.11" x="432.08" font-family="&apos;Gentium Book Basic&apos;" line-height="125%">
  <tspan y="171.11" x="432.08"/>
 </text>
 <text style="text-anchor:middle" transform="scale(4.0128.2492)" font-size="46.954" y="337.49" x="304.75" font-family="Arial"/>
 <text style="word-spacing:0;letter-spacing:0" font-size="129.23" y="-10.146" x="-639.5" font-family="&apos;Gentium Book Basic&apos;" line-height="125%">
  <tspan y="-10.146" x="-639.5"/>
 </text>
 <text style="text-anchor:middle" transform="scale(4.0128.2492)" font-size="46.954" y="-389.86" x="37.713" font-family="Arial"/>
 <text style="word-spacing:0;letter-spacing:0" font-size="129.23" y="-226.62" x="458.55" font-family="&apos;Gentium Book Basic&apos;" line-height="125%">
  <tspan y="-226.62" x="458.55"/>
 </text>
 <text style="text-anchor:middle" transform="scale(4.0128.2492)" font-size="46.954" y="-1258.53" x="311.35" font-family="Arial"/>
 <text style="word-spacing:0;letter-spacing:0" font-size="129.23" y="-306.62" x="1039.82" font-family="&apos;Gentium Book Basic&apos;" line-height="125%">
  <tspan y="-306.62" x="1039.82"/>
 </text>
 <text style="text-anchor:middle" transform="scale(4.0128.2492)" font-size="46.954" y="-1579.56" x="456.2" font-family="Arial"/>
 <text style="word-spacing:0;letter-spacing:0" font-size="129.23" y="-779.02" x="650.7" font-family="&apos;Gentium Book Basic&apos;" line-height="125%">
  <tspan y="-779.02" x="650.7"/>
 </text>
 <text style="text-anchor:middle" transform="scale(4.0128.2492)" font-size="46.954" y="-3475.21" x="359.23" font-family="Arial"/>
 <text style="word-spacing:0;letter-spacing:0" font-size="129.23" y="-859.03" x="1231.96" font-family="&apos;Gentium Book Basic&apos;" line-height="125%">
  <tspan y="-859.03" x="1231.96"/>
 </text>
 <text style="text-anchor:middle" transform="scale(4.0128.2492)" font-size="46.954" y="-3796.25" x="504.08" font-family="Arial"/>
 <g style="word-spacing:0;letter-spacing:0" font-family="&apos;Gentium Book Basic&apos;" line-height="125%">
  <text y="555.69" x="-600.84" font-size="208.33">
   <tspan y="555.69" x="-600.84"/>
  </text>
  <text y="66.58" x="1880.38" font-size="129.23">
   <tspan y="66.58" x="1880.38"/>
  </text>
 </g>
 <text style="text-anchor:middle" transform="scale(4.0128.2492)" font-size="46.954" y="-81.998" x="665.67" font-family="Arial"/>
 <text style="word-spacing:0;letter-spacing:0" font-size="129.23" y="-13.423" x="2461.64" font-family="&apos;Gentium Book Basic&apos;" line-height="125%">
  <tspan y="-13.423" x="2461.64"/>
 </text>
 <text style="text-anchor:middle" transform="scale(4.0128.2492)" font-size="46.954" y="-403.03" x="810.52" font-family="Arial"/>
 <text style="word-spacing:0;letter-spacing:0" font-size="129.23" y="-194.68" x="1390.06" font-family="&apos;Gentium Book Basic&apos;" line-height="125%">
  <tspan y="-194.68" x="1390.06"/>
 </text>
 <text style="text-anchor:middle" transform="scale(4.0128.2492)" font-size="46.954" y="-1130.37" x="543.48" font-family="Arial"/>
 <text style="word-spacing:0;letter-spacing:0" font-size="129.23" y="-411.15" x="2488.11" font-family="&apos;Gentium Book Basic&apos;" line-height="125%">
  <tspan y="-411.15" x="2488.11"/>
 </text>
 <text style="text-anchor:middle" transform="scale(4.0128.2492)" font-size="46.954" y="-1999.04" x="817.12" font-family="Arial"/>
 <text style="word-spacing:0;letter-spacing:0" font-size="129.23" y="-491.16" x="3069.39" font-family="&apos;Gentium Book Basic&apos;" line-height="125%">
  <tspan y="-491.16" x="3069.39"/>
 </text>
 <text style="text-anchor:middle" transform="scale(4.0128.2492)" font-size="46.954" y="-2320.08" x="961.97" font-family="Arial"/>
 <text style="word-spacing:0;letter-spacing:0" font-size="129.23" y="-963.56" x="2680.27" font-family="&apos;Gentium Book Basic&apos;" line-height="125%">
  <tspan y="-963.56" x="2680.27"/>
 </text>
 <text style="text-anchor:middle" transform="scale(4.0128.2492)" font-size="46.954" y="-4215.72" x="865" font-family="Arial"/>
 <text style="word-spacing:0;letter-spacing:0" font-size="129.23" y="-1043.56" x="3261.53" font-family="&apos;Gentium Book Basic&apos;" line-height="125%">
  <tspan y="-1043.56" x="3261.53"/>
 </text>
 <text style="text-anchor:middle" transform="scale(4.0128.2492)" font-size="46.954" y="-4536.75" x="1009.84" font-family="Arial"/>
 <g style="word-spacing:0;letter-spacing:0" font-family="&apos;Gentium Book Basic&apos;" line-height="125%">
  <text y="371.16" x="1428.72" font-size="208.33">
   <tspan y="371.16" x="1428.72"/>
  </text>
  <text y="189.75" x="-78.62" font-size="129.23">
   <tspan y="189.75" x="-78.62"/>
  </text>
 </g>
 <text style="text-anchor:middle" transform="scale(4.0128.2492)" font-size="46.954" y="412.29" x="177.49" font-family="Arial"/>
 <text style="word-spacing:0;letter-spacing:0" font-size="129.23" y="109.75" x="502.65" font-family="&apos;Gentium Book Basic&apos;" line-height="125%">
  <tspan y="109.75" x="502.65"/>
 </text>
 <text style="text-anchor:middle" transform="scale(4.0128.2492)" font-size="46.954" y="91.25" x="322.34" font-family="Arial"/>
 <text style="word-spacing:0;letter-spacing:0" font-size="129.23" y="-71.51" x="-568.93" font-family="&apos;Gentium Book Basic&apos;" line-height="125%">
  <tspan y="-71.51" x="-568.93"/>
 </text>
 <text style="text-anchor:middle" transform="scale(4.0128.2492)" font-size="46.954" y="-636.09" x="55.3" font-family="Arial"/>
 <text style="word-spacing:0;letter-spacing:0" font-size="129.23" y="-287.98" x="529.12" font-family="&apos;Gentium Book Basic&apos;" line-height="125%">
  <tspan y="-287.98" x="529.12"/>
 </text>
 <text style="text-anchor:middle" transform="scale(4.0128.2492)" font-size="46.954" y="-1504.77" x="328.94" font-family="Arial"/>
 <text style="word-spacing:0;letter-spacing:0" font-size="129.23" y="-367.98" x="1110.39" font-family="&apos;Gentium Book Basic&apos;" line-height="125%">
  <tspan y="-367.98" x="1110.39"/>
 </text>
 <text style="text-anchor:middle" transform="scale(4.0128.2492)" font-size="46.954" y="-1825.8" x="473.79" font-family="Arial"/>
 <text style="word-spacing:0;letter-spacing:0" font-size="129.23" y="-840.38" x="721.27" font-family="&apos;Gentium Book Basic&apos;" line-height="125%">
  <tspan y="-840.38" x="721.27"/>
 </text>
 <text style="text-anchor:middle" transform="scale(4.0128.2492)" font-size="46.954" y="-3721.45" x="376.82" font-family="Arial"/>
 <text style="word-spacing:0;letter-spacing:0" font-size="129.23" y="-920.39" x="1302.53" font-family="&apos;Gentium Book Basic&apos;" line-height="125%">
  <tspan y="-920.39" x="1302.53"/>
 </text>
 <text style="text-anchor:middle" transform="scale(4.0128.2492)" font-size="46.954" y="-4042.48" x="521.67" font-family="Arial"/>
 <g style="word-spacing:0;letter-spacing:0" font-family="&apos;Gentium Book Basic&apos;" line-height="125%">
  <text y="494.33" x="-530.27" font-size="208.33">
   <tspan y="494.33" x="-530.27"/>
  </text>
  <text y="21.01" x="-250.44" font-size="129.23">
   <tspan y="21.01" x="-250.44"/>
  </text>
 </g>
 <text style="text-anchor:middle" transform="scale(4.0128.2492)" font-size="46.954" y="-264.86" x="134.67" font-family="Arial"/>
 <text style="word-spacing:0;letter-spacing:0" font-size="129.23" y="-58.995" x="330.83" font-family="&apos;Gentium Book Basic&apos;" line-height="125%">
  <tspan y="-58.995" x="330.83"/>
 </text>
 <text style="text-anchor:middle" transform="scale(4.0128.2492)" font-size="46.954" y="-585.9" x="279.52" font-family="Arial"/>
 <text style="word-spacing:0;letter-spacing:0" font-size="129.23" y="-240.25" x="-740.75" font-family="&apos;Gentium Book Basic&apos;" line-height="125%">
  <tspan y="-240.25" x="-740.75"/>
 </text>
 <text style="text-anchor:middle" transform="scale(4.0128.2492)" font-size="46.954" y="-1313.24" x="12.482" font-family="Arial"/>
 <text style="word-spacing:0;letter-spacing:0" font-size="129.23" y="-456.72" x="357.3" font-family="&apos;Gentium Book Basic&apos;" line-height="125%">
  <tspan y="-456.72" x="357.3"/>
 </text>
 <text style="text-anchor:middle" transform="scale(4.0128.2492)" font-size="46.954" y="-2181.92" x="286.12" font-family="Arial"/>
 <text style="word-spacing:0;letter-spacing:0" font-size="129.23" y="-536.72" x="938.57" font-family="&apos;Gentium Book Basic&apos;" line-height="125%">
  <tspan y="-536.72" x="938.57"/>
 </text>
 <text style="text-anchor:middle" transform="scale(4.0128.2492)" font-size="46.954" y="-2502.95" x="430.97" font-family="Arial"/>
 <text style="word-spacing:0;letter-spacing:0" font-size="129.23" y="-1009.12" x="549.45" font-family="&apos;Gentium Book Basic&apos;" line-height="125%">
  <tspan y="-1009.12" x="549.45"/>
 </text>
 <text style="text-anchor:middle" transform="scale(4.0128.2492)" font-size="46.954" y="-4398.6" x="334" font-family="Arial"/>
 <text style="word-spacing:0;letter-spacing:0" font-size="129.23" y="-1089.13" x="1130.71" font-family="&apos;Gentium Book Basic&apos;" line-height="125%">
  <tspan y="-1089.13" x="1130.71"/>
 </text>
 <text style="text-anchor:middle" transform="scale(4.0128.2492)" font-size="46.954" y="-4719.64" x="478.85" font-family="Arial"/>
 <g style="word-spacing:0;letter-spacing:0" font-family="&apos;Gentium Book Basic&apos;" line-height="125%">
  <text y="325.59" x="-702.09" font-size="208.33">
   <tspan y="325.59" x="-702.09"/>
  </text>
  <text y="174.41" x="-391.57" font-size="129.23">
   <tspan y="174.41" x="-391.57"/>
  </text>
 </g>
 <text style="text-anchor:middle" transform="scale(4.0128.2492)" font-size="46.954" y="350.73" x="99.5" font-family="Arial"/>
 <text style="word-spacing:0;letter-spacing:0" font-size="129.23" y="94.41" x="189.7" font-family="&apos;Gentium Book Basic&apos;" line-height="125%">
  <tspan y="94.41" x="189.7"/>
 </text>
 <text style="text-anchor:middle" transform="scale(4.0128.2492)" font-size="46.954" y="29.695" x="244.35" font-family="Arial"/>
 <text style="word-spacing:0;letter-spacing:0" font-size="129.23" y="-86.85" x="-881.88" font-family="&apos;Gentium Book Basic&apos;" line-height="125%">
  <tspan y="-86.85" x="-881.88"/>
 </text>
 <text style="text-anchor:middle" transform="scale(4.0128.2492)" font-size="46.954" y="-697.65" x="-22.689" font-family="Arial"/>
 <text style="word-spacing:0;letter-spacing:0" font-size="129.23" y="-303.32" x="216.17" font-family="&apos;Gentium Book Basic&apos;" line-height="125%">
  <tspan y="-303.32" x="216.17"/>
 </text>
 <text style="text-anchor:middle" transform="scale(4.0128.2492)" font-size="46.954" y="-1566.33" x="250.95" font-family="Arial"/>
 <text style="word-spacing:0;letter-spacing:0" font-size="129.23" y="-383.32" x="797.44" font-family="&apos;Gentium Book Basic&apos;" line-height="125%">
  <tspan y="-383.32" x="797.44"/>
 </text>
 <text style="text-anchor:middle" transform="scale(4.0128.2492)" font-size="46.954" y="-1887.36" x="395.8" font-family="Arial"/>
 <text style="word-spacing:0;letter-spacing:0" font-size="129.23" y="-855.72" x="408.32" font-family="&apos;Gentium Book Basic&apos;" line-height="125%">
  <tspan y="-855.72" x="408.32"/>
 </text>
 <text style="text-anchor:middle" transform="scale(4.0128.2492)" font-size="46.954" y="-3783.01" x="298.83" font-family="Arial"/>
 <text style="word-spacing:0;letter-spacing:0" font-size="129.23" y="-935.73" x="989.58" font-family="&apos;Gentium Book Basic&apos;" line-height="125%">
  <tspan y="-935.73" x="989.58"/>
 </text>
 <text style="text-anchor:middle" transform="scale(4.0128.2492)" font-size="46.954" y="-4104.04" x="443.68" font-family="Arial"/>
 <g style="word-spacing:0;letter-spacing:0" font-family="&apos;Gentium Book Basic&apos;" line-height="125%">
  <text y="478.99" x="-843.22" font-size="208.33">
   <tspan y="478.99" x="-843.22"/>
  </text>
  <text y="397.64" x="-1548.88" font-size="199.47">
   <tspan y="397.64" x="-1548.88"/>
  </text>
 </g>
 <text style="text-anchor:middle" transform="scale(4.0128.2492)" font-size="72.48" y="1056.72" x="-81.78" font-family="Arial"/>
 <text style="word-spacing:0;letter-spacing:0" font-size="208.33" y="197.32" x="-1054.91" font-family="&apos;Gentium Book Basic&apos;" line-height="125%">
  <tspan y="197.32" x="-1054.91"/>
 </text>
 <text style="text-anchor:middle" transform="scale(4.0128.2492)" font-size="75.7" y="228.91" x="54.84" font-family="Arial"/>
 <text style="word-spacing:0;letter-spacing:0" font-size="199.47" y="412.83" x="-1585.76" font-family="&apos;Gentium Book Basic&apos;" line-height="125%">
  <tspan y="412.83" x="-1585.76"/>
 </text>
 <text style="text-anchor:middle" transform="scale(4.0128.2492)" font-size="72.48" y="1117.66" x="-90.97" font-family="Arial"/>
 <text style="word-spacing:0;letter-spacing:0" font-size="208.33" y="212.51" x="-1091.79" font-family="&apos;Gentium Book Basic&apos;" line-height="125%">
  <tspan y="212.51" x="-1091.79"/>
 </text>
 <text style="text-anchor:middle" transform="scale(4.0128.2492)" font-size="75.7" y="289.85" x="45.649" font-family="Arial"/>
 <text style="word-spacing:0;letter-spacing:0" font-size="129.23" y="198.74" x="1541.35" font-family="&apos;Gentium Book Basic&apos;" line-height="125%">
  <tspan y="198.74" x="1541.35"/>
 </text>
 <text style="text-anchor:middle" transform="scale(4.0128.2492)" font-size="46.954" y="448.35" x="581.19" font-family="Arial"/>
 <text style="word-spacing:0;letter-spacing:0" font-size="129.23" y="118.74" x="2122.62" font-family="&apos;Gentium Book Basic&apos;" line-height="125%">
  <tspan y="118.74" x="2122.62"/>
 </text>
 <text style="text-anchor:middle" transform="scale(4.0128.2492)" font-size="46.954" y="127.31" x="726.04" font-family="Arial"/>
 <text style="word-spacing:0;letter-spacing:0" font-size="129.23" y="-62.52" x="1051.04" font-family="&apos;Gentium Book Basic&apos;" line-height="125%">
  <tspan y="-62.52" x="1051.04"/>
 </text>
 <text style="text-anchor:middle" transform="scale(4.0128.2492)" font-size="46.954" y="-600.04" x="459" font-family="Arial"/>
 <text style="word-spacing:0;letter-spacing:0" font-size="129.23" y="-278.99" x="2149.09" font-family="&apos;Gentium Book Basic&apos;" line-height="125%">
  <tspan y="-278.99" x="2149.09"/>
 </text>
 <text style="text-anchor:middle" transform="scale(4.0128.2492)" font-size="46.954" y="-1468.71" x="732.64" font-family="Arial"/>
 <text style="word-spacing:0;letter-spacing:0" font-size="129.23" y="-358.99" x="2730.36" font-family="&apos;Gentium Book Basic&apos;" line-height="125%">
  <tspan y="-358.99" x="2730.36"/>
 </text>
 <text style="text-anchor:middle" transform="scale(4.0128.2492)" font-size="46.954" y="-1789.74" x="877.49" font-family="Arial"/>
 <text style="word-spacing:0;letter-spacing:0" font-size="129.23" y="-831.39" x="2341.24" font-family="&apos;Gentium Book Basic&apos;" line-height="125%">
  <tspan y="-831.39" x="2341.24"/>
 </text>
 <text style="text-anchor:middle" transform="scale(4.0128.2492)" font-size="46.954" y="-3685.39" x="780.52" font-family="Arial"/>
 <text style="word-spacing:0;letter-spacing:0" font-size="129.23" y="-911.4" x="2922.5" font-family="&apos;Gentium Book Basic&apos;" line-height="125%">
  <tspan y="-911.4" x="2922.5"/>
 </text>
 <text style="text-anchor:middle" transform="scale(4.0128.2492)" font-size="46.954" y="-4006.43" x="925.36" font-family="Arial"/>
 <g style="word-spacing:0;letter-spacing:0" font-family="&apos;Gentium Book Basic&apos;" line-height="125%">
  <text y="503.32" x="1089.7" font-size="208.33">
   <tspan y="503.32" x="1089.7"/>
  </text>
  <text y="189.75" x="28.762" font-size="129.23">
   <tspan y="189.75" x="28.762"/>
  </text>
 </g>
 <text style="text-anchor:middle" transform="scale(4.0128.2492)" font-size="46.954" y="412.29" x="204.25" font-family="Arial"/>
 <text style="word-spacing:0;letter-spacing:0" font-size="129.23" y="109.75" x="610.03" font-family="&apos;Gentium Book Basic&apos;" line-height="125%">
  <tspan y="109.75" x="610.03"/>
 </text>
 <text style="text-anchor:middle" transform="scale(4.0128.2492)" font-size="46.954" y="91.25" x="349.1" font-family="Arial"/>
 <text style="word-spacing:0;letter-spacing:0" font-size="129.23" y="-71.51" x="-461.55" font-family="&apos;Gentium Book Basic&apos;" line-height="125%">
  <tspan y="-71.51" x="-461.55"/>
 </text>
 <text style="text-anchor:middle" transform="scale(4.0128.2492)" font-size="46.954" y="-636.09" x="82.06" font-family="Arial"/>
 <text style="word-spacing:0;letter-spacing:0" font-size="129.23" y="-287.98" x="636.5" font-family="&apos;Gentium Book Basic&apos;" line-height="125%">
  <tspan y="-287.98" x="636.5"/>
 </text>
 <text style="text-anchor:middle" transform="scale(4.0128.2492)" font-size="46.954" y="-1504.77" x="355.7" font-family="Arial"/>
 <text style="word-spacing:0;letter-spacing:0" font-size="129.23" y="-367.98" x="1217.77" font-family="&apos;Gentium Book Basic&apos;" line-height="125%">
  <tspan y="-367.98" x="1217.77"/>
 </text>
 <text style="text-anchor:middle" transform="scale(4.0128.2492)" font-size="46.954" y="-1825.8" x="500.55" font-family="Arial"/>
 <text style="word-spacing:0;letter-spacing:0" font-size="129.23" y="-840.38" x="828.65" font-family="&apos;Gentium Book Basic&apos;" line-height="125%">
  <tspan y="-840.38" x="828.65"/>
 </text>
 <text style="text-anchor:middle" transform="scale(4.0128.2492)" font-size="46.954" y="-3721.45" x="403.58" font-family="Arial"/>
 <text style="word-spacing:0;letter-spacing:0" font-size="129.23" y="-920.39" x="1409.91" font-family="&apos;Gentium Book Basic&apos;" line-height="125%">
  <tspan y="-920.39" x="1409.91"/>
 </text>
 <text style="text-anchor:middle" transform="scale(4.0128.2492)" font-size="46.954" y="-4042.48" x="548.43" font-family="Arial"/>
 <text style="word-spacing:0;letter-spacing:0" font-size="208.33" y="494.33" x="-422.89" font-family="&apos;Gentium Book Basic&apos;" line-height="125%">
  <tspan y="494.33" x="-422.89"/>
 </text>
 <path d="m26 0c-14.397 0-26 11.603-26 26v460c0 14.397 11.603 26 26 26h460c14.397 0 26-11.603 26-26v-460c0-14.397-11.603-26-26-26h-460" fill="#e96d63"/>
 <text style="word-spacing:0;letter-spacing:0" font-size="129.23" y="172.88" x="97.79" font-family="&apos;Gentium Book Basic&apos;" line-height="125%">
  <tspan y="172.88" x="97.79"/>
 </text>
 <text style="text-anchor:middle" transform="scale(4.0128.2492)" font-size="46.954" y="344.57" x="221.45" font-family="Arial"/>
 <text style="word-spacing:0;letter-spacing:0" font-size="129.23" y="92.88" x="679.06" font-family="&apos;Gentium Book Basic&apos;" line-height="125%">
  <tspan y="92.88" x="679.06"/>
 </text>
 <text style="text-anchor:middle" transform="scale(4.0128.2492)" font-size="46.954" y="23.538" x="366.3" font-family="Arial"/>
 <text style="word-spacing:0;letter-spacing:0" font-size="129.23" y="-88.38" x="-392.52" font-family="&apos;Gentium Book Basic&apos;" line-height="125%">
  <tspan y="-88.38" x="-392.52"/>
 </text>
 <text style="text-anchor:middle" transform="scale(4.0128.2492)" font-size="46.954" y="-703.82" x="99.26" font-family="Arial"/>
 <text style="word-spacing:0;letter-spacing:0" font-size="129.23" y="-304.85" x="705.53" font-family="&apos;Gentium Book Basic&apos;" line-height="125%">
  <tspan y="-304.85" x="705.53"/>
 </text>
 <text style="text-anchor:middle" transform="scale(4.0128.2492)" font-size="46.954" y="-1572.47" x="372.9" font-family="Arial"/>
 <text style="word-spacing:0;letter-spacing:0" font-size="129.23" y="-384.86" x="1286.8" font-family="&apos;Gentium Book Basic&apos;" line-height="125%">
  <tspan y="-384.86" x="1286.8"/>
 </text>
 <text style="text-anchor:middle" transform="scale(4.0128.2492)" font-size="46.954" y="-1893.51" x="517.75" font-family="Arial"/>
 <text style="word-spacing:0;letter-spacing:0" font-size="129.23" y="-857.26" x="897.68" font-family="&apos;Gentium Book Basic&apos;" line-height="125%">
  <tspan y="-857.26" x="897.68"/>
 </text>
 <text style="text-anchor:middle" transform="scale(4.0128.2492)" font-size="46.954" y="-3789.15" x="420.78" font-family="Arial"/>
 <text style="word-spacing:0;letter-spacing:0" font-size="129.23" y="-937.26" x="1478.94" font-family="&apos;Gentium Book Basic&apos;" line-height="125%">
  <tspan y="-937.26" x="1478.94"/>
 </text>
 <text style="text-anchor:middle" transform="scale(4.0128.2492)" font-size="46.954" y="-4110.18" x="565.63" font-family="Arial"/>
 <text style="word-spacing:0;letter-spacing:0" font-size="208.33" y="477.46" x="-353.86" font-family="&apos;Gentium Book Basic&apos;" line-height="125%">
  <tspan y="477.46" x="-353.86"/>
 </text>
 <path opacity=".25" d="m90.84 71.7c-27.602 0.005-49.836 22.2-49.836 49.805l-0.004-0.004v262.17c0 13.793 5.552 26.24 14.551 35.23l0.211 0.211c-0.069-0.068-0.142-0.132-0.211-0.201l93.09 93.09h337.36c14.397 0 26-11.603 26-26v-248.41l-75.79-75.79c-11.11-11.11-23.915-17.556-33.725-17.773l68.51 68.51v0.008l-68.52-68.52c-0.534-0.012-1.11-0.028-1.654 0-3.232 0.168-6.123 1.105-8.385 2.871l-60.63-60.63c-9.01-9.01-21.484-14.57-35.3-14.57h-205.67"/>
 <path d="m90.85 71.7c-27.607 0-49.847 22.2-49.847 49.804v262.17c0 27.607 22.24 49.804 49.847 49.804h73.22c-0.124-0.609-0.231-1.236-0.297-1.867 5.308-34.24 20.723-66.34 29.1-99.91 50.41-51.866 102.65-102.6 153.49-154.16v-56.04c0-27.607-22.24-49.804-49.847-49.804h-205.67m3.351 44.586c13.757 0 24.902 11.188 24.902 24.945s-11.145 24.902-24.902 24.902-24.902-11.145-24.902-24.902 11.145-24.945 24.902-24.945m66.39 6.279h138.81c10.338 0 18.666 8.328 18.666 18.666s-8.328 18.624-18.666 18.624h-138.81c-10.338 0-18.666-8.285-18.666-18.624 0-10.338 8.328-18.666 18.666-18.666m240.24 21.466c-3.703 0.192-6.959 1.39-9.333 3.691l-0.127 0.127-17.521 17.605-0.382 0.382 0.382 0.382 75 75 0.424 0.339 0.339-0.339 17.351-17.351 0.212-0.255c0.086-0.086 0.116-0.148 0.127-0.17 4.219-4.401 4.678-11.567 2.121-19.557-2.567-8.02-8.166-16.985-16.205-25.03l-17.01-17.05c-11.12-11.12-23.915-17.558-33.726-17.775-0.534-0.012-1.11-0.028-1.654 0m-36.31 30.756l-0.382 0.382-18.539 18.581-0.382 0.382 0.382 0.382 75 75 0.339 0.382 0.424-0.382 18.539-18.581 0.382-0.382-0.382-0.382-75-75-0.382-0.382m-270.32 15.781c13.757 0 24.902 11.145 24.902 24.902s-11.145 24.902-24.902 24.902-24.902-11.145-24.902-24.902 11.145-24.902 24.902-24.902m66.39 6.236h138.81c3.63 0 6.981 1.062 9.842 2.842-11.546 11.505-23.11 22.992-34.659 34.49h-113.99c-10.338 0-18.666-8.328-18.666-18.666s8.328-18.666 18.666-18.666m173.89 8.02l-0.424 0.339-113.14 113.27-14 13.957-3.521 3.521-0.127 0.085v0.127l-28.3 88.58-0.042 0.042c-1.017 4.771 0.526 10.04 3.903 13.236l0.042 0.042c3.131 2.341 7.299 2.947 10.86 1.527h0.042l89.77-28.381 0.085-0.042 0.085-0.085 2.927-2.97 13.533-13.49 113.65-113.61 0.382-0.424-0.382-0.382-75-74.961-0.339-0.382m-240.28 59.986c13.757 0 24.902 11.145 24.902 24.902s-11.145 24.902-24.902 24.902-24.902-11.145-24.902-24.902 11.145-24.902 24.902-24.902m66.39 6.236h76.997c-12.371 12.392-24.711 24.853-36.993 37.33h-40c-10.338 0-18.666-8.328-18.666-18.666s8.328-18.666 18.666-18.666m-66.39 68c13.757 0 24.902 11.145 24.902 24.902s-11.145 24.945-24.902 24.945-24.902-11.188-24.902-24.945 11.145-24.902 24.902-24.902m66.39 6.279h17.351c-3.889 12.511-8.588 24.853-12.812 37.29h-4.539c-10.338 0-18.666-8.328-18.666-18.666s8.328-18.624 18.666-18.624m62.87 3.394h0.084c0.106-0.004 0.191-0.004 0.297 0 0.012 0 0.03-0.001 0.042 0h0.042c0.983 0.012 1.898 0.445 2.588 1.145l6.448 6.406 24.308-1.273c0.011-0.001 0.032 0 0.042 0 0.961-0.043 1.948 0.341 2.673 0.976 0.853 0.753 1.333 1.875 1.273 3.01l-1.23 26.514 4.709 4.751c0.934 0.94 1.323 2.327 0.976 3.606s-1.391 2.291-2.673 2.63l-42.3 11.369h-0.042c-1.27 0.348-2.663-0.014-3.606-0.933h-0.042l-8.23-8.23c-0.962-0.95-1.303-2.347-0.933-3.648l12.387-43.526c0.389-1.474 1.667-2.63 3.182-2.8m122.9 10.945c-19.686 19.66-39.36 39.33-58.968 59.01-13.627 5.765-27.713 10.423-41.914 14.806h51.03c27.607 0 49.847-22.2 49.847-49.804v-24.01" fill="#fff"/>
</svg>
