<?xml version="1.0" encoding="UTF-8" standalone="no"?>
<!-- Created with Inkscape (http://www.inkscape.org/) -->
<svg id="svg2" xmlns:rdf="http://www.w3.org/1999/02/22-rdf-syntax-ns#" xmlns="http://www.w3.org/2000/svg" height="100%" width="100%" version="1.1" xmlns:cc="http://creativecommons.org/ns#" viewBox="0 0 512 512" xmlns:dc="http://purl.org/dc/elements/1.1/">
 <metadata id="metadata60">
  <rdf:RDF>
   <cc:Work rdf:about="">
    <dc:format>image/svg+xml</dc:format>
    <dc:type rdf:resource="http://purl.org/dc/dcmitype/StillImage"/>
   </cc:Work>
  </rdf:RDF>
 </metadata>
 <rect id="rect4" rx="25.988" height="512" width="512" y="0" x="0" fill="#ef6a47"/>
 <path id="path6" d="m326.66 41.38c-5.84 0.073-11.792 0.74-17.469 0.219-19.13 1.714-13.486 23.26-14.344 36.438v52.5c-28.865-28.55-57.35-57.5-86.25-86.03-9.815-5.411-22.481-1.914-33.34-2.906h-0.031c-28.717 6.773-5.738 31.723 7.25 41.813 6.426 7.148 1.596 18.967 3.094 28.16-0.455 30.892 0.917 62.07-0.656 92.78l-87.09 228.31c-5.198 23.411 19.18 36.33 32.16 51.594 9.226 9.256 18.48 18.506 27.719 27.75h328.31c14.397 0 26-11.603 26-26v-272.78c-56.19-56.2-112.35-112.43-168.62-168.56-5.157-2.844-10.878-3.354-16.719-3.281" fill-opacity="0.235"/>
 <text id="text8" style="word-spacing:0;letter-spacing:0" font-size="129.23px" line-height="125%" y="172.88" x="25.694" font-family="Gentium Book Basic">
  <tspan id="tspan10" y="172.88" x="25.694"/>
 </text>
 <text id="text12" style="text-anchor:middle" transform="scale(4.0128 .2492)" font-size="46.954px" y="344.57999" x="203.48" font-family="Arial"/>
 <text id="text14" style="word-spacing:0;letter-spacing:0" font-size="129.23px" line-height="125%" y="92.879997" x="606.96002" font-family="Gentium Book Basic">
  <tspan id="tspan16" y="92.879997" x="606.96002"/>
 </text>
 <text id="text18" style="text-anchor:middle" transform="scale(4.0128 .2492)" font-size="46.954px" y="23.539" x="348.32999" font-family="Arial"/>
 <text id="text20" style="word-spacing:0;letter-spacing:0" font-size="129.23px" line-height="125%" y="-88.379997" x="-464.62" font-family="Gentium Book Basic">
  <tspan id="tspan22" y="-88.379997" x="-464.62"/>
 </text>
 <text id="text24" style="text-anchor:middle" transform="scale(4.0128 .2492)" font-size="46.954px" y="-703.81" x="81.290001" font-family="Arial"/>
 <text id="text26" style="word-spacing:0;letter-spacing:0" font-size="129.23px" line-height="125%" y="-304.85001" x="633.42999" font-family="Gentium Book Basic">
  <tspan id="tspan28" y="-304.85001" x="633.42999"/>
 </text>
 <text id="text30" style="text-anchor:middle" transform="scale(4.0128 .2492)" font-size="46.954px" y="-1572.48" x="354.92999" font-family="Arial"/>
 <text id="text32" style="word-spacing:0;letter-spacing:0" font-size="129.23px" line-height="125%" y="-384.85001" x="1214.7" font-family="Gentium Book Basic">
  <tspan id="tspan34" y="-384.85001" x="1214.7"/>
 </text>
 <text id="text36" style="text-anchor:middle" transform="scale(4.0128 .2492)" font-size="46.954px" y="-1893.51" x="499.78" font-family="Arial"/>
 <text id="text38" style="word-spacing:0;letter-spacing:0" font-size="129.23px" line-height="125%" y="-857.25" x="825.58002" font-family="Gentium Book Basic">
  <tspan id="tspan40" y="-857.25" x="825.58002"/>
 </text>
 <text id="text42" style="text-anchor:middle" transform="scale(4.0128 .2492)" font-size="46.954px" y="-3789.1599" x="402.81" font-family="Arial"/>
 <text id="text44" style="word-spacing:0;letter-spacing:0" font-size="129.23px" line-height="125%" y="-937.26001" x="1406.84" font-family="Gentium Book Basic">
  <tspan id="tspan46" y="-937.26001" x="1406.84"/>
 </text>
 <text id="text48" style="text-anchor:middle" transform="scale(4.0128 .2492)" font-size="46.954px" y="-4110.2002" x="547.65997" font-family="Arial"/>
 <text id="text50" style="word-spacing:0;letter-spacing:0" font-size="208.33px" line-height="125%" y="477.45999" x="-425.95999" font-family="Gentium Book Basic">
  <tspan id="tspan52" y="477.45999" x="-425.95999"/>
 </text>
 <path id="path54" d="m415.15 437.78c0 17.996-14.635 32.636-32.629 32.636h-253.04c-18.01 0-32.64-14.645-32.64-32.636 0-1.745 0.323-3.479 0.944-5.111l87.65-229.69c0.03-0.364 0.082-0.728 0.128-1.087v-131.62h-10.355c-7.927 0-14.342-6.424-14.342-14.347s6.413-14.347 14.342-14.347h24.698c7.927 0 14.353 6.424 14.353 14.347v147.06c0 0.825-0.072 1.642-0.21 2.458 0 1.75-0.42 4.105-1.052 5.731l-52.791 138.35h190.35l-54.54-138.18c-0.589-1.488-0.923-3.061-0.99-4.654l-0.117-0.867c-0.061-0.565-0.093-1.129-0.093-1.694v-148.19c0-7.923 6.413-14.347 14.342-14.347h25.343c7.927 0 14.342 6.424 14.342 14.347s-6.413 14.347-14.342 14.347h-11.01v132.56l90.65 229.67c0.663 1.683 1.01 3.463 1.01 5.27m-186.94-120.21c0-5.932 4.819-10.768 10.753-10.768 5.937 0 10.768 4.823 10.768 10.768 0 5.926-4.828 10.768-10.768 10.768-5.937 0-10.753-4.834-10.753-10.768m7.163 0c0 1.975 1.611 3.582 3.587 3.582 1.975 0 3.587-1.607 3.587-3.582 0-1.981-1.611-3.587-3.587-3.587-1.975 0-3.587 1.607-3.587 3.587m48.42-10.768c0-5.932 4.828-10.768 10.768-10.768 5.937 0 10.753 4.823 10.753 10.768 0 5.926-4.819 10.768-10.753 10.768-5.937 0-10.768-4.828-10.768-10.768m7.173 0c0 1.975 1.611 3.582 3.587 3.582 1.975 0 3.587-1.607 3.587-3.582 0-1.98-1.611-3.587-3.587-3.587-1.975 0-3.587 1.611-3.587 3.587m-37.07-35.863c0-8.241 6.706-14.947 14.953-14.947 8.235 0 14.942 6.706 14.942 14.947 0 8.235-6.706 14.947-14.942 14.947-8.252 0-14.953-6.706-14.953-14.947m7.173 0c0 4.284 3.489 7.774 7.78 7.774 4.28 0 7.78-3.489 7.78-7.774 0-4.29-3.5-7.78-7.78-7.78-4.29 0-7.78 3.489-7.78 7.78" fill="#fff"/>
</svg>
