<?xml version="1.0" encoding="UTF-8" standalone="no"?>
<!-- Created with Inkscape (http://www.inkscape.org/) -->
<svg id="svg2" xmlns:rdf="http://www.w3.org/1999/02/22-rdf-syntax-ns#" xmlns="http://www.w3.org/2000/svg" height="100%" width="100%" version="1.1" xmlns:cc="http://creativecommons.org/ns#" viewBox="0 0 512 512" xmlns:dc="http://purl.org/dc/elements/1.1/">
 <metadata id="metadata60">
  <rdf:RDF>
   <cc:Work rdf:about="">
    <dc:format>image/svg+xml</dc:format>
    <dc:type rdf:resource="http://purl.org/dc/dcmitype/StillImage"/>
   </cc:Work>
  </rdf:RDF>
 </metadata>
 <rect id="rect4" rx="25.988" height="512" width="512" y="0" x="0" fill="#9a3034"/>
 <path id="path6" d="m430.41 55.75c-10.408 0.137-20.988 1.095-31.19 0.313-111.29-0.001-222.58 0.002-333.87 0-24.29-0.279-25.874 26.17-24.344 44.22 0.351 112.18-0.7 224.43 0.531 336.56 8.794 19.18 27.94 31.405 41.719 47.19 9.363 9.313 18.722 18.631 28.06 27.969h374.69c14.397 0 26-11.603 26-26v-374.84c-17.08-16.993-34.21-33.921-51.41-50.781-9.543-4.069-19.779-4.762-30.19-4.625" fill-opacity="0.235"/>
 <text id="text8" style="word-spacing:0;letter-spacing:0" font-size="129.23px" line-height="125%" y="157.53999" x="208.25" font-family="Gentium Book Basic">
  <tspan id="tspan10" y="157.53999" x="208.25"/>
 </text>
 <text id="text12" style="text-anchor:middle" transform="scale(4.0128 .2492)" font-size="46.954px" y="283.01001" x="248.98" font-family="Arial"/>
 <text id="text14" style="word-spacing:0;letter-spacing:0" font-size="129.23px" line-height="125%" y="77.540001" x="789.52002" font-family="Gentium Book Basic">
  <tspan id="tspan16" y="77.540001" x="789.52002"/>
 </text>
 <text id="text18" style="text-anchor:middle" transform="scale(4.0128 .2492)" font-size="46.954px" y="-38.02" x="393.82999" font-family="Arial"/>
 <text id="text20" style="word-spacing:0;letter-spacing:0" font-size="129.23px" line-height="125%" y="-103.72" x="-282.06" font-family="Gentium Book Basic">
  <tspan id="tspan22" y="-103.72" x="-282.06"/>
 </text>
 <text id="text24" style="text-anchor:middle" transform="scale(4.0128 .2492)" font-size="46.954px" y="-765.38" x="126.79" font-family="Arial"/>
 <text id="text26" style="word-spacing:0;letter-spacing:0" font-size="129.23px" line-height="125%" y="-320.19" x="815.98999" font-family="Gentium Book Basic">
  <tspan id="tspan28" y="-320.19" x="815.98999"/>
 </text>
 <text id="text30" style="text-anchor:middle" transform="scale(4.0128 .2492)" font-size="46.954px" y="-1634.04" x="400.42999" font-family="Arial"/>
 <text id="text32" style="word-spacing:0;letter-spacing:0" font-size="129.23px" line-height="125%" y="-400.20001" x="1397.26" font-family="Gentium Book Basic">
  <tspan id="tspan34" y="-400.20001" x="1397.26"/>
 </text>
 <text id="text36" style="text-anchor:middle" transform="scale(4.0128 .2492)" font-size="46.954px" y="-1955.08" x="545.27002" font-family="Arial"/>
 <text id="text38" style="word-spacing:0;letter-spacing:0" font-size="129.23px" line-height="125%" y="-872.59998" x="1008.14" font-family="Gentium Book Basic">
  <tspan id="tspan40" y="-872.59998" x="1008.14"/>
 </text>
 <text id="text42" style="text-anchor:middle" transform="scale(4.0128 .2492)" font-size="46.954px" y="-3850.73" x="448.31" font-family="Arial"/>
 <text id="text44" style="word-spacing:0;letter-spacing:0" font-size="129.23px" line-height="125%" y="-952.59998" x="1589.4" font-family="Gentium Book Basic">
  <tspan id="tspan46" y="-952.59998" x="1589.4"/>
 </text>
 <text id="text48" style="text-anchor:middle" transform="scale(4.0128 .2492)" font-size="46.954px" y="-4171.7598" x="593.15002" font-family="Arial"/>
 <text id="text50" style="word-spacing:0;letter-spacing:0" font-size="208.33px" line-height="125%" y="462.12" x="-243.39999" font-family="Gentium Book Basic">
  <tspan id="tspan52" y="462.12" x="-243.39999"/>
 </text>
 <path id="path54" d="m65.36 56.05c-13.577 0-24.356 10.69-24.356 24.16v351.57c0 13.471 10.776 24.16 24.356 24.16h381.29c13.577 0 24.356-10.69 24.356-24.16v-351.57c0-13.471-10.776-24.16-24.356-24.16h-381.29m190.65 26.66c58.43 0 161.26 0.16 174.68 14.581 13.437 12.24 13.405 96.66 13.437 145.38 0.027 49.43 0 133.46-13.437 147.88s-116.31 12.08-174.68 12.08-161.26 0.159-174.68-12.08c-13.437-14.42-13.469-98.45-13.437-147.88 0.034-48.716 0-133.14 13.437-145.38 13.437-14.419 116.26-14.58 174.68-14.58m134.37 333.25c7.421 0 13.437 5.967 13.437 13.331 0 7.362-6.02 13.329-13.437 13.329-7.421 0-13.437-5.967-13.437-13.329s6.02-13.331 13.437-13.331m40.31 0c7.421 0 13.437 5.967 13.437 13.331 0 7.362-6.02 13.329-13.437 13.329-7.421 0-13.437-5.967-13.437-13.329s6.02-13.331 13.437-13.331" fill="#fff"/>
</svg>
