<?xml version="1.0" encoding="UTF-8" standalone="no"?>
<!-- Created with Inkscape (http://www.inkscape.org/) -->
<svg id="svg2" xmlns:rdf="http://www.w3.org/1999/02/22-rdf-syntax-ns#" xmlns="http://www.w3.org/2000/svg" height="100%" width="100%" version="1.1" xmlns:cc="http://creativecommons.org/ns#" viewBox="0 0 512 512" xmlns:dc="http://purl.org/dc/elements/1.1/">
 <metadata id="metadata70">
  <rdf:RDF>
   <cc:Work rdf:about="">
    <dc:format>image/svg+xml</dc:format>
    <dc:type rdf:resource="http://purl.org/dc/dcmitype/StillImage"/>
   </cc:Work>
  </rdf:RDF>
 </metadata>
 <rect id="rect4" rx="25.988" height="512" width="512" y="0" x="0" fill="#0078ad"/>
 <g id="g6" style="color:#000000">
  <path id="path8" d="m411.84 41c-29.451 18.12-56.831 41.548-86.03 61.25-20.628 40.4-53.14 32.9-86.59 33-28.314 20.45-43.849 63.26-87.28 58.781-22.56 33.02-54.811 42.45-85.938 56.31-11.5 10.353-4.902 9.358-19.844 14.13 21.432 21.432 44.44 43.78 64.13 63.47 6.975 25.373 26.859 49.49 46 68.906 38.451 38.28 76.73 76.75 115.06 115.16h214.66c14.397 0 26-11.603 26-26v-345.81c-32.33-32.33-64.66-64.67-97-97l-3.125-2.188h-0.031" fill-opacity="0.235"/>
  <path id="path10" d="m411.87 41.01c-10.224 0-30.27 23.535-37.707 27.25-7.441 3.72-65.848 45.642-71.43 53.08-5.58 7.439-13.271 10.556-21.329 9.935-8.06-0.619-33.495-0.979-42.17 3.981-8.682 4.961-48.36 45.63-58.28 50.59-9.92 4.959-22.821 7.552-29.02 8.174-6.2 0.619-26.931 23.704-32.512 28.05-3.687 2.868-23.698 11.828-38.953 18.777-27.07 17.948-0.032-0.413-34.39 23.454 31.706 16.844 29.431 15.851 43.28 21.557 14.609 10.364 26.742 17.897 30.03 18.445 5.14 0.858-2.208 16.417-10.148 24.812 19.891 46.33 56.06 82.17 97.37 104.64 30.17 16.16 63.23 26.04 98.07 32.356 26.25 4.653 45.679 6.06 45.1 3.888-0.288-3.069 0.217-49.22 0.562-54.723 0.619-9.921 1.252-22.84 2.491-34 1.241-11.16 5.208-104.91 21.329-129.71 16.12-24.799 62.48-54.45 78.6-57.55s12.913-9.556 12.913-15.13c0-5.579-2.617-17.737-6.958-19.598-4.34-1.86-20.946 9.182-26.526 10.422s-32.498 3.222-36.22-2.977c-3.72-6.201 30.15-69.71 34.481-77.15 4.341-7.441 6.329-16.99-1.732-27.528-8.06-10.543-13.763-21.06-16.864-21.06m-130.98 116.01c1.2-0.008 2.305 0.012 3.251 0.061 2.525 0.133 4.193 0.486 4.193 0.486 2.836 6.612-10.535 27.433-22.821 30.26-12.282 2.834-40.71 44.665-41.66 35.22-0.947-9.449 11.38-40.638 25.554-54.818 9.301-9.302 23.1-11.156 31.479-11.212" fill="#fff"/>
 </g>
 <text id="text12" style="word-spacing:0;letter-spacing:0" font-size="129.23px" line-height="125%" y="179.00999" x="160.69" font-family="Gentium Book Basic">
  <tspan id="tspan14" y="179.00999" x="160.69"/>
 </text>
 <text id="text16" style="text-anchor:middle" transform="scale(4.0128 .2492)" font-size="46.954px" y="369.19" x="237.13" font-family="Arial"/>
 <text id="text18" style="word-spacing:0;letter-spacing:0" font-size="129.23px" line-height="125%" y="99.010002" x="741.96002" font-family="Gentium Book Basic">
  <tspan id="tspan20" y="99.010002" x="741.96002"/>
 </text>
 <text id="text22" style="text-anchor:middle" transform="scale(4.0128 .2492)" font-size="46.954px" y="48.16" x="381.97" font-family="Arial"/>
 <text id="text24" style="word-spacing:0;letter-spacing:0" font-size="129.23px" line-height="125%" y="-82.25" x="-329.62" font-family="Gentium Book Basic">
  <tspan id="tspan26" y="-82.25" x="-329.62"/>
 </text>
 <text id="text28" style="text-anchor:middle" transform="scale(4.0128 .2492)" font-size="46.954px" y="-679.19" x="114.94" font-family="Arial"/>
 <text id="text30" style="word-spacing:0;letter-spacing:0" font-size="129.23px" line-height="125%" y="-298.72" x="768.42999" font-family="Gentium Book Basic">
  <tspan id="tspan32" y="-298.72" x="768.42999"/>
 </text>
 <text id="text34" style="text-anchor:middle" transform="scale(4.0128 .2492)" font-size="46.954px" y="-1547.86" x="388.57001" font-family="Arial"/>
 <text id="text36" style="word-spacing:0;letter-spacing:0" font-size="129.23px" line-height="125%" y="-378.73001" x="1349.7" font-family="Gentium Book Basic">
  <tspan id="tspan38" y="-378.73001" x="1349.7"/>
 </text>
 <text id="text40" style="text-anchor:middle" transform="scale(4.0128 .2492)" font-size="46.954px" y="-1868.9" x="533.41998" font-family="Arial"/>
 <text id="text42" style="word-spacing:0;letter-spacing:0" font-size="129.23px" line-height="125%" y="-851.13" x="960.58002" font-family="Gentium Book Basic">
  <tspan id="tspan44" y="-851.13" x="960.58002"/>
 </text>
 <text id="text46" style="text-anchor:middle" transform="scale(4.0128 .2492)" font-size="46.954px" y="-3764.55" x="436.45001" font-family="Arial"/>
 <text id="text48" style="word-spacing:0;letter-spacing:0" font-size="129.23px" line-height="125%" y="-931.13" x="1541.84" font-family="Gentium Book Basic">
  <tspan id="tspan50" y="-931.13" x="1541.84"/>
 </text>
 <text id="text52" style="text-anchor:middle" transform="scale(4.0128 .2492)" font-size="46.954px" y="-4085.5801" x="581.29999" font-family="Arial"/>
 <g id="g54" style="word-spacing:0;letter-spacing:0" transform="translate(-568.95,-52.35)" font-size="208.33px" font-family="Gentium Book Basic" line-height="125%">
  <text id="text56" y="535.94" x="277.98999">
   <tspan id="tspan58" y="535.94" x="277.98999"/>
  </text>
  <text id="text60" y="483.22" x="-1706.84">
   <tspan id="tspan62" y="483.22" x="-1706.84"/>
  </text>
 </g>
 <text id="text64" style="text-anchor:middle" transform="scale(4.0128 .2492)" font-size="75.7px" y="1166.13" x="-249.39999" font-family="Arial"/>
</svg>
