<?xml version="1.0" encoding="UTF-8" standalone="no"?>
<!-- Created with Inkscape (http://www.inkscape.org/) -->
<svg id="svg2" xmlns:rdf="http://www.w3.org/1999/02/22-rdf-syntax-ns#" xmlns="http://www.w3.org/2000/svg" height="100%" width="100%" version="1.1" xmlns:cc="http://creativecommons.org/ns#" viewBox="0 0 512 512" xmlns:dc="http://purl.org/dc/elements/1.1/">
 <metadata id="metadata68">
  <rdf:RDF>
   <cc:Work rdf:about="">
    <dc:format>image/svg+xml</dc:format>
    <dc:type rdf:resource="http://purl.org/dc/dcmitype/StillImage"/>
   </cc:Work>
  </rdf:RDF>
 </metadata>
 <rect id="rect4" rx="25.988" height="512" width="512" y="0" x="0" fill="#343030"/>
 <path id="path6" fill-opacity="0.235" d="m247.31 76.63c-47.41 0.886-101.19 30.899-102.28 82.25 14.173 15.358 29.49 29.665 44.09 44.625-59.658 21.917-72.02 111.7-21.844 149.84 16.14 16.12 32.29 32.24 48.38 48.41-60.01-5.972-118.29-25.672-170.72-55.03-9.329 7.07 9.801 15.93 14 23.281 47.35 47.18 94.74 94.58 142.13 142h284.94c14.397 0 26-11.603 26-26v-204.5c-61.1-61.07-122.24-122.07-183.5-182.97-20.1-15.945-46.693-21.363-71.813-21.688-3.086-0.202-6.215-0.278-9.375-0.219" fill-rule="evenodd"/>
 <text id="text8" style="word-spacing:0;letter-spacing:0" font-size="129.23px" line-height="125%" y="145.25999" x="60.977001" font-family="Gentium Book Basic">
  <tspan id="tspan10" y="145.25999" x="60.977001"/>
 </text>
 <text id="text12" style="text-anchor:middle" transform="scale(4.0128 .2492)" font-size="46.954px" y="233.75999" x="212.28" font-family="Arial"/>
 <text id="text14" style="word-spacing:0;letter-spacing:0" font-size="129.23px" line-height="125%" y="65.260002" x="642.25" font-family="Gentium Book Basic">
  <tspan id="tspan16" y="65.260002" x="642.25"/>
 </text>
 <text id="text18" style="text-anchor:middle" transform="scale(4.0128 .2492)" font-size="46.954px" y="-87.269997" x="357.13" font-family="Arial"/>
 <text id="text20" style="word-spacing:0;letter-spacing:0" font-size="129.23px" line-height="125%" y="-116" x="-429.32999" font-family="Gentium Book Basic">
  <tspan id="tspan22" y="-116" x="-429.32999"/>
 </text>
 <text id="text24" style="text-anchor:middle" transform="scale(4.0128 .2492)" font-size="46.954px" y="-814.62" x="90.089996" font-family="Arial"/>
 <text id="text26" style="word-spacing:0;letter-spacing:0" font-size="129.23px" line-height="125%" y="-332.47" x="668.71997" font-family="Gentium Book Basic">
  <tspan id="tspan28" y="-332.47" x="668.71997"/>
 </text>
 <text id="text30" style="text-anchor:middle" transform="scale(4.0128 .2492)" font-size="46.954px" y="-1683.29" x="363.73001" font-family="Arial"/>
 <text id="text32" style="word-spacing:0;letter-spacing:0" font-size="129.23px" line-height="125%" y="-412.48001" x="1249.99" font-family="Gentium Book Basic">
  <tspan id="tspan34" y="-412.48001" x="1249.99"/>
 </text>
 <text id="text36" style="text-anchor:middle" transform="scale(4.0128 .2492)" font-size="46.954px" y="-2004.33" x="508.57001" font-family="Arial"/>
 <text id="text38" style="word-spacing:0;letter-spacing:0" font-size="129.23px" line-height="125%" y="-884.88" x="860.87" font-family="Gentium Book Basic">
  <tspan id="tspan40" y="-884.88" x="860.87"/>
 </text>
 <text id="text42" style="text-anchor:middle" transform="scale(4.0128 .2492)" font-size="46.954px" y="-3899.98" x="411.60999" font-family="Arial"/>
 <text id="text44" style="word-spacing:0;letter-spacing:0" font-size="129.23px" line-height="125%" y="-964.88" x="1442.13" font-family="Gentium Book Basic">
  <tspan id="tspan46" y="-964.88" x="1442.13"/>
 </text>
 <text id="text48" style="text-anchor:middle" transform="scale(4.0128 .2492)" font-size="46.954px" y="-4221.0098" x="556.45001" font-family="Arial"/>
 <text id="text50" style="word-spacing:0;letter-spacing:0" font-size="208.33px" line-height="125%" y="449.84" x="-390.67001" font-family="Gentium Book Basic">
  <tspan id="tspan52" y="449.84" x="-390.67001"/>
 </text>
 <g id="g54" fill-rule="evenodd" transform="matrix(1.5372 0 0 1.5372 -137.53 -137.55)">
  <path id="path56" d="m256.44 139.47c-31.02 0-65.67 11.543-72.969 49.906-0.734 4.084 2.213 6.247 4.875 6.844l31.656 3.406c2.937-0.138 5.106-3.03 5.656-5.969 2.707-13.216 13.814-19.594 26.25-19.594 6.7 0 14.32 2.457 18.313 8.469 4.543 6.7 3.906 15.901 3.906 23.656v4.188c-18.907 2.157-43.63 3.542-61.34 11.344-20.421 8.811-34.781 26.865-34.781 53.34 0 33.912 21.402 50.844 48.844 50.844 23.22 0 35.884-5.455 53.781-23.719 5.966 8.581 7.889 12.756 18.719 21.75 2.432 1.285 5.531 1.146 7.688-0.781l0.125 0.063c6.516-5.782 18.315-16.07 24.969-21.625 2.662-2.203 2.236-5.751 0.125-8.688-5.966-8.26-12.313-14.969-12.313-30.25v-50.813c0-21.522 1.534-41.3-14.344-56.12-12.528-12.02-33.28-16.25-49.16-16.25m17.688 97.09v7.03c0 12.711 0.331 23.336-6.094 34.625-5.186 9.178-13.385 14.844-22.563 14.844-12.528 0-19.813-9.568-19.813-23.656 0-27.809 24.881-32.844 48.47-32.844" fill="#fff"/>
  <g id="g58" fill="#ffa319">
   <path id="path60" d="m375.31 309.53c-9.789 0.135-21.353 2.324-30.11 8.484-2.707 1.881-2.234 4.506 0.771 4.139 9.866-1.17 31.836-3.819 35.737 1.183 3.924 5.02-4.353 25.716-8.05 34.94-1.124 2.799 1.281 3.911 3.805 1.8 16.451-13.744 20.678-42.537 17.329-46.69-1.675-2.065-9.699-3.991-19.488-3.857"/>
   <path id="path62" d="m118.69 315.03c-2.4-0.134-3.642 2.598-1.311 4.705 36.505 32.971 84.75 52.809 138.35 52.809 38.23 0 82.62-12.05 113.25-34.631 5.071-3.763 0.738-9.35-4.448-7.147-34.33 14.57-71.66 21.571-105.59 21.571-50.32 0-99.03-13.767-138.42-36.688-0.645-0.379-1.272-0.586-1.825-0.617"/>
  </g>
 </g>
</svg>
