<?xml version="1.0" encoding="UTF-8" standalone="no"?>
<!-- Created with Inkscape (http://www.inkscape.org/) -->
<svg id="svg2" xmlns:rdf="http://www.w3.org/1999/02/22-rdf-syntax-ns#" xmlns="http://www.w3.org/2000/svg" height="100%" width="100%" version="1.1" xmlns:cc="http://creativecommons.org/ns#" viewBox="0 0 512 512" xmlns:dc="http://purl.org/dc/elements/1.1/">
 <metadata id="metadata60">
  <rdf:RDF>
   <cc:Work rdf:about="">
    <dc:format>image/svg+xml</dc:format>
    <dc:type rdf:resource="http://purl.org/dc/dcmitype/StillImage"/>
   </cc:Work>
  </rdf:RDF>
 </metadata>
 <rect id="rect4" rx="25.988" height="512" width="512" y="0" x="0" fill="#cd0f0f"/>
 <path id="path6" d="m309 40.844c-89.34-0.048-178.67 0.545-268 0.156 41.31 41.34 82.63 82.66 123.97 123.97l-123.97 122.44v183.59c13.844 13.652 27.68 27.323 41.5 41h403.5c14.397 0 26-11.603 26-26v-402.5c-14.04-13.873-28.09-27.711-42.19-41.531-53.6-0.822-107.21-1.096-160.81-1.125m-142.56 125.63c2.891 1.291-3.133 2.374 0 0m2.281 2.281c2.922 1.329-3.175 2.398 0 0m2.281 2.281c3.281 1.247-3.525 2.541 0 0m2.281 2.281c2.796 1.316-2.977 2.366 0 0m2.281 2.281c3.279 1.256-3.526 2.532 0 0m2.313 2.313c3.189 1.325-3.519 2.472 0 0m2.281 2.281c3.279 1.256-3.526 2.532 0 0m2.281 2.281c2.694 1.176-2.553 2.39 0 0m2.281 2.281c3.279 1.256-3.526 2.532 0 0m2.313 2.313c3.16 1.292-3.438 2.484 0 0m2.281 2.281c3.049 1.134-2.72 2.439 0 0m2.281 2.281c3.16 1.292-3.438 2.484 0 0m2.281 2.281c3.279 1.256-3.526 2.532 0 0m2.313 2.313c3.183 1.262-3.451 2.455 0 0m2.281 2.281c3.279 1.256-3.526 2.532 0 0m2.281 2.281c3.205 1.192-3.209 2.49 0 0m2.281 2.281c3.279 1.256-3.526 2.532 0 0m2.313 2.313c3.157 1.207-3.393 2.438 0 0m2.281 2.281c3.279 1.256-3.526 2.532 0 0m2.281 2.281c3.279 1.256-3.526 2.532 0 0m2.281 2.281c2.996 1.326-3.272 2.421 0 0m2.281 2.281c3.279 1.256-3.526 2.532 0 0m2.313 2.313c3.16 1.292-3.438 2.484 0 0m2.281 2.281c3.205 1.192-3.209 2.49 0 0m2.281 2.281c2.841 1.084-2.528 2.457 0 0m2.281 2.281c3.279 1.256-3.526 2.532 0 0m2.313 2.313c3.189 1.325-3.519 2.472 0 0m2.281 2.281c3.279 1.256-3.526 2.532 0 0m2.281 2.281c3.16 1.292-3.438 2.484 0 0m2.281 2.281c3.279 1.256-3.526 2.532 0 0m2.313 2.313c3.183 1.262-3.451 2.455 0 0m2.281 2.281c2.922 1.329-3.175 2.398 0 0m2.281 2.281c3.281 1.247-3.525 2.541 0 0m2.281 2.281c2.796 1.316-2.977 2.366 0 0m2.281 2.281c3.279 1.256-3.526 2.532 0 0m2.313 2.313c3.189 1.325-3.519 2.472 0 0m2.281 2.281c3.279 1.256-3.526 2.532 0 0m2.281 2.281c2.922 1.329-3.175 2.398 0 0m2.281 2.281c3.279 1.256-3.526 2.532 0 0m2.313 2.313c3.16 1.292-3.438 2.484 0 0m2.281 2.281c3.049 1.134-2.72 2.439 0 0m2.281 2.281c2.841 1.084-2.528 2.457 0 0m2.281 2.281c3.279 1.256-3.526 2.532 0 0m2.313 2.313c3.183 1.262-3.451 2.455 0 0m2.281 2.281c3.279 1.256-3.526 2.532 0 0m2.281 2.281c3.205 1.192-3.209 2.49 0 0m2.281 2.281c3.279 1.256-3.526 2.532 0 0m2.313 2.313c2.583 1.158-2.419 2.273 0 0m2.281 2.281c3.279 1.256-3.526 2.532 0 0m2.281 2.281c3.279 1.256-3.526 2.532 0 0m2.281 2.281c2.996 1.326-3.272 2.421 0 0m2.281 2.281c3.279 1.256-3.526 2.532 0 0m2.313 2.313c3.16 1.292-3.438 2.484 0 0m2.281 2.281c3.279 1.256-3.526 2.532 0 0m2.281 2.281c2.841 1.084-2.528 2.457 0 0m2.281 2.281c3.279 1.256-3.526 2.532 0 0m2.313 2.313c3.189 1.325-3.519 2.472 0 0m2.281 2.281c3.279 1.256-3.526 2.532 0 0m2.281 2.281c3.158 1.293-3.428 2.479 0 0m2.281 2.281c3.279 1.256-3.526 2.532 0 0m2.313 2.313c3.183 1.262-3.451 2.455 0 0m2.281 2.281c3.279 1.256-3.526 2.532 0 0m2.281 2.281c3.205 1.192-3.209 2.49 0 0m2.281 2.281c3.279 1.256-3.526 2.532 0 0m2.281 2.281c3.279 1.256-3.526 2.532 0 0m2.313 2.313c3.279 1.256-3.526 2.532 0 0m2.281 2.281c3.279 1.256-3.526 2.532 0 0m2.281 2.281c2.996 1.326-3.272 2.421 0 0m2.281 2.281c3.279 1.256-3.526 2.532 0 0m2.313 2.313c3.16 1.292-3.438 2.484 0 0m2.281 2.281c3.205 1.192-3.209 2.49 0 0m2.281 2.281c2.841 1.084-2.528 2.457 0 0m2.281 2.281c3.279 1.256-3.526 2.532 0 0m2.313 2.313c3.183 1.262-3.451 2.455 0 0m2.281 2.281c3.279 1.256-3.526 2.532 0 0m2.281 2.281c3.279 1.256-3.526 2.532 0 0m2.281 2.281c3.279 1.256-3.526 2.532 0 0m2.313 2.313c2.891 1.291-3.133 2.374 0 0" fill-opacity="0.235"/>
 <text id="text8" style="word-spacing:0;letter-spacing:0" font-size="129.23px" line-height="125%" y="197.42" x="97.790001" font-family="Gentium Book Basic">
  <tspan id="tspan10" y="197.42" x="97.790001"/>
 </text>
 <text id="text12" style="text-anchor:middle" transform="scale(4.0128 .2492)" font-size="46.954px" y="443.06" x="221.45" font-family="Arial"/>
 <text id="text14" style="word-spacing:0;letter-spacing:0" font-size="129.23px" line-height="125%" y="117.42" x="679.06" font-family="Gentium Book Basic">
  <tspan id="tspan16" y="117.42" x="679.06"/>
 </text>
 <text id="text18" style="text-anchor:middle" transform="scale(4.0128 .2492)" font-size="46.954px" y="122.03" x="366.29999" font-family="Arial"/>
 <text id="text20" style="word-spacing:0;letter-spacing:0" font-size="129.23px" line-height="125%" y="-63.839001" x="-392.51999" font-family="Gentium Book Basic">
  <tspan id="tspan22" y="-63.839001" x="-392.51999"/>
 </text>
 <text id="text24" style="text-anchor:middle" transform="scale(4.0128 .2492)" font-size="46.954px" y="-605.32001" x="99.260002" font-family="Arial"/>
 <text id="text26" style="word-spacing:0;letter-spacing:0" font-size="129.23px" line-height="125%" y="-280.31" x="705.53003" font-family="Gentium Book Basic">
  <tspan id="tspan28" y="-280.31" x="705.53003"/>
 </text>
 <text id="text30" style="text-anchor:middle" transform="scale(4.0128 .2492)" font-size="46.954px" y="-1473.99" x="372.89999" font-family="Arial"/>
 <text id="text32" style="word-spacing:0;letter-spacing:0" font-size="129.23px" line-height="125%" y="-360.32001" x="1286.8" font-family="Gentium Book Basic">
  <tspan id="tspan34" y="-360.32001" x="1286.8"/>
 </text>
 <text id="text36" style="text-anchor:middle" transform="scale(4.0128 .2492)" font-size="46.954px" y="-1795.03" x="517.75" font-family="Arial"/>
 <text id="text38" style="word-spacing:0;letter-spacing:0" font-size="129.23px" line-height="125%" y="-832.71997" x="897.67999" font-family="Gentium Book Basic">
  <tspan id="tspan40" y="-832.71997" x="897.67999"/>
 </text>
 <text id="text42" style="text-anchor:middle" transform="scale(4.0128 .2492)" font-size="46.954px" y="-3690.6799" x="420.78" font-family="Arial"/>
 <text id="text44" style="word-spacing:0;letter-spacing:0" font-size="129.23px" line-height="125%" y="-912.71997" x="1478.9399" font-family="Gentium Book Basic">
  <tspan id="tspan46" y="-912.71997" x="1478.9399"/>
 </text>
 <text id="text48" style="text-anchor:middle" transform="scale(4.0128 .2492)" font-size="46.954px" y="-4011.71" x="565.63" font-family="Arial"/>
 <text id="text50" style="word-spacing:0;letter-spacing:0" font-size="208.33px" line-height="125%" y="502" x="-353.85999" font-family="Gentium Book Basic">
  <tspan id="tspan52" y="502" x="-353.85999"/>
 </text>
 <path id="path54" d="m41 41 123.98 123.98-123.98 122.42v183.61h181.32l123.76-124.93 124.93 123.72v-428.79h-430m125.42 125.42h179.17v179.08l-179.17 0.09v-179.17" fill="#fff"/>
</svg>
