<?xml version="1.0" encoding="UTF-8" standalone="no"?>
<!-- Created with Inkscape (http://www.inkscape.org/) -->
<svg id="svg2" xmlns:rdf="http://www.w3.org/1999/02/22-rdf-syntax-ns#" xmlns="http://www.w3.org/2000/svg" height="100%" width="100%" version="1.1" xmlns:cc="http://creativecommons.org/ns#" viewBox="0 0 512 512" xmlns:dc="http://purl.org/dc/elements/1.1/">
 <metadata id="metadata60">
  <rdf:RDF>
   <cc:Work rdf:about="">
    <dc:format>image/svg+xml</dc:format>
    <dc:type rdf:resource="http://purl.org/dc/dcmitype/StillImage"/>
   </cc:Work>
  </rdf:RDF>
 </metadata>
 <rect id="rect4" rx="25.988" height="512" width="512" y="0" x="0" fill="#924565"/>
 <path id="path6" style="color:#000000" d="m267.63 41c-28.769 0.376-77.25 6.944-47.28 19.719 3.374 6.755 15.48 14.285 18.844 21.06 29.615 20.674-12.365-2.728-34.16 0.219-4.921-3.958-8.701-7.814-11.5-11.5-12.963-16.854-21.12-1.182-7.469 5.719 10.457 8.607 3.326 11.01 11.438 20.5 21.22 13.495-8.649 11.889-13.344 1.969-4.897-4.467-9.629-8.744-14.03-14.344-8.188-4.707-12.596-21.691-27.469-5.281-85 55.16-110.79 164.95-99.47 260.31 9.877 23.58 15.12 22.624 22 31.938 4.697 5.929 12.699 4.244 15.313 25.19 38.24 38.53 76.54 77.03 114.91 115.5h290.59c14.397 0 26-11.603 26-26v-275.72c-39.09-40.37-77.992-80.934-118.41-119.94-36.572-27.07-60.05-42.36-110.47-49.12l-10.03-0.22c-1.714-0.03-3.551-0.025-5.469 0" fill-opacity="0.235"/>
 <text id="text8" style="word-spacing:0;letter-spacing:0" font-size="129.23px" line-height="125%" y="264.92001" x="137.67999" font-family="Gentium Book Basic">
  <tspan id="tspan10" y="264.92001" x="137.67999"/>
 </text>
 <text id="text12" style="text-anchor:middle" transform="scale(4.0128 .2492)" font-size="46.954px" y="713.91998" x="231.39" font-family="Arial"/>
 <text id="text14" style="word-spacing:0;letter-spacing:0" font-size="129.23px" line-height="125%" y="184.92" x="718.95001" font-family="Gentium Book Basic">
  <tspan id="tspan16" y="184.92" x="718.95001"/>
 </text>
 <text id="text18" style="text-anchor:middle" transform="scale(4.0128 .2492)" font-size="46.954px" y="392.89001" x="376.23999" font-family="Arial"/>
 <text id="text20" style="word-spacing:0;letter-spacing:0" font-size="129.23px" line-height="125%" y="3.6600001" x="-352.63" font-family="Gentium Book Basic">
  <tspan id="tspan22" y="3.6600001" x="-352.63"/>
 </text>
 <text id="text24" style="text-anchor:middle" transform="scale(4.0128 .2492)" font-size="46.954px" y="-334.45999" x="109.2" font-family="Arial"/>
 <text id="text26" style="word-spacing:0;letter-spacing:0" font-size="129.23px" line-height="125%" y="-212.81" x="745.41998" font-family="Gentium Book Basic">
  <tspan id="tspan28" y="-212.81" x="745.41998"/>
 </text>
 <text id="text30" style="text-anchor:middle" transform="scale(4.0128 .2492)" font-size="46.954px" y="-1203.13" x="382.84" font-family="Arial"/>
 <text id="text32" style="word-spacing:0;letter-spacing:0" font-size="129.23px" line-height="125%" y="-292.82001" x="1326.6899" font-family="Gentium Book Basic">
  <tspan id="tspan34" y="-292.82001" x="1326.6899"/>
 </text>
 <text id="text36" style="text-anchor:middle" transform="scale(4.0128 .2492)" font-size="46.954px" y="-1524.17" x="527.69" font-family="Arial"/>
 <text id="text38" style="word-spacing:0;letter-spacing:0" font-size="129.23px" line-height="125%" y="-765.21997" x="937.57001" font-family="Gentium Book Basic">
  <tspan id="tspan40" y="-765.21997" x="937.57001"/>
 </text>
 <text id="text42" style="text-anchor:middle" transform="scale(4.0128 .2492)" font-size="46.954px" y="-3419.8201" x="430.72" font-family="Arial"/>
 <text id="text44" style="word-spacing:0;letter-spacing:0" font-size="129.23px" line-height="125%" y="-845.21997" x="1518.83" font-family="Gentium Book Basic">
  <tspan id="tspan46" y="-845.21997" x="1518.83"/>
 </text>
 <text id="text48" style="text-anchor:middle" transform="scale(4.0128 .2492)" font-size="46.954px" y="-3740.8501" x="575.57001" font-family="Arial"/>
 <text id="text50" style="word-spacing:0;letter-spacing:0" font-size="208.33px" line-height="125%" y="569.5" x="-313.97" font-family="Gentium Book Basic">
  <tspan id="tspan52" y="569.5" x="-313.97"/>
 </text>
 <path id="path54" style="color:#000000" d="m266.4 41.07c-20.18 0.462-40.03 3.415-59.25 8.67 4.719 2.097 9.372 4.331 14.203 6.306 11.405-4.25 28.724-8.677 52.35-8.276 24.05 0.409 62.22 11.238 84.41 18.13a223.39 216.93 0 0 0 -63.71 -24.039c-0.414-0.04-0.807 0.041-1.216 0-8.938-0.713-17.883-0.993-26.785-0.789m-15.429 15.368c-9.3 0.438-16.712 1.079-23.14 1.97 3.293 1.306 6.433 2.678 9.74 3.94 0.423 0 0.794-0.002 1.216 0 30.415 0.137 66.05 6.965 107.54 21.674-26.14-6.497-52.55-10.35-77.923-10.246 33.17 12.09 63.52 23.323 79.54 37.437l-1.624 16.16s70.77 30.522 116.87 70.54a223.39 216.93 0 0 0 -101.05 -129.66c-47.538-11.06-84.9-13.06-111.2-11.823m-73.05 3.547c0.371 4.526 0.917 8.551 2.03 12.224 3.646-1.358 7.481-2.855 11.363-3.94-4.45-2.48-9.01-5.03-13.392-8.276m-21.503 10.64c-74.77 42.1-126.9 130.01-113.22 268.37 0.012 0.134-0.012 0.262 0 0.394a223.39 216.93 0 0 0 10.551 20.492c-5.3-63.01-3.168-107.77 19.07-173.4 0 0-18.374 85.05 7.707 210.04 0.029 0.133-0.029 0.259 0 0.391a223.39 216.93 0 0 0 15.015 14.975c-28.325-115.31-29.996-277 65.745-331.03-1.755-3.048-3.454-6.483-4.87-10.246m60.47 9.459c-9.248 2.417-17.923 5.897-26.379 9.853 12.426 12.526 30.659 14.435 39.36 13.796 0 0-30.598 10.332-53.978-6.306-66.883 41.647-97.76 143.85-34.901 347.19a223.39 216.93 0 0 0 0.40478 0 223.39 216.93 0 0 0 106.32 26.403 223.39 216.93 0 0 0 221.98 -240.39c-8.238 12.401-18.669 32.06-23.943 59.51 0 0-107.25-69.03-191.95-16.16 0 0-116.43-56.71-43.828-136.36 0 0 22.396 11.724 34.495 16.94-59.823 42.43 13.392 93.4 13.392 93.4s59.55-57.27 172.48 6.7c0 0 8.178-26.05 18.261-31.92-56.46-52.872-133.92-79.21-133.92-79.21l1.624-23.25c-47.523-22.879-76.82-31.69-99.43-40.2m51.54 39.801s22.647 7.093 34.09 7.093c0 0 0.789 16.326-15.414 20.493-12.395-3.704-18.667-27.592-18.667-27.592" fill="#fff"/>
</svg>
