<?xml version="1.0" encoding="UTF-8" standalone="no"?>
<!-- Created with Inkscape (http://www.inkscape.org/) -->
<svg id="svg2" xmlns:rdf="http://www.w3.org/1999/02/22-rdf-syntax-ns#" xmlns="http://www.w3.org/2000/svg" height="100%" width="100%" version="1.1" xmlns:cc="http://creativecommons.org/ns#" viewBox="0 0 512 512" xmlns:dc="http://purl.org/dc/elements/1.1/">
 <metadata id="metadata60">
  <rdf:RDF>
   <cc:Work rdf:about="">
    <dc:format>image/svg+xml</dc:format>
    <dc:type rdf:resource="http://purl.org/dc/dcmitype/StillImage"/>
   </cc:Work>
  </rdf:RDF>
 </metadata>
 <rect id="rect4" rx="25.988" height="512" width="512" y="0" x="0" fill="#6788cc"/>
 <path id="path6" d="m235.19 41c-33.886 18.904-29.78 67.902-42.531 101.06-4.054 52.16-63.07 49.06-100.97 59.06-42.852-0.899-67.11 38.688-25.25 62.5 29.23 29.23 58.48 58.47 87.69 87.69 2.156 40.836-25.769 93.86 10.09 125.78 11.661 11.627 23.316 23.269 34.969 34.906h286.81c14.397 0 26-11.603 26-26v-275.87l-43.875-43.875c-32.699-26.846-83.7 8.931-114.09-14.313-36.856-35.88-71.885-73.847-109.94-108.34l-4.469-2-4.438-0.594" fill-opacity="0.235"/>
 <text id="text8" style="word-spacing:0;letter-spacing:0" font-size="129.23px" line-height="125%" y="189.75" x="123.87" font-family="Gentium Book Basic">
  <tspan id="tspan10" y="189.75" x="123.87"/>
 </text>
 <text id="text12" style="text-anchor:middle" transform="scale(4.0128 .2492)" font-size="46.954px" y="412.28" x="227.95" font-family="Arial"/>
 <text id="text14" style="word-spacing:0;letter-spacing:0" font-size="129.23px" line-height="125%" y="109.75" x="705.14001" font-family="Gentium Book Basic">
  <tspan id="tspan16" y="109.75" x="705.14001"/>
 </text>
 <text id="text18" style="text-anchor:middle" transform="scale(4.0128 .2492)" font-size="46.954px" y="91.25" x="372.79999" font-family="Arial"/>
 <text id="text20" style="word-spacing:0;letter-spacing:0" font-size="129.23px" line-height="125%" y="-71.510002" x="-366.44" font-family="Gentium Book Basic">
  <tspan id="tspan22" y="-71.510002" x="-366.44"/>
 </text>
 <text id="text24" style="text-anchor:middle" transform="scale(4.0128 .2492)" font-size="46.954px" y="-636.09998" x="105.76" font-family="Arial"/>
 <text id="text26" style="word-spacing:0;letter-spacing:0" font-size="129.23px" line-height="125%" y="-287.98001" x="731.60999" font-family="Gentium Book Basic">
  <tspan id="tspan28" y="-287.98001" x="731.60999"/>
 </text>
 <text id="text30" style="text-anchor:middle" transform="scale(4.0128 .2492)" font-size="46.954px" y="-1504.77" x="379.39999" font-family="Arial"/>
 <text id="text32" style="word-spacing:0;letter-spacing:0" font-size="129.23px" line-height="125%" y="-367.98999" x="1312.88" font-family="Gentium Book Basic">
  <tspan id="tspan34" y="-367.98999" x="1312.88"/>
 </text>
 <text id="text36" style="text-anchor:middle" transform="scale(4.0128 .2492)" font-size="46.954px" y="-1825.8101" x="524.25" font-family="Arial"/>
 <text id="text38" style="word-spacing:0;letter-spacing:0" font-size="129.23px" line-height="125%" y="-840.39001" x="923.76001" font-family="Gentium Book Basic">
  <tspan id="tspan40" y="-840.39001" x="923.76001"/>
 </text>
 <text id="text42" style="text-anchor:middle" transform="scale(4.0128 .2492)" font-size="46.954px" y="-3721.46" x="427.28" font-family="Arial"/>
 <text id="text44" style="word-spacing:0;letter-spacing:0" font-size="129.23px" line-height="125%" y="-920.39001" x="1505.02" font-family="Gentium Book Basic">
  <tspan id="tspan46" y="-920.39001" x="1505.02"/>
 </text>
 <text id="text48" style="text-anchor:middle" transform="scale(4.0128 .2492)" font-size="46.954px" y="-4042.49" x="572.13" font-family="Arial"/>
 <text id="text50" style="word-spacing:0;letter-spacing:0" font-size="208.33px" line-height="125%" y="494.32999" x="-327.78" font-family="Gentium Book Basic">
  <tspan id="tspan52" y="494.32999" x="-327.78"/>
 </text>
 <path id="path54" d="m233.75 41.14c-30.363 4.182-34.33 114.35-56.45 135.65-22.12 21.305-130.66 20.326-136.09 50.616-5.422 30.28 96.53 68.46 109.87 96.17 13.342 27.707-20.962 131.24 6.05 145.77 27.01 14.539 94.63-71.74 125-75.926 30.363-4.182 118 60.79 140.12 39.48 22.12-21.305-38.688-112.45-33.26-142.73 5.422-30.28 93.99-93.78 80.64-121.49-13.343-27.707-118.15 2.391-145.16-12.148s-60.36-119.59-90.73-115.41" fill="#fff"/>
</svg>
