<?xml version="1.0" encoding="UTF-8" standalone="no"?>
<!-- Created with Inkscape (http://www.inkscape.org/) -->
<svg id="svg2" xmlns:rdf="http://www.w3.org/1999/02/22-rdf-syntax-ns#" xmlns="http://www.w3.org/2000/svg" height="100%" width="100%" version="1.1" xmlns:cc="http://creativecommons.org/ns#" viewBox="0 0 512 512" xmlns:dc="http://purl.org/dc/elements/1.1/">
 <metadata id="metadata10">
  <rdf:RDF>
   <cc:Work rdf:about="">
    <dc:format>image/svg+xml</dc:format>
    <dc:type rdf:resource="http://purl.org/dc/dcmitype/StillImage"/>
    <dc:title/>
   </cc:Work>
  </rdf:RDF>
 </metadata>
 <defs id="defs8">
  <clipPath id="clipPath3249">
   <path id="path3251" fill="#009cce" d="m26 0c-14.397 0-26 11.603-26 26v460c0 14.397 11.603 26 26 26h460c14.397 0 26-11.603 26-26v-460c0-14.397-11.6-26-26-26h-460z"/>
  </clipPath>
 </defs>
 <path id="rect2986" fill="#009cce" d="m26 0c-14.397 0-26 11.603-26 26v460c0 14.397 11.603 26 26 26h460c14.397 0 26-11.603 26-26v-460c0-14.397-11.6-26-26-26h-460z"/>
 <text id="text20" style="word-spacing:0;letter-spacing:0" font-size="129.23px" line-height="125%" y="185.17551" x="49.582005" font-family="Gentium Book Basic">
  <tspan id="tspan22" y="185.17551" x="49.582005"/>
 </text>
 <text id="text24" style="text-anchor:middle" transform="scale(4.0128 .24920)" font-size="46.954px" y="393.92813" x="209.43672" font-family="Arial"/>
 <text id="text26" style="word-spacing:0;letter-spacing:0" font-size="129.23px" line-height="125%" y="105.1755" x="630.85205" font-family="Gentium Book Basic">
  <tspan id="tspan28" y="105.1755" x="630.85205"/>
 </text>
 <text id="text30" style="text-anchor:middle" transform="scale(4.0128 .24920)" font-size="46.954px" y="72.889977" x="354.28601" font-family="Arial"/>
 <text id="text32" style="word-spacing:0;letter-spacing:0" font-size="129.23px" line-height="125%" y="-76.08448" x="-440.728" font-family="Gentium Book Basic">
  <tspan id="tspan34" y="-76.08448" x="-440.728"/>
 </text>
 <text id="text36" style="text-anchor:middle" transform="scale(4.0128 .24920)" font-size="46.954px" y="-654.45642" x="87.24736" font-family="Arial"/>
 <text id="text38" style="word-spacing:0;letter-spacing:0" font-size="129.23px" line-height="125%" y="-292.55447" x="657.32202" font-family="Gentium Book Basic">
  <tspan id="tspan40" y="-292.55447" x="657.32202"/>
 </text>
 <text id="text42" style="text-anchor:middle" transform="scale(4.0128 .24920)" font-size="46.954px" y="-1523.132" x="360.88599" font-family="Arial"/>
 <text id="text44" style="word-spacing:0;letter-spacing:0" font-size="129.23px" line-height="125%" y="-372.55447" x="1238.592" font-family="Gentium Book Basic">
  <tspan id="tspan46" y="-372.55447" x="1238.592"/>
 </text>
 <text id="text48" style="text-anchor:middle" transform="scale(4.0128 .24920)" font-size="46.954px" y="-1844.1603" x="505.73523" font-family="Arial"/>
 <text id="text50" style="word-spacing:0;letter-spacing:0" font-size="129.23px" line-height="125%" y="-844.95447" x="849.47205" font-family="Gentium Book Basic">
  <tspan id="tspan52" y="-844.95447" x="849.47205"/>
 </text>
 <text id="text54" style="text-anchor:middle" transform="scale(4.0128 .24920)" font-size="46.954px" y="-3739.8108" x="408.76569" font-family="Arial"/>
 <text id="text56" style="word-spacing:0;letter-spacing:0" font-size="129.23px" line-height="125%" y="-924.96448" x="1430.7321" font-family="Gentium Book Basic">
  <tspan id="tspan58" y="-924.96448" x="1430.7321"/>
 </text>
 <text id="text60" style="text-anchor:middle" transform="scale(4.0128 .24920)" font-size="46.954px" y="-4060.8491" x="553.61499" font-family="Arial"/>
 <text id="text62" style="word-spacing:0;letter-spacing:0" font-size="208.33px" line-height="125%" y="489.75558" x="-402.06802" font-family="Gentium Book Basic">
  <tspan id="tspan64" y="489.75558" x="-402.06802"/>
 </text>
 <g id="g3161" opacity=".25" clip-path="url(#clipPath3249)">
  <path id="path3163" d="m384.1 41-169.14 292.98 388.91 388.91 169.14-292.98z"/>
  <path id="path3165" d="m214.96 333.98-123.82-71.46 388.91 388.91 123.82 71.46z"/>
  <path id="path3167" d="m91.143 262.52-50.144 86.872 388.91 388.91 50.144-86.872z"/>
  <path id="path3169" d="m40.999 349.39 210.64 121.61 388.91 388.91-210.64-121.61z"/>
  <path id="path3171" d="m251.64 471 0.0278-0.0278 388.91 388.91-0.0278 0.0278z"/>
  <path id="path3173" d="m251.66 470.97 0.0278 0.0278 388.91 388.91-0.0278-0.0278z"/>
  <path id="path3175" d="m251.69 471 219.31-379.83 388.91 388.91-219.31 379.83z"/>
  <path id="path3177" d="m471 91.171-86.9-50.171l388.91 388.91 86.9 50.171z"/>
 </g>
 <path id="rect4131" fill="#fff" d="m384.1 41-169.14 292.98-123.82-71.46-50.141 86.87 210.64 121.61 0.02-0.03 0.03 0.03 219.31-379.83-86.9-50.17z"/>
</svg>
