<svg xmlns="http://www.w3.org/2000/svg" xmlns:svg="http://www.w3.org/2000/svg" id="svg2" width="100%" height="100%" version="1.1" viewBox="0 0 512 512"><metadata id="metadata10"/><g id="g3491" transform="translate(387.60563,-340.73239)"><path id="rect2986" d="m -361.60613,340.73239 c -14.397,0 -26,11.603 -26,26 l 0,460 c 0,14.397 11.603,26 26,26 l 459.999996,0 c 14.397004,0 26.000004,-11.603 26.000004,-26 l 0,-460 c 0,-14.397 -11.6,-26 -26.000004,-26 l -459.999996,0 z" style="fill:#db1623"/><path style="color:#000;fill-opacity:.23528999" id="path8557" d="m -346.98113,545.17239 0,266.59 41.406,40.97 403.969996,0 c 14.397004,0 26.000004,-11.603 26.000004,-26 l 0,-66 -204.810004,-215.56 -266.559996,0 z m 33.469,77.469 199.59,0 0,0.0312 -199.56,0 0,155.59 -0.0312,0 0,-155.62 z"/><path style="color:#000;fill:#fff" id="rect8448" d="m -346.99813,545.17239 0,266.58 266.579996,0 0,-266.58 -266.579996,0 z m 33.513,77.498 199.55,0 0,155.57 -199.55,0 0,-155.57 z"/></g></svg>