<?xml version="1.0" encoding="UTF-8" standalone="no"?>
<svg xmlns="http://www.w3.org/2000/svg" viewBox="0 0 512 512">
 <defs>
  <linearGradient id="0" y2="-13.594" gradientUnits="userSpaceOnUse" x2="514.29" y1="259.78" x1="261.65">
   <stop offset="0"/>
   <stop stop-color="#fff" offset="1"/>
  </linearGradient>
  <linearGradient id="1" y2="543.43" gradientUnits="userSpaceOnUse" x2="9.56" y1="263.67" x1="268.09">
   <stop stop-color="#fff" offset="0"/>
   <stop offset="1"/>
  </linearGradient>
 </defs>
 <g transform="translate(-242.25 455.59)">
  <text style="word-spacing:0;letter-spacing:0" font-size="129.23" y="91.57" x="-732.13" font-family="&apos;Gentium Book Basic&apos;" line-height="125%">
   <tspan y="91.57" x="-732.13"/>
  </text>
  <text style="text-anchor:middle" transform="scale(4.0128.2492)" font-size="46.954" y="18.314" x="14.632" font-family="Arial"/>
  <text style="word-spacing:0;letter-spacing:0" font-size="129.23" y="11.572" x="-150.86" font-family="&apos;Gentium Book Basic&apos;" line-height="125%">
   <tspan y="11.572" x="-150.86"/>
  </text>
  <text style="text-anchor:middle" transform="scale(4.0128.2492)" font-size="46.954" y="-302.72" x="159.48" font-family="Arial"/>
  <text style="word-spacing:0;letter-spacing:0" font-size="129.23" y="-169.69" x="-1222.44" font-family="&apos;Gentium Book Basic&apos;" line-height="125%">
   <tspan y="-169.69" x="-1222.44"/>
  </text>
  <text style="text-anchor:middle" transform="scale(4.0128.2492)" font-size="46.954" y="-1030.07" x="-107.56" font-family="Arial"/>
  <text style="word-spacing:0;letter-spacing:0" font-size="129.23" y="-386.16" x="-124.39" font-family="&apos;Gentium Book Basic&apos;" line-height="125%">
   <tspan y="-386.16" x="-124.39"/>
  </text>
  <text style="text-anchor:middle" transform="scale(4.0128.2492)" font-size="46.954" y="-1898.75" x="166.08" font-family="Arial"/>
  <text style="word-spacing:0;letter-spacing:0" font-size="129.23" y="-466.16" x="456.88" font-family="&apos;Gentium Book Basic&apos;" line-height="125%">
   <tspan y="-466.16" x="456.88"/>
  </text>
  <text style="text-anchor:middle" transform="scale(4.0128.2492)" font-size="46.954" y="-2219.77" x="310.93" font-family="Arial"/>
  <text style="word-spacing:0;letter-spacing:0" font-size="129.23" y="-938.56" x="67.757" font-family="&apos;Gentium Book Basic&apos;" line-height="125%">
   <tspan y="-938.56" x="67.757"/>
  </text>
  <text style="text-anchor:middle" transform="scale(4.0128.2492)" font-size="46.954" y="-4115.42" x="213.96" font-family="Arial"/>
  <text style="word-spacing:0;letter-spacing:0" font-size="129.23" y="-1018.57" x="649.02" font-family="&apos;Gentium Book Basic&apos;" line-height="125%">
   <tspan y="-1018.57" x="649.02"/>
  </text>
  <text style="text-anchor:middle" transform="scale(4.0128.2492)" font-size="46.954" y="-4436.46" x="358.81" font-family="Arial"/>
  <g style="word-spacing:0;letter-spacing:0" font-family="&apos;Gentium Book Basic&apos;" line-height="125%">
   <text y="396.15" x="-1183.78" font-size="208.33">
    <tspan y="396.15" x="-1183.78"/>
   </text>
   <text y="251.11" x="-149.19" font-size="129.23">
    <tspan y="251.11" x="-149.19"/>
   </text>
  </g>
  <text style="text-anchor:middle" transform="scale(4.0128.2492)" font-size="46.954" y="658.53" x="159.9" font-family="Arial"/>
  <text style="word-spacing:0;letter-spacing:0" font-size="129.23" y="171.11" x="432.08" font-family="&apos;Gentium Book Basic&apos;" line-height="125%">
   <tspan y="171.11" x="432.08"/>
  </text>
  <text style="text-anchor:middle" transform="scale(4.0128.2492)" font-size="46.954" y="337.49" x="304.75" font-family="Arial"/>
  <text style="word-spacing:0;letter-spacing:0" font-size="129.23" y="-10.146" x="-639.5" font-family="&apos;Gentium Book Basic&apos;" line-height="125%">
   <tspan y="-10.146" x="-639.5"/>
  </text>
  <text style="text-anchor:middle" transform="scale(4.0128.2492)" font-size="46.954" y="-389.86" x="37.713" font-family="Arial"/>
  <text style="word-spacing:0;letter-spacing:0" font-size="129.23" y="-226.62" x="458.55" font-family="&apos;Gentium Book Basic&apos;" line-height="125%">
   <tspan y="-226.62" x="458.55"/>
  </text>
  <text style="text-anchor:middle" transform="scale(4.0128.2492)" font-size="46.954" y="-1258.53" x="311.35" font-family="Arial"/>
  <text style="word-spacing:0;letter-spacing:0" font-size="129.23" y="-306.62" x="1039.82" font-family="&apos;Gentium Book Basic&apos;" line-height="125%">
   <tspan y="-306.62" x="1039.82"/>
  </text>
  <text style="text-anchor:middle" transform="scale(4.0128.2492)" font-size="46.954" y="-1579.56" x="456.2" font-family="Arial"/>
  <text style="word-spacing:0;letter-spacing:0" font-size="129.23" y="-779.02" x="650.7" font-family="&apos;Gentium Book Basic&apos;" line-height="125%">
   <tspan y="-779.02" x="650.7"/>
  </text>
  <text style="text-anchor:middle" transform="scale(4.0128.2492)" font-size="46.954" y="-3475.21" x="359.23" font-family="Arial"/>
  <text style="word-spacing:0;letter-spacing:0" font-size="129.23" y="-859.03" x="1231.96" font-family="&apos;Gentium Book Basic&apos;" line-height="125%">
   <tspan y="-859.03" x="1231.96"/>
  </text>
  <text style="text-anchor:middle" transform="scale(4.0128.2492)" font-size="46.954" y="-3796.25" x="504.08" font-family="Arial"/>
  <g style="word-spacing:0;letter-spacing:0" font-family="&apos;Gentium Book Basic&apos;" line-height="125%">
   <text y="555.69" x="-600.84" font-size="208.33">
    <tspan y="555.69" x="-600.84"/>
   </text>
   <text y="66.58" x="1880.38" font-size="129.23">
    <tspan y="66.58" x="1880.38"/>
   </text>
  </g>
  <text style="text-anchor:middle" transform="scale(4.0128.2492)" font-size="46.954" y="-81.998" x="665.67" font-family="Arial"/>
  <text style="word-spacing:0;letter-spacing:0" font-size="129.23" y="-13.423" x="2461.64" font-family="&apos;Gentium Book Basic&apos;" line-height="125%">
   <tspan y="-13.423" x="2461.64"/>
  </text>
  <text style="text-anchor:middle" transform="scale(4.0128.2492)" font-size="46.954" y="-403.03" x="810.52" font-family="Arial"/>
  <text style="word-spacing:0;letter-spacing:0" font-size="129.23" y="-194.68" x="1390.06" font-family="&apos;Gentium Book Basic&apos;" line-height="125%">
   <tspan y="-194.68" x="1390.06"/>
  </text>
  <text style="text-anchor:middle" transform="scale(4.0128.2492)" font-size="46.954" y="-1130.37" x="543.48" font-family="Arial"/>
  <text style="word-spacing:0;letter-spacing:0" font-size="129.23" y="-411.15" x="2488.11" font-family="&apos;Gentium Book Basic&apos;" line-height="125%">
   <tspan y="-411.15" x="2488.11"/>
  </text>
  <text style="text-anchor:middle" transform="scale(4.0128.2492)" font-size="46.954" y="-1999.04" x="817.12" font-family="Arial"/>
  <text style="word-spacing:0;letter-spacing:0" font-size="129.23" y="-491.16" x="3069.39" font-family="&apos;Gentium Book Basic&apos;" line-height="125%">
   <tspan y="-491.16" x="3069.39"/>
  </text>
  <text style="text-anchor:middle" transform="scale(4.0128.2492)" font-size="46.954" y="-2320.08" x="961.97" font-family="Arial"/>
  <text style="word-spacing:0;letter-spacing:0" font-size="129.23" y="-963.56" x="2680.27" font-family="&apos;Gentium Book Basic&apos;" line-height="125%">
   <tspan y="-963.56" x="2680.27"/>
  </text>
  <text style="text-anchor:middle" transform="scale(4.0128.2492)" font-size="46.954" y="-4215.72" x="865" font-family="Arial"/>
  <text style="word-spacing:0;letter-spacing:0" font-size="129.23" y="-1043.56" x="3261.53" font-family="&apos;Gentium Book Basic&apos;" line-height="125%">
   <tspan y="-1043.56" x="3261.53"/>
  </text>
  <text style="text-anchor:middle" transform="scale(4.0128.2492)" font-size="46.954" y="-4536.75" x="1009.84" font-family="Arial"/>
  <g style="word-spacing:0;letter-spacing:0" font-family="&apos;Gentium Book Basic&apos;" line-height="125%">
   <text y="371.16" x="1428.72" font-size="208.33">
    <tspan y="371.16" x="1428.72"/>
   </text>
   <text y="189.75" x="-78.62" font-size="129.23">
    <tspan y="189.75" x="-78.62"/>
   </text>
  </g>
  <text style="text-anchor:middle" transform="scale(4.0128.2492)" font-size="46.954" y="412.29" x="177.49" font-family="Arial"/>
  <text style="word-spacing:0;letter-spacing:0" font-size="129.23" y="109.75" x="502.65" font-family="&apos;Gentium Book Basic&apos;" line-height="125%">
   <tspan y="109.75" x="502.65"/>
  </text>
  <text style="text-anchor:middle" transform="scale(4.0128.2492)" font-size="46.954" y="91.25" x="322.34" font-family="Arial"/>
  <text style="word-spacing:0;letter-spacing:0" font-size="129.23" y="-71.51" x="-568.93" font-family="&apos;Gentium Book Basic&apos;" line-height="125%">
   <tspan y="-71.51" x="-568.93"/>
  </text>
  <text style="text-anchor:middle" transform="scale(4.0128.2492)" font-size="46.954" y="-636.09" x="55.3" font-family="Arial"/>
  <text style="word-spacing:0;letter-spacing:0" font-size="129.23" y="-287.98" x="529.12" font-family="&apos;Gentium Book Basic&apos;" line-height="125%">
   <tspan y="-287.98" x="529.12"/>
  </text>
  <text style="text-anchor:middle" transform="scale(4.0128.2492)" font-size="46.954" y="-1504.77" x="328.94" font-family="Arial"/>
  <text style="word-spacing:0;letter-spacing:0" font-size="129.23" y="-367.98" x="1110.39" font-family="&apos;Gentium Book Basic&apos;" line-height="125%">
   <tspan y="-367.98" x="1110.39"/>
  </text>
  <text style="text-anchor:middle" transform="scale(4.0128.2492)" font-size="46.954" y="-1825.8" x="473.79" font-family="Arial"/>
  <text style="word-spacing:0;letter-spacing:0" font-size="129.23" y="-840.38" x="721.27" font-family="&apos;Gentium Book Basic&apos;" line-height="125%">
   <tspan y="-840.38" x="721.27"/>
  </text>
  <text style="text-anchor:middle" transform="scale(4.0128.2492)" font-size="46.954" y="-3721.45" x="376.82" font-family="Arial"/>
  <text style="word-spacing:0;letter-spacing:0" font-size="129.23" y="-920.39" x="1302.53" font-family="&apos;Gentium Book Basic&apos;" line-height="125%">
   <tspan y="-920.39" x="1302.53"/>
  </text>
  <text style="text-anchor:middle" transform="scale(4.0128.2492)" font-size="46.954" y="-4042.48" x="521.67" font-family="Arial"/>
  <g style="word-spacing:0;letter-spacing:0" font-family="&apos;Gentium Book Basic&apos;" line-height="125%">
   <text y="494.33" x="-530.27" font-size="208.33">
    <tspan y="494.33" x="-530.27"/>
   </text>
   <text y="21.01" x="-250.44" font-size="129.23">
    <tspan y="21.01" x="-250.44"/>
   </text>
  </g>
  <text style="text-anchor:middle" transform="scale(4.0128.2492)" font-size="46.954" y="-264.86" x="134.67" font-family="Arial"/>
  <text style="word-spacing:0;letter-spacing:0" font-size="129.23" y="-58.995" x="330.83" font-family="&apos;Gentium Book Basic&apos;" line-height="125%">
   <tspan y="-58.995" x="330.83"/>
  </text>
  <text style="text-anchor:middle" transform="scale(4.0128.2492)" font-size="46.954" y="-585.9" x="279.52" font-family="Arial"/>
  <text style="word-spacing:0;letter-spacing:0" font-size="129.23" y="-240.25" x="-740.75" font-family="&apos;Gentium Book Basic&apos;" line-height="125%">
   <tspan y="-240.25" x="-740.75"/>
  </text>
  <text style="text-anchor:middle" transform="scale(4.0128.2492)" font-size="46.954" y="-1313.24" x="12.482" font-family="Arial"/>
  <text style="word-spacing:0;letter-spacing:0" font-size="129.23" y="-456.72" x="357.3" font-family="&apos;Gentium Book Basic&apos;" line-height="125%">
   <tspan y="-456.72" x="357.3"/>
  </text>
  <text style="text-anchor:middle" transform="scale(4.0128.2492)" font-size="46.954" y="-2181.92" x="286.12" font-family="Arial"/>
  <text style="word-spacing:0;letter-spacing:0" font-size="129.23" y="-536.72" x="938.57" font-family="&apos;Gentium Book Basic&apos;" line-height="125%">
   <tspan y="-536.72" x="938.57"/>
  </text>
  <text style="text-anchor:middle" transform="scale(4.0128.2492)" font-size="46.954" y="-2502.95" x="430.97" font-family="Arial"/>
  <text style="word-spacing:0;letter-spacing:0" font-size="129.23" y="-1009.12" x="549.45" font-family="&apos;Gentium Book Basic&apos;" line-height="125%">
   <tspan y="-1009.12" x="549.45"/>
  </text>
  <text style="text-anchor:middle" transform="scale(4.0128.2492)" font-size="46.954" y="-4398.6" x="334" font-family="Arial"/>
  <text style="word-spacing:0;letter-spacing:0" font-size="129.23" y="-1089.13" x="1130.71" font-family="&apos;Gentium Book Basic&apos;" line-height="125%">
   <tspan y="-1089.13" x="1130.71"/>
  </text>
  <text style="text-anchor:middle" transform="scale(4.0128.2492)" font-size="46.954" y="-4719.64" x="478.85" font-family="Arial"/>
  <g style="word-spacing:0;letter-spacing:0" font-family="&apos;Gentium Book Basic&apos;" line-height="125%">
   <text y="325.59" x="-702.09" font-size="208.33">
    <tspan y="325.59" x="-702.09"/>
   </text>
   <text y="174.41" x="-391.57" font-size="129.23">
    <tspan y="174.41" x="-391.57"/>
   </text>
  </g>
  <text style="text-anchor:middle" transform="scale(4.0128.2492)" font-size="46.954" y="350.73" x="99.5" font-family="Arial"/>
  <text style="word-spacing:0;letter-spacing:0" font-size="129.23" y="94.41" x="189.7" font-family="&apos;Gentium Book Basic&apos;" line-height="125%">
   <tspan y="94.41" x="189.7"/>
  </text>
  <text style="text-anchor:middle" transform="scale(4.0128.2492)" font-size="46.954" y="29.695" x="244.35" font-family="Arial"/>
  <text style="word-spacing:0;letter-spacing:0" font-size="129.23" y="-86.85" x="-881.88" font-family="&apos;Gentium Book Basic&apos;" line-height="125%">
   <tspan y="-86.85" x="-881.88"/>
  </text>
  <text style="text-anchor:middle" transform="scale(4.0128.2492)" font-size="46.954" y="-697.65" x="-22.689" font-family="Arial"/>
  <text style="word-spacing:0;letter-spacing:0" font-size="129.23" y="-303.32" x="216.17" font-family="&apos;Gentium Book Basic&apos;" line-height="125%">
   <tspan y="-303.32" x="216.17"/>
  </text>
  <text style="text-anchor:middle" transform="scale(4.0128.2492)" font-size="46.954" y="-1566.33" x="250.95" font-family="Arial"/>
  <text style="word-spacing:0;letter-spacing:0" font-size="129.23" y="-383.32" x="797.44" font-family="&apos;Gentium Book Basic&apos;" line-height="125%">
   <tspan y="-383.32" x="797.44"/>
  </text>
  <text style="text-anchor:middle" transform="scale(4.0128.2492)" font-size="46.954" y="-1887.36" x="395.8" font-family="Arial"/>
  <text style="word-spacing:0;letter-spacing:0" font-size="129.23" y="-855.72" x="408.32" font-family="&apos;Gentium Book Basic&apos;" line-height="125%">
   <tspan y="-855.72" x="408.32"/>
  </text>
  <text style="text-anchor:middle" transform="scale(4.0128.2492)" font-size="46.954" y="-3783.01" x="298.83" font-family="Arial"/>
  <text style="word-spacing:0;letter-spacing:0" font-size="129.23" y="-935.73" x="989.58" font-family="&apos;Gentium Book Basic&apos;" line-height="125%">
   <tspan y="-935.73" x="989.58"/>
  </text>
  <text style="text-anchor:middle" transform="scale(4.0128.2492)" font-size="46.954" y="-4104.04" x="443.68" font-family="Arial"/>
  <g style="word-spacing:0;letter-spacing:0" font-family="&apos;Gentium Book Basic&apos;" line-height="125%">
   <text y="478.99" x="-843.22" font-size="208.33">
    <tspan y="478.99" x="-843.22"/>
   </text>
   <text y="397.64" x="-1548.88" font-size="199.47">
    <tspan y="397.64" x="-1548.88"/>
   </text>
  </g>
  <text style="text-anchor:middle" transform="scale(4.0128.2492)" font-size="72.48" y="1056.72" x="-81.78" font-family="Arial"/>
  <text style="word-spacing:0;letter-spacing:0" font-size="208.33" y="197.32" x="-1054.91" font-family="&apos;Gentium Book Basic&apos;" line-height="125%">
   <tspan y="197.32" x="-1054.91"/>
  </text>
  <text style="text-anchor:middle" transform="scale(4.0128.2492)" font-size="75.7" y="228.91" x="54.84" font-family="Arial"/>
  <text style="word-spacing:0;letter-spacing:0" font-size="199.47" y="412.83" x="-1585.76" font-family="&apos;Gentium Book Basic&apos;" line-height="125%">
   <tspan y="412.83" x="-1585.76"/>
  </text>
  <text style="text-anchor:middle" transform="scale(4.0128.2492)" font-size="72.48" y="1117.66" x="-90.97" font-family="Arial"/>
  <text style="word-spacing:0;letter-spacing:0" font-size="208.33" y="212.51" x="-1091.79" font-family="&apos;Gentium Book Basic&apos;" line-height="125%">
   <tspan y="212.51" x="-1091.79"/>
  </text>
  <text style="text-anchor:middle" transform="scale(4.0128.2492)" font-size="75.7" y="289.85" x="45.649" font-family="Arial"/>
  <text style="word-spacing:0;letter-spacing:0" font-size="129.23" y="198.74" x="1541.35" font-family="&apos;Gentium Book Basic&apos;" line-height="125%">
   <tspan y="198.74" x="1541.35"/>
  </text>
  <text style="text-anchor:middle" transform="scale(4.0128.2492)" font-size="46.954" y="448.35" x="581.19" font-family="Arial"/>
  <text style="word-spacing:0;letter-spacing:0" font-size="129.23" y="118.74" x="2122.62" font-family="&apos;Gentium Book Basic&apos;" line-height="125%">
   <tspan y="118.74" x="2122.62"/>
  </text>
  <text style="text-anchor:middle" transform="scale(4.0128.2492)" font-size="46.954" y="127.31" x="726.04" font-family="Arial"/>
  <text style="word-spacing:0;letter-spacing:0" font-size="129.23" y="-62.52" x="1051.04" font-family="&apos;Gentium Book Basic&apos;" line-height="125%">
   <tspan y="-62.52" x="1051.04"/>
  </text>
  <text style="text-anchor:middle" transform="scale(4.0128.2492)" font-size="46.954" y="-600.04" x="459" font-family="Arial"/>
  <text style="word-spacing:0;letter-spacing:0" font-size="129.23" y="-278.99" x="2149.09" font-family="&apos;Gentium Book Basic&apos;" line-height="125%">
   <tspan y="-278.99" x="2149.09"/>
  </text>
  <text style="text-anchor:middle" transform="scale(4.0128.2492)" font-size="46.954" y="-1468.71" x="732.64" font-family="Arial"/>
  <text style="word-spacing:0;letter-spacing:0" font-size="129.23" y="-358.99" x="2730.36" font-family="&apos;Gentium Book Basic&apos;" line-height="125%">
   <tspan y="-358.99" x="2730.36"/>
  </text>
  <text style="text-anchor:middle" transform="scale(4.0128.2492)" font-size="46.954" y="-1789.74" x="877.49" font-family="Arial"/>
  <text style="word-spacing:0;letter-spacing:0" font-size="129.23" y="-831.39" x="2341.24" font-family="&apos;Gentium Book Basic&apos;" line-height="125%">
   <tspan y="-831.39" x="2341.24"/>
  </text>
  <text style="text-anchor:middle" transform="scale(4.0128.2492)" font-size="46.954" y="-3685.39" x="780.52" font-family="Arial"/>
  <text style="word-spacing:0;letter-spacing:0" font-size="129.23" y="-911.4" x="2922.5" font-family="&apos;Gentium Book Basic&apos;" line-height="125%">
   <tspan y="-911.4" x="2922.5"/>
  </text>
  <text style="text-anchor:middle" transform="scale(4.0128.2492)" font-size="46.954" y="-4006.43" x="925.36" font-family="Arial"/>
  <g style="word-spacing:0;letter-spacing:0" font-family="&apos;Gentium Book Basic&apos;" line-height="125%">
   <text y="503.32" x="1089.7" font-size="208.33">
    <tspan y="503.32" x="1089.7"/>
   </text>
   <text y="189.75" x="28.762" font-size="129.23">
    <tspan y="189.75" x="28.762"/>
   </text>
  </g>
  <text style="text-anchor:middle" transform="scale(4.0128.2492)" font-size="46.954" y="412.29" x="204.25" font-family="Arial"/>
  <text style="word-spacing:0;letter-spacing:0" font-size="129.23" y="109.75" x="610.03" font-family="&apos;Gentium Book Basic&apos;" line-height="125%">
   <tspan y="109.75" x="610.03"/>
  </text>
  <text style="text-anchor:middle" transform="scale(4.0128.2492)" font-size="46.954" y="91.25" x="349.1" font-family="Arial"/>
  <text style="word-spacing:0;letter-spacing:0" font-size="129.23" y="-71.51" x="-461.55" font-family="&apos;Gentium Book Basic&apos;" line-height="125%">
   <tspan y="-71.51" x="-461.55"/>
  </text>
  <text style="text-anchor:middle" transform="scale(4.0128.2492)" font-size="46.954" y="-636.09" x="82.06" font-family="Arial"/>
  <text style="word-spacing:0;letter-spacing:0" font-size="129.23" y="-287.98" x="636.5" font-family="&apos;Gentium Book Basic&apos;" line-height="125%">
   <tspan y="-287.98" x="636.5"/>
  </text>
  <text style="text-anchor:middle" transform="scale(4.0128.2492)" font-size="46.954" y="-1504.77" x="355.7" font-family="Arial"/>
  <text style="word-spacing:0;letter-spacing:0" font-size="129.23" y="-367.98" x="1217.77" font-family="&apos;Gentium Book Basic&apos;" line-height="125%">
   <tspan y="-367.98" x="1217.77"/>
  </text>
  <text style="text-anchor:middle" transform="scale(4.0128.2492)" font-size="46.954" y="-1825.8" x="500.55" font-family="Arial"/>
  <text style="word-spacing:0;letter-spacing:0" font-size="129.23" y="-840.38" x="828.65" font-family="&apos;Gentium Book Basic&apos;" line-height="125%">
   <tspan y="-840.38" x="828.65"/>
  </text>
  <text style="text-anchor:middle" transform="scale(4.0128.2492)" font-size="46.954" y="-3721.45" x="403.58" font-family="Arial"/>
  <text style="word-spacing:0;letter-spacing:0" font-size="129.23" y="-920.39" x="1409.91" font-family="&apos;Gentium Book Basic&apos;" line-height="125%">
   <tspan y="-920.39" x="1409.91"/>
  </text>
  <text style="text-anchor:middle" transform="scale(4.0128.2492)" font-size="46.954" y="-4042.48" x="548.43" font-family="Arial"/>
  <g style="word-spacing:0;letter-spacing:0" font-family="&apos;Gentium Book Basic&apos;" line-height="125%">
   <text y="494.33" x="-422.89" font-size="208.33">
    <tspan y="494.33" x="-422.89"/>
   </text>
   <text y="172.88" x="97.79" font-size="129.23">
    <tspan y="172.88" x="97.79"/>
   </text>
  </g>
  <text style="text-anchor:middle" transform="scale(4.0128.2492)" font-size="46.954" y="344.57" x="221.45" font-family="Arial"/>
  <text style="word-spacing:0;letter-spacing:0" font-size="129.23" y="92.88" x="679.06" font-family="&apos;Gentium Book Basic&apos;" line-height="125%">
   <tspan y="92.88" x="679.06"/>
  </text>
  <text style="text-anchor:middle" transform="scale(4.0128.2492)" font-size="46.954" y="23.538" x="366.3" font-family="Arial"/>
  <text style="word-spacing:0;letter-spacing:0" font-size="129.23" y="-88.38" x="-392.52" font-family="&apos;Gentium Book Basic&apos;" line-height="125%">
   <tspan y="-88.38" x="-392.52"/>
  </text>
  <text style="text-anchor:middle" transform="scale(4.0128.2492)" font-size="46.954" y="-703.82" x="99.26" font-family="Arial"/>
  <text style="word-spacing:0;letter-spacing:0" font-size="129.23" y="-304.85" x="705.53" font-family="&apos;Gentium Book Basic&apos;" line-height="125%">
   <tspan y="-304.85" x="705.53"/>
  </text>
  <text style="text-anchor:middle" transform="scale(4.0128.2492)" font-size="46.954" y="-1572.47" x="372.9" font-family="Arial"/>
  <text style="word-spacing:0;letter-spacing:0" font-size="129.23" y="-384.86" x="1286.8" font-family="&apos;Gentium Book Basic&apos;" line-height="125%">
   <tspan y="-384.86" x="1286.8"/>
  </text>
  <text style="text-anchor:middle" transform="scale(4.0128.2492)" font-size="46.954" y="-1893.51" x="517.75" font-family="Arial"/>
  <text style="word-spacing:0;letter-spacing:0" font-size="129.23" y="-857.26" x="897.68" font-family="&apos;Gentium Book Basic&apos;" line-height="125%">
   <tspan y="-857.26" x="897.68"/>
  </text>
  <text style="text-anchor:middle" transform="scale(4.0128.2492)" font-size="46.954" y="-3789.15" x="420.78" font-family="Arial"/>
  <text style="word-spacing:0;letter-spacing:0" font-size="129.23" y="-937.26" x="1478.94" font-family="&apos;Gentium Book Basic&apos;" line-height="125%">
   <tspan y="-937.26" x="1478.94"/>
  </text>
  <text style="text-anchor:middle" transform="scale(4.0128.2492)" font-size="46.954" y="-4110.18" x="565.63" font-family="Arial"/>
  <g style="word-spacing:0;letter-spacing:0" font-family="&apos;Gentium Book Basic&apos;" line-height="125%">
   <text y="477.46" x="-353.86" font-size="208.33">
    <tspan y="477.46" x="-353.86"/>
   </text>
   <text y="106.91" x="-477.48" font-size="129.23">
    <tspan y="106.91" x="-477.48"/>
   </text>
  </g>
  <text style="text-anchor:middle" transform="scale(4.0128.2492)" font-size="46.954" y="79.873" x="78.09" font-family="Arial"/>
  <text style="word-spacing:0;letter-spacing:0" font-size="129.23" y="26.913" x="103.79" font-family="&apos;Gentium Book Basic&apos;" line-height="125%">
   <tspan y="26.913" x="103.79"/>
  </text>
  <text style="text-anchor:middle" transform="scale(4.0128.2492)" font-size="46.954" y="-241.17" x="222.94" font-family="Arial"/>
  <text style="word-spacing:0;letter-spacing:0" font-size="129.23" y="-154.35" x="-967.79" font-family="&apos;Gentium Book Basic&apos;" line-height="125%">
   <tspan y="-154.35" x="-967.79"/>
  </text>
  <text style="text-anchor:middle" transform="scale(4.0128.2492)" font-size="46.954" y="-968.51" x="-44.1" font-family="Arial"/>
  <text style="word-spacing:0;letter-spacing:0" font-size="129.23" y="-370.82" x="130.26" font-family="&apos;Gentium Book Basic&apos;" line-height="125%">
   <tspan y="-370.82" x="130.26"/>
  </text>
  <text style="text-anchor:middle" transform="scale(4.0128.2492)" font-size="46.954" y="-1837.19" x="229.54" font-family="Arial"/>
  <text style="word-spacing:0;letter-spacing:0" font-size="129.23" y="-450.82" x="711.53" font-family="&apos;Gentium Book Basic&apos;" line-height="125%">
   <tspan y="-450.82" x="711.53"/>
  </text>
  <text style="text-anchor:middle" transform="scale(4.0128.2492)" font-size="46.954" y="-2158.22" x="374.39" font-family="Arial"/>
  <text style="word-spacing:0;letter-spacing:0" font-size="129.23" y="-923.22" x="322.41" font-family="&apos;Gentium Book Basic&apos;" line-height="125%">
   <tspan y="-923.22" x="322.41"/>
  </text>
  <text style="text-anchor:middle" transform="scale(4.0128.2492)" font-size="46.954" y="-4053.87" x="277.42" font-family="Arial"/>
  <text style="word-spacing:0;letter-spacing:0" font-size="129.23" y="-1003.23" x="903.67" font-family="&apos;Gentium Book Basic&apos;" line-height="125%">
   <tspan y="-1003.23" x="903.67"/>
  </text>
  <text style="text-anchor:middle" transform="scale(4.0128.2492)" font-size="46.954" y="-4374.9" x="422.27" font-family="Arial"/>
  <text style="word-spacing:0;letter-spacing:0" font-size="208.33" y="411.49" x="-929.13" font-family="&apos;Gentium Book Basic&apos;" line-height="125%">
   <tspan y="411.49" x="-929.13"/>
  </text>
  <path d="m268.25-455.59c-14.397 0-26 11.603-26 26v460c0 14.397 11.603 26 26 26h460c14.397 0 26-11.603 26-26v-460c0-14.397-11.603-26-26-26h-460" fill="#ea6124"/>
  <text style="word-spacing:0;letter-spacing:0" font-size="129.23" y="-224.23" x="971.89" font-family="&apos;Gentium Book Basic&apos;" line-height="125%">
   <tspan y="-224.23" x="971.89"/>
  </text>
  <text style="text-anchor:middle" transform="scale(4.0128.2492)" font-size="46.954" y="-1248.96" x="439.28" font-family="Arial"/>
  <text style="word-spacing:0;letter-spacing:0" font-size="129.23" y="-304.23" x="1553.16" font-family="&apos;Gentium Book Basic&apos;" line-height="125%">
   <tspan y="-304.23" x="1553.16"/>
  </text>
  <text style="text-anchor:middle" transform="scale(4.0128.2492)" font-size="46.954" y="-1569.99" x="584.13" font-family="Arial"/>
  <text style="word-spacing:0;letter-spacing:0" font-size="129.23" y="-485.49" x="481.58" font-family="&apos;Gentium Book Basic&apos;" line-height="125%">
   <tspan y="-485.49" x="481.58"/>
  </text>
  <text style="text-anchor:middle" transform="scale(4.0128.2492)" font-size="46.954" y="-2297.34" x="317.09" font-family="Arial"/>
  <text style="word-spacing:0;letter-spacing:0" font-size="129.23" y="-701.96" x="1579.63" font-family="&apos;Gentium Book Basic&apos;" line-height="125%">
   <tspan y="-701.96" x="1579.63"/>
  </text>
  <text style="text-anchor:middle" transform="scale(4.0128.2492)" font-size="46.954" y="-3166.02" x="590.73" font-family="Arial"/>
  <text style="word-spacing:0;letter-spacing:0" font-size="129.23" y="-781.96" x="2160.9" font-family="&apos;Gentium Book Basic&apos;" line-height="125%">
   <tspan y="-781.96" x="2160.9"/>
  </text>
  <text style="text-anchor:middle" transform="scale(4.0128.2492)" font-size="46.954" y="-3487.04" x="735.58" font-family="Arial"/>
  <text style="word-spacing:0;letter-spacing:0" font-size="129.23" y="-1254.36" x="1771.78" font-family="&apos;Gentium Book Basic&apos;" line-height="125%">
   <tspan y="-1254.36" x="1771.78"/>
  </text>
  <text style="text-anchor:middle" transform="scale(4.0128.2492)" font-size="46.954" y="-5382.69" x="638.61" font-family="Arial"/>
  <text style="word-spacing:0;letter-spacing:0" font-size="129.23" y="-1334.37" x="2353.04" font-family="&apos;Gentium Book Basic&apos;" line-height="125%">
   <tspan y="-1334.37" x="2353.04"/>
  </text>
  <text style="text-anchor:middle" transform="scale(4.0128.2492)" font-size="46.954" y="-5703.73" x="783.46" font-family="Arial"/>
  <text style="word-spacing:0;letter-spacing:0" font-size="208.33" y="80.35" x="520.24" font-family="&apos;Gentium Book Basic&apos;" line-height="125%">
   <tspan y="80.35" x="520.24"/>
  </text>
  <path d="m268.25-455.59c-14.397 0-26 11.603-26 26v460c0 14.397 11.603 26 26 26h365.44l-182.69-512h-182.75" fill="#189d4d"/>
  <g transform="translate(242.25-995.96)">
   <path opacity=".1" fill="url(#0)" transform="translate(0 540.36)" d="m26 0c-12.729 0-23.259 9.07-25.531 21.13l510.59 471.84c0.613-2.219 0.938-4.551 0.938-6.969v-460c0-14.397-11.603-26-26-26h-460"/>
   <path opacity=".1" d="m0.906 19.16c-0.591 2.182-0.906 4.471-0.906 6.844v460c0 14.397 11.603 26 26 26h460c12.674 0 23.17-8.995 25.5-20.969l-510.59-471.87" fill-rule="evenodd" transform="translate(0 540.36)" fill="url(#1)"/>
  </g>
  <path opacity=".25" d="m392.72-355.28l-109.47 311.38 100.31 100.31h344.69c11.986 0 22.02-8.05 25.04-19.05l0.018 0.016c0.613-2.219 0.938-4.551 0.938-6.969v-289.86l-67.24-67.24c-3.369-3.369-7.201-6.393-11.494-9.07-19.797-12.585-51.715-18.89-95.69-18.891h-81.05c4.548 12.903 9.105 25.803 13.656 38.705l-39.33-39.33h-80.38"/>
  <path d="m392.72-355.28l-109.47 311.38h70.855l22.467-73.809h113.09l22.467 73.809h70.855l-109.88-311.38h-80.38m106.05 0.624c20.564 58.34 41.16 116.66 61.744 175h29.29c36.766 0 55.17 12.874 55.17 38.611 0 14.282-4.314 24.9-12.94 31.829s-22.01 10.402-40.11 10.402h-2.912c6.363 18.03 12.733 36.06 19.1 54.09 30.939-1.233 55.762-9.06 74.39-23.549 20.504-15.838 30.747-37.914 30.747-66.2 0-19.939-4.38-35.91-13.148-47.93-8.626-12.02-22.741-20.21-42.4-24.589v-2.122c14.423-2.404 25.907-9.549 34.533-21.427 8.767-11.878 13.189-27.08 13.189-45.6 0-27.29-9.976-47.18-29.915-59.62-19.797-12.585-51.716-18.889-95.69-18.889h-81.05m-65.53 47.51c1.131 5.091 2.947 12.04 5.492 20.803 2.687 8.768 14.412 46.574 35.2 113.46h-80.8c22.06-71.41 35.442-116.16 40.11-134.26m115.83 6.366h34.575c18.807 0 32.522 2.632 41.15 7.864 8.767 5.091 13.147 13.585 13.148 25.463 0 12.727-4.01 21.821-12.07 27.335-7.919 5.515-20.793 8.28-38.611 8.28h-38.19v-68.941" fill="#fff"/>
 </g>
</svg>
