<?xml version="1.0" encoding="UTF-8" standalone="no"?>
<!-- Created with Inkscape (http://www.inkscape.org/) -->
<svg id="svg2" xmlns:rdf="http://www.w3.org/1999/02/22-rdf-syntax-ns#" xmlns="http://www.w3.org/2000/svg" height="100%" width="100%" version="1.1" xmlns:cc="http://creativecommons.org/ns#" viewBox="0 0 512 512" xmlns:dc="http://purl.org/dc/elements/1.1/">
 <metadata id="metadata60">
  <rdf:RDF>
   <cc:Work rdf:about="">
    <dc:format>image/svg+xml</dc:format>
    <dc:type rdf:resource="http://purl.org/dc/dcmitype/StillImage"/>
   </cc:Work>
  </rdf:RDF>
 </metadata>
 <rect id="rect4" rx="25.988" height="512" width="512" y="0" x="0" fill="#cd1d31"/>
 <path id="path6" fill-opacity="0.235" d="m255.16 66.938c-71.38 124.64-142.77 249.27-214.16 373.91 24.846 24.846 48.63 48.38 71.813 71.16h373.19c14.397 0 26-11.603 26-26v-162c-85.84-85.45-171.5-171.06-256.84-257.06" fill-rule="evenodd"/>
 <text id="text8" style="word-spacing:0;letter-spacing:0" font-size="129.23px" line-height="125%" y="195.89" x="130.00999" font-family="Gentium Book Basic">
  <tspan id="tspan10" y="195.89" x="130.00999"/>
 </text>
 <text id="text12" style="text-anchor:middle" transform="scale(4.0128 .2492)" font-size="46.954px" y="436.92001" x="229.48" font-family="Arial"/>
 <text id="text14" style="word-spacing:0;letter-spacing:0" font-size="129.23px" line-height="125%" y="115.89" x="711.28003" font-family="Gentium Book Basic">
  <tspan id="tspan16" y="115.89" x="711.28003"/>
 </text>
 <text id="text18" style="text-anchor:middle" transform="scale(4.0128 .2492)" font-size="46.954px" y="115.88" x="374.32999" font-family="Arial"/>
 <text id="text20" style="word-spacing:0;letter-spacing:0" font-size="129.23px" line-height="125%" y="-65.370003" x="-360.29999" font-family="Gentium Book Basic">
  <tspan id="tspan22" y="-65.370003" x="-360.29999"/>
 </text>
 <text id="text24" style="text-anchor:middle" transform="scale(4.0128 .2492)" font-size="46.954px" y="-611.46997" x="107.29" font-family="Arial"/>
 <text id="text26" style="word-spacing:0;letter-spacing:0" font-size="129.23px" line-height="125%" y="-281.84" x="737.75" font-family="Gentium Book Basic">
  <tspan id="tspan28" y="-281.84" x="737.75"/>
 </text>
 <text id="text30" style="text-anchor:middle" transform="scale(4.0128 .2492)" font-size="46.954px" y="-1480.14" x="380.92999" font-family="Arial"/>
 <text id="text32" style="word-spacing:0;letter-spacing:0" font-size="129.23px" line-height="125%" y="-361.84" x="1319.02" font-family="Gentium Book Basic">
  <tspan id="tspan34" y="-361.84" x="1319.02"/>
 </text>
 <text id="text36" style="text-anchor:middle" transform="scale(4.0128 .2492)" font-size="46.954px" y="-1801.17" x="525.78003" font-family="Arial"/>
 <text id="text38" style="word-spacing:0;letter-spacing:0" font-size="129.23px" line-height="125%" y="-834.23999" x="929.90002" font-family="Gentium Book Basic">
  <tspan id="tspan40" y="-834.23999" x="929.90002"/>
 </text>
 <text id="text42" style="text-anchor:middle" transform="scale(4.0128 .2492)" font-size="46.954px" y="-3696.8201" x="428.81" font-family="Arial"/>
 <text id="text44" style="word-spacing:0;letter-spacing:0" font-size="129.23px" line-height="125%" y="-914.25" x="1511.16" font-family="Gentium Book Basic">
  <tspan id="tspan46" y="-914.25" x="1511.16"/>
 </text>
 <text id="text48" style="text-anchor:middle" transform="scale(4.0128 .2492)" font-size="46.954px" y="-4017.8601" x="573.65997" font-family="Arial"/>
 <text id="text50" style="word-spacing:0;letter-spacing:0" font-size="208.33px" line-height="125%" y="500.47" x="-321.64001" font-family="Gentium Book Basic">
  <tspan id="tspan52" y="500.47" x="-321.64001"/>
 </text>
 <path id="path54" fill="#fff" d="m255.17 66.905-109.52 191.22-104.65 182.72c2.753-1.101 5.473-2.153 8.181-3.193 0.874-1.517 1.923-2.423 3.079-2.423 0.569 0 1.111 0.228 1.625 0.627 4.01-1.503 7.98-2.939 11.915-4.305v-2.366c0-7.305 2.814-13.169 6.328-13.169 3.219 0 5.878 4.932 6.299 11.374 3.189-1.01 6.369-1.987 9.521-2.908v-25.916c0-7.304 2.681-13.198 6.01-13.198 3.333 0 6.01 5.893 6.01 13.198v22.576c3.828-0.989 7.632-1.912 11.433-2.766v-50.45c0-7.305 2.975-13.169 6.67-13.169s6.67 5.865 6.67 13.169v47.719c4.237-0.778 8.476-1.471 12.713-2.081v-72.66c0-7.304 2.977-13.198 6.67-13.198 3.695 0 6.67 5.895 6.67 13.198v71.01c3.685-0.375 7.374-0.693 11.09-0.941v-93.22c0-7.304 3.27-13.169 7.326-13.169s7.326 5.865 7.326 13.169v92.59c3.882-0.087 7.801-0.131 11.744-0.086v-107.47c0-7.304 3.27-13.198 7.326-13.198s7.297 5.893 7.297 13.198v107.93c3.399 0.175 6.827 0.386 10.291 0.656v-98.49c0-7.304 3.27-13.169 7.326-13.169s7.326 5.865 7.326 13.169v99.89c2.796 0.312 5.619 0.656 8.466 1.026v-99.12c0-7.304 3.27-13.198 7.326-13.198s7.326 5.893 7.326 13.198v101.23c3.868 0.613 7.768 1.256 11.744 1.967v-84.46c0-7.304 3.404-13.169 7.639-13.169s7.668 5.865 7.668 13.169v87.4c4.04 0.818 8.124 1.682 12.285 2.594 0.318 0.058 0.596 0.113 0.912 0.171v-69.15c0-7.304 2.681-13.169 6.01-13.169 3.334 0 6.01 5.865 6.01 13.169v71.41c5.276 0.999 10.225 1.949 15.02 2.88v-54.24c0-7.304 2.681-13.169 6.01-13.169 3.333 0 6.01 5.865 6.01 13.169v56.61c5.212 1.021 9.95 1.932 14.68 2.851v-35.35c0-7.304 2.977-13.198 6.67-13.198 3.695 0 6.67 5.893 6.67 13.198v37.912c3.758 0.703 7.366 1.344 10.918 1.967v-18.87c0-7.304 2.415-13.198 5.387-13.198s5.359 5.895 5.359 13.198v20.666c2.964 0.468 5.899 0.908 8.808 1.312v-6.01c0-7.305 2.549-13.198 5.701-13.198 3.155 0 5.672 5.895 5.672 13.198v7.411c2.395 0.261 4.787 0.498 7.212 0.713 0.192-6.838 2.352-12.2 5.02-12.2 2.76 0 4.994 5.759 5.05 12.944 2.5 0.15 5.05 0.269 7.639 0.371 0.914-3.322 2.415-5.473 4.104-5.473 1.735 0 3.256 2.259 4.161 5.731 4.191 0.077 8.568 0.077 13.11 0.029 0.63-0.871 1.356-1.369 2.11-1.369 0.737 0 1.44 0.476 2.053 1.312 4.431-0.081 9-0.205 13.853-0.399l6.528-0.827-106.33-185.66-109.52-191.21" fill-rule="evenodd"/>
</svg>
