<svg xmlns="http://www.w3.org/2000/svg" viewBox="0 0 512 512"><defs><clipPath><path d="m471.95 793.41c0 120.9-98.01 218.91-218.91 218.91-120.9 0-218.91-98.01-218.91-218.91 0-120.9 98.01-218.91 218.91-218.91 120.9 0 218.91 98.01 218.91 218.91"/></clipPath></defs><path d="m26 0c-14.397 0-26 11.603-26 26v460c0 14.397 11.603 26 26 26h460c14.397 0 26-11.603 26-26v-460c0-14.397-11.603-26-26-26h-460" style="fill:#ef6a47"/><path d="m26 0c-14.397 0-26 11.603-26 26v460c0 14.397 11.603 26 26 26h81.13v-512h-81.12m378.88 0v512h81.13c14.397 0 26-11.603 26-26v-460c0-14.397-11.603-26-26-26h-81.12z" style="fill:#282629;color:#000;fill-rule:evenodd"/><text x="-477.48" y="106.91" line-height="125%" style="letter-spacing:0;word-spacing:0;font-size:129.23;font-family:&apos;Gentium Book Basic&apos;"><tspan x="-477.48" y="106.91"/></text><text x="78.09" y="79.873" transform="scale(4.0128.2492)" style="font-size:46.954;font-family:Arial;text-anchor:middle"/><text x="103.79" y="26.913" line-height="125%" style="letter-spacing:0;word-spacing:0;font-size:129.23;font-family:&apos;Gentium Book Basic&apos;"><tspan x="103.79" y="26.913"/></text><text x="222.94" y="-241.17" transform="scale(4.0128.2492)" style="font-size:46.954;font-family:Arial;text-anchor:middle"/><text x="-967.79" y="-154.35" line-height="125%" style="letter-spacing:0;word-spacing:0;font-size:129.23;font-family:&apos;Gentium Book Basic&apos;"><tspan x="-967.79" y="-154.35"/></text><text x="-44.1" y="-968.51" transform="scale(4.0128.2492)" style="font-size:46.954;font-family:Arial;text-anchor:middle"/><text x="130.26" y="-370.82" line-height="125%" style="letter-spacing:0;word-spacing:0;font-size:129.23;font-family:&apos;Gentium Book Basic&apos;"><tspan x="130.26" y="-370.82"/></text><text x="229.54" y="-1837.19" transform="scale(4.0128.2492)" style="font-size:46.954;font-family:Arial;text-anchor:middle"/><text x="711.53" y="-450.82" line-height="125%" style="letter-spacing:0;word-spacing:0;font-size:129.23;font-family:&apos;Gentium Book Basic&apos;"><tspan x="711.53" y="-450.82"/></text><text x="374.39" y="-2158.22" transform="scale(4.0128.2492)" style="font-size:46.954;font-family:Arial;text-anchor:middle"/><text x="322.41" y="-923.22" line-height="125%" style="letter-spacing:0;word-spacing:0;font-size:129.23;font-family:&apos;Gentium Book Basic&apos;"><tspan x="322.41" y="-923.22"/></text><text x="277.42" y="-4053.87" transform="scale(4.0128.2492)" style="font-size:46.954;font-family:Arial;text-anchor:middle"/><text x="903.67" y="-1003.23" line-height="125%" style="letter-spacing:0;word-spacing:0;font-size:129.23;font-family:&apos;Gentium Book Basic&apos;"><tspan x="903.67" y="-1003.23"/></text><text x="422.27" y="-4374.9" transform="scale(4.0128.2492)" style="font-size:46.954;font-family:Arial;text-anchor:middle"/><g line-height="125%" style="letter-spacing:0;word-spacing:0;font-family:&apos;Gentium Book Basic&apos;"><text x="-929.13" y="411.49" style="font-size:208.33"><tspan x="-929.13" y="411.49"/></text><text x="-125.14" y="88.17" style="font-size:129.23"><tspan x="-125.14" y="88.17"/></text></g><text x="165.9" y="4.677" transform="scale(4.0128.2492)" style="font-size:46.954;font-family:Arial;text-anchor:middle"/><text x="456.13" y="8.174" line-height="125%" style="letter-spacing:0;word-spacing:0;font-size:129.23;font-family:&apos;Gentium Book Basic&apos;"><tspan x="456.13" y="8.174"/></text><text x="310.75" y="-316.36" transform="scale(4.0128.2492)" style="font-size:46.954;font-family:Arial;text-anchor:middle"/><text x="-615.45" y="-173.09" line-height="125%" style="letter-spacing:0;word-spacing:0;font-size:129.23;font-family:&apos;Gentium Book Basic&apos;"><tspan x="-615.45" y="-173.09"/></text><text x="43.707" y="-1043.71" transform="scale(4.0128.2492)" style="font-size:46.954;font-family:Arial;text-anchor:middle"/><text x="482.6" y="-389.56" line-height="125%" style="letter-spacing:0;word-spacing:0;font-size:129.23;font-family:&apos;Gentium Book Basic&apos;"><tspan x="482.6" y="-389.56"/></text><text x="317.35" y="-1912.38" transform="scale(4.0128.2492)" style="font-size:46.954;font-family:Arial;text-anchor:middle"/><text x="1063.87" y="-469.56" line-height="125%" style="letter-spacing:0;word-spacing:0;font-size:129.23;font-family:&apos;Gentium Book Basic&apos;"><tspan x="1063.87" y="-469.56"/></text><text x="462.19" y="-2233.41" transform="scale(4.0128.2492)" style="font-size:46.954;font-family:Arial;text-anchor:middle"/><text x="674.75" y="-941.96" line-height="125%" style="letter-spacing:0;word-spacing:0;font-size:129.23;font-family:&apos;Gentium Book Basic&apos;"><tspan x="674.75" y="-941.96"/></text><text x="365.22" y="-4129.06" transform="scale(4.0128.2492)" style="font-size:46.954;font-family:Arial;text-anchor:middle"/><text x="1256.01" y="-1021.97" line-height="125%" style="letter-spacing:0;word-spacing:0;font-size:129.23;font-family:&apos;Gentium Book Basic&apos;"><tspan x="1256.01" y="-1021.97"/></text><text x="510.07" y="-4450.1" transform="scale(4.0128.2492)" style="font-size:46.954;font-family:Arial;text-anchor:middle"/><text x="-576.79" y="392.75" line-height="125%" style="letter-spacing:0;word-spacing:0;font-size:208.33;font-family:&apos;Gentium Book Basic&apos;"><tspan x="-576.79" y="392.75"/></text><path d="m28.625 16.09c-7.898 0-14.313 6.437-14.313 14.469v17.656c0 8.03 6.415 14.5 14.313 14.5h26.625c7.898 0 14.25-6.468 14.25-14.5v-17.656c0-8.03-6.352-14.469-14.25-14.469h-26.625m428.22 0c-7.898 0-14.313 6.437-14.313 14.469v17.656c0 8.03 6.414 14.5 14.313 14.5h26.594c7.898 0 14.25-6.468 14.25-14.5v-17.656c0-8.03-6.352-14.469-14.25-14.469h-26.594m-428.22 86.63c-7.898 0-14.313 6.468-14.313 14.5v17.625c0 8.03 6.415 14.531 14.313 14.531h26.625c7.898 0 14.25-6.5 14.25-14.531v-17.625c0-8.03-6.352-14.5-14.25-14.5h-26.625m428.22 0c-7.898 0-14.313 6.468-14.313 14.5v17.625c0 8.03 6.414 14.531 14.313 14.531h26.594c7.898 0 14.25-6.5 14.25-14.531v-17.625c0-8.03-6.352-14.5-14.25-14.5h-26.594m-428.22 86.66c-7.898 0-14.313 6.437-14.313 14.469v17.656c0 8.03 6.415 14.5 14.313 14.5h26.625c7.898 0 14.25-6.468 14.25-14.5v-17.656c0-8.03-6.352-14.469-14.25-14.469h-26.625m428.22 0c-7.898 0-14.313 6.437-14.313 14.469v17.656c0 8.03 6.414 14.5 14.313 14.5h26.594c7.898 0 14.25-6.468 14.25-14.5v-17.656c0-8.03-6.352-14.469-14.25-14.469h-26.594m-428.22 86.63c-7.898 0-14.313 6.468-14.313 14.5v17.656c0 8.03 6.415 14.469 14.313 14.469h26.625c7.898 0 14.25-6.437 14.25-14.469v-17.656c0-8.03-6.352-14.5-14.25-14.5h-26.625m428.22 0c-7.898 0-14.313 6.468-14.313 14.5v17.656c0 8.03 6.414 14.469 14.313 14.469h26.594c7.898 0 14.25-6.437 14.25-14.469v-17.656c0-8.03-6.352-14.5-14.25-14.5h-26.594m-428.22 86.63c-7.898 0-14.313 6.468-14.313 14.5v17.656c0 8.03 6.415 14.469 14.313 14.469h26.625c7.898 0 14.25-6.437 14.25-14.469v-17.656c0-8.03-6.352-14.5-14.25-14.5h-26.625m428.22 0c-7.898 0-14.313 6.468-14.313 14.5v17.656c0 8.03 6.414 14.469 14.313 14.469h26.594c7.898 0 14.25-6.437 14.25-14.469v-17.656c0-8.03-6.352-14.5-14.25-14.5h-26.594m-428.22 86.63c-7.898 0-14.313 6.5-14.313 14.531v17.625c0 8.03 6.415 14.5 14.313 14.5h26.625c7.898 0 14.25-6.468 14.25-14.5v-17.625c0-8.03-6.352-14.531-14.25-14.531h-26.625m428.22 0c-7.898 0-14.313 6.5-14.313 14.531v17.625c0 8.03 6.414 14.5 14.313 14.5h26.594c7.898 0 14.25-6.468 14.25-14.5v-17.625c0-8.03-6.352-14.531-14.25-14.531h-26.594" style="fill:#b7b7b7;color:#000;fill-rule:evenodd"/><text x="-485.28" y="153.26" line-height="125%" style="letter-spacing:0;word-spacing:0;font-size:129.23;font-family:&apos;Gentium Book Basic&apos;"><tspan x="-485.28" y="153.26"/></text><text x="76.15" y="265.85" transform="scale(4.0128.2492)" style="font-size:46.954;font-family:Arial;text-anchor:middle"/><text x="95.99" y="73.26" line-height="125%" style="letter-spacing:0;word-spacing:0;font-size:129.23;font-family:&apos;Gentium Book Basic&apos;"><tspan x="95.99" y="73.26"/></text><text x="221" y="-55.19" transform="scale(4.0128.2492)" style="font-size:46.954;font-family:Arial;text-anchor:middle"/><text x="-975.59" y="-108" line-height="125%" style="letter-spacing:0;word-spacing:0;font-size:129.23;font-family:&apos;Gentium Book Basic&apos;"><tspan x="-975.59" y="-108"/></text><text x="-46.04" y="-782.53" transform="scale(4.0128.2492)" style="font-size:46.954;font-family:Arial;text-anchor:middle"/><text x="122.46" y="-324.47" line-height="125%" style="letter-spacing:0;word-spacing:0;font-size:129.23;font-family:&apos;Gentium Book Basic&apos;"><tspan x="122.46" y="-324.47"/></text><text x="227.6" y="-1651.21" transform="scale(4.0128.2492)" style="font-size:46.954;font-family:Arial;text-anchor:middle"/><text x="703.73" y="-404.47" line-height="125%" style="letter-spacing:0;word-spacing:0;font-size:129.23;font-family:&apos;Gentium Book Basic&apos;"><tspan x="703.73" y="-404.47"/></text><text x="372.45" y="-1972.24" transform="scale(4.0128.2492)" style="font-size:46.954;font-family:Arial;text-anchor:middle"/><text x="314.61" y="-876.87" line-height="125%" style="letter-spacing:0;word-spacing:0;font-size:129.23;font-family:&apos;Gentium Book Basic&apos;"><tspan x="314.61" y="-876.87"/></text><text x="275.48" y="-3867.89" transform="scale(4.0128.2492)" style="font-size:46.954;font-family:Arial;text-anchor:middle"/><text x="895.87" y="-956.88" line-height="125%" style="letter-spacing:0;word-spacing:0;font-size:129.23;font-family:&apos;Gentium Book Basic&apos;"><tspan x="895.87" y="-956.88"/></text><text x="420.33" y="-4188.93" transform="scale(4.0128.2492)" style="font-size:46.954;font-family:Arial;text-anchor:middle"/><text x="-936.93" y="457.84" line-height="125%" style="letter-spacing:0;word-spacing:0;font-size:208.33;font-family:&apos;Gentium Book Basic&apos;"><tspan x="-936.93" y="457.84"/></text><rect width="368.17" height="35.28" x="71.913" y="238.36" rx="17.642" style="fill:#282629;color:#000;fill-rule:evenodd"/><text x="-246.39" y="-581.44" line-height="125%" style="letter-spacing:0;word-spacing:0;font-size:129.23;font-family:&apos;Gentium Book Basic&apos;"><tspan x="-246.39" y="-581.44"/></text><text x="135.68" y="-2682.38" transform="scale(4.0128.2492)" style="font-size:46.954;font-family:Arial;text-anchor:middle"/><text x="334.88" y="-661.44" line-height="125%" style="letter-spacing:0;word-spacing:0;font-size:129.23;font-family:&apos;Gentium Book Basic&apos;"><tspan x="334.88" y="-661.44"/></text><text x="280.53" y="-3003.42" transform="scale(4.0128.2492)" style="font-size:46.954;font-family:Arial;text-anchor:middle"/><text x="-736.7" y="-842.7" line-height="125%" style="letter-spacing:0;word-spacing:0;font-size:129.23;font-family:&apos;Gentium Book Basic&apos;"><tspan x="-736.7" y="-842.7"/></text><text x="13.492" y="-3730.76" transform="scale(4.0128.2492)" style="font-size:46.954;font-family:Arial;text-anchor:middle"/><text x="361.35" y="-1059.17" line-height="125%" style="letter-spacing:0;word-spacing:0;font-size:129.23;font-family:&apos;Gentium Book Basic&apos;"><tspan x="361.35" y="-1059.17"/></text><text x="287.13" y="-4599.43" transform="scale(4.0128.2492)" style="font-size:46.954;font-family:Arial;text-anchor:middle"/><text x="942.62" y="-1139.17" line-height="125%" style="letter-spacing:0;word-spacing:0;font-size:129.23;font-family:&apos;Gentium Book Basic&apos;"><tspan x="942.62" y="-1139.17"/></text><text x="431.98" y="-4920.46" transform="scale(4.0128.2492)" style="font-size:46.954;font-family:Arial;text-anchor:middle"/><text x="553.5" y="-1611.57" line-height="125%" style="letter-spacing:0;word-spacing:0;font-size:129.23;font-family:&apos;Gentium Book Basic&apos;"><tspan x="553.5" y="-1611.57"/></text><text x="335.01" y="-6816.1" transform="scale(4.0128.2492)" style="font-size:46.954;font-family:Arial;text-anchor:middle"/><text x="1134.76" y="-1691.58" line-height="125%" style="letter-spacing:0;word-spacing:0;font-size:129.23;font-family:&apos;Gentium Book Basic&apos;"><tspan x="1134.76" y="-1691.58"/></text><text x="479.86" y="-7137.14" transform="scale(4.0128.2492)" style="font-size:46.954;font-family:Arial;text-anchor:middle"/><text x="-698.04" y="-276.86" line-height="125%" style="letter-spacing:0;word-spacing:0;font-size:208.33;font-family:&apos;Gentium Book Basic&apos;"><tspan x="-698.04" y="-276.86"/></text><g style="color:#000"><path d="m215.39 109.6l-140.12 46.04 38.842 38.842c-1.663 7.737-2.531 15.74-2.531 24.07 0 31.921 12.942 60.86 33.871 81.79l211.66 211.66h128.88c14.397 0 26-11.603 26-26v-128.88l-145.46-145.46c-20.835-20.835-49.588-33.732-81.37-33.732-.477 0-.952.011-1.428.018l-68.35-68.35" style="opacity:.25"/><path d="m296.61 402.4l140.12-46.04-42.891-24.592c4.291-12.07 6.58-24.772 6.58-38.32 0-63.699-51.53-115.52-115.24-115.52-12.462 0-24.501 2.349-35.743 6 46.23 15.03 79.78 58.28 79.78 109.52 0 .332.002.523 0 .856l-62.62-36.03 30.02 144.12m-69.775-68.34c12.462 0 24.501-2.349 35.743-6.01-46.23-15.04-79.78-58.28-79.78-109.52 0-.332 0-.523 0-.856l62.62 36.03-30.02-144.11-140.12 46.04 42.891 24.591c-4.291 12.07-6.58 24.772-6.58 38.32 0 63.698 51.53 115.52 115.24 115.52" style="fill:#fff"/></g></svg>