<?xml version="1.0" encoding="UTF-8" standalone="no"?>
<svg xmlns="http://www.w3.org/2000/svg" viewBox="0 0 512 512">
 <path d="m26 0c-14.397 0-26 11.603-26 26v460c0 14.397 11.603 26 26 26h460c14.397 0 26-11.603 26-26v-460c0-14.397-11.603-26-26-26h-460" fill="#ef6a47"/>
 <path fill="#282629" d="m26 0c-14.397 0-26 11.603-26 26v460c0 14.397 11.603 26 26 26h81.13v-512h-81.12m378.88 0v512h81.13c14.397 0 26-11.603 26-26v-460c0-14.397-11.603-26-26-26h-81.12z" fill-rule="evenodd"/>
 <text style="word-spacing:0;letter-spacing:0" font-size="129.23" y="106.91" x="-477.48" font-family="&apos;Gentium Book Basic&apos;" line-height="125%">
  <tspan y="106.91" x="-477.48"/>
 </text>
 <text style="text-anchor:middle" transform="scale(4.0128.2492)" font-size="46.954" y="79.873" x="78.09" font-family="Arial"/>
 <text style="word-spacing:0;letter-spacing:0" font-size="129.23" y="26.913" x="103.79" font-family="&apos;Gentium Book Basic&apos;" line-height="125%">
  <tspan y="26.913" x="103.79"/>
 </text>
 <text style="text-anchor:middle" transform="scale(4.0128.2492)" font-size="46.954" y="-241.17" x="222.94" font-family="Arial"/>
 <text style="word-spacing:0;letter-spacing:0" font-size="129.23" y="-154.35" x="-967.79" font-family="&apos;Gentium Book Basic&apos;" line-height="125%">
  <tspan y="-154.35" x="-967.79"/>
 </text>
 <text style="text-anchor:middle" transform="scale(4.0128.2492)" font-size="46.954" y="-968.51" x="-44.1" font-family="Arial"/>
 <text style="word-spacing:0;letter-spacing:0" font-size="129.23" y="-370.82" x="130.26" font-family="&apos;Gentium Book Basic&apos;" line-height="125%">
  <tspan y="-370.82" x="130.26"/>
 </text>
 <text style="text-anchor:middle" transform="scale(4.0128.2492)" font-size="46.954" y="-1837.19" x="229.54" font-family="Arial"/>
 <text style="word-spacing:0;letter-spacing:0" font-size="129.23" y="-450.82" x="711.53" font-family="&apos;Gentium Book Basic&apos;" line-height="125%">
  <tspan y="-450.82" x="711.53"/>
 </text>
 <text style="text-anchor:middle" transform="scale(4.0128.2492)" font-size="46.954" y="-2158.22" x="374.39" font-family="Arial"/>
 <text style="word-spacing:0;letter-spacing:0" font-size="129.23" y="-923.22" x="322.41" font-family="&apos;Gentium Book Basic&apos;" line-height="125%">
  <tspan y="-923.22" x="322.41"/>
 </text>
 <text style="text-anchor:middle" transform="scale(4.0128.2492)" font-size="46.954" y="-4053.87" x="277.42" font-family="Arial"/>
 <text style="word-spacing:0;letter-spacing:0" font-size="129.23" y="-1003.23" x="903.67" font-family="&apos;Gentium Book Basic&apos;" line-height="125%">
  <tspan y="-1003.23" x="903.67"/>
 </text>
 <text style="text-anchor:middle" transform="scale(4.0128.2492)" font-size="46.954" y="-4374.9" x="422.27" font-family="Arial"/>
 <g style="word-spacing:0;letter-spacing:0" font-family="&apos;Gentium Book Basic&apos;" line-height="125%">
  <text y="411.49" x="-929.13" font-size="208.33">
   <tspan y="411.49" x="-929.13"/>
  </text>
  <text y="88.17" x="-125.14" font-size="129.23">
   <tspan y="88.17" x="-125.14"/>
  </text>
 </g>
 <text style="text-anchor:middle" transform="scale(4.0128.2492)" font-size="46.954" y="4.677" x="165.9" font-family="Arial"/>
 <text style="word-spacing:0;letter-spacing:0" font-size="129.23" y="8.174" x="456.13" font-family="&apos;Gentium Book Basic&apos;" line-height="125%">
  <tspan y="8.174" x="456.13"/>
 </text>
 <text style="text-anchor:middle" transform="scale(4.0128.2492)" font-size="46.954" y="-316.36" x="310.75" font-family="Arial"/>
 <text style="word-spacing:0;letter-spacing:0" font-size="129.23" y="-173.09" x="-615.45" font-family="&apos;Gentium Book Basic&apos;" line-height="125%">
  <tspan y="-173.09" x="-615.45"/>
 </text>
 <text style="text-anchor:middle" transform="scale(4.0128.2492)" font-size="46.954" y="-1043.71" x="43.707" font-family="Arial"/>
 <text style="word-spacing:0;letter-spacing:0" font-size="129.23" y="-389.56" x="482.6" font-family="&apos;Gentium Book Basic&apos;" line-height="125%">
  <tspan y="-389.56" x="482.6"/>
 </text>
 <text style="text-anchor:middle" transform="scale(4.0128.2492)" font-size="46.954" y="-1912.38" x="317.35" font-family="Arial"/>
 <text style="word-spacing:0;letter-spacing:0" font-size="129.23" y="-469.56" x="1063.87" font-family="&apos;Gentium Book Basic&apos;" line-height="125%">
  <tspan y="-469.56" x="1063.87"/>
 </text>
 <text style="text-anchor:middle" transform="scale(4.0128.2492)" font-size="46.954" y="-2233.41" x="462.19" font-family="Arial"/>
 <text style="word-spacing:0;letter-spacing:0" font-size="129.23" y="-941.96" x="674.75" font-family="&apos;Gentium Book Basic&apos;" line-height="125%">
  <tspan y="-941.96" x="674.75"/>
 </text>
 <text style="text-anchor:middle" transform="scale(4.0128.2492)" font-size="46.954" y="-4129.06" x="365.22" font-family="Arial"/>
 <text style="word-spacing:0;letter-spacing:0" font-size="129.23" y="-1021.97" x="1256.01" font-family="&apos;Gentium Book Basic&apos;" line-height="125%">
  <tspan y="-1021.97" x="1256.01"/>
 </text>
 <text style="text-anchor:middle" transform="scale(4.0128.2492)" font-size="46.954" y="-4450.1" x="510.07" font-family="Arial"/>
 <text style="word-spacing:0;letter-spacing:0" font-size="208.33" y="392.75" x="-576.79" font-family="&apos;Gentium Book Basic&apos;" line-height="125%">
  <tspan y="392.75" x="-576.79"/>
 </text>
 <path fill="#b7b7b7" d="m28.625 16.09c-7.898 0-14.313 6.437-14.313 14.469v17.656c0 8.03 6.415 14.5 14.313 14.5h26.625c7.898 0 14.25-6.468 14.25-14.5v-17.656c0-8.03-6.352-14.469-14.25-14.469h-26.625m428.22 0c-7.898 0-14.313 6.437-14.313 14.469v17.656c0 8.03 6.414 14.5 14.313 14.5h26.594c7.898 0 14.25-6.468 14.25-14.5v-17.656c0-8.03-6.352-14.469-14.25-14.469h-26.594m-428.22 86.63c-7.898 0-14.313 6.468-14.313 14.5v17.625c0 8.03 6.415 14.531 14.313 14.531h26.625c7.898 0 14.25-6.5 14.25-14.531v-17.625c0-8.03-6.352-14.5-14.25-14.5h-26.625m428.22 0c-7.898 0-14.313 6.468-14.313 14.5v17.625c0 8.03 6.414 14.531 14.313 14.531h26.594c7.898 0 14.25-6.5 14.25-14.531v-17.625c0-8.03-6.352-14.5-14.25-14.5h-26.594m-428.22 86.66c-7.898 0-14.313 6.437-14.313 14.469v17.656c0 8.03 6.415 14.5 14.313 14.5h26.625c7.898 0 14.25-6.468 14.25-14.5v-17.656c0-8.03-6.352-14.469-14.25-14.469h-26.625m428.22 0c-7.898 0-14.313 6.437-14.313 14.469v17.656c0 8.03 6.414 14.5 14.313 14.5h26.594c7.898 0 14.25-6.468 14.25-14.5v-17.656c0-8.03-6.352-14.469-14.25-14.469h-26.594m-428.22 86.63c-7.898 0-14.313 6.468-14.313 14.5v17.656c0 8.03 6.415 14.469 14.313 14.469h26.625c7.898 0 14.25-6.437 14.25-14.469v-17.656c0-8.03-6.352-14.5-14.25-14.5h-26.625m428.22 0c-7.898 0-14.313 6.468-14.313 14.5v17.656c0 8.03 6.414 14.469 14.313 14.469h26.594c7.898 0 14.25-6.437 14.25-14.469v-17.656c0-8.03-6.352-14.5-14.25-14.5h-26.594m-428.22 86.63c-7.898 0-14.313 6.468-14.313 14.5v17.656c0 8.03 6.415 14.469 14.313 14.469h26.625c7.898 0 14.25-6.437 14.25-14.469v-17.656c0-8.03-6.352-14.5-14.25-14.5h-26.625m428.22 0c-7.898 0-14.313 6.468-14.313 14.5v17.656c0 8.03 6.414 14.469 14.313 14.469h26.594c7.898 0 14.25-6.437 14.25-14.469v-17.656c0-8.03-6.352-14.5-14.25-14.5h-26.594m-428.22 86.63c-7.898 0-14.313 6.5-14.313 14.531v17.625c0 8.03 6.415 14.5 14.313 14.5h26.625c7.898 0 14.25-6.468 14.25-14.5v-17.625c0-8.03-6.352-14.531-14.25-14.531h-26.625m428.22 0c-7.898 0-14.313 6.5-14.313 14.531v17.625c0 8.03 6.414 14.5 14.313 14.5h26.594c7.898 0 14.25-6.468 14.25-14.5v-17.625c0-8.03-6.352-14.531-14.25-14.531h-26.594" fill-rule="evenodd"/>
 <text style="word-spacing:0;letter-spacing:0" font-size="129.23" y="153.26" x="-485.28" font-family="&apos;Gentium Book Basic&apos;" line-height="125%">
  <tspan y="153.26" x="-485.28"/>
 </text>
 <text style="text-anchor:middle" transform="scale(4.0128.2492)" font-size="46.954" y="265.85" x="76.15" font-family="Arial"/>
 <text style="word-spacing:0;letter-spacing:0" font-size="129.23" y="73.26" x="95.99" font-family="&apos;Gentium Book Basic&apos;" line-height="125%">
  <tspan y="73.26" x="95.99"/>
 </text>
 <text style="text-anchor:middle" transform="scale(4.0128.2492)" font-size="46.954" y="-55.19" x="221" font-family="Arial"/>
 <text style="word-spacing:0;letter-spacing:0" font-size="129.23" y="-108" x="-975.59" font-family="&apos;Gentium Book Basic&apos;" line-height="125%">
  <tspan y="-108" x="-975.59"/>
 </text>
 <text style="text-anchor:middle" transform="scale(4.0128.2492)" font-size="46.954" y="-782.53" x="-46.04" font-family="Arial"/>
 <text style="word-spacing:0;letter-spacing:0" font-size="129.23" y="-324.47" x="122.46" font-family="&apos;Gentium Book Basic&apos;" line-height="125%">
  <tspan y="-324.47" x="122.46"/>
 </text>
 <text style="text-anchor:middle" transform="scale(4.0128.2492)" font-size="46.954" y="-1651.21" x="227.6" font-family="Arial"/>
 <text style="word-spacing:0;letter-spacing:0" font-size="129.23" y="-404.47" x="703.73" font-family="&apos;Gentium Book Basic&apos;" line-height="125%">
  <tspan y="-404.47" x="703.73"/>
 </text>
 <text style="text-anchor:middle" transform="scale(4.0128.2492)" font-size="46.954" y="-1972.24" x="372.45" font-family="Arial"/>
 <text style="word-spacing:0;letter-spacing:0" font-size="129.23" y="-876.87" x="314.61" font-family="&apos;Gentium Book Basic&apos;" line-height="125%">
  <tspan y="-876.87" x="314.61"/>
 </text>
 <text style="text-anchor:middle" transform="scale(4.0128.2492)" font-size="46.954" y="-3867.89" x="275.48" font-family="Arial"/>
 <text style="word-spacing:0;letter-spacing:0" font-size="129.23" y="-956.88" x="895.87" font-family="&apos;Gentium Book Basic&apos;" line-height="125%">
  <tspan y="-956.88" x="895.87"/>
 </text>
 <text style="text-anchor:middle" transform="scale(4.0128.2492)" font-size="46.954" y="-4188.93" x="420.33" font-family="Arial"/>
 <text style="word-spacing:0;letter-spacing:0" font-size="208.33" y="457.84" x="-936.93" font-family="&apos;Gentium Book Basic&apos;" line-height="125%">
  <tspan y="457.84" x="-936.93"/>
 </text>
 <rect fill-rule="evenodd" rx="17.642" height="35.28" width="368.17" y="238.36" x="71.913" fill="#282629"/>
 <text style="word-spacing:0;letter-spacing:0" font-size="129.23" y="-581.44" x="-246.39" font-family="&apos;Gentium Book Basic&apos;" line-height="125%">
  <tspan y="-581.44" x="-246.39"/>
 </text>
 <text style="text-anchor:middle" transform="scale(4.0128.2492)" font-size="46.954" y="-2682.38" x="135.68" font-family="Arial"/>
 <text style="word-spacing:0;letter-spacing:0" font-size="129.23" y="-661.44" x="334.88" font-family="&apos;Gentium Book Basic&apos;" line-height="125%">
  <tspan y="-661.44" x="334.88"/>
 </text>
 <text style="text-anchor:middle" transform="scale(4.0128.2492)" font-size="46.954" y="-3003.42" x="280.53" font-family="Arial"/>
 <text style="word-spacing:0;letter-spacing:0" font-size="129.23" y="-842.7" x="-736.7" font-family="&apos;Gentium Book Basic&apos;" line-height="125%">
  <tspan y="-842.7" x="-736.7"/>
 </text>
 <text style="text-anchor:middle" transform="scale(4.0128.2492)" font-size="46.954" y="-3730.76" x="13.492" font-family="Arial"/>
 <text style="word-spacing:0;letter-spacing:0" font-size="129.23" y="-1059.17" x="361.35" font-family="&apos;Gentium Book Basic&apos;" line-height="125%">
  <tspan y="-1059.17" x="361.35"/>
 </text>
 <text style="text-anchor:middle" transform="scale(4.0128.2492)" font-size="46.954" y="-4599.43" x="287.13" font-family="Arial"/>
 <text style="word-spacing:0;letter-spacing:0" font-size="129.23" y="-1139.17" x="942.62" font-family="&apos;Gentium Book Basic&apos;" line-height="125%">
  <tspan y="-1139.17" x="942.62"/>
 </text>
 <text style="text-anchor:middle" transform="scale(4.0128.2492)" font-size="46.954" y="-4920.46" x="431.98" font-family="Arial"/>
 <text style="word-spacing:0;letter-spacing:0" font-size="129.23" y="-1611.57" x="553.5" font-family="&apos;Gentium Book Basic&apos;" line-height="125%">
  <tspan y="-1611.57" x="553.5"/>
 </text>
 <text style="text-anchor:middle" transform="scale(4.0128.2492)" font-size="46.954" y="-6816.1" x="335.01" font-family="Arial"/>
 <text style="word-spacing:0;letter-spacing:0" font-size="129.23" y="-1691.58" x="1134.76" font-family="&apos;Gentium Book Basic&apos;" line-height="125%">
  <tspan y="-1691.58" x="1134.76"/>
 </text>
 <text style="text-anchor:middle" transform="scale(4.0128.2492)" font-size="46.954" y="-7137.14" x="479.86" font-family="Arial"/>
 <text style="word-spacing:0;letter-spacing:0" font-size="208.33" y="-276.86" x="-698.04" font-family="&apos;Gentium Book Basic&apos;" line-height="125%">
  <tspan y="-276.86" x="-698.04"/>
 </text>
 <g>
  <path opacity=".25" d="m215.39 109.6l-140.12 46.04 38.842 38.842c-1.663 7.737-2.531 15.74-2.531 24.07 0 31.921 12.942 60.86 33.871 81.79l211.66 211.66h128.88c14.397 0 26-11.603 26-26v-128.88l-145.46-145.46c-20.835-20.835-49.588-33.732-81.37-33.732-0.477 0-0.952 0.011-1.428 0.018l-68.35-68.35"/>
  <path d="m296.61 402.4l140.12-46.04-42.891-24.592c4.291-12.07 6.58-24.772 6.58-38.32 0-63.699-51.53-115.52-115.24-115.52-12.462 0-24.501 2.349-35.743 6 46.23 15.03 79.78 58.28 79.78 109.52 0 0.332 0.002 0.523 0 0.856l-62.62-36.03 30.02 144.12m-69.775-68.34c12.462 0 24.501-2.349 35.743-6.01-46.23-15.04-79.78-58.28-79.78-109.52v-0.856l62.62 36.03-30.02-144.11-140.12 46.04 42.891 24.591c-4.291 12.07-6.58 24.772-6.58 38.32 0 63.698 51.53 115.52 115.24 115.52" fill="#fff"/>
 </g>
</svg>
