<svg xmlns="http://www.w3.org/2000/svg" viewBox="0 0 512 512"><defs><clipPath><path d="m471.95 793.41c0 120.9-98.01 218.91-218.91 218.91-120.9 0-218.91-98.01-218.91-218.91 0-120.9 98.01-218.91 218.91-218.91 120.9 0 218.91 98.01 218.91 218.91"/></clipPath></defs><text x="-477.48" y="106.91" line-height="125%" style="letter-spacing:0;word-spacing:0;font-size:129.23;font-family:&apos;Gentium Book Basic&apos;"><tspan x="-477.48" y="106.91"/></text><text x="78.09" y="79.873" transform="scale(4.0128.2492)" style="font-size:46.954;font-family:Arial;text-anchor:middle"/><text x="103.79" y="26.913" line-height="125%" style="letter-spacing:0;word-spacing:0;font-size:129.23;font-family:&apos;Gentium Book Basic&apos;"><tspan x="103.79" y="26.913"/></text><text x="222.94" y="-241.17" transform="scale(4.0128.2492)" style="font-size:46.954;font-family:Arial;text-anchor:middle"/><text x="-967.79" y="-154.35" line-height="125%" style="letter-spacing:0;word-spacing:0;font-size:129.23;font-family:&apos;Gentium Book Basic&apos;"><tspan x="-967.79" y="-154.35"/></text><text x="-44.1" y="-968.51" transform="scale(4.0128.2492)" style="font-size:46.954;font-family:Arial;text-anchor:middle"/><text x="130.26" y="-370.82" line-height="125%" style="letter-spacing:0;word-spacing:0;font-size:129.23;font-family:&apos;Gentium Book Basic&apos;"><tspan x="130.26" y="-370.82"/></text><text x="229.54" y="-1837.19" transform="scale(4.0128.2492)" style="font-size:46.954;font-family:Arial;text-anchor:middle"/><text x="711.53" y="-450.82" line-height="125%" style="letter-spacing:0;word-spacing:0;font-size:129.23;font-family:&apos;Gentium Book Basic&apos;"><tspan x="711.53" y="-450.82"/></text><text x="374.39" y="-2158.22" transform="scale(4.0128.2492)" style="font-size:46.954;font-family:Arial;text-anchor:middle"/><text x="322.41" y="-923.22" line-height="125%" style="letter-spacing:0;word-spacing:0;font-size:129.23;font-family:&apos;Gentium Book Basic&apos;"><tspan x="322.41" y="-923.22"/></text><text x="277.42" y="-4053.87" transform="scale(4.0128.2492)" style="font-size:46.954;font-family:Arial;text-anchor:middle"/><text x="903.67" y="-1003.23" line-height="125%" style="letter-spacing:0;word-spacing:0;font-size:129.23;font-family:&apos;Gentium Book Basic&apos;"><tspan x="903.67" y="-1003.23"/></text><text x="422.27" y="-4374.9" transform="scale(4.0128.2492)" style="font-size:46.954;font-family:Arial;text-anchor:middle"/><g line-height="125%" style="letter-spacing:0;word-spacing:0;font-family:&apos;Gentium Book Basic&apos;"><text x="-929.13" y="411.49" style="font-size:208.33"><tspan x="-929.13" y="411.49"/></text><text x="-125.14" y="88.17" style="font-size:129.23"><tspan x="-125.14" y="88.17"/></text></g><text x="165.9" y="4.677" transform="scale(4.0128.2492)" style="font-size:46.954;font-family:Arial;text-anchor:middle"/><text x="456.13" y="8.174" line-height="125%" style="letter-spacing:0;word-spacing:0;font-size:129.23;font-family:&apos;Gentium Book Basic&apos;"><tspan x="456.13" y="8.174"/></text><text x="310.75" y="-316.36" transform="scale(4.0128.2492)" style="font-size:46.954;font-family:Arial;text-anchor:middle"/><text x="-615.45" y="-173.09" line-height="125%" style="letter-spacing:0;word-spacing:0;font-size:129.23;font-family:&apos;Gentium Book Basic&apos;"><tspan x="-615.45" y="-173.09"/></text><text x="43.707" y="-1043.71" transform="scale(4.0128.2492)" style="font-size:46.954;font-family:Arial;text-anchor:middle"/><text x="482.6" y="-389.56" line-height="125%" style="letter-spacing:0;word-spacing:0;font-size:129.23;font-family:&apos;Gentium Book Basic&apos;"><tspan x="482.6" y="-389.56"/></text><text x="317.35" y="-1912.38" transform="scale(4.0128.2492)" style="font-size:46.954;font-family:Arial;text-anchor:middle"/><text x="1063.87" y="-469.56" line-height="125%" style="letter-spacing:0;word-spacing:0;font-size:129.23;font-family:&apos;Gentium Book Basic&apos;"><tspan x="1063.87" y="-469.56"/></text><text x="462.19" y="-2233.41" transform="scale(4.0128.2492)" style="font-size:46.954;font-family:Arial;text-anchor:middle"/><text x="674.75" y="-941.96" line-height="125%" style="letter-spacing:0;word-spacing:0;font-size:129.23;font-family:&apos;Gentium Book Basic&apos;"><tspan x="674.75" y="-941.96"/></text><text x="365.22" y="-4129.06" transform="scale(4.0128.2492)" style="font-size:46.954;font-family:Arial;text-anchor:middle"/><text x="1256.01" y="-1021.97" line-height="125%" style="letter-spacing:0;word-spacing:0;font-size:129.23;font-family:&apos;Gentium Book Basic&apos;"><tspan x="1256.01" y="-1021.97"/></text><text x="510.07" y="-4450.1" transform="scale(4.0128.2492)" style="font-size:46.954;font-family:Arial;text-anchor:middle"/><g line-height="125%" style="letter-spacing:0;word-spacing:0;font-family:&apos;Gentium Book Basic&apos;"><text x="-576.79" y="392.75" style="font-size:208.33"><tspan x="-576.79" y="392.75"/></text><text x="-485.28" y="153.26" style="font-size:129.23"><tspan x="-485.28" y="153.26"/></text></g><text x="76.15" y="265.85" transform="scale(4.0128.2492)" style="font-size:46.954;font-family:Arial;text-anchor:middle"/><text x="95.99" y="73.26" line-height="125%" style="letter-spacing:0;word-spacing:0;font-size:129.23;font-family:&apos;Gentium Book Basic&apos;"><tspan x="95.99" y="73.26"/></text><text x="221" y="-55.19" transform="scale(4.0128.2492)" style="font-size:46.954;font-family:Arial;text-anchor:middle"/><text x="-975.59" y="-108" line-height="125%" style="letter-spacing:0;word-spacing:0;font-size:129.23;font-family:&apos;Gentium Book Basic&apos;"><tspan x="-975.59" y="-108"/></text><text x="-46.04" y="-782.53" transform="scale(4.0128.2492)" style="font-size:46.954;font-family:Arial;text-anchor:middle"/><text x="122.46" y="-324.47" line-height="125%" style="letter-spacing:0;word-spacing:0;font-size:129.23;font-family:&apos;Gentium Book Basic&apos;"><tspan x="122.46" y="-324.47"/></text><text x="227.6" y="-1651.21" transform="scale(4.0128.2492)" style="font-size:46.954;font-family:Arial;text-anchor:middle"/><text x="703.73" y="-404.47" line-height="125%" style="letter-spacing:0;word-spacing:0;font-size:129.23;font-family:&apos;Gentium Book Basic&apos;"><tspan x="703.73" y="-404.47"/></text><text x="372.45" y="-1972.24" transform="scale(4.0128.2492)" style="font-size:46.954;font-family:Arial;text-anchor:middle"/><text x="314.61" y="-876.87" line-height="125%" style="letter-spacing:0;word-spacing:0;font-size:129.23;font-family:&apos;Gentium Book Basic&apos;"><tspan x="314.61" y="-876.87"/></text><text x="275.48" y="-3867.89" transform="scale(4.0128.2492)" style="font-size:46.954;font-family:Arial;text-anchor:middle"/><text x="895.87" y="-956.88" line-height="125%" style="letter-spacing:0;word-spacing:0;font-size:129.23;font-family:&apos;Gentium Book Basic&apos;"><tspan x="895.87" y="-956.88"/></text><text x="420.33" y="-4188.93" transform="scale(4.0128.2492)" style="font-size:46.954;font-family:Arial;text-anchor:middle"/><g line-height="125%" style="letter-spacing:0;word-spacing:0;font-family:&apos;Gentium Book Basic&apos;"><text x="-936.93" y="457.84" style="font-size:208.33"><tspan x="-936.93" y="457.84"/></text><text x="-246.39" y="-581.44" style="font-size:129.23"><tspan x="-246.39" y="-581.44"/></text></g><text x="135.68" y="-2682.38" transform="scale(4.0128.2492)" style="font-size:46.954;font-family:Arial;text-anchor:middle"/><text x="334.88" y="-661.44" line-height="125%" style="letter-spacing:0;word-spacing:0;font-size:129.23;font-family:&apos;Gentium Book Basic&apos;"><tspan x="334.88" y="-661.44"/></text><text x="280.53" y="-3003.42" transform="scale(4.0128.2492)" style="font-size:46.954;font-family:Arial;text-anchor:middle"/><text x="-736.7" y="-842.7" line-height="125%" style="letter-spacing:0;word-spacing:0;font-size:129.23;font-family:&apos;Gentium Book Basic&apos;"><tspan x="-736.7" y="-842.7"/></text><text x="13.492" y="-3730.76" transform="scale(4.0128.2492)" style="font-size:46.954;font-family:Arial;text-anchor:middle"/><text x="361.35" y="-1059.17" line-height="125%" style="letter-spacing:0;word-spacing:0;font-size:129.23;font-family:&apos;Gentium Book Basic&apos;"><tspan x="361.35" y="-1059.17"/></text><text x="287.13" y="-4599.43" transform="scale(4.0128.2492)" style="font-size:46.954;font-family:Arial;text-anchor:middle"/><text x="942.62" y="-1139.17" line-height="125%" style="letter-spacing:0;word-spacing:0;font-size:129.23;font-family:&apos;Gentium Book Basic&apos;"><tspan x="942.62" y="-1139.17"/></text><text x="431.98" y="-4920.46" transform="scale(4.0128.2492)" style="font-size:46.954;font-family:Arial;text-anchor:middle"/><text x="553.5" y="-1611.57" line-height="125%" style="letter-spacing:0;word-spacing:0;font-size:129.23;font-family:&apos;Gentium Book Basic&apos;"><tspan x="553.5" y="-1611.57"/></text><text x="335.01" y="-6816.1" transform="scale(4.0128.2492)" style="font-size:46.954;font-family:Arial;text-anchor:middle"/><text x="1134.76" y="-1691.58" line-height="125%" style="letter-spacing:0;word-spacing:0;font-size:129.23;font-family:&apos;Gentium Book Basic&apos;"><tspan x="1134.76" y="-1691.58"/></text><text x="479.86" y="-7137.14" transform="scale(4.0128.2492)" style="font-size:46.954;font-family:Arial;text-anchor:middle"/><text x="-698.04" y="-276.86" line-height="125%" style="letter-spacing:0;word-spacing:0;font-size:208.33;font-family:&apos;Gentium Book Basic&apos;"><tspan x="-698.04" y="-276.86"/></text><path d="m26 0c-14.397 0-26 11.603-26 26v460c0 14.397 11.603 26 26 26h460c14.397 0 26-11.603 26-26v-460c0-14.397-11.603-26-26-26h-460" style="fill:#b59a6e"/><text x="-477.48" y="106.91" line-height="125%" style="letter-spacing:0;word-spacing:0;font-size:129.23;font-family:&apos;Gentium Book Basic&apos;"><tspan x="-477.48" y="106.91"/></text><text x="78.09" y="79.873" transform="scale(4.0128.2492)" style="font-size:46.954;font-family:Arial;text-anchor:middle"/><text x="103.79" y="26.913" line-height="125%" style="letter-spacing:0;word-spacing:0;font-size:129.23;font-family:&apos;Gentium Book Basic&apos;"><tspan x="103.79" y="26.913"/></text><text x="222.94" y="-241.17" transform="scale(4.0128.2492)" style="font-size:46.954;font-family:Arial;text-anchor:middle"/><text x="-967.79" y="-154.35" line-height="125%" style="letter-spacing:0;word-spacing:0;font-size:129.23;font-family:&apos;Gentium Book Basic&apos;"><tspan x="-967.79" y="-154.35"/></text><text x="-44.1" y="-968.51" transform="scale(4.0128.2492)" style="font-size:46.954;font-family:Arial;text-anchor:middle"/><text x="130.26" y="-370.82" line-height="125%" style="letter-spacing:0;word-spacing:0;font-size:129.23;font-family:&apos;Gentium Book Basic&apos;"><tspan x="130.26" y="-370.82"/></text><text x="229.54" y="-1837.19" transform="scale(4.0128.2492)" style="font-size:46.954;font-family:Arial;text-anchor:middle"/><text x="711.53" y="-450.82" line-height="125%" style="letter-spacing:0;word-spacing:0;font-size:129.23;font-family:&apos;Gentium Book Basic&apos;"><tspan x="711.53" y="-450.82"/></text><text x="374.39" y="-2158.22" transform="scale(4.0128.2492)" style="font-size:46.954;font-family:Arial;text-anchor:middle"/><text x="322.41" y="-923.22" line-height="125%" style="letter-spacing:0;word-spacing:0;font-size:129.23;font-family:&apos;Gentium Book Basic&apos;"><tspan x="322.41" y="-923.22"/></text><text x="277.42" y="-4053.87" transform="scale(4.0128.2492)" style="font-size:46.954;font-family:Arial;text-anchor:middle"/><text x="903.67" y="-1003.23" line-height="125%" style="letter-spacing:0;word-spacing:0;font-size:129.23;font-family:&apos;Gentium Book Basic&apos;"><tspan x="903.67" y="-1003.23"/></text><text x="422.27" y="-4374.9" transform="scale(4.0128.2492)" style="font-size:46.954;font-family:Arial;text-anchor:middle"/><g line-height="125%" style="letter-spacing:0;word-spacing:0;font-family:&apos;Gentium Book Basic&apos;"><text x="-929.13" y="411.49" style="font-size:208.33"><tspan x="-929.13" y="411.49"/></text><text x="-125.14" y="88.17" style="font-size:129.23"><tspan x="-125.14" y="88.17"/></text></g><text x="165.9" y="4.677" transform="scale(4.0128.2492)" style="font-size:46.954;font-family:Arial;text-anchor:middle"/><text x="456.13" y="8.174" line-height="125%" style="letter-spacing:0;word-spacing:0;font-size:129.23;font-family:&apos;Gentium Book Basic&apos;"><tspan x="456.13" y="8.174"/></text><text x="310.75" y="-316.36" transform="scale(4.0128.2492)" style="font-size:46.954;font-family:Arial;text-anchor:middle"/><text x="-615.45" y="-173.09" line-height="125%" style="letter-spacing:0;word-spacing:0;font-size:129.23;font-family:&apos;Gentium Book Basic&apos;"><tspan x="-615.45" y="-173.09"/></text><text x="43.707" y="-1043.71" transform="scale(4.0128.2492)" style="font-size:46.954;font-family:Arial;text-anchor:middle"/><text x="482.6" y="-389.56" line-height="125%" style="letter-spacing:0;word-spacing:0;font-size:129.23;font-family:&apos;Gentium Book Basic&apos;"><tspan x="482.6" y="-389.56"/></text><text x="317.35" y="-1912.38" transform="scale(4.0128.2492)" style="font-size:46.954;font-family:Arial;text-anchor:middle"/><text x="1063.87" y="-469.56" line-height="125%" style="letter-spacing:0;word-spacing:0;font-size:129.23;font-family:&apos;Gentium Book Basic&apos;"><tspan x="1063.87" y="-469.56"/></text><text x="462.19" y="-2233.41" transform="scale(4.0128.2492)" style="font-size:46.954;font-family:Arial;text-anchor:middle"/><text x="674.75" y="-941.96" line-height="125%" style="letter-spacing:0;word-spacing:0;font-size:129.23;font-family:&apos;Gentium Book Basic&apos;"><tspan x="674.75" y="-941.96"/></text><text x="365.22" y="-4129.06" transform="scale(4.0128.2492)" style="font-size:46.954;font-family:Arial;text-anchor:middle"/><text x="1256.01" y="-1021.97" line-height="125%" style="letter-spacing:0;word-spacing:0;font-size:129.23;font-family:&apos;Gentium Book Basic&apos;"><tspan x="1256.01" y="-1021.97"/></text><text x="510.07" y="-4450.1" transform="scale(4.0128.2492)" style="font-size:46.954;font-family:Arial;text-anchor:middle"/><g line-height="125%" style="letter-spacing:0;word-spacing:0;font-family:&apos;Gentium Book Basic&apos;"><text x="-576.79" y="392.75" style="font-size:208.33"><tspan x="-576.79" y="392.75"/></text><text x="-485.28" y="153.26" style="font-size:129.23"><tspan x="-485.28" y="153.26"/></text></g><text x="76.15" y="265.85" transform="scale(4.0128.2492)" style="font-size:46.954;font-family:Arial;text-anchor:middle"/><text x="95.99" y="73.26" line-height="125%" style="letter-spacing:0;word-spacing:0;font-size:129.23;font-family:&apos;Gentium Book Basic&apos;"><tspan x="95.99" y="73.26"/></text><text x="221" y="-55.19" transform="scale(4.0128.2492)" style="font-size:46.954;font-family:Arial;text-anchor:middle"/><text x="-975.59" y="-108" line-height="125%" style="letter-spacing:0;word-spacing:0;font-size:129.23;font-family:&apos;Gentium Book Basic&apos;"><tspan x="-975.59" y="-108"/></text><text x="-46.04" y="-782.53" transform="scale(4.0128.2492)" style="font-size:46.954;font-family:Arial;text-anchor:middle"/><text x="122.46" y="-324.47" line-height="125%" style="letter-spacing:0;word-spacing:0;font-size:129.23;font-family:&apos;Gentium Book Basic&apos;"><tspan x="122.46" y="-324.47"/></text><text x="227.6" y="-1651.21" transform="scale(4.0128.2492)" style="font-size:46.954;font-family:Arial;text-anchor:middle"/><text x="703.73" y="-404.47" line-height="125%" style="letter-spacing:0;word-spacing:0;font-size:129.23;font-family:&apos;Gentium Book Basic&apos;"><tspan x="703.73" y="-404.47"/></text><text x="372.45" y="-1972.24" transform="scale(4.0128.2492)" style="font-size:46.954;font-family:Arial;text-anchor:middle"/><text x="314.61" y="-876.87" line-height="125%" style="letter-spacing:0;word-spacing:0;font-size:129.23;font-family:&apos;Gentium Book Basic&apos;"><tspan x="314.61" y="-876.87"/></text><text x="275.48" y="-3867.89" transform="scale(4.0128.2492)" style="font-size:46.954;font-family:Arial;text-anchor:middle"/><text x="895.87" y="-956.88" line-height="125%" style="letter-spacing:0;word-spacing:0;font-size:129.23;font-family:&apos;Gentium Book Basic&apos;"><tspan x="895.87" y="-956.88"/></text><text x="420.33" y="-4188.93" transform="scale(4.0128.2492)" style="font-size:46.954;font-family:Arial;text-anchor:middle"/><g line-height="125%" style="letter-spacing:0;word-spacing:0;font-family:&apos;Gentium Book Basic&apos;"><text x="-936.93" y="457.84" style="font-size:208.33"><tspan x="-936.93" y="457.84"/></text><text x="-246.39" y="-581.44" style="font-size:129.23"><tspan x="-246.39" y="-581.44"/></text></g><text x="135.68" y="-2682.38" transform="scale(4.0128.2492)" style="font-size:46.954;font-family:Arial;text-anchor:middle"/><text x="334.88" y="-661.44" line-height="125%" style="letter-spacing:0;word-spacing:0;font-size:129.23;font-family:&apos;Gentium Book Basic&apos;"><tspan x="334.88" y="-661.44"/></text><text x="280.53" y="-3003.42" transform="scale(4.0128.2492)" style="font-size:46.954;font-family:Arial;text-anchor:middle"/><text x="-736.7" y="-842.7" line-height="125%" style="letter-spacing:0;word-spacing:0;font-size:129.23;font-family:&apos;Gentium Book Basic&apos;"><tspan x="-736.7" y="-842.7"/></text><text x="13.492" y="-3730.76" transform="scale(4.0128.2492)" style="font-size:46.954;font-family:Arial;text-anchor:middle"/><text x="361.35" y="-1059.17" line-height="125%" style="letter-spacing:0;word-spacing:0;font-size:129.23;font-family:&apos;Gentium Book Basic&apos;"><tspan x="361.35" y="-1059.17"/></text><text x="287.13" y="-4599.43" transform="scale(4.0128.2492)" style="font-size:46.954;font-family:Arial;text-anchor:middle"/><text x="942.62" y="-1139.17" line-height="125%" style="letter-spacing:0;word-spacing:0;font-size:129.23;font-family:&apos;Gentium Book Basic&apos;"><tspan x="942.62" y="-1139.17"/></text><text x="431.98" y="-4920.46" transform="scale(4.0128.2492)" style="font-size:46.954;font-family:Arial;text-anchor:middle"/><text x="553.5" y="-1611.57" line-height="125%" style="letter-spacing:0;word-spacing:0;font-size:129.23;font-family:&apos;Gentium Book Basic&apos;"><tspan x="553.5" y="-1611.57"/></text><text x="335.01" y="-6816.1" transform="scale(4.0128.2492)" style="font-size:46.954;font-family:Arial;text-anchor:middle"/><text x="1134.76" y="-1691.58" line-height="125%" style="letter-spacing:0;word-spacing:0;font-size:129.23;font-family:&apos;Gentium Book Basic&apos;"><tspan x="1134.76" y="-1691.58"/></text><text x="479.86" y="-7137.14" transform="scale(4.0128.2492)" style="font-size:46.954;font-family:Arial;text-anchor:middle"/><text x="-698.04" y="-276.86" line-height="125%" style="letter-spacing:0;word-spacing:0;font-size:208.33;font-family:&apos;Gentium Book Basic&apos;"><tspan x="-698.04" y="-276.86"/></text><path d="m0 356.06v129.94c0 14.397 11.603 26 26 26h460c14.397 0 26-11.603 26-26v-129.94h-512" style="fill:#282629;fill-opacity:.235"/><text x="2766.8" y="-370.38" line-height="125%" style="letter-spacing:0;word-spacing:0;font-size:129.23;font-family:&apos;Gentium Book Basic&apos;"><tspan x="2766.8" y="-370.38"/></text><text x="886.57" y="-1835.44" transform="scale(4.0128.2492)" style="font-size:46.954;font-family:Arial;text-anchor:middle"/><text x="3348.07" y="-450.38" line-height="125%" style="letter-spacing:0;word-spacing:0;font-size:129.23;font-family:&apos;Gentium Book Basic&apos;"><tspan x="3348.07" y="-450.38"/></text><text x="1031.42" y="-2156.47" transform="scale(4.0128.2492)" style="font-size:46.954;font-family:Arial;text-anchor:middle"/><text x="2276.49" y="-631.64" line-height="125%" style="letter-spacing:0;word-spacing:0;font-size:129.23;font-family:&apos;Gentium Book Basic&apos;"><tspan x="2276.49" y="-631.64"/></text><text x="764.38" y="-2883.83" transform="scale(4.0128.2492)" style="font-size:46.954;font-family:Arial;text-anchor:middle"/><text x="3374.54" y="-848.11" line-height="125%" style="letter-spacing:0;word-spacing:0;font-size:129.23;font-family:&apos;Gentium Book Basic&apos;"><tspan x="3374.54" y="-848.11"/></text><text x="1038.02" y="-3752.49" transform="scale(4.0128.2492)" style="font-size:46.954;font-family:Arial;text-anchor:middle"/><text x="3955.81" y="-928.12" line-height="125%" style="letter-spacing:0;word-spacing:0;font-size:129.23;font-family:&apos;Gentium Book Basic&apos;"><tspan x="3955.81" y="-928.12"/></text><text x="1182.87" y="-4073.53" transform="scale(4.0128.2492)" style="font-size:46.954;font-family:Arial;text-anchor:middle"/><text x="3566.69" y="-1400.52" line-height="125%" style="letter-spacing:0;word-spacing:0;font-size:129.23;font-family:&apos;Gentium Book Basic&apos;"><tspan x="3566.69" y="-1400.52"/></text><text x="1085.9" y="-5969.18" transform="scale(4.0128.2492)" style="font-size:46.954;font-family:Arial;text-anchor:middle"/><text x="4147.95" y="-1480.52" line-height="125%" style="letter-spacing:0;word-spacing:0;font-size:129.23;font-family:&apos;Gentium Book Basic&apos;"><tspan x="4147.95" y="-1480.52"/></text><text x="1230.75" y="-6290.21" transform="scale(4.0128.2492)" style="font-size:46.954;font-family:Arial;text-anchor:middle"/><text x="2315.15" y="-65.803" line-height="125%" style="letter-spacing:0;word-spacing:0;font-size:208.33;font-family:&apos;Gentium Book Basic&apos;"><tspan x="2315.15" y="-65.803"/></text><path d="m256.46 0v29.24l29.51 29.51h-.133l-29.377-29.377h-29.641v29.377l29.508 29.508h-29.508v29.25l29.508 29.508h-29.508v29.377l29.508 29.508h-29.508v29.377l4.611 4.611h-2.766c-5.997 0-10.803 4.936-10.803 10.934v48.08c-17.02 12.03-28.19 31.864-28.19 54.27 0 18.304 7.413 34.87 19.402 46.859l111.96 111.96h164.96c14.397 0 26-11.603 26-26v-260.1l-225.9-225.9h-29.641" style="opacity:.25"/><path d="m256.46 0v29.25h29.64v-29.25h-29.64m-29.64 29.377v29.377h29.64v-29.377h-29.64m29.64 29.377v29.377h29.64v-29.377h-29.64m-29.64 29.509v29.25h29.64v-29.25h-29.64m29.64 29.377v29.25h29.64v-29.25h-29.64m-29.64 29.377v29.377h29.64v-29.377h-29.64m29.64 29.377v29.377h29.64v-29.377h-29.64m-29.64 29.509v29.377h29.64v-29.377h-29.64m1.844 33.987c-5.997 0-10.802 4.937-10.802 10.934v48.08c-17.02 12.03-28.19 31.865-28.19 54.27 0 36.608 29.654 66.26 66.26 66.26 36.608 0 66.39-29.654 66.39-66.26 0-22.402-11.146-42.24-28.19-54.27v-48.08c0-5.997-4.805-10.934-10.802-10.934h-54.67m27.27 76.8c20.09 0 36.36 16.401 36.36 36.49 0 20.09-16.269 36.36-36.36 36.36-20.09 0-36.36-16.269-36.36-36.36 0-20.09 16.269-36.49 36.36-36.49" style="fill:#fff"/></svg>