<?xml version="1.0" encoding="UTF-8" standalone="no"?>
<svg xmlns="http://www.w3.org/2000/svg" viewBox="0 0 512 512">
 <text style="word-spacing:0;letter-spacing:0" font-size="129.23" y="106.91" x="-477.48" font-family="&apos;Gentium Book Basic&apos;" line-height="125%">
  <tspan y="106.91" x="-477.48"/>
 </text>
 <text style="text-anchor:middle" transform="scale(4.0128.2492)" font-size="46.954" y="79.873" x="78.09" font-family="Arial"/>
 <text style="word-spacing:0;letter-spacing:0" font-size="129.23" y="26.913" x="103.79" font-family="&apos;Gentium Book Basic&apos;" line-height="125%">
  <tspan y="26.913" x="103.79"/>
 </text>
 <text style="text-anchor:middle" transform="scale(4.0128.2492)" font-size="46.954" y="-241.17" x="222.94" font-family="Arial"/>
 <text style="word-spacing:0;letter-spacing:0" font-size="129.23" y="-154.35" x="-967.79" font-family="&apos;Gentium Book Basic&apos;" line-height="125%">
  <tspan y="-154.35" x="-967.79"/>
 </text>
 <text style="text-anchor:middle" transform="scale(4.0128.2492)" font-size="46.954" y="-968.51" x="-44.1" font-family="Arial"/>
 <text style="word-spacing:0;letter-spacing:0" font-size="129.23" y="-370.82" x="130.26" font-family="&apos;Gentium Book Basic&apos;" line-height="125%">
  <tspan y="-370.82" x="130.26"/>
 </text>
 <text style="text-anchor:middle" transform="scale(4.0128.2492)" font-size="46.954" y="-1837.19" x="229.54" font-family="Arial"/>
 <text style="word-spacing:0;letter-spacing:0" font-size="129.23" y="-450.82" x="711.53" font-family="&apos;Gentium Book Basic&apos;" line-height="125%">
  <tspan y="-450.82" x="711.53"/>
 </text>
 <text style="text-anchor:middle" transform="scale(4.0128.2492)" font-size="46.954" y="-2158.22" x="374.39" font-family="Arial"/>
 <text style="word-spacing:0;letter-spacing:0" font-size="129.23" y="-923.22" x="322.41" font-family="&apos;Gentium Book Basic&apos;" line-height="125%">
  <tspan y="-923.22" x="322.41"/>
 </text>
 <text style="text-anchor:middle" transform="scale(4.0128.2492)" font-size="46.954" y="-4053.87" x="277.42" font-family="Arial"/>
 <text style="word-spacing:0;letter-spacing:0" font-size="129.23" y="-1003.23" x="903.67" font-family="&apos;Gentium Book Basic&apos;" line-height="125%">
  <tspan y="-1003.23" x="903.67"/>
 </text>
 <text style="text-anchor:middle" transform="scale(4.0128.2492)" font-size="46.954" y="-4374.9" x="422.27" font-family="Arial"/>
 <g style="word-spacing:0;letter-spacing:0" font-family="&apos;Gentium Book Basic&apos;" line-height="125%">
  <text y="411.49" x="-929.13" font-size="208.33">
   <tspan y="411.49" x="-929.13"/>
  </text>
  <text y="88.17" x="-125.14" font-size="129.23">
   <tspan y="88.17" x="-125.14"/>
  </text>
 </g>
 <text style="text-anchor:middle" transform="scale(4.0128.2492)" font-size="46.954" y="4.677" x="165.9" font-family="Arial"/>
 <text style="word-spacing:0;letter-spacing:0" font-size="129.23" y="8.174" x="456.13" font-family="&apos;Gentium Book Basic&apos;" line-height="125%">
  <tspan y="8.174" x="456.13"/>
 </text>
 <text style="text-anchor:middle" transform="scale(4.0128.2492)" font-size="46.954" y="-316.36" x="310.75" font-family="Arial"/>
 <text style="word-spacing:0;letter-spacing:0" font-size="129.23" y="-173.09" x="-615.45" font-family="&apos;Gentium Book Basic&apos;" line-height="125%">
  <tspan y="-173.09" x="-615.45"/>
 </text>
 <text style="text-anchor:middle" transform="scale(4.0128.2492)" font-size="46.954" y="-1043.71" x="43.707" font-family="Arial"/>
 <text style="word-spacing:0;letter-spacing:0" font-size="129.23" y="-389.56" x="482.6" font-family="&apos;Gentium Book Basic&apos;" line-height="125%">
  <tspan y="-389.56" x="482.6"/>
 </text>
 <text style="text-anchor:middle" transform="scale(4.0128.2492)" font-size="46.954" y="-1912.38" x="317.35" font-family="Arial"/>
 <text style="word-spacing:0;letter-spacing:0" font-size="129.23" y="-469.56" x="1063.87" font-family="&apos;Gentium Book Basic&apos;" line-height="125%">
  <tspan y="-469.56" x="1063.87"/>
 </text>
 <text style="text-anchor:middle" transform="scale(4.0128.2492)" font-size="46.954" y="-2233.41" x="462.19" font-family="Arial"/>
 <text style="word-spacing:0;letter-spacing:0" font-size="129.23" y="-941.96" x="674.75" font-family="&apos;Gentium Book Basic&apos;" line-height="125%">
  <tspan y="-941.96" x="674.75"/>
 </text>
 <text style="text-anchor:middle" transform="scale(4.0128.2492)" font-size="46.954" y="-4129.06" x="365.22" font-family="Arial"/>
 <text style="word-spacing:0;letter-spacing:0" font-size="129.23" y="-1021.97" x="1256.01" font-family="&apos;Gentium Book Basic&apos;" line-height="125%">
  <tspan y="-1021.97" x="1256.01"/>
 </text>
 <text style="text-anchor:middle" transform="scale(4.0128.2492)" font-size="46.954" y="-4450.1" x="510.07" font-family="Arial"/>
 <g style="word-spacing:0;letter-spacing:0" font-family="&apos;Gentium Book Basic&apos;" line-height="125%">
  <text y="392.75" x="-576.79" font-size="208.33">
   <tspan y="392.75" x="-576.79"/>
  </text>
  <text y="153.26" x="-485.28" font-size="129.23">
   <tspan y="153.26" x="-485.28"/>
  </text>
 </g>
 <text style="text-anchor:middle" transform="scale(4.0128.2492)" font-size="46.954" y="265.85" x="76.15" font-family="Arial"/>
 <text style="word-spacing:0;letter-spacing:0" font-size="129.23" y="73.26" x="95.99" font-family="&apos;Gentium Book Basic&apos;" line-height="125%">
  <tspan y="73.26" x="95.99"/>
 </text>
 <text style="text-anchor:middle" transform="scale(4.0128.2492)" font-size="46.954" y="-55.19" x="221" font-family="Arial"/>
 <text style="word-spacing:0;letter-spacing:0" font-size="129.23" y="-108" x="-975.59" font-family="&apos;Gentium Book Basic&apos;" line-height="125%">
  <tspan y="-108" x="-975.59"/>
 </text>
 <text style="text-anchor:middle" transform="scale(4.0128.2492)" font-size="46.954" y="-782.53" x="-46.04" font-family="Arial"/>
 <text style="word-spacing:0;letter-spacing:0" font-size="129.23" y="-324.47" x="122.46" font-family="&apos;Gentium Book Basic&apos;" line-height="125%">
  <tspan y="-324.47" x="122.46"/>
 </text>
 <text style="text-anchor:middle" transform="scale(4.0128.2492)" font-size="46.954" y="-1651.21" x="227.6" font-family="Arial"/>
 <text style="word-spacing:0;letter-spacing:0" font-size="129.23" y="-404.47" x="703.73" font-family="&apos;Gentium Book Basic&apos;" line-height="125%">
  <tspan y="-404.47" x="703.73"/>
 </text>
 <text style="text-anchor:middle" transform="scale(4.0128.2492)" font-size="46.954" y="-1972.24" x="372.45" font-family="Arial"/>
 <text style="word-spacing:0;letter-spacing:0" font-size="129.23" y="-876.87" x="314.61" font-family="&apos;Gentium Book Basic&apos;" line-height="125%">
  <tspan y="-876.87" x="314.61"/>
 </text>
 <text style="text-anchor:middle" transform="scale(4.0128.2492)" font-size="46.954" y="-3867.89" x="275.48" font-family="Arial"/>
 <text style="word-spacing:0;letter-spacing:0" font-size="129.23" y="-956.88" x="895.87" font-family="&apos;Gentium Book Basic&apos;" line-height="125%">
  <tspan y="-956.88" x="895.87"/>
 </text>
 <text style="text-anchor:middle" transform="scale(4.0128.2492)" font-size="46.954" y="-4188.93" x="420.33" font-family="Arial"/>
 <g style="word-spacing:0;letter-spacing:0" font-family="&apos;Gentium Book Basic&apos;" line-height="125%">
  <text y="457.84" x="-936.93" font-size="208.33">
   <tspan y="457.84" x="-936.93"/>
  </text>
  <text y="-581.44" x="-246.39" font-size="129.23">
   <tspan y="-581.44" x="-246.39"/>
  </text>
 </g>
 <text style="text-anchor:middle" transform="scale(4.0128.2492)" font-size="46.954" y="-2682.38" x="135.68" font-family="Arial"/>
 <text style="word-spacing:0;letter-spacing:0" font-size="129.23" y="-661.44" x="334.88" font-family="&apos;Gentium Book Basic&apos;" line-height="125%">
  <tspan y="-661.44" x="334.88"/>
 </text>
 <text style="text-anchor:middle" transform="scale(4.0128.2492)" font-size="46.954" y="-3003.42" x="280.53" font-family="Arial"/>
 <text style="word-spacing:0;letter-spacing:0" font-size="129.23" y="-842.7" x="-736.7" font-family="&apos;Gentium Book Basic&apos;" line-height="125%">
  <tspan y="-842.7" x="-736.7"/>
 </text>
 <text style="text-anchor:middle" transform="scale(4.0128.2492)" font-size="46.954" y="-3730.76" x="13.492" font-family="Arial"/>
 <text style="word-spacing:0;letter-spacing:0" font-size="129.23" y="-1059.17" x="361.35" font-family="&apos;Gentium Book Basic&apos;" line-height="125%">
  <tspan y="-1059.17" x="361.35"/>
 </text>
 <text style="text-anchor:middle" transform="scale(4.0128.2492)" font-size="46.954" y="-4599.43" x="287.13" font-family="Arial"/>
 <text style="word-spacing:0;letter-spacing:0" font-size="129.23" y="-1139.17" x="942.62" font-family="&apos;Gentium Book Basic&apos;" line-height="125%">
  <tspan y="-1139.17" x="942.62"/>
 </text>
 <text style="text-anchor:middle" transform="scale(4.0128.2492)" font-size="46.954" y="-4920.46" x="431.98" font-family="Arial"/>
 <text style="word-spacing:0;letter-spacing:0" font-size="129.23" y="-1611.57" x="553.5" font-family="&apos;Gentium Book Basic&apos;" line-height="125%">
  <tspan y="-1611.57" x="553.5"/>
 </text>
 <text style="text-anchor:middle" transform="scale(4.0128.2492)" font-size="46.954" y="-6816.1" x="335.01" font-family="Arial"/>
 <text style="word-spacing:0;letter-spacing:0" font-size="129.23" y="-1691.58" x="1134.76" font-family="&apos;Gentium Book Basic&apos;" line-height="125%">
  <tspan y="-1691.58" x="1134.76"/>
 </text>
 <text style="text-anchor:middle" transform="scale(4.0128.2492)" font-size="46.954" y="-7137.14" x="479.86" font-family="Arial"/>
 <g style="word-spacing:0;letter-spacing:0" font-family="&apos;Gentium Book Basic&apos;" line-height="125%">
  <text y="-276.86" x="-698.04" font-size="208.33">
   <tspan y="-276.86" x="-698.04"/>
  </text>
  <text y="106.91" x="-477.48" font-size="129.23">
   <tspan y="106.91" x="-477.48"/>
  </text>
 </g>
 <text style="text-anchor:middle" transform="scale(4.0128.2492)" font-size="46.954" y="79.873" x="78.09" font-family="Arial"/>
 <text style="word-spacing:0;letter-spacing:0" font-size="129.23" y="26.913" x="103.79" font-family="&apos;Gentium Book Basic&apos;" line-height="125%">
  <tspan y="26.913" x="103.79"/>
 </text>
 <text style="text-anchor:middle" transform="scale(4.0128.2492)" font-size="46.954" y="-241.17" x="222.94" font-family="Arial"/>
 <text style="word-spacing:0;letter-spacing:0" font-size="129.23" y="-154.35" x="-967.79" font-family="&apos;Gentium Book Basic&apos;" line-height="125%">
  <tspan y="-154.35" x="-967.79"/>
 </text>
 <text style="text-anchor:middle" transform="scale(4.0128.2492)" font-size="46.954" y="-968.51" x="-44.1" font-family="Arial"/>
 <text style="word-spacing:0;letter-spacing:0" font-size="129.23" y="-370.82" x="130.26" font-family="&apos;Gentium Book Basic&apos;" line-height="125%">
  <tspan y="-370.82" x="130.26"/>
 </text>
 <text style="text-anchor:middle" transform="scale(4.0128.2492)" font-size="46.954" y="-1837.19" x="229.54" font-family="Arial"/>
 <text style="word-spacing:0;letter-spacing:0" font-size="129.23" y="-450.82" x="711.53" font-family="&apos;Gentium Book Basic&apos;" line-height="125%">
  <tspan y="-450.82" x="711.53"/>
 </text>
 <text style="text-anchor:middle" transform="scale(4.0128.2492)" font-size="46.954" y="-2158.22" x="374.39" font-family="Arial"/>
 <text style="word-spacing:0;letter-spacing:0" font-size="129.23" y="-923.22" x="322.41" font-family="&apos;Gentium Book Basic&apos;" line-height="125%">
  <tspan y="-923.22" x="322.41"/>
 </text>
 <text style="text-anchor:middle" transform="scale(4.0128.2492)" font-size="46.954" y="-4053.87" x="277.42" font-family="Arial"/>
 <text style="word-spacing:0;letter-spacing:0" font-size="129.23" y="-1003.23" x="903.67" font-family="&apos;Gentium Book Basic&apos;" line-height="125%">
  <tspan y="-1003.23" x="903.67"/>
 </text>
 <text style="text-anchor:middle" transform="scale(4.0128.2492)" font-size="46.954" y="-4374.9" x="422.27" font-family="Arial"/>
 <g style="word-spacing:0;letter-spacing:0" font-family="&apos;Gentium Book Basic&apos;" line-height="125%">
  <text y="411.49" x="-929.13" font-size="208.33">
   <tspan y="411.49" x="-929.13"/>
  </text>
  <text y="88.17" x="-125.14" font-size="129.23">
   <tspan y="88.17" x="-125.14"/>
  </text>
 </g>
 <text style="text-anchor:middle" transform="scale(4.0128.2492)" font-size="46.954" y="4.677" x="165.9" font-family="Arial"/>
 <text style="word-spacing:0;letter-spacing:0" font-size="129.23" y="8.174" x="456.13" font-family="&apos;Gentium Book Basic&apos;" line-height="125%">
  <tspan y="8.174" x="456.13"/>
 </text>
 <text style="text-anchor:middle" transform="scale(4.0128.2492)" font-size="46.954" y="-316.36" x="310.75" font-family="Arial"/>
 <text style="word-spacing:0;letter-spacing:0" font-size="129.23" y="-173.09" x="-615.45" font-family="&apos;Gentium Book Basic&apos;" line-height="125%">
  <tspan y="-173.09" x="-615.45"/>
 </text>
 <text style="text-anchor:middle" transform="scale(4.0128.2492)" font-size="46.954" y="-1043.71" x="43.707" font-family="Arial"/>
 <text style="word-spacing:0;letter-spacing:0" font-size="129.23" y="-389.56" x="482.6" font-family="&apos;Gentium Book Basic&apos;" line-height="125%">
  <tspan y="-389.56" x="482.6"/>
 </text>
 <text style="text-anchor:middle" transform="scale(4.0128.2492)" font-size="46.954" y="-1912.38" x="317.35" font-family="Arial"/>
 <text style="word-spacing:0;letter-spacing:0" font-size="129.23" y="-469.56" x="1063.87" font-family="&apos;Gentium Book Basic&apos;" line-height="125%">
  <tspan y="-469.56" x="1063.87"/>
 </text>
 <text style="text-anchor:middle" transform="scale(4.0128.2492)" font-size="46.954" y="-2233.41" x="462.19" font-family="Arial"/>
 <text style="word-spacing:0;letter-spacing:0" font-size="129.23" y="-941.96" x="674.75" font-family="&apos;Gentium Book Basic&apos;" line-height="125%">
  <tspan y="-941.96" x="674.75"/>
 </text>
 <text style="text-anchor:middle" transform="scale(4.0128.2492)" font-size="46.954" y="-4129.06" x="365.22" font-family="Arial"/>
 <text style="word-spacing:0;letter-spacing:0" font-size="129.23" y="-1021.97" x="1256.01" font-family="&apos;Gentium Book Basic&apos;" line-height="125%">
  <tspan y="-1021.97" x="1256.01"/>
 </text>
 <text style="text-anchor:middle" transform="scale(4.0128.2492)" font-size="46.954" y="-4450.1" x="510.07" font-family="Arial"/>
 <g style="word-spacing:0;letter-spacing:0" font-family="&apos;Gentium Book Basic&apos;" line-height="125%">
  <text y="392.75" x="-576.79" font-size="208.33">
   <tspan y="392.75" x="-576.79"/>
  </text>
  <text y="153.26" x="-485.28" font-size="129.23">
   <tspan y="153.26" x="-485.28"/>
  </text>
 </g>
 <text style="text-anchor:middle" transform="scale(4.0128.2492)" font-size="46.954" y="265.85" x="76.15" font-family="Arial"/>
 <text style="word-spacing:0;letter-spacing:0" font-size="129.23" y="73.26" x="95.99" font-family="&apos;Gentium Book Basic&apos;" line-height="125%">
  <tspan y="73.26" x="95.99"/>
 </text>
 <text style="text-anchor:middle" transform="scale(4.0128.2492)" font-size="46.954" y="-55.19" x="221" font-family="Arial"/>
 <text style="word-spacing:0;letter-spacing:0" font-size="129.23" y="-108" x="-975.59" font-family="&apos;Gentium Book Basic&apos;" line-height="125%">
  <tspan y="-108" x="-975.59"/>
 </text>
 <text style="text-anchor:middle" transform="scale(4.0128.2492)" font-size="46.954" y="-782.53" x="-46.04" font-family="Arial"/>
 <text style="word-spacing:0;letter-spacing:0" font-size="129.23" y="-324.47" x="122.46" font-family="&apos;Gentium Book Basic&apos;" line-height="125%">
  <tspan y="-324.47" x="122.46"/>
 </text>
 <text style="text-anchor:middle" transform="scale(4.0128.2492)" font-size="46.954" y="-1651.21" x="227.6" font-family="Arial"/>
 <text style="word-spacing:0;letter-spacing:0" font-size="129.23" y="-404.47" x="703.73" font-family="&apos;Gentium Book Basic&apos;" line-height="125%">
  <tspan y="-404.47" x="703.73"/>
 </text>
 <text style="text-anchor:middle" transform="scale(4.0128.2492)" font-size="46.954" y="-1972.24" x="372.45" font-family="Arial"/>
 <text style="word-spacing:0;letter-spacing:0" font-size="129.23" y="-876.87" x="314.61" font-family="&apos;Gentium Book Basic&apos;" line-height="125%">
  <tspan y="-876.87" x="314.61"/>
 </text>
 <text style="text-anchor:middle" transform="scale(4.0128.2492)" font-size="46.954" y="-3867.89" x="275.48" font-family="Arial"/>
 <text style="word-spacing:0;letter-spacing:0" font-size="129.23" y="-956.88" x="895.87" font-family="&apos;Gentium Book Basic&apos;" line-height="125%">
  <tspan y="-956.88" x="895.87"/>
 </text>
 <text style="text-anchor:middle" transform="scale(4.0128.2492)" font-size="46.954" y="-4188.93" x="420.33" font-family="Arial"/>
 <g style="word-spacing:0;letter-spacing:0" font-family="&apos;Gentium Book Basic&apos;" line-height="125%">
  <text y="457.84" x="-936.93" font-size="208.33">
   <tspan y="457.84" x="-936.93"/>
  </text>
  <text y="-581.44" x="-246.39" font-size="129.23">
   <tspan y="-581.44" x="-246.39"/>
  </text>
 </g>
 <text style="text-anchor:middle" transform="scale(4.0128.2492)" font-size="46.954" y="-2682.38" x="135.68" font-family="Arial"/>
 <text style="word-spacing:0;letter-spacing:0" font-size="129.23" y="-661.44" x="334.88" font-family="&apos;Gentium Book Basic&apos;" line-height="125%">
  <tspan y="-661.44" x="334.88"/>
 </text>
 <text style="text-anchor:middle" transform="scale(4.0128.2492)" font-size="46.954" y="-3003.42" x="280.53" font-family="Arial"/>
 <text style="word-spacing:0;letter-spacing:0" font-size="129.23" y="-842.7" x="-736.7" font-family="&apos;Gentium Book Basic&apos;" line-height="125%">
  <tspan y="-842.7" x="-736.7"/>
 </text>
 <text style="text-anchor:middle" transform="scale(4.0128.2492)" font-size="46.954" y="-3730.76" x="13.492" font-family="Arial"/>
 <text style="word-spacing:0;letter-spacing:0" font-size="129.23" y="-1059.17" x="361.35" font-family="&apos;Gentium Book Basic&apos;" line-height="125%">
  <tspan y="-1059.17" x="361.35"/>
 </text>
 <text style="text-anchor:middle" transform="scale(4.0128.2492)" font-size="46.954" y="-4599.43" x="287.13" font-family="Arial"/>
 <text style="word-spacing:0;letter-spacing:0" font-size="129.23" y="-1139.17" x="942.62" font-family="&apos;Gentium Book Basic&apos;" line-height="125%">
  <tspan y="-1139.17" x="942.62"/>
 </text>
 <text style="text-anchor:middle" transform="scale(4.0128.2492)" font-size="46.954" y="-4920.46" x="431.98" font-family="Arial"/>
 <text style="word-spacing:0;letter-spacing:0" font-size="129.23" y="-1611.57" x="553.5" font-family="&apos;Gentium Book Basic&apos;" line-height="125%">
  <tspan y="-1611.57" x="553.5"/>
 </text>
 <text style="text-anchor:middle" transform="scale(4.0128.2492)" font-size="46.954" y="-6816.1" x="335.01" font-family="Arial"/>
 <text style="word-spacing:0;letter-spacing:0" font-size="129.23" y="-1691.58" x="1134.76" font-family="&apos;Gentium Book Basic&apos;" line-height="125%">
  <tspan y="-1691.58" x="1134.76"/>
 </text>
 <text style="text-anchor:middle" transform="scale(4.0128.2492)" font-size="46.954" y="-7137.14" x="479.86" font-family="Arial"/>
 <g style="word-spacing:0;letter-spacing:0" font-family="&apos;Gentium Book Basic&apos;" line-height="125%">
  <text y="-276.86" x="-698.04" font-size="208.33">
   <tspan y="-276.86" x="-698.04"/>
  </text>
  <text y="-370.38" x="2766.8" font-size="129.23">
   <tspan y="-370.38" x="2766.8"/>
  </text>
 </g>
 <text style="text-anchor:middle" transform="scale(4.0128.2492)" font-size="46.954" y="-1835.44" x="886.57" font-family="Arial"/>
 <text style="word-spacing:0;letter-spacing:0" font-size="129.23" y="-450.38" x="3348.07" font-family="&apos;Gentium Book Basic&apos;" line-height="125%">
  <tspan y="-450.38" x="3348.07"/>
 </text>
 <text style="text-anchor:middle" transform="scale(4.0128.2492)" font-size="46.954" y="-2156.47" x="1031.42" font-family="Arial"/>
 <text style="word-spacing:0;letter-spacing:0" font-size="129.23" y="-631.64" x="2276.49" font-family="&apos;Gentium Book Basic&apos;" line-height="125%">
  <tspan y="-631.64" x="2276.49"/>
 </text>
 <text style="text-anchor:middle" transform="scale(4.0128.2492)" font-size="46.954" y="-2883.83" x="764.38" font-family="Arial"/>
 <text style="word-spacing:0;letter-spacing:0" font-size="129.23" y="-848.11" x="3374.54" font-family="&apos;Gentium Book Basic&apos;" line-height="125%">
  <tspan y="-848.11" x="3374.54"/>
 </text>
 <text style="text-anchor:middle" transform="scale(4.0128.2492)" font-size="46.954" y="-3752.49" x="1038.02" font-family="Arial"/>
 <text style="word-spacing:0;letter-spacing:0" font-size="129.23" y="-928.12" x="3955.81" font-family="&apos;Gentium Book Basic&apos;" line-height="125%">
  <tspan y="-928.12" x="3955.81"/>
 </text>
 <text style="text-anchor:middle" transform="scale(4.0128.2492)" font-size="46.954" y="-4073.53" x="1182.87" font-family="Arial"/>
 <text style="word-spacing:0;letter-spacing:0" font-size="129.23" y="-1400.52" x="3566.69" font-family="&apos;Gentium Book Basic&apos;" line-height="125%">
  <tspan y="-1400.52" x="3566.69"/>
 </text>
 <text style="text-anchor:middle" transform="scale(4.0128.2492)" font-size="46.954" y="-5969.18" x="1085.9" font-family="Arial"/>
 <text style="word-spacing:0;letter-spacing:0" font-size="129.23" y="-1480.52" x="4147.95" font-family="&apos;Gentium Book Basic&apos;" line-height="125%">
  <tspan y="-1480.52" x="4147.95"/>
 </text>
 <text style="text-anchor:middle" transform="scale(4.0128.2492)" font-size="46.954" y="-6290.21" x="1230.75" font-family="Arial"/>
 <g style="word-spacing:0;letter-spacing:0" font-family="&apos;Gentium Book Basic&apos;" line-height="125%">
  <text y="-65.803" x="2315.15" font-size="208.33">
   <tspan y="-65.803" x="2315.15"/>
  </text>
  <text y="172.81" x="9.422" font-size="129.23">
   <tspan y="172.81" x="9.422"/>
  </text>
 </g>
 <text style="text-anchor:middle" transform="scale(4.0128.2492)" font-size="46.954" y="344.32" x="199.43" font-family="Arial"/>
 <text style="word-spacing:0;letter-spacing:0" font-size="129.23" y="92.81" x="590.69" font-family="&apos;Gentium Book Basic&apos;" line-height="125%">
  <tspan y="92.81" x="590.69"/>
 </text>
 <text style="text-anchor:middle" transform="scale(4.0128.2492)" font-size="46.954" y="23.277" x="344.28" font-family="Arial"/>
 <text style="word-spacing:0;letter-spacing:0" font-size="129.23" y="-88.45" x="-480.89" font-family="&apos;Gentium Book Basic&apos;" line-height="125%">
  <tspan y="-88.45" x="-480.89"/>
 </text>
 <text style="text-anchor:middle" transform="scale(4.0128.2492)" font-size="46.954" y="-704.07" x="77.24" font-family="Arial"/>
 <text style="word-spacing:0;letter-spacing:0" font-size="129.23" y="-304.92" x="617.16" font-family="&apos;Gentium Book Basic&apos;" line-height="125%">
  <tspan y="-304.92" x="617.16"/>
 </text>
 <text style="text-anchor:middle" transform="scale(4.0128.2492)" font-size="46.954" y="-1572.74" x="350.88" font-family="Arial"/>
 <text style="word-spacing:0;letter-spacing:0" font-size="129.23" y="-384.92" x="1198.43" font-family="&apos;Gentium Book Basic&apos;" line-height="125%">
  <tspan y="-384.92" x="1198.43"/>
 </text>
 <text style="text-anchor:middle" transform="scale(4.0128.2492)" font-size="46.954" y="-1893.77" x="495.73" font-family="Arial"/>
 <text style="word-spacing:0;letter-spacing:0" font-size="129.23" y="-857.32" x="809.31" font-family="&apos;Gentium Book Basic&apos;" line-height="125%">
  <tspan y="-857.32" x="809.31"/>
 </text>
 <text style="text-anchor:middle" transform="scale(4.0128.2492)" font-size="46.954" y="-3789.42" x="398.76" font-family="Arial"/>
 <text style="word-spacing:0;letter-spacing:0" font-size="129.23" y="-937.33" x="1390.57" font-family="&apos;Gentium Book Basic&apos;" line-height="125%">
  <tspan y="-937.33" x="1390.57"/>
 </text>
 <text style="text-anchor:middle" transform="scale(4.0128.2492)" font-size="46.954" y="-4110.46" x="543.61" font-family="Arial"/>
 <text style="word-spacing:0;letter-spacing:0" font-size="208.33" y="477.39" x="-442.23" font-family="&apos;Gentium Book Basic&apos;" line-height="125%">
  <tspan y="477.39" x="-442.23"/>
 </text>
 <path d="m26 0c-14.397 0-26 11.603-26 26v460c0 14.397 11.603 26 26 26h460c14.397 0 26-11.603 26-26v-460c0-14.397-11.603-26-26-26h-460" fill="#5a8bc0"/>
 <text style="word-spacing:0;letter-spacing:0" font-size="129.23" y="226.42" x="-333.28" font-family="&apos;Gentium Book Basic&apos;" line-height="125%">
  <tspan y="226.42" x="-333.28"/>
 </text>
 <text style="text-anchor:middle" transform="scale(4.0128.2492)" font-size="46.954" y="559.45" x="114.03" font-family="Arial"/>
 <text style="word-spacing:0;letter-spacing:0" font-size="129.23" y="146.42" x="247.99" font-family="&apos;Gentium Book Basic&apos;" line-height="125%">
  <tspan y="146.42" x="247.99"/>
 </text>
 <text style="text-anchor:middle" transform="scale(4.0128.2492)" font-size="46.954" y="238.41" x="258.88" font-family="Arial"/>
 <text style="word-spacing:0;letter-spacing:0" font-size="129.23" y="-34.836" x="-823.59" font-family="&apos;Gentium Book Basic&apos;" line-height="125%">
  <tspan y="-34.836" x="-823.59"/>
 </text>
 <text style="text-anchor:middle" transform="scale(4.0128.2492)" font-size="46.954" y="-488.93" x="-8.162" font-family="Arial"/>
 <text style="word-spacing:0;letter-spacing:0" font-size="129.23" y="-251.31" x="274.46" font-family="&apos;Gentium Book Basic&apos;" line-height="125%">
  <tspan y="-251.31" x="274.46"/>
 </text>
 <text style="text-anchor:middle" transform="scale(4.0128.2492)" font-size="46.954" y="-1357.61" x="265.48" font-family="Arial"/>
 <text style="word-spacing:0;letter-spacing:0" font-size="129.23" y="-331.31" x="855.73" font-family="&apos;Gentium Book Basic&apos;" line-height="125%">
  <tspan y="-331.31" x="855.73"/>
 </text>
 <text style="text-anchor:middle" transform="scale(4.0128.2492)" font-size="46.954" y="-1678.64" x="410.33" font-family="Arial"/>
 <text style="word-spacing:0;letter-spacing:0" font-size="129.23" y="-803.71" x="466.61" font-family="&apos;Gentium Book Basic&apos;" line-height="125%">
  <tspan y="-803.71" x="466.61"/>
 </text>
 <text style="text-anchor:middle" transform="scale(4.0128.2492)" font-size="46.954" y="-3574.29" x="313.36" font-family="Arial"/>
 <text style="word-spacing:0;letter-spacing:0" font-size="129.23" y="-883.72" x="1047.87" font-family="&apos;Gentium Book Basic&apos;" line-height="125%">
  <tspan y="-883.72" x="1047.87"/>
 </text>
 <text style="text-anchor:middle" transform="scale(4.0128.2492)" font-size="46.954" y="-3895.33" x="458.21" font-family="Arial"/>
 <text style="word-spacing:0;letter-spacing:0" font-size="208.33" y="531" x="-784.93" font-family="&apos;Gentium Book Basic&apos;" line-height="125%">
  <tspan y="531" x="-784.93"/>
 </text>
 <path opacity=".25" d="m339.8 41l0.006 0.008c-146.16-0.045-250.54 77.84-284.97 212.69-9.904 38.79-10.831 93.35-2.248 127.43 4.741 18.827 18.583 40.29 35.459 57.17l73.7 73.7h324.25c14.397 0 26-11.603 26-26v-379.84l-46.832-46.832c-6.809-6.809-85.37-18.317-125.37-18.33"/>
 <path d="m339.81 41.01c-146.16-0.045-250.54 77.84-284.97 212.69-9.904 38.79-10.831 93.35-2.248 127.43 7.628 30.29 38.815 67.41 68.3 81.26 28.444 13.362 79.7 10.856 111.18-5.36 21.721-11.188 47.26-35.23 65.886-62.07 9.379-13.52 9.41-12.926 5.707 26.28l-3.805 40.11h111.87v-26.28c0.077-44.26 10.199-120.27 33.372-249.86 12.186-68.15 21.21-124.73 20.06-125.88-6.809-6.809-85.37-18.317-125.37-18.329m-41.498 90.43c6.175-0.291 12.354 0.154 18.501 1.384 9.542 1.909 17.464 6.893 17.464 11.07 0 16.653-27.01 133.52-35.62 154.23-28.09 67.52-77.884 99.53-108.08 69.34-15.05-15.05-18.591-33.02-15.557-79.37 5.41-82.79 63.6-153.84 123.29-156.66" fill="#fff"/>
</svg>
