<svg xmlns="http://www.w3.org/2000/svg" viewBox="0 0 512 512"><defs><clipPath><path d="m471.95 793.41c0 120.9-98.01 218.91-218.91 218.91-120.9 0-218.91-98.01-218.91-218.91 0-120.9 98.01-218.91 218.91-218.91 120.9 0 218.91 98.01 218.91 218.91"/></clipPath></defs><text x="-477.48" y="106.91" line-height="125%" style="letter-spacing:0;word-spacing:0;font-size:129.23;font-family:&apos;Gentium Book Basic&apos;"><tspan x="-477.48" y="106.91"/></text><text x="78.09" y="79.873" transform="scale(4.0128.2492)" style="font-size:46.954;font-family:Arial;text-anchor:middle"/><text x="103.79" y="26.913" line-height="125%" style="letter-spacing:0;word-spacing:0;font-size:129.23;font-family:&apos;Gentium Book Basic&apos;"><tspan x="103.79" y="26.913"/></text><text x="222.94" y="-241.17" transform="scale(4.0128.2492)" style="font-size:46.954;font-family:Arial;text-anchor:middle"/><text x="-967.79" y="-154.35" line-height="125%" style="letter-spacing:0;word-spacing:0;font-size:129.23;font-family:&apos;Gentium Book Basic&apos;"><tspan x="-967.79" y="-154.35"/></text><text x="-44.1" y="-968.51" transform="scale(4.0128.2492)" style="font-size:46.954;font-family:Arial;text-anchor:middle"/><text x="130.26" y="-370.82" line-height="125%" style="letter-spacing:0;word-spacing:0;font-size:129.23;font-family:&apos;Gentium Book Basic&apos;"><tspan x="130.26" y="-370.82"/></text><text x="229.54" y="-1837.19" transform="scale(4.0128.2492)" style="font-size:46.954;font-family:Arial;text-anchor:middle"/><text x="711.53" y="-450.82" line-height="125%" style="letter-spacing:0;word-spacing:0;font-size:129.23;font-family:&apos;Gentium Book Basic&apos;"><tspan x="711.53" y="-450.82"/></text><text x="374.39" y="-2158.22" transform="scale(4.0128.2492)" style="font-size:46.954;font-family:Arial;text-anchor:middle"/><text x="322.41" y="-923.22" line-height="125%" style="letter-spacing:0;word-spacing:0;font-size:129.23;font-family:&apos;Gentium Book Basic&apos;"><tspan x="322.41" y="-923.22"/></text><text x="277.42" y="-4053.87" transform="scale(4.0128.2492)" style="font-size:46.954;font-family:Arial;text-anchor:middle"/><text x="903.67" y="-1003.23" line-height="125%" style="letter-spacing:0;word-spacing:0;font-size:129.23;font-family:&apos;Gentium Book Basic&apos;"><tspan x="903.67" y="-1003.23"/></text><text x="422.27" y="-4374.9" transform="scale(4.0128.2492)" style="font-size:46.954;font-family:Arial;text-anchor:middle"/><g line-height="125%" style="letter-spacing:0;word-spacing:0;font-family:&apos;Gentium Book Basic&apos;"><text x="-929.13" y="411.49" style="font-size:208.33"><tspan x="-929.13" y="411.49"/></text><text x="-125.14" y="88.17" style="font-size:129.23"><tspan x="-125.14" y="88.17"/></text></g><text x="165.9" y="4.677" transform="scale(4.0128.2492)" style="font-size:46.954;font-family:Arial;text-anchor:middle"/><text x="456.13" y="8.174" line-height="125%" style="letter-spacing:0;word-spacing:0;font-size:129.23;font-family:&apos;Gentium Book Basic&apos;"><tspan x="456.13" y="8.174"/></text><text x="310.75" y="-316.36" transform="scale(4.0128.2492)" style="font-size:46.954;font-family:Arial;text-anchor:middle"/><text x="-615.45" y="-173.09" line-height="125%" style="letter-spacing:0;word-spacing:0;font-size:129.23;font-family:&apos;Gentium Book Basic&apos;"><tspan x="-615.45" y="-173.09"/></text><text x="43.707" y="-1043.71" transform="scale(4.0128.2492)" style="font-size:46.954;font-family:Arial;text-anchor:middle"/><text x="482.6" y="-389.56" line-height="125%" style="letter-spacing:0;word-spacing:0;font-size:129.23;font-family:&apos;Gentium Book Basic&apos;"><tspan x="482.6" y="-389.56"/></text><text x="317.35" y="-1912.38" transform="scale(4.0128.2492)" style="font-size:46.954;font-family:Arial;text-anchor:middle"/><text x="1063.87" y="-469.56" line-height="125%" style="letter-spacing:0;word-spacing:0;font-size:129.23;font-family:&apos;Gentium Book Basic&apos;"><tspan x="1063.87" y="-469.56"/></text><text x="462.19" y="-2233.41" transform="scale(4.0128.2492)" style="font-size:46.954;font-family:Arial;text-anchor:middle"/><text x="674.75" y="-941.96" line-height="125%" style="letter-spacing:0;word-spacing:0;font-size:129.23;font-family:&apos;Gentium Book Basic&apos;"><tspan x="674.75" y="-941.96"/></text><text x="365.22" y="-4129.06" transform="scale(4.0128.2492)" style="font-size:46.954;font-family:Arial;text-anchor:middle"/><text x="1256.01" y="-1021.97" line-height="125%" style="letter-spacing:0;word-spacing:0;font-size:129.23;font-family:&apos;Gentium Book Basic&apos;"><tspan x="1256.01" y="-1021.97"/></text><text x="510.07" y="-4450.1" transform="scale(4.0128.2492)" style="font-size:46.954;font-family:Arial;text-anchor:middle"/><g line-height="125%" style="letter-spacing:0;word-spacing:0;font-family:&apos;Gentium Book Basic&apos;"><text x="-576.79" y="392.75" style="font-size:208.33"><tspan x="-576.79" y="392.75"/></text><text x="-485.28" y="153.26" style="font-size:129.23"><tspan x="-485.28" y="153.26"/></text></g><text x="76.15" y="265.85" transform="scale(4.0128.2492)" style="font-size:46.954;font-family:Arial;text-anchor:middle"/><text x="95.99" y="73.26" line-height="125%" style="letter-spacing:0;word-spacing:0;font-size:129.23;font-family:&apos;Gentium Book Basic&apos;"><tspan x="95.99" y="73.26"/></text><text x="221" y="-55.19" transform="scale(4.0128.2492)" style="font-size:46.954;font-family:Arial;text-anchor:middle"/><text x="-975.59" y="-108" line-height="125%" style="letter-spacing:0;word-spacing:0;font-size:129.23;font-family:&apos;Gentium Book Basic&apos;"><tspan x="-975.59" y="-108"/></text><text x="-46.04" y="-782.53" transform="scale(4.0128.2492)" style="font-size:46.954;font-family:Arial;text-anchor:middle"/><text x="122.46" y="-324.47" line-height="125%" style="letter-spacing:0;word-spacing:0;font-size:129.23;font-family:&apos;Gentium Book Basic&apos;"><tspan x="122.46" y="-324.47"/></text><text x="227.6" y="-1651.21" transform="scale(4.0128.2492)" style="font-size:46.954;font-family:Arial;text-anchor:middle"/><text x="703.73" y="-404.47" line-height="125%" style="letter-spacing:0;word-spacing:0;font-size:129.23;font-family:&apos;Gentium Book Basic&apos;"><tspan x="703.73" y="-404.47"/></text><text x="372.45" y="-1972.24" transform="scale(4.0128.2492)" style="font-size:46.954;font-family:Arial;text-anchor:middle"/><text x="314.61" y="-876.87" line-height="125%" style="letter-spacing:0;word-spacing:0;font-size:129.23;font-family:&apos;Gentium Book Basic&apos;"><tspan x="314.61" y="-876.87"/></text><text x="275.48" y="-3867.89" transform="scale(4.0128.2492)" style="font-size:46.954;font-family:Arial;text-anchor:middle"/><text x="895.87" y="-956.88" line-height="125%" style="letter-spacing:0;word-spacing:0;font-size:129.23;font-family:&apos;Gentium Book Basic&apos;"><tspan x="895.87" y="-956.88"/></text><text x="420.33" y="-4188.93" transform="scale(4.0128.2492)" style="font-size:46.954;font-family:Arial;text-anchor:middle"/><g line-height="125%" style="letter-spacing:0;word-spacing:0;font-family:&apos;Gentium Book Basic&apos;"><text x="-936.93" y="457.84" style="font-size:208.33"><tspan x="-936.93" y="457.84"/></text><text x="-246.39" y="-581.44" style="font-size:129.23"><tspan x="-246.39" y="-581.44"/></text></g><text x="135.68" y="-2682.38" transform="scale(4.0128.2492)" style="font-size:46.954;font-family:Arial;text-anchor:middle"/><text x="334.88" y="-661.44" line-height="125%" style="letter-spacing:0;word-spacing:0;font-size:129.23;font-family:&apos;Gentium Book Basic&apos;"><tspan x="334.88" y="-661.44"/></text><text x="280.53" y="-3003.42" transform="scale(4.0128.2492)" style="font-size:46.954;font-family:Arial;text-anchor:middle"/><text x="-736.7" y="-842.7" line-height="125%" style="letter-spacing:0;word-spacing:0;font-size:129.23;font-family:&apos;Gentium Book Basic&apos;"><tspan x="-736.7" y="-842.7"/></text><text x="13.492" y="-3730.76" transform="scale(4.0128.2492)" style="font-size:46.954;font-family:Arial;text-anchor:middle"/><text x="361.35" y="-1059.17" line-height="125%" style="letter-spacing:0;word-spacing:0;font-size:129.23;font-family:&apos;Gentium Book Basic&apos;"><tspan x="361.35" y="-1059.17"/></text><text x="287.13" y="-4599.43" transform="scale(4.0128.2492)" style="font-size:46.954;font-family:Arial;text-anchor:middle"/><text x="942.62" y="-1139.17" line-height="125%" style="letter-spacing:0;word-spacing:0;font-size:129.23;font-family:&apos;Gentium Book Basic&apos;"><tspan x="942.62" y="-1139.17"/></text><text x="431.98" y="-4920.46" transform="scale(4.0128.2492)" style="font-size:46.954;font-family:Arial;text-anchor:middle"/><text x="553.5" y="-1611.57" line-height="125%" style="letter-spacing:0;word-spacing:0;font-size:129.23;font-family:&apos;Gentium Book Basic&apos;"><tspan x="553.5" y="-1611.57"/></text><text x="335.01" y="-6816.1" transform="scale(4.0128.2492)" style="font-size:46.954;font-family:Arial;text-anchor:middle"/><text x="1134.76" y="-1691.58" line-height="125%" style="letter-spacing:0;word-spacing:0;font-size:129.23;font-family:&apos;Gentium Book Basic&apos;"><tspan x="1134.76" y="-1691.58"/></text><text x="479.86" y="-7137.14" transform="scale(4.0128.2492)" style="font-size:46.954;font-family:Arial;text-anchor:middle"/><g line-height="125%" style="letter-spacing:0;word-spacing:0;font-family:&apos;Gentium Book Basic&apos;"><text x="-698.04" y="-276.86" style="font-size:208.33"><tspan x="-698.04" y="-276.86"/></text><text x="-477.48" y="106.91" style="font-size:129.23"><tspan x="-477.48" y="106.91"/></text></g><text x="78.09" y="79.873" transform="scale(4.0128.2492)" style="font-size:46.954;font-family:Arial;text-anchor:middle"/><text x="103.79" y="26.913" line-height="125%" style="letter-spacing:0;word-spacing:0;font-size:129.23;font-family:&apos;Gentium Book Basic&apos;"><tspan x="103.79" y="26.913"/></text><text x="222.94" y="-241.17" transform="scale(4.0128.2492)" style="font-size:46.954;font-family:Arial;text-anchor:middle"/><text x="-967.79" y="-154.35" line-height="125%" style="letter-spacing:0;word-spacing:0;font-size:129.23;font-family:&apos;Gentium Book Basic&apos;"><tspan x="-967.79" y="-154.35"/></text><text x="-44.1" y="-968.51" transform="scale(4.0128.2492)" style="font-size:46.954;font-family:Arial;text-anchor:middle"/><text x="130.26" y="-370.82" line-height="125%" style="letter-spacing:0;word-spacing:0;font-size:129.23;font-family:&apos;Gentium Book Basic&apos;"><tspan x="130.26" y="-370.82"/></text><text x="229.54" y="-1837.19" transform="scale(4.0128.2492)" style="font-size:46.954;font-family:Arial;text-anchor:middle"/><text x="711.53" y="-450.82" line-height="125%" style="letter-spacing:0;word-spacing:0;font-size:129.23;font-family:&apos;Gentium Book Basic&apos;"><tspan x="711.53" y="-450.82"/></text><text x="374.39" y="-2158.22" transform="scale(4.0128.2492)" style="font-size:46.954;font-family:Arial;text-anchor:middle"/><text x="322.41" y="-923.22" line-height="125%" style="letter-spacing:0;word-spacing:0;font-size:129.23;font-family:&apos;Gentium Book Basic&apos;"><tspan x="322.41" y="-923.22"/></text><text x="277.42" y="-4053.87" transform="scale(4.0128.2492)" style="font-size:46.954;font-family:Arial;text-anchor:middle"/><text x="903.67" y="-1003.23" line-height="125%" style="letter-spacing:0;word-spacing:0;font-size:129.23;font-family:&apos;Gentium Book Basic&apos;"><tspan x="903.67" y="-1003.23"/></text><text x="422.27" y="-4374.9" transform="scale(4.0128.2492)" style="font-size:46.954;font-family:Arial;text-anchor:middle"/><g line-height="125%" style="letter-spacing:0;word-spacing:0;font-family:&apos;Gentium Book Basic&apos;"><text x="-929.13" y="411.49" style="font-size:208.33"><tspan x="-929.13" y="411.49"/></text><text x="-125.14" y="88.17" style="font-size:129.23"><tspan x="-125.14" y="88.17"/></text></g><text x="165.9" y="4.677" transform="scale(4.0128.2492)" style="font-size:46.954;font-family:Arial;text-anchor:middle"/><text x="456.13" y="8.174" line-height="125%" style="letter-spacing:0;word-spacing:0;font-size:129.23;font-family:&apos;Gentium Book Basic&apos;"><tspan x="456.13" y="8.174"/></text><text x="310.75" y="-316.36" transform="scale(4.0128.2492)" style="font-size:46.954;font-family:Arial;text-anchor:middle"/><text x="-615.45" y="-173.09" line-height="125%" style="letter-spacing:0;word-spacing:0;font-size:129.23;font-family:&apos;Gentium Book Basic&apos;"><tspan x="-615.45" y="-173.09"/></text><text x="43.707" y="-1043.71" transform="scale(4.0128.2492)" style="font-size:46.954;font-family:Arial;text-anchor:middle"/><text x="482.6" y="-389.56" line-height="125%" style="letter-spacing:0;word-spacing:0;font-size:129.23;font-family:&apos;Gentium Book Basic&apos;"><tspan x="482.6" y="-389.56"/></text><text x="317.35" y="-1912.38" transform="scale(4.0128.2492)" style="font-size:46.954;font-family:Arial;text-anchor:middle"/><text x="1063.87" y="-469.56" line-height="125%" style="letter-spacing:0;word-spacing:0;font-size:129.23;font-family:&apos;Gentium Book Basic&apos;"><tspan x="1063.87" y="-469.56"/></text><text x="462.19" y="-2233.41" transform="scale(4.0128.2492)" style="font-size:46.954;font-family:Arial;text-anchor:middle"/><text x="674.75" y="-941.96" line-height="125%" style="letter-spacing:0;word-spacing:0;font-size:129.23;font-family:&apos;Gentium Book Basic&apos;"><tspan x="674.75" y="-941.96"/></text><text x="365.22" y="-4129.06" transform="scale(4.0128.2492)" style="font-size:46.954;font-family:Arial;text-anchor:middle"/><text x="1256.01" y="-1021.97" line-height="125%" style="letter-spacing:0;word-spacing:0;font-size:129.23;font-family:&apos;Gentium Book Basic&apos;"><tspan x="1256.01" y="-1021.97"/></text><text x="510.07" y="-4450.1" transform="scale(4.0128.2492)" style="font-size:46.954;font-family:Arial;text-anchor:middle"/><g line-height="125%" style="letter-spacing:0;word-spacing:0;font-family:&apos;Gentium Book Basic&apos;"><text x="-576.79" y="392.75" style="font-size:208.33"><tspan x="-576.79" y="392.75"/></text><text x="-485.28" y="153.26" style="font-size:129.23"><tspan x="-485.28" y="153.26"/></text></g><text x="76.15" y="265.85" transform="scale(4.0128.2492)" style="font-size:46.954;font-family:Arial;text-anchor:middle"/><text x="95.99" y="73.26" line-height="125%" style="letter-spacing:0;word-spacing:0;font-size:129.23;font-family:&apos;Gentium Book Basic&apos;"><tspan x="95.99" y="73.26"/></text><text x="221" y="-55.19" transform="scale(4.0128.2492)" style="font-size:46.954;font-family:Arial;text-anchor:middle"/><text x="-975.59" y="-108" line-height="125%" style="letter-spacing:0;word-spacing:0;font-size:129.23;font-family:&apos;Gentium Book Basic&apos;"><tspan x="-975.59" y="-108"/></text><text x="-46.04" y="-782.53" transform="scale(4.0128.2492)" style="font-size:46.954;font-family:Arial;text-anchor:middle"/><text x="122.46" y="-324.47" line-height="125%" style="letter-spacing:0;word-spacing:0;font-size:129.23;font-family:&apos;Gentium Book Basic&apos;"><tspan x="122.46" y="-324.47"/></text><text x="227.6" y="-1651.21" transform="scale(4.0128.2492)" style="font-size:46.954;font-family:Arial;text-anchor:middle"/><text x="703.73" y="-404.47" line-height="125%" style="letter-spacing:0;word-spacing:0;font-size:129.23;font-family:&apos;Gentium Book Basic&apos;"><tspan x="703.73" y="-404.47"/></text><text x="372.45" y="-1972.24" transform="scale(4.0128.2492)" style="font-size:46.954;font-family:Arial;text-anchor:middle"/><text x="314.61" y="-876.87" line-height="125%" style="letter-spacing:0;word-spacing:0;font-size:129.23;font-family:&apos;Gentium Book Basic&apos;"><tspan x="314.61" y="-876.87"/></text><text x="275.48" y="-3867.89" transform="scale(4.0128.2492)" style="font-size:46.954;font-family:Arial;text-anchor:middle"/><text x="895.87" y="-956.88" line-height="125%" style="letter-spacing:0;word-spacing:0;font-size:129.23;font-family:&apos;Gentium Book Basic&apos;"><tspan x="895.87" y="-956.88"/></text><text x="420.33" y="-4188.93" transform="scale(4.0128.2492)" style="font-size:46.954;font-family:Arial;text-anchor:middle"/><g line-height="125%" style="letter-spacing:0;word-spacing:0;font-family:&apos;Gentium Book Basic&apos;"><text x="-936.93" y="457.84" style="font-size:208.33"><tspan x="-936.93" y="457.84"/></text><text x="-246.39" y="-581.44" style="font-size:129.23"><tspan x="-246.39" y="-581.44"/></text></g><text x="135.68" y="-2682.38" transform="scale(4.0128.2492)" style="font-size:46.954;font-family:Arial;text-anchor:middle"/><text x="334.88" y="-661.44" line-height="125%" style="letter-spacing:0;word-spacing:0;font-size:129.23;font-family:&apos;Gentium Book Basic&apos;"><tspan x="334.88" y="-661.44"/></text><text x="280.53" y="-3003.42" transform="scale(4.0128.2492)" style="font-size:46.954;font-family:Arial;text-anchor:middle"/><text x="-736.7" y="-842.7" line-height="125%" style="letter-spacing:0;word-spacing:0;font-size:129.23;font-family:&apos;Gentium Book Basic&apos;"><tspan x="-736.7" y="-842.7"/></text><text x="13.492" y="-3730.76" transform="scale(4.0128.2492)" style="font-size:46.954;font-family:Arial;text-anchor:middle"/><text x="361.35" y="-1059.17" line-height="125%" style="letter-spacing:0;word-spacing:0;font-size:129.23;font-family:&apos;Gentium Book Basic&apos;"><tspan x="361.35" y="-1059.17"/></text><text x="287.13" y="-4599.43" transform="scale(4.0128.2492)" style="font-size:46.954;font-family:Arial;text-anchor:middle"/><text x="942.62" y="-1139.17" line-height="125%" style="letter-spacing:0;word-spacing:0;font-size:129.23;font-family:&apos;Gentium Book Basic&apos;"><tspan x="942.62" y="-1139.17"/></text><text x="431.98" y="-4920.46" transform="scale(4.0128.2492)" style="font-size:46.954;font-family:Arial;text-anchor:middle"/><text x="553.5" y="-1611.57" line-height="125%" style="letter-spacing:0;word-spacing:0;font-size:129.23;font-family:&apos;Gentium Book Basic&apos;"><tspan x="553.5" y="-1611.57"/></text><text x="335.01" y="-6816.1" transform="scale(4.0128.2492)" style="font-size:46.954;font-family:Arial;text-anchor:middle"/><text x="1134.76" y="-1691.58" line-height="125%" style="letter-spacing:0;word-spacing:0;font-size:129.23;font-family:&apos;Gentium Book Basic&apos;"><tspan x="1134.76" y="-1691.58"/></text><text x="479.86" y="-7137.14" transform="scale(4.0128.2492)" style="font-size:46.954;font-family:Arial;text-anchor:middle"/><g line-height="125%" style="letter-spacing:0;word-spacing:0;font-family:&apos;Gentium Book Basic&apos;"><text x="-698.04" y="-276.86" style="font-size:208.33"><tspan x="-698.04" y="-276.86"/></text><text x="2766.8" y="-370.38" style="font-size:129.23"><tspan x="2766.8" y="-370.38"/></text></g><text x="886.57" y="-1835.44" transform="scale(4.0128.2492)" style="font-size:46.954;font-family:Arial;text-anchor:middle"/><text x="3348.07" y="-450.38" line-height="125%" style="letter-spacing:0;word-spacing:0;font-size:129.23;font-family:&apos;Gentium Book Basic&apos;"><tspan x="3348.07" y="-450.38"/></text><text x="1031.42" y="-2156.47" transform="scale(4.0128.2492)" style="font-size:46.954;font-family:Arial;text-anchor:middle"/><text x="2276.49" y="-631.64" line-height="125%" style="letter-spacing:0;word-spacing:0;font-size:129.23;font-family:&apos;Gentium Book Basic&apos;"><tspan x="2276.49" y="-631.64"/></text><text x="764.38" y="-2883.83" transform="scale(4.0128.2492)" style="font-size:46.954;font-family:Arial;text-anchor:middle"/><text x="3374.54" y="-848.11" line-height="125%" style="letter-spacing:0;word-spacing:0;font-size:129.23;font-family:&apos;Gentium Book Basic&apos;"><tspan x="3374.54" y="-848.11"/></text><text x="1038.02" y="-3752.49" transform="scale(4.0128.2492)" style="font-size:46.954;font-family:Arial;text-anchor:middle"/><text x="3955.81" y="-928.12" line-height="125%" style="letter-spacing:0;word-spacing:0;font-size:129.23;font-family:&apos;Gentium Book Basic&apos;"><tspan x="3955.81" y="-928.12"/></text><text x="1182.87" y="-4073.53" transform="scale(4.0128.2492)" style="font-size:46.954;font-family:Arial;text-anchor:middle"/><text x="3566.69" y="-1400.52" line-height="125%" style="letter-spacing:0;word-spacing:0;font-size:129.23;font-family:&apos;Gentium Book Basic&apos;"><tspan x="3566.69" y="-1400.52"/></text><text x="1085.9" y="-5969.18" transform="scale(4.0128.2492)" style="font-size:46.954;font-family:Arial;text-anchor:middle"/><text x="4147.95" y="-1480.52" line-height="125%" style="letter-spacing:0;word-spacing:0;font-size:129.23;font-family:&apos;Gentium Book Basic&apos;"><tspan x="4147.95" y="-1480.52"/></text><text x="1230.75" y="-6290.21" transform="scale(4.0128.2492)" style="font-size:46.954;font-family:Arial;text-anchor:middle"/><g line-height="125%" style="letter-spacing:0;word-spacing:0;font-family:&apos;Gentium Book Basic&apos;"><text x="2315.15" y="-65.803" style="font-size:208.33"><tspan x="2315.15" y="-65.803"/></text><text x="9.422" y="172.81" style="font-size:129.23"><tspan x="9.422" y="172.81"/></text></g><text x="199.43" y="344.32" transform="scale(4.0128.2492)" style="font-size:46.954;font-family:Arial;text-anchor:middle"/><text x="590.69" y="92.81" line-height="125%" style="letter-spacing:0;word-spacing:0;font-size:129.23;font-family:&apos;Gentium Book Basic&apos;"><tspan x="590.69" y="92.81"/></text><text x="344.28" y="23.277" transform="scale(4.0128.2492)" style="font-size:46.954;font-family:Arial;text-anchor:middle"/><text x="-480.89" y="-88.45" line-height="125%" style="letter-spacing:0;word-spacing:0;font-size:129.23;font-family:&apos;Gentium Book Basic&apos;"><tspan x="-480.89" y="-88.45"/></text><text x="77.24" y="-704.07" transform="scale(4.0128.2492)" style="font-size:46.954;font-family:Arial;text-anchor:middle"/><text x="617.16" y="-304.92" line-height="125%" style="letter-spacing:0;word-spacing:0;font-size:129.23;font-family:&apos;Gentium Book Basic&apos;"><tspan x="617.16" y="-304.92"/></text><text x="350.88" y="-1572.74" transform="scale(4.0128.2492)" style="font-size:46.954;font-family:Arial;text-anchor:middle"/><text x="1198.43" y="-384.92" line-height="125%" style="letter-spacing:0;word-spacing:0;font-size:129.23;font-family:&apos;Gentium Book Basic&apos;"><tspan x="1198.43" y="-384.92"/></text><text x="495.73" y="-1893.77" transform="scale(4.0128.2492)" style="font-size:46.954;font-family:Arial;text-anchor:middle"/><text x="809.31" y="-857.32" line-height="125%" style="letter-spacing:0;word-spacing:0;font-size:129.23;font-family:&apos;Gentium Book Basic&apos;"><tspan x="809.31" y="-857.32"/></text><text x="398.76" y="-3789.42" transform="scale(4.0128.2492)" style="font-size:46.954;font-family:Arial;text-anchor:middle"/><text x="1390.57" y="-937.33" line-height="125%" style="letter-spacing:0;word-spacing:0;font-size:129.23;font-family:&apos;Gentium Book Basic&apos;"><tspan x="1390.57" y="-937.33"/></text><text x="543.61" y="-4110.46" transform="scale(4.0128.2492)" style="font-size:46.954;font-family:Arial;text-anchor:middle"/><text x="-442.23" y="477.39" line-height="125%" style="letter-spacing:0;word-spacing:0;font-size:208.33;font-family:&apos;Gentium Book Basic&apos;"><tspan x="-442.23" y="477.39"/></text><path d="m26 0c-14.397 0-26 11.603-26 26v460c0 14.397 11.603 26 26 26h460c14.397 0 26-11.603 26-26v-460c0-14.397-11.603-26-26-26h-460" style="fill:#5a8bc0"/><text x="-333.28" y="226.42" line-height="125%" style="letter-spacing:0;word-spacing:0;font-size:129.23;font-family:&apos;Gentium Book Basic&apos;"><tspan x="-333.28" y="226.42"/></text><text x="114.03" y="559.45" transform="scale(4.0128.2492)" style="font-size:46.954;font-family:Arial;text-anchor:middle"/><text x="247.99" y="146.42" line-height="125%" style="letter-spacing:0;word-spacing:0;font-size:129.23;font-family:&apos;Gentium Book Basic&apos;"><tspan x="247.99" y="146.42"/></text><text x="258.88" y="238.41" transform="scale(4.0128.2492)" style="font-size:46.954;font-family:Arial;text-anchor:middle"/><text x="-823.59" y="-34.836" line-height="125%" style="letter-spacing:0;word-spacing:0;font-size:129.23;font-family:&apos;Gentium Book Basic&apos;"><tspan x="-823.59" y="-34.836"/></text><text x="-8.162" y="-488.93" transform="scale(4.0128.2492)" style="font-size:46.954;font-family:Arial;text-anchor:middle"/><text x="274.46" y="-251.31" line-height="125%" style="letter-spacing:0;word-spacing:0;font-size:129.23;font-family:&apos;Gentium Book Basic&apos;"><tspan x="274.46" y="-251.31"/></text><text x="265.48" y="-1357.61" transform="scale(4.0128.2492)" style="font-size:46.954;font-family:Arial;text-anchor:middle"/><text x="855.73" y="-331.31" line-height="125%" style="letter-spacing:0;word-spacing:0;font-size:129.23;font-family:&apos;Gentium Book Basic&apos;"><tspan x="855.73" y="-331.31"/></text><text x="410.33" y="-1678.64" transform="scale(4.0128.2492)" style="font-size:46.954;font-family:Arial;text-anchor:middle"/><text x="466.61" y="-803.71" line-height="125%" style="letter-spacing:0;word-spacing:0;font-size:129.23;font-family:&apos;Gentium Book Basic&apos;"><tspan x="466.61" y="-803.71"/></text><text x="313.36" y="-3574.29" transform="scale(4.0128.2492)" style="font-size:46.954;font-family:Arial;text-anchor:middle"/><text x="1047.87" y="-883.72" line-height="125%" style="letter-spacing:0;word-spacing:0;font-size:129.23;font-family:&apos;Gentium Book Basic&apos;"><tspan x="1047.87" y="-883.72"/></text><text x="458.21" y="-3895.33" transform="scale(4.0128.2492)" style="font-size:46.954;font-family:Arial;text-anchor:middle"/><text x="-784.93" y="531" line-height="125%" style="letter-spacing:0;word-spacing:0;font-size:208.33;font-family:&apos;Gentium Book Basic&apos;"><tspan x="-784.93" y="531"/></text><path d="m339.8 41l.006.008c-146.16-.045-250.54 77.84-284.97 212.69-9.904 38.79-10.831 93.35-2.248 127.43 4.741 18.827 18.583 40.29 35.459 57.17l73.7 73.7h324.25c14.397 0 26-11.603 26-26v-379.84l-46.832-46.832c-6.809-6.809-85.37-18.317-125.37-18.33" style="opacity:.25"/><path d="m339.81 41.01c-146.16-.045-250.54 77.84-284.97 212.69-9.904 38.79-10.831 93.35-2.248 127.43 7.628 30.29 38.815 67.41 68.3 81.26 28.444 13.362 79.7 10.856 111.18-5.36 21.721-11.188 47.26-35.23 65.886-62.07 9.379-13.52 9.41-12.926 5.707 26.28l-3.805 40.11h55.851 56.02v-26.28c.077-44.26 10.199-120.27 33.372-249.86 12.186-68.15 21.21-124.73 20.06-125.88-6.809-6.809-85.37-18.317-125.37-18.329m-41.498 90.43c6.175-.291 12.354.154 18.501 1.384 9.542 1.909 17.464 6.893 17.464 11.07 0 16.653-27.01 133.52-35.62 154.23-28.09 67.52-77.884 99.53-108.08 69.34-15.05-15.05-18.591-33.02-15.557-79.37 5.41-82.79 63.6-153.84 123.29-156.66" style="fill:#fff"/></svg>