<?xml version="1.0" encoding="UTF-8" standalone="no"?>
<!-- Created with Inkscape (http://www.inkscape.org/) -->
<svg id="svg2" xmlns:rdf="http://www.w3.org/1999/02/22-rdf-syntax-ns#" xmlns="http://www.w3.org/2000/svg" height="100%" width="100%" version="1.1" xmlns:cc="http://creativecommons.org/ns#" viewBox="0 0 512 512" xmlns:dc="http://purl.org/dc/elements/1.1/">
 <metadata id="metadata60">
  <rdf:RDF>
   <cc:Work rdf:about="">
    <dc:format>image/svg+xml</dc:format>
    <dc:type rdf:resource="http://purl.org/dc/dcmitype/StillImage"/>
   </cc:Work>
  </rdf:RDF>
 </metadata>
 <rect id="rect4" rx="25.988" height="512" width="512" y="0" x="0" fill="#f38725"/>
 <path id="path6" style="color:#000000" d="m243.94 54.656c-61.44 3.657-34.602 79.32-31.375 101.5 23.818 23.818 50.96 50.49 80.938 80.47-13.311 20.552-11.592 13.402-27.656 23.06 67.73 68.61 162.27 162.27 241.53 241.16 2.913-4.2 4.625-9.324 4.625-14.844v-301.86c-4.74-5.932-6.682-11.161-40.949-45.43-31.28-5.359-81.934 25.935-123.71 17.473-31.554-32.3-68.71-67.881-103.4-101.53m-202.94 103.5c3.479 11.279 3.309 15.07-0.063 28.406 17.653 17.653 35.613 34.769 56.22 55.38 9.06 9.06 15.608 15.366 20.09 19.688 18.08 17.416 11.343 8.689-7.781 13.406-13.765 13.155 1.847 19.602 5.094 31.719 29.671 29.671 37.852 29.536 0.375 34.22-41.13 15.269-53.58 72.61-20.469 102.22 23.621 22.734 46.994 45.697 70.25 68.813h321.28c2.848 0 5.596-0.442 8.156-1.281-22.09-21.12-52.01-50.17-93.44-91.59-54.51-54.27-108.79-108.54-163.06-163.03-26.513-26.968-54.25-52.793-79.969-80.69-39.39-1.23-78.65-6.916-116.69-17.25" fill-opacity="0.235"/>
 <text id="text8" style="word-spacing:0;letter-spacing:0" font-size="129.23px" line-height="125%" y="151.39999" x="163.75999" font-family="Gentium Book Basic">
  <tspan id="tspan10" y="151.39999" x="163.75999"/>
 </text>
 <text id="text12" style="text-anchor:middle" transform="scale(4.0128 .2492)" font-size="46.954px" y="258.38" x="237.89" font-family="Arial"/>
 <text id="text14" style="word-spacing:0;letter-spacing:0" font-size="129.23px" line-height="125%" y="71.400002" x="745.03003" font-family="Gentium Book Basic">
  <tspan id="tspan16" y="71.400002" x="745.03003"/>
 </text>
 <text id="text18" style="text-anchor:middle" transform="scale(4.0128 .2492)" font-size="46.954px" y="-62.639999" x="382.73999" font-family="Arial"/>
 <text id="text20" style="word-spacing:0;letter-spacing:0" font-size="129.23px" line-height="125%" y="-109.86" x="-326.54999" font-family="Gentium Book Basic">
  <tspan id="tspan22" y="-109.86" x="-326.54999"/>
 </text>
 <text id="text24" style="text-anchor:middle" transform="scale(4.0128 .2492)" font-size="46.954px" y="-790" x="115.7" font-family="Arial"/>
 <text id="text26" style="word-spacing:0;letter-spacing:0" font-size="129.23px" line-height="125%" y="-326.32999" x="771.5" font-family="Gentium Book Basic">
  <tspan id="tspan28" y="-326.32999" x="771.5"/>
 </text>
 <text id="text30" style="text-anchor:middle" transform="scale(4.0128 .2492)" font-size="46.954px" y="-1658.67" x="389.34" font-family="Arial"/>
 <text id="text32" style="word-spacing:0;letter-spacing:0" font-size="129.23px" line-height="125%" y="-406.34" x="1352.77" font-family="Gentium Book Basic">
  <tspan id="tspan34" y="-406.34" x="1352.77"/>
 </text>
 <text id="text36" style="text-anchor:middle" transform="scale(4.0128 .2492)" font-size="46.954px" y="-1979.71" x="534.19" font-family="Arial"/>
 <text id="text38" style="word-spacing:0;letter-spacing:0" font-size="129.23px" line-height="125%" y="-878.73999" x="963.65002" font-family="Gentium Book Basic">
  <tspan id="tspan40" y="-878.73999" x="963.65002"/>
 </text>
 <text id="text42" style="text-anchor:middle" transform="scale(4.0128 .2492)" font-size="46.954px" y="-3875.3601" x="437.22" font-family="Arial"/>
 <text id="text44" style="word-spacing:0;letter-spacing:0" font-size="129.23px" line-height="125%" y="-958.73999" x="1544.91" font-family="Gentium Book Basic">
  <tspan id="tspan46" y="-958.73999" x="1544.91"/>
 </text>
 <text id="text48" style="text-anchor:middle" transform="scale(4.0128 .2492)" font-size="46.954px" y="-4196.3799" x="582.07001" font-family="Arial"/>
 <text id="text50" style="word-spacing:0;letter-spacing:0" font-size="208.33px" line-height="125%" y="455.98001" x="-287.89001" font-family="Gentium Book Basic">
  <tspan id="tspan52" y="455.98001" x="-287.89001"/>
 </text>
 <path id="path54" style="color:#000000" d="m211.7 54.49c-21.481 50.1-5.177 80.52 0.604 101.7l33.965-4.511c-7.182-26.319-19.549-56.59-2.141-97.19h-32.429m259.3 84.21c-56.18 0-110.22 10.796-179.36 36.709l23.776 21.635c34.571-17.277 90.76-36.709 155.59-36.709v-21.635m-430 19.445v28.1c21.608 6.478 69.14 12.935 112.36 12.935l4.327-23.776c-43.07-1.678-75.64-6.465-116.68-17.262m253.02 75.23-28.29 26.287c75.63 36.712 136.14 88.53 170.71 157.64l25.915-34.571c-34.23-51.32-86.43-103.67-168.33-149.35m-115.15 13.818c-1.158-0.01-2.314 0.019-3.49 0.046-4.342 0.094-8.752 0.735-13.444 1.257-13.273 1.471-23.289 4.254-34.423 8.375-7.553 2.793-13.275 5.634-21.821 10.934s-17.216 13.03-17.216 13.03l26.06 26.01s12.276-9.146 19.309-12.981c7.03-3.834 16.541-5.507 23.496-6.328 17.941-2.119 35.38 1.484 43.689 8.421 8.86 7.398 12.548 12.57 12.981 32.34-7.988-0.325-16.184 0.179-25.17 0.418-8.03 0.216-24.368 0.587-31.08 1.675-17.881 2.902-37.19 5.912-55.832 18.06-9.932 6.469-18.02 16.211-22.287 27.27-4.816 12.444-5.914 27.13-2.093 39.921 3.977 13.31 12.978 26.295 24.799 33.593 22.716 8.993 52.33 11.263 73.885 3.768 12.02-4.337 21.48-7.965 32.34-20.566 1.76-2.043 3.244-5.646 5.443-9.259v30.662h45.36v-123.44c-0.503-26.889-11.192-50.86-30.24-66.767-17.405-11.744-32.889-16.264-50.25-16.422m24.985 114.69c1.886-0.021 3.728-0.012 5.537 0 0.862 0.006 1.672-0.01 2.513 0-0.013 0.274 0.013 0.546 0 0.838 0 0 2.168 35.25-17.216 47.41-19.385 12.158-27.788 12.524-41.971 10.1-9.889-1.693-21.22-7.175-25.22-16.377-3.209-7.386-0.761-17.18 4.234-23.496 7.803-9.867 22.16-12.355 34.437-15.12 9.841-2.22 24.481-3.203 37.688-3.35" fill="#fff"/>
</svg>
