<?xml version="1.0" encoding="UTF-8" standalone="no"?>
<svg xmlns="http://www.w3.org/2000/svg" viewBox="0 0 512 512">
 <path d="m26 0c-14.397 0-26 11.603-26 26v460c0 14.397 11.603 26 26 26h460c14.397 0 26-11.603 26-26v-460c0-14.397-11.603-26-26-26h-460" fill="#68af4c"/>
 <text style="word-spacing:0;letter-spacing:0" font-size="129.23" y="106.91" x="-477.48" font-family="Gentium Book Basic" line-height="125%">
  <tspan y="106.91" x="-477.48"/>
 </text>
 <text style="text-anchor:middle" transform="scale(4.0128.2492)" font-size="46.954" y="79.873" x="78.09" font-family="Arial"/>
 <text style="word-spacing:0;letter-spacing:0" font-size="129.23" y="26.913" x="103.79" font-family="Gentium Book Basic" line-height="125%">
  <tspan y="26.913" x="103.79"/>
 </text>
 <text style="text-anchor:middle" transform="scale(4.0128.2492)" font-size="46.954" y="-241.17" x="222.94" font-family="Arial"/>
 <text style="word-spacing:0;letter-spacing:0" font-size="129.23" y="-154.35" x="-967.79" font-family="Gentium Book Basic" line-height="125%">
  <tspan y="-154.35" x="-967.79"/>
 </text>
 <text style="text-anchor:middle" transform="scale(4.0128.2492)" font-size="46.954" y="-968.51" x="-44.1" font-family="Arial"/>
 <text style="word-spacing:0;letter-spacing:0" font-size="129.23" y="-370.82" x="130.26" font-family="Gentium Book Basic" line-height="125%">
  <tspan y="-370.82" x="130.26"/>
 </text>
 <text style="text-anchor:middle" transform="scale(4.0128.2492)" font-size="46.954" y="-1837.19" x="229.54" font-family="Arial"/>
 <text style="word-spacing:0;letter-spacing:0" font-size="129.23" y="-450.82" x="711.53" font-family="Gentium Book Basic" line-height="125%">
  <tspan y="-450.82" x="711.53"/>
 </text>
 <text style="text-anchor:middle" transform="scale(4.0128.2492)" font-size="46.954" y="-2158.22" x="374.39" font-family="Arial"/>
 <text style="word-spacing:0;letter-spacing:0" font-size="129.23" y="-923.22" x="322.41" font-family="Gentium Book Basic" line-height="125%">
  <tspan y="-923.22" x="322.41"/>
 </text>
 <text style="text-anchor:middle" transform="scale(4.0128.2492)" font-size="46.954" y="-4053.87" x="277.42" font-family="Arial"/>
 <text style="word-spacing:0;letter-spacing:0" font-size="129.23" y="-1003.23" x="903.67" font-family="Gentium Book Basic" line-height="125%">
  <tspan y="-1003.23" x="903.67"/>
 </text>
 <text style="text-anchor:middle" transform="scale(4.0128.2492)" font-size="46.954" y="-4374.9" x="422.27" font-family="Arial"/>
 <g style="word-spacing:0;letter-spacing:0" font-family="Gentium Book Basic" line-height="125%">
  <text y="411.49" x="-929.13" font-size="208.33">
   <tspan y="411.49" x="-929.13"/>
  </text>
  <text y="88.17" x="-125.14" font-size="129.23">
   <tspan y="88.17" x="-125.14"/>
  </text>
 </g>
 <text style="text-anchor:middle" transform="scale(4.0128.2492)" font-size="46.954" y="4.677" x="165.9" font-family="Arial"/>
 <text style="word-spacing:0;letter-spacing:0" font-size="129.23" y="8.174" x="456.13" font-family="Gentium Book Basic" line-height="125%">
  <tspan y="8.174" x="456.13"/>
 </text>
 <text style="text-anchor:middle" transform="scale(4.0128.2492)" font-size="46.954" y="-316.36" x="310.75" font-family="Arial"/>
 <text style="word-spacing:0;letter-spacing:0" font-size="129.23" y="-173.09" x="-615.45" font-family="Gentium Book Basic" line-height="125%">
  <tspan y="-173.09" x="-615.45"/>
 </text>
 <text style="text-anchor:middle" transform="scale(4.0128.2492)" font-size="46.954" y="-1043.71" x="43.707" font-family="Arial"/>
 <text style="word-spacing:0;letter-spacing:0" font-size="129.23" y="-389.56" x="482.6" font-family="Gentium Book Basic" line-height="125%">
  <tspan y="-389.56" x="482.6"/>
 </text>
 <text style="text-anchor:middle" transform="scale(4.0128.2492)" font-size="46.954" y="-1912.38" x="317.35" font-family="Arial"/>
 <text style="word-spacing:0;letter-spacing:0" font-size="129.23" y="-469.56" x="1063.87" font-family="Gentium Book Basic" line-height="125%">
  <tspan y="-469.56" x="1063.87"/>
 </text>
 <text style="text-anchor:middle" transform="scale(4.0128.2492)" font-size="46.954" y="-2233.41" x="462.19" font-family="Arial"/>
 <text style="word-spacing:0;letter-spacing:0" font-size="129.23" y="-941.96" x="674.75" font-family="Gentium Book Basic" line-height="125%">
  <tspan y="-941.96" x="674.75"/>
 </text>
 <text style="text-anchor:middle" transform="scale(4.0128.2492)" font-size="46.954" y="-4129.06" x="365.22" font-family="Arial"/>
 <text style="word-spacing:0;letter-spacing:0" font-size="129.23" y="-1021.97" x="1256.01" font-family="Gentium Book Basic" line-height="125%">
  <tspan y="-1021.97" x="1256.01"/>
 </text>
 <text style="text-anchor:middle" transform="scale(4.0128.2492)" font-size="46.954" y="-4450.1" x="510.07" font-family="Arial"/>
 <g style="word-spacing:0;letter-spacing:0" font-family="Gentium Book Basic" line-height="125%">
  <text y="392.75" x="-576.79" font-size="208.33">
   <tspan y="392.75" x="-576.79"/>
  </text>
  <text y="153.26" x="-485.28" font-size="129.23">
   <tspan y="153.26" x="-485.28"/>
  </text>
 </g>
 <text style="text-anchor:middle" transform="scale(4.0128.2492)" font-size="46.954" y="265.85" x="76.15" font-family="Arial"/>
 <text style="word-spacing:0;letter-spacing:0" font-size="129.23" y="73.26" x="95.99" font-family="Gentium Book Basic" line-height="125%">
  <tspan y="73.26" x="95.99"/>
 </text>
 <text style="text-anchor:middle" transform="scale(4.0128.2492)" font-size="46.954" y="-55.19" x="221" font-family="Arial"/>
 <text style="word-spacing:0;letter-spacing:0" font-size="129.23" y="-108" x="-975.59" font-family="Gentium Book Basic" line-height="125%">
  <tspan y="-108" x="-975.59"/>
 </text>
 <text style="text-anchor:middle" transform="scale(4.0128.2492)" font-size="46.954" y="-782.53" x="-46.04" font-family="Arial"/>
 <text style="word-spacing:0;letter-spacing:0" font-size="129.23" y="-324.47" x="122.46" font-family="Gentium Book Basic" line-height="125%">
  <tspan y="-324.47" x="122.46"/>
 </text>
 <text style="text-anchor:middle" transform="scale(4.0128.2492)" font-size="46.954" y="-1651.21" x="227.6" font-family="Arial"/>
 <text style="word-spacing:0;letter-spacing:0" font-size="129.23" y="-404.47" x="703.73" font-family="Gentium Book Basic" line-height="125%">
  <tspan y="-404.47" x="703.73"/>
 </text>
 <text style="text-anchor:middle" transform="scale(4.0128.2492)" font-size="46.954" y="-1972.24" x="372.45" font-family="Arial"/>
 <text style="word-spacing:0;letter-spacing:0" font-size="129.23" y="-876.87" x="314.61" font-family="Gentium Book Basic" line-height="125%">
  <tspan y="-876.87" x="314.61"/>
 </text>
 <text style="text-anchor:middle" transform="scale(4.0128.2492)" font-size="46.954" y="-3867.89" x="275.48" font-family="Arial"/>
 <text style="word-spacing:0;letter-spacing:0" font-size="129.23" y="-956.88" x="895.87" font-family="Gentium Book Basic" line-height="125%">
  <tspan y="-956.88" x="895.87"/>
 </text>
 <text style="text-anchor:middle" transform="scale(4.0128.2492)" font-size="46.954" y="-4188.93" x="420.33" font-family="Arial"/>
 <g style="word-spacing:0;letter-spacing:0" font-family="Gentium Book Basic" line-height="125%">
  <text y="457.84" x="-936.93" font-size="208.33">
   <tspan y="457.84" x="-936.93"/>
  </text>
  <text y="-581.44" x="-246.39" font-size="129.23">
   <tspan y="-581.44" x="-246.39"/>
  </text>
 </g>
 <text style="text-anchor:middle" transform="scale(4.0128.2492)" font-size="46.954" y="-2682.38" x="135.68" font-family="Arial"/>
 <text style="word-spacing:0;letter-spacing:0" font-size="129.23" y="-661.44" x="334.88" font-family="Gentium Book Basic" line-height="125%">
  <tspan y="-661.44" x="334.88"/>
 </text>
 <text style="text-anchor:middle" transform="scale(4.0128.2492)" font-size="46.954" y="-3003.42" x="280.53" font-family="Arial"/>
 <text style="word-spacing:0;letter-spacing:0" font-size="129.23" y="-842.7" x="-736.7" font-family="Gentium Book Basic" line-height="125%">
  <tspan y="-842.7" x="-736.7"/>
 </text>
 <text style="text-anchor:middle" transform="scale(4.0128.2492)" font-size="46.954" y="-3730.76" x="13.492" font-family="Arial"/>
 <text style="word-spacing:0;letter-spacing:0" font-size="129.23" y="-1059.17" x="361.35" font-family="Gentium Book Basic" line-height="125%">
  <tspan y="-1059.17" x="361.35"/>
 </text>
 <text style="text-anchor:middle" transform="scale(4.0128.2492)" font-size="46.954" y="-4599.43" x="287.13" font-family="Arial"/>
 <text style="word-spacing:0;letter-spacing:0" font-size="129.23" y="-1139.17" x="942.62" font-family="Gentium Book Basic" line-height="125%">
  <tspan y="-1139.17" x="942.62"/>
 </text>
 <text style="text-anchor:middle" transform="scale(4.0128.2492)" font-size="46.954" y="-4920.46" x="431.98" font-family="Arial"/>
 <text style="word-spacing:0;letter-spacing:0" font-size="129.23" y="-1611.57" x="553.5" font-family="Gentium Book Basic" line-height="125%">
  <tspan y="-1611.57" x="553.5"/>
 </text>
 <text style="text-anchor:middle" transform="scale(4.0128.2492)" font-size="46.954" y="-6816.1" x="335.01" font-family="Arial"/>
 <text style="word-spacing:0;letter-spacing:0" font-size="129.23" y="-1691.58" x="1134.76" font-family="Gentium Book Basic" line-height="125%">
  <tspan y="-1691.58" x="1134.76"/>
 </text>
 <text style="text-anchor:middle" transform="scale(4.0128.2492)" font-size="46.954" y="-7137.14" x="479.86" font-family="Arial"/>
 <g style="word-spacing:0;letter-spacing:0" font-family="Gentium Book Basic" line-height="125%">
  <text y="-276.86" x="-698.04" font-size="208.33">
   <tspan y="-276.86" x="-698.04"/>
  </text>
  <text y="-370.38" x="2766.8" font-size="129.23">
   <tspan y="-370.38" x="2766.8"/>
  </text>
 </g>
 <text style="text-anchor:middle" transform="scale(4.0128.2492)" font-size="46.954" y="-1835.44" x="886.57" font-family="Arial"/>
 <text style="word-spacing:0;letter-spacing:0" font-size="129.23" y="-450.38" x="3348.07" font-family="Gentium Book Basic" line-height="125%">
  <tspan y="-450.38" x="3348.07"/>
 </text>
 <text style="text-anchor:middle" transform="scale(4.0128.2492)" font-size="46.954" y="-2156.47" x="1031.42" font-family="Arial"/>
 <text style="word-spacing:0;letter-spacing:0" font-size="129.23" y="-631.64" x="2276.49" font-family="Gentium Book Basic" line-height="125%">
  <tspan y="-631.64" x="2276.49"/>
 </text>
 <text style="text-anchor:middle" transform="scale(4.0128.2492)" font-size="46.954" y="-2883.83" x="764.38" font-family="Arial"/>
 <text style="word-spacing:0;letter-spacing:0" font-size="129.23" y="-848.11" x="3374.54" font-family="Gentium Book Basic" line-height="125%">
  <tspan y="-848.11" x="3374.54"/>
 </text>
 <text style="text-anchor:middle" transform="scale(4.0128.2492)" font-size="46.954" y="-3752.49" x="1038.02" font-family="Arial"/>
 <text style="word-spacing:0;letter-spacing:0" font-size="129.23" y="-928.12" x="3955.81" font-family="Gentium Book Basic" line-height="125%">
  <tspan y="-928.12" x="3955.81"/>
 </text>
 <text style="text-anchor:middle" transform="scale(4.0128.2492)" font-size="46.954" y="-4073.53" x="1182.87" font-family="Arial"/>
 <text style="word-spacing:0;letter-spacing:0" font-size="129.23" y="-1400.52" x="3566.69" font-family="Gentium Book Basic" line-height="125%">
  <tspan y="-1400.52" x="3566.69"/>
 </text>
 <text style="text-anchor:middle" transform="scale(4.0128.2492)" font-size="46.954" y="-5969.18" x="1085.9" font-family="Arial"/>
 <text style="word-spacing:0;letter-spacing:0" font-size="129.23" y="-1480.52" x="4147.95" font-family="Gentium Book Basic" line-height="125%">
  <tspan y="-1480.52" x="4147.95"/>
 </text>
 <text style="text-anchor:middle" transform="scale(4.0128.2492)" font-size="46.954" y="-6290.21" x="1230.75" font-family="Arial"/>
 <g style="word-spacing:0;letter-spacing:0" font-family="Gentium Book Basic" line-height="125%">
  <text y="-65.803" x="2315.15" font-size="208.33">
   <tspan y="-65.803" x="2315.15"/>
  </text>
  <text y="63.959" x="1357.26" font-size="129.23">
   <tspan y="63.959" x="1357.26"/>
  </text>
 </g>
 <text style="text-anchor:middle" transform="scale(4.0128.2492)" font-size="46.954" y="-92.49" x="535.31" font-family="Arial"/>
 <text style="word-spacing:0;letter-spacing:0" font-size="129.23" y="-16.04" x="1938.53" font-family="Gentium Book Basic" line-height="125%">
  <tspan y="-16.04" x="1938.53"/>
 </text>
 <text style="text-anchor:middle" transform="scale(4.0128.2492)" font-size="46.954" y="-413.53" x="680.16" font-family="Arial"/>
 <text style="word-spacing:0;letter-spacing:0" font-size="129.23" y="-197.3" x="866.95" font-family="Gentium Book Basic" line-height="125%">
  <tspan y="-197.3" x="866.95"/>
 </text>
 <text style="text-anchor:middle" transform="scale(4.0128.2492)" font-size="46.954" y="-1140.88" x="413.12" font-family="Arial"/>
 <text style="word-spacing:0;letter-spacing:0" font-size="129.23" y="-413.77" x="1965" font-family="Gentium Book Basic" line-height="125%">
  <tspan y="-413.77" x="1965"/>
 </text>
 <text style="text-anchor:middle" transform="scale(4.0128.2492)" font-size="46.954" y="-2009.55" x="686.76" font-family="Arial"/>
 <text style="word-spacing:0;letter-spacing:0" font-size="129.23" y="-493.77" x="2546.27" font-family="Gentium Book Basic" line-height="125%">
  <tspan y="-493.77" x="2546.27"/>
 </text>
 <text style="text-anchor:middle" transform="scale(4.0128.2492)" font-size="46.954" y="-2330.58" x="831.61" font-family="Arial"/>
 <text style="word-spacing:0;letter-spacing:0" font-size="129.23" y="-966.17" x="2157.15" font-family="Gentium Book Basic" line-height="125%">
  <tspan y="-966.17" x="2157.15"/>
 </text>
 <text style="text-anchor:middle" transform="scale(4.0128.2492)" font-size="46.954" y="-4226.23" x="734.64" font-family="Arial"/>
 <text style="word-spacing:0;letter-spacing:0" font-size="129.23" y="-1046.18" x="2738.41" font-family="Gentium Book Basic" line-height="125%">
  <tspan y="-1046.18" x="2738.41"/>
 </text>
 <text style="text-anchor:middle" transform="scale(4.0128.2492)" font-size="46.954" y="-4547.27" x="879.49" font-family="Arial"/>
 <g style="word-spacing:0;letter-spacing:0" font-family="Gentium Book Basic" line-height="125%">
  <text y="368.54" x="905.61" font-size="208.33">
   <tspan y="368.54" x="905.61"/>
  </text>
  <text y="-670.74" x="1596.15" font-size="129.23">
   <tspan y="-670.74" x="1596.15"/>
  </text>
 </g>
 <text style="text-anchor:middle" transform="scale(4.0128.2492)" font-size="46.954" y="-3040.72" x="594.84" font-family="Arial"/>
 <text style="word-spacing:0;letter-spacing:0" font-size="129.23" y="-750.74" x="2177.42" font-family="Gentium Book Basic" line-height="125%">
  <tspan y="-750.74" x="2177.42"/>
 </text>
 <text style="text-anchor:middle" transform="scale(4.0128.2492)" font-size="46.954" y="-3361.76" x="739.69" font-family="Arial"/>
 <text style="word-spacing:0;letter-spacing:0" font-size="129.23" y="-932" x="1105.84" font-family="Gentium Book Basic" line-height="125%">
  <tspan y="-932" x="1105.84"/>
 </text>
 <text style="text-anchor:middle" transform="scale(4.0128.2492)" font-size="46.954" y="-4089.11" x="472.65" font-family="Arial"/>
 <text style="word-spacing:0;letter-spacing:0" font-size="129.23" y="-1148.47" x="2203.89" font-family="Gentium Book Basic" line-height="125%">
  <tspan y="-1148.47" x="2203.89"/>
 </text>
 <text style="text-anchor:middle" transform="scale(4.0128.2492)" font-size="46.954" y="-4957.77" x="746.29" font-family="Arial"/>
 <text style="word-spacing:0;letter-spacing:0" font-size="129.23" y="-1228.47" x="2785.16" font-family="Gentium Book Basic" line-height="125%">
  <tspan y="-1228.47" x="2785.16"/>
 </text>
 <text style="text-anchor:middle" transform="scale(4.0128.2492)" font-size="46.954" y="-5278.8" x="891.14" font-family="Arial"/>
 <text style="word-spacing:0;letter-spacing:0" font-size="129.23" y="-1700.87" x="2396.04" font-family="Gentium Book Basic" line-height="125%">
  <tspan y="-1700.87" x="2396.04"/>
 </text>
 <text style="text-anchor:middle" transform="scale(4.0128.2492)" font-size="46.954" y="-7174.44" x="794.17" font-family="Arial"/>
 <text style="word-spacing:0;letter-spacing:0" font-size="129.23" y="-1780.88" x="2977.3" font-family="Gentium Book Basic" line-height="125%">
  <tspan y="-1780.88" x="2977.3"/>
 </text>
 <text style="text-anchor:middle" transform="scale(4.0128.2492)" font-size="46.954" y="-7495.48" x="939.02" font-family="Arial"/>
 <text style="word-spacing:0;letter-spacing:0" font-size="208.33" y="-366.16" x="1144.5" font-family="Gentium Book Basic" line-height="125%">
  <tspan y="-366.16" x="1144.5"/>
 </text>
 <path opacity=".25" d="m177.17 59.889c-4.204 0.01-8.07 0.466-10.756 1.389-15.05 5.166-24.484 16.232-29.695 34.828-4.52 16.13-4.375 45.21 0.35 70.57 0.808 4.335 1.618 8.383 1.799 9 0.267 0.903-1.368 1.506-8.451 3.123-34.775 7.937-60.13 19.745-75.42 35.12-6.823 6.862-10.604 12.882-12.85 20.461-1.54 5.198-1.534 15.611 0.012 20.779 2.455 8.21 7.532 16.17 15.07 23.711l63.67 63.67c-2.894 12.09-4.701 23.409-5.293 33.564-1.452 24.899 3.26 42.751 14.199 53.785l0.129 0.131c0.017 0.017 0.034 0.032 0.051 0.049l81.918 81.918h274.09c14.397 0 26-11.603 26-26v-272.26l-135.25-135.25c-2.888-2.888-6.185-5.235-9.885-7.03-22.15-10.73-54.35-0.268-91.9 29.859-4.244 3.405-8.791 7.348-13.477 11.633l-28.11-28.11c-2.229-2.229-5.911-4.959-11.795-8.902-9.3-6.234-19.824-11.415-28.3-13.936-4.741-1.411-10.706-2.134-16.11-2.121"/>
 <path d="m329.14 451.39c-32.63-5.419-75.01-42.771-113.69-100.22-16.231-24.1-32.839-53.863-43.68-78.28-2.174-4.898-2.969-6.076-3.626-5.374-1.315 1.406-10.761 21.942-15.737 34.22-8.37 20.646-14.27 40.33-17.651 58.894-2.166 11.892-2.352 34.935-0.34 42.07 4.675 16.588 14.813 23.482 30.631 20.831 11.402-1.912 25.2-8.156 39.849-18.03 6.504-4.385 8.214-5.219 10.73-5.234 3.846-0.023 6.717 2.07 8.06 5.876 0.892 2.523 0.888 3.255-0.026 5.667-0.878 2.315-2.399 3.684-9.264 8.339-9.481 6.429-25.702 14.716-34 17.371-21.742 6.955-38.657 4.406-50.582-7.624-10.939-11.03-15.652-28.886-14.199-53.785 1.89-32.403 16.14-76.64 38.643-120l5.644-10.874-4.263-11.535c-4.08-11.04-12.149-36.632-12.149-38.533 0-1.401-2.469-1.113-13.293 1.55-24.8 6.101-43.23 13.865-56.44 23.783-25.975 19.495-19.1 41.484 19.831 63.38 6.199 3.487 7.63 5.365 7.63 10.01 0 2.426-0.447 3.422-2.436 5.41-4.257 4.257-8.22 3.369-21.362-4.781-19.01-11.788-31.02-25.2-35.26-39.35-1.546-5.168-1.551-15.58-0.012-20.778 2.246-7.579 6.03-13.599 12.848-20.461 15.29-15.378 40.645-27.19 75.42-35.12 7.083-1.617 8.719-2.221 8.452-3.124-0.181-0.619-0.991-4.666-1.799-9-4.725-25.365-4.869-54.45-0.349-70.57 5.212-18.596 14.647-29.664 29.694-34.83 6.143-2.109 18.44-1.775 26.868 0.733 8.476 2.52 19 7.702 28.3 13.936 11.08 7.429 14.352 10.546 14.821 14.14 1.078 8.248-7.444 12.696-14.4 7.517-21.813-16.241-37.38-22.421-49.858-19.789-9.07 1.913-15.996 11.234-19.494 26.22-1.391 5.959-1.581 8.788-1.588 23.608 0 16.821 0.233 19.527 3.305 37.16l1.544 8.862 3.639-0.443c16.699-2.02 31.09-3.423 39.965-3.898l10.533-0.565 1.643-2.112c17.791-22.875 43.666-49.587 63.27-65.32 37.544-30.13 69.74-40.59 91.9-29.859 12.513 6.06 20.421 18.448 23.488 36.79 2 11.974 0.423 40.32-2.696 48.3-1.077 2.758-4.529 4.745-8.249 4.749-2.342 0.001-3.568-0.474-5.373-2.088-2.141-1.913-2.339-2.445-2.324-6.27 0.019-2.299 0.613-8.854 1.34-14.568 2.116-16.613 0.661-31.969-3.871-40.853-2.2-4.312-6.702-8.917-10.594-10.836-2.92-1.439-4.424-1.659-11.252-1.636-7.175 0.023-8.579 0.26-15.66 2.678-21.908 7.472-47.01 25.432-73.956 52.913-5.153 5.255-12.881 13.586-17.17 18.511l-7.804 8.956 6.784 0.162c94.96 2.251 175 24.06 212.73 57.96 8.49 7.629 15.805 18.994 17.93 27.858 1.079 4.493 1.099 13.219 0.042 17.89-3.896 17.237-22.847 34.18-50.48 45.13-4.367 1.731-5.289 1.872-7.649 1.165-3.865-1.158-6.371-4.424-6.371-8.301 0-4.557 2.195-6.745 10.08-10.05 17.16-7.197 30.469-17.286 35.522-26.93 1.756-3.352 2.02-4.654 2.02-9.947-0.001-5.504-0.235-6.538-2.403-10.747-3.063-5.938-13.183-16.09-21.578-21.638-41.25-27.28-118.97-44.991-197.44-44.993h-12.945l-4.878 6.628c-7.298 9.914-23.13 34.01-29.434 44.795l-5.557 9.507 3.818 8.763c38.3 87.91 97.77 162.13 141.63 176.78 9.535 3.184 16.751 3.339 22.583 0.486 10.914-5.337 16.631-19.2 17.509-42.45 1.465-38.809-12.512-92.45-38.577-148.03-2.703-5.763-4.325-10.162-4.325-11.725 0-4.701 3.86-8.398 8.7-8.331 4.297 0.059 6.182 1.78 9.46 8.636 21.14 44.21 35.23 88.5 40.489 127.27 1.769 13.04 1.78 39.57 0.02 49.05-2.815 15.166-7.824 26.09-15.489 33.786-9.337 9.373-21.456 12.953-35.791 10.573zm-151.63-235.99c2.676-4.335 7.885-12.299 11.575-17.697 3.69-5.399 6.709-10.03 6.709-10.302 0-0.921-33.855 2.505-34.879 3.53-0.614 0.619 1.414 8.158 5.921 22.02 3.278 10.08 4.165 12.13 4.905 11.319 0.498-0.543 3.092-4.535 5.768-8.87m72.24 64.27c-10.764-3.843-17.05-12.824-16.911-24.14 0.074-5.927 1.426-9.991 4.892-14.712 8.781-11.962 26.713-13.322 37.509-2.845 12.4 12.03 8.729 33.506-6.955 40.686-5.398 2.471-13.252 2.901-18.534 1.015" fill="#fff"/>
</svg>
