<svg xmlns="http://www.w3.org/2000/svg" viewBox="0 0 512 512"><path d="m26 0c-14.397 0-26 11.603-26 26v460c0 14.397 11.603 26 26 26h460c14.397 0 26-11.603 26-26v-460c0-14.397-11.603-26-26-26h-460" style="fill:#68af4c"/><text x="-477.48" y="106.91" line-height="125%" style="letter-spacing:0;word-spacing:0;font-size:129.23;font-family:Gentium Book Basic"><tspan x="-477.48" y="106.91"/></text><text x="78.09" y="79.873" transform="scale(4.0128.2492)" style="font-size:46.954;font-family:Arial;text-anchor:middle"/><text x="103.79" y="26.913" line-height="125%" style="letter-spacing:0;word-spacing:0;font-size:129.23;font-family:Gentium Book Basic"><tspan x="103.79" y="26.913"/></text><text x="222.94" y="-241.17" transform="scale(4.0128.2492)" style="font-size:46.954;font-family:Arial;text-anchor:middle"/><text x="-967.79" y="-154.35" line-height="125%" style="letter-spacing:0;word-spacing:0;font-size:129.23;font-family:Gentium Book Basic"><tspan x="-967.79" y="-154.35"/></text><text x="-44.1" y="-968.51" transform="scale(4.0128.2492)" style="font-size:46.954;font-family:Arial;text-anchor:middle"/><text x="130.26" y="-370.82" line-height="125%" style="letter-spacing:0;word-spacing:0;font-size:129.23;font-family:Gentium Book Basic"><tspan x="130.26" y="-370.82"/></text><text x="229.54" y="-1837.19" transform="scale(4.0128.2492)" style="font-size:46.954;font-family:Arial;text-anchor:middle"/><text x="711.53" y="-450.82" line-height="125%" style="letter-spacing:0;word-spacing:0;font-size:129.23;font-family:Gentium Book Basic"><tspan x="711.53" y="-450.82"/></text><text x="374.39" y="-2158.22" transform="scale(4.0128.2492)" style="font-size:46.954;font-family:Arial;text-anchor:middle"/><text x="322.41" y="-923.22" line-height="125%" style="letter-spacing:0;word-spacing:0;font-size:129.23;font-family:Gentium Book Basic"><tspan x="322.41" y="-923.22"/></text><text x="277.42" y="-4053.87" transform="scale(4.0128.2492)" style="font-size:46.954;font-family:Arial;text-anchor:middle"/><text x="903.67" y="-1003.23" line-height="125%" style="letter-spacing:0;word-spacing:0;font-size:129.23;font-family:Gentium Book Basic"><tspan x="903.67" y="-1003.23"/></text><text x="422.27" y="-4374.9" transform="scale(4.0128.2492)" style="font-size:46.954;font-family:Arial;text-anchor:middle"/><g line-height="125%" style="letter-spacing:0;word-spacing:0;font-family:Gentium Book Basic"><text x="-929.13" y="411.49" style="font-size:208.33"><tspan x="-929.13" y="411.49"/></text><text x="-125.14" y="88.17" style="font-size:129.23"><tspan x="-125.14" y="88.17"/></text></g><text x="165.9" y="4.677" transform="scale(4.0128.2492)" style="font-size:46.954;font-family:Arial;text-anchor:middle"/><text x="456.13" y="8.174" line-height="125%" style="letter-spacing:0;word-spacing:0;font-size:129.23;font-family:Gentium Book Basic"><tspan x="456.13" y="8.174"/></text><text x="310.75" y="-316.36" transform="scale(4.0128.2492)" style="font-size:46.954;font-family:Arial;text-anchor:middle"/><text x="-615.45" y="-173.09" line-height="125%" style="letter-spacing:0;word-spacing:0;font-size:129.23;font-family:Gentium Book Basic"><tspan x="-615.45" y="-173.09"/></text><text x="43.707" y="-1043.71" transform="scale(4.0128.2492)" style="font-size:46.954;font-family:Arial;text-anchor:middle"/><text x="482.6" y="-389.56" line-height="125%" style="letter-spacing:0;word-spacing:0;font-size:129.23;font-family:Gentium Book Basic"><tspan x="482.6" y="-389.56"/></text><text x="317.35" y="-1912.38" transform="scale(4.0128.2492)" style="font-size:46.954;font-family:Arial;text-anchor:middle"/><text x="1063.87" y="-469.56" line-height="125%" style="letter-spacing:0;word-spacing:0;font-size:129.23;font-family:Gentium Book Basic"><tspan x="1063.87" y="-469.56"/></text><text x="462.19" y="-2233.41" transform="scale(4.0128.2492)" style="font-size:46.954;font-family:Arial;text-anchor:middle"/><text x="674.75" y="-941.96" line-height="125%" style="letter-spacing:0;word-spacing:0;font-size:129.23;font-family:Gentium Book Basic"><tspan x="674.75" y="-941.96"/></text><text x="365.22" y="-4129.06" transform="scale(4.0128.2492)" style="font-size:46.954;font-family:Arial;text-anchor:middle"/><text x="1256.01" y="-1021.97" line-height="125%" style="letter-spacing:0;word-spacing:0;font-size:129.23;font-family:Gentium Book Basic"><tspan x="1256.01" y="-1021.97"/></text><text x="510.07" y="-4450.1" transform="scale(4.0128.2492)" style="font-size:46.954;font-family:Arial;text-anchor:middle"/><g line-height="125%" style="letter-spacing:0;word-spacing:0;font-family:Gentium Book Basic"><text x="-576.79" y="392.75" style="font-size:208.33"><tspan x="-576.79" y="392.75"/></text><text x="-485.28" y="153.26" style="font-size:129.23"><tspan x="-485.28" y="153.26"/></text></g><text x="76.15" y="265.85" transform="scale(4.0128.2492)" style="font-size:46.954;font-family:Arial;text-anchor:middle"/><text x="95.99" y="73.26" line-height="125%" style="letter-spacing:0;word-spacing:0;font-size:129.23;font-family:Gentium Book Basic"><tspan x="95.99" y="73.26"/></text><text x="221" y="-55.19" transform="scale(4.0128.2492)" style="font-size:46.954;font-family:Arial;text-anchor:middle"/><text x="-975.59" y="-108" line-height="125%" style="letter-spacing:0;word-spacing:0;font-size:129.23;font-family:Gentium Book Basic"><tspan x="-975.59" y="-108"/></text><text x="-46.04" y="-782.53" transform="scale(4.0128.2492)" style="font-size:46.954;font-family:Arial;text-anchor:middle"/><text x="122.46" y="-324.47" line-height="125%" style="letter-spacing:0;word-spacing:0;font-size:129.23;font-family:Gentium Book Basic"><tspan x="122.46" y="-324.47"/></text><text x="227.6" y="-1651.21" transform="scale(4.0128.2492)" style="font-size:46.954;font-family:Arial;text-anchor:middle"/><text x="703.73" y="-404.47" line-height="125%" style="letter-spacing:0;word-spacing:0;font-size:129.23;font-family:Gentium Book Basic"><tspan x="703.73" y="-404.47"/></text><text x="372.45" y="-1972.24" transform="scale(4.0128.2492)" style="font-size:46.954;font-family:Arial;text-anchor:middle"/><text x="314.61" y="-876.87" line-height="125%" style="letter-spacing:0;word-spacing:0;font-size:129.23;font-family:Gentium Book Basic"><tspan x="314.61" y="-876.87"/></text><text x="275.48" y="-3867.89" transform="scale(4.0128.2492)" style="font-size:46.954;font-family:Arial;text-anchor:middle"/><text x="895.87" y="-956.88" line-height="125%" style="letter-spacing:0;word-spacing:0;font-size:129.23;font-family:Gentium Book Basic"><tspan x="895.87" y="-956.88"/></text><text x="420.33" y="-4188.93" transform="scale(4.0128.2492)" style="font-size:46.954;font-family:Arial;text-anchor:middle"/><g line-height="125%" style="letter-spacing:0;word-spacing:0;font-family:Gentium Book Basic"><text x="-936.93" y="457.84" style="font-size:208.33"><tspan x="-936.93" y="457.84"/></text><text x="-246.39" y="-581.44" style="font-size:129.23"><tspan x="-246.39" y="-581.44"/></text></g><text x="135.68" y="-2682.38" transform="scale(4.0128.2492)" style="font-size:46.954;font-family:Arial;text-anchor:middle"/><text x="334.88" y="-661.44" line-height="125%" style="letter-spacing:0;word-spacing:0;font-size:129.23;font-family:Gentium Book Basic"><tspan x="334.88" y="-661.44"/></text><text x="280.53" y="-3003.42" transform="scale(4.0128.2492)" style="font-size:46.954;font-family:Arial;text-anchor:middle"/><text x="-736.7" y="-842.7" line-height="125%" style="letter-spacing:0;word-spacing:0;font-size:129.23;font-family:Gentium Book Basic"><tspan x="-736.7" y="-842.7"/></text><text x="13.492" y="-3730.76" transform="scale(4.0128.2492)" style="font-size:46.954;font-family:Arial;text-anchor:middle"/><text x="361.35" y="-1059.17" line-height="125%" style="letter-spacing:0;word-spacing:0;font-size:129.23;font-family:Gentium Book Basic"><tspan x="361.35" y="-1059.17"/></text><text x="287.13" y="-4599.43" transform="scale(4.0128.2492)" style="font-size:46.954;font-family:Arial;text-anchor:middle"/><text x="942.62" y="-1139.17" line-height="125%" style="letter-spacing:0;word-spacing:0;font-size:129.23;font-family:Gentium Book Basic"><tspan x="942.62" y="-1139.17"/></text><text x="431.98" y="-4920.46" transform="scale(4.0128.2492)" style="font-size:46.954;font-family:Arial;text-anchor:middle"/><text x="553.5" y="-1611.57" line-height="125%" style="letter-spacing:0;word-spacing:0;font-size:129.23;font-family:Gentium Book Basic"><tspan x="553.5" y="-1611.57"/></text><text x="335.01" y="-6816.1" transform="scale(4.0128.2492)" style="font-size:46.954;font-family:Arial;text-anchor:middle"/><text x="1134.76" y="-1691.58" line-height="125%" style="letter-spacing:0;word-spacing:0;font-size:129.23;font-family:Gentium Book Basic"><tspan x="1134.76" y="-1691.58"/></text><text x="479.86" y="-7137.14" transform="scale(4.0128.2492)" style="font-size:46.954;font-family:Arial;text-anchor:middle"/><g line-height="125%" style="letter-spacing:0;word-spacing:0;font-family:Gentium Book Basic"><text x="-698.04" y="-276.86" style="font-size:208.33"><tspan x="-698.04" y="-276.86"/></text><text x="2766.8" y="-370.38" style="font-size:129.23"><tspan x="2766.8" y="-370.38"/></text></g><text x="886.57" y="-1835.44" transform="scale(4.0128.2492)" style="font-size:46.954;font-family:Arial;text-anchor:middle"/><text x="3348.07" y="-450.38" line-height="125%" style="letter-spacing:0;word-spacing:0;font-size:129.23;font-family:Gentium Book Basic"><tspan x="3348.07" y="-450.38"/></text><text x="1031.42" y="-2156.47" transform="scale(4.0128.2492)" style="font-size:46.954;font-family:Arial;text-anchor:middle"/><text x="2276.49" y="-631.64" line-height="125%" style="letter-spacing:0;word-spacing:0;font-size:129.23;font-family:Gentium Book Basic"><tspan x="2276.49" y="-631.64"/></text><text x="764.38" y="-2883.83" transform="scale(4.0128.2492)" style="font-size:46.954;font-family:Arial;text-anchor:middle"/><text x="3374.54" y="-848.11" line-height="125%" style="letter-spacing:0;word-spacing:0;font-size:129.23;font-family:Gentium Book Basic"><tspan x="3374.54" y="-848.11"/></text><text x="1038.02" y="-3752.49" transform="scale(4.0128.2492)" style="font-size:46.954;font-family:Arial;text-anchor:middle"/><text x="3955.81" y="-928.12" line-height="125%" style="letter-spacing:0;word-spacing:0;font-size:129.23;font-family:Gentium Book Basic"><tspan x="3955.81" y="-928.12"/></text><text x="1182.87" y="-4073.53" transform="scale(4.0128.2492)" style="font-size:46.954;font-family:Arial;text-anchor:middle"/><text x="3566.69" y="-1400.52" line-height="125%" style="letter-spacing:0;word-spacing:0;font-size:129.23;font-family:Gentium Book Basic"><tspan x="3566.69" y="-1400.52"/></text><text x="1085.9" y="-5969.18" transform="scale(4.0128.2492)" style="font-size:46.954;font-family:Arial;text-anchor:middle"/><text x="4147.95" y="-1480.52" line-height="125%" style="letter-spacing:0;word-spacing:0;font-size:129.23;font-family:Gentium Book Basic"><tspan x="4147.95" y="-1480.52"/></text><text x="1230.75" y="-6290.21" transform="scale(4.0128.2492)" style="font-size:46.954;font-family:Arial;text-anchor:middle"/><g line-height="125%" style="letter-spacing:0;word-spacing:0;font-family:Gentium Book Basic"><text x="2315.15" y="-65.803" style="font-size:208.33"><tspan x="2315.15" y="-65.803"/></text><text x="1357.26" y="63.959" style="font-size:129.23"><tspan x="1357.26" y="63.959"/></text></g><text x="535.31" y="-92.49" transform="scale(4.0128.2492)" style="font-size:46.954;font-family:Arial;text-anchor:middle"/><text x="1938.53" y="-16.04" line-height="125%" style="letter-spacing:0;word-spacing:0;font-size:129.23;font-family:Gentium Book Basic"><tspan x="1938.53" y="-16.04"/></text><text x="680.16" y="-413.53" transform="scale(4.0128.2492)" style="font-size:46.954;font-family:Arial;text-anchor:middle"/><text x="866.95" y="-197.3" line-height="125%" style="letter-spacing:0;word-spacing:0;font-size:129.23;font-family:Gentium Book Basic"><tspan x="866.95" y="-197.3"/></text><text x="413.12" y="-1140.88" transform="scale(4.0128.2492)" style="font-size:46.954;font-family:Arial;text-anchor:middle"/><text x="1965" y="-413.77" line-height="125%" style="letter-spacing:0;word-spacing:0;font-size:129.23;font-family:Gentium Book Basic"><tspan x="1965" y="-413.77"/></text><text x="686.76" y="-2009.55" transform="scale(4.0128.2492)" style="font-size:46.954;font-family:Arial;text-anchor:middle"/><text x="2546.27" y="-493.77" line-height="125%" style="letter-spacing:0;word-spacing:0;font-size:129.23;font-family:Gentium Book Basic"><tspan x="2546.27" y="-493.77"/></text><text x="831.61" y="-2330.58" transform="scale(4.0128.2492)" style="font-size:46.954;font-family:Arial;text-anchor:middle"/><text x="2157.15" y="-966.17" line-height="125%" style="letter-spacing:0;word-spacing:0;font-size:129.23;font-family:Gentium Book Basic"><tspan x="2157.15" y="-966.17"/></text><text x="734.64" y="-4226.23" transform="scale(4.0128.2492)" style="font-size:46.954;font-family:Arial;text-anchor:middle"/><text x="2738.41" y="-1046.18" line-height="125%" style="letter-spacing:0;word-spacing:0;font-size:129.23;font-family:Gentium Book Basic"><tspan x="2738.41" y="-1046.18"/></text><text x="879.49" y="-4547.27" transform="scale(4.0128.2492)" style="font-size:46.954;font-family:Arial;text-anchor:middle"/><g line-height="125%" style="letter-spacing:0;word-spacing:0;font-family:Gentium Book Basic"><text x="905.61" y="368.54" style="font-size:208.33"><tspan x="905.61" y="368.54"/></text><text x="1596.15" y="-670.74" style="font-size:129.23"><tspan x="1596.15" y="-670.74"/></text></g><text x="594.84" y="-3040.72" transform="scale(4.0128.2492)" style="font-size:46.954;font-family:Arial;text-anchor:middle"/><text x="2177.42" y="-750.74" line-height="125%" style="letter-spacing:0;word-spacing:0;font-size:129.23;font-family:Gentium Book Basic"><tspan x="2177.42" y="-750.74"/></text><text x="739.69" y="-3361.76" transform="scale(4.0128.2492)" style="font-size:46.954;font-family:Arial;text-anchor:middle"/><text x="1105.84" y="-932" line-height="125%" style="letter-spacing:0;word-spacing:0;font-size:129.23;font-family:Gentium Book Basic"><tspan x="1105.84" y="-932"/></text><text x="472.65" y="-4089.11" transform="scale(4.0128.2492)" style="font-size:46.954;font-family:Arial;text-anchor:middle"/><text x="2203.89" y="-1148.47" line-height="125%" style="letter-spacing:0;word-spacing:0;font-size:129.23;font-family:Gentium Book Basic"><tspan x="2203.89" y="-1148.47"/></text><text x="746.29" y="-4957.77" transform="scale(4.0128.2492)" style="font-size:46.954;font-family:Arial;text-anchor:middle"/><text x="2785.16" y="-1228.47" line-height="125%" style="letter-spacing:0;word-spacing:0;font-size:129.23;font-family:Gentium Book Basic"><tspan x="2785.16" y="-1228.47"/></text><text x="891.14" y="-5278.8" transform="scale(4.0128.2492)" style="font-size:46.954;font-family:Arial;text-anchor:middle"/><text x="2396.04" y="-1700.87" line-height="125%" style="letter-spacing:0;word-spacing:0;font-size:129.23;font-family:Gentium Book Basic"><tspan x="2396.04" y="-1700.87"/></text><text x="794.17" y="-7174.44" transform="scale(4.0128.2492)" style="font-size:46.954;font-family:Arial;text-anchor:middle"/><text x="2977.3" y="-1780.88" line-height="125%" style="letter-spacing:0;word-spacing:0;font-size:129.23;font-family:Gentium Book Basic"><tspan x="2977.3" y="-1780.88"/></text><text x="939.02" y="-7495.48" transform="scale(4.0128.2492)" style="font-size:46.954;font-family:Arial;text-anchor:middle"/><text x="1144.5" y="-366.16" line-height="125%" style="letter-spacing:0;word-spacing:0;font-size:208.33;font-family:Gentium Book Basic"><tspan x="1144.5" y="-366.16"/></text><path d="m177.17 59.889c-4.204.01-8.07.466-10.756 1.389-15.05 5.166-24.484 16.232-29.695 34.828-4.52 16.13-4.375 45.21.35 70.57.808 4.335 1.618 8.383 1.799 9 .267.903-1.368 1.506-8.451 3.123-34.775 7.937-60.13 19.745-75.42 35.12-6.823 6.862-10.604 12.882-12.85 20.461-1.54 5.198-1.534 15.611.012 20.779 2.455 8.21 7.532 16.17 15.07 23.711l63.67 63.67c-2.894 12.09-4.701 23.409-5.293 33.564-1.452 24.899 3.26 42.751 14.199 53.785l.129.131c.017.017.034.032.051.049l81.918 81.918h274.09c14.397 0 26-11.603 26-26v-272.26l-135.25-135.25c-2.888-2.888-6.185-5.235-9.885-7.03-22.15-10.73-54.35-.268-91.9 29.859-4.244 3.405-8.791 7.348-13.477 11.633l-28.11-28.11c-2.229-2.229-5.911-4.959-11.795-8.902-9.3-6.234-19.824-11.415-28.3-13.936-4.741-1.411-10.706-2.134-16.11-2.121" style="opacity:.25"/><path d="m329.14 451.39c-32.63-5.419-75.01-42.771-113.69-100.22-16.231-24.1-32.839-53.863-43.68-78.28-2.174-4.898-2.969-6.076-3.626-5.374-1.315 1.406-10.761 21.942-15.737 34.22-8.37 20.646-14.27 40.33-17.651 58.894-2.166 11.892-2.352 34.935-.34 42.07 4.675 16.588 14.813 23.482 30.631 20.831 11.402-1.912 25.2-8.156 39.849-18.03 6.504-4.385 8.214-5.219 10.73-5.234 3.846-.023 6.717 2.07 8.06 5.876.892 2.523.888 3.255-.026 5.667-.878 2.315-2.399 3.684-9.264 8.339-9.481 6.429-25.702 14.716-34 17.371-21.742 6.955-38.657 4.406-50.582-7.624-10.939-11.03-15.652-28.886-14.199-53.785 1.89-32.403 16.14-76.64 38.643-120l5.644-10.874-4.263-11.535c-4.08-11.04-12.149-36.632-12.149-38.533 0-1.401-2.469-1.113-13.293 1.55-24.8 6.101-43.23 13.865-56.44 23.783-25.975 19.495-19.1 41.484 19.831 63.38 6.199 3.487 7.63 5.365 7.63 10.01 0 2.426-.447 3.422-2.436 5.41-4.257 4.257-8.22 3.369-21.362-4.781-19.01-11.788-31.02-25.2-35.26-39.35-1.546-5.168-1.551-15.58-.012-20.778 2.246-7.579 6.03-13.599 12.848-20.461 15.29-15.378 40.645-27.19 75.42-35.12 7.083-1.617 8.719-2.221 8.452-3.124-.181-.619-.991-4.666-1.799-9-4.725-25.365-4.869-54.45-.349-70.57 5.212-18.596 14.647-29.664 29.694-34.83 6.143-2.109 18.44-1.775 26.868.733 8.476 2.52 19 7.702 28.3 13.936 11.08 7.429 14.352 10.546 14.821 14.14 1.078 8.248-7.444 12.696-14.4 7.517-21.813-16.241-37.38-22.421-49.858-19.789-9.07 1.913-15.996 11.234-19.494 26.22-1.391 5.959-1.581 8.788-1.588 23.608 0 16.821.233 19.527 3.305 37.16l1.544 8.862 3.639-.443c16.699-2.02 31.09-3.423 39.965-3.898l10.533-.565 1.643-2.112c17.791-22.875 43.666-49.587 63.27-65.32 37.544-30.13 69.74-40.59 91.9-29.859 12.513 6.06 20.421 18.448 23.488 36.79 2 11.974.423 40.32-2.696 48.3-1.077 2.758-4.529 4.745-8.249 4.749-2.342.001-3.568-.474-5.373-2.088-2.141-1.913-2.339-2.445-2.324-6.27.019-2.299.613-8.854 1.34-14.568 2.116-16.613.661-31.969-3.871-40.853-2.2-4.312-6.702-8.917-10.594-10.836-2.92-1.439-4.424-1.659-11.252-1.636-7.175.023-8.579.26-15.66 2.678-21.908 7.472-47.01 25.432-73.956 52.913-5.153 5.255-12.881 13.586-17.17 18.511l-7.804 8.956 6.784.162c94.96 2.251 175 24.06 212.73 57.96 8.49 7.629 15.805 18.994 17.93 27.858 1.079 4.493 1.099 13.219.042 17.89-3.896 17.237-22.847 34.18-50.48 45.13-4.367 1.731-5.289 1.872-7.649 1.165-3.865-1.158-6.371-4.424-6.371-8.301 0-4.557 2.195-6.745 10.08-10.05 17.16-7.197 30.469-17.286 35.522-26.93 1.756-3.352 2.02-4.654 2.02-9.947-.001-5.504-.235-6.538-2.403-10.747-3.063-5.938-13.183-16.09-21.578-21.638-41.25-27.28-118.97-44.991-197.44-44.993h-12.945l-4.878 6.628c-7.298 9.914-23.13 34.01-29.434 44.795l-5.557 9.507 3.818 8.763c38.3 87.91 97.77 162.13 141.63 176.78 9.535 3.184 16.751 3.339 22.583.486 10.914-5.337 16.631-19.2 17.509-42.45 1.465-38.809-12.512-92.45-38.577-148.03-2.703-5.763-4.325-10.162-4.325-11.725 0-4.701 3.86-8.398 8.7-8.331 4.297.059 6.182 1.78 9.46 8.636 21.14 44.21 35.23 88.5 40.489 127.27 1.769 13.04 1.78 39.57.02 49.05-2.815 15.166-7.824 26.09-15.489 33.786-9.337 9.373-21.456 12.953-35.791 10.573zm-151.63-235.99c2.676-4.335 7.885-12.299 11.575-17.697 3.69-5.399 6.709-10.03 6.709-10.302 0-.921-33.855 2.505-34.879 3.53-.614.619 1.414 8.158 5.921 22.02 3.278 10.08 4.165 12.13 4.905 11.319.498-.543 3.092-4.535 5.768-8.87m72.24 64.27c-10.764-3.843-17.05-12.824-16.911-24.14.074-5.927 1.426-9.991 4.892-14.712 8.781-11.962 26.713-13.322 37.509-2.845 12.4 12.03 8.729 33.506-6.955 40.686-5.398 2.471-13.252 2.901-18.534 1.015" style="fill:#fff"/></svg>