<svg xmlns="http://www.w3.org/2000/svg" viewBox="0 0 512 512"><text x="-477.48" y="106.91" line-height="125%" style="letter-spacing:0;word-spacing:0;font-size:129.23;font-family:Gentium Book Basic"><tspan x="-477.48" y="106.91"/></text><text x="78.09" y="79.873" transform="scale(4.0128.2492)" style="font-size:46.954;font-family:Arial;text-anchor:middle"/><text x="103.79" y="26.913" line-height="125%" style="letter-spacing:0;word-spacing:0;font-size:129.23;font-family:Gentium Book Basic"><tspan x="103.79" y="26.913"/></text><text x="222.94" y="-241.17" transform="scale(4.0128.2492)" style="font-size:46.954;font-family:Arial;text-anchor:middle"/><text x="-967.79" y="-154.35" line-height="125%" style="letter-spacing:0;word-spacing:0;font-size:129.23;font-family:Gentium Book Basic"><tspan x="-967.79" y="-154.35"/></text><text x="-44.1" y="-968.51" transform="scale(4.0128.2492)" style="font-size:46.954;font-family:Arial;text-anchor:middle"/><text x="130.26" y="-370.82" line-height="125%" style="letter-spacing:0;word-spacing:0;font-size:129.23;font-family:Gentium Book Basic"><tspan x="130.26" y="-370.82"/></text><text x="229.54" y="-1837.19" transform="scale(4.0128.2492)" style="font-size:46.954;font-family:Arial;text-anchor:middle"/><text x="711.53" y="-450.82" line-height="125%" style="letter-spacing:0;word-spacing:0;font-size:129.23;font-family:Gentium Book Basic"><tspan x="711.53" y="-450.82"/></text><text x="374.39" y="-2158.22" transform="scale(4.0128.2492)" style="font-size:46.954;font-family:Arial;text-anchor:middle"/><text x="322.41" y="-923.22" line-height="125%" style="letter-spacing:0;word-spacing:0;font-size:129.23;font-family:Gentium Book Basic"><tspan x="322.41" y="-923.22"/></text><text x="277.42" y="-4053.87" transform="scale(4.0128.2492)" style="font-size:46.954;font-family:Arial;text-anchor:middle"/><text x="903.67" y="-1003.23" line-height="125%" style="letter-spacing:0;word-spacing:0;font-size:129.23;font-family:Gentium Book Basic"><tspan x="903.67" y="-1003.23"/></text><text x="422.27" y="-4374.9" transform="scale(4.0128.2492)" style="font-size:46.954;font-family:Arial;text-anchor:middle"/><g line-height="125%" style="letter-spacing:0;word-spacing:0;font-family:Gentium Book Basic"><text x="-929.13" y="411.49" style="font-size:208.33"><tspan x="-929.13" y="411.49"/></text><text x="-125.14" y="88.17" style="font-size:129.23"><tspan x="-125.14" y="88.17"/></text></g><text x="165.9" y="4.677" transform="scale(4.0128.2492)" style="font-size:46.954;font-family:Arial;text-anchor:middle"/><text x="456.13" y="8.174" line-height="125%" style="letter-spacing:0;word-spacing:0;font-size:129.23;font-family:Gentium Book Basic"><tspan x="456.13" y="8.174"/></text><text x="310.75" y="-316.36" transform="scale(4.0128.2492)" style="font-size:46.954;font-family:Arial;text-anchor:middle"/><text x="-615.45" y="-173.09" line-height="125%" style="letter-spacing:0;word-spacing:0;font-size:129.23;font-family:Gentium Book Basic"><tspan x="-615.45" y="-173.09"/></text><text x="43.707" y="-1043.71" transform="scale(4.0128.2492)" style="font-size:46.954;font-family:Arial;text-anchor:middle"/><text x="482.6" y="-389.56" line-height="125%" style="letter-spacing:0;word-spacing:0;font-size:129.23;font-family:Gentium Book Basic"><tspan x="482.6" y="-389.56"/></text><text x="317.35" y="-1912.38" transform="scale(4.0128.2492)" style="font-size:46.954;font-family:Arial;text-anchor:middle"/><text x="1063.87" y="-469.56" line-height="125%" style="letter-spacing:0;word-spacing:0;font-size:129.23;font-family:Gentium Book Basic"><tspan x="1063.87" y="-469.56"/></text><text x="462.19" y="-2233.41" transform="scale(4.0128.2492)" style="font-size:46.954;font-family:Arial;text-anchor:middle"/><text x="674.75" y="-941.96" line-height="125%" style="letter-spacing:0;word-spacing:0;font-size:129.23;font-family:Gentium Book Basic"><tspan x="674.75" y="-941.96"/></text><text x="365.22" y="-4129.06" transform="scale(4.0128.2492)" style="font-size:46.954;font-family:Arial;text-anchor:middle"/><text x="1256.01" y="-1021.97" line-height="125%" style="letter-spacing:0;word-spacing:0;font-size:129.23;font-family:Gentium Book Basic"><tspan x="1256.01" y="-1021.97"/></text><text x="510.07" y="-4450.1" transform="scale(4.0128.2492)" style="font-size:46.954;font-family:Arial;text-anchor:middle"/><g line-height="125%" style="letter-spacing:0;word-spacing:0;font-family:Gentium Book Basic"><text x="-576.79" y="392.75" style="font-size:208.33"><tspan x="-576.79" y="392.75"/></text><text x="-485.28" y="153.26" style="font-size:129.23"><tspan x="-485.28" y="153.26"/></text></g><text x="76.15" y="265.85" transform="scale(4.0128.2492)" style="font-size:46.954;font-family:Arial;text-anchor:middle"/><text x="95.99" y="73.26" line-height="125%" style="letter-spacing:0;word-spacing:0;font-size:129.23;font-family:Gentium Book Basic"><tspan x="95.99" y="73.26"/></text><text x="221" y="-55.19" transform="scale(4.0128.2492)" style="font-size:46.954;font-family:Arial;text-anchor:middle"/><text x="-975.59" y="-108" line-height="125%" style="letter-spacing:0;word-spacing:0;font-size:129.23;font-family:Gentium Book Basic"><tspan x="-975.59" y="-108"/></text><text x="-46.04" y="-782.53" transform="scale(4.0128.2492)" style="font-size:46.954;font-family:Arial;text-anchor:middle"/><text x="122.46" y="-324.47" line-height="125%" style="letter-spacing:0;word-spacing:0;font-size:129.23;font-family:Gentium Book Basic"><tspan x="122.46" y="-324.47"/></text><text x="227.6" y="-1651.21" transform="scale(4.0128.2492)" style="font-size:46.954;font-family:Arial;text-anchor:middle"/><text x="703.73" y="-404.47" line-height="125%" style="letter-spacing:0;word-spacing:0;font-size:129.23;font-family:Gentium Book Basic"><tspan x="703.73" y="-404.47"/></text><text x="372.45" y="-1972.24" transform="scale(4.0128.2492)" style="font-size:46.954;font-family:Arial;text-anchor:middle"/><text x="314.61" y="-876.87" line-height="125%" style="letter-spacing:0;word-spacing:0;font-size:129.23;font-family:Gentium Book Basic"><tspan x="314.61" y="-876.87"/></text><text x="275.48" y="-3867.89" transform="scale(4.0128.2492)" style="font-size:46.954;font-family:Arial;text-anchor:middle"/><text x="895.87" y="-956.88" line-height="125%" style="letter-spacing:0;word-spacing:0;font-size:129.23;font-family:Gentium Book Basic"><tspan x="895.87" y="-956.88"/></text><text x="420.33" y="-4188.93" transform="scale(4.0128.2492)" style="font-size:46.954;font-family:Arial;text-anchor:middle"/><g line-height="125%" style="letter-spacing:0;word-spacing:0;font-family:Gentium Book Basic"><text x="-936.93" y="457.84" style="font-size:208.33"><tspan x="-936.93" y="457.84"/></text><text x="-246.39" y="-581.44" style="font-size:129.23"><tspan x="-246.39" y="-581.44"/></text></g><text x="135.68" y="-2682.38" transform="scale(4.0128.2492)" style="font-size:46.954;font-family:Arial;text-anchor:middle"/><text x="334.88" y="-661.44" line-height="125%" style="letter-spacing:0;word-spacing:0;font-size:129.23;font-family:Gentium Book Basic"><tspan x="334.88" y="-661.44"/></text><text x="280.53" y="-3003.42" transform="scale(4.0128.2492)" style="font-size:46.954;font-family:Arial;text-anchor:middle"/><text x="-736.7" y="-842.7" line-height="125%" style="letter-spacing:0;word-spacing:0;font-size:129.23;font-family:Gentium Book Basic"><tspan x="-736.7" y="-842.7"/></text><text x="13.492" y="-3730.76" transform="scale(4.0128.2492)" style="font-size:46.954;font-family:Arial;text-anchor:middle"/><text x="361.35" y="-1059.17" line-height="125%" style="letter-spacing:0;word-spacing:0;font-size:129.23;font-family:Gentium Book Basic"><tspan x="361.35" y="-1059.17"/></text><text x="287.13" y="-4599.43" transform="scale(4.0128.2492)" style="font-size:46.954;font-family:Arial;text-anchor:middle"/><text x="942.62" y="-1139.17" line-height="125%" style="letter-spacing:0;word-spacing:0;font-size:129.23;font-family:Gentium Book Basic"><tspan x="942.62" y="-1139.17"/></text><text x="431.98" y="-4920.46" transform="scale(4.0128.2492)" style="font-size:46.954;font-family:Arial;text-anchor:middle"/><text x="553.5" y="-1611.57" line-height="125%" style="letter-spacing:0;word-spacing:0;font-size:129.23;font-family:Gentium Book Basic"><tspan x="553.5" y="-1611.57"/></text><text x="335.01" y="-6816.1" transform="scale(4.0128.2492)" style="font-size:46.954;font-family:Arial;text-anchor:middle"/><text x="1134.76" y="-1691.58" line-height="125%" style="letter-spacing:0;word-spacing:0;font-size:129.23;font-family:Gentium Book Basic"><tspan x="1134.76" y="-1691.58"/></text><text x="479.86" y="-7137.14" transform="scale(4.0128.2492)" style="font-size:46.954;font-family:Arial;text-anchor:middle"/><g line-height="125%" style="letter-spacing:0;word-spacing:0;font-family:Gentium Book Basic"><text x="-698.04" y="-276.86" style="font-size:208.33"><tspan x="-698.04" y="-276.86"/></text><text x="2766.8" y="-370.38" style="font-size:129.23"><tspan x="2766.8" y="-370.38"/></text></g><text x="886.57" y="-1835.44" transform="scale(4.0128.2492)" style="font-size:46.954;font-family:Arial;text-anchor:middle"/><text x="3348.07" y="-450.38" line-height="125%" style="letter-spacing:0;word-spacing:0;font-size:129.23;font-family:Gentium Book Basic"><tspan x="3348.07" y="-450.38"/></text><text x="1031.42" y="-2156.47" transform="scale(4.0128.2492)" style="font-size:46.954;font-family:Arial;text-anchor:middle"/><text x="2276.49" y="-631.64" line-height="125%" style="letter-spacing:0;word-spacing:0;font-size:129.23;font-family:Gentium Book Basic"><tspan x="2276.49" y="-631.64"/></text><text x="764.38" y="-2883.83" transform="scale(4.0128.2492)" style="font-size:46.954;font-family:Arial;text-anchor:middle"/><text x="3374.54" y="-848.11" line-height="125%" style="letter-spacing:0;word-spacing:0;font-size:129.23;font-family:Gentium Book Basic"><tspan x="3374.54" y="-848.11"/></text><text x="1038.02" y="-3752.49" transform="scale(4.0128.2492)" style="font-size:46.954;font-family:Arial;text-anchor:middle"/><text x="3955.81" y="-928.12" line-height="125%" style="letter-spacing:0;word-spacing:0;font-size:129.23;font-family:Gentium Book Basic"><tspan x="3955.81" y="-928.12"/></text><text x="1182.87" y="-4073.53" transform="scale(4.0128.2492)" style="font-size:46.954;font-family:Arial;text-anchor:middle"/><text x="3566.69" y="-1400.52" line-height="125%" style="letter-spacing:0;word-spacing:0;font-size:129.23;font-family:Gentium Book Basic"><tspan x="3566.69" y="-1400.52"/></text><text x="1085.9" y="-5969.18" transform="scale(4.0128.2492)" style="font-size:46.954;font-family:Arial;text-anchor:middle"/><text x="4147.95" y="-1480.52" line-height="125%" style="letter-spacing:0;word-spacing:0;font-size:129.23;font-family:Gentium Book Basic"><tspan x="4147.95" y="-1480.52"/></text><text x="1230.75" y="-6290.21" transform="scale(4.0128.2492)" style="font-size:46.954;font-family:Arial;text-anchor:middle"/><g line-height="125%" style="letter-spacing:0;word-spacing:0;font-family:Gentium Book Basic"><text x="2315.15" y="-65.803" style="font-size:208.33"><tspan x="2315.15" y="-65.803"/></text><text x="1357.26" y="63.959" style="font-size:129.23"><tspan x="1357.26" y="63.959"/></text></g><text x="535.31" y="-92.49" transform="scale(4.0128.2492)" style="font-size:46.954;font-family:Arial;text-anchor:middle"/><text x="1938.53" y="-16.04" line-height="125%" style="letter-spacing:0;word-spacing:0;font-size:129.23;font-family:Gentium Book Basic"><tspan x="1938.53" y="-16.04"/></text><text x="680.16" y="-413.53" transform="scale(4.0128.2492)" style="font-size:46.954;font-family:Arial;text-anchor:middle"/><text x="866.95" y="-197.3" line-height="125%" style="letter-spacing:0;word-spacing:0;font-size:129.23;font-family:Gentium Book Basic"><tspan x="866.95" y="-197.3"/></text><text x="413.12" y="-1140.88" transform="scale(4.0128.2492)" style="font-size:46.954;font-family:Arial;text-anchor:middle"/><text x="1965" y="-413.77" line-height="125%" style="letter-spacing:0;word-spacing:0;font-size:129.23;font-family:Gentium Book Basic"><tspan x="1965" y="-413.77"/></text><text x="686.76" y="-2009.55" transform="scale(4.0128.2492)" style="font-size:46.954;font-family:Arial;text-anchor:middle"/><text x="2546.27" y="-493.77" line-height="125%" style="letter-spacing:0;word-spacing:0;font-size:129.23;font-family:Gentium Book Basic"><tspan x="2546.27" y="-493.77"/></text><text x="831.61" y="-2330.58" transform="scale(4.0128.2492)" style="font-size:46.954;font-family:Arial;text-anchor:middle"/><text x="2157.15" y="-966.17" line-height="125%" style="letter-spacing:0;word-spacing:0;font-size:129.23;font-family:Gentium Book Basic"><tspan x="2157.15" y="-966.17"/></text><text x="734.64" y="-4226.23" transform="scale(4.0128.2492)" style="font-size:46.954;font-family:Arial;text-anchor:middle"/><text x="2738.41" y="-1046.18" line-height="125%" style="letter-spacing:0;word-spacing:0;font-size:129.23;font-family:Gentium Book Basic"><tspan x="2738.41" y="-1046.18"/></text><text x="879.49" y="-4547.27" transform="scale(4.0128.2492)" style="font-size:46.954;font-family:Arial;text-anchor:middle"/><g line-height="125%" style="letter-spacing:0;word-spacing:0;font-family:Gentium Book Basic"><text x="905.61" y="368.54" style="font-size:208.33"><tspan x="905.61" y="368.54"/></text><text x="1596.15" y="-670.74" style="font-size:129.23"><tspan x="1596.15" y="-670.74"/></text></g><text x="594.84" y="-3040.72" transform="scale(4.0128.2492)" style="font-size:46.954;font-family:Arial;text-anchor:middle"/><text x="2177.42" y="-750.74" line-height="125%" style="letter-spacing:0;word-spacing:0;font-size:129.23;font-family:Gentium Book Basic"><tspan x="2177.42" y="-750.74"/></text><text x="739.69" y="-3361.76" transform="scale(4.0128.2492)" style="font-size:46.954;font-family:Arial;text-anchor:middle"/><text x="1105.84" y="-932" line-height="125%" style="letter-spacing:0;word-spacing:0;font-size:129.23;font-family:Gentium Book Basic"><tspan x="1105.84" y="-932"/></text><text x="472.65" y="-4089.11" transform="scale(4.0128.2492)" style="font-size:46.954;font-family:Arial;text-anchor:middle"/><text x="2203.89" y="-1148.47" line-height="125%" style="letter-spacing:0;word-spacing:0;font-size:129.23;font-family:Gentium Book Basic"><tspan x="2203.89" y="-1148.47"/></text><text x="746.29" y="-4957.77" transform="scale(4.0128.2492)" style="font-size:46.954;font-family:Arial;text-anchor:middle"/><text x="2785.16" y="-1228.47" line-height="125%" style="letter-spacing:0;word-spacing:0;font-size:129.23;font-family:Gentium Book Basic"><tspan x="2785.16" y="-1228.47"/></text><text x="891.14" y="-5278.8" transform="scale(4.0128.2492)" style="font-size:46.954;font-family:Arial;text-anchor:middle"/><text x="2396.04" y="-1700.87" line-height="125%" style="letter-spacing:0;word-spacing:0;font-size:129.23;font-family:Gentium Book Basic"><tspan x="2396.04" y="-1700.87"/></text><text x="794.17" y="-7174.44" transform="scale(4.0128.2492)" style="font-size:46.954;font-family:Arial;text-anchor:middle"/><text x="2977.3" y="-1780.88" line-height="125%" style="letter-spacing:0;word-spacing:0;font-size:129.23;font-family:Gentium Book Basic"><tspan x="2977.3" y="-1780.88"/></text><text x="939.02" y="-7495.48" transform="scale(4.0128.2492)" style="font-size:46.954;font-family:Arial;text-anchor:middle"/><text x="1144.5" y="-366.16" line-height="125%" style="letter-spacing:0;word-spacing:0;font-size:208.33;font-family:Gentium Book Basic"><tspan x="1144.5" y="-366.16"/></text><path d="m26 0c-14.397 0-26 11.603-26 26v460c0 14.397 11.603 26 26 26h460c14.397 0 26-11.603 26-26v-460c0-14.397-11.603-26-26-26h-460" style="fill:#cd1d31"/><text x="-376.23" y="202.02" line-height="125%" style="letter-spacing:0;word-spacing:0;font-size:129.23;font-family:&apos;Gentium Book Basic&apos;"><tspan x="-376.23" y="202.02"/></text><text x="103.32" y="461.54" transform="scale(4.0128.2492)" style="font-size:46.954;font-family:Arial;text-anchor:middle"/><text x="205.04" y="122.02" line-height="125%" style="letter-spacing:0;word-spacing:0;font-size:129.23;font-family:&apos;Gentium Book Basic&apos;"><tspan x="205.04" y="122.02"/></text><text x="248.17" y="140.5" transform="scale(4.0128.2492)" style="font-size:46.954;font-family:Arial;text-anchor:middle"/><text x="-866.54" y="-59.24" line-height="125%" style="letter-spacing:0;word-spacing:0;font-size:129.23;font-family:&apos;Gentium Book Basic&apos;"><tspan x="-866.54" y="-59.24"/></text><text x="-18.866" y="-586.84" transform="scale(4.0128.2492)" style="font-size:46.954;font-family:Arial;text-anchor:middle"/><text x="231.51" y="-275.71" line-height="125%" style="letter-spacing:0;word-spacing:0;font-size:129.23;font-family:&apos;Gentium Book Basic&apos;"><tspan x="231.51" y="-275.71"/></text><text x="254.77" y="-1455.52" transform="scale(4.0128.2492)" style="font-size:46.954;font-family:Arial;text-anchor:middle"/><text x="812.78" y="-355.71" line-height="125%" style="letter-spacing:0;word-spacing:0;font-size:129.23;font-family:&apos;Gentium Book Basic&apos;"><tspan x="812.78" y="-355.71"/></text><text x="399.62" y="-1776.55" transform="scale(4.0128.2492)" style="font-size:46.954;font-family:Arial;text-anchor:middle"/><text x="423.66" y="-828.11" line-height="125%" style="letter-spacing:0;word-spacing:0;font-size:129.23;font-family:&apos;Gentium Book Basic&apos;"><tspan x="423.66" y="-828.11"/></text><text x="302.65" y="-3672.2" transform="scale(4.0128.2492)" style="font-size:46.954;font-family:Arial;text-anchor:middle"/><text x="1004.92" y="-908.12" line-height="125%" style="letter-spacing:0;word-spacing:0;font-size:129.23;font-family:&apos;Gentium Book Basic&apos;"><tspan x="1004.92" y="-908.12"/></text><text x="447.5" y="-3993.24" transform="scale(4.0128.2492)" style="font-size:46.954;font-family:Arial;text-anchor:middle"/><text x="-827.88" y="506.6" line-height="125%" style="letter-spacing:0;word-spacing:0;font-size:208.33;font-family:&apos;Gentium Book Basic&apos;"><tspan x="-827.88" y="506.6"/></text><path d="m203.18 76.83c-48.542 0-87.73 15.968-117.52 47.961-29.787 31.836-44.66 76.61-44.66 134.29 0 54.53 14.808 97.55 44.44 129.07 1.076 1.139 2.161 2.256 3.258 3.354l120.5 120.5h276.81c14.397 0 26-11.603 26-26v-362.29l-41-41h-69.957v126.2l-92.46-92.46c-.699-.699-1.408-1.384-2.123-2.057-26.478-25.06-60.888-37.566-103.28-37.566" style="opacity:.25"/><path d="m203.18 76.83c-48.542 0-87.73 15.968-117.52 47.961-29.787 31.836-44.66 76.61-44.66 134.29 0 54.53 14.807 97.55 44.44 129.07 29.629 31.363 67.44 47.02 113.46 47.02 37.19 0 67.883-9.112 92-27.394 24.271-18.44 41.574-46.587 51.977-84.41l-67.815-21.504c-5.832 25.374-15.47 43.949-28.866 55.769-13.397 11.82-29.409 17.757-48.01 17.757-25.22 0-45.675-9.287-61.43-27.884-15.76-18.597-23.646-49.833-23.646-93.65 0-41.29 7.951-71.15 23.869-89.59 16.08-18.439 36.95-27.661 62.64-27.661 18.597 0 34.37 5.214 47.29 15.615 13.08 10.402 21.69 24.596 25.788 42.563l69.24-16.552c-7.881-27.738-19.709-49.03-35.469-63.844-26.478-25.06-60.889-37.566-103.28-37.566m197.87 5.889v346.57h69.956v-346.57h-69.956z" style="fill:#fff"/></svg>