<?xml version="1.0" encoding="UTF-8" standalone="no"?>
<svg xmlns="http://www.w3.org/2000/svg" viewBox="0 0 512 512">
 <text style="word-spacing:0;letter-spacing:0" font-size="129.23" y="106.91" x="-477.48" font-family="Gentium Book Basic" line-height="125%">
  <tspan y="106.91" x="-477.48"/>
 </text>
 <text style="text-anchor:middle" transform="scale(4.0128.2492)" font-size="46.954" y="79.873" x="78.09" font-family="Arial"/>
 <text style="word-spacing:0;letter-spacing:0" font-size="129.23" y="26.913" x="103.79" font-family="Gentium Book Basic" line-height="125%">
  <tspan y="26.913" x="103.79"/>
 </text>
 <text style="text-anchor:middle" transform="scale(4.0128.2492)" font-size="46.954" y="-241.17" x="222.94" font-family="Arial"/>
 <text style="word-spacing:0;letter-spacing:0" font-size="129.23" y="-154.35" x="-967.79" font-family="Gentium Book Basic" line-height="125%">
  <tspan y="-154.35" x="-967.79"/>
 </text>
 <text style="text-anchor:middle" transform="scale(4.0128.2492)" font-size="46.954" y="-968.51" x="-44.1" font-family="Arial"/>
 <text style="word-spacing:0;letter-spacing:0" font-size="129.23" y="-370.82" x="130.26" font-family="Gentium Book Basic" line-height="125%">
  <tspan y="-370.82" x="130.26"/>
 </text>
 <text style="text-anchor:middle" transform="scale(4.0128.2492)" font-size="46.954" y="-1837.19" x="229.54" font-family="Arial"/>
 <text style="word-spacing:0;letter-spacing:0" font-size="129.23" y="-450.82" x="711.53" font-family="Gentium Book Basic" line-height="125%">
  <tspan y="-450.82" x="711.53"/>
 </text>
 <text style="text-anchor:middle" transform="scale(4.0128.2492)" font-size="46.954" y="-2158.22" x="374.39" font-family="Arial"/>
 <text style="word-spacing:0;letter-spacing:0" font-size="129.23" y="-923.22" x="322.41" font-family="Gentium Book Basic" line-height="125%">
  <tspan y="-923.22" x="322.41"/>
 </text>
 <text style="text-anchor:middle" transform="scale(4.0128.2492)" font-size="46.954" y="-4053.87" x="277.42" font-family="Arial"/>
 <text style="word-spacing:0;letter-spacing:0" font-size="129.23" y="-1003.23" x="903.67" font-family="Gentium Book Basic" line-height="125%">
  <tspan y="-1003.23" x="903.67"/>
 </text>
 <text style="text-anchor:middle" transform="scale(4.0128.2492)" font-size="46.954" y="-4374.9" x="422.27" font-family="Arial"/>
 <g style="word-spacing:0;letter-spacing:0" font-family="Gentium Book Basic" line-height="125%">
  <text y="411.49" x="-929.13" font-size="208.33">
   <tspan y="411.49" x="-929.13"/>
  </text>
  <text y="88.17" x="-125.14" font-size="129.23">
   <tspan y="88.17" x="-125.14"/>
  </text>
 </g>
 <text style="text-anchor:middle" transform="scale(4.0128.2492)" font-size="46.954" y="4.677" x="165.9" font-family="Arial"/>
 <text style="word-spacing:0;letter-spacing:0" font-size="129.23" y="8.174" x="456.13" font-family="Gentium Book Basic" line-height="125%">
  <tspan y="8.174" x="456.13"/>
 </text>
 <text style="text-anchor:middle" transform="scale(4.0128.2492)" font-size="46.954" y="-316.36" x="310.75" font-family="Arial"/>
 <text style="word-spacing:0;letter-spacing:0" font-size="129.23" y="-173.09" x="-615.45" font-family="Gentium Book Basic" line-height="125%">
  <tspan y="-173.09" x="-615.45"/>
 </text>
 <text style="text-anchor:middle" transform="scale(4.0128.2492)" font-size="46.954" y="-1043.71" x="43.707" font-family="Arial"/>
 <text style="word-spacing:0;letter-spacing:0" font-size="129.23" y="-389.56" x="482.6" font-family="Gentium Book Basic" line-height="125%">
  <tspan y="-389.56" x="482.6"/>
 </text>
 <text style="text-anchor:middle" transform="scale(4.0128.2492)" font-size="46.954" y="-1912.38" x="317.35" font-family="Arial"/>
 <text style="word-spacing:0;letter-spacing:0" font-size="129.23" y="-469.56" x="1063.87" font-family="Gentium Book Basic" line-height="125%">
  <tspan y="-469.56" x="1063.87"/>
 </text>
 <text style="text-anchor:middle" transform="scale(4.0128.2492)" font-size="46.954" y="-2233.41" x="462.19" font-family="Arial"/>
 <text style="word-spacing:0;letter-spacing:0" font-size="129.23" y="-941.96" x="674.75" font-family="Gentium Book Basic" line-height="125%">
  <tspan y="-941.96" x="674.75"/>
 </text>
 <text style="text-anchor:middle" transform="scale(4.0128.2492)" font-size="46.954" y="-4129.06" x="365.22" font-family="Arial"/>
 <text style="word-spacing:0;letter-spacing:0" font-size="129.23" y="-1021.97" x="1256.01" font-family="Gentium Book Basic" line-height="125%">
  <tspan y="-1021.97" x="1256.01"/>
 </text>
 <text style="text-anchor:middle" transform="scale(4.0128.2492)" font-size="46.954" y="-4450.1" x="510.07" font-family="Arial"/>
 <g style="word-spacing:0;letter-spacing:0" font-family="Gentium Book Basic" line-height="125%">
  <text y="392.75" x="-576.79" font-size="208.33">
   <tspan y="392.75" x="-576.79"/>
  </text>
  <text y="153.26" x="-485.28" font-size="129.23">
   <tspan y="153.26" x="-485.28"/>
  </text>
 </g>
 <text style="text-anchor:middle" transform="scale(4.0128.2492)" font-size="46.954" y="265.85" x="76.15" font-family="Arial"/>
 <text style="word-spacing:0;letter-spacing:0" font-size="129.23" y="73.26" x="95.99" font-family="Gentium Book Basic" line-height="125%">
  <tspan y="73.26" x="95.99"/>
 </text>
 <text style="text-anchor:middle" transform="scale(4.0128.2492)" font-size="46.954" y="-55.19" x="221" font-family="Arial"/>
 <text style="word-spacing:0;letter-spacing:0" font-size="129.23" y="-108" x="-975.59" font-family="Gentium Book Basic" line-height="125%">
  <tspan y="-108" x="-975.59"/>
 </text>
 <text style="text-anchor:middle" transform="scale(4.0128.2492)" font-size="46.954" y="-782.53" x="-46.04" font-family="Arial"/>
 <text style="word-spacing:0;letter-spacing:0" font-size="129.23" y="-324.47" x="122.46" font-family="Gentium Book Basic" line-height="125%">
  <tspan y="-324.47" x="122.46"/>
 </text>
 <text style="text-anchor:middle" transform="scale(4.0128.2492)" font-size="46.954" y="-1651.21" x="227.6" font-family="Arial"/>
 <text style="word-spacing:0;letter-spacing:0" font-size="129.23" y="-404.47" x="703.73" font-family="Gentium Book Basic" line-height="125%">
  <tspan y="-404.47" x="703.73"/>
 </text>
 <text style="text-anchor:middle" transform="scale(4.0128.2492)" font-size="46.954" y="-1972.24" x="372.45" font-family="Arial"/>
 <text style="word-spacing:0;letter-spacing:0" font-size="129.23" y="-876.87" x="314.61" font-family="Gentium Book Basic" line-height="125%">
  <tspan y="-876.87" x="314.61"/>
 </text>
 <text style="text-anchor:middle" transform="scale(4.0128.2492)" font-size="46.954" y="-3867.89" x="275.48" font-family="Arial"/>
 <text style="word-spacing:0;letter-spacing:0" font-size="129.23" y="-956.88" x="895.87" font-family="Gentium Book Basic" line-height="125%">
  <tspan y="-956.88" x="895.87"/>
 </text>
 <text style="text-anchor:middle" transform="scale(4.0128.2492)" font-size="46.954" y="-4188.93" x="420.33" font-family="Arial"/>
 <g style="word-spacing:0;letter-spacing:0" font-family="Gentium Book Basic" line-height="125%">
  <text y="457.84" x="-936.93" font-size="208.33">
   <tspan y="457.84" x="-936.93"/>
  </text>
  <text y="-581.44" x="-246.39" font-size="129.23">
   <tspan y="-581.44" x="-246.39"/>
  </text>
 </g>
 <text style="text-anchor:middle" transform="scale(4.0128.2492)" font-size="46.954" y="-2682.38" x="135.68" font-family="Arial"/>
 <text style="word-spacing:0;letter-spacing:0" font-size="129.23" y="-661.44" x="334.88" font-family="Gentium Book Basic" line-height="125%">
  <tspan y="-661.44" x="334.88"/>
 </text>
 <text style="text-anchor:middle" transform="scale(4.0128.2492)" font-size="46.954" y="-3003.42" x="280.53" font-family="Arial"/>
 <text style="word-spacing:0;letter-spacing:0" font-size="129.23" y="-842.7" x="-736.7" font-family="Gentium Book Basic" line-height="125%">
  <tspan y="-842.7" x="-736.7"/>
 </text>
 <text style="text-anchor:middle" transform="scale(4.0128.2492)" font-size="46.954" y="-3730.76" x="13.492" font-family="Arial"/>
 <text style="word-spacing:0;letter-spacing:0" font-size="129.23" y="-1059.17" x="361.35" font-family="Gentium Book Basic" line-height="125%">
  <tspan y="-1059.17" x="361.35"/>
 </text>
 <text style="text-anchor:middle" transform="scale(4.0128.2492)" font-size="46.954" y="-4599.43" x="287.13" font-family="Arial"/>
 <text style="word-spacing:0;letter-spacing:0" font-size="129.23" y="-1139.17" x="942.62" font-family="Gentium Book Basic" line-height="125%">
  <tspan y="-1139.17" x="942.62"/>
 </text>
 <text style="text-anchor:middle" transform="scale(4.0128.2492)" font-size="46.954" y="-4920.46" x="431.98" font-family="Arial"/>
 <text style="word-spacing:0;letter-spacing:0" font-size="129.23" y="-1611.57" x="553.5" font-family="Gentium Book Basic" line-height="125%">
  <tspan y="-1611.57" x="553.5"/>
 </text>
 <text style="text-anchor:middle" transform="scale(4.0128.2492)" font-size="46.954" y="-6816.1" x="335.01" font-family="Arial"/>
 <text style="word-spacing:0;letter-spacing:0" font-size="129.23" y="-1691.58" x="1134.76" font-family="Gentium Book Basic" line-height="125%">
  <tspan y="-1691.58" x="1134.76"/>
 </text>
 <text style="text-anchor:middle" transform="scale(4.0128.2492)" font-size="46.954" y="-7137.14" x="479.86" font-family="Arial"/>
 <g style="word-spacing:0;letter-spacing:0" font-family="Gentium Book Basic" line-height="125%">
  <text y="-276.86" x="-698.04" font-size="208.33">
   <tspan y="-276.86" x="-698.04"/>
  </text>
  <text y="-370.38" x="2766.8" font-size="129.23">
   <tspan y="-370.38" x="2766.8"/>
  </text>
 </g>
 <text style="text-anchor:middle" transform="scale(4.0128.2492)" font-size="46.954" y="-1835.44" x="886.57" font-family="Arial"/>
 <text style="word-spacing:0;letter-spacing:0" font-size="129.23" y="-450.38" x="3348.07" font-family="Gentium Book Basic" line-height="125%">
  <tspan y="-450.38" x="3348.07"/>
 </text>
 <text style="text-anchor:middle" transform="scale(4.0128.2492)" font-size="46.954" y="-2156.47" x="1031.42" font-family="Arial"/>
 <text style="word-spacing:0;letter-spacing:0" font-size="129.23" y="-631.64" x="2276.49" font-family="Gentium Book Basic" line-height="125%">
  <tspan y="-631.64" x="2276.49"/>
 </text>
 <text style="text-anchor:middle" transform="scale(4.0128.2492)" font-size="46.954" y="-2883.83" x="764.38" font-family="Arial"/>
 <text style="word-spacing:0;letter-spacing:0" font-size="129.23" y="-848.11" x="3374.54" font-family="Gentium Book Basic" line-height="125%">
  <tspan y="-848.11" x="3374.54"/>
 </text>
 <text style="text-anchor:middle" transform="scale(4.0128.2492)" font-size="46.954" y="-3752.49" x="1038.02" font-family="Arial"/>
 <text style="word-spacing:0;letter-spacing:0" font-size="129.23" y="-928.12" x="3955.81" font-family="Gentium Book Basic" line-height="125%">
  <tspan y="-928.12" x="3955.81"/>
 </text>
 <text style="text-anchor:middle" transform="scale(4.0128.2492)" font-size="46.954" y="-4073.53" x="1182.87" font-family="Arial"/>
 <text style="word-spacing:0;letter-spacing:0" font-size="129.23" y="-1400.52" x="3566.69" font-family="Gentium Book Basic" line-height="125%">
  <tspan y="-1400.52" x="3566.69"/>
 </text>
 <text style="text-anchor:middle" transform="scale(4.0128.2492)" font-size="46.954" y="-5969.18" x="1085.9" font-family="Arial"/>
 <text style="word-spacing:0;letter-spacing:0" font-size="129.23" y="-1480.52" x="4147.95" font-family="Gentium Book Basic" line-height="125%">
  <tspan y="-1480.52" x="4147.95"/>
 </text>
 <text style="text-anchor:middle" transform="scale(4.0128.2492)" font-size="46.954" y="-6290.21" x="1230.75" font-family="Arial"/>
 <g style="word-spacing:0;letter-spacing:0" font-family="Gentium Book Basic" line-height="125%">
  <text y="-65.803" x="2315.15" font-size="208.33">
   <tspan y="-65.803" x="2315.15"/>
  </text>
  <text y="63.959" x="1357.26" font-size="129.23">
   <tspan y="63.959" x="1357.26"/>
  </text>
 </g>
 <text style="text-anchor:middle" transform="scale(4.0128.2492)" font-size="46.954" y="-92.49" x="535.31" font-family="Arial"/>
 <text style="word-spacing:0;letter-spacing:0" font-size="129.23" y="-16.04" x="1938.53" font-family="Gentium Book Basic" line-height="125%">
  <tspan y="-16.04" x="1938.53"/>
 </text>
 <text style="text-anchor:middle" transform="scale(4.0128.2492)" font-size="46.954" y="-413.53" x="680.16" font-family="Arial"/>
 <text style="word-spacing:0;letter-spacing:0" font-size="129.23" y="-197.3" x="866.95" font-family="Gentium Book Basic" line-height="125%">
  <tspan y="-197.3" x="866.95"/>
 </text>
 <text style="text-anchor:middle" transform="scale(4.0128.2492)" font-size="46.954" y="-1140.88" x="413.12" font-family="Arial"/>
 <text style="word-spacing:0;letter-spacing:0" font-size="129.23" y="-413.77" x="1965" font-family="Gentium Book Basic" line-height="125%">
  <tspan y="-413.77" x="1965"/>
 </text>
 <text style="text-anchor:middle" transform="scale(4.0128.2492)" font-size="46.954" y="-2009.55" x="686.76" font-family="Arial"/>
 <text style="word-spacing:0;letter-spacing:0" font-size="129.23" y="-493.77" x="2546.27" font-family="Gentium Book Basic" line-height="125%">
  <tspan y="-493.77" x="2546.27"/>
 </text>
 <text style="text-anchor:middle" transform="scale(4.0128.2492)" font-size="46.954" y="-2330.58" x="831.61" font-family="Arial"/>
 <text style="word-spacing:0;letter-spacing:0" font-size="129.23" y="-966.17" x="2157.15" font-family="Gentium Book Basic" line-height="125%">
  <tspan y="-966.17" x="2157.15"/>
 </text>
 <text style="text-anchor:middle" transform="scale(4.0128.2492)" font-size="46.954" y="-4226.23" x="734.64" font-family="Arial"/>
 <text style="word-spacing:0;letter-spacing:0" font-size="129.23" y="-1046.18" x="2738.41" font-family="Gentium Book Basic" line-height="125%">
  <tspan y="-1046.18" x="2738.41"/>
 </text>
 <text style="text-anchor:middle" transform="scale(4.0128.2492)" font-size="46.954" y="-4547.27" x="879.49" font-family="Arial"/>
 <g style="word-spacing:0;letter-spacing:0" font-family="Gentium Book Basic" line-height="125%">
  <text y="368.54" x="905.61" font-size="208.33">
   <tspan y="368.54" x="905.61"/>
  </text>
  <text y="-670.74" x="1596.15" font-size="129.23">
   <tspan y="-670.74" x="1596.15"/>
  </text>
 </g>
 <text style="text-anchor:middle" transform="scale(4.0128.2492)" font-size="46.954" y="-3040.72" x="594.84" font-family="Arial"/>
 <text style="word-spacing:0;letter-spacing:0" font-size="129.23" y="-750.74" x="2177.42" font-family="Gentium Book Basic" line-height="125%">
  <tspan y="-750.74" x="2177.42"/>
 </text>
 <text style="text-anchor:middle" transform="scale(4.0128.2492)" font-size="46.954" y="-3361.76" x="739.69" font-family="Arial"/>
 <text style="word-spacing:0;letter-spacing:0" font-size="129.23" y="-932" x="1105.84" font-family="Gentium Book Basic" line-height="125%">
  <tspan y="-932" x="1105.84"/>
 </text>
 <text style="text-anchor:middle" transform="scale(4.0128.2492)" font-size="46.954" y="-4089.11" x="472.65" font-family="Arial"/>
 <text style="word-spacing:0;letter-spacing:0" font-size="129.23" y="-1148.47" x="2203.89" font-family="Gentium Book Basic" line-height="125%">
  <tspan y="-1148.47" x="2203.89"/>
 </text>
 <text style="text-anchor:middle" transform="scale(4.0128.2492)" font-size="46.954" y="-4957.77" x="746.29" font-family="Arial"/>
 <text style="word-spacing:0;letter-spacing:0" font-size="129.23" y="-1228.47" x="2785.16" font-family="Gentium Book Basic" line-height="125%">
  <tspan y="-1228.47" x="2785.16"/>
 </text>
 <text style="text-anchor:middle" transform="scale(4.0128.2492)" font-size="46.954" y="-5278.8" x="891.14" font-family="Arial"/>
 <text style="word-spacing:0;letter-spacing:0" font-size="129.23" y="-1700.87" x="2396.04" font-family="Gentium Book Basic" line-height="125%">
  <tspan y="-1700.87" x="2396.04"/>
 </text>
 <text style="text-anchor:middle" transform="scale(4.0128.2492)" font-size="46.954" y="-7174.44" x="794.17" font-family="Arial"/>
 <text style="word-spacing:0;letter-spacing:0" font-size="129.23" y="-1780.88" x="2977.3" font-family="Gentium Book Basic" line-height="125%">
  <tspan y="-1780.88" x="2977.3"/>
 </text>
 <text style="text-anchor:middle" transform="scale(4.0128.2492)" font-size="46.954" y="-7495.48" x="939.02" font-family="Arial"/>
 <text style="word-spacing:0;letter-spacing:0" font-size="208.33" y="-366.16" x="1144.5" font-family="Gentium Book Basic" line-height="125%">
  <tspan y="-366.16" x="1144.5"/>
 </text>
 <path d="m26 0c-14.397 0-26 11.603-26 26v460c0 14.397 11.603 26 26 26h460c14.397 0 26-11.603 26-26v-460c0-14.397-11.603-26-26-26h-460" fill="#cd1d31"/>
 <text style="word-spacing:0;letter-spacing:0" font-size="129.23" y="202.02" x="-376.23" font-family="&apos;Gentium Book Basic&apos;" line-height="125%">
  <tspan y="202.02" x="-376.23"/>
 </text>
 <text style="text-anchor:middle" transform="scale(4.0128.2492)" font-size="46.954" y="461.54" x="103.32" font-family="Arial"/>
 <text style="word-spacing:0;letter-spacing:0" font-size="129.23" y="122.02" x="205.04" font-family="&apos;Gentium Book Basic&apos;" line-height="125%">
  <tspan y="122.02" x="205.04"/>
 </text>
 <text style="text-anchor:middle" transform="scale(4.0128.2492)" font-size="46.954" y="140.5" x="248.17" font-family="Arial"/>
 <text style="word-spacing:0;letter-spacing:0" font-size="129.23" y="-59.24" x="-866.54" font-family="&apos;Gentium Book Basic&apos;" line-height="125%">
  <tspan y="-59.24" x="-866.54"/>
 </text>
 <text style="text-anchor:middle" transform="scale(4.0128.2492)" font-size="46.954" y="-586.84" x="-18.866" font-family="Arial"/>
 <text style="word-spacing:0;letter-spacing:0" font-size="129.23" y="-275.71" x="231.51" font-family="&apos;Gentium Book Basic&apos;" line-height="125%">
  <tspan y="-275.71" x="231.51"/>
 </text>
 <text style="text-anchor:middle" transform="scale(4.0128.2492)" font-size="46.954" y="-1455.52" x="254.77" font-family="Arial"/>
 <text style="word-spacing:0;letter-spacing:0" font-size="129.23" y="-355.71" x="812.78" font-family="&apos;Gentium Book Basic&apos;" line-height="125%">
  <tspan y="-355.71" x="812.78"/>
 </text>
 <text style="text-anchor:middle" transform="scale(4.0128.2492)" font-size="46.954" y="-1776.55" x="399.62" font-family="Arial"/>
 <text style="word-spacing:0;letter-spacing:0" font-size="129.23" y="-828.11" x="423.66" font-family="&apos;Gentium Book Basic&apos;" line-height="125%">
  <tspan y="-828.11" x="423.66"/>
 </text>
 <text style="text-anchor:middle" transform="scale(4.0128.2492)" font-size="46.954" y="-3672.2" x="302.65" font-family="Arial"/>
 <text style="word-spacing:0;letter-spacing:0" font-size="129.23" y="-908.12" x="1004.92" font-family="&apos;Gentium Book Basic&apos;" line-height="125%">
  <tspan y="-908.12" x="1004.92"/>
 </text>
 <text style="text-anchor:middle" transform="scale(4.0128.2492)" font-size="46.954" y="-3993.24" x="447.5" font-family="Arial"/>
 <text style="word-spacing:0;letter-spacing:0" font-size="208.33" y="506.6" x="-827.88" font-family="&apos;Gentium Book Basic&apos;" line-height="125%">
  <tspan y="506.6" x="-827.88"/>
 </text>
 <path opacity=".25" d="m203.18 76.83c-48.542 0-87.73 15.968-117.52 47.961-29.787 31.836-44.66 76.61-44.66 134.29 0 54.53 14.808 97.55 44.44 129.07 1.076 1.139 2.161 2.256 3.258 3.354l120.5 120.5h276.81c14.397 0 26-11.603 26-26v-362.29l-41-41h-69.957v126.2l-92.46-92.46c-0.699-0.699-1.408-1.384-2.123-2.057-26.478-25.06-60.888-37.566-103.28-37.566"/>
 <path d="m203.18 76.83c-48.542 0-87.73 15.968-117.52 47.961-29.787 31.836-44.66 76.61-44.66 134.29 0 54.53 14.807 97.55 44.44 129.07 29.629 31.363 67.44 47.02 113.46 47.02 37.19 0 67.883-9.112 92-27.394 24.271-18.44 41.574-46.587 51.977-84.41l-67.815-21.504c-5.832 25.374-15.47 43.949-28.866 55.769-13.397 11.82-29.409 17.757-48.01 17.757-25.22 0-45.675-9.287-61.43-27.884-15.76-18.597-23.646-49.833-23.646-93.65 0-41.29 7.951-71.15 23.869-89.59 16.08-18.439 36.95-27.661 62.64-27.661 18.597 0 34.37 5.214 47.29 15.615 13.08 10.402 21.69 24.596 25.788 42.563l69.24-16.552c-7.881-27.738-19.709-49.03-35.469-63.844-26.478-25.06-60.889-37.566-103.28-37.566m197.87 5.889v346.57h69.956v-346.57h-69.956z" fill="#fff"/>
</svg>
