<?xml version="1.0" encoding="UTF-8" standalone="no"?>
<svg xmlns="http://www.w3.org/2000/svg" viewBox="0 0 512 512">
 <text style="word-spacing:0;letter-spacing:0" font-size="129.23" y="106.91" x="-477.48" font-family="Gentium Book Basic" line-height="125%">
  <tspan y="106.91" x="-477.48"/>
 </text>
 <text style="text-anchor:middle" transform="scale(4.0128.2492)" font-size="46.954" y="79.873" x="78.09" font-family="Arial"/>
 <text style="word-spacing:0;letter-spacing:0" font-size="129.23" y="26.913" x="103.79" font-family="Gentium Book Basic" line-height="125%">
  <tspan y="26.913" x="103.79"/>
 </text>
 <text style="text-anchor:middle" transform="scale(4.0128.2492)" font-size="46.954" y="-241.17" x="222.94" font-family="Arial"/>
 <text style="word-spacing:0;letter-spacing:0" font-size="129.23" y="-154.35" x="-967.79" font-family="Gentium Book Basic" line-height="125%">
  <tspan y="-154.35" x="-967.79"/>
 </text>
 <text style="text-anchor:middle" transform="scale(4.0128.2492)" font-size="46.954" y="-968.51" x="-44.1" font-family="Arial"/>
 <text style="word-spacing:0;letter-spacing:0" font-size="129.23" y="-370.82" x="130.26" font-family="Gentium Book Basic" line-height="125%">
  <tspan y="-370.82" x="130.26"/>
 </text>
 <text style="text-anchor:middle" transform="scale(4.0128.2492)" font-size="46.954" y="-1837.19" x="229.54" font-family="Arial"/>
 <text style="word-spacing:0;letter-spacing:0" font-size="129.23" y="-450.82" x="711.53" font-family="Gentium Book Basic" line-height="125%">
  <tspan y="-450.82" x="711.53"/>
 </text>
 <text style="text-anchor:middle" transform="scale(4.0128.2492)" font-size="46.954" y="-2158.22" x="374.39" font-family="Arial"/>
 <text style="word-spacing:0;letter-spacing:0" font-size="129.23" y="-923.22" x="322.41" font-family="Gentium Book Basic" line-height="125%">
  <tspan y="-923.22" x="322.41"/>
 </text>
 <text style="text-anchor:middle" transform="scale(4.0128.2492)" font-size="46.954" y="-4053.87" x="277.42" font-family="Arial"/>
 <text style="word-spacing:0;letter-spacing:0" font-size="129.23" y="-1003.23" x="903.67" font-family="Gentium Book Basic" line-height="125%">
  <tspan y="-1003.23" x="903.67"/>
 </text>
 <text style="text-anchor:middle" transform="scale(4.0128.2492)" font-size="46.954" y="-4374.9" x="422.27" font-family="Arial"/>
 <g style="word-spacing:0;letter-spacing:0" font-family="Gentium Book Basic" line-height="125%">
  <text y="411.49" x="-929.13" font-size="208.33">
   <tspan y="411.49" x="-929.13"/>
  </text>
  <text y="88.17" x="-125.14" font-size="129.23">
   <tspan y="88.17" x="-125.14"/>
  </text>
 </g>
 <text style="text-anchor:middle" transform="scale(4.0128.2492)" font-size="46.954" y="4.677" x="165.9" font-family="Arial"/>
 <text style="word-spacing:0;letter-spacing:0" font-size="129.23" y="8.174" x="456.13" font-family="Gentium Book Basic" line-height="125%">
  <tspan y="8.174" x="456.13"/>
 </text>
 <text style="text-anchor:middle" transform="scale(4.0128.2492)" font-size="46.954" y="-316.36" x="310.75" font-family="Arial"/>
 <text style="word-spacing:0;letter-spacing:0" font-size="129.23" y="-173.09" x="-615.45" font-family="Gentium Book Basic" line-height="125%">
  <tspan y="-173.09" x="-615.45"/>
 </text>
 <text style="text-anchor:middle" transform="scale(4.0128.2492)" font-size="46.954" y="-1043.71" x="43.707" font-family="Arial"/>
 <text style="word-spacing:0;letter-spacing:0" font-size="129.23" y="-389.56" x="482.6" font-family="Gentium Book Basic" line-height="125%">
  <tspan y="-389.56" x="482.6"/>
 </text>
 <text style="text-anchor:middle" transform="scale(4.0128.2492)" font-size="46.954" y="-1912.38" x="317.35" font-family="Arial"/>
 <text style="word-spacing:0;letter-spacing:0" font-size="129.23" y="-469.56" x="1063.87" font-family="Gentium Book Basic" line-height="125%">
  <tspan y="-469.56" x="1063.87"/>
 </text>
 <text style="text-anchor:middle" transform="scale(4.0128.2492)" font-size="46.954" y="-2233.41" x="462.19" font-family="Arial"/>
 <text style="word-spacing:0;letter-spacing:0" font-size="129.23" y="-941.96" x="674.75" font-family="Gentium Book Basic" line-height="125%">
  <tspan y="-941.96" x="674.75"/>
 </text>
 <text style="text-anchor:middle" transform="scale(4.0128.2492)" font-size="46.954" y="-4129.06" x="365.22" font-family="Arial"/>
 <text style="word-spacing:0;letter-spacing:0" font-size="129.23" y="-1021.97" x="1256.01" font-family="Gentium Book Basic" line-height="125%">
  <tspan y="-1021.97" x="1256.01"/>
 </text>
 <text style="text-anchor:middle" transform="scale(4.0128.2492)" font-size="46.954" y="-4450.1" x="510.07" font-family="Arial"/>
 <g style="word-spacing:0;letter-spacing:0" font-family="Gentium Book Basic" line-height="125%">
  <text y="392.75" x="-576.79" font-size="208.33">
   <tspan y="392.75" x="-576.79"/>
  </text>
  <text y="153.26" x="-485.28" font-size="129.23">
   <tspan y="153.26" x="-485.28"/>
  </text>
 </g>
 <text style="text-anchor:middle" transform="scale(4.0128.2492)" font-size="46.954" y="265.85" x="76.15" font-family="Arial"/>
 <text style="word-spacing:0;letter-spacing:0" font-size="129.23" y="73.26" x="95.99" font-family="Gentium Book Basic" line-height="125%">
  <tspan y="73.26" x="95.99"/>
 </text>
 <text style="text-anchor:middle" transform="scale(4.0128.2492)" font-size="46.954" y="-55.19" x="221" font-family="Arial"/>
 <text style="word-spacing:0;letter-spacing:0" font-size="129.23" y="-108" x="-975.59" font-family="Gentium Book Basic" line-height="125%">
  <tspan y="-108" x="-975.59"/>
 </text>
 <text style="text-anchor:middle" transform="scale(4.0128.2492)" font-size="46.954" y="-782.53" x="-46.04" font-family="Arial"/>
 <text style="word-spacing:0;letter-spacing:0" font-size="129.23" y="-324.47" x="122.46" font-family="Gentium Book Basic" line-height="125%">
  <tspan y="-324.47" x="122.46"/>
 </text>
 <text style="text-anchor:middle" transform="scale(4.0128.2492)" font-size="46.954" y="-1651.21" x="227.6" font-family="Arial"/>
 <text style="word-spacing:0;letter-spacing:0" font-size="129.23" y="-404.47" x="703.73" font-family="Gentium Book Basic" line-height="125%">
  <tspan y="-404.47" x="703.73"/>
 </text>
 <text style="text-anchor:middle" transform="scale(4.0128.2492)" font-size="46.954" y="-1972.24" x="372.45" font-family="Arial"/>
 <text style="word-spacing:0;letter-spacing:0" font-size="129.23" y="-876.87" x="314.61" font-family="Gentium Book Basic" line-height="125%">
  <tspan y="-876.87" x="314.61"/>
 </text>
 <text style="text-anchor:middle" transform="scale(4.0128.2492)" font-size="46.954" y="-3867.89" x="275.48" font-family="Arial"/>
 <text style="word-spacing:0;letter-spacing:0" font-size="129.23" y="-956.88" x="895.87" font-family="Gentium Book Basic" line-height="125%">
  <tspan y="-956.88" x="895.87"/>
 </text>
 <text style="text-anchor:middle" transform="scale(4.0128.2492)" font-size="46.954" y="-4188.93" x="420.33" font-family="Arial"/>
 <g style="word-spacing:0;letter-spacing:0" font-family="Gentium Book Basic" line-height="125%">
  <text y="457.84" x="-936.93" font-size="208.33">
   <tspan y="457.84" x="-936.93"/>
  </text>
  <text y="-581.44" x="-246.39" font-size="129.23">
   <tspan y="-581.44" x="-246.39"/>
  </text>
 </g>
 <text style="text-anchor:middle" transform="scale(4.0128.2492)" font-size="46.954" y="-2682.38" x="135.68" font-family="Arial"/>
 <text style="word-spacing:0;letter-spacing:0" font-size="129.23" y="-661.44" x="334.88" font-family="Gentium Book Basic" line-height="125%">
  <tspan y="-661.44" x="334.88"/>
 </text>
 <text style="text-anchor:middle" transform="scale(4.0128.2492)" font-size="46.954" y="-3003.42" x="280.53" font-family="Arial"/>
 <text style="word-spacing:0;letter-spacing:0" font-size="129.23" y="-842.7" x="-736.7" font-family="Gentium Book Basic" line-height="125%">
  <tspan y="-842.7" x="-736.7"/>
 </text>
 <text style="text-anchor:middle" transform="scale(4.0128.2492)" font-size="46.954" y="-3730.76" x="13.492" font-family="Arial"/>
 <text style="word-spacing:0;letter-spacing:0" font-size="129.23" y="-1059.17" x="361.35" font-family="Gentium Book Basic" line-height="125%">
  <tspan y="-1059.17" x="361.35"/>
 </text>
 <text style="text-anchor:middle" transform="scale(4.0128.2492)" font-size="46.954" y="-4599.43" x="287.13" font-family="Arial"/>
 <text style="word-spacing:0;letter-spacing:0" font-size="129.23" y="-1139.17" x="942.62" font-family="Gentium Book Basic" line-height="125%">
  <tspan y="-1139.17" x="942.62"/>
 </text>
 <text style="text-anchor:middle" transform="scale(4.0128.2492)" font-size="46.954" y="-4920.46" x="431.98" font-family="Arial"/>
 <text style="word-spacing:0;letter-spacing:0" font-size="129.23" y="-1611.57" x="553.5" font-family="Gentium Book Basic" line-height="125%">
  <tspan y="-1611.57" x="553.5"/>
 </text>
 <text style="text-anchor:middle" transform="scale(4.0128.2492)" font-size="46.954" y="-6816.1" x="335.01" font-family="Arial"/>
 <text style="word-spacing:0;letter-spacing:0" font-size="129.23" y="-1691.58" x="1134.76" font-family="Gentium Book Basic" line-height="125%">
  <tspan y="-1691.58" x="1134.76"/>
 </text>
 <text style="text-anchor:middle" transform="scale(4.0128.2492)" font-size="46.954" y="-7137.14" x="479.86" font-family="Arial"/>
 <g style="word-spacing:0;letter-spacing:0" font-family="Gentium Book Basic" line-height="125%">
  <text y="-276.86" x="-698.04" font-size="208.33">
   <tspan y="-276.86" x="-698.04"/>
  </text>
  <text y="-370.38" x="2766.8" font-size="129.23">
   <tspan y="-370.38" x="2766.8"/>
  </text>
 </g>
 <text style="text-anchor:middle" transform="scale(4.0128.2492)" font-size="46.954" y="-1835.44" x="886.57" font-family="Arial"/>
 <text style="word-spacing:0;letter-spacing:0" font-size="129.23" y="-450.38" x="3348.07" font-family="Gentium Book Basic" line-height="125%">
  <tspan y="-450.38" x="3348.07"/>
 </text>
 <text style="text-anchor:middle" transform="scale(4.0128.2492)" font-size="46.954" y="-2156.47" x="1031.42" font-family="Arial"/>
 <text style="word-spacing:0;letter-spacing:0" font-size="129.23" y="-631.64" x="2276.49" font-family="Gentium Book Basic" line-height="125%">
  <tspan y="-631.64" x="2276.49"/>
 </text>
 <text style="text-anchor:middle" transform="scale(4.0128.2492)" font-size="46.954" y="-2883.83" x="764.38" font-family="Arial"/>
 <text style="word-spacing:0;letter-spacing:0" font-size="129.23" y="-848.11" x="3374.54" font-family="Gentium Book Basic" line-height="125%">
  <tspan y="-848.11" x="3374.54"/>
 </text>
 <text style="text-anchor:middle" transform="scale(4.0128.2492)" font-size="46.954" y="-3752.49" x="1038.02" font-family="Arial"/>
 <text style="word-spacing:0;letter-spacing:0" font-size="129.23" y="-928.12" x="3955.81" font-family="Gentium Book Basic" line-height="125%">
  <tspan y="-928.12" x="3955.81"/>
 </text>
 <text style="text-anchor:middle" transform="scale(4.0128.2492)" font-size="46.954" y="-4073.53" x="1182.87" font-family="Arial"/>
 <text style="word-spacing:0;letter-spacing:0" font-size="129.23" y="-1400.52" x="3566.69" font-family="Gentium Book Basic" line-height="125%">
  <tspan y="-1400.52" x="3566.69"/>
 </text>
 <text style="text-anchor:middle" transform="scale(4.0128.2492)" font-size="46.954" y="-5969.18" x="1085.9" font-family="Arial"/>
 <text style="word-spacing:0;letter-spacing:0" font-size="129.23" y="-1480.52" x="4147.95" font-family="Gentium Book Basic" line-height="125%">
  <tspan y="-1480.52" x="4147.95"/>
 </text>
 <text style="text-anchor:middle" transform="scale(4.0128.2492)" font-size="46.954" y="-6290.21" x="1230.75" font-family="Arial"/>
 <g style="word-spacing:0;letter-spacing:0" font-family="Gentium Book Basic" line-height="125%">
  <text y="-65.803" x="2315.15" font-size="208.33">
   <tspan y="-65.803" x="2315.15"/>
  </text>
  <text y="63.959" x="1357.26" font-size="129.23">
   <tspan y="63.959" x="1357.26"/>
  </text>
 </g>
 <text style="text-anchor:middle" transform="scale(4.0128.2492)" font-size="46.954" y="-92.49" x="535.31" font-family="Arial"/>
 <text style="word-spacing:0;letter-spacing:0" font-size="129.23" y="-16.04" x="1938.53" font-family="Gentium Book Basic" line-height="125%">
  <tspan y="-16.04" x="1938.53"/>
 </text>
 <text style="text-anchor:middle" transform="scale(4.0128.2492)" font-size="46.954" y="-413.53" x="680.16" font-family="Arial"/>
 <text style="word-spacing:0;letter-spacing:0" font-size="129.23" y="-197.3" x="866.95" font-family="Gentium Book Basic" line-height="125%">
  <tspan y="-197.3" x="866.95"/>
 </text>
 <text style="text-anchor:middle" transform="scale(4.0128.2492)" font-size="46.954" y="-1140.88" x="413.12" font-family="Arial"/>
 <text style="word-spacing:0;letter-spacing:0" font-size="129.23" y="-413.77" x="1965" font-family="Gentium Book Basic" line-height="125%">
  <tspan y="-413.77" x="1965"/>
 </text>
 <text style="text-anchor:middle" transform="scale(4.0128.2492)" font-size="46.954" y="-2009.55" x="686.76" font-family="Arial"/>
 <text style="word-spacing:0;letter-spacing:0" font-size="129.23" y="-493.77" x="2546.27" font-family="Gentium Book Basic" line-height="125%">
  <tspan y="-493.77" x="2546.27"/>
 </text>
 <text style="text-anchor:middle" transform="scale(4.0128.2492)" font-size="46.954" y="-2330.58" x="831.61" font-family="Arial"/>
 <text style="word-spacing:0;letter-spacing:0" font-size="129.23" y="-966.17" x="2157.15" font-family="Gentium Book Basic" line-height="125%">
  <tspan y="-966.17" x="2157.15"/>
 </text>
 <text style="text-anchor:middle" transform="scale(4.0128.2492)" font-size="46.954" y="-4226.23" x="734.64" font-family="Arial"/>
 <text style="word-spacing:0;letter-spacing:0" font-size="129.23" y="-1046.18" x="2738.41" font-family="Gentium Book Basic" line-height="125%">
  <tspan y="-1046.18" x="2738.41"/>
 </text>
 <text style="text-anchor:middle" transform="scale(4.0128.2492)" font-size="46.954" y="-4547.27" x="879.49" font-family="Arial"/>
 <g style="word-spacing:0;letter-spacing:0" font-family="Gentium Book Basic" line-height="125%">
  <text y="368.54" x="905.61" font-size="208.33">
   <tspan y="368.54" x="905.61"/>
  </text>
  <text y="-670.74" x="1596.15" font-size="129.23">
   <tspan y="-670.74" x="1596.15"/>
  </text>
 </g>
 <text style="text-anchor:middle" transform="scale(4.0128.2492)" font-size="46.954" y="-3040.72" x="594.84" font-family="Arial"/>
 <text style="word-spacing:0;letter-spacing:0" font-size="129.23" y="-750.74" x="2177.42" font-family="Gentium Book Basic" line-height="125%">
  <tspan y="-750.74" x="2177.42"/>
 </text>
 <text style="text-anchor:middle" transform="scale(4.0128.2492)" font-size="46.954" y="-3361.76" x="739.69" font-family="Arial"/>
 <text style="word-spacing:0;letter-spacing:0" font-size="129.23" y="-932" x="1105.84" font-family="Gentium Book Basic" line-height="125%">
  <tspan y="-932" x="1105.84"/>
 </text>
 <text style="text-anchor:middle" transform="scale(4.0128.2492)" font-size="46.954" y="-4089.11" x="472.65" font-family="Arial"/>
 <text style="word-spacing:0;letter-spacing:0" font-size="129.23" y="-1148.47" x="2203.89" font-family="Gentium Book Basic" line-height="125%">
  <tspan y="-1148.47" x="2203.89"/>
 </text>
 <text style="text-anchor:middle" transform="scale(4.0128.2492)" font-size="46.954" y="-4957.77" x="746.29" font-family="Arial"/>
 <text style="word-spacing:0;letter-spacing:0" font-size="129.23" y="-1228.47" x="2785.16" font-family="Gentium Book Basic" line-height="125%">
  <tspan y="-1228.47" x="2785.16"/>
 </text>
 <text style="text-anchor:middle" transform="scale(4.0128.2492)" font-size="46.954" y="-5278.8" x="891.14" font-family="Arial"/>
 <text style="word-spacing:0;letter-spacing:0" font-size="129.23" y="-1700.87" x="2396.04" font-family="Gentium Book Basic" line-height="125%">
  <tspan y="-1700.87" x="2396.04"/>
 </text>
 <text style="text-anchor:middle" transform="scale(4.0128.2492)" font-size="46.954" y="-7174.44" x="794.17" font-family="Arial"/>
 <text style="word-spacing:0;letter-spacing:0" font-size="129.23" y="-1780.88" x="2977.3" font-family="Gentium Book Basic" line-height="125%">
  <tspan y="-1780.88" x="2977.3"/>
 </text>
 <text style="text-anchor:middle" transform="scale(4.0128.2492)" font-size="46.954" y="-7495.48" x="939.02" font-family="Arial"/>
 <g style="word-spacing:0;letter-spacing:0" line-height="125%">
  <text y="-366.16" x="1144.5" font-family="Gentium Book Basic" font-size="208.33">
   <tspan y="-366.16" x="1144.5"/>
  </text>
  <text y="202.02" x="-376.23" font-family="&apos;Gentium Book Basic&apos;" font-size="129.23">
   <tspan y="202.02" x="-376.23"/>
  </text>
 </g>
 <text style="text-anchor:middle" transform="scale(4.0128.2492)" font-size="46.954" y="461.54" x="103.32" font-family="Arial"/>
 <text style="word-spacing:0;letter-spacing:0" font-size="129.23" y="122.02" x="205.04" font-family="&apos;Gentium Book Basic&apos;" line-height="125%">
  <tspan y="122.02" x="205.04"/>
 </text>
 <text style="text-anchor:middle" transform="scale(4.0128.2492)" font-size="46.954" y="140.5" x="248.17" font-family="Arial"/>
 <text style="word-spacing:0;letter-spacing:0" font-size="129.23" y="-59.24" x="-866.54" font-family="&apos;Gentium Book Basic&apos;" line-height="125%">
  <tspan y="-59.24" x="-866.54"/>
 </text>
 <text style="text-anchor:middle" transform="scale(4.0128.2492)" font-size="46.954" y="-586.84" x="-18.866" font-family="Arial"/>
 <text style="word-spacing:0;letter-spacing:0" font-size="129.23" y="-275.71" x="231.51" font-family="&apos;Gentium Book Basic&apos;" line-height="125%">
  <tspan y="-275.71" x="231.51"/>
 </text>
 <text style="text-anchor:middle" transform="scale(4.0128.2492)" font-size="46.954" y="-1455.52" x="254.77" font-family="Arial"/>
 <text style="word-spacing:0;letter-spacing:0" font-size="129.23" y="-355.71" x="812.78" font-family="&apos;Gentium Book Basic&apos;" line-height="125%">
  <tspan y="-355.71" x="812.78"/>
 </text>
 <text style="text-anchor:middle" transform="scale(4.0128.2492)" font-size="46.954" y="-1776.55" x="399.62" font-family="Arial"/>
 <text style="word-spacing:0;letter-spacing:0" font-size="129.23" y="-828.11" x="423.66" font-family="&apos;Gentium Book Basic&apos;" line-height="125%">
  <tspan y="-828.11" x="423.66"/>
 </text>
 <text style="text-anchor:middle" transform="scale(4.0128.2492)" font-size="46.954" y="-3672.2" x="302.65" font-family="Arial"/>
 <text style="word-spacing:0;letter-spacing:0" font-size="129.23" y="-908.12" x="1004.92" font-family="&apos;Gentium Book Basic&apos;" line-height="125%">
  <tspan y="-908.12" x="1004.92"/>
 </text>
 <text style="text-anchor:middle" transform="scale(4.0128.2492)" font-size="46.954" y="-3993.24" x="447.5" font-family="Arial"/>
 <g style="word-spacing:0;letter-spacing:0" font-family="&apos;Gentium Book Basic&apos;" line-height="125%">
  <text y="506.6" x="-827.88" font-size="208.33">
   <tspan y="506.6" x="-827.88"/>
  </text>
  <text y="106.91" x="-477.48" font-size="129.23">
   <tspan y="106.91" x="-477.48"/>
  </text>
 </g>
 <text style="text-anchor:middle" transform="scale(4.0128.2492)" font-size="46.954" y="79.873" x="78.09" font-family="Arial"/>
 <text style="word-spacing:0;letter-spacing:0" font-size="129.23" y="26.913" x="103.79" font-family="&apos;Gentium Book Basic&apos;" line-height="125%">
  <tspan y="26.913" x="103.79"/>
 </text>
 <text style="text-anchor:middle" transform="scale(4.0128.2492)" font-size="46.954" y="-241.17" x="222.94" font-family="Arial"/>
 <text style="word-spacing:0;letter-spacing:0" font-size="129.23" y="-154.35" x="-967.79" font-family="&apos;Gentium Book Basic&apos;" line-height="125%">
  <tspan y="-154.35" x="-967.79"/>
 </text>
 <text style="text-anchor:middle" transform="scale(4.0128.2492)" font-size="46.954" y="-968.51" x="-44.1" font-family="Arial"/>
 <text style="word-spacing:0;letter-spacing:0" font-size="129.23" y="-370.82" x="130.26" font-family="&apos;Gentium Book Basic&apos;" line-height="125%">
  <tspan y="-370.82" x="130.26"/>
 </text>
 <text style="text-anchor:middle" transform="scale(4.0128.2492)" font-size="46.954" y="-1837.19" x="229.54" font-family="Arial"/>
 <text style="word-spacing:0;letter-spacing:0" font-size="129.23" y="-450.82" x="711.53" font-family="&apos;Gentium Book Basic&apos;" line-height="125%">
  <tspan y="-450.82" x="711.53"/>
 </text>
 <text style="text-anchor:middle" transform="scale(4.0128.2492)" font-size="46.954" y="-2158.22" x="374.39" font-family="Arial"/>
 <text style="word-spacing:0;letter-spacing:0" font-size="129.23" y="-923.22" x="322.41" font-family="&apos;Gentium Book Basic&apos;" line-height="125%">
  <tspan y="-923.22" x="322.41"/>
 </text>
 <text style="text-anchor:middle" transform="scale(4.0128.2492)" font-size="46.954" y="-4053.87" x="277.42" font-family="Arial"/>
 <text style="word-spacing:0;letter-spacing:0" font-size="129.23" y="-1003.23" x="903.67" font-family="&apos;Gentium Book Basic&apos;" line-height="125%">
  <tspan y="-1003.23" x="903.67"/>
 </text>
 <text style="text-anchor:middle" transform="scale(4.0128.2492)" font-size="46.954" y="-4374.9" x="422.27" font-family="Arial"/>
 <g style="word-spacing:0;letter-spacing:0" font-family="&apos;Gentium Book Basic&apos;" line-height="125%">
  <text y="411.49" x="-929.13" font-size="208.33">
   <tspan y="411.49" x="-929.13"/>
  </text>
  <text y="88.17" x="-125.14" font-size="129.23">
   <tspan y="88.17" x="-125.14"/>
  </text>
 </g>
 <text style="text-anchor:middle" transform="scale(4.0128.2492)" font-size="46.954" y="4.677" x="165.9" font-family="Arial"/>
 <text style="word-spacing:0;letter-spacing:0" font-size="129.23" y="8.174" x="456.13" font-family="&apos;Gentium Book Basic&apos;" line-height="125%">
  <tspan y="8.174" x="456.13"/>
 </text>
 <text style="text-anchor:middle" transform="scale(4.0128.2492)" font-size="46.954" y="-316.36" x="310.75" font-family="Arial"/>
 <text style="word-spacing:0;letter-spacing:0" font-size="129.23" y="-173.09" x="-615.45" font-family="&apos;Gentium Book Basic&apos;" line-height="125%">
  <tspan y="-173.09" x="-615.45"/>
 </text>
 <text style="text-anchor:middle" transform="scale(4.0128.2492)" font-size="46.954" y="-1043.71" x="43.707" font-family="Arial"/>
 <text style="word-spacing:0;letter-spacing:0" font-size="129.23" y="-389.56" x="482.6" font-family="&apos;Gentium Book Basic&apos;" line-height="125%">
  <tspan y="-389.56" x="482.6"/>
 </text>
 <text style="text-anchor:middle" transform="scale(4.0128.2492)" font-size="46.954" y="-1912.38" x="317.35" font-family="Arial"/>
 <text style="word-spacing:0;letter-spacing:0" font-size="129.23" y="-469.56" x="1063.87" font-family="&apos;Gentium Book Basic&apos;" line-height="125%">
  <tspan y="-469.56" x="1063.87"/>
 </text>
 <text style="text-anchor:middle" transform="scale(4.0128.2492)" font-size="46.954" y="-2233.41" x="462.19" font-family="Arial"/>
 <text style="word-spacing:0;letter-spacing:0" font-size="129.23" y="-941.96" x="674.75" font-family="&apos;Gentium Book Basic&apos;" line-height="125%">
  <tspan y="-941.96" x="674.75"/>
 </text>
 <text style="text-anchor:middle" transform="scale(4.0128.2492)" font-size="46.954" y="-4129.06" x="365.22" font-family="Arial"/>
 <text style="word-spacing:0;letter-spacing:0" font-size="129.23" y="-1021.97" x="1256.01" font-family="&apos;Gentium Book Basic&apos;" line-height="125%">
  <tspan y="-1021.97" x="1256.01"/>
 </text>
 <text style="text-anchor:middle" transform="scale(4.0128.2492)" font-size="46.954" y="-4450.1" x="510.07" font-family="Arial"/>
 <g style="word-spacing:0;letter-spacing:0" font-family="&apos;Gentium Book Basic&apos;" line-height="125%">
  <text y="392.75" x="-576.79" font-size="208.33">
   <tspan y="392.75" x="-576.79"/>
  </text>
  <text y="153.26" x="-485.28" font-size="129.23">
   <tspan y="153.26" x="-485.28"/>
  </text>
 </g>
 <text style="text-anchor:middle" transform="scale(4.0128.2492)" font-size="46.954" y="265.85" x="76.15" font-family="Arial"/>
 <text style="word-spacing:0;letter-spacing:0" font-size="129.23" y="73.26" x="95.99" font-family="&apos;Gentium Book Basic&apos;" line-height="125%">
  <tspan y="73.26" x="95.99"/>
 </text>
 <text style="text-anchor:middle" transform="scale(4.0128.2492)" font-size="46.954" y="-55.19" x="221" font-family="Arial"/>
 <text style="word-spacing:0;letter-spacing:0" font-size="129.23" y="-108" x="-975.59" font-family="&apos;Gentium Book Basic&apos;" line-height="125%">
  <tspan y="-108" x="-975.59"/>
 </text>
 <text style="text-anchor:middle" transform="scale(4.0128.2492)" font-size="46.954" y="-782.53" x="-46.04" font-family="Arial"/>
 <text style="word-spacing:0;letter-spacing:0" font-size="129.23" y="-324.47" x="122.46" font-family="&apos;Gentium Book Basic&apos;" line-height="125%">
  <tspan y="-324.47" x="122.46"/>
 </text>
 <text style="text-anchor:middle" transform="scale(4.0128.2492)" font-size="46.954" y="-1651.21" x="227.6" font-family="Arial"/>
 <text style="word-spacing:0;letter-spacing:0" font-size="129.23" y="-404.47" x="703.73" font-family="&apos;Gentium Book Basic&apos;" line-height="125%">
  <tspan y="-404.47" x="703.73"/>
 </text>
 <text style="text-anchor:middle" transform="scale(4.0128.2492)" font-size="46.954" y="-1972.24" x="372.45" font-family="Arial"/>
 <text style="word-spacing:0;letter-spacing:0" font-size="129.23" y="-876.87" x="314.61" font-family="&apos;Gentium Book Basic&apos;" line-height="125%">
  <tspan y="-876.87" x="314.61"/>
 </text>
 <text style="text-anchor:middle" transform="scale(4.0128.2492)" font-size="46.954" y="-3867.89" x="275.48" font-family="Arial"/>
 <text style="word-spacing:0;letter-spacing:0" font-size="129.23" y="-956.88" x="895.87" font-family="&apos;Gentium Book Basic&apos;" line-height="125%">
  <tspan y="-956.88" x="895.87"/>
 </text>
 <text style="text-anchor:middle" transform="scale(4.0128.2492)" font-size="46.954" y="-4188.93" x="420.33" font-family="Arial"/>
 <g style="word-spacing:0;letter-spacing:0" font-family="&apos;Gentium Book Basic&apos;" line-height="125%">
  <text y="457.84" x="-936.93" font-size="208.33">
   <tspan y="457.84" x="-936.93"/>
  </text>
  <text y="-581.44" x="-246.39" font-size="129.23">
   <tspan y="-581.44" x="-246.39"/>
  </text>
 </g>
 <text style="text-anchor:middle" transform="scale(4.0128.2492)" font-size="46.954" y="-2682.38" x="135.68" font-family="Arial"/>
 <text style="word-spacing:0;letter-spacing:0" font-size="129.23" y="-661.44" x="334.88" font-family="&apos;Gentium Book Basic&apos;" line-height="125%">
  <tspan y="-661.44" x="334.88"/>
 </text>
 <text style="text-anchor:middle" transform="scale(4.0128.2492)" font-size="46.954" y="-3003.42" x="280.53" font-family="Arial"/>
 <text style="word-spacing:0;letter-spacing:0" font-size="129.23" y="-842.7" x="-736.7" font-family="&apos;Gentium Book Basic&apos;" line-height="125%">
  <tspan y="-842.7" x="-736.7"/>
 </text>
 <text style="text-anchor:middle" transform="scale(4.0128.2492)" font-size="46.954" y="-3730.76" x="13.492" font-family="Arial"/>
 <text style="word-spacing:0;letter-spacing:0" font-size="129.23" y="-1059.17" x="361.35" font-family="&apos;Gentium Book Basic&apos;" line-height="125%">
  <tspan y="-1059.17" x="361.35"/>
 </text>
 <text style="text-anchor:middle" transform="scale(4.0128.2492)" font-size="46.954" y="-4599.43" x="287.13" font-family="Arial"/>
 <text style="word-spacing:0;letter-spacing:0" font-size="129.23" y="-1139.17" x="942.62" font-family="&apos;Gentium Book Basic&apos;" line-height="125%">
  <tspan y="-1139.17" x="942.62"/>
 </text>
 <text style="text-anchor:middle" transform="scale(4.0128.2492)" font-size="46.954" y="-4920.46" x="431.98" font-family="Arial"/>
 <text style="word-spacing:0;letter-spacing:0" font-size="129.23" y="-1611.57" x="553.5" font-family="&apos;Gentium Book Basic&apos;" line-height="125%">
  <tspan y="-1611.57" x="553.5"/>
 </text>
 <text style="text-anchor:middle" transform="scale(4.0128.2492)" font-size="46.954" y="-6816.1" x="335.01" font-family="Arial"/>
 <text style="word-spacing:0;letter-spacing:0" font-size="129.23" y="-1691.58" x="1134.76" font-family="&apos;Gentium Book Basic&apos;" line-height="125%">
  <tspan y="-1691.58" x="1134.76"/>
 </text>
 <text style="text-anchor:middle" transform="scale(4.0128.2492)" font-size="46.954" y="-7137.14" x="479.86" font-family="Arial"/>
 <g style="word-spacing:0;letter-spacing:0" font-family="&apos;Gentium Book Basic&apos;" line-height="125%">
  <text y="-276.86" x="-698.04" font-size="208.33">
   <tspan y="-276.86" x="-698.04"/>
  </text>
  <text y="-370.38" x="2766.8" font-size="129.23">
   <tspan y="-370.38" x="2766.8"/>
  </text>
 </g>
 <text style="text-anchor:middle" transform="scale(4.0128.2492)" font-size="46.954" y="-1835.44" x="886.57" font-family="Arial"/>
 <text style="word-spacing:0;letter-spacing:0" font-size="129.23" y="-450.38" x="3348.07" font-family="&apos;Gentium Book Basic&apos;" line-height="125%">
  <tspan y="-450.38" x="3348.07"/>
 </text>
 <text style="text-anchor:middle" transform="scale(4.0128.2492)" font-size="46.954" y="-2156.47" x="1031.42" font-family="Arial"/>
 <text style="word-spacing:0;letter-spacing:0" font-size="129.23" y="-631.64" x="2276.49" font-family="&apos;Gentium Book Basic&apos;" line-height="125%">
  <tspan y="-631.64" x="2276.49"/>
 </text>
 <text style="text-anchor:middle" transform="scale(4.0128.2492)" font-size="46.954" y="-2883.83" x="764.38" font-family="Arial"/>
 <text style="word-spacing:0;letter-spacing:0" font-size="129.23" y="-848.11" x="3374.54" font-family="&apos;Gentium Book Basic&apos;" line-height="125%">
  <tspan y="-848.11" x="3374.54"/>
 </text>
 <text style="text-anchor:middle" transform="scale(4.0128.2492)" font-size="46.954" y="-3752.49" x="1038.02" font-family="Arial"/>
 <text style="word-spacing:0;letter-spacing:0" font-size="129.23" y="-928.12" x="3955.81" font-family="&apos;Gentium Book Basic&apos;" line-height="125%">
  <tspan y="-928.12" x="3955.81"/>
 </text>
 <text style="text-anchor:middle" transform="scale(4.0128.2492)" font-size="46.954" y="-4073.53" x="1182.87" font-family="Arial"/>
 <text style="word-spacing:0;letter-spacing:0" font-size="129.23" y="-1400.52" x="3566.69" font-family="&apos;Gentium Book Basic&apos;" line-height="125%">
  <tspan y="-1400.52" x="3566.69"/>
 </text>
 <text style="text-anchor:middle" transform="scale(4.0128.2492)" font-size="46.954" y="-5969.18" x="1085.9" font-family="Arial"/>
 <text style="word-spacing:0;letter-spacing:0" font-size="129.23" y="-1480.52" x="4147.95" font-family="&apos;Gentium Book Basic&apos;" line-height="125%">
  <tspan y="-1480.52" x="4147.95"/>
 </text>
 <text style="text-anchor:middle" transform="scale(4.0128.2492)" font-size="46.954" y="-6290.21" x="1230.75" font-family="Arial"/>
 <g style="word-spacing:0;letter-spacing:0" font-family="&apos;Gentium Book Basic&apos;" line-height="125%">
  <text y="-65.803" x="2315.15" font-size="208.33">
   <tspan y="-65.803" x="2315.15"/>
  </text>
  <text y="63.959" x="1357.26" font-size="129.23">
   <tspan y="63.959" x="1357.26"/>
  </text>
 </g>
 <text style="text-anchor:middle" transform="scale(4.0128.2492)" font-size="46.954" y="-92.49" x="535.31" font-family="Arial"/>
 <text style="word-spacing:0;letter-spacing:0" font-size="129.23" y="-16.04" x="1938.53" font-family="&apos;Gentium Book Basic&apos;" line-height="125%">
  <tspan y="-16.04" x="1938.53"/>
 </text>
 <text style="text-anchor:middle" transform="scale(4.0128.2492)" font-size="46.954" y="-413.53" x="680.16" font-family="Arial"/>
 <text style="word-spacing:0;letter-spacing:0" font-size="129.23" y="-197.3" x="866.95" font-family="&apos;Gentium Book Basic&apos;" line-height="125%">
  <tspan y="-197.3" x="866.95"/>
 </text>
 <text style="text-anchor:middle" transform="scale(4.0128.2492)" font-size="46.954" y="-1140.88" x="413.12" font-family="Arial"/>
 <text style="word-spacing:0;letter-spacing:0" font-size="129.23" y="-413.77" x="1965" font-family="&apos;Gentium Book Basic&apos;" line-height="125%">
  <tspan y="-413.77" x="1965"/>
 </text>
 <text style="text-anchor:middle" transform="scale(4.0128.2492)" font-size="46.954" y="-2009.55" x="686.76" font-family="Arial"/>
 <text style="word-spacing:0;letter-spacing:0" font-size="129.23" y="-493.77" x="2546.27" font-family="&apos;Gentium Book Basic&apos;" line-height="125%">
  <tspan y="-493.77" x="2546.27"/>
 </text>
 <text style="text-anchor:middle" transform="scale(4.0128.2492)" font-size="46.954" y="-2330.58" x="831.61" font-family="Arial"/>
 <text style="word-spacing:0;letter-spacing:0" font-size="129.23" y="-966.17" x="2157.15" font-family="&apos;Gentium Book Basic&apos;" line-height="125%">
  <tspan y="-966.17" x="2157.15"/>
 </text>
 <text style="text-anchor:middle" transform="scale(4.0128.2492)" font-size="46.954" y="-4226.23" x="734.64" font-family="Arial"/>
 <text style="word-spacing:0;letter-spacing:0" font-size="129.23" y="-1046.18" x="2738.41" font-family="&apos;Gentium Book Basic&apos;" line-height="125%">
  <tspan y="-1046.18" x="2738.41"/>
 </text>
 <text style="text-anchor:middle" transform="scale(4.0128.2492)" font-size="46.954" y="-4547.27" x="879.49" font-family="Arial"/>
 <g style="word-spacing:0;letter-spacing:0" font-family="&apos;Gentium Book Basic&apos;" line-height="125%">
  <text y="368.54" x="905.61" font-size="208.33">
   <tspan y="368.54" x="905.61"/>
  </text>
  <text y="-670.74" x="1596.15" font-size="129.23">
   <tspan y="-670.74" x="1596.15"/>
  </text>
 </g>
 <text style="text-anchor:middle" transform="scale(4.0128.2492)" font-size="46.954" y="-3040.72" x="594.84" font-family="Arial"/>
 <text style="word-spacing:0;letter-spacing:0" font-size="129.23" y="-750.74" x="2177.42" font-family="&apos;Gentium Book Basic&apos;" line-height="125%">
  <tspan y="-750.74" x="2177.42"/>
 </text>
 <text style="text-anchor:middle" transform="scale(4.0128.2492)" font-size="46.954" y="-3361.76" x="739.69" font-family="Arial"/>
 <text style="word-spacing:0;letter-spacing:0" font-size="129.23" y="-932" x="1105.84" font-family="&apos;Gentium Book Basic&apos;" line-height="125%">
  <tspan y="-932" x="1105.84"/>
 </text>
 <text style="text-anchor:middle" transform="scale(4.0128.2492)" font-size="46.954" y="-4089.11" x="472.65" font-family="Arial"/>
 <text style="word-spacing:0;letter-spacing:0" font-size="129.23" y="-1148.47" x="2203.89" font-family="&apos;Gentium Book Basic&apos;" line-height="125%">
  <tspan y="-1148.47" x="2203.89"/>
 </text>
 <text style="text-anchor:middle" transform="scale(4.0128.2492)" font-size="46.954" y="-4957.77" x="746.29" font-family="Arial"/>
 <text style="word-spacing:0;letter-spacing:0" font-size="129.23" y="-1228.47" x="2785.16" font-family="&apos;Gentium Book Basic&apos;" line-height="125%">
  <tspan y="-1228.47" x="2785.16"/>
 </text>
 <text style="text-anchor:middle" transform="scale(4.0128.2492)" font-size="46.954" y="-5278.8" x="891.14" font-family="Arial"/>
 <text style="word-spacing:0;letter-spacing:0" font-size="129.23" y="-1700.87" x="2396.04" font-family="&apos;Gentium Book Basic&apos;" line-height="125%">
  <tspan y="-1700.87" x="2396.04"/>
 </text>
 <text style="text-anchor:middle" transform="scale(4.0128.2492)" font-size="46.954" y="-7174.44" x="794.17" font-family="Arial"/>
 <text style="word-spacing:0;letter-spacing:0" font-size="129.23" y="-1780.88" x="2977.3" font-family="&apos;Gentium Book Basic&apos;" line-height="125%">
  <tspan y="-1780.88" x="2977.3"/>
 </text>
 <text style="text-anchor:middle" transform="scale(4.0128.2492)" font-size="46.954" y="-7495.48" x="939.02" font-family="Arial"/>
 <g style="word-spacing:0;letter-spacing:0" font-family="&apos;Gentium Book Basic&apos;" line-height="125%">
  <text y="-366.16" x="1144.5" font-size="208.33">
   <tspan y="-366.16" x="1144.5"/>
  </text>
  <text y="156" x="-179.87" font-size="129.23">
   <tspan y="156" x="-179.87"/>
  </text>
 </g>
 <text style="text-anchor:middle" transform="scale(4.0128.2492)" font-size="46.954" y="276.86" x="152.26" font-family="Arial"/>
 <text style="word-spacing:0;letter-spacing:0" font-size="129.23" y="76" x="401.4" font-family="&apos;Gentium Book Basic&apos;" line-height="125%">
  <tspan y="76" x="401.4"/>
 </text>
 <text style="text-anchor:middle" transform="scale(4.0128.2492)" font-size="46.954" y="-44.18" x="297.11" font-family="Arial"/>
 <text style="word-spacing:0;letter-spacing:0" font-size="129.23" y="-105.26" x="-670.18" font-family="&apos;Gentium Book Basic&apos;" line-height="125%">
  <tspan y="-105.26" x="-670.18"/>
 </text>
 <text style="text-anchor:middle" transform="scale(4.0128.2492)" font-size="46.954" y="-771.52" x="30.07" font-family="Arial"/>
 <text style="word-spacing:0;letter-spacing:0" font-size="129.23" y="-321.73" x="427.87" font-family="&apos;Gentium Book Basic&apos;" line-height="125%">
  <tspan y="-321.73" x="427.87"/>
 </text>
 <text style="text-anchor:middle" transform="scale(4.0128.2492)" font-size="46.954" y="-1640.2" x="303.71" font-family="Arial"/>
 <text style="word-spacing:0;letter-spacing:0" font-size="129.23" y="-401.73" x="1009.14" font-family="&apos;Gentium Book Basic&apos;" line-height="125%">
  <tspan y="-401.73" x="1009.14"/>
 </text>
 <text style="text-anchor:middle" transform="scale(4.0128.2492)" font-size="46.954" y="-1961.23" x="448.56" font-family="Arial"/>
 <text style="word-spacing:0;letter-spacing:0" font-size="129.23" y="-874.13" x="620.02" font-family="&apos;Gentium Book Basic&apos;" line-height="125%">
  <tspan y="-874.13" x="620.02"/>
 </text>
 <text style="text-anchor:middle" transform="scale(4.0128.2492)" font-size="46.954" y="-3856.88" x="351.59" font-family="Arial"/>
 <text style="word-spacing:0;letter-spacing:0" font-size="129.23" y="-954.14" x="1201.28" font-family="&apos;Gentium Book Basic&apos;" line-height="125%">
  <tspan y="-954.14" x="1201.28"/>
 </text>
 <text style="text-anchor:middle" transform="scale(4.0128.2492)" font-size="46.954" y="-4177.91" x="496.44" font-family="Arial"/>
 <g style="word-spacing:0;letter-spacing:0" font-family="&apos;Gentium Book Basic&apos;" line-height="125%">
  <text y="460.58" x="-631.52" font-size="208.33">
   <tspan y="460.58" x="-631.52"/>
  </text>
  <text y="-578.7" x="59.02" font-size="129.23">
   <tspan y="-578.7" x="59.02"/>
  </text>
 </g>
 <text style="text-anchor:middle" transform="scale(4.0128.2492)" font-size="46.954" y="-2671.37" x="211.79" font-family="Arial"/>
 <text style="word-spacing:0;letter-spacing:0" font-size="129.23" y="-658.7" x="640.29" font-family="&apos;Gentium Book Basic&apos;" line-height="125%">
  <tspan y="-658.7" x="640.29"/>
 </text>
 <text style="text-anchor:middle" transform="scale(4.0128.2492)" font-size="46.954" y="-2992.41" x="356.64" font-family="Arial"/>
 <text style="word-spacing:0;letter-spacing:0" font-size="129.23" y="-839.96" x="-431.29" font-family="&apos;Gentium Book Basic&apos;" line-height="125%">
  <tspan y="-839.96" x="-431.29"/>
 </text>
 <text style="text-anchor:middle" transform="scale(4.0128.2492)" font-size="46.954" y="-3719.75" x="89.6" font-family="Arial"/>
 <text style="word-spacing:0;letter-spacing:0" font-size="129.23" y="-1056.43" x="666.76" font-family="&apos;Gentium Book Basic&apos;" line-height="125%">
  <tspan y="-1056.43" x="666.76"/>
 </text>
 <text style="text-anchor:middle" transform="scale(4.0128.2492)" font-size="46.954" y="-4588.42" x="363.24" font-family="Arial"/>
 <text style="word-spacing:0;letter-spacing:0" font-size="129.23" y="-1136.43" x="1248.03" font-family="&apos;Gentium Book Basic&apos;" line-height="125%">
  <tspan y="-1136.43" x="1248.03"/>
 </text>
 <text style="text-anchor:middle" transform="scale(4.0128.2492)" font-size="46.954" y="-4909.45" x="508.09" font-family="Arial"/>
 <text style="word-spacing:0;letter-spacing:0" font-size="129.23" y="-1608.83" x="858.91" font-family="&apos;Gentium Book Basic&apos;" line-height="125%">
  <tspan y="-1608.83" x="858.91"/>
 </text>
 <text style="text-anchor:middle" transform="scale(4.0128.2492)" font-size="46.954" y="-6805.09" x="411.12" font-family="Arial"/>
 <text style="word-spacing:0;letter-spacing:0" font-size="129.23" y="-1688.84" x="1440.17" font-family="&apos;Gentium Book Basic&apos;" line-height="125%">
  <tspan y="-1688.84" x="1440.17"/>
 </text>
 <text style="text-anchor:middle" transform="scale(4.0128.2492)" font-size="46.954" y="-7126.12" x="555.97" font-family="Arial"/>
 <text style="word-spacing:0;letter-spacing:0" font-size="208.33" y="-274.12" x="-392.63" font-family="&apos;Gentium Book Basic&apos;" line-height="125%">
  <tspan y="-274.12" x="-392.63"/>
 </text>
 <path d="m26 0c-14.397 0-26 11.603-26 26v460c0 14.397 11.603 26 26 26h460c14.397 0 26-11.603 26-26v-460c0-14.397-11.603-26-26-26h-460" fill="#ed8f21"/>
 <text style="word-spacing:0;letter-spacing:0" font-size="129.23" y="238.21" x="-72.49" font-family="&apos;Gentium Book Basic&apos;" line-height="125%">
  <tspan y="238.21" x="-72.49"/>
 </text>
 <text style="text-anchor:middle" transform="scale(4.0128.2492)" font-size="46.954" y="606.75" x="179.02" font-family="Arial"/>
 <text style="word-spacing:0;letter-spacing:0" font-size="129.23" y="158.21" x="508.78" font-family="&apos;Gentium Book Basic&apos;" line-height="125%">
  <tspan y="158.21" x="508.78"/>
 </text>
 <text style="text-anchor:middle" transform="scale(4.0128.2492)" font-size="46.954" y="285.71" x="323.87" font-family="Arial"/>
 <text style="word-spacing:0;letter-spacing:0" font-size="129.23" y="-23.05" x="-562.8" font-family="&apos;Gentium Book Basic&apos;" line-height="125%">
  <tspan y="-23.05" x="-562.8"/>
 </text>
 <text style="text-anchor:middle" transform="scale(4.0128.2492)" font-size="46.954" y="-441.64" x="56.828" font-family="Arial"/>
 <text style="word-spacing:0;letter-spacing:0" font-size="129.23" y="-239.52" x="535.25" font-family="&apos;Gentium Book Basic&apos;" line-height="125%">
  <tspan y="-239.52" x="535.25"/>
 </text>
 <text style="text-anchor:middle" transform="scale(4.0128.2492)" font-size="46.954" y="-1310.31" x="330.47" font-family="Arial"/>
 <text style="word-spacing:0;letter-spacing:0" font-size="129.23" y="-319.52" x="1116.52" font-family="&apos;Gentium Book Basic&apos;" line-height="125%">
  <tspan y="-319.52" x="1116.52"/>
 </text>
 <text style="text-anchor:middle" transform="scale(4.0128.2492)" font-size="46.954" y="-1631.34" x="475.32" font-family="Arial"/>
 <text style="word-spacing:0;letter-spacing:0" font-size="129.23" y="-791.92" x="727.4" font-family="&apos;Gentium Book Basic&apos;" line-height="125%">
  <tspan y="-791.92" x="727.4"/>
 </text>
 <text style="text-anchor:middle" transform="scale(4.0128.2492)" font-size="46.954" y="-3526.99" x="378.35" font-family="Arial"/>
 <text style="word-spacing:0;letter-spacing:0" font-size="129.23" y="-871.93" x="1308.66" font-family="&apos;Gentium Book Basic&apos;" line-height="125%">
  <tspan y="-871.93" x="1308.66"/>
 </text>
 <text style="text-anchor:middle" transform="scale(4.0128.2492)" font-size="46.954" y="-3848.03" x="523.2" font-family="Arial"/>
 <text style="word-spacing:0;letter-spacing:0" font-size="208.33" y="542.79" x="-524.14" font-family="&apos;Gentium Book Basic&apos;" line-height="125%">
  <tspan y="542.79" x="-524.14"/>
 </text>
 <path opacity=".25" d="m381.33 41.02c-5.768 0.127-11.627 1.157-17.408 3.074-9.05 3.01-15.293 6.897-22.256 13.857-9.02 9.01-13.756 18.611-15.957 31.484-1.217 7.117-2.093 9.81-4.199 14.273-8.07 17.11-25.672 28.971-43.25 28.971-1.461 0-6.123-0.266-10.498-0.824-16.329-2.141-24.543-2.521-40.23-1.164l-45.44-45.44c-5.518-5.496-11.317-7.977-18.896-7.977-4.948 0.009-8.446 0.768-12.598 2.941-8.749 4.548-14.21 12.967-14.697 22.668-0.338 6.736 0.956 10.767 4.619 16.377 1.018 1.558 2.118 2.952 3.416 4.25l22.551 22.551c0.085 0.861 0.068 1.861 0.068 3.426 0 3.774-0.003 4.17-1.26 6.717-0.756 1.536-2.916 4.405-4.619 6.295-15.741 17.482-25.321 36.36-29.395 56.68-1.929 9.604-2.497 14.803-2.1 25.19 0.191 4.973 0.447 10.503 0.42 12.174-0.144 9.51-6.922 16.07-21.416 20.992-3.498 1.187-5.082 1.504-9.658 1.68-3.552 0.154-6.378-0.004-8.398-0.418-1.811-0.349-5.524-0.42-9.238-0.42-7.06 0-10.395 0.783-15.957 3.357-20.611 9.521-29.663 33.454-20.16 53.74 2.094 4.468 4.851 8.331 8.08 11.561l164.96 164.96h268.18c14.397 0 26-11.603 26-26v-338.96l-89.27-89.27c-9.63-9.63-22.465-15.572-36.13-16.613-0.93-0.07-1.864-0.115-2.801-0.137-0.82-0.019-1.643-0.018-2.467 0"/>
 <path d="m386.6 41.16c-7.441-0.558-15.12 0.433-22.676 2.937-9.05 3.01-15.293 6.895-22.256 13.856-9.02 9.01-13.756 18.611-15.957 31.485-1.217 7.117-2.093 9.81-4.199 14.274-8.07 17.11-25.672 28.97-43.25 28.97-1.461 0-6.122-0.265-10.498-0.824-17.651-2.315-25.702-2.598-44.09-0.824-4.967 0.475-10.998 0.824-13.02 0.824-8.732 0.006-14.05-3.285-17.637-10.497-2.233-4.484-3.03-6.731-2.939-14.695 0.075-6.668 0.225-7.462-0.84-10.493-1.719-4.899-3.342-7.137-7.139-10.917-5.518-5.496-11.317-7.977-18.896-7.977-4.948 0.009-8.446 0.768-12.598 2.942-8.749 4.548-14.21 12.967-14.697 22.668-0.338 6.736 0.956 10.767 4.619 16.376 2.66 4.071 5.867 7.02 11.758 10.08 6.356 3.293 9.744 6.416 12.598 12.175 1.808 3.641 1.68 3.979 1.68 7.976 0 3.774-0.003 4.17-1.26 6.717-0.756 1.536-2.916 4.406-4.619 6.296-15.741 17.482-25.321 36.36-29.394 56.678-1.929 9.604-2.497 14.803-2.1 25.19 0.191 4.973 0.447 10.503 0.42 12.174-0.144 9.51-6.922 16.06-21.416 20.992-3.498 1.187-5.082 1.505-9.658 1.681-3.552 0.154-6.378-0.005-8.398-0.419-1.811-0.349-5.524-0.419-9.238-0.419-7.06 0-10.395 0.782-15.957 3.356-20.611 9.521-29.663 33.454-20.16 53.741 12.147 25.916 46.581 31.504 66.35 10.915 2.923-3.045 4.389-5.362 7.559-10.915 1.013-1.773 3.064-4.259 4.619-5.88 7.01-7.293 16.566-10.915 27.715-10.915 7.969 0 12.685 1.686 18.896 6.718 10.326 8.363 24.737 15.642 37.37 19.311 13.989 4.074 21.903 4.709 45.35 4.199 6.885-0.154 9.01 0.223 12.178 0.824 8.785 1.759 17.363 5.159 24.775 10.08 5.457 3.621 14.445 12.611 18.06 18.05 4.878 7.349 8.488 16.588 9.658 23.929 1.967 12.339 4.304 19.682 8.398 27.71 11.09 21.751 30.902 36.32 55.43 40.724 6.753 1.201 21.321 0.949 28.13-0.419 23.313-4.759 42.725-19.453 53.33-40.3 5.764-11.332 8.385-21.691 8.398-34.844 0.034-30.717-17.823-57.952-46.19-70.11-6.506-2.789-11.28-3.943-20.16-5.457-8.821-1.506-14.697-3.436-20.996-6.718-14.743-7.678-26.696-21.801-31.914-37.36-2.89-8.624-4.07-17.1-3.359-27.29 0.449-6.432 0.19-27.939-0.42-42.822-0.391-9.541 1-15.416 5.04-23.512 4.629-9.28 12.299-17.01 21.836-21.829 4.963-2.513 8.531-3.412 15.537-4.62 7.412-1.27 12.701-2.909 18.477-5.879 13.313-6.834 23.365-18.48 28.13-32.745 2.03-6.074 2.52-11.09 2.52-18.05 0-6.989-0.881-11.9-2.939-18.06-7.542-22.569-27.647-37.35-49.971-39.05m-154.53 123.43c25.933-1.735 51.981 10.623 66.768 32.745 5.332 7.98 9.577 18.671 11.338 28.13 1.232 6.616 0.91 21.529-0.42 27.708-3.871 17.98-13.269 33.16-27.29 44.08-11.649 9.07-24.65 13.891-39.893 15.11-3.05 0.251-6.224 0.461-6.719 0.419-5.499-0.349-9.764-0.949-13.437-1.678-30.704-6.26-53.36-30.39-58.37-61.713-0.717-4.465-0.72-17.676 0-21.833 2.921-16.849 9.104-29.27 20.576-40.724 6.653-6.644 12.12-10.501 19.736-14.274 6.356-3.148 10.292-4.822 16.797-6.296 3.681-0.838 7.213-1.432 10.918-1.679zm7.978 28.13c-21.79-1.284-41.648 12.598-47.45 34.425-1.024 3.85-1.26 4.789-1.26 11.336 0 6.56 0.23 7.896 1.26 11.755 2.379 8.918 8.02 17.889 14.697 23.512 5.128 4.31 11.322 7.602 15.957 8.395 12.604 2.192 24.997-6.409 26.875-18.893v-1.678h-7.979c-5.745 0-8.744-0.004-10.498-0.419-10.227-2.665-17.217-11.911-17.217-22.252 0-6.335 2.139-11.8 6.719-16.375 4.328-4.321 10.151-6.715 15.957-6.715 10.335 0 20.516 7.86 22.676 18.05 0.484 2.288 0.413 7.302 0.42 23.51v20.574h2.52c5.221-0.586 10.894-3.187 14.277-6.718 2.01-2.094 4.074-6.535 5.04-9.657 0.758-2.457 0.84-4.02 0.84-15.533 0-16.507-0.563-20.34-5.04-28.969-5.609-10.814-16.821-19.618-28.555-22.671-3.153-0.824-6.125-1.494-9.238-1.677" fill="#fff"/>
</svg>
