<?xml version="1.0" encoding="UTF-8" standalone="no"?>
<!-- Created with Inkscape (http://www.inkscape.org/) -->
<svg id="svg2" xmlns:rdf="http://www.w3.org/1999/02/22-rdf-syntax-ns#" xmlns="http://www.w3.org/2000/svg" height="100%" width="100%" version="1.1" xmlns:cc="http://creativecommons.org/ns#" viewBox="0 0 512 512" xmlns:dc="http://purl.org/dc/elements/1.1/">
 <metadata id="metadata74">
  <rdf:RDF>
   <cc:Work rdf:about="">
    <dc:format>image/svg+xml</dc:format>
    <dc:type rdf:resource="http://purl.org/dc/dcmitype/StillImage"/>
   </cc:Work>
  </rdf:RDF>
 </metadata>
 <rect id="rect4" rx="25.988" height="512" width="512" y="0" x="0" fill="#ab4bcc"/>
 <path id="path6" style="color:#000000" d="m273.09 60.34c-64.01 0.478-125.91 35.817-160.16 89.69-11.429-10.559-20.871-23.429-33.969-31.906-16.28 2.601-10.453 25.25-15.25 37.594l-22.563 131.66c6.238 15.828 23.488 25.82 34.5 39.09 20.89 20.565 41.796 41 59.56 64.34 40.43 40.32 80.77 80.76 121.09 121.19h229.69c14.397 0 26-11.603 26-26v-270.06c-36.557-36.623-73.21-73.13-110.28-109.22-34.649-29.679-79.904-46.566-125.56-46.37-1.017-0.01-2.046-0.008-3.063 0" fill-opacity="0.235"/>
 <text id="text8" style="word-spacing:0;letter-spacing:0" font-size="129.23px" line-height="125%" y="182.08" x="177.57001" font-family="Gentium Book Basic">
  <tspan id="tspan10" y="182.08" x="177.57001"/>
 </text>
 <text id="text12" style="text-anchor:middle" transform="scale(4.0128 .2492)" font-size="46.954px" y="381.5" x="241.33" font-family="Arial"/>
 <text id="text14" style="word-spacing:0;letter-spacing:0" font-size="129.23px" line-height="125%" y="102.08" x="758.84003" font-family="Gentium Book Basic">
  <tspan id="tspan16" y="102.08" x="758.84003"/>
 </text>
 <text id="text18" style="text-anchor:middle" transform="scale(4.0128 .2492)" font-size="46.954px" y="60.470001" x="386.17999" font-family="Arial"/>
 <text id="text20" style="word-spacing:0;letter-spacing:0" font-size="129.23px" line-height="125%" y="-79.18" x="-312.73999" font-family="Gentium Book Basic">
  <tspan id="tspan22" y="-79.18" x="-312.73999"/>
 </text>
 <text id="text24" style="text-anchor:middle" transform="scale(4.0128 .2492)" font-size="46.954px" y="-666.88" x="119.14" font-family="Arial"/>
 <text id="text26" style="word-spacing:0;letter-spacing:0" font-size="129.23px" line-height="125%" y="-295.64999" x="785.31" font-family="Gentium Book Basic">
  <tspan id="tspan28" y="-295.64999" x="785.31"/>
 </text>
 <text id="text30" style="text-anchor:middle" transform="scale(4.0128 .2492)" font-size="46.954px" y="-1535.55" x="392.78" font-family="Arial"/>
 <text id="text32" style="word-spacing:0;letter-spacing:0" font-size="129.23px" line-height="125%" y="-375.66" x="1366.58" font-family="Gentium Book Basic">
  <tspan id="tspan34" y="-375.66" x="1366.58"/>
 </text>
 <text id="text36" style="text-anchor:middle" transform="scale(4.0128 .2492)" font-size="46.954px" y="-1856.59" x="537.63" font-family="Arial"/>
 <text id="text38" style="word-spacing:0;letter-spacing:0" font-size="129.23px" line-height="125%" y="-848.06" x="977.46002" font-family="Gentium Book Basic">
  <tspan id="tspan40" y="-848.06" x="977.46002"/>
 </text>
 <text id="text42" style="text-anchor:middle" transform="scale(4.0128 .2492)" font-size="46.954px" y="-3752.24" x="440.66" font-family="Arial"/>
 <text id="text44" style="word-spacing:0;letter-spacing:0" font-size="129.23px" line-height="125%" y="-928.06" x="1558.72" font-family="Gentium Book Basic">
  <tspan id="tspan46" y="-928.06" x="1558.72"/>
 </text>
 <text id="text48" style="text-anchor:middle" transform="scale(4.0128 .2492)" font-size="46.954px" y="-4073.27" x="585.51001" font-family="Arial"/>
 <text id="text50" style="word-spacing:0;letter-spacing:0" font-size="208.33px" line-height="125%" y="486.66" x="-274.07999" font-family="Gentium Book Basic">
  <tspan id="tspan52" y="486.66" x="-274.07999"/>
 </text>
 <g id="g54" transform="matrix(2.15 0 0 2.15 799.06 -127.13)">
  <path id="path56" style="color:#000000" d="m-243.21 87.2c-32.437 0-60.892 17.387-76.886 43.26l-12.744-15.368c-0.129-0.075-0.288-0.082-0.425-0.138-1.819-1.932-5.723-0.761-6.23 1.85l-13.03 75.986c-0.461 2.134 1.508 4.442 3.682 4.412l16.283-4.127c7.08 43.11 44.491 76.13 89.35 76.13 49.881 0 90.62-40.799 90.62-90.93 0-50.13-40.74-91.07-90.62-91.07zm11.04 27.595c4.759 0.063 9.756 0.977 15.01 2.561 27.508 10.529 47.01 29.514 47.01 60.912 0 40.644-32.62 73.42-73.06 73.42-36.925 0-67.2-27.347-72.21-63.04l40.496-10.388c2.635-0.082 4.408-3.711 2.832-5.834l-16.425-12.38c0.353-1.381-5.11-5.173 16.834-28.633 10.352-11.07 24.23-16.795 39.521-16.627" fill="#fff"/>
  <g id="g58" stroke-linejoin="round" stroke="#fff" stroke-linecap="round" stroke-width="9.08" fill="none">
   <path id="path60" d="m-243.21 118.73v9.277"/>
   <path id="path62" d="m-243.21 228.11v10.374"/>
   <path id="path64" d="m-183.59 178.27h-9.06"/>
  </g>
  <path id="path66" style="color:#000000" d="m-193.85 137.96c-0.286 0.063-0.57 0.075-0.85 0.144-1.062 0.138-2.09 0.534-2.974 1.139l-48.09 32.475c-4.184 1.573-5.624 7.842-2.549 11.1v0.138c0.138 0.101 0.28 0.195 0.425 0.283 0.044 0.063 0.094 0.094 0.141 0.144 0.138 0.101 0.28 0.195 0.425 0.283 0.044 0.063 0.094 0.094 0.142 0.144 0.138 0.101 0.28 0.195 0.425 0.283 0.044 0.063 0.094 0.094 0.142 0.144l0.142 0.138c0.093 0.063 0.188 0.094 0.283 0.144h0.142l31.15 17.929c3.114 1.788 7.566 0.565 9.345-2.561 1.779-3.129 0.565-7.603-2.549-9.391l-22.09-12.664 40.16-27.21c2.557-1.559 3.847-4.947 2.979-7.823s-3.814-4.973-6.802-4.841z" fill="#fff"/>
  <path id="path68" d="m-238.68 178.27-27.19 50.09" stroke="#fff" stroke-linecap="round" stroke-width="4.542" fill="none"/>
 </g>
</svg>
