<?xml version="1.0" encoding="UTF-8" standalone="no"?>
<!-- Created with Inkscape (http://www.inkscape.org/) -->
<svg id="svg2" xmlns:rdf="http://www.w3.org/1999/02/22-rdf-syntax-ns#" xmlns="http://www.w3.org/2000/svg" height="100%" width="100%" version="1.1" xmlns:cc="http://creativecommons.org/ns#" viewBox="0 0 512 512" xmlns:dc="http://purl.org/dc/elements/1.1/">
 <metadata id="metadata60">
  <rdf:RDF>
   <cc:Work rdf:about="">
    <dc:format>image/svg+xml</dc:format>
    <dc:type rdf:resource="http://purl.org/dc/dcmitype/StillImage"/>
   </cc:Work>
  </rdf:RDF>
 </metadata>
 <rect id="rect4" rx="25.988" height="512" width="512" y="0" x="0" fill="#924565"/>
 <path id="path6" fill-opacity="0.235" d="m260.09 41c-58.9-0.52-119.88 23.788-156.84 70.69 23.959 23.21 46.588 46.698 70.31 69.875 20.18 20.435 40.574 40.85 61.22 61.22 3.772 4.152 12.07 11.55 0.719 2.781l-145.91-107.08c-52.726 59.688-63.1 157.32-17.344 221.94 13.195 14.11 26.758 26.416 39.906 40.531 12.233 11.249 24.02 24.343 36.25 35.594 13.15 14.14 26.733 26.398 39.875 40.531 12.01 11.04 23.584 23.839 35.563 34.938h262.16c14.397 0 26-11.603 26-26v-232.5c-0.137-0.092-0.266-0.191-0.406-0.281-3.294-5.489-9.799-9.05-13.12-14.563-4.623-3.675-8.491-6.922-11.938-11.938-15.629-16.936-31.1-37.446-46.719-55.813-22.16-28.13-47.722-55.34-80.44-70.03-3.449-5.366-9.81-8.997-13.12-14.438-5.105-4.099-9.706-8.517-13.438-13.438-6.155-3.968-9.101-9.85-15.25-13.813-5.119-5.197-7.782-11.914-17.563-14.25-13.155-2.474-26.519-3.829-39.906-3.938" fill-rule="evenodd"/>
 <text id="text8" style="word-spacing:0;letter-spacing:0" font-size="129.23px" line-height="125%" y="225.03999" x="172.96001" font-family="Gentium Book Basic">
  <tspan id="tspan10" y="225.03999" x="172.96001"/>
 </text>
 <text id="text12" style="text-anchor:middle" transform="scale(4.0128 .2492)" font-size="46.954px" y="553.87" x="240.17999" font-family="Arial"/>
 <text id="text14" style="word-spacing:0;letter-spacing:0" font-size="129.23px" line-height="125%" y="145.03999" x="754.22998" font-family="Gentium Book Basic">
  <tspan id="tspan16" y="145.03999" x="754.22998"/>
 </text>
 <text id="text18" style="text-anchor:middle" transform="scale(4.0128 .2492)" font-size="46.954px" y="232.84" x="385.03" font-family="Arial"/>
 <text id="text20" style="word-spacing:0;letter-spacing:0" font-size="129.23px" line-height="125%" y="-36.23" x="-317.35001" font-family="Gentium Book Basic">
  <tspan id="tspan22" y="-36.23" x="-317.35001"/>
 </text>
 <text id="text24" style="text-anchor:middle" transform="scale(4.0128 .2492)" font-size="46.954px" y="-494.51999" x="117.99" font-family="Arial"/>
 <text id="text26" style="word-spacing:0;letter-spacing:0" font-size="129.23px" line-height="125%" y="-252.69" x="780.70001" font-family="Gentium Book Basic">
  <tspan id="tspan28" y="-252.69" x="780.70001"/>
 </text>
 <text id="text30" style="text-anchor:middle" transform="scale(4.0128 .2492)" font-size="46.954px" y="-1363.1801" x="391.63" font-family="Arial"/>
 <text id="text32" style="word-spacing:0;letter-spacing:0" font-size="129.23px" line-height="125%" y="-332.70001" x="1361.97" font-family="Gentium Book Basic">
  <tspan id="tspan34" y="-332.70001" x="1361.97"/>
 </text>
 <text id="text36" style="text-anchor:middle" transform="scale(4.0128 .2492)" font-size="46.954px" y="-1684.22" x="536.47998" font-family="Arial"/>
 <text id="text38" style="word-spacing:0;letter-spacing:0" font-size="129.23px" line-height="125%" y="-805.09998" x="972.84998" font-family="Gentium Book Basic">
  <tspan id="tspan40" y="-805.09998" x="972.84998"/>
 </text>
 <text id="text42" style="text-anchor:middle" transform="scale(4.0128 .2492)" font-size="46.954px" y="-3579.8701" x="439.51001" font-family="Arial"/>
 <text id="text44" style="word-spacing:0;letter-spacing:0" font-size="129.23px" line-height="125%" y="-885.09998" x="1554.11" font-family="Gentium Book Basic">
  <tspan id="tspan46" y="-885.09998" x="1554.11"/>
 </text>
 <text id="text48" style="text-anchor:middle" transform="scale(4.0128 .2492)" font-size="46.954px" y="-3900.8999" x="584.35999" font-family="Arial"/>
 <text id="text50" style="word-spacing:0;letter-spacing:0" font-size="208.33px" line-height="125%" y="529.62" x="-278.69" font-family="Gentium Book Basic">
  <tspan id="tspan52" y="529.62" x="-278.69"/>
 </text>
 <path id="path54" fill="#fff" d="m253.84 41.04c-71.52 1.431-126.07 37.953-150.58 70.65l154.62 113.72 48.04-179.29c-18.16-3.892-35.57-5.399-52.08-5.068m63.14 44.94-45.819 177.37-172 99.09c31.844 64.32 98.16 108.55 174.79 108.55 107.65 0 194.91-87.27 194.91-194.91 0-92.86-64.951-170.5-151.88-190.11m-227.39 52.49c-67.58 81.88-49.935 172.98-19.238 220.67l173.96-107.1-154.73-113.56" fill-rule="evenodd"/>
</svg>
