<?xml version="1.0" encoding="UTF-8" standalone="no"?>
<!-- Created with Inkscape (http://www.inkscape.org/) -->
<svg id="svg2" xmlns:rdf="http://www.w3.org/1999/02/22-rdf-syntax-ns#" xmlns="http://www.w3.org/2000/svg" height="100%" width="100%" version="1.1" xmlns:cc="http://creativecommons.org/ns#" viewBox="0 0 512 512" xmlns:dc="http://purl.org/dc/elements/1.1/">
 <metadata id="metadata60">
  <rdf:RDF>
   <cc:Work rdf:about="">
    <dc:format>image/svg+xml</dc:format>
    <dc:type rdf:resource="http://purl.org/dc/dcmitype/StillImage"/>
   </cc:Work>
  </rdf:RDF>
 </metadata>
 <rect id="rect4" rx="25.988" height="512" width="512" y="0" x="0" fill="#8db173"/>
 <path id="path6" d="m239.06 56.22c-20.21 0.418-38.14 7.887-51.813 18.281-27.933 0.269-61.824-1.055-77.12 27.719-12.413 32.25-16.584 71.885-18.438 104.41 2.615 3.507 18.455 13.1 5.875 11.594-15.09 1.387-31.661-2.743-45.844 2.031-22.788 24.05 3.633 62.694 3.625 92.47 9.304 43.922 15.49 88.79 26.625 132.16 22.02 22.456 44.14 44.809 66.31 67.13h337.73c14.397 0 26-11.603 26-26v-275.93c-40.56-40.59-81.13-81.14-121.84-121.56-18.44-18.145-45.63-11.651-68.34-14.693-14.9-22.504-42.19-14.825-65.28-16.188-5.98-1.077-11.81-1.523-17.47-1.406" fill-opacity="0.235"/>
 <text id="text8" style="word-spacing:0;letter-spacing:0" font-size="129.23px" line-height="125%" y="160.60001" x="93.190002" font-family="Gentium Book Basic">
  <tspan id="tspan10" y="160.60001" x="93.190002"/>
 </text>
 <text id="text12" style="text-anchor:middle" transform="scale(4.0128 .2492)" font-size="46.954px" y="295.32001" x="220.3" font-family="Arial"/>
 <text id="text14" style="word-spacing:0;letter-spacing:0" font-size="129.23px" line-height="125%" y="80.599998" x="674.46002" font-family="Gentium Book Basic">
  <tspan id="tspan16" y="80.599998" x="674.46002"/>
 </text>
 <text id="text18" style="text-anchor:middle" transform="scale(4.0128 .2492)" font-size="46.954px" y="-25.709" x="365.14999" font-family="Arial"/>
 <text id="text20" style="word-spacing:0;letter-spacing:0" font-size="129.23px" line-height="125%" y="-100.66" x="-397.12" font-family="Gentium Book Basic">
  <tspan id="tspan22" y="-100.66" x="-397.12"/>
 </text>
 <text id="text24" style="text-anchor:middle" transform="scale(4.0128 .2492)" font-size="46.954px" y="-753.07001" x="98.120003" font-family="Arial"/>
 <text id="text26" style="word-spacing:0;letter-spacing:0" font-size="129.23px" line-height="125%" y="-317.13" x="700.92999" font-family="Gentium Book Basic">
  <tspan id="tspan28" y="-317.13" x="700.92999"/>
 </text>
 <text id="text30" style="text-anchor:middle" transform="scale(4.0128 .2492)" font-size="46.954px" y="-1621.73" x="371.75" font-family="Arial"/>
 <text id="text32" style="word-spacing:0;letter-spacing:0" font-size="129.23px" line-height="125%" y="-397.14001" x="1282.2" font-family="Gentium Book Basic">
  <tspan id="tspan34" y="-397.14001" x="1282.2"/>
 </text>
 <text id="text36" style="text-anchor:middle" transform="scale(4.0128 .2492)" font-size="46.954px" y="-1942.77" x="516.59998" font-family="Arial"/>
 <text id="text38" style="word-spacing:0;letter-spacing:0" font-size="129.23px" line-height="125%" y="-869.53998" x="893.08002" font-family="Gentium Book Basic">
  <tspan id="tspan40" y="-869.53998" x="893.08002"/>
 </text>
 <text id="text42" style="text-anchor:middle" transform="scale(4.0128 .2492)" font-size="46.954px" y="-3838.4199" x="419.63" font-family="Arial"/>
 <text id="text44" style="word-spacing:0;letter-spacing:0" font-size="129.23px" line-height="125%" y="-949.53998" x="1474.34" font-family="Gentium Book Basic">
  <tspan id="tspan46" y="-949.53998" x="1474.34"/>
 </text>
 <text id="text48" style="text-anchor:middle" transform="scale(4.0128 .2492)" font-size="46.954px" y="-4159.4502" x="564.47998" font-family="Arial"/>
 <text id="text50" style="word-spacing:0;letter-spacing:0" font-size="208.33px" line-height="125%" y="465.17999" x="-358.45999" font-family="Gentium Book Basic">
  <tspan id="tspan52" y="465.17999" x="-358.45999"/>
 </text>
 <path id="path54" d="m256.52 57.635c-22.475 0-44.994 0.407-47.766 1.235-4.81 1.437-11.171 7.64-12.448 12.1l-0.988 3.31-21.734 0.593c-11.963 0.335-24.534 1.107-27.909 1.729-18.872 3.477-36.422 20.15-41.542 39.42-1.703 6.412-14.43 87.81-13.93 89.11 0.56 1.459 19.96 1.826 20.845 0.395 0.29-0.47 3.505-19.518 7.162-42.33 5.1-31.816 7.183-42.644 8.941-46.48 2.981-6.515 10.508-13.939 17.338-17.14 5.356-2.51 5.776-2.571 28.353-2.865l22.87-0.296 1.63 3.408c2.02 4.249 6.976 8.412 11.707 9.83 5.04 1.509 89.85 1.509 94.89 0 4.731-1.418 9.691-5.58 11.707-9.83l1.63-3.408 22.376 0.296 22.426 0.296 5.681 2.766c7.124 3.498 14.12 10.443 17.09 16.943 1.758 3.84 3.841 14.667 8.941 46.48 3.657 22.816 6.918 41.862 7.212 42.33 0.885 1.431 20.285 1.063 20.845-0.395 0.762-1.984-12.678-84.73-14.918-91.88-4.316-13.753-14.986-25.847-28.748-32.651-9.628-4.756-11.941-5.109-36.899-5.73l-23.611-0.593-0.939-3.31c-1.277-4.462-7.687-10.665-12.497-12.1-2.772-0.828-25.24-1.235-47.716-1.235zm-201.29 160.59-4 2.322c-5.585 3.199-9.05 8.409-9.533 14.522-0.291 3.688 4.352 29.565 18.523 102.99 10.406 53.917 19.19 99.55 19.511 101.41 0.641 3.697 3.989 8.788 7.311 11.11 5.742 4.02 1.223 3.915 170.37 3.705l161.48-0.198 4.05-2.322c5.325-3.05 8.546-7.897 9.78-14.769 0.556-3.1 9.342-48.701 19.511-101.31 13.853-71.69 18.371-96.88 18.08-100.57-0.483-6.113-3.901-11.373-9.484-14.572l-4.05-2.322h-401.53zm78.44 50.878c1.023-0.064 2.087 0.233 3.803 0.84 2.08 0.736 4.641 2.532 5.73 4 1.95 2.635 1.969 3.529 2.223 60.36 0.279 62.36 0.309 62.42-4.693 65.7-5.814 3.809-13.1 1.905-16.15-4.199-1.521-3.046-1.679-7.953-1.679-60.16 0-64.06-0.258-61.705 7.01-65.25 1.683-0.822 2.731-1.219 3.754-1.284zm62.54 0c1.023-0.064 2.039 0.233 3.754 0.84 2.08 0.736 4.641 2.532 5.73 4 1.95 2.635 2.02 3.529 2.272 60.36 0.279 62.36 0.259 62.42-4.742 65.7-5.814 3.809-13.05 1.905-16.1-4.199-1.521-3.046-1.679-7.953-1.679-60.16 0-64.06-0.258-61.705 7.01-65.25 1.683-0.822 2.731-1.219 3.754-1.284zm58.682 0c1.023-0.064 2.088 0.233 3.803 0.84 2.08 0.736 4.641 2.532 5.73 4 1.95 2.635 2.02 3.529 2.272 60.36 0.279 62.36 0.259 62.42-4.742 65.7-5.814 3.809-13.1 1.905-16.15-4.199-1.521-3.046-1.63-7.953-1.63-60.16 0-64.06-0.258-61.705 7.01-65.25 1.683-0.822 2.682-1.219 3.705-1.284zm61.6 0c1.023-0.064 2.039 0.233 3.754 0.84 2.08 0.736 4.691 2.532 5.779 4 1.95 2.635 1.969 3.529 2.223 60.36 0.279 62.36 0.259 62.42-4.742 65.7-5.814 3.809-13.05 1.905-16.1-4.199-1.521-3.046-1.679-7.953-1.679-60.16 0-64.06-0.258-61.705 7.01-65.25 1.683-0.822 2.731-1.219 3.754-1.284zm61.55 0c1.023-0.064 2.088 0.233 3.803 0.84 2.08 0.736 4.641 2.532 5.73 4 1.95 2.635 2.02 3.529 2.272 60.36 0.279 62.36 0.259 62.42-4.742 65.7-5.814 3.809-13.1 1.905-16.15-4.199-1.521-3.046-1.63-7.953-1.63-60.16 0-64.06-0.258-61.705 7.01-65.25 1.683-0.822 2.682-1.219 3.705-1.284z" stroke="#fff" stroke-width="1.366" fill="#fff"/>
</svg>
