<?xml version="1.0" encoding="UTF-8" standalone="no"?>
<!-- Created with Inkscape (http://www.inkscape.org/) -->
<svg id="svg2" xmlns:rdf="http://www.w3.org/1999/02/22-rdf-syntax-ns#" xmlns="http://www.w3.org/2000/svg" height="100%" width="100%" version="1.1" xmlns:cc="http://creativecommons.org/ns#" viewBox="0 0 512 512" xmlns:dc="http://purl.org/dc/elements/1.1/">
 <metadata id="metadata60">
  <rdf:RDF>
   <cc:Work rdf:about="">
    <dc:format>image/svg+xml</dc:format>
    <dc:type rdf:resource="http://purl.org/dc/dcmitype/StillImage"/>
   </cc:Work>
  </rdf:RDF>
 </metadata>
 <rect id="rect4" rx="25.988" height="512" width="512" y="0" x="0" fill="#f60"/>
 <path id="path6" d="m353.22 40.656c-10.44 0.179-21.14 1.284-31.12 0.344h-177.16c-28.883-0.506-34.82 30.25-32.28 52.875v344.84c2.308 24.522 26.806 37.08 41.31 54.625 6.248 6.216 12.479 12.432 18.719 18.656h313.31c14.397 0 26-11.603 26-26v-313.37c-40.58-40.59-81.16-81.174-121.75-121.75-10.62-9.151-23.62-10.453-37.03-10.223" fill-opacity="0.235"/>
 <text id="text8" style="word-spacing:0;letter-spacing:0" font-size="129.23px" line-height="125%" y="163.67" x="134.61" font-family="Gentium Book Basic">
  <tspan id="tspan10" y="163.67" x="134.61"/>
 </text>
 <text id="text12" style="text-anchor:middle" transform="scale(4.0128 .2492)" font-size="46.954px" y="307.63" x="230.63" font-family="Arial"/>
 <text id="text14" style="word-spacing:0;letter-spacing:0" font-size="129.23px" line-height="125%" y="83.669998" x="715.88" font-family="Gentium Book Basic">
  <tspan id="tspan16" y="83.669998" x="715.88"/>
 </text>
 <text id="text18" style="text-anchor:middle" transform="scale(4.0128 .2492)" font-size="46.954px" y="-13.398" x="375.48001" font-family="Arial"/>
 <text id="text20" style="word-spacing:0;letter-spacing:0" font-size="129.23px" line-height="125%" y="-97.589996" x="-355.70001" font-family="Gentium Book Basic">
  <tspan id="tspan22" y="-97.589996" x="-355.70001"/>
 </text>
 <text id="text24" style="text-anchor:middle" transform="scale(4.0128 .2492)" font-size="46.954px" y="-740.75" x="108.44" font-family="Arial"/>
 <text id="text26" style="word-spacing:0;letter-spacing:0" font-size="129.23px" line-height="125%" y="-314.06" x="742.34998" font-family="Gentium Book Basic">
  <tspan id="tspan28" y="-314.06" x="742.34998"/>
 </text>
 <text id="text30" style="text-anchor:middle" transform="scale(4.0128 .2492)" font-size="46.954px" y="-1609.42" x="382.07999" font-family="Arial"/>
 <text id="text32" style="word-spacing:0;letter-spacing:0" font-size="129.23px" line-height="125%" y="-394.07001" x="1323.62" font-family="Gentium Book Basic">
  <tspan id="tspan34" y="-394.07001" x="1323.62"/>
 </text>
 <text id="text36" style="text-anchor:middle" transform="scale(4.0128 .2492)" font-size="46.954px" y="-1930.46" x="526.91998" font-family="Arial"/>
 <text id="text38" style="word-spacing:0;letter-spacing:0" font-size="129.23px" line-height="125%" y="-866.46997" x="934.5" font-family="Gentium Book Basic">
  <tspan id="tspan40" y="-866.46997" x="934.5"/>
 </text>
 <text id="text42" style="text-anchor:middle" transform="scale(4.0128 .2492)" font-size="46.954px" y="-3826.1101" x="429.95999" font-family="Arial"/>
 <text id="text44" style="word-spacing:0;letter-spacing:0" font-size="129.23px" line-height="125%" y="-946.46997" x="1515.76" font-family="Gentium Book Basic">
  <tspan id="tspan46" y="-946.46997" x="1515.76"/>
 </text>
 <text id="text48" style="text-anchor:middle" transform="scale(4.0128 .2492)" font-size="46.954px" y="-4147.1401" x="574.79999" font-family="Arial"/>
 <text id="text50" style="word-spacing:0;letter-spacing:0" font-size="208.33px" line-height="125%" y="468.25" x="-317.04001" font-family="Gentium Book Basic">
  <tspan id="tspan52" y="468.25" x="-317.04001"/>
 </text>
 <path id="path54" d="m144.95 41c-17.799 0-32.28 14.465-32.28 32.28v365.45c0 17.811 14.476 32.28 32.28 32.28h222.11c17.822 0 32.28-14.465 32.28-32.28v-365.43c0-17.811-14.443-32.28-32.28-32.28h-222.11m111.06 42.12c31.13 0 56.45 25.318 56.45 56.45 0 31.12-25.318 56.41-56.45 56.41-31.14 0-56.45-25.282-56.45-56.41 0-31.13 25.318-56.45 56.45-56.45m0 32.23c-13.35 0-24.21 10.88-24.21 24.21 0 13.339 10.868 24.17 24.21 24.17 13.329 0 24.21-10.832 24.21-24.17 0-13.339-10.891-24.21-24.21-24.21m0 136.17c48.895 0 88.68 39.769 88.68 88.68 0 48.895-39.779 88.68-88.68 88.68-48.895 0-88.68-39.779-88.68-88.68 0-48.907 39.779-88.68 88.68-88.68m0 32.23c-31.13 0-56.41 25.318-56.41 56.45 0 31.12 25.27 56.45 56.41 56.45 31.13 0 56.45-25.329 56.45-56.45 0-31.13-25.329-56.45-56.45-56.45" fill="#fff"/>
</svg>
