<svg xmlns="http://www.w3.org/2000/svg" xmlns:svg="http://www.w3.org/2000/svg" id="svg2" width="100%" height="100%" version="1.1" viewBox="0 0 512 512"><metadata id="metadata64"/><g id="g3389" transform="translate(328.11267,-364.16901)"><rect id="rect4" width="512" height="512" x="-328.116" y="364.164" rx="25.988" style="fill:#5d5c5d"/><path id="path6" d="m -78.085676,404.75801 c -1.268,-0.01 -2.703,0.111 -4.344,0.406 -98.950004,-1.722 -185.800004,80.891 -199.810004,176.94 -13.879,75.834 15.401,156.19 73,206.91 29.1,29.01 58.15,58.09 87.19,87.16 l 279.94,0 c 14.397,0 26,-11.603 26,-26 l 0,-290.25 c -38.31,-41.547 -75.981,-83.77 -115.719996,-123.84 -29.11,-27.951 -78.32,-3.748 -93.31,15.688 -5.127,-3.857 -9.517,-8.422 -13.438,-13.438 -5.856,-3.658 -9.07,-9.848 -14.938,-13.5 -3.594,-5.807 -9.837,-9.08 -13.438,-14.875 -3.194,-2.539 -5.63,-5.142 -11.125,-5.188" style="fill-opacity:.23500001;fill-rule:evenodd"/><g id="g54" transform="matrix(1.3028,0,0,1.3028,1494.2843,-414.51599)" style="fill:#fff;fill-rule:evenodd"><path id="path56" d="m -1210.3,88.81 c -86.05,0 -155.81,73.886 -155.81,165.03 0,90.97 69.49,164.75 155.31,165.03 0.167,10e-4 0.333,0 0.5,0 l 171.53,0 0,-0.75 0.094,0 0,-201.47 -71.5,0 -54.656,75.66 -37.03,0 0,-203.25 c -2.8,-0.159 -5.6,-0.25 -8.437,-0.25" transform="translate(0,540.36)"/><path id="path58" d="m -1088.2,145.37 c 0,24.798 -20.1,44.901 -44.901,44.901 -24.798,0 -44.901,-20.1 -44.901,-44.901 0,-24.798 20.1,-44.901 44.901,-44.901 24.798,0 44.901,20.1 44.901,44.901" transform="matrix(1.0787,0,0,1.0787,98.77,534.93)"/></g></g></svg>