<?xml version="1.0" encoding="UTF-8" standalone="no"?>
<!-- Created with Inkscape (http://www.inkscape.org/) -->
<svg id="svg2" xmlns:rdf="http://www.w3.org/1999/02/22-rdf-syntax-ns#" xmlns="http://www.w3.org/2000/svg" height="100%" width="100%" version="1.1" xmlns:cc="http://creativecommons.org/ns#" viewBox="0 0 512 512" xmlns:dc="http://purl.org/dc/elements/1.1/">
 <metadata id="metadata64">
  <rdf:RDF>
   <cc:Work rdf:about="">
    <dc:format>image/svg+xml</dc:format>
    <dc:type rdf:resource="http://purl.org/dc/dcmitype/StillImage"/>
   </cc:Work>
  </rdf:RDF>
 </metadata>
 <rect id="rect4" rx="25.988" height="512" width="512" y="0" x="0" fill="#5d5c5d"/>
 <path id="path6" fill-opacity="0.235" d="m250.03 40.594c-1.268-0.01-2.703 0.111-4.344 0.406-98.95-1.722-185.8 80.891-199.81 176.94-13.879 75.834 15.401 156.19 73 206.91 29.1 29.01 58.15 58.09 87.19 87.16h279.94c14.397 0 26-11.603 26-26v-290.25c-38.31-41.547-75.981-83.77-115.72-123.84-29.11-27.951-78.32-3.748-93.31 15.688-5.127-3.857-9.517-8.422-13.438-13.438-5.856-3.658-9.07-9.848-14.938-13.5-3.594-5.807-9.837-9.08-13.438-14.875-3.194-2.539-5.63-5.142-11.125-5.188" fill-rule="evenodd"/>
 <text id="text8" style="word-spacing:0;letter-spacing:0" font-size="129.23px" line-height="125%" y="146.8" x="139.21001" font-family="Gentium Book Basic">
  <tspan id="tspan10" y="146.8" x="139.21001"/>
 </text>
 <text id="text12" style="text-anchor:middle" transform="scale(4.0128 .2492)" font-size="46.954px" y="239.92" x="231.77" font-family="Arial"/>
 <text id="text14" style="word-spacing:0;letter-spacing:0" font-size="129.23px" line-height="125%" y="66.797997" x="720.47998" font-family="Gentium Book Basic">
  <tspan id="tspan16" y="66.797997" x="720.47998"/>
 </text>
 <text id="text18" style="text-anchor:middle" transform="scale(4.0128 .2492)" font-size="46.954px" y="-81.110001" x="376.62" font-family="Arial"/>
 <text id="text20" style="word-spacing:0;letter-spacing:0" font-size="129.23px" line-height="125%" y="-114.46" x="-351.10001" font-family="Gentium Book Basic">
  <tspan id="tspan22" y="-114.46" x="-351.10001"/>
 </text>
 <text id="text24" style="text-anchor:middle" transform="scale(4.0128 .2492)" font-size="46.954px" y="-808.46997" x="109.58" font-family="Arial"/>
 <text id="text26" style="word-spacing:0;letter-spacing:0" font-size="129.23px" line-height="125%" y="-330.92999" x="746.95001" font-family="Gentium Book Basic">
  <tspan id="tspan28" y="-330.92999" x="746.95001"/>
 </text>
 <text id="text30" style="text-anchor:middle" transform="scale(4.0128 .2492)" font-size="46.954px" y="-1677.13" x="383.22" font-family="Arial"/>
 <text id="text32" style="word-spacing:0;letter-spacing:0" font-size="129.23px" line-height="125%" y="-410.94" x="1328.22" font-family="Gentium Book Basic">
  <tspan id="tspan34" y="-410.94" x="1328.22"/>
 </text>
 <text id="text36" style="text-anchor:middle" transform="scale(4.0128 .2492)" font-size="46.954px" y="-1998.17" x="528.07001" font-family="Arial"/>
 <text id="text38" style="word-spacing:0;letter-spacing:0" font-size="129.23px" line-height="125%" y="-883.34003" x="939.09998" font-family="Gentium Book Basic">
  <tspan id="tspan40" y="-883.34003" x="939.09998"/>
 </text>
 <text id="text42" style="text-anchor:middle" transform="scale(4.0128 .2492)" font-size="46.954px" y="-3893.8201" x="431.10001" font-family="Arial"/>
 <text id="text44" style="word-spacing:0;letter-spacing:0" font-size="129.23px" line-height="125%" y="-963.34003" x="1520.36" font-family="Gentium Book Basic">
  <tspan id="tspan46" y="-963.34003" x="1520.36"/>
 </text>
 <text id="text48" style="text-anchor:middle" transform="scale(4.0128 .2492)" font-size="46.954px" y="-4214.8501" x="575.95001" font-family="Arial"/>
 <text id="text50" style="word-spacing:0;letter-spacing:0" font-size="208.33px" line-height="125%" y="451.38" x="-312.44" font-family="Gentium Book Basic">
  <tspan id="tspan52" y="451.38" x="-312.44"/>
 </text>
 <g id="g54" fill-rule="evenodd" fill="#fff" transform="matrix(1.3028 0 0 1.3028 1822.4 -778.68)">
  <path id="path56" transform="translate(0,540.36)" d="m-1210.3 88.81c-86.05 0-155.81 73.886-155.81 165.03 0 90.97 69.49 164.75 155.31 165.03 0.167 0.001 0.333 0 0.5 0h171.53v-0.75h0.094v-201.47h-71.5l-54.656 75.66h-37.03v-203.25c-2.8-0.159-5.6-0.25-8.437-0.25"/>
  <path id="path58" transform="matrix(1.0787 0 0 1.0787 98.77 534.93)" d="m-1088.2 145.37c0 24.798-20.1 44.901-44.901 44.901-24.798 0-44.901-20.1-44.901-44.901 0-24.798 20.1-44.901 44.901-44.901 24.798 0 44.901 20.1 44.901 44.901"/>
 </g>
</svg>
