<svg xmlns="http://www.w3.org/2000/svg" viewBox="0 0 512 512"><path d="m26 0c-14.397 0-26 11.603-26 26v460c0 14.397 11.603 26 26 26h460c14.397 0 26-11.603 26-26v-460c0-14.397-11.603-26-26-26h-460" style="fill:#eea735"/><text x="-391.57" y="205.09" line-height="125%" style="letter-spacing:0;word-spacing:0;font-size:129.23;font-family:&apos;Gentium Book Basic&apos;"><tspan x="-391.57" y="205.09"/></text><text x="99.5" y="473.85" transform="scale(4.0128.2492)" style="font-size:46.954;font-family:Arial;text-anchor:middle"/><text x="189.7" y="125.09" line-height="125%" style="letter-spacing:0;word-spacing:0;font-size:129.23;font-family:&apos;Gentium Book Basic&apos;"><tspan x="189.7" y="125.09"/></text><text x="244.35" y="152.81" transform="scale(4.0128.2492)" style="font-size:46.954;font-family:Arial;text-anchor:middle"/><text x="-881.88" y="-56.17" line-height="125%" style="letter-spacing:0;word-spacing:0;font-size:129.23;font-family:&apos;Gentium Book Basic&apos;"><tspan x="-881.88" y="-56.17"/></text><text x="-22.689" y="-574.53" transform="scale(4.0128.2492)" style="font-size:46.954;font-family:Arial;text-anchor:middle"/><text x="216.17" y="-272.64" line-height="125%" style="letter-spacing:0;word-spacing:0;font-size:129.23;font-family:&apos;Gentium Book Basic&apos;"><tspan x="216.17" y="-272.64"/></text><text x="250.95" y="-1443.21" transform="scale(4.0128.2492)" style="font-size:46.954;font-family:Arial;text-anchor:middle"/><text x="797.44" y="-352.64" line-height="125%" style="letter-spacing:0;word-spacing:0;font-size:129.23;font-family:&apos;Gentium Book Basic&apos;"><tspan x="797.44" y="-352.64"/></text><text x="395.8" y="-1764.24" transform="scale(4.0128.2492)" style="font-size:46.954;font-family:Arial;text-anchor:middle"/><text x="408.32" y="-825.04" line-height="125%" style="letter-spacing:0;word-spacing:0;font-size:129.23;font-family:&apos;Gentium Book Basic&apos;"><tspan x="408.32" y="-825.04"/></text><text x="298.83" y="-3659.89" transform="scale(4.0128.2492)" style="font-size:46.954;font-family:Arial;text-anchor:middle"/><text x="989.58" y="-905.05" line-height="125%" style="letter-spacing:0;word-spacing:0;font-size:129.23;font-family:&apos;Gentium Book Basic&apos;"><tspan x="989.58" y="-905.05"/></text><text x="443.68" y="-3980.93" transform="scale(4.0128.2492)" style="font-size:46.954;font-family:Arial;text-anchor:middle"/><text x="-843.22" y="509.67" line-height="125%" style="letter-spacing:0;word-spacing:0;font-size:208.33;font-family:&apos;Gentium Book Basic&apos;"><tspan x="-843.22" y="509.67"/></text><path d="m41 79.63v209.27.143.145.559c.196 29.09 13.409 56.13 35.959 78.68l143.57 143.57h265.47c14.397 0 26-11.603 26-26v-199.4l-76.969-76.969c-38.54-38.54-104.34-63.936-179.03-63.936-27.27 0-53.35 3.394-77.36 9.568l-75.63-75.63h-62.01" style="opacity:.25"/><path d="m256 432.34c118.72 0 215-64.2 215-143.33 0-79.13-96.28-143.3-215-143.3-59.856 0-114.02 16.297-152.99 42.642v-108.7h-62.01v209.27.143.143.559c.53 78.79 96.58 142.62 214.97 142.62zm0-251.45c82.976 0 150.24 48.4 150.24 108.12 0 59.713-67.27 108.15-150.24 108.15-82.976 0-150.24-48.43-150.24-108.15 0-59.713 67.27-108.12 150.24-108.12" style="fill:#fff"/></svg>