<?xml version="1.0" encoding="UTF-8" standalone="no"?>
<!-- Created with Inkscape (http://www.inkscape.org/) -->
<svg id="svg2" xmlns:rdf="http://www.w3.org/1999/02/22-rdf-syntax-ns#" xmlns="http://www.w3.org/2000/svg" height="100%" width="100%" version="1.1" xmlns:cc="http://creativecommons.org/ns#" viewBox="0 0 512 512" xmlns:dc="http://purl.org/dc/elements/1.1/">
 <metadata id="metadata14">
  <rdf:RDF>
   <cc:Work rdf:about="">
    <dc:format>image/svg+xml</dc:format>
    <dc:type rdf:resource="http://purl.org/dc/dcmitype/StillImage"/>
   </cc:Work>
  </rdf:RDF>
 </metadata>
 <rect id="rect4" rx="25.988" height="512" width="512" y="0" x="0" fill="#0078ad"/>
 <path id="path6" d="m332.22 75.28c-1.103 0.005-2.21 0.049-3.344 0.125-60.967 2.305-106.11 55.19-125.72 108.94-32.901 63.825-95.88 107.35-162.16 131.13 44.827 49.892 93.88 95.73 140.81 143.59 17.718 17.595 35.37 35.26 53 52.938h251.19c14.397 0 26-11.603 26-26v-299.34c-0.558-0.427-1.139-0.862-1.75-1.281-3-4.603-8.05-8.896-12.781-13.25-2.789-4.44-9.513-8.266-11.531-12.844-6.01-4.23-10.148-8.764-13.438-13.438-15.18-9.998-48.28-0.263-64.22-14.875-22.13-22.443-41.86-55.845-76.06-55.688" fill-opacity="0.235"/>
 <path id="path8" d="m331.13 75.41c-47.88-0.724-98.68 39.02-121.31 94.38-43.68 106.75-168.81 145.69-168.81 145.69 89.04 105.72 169.36 124.81 222.94 120.59 53.596-4.239 198.24-46.3 168.13-234-1.565-9.748-3.452-18.839-5.625-27.344l44.563-30.375-63.56-18.563c-19.9-34.924-47.57-49.942-76.3-50.372m21.406 33.34c6.189 0.162 11.707 6.418 12.656 14.719 0.99 8.856-3.565 16.665-10.219 17.438-6.678 0.744-12.92-5.846-13.906-14.688-1.015-8.856 3.572-16.634 10.25-17.406 0.417-0.045 0.806-0.073 1.219-0.063" fill="#fff"/>
</svg>
