<?xml version="1.0" encoding="UTF-8" standalone="no"?>
<svg xmlns="http://www.w3.org/2000/svg" viewBox="0 0 512 512">
 <text style="word-spacing:0;letter-spacing:0" font-size="129.23" y="205.09" x="-391.57" font-family="&apos;Gentium Book Basic&apos;" line-height="125%">
  <tspan y="205.09" x="-391.57"/>
 </text>
 <text style="text-anchor:middle" transform="scale(4.0128.2492)" font-size="46.954" y="473.85" x="99.5" font-family="Arial"/>
 <text style="word-spacing:0;letter-spacing:0" font-size="129.23" y="125.09" x="189.7" font-family="&apos;Gentium Book Basic&apos;" line-height="125%">
  <tspan y="125.09" x="189.7"/>
 </text>
 <text style="text-anchor:middle" transform="scale(4.0128.2492)" font-size="46.954" y="152.81" x="244.35" font-family="Arial"/>
 <text style="word-spacing:0;letter-spacing:0" font-size="129.23" y="-56.17" x="-881.88" font-family="&apos;Gentium Book Basic&apos;" line-height="125%">
  <tspan y="-56.17" x="-881.88"/>
 </text>
 <text style="text-anchor:middle" transform="scale(4.0128.2492)" font-size="46.954" y="-574.53" x="-22.689" font-family="Arial"/>
 <text style="word-spacing:0;letter-spacing:0" font-size="129.23" y="-272.64" x="216.17" font-family="&apos;Gentium Book Basic&apos;" line-height="125%">
  <tspan y="-272.64" x="216.17"/>
 </text>
 <text style="text-anchor:middle" transform="scale(4.0128.2492)" font-size="46.954" y="-1443.21" x="250.95" font-family="Arial"/>
 <text style="word-spacing:0;letter-spacing:0" font-size="129.23" y="-352.64" x="797.44" font-family="&apos;Gentium Book Basic&apos;" line-height="125%">
  <tspan y="-352.64" x="797.44"/>
 </text>
 <text style="text-anchor:middle" transform="scale(4.0128.2492)" font-size="46.954" y="-1764.24" x="395.8" font-family="Arial"/>
 <text style="word-spacing:0;letter-spacing:0" font-size="129.23" y="-825.04" x="408.32" font-family="&apos;Gentium Book Basic&apos;" line-height="125%">
  <tspan y="-825.04" x="408.32"/>
 </text>
 <text style="text-anchor:middle" transform="scale(4.0128.2492)" font-size="46.954" y="-3659.89" x="298.83" font-family="Arial"/>
 <text style="word-spacing:0;letter-spacing:0" font-size="129.23" y="-905.05" x="989.58" font-family="&apos;Gentium Book Basic&apos;" line-height="125%">
  <tspan y="-905.05" x="989.58"/>
 </text>
 <text style="text-anchor:middle" transform="scale(4.0128.2492)" font-size="46.954" y="-3980.93" x="443.68" font-family="Arial"/>
 <text style="word-spacing:0;letter-spacing:0" font-size="208.33" y="509.67" x="-843.22" font-family="&apos;Gentium Book Basic&apos;" line-height="125%">
  <tspan y="509.67" x="-843.22"/>
 </text>
 <path d="m26 0c-14.397 0-26 11.603-26 26v460c0 14.397 11.603 26 26 26h460c14.397 0 26-11.603 26-26v-460c0-14.397-11.603-26-26-26h-460" fill="#f1982e"/>
 <text style="word-spacing:0;letter-spacing:0" font-size="129.23" y="100.78" x="-182.94" font-family="&apos;Gentium Book Basic&apos;" line-height="125%">
  <tspan y="100.78" x="-182.94"/>
 </text>
 <text style="text-anchor:middle" transform="scale(4.0128.2492)" font-size="46.954" y="55.25" x="151.49" font-family="Arial"/>
 <text style="word-spacing:0;letter-spacing:0" font-size="129.23" y="20.776" x="398.33" font-family="&apos;Gentium Book Basic&apos;" line-height="125%">
  <tspan y="20.776" x="398.33"/>
 </text>
 <text style="text-anchor:middle" transform="scale(4.0128.2492)" font-size="46.954" y="-265.79" x="296.34" font-family="Arial"/>
 <text style="word-spacing:0;letter-spacing:0" font-size="129.23" y="-160.48" x="-673.25" font-family="&apos;Gentium Book Basic&apos;" line-height="125%">
  <tspan y="-160.48" x="-673.25"/>
 </text>
 <text style="text-anchor:middle" transform="scale(4.0128.2492)" font-size="46.954" y="-993.14" x="29.3" font-family="Arial"/>
 <text style="word-spacing:0;letter-spacing:0" font-size="129.23" y="-376.95" x="424.8" font-family="&apos;Gentium Book Basic&apos;" line-height="125%">
  <tspan y="-376.95" x="424.8"/>
 </text>
 <text style="text-anchor:middle" transform="scale(4.0128.2492)" font-size="46.954" y="-1861.81" x="302.94" font-family="Arial"/>
 <text style="word-spacing:0;letter-spacing:0" font-size="129.23" y="-456.95" x="1006.07" font-family="&apos;Gentium Book Basic&apos;" line-height="125%">
  <tspan y="-456.95" x="1006.07"/>
 </text>
 <text style="text-anchor:middle" transform="scale(4.0128.2492)" font-size="46.954" y="-2182.84" x="447.79" font-family="Arial"/>
 <text style="word-spacing:0;letter-spacing:0" font-size="129.23" y="-929.35" x="616.95" font-family="&apos;Gentium Book Basic&apos;" line-height="125%">
  <tspan y="-929.35" x="616.95"/>
 </text>
 <text style="text-anchor:middle" transform="scale(4.0128.2492)" font-size="46.954" y="-4078.49" x="350.82" font-family="Arial"/>
 <text style="word-spacing:0;letter-spacing:0" font-size="129.23" y="-1009.36" x="1198.21" font-family="&apos;Gentium Book Basic&apos;" line-height="125%">
  <tspan y="-1009.36" x="1198.21"/>
 </text>
 <text style="text-anchor:middle" transform="scale(4.0128.2492)" font-size="46.954" y="-4399.53" x="495.67" font-family="Arial"/>
 <text style="word-spacing:0;letter-spacing:0" font-size="208.33" y="405.36" x="-634.59" font-family="&apos;Gentium Book Basic&apos;" line-height="125%">
  <tspan y="405.36" x="-634.59"/>
 </text>
 <path opacity=".25" d="m221.95 41v19.334l-19.12-19.12-19.12 0.223-0.41 32.471-0.41 32.475-40.49 0.213-40.488 0.215v39.252l50.906 50.906c0.036 13.606 0.045 31.539 0.049 56.22 0.02 105.54 0.233 101.22-5.301 106.44-4.132 3.897-7.491 4.492-25.27 4.492h-16.01l-0.539 12.467c-0.297 6.855-0.539 15.915-0.539 20.14v7.68l107.59 107.59h273.2c14.397 0 26-11.603 26-26v-223.15l-221.82-221.82h-38.62l-0.193 29.395-29.424-29.424"/>
 <path d="m221.95 41v64.947l1.85 0.455c1.016 0.251 7.584 0.352 14.593 0.222l12.743-0.236 0.215-32.68 0.215-32.677h38.619v32.909c0 25.621 0.229 32.977 1.029 33.21 0.564 0.163 5.567 0.896 11.11 1.628 24.78 3.269 46.735 10.931 61.47 21.449 11.912 8.5 21.495 21.931 24.64 34.534 1.934 7.772 1.987 24.21 0.084 32.01-3.768 15.517-14.836 31.2-28.673 40.626-2.148 1.463-3.903 2.983-3.903 3.377 0.001 0.394 1.94 1.353 4.314 2.131 6.762 2.216 16.87 7.554 23.2 12.25 12.202 9.06 20.936 21.547 24.744 35.386 1.832 6.67 2.501 26.349 1.222 36.04-3.461 26.2-13 44.01-30.723 57.36-17.526 13.207-38.8 19.275-71.26 20.323l-16.854 0.542-0.212 33.09-0.215 33.09h-38.603l-0.215-33.09-0.215-33.09h-28.774l-0.215 33.09-0.212 33.09h-38.622v-66.6h-78.1v-7.678c0-4.224 0.242-13.286 0.539-20.14l0.539-12.465h16.02c17.782 0 21.14-0.596 25.27-4.493 5.534-5.219 5.319-0.891 5.299-106.43-0.014-92.39-0.056-95.11-1.618-98.54-1.336-2.942-2.391-3.893-6.353-5.724-4.633-2.14-5.231-2.201-23.867-2.526l-19.12-0.336v-39.253l40.489-0.215 40.489-0.212 0.41-32.475 0.41-32.472 19.12-0.222zm0 108.55v39.39c0 21.667 0.225 39.98 0.5 40.695 0.443 1.152 3.784 1.301 29.15 1.301 27.938 0 28.777-0.042 33.921-1.915 14.848-5.39 23.13-14.318 26.882-28.983 3.975-15.545 0.222-30.29-9.659-37.924-12.452-9.623-26.45-12.566-59.729-12.566zm0.41 122.08l-0.212 43.16c-0.112 23.739-0.028 43.661 0.212 44.27 0.634 1.653 60.04 0.829 68.24-0.947 16.913-3.663 29.2-10.879 35.621-20.92 3.879-6.069 6.805-15.86 7.3-24.422 1.178-20.398-9.775-32.491-35.519-39.21-7.193-1.878-8.351-1.932-41.517-1.932z" fill="#fff"/>
</svg>
