<svg xmlns="http://www.w3.org/2000/svg" viewBox="0 0 512 512"><text x="-391.57" y="205.09" line-height="125%" style="letter-spacing:0;word-spacing:0;font-size:129.23;font-family:&apos;Gentium Book Basic&apos;"><tspan x="-391.57" y="205.09"/></text><text x="99.5" y="473.85" transform="scale(4.0128.2492)" style="font-size:46.954;font-family:Arial;text-anchor:middle"/><text x="189.7" y="125.09" line-height="125%" style="letter-spacing:0;word-spacing:0;font-size:129.23;font-family:&apos;Gentium Book Basic&apos;"><tspan x="189.7" y="125.09"/></text><text x="244.35" y="152.81" transform="scale(4.0128.2492)" style="font-size:46.954;font-family:Arial;text-anchor:middle"/><text x="-881.88" y="-56.17" line-height="125%" style="letter-spacing:0;word-spacing:0;font-size:129.23;font-family:&apos;Gentium Book Basic&apos;"><tspan x="-881.88" y="-56.17"/></text><text x="-22.689" y="-574.53" transform="scale(4.0128.2492)" style="font-size:46.954;font-family:Arial;text-anchor:middle"/><text x="216.17" y="-272.64" line-height="125%" style="letter-spacing:0;word-spacing:0;font-size:129.23;font-family:&apos;Gentium Book Basic&apos;"><tspan x="216.17" y="-272.64"/></text><text x="250.95" y="-1443.21" transform="scale(4.0128.2492)" style="font-size:46.954;font-family:Arial;text-anchor:middle"/><text x="797.44" y="-352.64" line-height="125%" style="letter-spacing:0;word-spacing:0;font-size:129.23;font-family:&apos;Gentium Book Basic&apos;"><tspan x="797.44" y="-352.64"/></text><text x="395.8" y="-1764.24" transform="scale(4.0128.2492)" style="font-size:46.954;font-family:Arial;text-anchor:middle"/><text x="408.32" y="-825.04" line-height="125%" style="letter-spacing:0;word-spacing:0;font-size:129.23;font-family:&apos;Gentium Book Basic&apos;"><tspan x="408.32" y="-825.04"/></text><text x="298.83" y="-3659.89" transform="scale(4.0128.2492)" style="font-size:46.954;font-family:Arial;text-anchor:middle"/><text x="989.58" y="-905.05" line-height="125%" style="letter-spacing:0;word-spacing:0;font-size:129.23;font-family:&apos;Gentium Book Basic&apos;"><tspan x="989.58" y="-905.05"/></text><text x="443.68" y="-3980.93" transform="scale(4.0128.2492)" style="font-size:46.954;font-family:Arial;text-anchor:middle"/><g line-height="125%" style="letter-spacing:0;word-spacing:0;font-family:&apos;Gentium Book Basic&apos;"><text x="-843.22" y="509.67" style="font-size:208.33"><tspan x="-843.22" y="509.67"/></text><text x="-182.94" y="100.78" style="font-size:129.23"><tspan x="-182.94" y="100.78"/></text></g><text x="151.49" y="55.25" transform="scale(4.0128.2492)" style="font-size:46.954;font-family:Arial;text-anchor:middle"/><text x="398.33" y="20.776" line-height="125%" style="letter-spacing:0;word-spacing:0;font-size:129.23;font-family:&apos;Gentium Book Basic&apos;"><tspan x="398.33" y="20.776"/></text><text x="296.34" y="-265.79" transform="scale(4.0128.2492)" style="font-size:46.954;font-family:Arial;text-anchor:middle"/><text x="-673.25" y="-160.48" line-height="125%" style="letter-spacing:0;word-spacing:0;font-size:129.23;font-family:&apos;Gentium Book Basic&apos;"><tspan x="-673.25" y="-160.48"/></text><text x="29.3" y="-993.14" transform="scale(4.0128.2492)" style="font-size:46.954;font-family:Arial;text-anchor:middle"/><text x="424.8" y="-376.95" line-height="125%" style="letter-spacing:0;word-spacing:0;font-size:129.23;font-family:&apos;Gentium Book Basic&apos;"><tspan x="424.8" y="-376.95"/></text><text x="302.94" y="-1861.81" transform="scale(4.0128.2492)" style="font-size:46.954;font-family:Arial;text-anchor:middle"/><text x="1006.07" y="-456.95" line-height="125%" style="letter-spacing:0;word-spacing:0;font-size:129.23;font-family:&apos;Gentium Book Basic&apos;"><tspan x="1006.07" y="-456.95"/></text><text x="447.79" y="-2182.84" transform="scale(4.0128.2492)" style="font-size:46.954;font-family:Arial;text-anchor:middle"/><text x="616.95" y="-929.35" line-height="125%" style="letter-spacing:0;word-spacing:0;font-size:129.23;font-family:&apos;Gentium Book Basic&apos;"><tspan x="616.95" y="-929.35"/></text><text x="350.82" y="-4078.49" transform="scale(4.0128.2492)" style="font-size:46.954;font-family:Arial;text-anchor:middle"/><text x="1198.21" y="-1009.36" line-height="125%" style="letter-spacing:0;word-spacing:0;font-size:129.23;font-family:&apos;Gentium Book Basic&apos;"><tspan x="1198.21" y="-1009.36"/></text><text x="495.67" y="-4399.53" transform="scale(4.0128.2492)" style="font-size:46.954;font-family:Arial;text-anchor:middle"/><text x="-634.59" y="405.36" line-height="125%" style="letter-spacing:0;word-spacing:0;font-size:208.33;font-family:&apos;Gentium Book Basic&apos;"><tspan x="-634.59" y="405.36"/></text><path d="m26 0c-14.397 0-26 11.603-26 26v460c0 14.397 11.603 26 26 26h460c14.397 0 26-11.603 26-26v-460c0-14.397-11.603-26-26-26h-460" style="fill:#ed5a48"/><text x="-121.58" y="146.8" line-height="125%" style="letter-spacing:0;word-spacing:0;font-size:129.23;font-family:&apos;Gentium Book Basic&apos;"><tspan x="-121.58" y="146.8"/></text><text x="166.78" y="239.93" transform="scale(4.0128.2492)" style="font-size:46.954;font-family:Arial;text-anchor:middle"/><text x="459.69" y="66.798" line-height="125%" style="letter-spacing:0;word-spacing:0;font-size:129.23;font-family:&apos;Gentium Book Basic&apos;"><tspan x="459.69" y="66.798"/></text><text x="311.63" y="-81.11" transform="scale(4.0128.2492)" style="font-size:46.954;font-family:Arial;text-anchor:middle"/><text x="-611.89" y="-114.46" line-height="125%" style="letter-spacing:0;word-spacing:0;font-size:129.23;font-family:&apos;Gentium Book Basic&apos;"><tspan x="-611.89" y="-114.46"/></text><text x="44.595" y="-808.46" transform="scale(4.0128.2492)" style="font-size:46.954;font-family:Arial;text-anchor:middle"/><text x="486.16" y="-330.93" line-height="125%" style="letter-spacing:0;word-spacing:0;font-size:129.23;font-family:&apos;Gentium Book Basic&apos;"><tspan x="486.16" y="-330.93"/></text><text x="318.23" y="-1677.13" transform="scale(4.0128.2492)" style="font-size:46.954;font-family:Arial;text-anchor:middle"/><text x="1067.43" y="-410.93" line-height="125%" style="letter-spacing:0;word-spacing:0;font-size:129.23;font-family:&apos;Gentium Book Basic&apos;"><tspan x="1067.43" y="-410.93"/></text><text x="463.08" y="-1998.16" transform="scale(4.0128.2492)" style="font-size:46.954;font-family:Arial;text-anchor:middle"/><text x="678.31" y="-883.33" line-height="125%" style="letter-spacing:0;word-spacing:0;font-size:129.23;font-family:&apos;Gentium Book Basic&apos;"><tspan x="678.31" y="-883.33"/></text><text x="366.11" y="-3893.81" transform="scale(4.0128.2492)" style="font-size:46.954;font-family:Arial;text-anchor:middle"/><text x="1259.57" y="-963.34" line-height="125%" style="letter-spacing:0;word-spacing:0;font-size:129.23;font-family:&apos;Gentium Book Basic&apos;"><tspan x="1259.57" y="-963.34"/></text><text x="510.96" y="-4214.85" transform="scale(4.0128.2492)" style="font-size:46.954;font-family:Arial;text-anchor:middle"/><text x="-573.23" y="451.38" line-height="125%" style="letter-spacing:0;word-spacing:0;font-size:208.33;font-family:&apos;Gentium Book Basic&apos;"><tspan x="-573.23" y="451.38"/></text><path d="m251.51 41l-29.11 72.29-53.48-53.48c-75.35 33.488-127.92 108.56-127.92 196.19 0 59.29 24.05 112.97 62.943 151.87l104.13 104.13h277.93c14.397 0 26-11.603 26-26v-278.93l-101.69-101.69c-7.48-7.48-15.549-14.467-24.14-20.926-12.153-6.273-20.01-7.755-21.992-2.688l-3.451 10.594-34.619-34.619c-.578-.578-1.236-.722-1.879-.609-1.566.275-3.045 1.972-3.59 1.791l-17.03 33.28-51.2-51.2c-.299.002-.595-.008-.896 0" style="opacity:.25"/><path d="m251.51 41l-95.61 237.39 307.01 38.521c.213-.724.242-1.513.45-2.24l-235.65-108.84 24.687-164.83c-.299.002-.596-.008-.898 0m72.71 16.12c-1.566.275-3.046 1.973-3.591 1.792l-65.53 128.1 194.07 103.8c5.03-.222 4.867-3.243 2.974-6.159l-132.41-120.49 8.08-100.78c-.373-5.285-2.025-6.545-3.591-6.271m-155.3 2.687c-75.35 33.488-127.92 108.56-127.92 196.19 0 118.74 96.46 215 215.45 215 88.38 0 164.27-53.02 197.49-129h-336.64zm195.25 21.948l-23.789 73.01 107.01 103.58c3.06 4.47 20.02 7.171 23.603-5.934 0-70.2-32.697-128.79-84.83-167.97-12.153-6.273-20.01-7.755-21.994-2.688" style="fill:#fff"/></svg>