<?xml version="1.0" encoding="UTF-8" standalone="no"?>
<svg xmlns="http://www.w3.org/2000/svg" viewBox="0 0 512 512">
 <text style="word-spacing:0;letter-spacing:0" font-size="129.23" y="205.09" x="-391.57" font-family="&apos;Gentium Book Basic&apos;" line-height="125%">
  <tspan y="205.09" x="-391.57"/>
 </text>
 <text style="text-anchor:middle" transform="scale(4.0128.2492)" font-size="46.954" y="473.85" x="99.5" font-family="Arial"/>
 <text style="word-spacing:0;letter-spacing:0" font-size="129.23" y="125.09" x="189.7" font-family="&apos;Gentium Book Basic&apos;" line-height="125%">
  <tspan y="125.09" x="189.7"/>
 </text>
 <text style="text-anchor:middle" transform="scale(4.0128.2492)" font-size="46.954" y="152.81" x="244.35" font-family="Arial"/>
 <text style="word-spacing:0;letter-spacing:0" font-size="129.23" y="-56.17" x="-881.88" font-family="&apos;Gentium Book Basic&apos;" line-height="125%">
  <tspan y="-56.17" x="-881.88"/>
 </text>
 <text style="text-anchor:middle" transform="scale(4.0128.2492)" font-size="46.954" y="-574.53" x="-22.689" font-family="Arial"/>
 <text style="word-spacing:0;letter-spacing:0" font-size="129.23" y="-272.64" x="216.17" font-family="&apos;Gentium Book Basic&apos;" line-height="125%">
  <tspan y="-272.64" x="216.17"/>
 </text>
 <text style="text-anchor:middle" transform="scale(4.0128.2492)" font-size="46.954" y="-1443.21" x="250.95" font-family="Arial"/>
 <text style="word-spacing:0;letter-spacing:0" font-size="129.23" y="-352.64" x="797.44" font-family="&apos;Gentium Book Basic&apos;" line-height="125%">
  <tspan y="-352.64" x="797.44"/>
 </text>
 <text style="text-anchor:middle" transform="scale(4.0128.2492)" font-size="46.954" y="-1764.24" x="395.8" font-family="Arial"/>
 <text style="word-spacing:0;letter-spacing:0" font-size="129.23" y="-825.04" x="408.32" font-family="&apos;Gentium Book Basic&apos;" line-height="125%">
  <tspan y="-825.04" x="408.32"/>
 </text>
 <text style="text-anchor:middle" transform="scale(4.0128.2492)" font-size="46.954" y="-3659.89" x="298.83" font-family="Arial"/>
 <text style="word-spacing:0;letter-spacing:0" font-size="129.23" y="-905.05" x="989.58" font-family="&apos;Gentium Book Basic&apos;" line-height="125%">
  <tspan y="-905.05" x="989.58"/>
 </text>
 <text style="text-anchor:middle" transform="scale(4.0128.2492)" font-size="46.954" y="-3980.93" x="443.68" font-family="Arial"/>
 <g style="word-spacing:0;letter-spacing:0" font-family="&apos;Gentium Book Basic&apos;" line-height="125%">
  <text y="509.67" x="-843.22" font-size="208.33">
   <tspan y="509.67" x="-843.22"/>
  </text>
  <text y="100.78" x="-182.94" font-size="129.23">
   <tspan y="100.78" x="-182.94"/>
  </text>
 </g>
 <text style="text-anchor:middle" transform="scale(4.0128.2492)" font-size="46.954" y="55.25" x="151.49" font-family="Arial"/>
 <text style="word-spacing:0;letter-spacing:0" font-size="129.23" y="20.776" x="398.33" font-family="&apos;Gentium Book Basic&apos;" line-height="125%">
  <tspan y="20.776" x="398.33"/>
 </text>
 <text style="text-anchor:middle" transform="scale(4.0128.2492)" font-size="46.954" y="-265.79" x="296.34" font-family="Arial"/>
 <text style="word-spacing:0;letter-spacing:0" font-size="129.23" y="-160.48" x="-673.25" font-family="&apos;Gentium Book Basic&apos;" line-height="125%">
  <tspan y="-160.48" x="-673.25"/>
 </text>
 <text style="text-anchor:middle" transform="scale(4.0128.2492)" font-size="46.954" y="-993.14" x="29.3" font-family="Arial"/>
 <text style="word-spacing:0;letter-spacing:0" font-size="129.23" y="-376.95" x="424.8" font-family="&apos;Gentium Book Basic&apos;" line-height="125%">
  <tspan y="-376.95" x="424.8"/>
 </text>
 <text style="text-anchor:middle" transform="scale(4.0128.2492)" font-size="46.954" y="-1861.81" x="302.94" font-family="Arial"/>
 <text style="word-spacing:0;letter-spacing:0" font-size="129.23" y="-456.95" x="1006.07" font-family="&apos;Gentium Book Basic&apos;" line-height="125%">
  <tspan y="-456.95" x="1006.07"/>
 </text>
 <text style="text-anchor:middle" transform="scale(4.0128.2492)" font-size="46.954" y="-2182.84" x="447.79" font-family="Arial"/>
 <text style="word-spacing:0;letter-spacing:0" font-size="129.23" y="-929.35" x="616.95" font-family="&apos;Gentium Book Basic&apos;" line-height="125%">
  <tspan y="-929.35" x="616.95"/>
 </text>
 <text style="text-anchor:middle" transform="scale(4.0128.2492)" font-size="46.954" y="-4078.49" x="350.82" font-family="Arial"/>
 <text style="word-spacing:0;letter-spacing:0" font-size="129.23" y="-1009.36" x="1198.21" font-family="&apos;Gentium Book Basic&apos;" line-height="125%">
  <tspan y="-1009.36" x="1198.21"/>
 </text>
 <text style="text-anchor:middle" transform="scale(4.0128.2492)" font-size="46.954" y="-4399.53" x="495.67" font-family="Arial"/>
 <g style="word-spacing:0;letter-spacing:0" font-family="&apos;Gentium Book Basic&apos;" line-height="125%">
  <text y="405.36" x="-634.59" font-size="208.33">
   <tspan y="405.36" x="-634.59"/>
  </text>
  <text y="146.8" x="-121.58" font-size="129.23">
   <tspan y="146.8" x="-121.58"/>
  </text>
 </g>
 <text style="text-anchor:middle" transform="scale(4.0128.2492)" font-size="46.954" y="239.93" x="166.78" font-family="Arial"/>
 <text style="word-spacing:0;letter-spacing:0" font-size="129.23" y="66.798" x="459.69" font-family="&apos;Gentium Book Basic&apos;" line-height="125%">
  <tspan y="66.798" x="459.69"/>
 </text>
 <text style="text-anchor:middle" transform="scale(4.0128.2492)" font-size="46.954" y="-81.11" x="311.63" font-family="Arial"/>
 <text style="word-spacing:0;letter-spacing:0" font-size="129.23" y="-114.46" x="-611.89" font-family="&apos;Gentium Book Basic&apos;" line-height="125%">
  <tspan y="-114.46" x="-611.89"/>
 </text>
 <text style="text-anchor:middle" transform="scale(4.0128.2492)" font-size="46.954" y="-808.46" x="44.595" font-family="Arial"/>
 <text style="word-spacing:0;letter-spacing:0" font-size="129.23" y="-330.93" x="486.16" font-family="&apos;Gentium Book Basic&apos;" line-height="125%">
  <tspan y="-330.93" x="486.16"/>
 </text>
 <text style="text-anchor:middle" transform="scale(4.0128.2492)" font-size="46.954" y="-1677.13" x="318.23" font-family="Arial"/>
 <text style="word-spacing:0;letter-spacing:0" font-size="129.23" y="-410.93" x="1067.43" font-family="&apos;Gentium Book Basic&apos;" line-height="125%">
  <tspan y="-410.93" x="1067.43"/>
 </text>
 <text style="text-anchor:middle" transform="scale(4.0128.2492)" font-size="46.954" y="-1998.16" x="463.08" font-family="Arial"/>
 <text style="word-spacing:0;letter-spacing:0" font-size="129.23" y="-883.33" x="678.31" font-family="&apos;Gentium Book Basic&apos;" line-height="125%">
  <tspan y="-883.33" x="678.31"/>
 </text>
 <text style="text-anchor:middle" transform="scale(4.0128.2492)" font-size="46.954" y="-3893.81" x="366.11" font-family="Arial"/>
 <text style="word-spacing:0;letter-spacing:0" font-size="129.23" y="-963.34" x="1259.57" font-family="&apos;Gentium Book Basic&apos;" line-height="125%">
  <tspan y="-963.34" x="1259.57"/>
 </text>
 <text style="text-anchor:middle" transform="scale(4.0128.2492)" font-size="46.954" y="-4214.85" x="510.96" font-family="Arial"/>
 <text style="word-spacing:0;letter-spacing:0" font-size="208.33" y="451.38" x="-573.23" font-family="&apos;Gentium Book Basic&apos;" line-height="125%">
  <tspan y="451.38" x="-573.23"/>
 </text>
 <path d="m26 0c-14.397 0-26 11.603-26 26v460c0 14.397 11.603 26 26 26h460c14.397 0 26-11.603 26-26v-460c0-14.397-11.603-26-26-26h-460" fill="#8255af"/>
 <text style="word-spacing:0;letter-spacing:0" font-size="129.23" y="146.8" x="-317.94" font-family="&apos;Gentium Book Basic&apos;" line-height="125%">
  <tspan y="146.8" x="-317.94"/>
 </text>
 <text style="text-anchor:middle" transform="scale(4.0128.2492)" font-size="46.954" y="239.93" x="117.85" font-family="Arial"/>
 <text style="word-spacing:0;letter-spacing:0" font-size="129.23" y="66.798" x="263.33" font-family="&apos;Gentium Book Basic&apos;" line-height="125%">
  <tspan y="66.798" x="263.33"/>
 </text>
 <text style="text-anchor:middle" transform="scale(4.0128.2492)" font-size="46.954" y="-81.11" x="262.7" font-family="Arial"/>
 <text style="word-spacing:0;letter-spacing:0" font-size="129.23" y="-114.46" x="-808.25" font-family="&apos;Gentium Book Basic&apos;" line-height="125%">
  <tspan y="-114.46" x="-808.25"/>
 </text>
 <text style="text-anchor:middle" transform="scale(4.0128.2492)" font-size="46.954" y="-808.46" x="-4.339" font-family="Arial"/>
 <text style="word-spacing:0;letter-spacing:0" font-size="129.23" y="-330.93" x="289.8" font-family="&apos;Gentium Book Basic&apos;" line-height="125%">
  <tspan y="-330.93" x="289.8"/>
 </text>
 <text style="text-anchor:middle" transform="scale(4.0128.2492)" font-size="46.954" y="-1677.13" x="269.3" font-family="Arial"/>
 <text style="word-spacing:0;letter-spacing:0" font-size="129.23" y="-410.93" x="871.07" font-family="&apos;Gentium Book Basic&apos;" line-height="125%">
  <tspan y="-410.93" x="871.07"/>
 </text>
 <text style="text-anchor:middle" transform="scale(4.0128.2492)" font-size="46.954" y="-1998.16" x="414.15" font-family="Arial"/>
 <text style="word-spacing:0;letter-spacing:0" font-size="129.23" y="-883.33" x="481.95" font-family="&apos;Gentium Book Basic&apos;" line-height="125%">
  <tspan y="-883.33" x="481.95"/>
 </text>
 <text style="text-anchor:middle" transform="scale(4.0128.2492)" font-size="46.954" y="-3893.81" x="317.18" font-family="Arial"/>
 <text style="word-spacing:0;letter-spacing:0" font-size="129.23" y="-963.34" x="1063.21" font-family="&apos;Gentium Book Basic&apos;" line-height="125%">
  <tspan y="-963.34" x="1063.21"/>
 </text>
 <text style="text-anchor:middle" transform="scale(4.0128.2492)" font-size="46.954" y="-4214.85" x="462.03" font-family="Arial"/>
 <text style="word-spacing:0;letter-spacing:0" font-size="208.33" y="451.38" x="-769.59" font-family="&apos;Gentium Book Basic&apos;" line-height="125%">
  <tspan y="451.38" x="-769.59"/>
 </text>
 <g>
  <path opacity=".25" d="m203.47 89.34c-89.78 0-162.53 74.62-162.53 166.66 0 46.771 18.793 89.04 49.06 119.31l136.69 136.69h259.31c14.397 0 26-11.603 26-26v-137.03l-40.938-40.938h-48.875l-218.69-218.69h-0.031"/>
  <path d="m203.47 89.34c-89.78 0-162.53 74.62-162.53 166.66s72.77 166.66 162.56 166.66h267.57v-31.28h-267.55c-72.947 0-132.09-60.6-132.09-135.37 0-74.78 59.15-135.44 132.09-135.44v-31.22h-0.031m0.031 41.656c-67.34 0-121.91 55.973-121.91 125 0 69.03 54.57 124.97 121.91 124.97h267.57v-31.25h-267.56c-50.5 0-91.47-41.944-91.47-93.72 0-51.775 40.957-93.78 91.47-93.78 12.271 0 23.937 2.539 34.625 7.03l11.563-28.969c-14.67-6.161-30.332-9.281-46.19-9.281m0 41.656c-44.89 0-81.25 37.33-81.25 83.34s36.35 83.31 81.25 83.31h267.56v-31.28h-267.57c-28.06 0-50.75-23.272-50.75-52.03 0-28.762 22.694-52.09 50.75-52.09 14.03 0 26.716 5.889 35.906 15.313l21.594-22.12c-15.244-15.626-35.939-24.438-57.5-24.438z" fill="#fff"/>
 </g>
</svg>
