<svg xmlns="http://www.w3.org/2000/svg" viewBox="0 0 512 512"><text x="-391.57" y="205.09" line-height="125%" style="letter-spacing:0;word-spacing:0;font-size:129.23;font-family:&apos;Gentium Book Basic&apos;"><tspan x="-391.57" y="205.09"/></text><text x="99.5" y="473.85" transform="scale(4.0128.2492)" style="font-size:46.954;font-family:Arial;text-anchor:middle"/><text x="189.7" y="125.09" line-height="125%" style="letter-spacing:0;word-spacing:0;font-size:129.23;font-family:&apos;Gentium Book Basic&apos;"><tspan x="189.7" y="125.09"/></text><text x="244.35" y="152.81" transform="scale(4.0128.2492)" style="font-size:46.954;font-family:Arial;text-anchor:middle"/><text x="-881.88" y="-56.17" line-height="125%" style="letter-spacing:0;word-spacing:0;font-size:129.23;font-family:&apos;Gentium Book Basic&apos;"><tspan x="-881.88" y="-56.17"/></text><text x="-22.689" y="-574.53" transform="scale(4.0128.2492)" style="font-size:46.954;font-family:Arial;text-anchor:middle"/><text x="216.17" y="-272.64" line-height="125%" style="letter-spacing:0;word-spacing:0;font-size:129.23;font-family:&apos;Gentium Book Basic&apos;"><tspan x="216.17" y="-272.64"/></text><text x="250.95" y="-1443.21" transform="scale(4.0128.2492)" style="font-size:46.954;font-family:Arial;text-anchor:middle"/><text x="797.44" y="-352.64" line-height="125%" style="letter-spacing:0;word-spacing:0;font-size:129.23;font-family:&apos;Gentium Book Basic&apos;"><tspan x="797.44" y="-352.64"/></text><text x="395.8" y="-1764.24" transform="scale(4.0128.2492)" style="font-size:46.954;font-family:Arial;text-anchor:middle"/><text x="408.32" y="-825.04" line-height="125%" style="letter-spacing:0;word-spacing:0;font-size:129.23;font-family:&apos;Gentium Book Basic&apos;"><tspan x="408.32" y="-825.04"/></text><text x="298.83" y="-3659.89" transform="scale(4.0128.2492)" style="font-size:46.954;font-family:Arial;text-anchor:middle"/><text x="989.58" y="-905.05" line-height="125%" style="letter-spacing:0;word-spacing:0;font-size:129.23;font-family:&apos;Gentium Book Basic&apos;"><tspan x="989.58" y="-905.05"/></text><text x="443.68" y="-3980.93" transform="scale(4.0128.2492)" style="font-size:46.954;font-family:Arial;text-anchor:middle"/><g line-height="125%" style="letter-spacing:0;word-spacing:0;font-family:&apos;Gentium Book Basic&apos;"><text x="-843.22" y="509.67" style="font-size:208.33"><tspan x="-843.22" y="509.67"/></text><text x="-182.94" y="100.78" style="font-size:129.23"><tspan x="-182.94" y="100.78"/></text></g><text x="151.49" y="55.25" transform="scale(4.0128.2492)" style="font-size:46.954;font-family:Arial;text-anchor:middle"/><text x="398.33" y="20.776" line-height="125%" style="letter-spacing:0;word-spacing:0;font-size:129.23;font-family:&apos;Gentium Book Basic&apos;"><tspan x="398.33" y="20.776"/></text><text x="296.34" y="-265.79" transform="scale(4.0128.2492)" style="font-size:46.954;font-family:Arial;text-anchor:middle"/><text x="-673.25" y="-160.48" line-height="125%" style="letter-spacing:0;word-spacing:0;font-size:129.23;font-family:&apos;Gentium Book Basic&apos;"><tspan x="-673.25" y="-160.48"/></text><text x="29.3" y="-993.14" transform="scale(4.0128.2492)" style="font-size:46.954;font-family:Arial;text-anchor:middle"/><text x="424.8" y="-376.95" line-height="125%" style="letter-spacing:0;word-spacing:0;font-size:129.23;font-family:&apos;Gentium Book Basic&apos;"><tspan x="424.8" y="-376.95"/></text><text x="302.94" y="-1861.81" transform="scale(4.0128.2492)" style="font-size:46.954;font-family:Arial;text-anchor:middle"/><text x="1006.07" y="-456.95" line-height="125%" style="letter-spacing:0;word-spacing:0;font-size:129.23;font-family:&apos;Gentium Book Basic&apos;"><tspan x="1006.07" y="-456.95"/></text><text x="447.79" y="-2182.84" transform="scale(4.0128.2492)" style="font-size:46.954;font-family:Arial;text-anchor:middle"/><text x="616.95" y="-929.35" line-height="125%" style="letter-spacing:0;word-spacing:0;font-size:129.23;font-family:&apos;Gentium Book Basic&apos;"><tspan x="616.95" y="-929.35"/></text><text x="350.82" y="-4078.49" transform="scale(4.0128.2492)" style="font-size:46.954;font-family:Arial;text-anchor:middle"/><text x="1198.21" y="-1009.36" line-height="125%" style="letter-spacing:0;word-spacing:0;font-size:129.23;font-family:&apos;Gentium Book Basic&apos;"><tspan x="1198.21" y="-1009.36"/></text><text x="495.67" y="-4399.53" transform="scale(4.0128.2492)" style="font-size:46.954;font-family:Arial;text-anchor:middle"/><g line-height="125%" style="letter-spacing:0;word-spacing:0;font-family:&apos;Gentium Book Basic&apos;"><text x="-634.59" y="405.36" style="font-size:208.33"><tspan x="-634.59" y="405.36"/></text><text x="-121.58" y="146.8" style="font-size:129.23"><tspan x="-121.58" y="146.8"/></text></g><text x="166.78" y="239.93" transform="scale(4.0128.2492)" style="font-size:46.954;font-family:Arial;text-anchor:middle"/><text x="459.69" y="66.798" line-height="125%" style="letter-spacing:0;word-spacing:0;font-size:129.23;font-family:&apos;Gentium Book Basic&apos;"><tspan x="459.69" y="66.798"/></text><text x="311.63" y="-81.11" transform="scale(4.0128.2492)" style="font-size:46.954;font-family:Arial;text-anchor:middle"/><text x="-611.89" y="-114.46" line-height="125%" style="letter-spacing:0;word-spacing:0;font-size:129.23;font-family:&apos;Gentium Book Basic&apos;"><tspan x="-611.89" y="-114.46"/></text><text x="44.595" y="-808.46" transform="scale(4.0128.2492)" style="font-size:46.954;font-family:Arial;text-anchor:middle"/><text x="486.16" y="-330.93" line-height="125%" style="letter-spacing:0;word-spacing:0;font-size:129.23;font-family:&apos;Gentium Book Basic&apos;"><tspan x="486.16" y="-330.93"/></text><text x="318.23" y="-1677.13" transform="scale(4.0128.2492)" style="font-size:46.954;font-family:Arial;text-anchor:middle"/><text x="1067.43" y="-410.93" line-height="125%" style="letter-spacing:0;word-spacing:0;font-size:129.23;font-family:&apos;Gentium Book Basic&apos;"><tspan x="1067.43" y="-410.93"/></text><text x="463.08" y="-1998.16" transform="scale(4.0128.2492)" style="font-size:46.954;font-family:Arial;text-anchor:middle"/><text x="678.31" y="-883.33" line-height="125%" style="letter-spacing:0;word-spacing:0;font-size:129.23;font-family:&apos;Gentium Book Basic&apos;"><tspan x="678.31" y="-883.33"/></text><text x="366.11" y="-3893.81" transform="scale(4.0128.2492)" style="font-size:46.954;font-family:Arial;text-anchor:middle"/><text x="1259.57" y="-963.34" line-height="125%" style="letter-spacing:0;word-spacing:0;font-size:129.23;font-family:&apos;Gentium Book Basic&apos;"><tspan x="1259.57" y="-963.34"/></text><text x="510.96" y="-4214.85" transform="scale(4.0128.2492)" style="font-size:46.954;font-family:Arial;text-anchor:middle"/><text x="-573.23" y="451.38" line-height="125%" style="letter-spacing:0;word-spacing:0;font-size:208.33;font-family:&apos;Gentium Book Basic&apos;"><tspan x="-573.23" y="451.38"/></text><path d="m26 0c-14.397 0-26 11.603-26 26v460c0 14.397 11.603 26 26 26h460c14.397 0 26-11.603 26-26v-460c0-14.397-11.603-26-26-26h-460" style="fill:#8255af"/><text x="-317.94" y="146.8" line-height="125%" style="letter-spacing:0;word-spacing:0;font-size:129.23;font-family:&apos;Gentium Book Basic&apos;"><tspan x="-317.94" y="146.8"/></text><text x="117.85" y="239.93" transform="scale(4.0128.2492)" style="font-size:46.954;font-family:Arial;text-anchor:middle"/><text x="263.33" y="66.798" line-height="125%" style="letter-spacing:0;word-spacing:0;font-size:129.23;font-family:&apos;Gentium Book Basic&apos;"><tspan x="263.33" y="66.798"/></text><text x="262.7" y="-81.11" transform="scale(4.0128.2492)" style="font-size:46.954;font-family:Arial;text-anchor:middle"/><text x="-808.25" y="-114.46" line-height="125%" style="letter-spacing:0;word-spacing:0;font-size:129.23;font-family:&apos;Gentium Book Basic&apos;"><tspan x="-808.25" y="-114.46"/></text><text x="-4.339" y="-808.46" transform="scale(4.0128.2492)" style="font-size:46.954;font-family:Arial;text-anchor:middle"/><text x="289.8" y="-330.93" line-height="125%" style="letter-spacing:0;word-spacing:0;font-size:129.23;font-family:&apos;Gentium Book Basic&apos;"><tspan x="289.8" y="-330.93"/></text><text x="269.3" y="-1677.13" transform="scale(4.0128.2492)" style="font-size:46.954;font-family:Arial;text-anchor:middle"/><text x="871.07" y="-410.93" line-height="125%" style="letter-spacing:0;word-spacing:0;font-size:129.23;font-family:&apos;Gentium Book Basic&apos;"><tspan x="871.07" y="-410.93"/></text><text x="414.15" y="-1998.16" transform="scale(4.0128.2492)" style="font-size:46.954;font-family:Arial;text-anchor:middle"/><text x="481.95" y="-883.33" line-height="125%" style="letter-spacing:0;word-spacing:0;font-size:129.23;font-family:&apos;Gentium Book Basic&apos;"><tspan x="481.95" y="-883.33"/></text><text x="317.18" y="-3893.81" transform="scale(4.0128.2492)" style="font-size:46.954;font-family:Arial;text-anchor:middle"/><text x="1063.21" y="-963.34" line-height="125%" style="letter-spacing:0;word-spacing:0;font-size:129.23;font-family:&apos;Gentium Book Basic&apos;"><tspan x="1063.21" y="-963.34"/></text><text x="462.03" y="-4214.85" transform="scale(4.0128.2492)" style="font-size:46.954;font-family:Arial;text-anchor:middle"/><text x="-769.59" y="451.38" line-height="125%" style="letter-spacing:0;word-spacing:0;font-size:208.33;font-family:&apos;Gentium Book Basic&apos;"><tspan x="-769.59" y="451.38"/></text><g style="color:#000"><path d="m203.47 89.34c-89.78 0-162.53 74.62-162.53 166.66 0 46.771 18.793 89.04 49.06 119.31l136.69 136.69h259.31c14.397 0 26-11.603 26-26v-137.03l-40.938-40.938h-48.875l-218.69-218.69h-.031" style="opacity:.25"/><path d="m203.47 89.34c-89.78 0-162.53 74.62-162.53 166.66 0 92.04 72.77 166.66 162.56 166.66h132.13.563 134.88v-31.28h-97.84-74.62-95.09c-72.947 0-132.09-60.6-132.09-135.37 0-74.78 59.15-135.44 132.09-135.44v-31.22h-.031m.031 41.656c-67.34 0-121.91 55.973-121.91 125 0 69.03 54.57 124.97 121.91 124.97h86.969 90.88 89.72v-31.25h-72.72-124.87-69.969c-50.5 0-91.47-41.944-91.47-93.72 0-51.775 40.957-93.78 91.47-93.78 12.271 0 23.937 2.539 34.625 7.03l11.563-28.969c-14.67-6.161-30.332-9.281-46.19-9.281m0 41.656c-44.89 0-81.25 37.33-81.25 83.34 0 46.01 36.35 83.31 81.25 83.31h66.31 132.22 69.03v-31.28h-207.41-60.16c-28.06 0-50.75-23.272-50.75-52.03 0-28.762 22.694-52.09 50.75-52.09 14.03 0 26.716 5.889 35.906 15.313l21.594-22.12c-15.244-15.626-35.939-24.438-57.5-24.438z" style="fill:#fff"/></g></svg>