<?xml version="1.0" encoding="UTF-8" standalone="no"?>
<!-- Created with Inkscape (http://www.inkscape.org/) -->
<svg id="svg2" xmlns:rdf="http://www.w3.org/1999/02/22-rdf-syntax-ns#" xmlns="http://www.w3.org/2000/svg" height="100%" width="100%" version="1.1" xmlns:cc="http://creativecommons.org/ns#" viewBox="0 0 512 512" xmlns:dc="http://purl.org/dc/elements/1.1/">
 <metadata id="metadata72">
  <rdf:RDF>
   <cc:Work rdf:about="">
    <dc:format>image/svg+xml</dc:format>
    <dc:type rdf:resource="http://purl.org/dc/dcmitype/StillImage"/>
   </cc:Work>
  </rdf:RDF>
 </metadata>
 <rect id="rect4" rx="25.988" height="512" width="512" y="0" x="0" fill="#cd1c30"/>
 <path id="path6" d="m324.47 49.688c-7.936 0.063-31.705 0.421-35.975 0.125h-85.59c-34.37 2.033-41.461 42.803-58.719 65.906-20.917 24.598-5.988 55.848 16.281 72.75 46.47 46.522 92.99 92.99 139.47 139.5-7.774 23.715 7.874 43.593-29.938 5.781-43.18-42.39-84.9-86.47-129-127.78-26.545-8.354-83.54-10.336-94.69 5 5.03 9.416 27.28 16.591 16.938 28.06-11.145 20.991-33.19 45.18-15.5 69.19 19.614 33.904 39.12 67.889 58.813 101.75 37.731 37.731 70.35 69.19 102.81 101.66 0.113 0.145 0.204 0.24 0.313 0.375h276.31c14.397 0 26-11.603 26-26v-289.09c-33.655-33.657-67.31-67.32-100.94-101-11.621 5.786 1.332 30.894-30.28-0.719-15.07-13.792-28.696-34.808-50.862-35.09-3.398-6.623 0.012 0.223-5.444-10.413" fill-opacity="0.235"/>
 <text id="text8" style="word-spacing:0;letter-spacing:0" font-size="129.23px" line-height="125%" y="195.89" x="197.50999" font-family="Gentium Book Basic">
  <tspan id="tspan10" y="195.89" x="197.50999"/>
 </text>
 <text id="text12" style="text-anchor:middle" transform="scale(4.0128 .2492)" font-size="46.954px" y="436.89999" x="246.3" font-family="Arial"/>
 <text id="text14" style="word-spacing:0;letter-spacing:0" font-size="129.23px" line-height="125%" y="115.89" x="778.78003" font-family="Gentium Book Basic">
  <tspan id="tspan16" y="115.89" x="778.78003"/>
 </text>
 <text id="text18" style="text-anchor:middle" transform="scale(4.0128 .2492)" font-size="46.954px" y="115.88" x="391.14999" font-family="Arial"/>
 <text id="text20" style="word-spacing:0;letter-spacing:0" font-size="129.23px" line-height="125%" y="-65.370003" x="-292.79999" font-family="Gentium Book Basic">
  <tspan id="tspan22" y="-65.370003" x="-292.79999"/>
 </text>
 <text id="text24" style="text-anchor:middle" transform="scale(4.0128 .2492)" font-size="46.954px" y="-611.47998" x="124.11" font-family="Arial"/>
 <text id="text26" style="word-spacing:0;letter-spacing:0" font-size="129.23px" line-height="125%" y="-281.84" x="805.25" font-family="Gentium Book Basic">
  <tspan id="tspan28" y="-281.84" x="805.25"/>
 </text>
 <text id="text30" style="text-anchor:middle" transform="scale(4.0128 .2492)" font-size="46.954px" y="-1480.15" x="397.75" font-family="Arial"/>
 <text id="text32" style="word-spacing:0;letter-spacing:0" font-size="129.23px" line-height="125%" y="-361.85001" x="1386.52" font-family="Gentium Book Basic">
  <tspan id="tspan34" y="-361.85001" x="1386.52"/>
 </text>
 <text id="text36" style="text-anchor:middle" transform="scale(4.0128 .2492)" font-size="46.954px" y="-1801.1801" x="542.59998" font-family="Arial"/>
 <text id="text38" style="word-spacing:0;letter-spacing:0" font-size="129.23px" line-height="125%" y="-834.25" x="997.40002" font-family="Gentium Book Basic">
  <tspan id="tspan40" y="-834.25" x="997.40002"/>
 </text>
 <text id="text42" style="text-anchor:middle" transform="scale(4.0128 .2492)" font-size="46.954px" y="-3696.8301" x="445.63" font-family="Arial"/>
 <text id="text44" style="word-spacing:0;letter-spacing:0" font-size="129.23px" line-height="125%" y="-914.25" x="1578.66" font-family="Gentium Book Basic">
  <tspan id="tspan46" y="-914.25" x="1578.66"/>
 </text>
 <text id="text48" style="text-anchor:middle" transform="scale(4.0128 .2492)" font-size="46.954px" y="-4017.8601" x="590.47998" font-family="Arial"/>
 <text id="text50" style="word-spacing:0;letter-spacing:0" font-size="208.33px" line-height="125%" y="500.47" x="-254.14" font-family="Gentium Book Basic">
  <tspan id="tspan52" y="500.47" x="-254.14"/>
 </text>
 <g id="g54" fill="#fff" transform="matrix(1.4767 0 0 1.4767 -27.523 -27.521)">
  <path id="path56" d="m336.08 227.3c-6.629 8.105-16.66 12.918-27.28 12.824 0 0-67.906 0-67.906 0.016l0.031-20.11c0.008-3.109-1.566-3.676-3.469-1.211-8.793 11.371-31.2 41.699-31.2 55.641 0 13.934 22.402 44.27 31.2 55.637 1.902 2.465 3.477 1.902 3.469-1.211l-0.031-20.03h34.609c8.348 0.059 16.473-4.227 20.938-11.957l40.02-69.35c1.555-2.699 1.59-2.664-0.383-0.254"/>
  <path id="path58" d="m294.77 84.28-17.355 10.06c0.012 0-8.684-15.184-12.156-21.2-4.914-8.449-13.949-13.77-23.719-13.742-9.785 0.012-18.836 5.371-23.637 13.883-0.02 0.016-7.98 13.723-15.984 27.672l16.15 27.973-17.563 9.84c-2.711 1.52-2.43 3.145 0.656 3.555 14.246 1.926 51.719 6.148 63.797-0.824 12.06-6.969 27.13-41.512 32.59-54.813 1.18-2.879-0.09-3.969-2.781-2.406"/>
  <path id="path60" d="m278.22 152.52-10.695 6.176c-13.48 7.781-18.1 25.02-10.309 38.492l20.594 35.668c16.09 0 31.945 0.008 31.961 0.008 9.801 0.074 18.918-5.164 23.828-13.621 4.879-8.461 4.836-18.996-0.129-27.426 0-0.012-7.621-13.199-16.746-28.996-7.789-13.477-25.03-18.09-38.504-10.301"/>
  <path id="path62" d="m49.602 224.97 40.04 69.35c1.555 2.699 1.508 2.699 0.402-0.211-3.691-9.781-2.855-20.887 2.531-30.05l33.961-58.809 17.398 10.09c2.695 1.563 3.969 0.48 2.785-2.398-5.449-13.301-20.52-47.867-32.586-54.832-12.08-6.965-49.555-2.734-63.797-0.809-3.09 0.418-3.387 2.066-0.688 3.613l17.402 9.988-17.324 29.98c-4.234 7.188-4.578 16.363-0.125 24.09"/>
  <path id="path64" d="m114.38 240.87c-8.02 13.93-15.965 27.672-15.977 27.695-4.953 8.418-5.01 18.926-0.105 27.402 4.891 8.48 14.02 13.711 23.793 13.637h33.492c15.566 0 28.19-12.617 28.19-28.18v-12.375c0-15.563-12.613-28.18-28.18-28.18"/>
  <path id="path66" d="m156.04 52.36c-8.926 0-16.453 5.03-20.789 12.13-3.992 6.473-13.781 23.445-22.17 38.08-7.738 13.504-3.043 30.781 10.434 38.566l10.922 6.301c13.48 7.781 30.703 3.156 38.48-10.328 13.887-24.06 33.754-58.49 38.926-67.39 5.332-9.184 14.09-15.27 24.273-16.91 3.078-0.496 3.102-0.445-0.016-0.445"/>
 </g>
</svg>
