<svg xmlns="http://www.w3.org/2000/svg" xmlns:svg="http://www.w3.org/2000/svg" id="svg2" version="1.1" viewBox="0 0 512 512"><metadata id="metadata250"/><path style="fill:#484043" id="path194" d="m 25.999,-0.0015 c -14.397,0 -26,11.603 -26,26 l 0,460 c 0,14.397 11.603,26 26,26 l 460,0 c 14.397,0 26,-11.603 26,-26 l 0,-460 c 0,-14.397 -11.603,-26 -26,-26 l -460,0"/><path style="opacity:.25" id="path242" d="m 116.309,65.4085 0,39.811 -39.781,-39.781 -35.529,0 0,17.75 17.75,17.75 0,17.781 -17.75,0 0,17.75 32.34,32.34 -32.34,0 0,71.029 32.35,32.35 -32.349,0 0,71.062 32.31,32.31 -32.309,0 0,17.75 17.75,17.75 0,17.75 -17.75,0 0,17.781 65.41,65.41 379.59,0 c 14.397,0 26,-11.603 26,-26 l 0,-361.78 -58.779,-58.779 -35.5,0 0,17.75 17.75,17.75 0,4.252 -39.781,-39.781 -53.279,0 0,39.911 -39.881,-39.881 -35.529,0 0,17.75 17.779,17.779 0,17.752 -4.309,0 -53.28,-53.28 -35.529,0 0,17.75 17.779,17.779 0,4.25 -39.809,-39.809 -35.531,0 35.531,35.531 0,0.01 -35.541,-35.541 -17.779,0"/><path style="fill:#fff" id="path244" d="m 116.309,65.4085 0,71.062 53.312,0 0,-71.06 -53.312,0 m 226.09,0 0,71.062 53.281,0 0,-71.06 -53.281,0 m -301.41,0.031 0,17.75 17.75,0 0,35.531 -17.75,0 0,17.75 53.281,0 0,-17.75 -17.75,0 0,-53.28 -35.531,0 m 150.66,0 0,17.75 17.781,0 0,35.531 -17.781,0 0,17.75 53.281,0 0,-17.75 -17.75,0 0,-53.28 -35.531,0 m 75.34,0 0,17.75 17.781,0 0,35.531 -17.781,0 0,17.75 53.281,0 0,-17.75 -17.75,0 0,-53.28 -35.531,0 m 150.72,0 0,17.75 17.75,0 0,35.531 -17.75,0 0,17.75 53.281,0 0,-17.75 -17.781,0 0,-53.28 -35.5,0 m -283.62,17.75 17.75,0 0,35.531 -17.75,0 0,-35.531 m 226.06,0 17.75,0 0,35.531 -17.75,0 0,-35.531 m -168.5,85.59 0,17.781 17.781,0 0,35.5 -17.781,0 0,17.75 53.281,0 0,-17.75 -17.75,0 0,-53.28 -35.531,0 m 226.06,0 0,17.781 17.75,0 0,35.5 -17.75,0 0,17.75 53.281,0 0,-17.75 -17.781,0 0,-53.28 -35.5,0 m -376.72,0.031 0,71.031 53.281,0 0,-71.03 -53.281,0 m 75.31,0 0,71.031 53.312,0 0,-71.03 -53.312,0 m 150.72,0 0,71.031 53.281,0 0,-71.03 -53.281,0 m 75.38,0 0,71.031 53.281,0 0,-71.03 -53.281,0 m -283.62,17.75 17.75,0 0,35.531 -17.75,0 0,-35.531 m 75.31,0 17.75,0 0,35.531 -17.75,0 0,-35.531 m 150.69,0 17.75,0 0,35.531 -17.75,0 0,-35.531 m 75.38,0 17.75,0 0,35.531 -17.75,0 0,-35.531 m -319.16,85.63 0,71.062 53.281,0 0,-71.061 -53.281,0 m 75.34,0 0,17.75 17.75,0 0,35.531 -17.75,0 0,17.75 53.281,0 0,-17.75 -17.781,0 0,-53.28 -35.5,0 m 75.31,0 0,71.062 53.281,0 0,-71.061 -53.281,0 m 75.38,0 0,71.062 53.281,0 0,-71.061 -53.281,0 m 75.34,0 0,17.75 17.75,0 0,35.531 -17.75,0 0,17.75 53.281,0 0,-17.75 -17.75,0 0,-53.28 -35.531,0 m 75.34,0 0,71.062 53.281,0 0,-71.061 -53.281,0 m -358.94,17.75 17.75,0 0,35.531 -17.75,0 0,-35.531 m 150.63,0 17.75,0 0,35.531 -17.75,0 0,-35.531 m 75.38,0 17.75,0 0,35.531 -17.75,0 0,-35.531 m 150.69,0 17.781,0 0,35.531 -17.781,0 0,-35.531 m -394.47,85.63 0,17.75 17.75,0 0,35.5 -17.75,0 0,17.781 53.281,0 0,-17.781 -17.75,0 0,-53.25 -35.531,0 m 75.31,0 0,71 53.312,0 0,-71 -53.312,0 m 75.34,0 0,17.75 17.781,0 0,35.5 -17.781,0 0,17.781 53.281,0 0,-17.781 -17.75,0 0,-53.25 -35.531,0 m 75.34,0 0,17.75 17.781,0 0,35.5 -17.781,0 0,17.781 53.281,0 0,-17.781 -17.75,0 0,-53.25 -35.531,0 m 75.41,0 0,71 53.281,0 0,-71 -53.281,0 m 75.31,0 0,17.75 17.75,0 0,35.5 -17.75,0 0,17.781 53.281,0 0,-17.781 -17.781,0 0,-53.25 -35.5,0 m -283.62,17.781 17.75,0 0,35.469 -17.75,0 0,-35.469 m 226.06,0 17.75,0 0,35.469 -17.75,0 0,-35.469"/></svg>