<svg xmlns="http://www.w3.org/2000/svg" viewBox="0 0 512 512"><text x="-391.57" y="205.09" line-height="125%" style="letter-spacing:0;word-spacing:0;font-size:129.23;font-family:&apos;Gentium Book Basic&apos;"><tspan x="-391.57" y="205.09"/></text><text x="99.5" y="473.85" transform="scale(4.0128.2492)" style="font-size:46.954;font-family:Arial;text-anchor:middle"/><text x="189.7" y="125.09" line-height="125%" style="letter-spacing:0;word-spacing:0;font-size:129.23;font-family:&apos;Gentium Book Basic&apos;"><tspan x="189.7" y="125.09"/></text><text x="244.35" y="152.81" transform="scale(4.0128.2492)" style="font-size:46.954;font-family:Arial;text-anchor:middle"/><text x="-881.88" y="-56.17" line-height="125%" style="letter-spacing:0;word-spacing:0;font-size:129.23;font-family:&apos;Gentium Book Basic&apos;"><tspan x="-881.88" y="-56.17"/></text><text x="-22.689" y="-574.53" transform="scale(4.0128.2492)" style="font-size:46.954;font-family:Arial;text-anchor:middle"/><text x="216.17" y="-272.64" line-height="125%" style="letter-spacing:0;word-spacing:0;font-size:129.23;font-family:&apos;Gentium Book Basic&apos;"><tspan x="216.17" y="-272.64"/></text><text x="250.95" y="-1443.21" transform="scale(4.0128.2492)" style="font-size:46.954;font-family:Arial;text-anchor:middle"/><text x="797.44" y="-352.64" line-height="125%" style="letter-spacing:0;word-spacing:0;font-size:129.23;font-family:&apos;Gentium Book Basic&apos;"><tspan x="797.44" y="-352.64"/></text><text x="395.8" y="-1764.24" transform="scale(4.0128.2492)" style="font-size:46.954;font-family:Arial;text-anchor:middle"/><text x="408.32" y="-825.04" line-height="125%" style="letter-spacing:0;word-spacing:0;font-size:129.23;font-family:&apos;Gentium Book Basic&apos;"><tspan x="408.32" y="-825.04"/></text><text x="298.83" y="-3659.89" transform="scale(4.0128.2492)" style="font-size:46.954;font-family:Arial;text-anchor:middle"/><text x="989.58" y="-905.05" line-height="125%" style="letter-spacing:0;word-spacing:0;font-size:129.23;font-family:&apos;Gentium Book Basic&apos;"><tspan x="989.58" y="-905.05"/></text><text x="443.68" y="-3980.93" transform="scale(4.0128.2492)" style="font-size:46.954;font-family:Arial;text-anchor:middle"/><g line-height="125%" style="letter-spacing:0;word-spacing:0;font-family:&apos;Gentium Book Basic&apos;"><text x="-843.22" y="509.67" style="font-size:208.33"><tspan x="-843.22" y="509.67"/></text><text x="-182.94" y="100.78" style="font-size:129.23"><tspan x="-182.94" y="100.78"/></text></g><text x="151.49" y="55.25" transform="scale(4.0128.2492)" style="font-size:46.954;font-family:Arial;text-anchor:middle"/><text x="398.33" y="20.776" line-height="125%" style="letter-spacing:0;word-spacing:0;font-size:129.23;font-family:&apos;Gentium Book Basic&apos;"><tspan x="398.33" y="20.776"/></text><text x="296.34" y="-265.79" transform="scale(4.0128.2492)" style="font-size:46.954;font-family:Arial;text-anchor:middle"/><text x="-673.25" y="-160.48" line-height="125%" style="letter-spacing:0;word-spacing:0;font-size:129.23;font-family:&apos;Gentium Book Basic&apos;"><tspan x="-673.25" y="-160.48"/></text><text x="29.3" y="-993.14" transform="scale(4.0128.2492)" style="font-size:46.954;font-family:Arial;text-anchor:middle"/><text x="424.8" y="-376.95" line-height="125%" style="letter-spacing:0;word-spacing:0;font-size:129.23;font-family:&apos;Gentium Book Basic&apos;"><tspan x="424.8" y="-376.95"/></text><text x="302.94" y="-1861.81" transform="scale(4.0128.2492)" style="font-size:46.954;font-family:Arial;text-anchor:middle"/><text x="1006.07" y="-456.95" line-height="125%" style="letter-spacing:0;word-spacing:0;font-size:129.23;font-family:&apos;Gentium Book Basic&apos;"><tspan x="1006.07" y="-456.95"/></text><text x="447.79" y="-2182.84" transform="scale(4.0128.2492)" style="font-size:46.954;font-family:Arial;text-anchor:middle"/><text x="616.95" y="-929.35" line-height="125%" style="letter-spacing:0;word-spacing:0;font-size:129.23;font-family:&apos;Gentium Book Basic&apos;"><tspan x="616.95" y="-929.35"/></text><text x="350.82" y="-4078.49" transform="scale(4.0128.2492)" style="font-size:46.954;font-family:Arial;text-anchor:middle"/><text x="1198.21" y="-1009.36" line-height="125%" style="letter-spacing:0;word-spacing:0;font-size:129.23;font-family:&apos;Gentium Book Basic&apos;"><tspan x="1198.21" y="-1009.36"/></text><text x="495.67" y="-4399.53" transform="scale(4.0128.2492)" style="font-size:46.954;font-family:Arial;text-anchor:middle"/><g line-height="125%" style="letter-spacing:0;word-spacing:0;font-family:&apos;Gentium Book Basic&apos;"><text x="-634.59" y="405.36" style="font-size:208.33"><tspan x="-634.59" y="405.36"/></text><text x="-121.58" y="146.8" style="font-size:129.23"><tspan x="-121.58" y="146.8"/></text></g><text x="166.78" y="239.93" transform="scale(4.0128.2492)" style="font-size:46.954;font-family:Arial;text-anchor:middle"/><text x="459.69" y="66.798" line-height="125%" style="letter-spacing:0;word-spacing:0;font-size:129.23;font-family:&apos;Gentium Book Basic&apos;"><tspan x="459.69" y="66.798"/></text><text x="311.63" y="-81.11" transform="scale(4.0128.2492)" style="font-size:46.954;font-family:Arial;text-anchor:middle"/><text x="-611.89" y="-114.46" line-height="125%" style="letter-spacing:0;word-spacing:0;font-size:129.23;font-family:&apos;Gentium Book Basic&apos;"><tspan x="-611.89" y="-114.46"/></text><text x="44.595" y="-808.46" transform="scale(4.0128.2492)" style="font-size:46.954;font-family:Arial;text-anchor:middle"/><text x="486.16" y="-330.93" line-height="125%" style="letter-spacing:0;word-spacing:0;font-size:129.23;font-family:&apos;Gentium Book Basic&apos;"><tspan x="486.16" y="-330.93"/></text><text x="318.23" y="-1677.13" transform="scale(4.0128.2492)" style="font-size:46.954;font-family:Arial;text-anchor:middle"/><text x="1067.43" y="-410.93" line-height="125%" style="letter-spacing:0;word-spacing:0;font-size:129.23;font-family:&apos;Gentium Book Basic&apos;"><tspan x="1067.43" y="-410.93"/></text><text x="463.08" y="-1998.16" transform="scale(4.0128.2492)" style="font-size:46.954;font-family:Arial;text-anchor:middle"/><text x="678.31" y="-883.33" line-height="125%" style="letter-spacing:0;word-spacing:0;font-size:129.23;font-family:&apos;Gentium Book Basic&apos;"><tspan x="678.31" y="-883.33"/></text><text x="366.11" y="-3893.81" transform="scale(4.0128.2492)" style="font-size:46.954;font-family:Arial;text-anchor:middle"/><text x="1259.57" y="-963.34" line-height="125%" style="letter-spacing:0;word-spacing:0;font-size:129.23;font-family:&apos;Gentium Book Basic&apos;"><tspan x="1259.57" y="-963.34"/></text><text x="510.96" y="-4214.85" transform="scale(4.0128.2492)" style="font-size:46.954;font-family:Arial;text-anchor:middle"/><g line-height="125%" style="letter-spacing:0;word-spacing:0;font-family:&apos;Gentium Book Basic&apos;"><text x="-573.23" y="451.38" style="font-size:208.33"><tspan x="-573.23" y="451.38"/></text><text x="-317.94" y="146.8" style="font-size:129.23"><tspan x="-317.94" y="146.8"/></text></g><text x="117.85" y="239.93" transform="scale(4.0128.2492)" style="font-size:46.954;font-family:Arial;text-anchor:middle"/><text x="263.33" y="66.798" line-height="125%" style="letter-spacing:0;word-spacing:0;font-size:129.23;font-family:&apos;Gentium Book Basic&apos;"><tspan x="263.33" y="66.798"/></text><text x="262.7" y="-81.11" transform="scale(4.0128.2492)" style="font-size:46.954;font-family:Arial;text-anchor:middle"/><text x="-808.25" y="-114.46" line-height="125%" style="letter-spacing:0;word-spacing:0;font-size:129.23;font-family:&apos;Gentium Book Basic&apos;"><tspan x="-808.25" y="-114.46"/></text><text x="-4.339" y="-808.46" transform="scale(4.0128.2492)" style="font-size:46.954;font-family:Arial;text-anchor:middle"/><text x="289.8" y="-330.93" line-height="125%" style="letter-spacing:0;word-spacing:0;font-size:129.23;font-family:&apos;Gentium Book Basic&apos;"><tspan x="289.8" y="-330.93"/></text><text x="269.3" y="-1677.13" transform="scale(4.0128.2492)" style="font-size:46.954;font-family:Arial;text-anchor:middle"/><text x="871.07" y="-410.93" line-height="125%" style="letter-spacing:0;word-spacing:0;font-size:129.23;font-family:&apos;Gentium Book Basic&apos;"><tspan x="871.07" y="-410.93"/></text><text x="414.15" y="-1998.16" transform="scale(4.0128.2492)" style="font-size:46.954;font-family:Arial;text-anchor:middle"/><text x="481.95" y="-883.33" line-height="125%" style="letter-spacing:0;word-spacing:0;font-size:129.23;font-family:&apos;Gentium Book Basic&apos;"><tspan x="481.95" y="-883.33"/></text><text x="317.18" y="-3893.81" transform="scale(4.0128.2492)" style="font-size:46.954;font-family:Arial;text-anchor:middle"/><text x="1063.21" y="-963.34" line-height="125%" style="letter-spacing:0;word-spacing:0;font-size:129.23;font-family:&apos;Gentium Book Basic&apos;"><tspan x="1063.21" y="-963.34"/></text><text x="462.03" y="-4214.85" transform="scale(4.0128.2492)" style="font-size:46.954;font-family:Arial;text-anchor:middle"/><text x="-769.59" y="451.38" line-height="125%" style="letter-spacing:0;word-spacing:0;font-size:208.33;font-family:&apos;Gentium Book Basic&apos;"><tspan x="-769.59" y="451.38"/></text><path d="m26 0c-14.397 0-26 11.603-26 26v460c0 14.397 11.603 26 26 26h460c14.397 0 26-11.603 26-26v-460c0-14.397-11.603-26-26-26h-460" style="fill:#484043"/><text x="46.25" y="142.67" line-height="125%" style="letter-spacing:0;word-spacing:0;font-size:129.23;font-family:&apos;Gentium Book Basic&apos;"><tspan x="46.25" y="142.67"/></text><text x="208.61" y="223.35" transform="scale(4.0128.2492)" style="font-size:46.954;font-family:Arial;text-anchor:middle"/><text x="627.52" y="62.67" line-height="125%" style="letter-spacing:0;word-spacing:0;font-size:129.23;font-family:&apos;Gentium Book Basic&apos;"><tspan x="627.52" y="62.67"/></text><text x="353.46" y="-97.69" transform="scale(4.0128.2492)" style="font-size:46.954;font-family:Arial;text-anchor:middle"/><text x="-444.06" y="-118.59" line-height="125%" style="letter-spacing:0;word-spacing:0;font-size:129.23;font-family:&apos;Gentium Book Basic&apos;"><tspan x="-444.06" y="-118.59"/></text><text x="86.42" y="-825.03" transform="scale(4.0128.2492)" style="font-size:46.954;font-family:Arial;text-anchor:middle"/><text x="653.99" y="-335.06" line-height="125%" style="letter-spacing:0;word-spacing:0;font-size:129.23;font-family:&apos;Gentium Book Basic&apos;"><tspan x="653.99" y="-335.06"/></text><text x="360.06" y="-1693.7" transform="scale(4.0128.2492)" style="font-size:46.954;font-family:Arial;text-anchor:middle"/><text x="1235.26" y="-415.06" line-height="125%" style="letter-spacing:0;word-spacing:0;font-size:129.23;font-family:&apos;Gentium Book Basic&apos;"><tspan x="1235.26" y="-415.06"/></text><text x="504.9" y="-2014.73" transform="scale(4.0128.2492)" style="font-size:46.954;font-family:Arial;text-anchor:middle"/><text x="846.14" y="-887.46" line-height="125%" style="letter-spacing:0;word-spacing:0;font-size:129.23;font-family:&apos;Gentium Book Basic&apos;"><tspan x="846.14" y="-887.46"/></text><text x="407.94" y="-3910.37" transform="scale(4.0128.2492)" style="font-size:46.954;font-family:Arial;text-anchor:middle"/><text x="1427.4" y="-967.47" line-height="125%" style="letter-spacing:0;word-spacing:0;font-size:129.23;font-family:&apos;Gentium Book Basic&apos;"><tspan x="1427.4" y="-967.47"/></text><text x="552.78" y="-4231.41" transform="scale(4.0128.2492)" style="font-size:46.954;font-family:Arial;text-anchor:middle"/><text x="-405.4" y="447.25" line-height="125%" style="letter-spacing:0;word-spacing:0;font-size:208.33;font-family:&apos;Gentium Book Basic&apos;"><tspan x="-405.4" y="447.25"/></text><path d="m116.31 65.41v.002 17.779 22.03l-39.781-39.781h-17.779-.002-17.748v17.75l17.75 17.75v17.781h-17.75v17.75l32.34 32.34h-14.559-.002-17.779v17.75 35.531 17.748l32.35 32.35h-14.568-.002-17.779v17.75 35.531 17.781l32.31 32.31h-14.559-.002-17.748v17.75l17.75 17.75v17.75h-17.75v17.781l65.41 65.41h379.59c14.397 0 26-11.603 26-26v-361.78l-58.779-58.779h-17.75-17.75v17.75l17.75 17.75v4.252l-39.781-39.781h-35.529-.002-17.748v17.781 22.13l-39.881-39.881h-17.75-17.779v.002 17.748l17.779 17.779v17.752h-4.309l-53.28-53.28h-17.75-17.779v.002 17.748l17.779 17.779v4.25l-39.809-39.809h-35.531l35.531 35.531v.01l-35.541-35.541h-17.779" style="opacity:.25"/><path d="m116.31 65.41v17.781 35.531 17.75h17.781 35.531v-17.75-53.31h-35.531-17.781m226.09 0v17.781 35.531 17.75h17.75 35.531v-17.75-53.31h-35.531-17.75m-301.41.031v17.75h17.75v35.531h-17.75v17.75h17.75 17.781 17.75v-17.75h-17.75v-53.28h-17.781-17.75m150.66 0v17.75h17.781v35.531h-17.781v17.75h17.781 17.75 17.75v-17.75h-17.75v-53.28h-17.75-17.781m75.34 0v17.75h17.781v35.531h-17.781v17.75h17.781 17.75 17.75v-17.75h-17.75v-53.28h-17.75-17.781m150.72 0v17.75h17.75v35.531h-17.75v17.75h17.75 17.75 17.781v-17.75h-17.781v-53.28h-17.75-17.75m-283.62 17.75h17.75v35.531h-17.75v-35.531m226.06 0h17.75v35.531h-17.75v-35.531m-168.5 85.59v17.781h17.781v35.5h-17.781v17.75h17.781 17.75 17.75v-17.75h-17.75v-53.28h-17.75-17.781m226.06 0v17.781h17.75v35.5h-17.75v17.75h17.75 17.75 17.781v-17.75h-17.781v-53.28h-17.75-17.75m-376.72.031v17.75 35.531 17.75h17.781 35.5v-17.75-53.28h-35.5-17.781m75.31 0v17.75 35.531 17.75h17.781 35.531v-17.75-53.28h-35.531-17.781m150.72 0v17.75 35.531 17.75h17.75 35.531v-17.75-53.28h-35.531-17.75m75.38 0v17.75 35.531 17.75h17.75 35.531v-17.75-53.28h-35.531-17.75m-283.62 17.75h17.75v35.531h-17.75v-35.531m75.31 0h17.75v35.531h-17.75v-35.531m150.69 0h17.75v35.531h-17.75v-35.531m75.38 0h17.75v35.531h-17.75v-35.531m-319.16 85.63v17.75 35.531 17.781h17.781 35.5v-17.781-53.28h-35.5-17.781m75.34 0v17.75h17.75v35.531h-17.75v17.75h17.75 17.75 17.781v-17.75h-17.781v-53.28h-17.75-17.75m75.31 0v17.75 35.531 17.781h17.75 35.531v-17.781-53.28h-35.531-17.75m75.38 0v17.75 35.531 17.781h17.75 35.531v-17.781-53.28h-35.531-17.75m75.34 0v17.75h17.75v35.531h-17.75v17.75h17.75 17.781 17.75v-17.75h-17.75v-53.28h-17.781-17.75m75.34 0v17.75 35.531 17.781h17.75 35.531v-17.781-53.28h-35.531-17.75m-358.94 17.75h17.75v35.531h-17.75v-35.531m150.63 0h17.75v35.531h-17.75v-35.531m75.38 0h17.75v35.531h-17.75v-35.531m150.69 0h17.781v35.531h-17.781v-35.531m-394.47 85.63v17.75h17.75v35.5h-17.75v17.781h17.75 17.781 17.75v-17.781h-17.75v-53.25h-17.781-17.75m75.31 0v17.781 35.469 17.75h17.781 35.531v-17.75-53.25h-35.531-17.781m75.34 0v17.75h17.781v35.5h-17.781v17.781h17.781 17.75 17.75v-17.781h-17.75v-53.25h-17.75-17.781m75.34 0v17.75h17.781v35.5h-17.781v17.781h17.781 17.75 17.75v-17.781h-17.75v-53.25h-17.75-17.781m75.41 0v17.781 35.469 17.75h17.75 35.531v-17.75-53.25h-35.531-17.75m75.31 0v17.75h17.75v35.5h-17.75v17.781h17.75 17.75 17.781v-17.781h-17.781v-53.25h-17.75-17.75m-283.62 17.781h17.75v35.469h-17.75v-35.469m226.06 0h17.75v35.469h-17.75v-35.469" style="fill:#fff"/></svg>