<?xml version="1.0" encoding="UTF-8" standalone="no"?>
<svg xmlns="http://www.w3.org/2000/svg" viewBox="0 0 512 512">
 <text style="word-spacing:0;letter-spacing:0" font-size="129.23" y="205.09" x="-391.57" font-family="&apos;Gentium Book Basic&apos;" line-height="125%">
  <tspan y="205.09" x="-391.57"/>
 </text>
 <text style="text-anchor:middle" transform="scale(4.0128.2492)" font-size="46.954" y="473.85" x="99.5" font-family="Arial"/>
 <text style="word-spacing:0;letter-spacing:0" font-size="129.23" y="125.09" x="189.7" font-family="&apos;Gentium Book Basic&apos;" line-height="125%">
  <tspan y="125.09" x="189.7"/>
 </text>
 <text style="text-anchor:middle" transform="scale(4.0128.2492)" font-size="46.954" y="152.81" x="244.35" font-family="Arial"/>
 <text style="word-spacing:0;letter-spacing:0" font-size="129.23" y="-56.17" x="-881.88" font-family="&apos;Gentium Book Basic&apos;" line-height="125%">
  <tspan y="-56.17" x="-881.88"/>
 </text>
 <text style="text-anchor:middle" transform="scale(4.0128.2492)" font-size="46.954" y="-574.53" x="-22.689" font-family="Arial"/>
 <text style="word-spacing:0;letter-spacing:0" font-size="129.23" y="-272.64" x="216.17" font-family="&apos;Gentium Book Basic&apos;" line-height="125%">
  <tspan y="-272.64" x="216.17"/>
 </text>
 <text style="text-anchor:middle" transform="scale(4.0128.2492)" font-size="46.954" y="-1443.21" x="250.95" font-family="Arial"/>
 <text style="word-spacing:0;letter-spacing:0" font-size="129.23" y="-352.64" x="797.44" font-family="&apos;Gentium Book Basic&apos;" line-height="125%">
  <tspan y="-352.64" x="797.44"/>
 </text>
 <text style="text-anchor:middle" transform="scale(4.0128.2492)" font-size="46.954" y="-1764.24" x="395.8" font-family="Arial"/>
 <text style="word-spacing:0;letter-spacing:0" font-size="129.23" y="-825.04" x="408.32" font-family="&apos;Gentium Book Basic&apos;" line-height="125%">
  <tspan y="-825.04" x="408.32"/>
 </text>
 <text style="text-anchor:middle" transform="scale(4.0128.2492)" font-size="46.954" y="-3659.89" x="298.83" font-family="Arial"/>
 <text style="word-spacing:0;letter-spacing:0" font-size="129.23" y="-905.05" x="989.58" font-family="&apos;Gentium Book Basic&apos;" line-height="125%">
  <tspan y="-905.05" x="989.58"/>
 </text>
 <text style="text-anchor:middle" transform="scale(4.0128.2492)" font-size="46.954" y="-3980.93" x="443.68" font-family="Arial"/>
 <g style="word-spacing:0;letter-spacing:0" font-family="&apos;Gentium Book Basic&apos;" line-height="125%">
  <text y="509.67" x="-843.22" font-size="208.33">
   <tspan y="509.67" x="-843.22"/>
  </text>
  <text y="100.78" x="-182.94" font-size="129.23">
   <tspan y="100.78" x="-182.94"/>
  </text>
 </g>
 <text style="text-anchor:middle" transform="scale(4.0128.2492)" font-size="46.954" y="55.25" x="151.49" font-family="Arial"/>
 <text style="word-spacing:0;letter-spacing:0" font-size="129.23" y="20.776" x="398.33" font-family="&apos;Gentium Book Basic&apos;" line-height="125%">
  <tspan y="20.776" x="398.33"/>
 </text>
 <text style="text-anchor:middle" transform="scale(4.0128.2492)" font-size="46.954" y="-265.79" x="296.34" font-family="Arial"/>
 <text style="word-spacing:0;letter-spacing:0" font-size="129.23" y="-160.48" x="-673.25" font-family="&apos;Gentium Book Basic&apos;" line-height="125%">
  <tspan y="-160.48" x="-673.25"/>
 </text>
 <text style="text-anchor:middle" transform="scale(4.0128.2492)" font-size="46.954" y="-993.14" x="29.3" font-family="Arial"/>
 <text style="word-spacing:0;letter-spacing:0" font-size="129.23" y="-376.95" x="424.8" font-family="&apos;Gentium Book Basic&apos;" line-height="125%">
  <tspan y="-376.95" x="424.8"/>
 </text>
 <text style="text-anchor:middle" transform="scale(4.0128.2492)" font-size="46.954" y="-1861.81" x="302.94" font-family="Arial"/>
 <text style="word-spacing:0;letter-spacing:0" font-size="129.23" y="-456.95" x="1006.07" font-family="&apos;Gentium Book Basic&apos;" line-height="125%">
  <tspan y="-456.95" x="1006.07"/>
 </text>
 <text style="text-anchor:middle" transform="scale(4.0128.2492)" font-size="46.954" y="-2182.84" x="447.79" font-family="Arial"/>
 <text style="word-spacing:0;letter-spacing:0" font-size="129.23" y="-929.35" x="616.95" font-family="&apos;Gentium Book Basic&apos;" line-height="125%">
  <tspan y="-929.35" x="616.95"/>
 </text>
 <text style="text-anchor:middle" transform="scale(4.0128.2492)" font-size="46.954" y="-4078.49" x="350.82" font-family="Arial"/>
 <text style="word-spacing:0;letter-spacing:0" font-size="129.23" y="-1009.36" x="1198.21" font-family="&apos;Gentium Book Basic&apos;" line-height="125%">
  <tspan y="-1009.36" x="1198.21"/>
 </text>
 <text style="text-anchor:middle" transform="scale(4.0128.2492)" font-size="46.954" y="-4399.53" x="495.67" font-family="Arial"/>
 <g style="word-spacing:0;letter-spacing:0" font-family="&apos;Gentium Book Basic&apos;" line-height="125%">
  <text y="405.36" x="-634.59" font-size="208.33">
   <tspan y="405.36" x="-634.59"/>
  </text>
  <text y="146.8" x="-121.58" font-size="129.23">
   <tspan y="146.8" x="-121.58"/>
  </text>
 </g>
 <text style="text-anchor:middle" transform="scale(4.0128.2492)" font-size="46.954" y="239.93" x="166.78" font-family="Arial"/>
 <text style="word-spacing:0;letter-spacing:0" font-size="129.23" y="66.798" x="459.69" font-family="&apos;Gentium Book Basic&apos;" line-height="125%">
  <tspan y="66.798" x="459.69"/>
 </text>
 <text style="text-anchor:middle" transform="scale(4.0128.2492)" font-size="46.954" y="-81.11" x="311.63" font-family="Arial"/>
 <text style="word-spacing:0;letter-spacing:0" font-size="129.23" y="-114.46" x="-611.89" font-family="&apos;Gentium Book Basic&apos;" line-height="125%">
  <tspan y="-114.46" x="-611.89"/>
 </text>
 <text style="text-anchor:middle" transform="scale(4.0128.2492)" font-size="46.954" y="-808.46" x="44.595" font-family="Arial"/>
 <text style="word-spacing:0;letter-spacing:0" font-size="129.23" y="-330.93" x="486.16" font-family="&apos;Gentium Book Basic&apos;" line-height="125%">
  <tspan y="-330.93" x="486.16"/>
 </text>
 <text style="text-anchor:middle" transform="scale(4.0128.2492)" font-size="46.954" y="-1677.13" x="318.23" font-family="Arial"/>
 <text style="word-spacing:0;letter-spacing:0" font-size="129.23" y="-410.93" x="1067.43" font-family="&apos;Gentium Book Basic&apos;" line-height="125%">
  <tspan y="-410.93" x="1067.43"/>
 </text>
 <text style="text-anchor:middle" transform="scale(4.0128.2492)" font-size="46.954" y="-1998.16" x="463.08" font-family="Arial"/>
 <text style="word-spacing:0;letter-spacing:0" font-size="129.23" y="-883.33" x="678.31" font-family="&apos;Gentium Book Basic&apos;" line-height="125%">
  <tspan y="-883.33" x="678.31"/>
 </text>
 <text style="text-anchor:middle" transform="scale(4.0128.2492)" font-size="46.954" y="-3893.81" x="366.11" font-family="Arial"/>
 <text style="word-spacing:0;letter-spacing:0" font-size="129.23" y="-963.34" x="1259.57" font-family="&apos;Gentium Book Basic&apos;" line-height="125%">
  <tspan y="-963.34" x="1259.57"/>
 </text>
 <text style="text-anchor:middle" transform="scale(4.0128.2492)" font-size="46.954" y="-4214.85" x="510.96" font-family="Arial"/>
 <g style="word-spacing:0;letter-spacing:0" font-family="&apos;Gentium Book Basic&apos;" line-height="125%">
  <text y="451.38" x="-573.23" font-size="208.33">
   <tspan y="451.38" x="-573.23"/>
  </text>
  <text y="146.8" x="-317.94" font-size="129.23">
   <tspan y="146.8" x="-317.94"/>
  </text>
 </g>
 <text style="text-anchor:middle" transform="scale(4.0128.2492)" font-size="46.954" y="239.93" x="117.85" font-family="Arial"/>
 <text style="word-spacing:0;letter-spacing:0" font-size="129.23" y="66.798" x="263.33" font-family="&apos;Gentium Book Basic&apos;" line-height="125%">
  <tspan y="66.798" x="263.33"/>
 </text>
 <text style="text-anchor:middle" transform="scale(4.0128.2492)" font-size="46.954" y="-81.11" x="262.7" font-family="Arial"/>
 <text style="word-spacing:0;letter-spacing:0" font-size="129.23" y="-114.46" x="-808.25" font-family="&apos;Gentium Book Basic&apos;" line-height="125%">
  <tspan y="-114.46" x="-808.25"/>
 </text>
 <text style="text-anchor:middle" transform="scale(4.0128.2492)" font-size="46.954" y="-808.46" x="-4.339" font-family="Arial"/>
 <text style="word-spacing:0;letter-spacing:0" font-size="129.23" y="-330.93" x="289.8" font-family="&apos;Gentium Book Basic&apos;" line-height="125%">
  <tspan y="-330.93" x="289.8"/>
 </text>
 <text style="text-anchor:middle" transform="scale(4.0128.2492)" font-size="46.954" y="-1677.13" x="269.3" font-family="Arial"/>
 <text style="word-spacing:0;letter-spacing:0" font-size="129.23" y="-410.93" x="871.07" font-family="&apos;Gentium Book Basic&apos;" line-height="125%">
  <tspan y="-410.93" x="871.07"/>
 </text>
 <text style="text-anchor:middle" transform="scale(4.0128.2492)" font-size="46.954" y="-1998.16" x="414.15" font-family="Arial"/>
 <text style="word-spacing:0;letter-spacing:0" font-size="129.23" y="-883.33" x="481.95" font-family="&apos;Gentium Book Basic&apos;" line-height="125%">
  <tspan y="-883.33" x="481.95"/>
 </text>
 <text style="text-anchor:middle" transform="scale(4.0128.2492)" font-size="46.954" y="-3893.81" x="317.18" font-family="Arial"/>
 <text style="word-spacing:0;letter-spacing:0" font-size="129.23" y="-963.34" x="1063.21" font-family="&apos;Gentium Book Basic&apos;" line-height="125%">
  <tspan y="-963.34" x="1063.21"/>
 </text>
 <text style="text-anchor:middle" transform="scale(4.0128.2492)" font-size="46.954" y="-4214.85" x="462.03" font-family="Arial"/>
 <text style="word-spacing:0;letter-spacing:0" font-size="208.33" y="451.38" x="-769.59" font-family="&apos;Gentium Book Basic&apos;" line-height="125%">
  <tspan y="451.38" x="-769.59"/>
 </text>
 <path d="m26 0c-14.397 0-26 11.603-26 26v460c0 14.397 11.603 26 26 26h460c14.397 0 26-11.603 26-26v-460c0-14.397-11.603-26-26-26h-460" fill="#484043"/>
 <text style="word-spacing:0;letter-spacing:0" font-size="129.23" y="142.67" x="46.25" font-family="&apos;Gentium Book Basic&apos;" line-height="125%">
  <tspan y="142.67" x="46.25"/>
 </text>
 <text style="text-anchor:middle" transform="scale(4.0128.2492)" font-size="46.954" y="223.35" x="208.61" font-family="Arial"/>
 <text style="word-spacing:0;letter-spacing:0" font-size="129.23" y="62.67" x="627.52" font-family="&apos;Gentium Book Basic&apos;" line-height="125%">
  <tspan y="62.67" x="627.52"/>
 </text>
 <text style="text-anchor:middle" transform="scale(4.0128.2492)" font-size="46.954" y="-97.69" x="353.46" font-family="Arial"/>
 <text style="word-spacing:0;letter-spacing:0" font-size="129.23" y="-118.59" x="-444.06" font-family="&apos;Gentium Book Basic&apos;" line-height="125%">
  <tspan y="-118.59" x="-444.06"/>
 </text>
 <text style="text-anchor:middle" transform="scale(4.0128.2492)" font-size="46.954" y="-825.03" x="86.42" font-family="Arial"/>
 <text style="word-spacing:0;letter-spacing:0" font-size="129.23" y="-335.06" x="653.99" font-family="&apos;Gentium Book Basic&apos;" line-height="125%">
  <tspan y="-335.06" x="653.99"/>
 </text>
 <text style="text-anchor:middle" transform="scale(4.0128.2492)" font-size="46.954" y="-1693.7" x="360.06" font-family="Arial"/>
 <text style="word-spacing:0;letter-spacing:0" font-size="129.23" y="-415.06" x="1235.26" font-family="&apos;Gentium Book Basic&apos;" line-height="125%">
  <tspan y="-415.06" x="1235.26"/>
 </text>
 <text style="text-anchor:middle" transform="scale(4.0128.2492)" font-size="46.954" y="-2014.73" x="504.9" font-family="Arial"/>
 <text style="word-spacing:0;letter-spacing:0" font-size="129.23" y="-887.46" x="846.14" font-family="&apos;Gentium Book Basic&apos;" line-height="125%">
  <tspan y="-887.46" x="846.14"/>
 </text>
 <text style="text-anchor:middle" transform="scale(4.0128.2492)" font-size="46.954" y="-3910.37" x="407.94" font-family="Arial"/>
 <text style="word-spacing:0;letter-spacing:0" font-size="129.23" y="-967.47" x="1427.4" font-family="&apos;Gentium Book Basic&apos;" line-height="125%">
  <tspan y="-967.47" x="1427.4"/>
 </text>
 <text style="text-anchor:middle" transform="scale(4.0128.2492)" font-size="46.954" y="-4231.41" x="552.78" font-family="Arial"/>
 <text style="word-spacing:0;letter-spacing:0" font-size="208.33" y="447.25" x="-405.4" font-family="&apos;Gentium Book Basic&apos;" line-height="125%">
  <tspan y="447.25" x="-405.4"/>
 </text>
 <path opacity=".25" d="m116.31 65.41v39.811l-39.781-39.781h-35.529v17.75l17.75 17.75v17.781h-17.75v17.75l32.34 32.34h-32.34v71.029l32.35 32.35h-32.349v71.062l32.31 32.31h-32.309v17.75l17.75 17.75v17.75h-17.75v17.781l65.41 65.41h379.59c14.397 0 26-11.603 26-26v-361.78l-58.779-58.779h-35.5v17.75l17.75 17.75v4.252l-39.781-39.781h-53.279v39.911l-39.881-39.881h-35.529v17.75l17.779 17.779v17.752h-4.309l-53.28-53.28h-35.529v17.75l17.779 17.779v4.25l-39.809-39.809h-35.531l35.531 35.531v0.01l-35.541-35.541h-17.779"/>
 <path d="m116.31 65.41v71.062h53.312v-71.06h-53.312m226.09 0v71.062h53.281v-71.06h-53.281m-301.41 0.031v17.75h17.75v35.531h-17.75v17.75h53.281v-17.75h-17.75v-53.28h-35.531m150.66 0v17.75h17.781v35.531h-17.781v17.75h53.281v-17.75h-17.75v-53.28h-35.531m75.34 0v17.75h17.781v35.531h-17.781v17.75h53.281v-17.75h-17.75v-53.28h-35.531m150.72 0v17.75h17.75v35.531h-17.75v17.75h53.281v-17.75h-17.781v-53.28h-35.5m-283.62 17.75h17.75v35.531h-17.75v-35.531m226.06 0h17.75v35.531h-17.75v-35.531m-168.5 85.59v17.781h17.781v35.5h-17.781v17.75h53.281v-17.75h-17.75v-53.28h-35.531m226.06 0v17.781h17.75v35.5h-17.75v17.75h53.281v-17.75h-17.781v-53.28h-35.5m-376.72 0.031v71.031h53.281v-71.03h-53.281m75.31 0v71.031h53.312v-71.03h-53.312m150.72 0v71.031h53.281v-71.03h-53.281m75.38 0v71.031h53.281v-71.03h-53.281m-283.62 17.75h17.75v35.531h-17.75v-35.531m75.31 0h17.75v35.531h-17.75v-35.531m150.69 0h17.75v35.531h-17.75v-35.531m75.38 0h17.75v35.531h-17.75v-35.531m-319.16 85.63v71.062h53.281v-71.061h-53.281m75.34 0v17.75h17.75v35.531h-17.75v17.75h53.281v-17.75h-17.781v-53.28h-35.5m75.31 0v71.062h53.281v-71.061h-53.281m75.38 0v71.062h53.281v-71.061h-53.281m75.34 0v17.75h17.75v35.531h-17.75v17.75h53.281v-17.75h-17.75v-53.28h-35.531m75.34 0v71.062h53.281v-71.061h-53.281m-358.94 17.75h17.75v35.531h-17.75v-35.531m150.63 0h17.75v35.531h-17.75v-35.531m75.38 0h17.75v35.531h-17.75v-35.531m150.69 0h17.781v35.531h-17.781v-35.531m-394.47 85.63v17.75h17.75v35.5h-17.75v17.781h53.281v-17.781h-17.75v-53.25h-35.531m75.31 0v71h53.312v-71h-53.312m75.34 0v17.75h17.781v35.5h-17.781v17.781h53.281v-17.781h-17.75v-53.25h-35.531m75.34 0v17.75h17.781v35.5h-17.781v17.781h53.281v-17.781h-17.75v-53.25h-35.531m75.41 0v71h53.281v-71h-53.281m75.31 0v17.75h17.75v35.5h-17.75v17.781h53.281v-17.781h-17.781v-53.25h-35.5m-283.62 17.781h17.75v35.469h-17.75v-35.469m226.06 0h17.75v35.469h-17.75v-35.469" fill="#fff"/>
</svg>
