<?xml version="1.0" encoding="UTF-8" standalone="no"?>
<!-- Created with Inkscape (http://www.inkscape.org/) -->
<svg id="svg2" xmlns:rdf="http://www.w3.org/1999/02/22-rdf-syntax-ns#" xmlns="http://www.w3.org/2000/svg" height="100%" width="100%" version="1.1" xmlns:cc="http://creativecommons.org/ns#" viewBox="0 0 512 512" xmlns:dc="http://purl.org/dc/elements/1.1/">
 <metadata id="metadata62">
  <rdf:RDF>
   <cc:Work rdf:about="">
    <dc:format>image/svg+xml</dc:format>
    <dc:type rdf:resource="http://purl.org/dc/dcmitype/StillImage"/>
   </cc:Work>
  </rdf:RDF>
 </metadata>
 <rect id="rect4" rx="25.988" height="512" width="512" y="0" x="0" fill="#0078ad"/>
 <text id="text6" style="word-spacing:0;letter-spacing:0" font-size="129.23px" line-height="125%" y="146.8" x="146.88" font-family="Gentium Book Basic">
  <tspan id="tspan8" y="146.8" x="146.88"/>
 </text>
 <text id="text10" style="text-anchor:middle" transform="scale(4.0128 .2492)" font-size="46.954px" y="239.92999" x="233.67999" font-family="Arial"/>
 <text id="text12" style="word-spacing:0;letter-spacing:0" font-size="129.23px" line-height="125%" y="66.797997" x="728.15002" font-family="Gentium Book Basic">
  <tspan id="tspan14" y="66.797997" x="728.15002"/>
 </text>
 <text id="text16" style="text-anchor:middle" transform="scale(4.0128 .2492)" font-size="46.954px" y="-81.110001" x="378.53" font-family="Arial"/>
 <text id="text18" style="word-spacing:0;letter-spacing:0" font-size="129.23px" line-height="125%" y="-114.46" x="-343.42999" font-family="Gentium Book Basic">
  <tspan id="tspan20" y="-114.46" x="-343.42999"/>
 </text>
 <text id="text22" style="text-anchor:middle" transform="scale(4.0128 .2492)" font-size="46.954px" y="-808.46002" x="111.5" font-family="Arial"/>
 <text id="text24" style="word-spacing:0;letter-spacing:0" font-size="129.23px" line-height="125%" y="-330.92999" x="754.62" font-family="Gentium Book Basic">
  <tspan id="tspan26" y="-330.92999" x="754.62"/>
 </text>
 <text id="text28" style="text-anchor:middle" transform="scale(4.0128 .2492)" font-size="46.954px" y="-1677.13" x="385.13" font-family="Arial"/>
 <text id="text30" style="word-spacing:0;letter-spacing:0" font-size="129.23px" line-height="125%" y="-410.92999" x="1335.89" font-family="Gentium Book Basic">
  <tspan id="tspan32" y="-410.92999" x="1335.89"/>
 </text>
 <text id="text34" style="text-anchor:middle" transform="scale(4.0128 .2492)" font-size="46.954px" y="-1998.16" x="529.97998" font-family="Arial"/>
 <text id="text36" style="word-spacing:0;letter-spacing:0" font-size="129.23px" line-height="125%" y="-883.33002" x="946.77002" font-family="Gentium Book Basic">
  <tspan id="tspan38" y="-883.33002" x="946.77002"/>
 </text>
 <text id="text40" style="text-anchor:middle" transform="scale(4.0128 .2492)" font-size="46.954px" y="-3893.8101" x="433.01001" font-family="Arial"/>
 <text id="text42" style="word-spacing:0;letter-spacing:0" font-size="129.23px" line-height="125%" y="-963.34003" x="1528.03" font-family="Gentium Book Basic">
  <tspan id="tspan44" y="-963.34003" x="1528.03"/>
 </text>
 <text id="text46" style="text-anchor:middle" transform="scale(4.0128 .2492)" font-size="46.954px" y="-4214.8501" x="577.85999" font-family="Arial"/>
 <text id="text48" style="word-spacing:0;letter-spacing:0" font-size="208.33px" line-height="125%" y="451.38" x="-304.76999" font-family="Gentium Book Basic">
  <tspan id="tspan50" y="451.38" x="-304.76999"/>
 </text>
 <rect id="rect52" rx="22.896" height="451.07" width="451.07" y="30.463" x="30.463" fill="#18465d"/>
 <path id="path54" d="m275.13 57.969c-15.182 0.083-30.29 0.392-45.03 0.063-58.63 0-117.25 0.001-175.87 0 0.708 10.74-1.456 24.352 1.156 33.19 4.501 2.739 6.927 7.552 11.438 10.281 2.983 3.881 6.293 7.436 10.281 10.313 2.773 4.477 7.557 6.943 10.313 11.438 4.5 2.739 6.926 7.553 11.438 10.281 4.648 3.769 7.529 9.304 5.906 19.344v269.06h-50.53c0.708 10.74-1.456 24.352 1.156 33.19 4.501 2.739 6.927 7.552 11.438 10.281 2.983 3.881 6.293 7.436 10.281 10.313 2.773 4.477 7.557 6.943 10.313 11.438 4.5 2.739 6.926 7.553 11.438 10.281 2.741 4.52 7.561 6.96 10.313 11.469 1.416 0.862 2.615 1.951 3.75 3.094h373.09c14.397 0 26-11.603 26-26v-291.5c-35.683-35.768-71.41-71.47-107.47-106.84-37.767-28.05-83.86-29.936-129.41-29.688" fill-opacity="0.235"/>
 <path id="path56" d="m433.88 155.79c0-32.587-11.948-57.03-36.39-73.32-24.44-16.294-60.29-24.437-108.62-24.437h-234.63v32.05h50.51v331.85h-50.51v32.05h219.96c62.998 0 109.17-9.229 139.04-27.701 29.871-18.472 44.541-47.79 44.541-86.9 0-28.785-10.862-52.14-32.05-69.52-21.18-17.38-51.596-28.24-91.24-32.05 54.856-5.975 99.39-27.16 99.39-82.01m-192.26 67.35h-34.76v-133.06h34.76c55.4 0 89.61 14.12 89.61 65.71 0 50.51-35.3 67.35-89.61 67.35m102.64 116.23c0 60.29-36.39 82.55-99.39 82.55h-38.02v-166.74h38.02c62.46 0 99.39 23.897 99.39 84.19" fill="#fff"/>
</svg>
