<svg xmlns="http://www.w3.org/2000/svg" viewBox="0 0 512 512"><text x="-391.57" y="205.09" line-height="125%" style="letter-spacing:0;word-spacing:0;font-size:129.23;font-family:&apos;Gentium Book Basic&apos;"><tspan x="-391.57" y="205.09"/></text><text x="99.5" y="473.85" transform="scale(4.0128.2492)" style="font-size:46.954;font-family:Arial;text-anchor:middle"/><text x="189.7" y="125.09" line-height="125%" style="letter-spacing:0;word-spacing:0;font-size:129.23;font-family:&apos;Gentium Book Basic&apos;"><tspan x="189.7" y="125.09"/></text><text x="244.35" y="152.81" transform="scale(4.0128.2492)" style="font-size:46.954;font-family:Arial;text-anchor:middle"/><text x="-881.88" y="-56.17" line-height="125%" style="letter-spacing:0;word-spacing:0;font-size:129.23;font-family:&apos;Gentium Book Basic&apos;"><tspan x="-881.88" y="-56.17"/></text><text x="-22.689" y="-574.53" transform="scale(4.0128.2492)" style="font-size:46.954;font-family:Arial;text-anchor:middle"/><text x="216.17" y="-272.64" line-height="125%" style="letter-spacing:0;word-spacing:0;font-size:129.23;font-family:&apos;Gentium Book Basic&apos;"><tspan x="216.17" y="-272.64"/></text><text x="250.95" y="-1443.21" transform="scale(4.0128.2492)" style="font-size:46.954;font-family:Arial;text-anchor:middle"/><text x="797.44" y="-352.64" line-height="125%" style="letter-spacing:0;word-spacing:0;font-size:129.23;font-family:&apos;Gentium Book Basic&apos;"><tspan x="797.44" y="-352.64"/></text><text x="395.8" y="-1764.24" transform="scale(4.0128.2492)" style="font-size:46.954;font-family:Arial;text-anchor:middle"/><text x="408.32" y="-825.04" line-height="125%" style="letter-spacing:0;word-spacing:0;font-size:129.23;font-family:&apos;Gentium Book Basic&apos;"><tspan x="408.32" y="-825.04"/></text><text x="298.83" y="-3659.89" transform="scale(4.0128.2492)" style="font-size:46.954;font-family:Arial;text-anchor:middle"/><text x="989.58" y="-905.05" line-height="125%" style="letter-spacing:0;word-spacing:0;font-size:129.23;font-family:&apos;Gentium Book Basic&apos;"><tspan x="989.58" y="-905.05"/></text><text x="443.68" y="-3980.93" transform="scale(4.0128.2492)" style="font-size:46.954;font-family:Arial;text-anchor:middle"/><g line-height="125%" style="letter-spacing:0;word-spacing:0;font-family:&apos;Gentium Book Basic&apos;"><text x="-843.22" y="509.67" style="font-size:208.33"><tspan x="-843.22" y="509.67"/></text><text x="-182.94" y="100.78" style="font-size:129.23"><tspan x="-182.94" y="100.78"/></text></g><text x="151.49" y="55.25" transform="scale(4.0128.2492)" style="font-size:46.954;font-family:Arial;text-anchor:middle"/><text x="398.33" y="20.776" line-height="125%" style="letter-spacing:0;word-spacing:0;font-size:129.23;font-family:&apos;Gentium Book Basic&apos;"><tspan x="398.33" y="20.776"/></text><text x="296.34" y="-265.79" transform="scale(4.0128.2492)" style="font-size:46.954;font-family:Arial;text-anchor:middle"/><text x="-673.25" y="-160.48" line-height="125%" style="letter-spacing:0;word-spacing:0;font-size:129.23;font-family:&apos;Gentium Book Basic&apos;"><tspan x="-673.25" y="-160.48"/></text><text x="29.3" y="-993.14" transform="scale(4.0128.2492)" style="font-size:46.954;font-family:Arial;text-anchor:middle"/><text x="424.8" y="-376.95" line-height="125%" style="letter-spacing:0;word-spacing:0;font-size:129.23;font-family:&apos;Gentium Book Basic&apos;"><tspan x="424.8" y="-376.95"/></text><text x="302.94" y="-1861.81" transform="scale(4.0128.2492)" style="font-size:46.954;font-family:Arial;text-anchor:middle"/><text x="1006.07" y="-456.95" line-height="125%" style="letter-spacing:0;word-spacing:0;font-size:129.23;font-family:&apos;Gentium Book Basic&apos;"><tspan x="1006.07" y="-456.95"/></text><text x="447.79" y="-2182.84" transform="scale(4.0128.2492)" style="font-size:46.954;font-family:Arial;text-anchor:middle"/><text x="616.95" y="-929.35" line-height="125%" style="letter-spacing:0;word-spacing:0;font-size:129.23;font-family:&apos;Gentium Book Basic&apos;"><tspan x="616.95" y="-929.35"/></text><text x="350.82" y="-4078.49" transform="scale(4.0128.2492)" style="font-size:46.954;font-family:Arial;text-anchor:middle"/><text x="1198.21" y="-1009.36" line-height="125%" style="letter-spacing:0;word-spacing:0;font-size:129.23;font-family:&apos;Gentium Book Basic&apos;"><tspan x="1198.21" y="-1009.36"/></text><text x="495.67" y="-4399.53" transform="scale(4.0128.2492)" style="font-size:46.954;font-family:Arial;text-anchor:middle"/><g line-height="125%" style="letter-spacing:0;word-spacing:0;font-family:&apos;Gentium Book Basic&apos;"><text x="-634.59" y="405.36" style="font-size:208.33"><tspan x="-634.59" y="405.36"/></text><text x="-121.58" y="146.8" style="font-size:129.23"><tspan x="-121.58" y="146.8"/></text></g><text x="166.78" y="239.93" transform="scale(4.0128.2492)" style="font-size:46.954;font-family:Arial;text-anchor:middle"/><text x="459.69" y="66.798" line-height="125%" style="letter-spacing:0;word-spacing:0;font-size:129.23;font-family:&apos;Gentium Book Basic&apos;"><tspan x="459.69" y="66.798"/></text><text x="311.63" y="-81.11" transform="scale(4.0128.2492)" style="font-size:46.954;font-family:Arial;text-anchor:middle"/><text x="-611.89" y="-114.46" line-height="125%" style="letter-spacing:0;word-spacing:0;font-size:129.23;font-family:&apos;Gentium Book Basic&apos;"><tspan x="-611.89" y="-114.46"/></text><text x="44.595" y="-808.46" transform="scale(4.0128.2492)" style="font-size:46.954;font-family:Arial;text-anchor:middle"/><text x="486.16" y="-330.93" line-height="125%" style="letter-spacing:0;word-spacing:0;font-size:129.23;font-family:&apos;Gentium Book Basic&apos;"><tspan x="486.16" y="-330.93"/></text><text x="318.23" y="-1677.13" transform="scale(4.0128.2492)" style="font-size:46.954;font-family:Arial;text-anchor:middle"/><text x="1067.43" y="-410.93" line-height="125%" style="letter-spacing:0;word-spacing:0;font-size:129.23;font-family:&apos;Gentium Book Basic&apos;"><tspan x="1067.43" y="-410.93"/></text><text x="463.08" y="-1998.16" transform="scale(4.0128.2492)" style="font-size:46.954;font-family:Arial;text-anchor:middle"/><text x="678.31" y="-883.33" line-height="125%" style="letter-spacing:0;word-spacing:0;font-size:129.23;font-family:&apos;Gentium Book Basic&apos;"><tspan x="678.31" y="-883.33"/></text><text x="366.11" y="-3893.81" transform="scale(4.0128.2492)" style="font-size:46.954;font-family:Arial;text-anchor:middle"/><text x="1259.57" y="-963.34" line-height="125%" style="letter-spacing:0;word-spacing:0;font-size:129.23;font-family:&apos;Gentium Book Basic&apos;"><tspan x="1259.57" y="-963.34"/></text><text x="510.96" y="-4214.85" transform="scale(4.0128.2492)" style="font-size:46.954;font-family:Arial;text-anchor:middle"/><g line-height="125%" style="letter-spacing:0;word-spacing:0;font-family:&apos;Gentium Book Basic&apos;"><text x="-573.23" y="451.38" style="font-size:208.33"><tspan x="-573.23" y="451.38"/></text><text x="-317.94" y="146.8" style="font-size:129.23"><tspan x="-317.94" y="146.8"/></text></g><text x="117.85" y="239.93" transform="scale(4.0128.2492)" style="font-size:46.954;font-family:Arial;text-anchor:middle"/><text x="263.33" y="66.798" line-height="125%" style="letter-spacing:0;word-spacing:0;font-size:129.23;font-family:&apos;Gentium Book Basic&apos;"><tspan x="263.33" y="66.798"/></text><text x="262.7" y="-81.11" transform="scale(4.0128.2492)" style="font-size:46.954;font-family:Arial;text-anchor:middle"/><text x="-808.25" y="-114.46" line-height="125%" style="letter-spacing:0;word-spacing:0;font-size:129.23;font-family:&apos;Gentium Book Basic&apos;"><tspan x="-808.25" y="-114.46"/></text><text x="-4.339" y="-808.46" transform="scale(4.0128.2492)" style="font-size:46.954;font-family:Arial;text-anchor:middle"/><text x="289.8" y="-330.93" line-height="125%" style="letter-spacing:0;word-spacing:0;font-size:129.23;font-family:&apos;Gentium Book Basic&apos;"><tspan x="289.8" y="-330.93"/></text><text x="269.3" y="-1677.13" transform="scale(4.0128.2492)" style="font-size:46.954;font-family:Arial;text-anchor:middle"/><text x="871.07" y="-410.93" line-height="125%" style="letter-spacing:0;word-spacing:0;font-size:129.23;font-family:&apos;Gentium Book Basic&apos;"><tspan x="871.07" y="-410.93"/></text><text x="414.15" y="-1998.16" transform="scale(4.0128.2492)" style="font-size:46.954;font-family:Arial;text-anchor:middle"/><text x="481.95" y="-883.33" line-height="125%" style="letter-spacing:0;word-spacing:0;font-size:129.23;font-family:&apos;Gentium Book Basic&apos;"><tspan x="481.95" y="-883.33"/></text><text x="317.18" y="-3893.81" transform="scale(4.0128.2492)" style="font-size:46.954;font-family:Arial;text-anchor:middle"/><text x="1063.21" y="-963.34" line-height="125%" style="letter-spacing:0;word-spacing:0;font-size:129.23;font-family:&apos;Gentium Book Basic&apos;"><tspan x="1063.21" y="-963.34"/></text><text x="462.03" y="-4214.85" transform="scale(4.0128.2492)" style="font-size:46.954;font-family:Arial;text-anchor:middle"/><g line-height="125%" style="letter-spacing:0;word-spacing:0;font-family:&apos;Gentium Book Basic&apos;"><text x="-769.59" y="451.38" style="font-size:208.33"><tspan x="-769.59" y="451.38"/></text><text x="46.25" y="142.67" style="font-size:129.23"><tspan x="46.25" y="142.67"/></text></g><text x="208.61" y="223.35" transform="scale(4.0128.2492)" style="font-size:46.954;font-family:Arial;text-anchor:middle"/><text x="627.52" y="62.67" line-height="125%" style="letter-spacing:0;word-spacing:0;font-size:129.23;font-family:&apos;Gentium Book Basic&apos;"><tspan x="627.52" y="62.67"/></text><text x="353.46" y="-97.69" transform="scale(4.0128.2492)" style="font-size:46.954;font-family:Arial;text-anchor:middle"/><text x="-444.06" y="-118.59" line-height="125%" style="letter-spacing:0;word-spacing:0;font-size:129.23;font-family:&apos;Gentium Book Basic&apos;"><tspan x="-444.06" y="-118.59"/></text><text x="86.42" y="-825.03" transform="scale(4.0128.2492)" style="font-size:46.954;font-family:Arial;text-anchor:middle"/><text x="653.99" y="-335.06" line-height="125%" style="letter-spacing:0;word-spacing:0;font-size:129.23;font-family:&apos;Gentium Book Basic&apos;"><tspan x="653.99" y="-335.06"/></text><text x="360.06" y="-1693.7" transform="scale(4.0128.2492)" style="font-size:46.954;font-family:Arial;text-anchor:middle"/><text x="1235.26" y="-415.06" line-height="125%" style="letter-spacing:0;word-spacing:0;font-size:129.23;font-family:&apos;Gentium Book Basic&apos;"><tspan x="1235.26" y="-415.06"/></text><text x="504.9" y="-2014.73" transform="scale(4.0128.2492)" style="font-size:46.954;font-family:Arial;text-anchor:middle"/><text x="846.14" y="-887.46" line-height="125%" style="letter-spacing:0;word-spacing:0;font-size:129.23;font-family:&apos;Gentium Book Basic&apos;"><tspan x="846.14" y="-887.46"/></text><text x="407.94" y="-3910.37" transform="scale(4.0128.2492)" style="font-size:46.954;font-family:Arial;text-anchor:middle"/><text x="1427.4" y="-967.47" line-height="125%" style="letter-spacing:0;word-spacing:0;font-size:129.23;font-family:&apos;Gentium Book Basic&apos;"><tspan x="1427.4" y="-967.47"/></text><text x="552.78" y="-4231.41" transform="scale(4.0128.2492)" style="font-size:46.954;font-family:Arial;text-anchor:middle"/><text x="-405.4" y="447.25" line-height="125%" style="letter-spacing:0;word-spacing:0;font-size:208.33;font-family:&apos;Gentium Book Basic&apos;"><tspan x="-405.4" y="447.25"/></text><path d="m26 0c-14.397 0-26 11.603-26 26v460c0 14.397 11.603 26 26 26h460c14.397 0 26-11.603 26-26v-460c0-14.397-11.603-26-26-26h-460" style="fill:#f59631"/><text x="-339.41" y="106.91" line-height="125%" style="letter-spacing:0;word-spacing:0;font-size:129.23;font-family:&apos;Gentium Book Basic&apos;"><tspan x="-339.41" y="106.91"/></text><text x="112.5" y="79.873" transform="scale(4.0128.2492)" style="font-size:46.954;font-family:Arial;text-anchor:middle"/><text x="241.86" y="26.913" line-height="125%" style="letter-spacing:0;word-spacing:0;font-size:129.23;font-family:&apos;Gentium Book Basic&apos;"><tspan x="241.86" y="26.913"/></text><text x="257.35" y="-241.17" transform="scale(4.0128.2492)" style="font-size:46.954;font-family:Arial;text-anchor:middle"/><text x="-829.72" y="-154.35" line-height="125%" style="letter-spacing:0;word-spacing:0;font-size:129.23;font-family:&apos;Gentium Book Basic&apos;"><tspan x="-829.72" y="-154.35"/></text><text x="-9.691" y="-968.51" transform="scale(4.0128.2492)" style="font-size:46.954;font-family:Arial;text-anchor:middle"/><text x="268.33" y="-370.82" line-height="125%" style="letter-spacing:0;word-spacing:0;font-size:129.23;font-family:&apos;Gentium Book Basic&apos;"><tspan x="268.33" y="-370.82"/></text><text x="263.95" y="-1837.19" transform="scale(4.0128.2492)" style="font-size:46.954;font-family:Arial;text-anchor:middle"/><text x="849.6" y="-450.82" line-height="125%" style="letter-spacing:0;word-spacing:0;font-size:129.23;font-family:&apos;Gentium Book Basic&apos;"><tspan x="849.6" y="-450.82"/></text><text x="408.8" y="-2158.22" transform="scale(4.0128.2492)" style="font-size:46.954;font-family:Arial;text-anchor:middle"/><text x="460.48" y="-923.22" line-height="125%" style="letter-spacing:0;word-spacing:0;font-size:129.23;font-family:&apos;Gentium Book Basic&apos;"><tspan x="460.48" y="-923.22"/></text><text x="311.83" y="-4053.87" transform="scale(4.0128.2492)" style="font-size:46.954;font-family:Arial;text-anchor:middle"/><text x="1041.74" y="-1003.23" line-height="125%" style="letter-spacing:0;word-spacing:0;font-size:129.23;font-family:&apos;Gentium Book Basic&apos;"><tspan x="1041.74" y="-1003.23"/></text><text x="456.68" y="-4374.9" transform="scale(4.0128.2492)" style="font-size:46.954;font-family:Arial;text-anchor:middle"/><text x="-791.06" y="411.49" line-height="125%" style="letter-spacing:0;word-spacing:0;font-size:208.33;font-family:&apos;Gentium Book Basic&apos;"><tspan x="-791.06" y="411.49"/></text><path d="m239.52 41c-7.907-.005-17.195.06-28.26.154-54.886.478-54.892.48-67.66 3.92-26 7.01-53.43 25.1-70.3 44.887-18.615 21.831-32.3 46.686-32.3 76.46v153.06c1.439 56.42 18.18 93.18 41.36 116.35l76.17 76.17h327.47c14.397 0 26-11.603 26-26v-246.26l-159.24-159.24c-15.206-15.206-34.17-26.808-55.99-33.648-13.508-4.234-21.661-5.617-49.783-5.824l150.03 150.03c.003.005.005.011.008.016l-150.04-150.04c-2.344-.019-4.825-.029-7.461-.031" style="opacity:.25"/><path d="m246.98 41.03c-9.374-.077-20.97-.002-35.717.123-54.886.478-54.892.48-67.66 3.92-26 7.01-53.43 25.1-70.3 44.886-18.615 21.831-32.3 46.687-32.3 76.46 0 14.15 0 99.53 0 153.06 2.95 115.69 70.25 148.68 125.4 151.52 11.744 0 161.23 0 179.15 0 68.52-5.521 123.65-69.38 125.4-115.34v-63.828c.178-53.08.163-71.44-5.829-78.57-6.312-7.501-11.07-11-30-11.01-18.58-.006-25.18.837-31.29-3.774-7.715-5.822-9.723-10.893-10.917-27.539-4.249-59.27-41.1-106.83-96.15-124.09-13.508-4.234-21.661-5.617-49.783-5.824zm-69.825 107.45h78.82c15.88 0 28.663 12.788 28.663 28.673 0 15.885-12.784 25.09-28.664 25.09h-78.82c-15.88 0-28.663-9.209-28.663-25.09 0-15.885 12.784-28.673 28.663-28.673m0 161.27h157.65c15.88 0 28.664 9.222 28.664 25.11 0 15.885-12.784 28.673-28.664 28.673h-157.65c-15.88 0-28.663-12.788-28.663-28.673 0-15.885 12.784-25.11 28.663-25.11" style="fill:#fff"/></svg>