<svg xmlns="http://www.w3.org/2000/svg" xmlns:svg="http://www.w3.org/2000/svg" id="svg2" width="100%" height="100%" version="1.1" viewBox="0 0 512 512"><metadata id="metadata62"/><rect style="fill:#0078ad" id="rect4" width="512" height="512" x="-.005" y="-.002" rx="25.988"/><rect style="fill:#18465d" id="rect52" width="451.07" height="451.07" x="30.457" y="30.46" rx="22.896"/><path style="fill-opacity:.23500001" id="path54" d="m 275.1245,57.9665 c -15.182,0.083 -30.29,0.392 -45.03,0.063 -58.63,0 -117.25,0.001 -175.87,0 0.708,10.74 -1.456,24.352 1.156,33.19 4.501,2.739 6.927,7.552 11.438,10.281 2.983,3.881 6.293,7.436 10.281,10.313 2.773,4.477 7.557,6.943 10.313,11.438 4.5,2.739 6.926,7.553 11.438,10.281 4.648,3.769 7.529,9.304 5.906,19.344 l 0,269.06 -50.53,0 c 0.708,10.74 -1.456,24.352 1.156,33.19 4.501,2.739 6.927,7.552 11.438,10.281 2.983,3.881 6.293,7.436 10.281,10.313 2.773,4.477 7.557,6.943 10.313,11.438 4.5,2.739 6.926,7.553 11.438,10.281 2.741,4.52 7.561,6.96 10.313,11.469 1.416,0.862 2.615,1.951 3.75,3.094 l 373.09,0 c 14.397,0 26,-11.603 26,-26 l 0,-291.5 c -35.683,-35.768 -71.41,-71.47 -107.47,-106.84 -37.767,-28.05 -83.86,-29.936 -129.41,-29.688"/><path style="fill:#fff" id="path56" d="m 433.8745,155.7875 c 0,-32.587 -11.948,-57.03 -36.39,-73.32 -24.44,-16.294 -60.29,-24.437 -108.62,-24.437 l -234.63,0 0,32.05 50.51,0 0,331.85 -50.51,0 0,32.05 219.96,0 c 62.998,0 109.17,-9.229 139.04,-27.701 29.871,-18.472 44.541,-47.79 44.541,-86.9 0,-28.785 -10.862,-52.14 -32.05,-69.52 -21.18,-17.38 -51.596,-28.24 -91.24,-32.05 54.856,-5.975 99.39,-27.16 99.39,-82.01 m -192.26,67.35 -34.76,0 0,-133.06 34.76,0 c 55.4,0 89.61,14.12 89.61,65.71 0,50.51 -35.3,67.35 -89.61,67.35 m 102.64,116.23 c 0,60.29 -36.39,82.55 -99.39,82.55 l -38.02,0 0,-166.74 38.02,0 c 62.46,0 99.39,23.897 99.39,84.19"/></svg>