<?xml version="1.0" encoding="UTF-8" standalone="no"?>
<!-- Created with Inkscape (http://www.inkscape.org/) -->
<svg id="svg2" xmlns:rdf="http://www.w3.org/1999/02/22-rdf-syntax-ns#" xmlns="http://www.w3.org/2000/svg" height="100%" width="100%" version="1.1" xmlns:cc="http://creativecommons.org/ns#" viewBox="0 0 512 512" xmlns:dc="http://purl.org/dc/elements/1.1/">
 <metadata id="metadata16">
  <rdf:RDF>
   <cc:Work rdf:about="">
    <dc:format>image/svg+xml</dc:format>
    <dc:type rdf:resource="http://purl.org/dc/dcmitype/StillImage"/>
   </cc:Work>
  </rdf:RDF>
 </metadata>
 <rect id="rect4" rx="25.988" height="512" width="512" y="0" x="0" fill="#0078ad"/>
 <g id="g6" style="color:#000000" fill="#fff">
  <path id="path8" opacity=".2" d="m41 0v512h25.313v-512h-25.313m50.563 0v512h25.344v-512h-25.347m50.594 0v512h25.344v-512h-25.344m50.594 0v512h25.313v-512h-25.313m50.594 0v512h25.313v-512h-25.313m50.625 0v512h25.281v-512h-25.27m50.563 0v512h25.313v-512h-25.313m50.563 0v512h25.313v-512h-25.313m50.594 0v512h25.313v-512h-25.3m-429.97 2.094c-9.265 3.965-15.719 13.158-15.719 23.906v460c0 10.749 6.453 19.941 15.719 23.906v-507.81m480.56 0v507.81c9.265-3.965 15.719-13.158 15.719-23.906v-456.09c-0.64-4.653-1.29-9.281-1.97-13.906-2.59-6.252-7.54-11.247-13.75-13.906"/>
  <path id="path10" d="m407.99 103.34-29.386 29.423c29.618 31.19 47.83 73.36 47.83 119.76 0 48.08-19.503 91.61-51.05 123.09l32.934 33.05c83.84-84.02 83.4-221.42-0.333-305.32m-303.98 0.37c-83.84 84.02-84.06 220.68-0.333 304.58l29.31-29.423c-33.501-31.702-54.41-76.58-54.41-126.34 0-48.09 19.501-91.65 51.05-123.12l-25.615-25.689m256.3 47.535-27.39 27.427c42.676 42.759 42.992 111.84 0.259 154.65l27.353 27.427c57.53-57.647 57.23-151.94-0.222-209.51m-208.58 0.259c-57.53 57.647-57.713 151.42-0.259 208.99l27.353-27.427c-42.676-42.759-42.472-111.32 0.259-154.14l-27.353-27.427m109.26 8.7603a7.7542 7.7542 0 0 0 -7.3557 7.7253v73.19l-7.688 6.579-29.423-26.06a7.7542 7.7542 0 1 0 -10.276 11.606l27.796 24.654-31.493 26.946a7.7542 7.7542 0 1 0 10.054 11.791l33.16-28.388 7.873 6.986v68.71a7.7542 7.7542 0 0 0 13.196 5.5075l38.626-37.961a7.7542 7.7542 0 0 0 -0.2957 -11.348l-36-31.899v-20.03l40.33-34.487a7.7542 7.7542 0 0 0 0.22178 -11.606l-43.06-39.883a7.7542 7.7542 0 0 0 -5.6554 -2.033m8.169 25.505 23.619 21.882-23.619 20.256v-42.14m0 103.27 19.48 17.262-19.48 19.18v-36.446"/>
 </g>
</svg>
