<?xml version="1.0" encoding="UTF-8" standalone="no"?>
<!-- Created with Inkscape (http://www.inkscape.org/) -->
<svg id="svg2" xmlns:rdf="http://www.w3.org/1999/02/22-rdf-syntax-ns#" xmlns="http://www.w3.org/2000/svg" height="100%" width="100%" version="1.1" xmlns:cc="http://creativecommons.org/ns#" viewBox="0 0 512 512" xmlns:dc="http://purl.org/dc/elements/1.1/">
 <metadata id="metadata18">
  <rdf:RDF>
   <cc:Work rdf:about="">
    <dc:format>image/svg+xml</dc:format>
    <dc:type rdf:resource="http://purl.org/dc/dcmitype/StillImage"/>
   </cc:Work>
  </rdf:RDF>
 </metadata>
 <rect id="rect4" rx="25.988" height="512" width="512" y="0" x="0" fill="#0078ad"/>
 <g id="g6" style="color:#000000">
  <path id="path8" opacity=".2" d="m32.22 0v512h26.313v-512h-26.313m52.625 0v512h26.344v-512h-26.345m52.656 0v512h26.375v-512h-26.375m52.656 0v512h26.344v-512h-26.344m52.688 0v512h26.313v-512h-26.313m52.656 0v512h26.344v-512h-26.344m52.656 0v512h26.344v-512h-26.344m52.625 0v512h26.375v-512h-26.375m52.656 0 0.031 512h26.313v-512h-26.36m-447.53 9.438c-3.701 4.489-5.906 10.264-5.906 16.563v460c0 6.299 2.205 12.07 5.906 16.563v-493.12m500.22 0.031v493.06c3.684-4.484 5.875-10.249 5.875-16.531v-460c0-6.283-2.191-12.05-5.875-16.531" fill="#fff"/>
  <path id="path10" d="m267.16 41.03c-23.18 3.69-14.993 30.16-16.5 46.656v135.03c-8.527 5.677-17.14 21.877-25.5 7.531-20.639-17.887-37.852-31.74-58.969-49.03-31.06-10.281-27.979 17.865-10.469 35.38 15.734 15.755 31.511 31.469 47.22 47.25-23.21 20.314-47.562 39.454-70.06 60.5-10.667 19.19 13.55 30.916 23.719 43.75 47.97 47.968 95.94 95.94 143.91 143.91h185.5c14.397 0 26-11.603 26-26v-215.44c-47.694-47.755-95.46-95.45-143.5-142.84l-88.59-82.09-5.906-3.594-6.844-1" fill-opacity="0.235"/>
 </g>
 <path id="path12" stroke-linejoin="round" d="m147.26 334.18 84.41-72.27 133.07-113.94-96.66-89.56v395.18l86.71-85.29-199.01-176.26" stroke="#fff" stroke-linecap="round" stroke-width="34.823" fill="none"/>
</svg>
