<?xml version="1.0" encoding="UTF-8" standalone="no"?>
<!-- Created with Inkscape (http://www.inkscape.org/) -->
<svg id="svg2" xmlns:rdf="http://www.w3.org/1999/02/22-rdf-syntax-ns#" xmlns="http://www.w3.org/2000/svg" height="100%" width="100%" version="1.1" xmlns:cc="http://creativecommons.org/ns#" viewBox="0 0 512 512" xmlns:dc="http://purl.org/dc/elements/1.1/">
 <metadata id="metadata60">
  <rdf:RDF>
   <cc:Work rdf:about="">
    <dc:format>image/svg+xml</dc:format>
    <dc:type rdf:resource="http://purl.org/dc/dcmitype/StillImage"/>
   </cc:Work>
  </rdf:RDF>
 </metadata>
 <rect id="rect4" rx="25.988" height="512" width="512" y="0" x="0" fill="#174775"/>
 <path id="path6" style="color:#000000" d="m67.844 41-26.781 26.781c50.16 49.953 99.69 100.17 149.72 150.16-7.273 14.784-7.256 34.566-20.438 15.375-15.914-15.941-31.877-31.831-47.844-47.719-28.15 50.855-22.08 117.66 14.219 162.97l-95.66 95.66 67.781 67.781h377.16c14.397 0 26-11.603 26-26v-377.28c-22.575-22.571-45.15-45.14-67.72-67.72-33.38 32.918-66.978 67.876-100.22 99.47-7.109-5.669-11.256-11.754-18.406-17.438-48.18-28.843-117.5-22.529-162.09 13.719-31.87-31.95-63.813-63.829-95.715-95.751" fill-opacity="0.235"/>
 <text id="text8" style="word-spacing:0;letter-spacing:0" font-size="129.23px" line-height="125%" y="162.14" x="51.775002" font-family="Gentium Book Basic">
  <tspan id="tspan10" y="162.14" x="51.775002"/>
 </text>
 <text id="text12" style="text-anchor:middle" transform="scale(4.0128 .2492)" font-size="46.954px" y="301.48001" x="209.98" font-family="Arial"/>
 <text id="text14" style="word-spacing:0;letter-spacing:0" font-size="129.23px" line-height="125%" y="82.139999" x="633.03998" font-family="Gentium Book Basic">
  <tspan id="tspan16" y="82.139999" x="633.03998"/>
 </text>
 <text id="text18" style="text-anchor:middle" transform="scale(4.0128 .2492)" font-size="46.954px" y="-19.556" x="354.82999" font-family="Arial"/>
 <text id="text20" style="word-spacing:0;letter-spacing:0" font-size="129.23px" line-height="125%" y="-99.120003" x="-438.54001" font-family="Gentium Book Basic">
  <tspan id="tspan22" y="-99.120003" x="-438.54001"/>
 </text>
 <text id="text24" style="text-anchor:middle" transform="scale(4.0128 .2492)" font-size="46.954px" y="-746.90997" x="87.800003" font-family="Arial"/>
 <text id="text26" style="word-spacing:0;letter-spacing:0" font-size="129.23px" line-height="125%" y="-315.60001" x="659.51001" font-family="Gentium Book Basic">
  <tspan id="tspan28" y="-315.60001" x="659.51001"/>
 </text>
 <text id="text30" style="text-anchor:middle" transform="scale(4.0128 .2492)" font-size="46.954px" y="-1615.58" x="361.42999" font-family="Arial"/>
 <text id="text32" style="word-spacing:0;letter-spacing:0" font-size="129.23px" line-height="125%" y="-395.60001" x="1240.78" font-family="Gentium Book Basic">
  <tspan id="tspan34" y="-395.60001" x="1240.78"/>
 </text>
 <text id="text36" style="text-anchor:middle" transform="scale(4.0128 .2492)" font-size="46.954px" y="-1936.62" x="506.28" font-family="Arial"/>
 <text id="text38" style="word-spacing:0;letter-spacing:0" font-size="129.23px" line-height="125%" y="-868" x="851.65997" font-family="Gentium Book Basic">
  <tspan id="tspan40" y="-868" x="851.65997"/>
 </text>
 <text id="text42" style="text-anchor:middle" transform="scale(4.0128 .2492)" font-size="46.954px" y="-3832.28" x="409.31" font-family="Arial"/>
 <text id="text44" style="word-spacing:0;letter-spacing:0" font-size="129.23px" line-height="125%" y="-948" x="1432.9301" font-family="Gentium Book Basic">
  <tspan id="tspan46" y="-948" x="1432.9301"/>
 </text>
 <text id="text48" style="text-anchor:middle" transform="scale(4.0128 .2492)" font-size="46.954px" y="-4153.3198" x="554.16998" font-family="Arial"/>
 <text id="text50" style="word-spacing:0;letter-spacing:0" font-size="208.33px" line-height="125%" y="466.70999" x="-399.88" font-family="Gentium Book Basic">
  <tspan id="tspan52" y="466.70999" x="-399.88"/>
 </text>
 <path id="path54" style="color:#000000" d="m67.834 41-26.779 26.779 95.65 95.76v0.33l26.779 26.779c20.541-29 54.33-48.05 92.57-48.05 14.77 0 28.715 3.128 41.656 8.265l28.432-28.321c-21-11.148-44.66-17.742-70.09-17.742-34.9 0-66.979 12.1-92.57 31.958l-95.65-95.76m376.44 0-95.76 95.76c-0.145-0.114-0.186-0.33-0.33-0.441l-26.779 26.779c29.11 20.527 48.05 54.57 48.05 92.9 0 14.901-3.041 29.17-8.265 42.21l28.321 28.321c11.249-21.08 17.742-44.976 17.742-70.53 0-34.9-12.1-66.868-31.958-92.46l95.65-95.76-26.668-26.779m-188.22 139.4c-41.754 0-75.6 33.843-75.6 75.6 0 41.754 33.843 75.6 75.6 75.6 41.754 0 75.6-33.843 75.6-75.6 0-41.754-33.843-75.6-75.6-75.6m-133.56 5.179c-11.25 21.08-17.742 44.866-17.742 70.42 0 34.9 12.1 66.979 31.958 92.57l-95.65 95.65 26.779 26.779 28.321-28.321-0.441-0.441 94.11-94.11c-28.605-20.588-47.28-54.19-47.28-92.13 0-14.901 3.151-29.06 8.375-42.1l-28.432-28.321m226.02 135.77c-20.541 29-54.22 48.05-92.46 48.05-15.214 0-29.721-3.162-42.978-8.596l-28.321 28.321c21.262 11.505 45.44 18.07 71.3 18.07 34.9 0 66.869-11.987 92.46-31.848l95.76 95.65 26.668-26.779-56.2-56.643-39.452-39.01c0.063-0.088-0.063-0.356 0-0.441l-26.779-26.779" fill="#fff"/>
</svg>
