<?xml version="1.0" encoding="UTF-8" standalone="no"?>
<!-- Created with Inkscape (http://www.inkscape.org/) -->
<svg id="svg2" xmlns:rdf="http://www.w3.org/1999/02/22-rdf-syntax-ns#" xmlns="http://www.w3.org/2000/svg" height="100%" width="100%" version="1.1" xmlns:cc="http://creativecommons.org/ns#" viewBox="0 0 512 512" xmlns:dc="http://purl.org/dc/elements/1.1/">
 <metadata id="metadata60">
  <rdf:RDF>
   <cc:Work rdf:about="">
    <dc:format>image/svg+xml</dc:format>
    <dc:type rdf:resource="http://purl.org/dc/dcmitype/StillImage"/>
   </cc:Work>
  </rdf:RDF>
 </metadata>
 <rect id="rect4" rx="25.988" height="512" width="512" y="0" x="0" fill="#b93d48"/>
 <path id="path6" d="m255.97 41c-34.787 1.445-92.94 8.869-107.19 36.16 27.967 49.859 55.34 101.85 83.69 150.38 9.367 8.216 18.04 18.369 27.375 26.625 8.834 9.359 17.769 18.519 26.875 26.813 4.801 5.509 9.785 10.464 14.938 14.969-4.507 26.25-23.03 25.958-7.531 44.563 7.646 15.16 19.467 32.757 24.719 46.5-1.647-3.54-5.413-4.755-7.219-8.156-3.491-1.89-4.866-6.117-8.875-7.469-1.46-4.101-5.534-5.375-7.531-8.906-3.519-1.918-4.841-6.118-8.906-7.5-1.3-4.241-5.719-5.232-7.5-8.969-3.459-2.491-6.266-5.659-8.969-8.938-3.296-2.711-6.463-5.522-8.938-8.938-3.441-2.518-6.272-5.658-8.969-8.938-3.291-2.681-6.389-5.56-8.969-8.969-3.345-2.626-6.406-5.544-8.938-9-4.216-2.248-5.834-7.07-10.438-8.938-1.254-4.185-5.712-5.244-7.469-8.969-4.206-2.237-5.844-7.096-10.438-8.938-3.695-6.942-19.942-1.056-28.531-3h-141.59c-0.981 70.34 32.618 138.07 85.53 183.56 19.501 19.05 39.04 38.06 58.59 57.06h306.31c14.397 0 26-11.603 26-26v-268.12c-5.26-5.334-10.558-10.659-16.25-15.875-10.23-11.259-22.35-22.04-32.594-33.28-12.656-11.627-23.397-23.759-36.06-35.37-10.23-11.259-22.35-22.04-32.594-33.28-9.9-9.317-19.37-18.755-28.35-28.348-33.03-20.02-71.56-30.758-110.19-30.688m64.66 347.47c1.845 1-1.058 1.241 0 0" fill-opacity="0.235"/>
 <text id="text8" style="word-spacing:0;letter-spacing:0" font-size="129.23px" line-height="125%" y="220.45" x="102.62" font-family="Gentium Book Basic">
  <tspan id="tspan10" y="220.45" x="102.62"/>
 </text>
 <text id="text12" style="text-anchor:middle" transform="scale(4.0128 .2492)" font-size="46.954px" y="535.46997" x="222.64999" font-family="Arial"/>
 <text id="text14" style="word-spacing:0;letter-spacing:0" font-size="129.23px" line-height="125%" y="140.45" x="683.89001" font-family="Gentium Book Basic">
  <tspan id="tspan16" y="140.45" x="683.89001"/>
 </text>
 <text id="text18" style="text-anchor:middle" transform="scale(4.0128 .2492)" font-size="46.954px" y="214.45" x="367.5" font-family="Arial"/>
 <text id="text20" style="word-spacing:0;letter-spacing:0" font-size="129.23px" line-height="125%" y="-40.808998" x="-387.69" font-family="Gentium Book Basic">
  <tspan id="tspan22" y="-40.808998" x="-387.69"/>
 </text>
 <text id="text24" style="text-anchor:middle" transform="scale(4.0128 .2492)" font-size="46.954px" y="-512.90997" x="100.47" font-family="Arial"/>
 <text id="text26" style="word-spacing:0;letter-spacing:0" font-size="129.23px" line-height="125%" y="-257.28" x="710.35999" font-family="Gentium Book Basic">
  <tspan id="tspan28" y="-257.28" x="710.35999"/>
 </text>
 <text id="text30" style="text-anchor:middle" transform="scale(4.0128 .2492)" font-size="46.954px" y="-1381.58" x="374.10001" font-family="Arial"/>
 <text id="text32" style="word-spacing:0;letter-spacing:0" font-size="129.23px" line-height="125%" y="-337.29001" x="1291.63" font-family="Gentium Book Basic">
  <tspan id="tspan34" y="-337.29001" x="1291.63"/>
 </text>
 <text id="text36" style="text-anchor:middle" transform="scale(4.0128 .2492)" font-size="46.954px" y="-1702.61" x="518.95001" font-family="Arial"/>
 <text id="text38" style="word-spacing:0;letter-spacing:0" font-size="129.23px" line-height="125%" y="-809.69" x="902.51001" font-family="Gentium Book Basic">
  <tspan id="tspan40" y="-809.69" x="902.51001"/>
 </text>
 <text id="text42" style="text-anchor:middle" transform="scale(4.0128 .2492)" font-size="46.954px" y="-3598.26" x="421.98001" font-family="Arial"/>
 <text id="text44" style="word-spacing:0;letter-spacing:0" font-size="129.23px" line-height="125%" y="-889.69" x="1483.77" font-family="Gentium Book Basic">
  <tspan id="tspan46" y="-889.69" x="1483.77"/>
 </text>
 <text id="text48" style="text-anchor:middle" transform="scale(4.0128 .2492)" font-size="46.954px" y="-3919.29" x="566.83002" font-family="Arial"/>
 <text id="text50" style="word-spacing:0;letter-spacing:0" font-size="208.33px" line-height="125%" y="525.03003" x="-349.03" font-family="Gentium Book Basic">
  <tspan id="tspan52" y="525.03003" x="-349.03"/>
 </text>
 <path id="path54" d="m255.97 41c-38.05 0-76.08 10.126-110.17 30.7l85.18 154.34c7.419-4.096 15.929-6.435 25-6.435 9.07 0 17.584 2.339 25 6.435l85.18-154.34c-34.1-20.576-72.13-30.7-110.17-30.7m-220.41 230.37c0 82.3 42.04 158.48 110.24 199.63l85.13-154.18c-15.969-8.835-26.769-25.845-26.769-45.39v-0.049h-168.58m272.23 0v0.049c0 19.543-10.802 36.552-26.769 45.39l85.13 154.18c68.19-41.15 110.24-117.32 110.24-199.63h-168.58" fill="#fff"/>
</svg>
