<svg xmlns="http://www.w3.org/2000/svg" xmlns:svg="http://www.w3.org/2000/svg" xmlns:xlink="http://www.w3.org/1999/xlink" id="svg2" version="1.1" viewBox="0 0 512 512"><metadata id="metadata1681"/><g id="g5041" transform="translate(364.16901,-320.90141)"><path id="path1524" d="m -338.17051,320.89991 c -14.397,0 -26,11.603 -26,26 l 0,460 c 0,14.397 11.603,26 26,26 l 460,0 c 14.397,0 26,-11.603 26,-26 l 0,-460 c 0,-14.397 -11.603,-26 -26,-26 l -460,0" style="fill:#26a6a6"/><g id="g1526" transform="translate(-364.17051,320.89991)" style="fill-rule:evenodd"><path id="path1528" d="m 120.95,73.03 c -44.15,0 -79.951,35.8 -79.951,79.953 l 79.957,79.957 -0.006,0 -79.949,-79.949 c 0,22.08 8.951,42.06 23.42,56.53 l 140.31,140.31 0.002,0.002 c 20.816,33.828 50.34,59.809 55.25,89.14 l 73.03,73.03 152.99,0 c 14.397,0 26,-11.603 26,-26 l 0,-61.08 -182,-182 c -3.362,-1.33 -6.593,-2.552 -9.762,-3.723 L 177.491,96.45 C 163.022,81.981 143.035,73.032 120.961,73.032 l 79.939,79.939 0,0.01 -79.951,-79.951 m 270.1,4.03 c -44.15,0 -79.953,35.798 -79.953,79.951 l 0.002,0.002 c 10e-4,22.07 8.941,42.03 23.396,56.49 l 0.121,0.121 c -0.041,-0.041 -0.086,-0.08 -0.127,-0.121 l 177.51,177.51 0,-226.11 -64.42,-64.42 c -14.469,-14.469 -34.456,-23.42 -56.53,-23.42" style="opacity:.25"/><path id="path1530" d="m 120.95,73.03 c -44.15,0 -79.952,35.799 -79.952,79.952 0,44.15 35.799,79.952 79.952,79.952 44.15,0 79.952,-35.799 79.952,-79.952 0,-44.15 -35.799,-79.952 -79.952,-79.952 m 270.1,4.03 c -44.15,0 -79.952,35.799 -79.952,79.952 0,44.15 35.799,79.908 79.952,79.908 44.15,0 79.952,-35.755 79.952,-79.908 0,-44.15 -35.799,-79.952 -79.952,-79.952 M 250.09,223.88 c -27.354,0.299 -41.696,11.367 -60.13,19.04 -30.414,99.91 61.03,142.36 70.02,196.05 13.15,-50.799 87.64,-109.88 70.02,-196.05 -36.39,-14.396 -61.19,-19.241 -79.908,-19.04" style="fill:#fff"/></g><path id="0" d="m 23.139486,455.87991 a 30.283,30.283 0 0 1 -60.565,0 30.283,30.283 0 1 1 60.565,0" style="fill:#282629;fill-rule:evenodd"/><use id="use1675" width="1" height="1" x="0" y="0" transform="translate(-202.05,-4.0000015)" xlink:href="#0"/></g></svg>