<svg xmlns="http://www.w3.org/2000/svg" xmlns:svg="http://www.w3.org/2000/svg" xmlns:xlink="http://www.w3.org/1999/xlink" id="svg2" width="100%" height="100%" version="1.1" viewBox="0 0 512 512"><metadata id="metadata10"/><defs id="defs8"><linearGradient id="ButtonShadow" x1="45.448" x2="45.448" y1="92.54" y2="7.016" gradientTransform="scale(1.0059 .99417)" gradientUnits="userSpaceOnUse"><stop id="stop3750-1" offset="0"/><stop id="stop3752-6" offset="1" stop-opacity=".588"/></linearGradient><filter id="filter3174" color-interpolation-filters="sRGB"><feGaussianBlur id="feGaussianBlur3176" stdDeviation="1.71"/></filter><filter id="filter3174-6" color-interpolation-filters="sRGB"><feGaussianBlur id="feGaussianBlur3176-6" stdDeviation="1.71"/></filter><linearGradient id="linearGradient9335" x1="45.448" x2="45.448" y1="92.54" y2="7.016" gradientTransform="scale(1.0059 .99417)" gradientUnits="userSpaceOnUse" xlink:href="#ButtonShadow"/><filter id="filter3174-2" color-interpolation-filters="sRGB"><feGaussianBlur id="feGaussianBlur3176-64" stdDeviation="1.71"/></filter><filter id="filter3174-9" color-interpolation-filters="sRGB"><feGaussianBlur id="feGaussianBlur3176-1" stdDeviation="1.71"/></filter><radialGradient id="radialGradient21305" cx="64" cy="64" r="64" gradientTransform="matrix(4.1658 0 0 3.8875 118.08 -116.51)" gradientUnits="userSpaceOnUse"><stop id="stop4218-0" offset="0" stop-color="#fff"/><stop id="stop4220-2" offset=".688" stop-color="#e8e8e8"/><stop id="stop4222-6" offset=".875" stop-color="#686868"/><stop id="stop4224-6" offset="1"/></radialGradient></defs><g id="layer2" display="none" transform="matrix(6.7274 0 0 6.7274 -2789.7 -809.34)"><rect id="rect3745" width="86" height="85" x="5" y="7" fill="url(#ButtonShadow)" filter="url(#filter3174)" opacity=".9" rx="6" ry="6"/></g><g id="layer2-7" display="none" transform="matrix(6.7274 0 0 6.7274 -2775.1 -809.34)"><rect id="rect3745-8" width="86" height="85" x="5" y="7" fill="url(#linearGradient9335)" filter="url(#filter3174-6)" opacity=".9" rx="6" ry="6"/></g><path id="path4230" d="m428.79 165.47c-2.1202 7.3447-36.402 181.33-29.267 189.98 6.1765 7.4828 15.826 4.2405 17.946-3.1042-2.1202 7.3447-6.3607 22.034-8.4809 29.379-17.946 3.1042-33.92-0.81668-37.444-17.946-4.0713-19.793 27.134-182.59 29.267-189.98-4.7411-8.958-29.531-15.826-33.772-1.1362l-7.9128-2.1202c18.514-34.603 53.838-9.3127 69.663-5.0722z" display="none"/><path id="path4232" d="m406.6 183.26c-26.427 32.483-124.22 164.54-147.96 158.17l-15.826-4.2405 12.153-12.569 7.9128 2.1202c15.826 4.2405 123.65-133.04 140.05-160.3 12.573-20.906 3.6724 16.81 3.6724 16.81z" display="none"/><path id="path4234" d="m343.72 253.45 47.477 12.721-4.2405 14.689-55.39-14.842z" display="none"/><g id="layer2-4" display="none" transform="matrix(6.7274 0 0 6.7274 -2768.6 -809.34)"><rect id="rect3745-6" width="86" height="85" x="5" y="7" fill="url(#linearGradient9335)" filter="url(#filter3174-2)" opacity=".9" rx="6" ry="6"/></g><path id="path4230-6" d="m435.3 165.47c-2.1202 7.3447-36.402 181.33-29.267 189.98 6.1765 7.4828 15.826 4.2405 17.946-3.1042-2.1202 7.3447-6.3607 22.034-8.4809 29.379-17.946 3.1042-33.92-0.81668-37.444-17.946-4.0713-19.793 27.134-182.59 29.267-189.98-4.7411-8.958-29.531-15.826-33.772-1.1362l-7.9128-2.1202c18.514-34.603 53.838-9.3127 69.663-5.0722z" display="none"/><path id="path4232-1" d="m413.11 183.26c-26.427 32.483-124.22 164.54-147.96 158.17l-15.826-4.2405 12.153-12.569 7.9128 2.1202c15.826 4.2405 123.65-133.04 140.05-160.3 12.573-20.906 3.6724 16.81 3.6724 16.81z" display="none"/><path id="path4234-5" d="m350.22 253.45 47.477 12.721-4.2405 14.689-55.39-14.842z" display="none"/><path id="path4230-5" d="m435.3 165.47c-2.1202 7.3447-36.402 181.33-29.267 189.98 6.1765 7.4828 15.826 4.2405 17.946-3.1042-2.1202 7.3447-6.3607 22.034-8.4809 29.379-17.946 3.1042-33.92-0.81668-37.444-17.946-4.0713-19.793 27.134-182.59 29.267-189.98-4.7411-8.958-29.531-15.826-33.772-1.1362l-7.9128-2.1202c18.514-34.603 53.838-9.3127 69.663-5.0722z" display="none"/><path id="path4232-3" d="m413.11 183.26c-26.427 32.483-124.22 164.54-147.96 158.17l-15.826-4.2405 12.153-12.569 7.9128 2.1202c15.826 4.2405 123.65-133.04 140.05-160.3 12.573-20.906 3.6724 16.81 3.6724 16.81z" display="none"/><path id="path4234-4" d="m350.22 253.45 47.477 12.721-4.2405 14.689-55.39-14.842z" display="none"/><style id="style1470" type="text/css"/><g id="layer2-5" display="none" transform="matrix(6.7274 0 0 6.7274 -2766.4 -809.34)"><rect id="rect3745-1" width="86" height="85" x="5" y="7" fill="url(#linearGradient9335)" filter="url(#filter3174-9)" opacity=".9" rx="6" ry="6"/></g><path id="path4230-9" d="m437.47 165.47c-2.1202 7.3447-36.402 181.33-29.267 189.98 6.1765 7.4828 15.826 4.2405 17.946-3.1042-2.1202 7.3447-6.3607 22.034-8.4809 29.379-17.946 3.1042-33.92-0.81668-37.444-17.946-4.0713-19.793 27.134-182.59 29.267-189.98-4.7411-8.958-29.531-15.826-33.772-1.1362l-7.9128-2.1202c18.514-34.603 53.838-9.3127 69.663-5.0722z" display="none"/><path id="path4232-2" d="m415.28 183.26c-26.43 32.48-124.22 164.54-147.96 158.18l-15.826-4.2405 12.153-12.569 7.9128 2.1202c15.826 4.2405 123.65-133.04 140.05-160.3 12.573-20.906 3.6724 16.81 3.6724 16.81z" display="none"/><path id="path4234-3" d="m352.39 253.45 47.477 12.721-4.2405 14.689-55.39-14.842z" display="none"/><path id="path4230-5-1" d="m437.47 165.47c-2.1202 7.3447-36.402 181.33-29.267 189.98 6.1765 7.4828 15.826 4.2405 17.946-3.1042-2.1202 7.3447-6.3607 22.034-8.4809 29.379-17.946 3.1042-33.92-0.81668-37.444-17.946-4.0713-19.793 27.134-182.59 29.267-189.98-4.7411-8.958-29.531-15.826-33.772-1.1362l-7.9128-2.1202c18.514-34.603 53.838-9.3127 69.663-5.0722z" display="none"/><path id="path4232-3-5" d="m415.28 183.26c-26.43 32.48-124.22 164.54-147.96 158.18l-15.826-4.2405 12.153-12.569 7.9128 2.1202c15.826 4.2405 123.65-133.04 140.05-160.3 12.573-20.906 3.6724 16.81 3.6724 16.81z" display="none"/><path id="path4234-4-5" d="m352.39 253.45 47.477 12.721-4.2405 14.689-55.39-14.842z" display="none"/><path id="path4230-0" d="m437.47 165.47c-2.1202 7.3447-36.402 181.33-29.267 189.98 6.1765 7.4828 15.826 4.2405 17.946-3.1042-2.1202 7.3447-6.3607 22.034-8.4809 29.379-17.946 3.1042-33.92-0.81668-37.444-17.946-4.0713-19.793 27.134-182.59 29.267-189.98-4.7411-8.958-29.531-15.826-33.772-1.1362l-7.9128-2.1202c18.514-34.603 53.838-9.3127 69.663-5.0722z" display="none"/><path id="path4232-7" d="m415.28 183.26c-26.43 32.48-124.22 164.54-147.96 158.18l-15.826-4.2405 12.153-12.569 7.9128 2.1202c15.826 4.2405 123.65-133.04 140.05-160.3 12.573-20.906 3.6724 16.81 3.6724 16.81z" display="none"/><path id="path4234-0" d="m352.39 253.45 47.477 12.721-4.2405 14.689-55.39-14.842z" display="none"/><ellipse id="path3281-0-0" cx="384.69" cy="132.29" fill="url(#radialGradient21305)" display="none" rx="266.61" ry="248.8" transform="matrix(.96593 .25882 -.27735 .96077 0 0)"/><g id="g3410" transform="translate(374.98592,-353.35211)"><path id="rect2986" d="m -348.98792,353.35211 c -14.397,0 -26,11.603 -26,26 l 0,460 c 0,14.397 11.603,26 26,26 l 460,0 c 14.397,0 26,-11.603 26,-26 l 0,-460 c 0,-14.397 -11.6,-26 -26,-26 l -460,0 z" style="fill:#e24a4a"/><path style="color:#000;fill:#34e364" id="path32218" d="m -374.98792,548.91211 0,152.95 512,0 0,-152.95 -512,0 z"/><path style="color:#000;fill:#499de7" id="path32220" d="m -348.98792,353.35211 c -14.397,0 -26,11.603 -26,26 l 0,228.88 512,0 0,-228.88 c 0,-14.397 -11.6,-26 -26,-26 l -460,0 z"/><path id="path33443" d="m -333.98792,436.20711 16.562,62.031 125.7,125.7 -9.9473,-0.17773 c -9.1622,-0.16445 -16.531,6.3058 -16.531,14.516 l 0,1.209 c 0,3.8661 1.6343,7.4116 4.3203,10.098 l 67.75,67.75 -187.85,-3.39 16.562,62.03 89.368,89.37 339.07,0 c 14.397,0 26,-11.603 26,-26 l 0,-213.95 -74.061995,-74.062 -5.8086,-0.10352 -109.97,-109.98 -281.160005,-5.055 z" style="opacity:.25"/><path id="path32207" d="m -333.98792,436.20811 16.562,62.031 0,-30.86 248.060005,4.4352 0,30.86 16.54,-61.419 -281.160005,-5.055 z m 115.78,110.11 16.531,62 0,-30.861 248.090005,4.4662 0,30.86 16.531,-61.442 -281.160005,-5.0245 z m 16.531,77.446 c -9.1622,-0.16445 -16.531,6.3055 -16.531,14.515 l 0,1.2096 c 0,8.2098 7.3691,14.971 16.531,15.136 l 115.780005,2.078 c 9.1622,0.16446 16.531,-6.3365 16.531,-14.546 l 0,-1.2096 c 0,-8.2098 -7.3691,-14.94 -16.531,-15.105 l -115.780005,-2.078 z m 248.090005,4.4352 c -9.1623,-0.16446 -16.562,4.8557 -16.562,11.259 l 0,7.7539 c 0,6.403 7.4001,11.683 16.562,11.848 l 33.063,0.5893 c 9.1622,0.16446 16.531,-4.8557 16.531,-11.259 l 0,-7.7229 c 0,-6.4029 -7.369,-11.715 -16.531,-11.879 l -33.063,-0.5893 z m -380.400005,85.74 16.562,62.031 0,-30.861 248.060005,4.4352 0,30.86 16.54,-61.4 -281.160005,-5.06 z m 380.410005,6.8234 -33.094,30.271 33.094,31.45 33.063,-30.271 -33.063,-31.45 z" style="fill:#fff"/></g></svg>