<svg xmlns="http://www.w3.org/2000/svg" xmlns:svg="http://www.w3.org/2000/svg" xmlns:xlink="http://www.w3.org/1999/xlink" id="svg2" width="100%" height="100%" version="1.1" viewBox="0 0 512 512"><metadata id="metadata10"/><defs id="defs8"><linearGradient id="ButtonShadow" x1="45.448" x2="45.448" y1="92.54" y2="7.016" gradientTransform="scale(1.0059 .99417)" gradientUnits="userSpaceOnUse"><stop id="stop3750-1" offset="0"/><stop id="stop3752-6" offset="1" stop-opacity=".588"/></linearGradient><filter id="filter3174" color-interpolation-filters="sRGB"><feGaussianBlur id="feGaussianBlur3176" stdDeviation="1.71"/></filter><filter id="filter3174-6" color-interpolation-filters="sRGB"><feGaussianBlur id="feGaussianBlur3176-6" stdDeviation="1.71"/></filter><linearGradient id="linearGradient9335" x1="45.448" x2="45.448" y1="92.54" y2="7.016" gradientTransform="scale(1.0059 .99417)" gradientUnits="userSpaceOnUse" xlink:href="#ButtonShadow"/><filter id="filter3174-2" color-interpolation-filters="sRGB"><feGaussianBlur id="feGaussianBlur3176-64" stdDeviation="1.71"/></filter><filter id="filter3174-9" color-interpolation-filters="sRGB"><feGaussianBlur id="feGaussianBlur3176-1" stdDeviation="1.71"/></filter><radialGradient id="radialGradient21305" cx="64" cy="64" r="64" gradientTransform="matrix(4.1658 0 0 3.8875 118.08 -116.51)" gradientUnits="userSpaceOnUse" xlink:href="#linearGradient4216-1"/><linearGradient id="linearGradient4216-1"><stop id="stop4218-0" offset="0" stop-color="#fff"/><stop id="stop4220-2" offset=".688" stop-color="#e8e8e8"/><stop id="stop4222-6" offset=".875" stop-color="#686868"/><stop id="stop4224-6" offset="1"/></linearGradient><filter id="filter3174-3" color-interpolation-filters="sRGB"><feGaussianBlur id="feGaussianBlur3176-17" stdDeviation="1.71"/></filter><radialGradient id="radialGradient21305-6" cx="64" cy="64" r="64" gradientTransform="matrix(4.1658 0 0 3.8875 29.334 -198.73)" gradientUnits="userSpaceOnUse" xlink:href="#linearGradient4216-1"/><filter id="filter3174-7" color-interpolation-filters="sRGB"><feGaussianBlur id="feGaussianBlur3176-68" stdDeviation="1.71"/></filter><radialGradient id="radialGradient21305-3" cx="64" cy="64" r="64" gradientTransform="matrix(4.1658 0 0 3.8875 50.075 -134.32)" gradientUnits="userSpaceOnUse" xlink:href="#linearGradient4216-1"/></defs><g id="layer2" display="none" transform="matrix(6.7274 0 0 6.7274 -2789.7 -809.34)"><rect id="rect3745" width="86" height="85" x="5" y="7" fill="url(#ButtonShadow)" filter="url(#filter3174)" opacity=".9" rx="6" ry="6"/></g><g id="layer2-7" display="none" transform="matrix(6.7274 0 0 6.7274 -2775.1 -809.34)"><rect id="rect3745-8" width="86" height="85" x="5" y="7" fill="url(#linearGradient9335)" filter="url(#filter3174-6)" opacity=".9" rx="6" ry="6"/></g><path id="path4230" d="m428.79 165.47c-2.1202 7.3447-36.402 181.33-29.267 189.98 6.1765 7.4828 15.826 4.2405 17.946-3.1042-2.1202 7.3447-6.3607 22.034-8.4809 29.379-17.946 3.1042-33.92-0.81668-37.444-17.946-4.0713-19.793 27.134-182.59 29.267-189.98-4.7411-8.958-29.531-15.826-33.772-1.1362l-7.9128-2.1202c18.514-34.603 53.838-9.3127 69.663-5.0722z" display="none"/><path id="path4232" d="m406.6 183.26c-26.427 32.483-124.22 164.54-147.96 158.17l-15.826-4.2405 12.153-12.569 7.9128 2.1202c15.826 4.2405 123.65-133.04 140.05-160.3 12.573-20.906 3.6724 16.81 3.6724 16.81z" display="none"/><path id="path4234" d="m343.72 253.45 47.477 12.721-4.2405 14.689-55.39-14.842z" display="none"/><g id="layer2-4" display="none" transform="matrix(6.7274 0 0 6.7274 -2768.6 -809.34)"><rect id="rect3745-6" width="86" height="85" x="5" y="7" fill="url(#linearGradient9335)" filter="url(#filter3174-2)" opacity=".9" rx="6" ry="6"/></g><path id="path4230-6" d="m435.3 165.47c-2.1202 7.3447-36.402 181.33-29.267 189.98 6.1765 7.4828 15.826 4.2405 17.946-3.1042-2.1202 7.3447-6.3607 22.034-8.4809 29.379-17.946 3.1042-33.92-0.81668-37.444-17.946-4.0713-19.793 27.134-182.59 29.267-189.98-4.7411-8.958-29.531-15.826-33.772-1.1362l-7.9128-2.1202c18.514-34.603 53.838-9.3127 69.663-5.0722z" display="none"/><path id="path4232-1" d="m413.11 183.26c-26.427 32.483-124.22 164.54-147.96 158.17l-15.826-4.2405 12.153-12.569 7.9128 2.1202c15.826 4.2405 123.65-133.04 140.05-160.3 12.573-20.906 3.6724 16.81 3.6724 16.81z" display="none"/><path id="path4234-5" d="m350.22 253.45 47.477 12.721-4.2405 14.689-55.39-14.842z" display="none"/><path id="path4230-5" d="m435.3 165.47c-2.1202 7.3447-36.402 181.33-29.267 189.98 6.1765 7.4828 15.826 4.2405 17.946-3.1042-2.1202 7.3447-6.3607 22.034-8.4809 29.379-17.946 3.1042-33.92-0.81668-37.444-17.946-4.0713-19.793 27.134-182.59 29.267-189.98-4.7411-8.958-29.531-15.826-33.772-1.1362l-7.9128-2.1202c18.514-34.603 53.838-9.3127 69.663-5.0722z" display="none"/><path id="path4232-3" d="m413.11 183.26c-26.427 32.483-124.22 164.54-147.96 158.17l-15.826-4.2405 12.153-12.569 7.9128 2.1202c15.826 4.2405 123.65-133.04 140.05-160.3 12.573-20.906 3.6724 16.81 3.6724 16.81z" display="none"/><path id="path4234-4" d="m350.22 253.45 47.477 12.721-4.2405 14.689-55.39-14.842z" display="none"/><style id="style1470" type="text/css"/><g id="layer2-5" display="none" transform="matrix(6.7274 0 0 6.7274 -2766.4 -809.34)"><rect id="rect3745-1" width="86" height="85" x="5" y="7" fill="url(#linearGradient9335)" filter="url(#filter3174-9)" opacity=".9" rx="6" ry="6"/></g><path id="path4230-9" d="m437.47 165.47c-2.1202 7.3447-36.402 181.33-29.267 189.98 6.1765 7.4828 15.826 4.2405 17.946-3.1042-2.1202 7.3447-6.3607 22.034-8.4809 29.379-17.946 3.1042-33.92-0.81668-37.444-17.946-4.0713-19.793 27.134-182.59 29.267-189.98-4.7411-8.958-29.531-15.826-33.772-1.1362l-7.9128-2.1202c18.514-34.603 53.838-9.3127 69.663-5.0722z" display="none"/><path id="path4232-2" d="m415.28 183.26c-26.43 32.48-124.22 164.54-147.96 158.18l-15.826-4.2405 12.153-12.569 7.9128 2.1202c15.826 4.2405 123.65-133.04 140.05-160.3 12.573-20.906 3.6724 16.81 3.6724 16.81z" display="none"/><path id="path4234-3" d="m352.39 253.45 47.477 12.721-4.2405 14.689-55.39-14.842z" display="none"/><path id="path4230-5-1" d="m437.47 165.47c-2.1202 7.3447-36.402 181.33-29.267 189.98 6.1765 7.4828 15.826 4.2405 17.946-3.1042-2.1202 7.3447-6.3607 22.034-8.4809 29.379-17.946 3.1042-33.92-0.81668-37.444-17.946-4.0713-19.793 27.134-182.59 29.267-189.98-4.7411-8.958-29.531-15.826-33.772-1.1362l-7.9128-2.1202c18.514-34.603 53.838-9.3127 69.663-5.0722z" display="none"/><path id="path4232-3-5" d="m415.28 183.26c-26.43 32.48-124.22 164.54-147.96 158.18l-15.826-4.2405 12.153-12.569 7.9128 2.1202c15.826 4.2405 123.65-133.04 140.05-160.3 12.573-20.906 3.6724 16.81 3.6724 16.81z" display="none"/><path id="path4234-4-5" d="m352.39 253.45 47.477 12.721-4.2405 14.689-55.39-14.842z" display="none"/><path id="path4230-0" d="m437.47 165.47c-2.1202 7.3447-36.402 181.33-29.267 189.98 6.1765 7.4828 15.826 4.2405 17.946-3.1042-2.1202 7.3447-6.3607 22.034-8.4809 29.379-17.946 3.1042-33.92-0.81668-37.444-17.946-4.0713-19.793 27.134-182.59 29.267-189.98-4.7411-8.958-29.531-15.826-33.772-1.1362l-7.9128-2.1202c18.514-34.603 53.838-9.3127 69.663-5.0722z" display="none"/><path id="path4232-7" d="m415.28 183.26c-26.43 32.48-124.22 164.54-147.96 158.18l-15.826-4.2405 12.153-12.569 7.9128 2.1202c15.826 4.2405 123.65-133.04 140.05-160.3 12.573-20.906 3.6724 16.81 3.6724 16.81z" display="none"/><path id="path4234-0" d="m352.39 253.45 47.477 12.721-4.2405 14.689-55.39-14.842z" display="none"/><ellipse id="path3281-0-0" cx="384.69" cy="132.29" fill="url(#radialGradient21305)" display="none" rx="266.61" ry="248.8" transform="matrix(.96593 .25882 -.27735 .96077 0 0)"/><style id="style1470-0" type="text/css"/><g id="layer2-73" display="none" transform="matrix(6.7274 0 0 6.7274 -2829.3 -911.3)"><rect id="rect3745-4" width="86" height="85" x="5" y="7" fill="url(#linearGradient9335)" filter="url(#filter3174-3)" opacity=".9" rx="6" ry="6"/></g><path id="path4230-7" d="m374.55 63.502c-2.1202 7.3447-36.402 181.33-29.267 189.98 6.1765 7.4828 15.826 4.2405 17.946-3.1042-2.1202 7.3447-6.3607 22.034-8.4809 29.379-17.946 3.1042-33.92-0.81668-37.444-17.946-4.0713-19.793 27.134-182.59 29.267-189.98-4.7411-8.958-29.531-15.826-33.772-1.1362l-7.9128-2.1202c18.514-34.603 53.838-9.3127 69.663-5.0722z" display="none"/><path id="path4232-6" d="m352.36 81.296c-26.427 32.483-124.22 164.54-147.96 158.17l-15.826-4.2405 12.153-12.569 7.9128 2.1202c15.826 4.2405 123.65-133.04 140.05-160.3 12.573-20.906 3.6724 16.81 3.6724 16.81z" display="none"/><path id="path4234-30" d="m289.48 151.49 47.477 12.721-4.2405 14.689-55.39-14.842z" display="none"/><path id="path4230-5-9" d="m374.55 63.502c-2.1202 7.3447-36.402 181.33-29.267 189.98 6.1765 7.4828 15.826 4.2405 17.946-3.1042-2.1202 7.3447-6.3607 22.034-8.4809 29.379-17.946 3.1042-33.92-0.81668-37.444-17.946-4.0713-19.793 27.134-182.59 29.267-189.98-4.7411-8.958-29.531-15.826-33.772-1.1362l-7.9128-2.1202c18.514-34.603 53.838-9.3127 69.663-5.0722z" display="none"/><path id="path4232-3-4" d="m352.36 81.296c-26.427 32.483-124.22 164.54-147.96 158.17l-15.826-4.2405 12.153-12.569 7.9128 2.1202c15.826 4.2405 123.65-133.04 140.05-160.3 12.573-20.906 3.6724 16.81 3.6724 16.81z" display="none"/><path id="path4234-4-2" d="m289.48 151.49 47.477 12.721-4.2405 14.689-55.39-14.842z" display="none"/><path id="path4230-0-5" d="m374.55 63.502c-2.1202 7.3447-36.402 181.33-29.267 189.98 6.1765 7.4828 15.826 4.2405 17.946-3.1042-2.1202 7.3447-6.3607 22.034-8.4809 29.379-17.946 3.1042-33.92-0.81668-37.444-17.946-4.0713-19.793 27.134-182.59 29.267-189.98-4.7411-8.958-29.531-15.826-33.772-1.1362l-7.9128-2.1202c18.514-34.603 53.838-9.3127 69.663-5.0722z" display="none"/><path id="path4232-7-7" d="m352.36 81.296c-26.427 32.483-124.22 164.54-147.96 158.17l-15.826-4.2405 12.153-12.569 7.9128 2.1202c15.826 4.2405 123.65-133.04 140.05-160.3 12.573-20.906 3.6724 16.81 3.6724 16.81z" display="none"/><path id="path4234-0-4" d="m289.48 151.49 47.477 12.721-4.2405 14.689-55.39-14.842z" display="none"/><ellipse id="path3281-0-0-4" cx="295.95" cy="50.066" fill="url(#radialGradient21305-6)" display="none" rx="266.61" ry="248.8" transform="matrix(.96593 .25882 -.27735 .96077 0 0)"/><style id="style1470-05" type="text/css"/><g id="layer2-0" display="none" transform="matrix(6.7274 0 0 6.7274 -2827.2 -844.05)"><rect id="rect3745-7" width="86" height="85" x="5" y="7" fill="url(#linearGradient9335)" filter="url(#filter3174-7)" opacity=".9" rx="6" ry="6"/></g><path id="path4230-8" d="m376.72 130.76c-2.1202 7.3447-36.402 181.33-29.267 189.98 6.1765 7.4828 15.826 4.2405 17.946-3.1042-2.1202 7.3447-6.3607 22.034-8.4809 29.379-17.946 3.1042-33.92-0.81668-37.444-17.946-4.0713-19.793 27.134-182.59 29.267-189.98-4.7411-8.958-29.531-15.826-33.772-1.1362l-7.9128-2.1202c18.514-34.603 53.838-9.3127 69.663-5.0722z" display="none"/><path id="path4232-4" d="m354.53 148.55c-26.427 32.483-124.22 164.54-147.96 158.17l-15.826-4.2405 12.153-12.569 7.9128 2.1202c15.826 4.2405 123.65-133.04 140.05-160.3 12.573-20.906 3.6724 16.81 3.6724 16.81z" display="none"/><path id="path4234-07" d="m291.65 218.74 47.477 12.721-4.2405 14.689-55.39-14.842z" display="none"/><path id="path4230-5-0" d="m376.72 130.76c-2.1202 7.3447-36.402 181.33-29.267 189.98 6.1765 7.4828 15.826 4.2405 17.946-3.1042-2.1202 7.3447-6.3607 22.034-8.4809 29.379-17.946 3.1042-33.92-0.81668-37.444-17.946-4.0713-19.793 27.134-182.59 29.267-189.98-4.7411-8.958-29.531-15.826-33.772-1.1362l-7.9128-2.1202c18.514-34.603 53.838-9.3127 69.663-5.0722z" display="none"/><path id="path4232-3-55" d="m354.53 148.55c-26.427 32.483-124.22 164.54-147.96 158.17l-15.826-4.2405 12.153-12.569 7.9128 2.1202c15.826 4.2405 123.65-133.04 140.05-160.3 12.573-20.906 3.6724 16.81 3.6724 16.81z" display="none"/><path id="path4234-4-6" d="m291.65 218.74 47.477 12.721-4.2405 14.689-55.39-14.842z" display="none"/><path id="path4230-0-8" d="m376.72 130.76c-2.1202 7.3447-36.402 181.33-29.267 189.98 6.1765 7.4828 15.826 4.2405 17.946-3.1042-2.1202 7.3447-6.3607 22.034-8.4809 29.379-17.946 3.1042-33.92-0.81668-37.444-17.946-4.0713-19.793 27.134-182.59 29.267-189.98-4.7411-8.958-29.531-15.826-33.772-1.1362l-7.9128-2.1202c18.514-34.603 53.838-9.3127 69.663-5.0722z" display="none"/><path id="path4232-7-5" d="m354.53 148.55c-26.427 32.483-124.22 164.54-147.96 158.17l-15.826-4.2405 12.153-12.569 7.9128 2.1202c15.826 4.2405 123.65-133.04 140.05-160.3 12.573-20.906 3.6724 16.81 3.6724 16.81z" display="none"/><path id="path4234-0-9" d="m291.65 218.74 47.477 12.721-4.2405 14.689-55.39-14.842z" display="none"/><ellipse id="path3281-0-0-0" cx="316.69" cy="114.48" fill="url(#radialGradient21305-3)" display="none" rx="266.61" ry="248.8" transform="matrix(.96593 .25882 -.27735 .96077 0 0)"/><path style="fill:#2d95b5" id="rect2986" d="m 26,-0.0025 c -14.397,0 -26,11.603 -26,26 l 0,460 c 0,14.397 11.603,26 26,26 l 460,0 c 14.397,0 26,-11.603 26,-26 l 0,-460 c 0,-14.397 -11.6,-26 -26,-26 l -460,0 z"/><path style="opacity:.25" id="path64733" d="m 41,68.2805 0,7.2285 0,326.59 0,34.385 0,7.2285 68.28,68.29 376.72,0 c 14.397,0 26,-11.603 26,-26 l 0,-376.72 -41,-41 -430,0 z"/><path id="path3269" d="m 471,68.2805 0,41.615 0,125.3 0,41.615 0,125.3 0,34.386 0,7.2286 -430,0 0,-7.2286 0,-34.386 0,-326.59 0,-7.2286 430,0 z m -41.615,41.615 -96.381,0 0,125.3 96.38101,0 0,-125.3 z m -138,0 -208.78,0 0,125.3 208.78,0 0,-125.3 z m 138,166.91 -96.381,0 0,125.3 96.38101,0 0,-125.3 z m -138,0 -208.78,0 0,125.3 208.78,0 0,-125.3 z" style="fill:#fff"/></svg>