<?xml version="1.0" encoding="UTF-8" standalone="no"?>
<!-- Created with Inkscape (http://www.inkscape.org/) -->
<svg id="svg2" xmlns:rdf="http://www.w3.org/1999/02/22-rdf-syntax-ns#" xmlns="http://www.w3.org/2000/svg" height="100%" width="100%" version="1.1" xmlns:cc="http://creativecommons.org/ns#" viewBox="0 0 512 512" xmlns:dc="http://purl.org/dc/elements/1.1/">
 <metadata id="metadata60">
  <rdf:RDF>
   <cc:Work rdf:about="">
    <dc:format>image/svg+xml</dc:format>
    <dc:type rdf:resource="http://purl.org/dc/dcmitype/StillImage"/>
   </cc:Work>
  </rdf:RDF>
 </metadata>
 <rect id="rect4" rx="25.988" height="512" width="512" y="0" x="0" fill="#366378"/>
 <path id="path6" d="m276.06 41c-14.48 102.51-27.18 205.27-41.656 307.78-35.674-21.459-89.17-34.923-121.25-0.344-26.2 30.18-23.788 82.25 8.875 106.94 18.904 18.862 37.777 37.737 56.656 56.625h307.31c14.397 0 26-11.603 26-26v-239.59c-70.93-71.12-148.03-148.53-198.72-199.22-7.799-1.289-29.419-4.899-37.22-6.188" fill-opacity="0.235"/>
 <text id="text8" style="word-spacing:0;letter-spacing:0" font-size="129.23px" line-height="125%" y="174.41" x="146.88" font-family="Gentium Book Basic">
  <tspan id="tspan10" y="174.41" x="146.88"/>
 </text>
 <text id="text12" style="text-anchor:middle" transform="scale(4.0128 .2492)" font-size="46.954px" y="350.73001" x="233.67999" font-family="Arial"/>
 <text id="text14" style="word-spacing:0;letter-spacing:0" font-size="129.23px" line-height="125%" y="94.410004" x="728.15002" font-family="Gentium Book Basic">
  <tspan id="tspan16" y="94.410004" x="728.15002"/>
 </text>
 <text id="text18" style="text-anchor:middle" transform="scale(4.0128 .2492)" font-size="46.954px" y="29.695" x="378.53" font-family="Arial"/>
 <text id="text20" style="word-spacing:0;letter-spacing:0" font-size="129.23px" line-height="125%" y="-86.849998" x="-343.42999" font-family="Gentium Book Basic">
  <tspan id="tspan22" y="-86.849998" x="-343.42999"/>
 </text>
 <text id="text24" style="text-anchor:middle" transform="scale(4.0128 .2492)" font-size="46.954px" y="-697.65002" x="111.5" font-family="Arial"/>
 <text id="text26" style="word-spacing:0;letter-spacing:0" font-size="129.23px" line-height="125%" y="-303.32001" x="754.62" font-family="Gentium Book Basic">
  <tspan id="tspan28" y="-303.32001" x="754.62"/>
 </text>
 <text id="text30" style="text-anchor:middle" transform="scale(4.0128 .2492)" font-size="46.954px" y="-1566.33" x="385.13" font-family="Arial"/>
 <text id="text32" style="word-spacing:0;letter-spacing:0" font-size="129.23px" line-height="125%" y="-383.32001" x="1335.89" font-family="Gentium Book Basic">
  <tspan id="tspan34" y="-383.32001" x="1335.89"/>
 </text>
 <text id="text36" style="text-anchor:middle" transform="scale(4.0128 .2492)" font-size="46.954px" y="-1887.36" x="529.97998" font-family="Arial"/>
 <text id="text38" style="word-spacing:0;letter-spacing:0" font-size="129.23px" line-height="125%" y="-855.71997" x="946.77002" font-family="Gentium Book Basic">
  <tspan id="tspan40" y="-855.71997" x="946.77002"/>
 </text>
 <text id="text42" style="text-anchor:middle" transform="scale(4.0128 .2492)" font-size="46.954px" y="-3783.01" x="433.01001" font-family="Arial"/>
 <text id="text44" style="word-spacing:0;letter-spacing:0" font-size="129.23px" line-height="125%" y="-935.72998" x="1528.03" font-family="Gentium Book Basic">
  <tspan id="tspan46" y="-935.72998" x="1528.03"/>
 </text>
 <text id="text48" style="text-anchor:middle" transform="scale(4.0128 .2492)" font-size="46.954px" y="-4104.04" x="577.85999" font-family="Arial"/>
 <text id="text50" style="word-spacing:0;letter-spacing:0" font-size="208.33px" line-height="125%" y="478.98999" x="-304.76999" font-family="Gentium Book Basic">
  <tspan id="tspan52" y="478.98999" x="-304.76999"/>
 </text>
 <path id="path54" d="m234.4 348.77c-93.9-53.73-151.46 1.459-136.47 70.921 9.222 42.746 86.09 82.61 153.33 15.18 4.359-3.91 10.09-17.243 10.317-24.05 9.8-81.61 22.06-163.56 31.546-245.14 106.19 93.63 72.28 150.27 50.33 215.5 45.14-18.601 115.84-100.73 38.598-216.57-36.554-51.31-33.12-15.08-68.53-117.44-12.482-2.062-24.965-4.123-37.447-6.185-14.881 105.48-26.785 202.3-41.666 307.77" fill="#fff"/>
</svg>
