<?xml version="1.0" encoding="UTF-8" standalone="no"?>
<!-- Created with Inkscape (http://www.inkscape.org/) -->
<svg id="svg2" xmlns:rdf="http://www.w3.org/1999/02/22-rdf-syntax-ns#" xmlns="http://www.w3.org/2000/svg" height="100%" width="100%" version="1.1" xmlns:cc="http://creativecommons.org/ns#" viewBox="0 0 512 512" xmlns:dc="http://purl.org/dc/elements/1.1/">
 <metadata id="metadata64">
  <rdf:RDF>
   <cc:Work rdf:about="">
    <dc:format>image/svg+xml</dc:format>
    <dc:type rdf:resource="http://purl.org/dc/dcmitype/StillImage"/>
   </cc:Work>
  </rdf:RDF>
 </metadata>
 <rect id="rect4" rx="25.988" height="512" width="512" y="0" x="0" fill="#0078ad"/>
 <path id="path6" d="m305.56 40.938c-87.54 0.1-163.89 82.13-156.84 169.72 0.754 51.36 32.03 94.24 68.66 127.25 58.18 57.831 115.96 116.09 173.97 174.09h94.66c14.397 0 26-11.603 26-26v-309.62c-32.645-32.576-65.35-65.06-98.25-97.37-28.733-24.453-66.28-38.14-104-38-1.395-0.04-2.798-0.064-4.188-0.063m-153.56 263.47c-35.13 29.746-71.25 58.42-105.75 88.84-15.724 20.611 7.485 37.39 20.625 50.844l67.906 67.906h224.72c-48.727-48.694-97.01-97.06-146-146-15.984-15.886-28.926-28.365-43.594-43.688-6.111-5.618-11.799-11.336-17.906-17.906" fill-opacity="0.235"/>
 <text id="text8" style="word-spacing:0;letter-spacing:0" font-size="129.23px" line-height="125%" y="215.83" x="177.57001" font-family="Gentium Book Basic">
  <tspan id="tspan10" y="215.83" x="177.57001"/>
 </text>
 <text id="text12" style="text-anchor:middle" transform="scale(4.0128 .2492)" font-size="46.954px" y="516.92999" x="241.33" font-family="Arial"/>
 <text id="text14" style="word-spacing:0;letter-spacing:0" font-size="129.23px" line-height="125%" y="135.83" x="758.84003" font-family="Gentium Book Basic">
  <tspan id="tspan16" y="135.83" x="758.84003"/>
 </text>
 <text id="text18" style="text-anchor:middle" transform="scale(4.0128 .2492)" font-size="46.954px" y="195.89999" x="386.17999" font-family="Arial"/>
 <text id="text20" style="word-spacing:0;letter-spacing:0" font-size="129.23px" line-height="125%" y="-45.43" x="-312.73999" font-family="Gentium Book Basic">
  <tspan id="tspan22" y="-45.43" x="-312.73999"/>
 </text>
 <text id="text24" style="text-anchor:middle" transform="scale(4.0128 .2492)" font-size="46.954px" y="-531.45001" x="119.14" font-family="Arial"/>
 <text id="text26" style="word-spacing:0;letter-spacing:0" font-size="129.23px" line-height="125%" y="-261.89999" x="785.31" font-family="Gentium Book Basic">
  <tspan id="tspan28" y="-261.89999" x="785.31"/>
 </text>
 <text id="text30" style="text-anchor:middle" transform="scale(4.0128 .2492)" font-size="46.954px" y="-1400.12" x="392.78" font-family="Arial"/>
 <text id="text32" style="word-spacing:0;letter-spacing:0" font-size="129.23px" line-height="125%" y="-341.91" x="1366.58" font-family="Gentium Book Basic">
  <tspan id="tspan34" y="-341.91" x="1366.58"/>
 </text>
 <text id="text36" style="text-anchor:middle" transform="scale(4.0128 .2492)" font-size="46.954px" y="-1721.16" x="537.63" font-family="Arial"/>
 <text id="text38" style="word-spacing:0;letter-spacing:0" font-size="129.23px" line-height="125%" y="-814.31" x="977.46002" font-family="Gentium Book Basic">
  <tspan id="tspan40" y="-814.31" x="977.46002"/>
 </text>
 <text id="text42" style="text-anchor:middle" transform="scale(4.0128 .2492)" font-size="46.954px" y="-3616.8101" x="440.66" font-family="Arial"/>
 <text id="text44" style="word-spacing:0;letter-spacing:0" font-size="129.23px" line-height="125%" y="-894.31" x="1558.72" font-family="Gentium Book Basic">
  <tspan id="tspan46" y="-894.31" x="1558.72"/>
 </text>
 <text id="text48" style="text-anchor:middle" transform="scale(4.0128 .2492)" font-size="46.954px" y="-3937.8401" x="585.51001" font-family="Arial"/>
 <text id="text50" style="word-spacing:0;letter-spacing:0" font-size="208.33px" line-height="125%" y="520.40997" x="-274.07999" font-family="Gentium Book Basic">
  <tspan id="tspan52" y="520.40997" x="-274.07999"/>
 </text>
 <g id="g54" fill="#fff" transform="matrix(1.5397 0 0 1.5397 -39.625 -39.618)">
  <path id="path56" d="m58.22 278.64 66.24-55.21c9.379 14.422 21.684 26.73 36.09 36.11l-55.19 66.24c-6.137 7.363-16.723 7.859-23.508 1.074l-24.699-24.69c-6.785-6.785-6.289-17.371 1.074-23.508"/>
  <path id="path58" d="m122.18 157.09c0-57.836 46.891-104.73 104.73-104.73 57.836 0 104.73 46.895 104.73 104.73 0 57.836-46.895 104.73-104.73 104.73-57.836 0-104.73-46.891-104.73-104.73m104.73 78.55c43.31 0 78.55-35.23 78.55-78.55 0-43.31-35.23-78.55-78.55-78.55-43.31 0-78.55 35.23-78.55 78.55 0 43.31 35.23 78.55 78.55 78.55"/>
 </g>
</svg>
