<?xml version="1.0" encoding="UTF-8" standalone="no"?>
<!-- Created with Inkscape (http://www.inkscape.org/) -->
<svg id="svg2" xmlns:rdf="http://www.w3.org/1999/02/22-rdf-syntax-ns#" xmlns="http://www.w3.org/2000/svg" height="100%" width="100%" version="1.1" xmlns:cc="http://creativecommons.org/ns#" viewBox="0 0 512 512" xmlns:dc="http://purl.org/dc/elements/1.1/">
 <metadata id="metadata108">
  <rdf:RDF>
   <cc:Work rdf:about="">
    <dc:format>image/svg+xml</dc:format>
    <dc:type rdf:resource="http://purl.org/dc/dcmitype/StillImage"/>
   </cc:Work>
  </rdf:RDF>
 </metadata>
 <path id="path4" d="m26 0c-14.397 0-26 11.603-26 26v460c0 14.397 11.603 26 26 26h460c14.397 0 26-11.603 26-26v-460c0-14.397-11.6-26-26-26h-460" fill="#e24a4a"/>
 <text id="text6" style="word-spacing:0;letter-spacing:0" font-size="129.23px" line-height="125%" y="116.12" x="-186.00999" font-family="Gentium Book Basic">
  <tspan id="tspan8" y="116.12" x="-186.00999"/>
 </text>
 <text id="text10" style="text-anchor:middle" transform="scale(4.0128 .2492)" font-size="46.954px" y="116.81" x="150.73" font-family="Arial"/>
 <text id="text12" style="word-spacing:0;letter-spacing:0" font-size="129.23px" line-height="125%" y="36.119999" x="395.26001" font-family="Gentium Book Basic">
  <tspan id="tspan14" y="36.119999" x="395.26001"/>
 </text>
 <text id="text16" style="text-anchor:middle" transform="scale(4.0128 .2492)" font-size="46.954px" y="-204.23" x="295.57999" font-family="Arial"/>
 <text id="text18" style="word-spacing:0;letter-spacing:0" font-size="129.23px" line-height="125%" y="-145.14" x="-676.32001" font-family="Gentium Book Basic">
  <tspan id="tspan20" y="-145.14" x="-676.32001"/>
 </text>
 <text id="text22" style="text-anchor:middle" transform="scale(4.0128 .2492)" font-size="46.954px" y="-931.58002" x="28.538" font-family="Arial"/>
 <text id="text24" style="word-spacing:0;letter-spacing:0" font-size="129.23px" line-height="125%" y="-361.60999" x="421.73001" font-family="Gentium Book Basic">
  <tspan id="tspan26" y="-361.60999" x="421.73001"/>
 </text>
 <text id="text28" style="text-anchor:middle" transform="scale(4.0128 .2492)" font-size="46.954px" y="-1800.25" x="302.17999" font-family="Arial"/>
 <text id="text30" style="word-spacing:0;letter-spacing:0" font-size="129.23px" line-height="125%" y="-441.60999" x="1003" font-family="Gentium Book Basic">
  <tspan id="tspan32" y="-441.60999" x="1003"/>
 </text>
 <text id="text34" style="text-anchor:middle" transform="scale(4.0128 .2492)" font-size="46.954px" y="-2121.28" x="447.03" font-family="Arial"/>
 <text id="text36" style="word-spacing:0;letter-spacing:0" font-size="129.23px" line-height="125%" y="-914.01001" x="613.88" font-family="Gentium Book Basic">
  <tspan id="tspan38" y="-914.01001" x="613.88"/>
 </text>
 <text id="text40" style="text-anchor:middle" transform="scale(4.0128 .2492)" font-size="46.954px" y="-4016.9299" x="350.06" font-family="Arial"/>
 <text id="text42" style="word-spacing:0;letter-spacing:0" font-size="129.23px" line-height="125%" y="-994.02002" x="1195.14" font-family="Gentium Book Basic">
  <tspan id="tspan44" y="-994.02002" x="1195.14"/>
 </text>
 <text id="text46" style="text-anchor:middle" transform="scale(4.0128 .2492)" font-size="46.954px" y="-4337.9702" x="494.91" font-family="Arial"/>
 <g id="g48" style="word-spacing:0;letter-spacing:0" font-family="Gentium Book Basic" line-height="125%">
  <text id="text50" y="420.70001" x="-637.65997" font-size="208.33px">
   <tspan id="tspan52" y="420.70001" x="-637.65997"/>
  </text>
  <text id="text54" y="-382.64001" x="-1463.6899" font-size="129.23px">
   <tspan id="tspan56" y="-382.64001" x="-1463.6899"/>
  </text>
 </g>
 <text id="text58" style="text-anchor:middle" transform="scale(4.0128 .2492)" font-size="46.954px" y="-1884.63" x="-167.67" font-family="Arial"/>
 <text id="text60" style="word-spacing:0;letter-spacing:0" font-size="129.23px" line-height="125%" y="-462.64001" x="-882.41998" font-family="Gentium Book Basic">
  <tspan id="tspan62" y="-462.64001" x="-882.41998"/>
 </text>
 <text id="text64" style="text-anchor:middle" transform="scale(4.0128 .2492)" font-size="46.954px" y="-2205.6599" x="-22.823999" font-family="Arial"/>
 <text id="text66" style="word-spacing:0;letter-spacing:0" font-size="129.23px" line-height="125%" y="-643.90002" x="-1954" font-family="Gentium Book Basic">
  <tspan id="tspan68" y="-643.90002" x="-1954"/>
 </text>
 <text id="text70" style="text-anchor:middle" transform="scale(4.0128 .2492)" font-size="46.954px" y="-2933.02" x="-289.85999" font-family="Arial"/>
 <text id="text72" style="word-spacing:0;letter-spacing:0" font-size="129.23px" line-height="125%" y="-860.37" x="-855.95001" font-family="Gentium Book Basic">
  <tspan id="tspan74" y="-860.37" x="-855.95001"/>
 </text>
 <text id="text76" style="text-anchor:middle" transform="scale(4.0128 .2492)" font-size="46.954px" y="-3801.6799" x="-16.224001" font-family="Arial"/>
 <text id="text78" style="word-spacing:0;letter-spacing:0" font-size="129.23px" line-height="125%" y="-940.38" x="-274.67999" font-family="Gentium Book Basic">
  <tspan id="tspan80" y="-940.38" x="-274.67999"/>
 </text>
 <text id="text82" style="text-anchor:middle" transform="scale(4.0128 .2492)" font-size="46.954px" y="-4122.7202" x="128.63" font-family="Arial"/>
 <text id="text84" style="word-spacing:0;letter-spacing:0" font-size="129.23px" line-height="125%" y="-1412.78" x="-663.79999" font-family="Gentium Book Basic">
  <tspan id="tspan86" y="-1412.78" x="-663.79999"/>
 </text>
 <text id="text88" style="text-anchor:middle" transform="scale(4.0128 .2492)" font-size="46.954px" y="-6018.3701" x="31.656" font-family="Arial"/>
 <text id="text90" style="word-spacing:0;letter-spacing:0" font-size="129.23px" line-height="125%" y="-1492.78" x="-82.540001" font-family="Gentium Book Basic">
  <tspan id="tspan92" y="-1492.78" x="-82.540001"/>
 </text>
 <text id="text94" style="text-anchor:middle" transform="scale(4.0128 .2492)" font-size="46.954px" y="-6339.3999" x="176.50999" font-family="Arial"/>
 <text id="text96" style="word-spacing:0;letter-spacing:0" font-size="208.33px" line-height="125%" y="-78.059998" x="-1915.34" font-family="Gentium Book Basic">
  <tspan id="tspan98" y="-78.059998" x="-1915.34"/>
 </text>
 <path id="path100" opacity=".25" d="m353.53 72.56c-0.942-0.003-1.872 0.011-2.813 0.031-37.872 0.805-74.71 19.959-92.56 57.63l-0.813 1.688-28.875-28.875c-7.443-7.443-16.07-14.15-24.594-18.656-16.536-8.764-22.482-11.915-50.594-11.75-26.871 0.145-34.793 3.625-50.875 11.5-22.717 11.12-40.491 29.31-52.56 53.781-7.111 14.428-8.823 23.891-8.844 48.34-0.056 45.33 14.323 79.885 47.719 113.28l2.688 2.656 209.78 209.81h184.81c14.397 0 26-11.603 26-26v-302.66l-77.98-77.97c-21.751-21.751-51.3-32.73-80.5-32.813m-93.06 294.44c5.912 11.942 13.804 22.929 23.22 32.34l3.75 3.75c-12.444 10.995-22.54 20.666-28.469 26.875-1.361-8.825-2.043-18.03-2.031-27.75 0.014-16.544 0.824-26.22 3.531-35.22"/>
 <path id="path102" d="m350.71 72.59c-37.872 0.805-74.69 19.959-92.54 57.62l-6.542 13.792-2.625-10c-4.279-16.185-24.992-38.98-45.12-49.625-16.536-8.764-22.472-11.915-50.583-11.75-26.871 0.145-34.793 3.625-50.875 11.5-22.717 11.12-40.512 29.32-52.583 53.792-7.111 14.428-8.812 23.88-8.833 48.33-0.062 50.15 17.535 87.08 59 123.87 22.489 19.968 30.02 25.797 85.42 66.12 18.707 13.601 41.488 32.765 50.583 42.625 17.301 18.665 13.531 24.921 17.458 17.542 1.733-3.274 15.42-16.89 34.08-33.375-23.999-21.977-39.31-53.777-39.04-86.67-1.552-60.925 52.613-116.34 113.54-116.58 1.741-0.048 3.47-0.075 5.208-0.042 26.08 0.493 51.723 10.1 71.833 26.625 6.164 4.756 11.675 10.187 16.542 16.12 0.304-0.757 0.623-1.528 0.917-2.292 11.513-29.972 10.11-83.13-2.875-108.04-21.11-40.49-62.64-60.44-102.96-59.58m14.458 137.96c-58.43 0-105.79 47.36-105.79 105.79s47.36 105.83 105.79 105.83 105.83-47.4 105.83-105.83-47.4-105.79-105.83-105.79m-2.25 12.167c0.754-0.019 1.495 0 2.25 0 5.284 0.003 10.59 0.453 15.792 1.333l-4.5 55.54c-2.062-0.629-4.162-1.062-6.292-1.333l-7.25-55.54m33.33 5.625c15.594 5.498 29.25 15.07 39.792 27.375l-38.958 39.792c-3.843-5.865-9.314-10.613-15.708-13.625l14.875-53.54m-31 70.58c9.64 0 17.375 7.86 17.375 17.5s-7.734 17.375-17.375 17.375c-9.64 0-17.5-7.734-17.5-17.375 0-9.64 7.86-17.5 17.5-17.5m-24.08 46.958c5.484 4.459 12.05 7.283 19 8.208l-19 52.46c-15.656-4.176-30.17-12.409-41.875-24.08l41.875-36.583" fill="#fff"/>
</svg>
