<?xml version="1.0" encoding="UTF-8" standalone="no"?>
<!-- Created with Inkscape (http://www.inkscape.org/) -->
<svg id="svg2" xmlns:rdf="http://www.w3.org/1999/02/22-rdf-syntax-ns#" xmlns="http://www.w3.org/2000/svg" height="100%" width="100%" version="1.1" xmlns:cc="http://creativecommons.org/ns#" viewBox="0 0 512 512" xmlns:dc="http://purl.org/dc/elements/1.1/">
 <metadata id="metadata60">
  <rdf:RDF>
   <cc:Work rdf:about="">
    <dc:format>image/svg+xml</dc:format>
    <dc:type rdf:resource="http://purl.org/dc/dcmitype/StillImage"/>
   </cc:Work>
  </rdf:RDF>
 </metadata>
 <rect id="rect4" rx="25.988" height="512" width="512" y="0" x="0" fill="#b79c71"/>
 <path id="path6" d="m341.69 40.563c-1.687 0.005-3.5 0.151-5.469 0.438h-45.41c-0.661 23.05 1.312 48.729-0.969 70.16-3.579-5.879-9.852-9.06-13.438-14.938-5.857-3.591-9.07-9.827-14.906-13.438-3.608-5.84-9.851-9.04-13.438-14.906-5.876-3.582-9.05-9.862-14.938-13.438-4.82-4.887-7.788-11.63-15.688-13.438-18.771 0.001-37.545-0.002-56.31 0v71.72c5.873 3.586 9.06 9.859 14.938 13.438 3.563 5.875 9.837 9.04 13.406 14.906 4.964 4.555 20.832 13.956-0.063 14.375-23.6 6.465-52.704 14.282-26.969 46 5.23 12.961 6.266 11.373-2.844 20.25 14.834 17.03 36.657 32.838 49.22 49.25 31.543 31.543 21.14 17.536-2.375 17.09-40.01 7.549-88.26 27.899-92.47 73.13-6.04 33.831 5.535 70.55 33.25 91.38 19.73 19.782 39.531 39.644 59.28 59.47h279.5c14.397 0 26-11.603 26-26v-284.06c-5.617-3.623-8.822-9.656-14.531-13.188-3.611-5.837-9.847-9.05-13.438-14.906-5.876-3.582-9.05-9.862-14.938-13.438-3.575-5.883-9.855-9.06-13.438-14.938-5.862-3.586-9.07-9.829-14.906-13.438-3.611-5.837-9.847-9.05-13.438-14.906-5.874-3.584-9.06-9.86-14.938-13.438-3.575-5.883-9.855-9.06-13.438-14.938-5.868-3.569-9.03-9.844-14.906-13.406-3.58-5.878-9.852-9.06-13.438-14.938-5.02-3.943-9.707-8.21-13.438-13.438-3.369-3.922-8.158-6.426-15.469-6.406" fill-opacity="0.235"/>
 <text id="text8" style="word-spacing:0;letter-spacing:0" font-size="129.23px" line-height="125%" y="160.60001" x="113.14" font-family="Gentium Book Basic">
  <tspan id="tspan10" y="160.60001" x="113.14"/>
 </text>
 <text id="text12" style="text-anchor:middle" transform="scale(4.0128 .2492)" font-size="46.954px" y="295.32001" x="225.27" font-family="Arial"/>
 <text id="text14" style="word-spacing:0;letter-spacing:0" font-size="129.23px" line-height="125%" y="80.599998" x="694.40997" font-family="Gentium Book Basic">
  <tspan id="tspan16" y="80.599998" x="694.40997"/>
 </text>
 <text id="text18" style="text-anchor:middle" transform="scale(4.0128 .2492)" font-size="46.954px" y="-25.709" x="370.12" font-family="Arial"/>
 <text id="text20" style="word-spacing:0;letter-spacing:0" font-size="129.23px" line-height="125%" y="-100.66" x="-377.17001" font-family="Gentium Book Basic">
  <tspan id="tspan22" y="-100.66" x="-377.17001"/>
 </text>
 <text id="text24" style="text-anchor:middle" transform="scale(4.0128 .2492)" font-size="46.954px" y="-753.07001" x="103.08" font-family="Arial"/>
 <text id="text26" style="word-spacing:0;letter-spacing:0" font-size="129.23px" line-height="125%" y="-317.13" x="720.88" font-family="Gentium Book Basic">
  <tspan id="tspan28" y="-317.13" x="720.88"/>
 </text>
 <text id="text30" style="text-anchor:middle" transform="scale(4.0128 .2492)" font-size="46.954px" y="-1621.73" x="376.72" font-family="Arial"/>
 <text id="text32" style="word-spacing:0;letter-spacing:0" font-size="129.23px" line-height="125%" y="-397.14001" x="1302.15" font-family="Gentium Book Basic">
  <tspan id="tspan34" y="-397.14001" x="1302.15"/>
 </text>
 <text id="text36" style="text-anchor:middle" transform="scale(4.0128 .2492)" font-size="46.954px" y="-1942.77" x="521.57001" font-family="Arial"/>
 <text id="text38" style="word-spacing:0;letter-spacing:0" font-size="129.23px" line-height="125%" y="-869.53998" x="913.03003" font-family="Gentium Book Basic">
  <tspan id="tspan40" y="-869.53998" x="913.03003"/>
 </text>
 <text id="text42" style="text-anchor:middle" transform="scale(4.0128 .2492)" font-size="46.954px" y="-3838.4199" x="424.60001" font-family="Arial"/>
 <text id="text44" style="word-spacing:0;letter-spacing:0" font-size="129.23px" line-height="125%" y="-949.53998" x="1494.29" font-family="Gentium Book Basic">
  <tspan id="tspan46" y="-949.53998" x="1494.29"/>
 </text>
 <text id="text48" style="text-anchor:middle" transform="scale(4.0128 .2492)" font-size="46.954px" y="-4159.4502" x="569.45001" font-family="Arial"/>
 <text id="text50" style="word-spacing:0;letter-spacing:0" font-size="208.33px" line-height="125%" y="465.17999" x="-338.51001" font-family="Gentium Book Basic">
  <tspan id="tspan52" y="465.17999" x="-338.51001"/>
 </text>
 <path id="path54" d="m161.12 112.71v-71.71h60.08v71.71h-60.08m129.7 0v-71.71h60.38v71.71h-60.38m-72.71 358.28c-31.424 0-56.899-7.913-76.4-23.722-19.307-15.999-28.959-38.961-28.959-68.888 0-32.19 11.501-55.995 34.505-71.43 23-15.623 57.713-25.503 104.12-29.644 6.366-0.752 13.247-1.505 20.639-2.259 7.394-0.752 15.712-1.505 24.954-2.259 9.242-0.752 16.533-1.413 21.874-1.976v-16.374c0-18.822-4.719-32.467-14.174-40.932-9.454-8.658-23.817-12.988-43.13-12.988-27.522 0-61.51 7.06-101.97 21.17-0.204-0.565-3.595-9.129-10.167-25.692s-9.961-25.03-10.167-25.406c39.844-15.623 82.975-23.433 129.39-23.433 45.595 0 78.77 9.129 99.51 27.386 20.743 18.07 31.12 47.43 31.12 88.09v202.43h-59.767c-0.206-0.752-2.465-7.06-6.777-18.909-4.313-11.858-6.47-18.16-6.47-18.909-16.842 15.06-33.381 26.16-49.6 33.32-16.02 6.964-35.532 10.445-58.54 10.445m21.873-52.51c18.69 0 34.923-4.046 48.677-12.14 13.966-8.281 23.927-18.258 29.883-29.921v-59.857c-0.617 0-6.06 0.376-16.327 1.129-10.06 0.752-15.506 1.13-16.329 1.13-32.656 2.635-56.58 8.282-71.783 16.939-15.198 8.658-22.798 22.587-22.798 41.785 0 13.175 4.21 23.339 12.632 30.492 8.421 6.964 20.436 10.447 36.04 10.445" fill="#fff"/>
</svg>
