<?xml version="1.0" encoding="UTF-8" standalone="no"?>
<!-- Created with Inkscape (http://www.inkscape.org/) -->
<svg id="svg2" xmlns:rdf="http://www.w3.org/1999/02/22-rdf-syntax-ns#" xmlns="http://www.w3.org/2000/svg" height="100%" width="100%" version="1.1" xmlns:cc="http://creativecommons.org/ns#" viewBox="0 0 512 512" xmlns:dc="http://purl.org/dc/elements/1.1/">
 <metadata id="metadata78">
  <rdf:RDF>
   <cc:Work rdf:about="">
    <dc:format>image/svg+xml</dc:format>
    <dc:type rdf:resource="http://purl.org/dc/dcmitype/StillImage"/>
   </cc:Work>
  </rdf:RDF>
 </metadata>
 <rect id="rect4" rx="25.988" height="512" width="512" y="0" x="0" fill="#924565"/>
 <path id="path6" fill-opacity="0.235" d="m255.41 40.594c-35.25 0.568-67.4 36.4-57.719 72.75-24.525-22.307-44.832-50.11-73.25-67.41-7.476-3.263-15.626-4.946-23.781-4.938-46.3-2.288-77.31 57.05-48.938 93.75 19.346 22.05 41.21 41.843 61.63 62.938-45.728-12.351-88.9 41.34-66.844 83.34 17.478 27.683 45.842 46.37 68.56 69.69 2.598 5.262-47.46-3.692-56.59 18.438-28.26 26.436-19.74 74.06 11.06 94.66 17.14 16.225 34.511 32.22 51.906 48.19h364.56c14.397 0 26-11.603 26-26v-363.53c-20.03-21.972-40.11-43.905-60.31-65.719-33.12-33.742-97.21-9.287-99.69 37.813 2.544 24.715 4.292 29.875-11.844 9.844-21.29-20.504-37.08-48.42-65.07-60.28-6.5-2.535-13.16-3.636-19.69-3.531" fill-rule="evenodd"/>
 <text id="text8" style="word-spacing:0;letter-spacing:0" font-size="129.23px" line-height="125%" y="131.46001" x="68.650002" font-family="Gentium Book Basic">
  <tspan id="tspan10" y="131.46001" x="68.650002"/>
 </text>
 <text id="text12" style="text-anchor:middle" transform="scale(4.0128 .2492)" font-size="46.954px" y="178.36" x="214.19" font-family="Arial"/>
 <text id="text14" style="word-spacing:0;letter-spacing:0" font-size="129.23px" line-height="125%" y="51.459999" x="649.91998" font-family="Gentium Book Basic">
  <tspan id="tspan16" y="51.459999" x="649.91998"/>
 </text>
 <text id="text18" style="text-anchor:middle" transform="scale(4.0128 .2492)" font-size="46.954px" y="-142.67" x="359.04001" font-family="Arial"/>
 <text id="text20" style="word-spacing:0;letter-spacing:0" font-size="129.23px" line-height="125%" y="-129.8" x="-421.66" font-family="Gentium Book Basic">
  <tspan id="tspan22" y="-129.8" x="-421.66"/>
 </text>
 <text id="text24" style="text-anchor:middle" transform="scale(4.0128 .2492)" font-size="46.954px" y="-870.03003" x="92" font-family="Arial"/>
 <text id="text26" style="word-spacing:0;letter-spacing:0" font-size="129.23px" line-height="125%" y="-346.26999" x="676.39001" font-family="Gentium Book Basic">
  <tspan id="tspan28" y="-346.26999" x="676.39001"/>
 </text>
 <text id="text30" style="text-anchor:middle" transform="scale(4.0128 .2492)" font-size="46.954px" y="-1738.6899" x="365.64001" font-family="Arial"/>
 <text id="text32" style="word-spacing:0;letter-spacing:0" font-size="129.23px" line-height="125%" y="-426.28" x="1257.66" font-family="Gentium Book Basic">
  <tspan id="tspan34" y="-426.28" x="1257.66"/>
 </text>
 <text id="text36" style="text-anchor:middle" transform="scale(4.0128 .2492)" font-size="46.954px" y="-2059.73" x="510.48999" font-family="Arial"/>
 <text id="text38" style="word-spacing:0;letter-spacing:0" font-size="129.23px" line-height="125%" y="-898.67999" x="868.53998" font-family="Gentium Book Basic">
  <tspan id="tspan40" y="-898.67999" x="868.53998"/>
 </text>
 <text id="text42" style="text-anchor:middle" transform="scale(4.0128 .2492)" font-size="46.954px" y="-3955.3799" x="413.51999" font-family="Arial"/>
 <text id="text44" style="word-spacing:0;letter-spacing:0" font-size="129.23px" line-height="125%" y="-978.67999" x="1449.8" font-family="Gentium Book Basic">
  <tspan id="tspan46" y="-978.67999" x="1449.8"/>
 </text>
 <text id="text48" style="text-anchor:middle" transform="scale(4.0128 .2492)" font-size="46.954px" y="-4276.4102" x="558.37" font-family="Arial"/>
 <text id="text50" style="word-spacing:0;letter-spacing:0" font-size="208.33px" line-height="125%" y="436.04001" x="-383" font-family="Gentium Book Basic">
  <tspan id="tspan52" y="436.04001" x="-383"/>
 </text>
 <g id="g54" fill-rule="evenodd" fill="#fff" transform="matrix(1.8022 0 0 1.8022 -209.15 -1195.9)">
  <path id="path56" d="m344.29 858.72c-18.28 0-33.1 14.818-33.1 33.1 0 18.28 14.818 33.1 33.1 33.1 18.28 0 33.1-14.818 33.1-33.1 0-18.28-14.818-33.1-33.1-33.1"/>
  <path id="path58" d="m171.9 858.72c-18.28 0-33.1 14.818-33.1 33.1 0 18.28 14.818 33.1 33.1 33.1 18.28 0 33.1-14.818 33.1-33.1 0-18.28-14.818-33.1-33.1-33.1"/>
  <path id="path60" d="m344.29 772.52c-18.28 0-33.1 14.818-33.1 33.1 0 18.28 14.818 33.1 33.1 33.1 18.28 0 33.1-14.818 33.1-33.1 0-18.28-14.818-33.1-33.1-33.1"/>
  <path id="path62" d="m171.9 772.52c-18.28 0-33.1 14.818-33.1 33.1 0 18.28 14.818 33.1 33.1 33.1 18.28 0 33.1-14.818 33.1-33.1 0-18.28-14.818-33.1-33.1-33.1"/>
  <path id="path64" d="m344.29 686.33c-18.28 0-33.1 14.818-33.1 33.1 0 18.28 14.818 33.1 33.1 33.1 18.28 0 33.1-14.818 33.1-33.1 0-18.28-14.818-33.1-33.1-33.1"/>
  <path id="path66" d="m171.9 686.33c-18.28 0-33.1 14.818-33.1 33.1 0 18.28 14.818 33.1 33.1 33.1 18.28 0 33.1-14.818 33.1-33.1 0-18.28-14.818-33.1-33.1-33.1"/>
  <path id="path68" d="m258.1 858.72c-18.28 0-33.1 14.818-33.1 33.1 0 18.28 14.818 33.1 33.1 33.1 18.28 0 33.1-14.818 33.1-33.1 0-18.28-14.818-33.1-33.1-33.1"/>
  <path id="path70" d="m258.1 772.52c-18.28 0-33.1 14.818-33.1 33.1 0 18.28 14.818 33.1 33.1 33.1 18.28 0 33.1-14.818 33.1-33.1 0-18.28-14.818-33.1-33.1-33.1"/>
  <path id="path72" d="m258.1 686.33c-18.28 0-33.1 14.818-33.1 33.1 0 18.28 14.818 33.1 33.1 33.1 18.28 0 33.1-14.818 33.1-33.1 0-18.28-14.818-33.1-33.1-33.1"/>
 </g>
</svg>
