<svg xmlns="http://www.w3.org/2000/svg" xmlns:svg="http://www.w3.org/2000/svg" id="svg2" width="100%" height="100%" version="1.1" viewBox="0 0 512 512"><metadata id="metadata60"/><rect style="fill:#289ed9" id="rect4" width="512" height="512" x="-.005" y="-.002" rx="25.988"/><path style="fill-opacity:.23500001" id="path6" d="m 383.1845,40.998 c -66.01,8.448 -131.51,37.907 -198.81,21.688 -34.36,-9.845 -95.49,-32.532 -103.84,21.469 -1.898,42.15 24.899,78.56 32.813,119.13 10.417,37.447 19.09,75.843 36.875,110.69 -26.862,-14.753 -0.259,-0.549 -73.59,-39.813 0.497,63.703 0.083,133.12 0.219,196.84 14.06,13.56 27.992,27.25 41.844,41 l 367.31,0 c 14.397,0 26,-11.603 26,-26 l 0,-336.91 c -32.09,-31.987 -64.29,-63.838 -96.75,-95.41 -9.344,-6.805 -20.233,-12.551 -32.06,-12.688"/><path id="path54" d="m 379.1245,41.098 c -11.38,0.696 -27.23,4.645 -56.54,11.755 -76.47,18.551 -100.2,18.885 -164.57,3.358 -47.02,-11.344 -49.36,-11.193 -63.815,1.119 -18.691,15.922 -18.758,42.946 -1.119,85.09 7.413,17.71 20.477,59.26 29.11,92.93 18.766,73.18 42.956,115.3 75.57,130.42 58.41,33.62 92.5,-1.995 110.83,-17.912 22.424,-22.21 36.01,-45.625 54.3,-94.6 25.495,-68.28 35.622,-90.09 61.57,-131.55 19.18,-30.626 12.257,-57.652 -18.472,-73.889 -9.03,-4.769 -15.494,-7.412 -26.869,-6.717 m -64.37,104.12 c 14.1,-0.681 26.618,11.54 31.347,35.26 6.459,32.405 -7.21,59.33 -29.667,59.33 -10.137,0 -24.436,-6.435 -32.466,-13.994 -17.882,-16.833 -18.529,-29.457 -2.239,-55.42 10.223,-16.29 22.06,-24.659 33.03,-25.19 m -142.75,12.875 c 17.934,0.942 35.11,32.16 27.428,52.617 -9.154,24.377 -22.16,26.04 -36.39,5.597 -14.782,-21.236 -11.871,-54.638 5.04,-57.655 1.197,-0.21 2.722,-0.629 3.919,-0.561 m -95.16,115.87 0,197.03 322.43,0 0,-161.21 c -125.39,143.3 -232.85,143.3 -322.43,-35.825 m 166.25,0 c 24.732,0 44.22,20.05 44.22,44.779 0,24.732 -19.488,44.779 -44.22,44.779 -24.732,0 -50.939,-36.841 -50.939,-61.57 0,-24.732 26.21,-27.989 50.939,-27.989" style="fill:#fff"/></svg>