<?xml version="1.0" encoding="UTF-8" standalone="no"?>
<!-- Created with Inkscape (http://www.inkscape.org/) -->
<svg id="svg2" xmlns:rdf="http://www.w3.org/1999/02/22-rdf-syntax-ns#" xmlns="http://www.w3.org/2000/svg" height="100%" width="100%" version="1.1" xmlns:cc="http://creativecommons.org/ns#" viewBox="0 0 512 512" xmlns:dc="http://purl.org/dc/elements/1.1/">
 <metadata id="metadata60">
  <rdf:RDF>
   <cc:Work rdf:about="">
    <dc:format>image/svg+xml</dc:format>
    <dc:type rdf:resource="http://purl.org/dc/dcmitype/StillImage"/>
   </cc:Work>
  </rdf:RDF>
 </metadata>
 <rect id="rect4" rx="25.988" height="512" width="512" y="0" x="0" fill="#289ed9"/>
 <path id="path6" d="m383.19 41c-66.01 8.448-131.51 37.907-198.81 21.688-34.36-9.845-95.49-32.532-103.84 21.469-1.898 42.15 24.899 78.56 32.813 119.13 10.417 37.447 19.09 75.843 36.875 110.69-26.862-14.753-0.259-0.549-73.59-39.813 0.497 63.703 0.083 133.12 0.219 196.84 14.06 13.56 27.992 27.25 41.844 41h367.31c14.397 0 26-11.603 26-26v-336.91c-32.09-31.987-64.29-63.838-96.75-95.41-9.344-6.805-20.233-12.551-32.06-12.688" fill-opacity="0.235"/>
 <text id="text8" style="word-spacing:0;letter-spacing:0" font-size="129.23px" line-height="125%" y="165.21001" x="10.353" font-family="Gentium Book Basic">
  <tspan id="tspan10" y="165.21001" x="10.353"/>
 </text>
 <text id="text12" style="text-anchor:middle" transform="scale(4.0128 .2492)" font-size="46.954px" y="313.79001" x="199.66" font-family="Arial"/>
 <text id="text14" style="word-spacing:0;letter-spacing:0" font-size="129.23px" line-height="125%" y="85.209999" x="591.62" font-family="Gentium Book Basic">
  <tspan id="tspan16" y="85.209999" x="591.62"/>
 </text>
 <text id="text18" style="text-anchor:middle" transform="scale(4.0128 .2492)" font-size="46.954px" y="-7.2420001" x="344.51001" font-family="Arial"/>
 <text id="text20" style="word-spacing:0;letter-spacing:0" font-size="129.23px" line-height="125%" y="-96.050003" x="-479.95999" font-family="Gentium Book Basic">
  <tspan id="tspan22" y="-96.050003" x="-479.95999"/>
 </text>
 <text id="text24" style="text-anchor:middle" transform="scale(4.0128 .2492)" font-size="46.954px" y="-734.59998" x="77.470001" font-family="Arial"/>
 <text id="text26" style="word-spacing:0;letter-spacing:0" font-size="129.23px" line-height="125%" y="-312.51999" x="618.09003" font-family="Gentium Book Basic">
  <tspan id="tspan28" y="-312.51999" x="618.09003"/>
 </text>
 <text id="text30" style="text-anchor:middle" transform="scale(4.0128 .2492)" font-size="46.954px" y="-1603.26" x="351.10999" font-family="Arial"/>
 <text id="text32" style="word-spacing:0;letter-spacing:0" font-size="129.23px" line-height="125%" y="-392.53" x="1199.36" font-family="Gentium Book Basic">
  <tspan id="tspan34" y="-392.53" x="1199.36"/>
 </text>
 <text id="text36" style="text-anchor:middle" transform="scale(4.0128 .2492)" font-size="46.954px" y="-1924.3" x="495.95999" font-family="Arial"/>
 <text id="text38" style="word-spacing:0;letter-spacing:0" font-size="129.23px" line-height="125%" y="-864.92999" x="810.23999" font-family="Gentium Book Basic">
  <tspan id="tspan40" y="-864.92999" x="810.23999"/>
 </text>
 <text id="text42" style="text-anchor:middle" transform="scale(4.0128 .2492)" font-size="46.954px" y="-3819.95" x="398.98999" font-family="Arial"/>
 <text id="text44" style="word-spacing:0;letter-spacing:0" font-size="129.23px" line-height="125%" y="-944.92999" x="1391.5" font-family="Gentium Book Basic">
  <tspan id="tspan46" y="-944.92999" x="1391.5"/>
 </text>
 <text id="text48" style="text-anchor:middle" transform="scale(4.0128 .2492)" font-size="46.954px" y="-4140.98" x="543.84003" font-family="Arial"/>
 <text id="text50" style="word-spacing:0;letter-spacing:0" font-size="208.33px" line-height="125%" y="469.79001" x="-441.29999" font-family="Gentium Book Basic">
  <tspan id="tspan52" y="469.79001" x="-441.29999"/>
 </text>
 <path id="path54" d="m379.13 41.1c-11.38 0.696-27.23 4.645-56.54 11.755-76.47 18.551-100.2 18.885-164.57 3.358-47.02-11.344-49.36-11.193-63.815 1.119-18.691 15.922-18.758 42.946-1.119 85.09 7.413 17.71 20.477 59.26 29.11 92.93 18.766 73.18 42.956 115.3 75.57 130.42 58.41 33.62 92.5-1.995 110.83-17.912 22.424-22.21 36.01-45.625 54.3-94.6 25.495-68.28 35.622-90.09 61.57-131.55 19.18-30.626 12.257-57.652-18.472-73.889-9.03-4.769-15.494-7.412-26.869-6.717m-64.37 104.12c14.1-0.681 26.618 11.54 31.347 35.26 6.459 32.405-7.21 59.33-29.667 59.33-10.137 0-24.436-6.435-32.466-13.994-17.882-16.833-18.529-29.457-2.239-55.42 10.223-16.29 22.06-24.659 33.03-25.19m-142.75 12.875c17.934 0.942 35.11 32.16 27.428 52.617-9.154 24.377-22.16 26.04-36.39 5.597-14.782-21.236-11.871-54.638 5.04-57.655 1.197-0.21 2.722-0.629 3.919-0.561m-95.16 115.87v197.03h322.43v-161.21c-125.39 143.3-232.85 143.3-322.43-35.825m166.25 0c24.732 0 44.22 20.05 44.22 44.779 0 24.732-19.488 44.779-44.22 44.779s-50.939-36.841-50.939-61.57c0-24.732 26.21-27.989 50.939-27.989" fill="#f9f9f9"/>
</svg>
