<?xml version="1.0" encoding="UTF-8" standalone="no"?>
<!-- Created with Inkscape (http://www.inkscape.org/) -->
<svg id="svg2" xmlns:rdf="http://www.w3.org/1999/02/22-rdf-syntax-ns#" xmlns="http://www.w3.org/2000/svg" height="100%" width="100%" version="1.1" xmlns:cc="http://creativecommons.org/ns#" viewBox="0 0 512 512" xmlns:dc="http://purl.org/dc/elements/1.1/">
 <metadata id="metadata20">
  <rdf:RDF>
   <cc:Work rdf:about="">
    <dc:format>image/svg+xml</dc:format>
    <dc:type rdf:resource="http://purl.org/dc/dcmitype/StillImage"/>
   </cc:Work>
  </rdf:RDF>
 </metadata>
 <rect id="rect4" rx="25.988" height="512" width="512" y="0" x="0" fill="#62c0dc"/>
 <path id="path6" fill-opacity="0.235" d="m256.09 41.875c-65.46-0.523-129.99 31.23-169.84 83.085l79.41 137.91c2.403 0.705 11.239 8.201 8.906 7.75 3.885 5.466 6.445 6.456 9.969 10.688 3.934 4.265 6.215 4.413 12.469 15.13 6.312 12.255 23.892 20.07 29.844 27.625 1.784 0.047 10.687 11.806 8.906 7.719 3.899 5.574 6.428 6.429 9.969 10.75 14.925 9.135-25.989 0.88-36.09-8.125l-154.37-154.37c-34.998 86.8-3.761 192.97 71.09 248.63 31.434 31.434 58.49 58.62 83 83.34h276.66c14.397 0 26-11.603 26-26v-277.12c-38.18-38.16-76.43-76.24-114.91-114.09-38.564-33.945-89.61-53.14-141-52.906m-5.438 304.84c1.258 0.644-0.675 0.825 0 0" fill-rule="evenodd"/>
 <text id="text8" style="word-spacing:0;letter-spacing:0" font-size="200px" line-height="125%" y="501.17001" x="-1722.25" font-family="Gentium Book Basic">
  <tspan id="tspan10" y="501.17001" x="-1722.25"/>
 </text>
 <text id="text12" style="text-anchor:middle" transform="scale(4.0128 .2492)" font-size="72.67px" y="1470.73" x="-124.17" font-family="Arial"/>
 <path id="path14" fill="#fff" d="m256.11 41.87c-69.03 0-130.49 32.541-169.86 83.11l79.41 137.9c-0.136-2.022-0.255-4.097-0.255-6.154 0-50.04 40.66-90.45 90.7-90.45 0.575 0 1.168-0.008 1.74 0l165.45-44.27c-39.38-48.842-99.53-80.13-167.19-80.13m38.624 132.98c30.663 14.451 51.867 45.652 51.867 81.87 0 22.518-8.08 43.13-21.646 58.997l-41.3 154.41c105.78-13.48 187.36-103.99 187.36-213.42 0-28.987-5.821-56.658-16.214-81.87h-160.06m-239.47 5.178c-9.122 23.823-14.261 49.672-14.261 76.7 0 108.25 80.24 197.93 184.38 212.9l78.69-135.95c-13.89 8.716-30.339 13.752-47.962 13.752-32.841 0-61.49-17.572-77.42-43.76l-123.44-123.64m202.8 4.0746a71.947 71.947 0 0 0 -74.022 71.943 71.947 71.947 0 0 0 143.89 0 71.947 71.947 0 0 0 -69.863 -71.943" fill-rule="evenodd"/>
</svg>
