<svg xmlns="http://www.w3.org/2000/svg" xmlns:svg="http://www.w3.org/2000/svg" id="svg2" version="1.1" viewBox="0 0 512 512"><metadata id="metadata7332"/><path style="fill:#3099b8" id="path5790" d="M 26,0 C 11.603,0 0,11.603 0,26 l 0,460 c 0,14.397 11.603,26 26,26 l 460,0 c 14.397,0 26,-11.603 26,-26 L 512,26 C 512,11.603 500.397,0 486,0 L 26,0"/><path style="opacity:.25" id="path7324" d="m 256,41 c -11.833,0 -21.355,8.734 -21.355,19.617 l 0,42.28 c -68.28,9.441 -122.31,63.47 -131.75,131.75 l -42.28,0 c -10.883,0 -19.617,9.523 -19.617,21.355 0,6.245 2.432,11.846 6.33,15.744 l 192.92,192.91 0.006,0.006 c 0.002,0.002 0.002,0.004 0.004,0.006 l 47.33,47.33 198.41,0 c 14.397,0 26,-11.603 26,-26 l 0,-198.41 -47.33,-47.33 c -0.004,-0.004 -0.008,-0.006 -0.012,-0.01 L 271.746,47.328 c -3.898,-3.898 -9.499,-6.33 -15.744,-6.33"/><path style="fill:#fff" id="path7326" d="m 256,41 c -11.833,0 -21.355,8.735 -21.355,19.618 l 0,42.28 c -68.28,9.441 -122.31,63.47 -131.75,131.75 l -42.28,0 c -10.883,0 -19.618,9.522 -19.618,21.355 0,11.833 8.735,21.355 19.618,21.355 l 42.28,0 c 9.441,68.28 63.47,122.31 131.75,131.75 l 0,42.28 c 0,10.883 9.522,19.618 21.355,19.618 11.833,0 21.355,-8.735 21.355,-19.618 l 0,-42.28 c 68.28,-9.441 122.31,-63.47 131.75,-131.75 l 42.28,0 c 10.883,0 19.618,-9.522 19.618,-21.355 0,-11.833 -8.735,-21.355 -19.618,-21.355 l -42.28,0 c -9.441,-68.28 -63.47,-122.31 -131.75,-131.75 l 0,-42.28 C 277.355,49.735 267.833,41 256,41 m -21.355,97.87 0,40.792 c 0,10.883 9.522,19.618 21.355,19.618 11.833,0 21.355,-8.735 21.355,-19.618 l 0,-40.792 c 48.62,8.81 86.962,47.15 95.77,95.77 l -40.792,0 c -10.883,0 -19.618,9.522 -19.618,21.355 0,11.833 8.735,21.355 19.618,21.355 l 40.792,0 c -8.81,48.62 -47.15,86.962 -95.77,95.77 l 0,-40.792 c 0,-10.883 -9.522,-19.618 -21.355,-19.618 -11.833,0 -21.355,8.735 -21.355,19.618 l 0,40.792 c -48.62,-8.81 -86.962,-47.15 -95.77,-95.77 l 40.792,0 c 10.883,0 19.618,-9.522 19.618,-21.355 0,-11.833 -8.735,-21.355 -19.618,-21.355 l -40.792,0 c 8.81,-48.62 47.15,-86.962 95.77,-95.77 z"/></svg>