<?xml version="1.0" encoding="UTF-8" standalone="no"?>
<!-- Created with Inkscape (http://www.inkscape.org/) -->
<svg id="svg2" xmlns:rdf="http://www.w3.org/1999/02/22-rdf-syntax-ns#" xmlns="http://www.w3.org/2000/svg" height="100%" width="100%" version="1.1" xmlns:cc="http://creativecommons.org/ns#" viewBox="0 0 512 512" xmlns:dc="http://purl.org/dc/elements/1.1/">
 <metadata id="metadata90">
  <rdf:RDF>
   <cc:Work rdf:about="">
    <dc:format>image/svg+xml</dc:format>
    <dc:type rdf:resource="http://purl.org/dc/dcmitype/StillImage"/>
   </cc:Work>
  </rdf:RDF>
 </metadata>
 <rect id="rect4" rx="25.988" height="512" width="512" y="0" x="0" fill="#f38725"/>
 <path id="path6" fill-opacity="0.235" d="m221.88 41.22c-34.919 0.07-60.54 30.22-30.28 62.781 16.577 32.651 21.64 68.39 41.19 99.06 4.228 3.896 25.13 24.329 12.344 15.969-38.35-38.16-76.7-76.51-114.94-114.94-32.797-7.672-60.993 32.1-68.844 61.09-4.707 19.815 17.94 29.25 26.969 41.75 11.936 11.429 24.08 23.997 36.38 36.406-28.724 0.377-81.36-27.551-82.53 20.19-5.882 31.777 6.344 64.39 31.531 84.28 11.199 11.1 22.345 22.259 33.531 33.375-12.145 23.1 15.677 41.971 30.16 58 24.333 24.26 48.645 48.543 72.969 72.813h275.66c5.858 0 11.255-1.908 15.594-5.156 0.66-0.494 1.297-1.04 1.906-1.594 0.615-0.559 1.191-1.135 1.75-1.75 0.553-0.609 1.1-1.246 1.594-1.906 0.005-0.007-0.005-0.024 0-0.031 0.991-1.327 1.868-2.743 2.594-4.25 0.004-0.008-0.004-0.023 0-0.031 0.178-0.371 0.37-0.745 0.531-1.125 0.004-0.009-0.004-0.022 0-0.031 0.488-1.158 0.9-2.356 1.219-3.594 0.002-0.01-0.002-0.022 0-0.031 0.317-1.238 0.554-2.509 0.688-3.813 0.001-0.01-0.001-0.021 0-0.031 0.089-0.876 0.125-1.756 0.125-2.656v-276.28c-42.1-42-84.15-84.09-126-126.34-52.79-16.276-44.88-20.13-72.44 11.969-18.297-16.312-33.07-37.547-54.31-49.781-9.893-2.56-20.15-3.986-30.375-3.938-2.331-0.271-4.672-0.411-7-0.406" fill-rule="evenodd"/>
 <g id="g8" style="word-spacing:0;letter-spacing:0" transform="translate(-614.97,19.754)" font-size="208.33px" font-family="Gentium Book Basic" line-height="125%">
  <text id="text10" y="79.279999" x="432.23001">
   <tspan id="tspan12" y="79.279999" x="432.23001"/>
  </text>
  <text id="text14" y="357.39999" x="-1926.6">
   <tspan id="tspan16" y="357.39999" x="-1926.6"/>
  </text>
  <text id="text18" y="130.11" x="-1638.38">
   <tspan id="tspan20" y="130.11" x="-1638.38"/>
  </text>
  <text id="text22" y="-126.79" x="2556.22">
   <tspan id="tspan24" y="-126.79" x="2556.22"/>
  </text>
  <text id="text26" y="18.247" x="428.29001">
   <tspan id="tspan28" y="18.247" x="428.29001"/>
  </text>
  <text id="text30" y="296.35999" x="-1930.54">
   <tspan id="tspan32" y="296.35999" x="-1930.54"/>
  </text>
  <text id="text34" y="69.080002" x="-1642.33">
   <tspan id="tspan36" y="69.080002" x="-1642.33"/>
  </text>
 </g>
 <text id="text38" style="word-spacing:0;letter-spacing:0" font-size="129.23px" line-height="125%" y="251.11" x="114.67" font-family="Gentium Book Basic">
  <tspan id="tspan40" y="251.11" x="114.67"/>
 </text>
 <text id="text42" style="text-anchor:middle" transform="scale(4.0128 .2492)" font-size="46.954px" y="658.52002" x="225.66" font-family="Arial"/>
 <text id="text44" style="word-spacing:0;letter-spacing:0" font-size="129.23px" line-height="125%" y="171.11" x="695.94" font-family="Gentium Book Basic">
  <tspan id="tspan46" y="171.11" x="695.94"/>
 </text>
 <text id="text48" style="text-anchor:middle" transform="scale(4.0128 .2492)" font-size="46.954px" y="337.48999" x="370.51001" font-family="Arial"/>
 <text id="text50" style="word-spacing:0;letter-spacing:0" font-size="129.23px" line-height="125%" y="-10.147" x="-375.64001" font-family="Gentium Book Basic">
  <tspan id="tspan52" y="-10.147" x="-375.64001"/>
 </text>
 <text id="text54" style="text-anchor:middle" transform="scale(4.0128 .2492)" font-size="46.954px" y="-389.87" x="103.47" font-family="Arial"/>
 <text id="text56" style="word-spacing:0;letter-spacing:0" font-size="129.23px" line-height="125%" y="-226.62" x="722.40997" font-family="Gentium Book Basic">
  <tspan id="tspan58" y="-226.62" x="722.40997"/>
 </text>
 <text id="text60" style="text-anchor:middle" transform="scale(4.0128 .2492)" font-size="46.954px" y="-1258.53" x="377.10999" font-family="Arial"/>
 <text id="text62" style="word-spacing:0;letter-spacing:0" font-size="129.23px" line-height="125%" y="-306.63" x="1303.6801" font-family="Gentium Book Basic">
  <tspan id="tspan64" y="-306.63" x="1303.6801"/>
 </text>
 <text id="text66" style="text-anchor:middle" transform="scale(4.0128 .2492)" font-size="46.954px" y="-1579.5699" x="521.96002" font-family="Arial"/>
 <text id="text68" style="word-spacing:0;letter-spacing:0" font-size="129.23px" line-height="125%" y="-779.03003" x="914.56" font-family="Gentium Book Basic">
  <tspan id="tspan70" y="-779.03003" x="914.56"/>
 </text>
 <text id="text72" style="text-anchor:middle" transform="scale(4.0128 .2492)" font-size="46.954px" y="-3475.22" x="424.98999" font-family="Arial"/>
 <text id="text74" style="word-spacing:0;letter-spacing:0" font-size="129.23px" line-height="125%" y="-859.03003" x="1495.8199" font-family="Gentium Book Basic">
  <tspan id="tspan76" y="-859.03003" x="1495.8199"/>
 </text>
 <text id="text78" style="text-anchor:middle" transform="scale(4.0128 .2492)" font-size="46.954px" y="-3796.25" x="569.83002" font-family="Arial"/>
 <text id="text80" style="word-spacing:0;letter-spacing:0" font-size="208.33px" line-height="125%" y="555.69" x="-336.98001" font-family="Gentium Book Basic">
  <tspan id="tspan82" y="555.69" x="-336.98001"/>
 </text>
 <path id="path84" fill="#fff" d="m228.88 41.627c-2.501 0.047-4.89 0.232-7.205 0.529-18.368 2.362-22 2.275-39.61 12.376-8.263 4.739-11.907 11.75-10.461 21.17 56.55 122.16-0.098-0.047 56.55 122.34 1.743 2.044 2.882 4.479 5.537 4.071l19.215-2.971c2.655-0.408 3.03-3.06 4.071-5.537 16.457-134.17 0.117-0.49 16.974-133.57-1.445-9.416-9.752-13.681-19.09-15.552-10.02-2-18.471-2.991-25.974-2.85m110.25 18.604c-6.261-0.014-11.568 2.789-15.789 8.55-46.39 126.36-0.008-0.143-46.49 126.44-0.212 2.678-1.148 5.208 1.017 6.799l15.672 11.481c2.166 1.589 4.311-0.003 6.799-1.017 106.51-83.23 0.434-0.257 106.46-82.44 5.637-7.68 2.8-16.58-2.483-24.508-7.553-11.334-14.434-19.413-21.82-25.12-14.656-11.315-17.208-13.946-36.802-19.255-2.299-0.623-4.467-0.931-6.553-0.937m-218 40.788c-5.177-0.076-10.513 2.276-15.47 5.577-11.334 7.553-19.371 14.434-25.08 21.82-11.315 14.656-13.946 17.17-19.255 36.763-2.492 9.197-0.108 16.713 7.573 22.355 126.36 46.39-0.103 0.048 126.48 46.532 2.678 0.212 5.168 1.107 6.758-1.059l11.521-15.672c1.589-2.166-0.044-4.27-1.059-6.758-83.23-106.51-0.257-0.475-82.44-106.5-2.88-2.114-5.931-3.01-9.04-3.054m319.2 71.49c-1.102 0.023-2.242 0.145-3.42 0.326-122.16 56.55 0.047-0.098-122.34 56.55-2.044 1.743-4.437 2.882-4.03 5.537l2.931 19.215c0.408 2.655 3.06 2.988 5.537 4.03 134.17 16.457 0.49 0.159 133.57 17.01 9.416-1.445 13.721-9.752 15.592-19.09 2.673-13.355 3.47-23.919 2.28-33.18-2.362-18.368-2.275-22.04-12.376-39.652-4.148-7.23-10.03-10.909-17.75-10.747m-183.89 48.53c-18.884 0-34.2 15.312-34.2 34.2 0 18.884 15.312 34.2 34.2 34.2 18.884 0 34.2-15.312 34.2-34.2 0-18.884-15.312-34.2-34.2-34.2m-197.03 13.88c-9.416 1.445-13.721 9.752-15.592 19.09-2.673 13.355-3.47 23.919-2.28 33.18 2.362 18.368 2.275 22 12.376 39.61 4.739 8.263 11.75 11.907 21.17 10.461 122.16-56.55-0.047 0.098 122.34-56.55 2.044-1.743 4.438-2.882 4.03-5.537l-2.931-19.215c-0.408-2.655-3.06-3.03-5.537-4.071-134.17-16.457-0.49-0.117-133.57-16.974m254.32 39.815c-1.165 0.017-2.177 0.341-2.971 1.425l-11.521 15.672c-1.589 2.166 0.044 4.311 1.059 6.799 83.23 106.51 0.257 0.434 82.44 106.46 7.68 5.637 16.58 2.8 24.508-2.483 11.334-7.553 19.371-14.434 25.08-21.82 11.315-14.656 13.947-17.208 19.255-36.802 2.492-9.197 0.108-16.713-7.573-22.355-126.36-46.39 0.103-0.008-126.48-46.49-1.339-0.107-2.618-0.423-3.786-0.408m-96.73 23.16c-1.373 0.175-2.801 1.034-4.356 1.669-106.51 83.23-0.475 0.257-106.5 82.44-5.637 7.68-2.759 16.58 2.525 24.508 7.553 11.334 14.434 19.413 21.82 25.12 14.656 11.315 17.17 13.946 36.763 19.255 9.197 2.492 16.754 0.066 22.391-7.613 46.39-126.36 0.008 0.143 46.49-126.44 0.212-2.678 1.107-5.208-1.059-6.799l-15.633-11.481c-0.812-0.597-1.618-0.756-2.443-0.651m60.779 12.01-19.17 2.971c-2.655 0.408-3.03 3.06-4.071 5.537-16.457 134.17-0.117 0.49-16.974 133.57 1.445 9.416 9.712 13.681 19.05 15.552 13.355 2.673 23.919 3.512 33.18 2.32 18.368-2.362 22.04-2.275 39.652-12.376 8.263-4.739 11.866-11.75 10.422-21.17-56.55-122.16 0.138 0.047-56.5-122.34-1.743-2.044-2.922-4.479-5.577-4.071" fill-rule="evenodd"/>
</svg>
