<?xml version="1.0" encoding="UTF-8" standalone="no"?>
<!-- Created with Inkscape (http://www.inkscape.org/) -->
<svg id="svg2" xmlns:rdf="http://www.w3.org/1999/02/22-rdf-syntax-ns#" xmlns="http://www.w3.org/2000/svg" height="100%" width="100%" version="1.1" xmlns:cc="http://creativecommons.org/ns#" viewBox="0 0 512 512" xmlns:dc="http://purl.org/dc/elements/1.1/">
 <metadata id="metadata60">
  <rdf:RDF>
   <cc:Work rdf:about="">
    <dc:format>image/svg+xml</dc:format>
    <dc:type rdf:resource="http://purl.org/dc/dcmitype/StillImage"/>
   </cc:Work>
  </rdf:RDF>
 </metadata>
 <rect id="rect4" rx="25.988" height="512" width="512" y="0" x="0" fill="#ef6a47"/>
 <path id="path6" d="m44.13 41c-6.756 9.869-1.302 26.06-3.063 38.469 0.365 46.37-0.738 92.95 0.531 139.19 24.476 24.303 48.92 48.697 73.19 73.19-24.19 0.674-48.972-1.338-72.813 0.969-2.129 57.57-0.299 115.9-0.906 173.75 11.04 16.379 28.845 29.437 42.469 44.563 0.292 0.289 0.583 0.585 0.875 0.875h401.59c14.397 0 26-11.603 26-26v-401.74c-14.542-14.573-29.16-29.04-44-43.25h-173.16c-6.565 9.975-1.251 26.05-2.969 38.469-0.265 11.39 0.52 24.613-0.375 34.906-24.866-24.305-48.725-49.834-74.22-73.37h-173.16" fill-opacity="0.235"/>
 <text id="text8" style="word-spacing:0;letter-spacing:0" font-size="129.23px" line-height="125%" y="168.28" x="180.63" font-family="Gentium Book Basic">
  <tspan id="tspan10" y="168.28" x="180.63"/>
 </text>
 <text id="text12" style="text-anchor:middle" transform="scale(4.0128 .2492)" font-size="46.954px" y="326.10001" x="242.10001" font-family="Arial"/>
 <text id="text14" style="word-spacing:0;letter-spacing:0" font-size="129.23px" line-height="125%" y="88.279999" x="761.90002" font-family="Gentium Book Basic">
  <tspan id="tspan16" y="88.279999" x="761.90002"/>
 </text>
 <text id="text18" style="text-anchor:middle" transform="scale(4.0128 .2492)" font-size="46.954px" y="5.0700002" x="386.94" font-family="Arial"/>
 <text id="text20" style="word-spacing:0;letter-spacing:0" font-size="129.23px" line-height="125%" y="-92.989998" x="-309.67999" font-family="Gentium Book Basic">
  <tspan id="tspan22" y="-92.989998" x="-309.67999"/>
 </text>
 <text id="text24" style="text-anchor:middle" transform="scale(4.0128 .2492)" font-size="46.954px" y="-722.28998" x="119.91" font-family="Arial"/>
 <text id="text26" style="word-spacing:0;letter-spacing:0" font-size="129.23px" line-height="125%" y="-309.45001" x="788.37" font-family="Gentium Book Basic">
  <tspan id="tspan28" y="-309.45001" x="788.37"/>
 </text>
 <text id="text30" style="text-anchor:middle" transform="scale(4.0128 .2492)" font-size="46.954px" y="-1590.95" x="393.54001" font-family="Arial"/>
 <text id="text32" style="word-spacing:0;letter-spacing:0" font-size="129.23px" line-height="125%" y="-389.45999" x="1369.64" font-family="Gentium Book Basic">
  <tspan id="tspan34" y="-389.45999" x="1369.64"/>
 </text>
 <text id="text36" style="text-anchor:middle" transform="scale(4.0128 .2492)" font-size="46.954px" y="-1911.99" x="538.39001" font-family="Arial"/>
 <text id="text38" style="word-spacing:0;letter-spacing:0" font-size="129.23px" line-height="125%" y="-861.85999" x="980.52002" font-family="Gentium Book Basic">
  <tspan id="tspan40" y="-861.85999" x="980.52002"/>
 </text>
 <text id="text42" style="text-anchor:middle" transform="scale(4.0128 .2492)" font-size="46.954px" y="-3807.6399" x="441.42001" font-family="Arial"/>
 <text id="text44" style="word-spacing:0;letter-spacing:0" font-size="129.23px" line-height="125%" y="-941.85999" x="1561.78" font-family="Gentium Book Basic">
  <tspan id="tspan46" y="-941.85999" x="1561.78"/>
 </text>
 <text id="text48" style="text-anchor:middle" transform="scale(4.0128 .2492)" font-size="46.954px" y="-4128.6699" x="586.27002" font-family="Arial"/>
 <text id="text50" style="word-spacing:0;letter-spacing:0" font-size="208.33px" line-height="125%" y="472.85999" x="-271.01999" font-family="Gentium Book Basic">
  <tspan id="tspan52" y="472.85999" x="-271.01999"/>
 </text>
 <path id="path54" d="m44.13 41c-1.648 0-3.072 1.507-3.072 3.367v172.38c0 1.86 1.425 3.426 3.072 3.426h173.15c1.648 0 2.954-1.566 2.954-3.426v-172.38c0-1.863-1.3-3.37-2.95-3.37h-173.15m250.71 0c-1.648 0-2.954 1.507-2.954 3.367v172.38c0 1.86 1.305 3.426 2.954 3.426h173.15c1.648 0 2.954-1.566 2.954-3.426v-172.38c0-1.863-1.3-3.37-2.95-3.37h-173.15m-250.71 250.83c-1.648 0-3.072 1.507-3.072 3.367v172.44c0 1.86 1.425 3.367 3.072 3.367h173.15c1.648 0 2.954-1.507 2.954-3.367v-172.44c0-1.86-1.305-3.367-2.954-3.367h-173.15m250.71 0c-1.648 0-2.954 1.507-2.954 3.367v172.44c0 1.86 1.305 3.367 2.954 3.367h173.15c1.648 0 2.954-1.507 2.954-3.367v-172.44c0-1.86-1.305-3.367-2.954-3.367h-173.15" fill="#fff"/>
</svg>
