<?xml version="1.0" encoding="UTF-8" standalone="no"?>
<!-- Created with Inkscape (http://www.inkscape.org/) -->
<svg id="svg2" xmlns:rdf="http://www.w3.org/1999/02/22-rdf-syntax-ns#" xmlns="http://www.w3.org/2000/svg" height="100%" width="100%" version="1.1" xmlns:cc="http://creativecommons.org/ns#" viewBox="0 0 512 512" xmlns:dc="http://purl.org/dc/elements/1.1/">
 <metadata id="metadata80">
  <rdf:RDF>
   <cc:Work rdf:about="">
    <dc:format>image/svg+xml</dc:format>
    <dc:type rdf:resource="http://purl.org/dc/dcmitype/StillImage"/>
   </cc:Work>
  </rdf:RDF>
 </metadata>
 <rect id="rect4" rx="25.988" height="512" width="512" y="0" x="0" fill="#924565"/>
 <path id="path6" d="m331.81 40.625c-1.325 0.04-2.693 0.168-4.094 0.375-9.443 20.392-31.07 60.63-69.813 31.781-27.729-19.22-43.07 28.531-26.559 52.654-2.439 37.93-82.3 31.14-52.25 75 12.608 14.847 37.08 27.27 28.03 50.5-17.983 17.823-0.486 37.617 13.938 50.47 70.22 70.18 140.42 140.39 210.63 210.59h54.31c14.397 0 26-11.603 26-26v-317.72c-28.01-27.913-56.1-55.751-84.31-83.44-21.263 5.125-9.134 27.12-51.16-14.906-13.211-12.44-24.848-29.91-44.719-29.31m-169.53 229.72c-11.642 15.388-39.595 25.759-52.37 5.719-39.977-8.716-18.15 58.25-61.56 50.16-29.614 23.536 28.3 44.485 0.125 69.41-15.461 19.303 12.628 36.698 24.719 49.969 22.861 21.916 45.47 44.09 67.938 66.41h279.13c-61.32-60.08-122.51-120.3-181.34-182.84-9.291-13.619-24.899-15.02-34.34-28.406-13.1-11.31-22.998-29.854-42.28-30.406" fill-opacity="0.235"/>
 <text id="text8" style="word-spacing:0;letter-spacing:0" font-size="129.23px" line-height="125%" y="159.07001" x="148.42" font-family="Gentium Book Basic">
  <tspan id="tspan10" y="159.07001" x="148.42"/>
 </text>
 <text id="text12" style="text-anchor:middle" transform="scale(4.0128 .2492)" font-size="46.954px" y="289.16" x="234.07001" font-family="Arial"/>
 <text id="text14" style="word-spacing:0;letter-spacing:0" font-size="129.23px" line-height="125%" y="79.07" x="729.69" font-family="Gentium Book Basic">
  <tspan id="tspan16" y="79.07" x="729.69"/>
 </text>
 <text id="text18" style="text-anchor:middle" transform="scale(4.0128 .2492)" font-size="46.954px" y="-31.865" x="378.92001" font-family="Arial"/>
 <text id="text20" style="word-spacing:0;letter-spacing:0" font-size="129.23px" line-height="125%" y="-102.19" x="-341.89001" font-family="Gentium Book Basic">
  <tspan id="tspan22" y="-102.19" x="-341.89001"/>
 </text>
 <text id="text24" style="text-anchor:middle" transform="scale(4.0128 .2492)" font-size="46.954px" y="-759.21997" x="111.88" font-family="Arial"/>
 <text id="text26" style="word-spacing:0;letter-spacing:0" font-size="129.23px" line-height="125%" y="-318.66" x="756.15997" font-family="Gentium Book Basic">
  <tspan id="tspan28" y="-318.66" x="756.15997"/>
 </text>
 <text id="text30" style="text-anchor:middle" transform="scale(4.0128 .2492)" font-size="46.954px" y="-1627.89" x="385.51999" font-family="Arial"/>
 <text id="text32" style="word-spacing:0;letter-spacing:0" font-size="129.23px" line-height="125%" y="-398.67001" x="1337.4301" font-family="Gentium Book Basic">
  <tspan id="tspan34" y="-398.67001" x="1337.4301"/>
 </text>
 <text id="text36" style="text-anchor:middle" transform="scale(4.0128 .2492)" font-size="46.954px" y="-1948.9301" x="530.37" font-family="Arial"/>
 <text id="text38" style="word-spacing:0;letter-spacing:0" font-size="129.23px" line-height="125%" y="-871.07001" x="948.31" font-family="Gentium Book Basic">
  <tspan id="tspan40" y="-871.07001" x="948.31"/>
 </text>
 <text id="text42" style="text-anchor:middle" transform="scale(4.0128 .2492)" font-size="46.954px" y="-3844.5801" x="433.39999" font-family="Arial"/>
 <text id="text44" style="word-spacing:0;letter-spacing:0" font-size="129.23px" line-height="125%" y="-951.07001" x="1529.5699" font-family="Gentium Book Basic">
  <tspan id="tspan46" y="-951.07001" x="1529.5699"/>
 </text>
 <text id="text48" style="text-anchor:middle" transform="scale(4.0128 .2492)" font-size="46.954px" y="-4165.6001" x="578.25" font-family="Arial"/>
 <text id="text50" style="word-spacing:0;letter-spacing:0" font-size="208.33px" line-height="125%" y="463.64999" x="-303.23001" font-family="Gentium Book Basic">
  <tspan id="tspan52" y="463.64999" x="-303.23001"/>
 </text>
 <g id="g54" fill="#fff" transform="matrix(1.276 0 0 1.276 -83.87 -53.4)">
  <text id="text56" style="word-spacing:0;letter-spacing:0" font-size="208.33px" line-height="125%" y="383.17001" x="-1672.58" font-family="Gentium Book Basic">
   <tspan id="tspan58" y="383.17001" x="-1672.58" fill="#ffffff"/>
  </text>
  <g id="g60" fill-opacity=".969">
   <path id="path62" d="m379.93 289.71c-5.475-0.832-9.432-2.737-11.854-5.708-3.179-3.9-9.632-4.098-20.924-0.64-12.667 3.878-14.172 5.092-17.92 14.448-4.582 11.44-6.881 12.623-21.55 11.09-14.693-1.535-16.645-3.127-19.12-15.588-2.01-10.15-1.506-9.571-14.525-16.572-11.935-6.418-14.748-6.669-24.474-2.184-9.256 4.268-12.196 3.211-20.951-7.531-8.761-10.749-9.304-14.349-3.521-23.355 5.078-7.91 5.454-10.758 2.769-20.985-3.546-13.504-5.919-16.693-15.456-20.772-10.648-4.554-12.151-7.458-10.876-21.02 1.131-12.03 6.679-18.867 15.422-18.996 7.21-0.107 9.797-2.218 15.927-12.999 6.748-11.864 7.212-15.458 3.293-25.509-4.304-11.04-3.709-12.757 7.621-21.991 12.225-9.965 13.951-9.898 29.2 1.119 2.423 1.751 6.869 1.051 22.01-3.463 7.31-2.18 9.336-4.196 13.07-13 4.985-11.773 8.534-13.429 24.15-11.269 10.604 1.467 15.784 6.769 16.276 16.66 0.326 6.557 2.998 9.469 14.299 15.584 11.975 6.479 13.848 6.668 24.07 2.429 11.348-4.704 14.08-3.604 24.16 9.736 8.445 11.175 8.985 14.331 3.506 20.484-7.376 8.283-8.02 11.946-4.298 24.452 3.825 12.852 5.785 14.955 17.346 18.602 7.87 2.483 9.992 8.277 8.241 22.496-1.492 12.11-5.516 16.14-17.11 17.12-7.509 0.637-8.281 1.363-15.382 14.458-6.507 11.999-6.607 14.215-1.136 25.15 4.115 8.224 2.949 10.994-8.573 20.386-8.857 7.219-10.146 7.913-13.695 7.374m-27.428-81.35c11.447-24.12-3.638-51.12-30.28-54.19-27.437-3.164-48.47 23.375-39.486 49.828 10.858 31.981 55.34 34.764 69.769 4.365"/>
   <path id="path64" d="m199.91 407.72c-3.53-1.442-5.87-3.357-7.01-5.736-1.497-3.124-5.785-4.3-13.901-3.811-9.104 0.548-10.308 1.118-14.329 6.774-4.916 6.916-6.645 7.336-16.216 3.939-9.586-3.403-10.635-4.783-10.275-13.523 0.293-7.119 0.539-6.649-7.04-13.439-6.951-6.225-8.792-6.847-16.03-5.418-6.885 1.361-8.681 0.178-12.805-8.427-4.126-8.61-3.908-11.11 1.418-16.2 4.677-4.473 5.389-6.319 5.245-13.597-0.19-9.611-1.263-12.13-6.987-16.401-6.391-4.769-6.927-6.955-3.882-15.826 2.702-7.87 7.52-11.547 13.392-10.221 4.843 1.094 6.915 0.099 12.761-6.126 6.434-6.85 7.325-9.18 6.327-16.54-1.096-8.08-0.42-9.137 8.655-13.487 9.793-4.693 10.937-4.37 19.364 5.469 1.339 1.563 4.427 1.814 15.288 1.239 5.245-0.277 6.927-1.299 10.846-6.591 5.239-7.07 7.882-7.609 17.983-3.639 6.86 2.696 9.47 7.082 8.2 13.781-0.842 4.442 0.476 6.822 7.05 12.741 6.967 6.272 8.191 6.701 15.72 5.517 8.356-1.314 10.01-0.136 14.597 10.422 3.846 8.844 3.697 11.04-0.964 14.276-6.275 4.351-7.298 6.699-6.829 15.67 0.483 9.22 1.455 10.944 8.603 15.254 4.866 2.934 5.35 7.155 1.879 16.388-2.956 7.863-6.3 9.908-14.216 8.693-5.129-0.787-5.763-0.427-12.632 7.19-6.294 6.979-6.72 8.446-4.825 16.648 1.425 6.169 0.197 7.835-9.03 12.258-7.095 3.4-8.07 3.656-10.357 2.722m-5.208-58.878c11.561-14.296 5.828-34.802-11.508-41.17-17.852-6.552-36.22 7.811-34.481 26.967 2.098 23.16 31.422 32.21 45.99 14.199"/>
  </g>
 </g>
 <g id="g66" style="word-spacing:0;letter-spacing:0" font-family="Gentium Book Basic" line-height="125%">
  <text id="text68" y="305.66" x="-2005.67" font-size="180.56px">
   <tspan id="tspan70" y="305.66" x="-2005.67"/>
  </text>
  <text id="text72" y="435.54001" x="-2218.1201" font-size="265.83px">
   <tspan id="tspan74" y="435.54001" x="-2218.1201"/>
  </text>
 </g>
</svg>
