<?xml version="1.0" encoding="UTF-8" standalone="no"?>
<!-- Created with Inkscape (http://www.inkscape.org/) -->
<svg id="svg2" xmlns:rdf="http://www.w3.org/1999/02/22-rdf-syntax-ns#" xmlns="http://www.w3.org/2000/svg" height="100%" width="100%" version="1.1" xmlns:cc="http://creativecommons.org/ns#" viewBox="0 0 512 512" xmlns:dc="http://purl.org/dc/elements/1.1/">
 <metadata id="metadata74">
  <rdf:RDF>
   <cc:Work rdf:about="">
    <dc:format>image/svg+xml</dc:format>
    <dc:type rdf:resource="http://purl.org/dc/dcmitype/StillImage"/>
   </cc:Work>
  </rdf:RDF>
 </metadata>
 <rect id="rect4" rx="25.988" height="512" width="512" y="0" x="0" fill="#0078ad"/>
 <path id="path6" opacity="0.23" d="m387.66 59c-16.222-0.136-32.818 1.363-48.5 0.344h-226.72c-43.524-1.281-77.2 41.681-71.44 83.53 0.857 53.01-1.799 106.24 1.531 159.09 8.626 34.705 41.09 54.33 63.53 79.84 15.878 15.914 31.777 31.806 47.688 47.688-27.52-0.911-11.632 26.771 2.406 35.06 16.184 15.779 32.32 31.594 48.44 47.44h281.41c14.397 0 26-11.603 26-26v-343.62c-22.1-22.05-44.23-44.06-66.41-66.03-16.857-14.299-37.08-17.17-57.938-17.344" fill-rule="evenodd"/>
 <text id="text8" style="word-spacing:0;letter-spacing:0" font-size="129.23px" line-height="125%" y="169.81" x="186.77" font-family="Gentium Book Basic">
  <tspan id="tspan10" y="169.81" x="186.77"/>
 </text>
 <text id="text12" style="text-anchor:middle" transform="scale(4.0128 .2492)" font-size="46.954px" y="332.25" x="243.62" font-family="Arial"/>
 <text id="text14" style="word-spacing:0;letter-spacing:0" font-size="129.23px" line-height="125%" y="89.809998" x="768.03998" font-family="Gentium Book Basic">
  <tspan id="tspan16" y="89.809998" x="768.03998"/>
 </text>
 <text id="text18" style="text-anchor:middle" transform="scale(4.0128 .2492)" font-size="46.954px" y="11.226" x="388.47" font-family="Arial"/>
 <text id="text20" style="word-spacing:0;letter-spacing:0" font-size="129.23px" line-height="125%" y="-91.449997" x="-303.54001" font-family="Gentium Book Basic">
  <tspan id="tspan22" y="-91.449997" x="-303.54001"/>
 </text>
 <text id="text24" style="text-anchor:middle" transform="scale(4.0128 .2492)" font-size="46.954px" y="-716.13" x="121.43" font-family="Arial"/>
 <text id="text26" style="word-spacing:0;letter-spacing:0" font-size="129.23px" line-height="125%" y="-307.92001" x="794.51001" font-family="Gentium Book Basic">
  <tspan id="tspan28" y="-307.92001" x="794.51001"/>
 </text>
 <text id="text30" style="text-anchor:middle" transform="scale(4.0128 .2492)" font-size="46.954px" y="-1584.8" x="395.07001" font-family="Arial"/>
 <text id="text32" style="word-spacing:0;letter-spacing:0" font-size="129.23px" line-height="125%" y="-387.92999" x="1375.78" font-family="Gentium Book Basic">
  <tspan id="tspan34" y="-387.92999" x="1375.78"/>
 </text>
 <text id="text36" style="text-anchor:middle" transform="scale(4.0128 .2492)" font-size="46.954px" y="-1905.83" x="539.91998" font-family="Arial"/>
 <text id="text38" style="word-spacing:0;letter-spacing:0" font-size="129.23px" line-height="125%" y="-860.33002" x="986.65997" font-family="Gentium Book Basic">
  <tspan id="tspan40" y="-860.33002" x="986.65997"/>
 </text>
 <text id="text42" style="text-anchor:middle" transform="scale(4.0128 .2492)" font-size="46.954px" y="-3801.48" x="442.95001" font-family="Arial"/>
 <text id="text44" style="word-spacing:0;letter-spacing:0" font-size="129.23px" line-height="125%" y="-940.33002" x="1567.92" font-family="Gentium Book Basic">
  <tspan id="tspan46" y="-940.33002" x="1567.92"/>
 </text>
 <text id="text48" style="text-anchor:middle" transform="scale(4.0128 .2492)" font-size="46.954px" y="-4122.5098" x="587.79999" font-family="Arial"/>
 <text id="text50" style="word-spacing:0;letter-spacing:0" font-size="208.33px" line-height="125%" y="474.39001" x="-264.88" font-family="Gentium Book Basic">
  <tspan id="tspan52" y="474.39001" x="-264.88"/>
 </text>
 <g id="g54" transform="matrix(1.446 0 0 1.446 670.8 -25.17)">
  <path id="path56" fill="#0078ad" d="m-383.33 77.38c-17.762 0-32.02 14.1-32.02 31.672v104.05c0 17.569 14.257 31.672 32.02 31.672h154.93c0.914-0.709 2.056-1.178 3.308-1.178s2.261 0.469 3.175 1.178h31.49c17.762 0 32.02-14.1 32.02-31.672v-104.05c0-17.569-14.257-31.672-32.02-31.672h-192.91" fill-rule="evenodd"/>
  <g id="g58" fill="#fff" transform="translate(-542.87,-61.55)">
   <path id="path60" d="m159.53 138.94c-17.762 0-32 14.09-32 31.656v104.06c0 17.569 14.251 32.34 32 31.656l43.44-1.667c63.747-36.02 43.63-94.69 93.87-165.71z" fill-opacity="0.079"/>
   <path id="path62" style="color:#000000" d="m156.72 120c-27.13 0-49.41 22.28-49.41 49.41v108.28c0 27.13 22.28 49.41 49.41 49.41h198.56c27.13 0 49.41-22.28 49.41-49.41v-108.28c0-27.13-22.28-49.41-49.41-49.41h-198.56m3.938 24.19h190.69c15.53 0 27.938 12.309 27.938 27.813v103.09c0 15.504-12.433 27.938-27.938 27.938h-190.69c-15.503 0-27.938-12.434-27.938-27.938v-103.09c0-15.504 12.409-27.813 27.938-27.813m157.5 161.81c5.155 0 9.313 4.157 9.313 9.313 0 5.155-4.157 9.344-9.313 9.344-5.155 0-9.344-4.189-9.344-9.344s4.189-9.313 9.344-9.313"/>
   <g id="g64" fill-rule="evenodd">
    <rect id="rect66" rx="11.08" height="46.17" width="50.17" y="340.16" x="229.14"/>
    <rect id="rect68" rx="8" height="16" width="160.02" y="376" x="173.8"/>
   </g>
  </g>
 </g>
</svg>
