<?xml version="1.0" encoding="UTF-8" standalone="no"?>
<!-- Created with Inkscape (http://www.inkscape.org/) -->
<svg id="svg2" xmlns:rdf="http://www.w3.org/1999/02/22-rdf-syntax-ns#" xmlns="http://www.w3.org/2000/svg" height="100%" width="100%" version="1.1" xmlns:cc="http://creativecommons.org/ns#" viewBox="0 0 512 512" xmlns:dc="http://purl.org/dc/elements/1.1/">
 <metadata id="metadata62">
  <rdf:RDF>
   <cc:Work rdf:about="">
    <dc:format>image/svg+xml</dc:format>
    <dc:type rdf:resource="http://purl.org/dc/dcmitype/StillImage"/>
   </cc:Work>
  </rdf:RDF>
 </metadata>
 <path id="path4" d="m26 0c-14.397 0-26 11.603-26 26v460c0 14.397 11.603 26 26 26h460c14.397 0 26-11.603 26-26v-460c0-14.397-11.6-26-26-26h-460" fill="#e5564f"/>
 <text id="text6" style="word-spacing:0;letter-spacing:0" font-size="129.23px" line-height="125%" y="204.14" x="1418.62" font-family="Gentium Book Basic">
  <tspan id="tspan8" y="204.14" x="1418.62"/>
 </text>
 <text id="text10" style="text-anchor:middle" transform="scale(4.0128 .2492)" font-size="46.954px" y="470.01999" x="550.59998" font-family="Arial"/>
 <text id="text12" style="word-spacing:0;letter-spacing:0" font-size="129.23px" line-height="125%" y="124.14" x="1999.89" font-family="Gentium Book Basic">
  <tspan id="tspan14" y="124.14" x="1999.89"/>
 </text>
 <text id="text16" style="text-anchor:middle" transform="scale(4.0128 .2492)" font-size="46.954px" y="148.98" x="695.45001" font-family="Arial"/>
 <text id="text18" style="word-spacing:0;letter-spacing:0" font-size="129.23px" line-height="125%" y="-57.119999" x="928.31" font-family="Gentium Book Basic">
  <tspan id="tspan20" y="-57.119999" x="928.31"/>
 </text>
 <text id="text22" style="text-anchor:middle" transform="scale(4.0128 .2492)" font-size="46.954px" y="-578.37" x="428.41" font-family="Arial"/>
 <text id="text24" style="word-spacing:0;letter-spacing:0" font-size="129.23px" line-height="125%" y="-273.59" x="2026.36" font-family="Gentium Book Basic">
  <tspan id="tspan26" y="-273.59" x="2026.36"/>
 </text>
 <text id="text28" style="text-anchor:middle" transform="scale(4.0128 .2492)" font-size="46.954px" y="-1447.04" x="702.04999" font-family="Arial"/>
 <text id="text30" style="word-spacing:0;letter-spacing:0" font-size="129.23px" line-height="125%" y="-353.59" x="2607.6299" font-family="Gentium Book Basic">
  <tspan id="tspan32" y="-353.59" x="2607.6299"/>
 </text>
 <text id="text34" style="text-anchor:middle" transform="scale(4.0128 .2492)" font-size="46.954px" y="-1768.0699" x="846.90002" font-family="Arial"/>
 <text id="text36" style="word-spacing:0;letter-spacing:0" font-size="129.23px" line-height="125%" y="-825.98999" x="2218.51" font-family="Gentium Book Basic">
  <tspan id="tspan38" y="-825.98999" x="2218.51"/>
 </text>
 <text id="text40" style="text-anchor:middle" transform="scale(4.0128 .2492)" font-size="46.954px" y="-3663.72" x="749.92999" font-family="Arial"/>
 <text id="text42" style="word-spacing:0;letter-spacing:0" font-size="129.23px" line-height="125%" y="-906" x="2799.77" font-family="Gentium Book Basic">
  <tspan id="tspan44" y="-906" x="2799.77"/>
 </text>
 <text id="text46" style="text-anchor:middle" transform="scale(4.0128 .2492)" font-size="46.954px" y="-3984.76" x="894.78003" font-family="Arial"/>
 <text id="text48" style="word-spacing:0;letter-spacing:0" font-size="208.33px" line-height="125%" y="508.72" x="966.96997" font-family="Gentium Book Basic">
  <tspan id="tspan50" y="508.72" x="966.96997"/>
 </text>
 <g id="g52" style="color:#000000">
  <path id="path54" opacity=".25" d="m246.06 146.88v0.031l2.563 6.625c0.438 1.145 0.856 2.264 1.281 3.375 0.014 0.041 0.017 0.084 0.031 0.125 0.935 2.626 1.878 5.249 2.813 7.875l-17.906-17.906h-15.188v54.781l-54.59-54.59h-39.719v9.437l-9.438-9.438h-46.577c-15.612 0-28.313 12.73-28.313 28.34v160.94c0 7.816 3.175 14.925 8.313 20.06l155.5 155.47h281.19c14.397 0 26-11.603 26-26v-298l-41-41h-15.188l-1.188 3.188c-0.619 1.675-1.225 3.356-1.844 5.03l-8.313-8.313h-56.407l-1.156 3.219-21.344 59.844-63.09-63.09h-56.407"/>
  <path id="path56" d="m246.05 146.89 2.559 6.644c0.438 1.145 0.854 2.273 1.279 3.384 0.014 0.041 0.027 0.083 0.041 0.124 24.305 68.29 48.642 136.57 73 204.85l1.197 3.219h56.123l-2.311-6.52c-24.709-69.51-49.5-138.99-74.28-208.48l-1.197-3.219h-56.412m142 0-1.155 3.219c-12.01 33.669-24.02 67.34-36.03 101.02 9.358 26.31 18.724 52.599 28.1 78.902l1.444-4.044c20.08-56.32 40.12-112.63 60.17-168.95 0.014-0.041 0.026-0.083 0.041-0.124 0.425-1.111 0.883-2.239 1.321-3.384l2.517-6.644h-56.412m-168.41 0.124v218.01h43.87v-139.45l-0.289-0.825c-8.946-24.886-18.02-49.764-27.19-74.57l-1.197-3.178h-15.186m236.17 0-1.197 3.178c-9.173 24.805-18.248 49.683-27.19 74.57l-0.289 0.825v139.45h43.871v-218.01h-15.187m-386.5 0.165c-15.612 0-28.309 12.739-28.309 28.35v160.94c0 15.612 12.697 28.35 28.309 28.35h46.593v-32.477h-14.941v-152.69h14.941v-32.477h-46.59m56.04 0v32.477h39.699v-32.477h-39.699m0 185.16v32.477h39.699v-32.477h-39.699" fill="#fff"/>
 </g>
</svg>
