<?xml version="1.0" encoding="UTF-8" standalone="no"?>
<!-- Created with Inkscape (http://www.inkscape.org/) -->

<svg
   xmlns:dc="http://purl.org/dc/elements/1.1/"
   xmlns:cc="http://creativecommons.org/ns#"
   xmlns:rdf="http://www.w3.org/1999/02/22-rdf-syntax-ns#"
   xmlns:svg="http://www.w3.org/2000/svg"
   xmlns="http://www.w3.org/2000/svg"
   xmlns:sodipodi="http://sodipodi.sourceforge.net/DTD/sodipodi-0.dtd"
   xmlns:inkscape="http://www.inkscape.org/namespaces/inkscape"
   version="1.1"
   width="100%"
   height="100%"
   viewBox="0 0 512 512"
   id="svg2"
   inkscape:version="0.91+devel r13804 custom"
   sodipodi:docname="d-feet-icon.svg">
  <sodipodi:namedview
     pagecolor="#ffffff"
     bordercolor="#666666"
     borderopacity="1"
     objecttolerance="10"
     gridtolerance="10"
     guidetolerance="10"
     inkscape:pageopacity="0"
     inkscape:pageshadow="2"
     inkscape:window-width="1366"
     inkscape:window-height="709"
     id="namedview122"
     showgrid="false"
     inkscape:zoom="0.4609375"
     inkscape:cx="-8.6779661"
     inkscape:cy="237.55932"
     inkscape:window-x="-2"
     inkscape:window-y="-3"
     inkscape:window-maximized="1"
     inkscape:current-layer="svg2" />
  <metadata
     id="metadata241">
    <rdf:RDF>
      <cc:Work
         rdf:about="">
        <dc:format>image/svg+xml</dc:format>
        <dc:type
           rdf:resource="http://purl.org/dc/dcmitype/StillImage" />
      </cc:Work>
    </rdf:RDF>
  </metadata>
  <defs
     id="defs4" />
  <rect
     width="512"
     height="512"
     rx="25.988001"
     x="0"
     y="0"
     id="rect9"
     style="fill:#55405f" />
  <text
     x="189.84"
     y="218.89999"
     id="text11"
     style="font-size:129.22999573px;line-height:125%;letter-spacing:0;word-spacing:0;font-family:Gentium Book Basic">
    <tspan
       x="189.84"
       y="218.89999"
       id="tspan13" />
  </text>
  <text
     x="244.39"
     y="529.23999"
     transform="scale(4.0128,0.2492)"
     id="text15"
     style="font-size:46.95399857px;text-anchor:middle;font-family:Arial" />
  <text
     x="771.10999"
     y="138.89999"
     id="text17"
     style="font-size:129.22999573px;line-height:125%;letter-spacing:0;word-spacing:0;font-family:Gentium Book Basic">
    <tspan
       x="771.10999"
       y="138.89999"
       id="tspan19" />
  </text>
  <text
     x="389.23999"
     y="208.22"
     transform="scale(4.0128,0.2492)"
     id="text21"
     style="font-size:46.95399857px;text-anchor:middle;font-family:Arial" />
  <text
     x="-300.47"
     y="-42.360001"
     id="text23"
     style="font-size:129.22999573px;line-height:125%;letter-spacing:0;word-spacing:0;font-family:Gentium Book Basic">
    <tspan
       x="-300.47"
       y="-42.360001"
       id="tspan25" />
  </text>
  <text
     x="122.2"
     y="-519.14001"
     transform="scale(4.0128,0.2492)"
     id="text27"
     style="font-size:46.95399857px;text-anchor:middle;font-family:Arial" />
  <text
     x="797.58002"
     y="-258.82999"
     id="text29"
     style="font-size:129.22999573px;line-height:125%;letter-spacing:0;word-spacing:0;font-family:Gentium Book Basic">
    <tspan
       x="797.58002"
       y="-258.82999"
       id="tspan31" />
  </text>
  <text
     x="395.84"
     y="-1387.8101"
     transform="scale(4.0128,0.2492)"
     id="text33"
     style="font-size:46.95399857px;text-anchor:middle;font-family:Arial" />
  <text
     x="1378.85"
     y="-338.84"
     id="text35"
     style="font-size:129.22999573px;line-height:125%;letter-spacing:0;word-spacing:0;font-family:Gentium Book Basic">
    <tspan
       x="1378.85"
       y="-338.84"
       id="tspan37" />
  </text>
  <text
     x="540.69"
     y="-1708.84"
     transform="scale(4.0128,0.2492)"
     id="text39"
     style="font-size:46.95399857px;text-anchor:middle;font-family:Arial" />
  <text
     x="989.72998"
     y="-811.23999"
     id="text41"
     style="font-size:129.22999573px;line-height:125%;letter-spacing:0;word-spacing:0;font-family:Gentium Book Basic">
    <tspan
       x="989.72998"
       y="-811.23999"
       id="tspan43" />
  </text>
  <text
     x="443.72"
     y="-3604.5"
     transform="scale(4.0128,0.2492)"
     id="text45"
     style="font-size:46.95399857px;text-anchor:middle;font-family:Arial" />
  <text
     x="1570.99"
     y="-891.23999"
     id="text47"
     style="font-size:129.22999573px;line-height:125%;letter-spacing:0;word-spacing:0;font-family:Gentium Book Basic">
    <tspan
       x="1570.99"
       y="-891.23999"
       id="tspan49" />
  </text>
  <text
     x="588.57001"
     y="-3925.52"
     transform="scale(4.0128,0.2492)"
     id="text51"
     style="font-size:46.95399857px;text-anchor:middle;font-family:Arial" />
  <text
     x="-261.81"
     y="523.47998"
     id="text53"
     style="font-size:208.33000183px;line-height:125%;letter-spacing:0;word-spacing:0;font-family:Gentium Book Basic">
    <tspan
       x="-261.81"
       y="523.47998"
       id="tspan55" />
  </text>
  <path
     d="M 177.78125 41.011719 C 173.00154 40.837484 169.13992 42.62058 165.35156 46.408203 L 165.34961 46.410156 C 160.55146 51.207965 159.91481 54.181454 161.14062 66.050781 C 161.56895 70.205412 162.17794 73.933053 162.99219 77.294922 L 145.5293 59.832031 C 145.54733 59.850065 145.56405 59.870546 145.58203 59.888672 L 145.52539 59.832031 C 144.69715 59.003793 143.812 58.274 142.875 57.658203 L 142.86328 57.646484 C 134.16028 51.941484 123.70963 54.908844 120.14062 64.089844 L 120.14844 64.097656 C 117.08932 71.971692 120.77772 94.519592 126.18945 101.03906 L 126.89453 101.74414 C 126.85785 101.71202 126.81894 101.68112 126.7832 101.64844 L 126.18555 101.05078 C 126.30255 101.19078 126.42855 101.32894 126.56055 101.46094 L 138.24414 113.14453 C 137.57555 113.33791 136.90832 113.53468 136.24414 113.74023 L 108.17969 85.675781 C 101.55469 79.045781 95.120312 79.336781 90.070312 86.550781 L 114.66016 111.14062 L 114.6582 111.14258 L 90.066406 86.550781 C 84.949406 93.853781 84.907297 96.98063 89.779297 108.64062 L 89.789062 108.65039 C 91.155569 111.92164 92.312669 114.0822 93.710938 115.48047 L 106.3125 128.08203 C 105.29671 128.7529 104.28189 129.42268 103.26953 130.13086 L 82.931641 109.79297 L 82.929688 109.79102 L 82.927734 109.78906 C 81.284382 108.14685 79.232418 106.82303 76.820312 105.9707 L 86.669922 115.82031 C 86.670786 115.82285 86.671012 115.8256 86.671875 115.82812 L 76.8125 105.96875 C 70.764308 103.83039 68.808786 104.27229 65.734375 108.4668 L 65.728516 108.46094 C 60.569516 115.51794 61.056766 121.2687 67.509766 129.4707 L 67.513672 129.47656 C 68.457672 130.67656 69.364234 131.71384 70.240234 132.58984 C 70.251108 132.60072 70.26062 132.61027 70.271484 132.62109 L 83.837891 146.1875 C 83.185891 146.80626 82.533899 147.40342 81.880859 148.03906 C 80.289191 149.58754 78.926583 150.94945 77.564453 152.30859 L 58.970703 133.71484 C 57.419469 132.16361 55.773895 131.16371 54.347656 131.16016 L 54.34375 131.15625 C 53.26475 131.15625 50.189766 132.7607 47.509766 134.7207 L 47.511719 134.72266 C 43.66175 137.53907 43.015966 140.2818 44.429688 147.82031 L 56.220703 159.61133 C 56.219369 159.6119 56.218131 159.61271 56.216797 159.61328 L 44.425781 147.82227 C 45.263781 152.28027 47.023953 156.47708 48.626953 158.08008 L 48.630859 158.08594 C 48.635448 158.09053 48.639945 158.09311 48.644531 158.09766 L 62.025391 171.47852 C 60.392101 174.71631 59.188393 178.15602 57.949219 182.5 L 179.69922 304.25 C 179.69981 304.25195 179.70058 304.25391 179.70117 304.25586 L 57.945312 182.5 C 51.419314 205.38 55.569686 224.88663 76.429688 269.39062 C 96.499686 312.20562 99.530762 322.26977 108.25977 375.00977 L 189.07031 455.82031 C 189.06884 455.82137 189.06788 455.82316 189.06641 455.82422 L 108.25977 375.01758 C 115.36277 417.92658 122.53678 440.15592 134.30078 451.91992 L 194.38086 512 L 486.01172 512 C 500.40907 512 512 500.40907 512 486.01172 L 512 191.62891 L 422.23047 101.85938 C 422.2442 101.8731 422.25586 101.89046 422.26953 101.9043 L 422.22266 101.85742 C 419.92001 99.554781 416.78646 98.779238 413.25781 99.666016 L 390.57031 76.978516 C 390.60668 77.014879 390.63959 77.057048 390.67578 77.09375 L 390.56641 76.984375 C 387.98226 74.400232 384.96369 72.678332 382.21484 72.671875 L 382.20508 72.662109 C 376.21233 72.662109 370.8747 76.049481 366.92773 81.076172 L 349.63086 63.779297 C 342.32086 56.472297 326.24006 57.947437 317.28906 66.898438 L 317.28906 66.900391 C 305.94206 78.244391 301.09006 99.377935 306.53906 113.71094 L 306.54883 113.7207 C 307.30081 115.69416 308.0657 117.12625 309.08984 118.15039 L 318.95508 128.01562 C 316.56585 128.92878 314.1699 129.99077 311.7207 131.24023 C 304.12831 135.11376 299.48867 139.63068 296.01562 147.8457 L 198.24023 50.070312 C 198.28845 50.118531 198.33293 50.172065 198.38086 50.220703 L 198.23438 50.074219 C 196.10342 47.943267 193.68537 46.221079 191.00195 44.947266 L 191 44.947266 C 185.77219 42.467149 181.49907 41.147244 177.78125 41.011719 z "
     id="path59"
     style="opacity:0.25" />
  <path
     d="m 317.23,465.66 c -13.59,-6.993 -19.694,-17.06 -23.953,-39.516 -3.985,-21.01 0.283,-37.854 20.349,-80.31 25.08,-53.06 26.14,-73.828 4.977,-97.66 -25.21,-28.385 -33.557,-52.46 -27.989,-80.76 4.351,-22.12 8.936,-29.979 21.11,-36.19 15.215,-7.762 28.473,-8.962 49.711,-4.501 26.431,5.553 43.17,14.842 66.25,36.77 16.824,15.984 20.541,21.13 24.12,33.431 7.604,26.16 2.543,47.549 -21.22,89.71 -17.8,31.588 -25.864,54.793 -34.879,100.38 -12.392,62.67 -24.306,81.58 -52.743,83.73 -10.612,0.802 -16.507,-0.368 -25.731,-5.114 m -171.48,-5.921 c -19.06,-8.471 -28.33,-29.425 -37.482,-84.72 -8.729,-52.74 -11.76,-62.805 -31.83,-105.62 -20.86,-44.504 -25.01,-64.01 -18.484,-86.89 3.79,-13.286 7.167,-18.15 23.933,-34.461 22.838,-22.23 44.973,-34.1 71.11,-38.14 29.617,-4.583 48.16,1.264 61.63,19.441 4.828,6.513 5.562,11.253 5.562,35.893 0,33.34 -3.27,41.578 -26.582,66.933 -25.72,27.977 -25.631,49.18 0.464,109.88 17.441,40.57 20.649,61.68 13.24,87.17 -8.237,28.333 -35.778,41.989 -61.57,30.527 m 304.52,-285.87 c -6.04,-11.284 -1.507,-21.437 9.565,-21.437 6.844,0 10.254,7.613 7.444,16.617 -3.344,10.719 -12.471,13.306 -17.01,4.828 M 49.452,158.659 c -1.781,-0.722 -4.04,-5.605 -5.03,-10.851 -1.414,-7.54 -0.769,-10.283 3.083,-13.1 2.68,-1.96 5.754,-3.563 6.833,-3.563 4.202,0 10.317,8.666 10.317,14.623 0,3.447 -1.88,8.147 -4.178,10.445 -4.347,4.347 -5.63,4.632 -11.02,2.445 m 379.98,-6.775 c -5.766,-5.766 -3.864,-20.17 3.278,-24.854 14.581,-9.554 24.467,9.904 11.306,22.264 -7.01,6.585 -10.05,7.126 -14.584,2.59 M 67.517,129.457 c -6.453,-8.202 -6.94,-13.953 -1.781,-21.01 3.076,-4.198 5.03,-4.641 11.08,-2.502 9.957,3.519 13.794,15.06 7.977,23.953 -5.521,8.426 -10.399,8.301 -17.278,-0.443 m 333.89,2.144 c -6.376,-7.05 -5.455,-18.254 2.125,-25.835 11.489,-11.489 22.719,-7.177 22.719,8.723 0,18.226 -14.685,28.341 -24.846,17.11 m -94.87,-17.91 c -5.449,-14.333 -0.598,-35.465 10.749,-46.809 9.135,-9.135 25.695,-10.484 32.776,-2.658 10.08,11.136 1.253,44.31 -13.87,52.12 -4.429,2.29 -12.33,4.164 -17.556,4.164 -7.754,0 -9.98,-1.255 -12.1,-6.819 m 57.38,0.91 c -10.449,-14.918 1.334,-41.948 18.286,-41.948 6.617,0 14.804,9.967 14.74,17.946 -0.032,4.02 -2.366,12.397 -5.187,18.612 -4.613,10.157 -6.067,11.3 -14.414,11.3 -6.58,0 -10.49,-1.72 -13.424,-5.909 m -274.13,-5.97 c -4.872,-11.66 -4.831,-14.787 0.286,-22.09 5.283,-7.543 12.07,-7.517 19.02,0.073 12.674,13.84 8.552,31.24 -7.404,31.24 -6.673,0 -8.709,-1.577 -11.903,-9.227 m 92.7,-6.602 c -13.228,-5.982 -19.301,-16.224 -21.346,-35.985 -1.226,-11.871 -0.589,-14.842 4.211,-19.641 6.736,-6.736 13.701,-7.132 25.652,-1.462 11.67,5.538 18.286,19.533 18.377,38.922 0.114,21.571 -7.703,26.85 -26.906,18.17 m -56.29,-0.996 c -5.413,-6.521 -9.103,-29.08 -6.04,-36.949 3.569,-9.181 14.02,-12.148 22.722,-6.443 12.768,8.366 15.64,38.14 4.266,44.23 -7.04,3.767 -17.473,3.351 -20.944,-0.831"
     inkscape:connector-curvature="0"
     id="path237"
     style="fill:#ffffff" />
</svg>
