<?xml version="1.0" encoding="UTF-8" standalone="no"?>
<!-- Created with Inkscape (http://www.inkscape.org/) -->
<svg id="svg2" xmlns:rdf="http://www.w3.org/1999/02/22-rdf-syntax-ns#" xmlns="http://www.w3.org/2000/svg" height="100%" width="100%" version="1.1" xmlns:cc="http://creativecommons.org/ns#" xmlns:dc="http://purl.org/dc/elements/1.1/" viewBox="0 0 512 512">
 <metadata id="metadata241">
  <rdf:RDF>
   <cc:Work rdf:about="">
    <dc:format>image/svg+xml</dc:format>
    <dc:type rdf:resource="http://purl.org/dc/dcmitype/StillImage"/>
   </cc:Work>
  </rdf:RDF>
 </metadata>
 <rect id="rect9" rx="25.988" height="512" width="512" y="0" x="0" fill="#55405f"/>
 <text id="text11" style="word-spacing:0;letter-spacing:0" font-size="129.23px" line-height="125%" y="218.89999" x="189.84" font-family="Gentium Book Basic">
  <tspan id="tspan13" y="218.89999" x="189.84"/>
 </text>
 <text id="text15" style="text-anchor:middle" transform="scale(4.0128 .2492)" font-size="46.954px" y="529.23999" x="244.39" font-family="Arial"/>
 <text id="text17" style="word-spacing:0;letter-spacing:0" font-size="129.23px" line-height="125%" y="138.89999" x="771.10999" font-family="Gentium Book Basic">
  <tspan id="tspan19" y="138.89999" x="771.10999"/>
 </text>
 <text id="text21" style="text-anchor:middle" transform="scale(4.0128 .2492)" font-size="46.954px" y="208.22" x="389.23999" font-family="Arial"/>
 <text id="text23" style="word-spacing:0;letter-spacing:0" font-size="129.23px" line-height="125%" y="-42.360001" x="-300.47" font-family="Gentium Book Basic">
  <tspan id="tspan25" y="-42.360001" x="-300.47"/>
 </text>
 <text id="text27" style="text-anchor:middle" transform="scale(4.0128 .2492)" font-size="46.954px" y="-519.14001" x="122.2" font-family="Arial"/>
 <text id="text29" style="word-spacing:0;letter-spacing:0" font-size="129.23px" line-height="125%" y="-258.82999" x="797.58002" font-family="Gentium Book Basic">
  <tspan id="tspan31" y="-258.82999" x="797.58002"/>
 </text>
 <text id="text33" style="text-anchor:middle" transform="scale(4.0128 .2492)" font-size="46.954px" y="-1387.8101" x="395.84" font-family="Arial"/>
 <text id="text35" style="word-spacing:0;letter-spacing:0" font-size="129.23px" line-height="125%" y="-338.84" x="1378.85" font-family="Gentium Book Basic">
  <tspan id="tspan37" y="-338.84" x="1378.85"/>
 </text>
 <text id="text39" style="text-anchor:middle" transform="scale(4.0128 .2492)" font-size="46.954px" y="-1708.84" x="540.69" font-family="Arial"/>
 <text id="text41" style="word-spacing:0;letter-spacing:0" font-size="129.23px" line-height="125%" y="-811.23999" x="989.72998" font-family="Gentium Book Basic">
  <tspan id="tspan43" y="-811.23999" x="989.72998"/>
 </text>
 <text id="text45" style="text-anchor:middle" transform="scale(4.0128 .2492)" font-size="46.954px" y="-3604.5" x="443.72" font-family="Arial"/>
 <text id="text47" style="word-spacing:0;letter-spacing:0" font-size="129.23px" line-height="125%" y="-891.23999" x="1570.99" font-family="Gentium Book Basic">
  <tspan id="tspan49" y="-891.23999" x="1570.99"/>
 </text>
 <text id="text51" style="text-anchor:middle" transform="scale(4.0128 .2492)" font-size="46.954px" y="-3925.52" x="588.57001" font-family="Arial"/>
 <text id="text53" style="word-spacing:0;letter-spacing:0" font-size="208.33px" line-height="125%" y="523.47998" x="-261.81" font-family="Gentium Book Basic">
  <tspan id="tspan55" y="523.47998" x="-261.81"/>
 </text>
 <path id="path59" opacity=".25" d="m177.78 41.012c-4.78-0.175-8.64 1.609-12.43 5.396v0.002c-4.8 4.798-5.44 7.771-4.21 19.641 0.43 4.154 1.04 7.882 1.85 11.244l-17.46-17.463c0.02 0.018 0.03 0.039 0.05 0.057l-0.05-0.057c-0.83-0.828-1.72-1.558-2.65-2.174l-0.02-0.012c-8.7-5.705-19.15-2.737-22.72 6.444l0.01 0.008c-3.06 7.874 0.63 30.422 6.04 36.942l0.7 0.7c-0.03-0.03-0.07-0.06-0.11-0.09l-0.59-0.6c0.11 0.14 0.24 0.28 0.37 0.41l11.68 11.68c-0.66 0.2-1.33 0.39-2 0.6l-28.06-28.064c-6.63-6.63-13.06-6.339-18.11 0.875l24.59 24.589-24.594-24.589c-5.117 7.303-5.159 10.43-0.287 22.089l0.01 0.01c1.367 3.27 2.524 5.43 3.922 6.83l12.599 12.6c-1.01 0.67-2.03 1.34-3.04 2.05l-20.338-20.34h-0.002-0.002c-1.644-1.64-3.696-2.97-6.108-3.82l9.85 9.85c0.001 0 0.001 0.01 0.002 0.01l-9.86-9.86c-6.048-2.14-8.003-1.7-11.078 2.5l-0.005-0.01c-5.159 7.06-4.672 12.81 1.781 21.01l0.004 0.01c0.944 1.2 1.85 2.23 2.726 3.11 0.011 0.01 0.021 0.02 0.031 0.03l13.567 13.57c-0.652 0.62-1.304 1.21-1.957 1.85-1.592 1.55-2.954 2.91-4.317 4.27l-18.593-18.6c-1.552-1.55-3.197-2.55-4.623-2.55h-0.004c-1.079 0-4.154 1.6-6.834 3.56h0.002c-3.85 2.82-4.496 5.56-3.082 13.1l11.791 11.79h-0.004l-11.791-11.79c0.838 4.46 2.598 8.66 4.201 10.26l0.004 0.01c0.004 0 0.009 0 0.014 0.01l13.38 13.38c-1.633 3.24-2.837 6.68-4.076 11.02l121.75 121.75v0.01l-121.76-121.76c-6.521 22.88-2.37 42.39 18.49 86.89 20.07 42.82 23.101 52.88 31.83 105.62l80.81 80.81-80.81-80.8c7.1 42.91 14.28 65.14 26.04 76.9l60.08 60.08h291.63c14.4 0 25.99-11.59 25.99-25.99v-294.38l-89.77-89.77 0.04 0.04-0.05-0.04c-2.3-2.305-5.43-3.081-8.96-2.194l-22.69-22.687c0.04 0.036 0.07 0.078 0.11 0.115l-0.11-0.11c-2.59-2.584-5.61-4.306-8.36-4.312v-0.01c-6 0-11.34 3.387-15.28 8.414l-17.3-17.297c-7.31-7.307-23.39-5.832-32.34 3.119v0.002c-11.35 11.344-16.2 32.478-10.75 46.81l0.01 0.01c0.75 1.97 1.52 3.41 2.54 4.43l9.87 9.87c-2.39 0.91-4.79 1.97-7.24 3.22-7.59 3.87-12.23 8.39-15.7 16.61l-97.78-97.78c0.05 0.049 0.09 0.102 0.14 0.151l-0.15-0.147c-2.13-2.131-4.54-3.853-7.23-5.127-5.23-2.48-9.5-3.8-13.22-3.935z"/>
 <path id="path237" d="m317.23 465.66c-13.59-6.993-19.694-17.06-23.953-39.516-3.985-21.01 0.283-37.854 20.349-80.31 25.08-53.06 26.14-73.828 4.977-97.66-25.21-28.385-33.557-52.46-27.989-80.76 4.351-22.12 8.936-29.979 21.11-36.19 15.215-7.762 28.473-8.962 49.711-4.501 26.431 5.553 43.17 14.842 66.25 36.77 16.824 15.984 20.541 21.13 24.12 33.431 7.604 26.16 2.543 47.549-21.22 89.71-17.8 31.588-25.864 54.793-34.879 100.38-12.392 62.67-24.306 81.58-52.743 83.73-10.612 0.802-16.507-0.368-25.731-5.114m-171.48-5.921c-19.06-8.471-28.33-29.425-37.482-84.72-8.729-52.74-11.76-62.805-31.83-105.62-20.86-44.504-25.01-64.01-18.484-86.89 3.79-13.286 7.167-18.15 23.933-34.461 22.838-22.23 44.973-34.1 71.11-38.14 29.617-4.583 48.16 1.264 61.63 19.441 4.828 6.513 5.562 11.253 5.562 35.893 0 33.34-3.27 41.578-26.582 66.933-25.72 27.977-25.631 49.18 0.464 109.88 17.441 40.57 20.649 61.68 13.24 87.17-8.237 28.333-35.778 41.989-61.57 30.527m304.52-285.87c-6.04-11.284-1.507-21.437 9.565-21.437 6.844 0 10.254 7.613 7.444 16.617-3.344 10.719-12.471 13.306-17.01 4.828m-400.82-15.2c-1.781-0.722-4.04-5.605-5.03-10.851-1.414-7.54-0.769-10.283 3.083-13.1 2.68-1.96 5.754-3.563 6.833-3.563 4.202 0 10.317 8.666 10.317 14.623 0 3.447-1.88 8.147-4.178 10.445-4.347 4.347-5.63 4.632-11.02 2.445m379.98-6.775c-5.766-5.766-3.864-20.17 3.278-24.854 14.581-9.554 24.467 9.904 11.306 22.264-7.01 6.585-10.05 7.126-14.584 2.59m-361.92-22.42c-6.453-8.202-6.94-13.953-1.781-21.01 3.076-4.198 5.03-4.641 11.08-2.502 9.957 3.519 13.794 15.06 7.977 23.953-5.521 8.426-10.399 8.301-17.278-0.443m333.89 2.144c-6.376-7.05-5.455-18.254 2.125-25.835 11.489-11.489 22.719-7.177 22.719 8.723 0 18.226-14.685 28.341-24.846 17.11m-94.87-17.91c-5.449-14.333-0.598-35.465 10.749-46.809 9.135-9.135 25.695-10.484 32.776-2.658 10.08 11.136 1.253 44.31-13.87 52.12-4.429 2.29-12.33 4.164-17.556 4.164-7.754 0-9.98-1.255-12.1-6.819m57.38 0.91c-10.449-14.918 1.334-41.948 18.286-41.948 6.617 0 14.804 9.967 14.74 17.946-0.032 4.02-2.366 12.397-5.187 18.612-4.613 10.157-6.067 11.3-14.414 11.3-6.58 0-10.49-1.72-13.424-5.909m-274.13-5.97c-4.872-11.66-4.831-14.787 0.286-22.09 5.283-7.543 12.07-7.517 19.02 0.073 12.674 13.84 8.552 31.24-7.404 31.24-6.673 0-8.709-1.577-11.903-9.227m92.7-6.602c-13.228-5.982-19.301-16.224-21.346-35.985-1.226-11.871-0.589-14.842 4.211-19.641 6.736-6.736 13.701-7.132 25.652-1.462 11.67 5.538 18.286 19.533 18.377 38.922 0.114 21.571-7.703 26.85-26.906 18.17m-56.29-0.996c-5.413-6.521-9.103-29.08-6.04-36.949 3.569-9.181 14.02-12.148 22.722-6.443 12.768 8.366 15.64 38.14 4.266 44.23-7.04 3.767-17.473 3.351-20.944-0.831" fill="#fff"/>
</svg>
