<?xml version="1.0" encoding="UTF-8" standalone="no"?>
<!-- Created with Inkscape (http://www.inkscape.org/) -->

<svg
   xmlns:dc="http://purl.org/dc/elements/1.1/"
   xmlns:cc="http://creativecommons.org/ns#"
   xmlns:rdf="http://www.w3.org/1999/02/22-rdf-syntax-ns#"
   xmlns:svg="http://www.w3.org/2000/svg"
   xmlns="http://www.w3.org/2000/svg"
   xmlns:sodipodi="http://sodipodi.sourceforge.net/DTD/sodipodi-0.dtd"
   xmlns:inkscape="http://www.inkscape.org/namespaces/inkscape"
   version="1.1"
   width="100%"
   height="100%"
   viewBox="0 0 512 512"
   id="svg2"
   inkscape:version="0.91+devel r13804 custom"
   sodipodi:docname="darktable.svg">
  <sodipodi:namedview
     pagecolor="#ffffff"
     bordercolor="#666666"
     borderopacity="1"
     objecttolerance="10"
     gridtolerance="10"
     guidetolerance="10"
     inkscape:pageopacity="0"
     inkscape:pageshadow="2"
     inkscape:window-width="1366"
     inkscape:window-height="709"
     id="namedview122"
     showgrid="false"
     inkscape:zoom="0.4609375"
     inkscape:cx="235.23251"
     inkscape:cy="234.46928"
     inkscape:window-x="-2"
     inkscape:window-y="-3"
     inkscape:window-maximized="1"
     inkscape:current-layer="svg2" />
  <metadata
     id="metadata241">
    <rdf:RDF>
      <cc:Work
         rdf:about="">
        <dc:format>image/svg+xml</dc:format>
        <dc:type
           rdf:resource="http://purl.org/dc/dcmitype/StillImage" />
        <dc:title></dc:title>
      </cc:Work>
    </rdf:RDF>
  </metadata>
  <defs
     id="defs4" />
  <text
     x="189.84"
     y="218.89999"
     id="text11"
     style="font-size:129.22999573px;line-height:125%;letter-spacing:0;word-spacing:0;font-family:Gentium Book Basic">
    <tspan
       x="189.84"
       y="218.89999"
       id="tspan13" />
  </text>
  <text
     x="244.39"
     y="529.23999"
     transform="scale(4.0128,0.2492)"
     id="text15"
     style="font-size:46.95399857px;text-anchor:middle;font-family:Arial" />
  <text
     x="771.10999"
     y="138.89999"
     id="text17"
     style="font-size:129.22999573px;line-height:125%;letter-spacing:0;word-spacing:0;font-family:Gentium Book Basic">
    <tspan
       x="771.10999"
       y="138.89999"
       id="tspan19" />
  </text>
  <text
     x="389.23999"
     y="208.22"
     transform="scale(4.0128,0.2492)"
     id="text21"
     style="font-size:46.95399857px;text-anchor:middle;font-family:Arial" />
  <text
     x="-300.47"
     y="-42.360001"
     id="text23"
     style="font-size:129.22999573px;line-height:125%;letter-spacing:0;word-spacing:0;font-family:Gentium Book Basic">
    <tspan
       x="-300.47"
       y="-42.360001"
       id="tspan25" />
  </text>
  <text
     x="122.2"
     y="-519.14001"
     transform="scale(4.0128,0.2492)"
     id="text27"
     style="font-size:46.95399857px;text-anchor:middle;font-family:Arial" />
  <text
     x="797.58002"
     y="-258.82999"
     id="text29"
     style="font-size:129.22999573px;line-height:125%;letter-spacing:0;word-spacing:0;font-family:Gentium Book Basic">
    <tspan
       x="797.58002"
       y="-258.82999"
       id="tspan31" />
  </text>
  <text
     x="395.84"
     y="-1387.8101"
     transform="scale(4.0128,0.2492)"
     id="text33"
     style="font-size:46.95399857px;text-anchor:middle;font-family:Arial" />
  <text
     x="1378.85"
     y="-338.84"
     id="text35"
     style="font-size:129.22999573px;line-height:125%;letter-spacing:0;word-spacing:0;font-family:Gentium Book Basic">
    <tspan
       x="1378.85"
       y="-338.84"
       id="tspan37" />
  </text>
  <text
     x="540.69"
     y="-1708.84"
     transform="scale(4.0128,0.2492)"
     id="text39"
     style="font-size:46.95399857px;text-anchor:middle;font-family:Arial" />
  <text
     x="989.72998"
     y="-811.23999"
     id="text41"
     style="font-size:129.22999573px;line-height:125%;letter-spacing:0;word-spacing:0;font-family:Gentium Book Basic">
    <tspan
       x="989.72998"
       y="-811.23999"
       id="tspan43" />
  </text>
  <text
     x="443.72"
     y="-3604.5"
     transform="scale(4.0128,0.2492)"
     id="text45"
     style="font-size:46.95399857px;text-anchor:middle;font-family:Arial" />
  <text
     x="1570.99"
     y="-891.23999"
     id="text47"
     style="font-size:129.22999573px;line-height:125%;letter-spacing:0;word-spacing:0;font-family:Gentium Book Basic">
    <tspan
       x="1570.99"
       y="-891.23999"
       id="tspan49" />
  </text>
  <text
     x="588.57001"
     y="-3925.52"
     transform="scale(4.0128,0.2492)"
     id="text51"
     style="font-size:46.95399857px;text-anchor:middle;font-family:Arial" />
  <text
     x="-261.81"
     y="523.47998"
     id="text53"
     style="font-size:208.33000183px;line-height:125%;letter-spacing:0;word-spacing:0;font-family:Gentium Book Basic">
    <tspan
       x="-261.81"
       y="523.47998"
       id="tspan55" />
  </text>
  <rect
     width="512"
     height="512"
     rx="25.988001"
     x="0"
     y="0"
     id="rect9-2"
     style="fill:#484043" />
  <text
     sodipodi:linespacing="125%"
     x="88.589996"
     y="179.00999"
     id="text11-2"
     style="font-size:129.22999573px;line-height:125%;font-family:'Gentium Book Basic';letter-spacing:0;word-spacing:0">
    <tspan
       x="88.589996"
       y="179.00999"
       id="tspan13-7" />
  </text>
  <text
     x="219.15887"
     y="369.18811"
     transform="scale(4.0128205,0.24920128)"
     id="text15-5"
     style="font-size:46.95399857px;font-family:Arial;text-anchor:middle" />
  <text
     sodipodi:linespacing="125%"
     x="669.85999"
     y="99.010002"
     id="text17-2"
     style="font-size:129.22999573px;line-height:125%;font-family:'Gentium Book Basic';letter-spacing:0;word-spacing:0">
    <tspan
       x="669.85999"
       y="99.010002"
       id="tspan19-9" />
  </text>
  <text
     x="364.00815"
     y="48.159752"
     transform="scale(4.0128205,0.24920128)"
     id="text21-5"
     style="font-size:46.95399857px;font-family:Arial;text-anchor:middle" />
  <text
     sodipodi:linespacing="125%"
     x="-401.72"
     y="-82.25"
     id="text23-9"
     style="font-size:129.22999573px;line-height:125%;font-family:'Gentium Book Basic';letter-spacing:0;word-spacing:0">
    <tspan
       x="-401.72"
       y="-82.25"
       id="tspan25-2" />
  </text>
  <text
     x="96.969505"
     y="-679.18652"
     transform="scale(4.0128205,0.24920128)"
     id="text27-3"
     style="font-size:46.95399857px;font-family:Arial;text-anchor:middle" />
  <text
     sodipodi:linespacing="125%"
     x="696.33002"
     y="-298.72"
     id="text29-4"
     style="font-size:129.22999573px;line-height:125%;font-family:'Gentium Book Basic';letter-spacing:0;word-spacing:0">
    <tspan
       x="696.33002"
       y="-298.72"
       id="tspan31-9" />
  </text>
  <text
     x="370.60809"
     y="-1547.8521"
     transform="scale(4.0128205,0.24920128)"
     id="text33-9"
     style="font-size:46.95399857px;font-family:Arial;text-anchor:middle" />
  <text
     sodipodi:linespacing="125%"
     x="1277.6"
     y="-378.73001"
     id="text35-4"
     style="font-size:129.22999573px;line-height:125%;font-family:'Gentium Book Basic';letter-spacing:0;word-spacing:0">
    <tspan
       x="1277.6"
       y="-378.73001"
       id="tspan37-1" />
  </text>
  <text
     x="515.4574"
     y="-1868.8905"
     transform="scale(4.0128205,0.24920128)"
     id="text39-8"
     style="font-size:46.95399857px;font-family:Arial;text-anchor:middle" />
  <text
     sodipodi:linespacing="125%"
     x="888.47998"
     y="-851.13"
     id="text41-3"
     style="font-size:129.22999573px;line-height:125%;font-family:'Gentium Book Basic';letter-spacing:0;word-spacing:0">
    <tspan
       x="888.47998"
       y="-851.13"
       id="tspan43-6" />
  </text>
  <text
     x="418.48785"
     y="-3764.5308"
     transform="scale(4.0128205,0.24920128)"
     id="text45-6"
     style="font-size:46.95399857px;font-family:Arial;text-anchor:middle" />
  <text
     sodipodi:linespacing="125%"
     x="1469.74"
     y="-931.13"
     id="text47-0"
     style="font-size:129.22999573px;line-height:125%;font-family:'Gentium Book Basic';letter-spacing:0;word-spacing:0">
    <tspan
       x="1469.74"
       y="-931.13"
       id="tspan49-7" />
  </text>
  <text
     x="563.33716"
     y="-4085.5591"
     transform="scale(4.0128205,0.24920128)"
     id="text51-6"
     style="font-size:46.95399857px;font-family:Arial;text-anchor:middle" />
  <text
     sodipodi:linespacing="125%"
     x="-363.06"
     y="483.59"
     id="text53-2"
     style="font-size:208.33000183px;line-height:125%;font-family:'Gentium Book Basic';letter-spacing:0;word-spacing:0">
    <tspan
       x="-363.06"
       y="483.59"
       id="tspan55-9" />
  </text>
  <path
     d="M 255.99023 41 C 191.10623 41 132.94906 69.757217 93.539062 115.19922 L 201.19531 222.85547 L 201.18945 222.87109 L 93.529297 115.21094 L 196.30078 236.83984 L 223.9082 264.44727 C 225.42223 270.21751 228.44693 275.37466 232.53906 279.4668 L 232.62109 279.54883 C 232.59429 279.52223 232.56576 279.4974 232.53906 279.4707 L 291.74414 338.67578 L 290.71875 341.37695 L 267.83203 318.49219 L 267.83008 318.49023 L 256.15039 320.46094 L 75.240234 139.55078 C 53.576234 173.10978 41 213.08 41 256 C 41 279.04 44.638656 301.2293 51.347656 322.0293 L 51.349609 322.0293 L 79.582031 350.26367 L 64.039062 352.88672 L 159.10938 447.95508 C 159.10638 447.95308 159.10261 447.95317 159.09961 447.95117 L 64.039062 352.89062 C 74.393062 373.36762 87.927183 391.9593 103.99219 408.0293 L 207.96289 512 L 486.01172 512 C 487.81139 512 489.56691 511.81967 491.26172 511.47461 C 492.10912 511.30208 492.9411 511.0883 493.75586 510.83594 C 501.90343 508.31233 508.31233 501.90343 510.83594 493.75586 C 511.0883 492.9411 511.30208 492.10912 511.47461 491.26172 C 511.81967 489.56691 512 487.81139 512 486.01172 L 512 465.05859 L 512 457.40625 L 512 208.00195 L 408.00977 104.01172 L 408.00977 104.00977 C 378.95977 74.959808 341.64086 54.189531 299.88086 45.519531 L 419.01953 164.6582 L 419.01367 164.66016 L 299.88086 45.527344 L 291.90625 68.326172 L 264.7793 41.199219 C 261.86653 41.082348 258.94365 41.011876 256.00195 41.011719 L 255.99023 41 z "
     id="path59-0"
     style="opacity:0.25" />
  <path
     d="M 255.99,41 C 191.106,41 132.95,69.758 93.54,115.2 L 196.31,236.83 264.79,41.19 c -2.916,-0.117 -5.843,-0.188 -8.788,-0.188 m 43.888,4.515 -51.76,148 200.13,-33.809 c -29,-57.798 -83.3,-100.69 -148.37,-114.2 m -224.64,94.03 c -21.664,33.559 -34.24,73.53 -34.24,116.45 0,23.04 3.638,45.23 10.347,66.03 l 155.82,-26.28 -131.93,-156.19 m 385.9,51.922 -155.66,26.311 130.4,156 c 22.2,-33.834 35.13,-74.3 35.13,-117.79 0,-22.484 -3.462,-44.16 -9.864,-64.53 m -205.13,31.34 c -18.333,0 -33.19,14.857 -33.19,33.19 0,18.333 14.857,33.19 33.19,33.19 18.333,0 33.19,-14.857 33.19,-33.19 0,-18.333 -14.857,-33.19 -33.19,-33.19 m 59.37,51.28 -0.242,0.671 0.457,0.188 -13.216,34.964 c -5.972,16.618 14.03,-36.13 13.544,-34.856 l -74.28,195.46 c 4.75,0.313 9.549,0.483 14.378,0.483 64.726,0 122.78,-28.618 162.19,-73.875 l -102.82,-123.03 m -47.548,44.4 -203.79,34.397 c 29.04,57.43 83.09,100.06 147.84,113.58 l 55.953,-147.97"
     inkscape:connector-curvature="0"
     id="path131"
     style="fill:#ffffff" />
</svg>
