<?xml version="1.0" encoding="UTF-8" standalone="no"?>
<!-- Created with Inkscape (http://www.inkscape.org/) -->
<svg id="svg2" xmlns:rdf="http://www.w3.org/1999/02/22-rdf-syntax-ns#" xmlns="http://www.w3.org/2000/svg" height="100%" width="100%" version="1.1" xmlns:cc="http://creativecommons.org/ns#" viewBox="0 0 512 512" xmlns:dc="http://purl.org/dc/elements/1.1/">
 <metadata id="metadata60">
  <rdf:RDF>
   <cc:Work rdf:about="">
    <dc:format>image/svg+xml</dc:format>
    <dc:type rdf:resource="http://purl.org/dc/dcmitype/StillImage"/>
   </cc:Work>
  </rdf:RDF>
 </metadata>
 <path id="path4" d="m26 0c-14.397 0-26 11.603-26 26v460c0 14.397 11.603 26 26 26h460c14.397 0 26-11.603 26-26v-460c0-14.397-11.6-26-26-26h-460" fill="#afb922"/>
 <path id="path6" opacity=".25" style="color:#000000" d="m152.59 40.969c-64.13-0.191-119.4 61.801-111 125.69 2.085 39.691 30.847 68.3 57.781 94.03l22.375 22.375c-34.37 38.26-34.569 98.28-6.5 139.44 29.482 28.956 59.42 59.5 88.69 89.5h282.06c4.259 0 8.271-1.01 11.813-2.813-2.401-2.407-4.827-4.829-7.281-7.25 2.959 2.246 6.01 4.312 9.156 6.188 7.398-4.575 12.313-12.757 12.313-22.12v-279.59c-26.396-26.25-51.747-52.35-75.906-79.62-39.993-40.469-110.46-42.674-153.03-5.03-25.419-23.626-46.879-52.36-77.81-69.09-15.37-7.542-32.467-11.607-49.594-11.625-1.022-0.035-2.045-0.059-3.063-0.063m277.94 387c10.954 15.537 21.891 31.06 32.781 46.625-13.814-13.492-27.546-27.711-40.656-40.625-1.715-2.491-9.255-6.898 2.219-3.594l6.25 0.906-0.594-3.313m33.06 47.03c1.543 0.988-0.406 0.664 0 0m25.969 26.25c0.666 0.177-0.034 0.244 0 0"/>
 <text id="text8" style="word-spacing:0;letter-spacing:0" font-size="129.23px" line-height="125%" y="73.160004" x="-434.51999" font-family="Gentium Book Basic">
  <tspan id="tspan10" y="73.160004" x="-434.51999"/>
 </text>
 <text id="text12" style="text-anchor:middle" transform="scale(4.0128 .2492)" font-size="46.954px" y="-55.560001" x="88.800003" font-family="Arial"/>
 <text id="text14" style="word-spacing:0;letter-spacing:0" font-size="129.23px" line-height="125%" y="-6.8369999" x="146.75" font-family="Gentium Book Basic">
  <tspan id="tspan16" y="-6.8369999" x="146.75"/>
 </text>
 <text id="text18" style="text-anchor:middle" transform="scale(4.0128 .2492)" font-size="46.954px" y="-376.60001" x="233.64999" font-family="Arial"/>
 <text id="text20" style="word-spacing:0;letter-spacing:0" font-size="129.23px" line-height="125%" y="-188.10001" x="-924.83002" font-family="Gentium Book Basic">
  <tspan id="tspan22" y="-188.10001" x="-924.83002"/>
 </text>
 <text id="text24" style="text-anchor:middle" transform="scale(4.0128 .2492)" font-size="46.954px" y="-1103.9399" x="-33.393002" font-family="Arial"/>
 <text id="text26" style="word-spacing:0;letter-spacing:0" font-size="129.23px" line-height="125%" y="-404.57001" x="173.22" font-family="Gentium Book Basic">
  <tspan id="tspan28" y="-404.57001" x="173.22"/>
 </text>
 <text id="text30" style="text-anchor:middle" transform="scale(4.0128 .2492)" font-size="46.954px" y="-1972.61" x="240.25" font-family="Arial"/>
 <text id="text32" style="word-spacing:0;letter-spacing:0" font-size="129.23px" line-height="125%" y="-484.57001" x="754.48999" font-family="Gentium Book Basic">
  <tspan id="tspan34" y="-484.57001" x="754.48999"/>
 </text>
 <text id="text36" style="text-anchor:middle" transform="scale(4.0128 .2492)" font-size="46.954px" y="-2293.6399" x="385.10001" font-family="Arial"/>
 <text id="text38" style="word-spacing:0;letter-spacing:0" font-size="129.23px" line-height="125%" y="-956.96997" x="365.37" font-family="Gentium Book Basic">
  <tspan id="tspan40" y="-956.96997" x="365.37"/>
 </text>
 <text id="text42" style="text-anchor:middle" transform="scale(4.0128 .2492)" font-size="46.954px" y="-4189.2798" x="288.13" font-family="Arial"/>
 <text id="text44" style="word-spacing:0;letter-spacing:0" font-size="129.23px" line-height="125%" y="-1036.98" x="946.63" font-family="Gentium Book Basic">
  <tspan id="tspan46" y="-1036.98" x="946.63"/>
 </text>
 <text id="text48" style="text-anchor:middle" transform="scale(4.0128 .2492)" font-size="46.954px" y="-4510.3198" x="432.97" font-family="Arial"/>
 <text id="text50" style="word-spacing:0;letter-spacing:0" font-size="208.33px" line-height="125%" y="377.73999" x="-886.16998" font-family="Gentium Book Basic">
  <tspan id="tspan52" y="377.73999" x="-886.16998"/>
 </text>
 <path id="path54" style="color:#000000" d="m158.53 41.077a114.21 114.21 0 0 0 -117.53 114.16 114.21 114.21 0 0 0 80.93 109.03c22.383-21.278 51.891-34.92 83.31-34.891 8.665-0.301 17.316 0.492 25.871 1.918-0.735-3.998-1.324-8.04-1.608-12.13-3.896-35.978 10.43-71.37 34.79-97.26a114.21 114.21 0 0 0 -105.76 -80.834m201.57 53.711a114.21 114.21 0 0 0 -117.53 114.16 114.21 114.21 0 0 0 228.43 0 114.21 114.21 0 0 0 -110.9 -114.16m-147.81 147.81a114.21 114.21 0 0 0 -117.53 114.16 114.21 114.21 0 0 0 228.43 0 114.21 114.21 0 0 0 -2.9033 -25.248c-40.06-12.41-73.38-45.78-85.8-86.01a114.21 114.21 0 0 0 -22.189 -2.9033" fill="#fff"/>
</svg>
