<?xml version="1.0" encoding="UTF-8" standalone="no"?>
<!-- Created with Inkscape (http://www.inkscape.org/) -->
<svg id="svg2" xmlns:rdf="http://www.w3.org/1999/02/22-rdf-syntax-ns#" xmlns="http://www.w3.org/2000/svg" height="100%" width="100%" version="1.1" xmlns:cc="http://creativecommons.org/ns#" xmlns:dc="http://purl.org/dc/elements/1.1/" viewBox="0 0 512 512">
 <metadata id="metadata241">
  <rdf:RDF>
   <cc:Work rdf:about="">
    <dc:format>image/svg+xml</dc:format>
    <dc:type rdf:resource="http://purl.org/dc/dcmitype/StillImage"/>
    <dc:title/>
   </cc:Work>
  </rdf:RDF>
 </metadata>
 <text id="text11" style="word-spacing:0;letter-spacing:0" font-size="129.23px" line-height="125%" y="218.89999" x="189.84" font-family="Gentium Book Basic">
  <tspan id="tspan13" y="218.89999" x="189.84"/>
 </text>
 <text id="text15" style="text-anchor:middle" transform="scale(4.0128 .2492)" font-size="46.954px" y="529.23999" x="244.39" font-family="Arial"/>
 <text id="text17" style="word-spacing:0;letter-spacing:0" font-size="129.23px" line-height="125%" y="138.89999" x="771.10999" font-family="Gentium Book Basic">
  <tspan id="tspan19" y="138.89999" x="771.10999"/>
 </text>
 <text id="text21" style="text-anchor:middle" transform="scale(4.0128 .2492)" font-size="46.954px" y="208.22" x="389.23999" font-family="Arial"/>
 <text id="text23" style="word-spacing:0;letter-spacing:0" font-size="129.23px" line-height="125%" y="-42.360001" x="-300.47" font-family="Gentium Book Basic">
  <tspan id="tspan25" y="-42.360001" x="-300.47"/>
 </text>
 <text id="text27" style="text-anchor:middle" transform="scale(4.0128 .2492)" font-size="46.954px" y="-519.14001" x="122.2" font-family="Arial"/>
 <text id="text29" style="word-spacing:0;letter-spacing:0" font-size="129.23px" line-height="125%" y="-258.82999" x="797.58002" font-family="Gentium Book Basic">
  <tspan id="tspan31" y="-258.82999" x="797.58002"/>
 </text>
 <text id="text33" style="text-anchor:middle" transform="scale(4.0128 .2492)" font-size="46.954px" y="-1387.8101" x="395.84" font-family="Arial"/>
 <text id="text35" style="word-spacing:0;letter-spacing:0" font-size="129.23px" line-height="125%" y="-338.84" x="1378.85" font-family="Gentium Book Basic">
  <tspan id="tspan37" y="-338.84" x="1378.85"/>
 </text>
 <text id="text39" style="text-anchor:middle" transform="scale(4.0128 .2492)" font-size="46.954px" y="-1708.84" x="540.69" font-family="Arial"/>
 <text id="text41" style="word-spacing:0;letter-spacing:0" font-size="129.23px" line-height="125%" y="-811.23999" x="989.72998" font-family="Gentium Book Basic">
  <tspan id="tspan43" y="-811.23999" x="989.72998"/>
 </text>
 <text id="text45" style="text-anchor:middle" transform="scale(4.0128 .2492)" font-size="46.954px" y="-3604.5" x="443.72" font-family="Arial"/>
 <text id="text47" style="word-spacing:0;letter-spacing:0" font-size="129.23px" line-height="125%" y="-891.23999" x="1570.99" font-family="Gentium Book Basic">
  <tspan id="tspan49" y="-891.23999" x="1570.99"/>
 </text>
 <text id="text51" style="text-anchor:middle" transform="scale(4.0128 .2492)" font-size="46.954px" y="-3925.52" x="588.57001" font-family="Arial"/>
 <text id="text53" style="word-spacing:0;letter-spacing:0" font-size="208.33px" line-height="125%" y="523.47998" x="-261.81" font-family="Gentium Book Basic">
  <tspan id="tspan55" y="523.47998" x="-261.81"/>
 </text>
 <text id="text11-2" font-size="129.23px" style="word-spacing:0;letter-spacing:0" line-height="125%" y="179.00999" x="88.589996" font-family="&apos;Gentium Book Basic&apos;">
  <tspan id="tspan13-7" y="179.00999" x="88.589996"/>
 </text>
 <text id="text15-5" style="text-anchor:middle" transform="scale(4.0128 .24920)" font-size="46.954px" y="369.18811" x="219.15887" font-family="Arial"/>
 <text id="text17-2" font-size="129.23px" style="word-spacing:0;letter-spacing:0" line-height="125%" y="99.010002" x="669.85999" font-family="&apos;Gentium Book Basic&apos;">
  <tspan id="tspan19-9" y="99.010002" x="669.85999"/>
 </text>
 <text id="text21-5" style="text-anchor:middle" transform="scale(4.0128 .24920)" font-size="46.954px" y="48.159752" x="364.00815" font-family="Arial"/>
 <text id="text23-9" font-size="129.23px" style="word-spacing:0;letter-spacing:0" line-height="125%" y="-82.25" x="-401.72" font-family="&apos;Gentium Book Basic&apos;">
  <tspan id="tspan25-2" y="-82.25" x="-401.72"/>
 </text>
 <text id="text27-3" style="text-anchor:middle" transform="scale(4.0128 .24920)" font-size="46.954px" y="-679.18652" x="96.969505" font-family="Arial"/>
 <text id="text29-4" font-size="129.23px" style="word-spacing:0;letter-spacing:0" line-height="125%" y="-298.72" x="696.33002" font-family="&apos;Gentium Book Basic&apos;">
  <tspan id="tspan31-9" y="-298.72" x="696.33002"/>
 </text>
 <text id="text33-9" style="text-anchor:middle" transform="scale(4.0128 .24920)" font-size="46.954px" y="-1547.8521" x="370.60809" font-family="Arial"/>
 <text id="text35-4" font-size="129.23px" style="word-spacing:0;letter-spacing:0" line-height="125%" y="-378.73001" x="1277.6" font-family="&apos;Gentium Book Basic&apos;">
  <tspan id="tspan37-1" y="-378.73001" x="1277.6"/>
 </text>
 <text id="text39-8" style="text-anchor:middle" transform="scale(4.0128 .24920)" font-size="46.954px" y="-1868.8905" x="515.4574" font-family="Arial"/>
 <text id="text41-3" font-size="129.23px" style="word-spacing:0;letter-spacing:0" line-height="125%" y="-851.13" x="888.47998" font-family="&apos;Gentium Book Basic&apos;">
  <tspan id="tspan43-6" y="-851.13" x="888.47998"/>
 </text>
 <text id="text45-6" style="text-anchor:middle" transform="scale(4.0128 .24920)" font-size="46.954px" y="-3764.5308" x="418.48785" font-family="Arial"/>
 <text id="text47-0" font-size="129.23px" style="word-spacing:0;letter-spacing:0" line-height="125%" y="-931.13" x="1469.74" font-family="&apos;Gentium Book Basic&apos;">
  <tspan id="tspan49-7" y="-931.13" x="1469.74"/>
 </text>
 <text id="text51-6" style="text-anchor:middle" transform="scale(4.0128 .24920)" font-size="46.954px" y="-4085.5591" x="563.33716" font-family="Arial"/>
 <text id="text53-2" font-size="208.33px" style="word-spacing:0;letter-spacing:0" line-height="125%" y="483.59" x="-363.06" font-family="&apos;Gentium Book Basic&apos;">
  <tspan id="tspan55-9" y="483.59" x="-363.06"/>
 </text>
 <text id="text11-0" font-size="129.23px" style="word-spacing:0;letter-spacing:0" line-height="125%" y="223.5" x="7.2849998" font-family="&apos;Gentium Book Basic&apos;">
  <tspan id="tspan13-2" y="223.5" x="7.2849998"/>
 </text>
 <text id="text15-3" style="text-anchor:middle" transform="scale(4.0128 .24920)" font-size="46.954px" y="547.70721" x="198.89897" font-family="Arial"/>
 <text id="text17-1" font-size="129.23px" style="word-spacing:0;letter-spacing:0" line-height="125%" y="143.5" x="588.56" font-family="&apos;Gentium Book Basic&apos;">
  <tspan id="tspan19-4" y="143.5" x="588.56"/>
 </text>
 <text id="text21-6" style="text-anchor:middle" transform="scale(4.0128 .24920)" font-size="46.954px" y="226.67883" x="343.74823" font-family="Arial"/>
 <text id="text23-8" font-size="129.23px" style="word-spacing:0;letter-spacing:0" line-height="125%" y="-37.759998" x="-483.01999" font-family="&apos;Gentium Book Basic&apos;">
  <tspan id="tspan25-9" y="-37.759998" x="-483.01999"/>
 </text>
 <text id="text27-8" style="text-anchor:middle" transform="scale(4.0128 .24920)" font-size="46.954px" y="-500.66745" x="76.70961" font-family="Arial"/>
 <text id="text29-9" font-size="129.23px" style="word-spacing:0;letter-spacing:0" line-height="125%" y="-254.23" x="615.03003" font-family="&apos;Gentium Book Basic&apos;">
  <tspan id="tspan31-6" y="-254.23" x="615.03003"/>
 </text>
 <text id="text33-94" style="text-anchor:middle" transform="scale(4.0128 .24920)" font-size="46.954px" y="-1369.333" x="350.34821" font-family="Arial"/>
 <text id="text35-1" font-size="129.23px" style="word-spacing:0;letter-spacing:0" line-height="125%" y="-334.23999" x="1196.3" font-family="&apos;Gentium Book Basic&apos;">
  <tspan id="tspan37-3" y="-334.23999" x="1196.3"/>
 </text>
 <text id="text39-3" style="text-anchor:middle" transform="scale(4.0128 .24920)" font-size="46.954px" y="-1690.3713" x="495.18747" font-family="Arial"/>
 <text id="text41-1" font-size="129.23px" style="word-spacing:0;letter-spacing:0" line-height="125%" y="-806.64001" x="807.17999" font-family="&apos;Gentium Book Basic&apos;">
  <tspan id="tspan43-8" y="-806.64001" x="807.17999"/>
 </text>
 <text id="text45-7" style="text-anchor:middle" transform="scale(4.0128 .24920)" font-size="46.954px" y="-3586.0117" x="398.22797" font-family="Arial"/>
 <text id="text47-9" font-size="129.23px" style="word-spacing:0;letter-spacing:0" line-height="125%" y="-886.64001" x="1388.4399" font-family="&apos;Gentium Book Basic&apos;">
  <tspan id="tspan49-1" y="-886.64001" x="1388.4399"/>
 </text>
 <text id="text51-3" style="text-anchor:middle" transform="scale(4.0128 .24920)" font-size="46.954px" y="-3907.04" x="543.0672" font-family="Arial"/>
 <text id="text53-7" font-size="208.33px" style="word-spacing:0;letter-spacing:0" line-height="125%" y="528.08002" x="-444.35999" font-family="&apos;Gentium Book Basic&apos;">
  <tspan id="tspan55-3" y="528.08002" x="-444.35999"/>
 </text>
 <rect id="rect9-7" rx="25.988" height="512" width="512" y="0" x="0" fill="#707175"/>
 <text id="text11-3" font-size="129.23px" style="word-spacing:0;letter-spacing:0" line-height="125%" y="214.3" x="153.02" font-family="&apos;Gentium Book Basic&apos;">
  <tspan id="tspan13-6" y="214.3" x="153.02"/>
 </text>
 <text id="text15-0" style="text-anchor:middle" transform="scale(4.0128 .24920)" font-size="46.954px" y="510.77737" x="235.2088" font-family="Arial"/>
 <text id="text17-6" font-size="129.23px" style="word-spacing:0;letter-spacing:0" line-height="125%" y="134.3" x="734.28998" font-family="&apos;Gentium Book Basic&apos;">
  <tspan id="tspan19-6" y="134.3" x="734.28998"/>
 </text>
 <text id="text21-2" style="text-anchor:middle" transform="scale(4.0128 .24920)" font-size="46.954px" y="189.74902" x="380.05804" font-family="Arial"/>
 <text id="text23-99" font-size="129.23px" style="word-spacing:0;letter-spacing:0" line-height="125%" y="-46.964001" x="-337.29001" font-family="&apos;Gentium Book Basic&apos;">
  <tspan id="tspan25-7" y="-46.964001" x="-337.29001"/>
 </text>
 <text id="text27-7" style="text-anchor:middle" transform="scale(4.0128 .24920)" font-size="46.954px" y="-537.60724" x="113.01942" font-family="Arial"/>
 <text id="text29-7" font-size="129.23px" style="word-spacing:0;letter-spacing:0" line-height="125%" y="-263.42999" x="760.76001" font-family="&apos;Gentium Book Basic&apos;">
  <tspan id="tspan31-8" y="-263.42999" x="760.76001"/>
 </text>
 <text id="text33-7" style="text-anchor:middle" transform="scale(4.0128 .24920)" font-size="46.954px" y="-1406.2628" x="386.65802" font-family="Arial"/>
 <text id="text35-9" font-size="129.23px" style="word-spacing:0;letter-spacing:0" line-height="125%" y="-343.44" x="1342.03" font-family="&apos;Gentium Book Basic&apos;">
  <tspan id="tspan37-7" y="-343.44" x="1342.03"/>
 </text>
 <text id="text39-6" style="text-anchor:middle" transform="scale(4.0128 .24920)" font-size="46.954px" y="-1727.3013" x="531.50726" font-family="Arial"/>
 <text id="text41-5" font-size="129.23px" style="word-spacing:0;letter-spacing:0" line-height="125%" y="-815.84003" x="952.90997" font-family="&apos;Gentium Book Basic&apos;">
  <tspan id="tspan43-80" y="-815.84003" x="952.90997"/>
 </text>
 <text id="text45-8" style="text-anchor:middle" transform="scale(4.0128 .24920)" font-size="46.954px" y="-3622.9414" x="434.53778" font-family="Arial"/>
 <text id="text47-1" font-size="129.23px" style="word-spacing:0;letter-spacing:0" line-height="125%" y="-895.84003" x="1534.17" font-family="&apos;Gentium Book Basic&apos;">
  <tspan id="tspan49-8" y="-895.84003" x="1534.17"/>
 </text>
 <text id="text51-7" style="text-anchor:middle" transform="scale(4.0128 .24920)" font-size="46.954px" y="-3943.9697" x="579.38702" font-family="Arial"/>
 <text id="text53-21" font-size="208.33px" style="word-spacing:0;letter-spacing:0" line-height="125%" y="518.88" x="-298.63" font-family="&apos;Gentium Book Basic&apos;">
  <tspan id="tspan55-39" y="518.88" x="-298.63"/>
 </text>
 <path id="path59-6" opacity=".25" style="color:#000000" d="m105.88 42l202.65 202.65-44.22-30.15-167.5-167.5 0.001 42.84v0.004 0.308l109.8 109.81-109.8-109.8 0.001 173.97 87.769 87.77-85.23 58.1 38.32 38.32-4.37 2.98-36.489-36.49v50.38l46.809 46.81h342.39c14.4 0 25.99-11.59 25.99-25.99v-135.48l-99.34-99.34-306.78-209.19z"/>
 <path id="path77" style="color:#000000" d="m102.59 41a5.8069 5.8069 0 0 0 -5.7812 5.8125 5.8069 5.8069 0 0 0 0 0.1875v42.844 0.313 173.97a5.8069 5.8069 0 0 0 9.0625 4.8125l118.88-81.41 100.47 68.5-225.88 153.97a5.8069 5.8069 0 0 0 -2.5312 4.8125v50.38a5.8069 5.8069 0 0 0 9.071 4.81l306.78-209.19a5.8069 5.8069 0 0 0 0 -9.625l-306.78-209.18a5.8069 5.8069 0 0 0 -3.2812 -1" fill="#fff"/>
</svg>
