<?xml version="1.0" encoding="UTF-8" standalone="no"?>
<svg id="svg2" xmlns:rdf="http://www.w3.org/1999/02/22-rdf-syntax-ns#" xmlns="http://www.w3.org/2000/svg" height="100%" viewBox="0 0 512 512" width="100%" version="1.1" xmlns:cc="http://creativecommons.org/ns#" xmlns:xlink="http://www.w3.org/1999/xlink" xmlns:dc="http://purl.org/dc/elements/1.1/">
 <metadata id="metadata10">
  <rdf:RDF>
   <cc:Work rdf:about="">
    <dc:format>image/svg+xml</dc:format>
    <dc:type rdf:resource="http://purl.org/dc/dcmitype/StillImage"/>
    <dc:title/>
   </cc:Work>
  </rdf:RDF>
 </metadata>
 <defs id="defs8">
  <linearGradient id="ButtonShadow" x1="45.448" gradientUnits="userSpaceOnUse" y1="92.54" gradientTransform="scale(1.0059 .99417)" x2="45.448" y2="7.0165">
   <stop id="stop3750-1" offset="0"/>
   <stop id="stop3752-6" stop-opacity=".58824" offset="1"/>
  </linearGradient>
  <filter id="filter3174" color-interpolation-filters="sRGB">
   <feGaussianBlur id="feGaussianBlur3176" stdDeviation="1.71"/>
  </filter>
  <filter id="filter3174-6" color-interpolation-filters="sRGB">
   <feGaussianBlur id="feGaussianBlur3176-6" stdDeviation="1.71"/>
  </filter>
  <linearGradient id="linearGradient9335" y2="7.0165" xlink:href="#ButtonShadow" gradientUnits="userSpaceOnUse" x2="45.448" gradientTransform="scale(1.0059 .99417)" y1="92.54" x1="45.448"/>
  <filter id="filter3174-2" color-interpolation-filters="sRGB">
   <feGaussianBlur id="feGaussianBlur3176-64" stdDeviation="1.71"/>
  </filter>
  <filter id="filter3174-9" color-interpolation-filters="sRGB">
   <feGaussianBlur id="feGaussianBlur3176-1" stdDeviation="1.71"/>
  </filter>
  <radialGradient id="radialGradient21305" cx="64" xlink:href="#linearGradient4216-1" gradientUnits="userSpaceOnUse" cy="64" r="64" gradientTransform="matrix(4.1658 0 0 3.8875 118.08 -116.51)"/>
  <linearGradient id="linearGradient4216-1">
   <stop id="stop4218-0" stop-color="#fff" offset="0"/>
   <stop id="stop4220-2" stop-color="#e8e8e8" offset=".6875"/>
   <stop id="stop4222-6" stop-color="#686868" offset=".875"/>
   <stop id="stop4224-6" offset="1"/>
  </linearGradient>
  <filter id="filter3174-3" color-interpolation-filters="sRGB">
   <feGaussianBlur id="feGaussianBlur3176-17" stdDeviation="1.71"/>
  </filter>
  <radialGradient id="radialGradient21305-6" gradientUnits="userSpaceOnUse" xlink:href="#linearGradient4216-1" cx="64" cy="64" r="64" gradientTransform="matrix(4.1658 0 0 3.8875 29.334 -198.73)"/>
  <filter id="filter3174-7" color-interpolation-filters="sRGB">
   <feGaussianBlur id="feGaussianBlur3176-68" stdDeviation="1.71"/>
  </filter>
  <radialGradient id="radialGradient21305-3" cx="64" xlink:href="#linearGradient4216-1" gradientUnits="userSpaceOnUse" cy="64" r="64" gradientTransform="matrix(4.1658 0 0 3.8875 50.075 -134.32)"/>
  <filter id="filter3174-70" color-interpolation-filters="sRGB">
   <feGaussianBlur id="feGaussianBlur3176-8" stdDeviation="1.71"/>
  </filter>
  <radialGradient id="radialGradient21305-7" xlink:href="#linearGradient4216-1" gradientUnits="userSpaceOnUse" cy="64" cx="64" gradientTransform="matrix(4.1658 0 0 3.8875 24.263 -91.238)" r="64"/>
  <radialGradient id="radialGradient21305-67" cx="64" xlink:href="#linearGradient4216-1" gradientUnits="userSpaceOnUse" cy="64" r="64" gradientTransform="matrix(4.1658 0 0 3.8875 -3.2516 -83.826)"/>
  <filter id="filter3174-5" color-interpolation-filters="sRGB">
   <feGaussianBlur id="feGaussianBlur3176-75" stdDeviation="1.71"/>
  </filter>
  <radialGradient id="radialGradient21305-62" gradientUnits="userSpaceOnUse" xlink:href="#linearGradient4216-1" cx="64" cy="64" r="64" gradientTransform="matrix(4.1658 0 0 3.8875 96.991 -110.83)"/>
  <filter id="filter3657" color-interpolation-filters="sRGB">
   <feGaussianBlur id="feGaussianBlur3659" stdDeviation="1.14"/>
  </filter>
  <clipPath id="clipPath3649">
   <rect id="rect3651" rx="4" ry="4" height="76" width="76" y="10" x="10" fill="#fff"/>
  </clipPath>
  <clipPath id="clipPath3625">
   <path id="path3627" fill="#fff" d="m0 0v96h96v-96h-96zm12 6h72c3.324 0 6 2.676 6 6v72c0 3.324-2.676 6-6 6h-72c-3.324 0-6-2.676-6-6v-72c0-3.324 2.676-6 6-6z"/>
  </clipPath>
  <filter id="filter3174-2-6" color-interpolation-filters="sRGB">
   <feGaussianBlur id="feGaussianBlur3176-8-0" stdDeviation="1.71"/>
  </filter>
  <linearGradient id="linearGradient3737">
   <stop id="stop3739" stop-color="#fff" offset="0"/>
   <stop id="stop3741" stop-color="#fff" stop-opacity="0" offset="1"/>
  </linearGradient>
  <linearGradient id="ButtonShadow-3" y2="7.0165" gradientUnits="userSpaceOnUse" x2="45.448" gradientTransform="scale(1.0059 .99417)" y1="92.54" x1="45.448">
   <stop id="stop3750-5" offset="0"/>
   <stop id="stop3752-74" stop-opacity=".58824" offset="1"/>
  </linearGradient>
  <linearGradient id="linearGradient3329" y2="7.0165" xlink:href="#ButtonShadow-3" gradientUnits="userSpaceOnUse" y1="92.54" gradientTransform="scale(1.0059 .99417)" x2="45.448" x1="45.448"/>
  <filter id="filter3174-0" color-interpolation-filters="sRGB">
   <feGaussianBlur id="feGaussianBlur3176-9" stdDeviation="1.71"/>
  </filter>
  <filter id="filter3174-6-7" color-interpolation-filters="sRGB">
   <feGaussianBlur id="feGaussianBlur3176-7" stdDeviation="1.71"/>
  </filter>
  <linearGradient id="linearGradient31361" y2="5.9877" gradientUnits="userSpaceOnUse" y1="90" gradientTransform="matrix(5.5614 0 0 5.5614 -654.45 384.26)" x2="48" x1="48">
   <stop id="stop3702" stop-color="#2276c5" offset="0"/>
   <stop id="stop3704" stop-color="#68baf4" offset="1"/>
  </linearGradient>
  <radialGradient id="radialGradient31364" gradientUnits="userSpaceOnUse" xlink:href="#linearGradient3737" cx="48" cy="90.172" r="42" gradientTransform="matrix(6.4363 0 0 5.5387 -696.45 -170.79)"/>
  <linearGradient id="linearGradient31367" y2="63.893" xlink:href="#linearGradient3737" gradientUnits="userSpaceOnUse" y1="6" gradientTransform="matrix(5.5614 0 0 5.5614 -654.45 -171.89)" x2="36.357" x1="36.357"/>
  <linearGradient id="linearGradient31370" y2="90.015" gradientUnits="userSpaceOnUse" y1="6" gradientTransform="matrix(5.5614 0 0 5.5614 -654.45 -171.89)" x2="44.512" x1="44.512">
   <stop id="stop3639" stop-color="#f0f0f0" offset="0"/>
   <stop id="stop3641" stop-color="#dcdcdc" offset="1"/>
  </linearGradient>
  <radialGradient id="radialGradient21305-0-5" xlink:href="#linearGradient4216-1" gradientUnits="userSpaceOnUse" cy="64" cx="64" gradientTransform="matrix(4.1658 0 0 3.8875 1520.4 -226.23)" r="64"/>
  <filter id="filter3174-1" color-interpolation-filters="sRGB">
   <feGaussianBlur id="feGaussianBlur3176-4" stdDeviation="1.71"/>
  </filter>
  <filter id="filter3794" height="1.384" width="1.384" color-interpolation-filters="sRGB" y="-.192" x="-.192">
   <feGaussianBlur id="feGaussianBlur3796" stdDeviation="5.28"/>
  </filter>
  <linearGradient id="linearGradient3613" y2="138.66" xlink:href="#linearGradient3737" gradientUnits="userSpaceOnUse" x2="48" y1="20.221" x1="48"/>
  <clipPath id="clipPath3613">
   <rect id="rect3615" rx="6" ry="6" height="84" width="84" y="6" x="6" fill="#fff"/>
  </clipPath>
  <filter id="filter3174-08" color-interpolation-filters="sRGB">
   <feGaussianBlur id="feGaussianBlur3176-77" stdDeviation="1.71"/>
  </filter>
  <filter id="filter3794-8" height="1.384" width="1.384" color-interpolation-filters="sRGB" y="-.192" x="-.192">
   <feGaussianBlur id="feGaussianBlur3796-1" stdDeviation="5.28"/>
  </filter>
  <clipPath id="clipPath3613-1">
   <rect id="rect3615-2" rx="6" ry="6" height="84" width="84" y="6" x="6" fill="#fff"/>
  </clipPath>
 </defs>
 <g id="layer2" display="none" transform="matrix(6.7274 0 0 6.7274 -2789.7 -809.34)">
  <rect id="rect3745" opacity=".9" rx="6" ry="6" height="85" filter="url(#filter3174)" width="86" y="7" x="5" fill="url(#ButtonShadow)"/>
 </g>
 <g id="layer2-7" display="none" transform="matrix(6.7274 0 0 6.7274 -2775.1 -809.34)">
  <rect id="rect3745-8" opacity=".9" rx="6" ry="6" height="85" filter="url(#filter3174-6)" width="86" y="7" x="5" fill="url(#linearGradient9335)"/>
 </g>
 <path id="path4230" d="m428.79 165.47c-2.1202 7.3447-36.402 181.33-29.267 189.98 6.1765 7.4828 15.826 4.2405 17.946-3.1042-2.1202 7.3447-6.3607 22.034-8.4809 29.379-17.946 3.1042-33.92-0.81668-37.444-17.946-4.0713-19.793 27.134-182.59 29.267-189.98-4.7411-8.958-29.531-15.826-33.772-1.1362l-7.9128-2.1202c18.514-34.603 53.838-9.3127 69.663-5.0722z" display="none"/>
 <path id="path4232" d="m406.6 183.26c-26.427 32.483-124.22 164.54-147.96 158.17l-15.826-4.2405 12.153-12.569 7.9128 2.1202c15.826 4.2405 123.65-133.04 140.05-160.3 12.573-20.906 3.6724 16.81 3.6724 16.81z" display="none"/>
 <path id="path4234" d="m343.72 253.45 47.477 12.721-4.2405 14.689-55.39-14.842z" display="none"/>
 <g id="layer2-4" display="none" transform="matrix(6.7274 0 0 6.7274 -2768.6 -809.34)">
  <rect id="rect3745-6" opacity=".9" rx="6" ry="6" height="85" filter="url(#filter3174-2)" width="86" y="7" x="5" fill="url(#linearGradient9335)"/>
 </g>
 <path id="path4230-6" d="m435.3 165.47c-2.1202 7.3447-36.402 181.33-29.267 189.98 6.1765 7.4828 15.826 4.2405 17.946-3.1042-2.1202 7.3447-6.3607 22.034-8.4809 29.379-17.946 3.1042-33.92-0.81668-37.444-17.946-4.0713-19.793 27.134-182.59 29.267-189.98-4.7411-8.958-29.531-15.826-33.772-1.1362l-7.9128-2.1202c18.514-34.603 53.838-9.3127 69.663-5.0722z" display="none"/>
 <path id="path4232-1" d="m413.11 183.26c-26.427 32.483-124.22 164.54-147.96 158.17l-15.826-4.2405 12.153-12.569 7.9128 2.1202c15.826 4.2405 123.65-133.04 140.05-160.3 12.573-20.906 3.6724 16.81 3.6724 16.81z" display="none"/>
 <path id="path4234-5" d="m350.22 253.45 47.477 12.721-4.2405 14.689-55.39-14.842z" display="none"/>
 <path id="path4230-5" d="m435.3 165.47c-2.1202 7.3447-36.402 181.33-29.267 189.98 6.1765 7.4828 15.826 4.2405 17.946-3.1042-2.1202 7.3447-6.3607 22.034-8.4809 29.379-17.946 3.1042-33.92-0.81668-37.444-17.946-4.0713-19.793 27.134-182.59 29.267-189.98-4.7411-8.958-29.531-15.826-33.772-1.1362l-7.9128-2.1202c18.514-34.603 53.838-9.3127 69.663-5.0722z" display="none"/>
 <path id="path4232-3" d="m413.11 183.26c-26.427 32.483-124.22 164.54-147.96 158.17l-15.826-4.2405 12.153-12.569 7.9128 2.1202c15.826 4.2405 123.65-133.04 140.05-160.3 12.573-20.906 3.6724 16.81 3.6724 16.81z" display="none"/>
 <path id="path4234-4" d="m350.22 253.45 47.477 12.721-4.2405 14.689-55.39-14.842z" display="none"/>
 <style id="style1470" type="text/css"/>
 <g id="layer2-5" display="none" transform="matrix(6.7274 0 0 6.7274 -2766.4 -809.34)">
  <rect id="rect3745-1" opacity=".9" rx="6" ry="6" height="85" filter="url(#filter3174-9)" width="86" y="7" x="5" fill="url(#linearGradient9335)"/>
 </g>
 <path id="path4230-9" d="m437.47 165.47c-2.1202 7.3447-36.402 181.33-29.267 189.98 6.1765 7.4828 15.826 4.2405 17.946-3.1042-2.1202 7.3447-6.3607 22.034-8.4809 29.379-17.946 3.1042-33.92-0.81668-37.444-17.946-4.0713-19.793 27.134-182.59 29.267-189.98-4.7411-8.958-29.531-15.826-33.772-1.1362l-7.9128-2.1202c18.514-34.603 53.838-9.3127 69.663-5.0722z" display="none"/>
 <path id="path4232-2" d="m415.28 183.26c-26.43 32.48-124.22 164.54-147.96 158.18l-15.826-4.2405 12.153-12.569 7.9128 2.1202c15.826 4.2405 123.65-133.04 140.05-160.3 12.573-20.906 3.6724 16.81 3.6724 16.81z" display="none"/>
 <path id="path4234-3" d="m352.39 253.45 47.477 12.721-4.2405 14.689-55.39-14.842z" display="none"/>
 <path id="path4230-5-1" d="m437.47 165.47c-2.1202 7.3447-36.402 181.33-29.267 189.98 6.1765 7.4828 15.826 4.2405 17.946-3.1042-2.1202 7.3447-6.3607 22.034-8.4809 29.379-17.946 3.1042-33.92-0.81668-37.444-17.946-4.0713-19.793 27.134-182.59 29.267-189.98-4.7411-8.958-29.531-15.826-33.772-1.1362l-7.9128-2.1202c18.514-34.603 53.838-9.3127 69.663-5.0722z" display="none"/>
 <path id="path4232-3-5" d="m415.28 183.26c-26.43 32.48-124.22 164.54-147.96 158.18l-15.826-4.2405 12.153-12.569 7.9128 2.1202c15.826 4.2405 123.65-133.04 140.05-160.3 12.573-20.906 3.6724 16.81 3.6724 16.81z" display="none"/>
 <path id="path4234-4-5" d="m352.39 253.45 47.477 12.721-4.2405 14.689-55.39-14.842z" display="none"/>
 <path id="path4230-0" d="m437.47 165.47c-2.1202 7.3447-36.402 181.33-29.267 189.98 6.1765 7.4828 15.826 4.2405 17.946-3.1042-2.1202 7.3447-6.3607 22.034-8.4809 29.379-17.946 3.1042-33.92-0.81668-37.444-17.946-4.0713-19.793 27.134-182.59 29.267-189.98-4.7411-8.958-29.531-15.826-33.772-1.1362l-7.9128-2.1202c18.514-34.603 53.838-9.3127 69.663-5.0722z" display="none"/>
 <path id="path4232-7" d="m415.28 183.26c-26.43 32.48-124.22 164.54-147.96 158.18l-15.826-4.2405 12.153-12.569 7.9128 2.1202c15.826 4.2405 123.65-133.04 140.05-160.3 12.573-20.906 3.6724 16.81 3.6724 16.81z" display="none"/>
 <path id="path4234-0" d="m352.39 253.45 47.477 12.721-4.2405 14.689-55.39-14.842z" display="none"/>
 <ellipse id="path3281-0-0" rx="266.61" transform="matrix(.96593 .25882 -.27735 .96077 0 0)" ry="248.8" cy="132.29" cx="384.69" display="none" fill="url(#radialGradient21305)"/>
 <style id="style1470-0" type="text/css"/>
 <g id="layer2-73" display="none" transform="matrix(6.7274 0 0 6.7274 -2829.3 -911.3)">
  <rect id="rect3745-4" opacity=".9" rx="6" ry="6" height="85" filter="url(#filter3174-3)" width="86" y="7" x="5" fill="url(#linearGradient9335)"/>
 </g>
 <path id="path4230-7" d="m374.55 63.502c-2.1202 7.3447-36.402 181.33-29.267 189.98 6.1765 7.4828 15.826 4.2405 17.946-3.1042-2.1202 7.3447-6.3607 22.034-8.4809 29.379-17.946 3.1042-33.92-0.81668-37.444-17.946-4.0713-19.793 27.134-182.59 29.267-189.98-4.7411-8.958-29.531-15.826-33.772-1.1362l-7.9128-2.1202c18.514-34.603 53.838-9.3127 69.663-5.0722z" display="none"/>
 <path id="path4232-6" d="m352.36 81.296c-26.427 32.483-124.22 164.54-147.96 158.17l-15.826-4.2405 12.153-12.569 7.9128 2.1202c15.826 4.2405 123.65-133.04 140.05-160.3 12.573-20.906 3.6724 16.81 3.6724 16.81z" display="none"/>
 <path id="path4234-30" d="m289.48 151.49 47.477 12.721-4.2405 14.689-55.39-14.842z" display="none"/>
 <path id="path4230-5-9" d="m374.55 63.502c-2.1202 7.3447-36.402 181.33-29.267 189.98 6.1765 7.4828 15.826 4.2405 17.946-3.1042-2.1202 7.3447-6.3607 22.034-8.4809 29.379-17.946 3.1042-33.92-0.81668-37.444-17.946-4.0713-19.793 27.134-182.59 29.267-189.98-4.7411-8.958-29.531-15.826-33.772-1.1362l-7.9128-2.1202c18.514-34.603 53.838-9.3127 69.663-5.0722z" display="none"/>
 <path id="path4232-3-4" d="m352.36 81.296c-26.427 32.483-124.22 164.54-147.96 158.17l-15.826-4.2405 12.153-12.569 7.9128 2.1202c15.826 4.2405 123.65-133.04 140.05-160.3 12.573-20.906 3.6724 16.81 3.6724 16.81z" display="none"/>
 <path id="path4234-4-2" d="m289.48 151.49 47.477 12.721-4.2405 14.689-55.39-14.842z" display="none"/>
 <path id="path4230-0-5" d="m374.55 63.502c-2.1202 7.3447-36.402 181.33-29.267 189.98 6.1765 7.4828 15.826 4.2405 17.946-3.1042-2.1202 7.3447-6.3607 22.034-8.4809 29.379-17.946 3.1042-33.92-0.81668-37.444-17.946-4.0713-19.793 27.134-182.59 29.267-189.98-4.7411-8.958-29.531-15.826-33.772-1.1362l-7.9128-2.1202c18.514-34.603 53.838-9.3127 69.663-5.0722z" display="none"/>
 <path id="path4232-7-7" d="m352.36 81.296c-26.427 32.483-124.22 164.54-147.96 158.17l-15.826-4.2405 12.153-12.569 7.9128 2.1202c15.826 4.2405 123.65-133.04 140.05-160.3 12.573-20.906 3.6724 16.81 3.6724 16.81z" display="none"/>
 <path id="path4234-0-4" d="m289.48 151.49 47.477 12.721-4.2405 14.689-55.39-14.842z" display="none"/>
 <ellipse id="path3281-0-0-4" rx="266.61" ry="248.8" transform="matrix(.96593 .25882 -.27735 .96077 0 0)" cy="50.066" cx="295.95" display="none" fill="url(#radialGradient21305-6)"/>
 <style id="style1470-05" type="text/css"/>
 <g id="layer2-0" display="none" transform="matrix(6.7274 0 0 6.7274 -2827.2 -844.05)">
  <rect id="rect3745-7" opacity=".9" rx="6" ry="6" height="85" filter="url(#filter3174-7)" width="86" y="7" x="5" fill="url(#linearGradient9335)"/>
 </g>
 <path id="path4230-8" d="m376.72 130.76c-2.1202 7.3447-36.402 181.33-29.267 189.98 6.1765 7.4828 15.826 4.2405 17.946-3.1042-2.1202 7.3447-6.3607 22.034-8.4809 29.379-17.946 3.1042-33.92-0.81668-37.444-17.946-4.0713-19.793 27.134-182.59 29.267-189.98-4.7411-8.958-29.531-15.826-33.772-1.1362l-7.9128-2.1202c18.514-34.603 53.838-9.3127 69.663-5.0722z" display="none"/>
 <path id="path4232-4" d="m354.53 148.55c-26.427 32.483-124.22 164.54-147.96 158.17l-15.826-4.2405 12.153-12.569 7.9128 2.1202c15.826 4.2405 123.65-133.04 140.05-160.3 12.573-20.906 3.6724 16.81 3.6724 16.81z" display="none"/>
 <path id="path4234-07" d="m291.65 218.74 47.477 12.721-4.2405 14.689-55.39-14.842z" display="none"/>
 <path id="path4230-5-0" d="m376.72 130.76c-2.1202 7.3447-36.402 181.33-29.267 189.98 6.1765 7.4828 15.826 4.2405 17.946-3.1042-2.1202 7.3447-6.3607 22.034-8.4809 29.379-17.946 3.1042-33.92-0.81668-37.444-17.946-4.0713-19.793 27.134-182.59 29.267-189.98-4.7411-8.958-29.531-15.826-33.772-1.1362l-7.9128-2.1202c18.514-34.603 53.838-9.3127 69.663-5.0722z" display="none"/>
 <path id="path4232-3-55" d="m354.53 148.55c-26.427 32.483-124.22 164.54-147.96 158.17l-15.826-4.2405 12.153-12.569 7.9128 2.1202c15.826 4.2405 123.65-133.04 140.05-160.3 12.573-20.906 3.6724 16.81 3.6724 16.81z" display="none"/>
 <path id="path4234-4-6" d="m291.65 218.74 47.477 12.721-4.2405 14.689-55.39-14.842z" display="none"/>
 <path id="path4230-0-8" d="m376.72 130.76c-2.1202 7.3447-36.402 181.33-29.267 189.98 6.1765 7.4828 15.826 4.2405 17.946-3.1042-2.1202 7.3447-6.3607 22.034-8.4809 29.379-17.946 3.1042-33.92-0.81668-37.444-17.946-4.0713-19.793 27.134-182.59 29.267-189.98-4.7411-8.958-29.531-15.826-33.772-1.1362l-7.9128-2.1202c18.514-34.603 53.838-9.3127 69.663-5.0722z" display="none"/>
 <path id="path4232-7-5" d="m354.53 148.55c-26.427 32.483-124.22 164.54-147.96 158.17l-15.826-4.2405 12.153-12.569 7.9128 2.1202c15.826 4.2405 123.65-133.04 140.05-160.3 12.573-20.906 3.6724 16.81 3.6724 16.81z" display="none"/>
 <path id="path4234-0-9" d="m291.65 218.74 47.477 12.721-4.2405 14.689-55.39-14.842z" display="none"/>
 <ellipse id="path3281-0-0-0" rx="266.61" transform="matrix(.96593 .25882 -.27735 .96077 0 0)" ry="248.8" cy="114.48" cx="316.69" display="none" fill="url(#radialGradient21305-3)"/>
 <style id="style1470-059" type="text/css"/>
 <g id="layer2-70" display="none" transform="matrix(6.7274 0 0 6.7274 -2864 -809.34)">
  <rect id="rect3745-17" opacity=".9" rx="6" ry="6" height="85" filter="url(#filter3174-70)" width="86" y="7" x="5" fill="url(#linearGradient9335)"/>
 </g>
 <path id="path4230-09" d="m339.84 165.47c-2.1202 7.3447-36.402 181.33-29.267 189.98 6.1765 7.4828 15.826 4.2405 17.946-3.1042-2.1202 7.3447-6.3607 22.034-8.4809 29.379-17.946 3.1042-33.92-0.81668-37.444-17.946-4.0713-19.793 27.134-182.59 29.267-189.98-4.7411-8.958-29.531-15.826-33.772-1.1362l-7.9128-2.1202c18.514-34.603 53.838-9.3127 69.663-5.0722z" display="none"/>
 <path id="path4232-77" d="m317.65 183.26c-26.427 32.483-124.22 164.54-147.96 158.17l-15.826-4.2405 12.153-12.569 7.9128 2.1202c15.826 4.2405 123.65-133.04 140.05-160.3 12.573-20.906 3.6724 16.81 3.6724 16.81z" display="none"/>
 <path id="path4234-1" d="m254.77 253.45 47.477 12.721-4.2405 14.689-55.39-14.842z" display="none"/>
 <path id="path4230-5-5" d="m339.84 165.47c-2.1202 7.3447-36.402 181.33-29.267 189.98 6.1765 7.4828 15.826 4.2405 17.946-3.1042-2.1202 7.3447-6.3607 22.034-8.4809 29.379-17.946 3.1042-33.92-0.81668-37.444-17.946-4.0713-19.793 27.134-182.59 29.267-189.98-4.7411-8.958-29.531-15.826-33.772-1.1362l-7.9128-2.1202c18.514-34.603 53.838-9.3127 69.663-5.0722z" display="none"/>
 <path id="path4232-3-7" d="m317.65 183.26c-26.427 32.483-124.22 164.54-147.96 158.17l-15.826-4.2405 12.153-12.569 7.9128 2.1202c15.826 4.2405 123.65-133.04 140.05-160.3 12.573-20.906 3.6724 16.81 3.6724 16.81z" display="none"/>
 <path id="path4234-4-8" d="m254.77 253.45 47.477 12.721-4.2405 14.689-55.39-14.842z" display="none"/>
 <path id="path4230-0-7" d="m339.84 165.47c-2.1202 7.3447-36.402 181.33-29.267 189.98 6.1765 7.4828 15.826 4.2405 17.946-3.1042-2.1202 7.3447-6.3607 22.034-8.4809 29.379-17.946 3.1042-33.92-0.81668-37.444-17.946-4.0713-19.793 27.134-182.59 29.267-189.98-4.7411-8.958-29.531-15.826-33.772-1.1362l-7.9128-2.1202c18.514-34.603 53.838-9.3127 69.663-5.0722z" display="none"/>
 <path id="path4232-7-56" d="m317.65 183.26c-26.427 32.483-124.22 164.54-147.96 158.17l-15.826-4.2405 12.153-12.569 7.9128 2.1202c15.826 4.2405 123.65-133.04 140.05-160.3 12.573-20.906 3.6724 16.81 3.6724 16.81z" display="none"/>
 <path id="path4234-0-6" d="m254.77 253.45 47.477 12.721-4.2405 14.689-55.39-14.842z" display="none"/>
 <ellipse id="path3281-0-0-8" rx="266.61" transform="matrix(.96593 .25882 -.27735 .96077 0 0)" ry="248.8" cy="157.56" cx="290.88" display="none" fill="url(#radialGradient21305-7)"/>
 <path id="path4230-51" d="m339.84 165.47c-2.1202 7.3447-36.402 181.33-29.267 189.98 6.1765 7.4828 15.826 4.2405 17.946-3.1042-2.1202 7.3447-6.3607 22.034-8.4809 29.379-17.946 3.1042-33.92-0.81668-37.444-17.946-4.0713-19.793 27.134-182.59 29.267-189.98-4.7411-8.958-29.531-15.826-33.772-1.1362l-7.9128-2.1202c18.514-34.603 53.838-9.3127 69.663-5.0722z" display="none"/>
 <path id="path4232-33" d="m317.65 183.26c-26.427 32.483-124.22 164.54-147.96 158.17l-15.826-4.2405 12.153-12.569 7.9128 2.1202c15.826 4.2405 123.65-133.04 140.05-160.3 12.573-20.906 3.6724 16.81 3.6724 16.81z" display="none"/>
 <path id="path4234-6" d="m254.77 253.45 47.477 12.721-4.2405 14.689-55.39-14.842z" display="none"/>
 <style id="style1470-5" type="text/css"/>
 <path id="path4230-4" d="m311.21 165.47c-2.1202 7.3447-36.402 181.33-29.267 189.98 6.1765 7.4828 15.826 4.2405 17.946-3.1042-2.1202 7.3447-6.3607 22.034-8.4809 29.379-17.946 3.1042-33.92-0.81668-37.444-17.946-4.0713-19.793 27.134-182.59 29.267-189.98-4.7411-8.958-29.531-15.826-33.772-1.1362l-7.9128-2.1202c18.514-34.603 53.838-9.3127 69.663-5.0722z" display="none"/>
 <path id="path4232-24" d="m289.02 183.26c-26.427 32.483-124.22 164.54-147.96 158.17l-15.826-4.2405 12.153-12.569 7.9128 2.1202c15.826 4.2405 123.65-133.04 140.05-160.3 12.573-20.906 3.6724 16.81 3.6724 16.81z" display="none"/>
 <path id="path4234-36" d="m226.13 253.45 47.477 12.721-4.2405 14.689-55.39-14.842z" display="none"/>
 <path id="path4230-5-92" d="m311.21 165.47c-2.1202 7.3447-36.402 181.33-29.267 189.98 6.1765 7.4828 15.826 4.2405 17.946-3.1042-2.1202 7.3447-6.3607 22.034-8.4809 29.379-17.946 3.1042-33.92-0.81668-37.444-17.946-4.0713-19.793 27.134-182.59 29.267-189.98-4.7411-8.958-29.531-15.826-33.772-1.1362l-7.9128-2.1202c18.514-34.603 53.838-9.3127 69.663-5.0722z" display="none"/>
 <path id="path4232-3-41" d="m289.02 183.26c-26.427 32.483-124.22 164.54-147.96 158.17l-15.826-4.2405 12.153-12.569 7.9128 2.1202c15.826 4.2405 123.65-133.04 140.05-160.3 12.573-20.906 3.6724 16.81 3.6724 16.81z" display="none"/>
 <path id="path4234-4-0" d="m226.13 253.45 47.477 12.721-4.2405 14.689-55.39-14.842z" display="none"/>
 <path id="path4230-0-0" d="m311.21 165.47c-2.1202 7.3447-36.402 181.33-29.267 189.98 6.1765 7.4828 15.826 4.2405 17.946-3.1042-2.1202 7.3447-6.3607 22.034-8.4809 29.379-17.946 3.1042-33.92-0.81668-37.444-17.946-4.0713-19.793 27.134-182.59 29.267-189.98-4.7411-8.958-29.531-15.826-33.772-1.1362l-7.9128-2.1202c18.514-34.603 53.838-9.3127 69.663-5.0722z" display="none"/>
 <path id="path4232-7-53" d="m289.02 183.26c-26.427 32.483-124.22 164.54-147.96 158.17l-15.826-4.2405 12.153-12.569 7.9128 2.1202c15.826 4.2405 123.65-133.04 140.05-160.3 12.573-20.906 3.6724 16.81 3.6724 16.81z" display="none"/>
 <path id="path4234-0-65" d="m226.13 253.45 47.477 12.721-4.2405 14.689-55.39-14.842z" display="none"/>
 <ellipse id="path3281-0-0-2" rx="266.61" transform="matrix(.96593 .25882 -.27735 .96077 0 0)" ry="248.8" cy="164.97" cx="263.36" display="none" fill="url(#radialGradient21305-67)"/>
 <path id="path4230-51-3" d="m311.21 165.47c-2.1202 7.3447-36.402 181.33-29.267 189.98 6.1765 7.4828 15.826 4.2405 17.946-3.1042-2.1202 7.3447-6.3607 22.034-8.4809 29.379-17.946 3.1042-33.92-0.81668-37.444-17.946-4.0713-19.793 27.134-182.59 29.267-189.98-4.7411-8.958-29.531-15.826-33.772-1.1362l-7.9128-2.1202c18.514-34.603 53.838-9.3127 69.663-5.0722z" display="none"/>
 <path id="path4232-33-2" d="m289.02 183.26c-26.427 32.483-124.22 164.54-147.96 158.17l-15.826-4.2405 12.153-12.569 7.9128 2.1202c15.826 4.2405 123.65-133.04 140.05-160.3 12.573-20.906 3.6724 16.81 3.6724 16.81z" display="none"/>
 <path id="path4234-6-1" d="m226.13 253.45 47.477 12.721-4.2405 14.689-55.39-14.842z" display="none"/>
 <style id="style1470-2" type="text/css"/>
 <g id="layer2-8" display="none" transform="matrix(6.7274 0 0 6.7274 -2788.4 -809.34)">
  <rect id="rect3745-71" opacity=".9" rx="6" ry="6" height="85" filter="url(#filter3174-5)" width="86" y="7" x="5" fill="url(#linearGradient9335)"/>
 </g>
 <path id="path4230-1" d="m415.52 165.47c-2.1202 7.3447-36.402 181.33-29.267 189.98 6.1765 7.4828 15.826 4.2405 17.946-3.1042-2.1202 7.3447-6.3607 22.034-8.4809 29.379-17.946 3.1042-33.92-0.81668-37.444-17.946-4.0713-19.793 27.134-182.59 29.267-189.98-4.7411-8.958-29.531-15.826-33.772-1.1362l-7.9128-2.1202c18.514-34.603 53.838-9.3127 69.663-5.0722z" display="none"/>
 <path id="path4232-8" d="m393.34 183.26c-26.427 32.483-124.22 164.54-147.96 158.17l-15.826-4.2405 12.153-12.569 7.9128 2.1202c15.826 4.2405 123.65-133.04 140.05-160.3 12.573-20.906 3.6724 16.81 3.6724 16.81z" display="none"/>
 <path id="path4234-49" d="m330.45 253.45 47.477 12.721-4.2405 14.689-55.39-14.842z" display="none"/>
 <path id="path4230-5-2" d="m415.52 165.47c-2.1202 7.3447-36.402 181.33-29.267 189.98 6.1765 7.4828 15.826 4.2405 17.946-3.1042-2.1202 7.3447-6.3607 22.034-8.4809 29.379-17.946 3.1042-33.92-0.81668-37.444-17.946-4.0713-19.793 27.134-182.59 29.267-189.98-4.7411-8.958-29.531-15.826-33.772-1.1362l-7.9128-2.1202c18.514-34.603 53.838-9.3127 69.663-5.0722z" display="none"/>
 <path id="path4232-3-73" d="m393.34 183.26c-26.427 32.483-124.22 164.54-147.96 158.17l-15.826-4.2405 12.153-12.569 7.9128 2.1202c15.826 4.2405 123.65-133.04 140.05-160.3 12.573-20.906 3.6724 16.81 3.6724 16.81z" display="none"/>
 <path id="path4234-4-9" d="m330.45 253.45 47.477 12.721-4.2405 14.689-55.39-14.842z" display="none"/>
 <path id="path4230-0-26" d="m415.52 165.47c-2.1202 7.3447-36.402 181.33-29.267 189.98 6.1765 7.4828 15.826 4.2405 17.946-3.1042-2.1202 7.3447-6.3607 22.034-8.4809 29.379-17.946 3.1042-33.92-0.81668-37.444-17.946-4.0713-19.793 27.134-182.59 29.267-189.98-4.7411-8.958-29.531-15.826-33.772-1.1362l-7.9128-2.1202c18.514-34.603 53.838-9.3127 69.663-5.0722z" display="none"/>
 <path id="path4232-7-8" d="m393.34 183.26c-26.427 32.483-124.22 164.54-147.96 158.17l-15.826-4.2405 12.153-12.569 7.9128 2.1202c15.826 4.2405 123.65-133.04 140.05-160.3 12.573-20.906 3.6724 16.81 3.6724 16.81z" display="none"/>
 <path id="path4234-0-48" d="m330.45 253.45 47.477 12.721-4.2405 14.689-55.39-14.842z" display="none"/>
 <ellipse id="path3281-0-0-68" rx="266.61" ry="248.8" transform="matrix(.96593 .25882 -.27735 .96077 0 0)" cy="137.97" cx="363.6" display="none" fill="url(#radialGradient21305-62)"/>
 <path id="path4230-51-7" d="m415.52 165.47c-2.1202 7.3447-36.402 181.33-29.267 189.98 6.1765 7.4828 15.826 4.2405 17.946-3.1042-2.1202 7.3447-6.3607 22.034-8.4809 29.379-17.946 3.1042-33.92-0.81668-37.444-17.946-4.0713-19.793 27.134-182.59 29.267-189.98-4.7411-8.958-29.531-15.826-33.772-1.1362l-7.9128-2.1202c18.514-34.603 53.838-9.3127 69.663-5.0722z" display="none"/>
 <path id="path4232-33-7" d="m393.34 183.26c-26.427 32.483-124.22 164.54-147.96 158.17l-15.826-4.2405 12.153-12.569 7.9128 2.1202c15.826 4.2405 123.65-133.04 140.05-160.3 12.573-20.906 3.6724 16.81 3.6724 16.81z" display="none"/>
 <path id="path4234-6-89" d="m330.45 253.45 47.477 12.721-4.2405 14.689-55.39-14.842z" display="none"/>
 <g id="layer2-1" display="none" transform="matrix(2.7684 0 0 2.7684 -1069 69.811)">
  <rect id="rect3745-73" opacity=".9" rx="6" ry="6" height="85" filter="url(#filter3174-6-7)" width="86" y="7" x="5" fill="url(#linearGradient3329)"/>
 </g>
 <g id="layer2-0-4" display="none" transform="matrix(4.232 0 0 4.232 -1146.8 84.678)">
  <rect id="rect3745-1-5" opacity=".9" rx="6" ry="6" height="85" filter="url(#filter3174-0)" width="86" y="7" x="5" fill="url(#linearGradient3329)"/>
 </g>
 <rect id="rect3745-7-8" opacity=".9" filter="url(#filter3174-2-6)" transform="matrix(5.5614 0 0 5.5614 -654.45 -171.89)" clip-path="url(#clipPath3625)" rx="6" ry="6" height="85" width="86" display="none" y="7" x="5" fill="url(#linearGradient3329)"/>
 <rect id="rect2419" opacity=".7" rx="33.369" ry="33.369" height="467.16" width="467.16" display="none" y="-138.52" x="-621.09"/>
 <path id="rect3726" opacity="0.08" d="m-576.59-116.27c-12.324 0-22.246 9.9216-22.246 22.246v378.18c0 12.324 9.9216 22.246 22.246 22.246h378.18c12.324 0 22.246-9.9216 22.246-22.246v-378.18c0-12.324-9.9216-22.246-22.246-22.246h-378.18zm0 17.032h378.18c3.2188 0 5.2139 1.9951 5.2139 5.2138v378.18c0 3.2188-1.9951 5.2139-5.2139 5.2139h-378.18c-3.2188 0-5.2139-1.9951-5.2139-5.2139v-378.18c0-3.2188 1.9951-5.2138 5.2139-5.2138z" display="none"/>
 <path id="rect3629" d="m-587.72-138.52c-18.486 0-33.369 14.882-33.369 33.369v400.42c0 18.486 14.882 33.369 33.369 33.369h400.42c18.486 0 33.369-14.882 33.369-33.369v-400.42c0-18.486-14.882-33.369-33.369-33.369h-400.42zm11.123 22.246h378.18c12.324 0 22.246 9.9216 22.246 22.246v378.18c0 12.324-9.9216 22.246-22.246 22.246h-378.18c-12.324 0-22.246-9.9216-22.246-22.246v-378.18c0-12.324 9.9216-22.246 22.246-22.246z" display="none" fill="url(#linearGradient31370)"/>
 <path id="rect3728" d="m-587.72-138.52c-18.486 0-33.369 14.882-33.369 33.369v11.123 378.18 11.123c0 1.8615 0.22996 3.6188 0.52139 5.3877 0.27084 1.6439 0.53968 3.3197 1.0428 4.8662 0.0549 0.16896 0.11613 0.35371 0.1738 0.52139 0.54983 1.6004 1.3063 3.0446 2.0855 4.5187 0.80415 1.5211 1.7553 2.9788 2.7807 4.3449s2.0787 2.6332 3.3021 3.8235c2.4467 2.3806 5.2439 4.53 8.3422 6.0828 1.5491 0.77644 3.1893 1.3734 4.8663 1.9118-1.4248-0.55738-2.7068-1.314-3.9973-2.0855-0.0412-0.0245-0.13266 0.0251-0.17378 0-0.17761-0.10733-0.34644-0.23642-0.52139-0.3476-0.66957-0.42656-1.2848-0.90936-1.9118-1.3904-0.59048-0.44936-1.1861-0.89601-1.738-1.3904-0.98954-0.8978-1.9324-1.9208-2.7807-2.9545-0.5983-0.72442-1.2146-1.4754-1.738-2.2593-0.13951-0.21345-0.21381-0.47756-0.34758-0.69518-0.36018-0.573-0.72425-1.1374-1.0428-1.738-0.56174-1.0828-1.1438-2.3119-1.5641-3.4759-0.0443-0.12133-0.1312-0.2255-0.1738-0.34758-0.17699-0.51138-0.19912-1.039-0.34759-1.5642-0.16869-0.59296-0.39146-1.1292-0.52138-1.738-0.40531-1.8993-0.69518-3.883-0.69518-5.909v-11.123-378.18-11.123c0-15.471 12.336-27.807 27.807-27.807h11.123 378.18 11.123c15.471 0 27.807 12.336 27.807 27.807v11.123 378.18 11.123c0 2.026-0.28986 4.0097-0.69518 5.909-0.24554 1.1506-0.49152 2.2116-0.86898 3.3021-0.0428 0.12213-0.1296 0.22629-0.1738 0.34758-0.34892 0.96624-0.7696 2.0436-1.2166 2.9545-0.23124 0.4605-0.43957 0.94519-0.69517 1.3904-0.30367 0.54063-0.70505 1.0475-1.0428 1.5642-0.52339 0.78396-1.1397 1.5349-1.738 2.2593-0.79625 0.97018-1.6859 1.9298-2.6069 2.7807-0.0621 0.0567-0.11107 0.1176-0.17379 0.17378-0.76963 0.69828-1.5855 1.3038-2.4331 1.9118-0.57044 0.40683-1.1363 0.85293-1.738 1.2166-0.0412 0.0251-0.13253-0.0245-0.1738 0-1.2905 0.77152-2.5724 1.5282-3.9973 2.0855 1.6769-0.53835 3.3172-1.1353 4.8662-1.9118 3.0982-1.5529 5.8954-3.7022 8.3422-6.0828 1.2234-1.1903 2.2767-2.4574 3.3021-3.8235s1.9766-2.8238 2.7807-4.3449c0.77927-1.474 1.5357-2.9182 2.0855-4.5187 0.0579-0.17119 0.11867-0.34892 0.1738-0.52139 0.5031-1.5466 0.77194-3.2223 1.0428-4.8662 0.29141-1.7688 0.52138-3.5261 0.52138-5.3877v-11.123-378.18-11.123c0-18.486-14.882-33.369-33.369-33.369h-400.42z" display="none" fill="url(#linearGradient31367)"/>
 <path id="path3615" opacity=".6" d="m-587.72 328.64c-18.486 0-33.369-14.882-33.369-33.369v-11.123-378.18-11.123c0-1.8615 0.22996-3.6188 0.52139-5.3876 0.27084-1.6439 0.53968-3.3197 1.0428-4.8663 0.0549-0.16896 0.11613-0.35371 0.1738-0.52139 0.54983-1.6004 1.3063-3.0446 2.0855-4.5187 0.80415-1.5211 1.7553-2.9788 2.7807-4.3449s2.0787-2.6332 3.3021-3.8235c2.4467-2.3806 5.2439-4.5299 8.3422-6.0828 1.5491-0.77644 3.1893-1.3734 4.8663-1.9118-1.4248 0.55738-2.7068 1.314-3.9973 2.0855-0.0412 0.0245-0.13266-0.025-0.17378 0-0.17761 0.10734-0.34644 0.23642-0.52139 0.34759-0.66957 0.42657-1.2848 0.90937-1.9118 1.3904-0.59048 0.44937-1.1861 0.89602-1.738 1.3904-0.98954 0.8978-1.9324 1.9209-2.7807 2.9545-0.5983 0.7244-1.2146 1.4754-1.738 2.2593-0.13951 0.21345-0.21381 0.47756-0.34758 0.69518-0.36018 0.57301-0.72425 1.1374-1.0428 1.738-0.56174 1.0828-1.1438 2.3119-1.5641 3.4759-0.0443 0.12129-0.1312 0.22552-0.1738 0.34759-0.17699 0.51138-0.19912 1.039-0.34759 1.5642-0.16869 0.59294-0.39146 1.1291-0.52138 1.738-0.40531 1.8993-0.69518 3.883-0.69518 5.909v11.123 378.18 11.123c0 15.471 12.336 27.807 27.807 27.807h11.123 378.18 11.123c15.471 0 27.807-12.336 27.807-27.807v-11.123-378.18-11.123c0-2.026-0.28986-4.0097-0.69518-5.909-0.24554-1.1506-0.49152-2.2116-0.86898-3.3021-0.0428-0.12208-0.1296-0.22629-0.1738-0.34759-0.34892-0.96624-0.7696-2.0435-1.2166-2.9545-0.23124-0.46049-0.43957-0.94519-0.69517-1.3904-0.30367-0.54063-0.70505-1.0475-1.0428-1.5642-0.52339-0.78397-1.1397-1.5349-1.738-2.2593-0.79625-0.9702-1.6859-1.9298-2.6069-2.7807-0.0621-0.0567-0.11107-0.11763-0.17379-0.1738-0.76963-0.69827-1.5855-1.3038-2.4331-1.9117-0.57044-0.40682-1.1363-0.85293-1.738-1.2166-0.0412-0.025-0.13253 0.0245-0.1738 0-1.2905-0.77152-2.5724-1.5282-3.9973-2.0855 1.6769 0.53835 3.3172 1.1353 4.8662 1.9118 3.0982 1.5529 5.8954 3.7022 8.3422 6.0828 1.2234 1.1903 2.2767 2.4574 3.3021 3.8235s1.9766 2.8238 2.7807 4.3449c0.77927 1.474 1.5357 2.9182 2.0855 4.5187 0.0579 0.17119 0.11867 0.34893 0.1738 0.52139 0.5031 1.5466 0.77194 3.2223 1.0428 4.8663 0.29141 1.7688 0.52138 3.5261 0.52138 5.3876v11.123 378.18 11.123c0 18.486-14.882 33.369-33.369 33.369h-400.42z" display="none" fill="url(#radialGradient31364)"/>
 <rect id="rect2841" rx="33.369" ry="33.369" height="467.16" width="467.16" display="none" y="417.63" x="-621.09" fill="url(#linearGradient31361)"/>
 <rect id="rect3634" rx="22.246" ry="22.246" height="422.67" width="422.67" display="none" y="439.87" x="-598.84" fill="#f00"/>
 <path id="rect3647" style="color:#000000;text-indent:0;block-progression:tb;text-decoration-line:none;text-transform:none" d="m14 9c-2.7527 0-5 2.2473-5 5v68c0 2.7527 2.2473 5 5 5h68c2.7527 0 5-2.2473 5-5v-68c0-2.753-2.247-5-5-5h-68zm0 2h68c1.6793 0 3 1.3207 3 3v68c0 1.6793-1.3207 3-3 3h-68c-1.6793 0-3-1.3207-3-3v-68c0-1.6793 1.3207-3 3-3z" clip-path="url(#clipPath3649)" transform="matrix(5.5614 0 0 5.5614 -1266.2 -171.89)" filter="url(#filter3657)" display="none"/>
 <path id="path3709" opacity="0.16" d="m-576.1-116.27c-12.324 0-22.246 9.9216-22.246 22.246v378.18c0 12.324 9.9216 22.246 22.246 22.246h378.18c12.324 0 22.246-9.9216 22.246-22.246v-378.18c0-12.324-9.9216-22.246-22.246-22.246h-378.18zm0 11.123h378.18c6.3417 0 11.123 4.7812 11.123 11.123v378.18c0 6.3417-4.7812 11.123-11.123 11.123h-378.18c-6.3417 0-11.123-4.7812-11.123-11.123v-378.18c0-6.3417 4.7812-11.123 11.123-11.123z" display="none"/>
 <path id="path3707" opacity="0.36" d="m-576.59-116.27c-12.324 0-22.246 9.9216-22.246 22.246v378.18c0 12.324 9.9216 22.246 22.246 22.246h378.18c12.324 0 22.246-9.9216 22.246-22.246v-378.18c0-12.324-9.9216-22.246-22.246-22.246h-378.18zm0 5.5614h378.18c9.309 0 16.684 7.3753 16.684 16.684v378.18c0 9.309-7.3753 16.684-16.684 16.684h-378.18c-9.309 0-16.684-7.3753-16.684-16.684v-378.18c0-9.309 7.3753-16.684 16.684-16.684z" display="none"/>
 <path id="path4230-98" d="m415.52 165.47c-2.1202 7.3447-36.402 181.33-29.267 189.98 6.1765 7.4828 15.826 4.2405 17.946-3.1042-2.1202 7.3447-6.3607 22.034-8.4809 29.379-17.946 3.1042-33.92-0.81668-37.444-17.946-4.0713-19.793 27.134-182.59 29.267-189.98-4.7411-8.958-29.531-15.826-33.772-1.1362l-7.9128-2.1202c18.514-34.603 53.838-9.3127 69.663-5.0722z" display="none"/>
 <path id="path4232-90" d="m393.34 183.26c-26.427 32.483-124.22 164.54-147.96 158.17l-15.826-4.2405 12.153-12.569 7.9128 2.1202c15.826 4.2405 123.65-133.04 140.05-160.3 12.573-20.906 3.6724 16.81 3.6724 16.81z" display="none"/>
 <path id="path4234-56" d="m330.45 253.45 47.477 12.721-4.2405 14.689-55.39-14.842z" display="none"/>
 <ellipse id="path3281-0-0-20" rx="266.61" transform="matrix(.96593 .25882 -.27735 .96077 0 0)" ry="248.8" cy="137.97" cx="363.6" display="none" fill="url(#radialGradient21305-62)"/>
 <path id="path4230-0-96" d="m415.52 165.47c-2.1202 7.3447-36.402 181.33-29.267 189.98 6.1765 7.4828 15.826 4.2405 17.946-3.1042-2.1202 7.3447-6.3607 22.034-8.4809 29.379-17.946 3.1042-33.92-0.81668-37.444-17.946-4.0713-19.793 27.134-182.59 29.267-189.98-4.7411-8.958-29.531-15.826-33.772-1.1362l-7.9128-2.1202c18.514-34.603 53.838-9.3127 69.663-5.0722z" display="none"/>
 <path id="path4232-1-4" d="m393.34 183.26c-26.427 32.483-124.22 164.54-147.96 158.17l-15.826-4.2405 12.153-12.569 7.9128 2.1202c15.826 4.2405 123.65-133.04 140.05-160.3 12.573-20.906 3.6724 16.81 3.6724 16.81z" display="none"/>
 <path id="path4234-6-5" d="m330.45 253.45 47.477 12.721-4.2405 14.689-55.39-14.842z" display="none"/>
 <ellipse id="path3281-0-0-1" rx="266.61" ry="248.8" transform="matrix(.96593 .25882 -.27735 .96077 0 0)" cy="137.97" cx="363.6" display="none" fill="url(#radialGradient21305-62)"/>
 <path id="path4230-8-2" d="m1822.4 423c-2.1203 7.3447-36.402 181.33-29.268 189.98 6.1765 7.4828 15.826 4.2405 17.946-3.1042-2.1203 7.3447-6.3608 22.034-8.4811 29.379-17.946 3.1042-33.92-0.81668-37.444-17.946-4.0713-19.793 27.134-182.59 29.268-189.98-4.7412-8.958-29.531-15.826-33.772-1.1362l-7.9129-2.1202c18.514-34.603 53.838-9.3127 69.663-5.0722z" display="none"/>
 <path id="path4232-9" d="m1800.3 440.8c-26.427 32.483-124.22 164.54-147.96 158.17l-15.826-4.2405 12.153-12.569 7.9128 2.1202c15.826 4.2405 123.65-133.04 140.05-160.3 12.574-20.906 3.6724 16.81 3.6724 16.81z" display="none"/>
 <path id="path4234-5-8" d="m1737.4 510.99 47.477 12.721-4.2404 14.689-55.39-14.842z" display="none"/>
 <ellipse id="path3281-0-0-6" rx="266.61" transform="matrix(.96593 .25882 -.27735 .96077 0 0)" ry="248.8" cy="22.568" cx="1787" display="none" fill="url(#radialGradient21305-0-5)"/>
 <path id="path4230-9-47" d="m415.52 165.47c-2.1202 7.3447-36.402 181.33-29.267 189.98 6.1765 7.4828 15.826 4.2405 17.946-3.1042-2.1202 7.3447-6.3607 22.034-8.4809 29.379-17.946 3.1042-33.92-0.81668-37.444-17.946-4.0713-19.793 27.134-182.59 29.267-189.98-4.7411-8.958-29.531-15.826-33.772-1.1362l-7.9128-2.1202c18.514-34.603 53.838-9.3127 69.663-5.0722z" display="none"/>
 <path id="path4232-0" d="m393.34 183.26c-26.427 32.483-124.22 164.54-147.96 158.17l-15.826-4.2405 12.153-12.569 7.9128 2.1202c15.826 4.2405 123.65-133.04 140.05-160.3 12.573-20.906 3.6724 16.81 3.6724 16.81z" display="none"/>
 <path id="path4234-3-63" d="m330.45 253.45 47.477 12.721-4.2405 14.689-55.39-14.842z" display="none"/>
 <ellipse id="path3281-0-0-0-89" rx="266.61" transform="matrix(.96593 .25882 -.27735 .96077 0 0)" ry="248.8" cy="137.97" cx="363.6" display="none" fill="url(#radialGradient21305-62)"/>
 <path id="path4230-0-9" d="m415.52 165.47c-2.1202 7.3447-36.402 181.33-29.267 189.98 6.1765 7.4828 15.826 4.2405 17.946-3.1042-2.1202 7.3447-6.3607 22.034-8.4809 29.379-17.946 3.1042-33.92-0.81668-37.444-17.946-4.0713-19.793 27.134-182.59 29.267-189.98-4.7411-8.958-29.531-15.826-33.772-1.1362l-7.9128-2.1202c18.514-34.603 53.838-9.3127 69.663-5.0722z" display="none"/>
 <path id="path4232-1-3" d="m393.34 183.26c-26.427 32.483-124.22 164.54-147.96 158.17l-15.826-4.2405 12.153-12.569 7.9128 2.1202c15.826 4.2405 123.65-133.04 140.05-160.3 12.573-20.906 3.6724 16.81 3.6724 16.81z" display="none"/>
 <path id="path4234-6-4" d="m330.45 253.45 47.477 12.721-4.2405 14.689-55.39-14.842z" display="none"/>
 <ellipse id="path3281-0-0-1-2" rx="266.61" ry="248.8" transform="matrix(.96593 .25882 -.27735 .96077 0 0)" cy="137.97" cx="363.6" display="none" fill="url(#radialGradient21305-62)"/>
 <path id="path4230-8-5" d="m1822.4 423c-2.1203 7.3447-36.402 181.33-29.268 189.98 6.1765 7.4828 15.826 4.2405 17.946-3.1042-2.1203 7.3447-6.3608 22.034-8.4811 29.379-17.946 3.1042-33.92-0.81668-37.444-17.946-4.0713-19.793 27.134-182.59 29.268-189.98-4.7412-8.958-29.531-15.826-33.772-1.1362l-7.9129-2.1202c18.514-34.603 53.838-9.3127 69.663-5.0722z" display="none"/>
 <path id="path4232-9-9" d="m1800.3 440.8c-26.427 32.483-124.22 164.54-147.96 158.17l-15.826-4.2405 12.153-12.569 7.9128 2.1202c15.826 4.2405 123.65-133.04 140.05-160.3 12.574-20.906 3.6724 16.81 3.6724 16.81z" display="none"/>
 <path id="path4234-5-2" d="m1737.4 510.99 47.477 12.721-4.2404 14.689-55.39-14.842z" display="none"/>
 <ellipse id="path3281-0-0-6-9" rx="266.61" transform="matrix(.96593 .25882 -.27735 .96077 0 0)" ry="248.8" cy="22.568" cx="1787" display="none" fill="url(#radialGradient21305-0-5)"/>
 <path id="path4230-5-3" d="m415.52 165.47c-2.1202 7.3447-36.402 181.33-29.267 189.98 6.1765 7.4828 15.826 4.2405 17.946-3.1042-2.1202 7.3447-6.3607 22.034-8.4809 29.379-17.946 3.1042-33.92-0.81668-37.444-17.946-4.0713-19.793 27.134-182.59 29.267-189.98-4.7411-8.958-29.531-15.826-33.772-1.1362l-7.9128-2.1202c18.514-34.603 53.838-9.3127 69.663-5.0722z" display="none"/>
 <path id="path4232-15" d="m393.34 183.26c-26.427 32.483-124.22 164.54-147.96 158.17l-15.826-4.2405 12.153-12.569 7.9128 2.1202c15.826 4.2405 123.65-133.04 140.05-160.3 12.573-20.906 3.6724 16.81 3.6724 16.81z" display="none"/>
 <path id="path4234-7" d="m330.45 253.45 47.477 12.721-4.2405 14.689-55.39-14.842z" display="none"/>
 <ellipse id="path3281-0-0-9" rx="266.61" transform="matrix(.96593 .25882 -.27735 .96077 0 0)" ry="248.8" cy="137.97" cx="363.6" display="none" fill="url(#radialGradient21305-62)"/>
 <path id="path4230-0-7-15" d="m415.52 165.47c-2.1202 7.3447-36.402 181.33-29.267 189.98 6.1765 7.4828 15.826 4.2405 17.946-3.1042-2.1202 7.3447-6.3607 22.034-8.4809 29.379-17.946 3.1042-33.92-0.81668-37.444-17.946-4.0713-19.793 27.134-182.59 29.267-189.98-4.7411-8.958-29.531-15.826-33.772-1.1362l-7.9128-2.1202c18.514-34.603 53.838-9.3127 69.663-5.0722z" display="none"/>
 <path id="path4232-1-2" d="m393.34 183.26c-26.427 32.483-124.22 164.54-147.96 158.17l-15.826-4.2405 12.153-12.569 7.9128 2.1202c15.826 4.2405 123.65-133.04 140.05-160.3 12.573-20.906 3.6724 16.81 3.6724 16.81z" display="none"/>
 <path id="path4234-6-8" d="m330.45 253.45 47.477 12.721-4.2405 14.689-55.39-14.842z" display="none"/>
 <ellipse id="path3281-0-0-1-7" rx="266.61" ry="248.8" transform="matrix(.96593 .25882 -.27735 .96077 0 0)" cy="137.97" cx="363.6" display="none" fill="url(#radialGradient21305-62)"/>
 <path id="path4230-8-6" d="m1822.4 423c-2.1203 7.3447-36.402 181.33-29.268 189.98 6.1765 7.4828 15.826 4.2405 17.946-3.1042-2.1203 7.3447-6.3608 22.034-8.4811 29.379-17.946 3.1042-33.92-0.81668-37.444-17.946-4.0713-19.793 27.134-182.59 29.268-189.98-4.7412-8.958-29.531-15.826-33.772-1.1362l-7.9129-2.1202c18.514-34.603 53.838-9.3127 69.663-5.0722z" display="none"/>
 <path id="path4232-9-5" d="m1800.3 440.8c-26.427 32.483-124.22 164.54-147.96 158.17l-15.826-4.2405 12.153-12.569 7.9128 2.1202c15.826 4.2405 123.65-133.04 140.05-160.3 12.574-20.906 3.6724 16.81 3.6724 16.81z" display="none"/>
 <path id="path4234-5-7" d="m1737.4 510.99 47.477 12.721-4.2404 14.689-55.39-14.842z" display="none"/>
 <ellipse id="path3281-0-0-6-1" rx="266.61" transform="matrix(.96593 .25882 -.27735 .96077 0 0)" ry="248.8" cy="22.568" cx="1787" display="none" fill="url(#radialGradient21305-0-5)"/>
 <path id="path4230-2" d="m415.52 165.47c-2.1202 7.3447-36.402 181.33-29.267 189.98 6.1765 7.4828 15.826 4.2405 17.946-3.1042-2.1202 7.3447-6.3607 22.034-8.4809 29.379-17.946 3.1042-33.92-0.81668-37.444-17.946-4.0713-19.793 27.134-182.59 29.267-189.98-4.7411-8.958-29.531-15.826-33.772-1.1362l-7.9128-2.1202c18.514-34.603 53.838-9.3127 69.663-5.0722z" display="none"/>
 <path id="path4232-16" d="m393.34 183.26c-26.427 32.483-124.22 164.54-147.96 158.17l-15.826-4.2405 12.153-12.569 7.9128 2.1202c15.826 4.2405 123.65-133.04 140.05-160.3 12.573-20.906 3.6724 16.81 3.6724 16.81z" display="none"/>
 <path id="path4234-33" d="m330.45 253.45 47.477 12.721-4.2405 14.689-55.39-14.842z" display="none"/>
 <ellipse id="path3281-0-0-12" rx="266.61" transform="matrix(.96593 .25882 -.27735 .96077 0 0)" ry="248.8" cy="137.97" cx="363.6" display="none" fill="url(#radialGradient21305-62)"/>
 <path id="path4230-0-1" d="m415.52 165.47c-2.1202 7.3447-36.402 181.33-29.267 189.98 6.1765 7.4828 15.826 4.2405 17.946-3.1042-2.1202 7.3447-6.3607 22.034-8.4809 29.379-17.946 3.1042-33.92-0.81668-37.444-17.946-4.0713-19.793 27.134-182.59 29.267-189.98-4.7411-8.958-29.531-15.826-33.772-1.1362l-7.9128-2.1202c18.514-34.603 53.838-9.3127 69.663-5.0722z" display="none"/>
 <path id="path4232-1-1" d="m393.34 183.26c-26.427 32.483-124.22 164.54-147.96 158.17l-15.826-4.2405 12.153-12.569 7.9128 2.1202c15.826 4.2405 123.65-133.04 140.05-160.3 12.573-20.906 3.6724 16.81 3.6724 16.81z" display="none"/>
 <path id="path4234-6-2" d="m330.45 253.45 47.477 12.721-4.2405 14.689-55.39-14.842z" display="none"/>
 <ellipse id="path3281-0-0-1-20" rx="266.61" ry="248.8" transform="matrix(.96593 .25882 -.27735 .96077 0 0)" cy="137.97" cx="363.6" display="none" fill="url(#radialGradient21305-62)"/>
 <path id="path4230-8-8" d="m1822.4 423c-2.1203 7.3447-36.402 181.33-29.268 189.98 6.1765 7.4828 15.826 4.2405 17.946-3.1042-2.1203 7.3447-6.3608 22.034-8.4811 29.379-17.946 3.1042-33.92-0.81668-37.444-17.946-4.0713-19.793 27.134-182.59 29.268-189.98-4.7412-8.958-29.531-15.826-33.772-1.1362l-7.9129-2.1202c18.514-34.603 53.838-9.3127 69.663-5.0722z" display="none"/>
 <path id="path4232-9-4" d="m1800.3 440.8c-26.427 32.483-124.22 164.54-147.96 158.17l-15.826-4.2405 12.153-12.569 7.9128 2.1202c15.826 4.2405 123.65-133.04 140.05-160.3 12.574-20.906 3.6724 16.81 3.6724 16.81z" display="none"/>
 <path id="path4234-5-6" d="m1737.4 510.99 47.477 12.721-4.2404 14.689-55.39-14.842z" display="none"/>
 <ellipse id="path3281-0-0-6-7" rx="266.61" transform="matrix(.96593 .25882 -.27735 .96077 0 0)" ry="248.8" cy="22.568" cx="1787" display="none" fill="url(#radialGradient21305-0-5)"/>
 <path id="path4230-3" d="m415.52 165.47c-2.1202 7.3447-36.402 181.33-29.267 189.98 6.1765 7.4828 15.826 4.2405 17.946-3.1042-2.1202 7.3447-6.3607 22.034-8.4809 29.379-17.946 3.1042-33.92-0.81668-37.444-17.946-4.0713-19.793 27.134-182.59 29.267-189.98-4.7411-8.958-29.531-15.826-33.772-1.1362l-7.9128-2.1202c18.514-34.603 53.838-9.3127 69.663-5.0722z" display="none"/>
 <path id="path4232-4-8" d="m393.34 183.26c-26.427 32.483-124.22 164.54-147.96 158.17l-15.826-4.2405 12.153-12.569 7.9128 2.1202c15.826 4.2405 123.65-133.04 140.05-160.3 12.573-20.906 3.6724 16.81 3.6724 16.81z" display="none"/>
 <path id="path4234-35" d="m330.45 253.45 47.477 12.721-4.2405 14.689-55.39-14.842z" display="none"/>
 <ellipse id="path3281-0-0-4-3" rx="266.61" transform="matrix(.96593 .25882 -.27735 .96077 0 0)" ry="248.8" cy="137.97" cx="363.6" display="none" fill="url(#radialGradient21305-62)"/>
 <path id="path4230-0-8-2" d="m415.52 165.47c-2.1202 7.3447-36.402 181.33-29.267 189.98 6.1765 7.4828 15.826 4.2405 17.946-3.1042-2.1202 7.3447-6.3607 22.034-8.4809 29.379-17.946 3.1042-33.92-0.81668-37.444-17.946-4.0713-19.793 27.134-182.59 29.267-189.98-4.7411-8.958-29.531-15.826-33.772-1.1362l-7.9128-2.1202c18.514-34.603 53.838-9.3127 69.663-5.0722z" display="none"/>
 <path id="path4232-1-34" d="m393.34 183.26c-26.427 32.483-124.22 164.54-147.96 158.17l-15.826-4.2405 12.153-12.569 7.9128 2.1202c15.826 4.2405 123.65-133.04 140.05-160.3 12.573-20.906 3.6724 16.81 3.6724 16.81z" display="none"/>
 <path id="path4234-6-42" d="m330.45 253.45 47.477 12.721-4.2405 14.689-55.39-14.842z" display="none"/>
 <ellipse id="path3281-0-0-1-17" rx="266.61" ry="248.8" transform="matrix(.96593 .25882 -.27735 .96077 0 0)" cy="137.97" cx="363.6" display="none" fill="url(#radialGradient21305-62)"/>
 <path id="path4230-8-64" d="m1822.4 423c-2.1203 7.3447-36.402 181.33-29.268 189.98 6.1765 7.4828 15.826 4.2405 17.946-3.1042-2.1203 7.3447-6.3608 22.034-8.4811 29.379-17.946 3.1042-33.92-0.81668-37.444-17.946-4.0713-19.793 27.134-182.59 29.268-189.98-4.7412-8.958-29.531-15.826-33.772-1.1362l-7.9129-2.1202c18.514-34.603 53.838-9.3127 69.663-5.0722z" display="none"/>
 <path id="path4232-9-71" d="m1800.3 440.8c-26.427 32.483-124.22 164.54-147.96 158.17l-15.826-4.2405 12.153-12.569 7.9128 2.1202c15.826 4.2405 123.65-133.04 140.05-160.3 12.574-20.906 3.6724 16.81 3.6724 16.81z" display="none"/>
 <path id="path4234-5-72" d="m1737.4 510.99 47.477 12.721-4.2404 14.689-55.39-14.842z" display="none"/>
 <ellipse id="path3281-0-0-6-98" rx="266.61" transform="matrix(.96593 .25882 -.27735 .96077 0 0)" ry="248.8" cy="22.568" cx="1787" display="none" fill="url(#radialGradient21305-0-5)"/>
 <path id="path4230-9-6" d="m415.52 165.47c-2.1202 7.3447-36.402 181.33-29.267 189.98 6.1765 7.4828 15.826 4.2405 17.946-3.1042-2.1202 7.3447-6.3607 22.034-8.4809 29.379-17.946 3.1042-33.92-0.81668-37.444-17.946-4.0713-19.793 27.134-182.59 29.267-189.98-4.7411-8.958-29.531-15.826-33.772-1.1362l-7.9128-2.1202c18.514-34.603 53.838-9.3127 69.663-5.0722z" display="none"/>
 <path id="path4232-0-04" d="m393.34 183.26c-26.427 32.483-124.22 164.54-147.96 158.17l-15.826-4.2405 12.153-12.569 7.9128 2.1202c15.826 4.2405 123.65-133.04 140.05-160.3 12.573-20.906 3.6724 16.81 3.6724 16.81z" display="none"/>
 <path id="path4234-3-9" d="m330.45 253.45 47.477 12.721-4.2405 14.689-55.39-14.842z" display="none"/>
 <ellipse id="path3281-0-0-0-8" rx="266.61" transform="matrix(.96593 .25882 -.27735 .96077 0 0)" ry="248.8" cy="137.97" cx="363.6" display="none" fill="url(#radialGradient21305-62)"/>
 <path id="path4230-0-9-4" d="m415.52 165.47c-2.1202 7.3447-36.402 181.33-29.267 189.98 6.1765 7.4828 15.826 4.2405 17.946-3.1042-2.1202 7.3447-6.3607 22.034-8.4809 29.379-17.946 3.1042-33.92-0.81668-37.444-17.946-4.0713-19.793 27.134-182.59 29.267-189.98-4.7411-8.958-29.531-15.826-33.772-1.1362l-7.9128-2.1202c18.514-34.603 53.838-9.3127 69.663-5.0722z" display="none"/>
 <path id="path4232-1-3-3" d="m393.34 183.26c-26.427 32.483-124.22 164.54-147.96 158.17l-15.826-4.2405 12.153-12.569 7.9128 2.1202c15.826 4.2405 123.65-133.04 140.05-160.3 12.573-20.906 3.6724 16.81 3.6724 16.81z" display="none"/>
 <path id="path4234-6-4-6" d="m330.45 253.45 47.477 12.721-4.2405 14.689-55.39-14.842z" display="none"/>
 <ellipse id="path3281-0-0-1-2-50" rx="266.61" ry="248.8" transform="matrix(.96593 .25882 -.27735 .96077 0 0)" cy="137.97" cx="363.6" display="none" fill="url(#radialGradient21305-62)"/>
 <path id="path4230-8-5-4" d="m1822.4 423c-2.1203 7.3447-36.402 181.33-29.268 189.98 6.1765 7.4828 15.826 4.2405 17.946-3.1042-2.1203 7.3447-6.3608 22.034-8.4811 29.379-17.946 3.1042-33.92-0.81668-37.444-17.946-4.0713-19.793 27.134-182.59 29.268-189.98-4.7412-8.958-29.531-15.826-33.772-1.1362l-7.9129-2.1202c18.514-34.603 53.838-9.3127 69.663-5.0722z" display="none"/>
 <path id="path4232-9-9-4" d="m1800.3 440.8c-26.427 32.483-124.22 164.54-147.96 158.17l-15.826-4.2405 12.153-12.569 7.9128 2.1202c15.826 4.2405 123.65-133.04 140.05-160.3 12.574-20.906 3.6724 16.81 3.6724 16.81z" display="none"/>
 <path id="path4234-5-2-0" d="m1737.4 510.99 47.477 12.721-4.2404 14.689-55.39-14.842z" display="none"/>
 <ellipse id="path3281-0-0-6-9-8" rx="266.61" transform="matrix(.96593 .25882 -.27735 .96077 0 0)" ry="248.8" cy="22.568" cx="1787" display="none" fill="url(#radialGradient21305-0-5)"/>
 <path id="path4230-5-13" d="m415.52 165.47c-2.1202 7.3447-36.402 181.33-29.267 189.98 6.1765 7.4828 15.826 4.2405 17.946-3.1042-2.1202 7.3447-6.3607 22.034-8.4809 29.379-17.946 3.1042-33.92-0.81668-37.444-17.946-4.0713-19.793 27.134-182.59 29.267-189.98-4.7411-8.958-29.531-15.826-33.772-1.1362l-7.9128-2.1202c18.514-34.603 53.838-9.3127 69.663-5.0722z" display="none"/>
 <path id="path4232-15-3" d="m393.34 183.26c-26.427 32.483-124.22 164.54-147.96 158.17l-15.826-4.2405 12.153-12.569 7.9128 2.1202c15.826 4.2405 123.65-133.04 140.05-160.3 12.573-20.906 3.6724 16.81 3.6724 16.81z" display="none"/>
 <path id="path4234-7-6" d="m330.45 253.45 47.477 12.721-4.2405 14.689-55.39-14.842z" display="none"/>
 <ellipse id="path3281-0-0-9-0" rx="266.61" transform="matrix(.96593 .25882 -.27735 .96077 0 0)" ry="248.8" cy="137.97" cx="363.6" display="none" fill="url(#radialGradient21305-62)"/>
 <path id="path4230-0-7-5" d="m415.52 165.47c-2.1202 7.3447-36.402 181.33-29.267 189.98 6.1765 7.4828 15.826 4.2405 17.946-3.1042-2.1202 7.3447-6.3607 22.034-8.4809 29.379-17.946 3.1042-33.92-0.81668-37.444-17.946-4.0713-19.793 27.134-182.59 29.267-189.98-4.7411-8.958-29.531-15.826-33.772-1.1362l-7.9128-2.1202c18.514-34.603 53.838-9.3127 69.663-5.0722z" display="none"/>
 <path id="path4232-1-2-8" d="m393.34 183.26c-26.427 32.483-124.22 164.54-147.96 158.17l-15.826-4.2405 12.153-12.569 7.9128 2.1202c15.826 4.2405 123.65-133.04 140.05-160.3 12.573-20.906 3.6724 16.81 3.6724 16.81z" display="none"/>
 <path id="path4234-6-8-54" d="m330.45 253.45 47.477 12.721-4.2405 14.689-55.39-14.842z" display="none"/>
 <ellipse id="path3281-0-0-1-7-49" rx="266.61" ry="248.8" transform="matrix(.96593 .25882 -.27735 .96077 0 0)" cy="137.97" cx="363.6" display="none" fill="url(#radialGradient21305-62)"/>
 <path id="path4230-8-6-8" d="m1822.4 423c-2.1203 7.3447-36.402 181.33-29.268 189.98 6.1765 7.4828 15.826 4.2405 17.946-3.1042-2.1203 7.3447-6.3608 22.034-8.4811 29.379-17.946 3.1042-33.92-0.81668-37.444-17.946-4.0713-19.793 27.134-182.59 29.268-189.98-4.7412-8.958-29.531-15.826-33.772-1.1362l-7.9129-2.1202c18.514-34.603 53.838-9.3127 69.663-5.0722z" display="none"/>
 <path id="path4232-9-5-18" d="m1800.3 440.8c-26.427 32.483-124.22 164.54-147.96 158.17l-15.826-4.2405 12.153-12.569 7.9128 2.1202c15.826 4.2405 123.65-133.04 140.05-160.3 12.574-20.906 3.6724 16.81 3.6724 16.81z" display="none"/>
 <path id="path4234-5-7-1" d="m1737.4 510.99 47.477 12.721-4.2404 14.689-55.39-14.842z" display="none"/>
 <ellipse id="path3281-0-0-6-1-1" rx="266.61" transform="matrix(.96593 .25882 -.27735 .96077 0 0)" ry="248.8" cy="22.568" cx="1787" display="none" fill="url(#radialGradient21305-0-5)"/>
 <path id="path4230-2-0" d="m415.52 165.47c-2.1202 7.3447-36.402 181.33-29.267 189.98 6.1765 7.4828 15.826 4.2405 17.946-3.1042-2.1202 7.3447-6.3607 22.034-8.4809 29.379-17.946 3.1042-33.92-0.81668-37.444-17.946-4.0713-19.793 27.134-182.59 29.267-189.98-4.7411-8.958-29.531-15.826-33.772-1.1362l-7.9128-2.1202c18.514-34.603 53.838-9.3127 69.663-5.0722z" display="none"/>
 <path id="path4232-16-73" d="m393.34 183.26c-26.427 32.483-124.22 164.54-147.96 158.17l-15.826-4.2405 12.153-12.569 7.9128 2.1202c15.826 4.2405 123.65-133.04 140.05-160.3 12.573-20.906 3.6724 16.81 3.6724 16.81z" display="none"/>
 <path id="path4234-33-2" d="m330.45 253.45 47.477 12.721-4.2405 14.689-55.39-14.842z" display="none"/>
 <ellipse id="path3281-0-0-12-6" rx="266.61" transform="matrix(.96593 .25882 -.27735 .96077 0 0)" ry="248.8" cy="137.97" cx="363.6" display="none" fill="url(#radialGradient21305-62)"/>
 <path id="path4230-0-1-3" d="m415.52 165.47c-2.1202 7.3447-36.402 181.33-29.267 189.98 6.1765 7.4828 15.826 4.2405 17.946-3.1042-2.1202 7.3447-6.3607 22.034-8.4809 29.379-17.946 3.1042-33.92-0.81668-37.444-17.946-4.0713-19.793 27.134-182.59 29.267-189.98-4.7411-8.958-29.531-15.826-33.772-1.1362l-7.9128-2.1202c18.514-34.603 53.838-9.3127 69.663-5.0722z" display="none"/>
 <path id="path4232-1-1-50" d="m393.34 183.26c-26.427 32.483-124.22 164.54-147.96 158.17l-15.826-4.2405 12.153-12.569 7.9128 2.1202c15.826 4.2405 123.65-133.04 140.05-160.3 12.573-20.906 3.6724 16.81 3.6724 16.81z" display="none"/>
 <path id="path4234-6-2-8" d="m330.45 253.45 47.477 12.721-4.2405 14.689-55.39-14.842z" display="none"/>
 <ellipse id="path3281-0-0-1-20-11" rx="266.61" ry="248.8" transform="matrix(.96593 .25882 -.27735 .96077 0 0)" cy="137.97" cx="363.6" display="none" fill="url(#radialGradient21305-62)"/>
 <path id="path4230-8-8-0" d="m1822.4 423c-2.1203 7.3447-36.402 181.33-29.268 189.98 6.1765 7.4828 15.826 4.2405 17.946-3.1042-2.1203 7.3447-6.3608 22.034-8.4811 29.379-17.946 3.1042-33.92-0.81668-37.444-17.946-4.0713-19.793 27.134-182.59 29.268-189.98-4.7412-8.958-29.531-15.826-33.772-1.1362l-7.9129-2.1202c18.514-34.603 53.838-9.3127 69.663-5.0722z" display="none"/>
 <path id="path4232-9-4-4" d="m1800.3 440.8c-26.427 32.483-124.22 164.54-147.96 158.17l-15.826-4.2405 12.153-12.569 7.9128 2.1202c15.826 4.2405 123.65-133.04 140.05-160.3 12.574-20.906 3.6724 16.81 3.6724 16.81z" display="none"/>
 <path id="path4234-5-6-9" d="m1737.4 510.99 47.477 12.721-4.2404 14.689-55.39-14.842z" display="none"/>
 <ellipse id="path3281-0-0-6-7-9" rx="266.61" transform="matrix(.96593 .25882 -.27735 .96077 0 0)" ry="248.8" cy="22.568" cx="1787" display="none" fill="url(#radialGradient21305-0-5)"/>
 <path id="path4230-6-3" d="m415.52 165.47c-2.1202 7.3447-36.402 181.33-29.267 189.98 6.1765 7.4828 15.826 4.2405 17.946-3.1042-2.1202 7.3447-6.3607 22.034-8.4809 29.379-17.946 3.1042-33.92-0.81668-37.444-17.946-4.0713-19.793 27.134-182.59 29.267-189.98-4.7411-8.958-29.531-15.826-33.772-1.1362l-7.9128-2.1202c18.514-34.603 53.838-9.3127 69.663-5.0722z" display="none"/>
 <path id="path4232-7-7-5" d="m393.34 183.26c-26.427 32.483-124.22 164.54-147.96 158.17l-15.826-4.2405 12.153-12.569 7.9128 2.1202c15.826 4.2405 123.65-133.04 140.05-160.3 12.573-20.906 3.6724 16.81 3.6724 16.81z" display="none"/>
 <path id="path4234-4-7" d="m330.45 253.45 47.477 12.721-4.2405 14.689-55.39-14.842z" display="none"/>
 <ellipse id="path3281-0-0-2-4" rx="266.61" transform="matrix(.96593 .25882 -.27735 .96077 0 0)" ry="248.8" cy="137.97" cx="363.6" display="none" fill="url(#radialGradient21305-62)"/>
 <path id="path4230-0-5-8" d="m415.52 165.47c-2.1202 7.3447-36.402 181.33-29.267 189.98 6.1765 7.4828 15.826 4.2405 17.946-3.1042-2.1202 7.3447-6.3607 22.034-8.4809 29.379-17.946 3.1042-33.92-0.81668-37.444-17.946-4.0713-19.793 27.134-182.59 29.267-189.98-4.7411-8.958-29.531-15.826-33.772-1.1362l-7.9128-2.1202c18.514-34.603 53.838-9.3127 69.663-5.0722z" display="none"/>
 <path id="path4232-1-33" d="m393.34 183.26c-26.427 32.483-124.22 164.54-147.96 158.17l-15.826-4.2405 12.153-12.569 7.9128 2.1202c15.826 4.2405 123.65-133.04 140.05-160.3 12.573-20.906 3.6724 16.81 3.6724 16.81z" display="none"/>
 <path id="path4234-6-49" d="m330.45 253.45 47.477 12.721-4.2405 14.689-55.39-14.842z" display="none"/>
 <ellipse id="path3281-0-0-1-1" rx="266.61" ry="248.8" transform="matrix(.96593 .25882 -.27735 .96077 0 0)" cy="137.97" cx="363.6" display="none" fill="url(#radialGradient21305-62)"/>
 <path id="path4230-8-61" d="m1822.4 423c-2.1203 7.3447-36.402 181.33-29.268 189.98 6.1765 7.4828 15.826 4.2405 17.946-3.1042-2.1203 7.3447-6.3608 22.034-8.4811 29.379-17.946 3.1042-33.92-0.81668-37.444-17.946-4.0713-19.793 27.134-182.59 29.268-189.98-4.7412-8.958-29.531-15.826-33.772-1.1362l-7.9129-2.1202c18.514-34.603 53.838-9.3127 69.663-5.0722z" display="none"/>
 <path id="path4232-9-74" d="m1800.3 440.8c-26.427 32.483-124.22 164.54-147.96 158.17l-15.826-4.2405 12.153-12.569 7.9128 2.1202c15.826 4.2405 123.65-133.04 140.05-160.3 12.574-20.906 3.6724 16.81 3.6724 16.81z" display="none"/>
 <path id="path4234-5-67" d="m1737.4 510.99 47.477 12.721-4.2404 14.689-55.39-14.842z" display="none"/>
 <ellipse id="path3281-0-0-6-4" rx="266.61" transform="matrix(.96593 .25882 -.27735 .96077 0 0)" ry="248.8" cy="22.568" cx="1787" display="none" fill="url(#radialGradient21305-0-5)"/>
 <path id="path4230-9-5" d="m415.52 165.47c-2.1202 7.3447-36.402 181.33-29.267 189.98 6.1765 7.4828 15.826 4.2405 17.946-3.1042-2.1202 7.3447-6.3607 22.034-8.4809 29.379-17.946 3.1042-33.92-0.81668-37.444-17.946-4.0713-19.793 27.134-182.59 29.267-189.98-4.7411-8.958-29.531-15.826-33.772-1.1362l-7.9128-2.1202c18.514-34.603 53.838-9.3127 69.663-5.0722z" display="none"/>
 <path id="path4232-0-0" d="m393.34 183.26c-26.427 32.483-124.22 164.54-147.96 158.17l-15.826-4.2405 12.153-12.569 7.9128 2.1202c15.826 4.2405 123.65-133.04 140.05-160.3 12.573-20.906 3.6724 16.81 3.6724 16.81z" display="none"/>
 <path id="path4234-3-6" d="m330.45 253.45 47.477 12.721-4.2405 14.689-55.39-14.842z" display="none"/>
 <ellipse id="path3281-0-0-0-6" rx="266.61" transform="matrix(.96593 .25882 -.27735 .96077 0 0)" ry="248.8" cy="137.97" cx="363.6" display="none" fill="url(#radialGradient21305-62)"/>
 <path id="path4230-0-9-85" d="m415.52 165.47c-2.1202 7.3447-36.402 181.33-29.267 189.98 6.1765 7.4828 15.826 4.2405 17.946-3.1042-2.1202 7.3447-6.3607 22.034-8.4809 29.379-17.946 3.1042-33.92-0.81668-37.444-17.946-4.0713-19.793 27.134-182.59 29.267-189.98-4.7411-8.958-29.531-15.826-33.772-1.1362l-7.9128-2.1202c18.514-34.603 53.838-9.3127 69.663-5.0722z" display="none"/>
 <path id="path4232-1-3-5" d="m393.34 183.26c-26.427 32.483-124.22 164.54-147.96 158.17l-15.826-4.2405 12.153-12.569 7.9128 2.1202c15.826 4.2405 123.65-133.04 140.05-160.3 12.573-20.906 3.6724 16.81 3.6724 16.81z" display="none"/>
 <path id="path4234-6-4-48" d="m330.45 253.45 47.477 12.721-4.2405 14.689-55.39-14.842z" display="none"/>
 <ellipse id="path3281-0-0-1-2-5" rx="266.61" ry="248.8" transform="matrix(.96593 .25882 -.27735 .96077 0 0)" cy="137.97" cx="363.6" display="none" fill="url(#radialGradient21305-62)"/>
 <path id="path4230-8-5-6" d="m1822.4 423c-2.1203 7.3447-36.402 181.33-29.268 189.98 6.1765 7.4828 15.826 4.2405 17.946-3.1042-2.1203 7.3447-6.3608 22.034-8.4811 29.379-17.946 3.1042-33.92-0.81668-37.444-17.946-4.0713-19.793 27.134-182.59 29.268-189.98-4.7412-8.958-29.531-15.826-33.772-1.1362l-7.9129-2.1202c18.514-34.603 53.838-9.3127 69.663-5.0722z" display="none"/>
 <path id="path4232-9-9-3" d="m1800.3 440.8c-26.427 32.483-124.22 164.54-147.96 158.17l-15.826-4.2405 12.153-12.569 7.9128 2.1202c15.826 4.2405 123.65-133.04 140.05-160.3 12.574-20.906 3.6724 16.81 3.6724 16.81z" display="none"/>
 <path id="path4234-5-2-87" d="m1737.4 510.99 47.477 12.721-4.2404 14.689-55.39-14.842z" display="none"/>
 <ellipse id="path3281-0-0-6-9-2" rx="266.61" transform="matrix(.96593 .25882 -.27735 .96077 0 0)" ry="248.8" cy="22.568" cx="1787" display="none" fill="url(#radialGradient21305-0-5)"/>
 <path id="path4230-5-1-1" d="m415.52 165.47c-2.1202 7.3447-36.402 181.33-29.267 189.98 6.1765 7.4828 15.826 4.2405 17.946-3.1042-2.1202 7.3447-6.3607 22.034-8.4809 29.379-17.946 3.1042-33.92-0.81668-37.444-17.946-4.0713-19.793 27.134-182.59 29.267-189.98-4.7411-8.958-29.531-15.826-33.772-1.1362l-7.9128-2.1202c18.514-34.603 53.838-9.3127 69.663-5.0722z" display="none"/>
 <path id="path4232-15-7" d="m393.34 183.26c-26.427 32.483-124.22 164.54-147.96 158.17l-15.826-4.2405 12.153-12.569 7.9128 2.1202c15.826 4.2405 123.65-133.04 140.05-160.3 12.573-20.906 3.6724 16.81 3.6724 16.81z" display="none"/>
 <path id="path4234-7-70" d="m330.45 253.45 47.477 12.721-4.2405 14.689-55.39-14.842z" display="none"/>
 <ellipse id="path3281-0-0-9-1" rx="266.61" transform="matrix(.96593 .25882 -.27735 .96077 0 0)" ry="248.8" cy="137.97" cx="363.6" display="none" fill="url(#radialGradient21305-62)"/>
 <path id="path4230-0-7-1" d="m415.52 165.47c-2.1202 7.3447-36.402 181.33-29.267 189.98 6.1765 7.4828 15.826 4.2405 17.946-3.1042-2.1202 7.3447-6.3607 22.034-8.4809 29.379-17.946 3.1042-33.92-0.81668-37.444-17.946-4.0713-19.793 27.134-182.59 29.267-189.98-4.7411-8.958-29.531-15.826-33.772-1.1362l-7.9128-2.1202c18.514-34.603 53.838-9.3127 69.663-5.0722z" display="none"/>
 <path id="path4232-1-2-5" d="m393.34 183.26c-26.427 32.483-124.22 164.54-147.96 158.17l-15.826-4.2405 12.153-12.569 7.9128 2.1202c15.826 4.2405 123.65-133.04 140.05-160.3 12.573-20.906 3.6724 16.81 3.6724 16.81z" display="none"/>
 <path id="path4234-6-8-5" d="m330.45 253.45 47.477 12.721-4.2405 14.689-55.39-14.842z" display="none"/>
 <ellipse id="path3281-0-0-1-7-4" rx="266.61" ry="248.8" transform="matrix(.96593 .25882 -.27735 .96077 0 0)" cy="137.97" cx="363.6" display="none" fill="url(#radialGradient21305-62)"/>
 <path id="path4230-8-6-3" d="m1822.4 423c-2.1203 7.3447-36.402 181.33-29.268 189.98 6.1765 7.4828 15.826 4.2405 17.946-3.1042-2.1203 7.3447-6.3608 22.034-8.4811 29.379-17.946 3.1042-33.92-0.81668-37.444-17.946-4.0713-19.793 27.134-182.59 29.268-189.98-4.7412-8.958-29.531-15.826-33.772-1.1362l-7.9129-2.1202c18.514-34.603 53.838-9.3127 69.663-5.0722z" display="none"/>
 <path id="path4232-9-5-1" d="m1800.3 440.8c-26.427 32.483-124.22 164.54-147.96 158.17l-15.826-4.2405 12.153-12.569 7.9128 2.1202c15.826 4.2405 123.65-133.04 140.05-160.3 12.574-20.906 3.6724 16.81 3.6724 16.81z" display="none"/>
 <path id="path4234-5-7-8" d="m1737.4 510.99 47.477 12.721-4.2404 14.689-55.39-14.842z" display="none"/>
 <ellipse id="path3281-0-0-6-1-3" rx="266.61" transform="matrix(.96593 .25882 -.27735 .96077 0 0)" ry="248.8" cy="22.568" cx="1787" display="none" fill="url(#radialGradient21305-0-5)"/>
 <path id="path4230-2-3" d="m415.52 165.47c-2.1202 7.3447-36.402 181.33-29.267 189.98 6.1765 7.4828 15.826 4.2405 17.946-3.1042-2.1202 7.3447-6.3607 22.034-8.4809 29.379-17.946 3.1042-33.92-0.81668-37.444-17.946-4.0713-19.793 27.134-182.59 29.267-189.98-4.7411-8.958-29.531-15.826-33.772-1.1362l-7.9128-2.1202c18.514-34.603 53.838-9.3127 69.663-5.0722z" display="none"/>
 <path id="path4232-16-7" d="m393.34 183.26c-26.427 32.483-124.22 164.54-147.96 158.17l-15.826-4.2405 12.153-12.569 7.9128 2.1202c15.826 4.2405 123.65-133.04 140.05-160.3 12.573-20.906 3.6724 16.81 3.6724 16.81z" display="none"/>
 <path id="path4234-33-3" d="m330.45 253.45 47.477 12.721-4.2405 14.689-55.39-14.842z" display="none"/>
 <ellipse id="path3281-0-0-12-0" rx="266.61" transform="matrix(.96593 .25882 -.27735 .96077 0 0)" ry="248.8" cy="137.97" cx="363.6" display="none" fill="url(#radialGradient21305-62)"/>
 <path id="path4230-0-1-4" d="m415.52 165.47c-2.1202 7.3447-36.402 181.33-29.267 189.98 6.1765 7.4828 15.826 4.2405 17.946-3.1042-2.1202 7.3447-6.3607 22.034-8.4809 29.379-17.946 3.1042-33.92-0.81668-37.444-17.946-4.0713-19.793 27.134-182.59 29.267-189.98-4.7411-8.958-29.531-15.826-33.772-1.1362l-7.9128-2.1202c18.514-34.603 53.838-9.3127 69.663-5.0722z" display="none"/>
 <path id="path4232-1-1-0" d="m393.34 183.26c-26.427 32.483-124.22 164.54-147.96 158.17l-15.826-4.2405 12.153-12.569 7.9128 2.1202c15.826 4.2405 123.65-133.04 140.05-160.3 12.573-20.906 3.6724 16.81 3.6724 16.81z" display="none"/>
 <path id="path4234-6-2-5" d="m330.45 253.45 47.477 12.721-4.2405 14.689-55.39-14.842z" display="none"/>
 <ellipse id="path3281-0-0-1-20-9" rx="266.61" ry="248.8" transform="matrix(.96593 .25882 -.27735 .96077 0 0)" cy="137.97" cx="363.6" display="none" fill="url(#radialGradient21305-62)"/>
 <path id="path4230-8-8-6" d="m1822.4 423c-2.1203 7.3447-36.402 181.33-29.268 189.98 6.1765 7.4828 15.826 4.2405 17.946-3.1042-2.1203 7.3447-6.3608 22.034-8.4811 29.379-17.946 3.1042-33.92-0.81668-37.444-17.946-4.0713-19.793 27.134-182.59 29.268-189.98-4.7412-8.958-29.531-15.826-33.772-1.1362l-7.9129-2.1202c18.514-34.603 53.838-9.3127 69.663-5.0722z" display="none"/>
 <path id="path4232-9-4-5" d="m1800.3 440.8c-26.427 32.483-124.22 164.54-147.96 158.17l-15.826-4.2405 12.153-12.569 7.9128 2.1202c15.826 4.2405 123.65-133.04 140.05-160.3 12.574-20.906 3.6724 16.81 3.6724 16.81z" display="none"/>
 <path id="path4234-5-6-0" d="m1737.4 510.99 47.477 12.721-4.2404 14.689-55.39-14.842z" display="none"/>
 <ellipse id="path3281-0-0-6-7-5" rx="266.61" transform="matrix(.96593 .25882 -.27735 .96077 0 0)" ry="248.8" cy="22.568" cx="1787" display="none" fill="url(#radialGradient21305-0-5)"/>
 <path id="path4230-07" d="m415.52 165.47c-2.1202 7.3447-36.402 181.33-29.267 189.98 6.1765 7.4828 15.826 4.2405 17.946-3.1042-2.1202 7.3447-6.3607 22.034-8.4809 29.379-17.946 3.1042-33.92-0.81668-37.444-17.946-4.0713-19.793 27.134-182.59 29.267-189.98-4.7411-8.958-29.531-15.826-33.772-1.1362l-7.9128-2.1202c18.514-34.603 53.838-9.3127 69.663-5.0722z" display="none"/>
 <path id="path4232-3-8" d="m393.34 183.26c-26.427 32.483-124.22 164.54-147.96 158.17l-15.826-4.2405 12.153-12.569 7.9128 2.1202c15.826 4.2405 123.65-133.04 140.05-160.3 12.573-20.906 3.6724 16.81 3.6724 16.81z" display="none"/>
 <path id="path4234-9" d="m330.45 253.45 47.477 12.721-4.2405 14.689-55.39-14.842z" display="none"/>
 <ellipse id="path3281-0-0-08" rx="266.61" transform="matrix(.96593 .25882 -.27735 .96077 0 0)" ry="248.8" cy="137.97" cx="363.6" display="none" fill="url(#radialGradient21305-62)"/>
 <path id="path4230-0-2" d="m415.52 165.47c-2.1202 7.3447-36.402 181.33-29.267 189.98 6.1765 7.4828 15.826 4.2405 17.946-3.1042-2.1202 7.3447-6.3607 22.034-8.4809 29.379-17.946 3.1042-33.92-0.81668-37.444-17.946-4.0713-19.793 27.134-182.59 29.267-189.98-4.7411-8.958-29.531-15.826-33.772-1.1362l-7.9128-2.1202c18.514-34.603 53.838-9.3127 69.663-5.0722z" display="none"/>
 <path id="path4232-1-6" d="m393.34 183.26c-26.427 32.483-124.22 164.54-147.96 158.17l-15.826-4.2405 12.153-12.569 7.9128 2.1202c15.826 4.2405 123.65-133.04 140.05-160.3 12.573-20.906 3.6724 16.81 3.6724 16.81z" display="none"/>
 <path id="path4234-6-83" d="m330.45 253.45 47.477 12.721-4.2405 14.689-55.39-14.842z" display="none"/>
 <ellipse id="path3281-0-0-1-6" rx="266.61" ry="248.8" transform="matrix(.96593 .25882 -.27735 .96077 0 0)" cy="137.97" cx="363.6" display="none" fill="url(#radialGradient21305-62)"/>
 <path id="path4230-8-68" d="m1822.4 423c-2.1203 7.3447-36.402 181.33-29.268 189.98 6.1765 7.4828 15.826 4.2405 17.946-3.1042-2.1203 7.3447-6.3608 22.034-8.4811 29.379-17.946 3.1042-33.92-0.81668-37.444-17.946-4.0713-19.793 27.134-182.59 29.268-189.98-4.7412-8.958-29.531-15.826-33.772-1.1362l-7.9129-2.1202c18.514-34.603 53.838-9.3127 69.663-5.0722z" display="none"/>
 <path id="path4232-9-7" d="m1800.3 440.8c-26.427 32.483-124.22 164.54-147.96 158.17l-15.826-4.2405 12.153-12.569 7.9128 2.1202c15.826 4.2405 123.65-133.04 140.05-160.3 12.574-20.906 3.6724 16.81 3.6724 16.81z" display="none"/>
 <path id="path4234-5-29" d="m1737.4 510.99 47.477 12.721-4.2404 14.689-55.39-14.842z" display="none"/>
 <ellipse id="path3281-0-0-6-6" rx="266.61" transform="matrix(.96593 .25882 -.27735 .96077 0 0)" ry="248.8" cy="22.568" cx="1787" display="none" fill="url(#radialGradient21305-0-5)"/>
 <path id="path4230-9-4" d="m415.52 165.47c-2.1202 7.3447-36.402 181.33-29.267 189.98 6.1765 7.4828 15.826 4.2405 17.946-3.1042-2.1202 7.3447-6.3607 22.034-8.4809 29.379-17.946 3.1042-33.92-0.81668-37.444-17.946-4.0713-19.793 27.134-182.59 29.267-189.98-4.7411-8.958-29.531-15.826-33.772-1.1362l-7.9128-2.1202c18.514-34.603 53.838-9.3127 69.663-5.0722z" display="none"/>
 <path id="path4232-0-6" d="m393.34 183.26c-26.427 32.483-124.22 164.54-147.96 158.17l-15.826-4.2405 12.153-12.569 7.9128 2.1202c15.826 4.2405 123.65-133.04 140.05-160.3 12.573-20.906 3.6724 16.81 3.6724 16.81z" display="none"/>
 <path id="path4234-3-2" d="m330.45 253.45 47.477 12.721-4.2405 14.689-55.39-14.842z" display="none"/>
 <ellipse id="path3281-0-0-0-2" rx="266.61" transform="matrix(.96593 .25882 -.27735 .96077 0 0)" ry="248.8" cy="137.97" cx="363.6" display="none" fill="url(#radialGradient21305-62)"/>
 <path id="path4230-0-9-8" d="m415.52 165.47c-2.1202 7.3447-36.402 181.33-29.267 189.98 6.1765 7.4828 15.826 4.2405 17.946-3.1042-2.1202 7.3447-6.3607 22.034-8.4809 29.379-17.946 3.1042-33.92-0.81668-37.444-17.946-4.0713-19.793 27.134-182.59 29.267-189.98-4.7411-8.958-29.531-15.826-33.772-1.1362l-7.9128-2.1202c18.514-34.603 53.838-9.3127 69.663-5.0722z" display="none"/>
 <path id="path4232-1-3-9" d="m393.34 183.26c-26.427 32.483-124.22 164.54-147.96 158.17l-15.826-4.2405 12.153-12.569 7.9128 2.1202c15.826 4.2405 123.65-133.04 140.05-160.3 12.573-20.906 3.6724 16.81 3.6724 16.81z" display="none"/>
 <path id="path4234-6-4-4" d="m330.45 253.45 47.477 12.721-4.2405 14.689-55.39-14.842z" display="none"/>
 <ellipse id="path3281-0-0-1-2-7" rx="266.61" ry="248.8" transform="matrix(.96593 .25882 -.27735 .96077 0 0)" cy="137.97" cx="363.6" display="none" fill="url(#radialGradient21305-62)"/>
 <path id="path4230-8-5-9" d="m1822.4 423c-2.1203 7.3447-36.402 181.33-29.268 189.98 6.1765 7.4828 15.826 4.2405 17.946-3.1042-2.1203 7.3447-6.3608 22.034-8.4811 29.379-17.946 3.1042-33.92-0.81668-37.444-17.946-4.0713-19.793 27.134-182.59 29.268-189.98-4.7412-8.958-29.531-15.826-33.772-1.1362l-7.9129-2.1202c18.514-34.603 53.838-9.3127 69.663-5.0722z" display="none"/>
 <path id="path4232-9-9-8" d="m1800.3 440.8c-26.427 32.483-124.22 164.54-147.96 158.17l-15.826-4.2405 12.153-12.569 7.9128 2.1202c15.826 4.2405 123.65-133.04 140.05-160.3 12.574-20.906 3.6724 16.81 3.6724 16.81z" display="none"/>
 <path id="path4234-5-2-8" d="m1737.4 510.99 47.477 12.721-4.2404 14.689-55.39-14.842z" display="none"/>
 <ellipse id="path3281-0-0-6-9-6" rx="266.61" transform="matrix(.96593 .25882 -.27735 .96077 0 0)" ry="248.8" cy="22.568" cx="1787" display="none" fill="url(#radialGradient21305-0-5)"/>
 <path id="path4230-5-6" d="m415.52 165.47c-2.1202 7.3447-36.402 181.33-29.267 189.98 6.1765 7.4828 15.826 4.2405 17.946-3.1042-2.1202 7.3447-6.3607 22.034-8.4809 29.379-17.946 3.1042-33.92-0.81668-37.444-17.946-4.0713-19.793 27.134-182.59 29.267-189.98-4.7411-8.958-29.531-15.826-33.772-1.1362l-7.9128-2.1202c18.514-34.603 53.838-9.3127 69.663-5.0722z" display="none"/>
 <path id="path4232-15-9" d="m393.34 183.26c-26.427 32.483-124.22 164.54-147.96 158.17l-15.826-4.2405 12.153-12.569 7.9128 2.1202c15.826 4.2405 123.65-133.04 140.05-160.3 12.573-20.906 3.6724 16.81 3.6724 16.81z" display="none"/>
 <path id="path4234-7-7" d="m330.45 253.45 47.477 12.721-4.2405 14.689-55.39-14.842z" display="none"/>
 <ellipse id="path3281-0-0-9-6" rx="266.61" transform="matrix(.96593 .25882 -.27735 .96077 0 0)" ry="248.8" cy="137.97" cx="363.6" display="none" fill="url(#radialGradient21305-62)"/>
 <path id="path4230-0-7-4" d="m415.52 165.47c-2.1202 7.3447-36.402 181.33-29.267 189.98 6.1765 7.4828 15.826 4.2405 17.946-3.1042-2.1202 7.3447-6.3607 22.034-8.4809 29.379-17.946 3.1042-33.92-0.81668-37.444-17.946-4.0713-19.793 27.134-182.59 29.267-189.98-4.7411-8.958-29.531-15.826-33.772-1.1362l-7.9128-2.1202c18.514-34.603 53.838-9.3127 69.663-5.0722z" display="none"/>
 <path id="path4232-1-2-9" d="m393.34 183.26c-26.427 32.483-124.22 164.54-147.96 158.17l-15.826-4.2405 12.153-12.569 7.9128 2.1202c15.826 4.2405 123.65-133.04 140.05-160.3 12.573-20.906 3.6724 16.81 3.6724 16.81z" display="none"/>
 <path id="path4234-6-8-7" d="m330.45 253.45 47.477 12.721-4.2405 14.689-55.39-14.842z" display="none"/>
 <ellipse id="path3281-0-0-1-7-3" rx="266.61" ry="248.8" transform="matrix(.96593 .25882 -.27735 .96077 0 0)" cy="137.97" cx="363.6" display="none" fill="url(#radialGradient21305-62)"/>
 <path id="path4230-8-6-7" d="m1822.4 423c-2.1203 7.3447-36.402 181.33-29.268 189.98 6.1765 7.4828 15.826 4.2405 17.946-3.1042-2.1203 7.3447-6.3608 22.034-8.4811 29.379-17.946 3.1042-33.92-0.81668-37.444-17.946-4.0713-19.793 27.134-182.59 29.268-189.98-4.7412-8.958-29.531-15.826-33.772-1.1362l-7.9129-2.1202c18.514-34.603 53.838-9.3127 69.663-5.0722z" display="none"/>
 <path id="path4232-9-5-4" d="m1800.3 440.8c-26.427 32.483-124.22 164.54-147.96 158.17l-15.826-4.2405 12.153-12.569 7.9128 2.1202c15.826 4.2405 123.65-133.04 140.05-160.3 12.574-20.906 3.6724 16.81 3.6724 16.81z" display="none"/>
 <path id="path4234-5-7-7" d="m1737.4 510.99 47.477 12.721-4.2404 14.689-55.39-14.842z" display="none"/>
 <ellipse id="path3281-0-0-6-1-2" rx="266.61" transform="matrix(.96593 .25882 -.27735 .96077 0 0)" ry="248.8" cy="22.568" cx="1787" display="none" fill="url(#radialGradient21305-0-5)"/>
 <path id="path4230-2-5" d="m415.52 165.47c-2.1202 7.3447-36.402 181.33-29.267 189.98 6.1765 7.4828 15.826 4.2405 17.946-3.1042-2.1202 7.3447-6.3607 22.034-8.4809 29.379-17.946 3.1042-33.92-0.81668-37.444-17.946-4.0713-19.793 27.134-182.59 29.267-189.98-4.7411-8.958-29.531-15.826-33.772-1.1362l-7.9128-2.1202c18.514-34.603 53.838-9.3127 69.663-5.0722z" display="none"/>
 <path id="path4232-16-0" d="m393.34 183.26c-26.427 32.483-124.22 164.54-147.96 158.17l-15.826-4.2405 12.153-12.569 7.9128 2.1202c15.826 4.2405 123.65-133.04 140.05-160.3 12.573-20.906 3.6724 16.81 3.6724 16.81z" display="none"/>
 <path id="path4234-33-0" d="m330.45 253.45 47.477 12.721-4.2405 14.689-55.39-14.842z" display="none"/>
 <ellipse id="path3281-0-0-12-5" rx="266.61" transform="matrix(.96593 .25882 -.27735 .96077 0 0)" ry="248.8" cy="137.97" cx="363.6" display="none" fill="url(#radialGradient21305-62)"/>
 <path id="path4230-0-1-6" d="m415.52 165.47c-2.1202 7.3447-36.402 181.33-29.267 189.98 6.1765 7.4828 15.826 4.2405 17.946-3.1042-2.1202 7.3447-6.3607 22.034-8.4809 29.379-17.946 3.1042-33.92-0.81668-37.444-17.946-4.0713-19.793 27.134-182.59 29.267-189.98-4.7411-8.958-29.531-15.826-33.772-1.1362l-7.9128-2.1202c18.514-34.603 53.838-9.3127 69.663-5.0722z" display="none"/>
 <path id="path4232-1-1-5" d="m393.34 183.26c-26.427 32.483-124.22 164.54-147.96 158.17l-15.826-4.2405 12.153-12.569 7.9128 2.1202c15.826 4.2405 123.65-133.04 140.05-160.3 12.573-20.906 3.6724 16.81 3.6724 16.81z" display="none"/>
 <path id="path4234-6-2-6" d="m330.45 253.45 47.477 12.721-4.2405 14.689-55.39-14.842z" display="none"/>
 <ellipse id="path3281-0-0-1-20-1" rx="266.61" ry="248.8" transform="matrix(.96593 .25882 -.27735 .96077 0 0)" cy="137.97" cx="363.6" display="none" fill="url(#radialGradient21305-62)"/>
 <path id="path4230-8-8-7" d="m1822.4 423c-2.1203 7.3447-36.402 181.33-29.268 189.98 6.1765 7.4828 15.826 4.2405 17.946-3.1042-2.1203 7.3447-6.3608 22.034-8.4811 29.379-17.946 3.1042-33.92-0.81668-37.444-17.946-4.0713-19.793 27.134-182.59 29.268-189.98-4.7412-8.958-29.531-15.826-33.772-1.1362l-7.9129-2.1202c18.514-34.603 53.838-9.3127 69.663-5.0722z" display="none"/>
 <path id="path4232-9-4-8" d="m1800.3 440.8c-26.427 32.483-124.22 164.54-147.96 158.17l-15.826-4.2405 12.153-12.569 7.9128 2.1202c15.826 4.2405 123.65-133.04 140.05-160.3 12.574-20.906 3.6724 16.81 3.6724 16.81z" display="none"/>
 <path id="path4234-5-6-4" d="m1737.4 510.99 47.477 12.721-4.2404 14.689-55.39-14.842z" display="none"/>
 <ellipse id="path3281-0-0-6-7-2" rx="266.61" transform="matrix(.96593 .25882 -.27735 .96077 0 0)" ry="248.8" cy="22.568" cx="1787" display="none" fill="url(#radialGradient21305-0-5)"/>
 <g id="layer2-2" display="none" transform="matrix(13.4 0 0 13.4 -1443.6 -806.8)">
  <rect id="rect3745-0" opacity=".9" rx="6" ry="6" height="85" filter="url(#filter3174-1)" width="86" y="7" x="5" fill="url(#linearGradient3329)"/>
 </g>
 <g id="layer5" display="none" transform="matrix(13.4 0 0 13.4 -1443.6 -806.8)">
  <rect id="rect3171" height="66" stroke="#fff" stroke-linecap="round" stroke-width=".5" fill="url(#linearGradient3613)" rx="12" ry="12" width="66" opacity=".1" clip-path="url(#clipPath3613)" filter="url(#filter3794)" y="15" x="15"/>
 </g>
 <g id="layer2-6" display="none" transform="matrix(13.4 0 0 13.4 -1443.6 -806.8)">
  <rect id="rect3745-4-4" opacity=".9" rx="6" ry="6" height="85" filter="url(#filter3174-08)" width="86" y="7" x="5" fill="url(#linearGradient3329)"/>
 </g>
 <g id="layer5-6" display="none" transform="matrix(13.4 0 0 13.4 -1443.6 -806.8)">
  <rect id="rect3171-8" height="66" stroke="#fff" stroke-linecap="round" stroke-width=".5" fill="url(#linearGradient3613)" rx="12" ry="12" width="66" opacity=".1" clip-path="url(#clipPath3613-1)" filter="url(#filter3794-8)" y="15" x="15"/>
 </g>
 <path id="rect2986" fill="#62c0dc" d="m26 0c-14.397 0-26 11.603-26 26v460c0 14.397 11.603 26 26 26h460c14.397 0 26-11.603 26-26v-460c0-14.397-11.6-26-26-26h-460z"/>
 <path id="path92085" style="color:#000000" d="m123.79 0v512h88.539v-512h-88.539z" fill-rule="evenodd" fill="#ded332"/>
 <path id="path92087" style="color:#000000" d="m212.33 0v512h88.578v-512h-88.578z" fill-rule="evenodd" fill="#e75177"/>
 <path id="path92089" style="color:#000000" d="m300.9 0v512h88.539v-512h-88.539z" fill-rule="evenodd" fill="#bed14b"/>
 <path id="path92091" style="color:#000000" d="m26 0c-14.397 0-26 11.603-26 26v460c0 14.397 11.603 26 26 26h97.787v-512h-97.79z" fill-rule="evenodd" fill="#d23638"/>
 <path id="rect5116" opacity=".2" d="m26 0c-14.397 0-26 11.603-26 26v244.49h512v-244.49c0-14.397-11.603-26-26-26h-460z" fill="#fff"/>
 <path id="path92942" opacity=".25" style="color:#000000" d="m215.86 146.18v22.475l10.387 10.387h-10.387v22.477l10.385 10.385h-10.385v22.477l10.385 10.385h-10.385v22.477l10.385 10.385h-10.385v8.7617l-8.7617-8.7617h-21.707l-65.723-65.723h-78.664v22.477l10.385 10.385h-10.385v22.477l10.385 10.385h-10.385v22.477l10.385 10.385h-10.385v22.477l10.387 10.387h-10.387v22.475l146.17 146.16h298.82c14.397 0 26-11.603 26-26v-298.82l-41-41h-78.625v22.475l10.387 10.387h-10.387v22.477l10.385 10.385h-10.385v10.426l-10.426-10.426h-21.664l-65.723-65.723h-78.707z" fill-rule="evenodd"/>
 <path id="path92081" style="color:#000000" d="m215.86 146.18v22.476h78.706v-22.476h-78.706zm176.52 0v22.476h78.624v-22.476h-78.624zm-176.52 32.862v22.476h78.706v-22.476h-78.706zm176.52 0v22.476h78.624v-22.476h-78.624zm-351.38 32.86v22.476h78.665v-22.476h-78.665zm174.86 0v22.476h78.706v-22.476h-78.706zm87.469 0v22.476h78.624v-22.476h-78.624zm89.051 0v22.476h78.624v-22.476h-78.624zm-351.38 32.86v22.476h78.665v-22.476h-78.665zm174.86 0v22.476h78.706v-22.476h-78.706zm87.469 0v22.476h78.624v-22.476h-78.624zm89.051 0v22.476h78.624v-22.476h-78.624zm-351.38 32.86v22.476h78.665v-22.476h-78.665zm87.469 0v22.476h78.624v-22.476h-78.624zm87.388 0v22.476h78.706v-22.476h-78.706zm87.469 0v22.476h78.624v-22.476h-78.624zm89.051 0v22.476h78.624v-22.476h-78.624zm-351.38 32.87v22.476h78.665v-22.476h-78.665zm87.469 0v22.476h78.624v-22.476h-78.624zm87.388 0v22.476h78.706v-22.476h-78.706zm87.469 0v22.476h78.624v-22.476h-78.624zm89.051 0v22.476h78.624v-22.476h-78.624zm-351.38 32.86v22.476h78.665v-22.476h-78.665zm87.469 0v22.476h78.624v-22.476h-78.624zm87.388 0v22.476h78.706v-22.476h-78.706zm87.469 0v22.476h78.624v-22.476h-78.624zm89.051 0v22.476h78.624v-22.476h-78.624z" fill-rule="evenodd" fill="#fff"/>
</svg>
