<svg xmlns="http://www.w3.org/2000/svg" xmlns:xlink="http://www.w3.org/1999/xlink" viewBox="0 0 512 512"><defs><clipPath><rect y="6" x="6" rx="6" height="84" width="84" style="fill:#fff"/></clipPath><clipPath><rect width="84" height="84" rx="6" x="6" y="6" style="fill:#fff"/></clipPath><clipPath><rect y="10" x="10" rx="4" height="76" width="76" style="fill:#fff"/></clipPath><clipPath><path d="m0 0v96h96v-96h-96m12 6h72c3.324 0 6 2.676 6 6v72c0 3.324-2.676 6-6 6h-72c-3.324 0-6-2.676-6-6v-72c0-3.324 2.676-6 6-6"/></clipPath><filter style="color-interpolation-filters:sRGB"><feGaussianBlur stdDeviation="1.14"/></filter><filter height="1.384" width="1.384" y="-.192" x="-.192" style="color-interpolation-filters:sRGB"><feGaussianBlur stdDeviation="5.28"/></filter><filter style="color-interpolation-filters:sRGB"><feGaussianBlur stdDeviation="1.71"/></filter><linearGradient gradientUnits="userSpaceOnUse" gradientTransform="scale(1.0059.99417)" y1="92.54" x2="0" y2="7.02"><stop/><stop offset="1" style="stop-opacity:.588"/></linearGradient><linearGradient gradientUnits="userSpaceOnUse" y1="-138.52" x2="0" y2="328.73"><stop style="stop-color:#f0f0f0"/><stop offset="1" style="stop-color:#dcdcdc"/></linearGradient><linearGradient gradientUnits="userSpaceOnUse" y1="884.79" x2="0" y2="417.56"><stop style="stop-color:#2276c5"/><stop offset="1" style="stop-color:#68baf4"/></linearGradient><linearGradient gradientUnits="userSpaceOnUse" xlink:href="#2" y2="138.66" x2="0" y1="20.221"/><linearGradient xlink:href="#2" gradientUnits="userSpaceOnUse" y1="-138.52" x2="0" y2="183.45"/><linearGradient id="2"><stop style="stop-color:#fff"/><stop offset="1" style="stop-color:#fff;stop-opacity:0"/></linearGradient><linearGradient y1="92.54" x2="0" y2="7.02" id="0" gradientUnits="userSpaceOnUse" gradientTransform="scale(1.0059.99417)"><stop/><stop offset="1" style="stop-opacity:.588"/></linearGradient><linearGradient gradientUnits="userSpaceOnUse" y2="148.62" x2="205.19" y1="518.51" x1="575.08" id="3"><stop style="stop-color:#74c23f"/><stop offset="1" style="stop-color:#f5a0b6"/></linearGradient><linearGradient y2="7.02" x2="0" y1="92.54" gradientTransform="scale(1.0059.99417)" gradientUnits="userSpaceOnUse" xlink:href="#0"/><linearGradient id="1"><stop style="stop-color:#fff"/><stop offset=".688" style="stop-color:#e8e8e8"/><stop offset=".875" style="stop-color:#686868"/><stop offset="1"/></linearGradient><radialGradient gradientTransform="matrix(4.16583 0 0 3.88749 118.08-116.51)" xlink:href="#1" gradientUnits="userSpaceOnUse" cx="64" cy="64" r="64"/><radialGradient xlink:href="#1" gradientUnits="userSpaceOnUse" cx="64" cy="64" r="64" gradientTransform="matrix(4.16583 0 0 3.88749 29.334-198.73)"/><radialGradient r="64" cy="64" cx="64" gradientUnits="userSpaceOnUse" xlink:href="#1" gradientTransform="matrix(4.16583 0 0 3.88749 1520.41-226.23)"/><radialGradient gradientTransform="matrix(4.16583 0 0 3.88749-3.252-83.83)" xlink:href="#1" gradientUnits="userSpaceOnUse" cx="64" cy="64" r="64"/><radialGradient xlink:href="#1" gradientUnits="userSpaceOnUse" cx="64" cy="64" r="64" gradientTransform="matrix(4.16583 0 0 3.88749 96.99-110.83)"/><radialGradient xlink:href="#2" gradientUnits="userSpaceOnUse" gradientTransform="matrix(6.43633 0 0 5.53868-696.45-170.79)" cx="48" cy="90.17" r="42"/><radialGradient gradientTransform="matrix(4.16583 0 0 3.88749 50.08-134.32)" xlink:href="#1" gradientUnits="userSpaceOnUse" cx="64" cy="64" r="64"/><radialGradient r="64" cy="64" cx="64" gradientUnits="userSpaceOnUse" xlink:href="#1" gradientTransform="matrix(4.16583 0 0 3.88749 24.26-91.24)"/></defs><path d="m26 0c-14.397 0-26 11.603-26 26v460c0 14.397 11.603 26 26 26h460c14.397 0 26-11.603 26-26v-460c0-14.397-11.603-26-26-26h-460" style="fill:url(#3)"/><g style="fill-rule:evenodd"><path d="m256 41c-118.74 0-215 96.25-215 215 0 59.37 24.06 113.12 62.971 152.03l103.97 103.97h278.06c14.397 0 26-11.603 26-26v-278.06l-103.97-103.97c-38.907-38.907-92.66-62.971-152.03-62.971" style="opacity:.25"/><path d="m256 41c-118.74 0-215 96.25-215 215 0 118.74 96.25 215 215 215 118.74 0 215-96.25 215-215 0-118.74-96.25-215-215-215m74.1 25.607c25.403 9.926 49.2 25.13 69.72 45.65 17.268 17.268 30.815 36.895 40.581 57.813l-125.63 72.52c-2.455-10.676-7.847-20.823-16.16-29.14-8.656-8.656-19.291-14.13-30.446-16.433l61.933-130.42m-74.1 139.1c27.779 0 50.29 22.516 50.29 50.29 0 27.779-22.516 50.29-50.29 50.29-27.779 0-50.29-22.516-50.29-50.29 0-27.779 22.516-50.29 50.29-50.29m0 11.133c-21.632 0-39.16 17.534-39.16 39.16 0 21.632 17.534 39.16 39.16 39.16 21.632 0 39.16-17.534 39.16-39.16 0-21.632-17.534-39.16-39.16-39.16m0 11.517c15.267 0 27.643 12.377 27.643 27.643 0 15.267-12.377 27.643-27.643 27.643-15.267 0-27.643-12.377-27.643-27.643 0-15.267 12.377-27.643 27.643-27.643m-59.32 40.966c.461 2 1.024 3.994 1.69 5.952.222.652.446 1.273.691 1.92 1.959 5.176 4.631 10.115 8.06 14.704.428.572.856 1.129 1.305 1.69 1.358 1.688 2.81 3.309 4.376 4.876 2.705 2.705 5.591 5.097 8.641 7.182.609.416 1.222.837 1.843 1.229 2.492 1.572 5.066 2.936 7.717 4.107 1.321.585 2.642 1.089 3.993 1.574 2.026.728 4.103 1.375 6.182 1.881.692.169 1.376.316 2.073.461l-61.933 130.42c-1.598-.625-3.175-1.253-4.761-1.92-1.575-.661-3.123-1.332-4.684-2.034-3.137-1.413-6.215-2.911-9.291-4.492-1.521-.78-3.03-1.598-4.531-2.419-.013-.004-.029.004-.039 0-1.515-.827-2.994-1.665-4.492-2.534-3-1.743-5.976-3.544-8.907-5.452-1.461-.951-2.897-1.926-4.335-2.919-5.78-3.976-11.387-8.261-16.816-12.905-1.348-1.152-2.668-2.339-3.993-3.532-.007-.007-.031.007-.039 0-1.332-1.199-2.647-2.406-3.954-3.647-1.308-1.24-2.595-2.518-3.877-3.801-6.485-6.485-12.425-13.297-17.853-20.387-.903-1.18-1.775-2.336-2.65-3.532-7.87-10.759-14.547-22.13-20.04-33.901l125.63-72.52" style="fill:#fff"/></g></svg>