<?xml version="1.0" encoding="UTF-8" standalone="no"?>
<!-- Created with Inkscape (http://www.inkscape.org/) -->
<svg id="svg2" xmlns:rdf="http://www.w3.org/1999/02/22-rdf-syntax-ns#" xmlns="http://www.w3.org/2000/svg" height="100%" width="100%" version="1.1" xmlns:cc="http://creativecommons.org/ns#" viewBox="0 0 512 512" xmlns:dc="http://purl.org/dc/elements/1.1/">
 <metadata id="metadata116">
  <rdf:RDF>
   <cc:Work rdf:about="">
    <dc:format>image/svg+xml</dc:format>
    <dc:type rdf:resource="http://purl.org/dc/dcmitype/StillImage"/>
   </cc:Work>
  </rdf:RDF>
 </metadata>
 <text id="text10" style="word-spacing:0;letter-spacing:0" font-size="129.23px" line-height="125%" y="231.36" x="729.64001" font-family="Gentium Book Basic">
  <tspan id="tspan12" y="231.36" x="729.64001"/>
 </text>
 <text id="text14" style="text-anchor:middle" transform="scale(4.0128 .2492)" font-size="46.954px" y="579.25" x="378.91" font-family="Arial"/>
 <text id="text16" style="word-spacing:0;letter-spacing:0" font-size="129.23px" line-height="125%" y="151.36" x="1310.91" font-family="Gentium Book Basic">
  <tspan id="tspan18" y="151.36" x="1310.91"/>
 </text>
 <text id="text20" style="text-anchor:middle" transform="scale(4.0128 .2492)" font-size="46.954px" y="258.22" x="523.76001" font-family="Arial"/>
 <text id="text22" style="word-spacing:0;letter-spacing:0" font-size="129.23px" line-height="125%" y="-29.900999" x="239.33" font-family="Gentium Book Basic">
  <tspan id="tspan24" y="-29.900999" x="239.33"/>
 </text>
 <text id="text26" style="text-anchor:middle" transform="scale(4.0128 .2492)" font-size="46.954px" y="-469.14001" x="256.72" font-family="Arial"/>
 <text id="text28" style="word-spacing:0;letter-spacing:0" font-size="129.23px" line-height="125%" y="-246.37" x="1337.38" font-family="Gentium Book Basic">
  <tspan id="tspan30" y="-246.37" x="1337.38"/>
 </text>
 <text id="text32" style="text-anchor:middle" transform="scale(4.0128 .2492)" font-size="46.954px" y="-1337.8" x="530.35999" font-family="Arial"/>
 <text id="text34" style="word-spacing:0;letter-spacing:0" font-size="129.23px" line-height="125%" y="-326.38" x="1918.65" font-family="Gentium Book Basic">
  <tspan id="tspan36" y="-326.38" x="1918.65"/>
 </text>
 <text id="text38" style="text-anchor:middle" transform="scale(4.0128 .2492)" font-size="46.954px" y="-1658.84" x="675.21002" font-family="Arial"/>
 <text id="text40" style="word-spacing:0;letter-spacing:0" font-size="129.23px" line-height="125%" y="-798.78003" x="1529.53" font-family="Gentium Book Basic">
  <tspan id="tspan42" y="-798.78003" x="1529.53"/>
 </text>
 <text id="text44" style="text-anchor:middle" transform="scale(4.0128 .2492)" font-size="46.954px" y="-3554.49" x="578.23999" font-family="Arial"/>
 <text id="text46" style="word-spacing:0;letter-spacing:0" font-size="129.23px" line-height="125%" y="-878.78003" x="2110.79" font-family="Gentium Book Basic">
  <tspan id="tspan48" y="-878.78003" x="2110.79"/>
 </text>
 <text id="text50" style="text-anchor:middle" transform="scale(4.0128 .2492)" font-size="46.954px" y="-3875.52" x="723.09003" font-family="Arial"/>
 <text id="text52" style="word-spacing:0;letter-spacing:0" font-size="208.33px" line-height="125%" y="535.94" x="277.98999" font-family="Gentium Book Basic" fill="#ffffff">
  <tspan id="tspan54" y="535.94" x="277.98999"/>
 </text>
 <rect id="rect56" rx="25.988" height="512" width="512" y="-.003" x="0" fill="#d83b3b"/>
 <g id="g58" fill-rule="evenodd">
  <path id="path60" d="m26-0.003c-14.397 0-26 11.603-26 26v460c0 14.397 11.603 26 26 26h21.781v-512h-21.781" fill="#c13333"/>
  <path id="path62" d="m47.781-0.003v512h40v-512h-40" fill="#a72020"/>
 </g>
 <text id="text64" style="word-spacing:0;letter-spacing:0" font-size="129.23px" line-height="125%" y="271.06" x="171.42999" font-family="Gentium Book Basic">
  <tspan id="tspan66" y="271.06" x="171.42999"/>
 </text>
 <text id="text68" style="text-anchor:middle" transform="scale(4.0128 .2492)" font-size="46.954px" y="738.52002" x="239.8" font-family="Arial"/>
 <text id="text70" style="word-spacing:0;letter-spacing:0" font-size="129.23px" line-height="125%" y="191.06" x="752.70001" font-family="Gentium Book Basic">
  <tspan id="tspan72" y="191.06" x="752.70001"/>
 </text>
 <text id="text74" style="text-anchor:middle" transform="scale(4.0128 .2492)" font-size="46.954px" y="417.51001" x="384.64999" font-family="Arial"/>
 <text id="text76" style="word-spacing:0;letter-spacing:0" font-size="129.23px" line-height="125%" y="9.7930002" x="-318.88" font-family="Gentium Book Basic">
  <tspan id="tspan78" y="9.7930002" x="-318.88"/>
 </text>
 <text id="text80" style="text-anchor:middle" transform="scale(4.0128 .2492)" font-size="46.954px" y="-309.85001" x="117.61" font-family="Arial"/>
 <text id="text82" style="word-spacing:0;letter-spacing:0" font-size="129.23px" line-height="125%" y="-206.67" x="779.16998" font-family="Gentium Book Basic">
  <tspan id="tspan84" y="-206.67" x="779.16998"/>
 </text>
 <text id="text86" style="text-anchor:middle" transform="scale(4.0128 .2492)" font-size="46.954px" y="-1178.52" x="391.25" font-family="Arial"/>
 <text id="text88" style="word-spacing:0;letter-spacing:0" font-size="129.23px" line-height="125%" y="-286.67999" x="1360.4399" font-family="Gentium Book Basic">
  <tspan id="tspan90" y="-286.67999" x="1360.4399"/>
 </text>
 <text id="text92" style="text-anchor:middle" transform="scale(4.0128 .2492)" font-size="46.954px" y="-1499.54" x="536.09998" font-family="Arial"/>
 <text id="text94" style="word-spacing:0;letter-spacing:0" font-size="129.23px" line-height="125%" y="-759.08002" x="971.32001" font-family="Gentium Book Basic">
  <tspan id="tspan96" y="-759.08002" x="971.32001"/>
 </text>
 <text id="text98" style="text-anchor:middle" transform="scale(4.0128 .2492)" font-size="46.954px" y="-3395.1799" x="439.13" font-family="Arial"/>
 <text id="text100" style="word-spacing:0;letter-spacing:0" font-size="129.23px" line-height="125%" y="-839.08002" x="1552.58" font-family="Gentium Book Basic">
  <tspan id="tspan102" y="-839.08002" x="1552.58"/>
 </text>
 <text id="text104" style="text-anchor:middle" transform="scale(4.0128 .2492)" font-size="46.954px" y="-3716.21" x="583.97998" font-family="Arial"/>
 <text id="text106" style="word-spacing:0;letter-spacing:0" font-size="208.33px" line-height="125%" y="575.64001" x="-280.22" font-family="Gentium Book Basic">
  <tspan id="tspan108" y="575.64001" x="-280.22"/>
 </text>
 <path id="path110" opacity=".25" d="m134.47 41v430l41 41h310.53c14.397 0 26-11.603 26-26v-275.47l-121.81-121.84c-15.65-15.652-34.05-27.379-55.19-35.19-22.58-8.34-47.4-12.5-74.44-12.5h-126.09"/>
 <path id="path112" d="m445.03 252.8c0 35.809-4.369 67.35-13.11 94.6-8.736 27.06-20.688 49.745-35.853 68.06-15.166 18.316-33.13 32.14-53.903 41.505-20.605 9.358-42.854 14.04-66.76 14.04h-140.95v-430h126.1c27.03 0 51.838 4.172 74.42 12.512 22.584 8.342 42.03 21.16 58.35 38.454 16.319 17.293 29.01 39.27 38.07 65.92 9.07 26.653 13.598 58.29 13.6 94.92m-73.43 0c0-25.03-2.803-46.49-8.407-64.39-5.44-17.904-13.11-32.552-22.99-43.947-9.891-11.597-21.759-20.14-35.605-25.635-13.688-5.493-28.848-8.24-45.496-8.24h-51.671v290.84h61.816c14.671 0 28.19-3.153 40.551-9.46 12.527-6.307 23.324-15.667 32.391-28.08 9.231-12.613 16.401-28.18 21.512-46.694 5.275-18.515 7.912-39.979 7.912-64.39" fill="#fff"/>
</svg>
