<svg xmlns="http://www.w3.org/2000/svg" xmlns:svg="http://www.w3.org/2000/svg" xmlns:xlink="http://www.w3.org/1999/xlink" id="svg2" width="100%" height="100%" version="1.1" viewBox="0 0 512 512"><metadata id="metadata241"/><defs id="defs4"><linearGradient id="ButtonShadow-5" x1="45.448" x2="45.448" y1="92.54" y2="7.016" gradientTransform="scale(1.0059 .99417)" gradientUnits="userSpaceOnUse"><stop id="stop3750-0" offset="0"/><stop id="stop3752-8" offset="1" stop-opacity=".588"/></linearGradient><filter id="filter3174-8" color-interpolation-filters="sRGB"><feGaussianBlur id="feGaussianBlur3176-5" stdDeviation="1.71"/></filter><linearGradient id="linearGradient3737"><stop id="stop3739" offset="0" stop-color="#fff"/><stop id="stop3741" offset="1" stop-color="#fff" stop-opacity="0"/></linearGradient><filter id="filter3174" color-interpolation-filters="sRGB"><feGaussianBlur id="feGaussianBlur3176" stdDeviation="1.71"/></filter><filter id="filter3794" width="1.384" height="1.384" x="-.192" y="-.192" color-interpolation-filters="sRGB"><feGaussianBlur id="feGaussianBlur3796" stdDeviation="5.28"/></filter><linearGradient id="linearGradient3613" x1="48" x2="48" y1="20.221" y2="138.66" gradientUnits="userSpaceOnUse" xlink:href="#linearGradient3737"/><clipPath id="clipPath3613"><rect id="rect3615" width="84" height="84" x="6" y="6" fill="#fff" rx="6" ry="6"/></clipPath><filter id="filter3174-3" color-interpolation-filters="sRGB"><feGaussianBlur id="feGaussianBlur3176-2" stdDeviation="1.71"/></filter><filter id="filter3794-0" width="1.384" height="1.384" x="-.192" y="-.192" color-interpolation-filters="sRGB"><feGaussianBlur id="feGaussianBlur3796-3" stdDeviation="5.28"/></filter><clipPath id="clipPath3613-1"><rect id="rect3615-9" width="84" height="84" x="6" y="6" fill="#fff" rx="6" ry="6"/></clipPath><filter id="filter3174-8-3" color-interpolation-filters="sRGB"><feGaussianBlur id="feGaussianBlur3176-5-8" stdDeviation="1.71"/></filter><filter id="filter3174-0" color-interpolation-filters="sRGB"><feGaussianBlur id="feGaussianBlur3176-6" stdDeviation="1.71"/></filter><filter id="filter3794-9" width="1.384" height="1.384" x="-.192" y="-.192" color-interpolation-filters="sRGB"><feGaussianBlur id="feGaussianBlur3796-2" stdDeviation="5.28"/></filter><clipPath id="clipPath3613-2"><rect id="rect3615-3" width="84" height="84" x="6" y="6" fill="#fff" rx="6" ry="6"/></clipPath><filter id="filter3174-35" color-interpolation-filters="sRGB"><feGaussianBlur id="feGaussianBlur3176-3" stdDeviation="1.71"/></filter><filter id="filter3794-91" width="1.384" height="1.384" x="-.192" y="-.192" color-interpolation-filters="sRGB"><feGaussianBlur id="feGaussianBlur3796-7" stdDeviation="5.28"/></filter><clipPath id="clipPath3613-8"><rect id="rect3615-8" width="84" height="84" x="6" y="6" fill="#fff" rx="6" ry="6"/></clipPath><filter id="filter3174-4" color-interpolation-filters="sRGB"><feGaussianBlur id="feGaussianBlur3176-37" stdDeviation="1.71"/></filter><filter id="filter3794-4" width="1.384" height="1.384" x="-.192" y="-.192" color-interpolation-filters="sRGB"><feGaussianBlur id="feGaussianBlur3796-9" stdDeviation="5.28"/></filter><clipPath id="clipPath3613-9"><rect id="rect3615-1" width="84" height="84" x="6" y="6" fill="#fff" rx="6" ry="6"/></clipPath><linearGradient id="linearGradient11572" x1="45.448" x2="45.448" y1="92.54" y2="7.016" gradientTransform="scale(1.0059 .99417)" gradientUnits="userSpaceOnUse" xlink:href="#ButtonShadow-5"/></defs><g id="layer2" display="none" transform="matrix(13.4 0 0 13.4 -1705.8 -834.03)"><rect id="rect3745" width="86" height="85" x="5" y="7" fill="url(#linearGradient11572)" filter="url(#filter3174)" opacity=".9" rx="6" ry="6"/></g><g id="layer5" display="none" transform="matrix(13.4 0 0 13.4 -1705.8 -834.03)"><rect id="rect3171" width="66" height="66" x="15" y="15" fill="url(#linearGradient3613)" stroke="#fff" stroke-linecap="round" stroke-width=".5" clip-path="url(#clipPath3613)" filter="url(#filter3794)" opacity=".1" rx="12" ry="12"/></g><g id="layer2-5" display="none" transform="translate(-118.36 -21.072)"><rect id="rect3745-0" width="86" height="85" x="5" y="7" fill="url(#linearGradient11572)" filter="url(#filter3174-8)" opacity=".9" rx="6" ry="6"/></g><g id="layer2-8" display="none" transform="matrix(13.4 0 0 13.4 -1708.9 -839.43)"><rect id="rect3745-3" width="86" height="85" x="5" y="7" fill="url(#linearGradient11572)" filter="url(#filter3174-3)" opacity=".9" rx="6" ry="6"/></g><g id="layer5-5" display="none" transform="matrix(13.4 0 0 13.4 -1708.9 -839.43)"><rect id="rect3171-2" width="66" height="66" x="15" y="15" fill="url(#linearGradient3613)" stroke="#fff" stroke-linecap="round" stroke-width=".5" clip-path="url(#clipPath3613-1)" filter="url(#filter3794-0)" opacity=".1" rx="12" ry="12"/></g><g id="layer2-3" display="none" transform="matrix(13.4 0 0 13.4 -1693.5 -882.16)"><rect id="rect3745-6" width="86" height="85" x="5" y="7" fill="url(#linearGradient11572)" filter="url(#filter3174-0)" opacity=".9" rx="6" ry="6"/></g><g id="layer5-3" display="none" transform="matrix(13.4 0 0 13.4 -1693.5 -882.16)"><rect id="rect3171-7" width="66" height="66" x="15" y="15" fill="url(#linearGradient3613)" stroke="#fff" stroke-linecap="round" stroke-width=".5" clip-path="url(#clipPath3613-2)" filter="url(#filter3794-9)" opacity=".1" rx="12" ry="12"/></g><g id="layer2-5-4" display="none" transform="translate(-106.08 -69.206)"><rect id="rect3745-0-9" width="86" height="85" x="5" y="7" fill="url(#linearGradient11572)" filter="url(#filter3174-8-3)" opacity=".9" rx="6" ry="6"/></g><g id="layer2-33" display="none" transform="matrix(13.4 0 0 13.4 -1500.2 -968.07)"><rect id="rect3745-1" width="86" height="85" x="5" y="7" fill="url(#linearGradient11572)" filter="url(#filter3174-35)" opacity=".9" rx="6" ry="6"/></g><g id="layer5-6" display="none" transform="matrix(13.4 0 0 13.4 -1500.2 -968.07)"><rect id="rect3171-4" width="66" height="66" x="15" y="15" fill="url(#linearGradient3613)" stroke="#fff" stroke-linecap="round" stroke-width=".5" clip-path="url(#clipPath3613-8)" filter="url(#filter3794-91)" opacity=".1" rx="12" ry="12"/></g><g id="layer2-58" display="none" transform="matrix(13.4 0 0 13.4 -1659.8 -887.77)"><rect id="rect3745-7" width="86" height="85" x="5" y="7" fill="url(#linearGradient11572)" filter="url(#filter3174-4)" opacity=".9" rx="6" ry="6"/></g><g id="layer5-0" display="none" transform="matrix(13.4 0 0 13.4 -1659.8 -887.77)"><rect id="rect3171-9" width="66" height="66" x="15" y="15" fill="url(#linearGradient3613)" stroke="#fff" stroke-linecap="round" stroke-width=".5" clip-path="url(#clipPath3613-9)" filter="url(#filter3794-4)" opacity=".1" rx="12" ry="12"/></g><rect style="fill:#0078ad" id="rect9" width="512" height="512" x="0" y="0" rx="25.988"/><path style="opacity:.25;fill-rule:evenodd" id="path59" d="m 313.81,146.13 c -13.64,0 -25.51,7.67 -31.48,18.93 l 48.13,48.13 c -0.01,0 -0.01,0.01 -0.01,0.01 l -48.13,-48.13 -56.38,0 -78.54,78.57 -7.76,0 -17.11,-17.11 c -8.65,-8.65 -20.6,-14 -33.786,-14 l 64.426,64.43 -0.01,0 -64.42,-64.42 c -26.375,0 -47.744,21.37 -47.744,47.74 L 41,260.29 c 0.002,13.19 5.352,25.14 14,33.79 L 272.92,512 l 95.64,0 -13.63,-13.63 13.64,13.63 117.44,0 c 14.4,0 25.99,-11.59 25.99,-25.99 l 0,-184.69 -41,-41 -66.12,-40.93 -0.01,-0.01 0.02,3.09 -65.93,-65.93 c 0.05,0.05 0.1,0.11 0.16,0.17 l -0.17,-0.17 c -6.43,-6.43 -15.32,-10.41 -25.14,-10.41 z"/><path style="fill:#fff;fill-rule:evenodd" id="path131" d="m 313.82,146.13 c -13.642,0 -25.517,7.671 -31.492,18.934 l -56.38,0 -78.54,78.57 -13.88,0 c -6.758,-18.17 -24.272,-31.1 -44.784,-31.1 -26.375,0 -47.743,21.368 -47.743,47.743 0,26.375 21.368,47.782 47.743,47.782 20.512,0 38.03,-12.94 44.784,-31.1 l 74.42,0 76.51,76.51 59.721,0 0,12.403 55.14,0 0,-58.12 -55.14,0 0,12.441 -45.876,0 -43.23,-43.23 150.11,0 0.155,25.15 65.67,-41.794 -66.13,-40.936 0.155,24.26 -183.28,0 -0.272,-0.272 -0.272,0.272 -26.71,0 45.26,-45.26 42.573,0 c 5.977,11.268 17.845,18.934 31.492,18.934 19.664,0 35.576,-15.911 35.576,-35.576 0,-19.664 -15.911,-35.614 -35.576,-35.614"/></svg>