<svg xmlns="http://www.w3.org/2000/svg" xmlns:svg="http://www.w3.org/2000/svg" xmlns:xlink="http://www.w3.org/1999/xlink" id="svg2" width="100%" height="100%" version="1.1" viewBox="0 0 512 512"><metadata id="metadata241"/><defs id="defs4"><linearGradient id="ButtonShadow-5" x1="45.448" x2="45.448" y1="92.54" y2="7.016" gradientTransform="scale(1.0059 .99417)" gradientUnits="userSpaceOnUse"><stop id="stop3750-0" offset="0"/><stop id="stop3752-8" offset="1" stop-opacity=".588"/></linearGradient><filter id="filter3174-8" color-interpolation-filters="sRGB"><feGaussianBlur id="feGaussianBlur3176-5" stdDeviation="1.71"/></filter><linearGradient id="linearGradient3737"><stop id="stop3739" offset="0" stop-color="#fff"/><stop id="stop3741" offset="1" stop-color="#fff" stop-opacity="0"/></linearGradient><filter id="filter3174" color-interpolation-filters="sRGB"><feGaussianBlur id="feGaussianBlur3176" stdDeviation="1.71"/></filter><filter id="filter3794" width="1.384" height="1.384" x="-.192" y="-.192" color-interpolation-filters="sRGB"><feGaussianBlur id="feGaussianBlur3796" stdDeviation="5.28"/></filter><linearGradient id="linearGradient3613" x1="48" x2="48" y1="20.221" y2="138.66" gradientUnits="userSpaceOnUse" xlink:href="#linearGradient3737"/><clipPath id="clipPath3613"><rect id="rect3615" width="84" height="84" x="6" y="6" fill="#fff" rx="6" ry="6"/></clipPath><filter id="filter3174-3" color-interpolation-filters="sRGB"><feGaussianBlur id="feGaussianBlur3176-2" stdDeviation="1.71"/></filter><filter id="filter3794-0" width="1.384" height="1.384" x="-.192" y="-.192" color-interpolation-filters="sRGB"><feGaussianBlur id="feGaussianBlur3796-3" stdDeviation="5.28"/></filter><clipPath id="clipPath3613-1"><rect id="rect3615-9" width="84" height="84" x="6" y="6" fill="#fff" rx="6" ry="6"/></clipPath><filter id="filter3174-8-3" color-interpolation-filters="sRGB"><feGaussianBlur id="feGaussianBlur3176-5-8" stdDeviation="1.71"/></filter><filter id="filter3174-0" color-interpolation-filters="sRGB"><feGaussianBlur id="feGaussianBlur3176-6" stdDeviation="1.71"/></filter><filter id="filter3794-9" width="1.384" height="1.384" x="-.192" y="-.192" color-interpolation-filters="sRGB"><feGaussianBlur id="feGaussianBlur3796-2" stdDeviation="5.28"/></filter><clipPath id="clipPath3613-2"><rect id="rect3615-3" width="84" height="84" x="6" y="6" fill="#fff" rx="6" ry="6"/></clipPath><filter id="filter3174-35" color-interpolation-filters="sRGB"><feGaussianBlur id="feGaussianBlur3176-3" stdDeviation="1.71"/></filter><filter id="filter3794-91" width="1.384" height="1.384" x="-.192" y="-.192" color-interpolation-filters="sRGB"><feGaussianBlur id="feGaussianBlur3796-7" stdDeviation="5.28"/></filter><clipPath id="clipPath3613-8"><rect id="rect3615-8" width="84" height="84" x="6" y="6" fill="#fff" rx="6" ry="6"/></clipPath><filter id="filter3174-4" color-interpolation-filters="sRGB"><feGaussianBlur id="feGaussianBlur3176-37" stdDeviation="1.71"/></filter><filter id="filter3794-4" width="1.384" height="1.384" x="-.192" y="-.192" color-interpolation-filters="sRGB"><feGaussianBlur id="feGaussianBlur3796-9" stdDeviation="5.28"/></filter><clipPath id="clipPath3613-9"><rect id="rect3615-1" width="84" height="84" x="6" y="6" fill="#fff" rx="6" ry="6"/></clipPath><linearGradient id="linearGradient11572" x1="45.448" x2="45.448" y1="92.54" y2="7.016" gradientTransform="scale(1.0059 .99417)" gradientUnits="userSpaceOnUse" xlink:href="#ButtonShadow-5"/></defs><g id="layer2" display="none" transform="matrix(13.4 0 0 13.4 -1705.8 -834.03)"><rect id="rect3745" width="86" height="85" x="5" y="7" fill="url(#linearGradient11572)" filter="url(#filter3174)" opacity=".9" rx="6" ry="6"/></g><g id="layer5" display="none" transform="matrix(13.4 0 0 13.4 -1705.8 -834.03)"><rect id="rect3171" width="66" height="66" x="15" y="15" fill="url(#linearGradient3613)" stroke="#fff" stroke-linecap="round" stroke-width=".5" clip-path="url(#clipPath3613)" filter="url(#filter3794)" opacity=".1" rx="12" ry="12"/></g><g id="layer2-5" display="none" transform="translate(-118.36 -21.072)"><rect id="rect3745-0" width="86" height="85" x="5" y="7" fill="url(#linearGradient11572)" filter="url(#filter3174-8)" opacity=".9" rx="6" ry="6"/></g><g id="layer2-8" display="none" transform="matrix(13.4 0 0 13.4 -1708.9 -839.43)"><rect id="rect3745-3" width="86" height="85" x="5" y="7" fill="url(#linearGradient11572)" filter="url(#filter3174-3)" opacity=".9" rx="6" ry="6"/></g><g id="layer5-5" display="none" transform="matrix(13.4 0 0 13.4 -1708.9 -839.43)"><rect id="rect3171-2" width="66" height="66" x="15" y="15" fill="url(#linearGradient3613)" stroke="#fff" stroke-linecap="round" stroke-width=".5" clip-path="url(#clipPath3613-1)" filter="url(#filter3794-0)" opacity=".1" rx="12" ry="12"/></g><g id="layer2-3" display="none" transform="matrix(13.4 0 0 13.4 -1693.5 -882.16)"><rect id="rect3745-6" width="86" height="85" x="5" y="7" fill="url(#linearGradient11572)" filter="url(#filter3174-0)" opacity=".9" rx="6" ry="6"/></g><g id="layer5-3" display="none" transform="matrix(13.4 0 0 13.4 -1693.5 -882.16)"><rect id="rect3171-7" width="66" height="66" x="15" y="15" fill="url(#linearGradient3613)" stroke="#fff" stroke-linecap="round" stroke-width=".5" clip-path="url(#clipPath3613-2)" filter="url(#filter3794-9)" opacity=".1" rx="12" ry="12"/></g><g id="layer2-5-4" display="none" transform="translate(-106.08 -69.206)"><rect id="rect3745-0-9" width="86" height="85" x="5" y="7" fill="url(#linearGradient11572)" filter="url(#filter3174-8-3)" opacity=".9" rx="6" ry="6"/></g><g id="layer2-33" display="none" transform="matrix(13.4 0 0 13.4 -1500.2 -968.07)"><rect id="rect3745-1" width="86" height="85" x="5" y="7" fill="url(#linearGradient11572)" filter="url(#filter3174-35)" opacity=".9" rx="6" ry="6"/></g><g id="layer5-6" display="none" transform="matrix(13.4 0 0 13.4 -1500.2 -968.07)"><rect id="rect3171-4" width="66" height="66" x="15" y="15" fill="url(#linearGradient3613)" stroke="#fff" stroke-linecap="round" stroke-width=".5" clip-path="url(#clipPath3613-8)" filter="url(#filter3794-91)" opacity=".1" rx="12" ry="12"/></g><g id="layer2-58" display="none" transform="matrix(13.4 0 0 13.4 -1659.8 -887.77)"><rect id="rect3745-7" width="86" height="85" x="5" y="7" fill="url(#linearGradient11572)" filter="url(#filter3174-4)" opacity=".9" rx="6" ry="6"/></g><g id="layer5-0" display="none" transform="matrix(13.4 0 0 13.4 -1659.8 -887.77)"><rect id="rect3171-9" width="66" height="66" x="15" y="15" fill="url(#linearGradient3613)" stroke="#fff" stroke-linecap="round" stroke-width=".5" clip-path="url(#clipPath3613-9)" filter="url(#filter3794-4)" opacity=".1" rx="12" ry="12"/></g><g id="g6075" transform="translate(397.01695,-321.08475)"><path id="path9-1" d="m -371.01695,321.08475 c -14.397,0 -26,11.603 -26,26 l 0,460 c 0,14.397 11.603,26 26,26 l 460.000001,0 c 14.396999,0 25.999999,-11.603 25.999999,-26 l 0,-460 c 0,-14.397 -11.6,-26 -25.999999,-26 l -460.000001,0" style="fill:#9c4a83"/><path style="color:#000;opacity:.25" id="path1835" d="m -100.96695,376.73275 0,0.002 -204.24,0 c -27.902,0 -50.808,22.908 -50.808,50.81 l -0.002,0 0,111.34 c 0,13.96 5.737,26.69 14.965,35.91 l 0.127,0.13 c -0.042,-0.04 -0.086,-0.08 -0.127,-0.12 l 65.195,65.2 -3.54,0 c -4.55,0.01 -8.2,3.7 -8.2,8.25 0,2.28 0.91,4.33 2.39,5.81 l 179.02,179.02 195.170001,0 c 14.399999,0 25.999999,-11.6 25.999999,-26 l 0,-238.5 -55.939999,-55.94 c -3.57,-3.57 -7.68,-6.62 -12.17,-9.01 l -111.96,-111.96 c 0.05,0.057 0.11,0.115 0.16,0.17 l -0.17,-0.17 c -9.21,-9.214 -21.92,-14.942 -35.870001,-14.942 z"/><path style="color:#000;fill:#fff" id="path1975" d="m -305.20695,376.73575 c -27.903,0 -50.809,22.906 -50.809,50.809 l 0,111.34 c 0,27.903 22.906,50.855 50.809,50.855 l 56.04,0 c 0.132,-8.08 0.188,-16.14 -0.092,-24.17 -0.038,-0.199 -0.055,-0.397 -0.092,-0.596 l -51.772,0 c -15.945,0 -28.752,-12.807 -28.752,-28.752 l 0,-106.02 c 0,-15.946 12.781,-28.615 28.752,-28.615 l 196.08,0 c 15.973001,0 28.752001,12.669 28.752001,28.615 l 0,49.801 c 8.71,0.07 17.428,0.168 26.14,0.229 l 0,-52.69 c 0,-27.903 -22.906,-50.809 -50.809001,-50.809 l -204.25,0 m 124.18,120.97 c -27.903,0 -50.809,22.906 -50.809,50.809 l 0,111.34 c 0,27.903 22.906,50.855 50.809,50.855 l 204.200001,0 c 27.903,0 50.81,-22.952 50.809,-50.855 l 0,-111.34 c 0,-27.903 -22.906,-50.809 -50.809,-50.809 l -204.200001,0 m 4.04,24.854 196.130001,0 c 15.972,0 28.706,12.669 28.706,28.615 l 0,106.02 c 0,15.946 -12.76,28.752 -28.706,28.752 l -196.130001,0 c -15.945,0 -28.752,-12.806 -28.752,-28.752 l 0,-106.02 c 0,-15.946 12.781,-28.615 28.752,-28.615 m -102.4,117.44 c -4.558,0 -8.208,3.696 -8.208,8.254 0,4.558 3.65,8.208 8.208,8.208 l 30.357,0 c -0.419,-5.469 -0.662,-10.966 -0.78,-16.463 l -29.578,0 m 264.410001,48.975 c 5.3019998,0 9.5379998,4.281 9.5379998,9.584 0,5.302 -4.235,9.63 -9.5379998,9.63 -5.302,0 -9.63,-4.328 -9.63,-9.63 0,-5.302 4.328,-9.584 9.63,-9.584 m -80.16,35.17 c -6.313001,0 -11.418001,5.059 -11.418001,11.373 l 0,24.671 c 0,0.256 0.029,0.528 0.046,0.78 l -48.7,0 c -4.558,0 -8.254,3.696 -8.254,8.254 0,4.558 3.696,8.208 8.254,8.208 l 148.0700008,0 c 4.558,0 8.254,-3.65 8.254,-8.208 0,-4.558 -3.696,-8.254 -8.254,-8.254 l -47.8289998,0 c 0.016,-0.251 0,-0.524 0,-0.78 l 0,-24.671 c 0,-6.313 -5.059,-11.373 -11.373,-11.373 l -28.798,0"/></g></svg>