<svg xmlns="http://www.w3.org/2000/svg" xmlns:svg="http://www.w3.org/2000/svg" xmlns:xlink="http://www.w3.org/1999/xlink" id="svg2" width="100%" height="100%" version="1.1" viewBox="0 0 512 512"><metadata id="metadata241"/><defs id="defs4"><linearGradient id="ButtonShadow-5" x1="45.448" x2="45.448" y1="92.54" y2="7.016" gradientTransform="scale(1.0059 .99417)" gradientUnits="userSpaceOnUse"><stop id="stop3750-0" offset="0"/><stop id="stop3752-8" offset="1" stop-opacity=".588"/></linearGradient><filter id="filter3174-8" color-interpolation-filters="sRGB"><feGaussianBlur id="feGaussianBlur3176-5" stdDeviation="1.71"/></filter><linearGradient id="linearGradient3737"><stop id="stop3739" offset="0" stop-color="#fff"/><stop id="stop3741" offset="1" stop-color="#fff" stop-opacity="0"/></linearGradient><filter id="filter3174" color-interpolation-filters="sRGB"><feGaussianBlur id="feGaussianBlur3176" stdDeviation="1.71"/></filter><filter id="filter3794" width="1.384" height="1.384" x="-.192" y="-.192" color-interpolation-filters="sRGB"><feGaussianBlur id="feGaussianBlur3796" stdDeviation="5.28"/></filter><linearGradient id="linearGradient3613" x1="48" x2="48" y1="20.221" y2="138.66" gradientUnits="userSpaceOnUse" xlink:href="#linearGradient3737"/><clipPath id="clipPath3613"><rect id="rect3615" width="84" height="84" x="6" y="6" fill="#fff" rx="6" ry="6"/></clipPath><filter id="filter3174-3" color-interpolation-filters="sRGB"><feGaussianBlur id="feGaussianBlur3176-2" stdDeviation="1.71"/></filter><filter id="filter3794-0" width="1.384" height="1.384" x="-.192" y="-.192" color-interpolation-filters="sRGB"><feGaussianBlur id="feGaussianBlur3796-3" stdDeviation="5.28"/></filter><clipPath id="clipPath3613-1"><rect id="rect3615-9" width="84" height="84" x="6" y="6" fill="#fff" rx="6" ry="6"/></clipPath><filter id="filter3174-8-3" color-interpolation-filters="sRGB"><feGaussianBlur id="feGaussianBlur3176-5-8" stdDeviation="1.71"/></filter><filter id="filter3174-0" color-interpolation-filters="sRGB"><feGaussianBlur id="feGaussianBlur3176-6" stdDeviation="1.71"/></filter><filter id="filter3794-9" width="1.384" height="1.384" x="-.192" y="-.192" color-interpolation-filters="sRGB"><feGaussianBlur id="feGaussianBlur3796-2" stdDeviation="5.28"/></filter><clipPath id="clipPath3613-2"><rect id="rect3615-3" width="84" height="84" x="6" y="6" fill="#fff" rx="6" ry="6"/></clipPath><filter id="filter3174-35" color-interpolation-filters="sRGB"><feGaussianBlur id="feGaussianBlur3176-3" stdDeviation="1.71"/></filter><filter id="filter3794-91" width="1.384" height="1.384" x="-.192" y="-.192" color-interpolation-filters="sRGB"><feGaussianBlur id="feGaussianBlur3796-7" stdDeviation="5.28"/></filter><clipPath id="clipPath3613-8"><rect id="rect3615-8" width="84" height="84" x="6" y="6" fill="#fff" rx="6" ry="6"/></clipPath><filter id="filter3174-4" color-interpolation-filters="sRGB"><feGaussianBlur id="feGaussianBlur3176-37" stdDeviation="1.71"/></filter><filter id="filter3794-4" width="1.384" height="1.384" x="-.192" y="-.192" color-interpolation-filters="sRGB"><feGaussianBlur id="feGaussianBlur3796-9" stdDeviation="5.28"/></filter><clipPath id="clipPath3613-9"><rect id="rect3615-1" width="84" height="84" x="6" y="6" fill="#fff" rx="6" ry="6"/></clipPath><linearGradient id="linearGradient11572" x1="45.448" x2="45.448" y1="92.54" y2="7.016" gradientTransform="scale(1.0059 .99417)" gradientUnits="userSpaceOnUse" xlink:href="#ButtonShadow-5"/></defs><g id="layer2" display="none" transform="matrix(13.4 0 0 13.4 -1705.8 -834.03)"><rect id="rect3745" width="86" height="85" x="5" y="7" fill="url(#linearGradient11572)" filter="url(#filter3174)" opacity=".9" rx="6" ry="6"/></g><g id="layer5" display="none" transform="matrix(13.4 0 0 13.4 -1705.8 -834.03)"><rect id="rect3171" width="66" height="66" x="15" y="15" fill="url(#linearGradient3613)" stroke="#fff" stroke-linecap="round" stroke-width=".5" clip-path="url(#clipPath3613)" filter="url(#filter3794)" opacity=".1" rx="12" ry="12"/></g><g id="layer2-5" display="none" transform="translate(-118.36 -21.072)"><rect id="rect3745-0" width="86" height="85" x="5" y="7" fill="url(#linearGradient11572)" filter="url(#filter3174-8)" opacity=".9" rx="6" ry="6"/></g><g id="layer2-8" display="none" transform="matrix(13.4 0 0 13.4 -1708.9 -839.43)"><rect id="rect3745-3" width="86" height="85" x="5" y="7" fill="url(#linearGradient11572)" filter="url(#filter3174-3)" opacity=".9" rx="6" ry="6"/></g><g id="layer5-5" display="none" transform="matrix(13.4 0 0 13.4 -1708.9 -839.43)"><rect id="rect3171-2" width="66" height="66" x="15" y="15" fill="url(#linearGradient3613)" stroke="#fff" stroke-linecap="round" stroke-width=".5" clip-path="url(#clipPath3613-1)" filter="url(#filter3794-0)" opacity=".1" rx="12" ry="12"/></g><g id="layer2-3" display="none" transform="matrix(13.4 0 0 13.4 -1693.5 -882.16)"><rect id="rect3745-6" width="86" height="85" x="5" y="7" fill="url(#linearGradient11572)" filter="url(#filter3174-0)" opacity=".9" rx="6" ry="6"/></g><g id="layer5-3" display="none" transform="matrix(13.4 0 0 13.4 -1693.5 -882.16)"><rect id="rect3171-7" width="66" height="66" x="15" y="15" fill="url(#linearGradient3613)" stroke="#fff" stroke-linecap="round" stroke-width=".5" clip-path="url(#clipPath3613-2)" filter="url(#filter3794-9)" opacity=".1" rx="12" ry="12"/></g><g id="layer2-5-4" display="none" transform="translate(-106.08 -69.206)"><rect id="rect3745-0-9" width="86" height="85" x="5" y="7" fill="url(#linearGradient11572)" filter="url(#filter3174-8-3)" opacity=".9" rx="6" ry="6"/></g><g id="layer2-33" display="none" transform="matrix(13.4 0 0 13.4 -1500.2 -968.07)"><rect id="rect3745-1" width="86" height="85" x="5" y="7" fill="url(#linearGradient11572)" filter="url(#filter3174-35)" opacity=".9" rx="6" ry="6"/></g><g id="layer5-6" display="none" transform="matrix(13.4 0 0 13.4 -1500.2 -968.07)"><rect id="rect3171-4" width="66" height="66" x="15" y="15" fill="url(#linearGradient3613)" stroke="#fff" stroke-linecap="round" stroke-width=".5" clip-path="url(#clipPath3613-8)" filter="url(#filter3794-91)" opacity=".1" rx="12" ry="12"/></g><g id="layer2-58" display="none" transform="matrix(13.4 0 0 13.4 -1659.8 -887.77)"><rect id="rect3745-7" width="86" height="85" x="5" y="7" fill="url(#linearGradient11572)" filter="url(#filter3174-4)" opacity=".9" rx="6" ry="6"/></g><g id="layer5-0" display="none" transform="matrix(13.4 0 0 13.4 -1659.8 -887.77)"><rect id="rect3171-9" width="66" height="66" x="15" y="15" fill="url(#linearGradient3613)" stroke="#fff" stroke-linecap="round" stroke-width=".5" clip-path="url(#clipPath3613-9)" filter="url(#filter3794-4)" opacity=".1" rx="12" ry="12"/></g><g id="g6310" transform="translate(275.52542,-301.55933)"><rect id="rect9" width="512" height="512" x="-275.525" y="301.559" rx="25.988" style="fill:#afe688"/><path style="color:#000;opacity:.25" id="path59" d="m -110.73542,394.37932 -1.01,38.77 -0.01,0 c -20.62,-6.41 -47.15,-13.9 -66.666,-18.76 l -0.004,0 -0.002,0 -0.008,0 0.006,0.01 c -25.824,36.99 -52.416,84.51 -52.416,133.04 l 170.279996,170.28 -170.279996,-170.28 -0.002,0 c -15.72,57.08 23.845,151.18 27.168,167.13 -0.921,0.08 -1.744,0.16 -2.356,0.25 l 2.051,2.05 -0.01,0 -2.045,-2.05 c 0.488,0.62 0.902,1.1 1.244,1.44 l 97.3,97.3 317.98,0 c 14.4,0 25.99,-11.59 25.99,-25.99 l 0,-224.35 -92.4,-92.4 c -7.46,-7.46 -16.12,-13.03 -27.2,-18.31 -32.330004,-15.42 -68.160004,-25.87 -133.670004,-40.8 l -0.01,-0.01 c -31.32,-6.65 -62.14,-13.356 -93.929996,-17.32 z"/><path style="color:#000;fill:#fff" id="path137" d="m -110.73542,394.37932 -1.014,38.774 c -20.62,-6.412 -47.16,-13.908 -66.68,-18.759 -25.825,36.993 -52.42,84.52 -52.42,133.05 -18.589,67.49 40.13,186.77 24.813,167.38 13.156,-1.849 100.81,-2.063 127.979996,1.014 39.754,4.499 61.55,6.04 87.7600003,4.062 59.6929997,-4.514 99.1300037,-14.301 142.8800037,-35.691 22.866,-11.18 27.704,-16.194 32.65,-29.567 4.716,-12.746 6.46,-24.538 4.062,-24.538 -0.851,0 -8.304,2.897 -17.278,7.138 -33.667,15.911 -63.16,23.841 -88.830004,22.469 -26.679,-1.427 -69.57,-16.921 -121.43,-41.858 l -24.538,-11.193 -18.373,-45.947 17.359,11.193 c 29.604,19.662 78.01,42.888 107.2,52.12 44.588,14.1 79.400004,12.12 115.310004,-6.164 12.654,-6.447 36.745,-22.2 36.745,-24.453 0,-4.246 -12.319,-45.596 -19.387,-64.33 -17.674,-46.836 -30.09,-62.68 -59.21,-76.57 -32.330004,-15.424 -68.160004,-25.869 -133.680004,-40.802 -31.32,-6.651 -62.14,-13.355 -93.929996,-17.319 m 180.649996,89.8 c 21.406,-0.456 41.804004,13.585 47.981004,37.715 3.108,12.159 2.153,20.846 -4.062,33.747 -9.08,18.858 -29.160004,29.04 -51.020004,25.471 -15.418,-2.521 -28.754,-12.446 -35.733,-27.538 -8.498,-18.384 -4.546,-42.805 10.181,-56.13 9.645,-8.729 21.437,-13.03 32.65,-13.262 m 11.276,25.512 c -17.08,0 -27.816,12.528 -18.373,21.414 7.659,7.208 20.446,8.283 30.621,3.083 6.589004,-3.368 8.799004,-8.541 7.098004,-15.331 -1.252004,-4.997 -11.030004,-9.166 -19.346004,-9.166"/></g></svg>