<?xml version="1.0" encoding="UTF-8" standalone="no"?>
<svg xmlns="http://www.w3.org/2000/svg" viewBox="0 0 512 512">
 <rect width="512" fill="#8a34a6" rx="25.988" height="512"/>
 <text style="word-spacing:0;letter-spacing:0" font-size="129.23" y="228.1" x="113.14" font-family="&apos;Gentium Book Basic&apos;" line-height="125%">
  <tspan y="228.1" x="113.14"/>
 </text>
 <text style="text-anchor:middle" transform="scale(4.0128.2492)" font-size="46.954" y="566.18" x="225.27" font-family="Arial"/>
 <text style="word-spacing:0;letter-spacing:0" font-size="129.23" y="148.1" x="694.41" font-family="&apos;Gentium Book Basic&apos;" line-height="125%">
  <tspan y="148.1" x="694.41"/>
 </text>
 <text style="text-anchor:middle" transform="scale(4.0128.2492)" font-size="46.954" y="245.15" x="370.12" font-family="Arial"/>
 <text style="word-spacing:0;letter-spacing:0" font-size="129.23" y="-33.16" x="-377.17" font-family="&apos;Gentium Book Basic&apos;" line-height="125%">
  <tspan y="-33.16" x="-377.17"/>
 </text>
 <text style="text-anchor:middle" transform="scale(4.0128.2492)" font-size="46.954" y="-482.21" x="103.08" font-family="Arial"/>
 <text style="word-spacing:0;letter-spacing:0" font-size="129.23" y="-249.63" x="720.88" font-family="&apos;Gentium Book Basic&apos;" line-height="125%">
  <tspan y="-249.63" x="720.88"/>
 </text>
 <text style="text-anchor:middle" transform="scale(4.0128.2492)" font-size="46.954" y="-1350.86" x="376.72" font-family="Arial"/>
 <text style="word-spacing:0;letter-spacing:0" font-size="129.23" y="-329.64" x="1302.15" font-family="&apos;Gentium Book Basic&apos;" line-height="125%">
  <tspan y="-329.64" x="1302.15"/>
 </text>
 <text style="text-anchor:middle" transform="scale(4.0128.2492)" font-size="46.954" y="-1671.9" x="521.57" font-family="Arial"/>
 <text style="word-spacing:0;letter-spacing:0" font-size="129.23" y="-802.04" x="913.03" font-family="&apos;Gentium Book Basic&apos;" line-height="125%">
  <tspan y="-802.04" x="913.03"/>
 </text>
 <text style="text-anchor:middle" transform="scale(4.0128.2492)" font-size="46.954" y="-3567.54" x="424.6" font-family="Arial"/>
 <text style="word-spacing:0;letter-spacing:0" font-size="129.23" y="-882.04" x="1494.29" font-family="&apos;Gentium Book Basic&apos;" line-height="125%">
  <tspan y="-882.04" x="1494.29"/>
 </text>
 <text style="text-anchor:middle" transform="scale(4.0128.2492)" font-size="46.954" y="-3888.57" x="569.45" font-family="Arial"/>
 <text style="word-spacing:0;letter-spacing:0" font-size="208.33" y="532.68" x="-338.51" font-family="&apos;Gentium Book Basic&apos;" line-height="125%">
  <tspan y="532.68" x="-338.51"/>
 </text>
 <g>
  <path opacity=".25" d="m269.31 44.813c-17.533 0.073-35.03 2.415-51.937 6.969l0.002 0.002c-25.856 6.96-50.32 19.1-71.58 35.561l22.361 22.361c-0.001 0.001-0.003 0.001-0.004 0.002l-22.367-22.367c-21.277 16.466-39.36 37.23-52.938 60.781l26.822 26.822c-0.001 0.003-0.003 0.005-0.004 0.008l-26.82-26.82c-11.43 19.835-19.653 41.65-24.281 64.28h-24.404l0.006 0.006v6.307l20.652 20.652c-0.001 0.011-0.003 0.022-0.004 0.033l0.002 0.002h-20.654l0.004 0.004v6.309l20.232 20.23v0.002c0.007 0.161 0.01 0.323 0.018 0.484h-20.25v6.314l20.525 20.525h-20.535l0.01 0.01v6.305l34.1 34.1c10.622 28.22 26.987 54.23 47.84 75.72l4.5 4.5c-0.155-0.151-0.308-0.304-0.463-0.455l-4.045-4.045c0.728 0.75 1.462 1.494 2.199 2.232l100.36 100.36h257.36c14.397 0 25.988-11.591 25.988-25.988v-265.67l-157.25-157.25c-0.02-0.01-0.04-0.02-0.061-0.029-0.009-0.002-0.021 0.001-0.029 0h-0.002c-21.492-9.679-44.51-15.643-67.811-17.564l12.1 12.1h-0.012l-12.1-12.1c-5.832-0.481-11.685-0.711-17.529-0.688h-0.002"/>
  <path d="m269.31 44.813c-17.534 0.073-35.03 2.415-51.938 6.969-25.859 6.96-50.32 19.1-71.59 35.563-21.277 16.466-39.36 37.23-52.938 60.781-11.43 19.835-19.653 41.651-24.281 64.28h-24.406v6.313h23.22c-0.375 2.16-0.721 4.329-1.031 6.5-0.672 4.709-1.17 9.44-1.531 14.188h-20.656v6.313h20.25c-0.326 6.902-0.323 13.808 0 20.719h-20.25v6.313h20.625c0.518 6.875 1.373 13.728 2.531 20.531h-23.16v6.313h24.344c0.507 2.531 1.029 5.05 1.625 7.563v0.094h0.031v0.031c9.125 38.31 28.713 74.08 55.938 102.13 27.2 28.02 61.93 48.24 99.19 57.75 0.032 0.008 0.062 0.023 0.094 0.031l0.313-0.938c-0.021-0.01-0.041-0.022-0.063-0.031-39.477-17.696-73.54-48.22-96.03-86-14.648-24.611-24.342-52.24-28.531-80.62h366.78v-6.313h-367.62c-0.808-6.823-1.273-13.669-1.437-20.531h369.06v-6.313h-369.12c0.022-4.271 0.16-8.553 0.438-12.813 0.172-2.638 0.387-5.279 0.656-7.906h368.03v-6.313h-367.28c0.924-6.962 2.22-13.863 3.813-20.688h363.47v-6.313h-361.91c7.657-28.866 21.2-56.03 39.719-79 27.15-33.678 64.851-58.24 106.22-69.22 33.31-8.796 68.888-8.865 102.47-0.188 0.032 0.008 0.062 0.023 0.094 0.031l0.313-0.938c-0.021-0.01-0.041-0.022-0.063-0.031-0.01-0.002-0.022 0.002-0.031 0-21.492-9.679-44.512-15.641-67.813-17.563-5.833-0.481-11.686-0.712-17.531-0.688" fill="#fff"/>
 </g>
</svg>
