<svg xmlns="http://www.w3.org/2000/svg" viewBox="0 0 512 512"><rect width="512" height="512" rx="25.988" style="fill:#8a34a6"/><text x="113.14" y="228.1" line-height="125%" style="letter-spacing:0;word-spacing:0;font-size:129.23;font-family:&apos;Gentium Book Basic&apos;"><tspan x="113.14" y="228.1"/></text><text x="225.27" y="566.18" transform="scale(4.0128.2492)" style="font-size:46.954;font-family:Arial;text-anchor:middle"/><text x="694.41" y="148.1" line-height="125%" style="letter-spacing:0;word-spacing:0;font-size:129.23;font-family:&apos;Gentium Book Basic&apos;"><tspan x="694.41" y="148.1"/></text><text x="370.12" y="245.15" transform="scale(4.0128.2492)" style="font-size:46.954;font-family:Arial;text-anchor:middle"/><text x="-377.17" y="-33.16" line-height="125%" style="letter-spacing:0;word-spacing:0;font-size:129.23;font-family:&apos;Gentium Book Basic&apos;"><tspan x="-377.17" y="-33.16"/></text><text x="103.08" y="-482.21" transform="scale(4.0128.2492)" style="font-size:46.954;font-family:Arial;text-anchor:middle"/><text x="720.88" y="-249.63" line-height="125%" style="letter-spacing:0;word-spacing:0;font-size:129.23;font-family:&apos;Gentium Book Basic&apos;"><tspan x="720.88" y="-249.63"/></text><text x="376.72" y="-1350.86" transform="scale(4.0128.2492)" style="font-size:46.954;font-family:Arial;text-anchor:middle"/><text x="1302.15" y="-329.64" line-height="125%" style="letter-spacing:0;word-spacing:0;font-size:129.23;font-family:&apos;Gentium Book Basic&apos;"><tspan x="1302.15" y="-329.64"/></text><text x="521.57" y="-1671.9" transform="scale(4.0128.2492)" style="font-size:46.954;font-family:Arial;text-anchor:middle"/><text x="913.03" y="-802.04" line-height="125%" style="letter-spacing:0;word-spacing:0;font-size:129.23;font-family:&apos;Gentium Book Basic&apos;"><tspan x="913.03" y="-802.04"/></text><text x="424.6" y="-3567.54" transform="scale(4.0128.2492)" style="font-size:46.954;font-family:Arial;text-anchor:middle"/><text x="1494.29" y="-882.04" line-height="125%" style="letter-spacing:0;word-spacing:0;font-size:129.23;font-family:&apos;Gentium Book Basic&apos;"><tspan x="1494.29" y="-882.04"/></text><text x="569.45" y="-3888.57" transform="scale(4.0128.2492)" style="font-size:46.954;font-family:Arial;text-anchor:middle"/><text x="-338.51" y="532.68" line-height="125%" style="letter-spacing:0;word-spacing:0;font-size:208.33;font-family:&apos;Gentium Book Basic&apos;"><tspan x="-338.51" y="532.68"/></text><g style="color:#000"><path d="m269.31 44.813c-17.533.073-35.03 2.415-51.937 6.969l.002.002c-25.856 6.96-50.32 19.1-71.58 35.561l22.361 22.361c-.001.001-.003.001-.004.002l-22.367-22.367c-21.277 16.466-39.36 37.23-52.938 60.781l26.822 26.822c-.001.003-.003.005-.004.008l-26.82-26.82c-11.43 19.835-19.653 41.65-24.281 64.28h-24.404l.006.006v6.307l20.652 20.652c-.001.011-.003.022-.004.033l.002.002h-20.654l.004.004v6.309l20.232 20.23v.002c.007.161.01.323.018.484h-20.25v6.314l20.525 20.525h-20.535l.01.01v6.305l34.1 34.1c10.622 28.22 26.987 54.23 47.84 75.72l4.5 4.5c-.155-.151-.308-.304-.463-.455l-4.045-4.045c.728.75 1.462 1.494 2.199 2.232l100.36 100.36h257.36c14.397 0 25.988-11.591 25.988-25.988v-265.67l-157.25-157.25c-.02-.01-.04-.02-.061-.029-.009-.002-.021.001-.029 0h-.002c-21.492-9.679-44.51-15.643-67.811-17.564l12.1 12.1c-.004 0-.008 0-.012 0l-12.1-12.1c-5.832-.481-11.685-.711-17.529-.688h-.002" style="opacity:.25"/><path d="m269.31 44.813c-17.534.073-35.03 2.415-51.938 6.969-25.859 6.96-50.32 19.1-71.59 35.563-21.277 16.466-39.36 37.23-52.938 60.781-11.43 19.835-19.653 41.651-24.281 64.28h-24.406v6.313h23.22c-.375 2.16-.721 4.329-1.031 6.5-.672 4.709-1.17 9.44-1.531 14.188h-20.656v6.313h20.25c-.326 6.902-.323 13.808 0 20.719h-20.25v6.313h20.625c.518 6.875 1.373 13.728 2.531 20.531h-23.16v6.313h24.344c.507 2.531 1.029 5.05 1.625 7.563v.031.063h.031v.031c9.125 38.31 28.713 74.08 55.938 102.13 27.2 28.02 61.93 48.24 99.19 57.75.032.008.062.023.094.031l.313-.938c-.021-.01-.041-.022-.063-.031-39.477-17.696-73.54-48.22-96.03-86-14.648-24.611-24.342-52.24-28.531-80.62h366.78v-6.313h-367.62c-.808-6.823-1.273-13.669-1.437-20.531h369.06v-6.313h-369.12c.022-4.271.16-8.553.438-12.813.172-2.638.387-5.279.656-7.906h368.03v-6.313h-367.28c.924-6.962 2.22-13.863 3.813-20.688h363.47v-6.313h-361.91c7.657-28.866 21.2-56.03 39.719-79 27.15-33.678 64.851-58.24 106.22-69.22 33.31-8.796 68.888-8.865 102.47-.188.032.008.062.023.094.031l.313-.938c-.021-.01-.041-.022-.063-.031-.01-.002-.022.002-.031 0-21.492-9.679-44.512-15.641-67.813-17.563-5.833-.481-11.686-.712-17.531-.688" style="fill:#fff"/></g></svg>