<?xml version="1.0" encoding="UTF-8" standalone="no"?>
<!-- Created with Inkscape (http://www.inkscape.org/) -->
<svg id="svg2" xmlns:rdf="http://www.w3.org/1999/02/22-rdf-syntax-ns#" xmlns="http://www.w3.org/2000/svg" height="100%" width="100%" version="1.1" xmlns:cc="http://creativecommons.org/ns#" viewBox="0 0 512 512" xmlns:dc="http://purl.org/dc/elements/1.1/">
 <metadata id="metadata73">
  <rdf:RDF>
   <cc:Work rdf:about="">
    <dc:format>image/svg+xml</dc:format>
    <dc:type rdf:resource="http://purl.org/dc/dcmitype/StillImage"/>
   </cc:Work>
  </rdf:RDF>
 </metadata>
 <path id="path19" d="m26 0c-14.397 0-26 11.603-26 26v460c0 14.397 11.603 26 26 26h460c14.397 0 26-11.603 26-26v-460c0-14.397-11.6-26-26-26h-460" fill="#4ea92b"/>
 <text id="text21" style="word-spacing:0;letter-spacing:0" font-size="129.23px" line-height="125%" y="82.370003" x="1526.01" font-family="Gentium Book Basic">
  <tspan id="tspan23" y="82.370003" x="1526.01"/>
 </text>
 <text id="text25" style="text-anchor:middle" transform="scale(4.0128 .2492)" font-size="46.954px" y="-18.622999" x="577.35999" font-family="Arial"/>
 <text id="text27" style="word-spacing:0;letter-spacing:0" font-size="129.23px" line-height="125%" y="2.368" x="2107.28" font-family="Gentium Book Basic">
  <tspan id="tspan29" y="2.368" x="2107.28"/>
 </text>
 <text id="text31" style="text-anchor:middle" transform="scale(4.0128 .2492)" font-size="46.954px" y="-339.66" x="722.21002" font-family="Arial"/>
 <text id="text33" style="word-spacing:0;letter-spacing:0" font-size="129.23px" line-height="125%" y="-178.89" x="1035.7" font-family="Gentium Book Basic">
  <tspan id="tspan35" y="-178.89" x="1035.7"/>
 </text>
 <text id="text37" style="text-anchor:middle" transform="scale(4.0128 .2492)" font-size="46.954px" y="-1067.01" x="455.17001" font-family="Arial"/>
 <text id="text39" style="word-spacing:0;letter-spacing:0" font-size="129.23px" line-height="125%" y="-395.35999" x="2133.75" font-family="Gentium Book Basic">
  <tspan id="tspan41" y="-395.35999" x="2133.75"/>
 </text>
 <text id="text43" style="text-anchor:middle" transform="scale(4.0128 .2492)" font-size="46.954px" y="-1935.67" x="728.81" font-family="Arial"/>
 <text id="text45" style="word-spacing:0;letter-spacing:0" font-size="129.23px" line-height="125%" y="-475.35999" x="2715.02" font-family="Gentium Book Basic">
  <tspan id="tspan47" y="-475.35999" x="2715.02"/>
 </text>
 <text id="text49" style="text-anchor:middle" transform="scale(4.0128 .2492)" font-size="46.954px" y="-2256.7" x="873.65997" font-family="Arial"/>
 <text id="text51" style="word-spacing:0;letter-spacing:0" font-size="129.23px" line-height="125%" y="-947.76001" x="2325.8999" font-family="Gentium Book Basic">
  <tspan id="tspan53" y="-947.76001" x="2325.8999"/>
 </text>
 <text id="text55" style="text-anchor:middle" transform="scale(4.0128 .2492)" font-size="46.954px" y="-4152.3398" x="776.69" font-family="Arial"/>
 <text id="text57" style="word-spacing:0;letter-spacing:0" font-size="129.23px" line-height="125%" y="-1027.77" x="2907.1599" font-family="Gentium Book Basic">
  <tspan id="tspan59" y="-1027.77" x="2907.1599"/>
 </text>
 <text id="text61" style="text-anchor:middle" transform="scale(4.0128 .2492)" font-size="46.954px" y="-4473.3799" x="921.53998" font-family="Arial"/>
 <text id="text63" style="word-spacing:0;letter-spacing:0" font-size="208.33px" line-height="125%" y="386.95001" x="1074.36" font-family="Gentium Book Basic">
  <tspan id="tspan65" y="386.95001" x="1074.36"/>
 </text>
 <path id="path67" opacity=".25" d="m102.38 68.09-61.37 99.44 15.25 15.25h-15.25l203.13 261.13 68.09 68.09h173.78c14.397 0 26-11.603 26-26v-315.53l-102.37-102.37-5.91 9.531-9.53-9.531h-122.75l24.906 40.34-40.34-40.34-5.906 9.531-9.531-9.531h-122.75l24.906 40.34-40.34-40.34"/>
 <path id="path69" d="m102.37 68.1-61.37 99.44h122.95l-61.59-99.44m15.453 0 61.37 99.44 61.37-99.44h-122.73m138.18 0-61.37 99.44h122.73l-61.37-99.44m15.453 0 61.37 99.44 61.37-99.44h-122.73m138.18 0-61.59 99.44h122.95l-61.36-99.44m-368.63 114.66 203.12 261.13-72.56-261.13h-130.56m145.79 0 69.21 261.13 69.21-261.13h-138.4m153.63 0-72.56 261.13 203.12-261.13h-130.56" fill="#fff"/>
</svg>
