<?xml version="1.0" encoding="UTF-8" standalone="no"?>
<!-- Created with Inkscape (http://www.inkscape.org/) -->
<svg id="svg2" xmlns:rdf="http://www.w3.org/1999/02/22-rdf-syntax-ns#" xmlns="http://www.w3.org/2000/svg" height="100%" width="100%" version="1.1" xmlns:cc="http://creativecommons.org/ns#" viewBox="0 0 512 512" xmlns:dc="http://purl.org/dc/elements/1.1/">
 <metadata id="metadata62">
  <rdf:RDF>
   <cc:Work rdf:about="">
    <dc:format>image/svg+xml</dc:format>
    <dc:type rdf:resource="http://purl.org/dc/dcmitype/StillImage"/>
   </cc:Work>
  </rdf:RDF>
 </metadata>
 <path id="path4" d="m26 0c-14.397 0-26 11.603-26 26v460c0 14.397 11.603 26 26 26h460c14.397 0 26-11.603 26-26v-460c0-14.397-11.6-26-26-26h-460" fill="#0078ad"/>
 <text id="text6" style="word-spacing:0;letter-spacing:0" font-size="129.23px" line-height="125%" y="91.57" x="-118.51" font-family="Gentium Book Basic">
  <tspan id="tspan8" y="91.57" x="-118.51"/>
 </text>
 <text id="text10" style="text-anchor:middle" transform="scale(4.0128 .2492)" font-size="46.954px" y="18.302999" x="167.55" font-family="Arial"/>
 <text id="text12" style="word-spacing:0;letter-spacing:0" font-size="129.23px" line-height="125%" y="11.572" x="462.76001" font-family="Gentium Book Basic">
  <tspan id="tspan14" y="11.572" x="462.76001"/>
 </text>
 <text id="text16" style="text-anchor:middle" transform="scale(4.0128 .2492)" font-size="46.954px" y="-302.73001" x="312.39999" font-family="Arial"/>
 <text id="text18" style="word-spacing:0;letter-spacing:0" font-size="129.23px" line-height="125%" y="-169.69" x="-608.82001" font-family="Gentium Book Basic">
  <tspan id="tspan20" y="-169.69" x="-608.82001"/>
 </text>
 <text id="text22" style="text-anchor:middle" transform="scale(4.0128 .2492)" font-size="46.954px" y="-1030.08" x="45.360001" font-family="Arial"/>
 <text id="text24" style="word-spacing:0;letter-spacing:0" font-size="129.23px" line-height="125%" y="-386.16" x="489.23001" font-family="Gentium Book Basic">
  <tspan id="tspan26" y="-386.16" x="489.23001"/>
 </text>
 <text id="text28" style="text-anchor:middle" transform="scale(4.0128 .2492)" font-size="46.954px" y="-1898.75" x="319" font-family="Arial"/>
 <text id="text30" style="word-spacing:0;letter-spacing:0" font-size="129.23px" line-height="125%" y="-466.17001" x="1070.5" font-family="Gentium Book Basic">
  <tspan id="tspan32" y="-466.17001" x="1070.5"/>
 </text>
 <text id="text34" style="text-anchor:middle" transform="scale(4.0128 .2492)" font-size="46.954px" y="-2219.79" x="463.85001" font-family="Arial"/>
 <text id="text36" style="word-spacing:0;letter-spacing:0" font-size="129.23px" line-height="125%" y="-938.57001" x="681.38" font-family="Gentium Book Basic">
  <tspan id="tspan38" y="-938.57001" x="681.38"/>
 </text>
 <text id="text40" style="text-anchor:middle" transform="scale(4.0128 .2492)" font-size="46.954px" y="-4115.4399" x="366.88" font-family="Arial"/>
 <text id="text42" style="word-spacing:0;letter-spacing:0" font-size="129.23px" line-height="125%" y="-1018.57" x="1262.64" font-family="Gentium Book Basic">
  <tspan id="tspan44" y="-1018.57" x="1262.64"/>
 </text>
 <text id="text46" style="text-anchor:middle" transform="scale(4.0128 .2492)" font-size="46.954px" y="-4436.46" x="511.73001" font-family="Arial"/>
 <text id="text48" style="word-spacing:0;letter-spacing:0" font-size="208.33px" line-height="125%" y="396.14999" x="-570.15997" font-family="Gentium Book Basic">
  <tspan id="tspan50" y="396.14999" x="-570.15997"/>
 </text>
 <g id="g52" stroke-width="3.18">
  <path id="path54" opacity=".25" d="m60.906 42.594c-10.168 0-18.313 8.144-18.313 18.313v390.19c0 5.14 2.095 9.745 5.469 13.06l47.844 47.844h390.09c14.397 0 26-11.603 26-26v-390.09l-47.69-47.687c-3.328-3.469-7.997-5.625-13.219-5.625h-390.19z" stroke="#000"/>
  <path id="path56" d="m60.912 42.59c-10.168 0-18.322 8.154-18.322 18.322v390.18c0 10.168 8.154 18.322 18.322 18.322h390.18c10.168 0 18.322-8.154 18.322-18.322v-390.18c0-10.168-8.154-18.322-18.322-18.322h-390.18zm44.955 35.593h300.27c7.827 0 14.167 4.581 14.167 10.212v216.06c0 5.631-6.341 10.162-14.167 10.162h-300.27c-7.83 0-14.17-4.53-14.17-10.16v-216.06c0-5.631 6.341-10.212 14.167-10.212zm99.12 29.24c-18.921 0-34.24 15.321-34.24 34.24 0 18.921 15.321 34.29 34.24 34.29 18.921 0 34.29-15.371 34.29-34.29 0-18.921-15.371-34.24-34.29-34.24zm96.32 70.69c-5.59 0.003-11.724 0.87-18.473 2.753-19.18 7.858-58.16 67.56-73.89 53.47-48.815-65.39-81.45-0.948-90.36 51.06h262.47c-24.13-49.1-34.23-107.3-79.75-107.28z" stroke="#fff" fill="#fff"/>
 </g>
</svg>
