<svg xmlns="http://www.w3.org/2000/svg" viewBox="0 0 512 512"><defs><clipPath><rect y="6" x="6" rx="6" height="84" width="84" style="fill:#fff"/></clipPath><clipPath><rect y="6" x="6" rx="6" height="84" width="84" style="fill:#fff"/></clipPath><clipPath><rect y="6" x="6" rx="6" height="84" width="84" style="fill:#fff"/></clipPath><clipPath><rect y="6" x="6" rx="6" height="84" width="84" style="fill:#fff"/></clipPath><clipPath><rect y="6" x="6" rx="6" height="84" width="84" style="fill:#fff"/></clipPath><filter style="color-interpolation-filters:sRGB"><feGaussianBlur stdDeviation="1.71"/></filter><filter height="1.384" width="1.384" y="-.192" x="-.192" style="color-interpolation-filters:sRGB"><feGaussianBlur stdDeviation="5.28"/></filter><linearGradient gradientUnits="userSpaceOnUse" y2="138.66" x2="0" y1="20.221"><stop style="stop-color:#fff"/><stop offset="1" style="stop-color:#fff;stop-opacity:0"/></linearGradient><linearGradient gradientUnits="userSpaceOnUse" gradientTransform="scale(1.0059.99417)" y1="92.54" x2="0" y2="7.02"><stop/><stop offset="1" style="stop-opacity:.588"/></linearGradient></defs><path d="m26 0c-14.397 0-26 11.603-26 26v460c0 14.397 11.603 26 26 26h460c14.397 0 26-11.603 26-26v-460c0-14.397-11.603-26-26-26h-460" style="fill:#b93d48"/><text x="71.72" y="119.19" line-height="125%" style="letter-spacing:0;word-spacing:0;font-size:129.23;font-family:&apos;Gentium Book Basic&apos;"><tspan x="71.72" y="119.19"/></text><text x="214.95" y="129.11" transform="scale(4.0128.2492)" style="font-size:46.954;font-family:Arial;text-anchor:middle"/><text x="652.99" y="39.19" line-height="125%" style="letter-spacing:0;word-spacing:0;font-size:129.23;font-family:&apos;Gentium Book Basic&apos;"><tspan x="652.99" y="39.19"/></text><text x="359.8" y="-191.92" transform="scale(4.0128.2492)" style="font-size:46.954;font-family:Arial;text-anchor:middle"/><text x="-418.59" y="-142.08" line-height="125%" style="letter-spacing:0;word-spacing:0;font-size:129.23;font-family:&apos;Gentium Book Basic&apos;"><tspan x="-418.59" y="-142.08"/></text><text x="92.76" y="-919.28" transform="scale(4.0128.2492)" style="font-size:46.954;font-family:Arial;text-anchor:middle"/><text x="679.46" y="-358.54" line-height="125%" style="letter-spacing:0;word-spacing:0;font-size:129.23;font-family:&apos;Gentium Book Basic&apos;"><tspan x="679.46" y="-358.54"/></text><text x="366.4" y="-1787.93" transform="scale(4.0128.2492)" style="font-size:46.954;font-family:Arial;text-anchor:middle"/><text x="1260.73" y="-438.55" line-height="125%" style="letter-spacing:0;word-spacing:0;font-size:129.23;font-family:&apos;Gentium Book Basic&apos;"><tspan x="1260.73" y="-438.55"/></text><text x="511.25" y="-2108.97" transform="scale(4.0128.2492)" style="font-size:46.954;font-family:Arial;text-anchor:middle"/><text x="871.61" y="-910.95" line-height="125%" style="letter-spacing:0;word-spacing:0;font-size:129.23;font-family:&apos;Gentium Book Basic&apos;"><tspan x="871.61" y="-910.95"/></text><text x="414.28" y="-4004.61" transform="scale(4.0128.2492)" style="font-size:46.954;font-family:Arial;text-anchor:middle"/><text x="1452.87" y="-990.95" line-height="125%" style="letter-spacing:0;word-spacing:0;font-size:129.23;font-family:&apos;Gentium Book Basic&apos;"><tspan x="1452.87" y="-990.95"/></text><text x="559.13" y="-4325.64" transform="scale(4.0128.2492)" style="font-size:46.954;font-family:Arial;text-anchor:middle"/><text x="-379.93" y="423.77" line-height="125%" style="letter-spacing:0;word-spacing:0;font-size:208.33;font-family:&apos;Gentium Book Basic&apos;"><tspan x="-379.93" y="423.77"/></text><path d="m154.57 42.33v51.02l24.25 24.25h-24.25v51.02l.012.012h-.012l24.25 24.25h-24.25v24.19l-24.19-24.19h-89.35v51.02l24.2 24.2h-24.2v51.02l24.25 24.25h-24.26v51.02l.01.01h-.01l24.25 24.25h-24.27v51.02l42.33 42.33h402.67c14.397 0 26-11.603 26-26v-252.12l-41-41h-76.53l-150.55-150.55h-89.35" style="opacity:.25"/><path d="m154.57 42.33v51.02h89.35v-51.02h-89.35m0 75.27v51.02h89.35v-51.02h-89.35m-113.53 75.27v51.02h89.35v-51.02h-89.35m113.53 0v51.02h89.35v-51.02h-89.35m227.08 0v51.02h89.35v-51.02h-89.35m-340.62 75.22v51.02h89.35v-51.02h-89.35m113.53 0v51.02h89.35v-51.02h-89.35m113.53 0v51.02h89.35v-51.02h-89.35m113.53 0v51.02h89.35v-51.02h-89.35m-340.62 75.27v51.02h89.35v-51.02h-89.35m113.53 0v51.02h89.35v-51.02h-89.35m113.53 0v51.02h89.35v-51.02h-89.35m113.53 0v51.02h89.35v-51.02h-89.35m-340.62 75.27v51.02h89.35v-51.02h-89.35m113.53 0v51.02h89.35v-51.02h-89.35m113.53 0v51.02h89.35v-51.02h-89.35m113.53 0v51.02h89.35v-51.02h-89.35" style="fill:#fff"/></svg>