<?xml version="1.0" encoding="UTF-8" standalone="no"?>
<svg xmlns="http://www.w3.org/2000/svg" viewBox="0 0 512 512">
 <path d="m26 0c-14.397 0-26 11.603-26 26v460c0 14.397 11.603 26 26 26h460c14.397 0 26-11.603 26-26v-460c0-14.397-11.603-26-26-26h-460" fill="#b93d48"/>
 <text style="word-spacing:0;letter-spacing:0" font-size="129.23" y="119.19" x="71.72" font-family="&apos;Gentium Book Basic&apos;" line-height="125%">
  <tspan y="119.19" x="71.72"/>
 </text>
 <text style="text-anchor:middle" transform="scale(4.0128.2492)" font-size="46.954" y="129.11" x="214.95" font-family="Arial"/>
 <text style="word-spacing:0;letter-spacing:0" font-size="129.23" y="39.19" x="652.99" font-family="&apos;Gentium Book Basic&apos;" line-height="125%">
  <tspan y="39.19" x="652.99"/>
 </text>
 <text style="text-anchor:middle" transform="scale(4.0128.2492)" font-size="46.954" y="-191.92" x="359.8" font-family="Arial"/>
 <text style="word-spacing:0;letter-spacing:0" font-size="129.23" y="-142.08" x="-418.59" font-family="&apos;Gentium Book Basic&apos;" line-height="125%">
  <tspan y="-142.08" x="-418.59"/>
 </text>
 <text style="text-anchor:middle" transform="scale(4.0128.2492)" font-size="46.954" y="-919.28" x="92.76" font-family="Arial"/>
 <text style="word-spacing:0;letter-spacing:0" font-size="129.23" y="-358.54" x="679.46" font-family="&apos;Gentium Book Basic&apos;" line-height="125%">
  <tspan y="-358.54" x="679.46"/>
 </text>
 <text style="text-anchor:middle" transform="scale(4.0128.2492)" font-size="46.954" y="-1787.93" x="366.4" font-family="Arial"/>
 <text style="word-spacing:0;letter-spacing:0" font-size="129.23" y="-438.55" x="1260.73" font-family="&apos;Gentium Book Basic&apos;" line-height="125%">
  <tspan y="-438.55" x="1260.73"/>
 </text>
 <text style="text-anchor:middle" transform="scale(4.0128.2492)" font-size="46.954" y="-2108.97" x="511.25" font-family="Arial"/>
 <text style="word-spacing:0;letter-spacing:0" font-size="129.23" y="-910.95" x="871.61" font-family="&apos;Gentium Book Basic&apos;" line-height="125%">
  <tspan y="-910.95" x="871.61"/>
 </text>
 <text style="text-anchor:middle" transform="scale(4.0128.2492)" font-size="46.954" y="-4004.61" x="414.28" font-family="Arial"/>
 <text style="word-spacing:0;letter-spacing:0" font-size="129.23" y="-990.95" x="1452.87" font-family="&apos;Gentium Book Basic&apos;" line-height="125%">
  <tspan y="-990.95" x="1452.87"/>
 </text>
 <text style="text-anchor:middle" transform="scale(4.0128.2492)" font-size="46.954" y="-4325.64" x="559.13" font-family="Arial"/>
 <text style="word-spacing:0;letter-spacing:0" font-size="208.33" y="423.77" x="-379.93" font-family="&apos;Gentium Book Basic&apos;" line-height="125%">
  <tspan y="423.77" x="-379.93"/>
 </text>
 <path opacity=".25" d="m154.57 42.33v51.02l24.25 24.25h-24.25v51.02l0.012 0.012h-0.012l24.25 24.25h-24.25v24.19l-24.19-24.19h-89.35v51.02l24.2 24.2h-24.2v51.02l24.25 24.25h-24.26v51.02l0.01 0.01h-0.01l24.25 24.25h-24.27v51.02l42.33 42.33h402.67c14.397 0 26-11.603 26-26v-252.12l-41-41h-76.53l-150.55-150.55h-89.35"/>
 <path d="m154.57 42.33v51.02h89.35v-51.02h-89.35m0 75.27v51.02h89.35v-51.02h-89.35m-113.53 75.27v51.02h89.35v-51.02h-89.35m113.53 0v51.02h89.35v-51.02h-89.35m227.08 0v51.02h89.35v-51.02h-89.35m-340.62 75.22v51.02h89.35v-51.02h-89.35m113.53 0v51.02h89.35v-51.02h-89.35m113.53 0v51.02h89.35v-51.02h-89.35m113.53 0v51.02h89.35v-51.02h-89.35m-340.62 75.27v51.02h89.35v-51.02h-89.35m113.53 0v51.02h89.35v-51.02h-89.35m113.53 0v51.02h89.35v-51.02h-89.35m113.53 0v51.02h89.35v-51.02h-89.35m-340.62 75.27v51.02h89.35v-51.02h-89.35m113.53 0v51.02h89.35v-51.02h-89.35m113.53 0v51.02h89.35v-51.02h-89.35m113.53 0v51.02h89.35v-51.02h-89.35" fill="#fff"/>
</svg>
