<svg xmlns="http://www.w3.org/2000/svg" viewBox="0 0 512 512"><defs><clipPath><rect y="6" x="6" rx="6" height="84" width="84" style="fill:#fff"/></clipPath><clipPath><rect y="6" x="6" rx="6" height="84" width="84" style="fill:#fff"/></clipPath><clipPath><rect y="6" x="6" rx="6" height="84" width="84" style="fill:#fff"/></clipPath><clipPath><rect y="6" x="6" rx="6" height="84" width="84" style="fill:#fff"/></clipPath><clipPath><rect y="6" x="6" rx="6" height="84" width="84" style="fill:#fff"/></clipPath><filter style="color-interpolation-filters:sRGB"><feGaussianBlur stdDeviation="1.71"/></filter><filter height="1.384" width="1.384" y="-.192" x="-.192" style="color-interpolation-filters:sRGB"><feGaussianBlur stdDeviation="5.28"/></filter><linearGradient gradientUnits="userSpaceOnUse" y2="138.66" x2="0" y1="20.221"><stop style="stop-color:#fff"/><stop offset="1" style="stop-color:#fff;stop-opacity:0"/></linearGradient><linearGradient gradientUnits="userSpaceOnUse" gradientTransform="scale(1.0059.99417)" y1="92.54" x2="0" y2="7.02"><stop/><stop offset="1" style="stop-opacity:.588"/></linearGradient></defs><text x="71.72" y="119.19" line-height="125%" style="letter-spacing:0;word-spacing:0;font-size:129.23;font-family:&apos;Gentium Book Basic&apos;"><tspan x="71.72" y="119.19"/></text><text x="214.95" y="129.11" transform="scale(4.0128.2492)" style="font-size:46.954;font-family:Arial;text-anchor:middle"/><text x="652.99" y="39.19" line-height="125%" style="letter-spacing:0;word-spacing:0;font-size:129.23;font-family:&apos;Gentium Book Basic&apos;"><tspan x="652.99" y="39.19"/></text><text x="359.8" y="-191.92" transform="scale(4.0128.2492)" style="font-size:46.954;font-family:Arial;text-anchor:middle"/><text x="-418.59" y="-142.08" line-height="125%" style="letter-spacing:0;word-spacing:0;font-size:129.23;font-family:&apos;Gentium Book Basic&apos;"><tspan x="-418.59" y="-142.08"/></text><text x="92.76" y="-919.28" transform="scale(4.0128.2492)" style="font-size:46.954;font-family:Arial;text-anchor:middle"/><text x="679.46" y="-358.54" line-height="125%" style="letter-spacing:0;word-spacing:0;font-size:129.23;font-family:&apos;Gentium Book Basic&apos;"><tspan x="679.46" y="-358.54"/></text><text x="366.4" y="-1787.93" transform="scale(4.0128.2492)" style="font-size:46.954;font-family:Arial;text-anchor:middle"/><text x="1260.73" y="-438.55" line-height="125%" style="letter-spacing:0;word-spacing:0;font-size:129.23;font-family:&apos;Gentium Book Basic&apos;"><tspan x="1260.73" y="-438.55"/></text><text x="511.25" y="-2108.97" transform="scale(4.0128.2492)" style="font-size:46.954;font-family:Arial;text-anchor:middle"/><text x="871.61" y="-910.95" line-height="125%" style="letter-spacing:0;word-spacing:0;font-size:129.23;font-family:&apos;Gentium Book Basic&apos;"><tspan x="871.61" y="-910.95"/></text><text x="414.28" y="-4004.61" transform="scale(4.0128.2492)" style="font-size:46.954;font-family:Arial;text-anchor:middle"/><text x="1452.87" y="-990.95" line-height="125%" style="letter-spacing:0;word-spacing:0;font-size:129.23;font-family:&apos;Gentium Book Basic&apos;"><tspan x="1452.87" y="-990.95"/></text><text x="559.13" y="-4325.64" transform="scale(4.0128.2492)" style="font-size:46.954;font-family:Arial;text-anchor:middle"/><text x="-379.93" y="423.77" line-height="125%" style="letter-spacing:0;word-spacing:0;font-size:208.33;font-family:&apos;Gentium Book Basic&apos;"><tspan x="-379.93" y="423.77"/></text><rect width="512" height="512" rx="25.988" style="fill:#d30231"/><text x="47.17" y="192.82" line-height="125%" style="letter-spacing:0;word-spacing:0;font-size:129.23;font-family:&apos;Gentium Book Basic&apos;"><tspan x="47.17" y="192.82"/></text><text x="208.84" y="424.59" transform="scale(4.0128.2492)" style="font-size:46.954;font-family:Arial;text-anchor:middle"/><text x="628.44" y="112.82" line-height="125%" style="letter-spacing:0;word-spacing:0;font-size:129.23;font-family:&apos;Gentium Book Basic&apos;"><tspan x="628.44" y="112.82"/></text><text x="353.69" y="103.56" transform="scale(4.0128.2492)" style="font-size:46.954;font-family:Arial;text-anchor:middle"/><text x="-443.14" y="-68.44" line-height="125%" style="letter-spacing:0;word-spacing:0;font-size:129.23;font-family:&apos;Gentium Book Basic&apos;"><tspan x="-443.14" y="-68.44"/></text><text x="86.65" y="-623.79" transform="scale(4.0128.2492)" style="font-size:46.954;font-family:Arial;text-anchor:middle"/><text x="654.91" y="-284.91" line-height="125%" style="letter-spacing:0;word-spacing:0;font-size:129.23;font-family:&apos;Gentium Book Basic&apos;"><tspan x="654.91" y="-284.91"/></text><text x="360.29" y="-1492.45" transform="scale(4.0128.2492)" style="font-size:46.954;font-family:Arial;text-anchor:middle"/><text x="1236.18" y="-364.92" line-height="125%" style="letter-spacing:0;word-spacing:0;font-size:129.23;font-family:&apos;Gentium Book Basic&apos;"><tspan x="1236.18" y="-364.92"/></text><text x="505.13" y="-1813.49" transform="scale(4.0128.2492)" style="font-size:46.954;font-family:Arial;text-anchor:middle"/><text x="847.06" y="-837.32" line-height="125%" style="letter-spacing:0;word-spacing:0;font-size:129.23;font-family:&apos;Gentium Book Basic&apos;"><tspan x="847.06" y="-837.32"/></text><text x="408.16" y="-3709.13" transform="scale(4.0128.2492)" style="font-size:46.954;font-family:Arial;text-anchor:middle"/><text x="1428.32" y="-917.32" line-height="125%" style="letter-spacing:0;word-spacing:0;font-size:129.23;font-family:&apos;Gentium Book Basic&apos;"><tspan x="1428.32" y="-917.32"/></text><text x="553.01" y="-4030.15" transform="scale(4.0128.2492)" style="font-size:46.954;font-family:Arial;text-anchor:middle"/><text x="-404.48" y="497.4" line-height="125%" style="letter-spacing:0;word-spacing:0;font-size:208.33;font-family:&apos;Gentium Book Basic&apos;"><tspan x="-404.48" y="497.4"/></text><path d="m313.97 74.08c-1.301-.041-2.383 1.614-3.678 4.918-7.664 19.544-35.03 54.41-47.629 60.682l78.25 78.25c-.004-.002-.007-.002-.012-.004l-78.24-78.24c-4.394 2.185-8.544 3.17-12.615 2.918l-42.973-42.973-.043-.041-.037-.037c-2.34-2.342-7.893 3.118-45.859 44.797-48.35 53.08-68.07 73.847-97.22 102.47l-.004-.004c-19.448 19.09-24.22 24.419-22.615 26.02l.035.035c-.01-.009-.026-.016-.035-.025l239.15 239.15h205.57c14.397 0 25.988-11.591 25.988-25.988v-214.74l-196.06-196.06-.018-.018c-.723-.723-1.361-1.093-1.953-1.111" style="opacity:.25"/><path d="m228.83 437.21c-.737-.723-4.619-1.608-8.626-1.966-15.199-1.36-33.94-19-81.42-76.67-47.26-57.38-68.948-76.52-96.76-85.33-3.191-1.01.334-5.269 21.882-26.416 29.16-28.631 48.879-49.4 97.23-102.48 38.39-42.14 43.64-47.26 45.937-44.717.889.982 6.69 9.237 12.889 18.343 15.635 22.963 27.776 29.14 42.706 21.71 12.598-6.273 39.967-41.14 47.63-60.684 2.664-6.8 4.426-6.614 9.06.955 6.4 10.454 40.12 52.589 62.22 77.75 11.521 13.12 36.36 38.945 55.2 57.38 18.84 18.446 34.24 34.33 34.23 35.29-.014.967-5.125 3.317-11.355 5.222-27.2 8.322-52.619 29.952-121.47 103.38-53.67 57.23-78.21 76.84-98.58 78.68-5.183.474-10.03.264-10.764-.456m38.695-106.18c13.293-3.842 15.386-5.249 33.26-22.421 18.535-17.796 35.881-40.767 51.38-68.04 7.309-12.861 6.965-17.218-1.49-19.18-3.045-.705-15.245-5.471-27.11-10.589-44.09-19.02-58.27-20.978-78.952-10.93-15.289 7.43-51.05 28.643-62.64 37.16-4.807 3.534-11.733 7.466-15.386 8.738-3.656 1.272-7.08 3.392-7.603 4.71-1.3 3.26 22.09 40.39 33.645 53.4 11.183 12.598 27.04 24.474 37.71 28.24 11.05 3.894 20.936 3.605 37.19-1.093" style="fill:#fff"/></svg>