<svg xmlns="http://www.w3.org/2000/svg" viewBox="0 0 512 512"><defs><clipPath><rect y="6" x="6" rx="6" height="84" width="84" style="fill:#fff"/></clipPath><clipPath><rect y="6" x="6" rx="6" height="84" width="84" style="fill:#fff"/></clipPath><clipPath><rect y="6" x="6" rx="6" height="84" width="84" style="fill:#fff"/></clipPath><clipPath><rect y="6" x="6" rx="6" height="84" width="84" style="fill:#fff"/></clipPath><clipPath><rect y="6" x="6" rx="6" height="84" width="84" style="fill:#fff"/></clipPath><filter style="color-interpolation-filters:sRGB"><feGaussianBlur stdDeviation="1.71"/></filter><filter height="1.384" width="1.384" y="-.192" x="-.192" style="color-interpolation-filters:sRGB"><feGaussianBlur stdDeviation="5.28"/></filter><linearGradient gradientUnits="userSpaceOnUse" y2="138.66" x2="0" y1="20.221"><stop style="stop-color:#fff"/><stop offset="1" style="stop-color:#fff;stop-opacity:0"/></linearGradient><linearGradient gradientUnits="userSpaceOnUse" gradientTransform="scale(1.0059.99417)" y1="92.54" x2="0" y2="7.02"><stop/><stop offset="1" style="stop-opacity:.588"/></linearGradient></defs><text x="71.72" y="119.19" line-height="125%" style="letter-spacing:0;word-spacing:0;font-size:129.23;font-family:&apos;Gentium Book Basic&apos;"><tspan x="71.72" y="119.19"/></text><text x="214.95" y="129.11" transform="scale(4.0128.2492)" style="font-size:46.954;font-family:Arial;text-anchor:middle"/><text x="652.99" y="39.19" line-height="125%" style="letter-spacing:0;word-spacing:0;font-size:129.23;font-family:&apos;Gentium Book Basic&apos;"><tspan x="652.99" y="39.19"/></text><text x="359.8" y="-191.92" transform="scale(4.0128.2492)" style="font-size:46.954;font-family:Arial;text-anchor:middle"/><text x="-418.59" y="-142.08" line-height="125%" style="letter-spacing:0;word-spacing:0;font-size:129.23;font-family:&apos;Gentium Book Basic&apos;"><tspan x="-418.59" y="-142.08"/></text><text x="92.76" y="-919.28" transform="scale(4.0128.2492)" style="font-size:46.954;font-family:Arial;text-anchor:middle"/><text x="679.46" y="-358.54" line-height="125%" style="letter-spacing:0;word-spacing:0;font-size:129.23;font-family:&apos;Gentium Book Basic&apos;"><tspan x="679.46" y="-358.54"/></text><text x="366.4" y="-1787.93" transform="scale(4.0128.2492)" style="font-size:46.954;font-family:Arial;text-anchor:middle"/><text x="1260.73" y="-438.55" line-height="125%" style="letter-spacing:0;word-spacing:0;font-size:129.23;font-family:&apos;Gentium Book Basic&apos;"><tspan x="1260.73" y="-438.55"/></text><text x="511.25" y="-2108.97" transform="scale(4.0128.2492)" style="font-size:46.954;font-family:Arial;text-anchor:middle"/><text x="871.61" y="-910.95" line-height="125%" style="letter-spacing:0;word-spacing:0;font-size:129.23;font-family:&apos;Gentium Book Basic&apos;"><tspan x="871.61" y="-910.95"/></text><text x="414.28" y="-4004.61" transform="scale(4.0128.2492)" style="font-size:46.954;font-family:Arial;text-anchor:middle"/><text x="1452.87" y="-990.95" line-height="125%" style="letter-spacing:0;word-spacing:0;font-size:129.23;font-family:&apos;Gentium Book Basic&apos;"><tspan x="1452.87" y="-990.95"/></text><text x="559.13" y="-4325.64" transform="scale(4.0128.2492)" style="font-size:46.954;font-family:Arial;text-anchor:middle"/><g line-height="125%" style="letter-spacing:0;word-spacing:0;font-family:&apos;Gentium Book Basic&apos;"><text x="-379.93" y="423.77" style="font-size:208.33"><tspan x="-379.93" y="423.77"/></text><text x="47.17" y="192.82" style="font-size:129.23"><tspan x="47.17" y="192.82"/></text></g><text x="208.84" y="424.59" transform="scale(4.0128.2492)" style="font-size:46.954;font-family:Arial;text-anchor:middle"/><text x="628.44" y="112.82" line-height="125%" style="letter-spacing:0;word-spacing:0;font-size:129.23;font-family:&apos;Gentium Book Basic&apos;"><tspan x="628.44" y="112.82"/></text><text x="353.69" y="103.56" transform="scale(4.0128.2492)" style="font-size:46.954;font-family:Arial;text-anchor:middle"/><text x="-443.14" y="-68.44" line-height="125%" style="letter-spacing:0;word-spacing:0;font-size:129.23;font-family:&apos;Gentium Book Basic&apos;"><tspan x="-443.14" y="-68.44"/></text><text x="86.65" y="-623.79" transform="scale(4.0128.2492)" style="font-size:46.954;font-family:Arial;text-anchor:middle"/><text x="654.91" y="-284.91" line-height="125%" style="letter-spacing:0;word-spacing:0;font-size:129.23;font-family:&apos;Gentium Book Basic&apos;"><tspan x="654.91" y="-284.91"/></text><text x="360.29" y="-1492.45" transform="scale(4.0128.2492)" style="font-size:46.954;font-family:Arial;text-anchor:middle"/><text x="1236.18" y="-364.92" line-height="125%" style="letter-spacing:0;word-spacing:0;font-size:129.23;font-family:&apos;Gentium Book Basic&apos;"><tspan x="1236.18" y="-364.92"/></text><text x="505.13" y="-1813.49" transform="scale(4.0128.2492)" style="font-size:46.954;font-family:Arial;text-anchor:middle"/><text x="847.06" y="-837.32" line-height="125%" style="letter-spacing:0;word-spacing:0;font-size:129.23;font-family:&apos;Gentium Book Basic&apos;"><tspan x="847.06" y="-837.32"/></text><text x="408.16" y="-3709.13" transform="scale(4.0128.2492)" style="font-size:46.954;font-family:Arial;text-anchor:middle"/><text x="1428.32" y="-917.32" line-height="125%" style="letter-spacing:0;word-spacing:0;font-size:129.23;font-family:&apos;Gentium Book Basic&apos;"><tspan x="1428.32" y="-917.32"/></text><text x="553.01" y="-4030.15" transform="scale(4.0128.2492)" style="font-size:46.954;font-family:Arial;text-anchor:middle"/><text x="-404.48" y="497.4" line-height="125%" style="letter-spacing:0;word-spacing:0;font-size:208.33;font-family:&apos;Gentium Book Basic&apos;"><tspan x="-404.48" y="497.4"/></text><rect width="512" height="512" rx="25.988" style="fill:#68af4c"/><text x="94.73" y="71.63" line-height="125%" style="letter-spacing:0;word-spacing:0;font-size:129.23;font-family:&apos;Gentium Book Basic&apos;"><tspan x="94.73" y="71.63"/></text><text x="220.69" y="-61.724" transform="scale(4.0128.2492)" style="font-size:46.954;font-family:Arial;text-anchor:middle"/><text x="676" y="-8.371" line-height="125%" style="letter-spacing:0;word-spacing:0;font-size:129.23;font-family:&apos;Gentium Book Basic&apos;"><tspan x="676" y="-8.371"/></text><text x="365.54" y="-382.75" transform="scale(4.0128.2492)" style="font-size:46.954;font-family:Arial;text-anchor:middle"/><text x="-395.58" y="-189.63" line-height="125%" style="letter-spacing:0;word-spacing:0;font-size:129.23;font-family:&apos;Gentium Book Basic&apos;"><tspan x="-395.58" y="-189.63"/></text><text x="98.5" y="-1110.1" transform="scale(4.0128.2492)" style="font-size:46.954;font-family:Arial;text-anchor:middle"/><text x="702.47" y="-406.1" line-height="125%" style="letter-spacing:0;word-spacing:0;font-size:129.23;font-family:&apos;Gentium Book Basic&apos;"><tspan x="702.47" y="-406.1"/></text><text x="372.14" y="-1978.76" transform="scale(4.0128.2492)" style="font-size:46.954;font-family:Arial;text-anchor:middle"/><text x="1283.74" y="-486.11" line-height="125%" style="letter-spacing:0;word-spacing:0;font-size:129.23;font-family:&apos;Gentium Book Basic&apos;"><tspan x="1283.74" y="-486.11"/></text><text x="516.99" y="-2299.8" transform="scale(4.0128.2492)" style="font-size:46.954;font-family:Arial;text-anchor:middle"/><text x="894.62" y="-958.51" line-height="125%" style="letter-spacing:0;word-spacing:0;font-size:129.23;font-family:&apos;Gentium Book Basic&apos;"><tspan x="894.62" y="-958.51"/></text><text x="420.02" y="-4195.44" transform="scale(4.0128.2492)" style="font-size:46.954;font-family:Arial;text-anchor:middle"/><text x="1475.88" y="-1038.51" line-height="125%" style="letter-spacing:0;word-spacing:0;font-size:129.23;font-family:&apos;Gentium Book Basic&apos;"><tspan x="1475.88" y="-1038.51"/></text><text x="564.87" y="-4516.47" transform="scale(4.0128.2492)" style="font-size:46.954;font-family:Arial;text-anchor:middle"/><text x="-356.92" y="376.21" line-height="125%" style="letter-spacing:0;word-spacing:0;font-size:208.33;font-family:&apos;Gentium Book Basic&apos;"><tspan x="-356.92" y="376.21"/></text><path d="m230.33 41.01c-.808-.014-1.522-.004-2.133.031-7.752.44-16.753 2.846-22.656 8.285l-.004-.004c-.767.704-1.491 1.482-2.193 2.303l-9.04-9.04c-.003 0-.005.002-.008.002l-.002-.002-.002.002c-.146-.005-.303.031-.473.141l.191.191-.004.002-.193-.193-88.83 56.21.004.004c-.16.083-.279.21-.354.352-.005.001-.007.001-.012.002l.006.006-.002.002 9.938 9.938c-.532.086-1.061.175-1.568.283l267.84 267.84-.002.002-267.84-267.84c-5.152 1.096-9.101 3.231-12.361 6.06-6.489 5.621-9.171 13.718-10.998 22.18 0 0-1.437 6.929-2.686 20.672l141.3 141.3-.002.002-141.3-141.3c-.871 10.655-5.394 85.44.508 109.76l.002.002c1.784 7.397 3.387 11.558 7.504 15.674l.186.186c-.062-.06-.129-.121-.189-.182l112.56 112.56c-.036.163-.075.312-.111.477l.01.01c-4.963 22.72-3.409 36.975 6.727 47.11l.078.078c-.027-.027-.057-.051-.084-.078l67.971 67.971h203.91c14.397 0 25.988-11.591 25.988-25.988v-263.92l-94.22-94.22c-1.75-1.75-3.613-3.2-5.486-4.373l9.832 9.832c.005.007.009.014.014.021l-9.85-9.85c-8.543-5.362-26.578-12.927-49.6-20.859l-.01-.01c-10.792-3.719-22.858-6.846-33.766-9.326l-30.06-30.06c-1.064-1.064-2.193-2.01-3.375-2.811l6.375 6.375.01.014-6.389-6.389c-19.847-13.468-53.02-19.215-65.14-19.422" style="opacity:.25"/><path d="m133.18 98.91c0 0 0 0 .025.006l37.605 8.214c2.155.47 4.27-.899 4.739-3.03.004-.014 6.558-32.21 8.507-41.14l.024-.106c1.601-7.332 4.542-13.386 8.403-18.16l1.811-2.124c-.149-.008-.309.031-.483.143l-88.83 56.21c-.168.085-.291.218-.366.366 1.674-.415 3.962-.982 4.282-1.046 6.984-1.469 15.04-1.352 24.281.665m294.33 56.05c.491-16.578-7.301-26.503-15.221-31.467-8.544-5.363-26.586-12.929-49.613-20.863-18.52-6.382-40.899-11.08-54.48-13.615.793-11.403-4.783-23.2-12.726-28.593-21.17-14.366-57.5-19.947-67.27-19.39-7.756.438-16.764 2.842-22.67 8.286-3.959 3.634-7.115 8.708-8.809 16.39-.95 4.349-3.066 14.622-4.943 23.748-1.884 9.156-3.548 17.35-3.56 17.406-1.779 8.129-9.836 13.302-18.04 11.521l-37.605-8.215c-8.02-1.753-14.445-1.749-19.588-.652-5.153 1.096-9.1 3.23-12.361 6.06-6.49 5.621-9.172 13.718-10.999 22.18 0 0-1.436 6.928-2.685 20.671-.871 10.655-5.394 85.44.508 109.76 2.282 9.463 4.268 13.631 11.599 19.18 16.476 11.716 56.09 29.397 75.01 36.12 18.875 6.715 29.925 14.577 40.499.998.032-.033 2.279-3.456 5.442-8.506 10.461-17.652 15.03-34.35 17.695-46.563.271-1.242 2.115-.9 1.831.399-1.884 8.626-10.206 38.79 11.158 52.03 8.431 5.224 26.766 12.244 45.538 18.7 16.983 5.799 28.13 15.387 18.412 59.892-5.914 27.08-12.436 29.546-42.29 23.02-24.2-5.285-33.556-6.677-29.383-25.825 3.381-15.477 18.395-10.498 29.785-8.01 5.088 1.112 2.218-3.464 4.304-13.01 2.074-9.498 9.238-13.687 3.627-15.06-39.15-9.682-62.55-13.709-73.27 35.35-9.727 44.533 5.579 56.55 61.48 68.755 43.828 9.573 59.59 11.518 89.9-40.457 5.993-10.258 22.01-42.06 39.611-97.48 11.127-35.05 28.27-144.41 29.12-172.78m-102.46 102.64c-5.373-1.37-10.655-2.168-15.682-2.451 3.769-10.696 11.27-23.19 27.29-19.1 17.734 4.515 16.563 21.881 14.14 33.29-6.803-4.992-15.664-9.16-25.745-11.735" style="fill:#fff"/></svg>