<svg xmlns="http://www.w3.org/2000/svg" xmlns:svg="http://www.w3.org/2000/svg" id="svg2" width="100%" height="100%" version="1.1" viewBox="0 0 512 512"><metadata id="metadata66"/><path style="fill:#abcc59" id="path10" d="M 26,0 C 11.603,0 0,11.603 0,26 l 0,460 c 0,14.397 11.603,26 26,26 l 460,0 c 14.397,0 26,-11.603 26,-26 L 512,26 C 512,11.603 500.4,0 486,0 L 26,0"/><g style="fill-rule:evenodd" id="g58"><path style="opacity:.25" id="path60" d="m 92.31,41 c -3.037,0.087 -5.457,0.639 -7.219,1.656 -36.22,20.91 -36.93,390.23 -2.156,425 l 44.34,44.34 358.72,0 c 14.397,0 26,-11.603 26,-26 l 0,-180.56 -72.5,-72.5 c -61.83,-61.83 -294.7,-193.44 -347.2,-191.94 m 215.97,215.94 c 0.434,-0.013 0.885,-0.006 1.344,0 19.476,0.24 60.868,16.777 108.91,40.656 -34.15,27.611 -88.24,62.59 -143.16,93.88 3.647,-69.07 12.182,-125.09 25.656,-132.87 1.761,-1.017 4.209,-1.567 7.25,-1.656"/><path style="fill:#fff" id="path62" d="m 85.09,42.65 c -36.951,21.335 -36.951,405.38 0,426.7 C 122.04,490.68 454.62,298.67 454.62,256 454.62,213.33 122.04,21.31 85.09,42.65"/></g></svg>