<?xml version="1.0" encoding="UTF-8" standalone="no"?>
<!-- Created with Inkscape (http://www.inkscape.org/) -->
<svg id="svg2" xmlns:rdf="http://www.w3.org/1999/02/22-rdf-syntax-ns#" xmlns="http://www.w3.org/2000/svg" height="100%" width="100%" version="1.1" xmlns:cc="http://creativecommons.org/ns#" viewBox="0 0 512 512" xmlns:dc="http://purl.org/dc/elements/1.1/">
 <metadata id="metadata66">
  <rdf:RDF>
   <cc:Work rdf:about="">
    <dc:format>image/svg+xml</dc:format>
    <dc:type rdf:resource="http://purl.org/dc/dcmitype/StillImage"/>
   </cc:Work>
  </rdf:RDF>
 </metadata>
 <path id="path10" d="m26 0c-14.397 0-26 11.603-26 26v460c0 14.397 11.603 26 26 26h460c14.397 0 26-11.603 26-26v-460c0-14.397-11.6-26-26-26h-460" fill="#abcc59"/>
 <text id="text12" style="word-spacing:0;letter-spacing:0" font-size="129.23px" line-height="125%" y="150.63" x="-81.690002" font-family="Gentium Book Basic">
  <tspan id="tspan14" y="150.63" x="-81.690002"/>
 </text>
 <text id="text16" style="text-anchor:middle" transform="scale(4.0128 .2492)" font-size="46.954px" y="255.32001" x="176.72" font-family="Arial"/>
 <text id="text18" style="word-spacing:0;letter-spacing:0" font-size="129.23px" line-height="125%" y="70.629997" x="499.57999" font-family="Gentium Book Basic">
  <tspan id="tspan20" y="70.629997" x="499.57999"/>
 </text>
 <text id="text22" style="text-anchor:middle" transform="scale(4.0128 .2492)" font-size="46.954px" y="-65.716003" x="321.57001" font-family="Arial"/>
 <text id="text24" style="word-spacing:0;letter-spacing:0" font-size="129.23px" line-height="125%" y="-110.63" x="-572" font-family="Gentium Book Basic">
  <tspan id="tspan26" y="-110.63" x="-572"/>
 </text>
 <text id="text28" style="text-anchor:middle" transform="scale(4.0128 .2492)" font-size="46.954px" y="-793.06" x="54.529999" font-family="Arial"/>
 <text id="text30" style="word-spacing:0;letter-spacing:0" font-size="129.23px" line-height="125%" y="-327.10001" x="526.04999" font-family="Gentium Book Basic">
  <tspan id="tspan32" y="-327.10001" x="526.04999"/>
 </text>
 <text id="text34" style="text-anchor:middle" transform="scale(4.0128 .2492)" font-size="46.954px" y="-1661.73" x="328.17001" font-family="Arial"/>
 <text id="text36" style="word-spacing:0;letter-spacing:0" font-size="129.23px" line-height="125%" y="-407.10001" x="1107.3199" font-family="Gentium Book Basic">
  <tspan id="tspan38" y="-407.10001" x="1107.3199"/>
 </text>
 <text id="text40" style="text-anchor:middle" transform="scale(4.0128 .2492)" font-size="46.954px" y="-1982.76" x="473.01999" font-family="Arial"/>
 <text id="text42" style="word-spacing:0;letter-spacing:0" font-size="129.23px" line-height="125%" y="-879.5" x="718.20001" font-family="Gentium Book Basic">
  <tspan id="tspan44" y="-879.5" x="718.20001"/>
 </text>
 <text id="text46" style="text-anchor:middle" transform="scale(4.0128 .2492)" font-size="46.954px" y="-3878.3999" x="376.04999" font-family="Arial"/>
 <text id="text48" style="word-spacing:0;letter-spacing:0" font-size="129.23px" line-height="125%" y="-959.51001" x="1299.46" font-family="Gentium Book Basic">
  <tspan id="tspan50" y="-959.51001" x="1299.46"/>
 </text>
 <text id="text52" style="text-anchor:middle" transform="scale(4.0128 .2492)" font-size="46.954px" y="-4199.4399" x="520.90002" font-family="Arial"/>
 <text id="text54" style="word-spacing:0;letter-spacing:0" font-size="208.33px" line-height="125%" y="455.20999" x="-533.34003" font-family="Gentium Book Basic">
  <tspan id="tspan56" y="455.20999" x="-533.34003"/>
 </text>
 <g id="g58" fill-rule="evenodd">
  <path id="path60" opacity=".25" d="m92.31 41c-3.037 0.087-5.457 0.639-7.219 1.656-36.22 20.91-36.93 390.23-2.156 425l44.34 44.34h358.72c14.397 0 26-11.603 26-26v-180.56l-72.5-72.5c-61.83-61.83-294.7-193.44-347.2-191.94m215.97 215.94c0.434-0.013 0.885-0.006 1.344 0 19.476 0.24 60.868 16.777 108.91 40.656-34.15 27.611-88.24 62.59-143.16 93.88 3.647-69.07 12.182-125.09 25.656-132.87 1.761-1.017 4.209-1.567 7.25-1.656"/>
  <path id="path62" d="m85.09 42.65c-36.951 21.335-36.951 405.38 0 426.7 36.95 21.33 369.53-170.68 369.53-213.35s-332.58-234.69-369.53-213.35" fill="#fff"/>
 </g>
</svg>
