<svg xmlns="http://www.w3.org/2000/svg" viewBox="0 0 512 512"><rect width="512" height="512" rx="25.988" style="fill:#3266b6"/><text x="162.34" y="231.65" line-height="125%" style="letter-spacing:0;word-spacing:0;font-size:129.23;font-family:Gentium Book Basic"><tspan x="162.34" y="231.65"/></text><text x="237.54" y="580.43" transform="scale(4.0128.2492)" style="font-size:46.954;font-family:Arial;text-anchor:middle"/><text x="743.61" y="151.65" line-height="125%" style="letter-spacing:0;word-spacing:0;font-size:129.23;font-family:Gentium Book Basic"><tspan x="743.61" y="151.65"/></text><text x="382.39" y="259.4" transform="scale(4.0128.2492)" style="font-size:46.954;font-family:Arial;text-anchor:middle"/><text x="-327.97" y="-29.607" line-height="125%" style="letter-spacing:0;word-spacing:0;font-size:129.23;font-family:Gentium Book Basic"><tspan x="-327.97" y="-29.607"/></text><text x="115.35" y="-467.96" transform="scale(4.0128.2492)" style="font-size:46.954;font-family:Arial;text-anchor:middle"/><text x="770.08" y="-246.08" line-height="125%" style="letter-spacing:0;word-spacing:0;font-size:129.23;font-family:Gentium Book Basic"><tspan x="770.08" y="-246.08"/></text><text x="388.99" y="-1336.62" transform="scale(4.0128.2492)" style="font-size:46.954;font-family:Arial;text-anchor:middle"/><text x="1351.35" y="-326.09" line-height="125%" style="letter-spacing:0;word-spacing:0;font-size:129.23;font-family:Gentium Book Basic"><tspan x="1351.35" y="-326.09"/></text><text x="533.84" y="-1657.66" transform="scale(4.0128.2492)" style="font-size:46.954;font-family:Arial;text-anchor:middle"/><text x="962.23" y="-798.49" line-height="125%" style="letter-spacing:0;word-spacing:0;font-size:129.23;font-family:Gentium Book Basic"><tspan x="962.23" y="-798.49"/></text><text x="436.87" y="-3553.31" transform="scale(4.0128.2492)" style="font-size:46.954;font-family:Arial;text-anchor:middle"/><text x="1543.49" y="-878.49" line-height="125%" style="letter-spacing:0;word-spacing:0;font-size:129.23;font-family:Gentium Book Basic"><tspan x="1543.49" y="-878.49"/></text><text x="581.72" y="-3874.34" transform="scale(4.0128.2492)" style="font-size:46.954;font-family:Arial;text-anchor:middle"/><text x="-289.31" y="536.23" line-height="125%" style="letter-spacing:0;word-spacing:0;font-size:208.33;font-family:Gentium Book Basic"><tspan x="-289.31" y="536.23"/></text><path d="m300.77 41c-75.59.003-102.2 38.06-102.2 102.06v43.38l310.87 310.87c1.642-3.413 2.561-7.245 2.561-11.299v-296.73l-148.28-148.28h-62.951m-152.94 145.43v82.19l50.74 50.74v151.64l41 41h246.44c10.342 0 19.236-5.98 23.426-14.686l-310.87-310.87h-50.725l-.01-.01" style="opacity:.25"/><path d="m292.9 471h-94.33v-202.38h-50.734v-82.19h50.734v-43.38c0-64 26.608-102.06 102.21-102.06h62.951v78.47h-39.35c-29.439 0-31.375 10.963-31.375 31.431l-.116 35.541h71.28l-8.34 82.19h-62.941z" style="fill:#fff"/></svg>