<?xml version="1.0" encoding="UTF-8" standalone="no"?>
<svg xmlns="http://www.w3.org/2000/svg" viewBox="0 0 512 512">
 <rect width="512" fill="#3266b6" rx="25.988" height="512"/>
 <text style="word-spacing:0;letter-spacing:0" font-size="129.23" y="231.65" x="162.34" font-family="Gentium Book Basic" line-height="125%">
  <tspan y="231.65" x="162.34"/>
 </text>
 <text style="text-anchor:middle" transform="scale(4.0128.2492)" font-size="46.954" y="580.43" x="237.54" font-family="Arial"/>
 <text style="word-spacing:0;letter-spacing:0" font-size="129.23" y="151.65" x="743.61" font-family="Gentium Book Basic" line-height="125%">
  <tspan y="151.65" x="743.61"/>
 </text>
 <text style="text-anchor:middle" transform="scale(4.0128.2492)" font-size="46.954" y="259.4" x="382.39" font-family="Arial"/>
 <text style="word-spacing:0;letter-spacing:0" font-size="129.23" y="-29.607" x="-327.97" font-family="Gentium Book Basic" line-height="125%">
  <tspan y="-29.607" x="-327.97"/>
 </text>
 <text style="text-anchor:middle" transform="scale(4.0128.2492)" font-size="46.954" y="-467.96" x="115.35" font-family="Arial"/>
 <text style="word-spacing:0;letter-spacing:0" font-size="129.23" y="-246.08" x="770.08" font-family="Gentium Book Basic" line-height="125%">
  <tspan y="-246.08" x="770.08"/>
 </text>
 <text style="text-anchor:middle" transform="scale(4.0128.2492)" font-size="46.954" y="-1336.62" x="388.99" font-family="Arial"/>
 <text style="word-spacing:0;letter-spacing:0" font-size="129.23" y="-326.09" x="1351.35" font-family="Gentium Book Basic" line-height="125%">
  <tspan y="-326.09" x="1351.35"/>
 </text>
 <text style="text-anchor:middle" transform="scale(4.0128.2492)" font-size="46.954" y="-1657.66" x="533.84" font-family="Arial"/>
 <text style="word-spacing:0;letter-spacing:0" font-size="129.23" y="-798.49" x="962.23" font-family="Gentium Book Basic" line-height="125%">
  <tspan y="-798.49" x="962.23"/>
 </text>
 <text style="text-anchor:middle" transform="scale(4.0128.2492)" font-size="46.954" y="-3553.31" x="436.87" font-family="Arial"/>
 <text style="word-spacing:0;letter-spacing:0" font-size="129.23" y="-878.49" x="1543.49" font-family="Gentium Book Basic" line-height="125%">
  <tspan y="-878.49" x="1543.49"/>
 </text>
 <text style="text-anchor:middle" transform="scale(4.0128.2492)" font-size="46.954" y="-3874.34" x="581.72" font-family="Arial"/>
 <text style="word-spacing:0;letter-spacing:0" font-size="208.33" y="536.23" x="-289.31" font-family="Gentium Book Basic" line-height="125%">
  <tspan y="536.23" x="-289.31"/>
 </text>
 <path opacity=".25" d="m300.77 41c-75.59 0.003-102.2 38.06-102.2 102.06v43.38l310.87 310.87c1.642-3.413 2.561-7.245 2.561-11.299v-296.73l-148.28-148.28h-62.951m-152.94 145.43v82.19l50.74 50.74v151.64l41 41h246.44c10.342 0 19.236-5.98 23.426-14.686l-310.87-310.87h-50.725l-0.01-0.01"/>
 <path d="m292.9 471h-94.33v-202.38h-50.734v-82.19h50.734v-43.38c0-64 26.608-102.06 102.21-102.06h62.951v78.47h-39.35c-29.439 0-31.375 10.963-31.375 31.431l-0.116 35.541h71.28l-8.34 82.19h-62.941z" fill="#fff"/>
</svg>
