<?xml version="1.0" encoding="UTF-8" standalone="no"?>
<!-- Created with Inkscape (http://www.inkscape.org/) -->
<svg id="svg2" xmlns:rdf="http://www.w3.org/1999/02/22-rdf-syntax-ns#" xmlns="http://www.w3.org/2000/svg" height="100%" width="100%" version="1.1" xmlns:cc="http://creativecommons.org/ns#" viewBox="0 0 512 512" xmlns:dc="http://purl.org/dc/elements/1.1/">
 <metadata id="metadata168">
  <rdf:RDF>
   <cc:Work rdf:about="">
    <dc:format>image/svg+xml</dc:format>
    <dc:type rdf:resource="http://purl.org/dc/dcmitype/StillImage"/>
   </cc:Work>
  </rdf:RDF>
 </metadata>
 <text id="text14" style="word-spacing:0;letter-spacing:0" font-size="129.23px" line-height="125%" y="231.36" x="729.64001" font-family="Gentium Book Basic">
  <tspan id="tspan16" y="231.36" x="729.64001"/>
 </text>
 <text id="text18" style="text-anchor:middle" transform="scale(4.0128 .2492)" font-size="46.954px" y="579.25" x="378.91" font-family="Arial"/>
 <text id="text20" style="word-spacing:0;letter-spacing:0" font-size="129.23px" line-height="125%" y="151.36" x="1310.91" font-family="Gentium Book Basic">
  <tspan id="tspan22" y="151.36" x="1310.91"/>
 </text>
 <text id="text24" style="text-anchor:middle" transform="scale(4.0128 .2492)" font-size="46.954px" y="258.22" x="523.76001" font-family="Arial"/>
 <text id="text26" style="word-spacing:0;letter-spacing:0" font-size="129.23px" line-height="125%" y="-29.900999" x="239.33" font-family="Gentium Book Basic">
  <tspan id="tspan28" y="-29.900999" x="239.33"/>
 </text>
 <text id="text30" style="text-anchor:middle" transform="scale(4.0128 .2492)" font-size="46.954px" y="-469.14001" x="256.72" font-family="Arial"/>
 <text id="text32" style="word-spacing:0;letter-spacing:0" font-size="129.23px" line-height="125%" y="-246.37" x="1337.38" font-family="Gentium Book Basic">
  <tspan id="tspan34" y="-246.37" x="1337.38"/>
 </text>
 <text id="text36" style="text-anchor:middle" transform="scale(4.0128 .2492)" font-size="46.954px" y="-1337.8" x="530.35999" font-family="Arial"/>
 <text id="text38" style="word-spacing:0;letter-spacing:0" font-size="129.23px" line-height="125%" y="-326.38" x="1918.65" font-family="Gentium Book Basic">
  <tspan id="tspan40" y="-326.38" x="1918.65"/>
 </text>
 <text id="text42" style="text-anchor:middle" transform="scale(4.0128 .2492)" font-size="46.954px" y="-1658.84" x="675.21002" font-family="Arial"/>
 <text id="text44" style="word-spacing:0;letter-spacing:0" font-size="129.23px" line-height="125%" y="-798.78003" x="1529.53" font-family="Gentium Book Basic">
  <tspan id="tspan46" y="-798.78003" x="1529.53"/>
 </text>
 <text id="text48" style="text-anchor:middle" transform="scale(4.0128 .2492)" font-size="46.954px" y="-3554.49" x="578.23999" font-family="Arial"/>
 <text id="text50" style="word-spacing:0;letter-spacing:0" font-size="129.23px" line-height="125%" y="-878.78003" x="2110.79" font-family="Gentium Book Basic">
  <tspan id="tspan52" y="-878.78003" x="2110.79"/>
 </text>
 <text id="text54" style="text-anchor:middle" transform="scale(4.0128 .2492)" font-size="46.954px" y="-3875.52" x="723.09003" font-family="Arial"/>
 <text id="text56" style="word-spacing:0;letter-spacing:0" font-size="208.33px" line-height="125%" y="535.94" x="277.98999" font-family="Gentium Book Basic" fill="#ffffff">
  <tspan id="tspan58" y="535.94" x="277.98999"/>
 </text>
 <rect id="rect60" rx="25.988" height="512" width="512" y="-.003" x="0" fill="#5480bf"/>
 <g id="g62" fill-rule="evenodd">
  <path id="path64" d="m26-0.003c-14.397 0-26 11.603-26 26v460c0 14.397 11.603 26 26 26h21.781v-512h-21.781" fill="#366378"/>
  <path id="path66" d="m47.781-0.003v512h40v-512h-40" fill="#036"/>
 </g>
 <text id="text68" style="word-spacing:0;letter-spacing:0" font-size="129.23px" line-height="125%" y="271.06" x="171.42999" font-family="Gentium Book Basic">
  <tspan id="tspan70" y="271.06" x="171.42999"/>
 </text>
 <text id="text72" style="text-anchor:middle" transform="scale(4.0128 .2492)" font-size="46.954px" y="738.52002" x="239.8" font-family="Arial"/>
 <text id="text74" style="word-spacing:0;letter-spacing:0" font-size="129.23px" line-height="125%" y="191.06" x="752.70001" font-family="Gentium Book Basic">
  <tspan id="tspan76" y="191.06" x="752.70001"/>
 </text>
 <text id="text78" style="text-anchor:middle" transform="scale(4.0128 .2492)" font-size="46.954px" y="417.51001" x="384.64999" font-family="Arial"/>
 <text id="text80" style="word-spacing:0;letter-spacing:0" font-size="129.23px" line-height="125%" y="9.7930002" x="-318.88" font-family="Gentium Book Basic">
  <tspan id="tspan82" y="9.7930002" x="-318.88"/>
 </text>
 <text id="text84" style="text-anchor:middle" transform="scale(4.0128 .2492)" font-size="46.954px" y="-309.85001" x="117.61" font-family="Arial"/>
 <text id="text86" style="word-spacing:0;letter-spacing:0" font-size="129.23px" line-height="125%" y="-206.67" x="779.16998" font-family="Gentium Book Basic">
  <tspan id="tspan88" y="-206.67" x="779.16998"/>
 </text>
 <text id="text90" style="text-anchor:middle" transform="scale(4.0128 .2492)" font-size="46.954px" y="-1178.52" x="391.25" font-family="Arial"/>
 <text id="text92" style="word-spacing:0;letter-spacing:0" font-size="129.23px" line-height="125%" y="-286.67999" x="1360.4399" font-family="Gentium Book Basic">
  <tspan id="tspan94" y="-286.67999" x="1360.4399"/>
 </text>
 <text id="text96" style="text-anchor:middle" transform="scale(4.0128 .2492)" font-size="46.954px" y="-1499.54" x="536.09998" font-family="Arial"/>
 <text id="text98" style="word-spacing:0;letter-spacing:0" font-size="129.23px" line-height="125%" y="-759.08002" x="971.32001" font-family="Gentium Book Basic">
  <tspan id="tspan100" y="-759.08002" x="971.32001"/>
 </text>
 <text id="text102" style="text-anchor:middle" transform="scale(4.0128 .2492)" font-size="46.954px" y="-3395.1799" x="439.13" font-family="Arial"/>
 <text id="text104" style="word-spacing:0;letter-spacing:0" font-size="129.23px" line-height="125%" y="-839.08002" x="1552.58" font-family="Gentium Book Basic">
  <tspan id="tspan106" y="-839.08002" x="1552.58"/>
 </text>
 <text id="text108" style="text-anchor:middle" transform="scale(4.0128 .2492)" font-size="46.954px" y="-3716.21" x="583.97998" font-family="Arial"/>
 <g id="g110" style="word-spacing:0;letter-spacing:0" font-family="Gentium Book Basic" line-height="125%">
  <text id="text112" y="575.64001" x="-280.22" font-size="208.33px">
   <tspan id="tspan114" y="575.64001" x="-280.22"/>
  </text>
  <text id="text116" y="187.97" x="-101.28" font-size="129.23px">
   <tspan id="tspan118" y="187.97" x="-101.28"/>
  </text>
 </g>
 <text id="text120" style="text-anchor:middle" transform="scale(4.0128 .2492)" font-size="46.954px" y="405.13" x="171.84" font-family="Arial"/>
 <text id="text122" style="word-spacing:0;letter-spacing:0" font-size="129.23px" line-height="125%" y="107.97" x="479.98999" font-family="Gentium Book Basic">
  <tspan id="tspan124" y="107.97" x="479.98999"/>
 </text>
 <text id="text126" style="text-anchor:middle" transform="scale(4.0128 .2492)" font-size="46.954px" y="84.099998" x="316.69" font-family="Arial"/>
 <text id="text128" style="word-spacing:0;letter-spacing:0" font-size="129.23px" line-height="125%" y="-73.290001" x="-591.59003" font-family="Gentium Book Basic">
  <tspan id="tspan130" y="-73.290001" x="-591.59003"/>
 </text>
 <text id="text132" style="text-anchor:middle" transform="scale(4.0128 .2492)" font-size="46.954px" y="-643.25" x="49.653999" font-family="Arial"/>
 <text id="text134" style="word-spacing:0;letter-spacing:0" font-size="129.23px" line-height="125%" y="-289.76001" x="506.45999" font-family="Gentium Book Basic">
  <tspan id="tspan136" y="-289.76001" x="506.45999"/>
 </text>
 <text id="text138" style="text-anchor:middle" transform="scale(4.0128 .2492)" font-size="46.954px" y="-1511.91" x="323.29001" font-family="Arial"/>
 <text id="text140" style="word-spacing:0;letter-spacing:0" font-size="129.23px" line-height="125%" y="-369.76999" x="1087.73" font-family="Gentium Book Basic">
  <tspan id="tspan142" y="-369.76999" x="1087.73"/>
 </text>
 <text id="text144" style="text-anchor:middle" transform="scale(4.0128 .2492)" font-size="46.954px" y="-1832.95" x="468.14001" font-family="Arial"/>
 <text id="text146" style="word-spacing:0;letter-spacing:0" font-size="129.23px" line-height="125%" y="-842.16998" x="698.60999" font-family="Gentium Book Basic">
  <tspan id="tspan148" y="-842.16998" x="698.60999"/>
 </text>
 <text id="text150" style="text-anchor:middle" transform="scale(4.0128 .2492)" font-size="46.954px" y="-3728.5901" x="371.17001" font-family="Arial"/>
 <text id="text152" style="word-spacing:0;letter-spacing:0" font-size="129.23px" line-height="125%" y="-922.16998" x="1279.87" font-family="Gentium Book Basic">
  <tspan id="tspan154" y="-922.16998" x="1279.87"/>
 </text>
 <text id="text156" style="text-anchor:middle" transform="scale(4.0128 .2492)" font-size="46.954px" y="-4049.6201" x="516.02002" font-family="Arial"/>
 <text id="text158" style="word-spacing:0;letter-spacing:0" font-size="208.33px" line-height="125%" y="492.54999" x="-552.92999" font-family="Gentium Book Basic" fill="#ffffff">
  <tspan id="tspan160" y="492.54999" x="-552.92999" fill="#ffffff"/>
 </text>
 <path id="path162" opacity=".25" d="m299.34 82.22c-95.93 0-173.66 77.7-173.72 173.63v146.94c0 7.484 2.989 14.239 7.875 19.13l90.09 90.09h262.41c14.397 0 26-11.603 26-26v-263.16l-89.72-89.72c-31.46-31.46-74.91-50.912-122.92-50.912h-0.031"/>
 <path id="path164" d="m299.35 82.22c-95.93 0-173.68 77.71-173.74 173.63v146.91c0 14.938 12.01 27 26.946 27h146.92c95.94-0.039 173.69-77.861 173.69-173.81 0-95.98-77.84-173.74-173.81-173.74m52.38 38.03c6.982 0 11.969 0.816 18.43 2.508 9.424 2.472 17.09 10.205 17.09 19.19 0 10.864-7.871 18.722-19.655 18.722-5.615 0-7.641-1.05-15.864-1.05-24.26 0-43.935 19.655-43.977 43.919v38.03c0 3.434 2.81 6.182 6.24 6.182h28.871c10.763 0 19.472 8.631 19.481 19.422 0 10.796-8.722 19.422-19.481 19.422h-35.11v44.328c0 46.02-37.27 83.35-83.29 83.35-6.983 0-11.969-0.815-18.43-2.508-9.424-2.47-17.09-10.205-17.09-19.19 0-10.861 7.864-18.722 19.655-18.722 5.609 0 7.653 1.05 15.864 1.05 24.26 0 43.939-19.664 43.977-43.919v-38.2c0-3.426-2.81-6.182-6.24-6.182h-28.871c-10.765 0-19.481-8.625-19.481-19.422 0-10.859 8.776-19.422 19.655-19.422h34.937v-44.148c0-46.02 37.27-83.35 83.29-83.35" fill="#fff"/>
</svg>
