<svg xmlns="http://www.w3.org/2000/svg" xmlns:svg="http://www.w3.org/2000/svg" id="svg2" width="100%" height="100%" version="1.1" viewBox="0 0 512 512"><metadata id="metadata168"/><g id="g3440" transform="translate(362.36621,-360.56338)"><rect id="rect60" width="512" height="512" x="-362.366" y="360.557" rx="25.988" style="fill:#5480bf"/><g id="g62" transform="translate(-362.3662,360.55988)" style="fill-rule:evenodd"><path id="path64" d="m 26,-0.003 c -14.397,0 -26,11.603 -26,26 l 0,460 c 0,14.397 11.603,26 26,26 l 21.781,0 0,-512 -21.781,0" style="fill:#366378"/><path id="path66" d="m 47.781,-0.003 0,512 40,0 0,-512 -40,0" style="fill:#036"/></g><path id="path162" d="m -63.026197,442.77988 c -95.930003,0 -173.660003,77.7 -173.720003,173.63 l 0,146.94 c 0,7.484 2.989,14.239 7.875,19.13 l 90.09,90.09 262.41,0 c 14.397,0 26,-11.603 26,-26 l 0,-263.16 -89.719997,-89.72 c -31.46,-31.46 -74.91,-50.912 -122.92,-50.912 l -0.031,0" style="opacity:.25"/><path id="path164" d="m -63.016197,442.77988 c -95.930003,0 -173.680003,77.71 -173.740003,173.63 l 0,146.91 c 0,14.938 12.01,27 26.946,27 l 146.920003,0 c 95.94,-0.039 173.689997,-77.861 173.689997,-173.81 0,-95.98 -77.839997,-173.74 -173.809997,-173.74 m 52.38,38.03 c 6.9819998,0 11.9689998,0.816 18.4299998,2.508 9.4240002,2.472 17.0900002,10.205 17.0900002,19.19 0,10.864 -7.871,18.722 -19.6550002,18.722 -5.61499998,0 -7.641,-1.05 -15.8639998,-1.05 -24.26,0 -43.935,19.655 -43.977,43.919 l 0,38.03 c 0,3.434 2.81,6.182 6.24,6.182 l 28.871,0 c 10.7629998,0 19.47199982,8.631 19.48099982,19.422 0,10.796 -8.72200002,19.422 -19.48099982,19.422 l -35.11,0 0,44.328 c 0,46.02 -37.27,83.35 -83.290003,83.35 -6.983,0 -11.969,-0.815 -18.43,-2.508 -9.424,-2.47 -17.09,-10.205 -17.09,-19.19 0,-10.861 7.864,-18.722 19.655,-18.722 5.609,0 7.653,1.05 15.864,1.05 24.26,0 43.939003,-19.664 43.977003,-43.919 l 0,-38.2 c 0,-3.426 -2.81,-6.182 -6.240003,-6.182 l -28.871,0 c -10.765,0 -19.481,-8.625 -19.481,-19.422 0,-10.859 8.776,-19.422 19.655,-19.422 l 34.937003,0 0,-44.148 c 0,-46.02 37.27,-83.35 83.29,-83.35" style="fill:#fff"/></g></svg>