<?xml version="1.0" encoding="UTF-8" standalone="no"?>
<svg
   xmlns:dc="http://purl.org/dc/elements/1.1/"
   xmlns:cc="http://creativecommons.org/ns#"
   xmlns:rdf="http://www.w3.org/1999/02/22-rdf-syntax-ns#"
   xmlns:svg="http://www.w3.org/2000/svg"
   xmlns="http://www.w3.org/2000/svg"
   xmlns:sodipodi="http://sodipodi.sourceforge.net/DTD/sodipodi-0.dtd"
   xmlns:inkscape="http://www.inkscape.org/namespaces/inkscape"
   viewBox="0 0 512 512"
   id="svg2"
   version="1.1"
   inkscape:version="0.91+devel r13804 custom"
   sodipodi:docname="ffmulticonverter.svg">
  <metadata
     id="metadata9452">
    <rdf:RDF>
      <cc:Work
         rdf:about="">
        <dc:format>image/svg+xml</dc:format>
        <dc:type
           rdf:resource="http://purl.org/dc/dcmitype/StillImage" />
      </cc:Work>
    </rdf:RDF>
  </metadata>
  <defs
     id="defs9450" />
  <sodipodi:namedview
     pagecolor="#ffffff"
     bordercolor="#666666"
     borderopacity="1"
     objecttolerance="10"
     gridtolerance="10"
     guidetolerance="10"
     inkscape:pageopacity="0"
     inkscape:pageshadow="2"
     inkscape:window-width="1366"
     inkscape:window-height="709"
     id="namedview9448"
     showgrid="false"
     inkscape:zoom="0.4609375"
     inkscape:cx="-8.6779661"
     inkscape:cy="237.55932"
     inkscape:window-x="-2"
     inkscape:window-y="-3"
     inkscape:window-maximized="1"
     inkscape:current-layer="svg2" />
  <g
     id="g12804"
     transform="translate(249.49153,-286.37288)">
    <path
       id="path5832"
       d="m -223.49203,286.37188 c -14.397,0 -26,11.603 -26,26 l 0,460 c 0,14.397 11.603,26 26,26 l 460,0 c 14.397,0 26,-11.603 26,-26 l 0,-460 c 0,-14.397 -11.603,-26 -26,-26 l -460,0"
       style="fill:#79c943"
       inkscape:connector-curvature="0" />
    <path
       id="path5834"
       d="m 255.94797,295.09088 -496.72,496.72 c 4.588,4.076 10.637,6.563 17.281,6.563 l 460,0 c 14.397,0 26,-11.603 26,-26 l 0,-460 c 0,-6.644 -2.486,-12.693 -6.563,-17.281"
       style="fill:#d22828"
       inkscape:connector-curvature="0" />
    <path
       id="path9444"
       d="m 36.997975,327.37088 c -139.030005,36.02 -358.600005,177.89 -175.750005,360.74 l 110.260005,110.26 264.999995,0 c 14.397,0 26,-11.603 26,-26 l 0,-265.05 -110.73,-110.73 c -8.517,-8.517 -17.908,-17.12 -28.22,-25.811 33.993,43.41 55.1,77.62 60.709,103.86 l -147.269995,-147.27"
       style="opacity:0.25"
       inkscape:connector-curvature="0" />
    <path
       id="path9446"
       d="m 36.997975,327.37188 c -145.500005,37.693 -379.220005,191.34 -147.540005,386.54 -98.32,-125.49 -88.94,-174.11 91.990005,-175.66 -220.820005,-35.562 -32.21,-128.05 63.65,-144.95 l -8.104,-65.928 m 86.559995,43.41 c 98.32,125.57 88.94,174.13 -91.989995,175.62 220.819995,35.628 32.28,128.09 -63.65,145 l 8.104,65.972 c 145.499995,-37.76 379.219995,-191.4 147.539995,-386.59"
       style="fill:#ffffff"
       inkscape:connector-curvature="0" />
  </g>
</svg>
