<?xml version="1.0" encoding="UTF-8" standalone="no"?>
<!-- Created with Inkscape (http://www.inkscape.org/) -->
<svg id="svg2" xmlns:rdf="http://www.w3.org/1999/02/22-rdf-syntax-ns#" xmlns="http://www.w3.org/2000/svg" height="100%" width="100%" version="1.1" xmlns:cc="http://creativecommons.org/ns#" viewBox="0 0 512 512" xmlns:dc="http://purl.org/dc/elements/1.1/">
 <metadata id="metadata10">
  <rdf:RDF>
   <cc:Work rdf:about="">
    <dc:format>image/svg+xml</dc:format>
    <dc:type rdf:resource="http://purl.org/dc/dcmitype/StillImage"/>
    <dc:title/>
   </cc:Work>
  </rdf:RDF>
 </metadata>
 <defs id="defs8">
  <clipPath id="clipPath3418">
   <path id="path3420" fill="#68af4c" d="m26 0c-14.397 0-26 11.603-26 26v460c0 14.397 11.603 26 26 26h460c14.397 0 26-11.603 26-26v-460c0-14.397-11.6-26-26-26h-460z"/>
  </clipPath>
 </defs>
 <path id="rect2986" fill="#68af4c" d="m26 0c-14.397 0-26 11.603-26 26v460c0 14.397 11.603 26 26 26h460c14.397 0 26-11.603 26-26v-460c0-14.397-11.6-26-26-26h-460z"/>
 <path id="rect3181" fill="#0078ad" d="m26 0c-14.397 0-26 11.603-26 26v460c0 14.397 11.603 26 26 26h36.562v-512h-36.562zm167.53 0v512h131.91v-512h-131.91zm262.88 0v512h29.59c14.397 0 26-11.603 26-26v-460c0-14.397-11.6-26-26-26h-29.594z"/>
 <text id="text20" style="word-spacing:0;letter-spacing:0" font-size="129.23px" line-height="125%" y="162.69868" x="-121.5761" font-family="Gentium Book Basic">
  <tspan id="tspan22" y="162.69868" x="-121.5761"/>
 </text>
 <text id="text24" style="text-anchor:middle" transform="scale(4.0128 .24920)" font-size="46.954px" y="303.73273" x="166.78391" font-family="Arial"/>
 <text id="text26" style="word-spacing:0;letter-spacing:0" font-size="129.23px" line-height="125%" y="82.698692" x="459.69391" font-family="Gentium Book Basic">
  <tspan id="tspan28" y="82.698692" x="459.69391"/>
 </text>
 <text id="text30" style="text-anchor:middle" transform="scale(4.0128 .24920)" font-size="46.954px" y="-17.30542" x="311.63318" font-family="Arial"/>
 <text id="text32" style="word-spacing:0;letter-spacing:0" font-size="129.23px" line-height="125%" y="-98.561287" x="-611.88611" font-family="Gentium Book Basic">
  <tspan id="tspan34" y="-98.561287" x="-611.88611"/>
 </text>
 <text id="text36" style="text-anchor:middle" transform="scale(4.0128 .24920)" font-size="46.954px" y="-744.65179" x="44.594543" font-family="Arial"/>
 <text id="text38" style="word-spacing:0;letter-spacing:0" font-size="129.23px" line-height="125%" y="-315.03128" x="486.16388" font-family="Gentium Book Basic">
  <tspan id="tspan40" y="-315.03128" x="486.16388"/>
 </text>
 <text id="text42" style="text-anchor:middle" transform="scale(4.0128 .24920)" font-size="46.954px" y="-1613.3274" x="318.23315" font-family="Arial"/>
 <text id="text44" style="word-spacing:0;letter-spacing:0" font-size="129.23px" line-height="125%" y="-395.03128" x="1067.434" font-family="Gentium Book Basic">
  <tspan id="tspan46" y="-395.03128" x="1067.434"/>
 </text>
 <text id="text48" style="text-anchor:middle" transform="scale(4.0128 .24920)" font-size="46.954px" y="-1934.3557" x="463.0824" font-family="Arial"/>
 <text id="text50" style="word-spacing:0;letter-spacing:0" font-size="129.23px" line-height="125%" y="-867.43127" x="678.3139" font-family="Gentium Book Basic">
  <tspan id="tspan52" y="-867.43127" x="678.3139"/>
 </text>
 <text id="text54" style="text-anchor:middle" transform="scale(4.0128 .24920)" font-size="46.954px" y="-3830.0061" x="366.11285" font-family="Arial"/>
 <text id="text56" style="word-spacing:0;letter-spacing:0" font-size="129.23px" line-height="125%" y="-947.44128" x="1259.574" font-family="Gentium Book Basic">
  <tspan id="tspan58" y="-947.44128" x="1259.574"/>
 </text>
 <text id="text60" style="text-anchor:middle" transform="scale(4.0128 .24920)" font-size="46.954px" y="-4151.0444" x="510.96216" font-family="Arial"/>
 <text id="text62" style="word-spacing:0;letter-spacing:0" font-size="208.33px" line-height="125%" y="467.27878" x="-573.22614" font-family="Gentium Book Basic">
  <tspan id="tspan64" y="467.27878" x="-573.22614"/>
 </text>
 <g id="g3235" opacity=".25" clip-path="url(#clipPath3418)">
  <path id="path3237" d="m108.13 41.111c-0.84447 0.0011-1.6978 0.01527-2.5442 0.05292l388.91 388.91c0.84637-0.0376 1.6997-0.0518 2.5442-0.0529z"/>
  <path id="path3239" d="m105.59 41.164c-39.646-0.268-72.325 41.277-62.969 79.876l388.91 388.91c-9.3564-38.598 23.322-80.144 62.968-79.876z"/>
  <path id="path3241" d="m42.621 121.04c2.316 12.424 8.6729 23.529 17.454 32.31l388.91 388.91c-8.781-8.781-15.138-19.886-17.454-32.31z"/>
  <path id="path3243" d="m60.075 153.35c17.239 17.239 43.82 25.522 67.51 17.248l388.91 388.91c-23.69 8.2734-50.271-0.01-67.51-17.248z"/>
  <path id="path3245" d="m127.59 170.6c35.361-10.564 56.542-53.734 41.448-87.985l388.91 388.91c15.093 34.251-6.0877 77.421-41.448 87.985z"/>
  <path id="path3247" d="m169.03 82.613c-3.25-8.181-8.24-15.555-14.43-21.738l388.91 388.9c6.1834 6.1834 11.173 13.557 14.431 21.738z"/>
  <path id="path3249" d="m154.6 60.875c-12.21-12.216-29.09-19.787-46.47-19.764l388.91 388.91c17.38-0.0229 34.254 7.548 46.47 19.764z"/>
  <path id="path3251" d="m405.27 41.111c-0.84858 0.0017-1.6934 0.01357-2.5442 0.05292l388.9 388.91c0.8508-0.0394 1.6956-0.0512 2.5442-0.0529z"/>
  <path id="path3253" d="m402.73 41.164c-40.33-0.262-73.19 42.563-62.65 81.416l388.91 388.91c-10.539-38.85 22.328-81.675 62.65-81.413z"/>
  <path id="path3255" d="m340.08 122.58c2.55 11.861 8.7338 22.422 17.14 30.828l388.91 388.91c-8.406-8.406-14.59-18.968-17.14-30.828z"/>
  <path id="path3257" d="m357.22 153.41c17.234 17.234 43.809 25.407 67.559 17.139l388.91 388.91c-23.75 8.2678-50.325 0.0947-67.559-17.139z"/>
  <path id="path3259" d="m424.77 170.54c35.307-10.512 56.213-53.615 41.395-87.773l388.91 388.91c14.818 34.158-6.0885 77.261-41.395 87.773z"/>
  <path id="path3261" d="m466.17 82.772c-3.25-8.229-8.27-15.676-14.52-21.922l388.91 388.91c6.246 6.246 11.268 13.693 14.515 21.922z"/>
  <path id="path3263" d="m451.65 60.85c-12.17-12.175-28.99-19.788-46.38-19.739l388.91 388.91c17.386-0.0489 34.211 7.5638 46.385 19.739z"/>
  <path id="path3265" d="m256.7 189.68c-0.84747 0.001-1.6944 0.0135-2.5442 0.053l388.91 388.91c0.84978-0.0395 1.6967-0.052 2.5442-0.053z"/>
  <path id="path3267" d="m254.16 189.73c-39.685-0.2987-72.339 41.324-62.968 79.823l388.91 388.91c-9.3716-38.499 23.283-80.122 62.968-79.823z"/>
  <path id="path3269" d="m191.19 269.55c2.316 12.424 8.6729 23.529 17.454 32.31l388.91 388.91c-8.781-8.781-15.138-19.886-17.454-32.31z"/>
  <path id="path3271" d="m208.64 301.86c17.239 17.239 43.82 25.522 67.51 17.248l388.91 388.91c-23.69 8.2734-50.271-0.01-67.51-17.248z"/>
  <path id="path3273" d="m276.15 319.11c35.3-10.541 56.376-53.722 41.395-87.932l388.91 388.91c14.98 34.21-6.0956 77.392-41.395 87.932z"/>
  <path id="path3275" d="m317.55 231.18c-3.257-8.1882-8.2574-15.588-14.464-21.795l388.91 388.91c6.2067 6.2068 11.207 13.606 14.464 21.795z"/>
  <path id="path3277" d="m303.08 209.39c-12.172-12.172-28.984-19.757-46.384-19.707l388.91 388.91c17.399-0.0502 34.211 7.5346 46.384 19.707z"/>
  <path id="path3279" d="m108.19 338.19c-0.84487 0.001-1.6971 0.0153-2.5442 0.053l388.9 388.92c0.84706-0.0377 1.6993-0.052 2.5442-0.053z"/>
  <path id="path3281" d="m105.64 338.25c-39.697-0.34-72.402 41.3-63.019 79.82l388.91 388.91c-9.3837-38.524 23.322-80.156 63.021-79.823z"/>
  <path id="path3283" d="m42.621 418.07c2.3707 12.49 8.7529 23.639 17.552 32.438l388.91 388.91c-8.7991-8.7991-15.181-19.948-17.552-32.438z"/>
  <path id="path3285" d="m60.173 450.51c17.204 17.204 43.647 25.425 67.412 17.12l388.91 388.91c-23.765 8.3045-50.208 0.0837-67.412-17.12z"/>
  <path id="path3287" d="m127.59 467.63c35.455-10.613 56.539-53.671 41.395-88.038l388.91 388.91c15.143 34.367-5.9405 77.425-41.395 88.038z"/>
  <path id="path3289" d="m168.98 379.59c-3.2599-8.1581-8.2388-15.513-14.408-21.682l388.91 388.91c6.1688 6.1688 11.148 13.524 14.408 21.682z"/>
  <path id="path3291" d="m154.57 357.91c-12.181-12.181-29.001-19.736-46.387-19.714l388.92 388.9c17.386-0.0225 34.206 7.5327 46.387 19.714z"/>
  <path id="path3293" d="m405.32 338.19c-0.84361 0.001-1.6985 0.0135-2.5442 0.053l388.91 388.92c0.84568-0.0395 1.7006-0.052 2.5442-0.053z"/>
  <path id="path3295" d="m402.78 338.25c-40.29-0.37511-73.27 42.534-62.703 81.36l388.9 388.91c-10.567-38.826 22.413-81.735 62.703-81.36z"/>
  <path id="path3297" d="m340.08 419.61c2.5616 11.895 8.7526 22.469 17.163 30.879l388.91 388.91c-8.4103-8.4103-14.601-18.984-17.163-30.879z"/>
  <path id="path3299" d="m357.24 450.49c17.597 17.597 44.911 25.723 69.02 16.665l388.91 388.91c-24.11 9.0586-51.423 0.93281-69.02-16.665z"/>
  <path id="path3301" d="m426.26 467.15c34.53-11.388 54.629-53.825 39.805-87.561l388.91 388.91c14.824 33.736-5.2755 76.173-39.805 87.561z"/>
  <path id="path3303" d="m466.06 379.59c-3.2563-8.1514-8.2422-15.516-14.422-21.696l388.91 388.91c6.18 6.18 11.166 13.544 14.422 21.696z"/>
  <path id="path3305" d="m451.64 357.89c-12.171-12.171-28.975-19.749-46.319-19.7l388.91 388.91c17.345-0.0496 34.148 7.5283 46.319 19.7z"/>
 </g>
 <path id="path3199" fill="#fff" d="m108.13 41.111c-0.84447 0.0011-1.6978 0.01527-2.5442 0.05292-39.646-0.26819-72.324 41.277-62.968 79.876 6.8627 36.814 49.207 62.046 84.964 49.558 35.361-10.564 56.542-53.734 41.448-87.985-9.693-24.343-34.722-41.536-60.901-41.501zm297.14 0c-0.84858 0.0017-1.6934 0.01357-2.5442 0.05292-40.322-0.26257-73.189 42.563-62.65 81.413 7.778 36.178 49.365 60.268 84.699 47.968 35.307-10.512 56.213-53.615 41.395-87.773-9.58-24.266-34.59-41.731-60.9-41.657zm-148.57 148.57c-0.84747 0.001-1.6944 0.0135-2.5442 0.053-39.685-0.2987-72.339 41.324-62.968 79.823 6.8627 36.814 49.207 62.046 84.964 49.558 35.3-10.541 56.376-53.722 41.395-87.932-9.6443-24.247-34.576-41.577-60.848-41.502zm-148.51 148.51c-0.84487 0.001-1.6971 0.0153-2.5442 0.053-39.699-0.33317-72.405 41.298-63.021 79.823 7.0059 36.91 49.044 62.11 84.964 49.558 35.455-10.613 56.539-53.671 41.395-88.038-9.6969-24.267-34.604-41.429-60.795-41.395zm297.14 0c-0.84361 0.001-1.6985 0.0135-2.5442 0.053-40.29-0.37511-73.27 42.534-62.703 81.36 7.9213 36.785 50.551 60.932 86.183 47.544 34.53-11.388 54.629-53.825 39.805-87.561-9.6694-24.205-34.59-41.47-60.742-41.395z"/>
</svg>
