<?xml version="1.0" encoding="UTF-8" standalone="no"?>
<!-- Created with Inkscape (http://www.inkscape.org/) -->

<svg
   xmlns:dc="http://purl.org/dc/elements/1.1/"
   xmlns:cc="http://creativecommons.org/ns#"
   xmlns:rdf="http://www.w3.org/1999/02/22-rdf-syntax-ns#"
   xmlns:svg="http://www.w3.org/2000/svg"
   xmlns="http://www.w3.org/2000/svg"
   xmlns:sodipodi="http://sodipodi.sourceforge.net/DTD/sodipodi-0.dtd"
   xmlns:inkscape="http://www.inkscape.org/namespaces/inkscape"
   id="svg2"
   height="100%"
   width="100%"
   version="1.1"
   viewBox="0 0 512 512"
   inkscape:version="0.91+devel r13804 custom"
   sodipodi:docname="fluendo-dvd-player.svg">
  <sodipodi:namedview
     pagecolor="#ffffff"
     bordercolor="#666666"
     borderopacity="1"
     objecttolerance="10"
     gridtolerance="10"
     guidetolerance="10"
     inkscape:pageopacity="0"
     inkscape:pageshadow="2"
     inkscape:window-width="1366"
     inkscape:window-height="709"
     id="namedview2598"
     showgrid="false"
     inkscape:zoom="0.4609375"
     inkscape:cx="-8.6779661"
     inkscape:cy="237.55932"
     inkscape:window-x="-2"
     inkscape:window-y="-3"
     inkscape:window-maximized="1"
     inkscape:current-layer="svg2" />
  <metadata
     id="metadata5192">
    <rdf:RDF>
      <cc:Work
         rdf:about="">
        <dc:format>image/svg+xml</dc:format>
        <dc:type
           rdf:resource="http://purl.org/dc/dcmitype/StillImage" />
      </cc:Work>
    </rdf:RDF>
  </metadata>
  <defs
     id="defs4">
    <clipPath
       id="0">
      <path
         id="path7"
         d="m778.55-23.311c-10.34 0-18.673 8.333-18.673 18.673v330.36c0 10.34 8.333 18.673 18.673 18.673h330.36c10.34 0 18.673-8.333 18.673-18.673v-330.36c0-10.34-8.333-18.673-18.673-18.673h-330.35" />
    </clipPath>
    <clipPath
       id="1">
      <path
         id="path10"
         d="m26 0c-14.397 0-26 11.603-26 26v460c0 14.397 11.603 26 26 26h460c14.397 0 26-11.603 26-26v-460c0-14.397-11.6-26-26-26h-460" />
    </clipPath>
    <clipPath
       id="1-6">
      <path
         inkscape:connector-curvature="0"
         id="path10-4"
         d="M 26,0 C 11.603,0 0,11.603 0,26 l 0,460 c 0,14.397 11.603,26 26,26 l 460,0 c 14.397,0 26,-11.603 26,-26 L 512,26 C 512,11.603 500.4,0 486,0 L 26,0" />
    </clipPath>
    <clipPath
       id="0-2">
      <path
         inkscape:connector-curvature="0"
         id="path7-1"
         d="m 778.55,-23.311 c -10.34,0 -18.673,8.333 -18.673,18.673 l 0,330.36 c 0,10.34 8.333,18.673 18.673,18.673 l 330.36,0 c 10.34,0 18.673,-8.333 18.673,-18.673 l 0,-330.36 c 0,-10.34 -8.333,-18.673 -18.673,-18.673 l -330.35,0" />
    </clipPath>
  </defs>
  <g
     id="g6019"
     transform="translate(284.20337,-297.22034)">
    <path
       d="m -258.17978,297.22034 c -14.397,0 -26,11.603 -26,26 l 0,460 c 0,14.397 11.603,26 26,26 l 460.00001,0 c 14.397,0 26,-11.603 26,-26 l 0,-460 c 0,-14.397 -11.6,-26 -26,-26 l -460.00001,0"
       id="path12"
       style="fill:#ead3a8"
       inkscape:connector-curvature="0" />
    <g
       clip-path="url(#0-2)"
       transform="matrix(1.3924,0,0,1.3924,-1342.2797,329.67934)"
       id="g4692">
      <path
         d="m 920.9,13 c 0.519,11.558 -1.558,24.915 -3.539,36.35 -2.403,13.164 -7.596,32.414 -5.664,45.38 3.164,21.412 17.922,30.19 29.769,45.38 -12.08,-0.99 -20.808,-3.345 -31.798,-8.587 -8.07,-3.865 -16.04,-8.345 -22.547,-14.528 -29.576,-28.21 -21.702,-68.826 -12.971,-104.07 2.355,-9.674 8.345,-34.15 7.79,-43.26 -0.942,-14.251 -8.309,-24.625 -15.422,-36.35 37.37,4.01 53.11,46.798 54.44,79.54"
         id="path4694"
         inkscape:connector-curvature="0"
         style="fill:#d23638" />
      <path
         d="m 1031.3,17.577 c -10,15.664 -24.721,28.11 -39.866,38.585 -15.941,10.99 -33.876,21.509 -40.759,40.904 -4.203,12.403 -2.355,25.989 0,38.586 -11.98,-6.835 -17.693,-21.279 -21.13,-34.06 -1.884,-6.932 -4.106,-20.14 -3.732,-27.27 2.693,-58.5 62.884,-71 92.8,-100.1 12.318,-12.03 16.847,-23.876 18.26,-40.711 19.999,22.692 9.01,61.28 -5.567,84.07"
         id="path4696"
         inkscape:connector-curvature="0"
         style="fill:#66aabe" />
      <g
         id="g4698"
         style="fill:#46b546">
        <path
           d="m 823.32,46.911 c 43.875,37.788 41.28,111.24 106.86,100.1 -13.961,21.702 -66.1,20.241 -86.42,8.02 -35.99,-21.7 -43.68,-78.129 -64.49,-103.32 -9.77,-11.75 -19.67,-15.24 -33.16,-20.518 23.16,-14.999 58.4,-0.374 77.09,15.712"
           id="path4700"
           inkscape:connector-curvature="0" />
        <path
           d="m 1132.8,73.951 c -30.808,33.36 -70.903,29.818 -111.81,29.914 -18.538,0.048 -29.2,1.981 -42.74,16.09 -6.836,7.174 -10.519,16.847 -18.586,22.499 0,-14.347 0.326,-22.27 4.625,-36.35 2.548,-8.345 5.712,-15.567 10.809,-22.692 29.528,-41.52 80.15,-27.17 123.08,-27.27 25.712,-0.048 31.605,-4.807 50.01,-22.837 4.625,13.961 -6.183,30.566 -15.374,40.518"
           id="path4702"
           inkscape:connector-curvature="0" />
      </g>
      <path
         d="m 982.37,135.41 c 8.816,-5.193 17.17,-8.816 27.27,-11.04 41.894,-9.203 66.05,18.49 93.08,45.34 10.761,10.712 26.18,25.808 40.904,30.385 9.903,3.116 17.17,2.548 27.22,1.413 -8.261,14.299 -27.644,18.441 -43.21,19.721 -35.615,2.826 -65.855,-21.18 -90.82,-43.21 -9.529,-8.345 -17.499,-17.27 -29.528,-22.12 -18.828,-7.548 -32.27,-0.145 -50.01,4.577 6.606,-12.27 12.971,-18.26 24.999,-25.24"
         id="path4704"
         inkscape:connector-curvature="0"
         style="fill:#d23638" />
      <g
         id="g4706"
         style="fill:#66aabe">
        <path
           d="m 752.99,158.91 c 32.366,-10.289 62.932,-2.778 93.12,10.519 12.403,5.471 24.673,12.644 38.586,13.49 18.635,1.039 31.557,-13.731 47.691,-19.999 -4.384,12.644 -8.587,21.18 -17.08,31.798 -5.664,7.125 -11.606,12.318 -19.25,17.27 -33.924,21.932 -72.27,5.05 -104.44,-11.04 -11.28,-5.567 -30.856,-15.76 -43.21,-16.702 -10.05,-0.797 -22.547,4.529 -31.798,8.212 4.251,-17.318 19.903,-28.356 36.35,-33.537"
           id="path4708"
           inkscape:connector-curvature="0" />
        <path
           d="m 977.83,162.92 c 11.04,0.145 19.11,1.558 29.528,5.616 6.703,2.645 14.77,6.703 20.422,11.183 40.566,32.22 19.903,88.74 30.711,130.86 4.154,16.461 14.48,23.357 23.828,36.35 -52.643,-1.184 -76.99,-56.13 -77.27,-102.18 -0.048,-13.635 -0.374,-30.385 -5.616,-43.21 -4.154,-10.1 -12.838,-19.48 -21.605,-25.808 -6.884,-4.903 -12.971,-5.761 -18.212,-12.789 l 18.212,0"
           id="path4710"
           inkscape:connector-curvature="0" />
      </g>
      <path
         d="m 948.3,208.34 c -0.145,9.625 -0.942,15.809 -4.01,24.999 -18.16,55.01 -85.02,48.26 -120.89,65.63 -17.837,8.78 -20.241,19.673 -31.798,32.03 -2.741,-46.33 18.26,-74.73 61.33,-92.09 34.479,-13.913 67.981,-9.299 83.03,-51 2.596,-7.27 2.874,-10.664 3.297,-18.212 10.289,11.135 9.203,24.274 9.06,38.586"
         id="path4712"
         inkscape:connector-curvature="0"
         style="fill:#d23638" />
      <path
         d="m 979.39,190.19 c 5.423,6.413 10.942,14.903 14.15,22.692 22.318,54.59 -29.951,91.19 -47.559,136.29 -6.316,15.941 -2.874,22.741 0,38.586 -38.02,-18.212 -29.914,-80.06 -15.1,-111.34 l 13.345,-22.692 c 7.222,-11.606 16.883,-24.915 18.912,-38.585 2.307,-16.412 -7.5,-31.653 -14.77,-45.43 13.78,2.826 22.08,9.818 30.953,20.47"
         id="path4714"
         inkscape:connector-curvature="0"
         style="fill:#46b546" />
    </g>
    <g
       clip-path="url(#1-6)"
       id="g5170"
       style="opacity:0.25;fill-rule:evenodd"
       transform="translate(-284.17978,297.22034)">
      <path
         d="m 449.14,256.01 c 0,17.195 -163.39,111.49 -178.28,120.09 l 353.55,353.55 c 14.889,-8.601 178.28,-102.89 178.28,-120.09 z"
         id="path5172"
         inkscape:connector-curvature="0" />
      <path
         d="M 270.86,376.09 C 255.97,384.68 92.61,479.04 77.72,470.44 l 353.55,353.55 c 14.889,8.602 178.25,-85.76 193.14,-94.35 z"
         id="path5174"
         inkscape:connector-curvature="0" />
      <path
         d="m 77.72,470.45 c -0.244,-0.141 -0.484,-0.33 -0.72,-0.566 l 353.55,353.55 c 0.236,0.236 0.476,0.425 0.72,0.566 z"
         id="path5176"
         inkscape:connector-curvature="0" />
      <path
         d="M 76.999,469.88 C 62.828,455.71 62.869,272.92 62.869,256 l 353.55,353.55 c 0,16.916 -0.036,199.71 14.13,213.88 z"
         id="path5178"
         inkscape:connector-curvature="0" />
      <path
         d="m 62.864,256 c 0,-17.195 -0.042,-205.84 14.855,-214.45 l 353.55,353.55 c -14.896,8.607 -14.855,197.25 -14.855,214.45 z"
         id="path5180"
         inkscape:connector-curvature="0" />
      <path
         d="m 77.72,41.553 c 14.892,-8.601 178.25,85.76 193.14,94.35 l 353.55,353.55 c -14.89,-8.59 -178.25,-102.95 -193.14,-94.35 z"
         id="path5182"
         inkscape:connector-curvature="0" />
      <path
         d="m 270.86,135.9 c 13.252,7.654 144.1,83.17 172.75,111.82 L 797.16,601.27 C 768.51,572.62 637.66,497.1 624.41,489.45 Z"
         id="path5184"
         inkscape:connector-curvature="0" />
      <path
         d="m 443.61,247.73 c 3.546,3.546 5.527,6.374 5.527,8.267 l 353.55,353.55 c 0,-1.893 -1.981,-4.721 -5.527,-8.267 z"
         id="path5186"
         inkscape:connector-curvature="0" />
    </g>
    <path
       d="m 164.96023,553.23034 c 0,17.19 -163.3900022,111.49 -178.280002,120.09 -14.89,8.59 -178.250008,102.95 -193.140008,94.35 -14.892,-8.6 -14.855,-197.25 -14.855,-214.45 0,-17.195 -0.042,-205.84 14.855,-214.45 14.892,-8.601 178.250008,85.76 193.140008,94.35 14.8919998,8.601 178.280002,102.89 178.280002,120.09"
       id="path5188"
       style="fill:#ffffff;fill-rule:evenodd"
       inkscape:connector-curvature="0" />
  </g>
</svg>
