<svg xmlns="http://www.w3.org/2000/svg" xmlns:svg="http://www.w3.org/2000/svg" id="svg2" version="1.1" viewBox="0 0 512 512"><metadata id="metadata17866"/><g id="g21215" transform="translate(264.67798,-275.52542)"><rect id="rect17808" width="512" height="512" x="-264.678" y="275.525" rx="25.988" style="fill:#d1c4b1"/><path id="path17858" d="m 206.32203,416.92542 -0.002,0.01 -30.09,0 -20.494,80.79 -80.789996,-80.79 -29.781,0 42.695,42.695 0.004,0.014 -42.709,-42.709 -22.453,76.76 -76.76,-76.76 -30.09,0 40.33,40.33 0.004,0.014 -40.35,-40.35 4.127,15.59 -15.596,-15.596 0,0.006 -128.060004,0 0,229.19 141.400004,141.4 303.609996,0 c 14.397,0 25.988,-11.591 25.988,-25.988 l 0,-303.61 -41,-41" style="opacity:.25"/><path id="path17860" d="m -223.67797,416.93542 0,229.19 28.844,0 0,-97.34 93.13,0 0,-25.25 -93.12,0 0,-81.19 99.220004,0 0,-25.406 -128.060004,0 m 139.530004,0 60.66,229.19 29.1599999,0 43.2800001,-149.25 c 5.643,-18.811 9.296,-34.2 10.969,-46.22 1.149,7.838 5.01,22.917 11.594,45.28 l 44.687996,150.19 29.16,0 60.969,-229.19 -30.09,0 -35.438,139.69 c -5.748,22.16 -9.453,40.42 -11.125,54.844 -2.926,-18.707 -7.097,-37.08 -12.531,-55.16 l -42.189996,-139.37 -29.781,0 -40.4400001,138.25 c -5.853,20.379 -9.92,39.14 -12.219,56.28 -2.508,-18.08 -6.1929999,-36.24 -10.9999999,-54.53 l -35.563,-140 -30.09,0" style="fill:#fff"/></g></svg>