<?xml version="1.0" encoding="UTF-8" standalone="no"?>
<svg xmlns="http://www.w3.org/2000/svg" viewBox="0 0 512 512">
 <path d="m26 0c-14.397 0-26 11.603-26 26v460c0 14.397 11.603 26 26 26h460c14.397 0 26-11.603 26-26v-460c0-14.397-11.603-26-26-26h-460" fill="#a63a3e"/>
 <g>
  <path opacity=".25" d="m182.77 78.34c-0.517-0.013-1.033-0.011-1.551 0.006l0.002 0.002c-12.05 0.388-23.543 8.914-28.14 20.881l95.63 95.63 0.006 0.016-95.65-95.65-109.27 286.33h-0.002c-5.909 13.198-2.057 30.08 7.771 39.912l86.53 86.53h347.9c14.397 0 26-11.603 26-26v-170.84l-128-128-0.004-0.004c-4.366-4.366-10.258-7.01-16.207-6.814l0.004 0.004c-8.731 0.279-17.221 6.45-20.555 15.12h-0.002l-9.854 25.895-133.63-133.62c-5.672-5.672-13.245-9.201-20.992-9.398"/>
  <path d="m181.23 78.35c-12.05 0.383-23.553 8.91-28.15 20.881l-109.27 286.33c-7.404 16.535 0.515 38.857 16.312 45.84s36.21-2.818 41.785-20.16l18.323-50.4h126.24l16.537 44.4c5.589 17.443 26.18 27.316 42.01 20.16 15.829-7.156 23.569-29.832 15.865-46.32l-109.71-280.09c-4.902-12.473-17.344-21.05-29.945-20.641m186.59 102c-8.732 0.277-17.223 6.448-20.557 15.12l-33.518 88.08c39.38 102.02-0.01 0.579 39.33 101.52h61.897l12.07 32.16c4.052 12.637 18.923 19.822 30.389 14.641 11.471-5.184 16.984-21.654 11.393-33.6l-79.33-202.81c-3.549-9.04-12.545-15.417-21.674-15.12m-185.24 8.64l37.09 99.6h-73.29zm186.13 71.52l26.815 72.24h-52.957z" fill="#fff"/>
 </g>
</svg>
