<svg xmlns="http://www.w3.org/2000/svg" xmlns:svg="http://www.w3.org/2000/svg" id="svg2" version="1.1" viewBox="0 0 512 512"><metadata id="metadata14792"/><g id="g18141" transform="translate(258.16949,-303.72881)"><path id="path8688" d="m -232.16949,303.72681 c -14.397,0 -26,11.603 -26,26 l 0,460 c 0,14.397 11.603,26 26,26 l 460,0 c 14.397,0 26,-11.603 26,-26 l 0,-460 c 0,-14.397 -11.603,-26 -26,-26 l -460,0" style="fill:#d23638"/><path id="path14784" d="m 51.580508,344.72681 c -89.05,0 -161.249998,72.2 -161.249998,161.25 0,44.525 18.049998,84.84 47.229998,114.02 l 195.730002,195.73 94.54,0 c 14.397,0 26,-11.603 26,-26 l 0,-309.54 -88.23,-88.23 c -29.18,-29.18 -69.490002,-47.23 -114.020002,-47.23 m -157.749998,263.41 c 0.003,0.004 0.005,0.008 0.008,0.012 l -0.008,-0.008 -101.97,85 c -11.338,9.452 -12.1,25.74 -1.656,36.19 l 86.4,86.4 224.82,0 -207.59,-207.59" style="opacity:.25"/><path id="path14786" d="m 51.580508,344.72681 c -89.05,0 -161.249998,72.2 -161.249998,161.25 0,89.05 72.199998,161.25 161.249998,161.25 89.050002,0 161.250002,-72.2 161.250002,-161.25 0,-89.05 -72.2,-161.25 -161.250002,-161.25 m 0,40.31 c 66.690002,0 120.940002,54.25 120.940002,120.94 0,66.69 -54.25,120.94 -120.940002,120.94 -66.69,0 -120.94,-54.25 -120.94,-120.94 0,-66.69 54.25,-120.94 120.94,-120.94 m -157.749998,223.09 -101.97,85 c -11.338,9.452 -12.1,25.741 -1.656,36.19 l 38.03,38.03 c 10.443,10.445 26.739,9.682 36.19,-1.656 l 84.968998,-101.97 c -22.18,-14.437 -41.13,-33.39 -55.559998,-55.59" style="fill:#fff"/></g></svg>