<?xml version="1.0" encoding="UTF-8" standalone="no"?>
<!-- Created with Inkscape (http://www.inkscape.org/) -->
<svg id="svg2" xmlns:rdf="http://www.w3.org/1999/02/22-rdf-syntax-ns#" xmlns="http://www.w3.org/2000/svg" height="100%" width="100%" version="1.1" xmlns:cc="http://creativecommons.org/ns#" viewBox="0 0 512 512" xmlns:dc="http://purl.org/dc/elements/1.1/">
 <metadata id="metadata72">
  <rdf:RDF>
   <cc:Work rdf:about="">
    <dc:format>image/svg+xml</dc:format>
    <dc:type rdf:resource="http://purl.org/dc/dcmitype/StillImage"/>
   </cc:Work>
  </rdf:RDF>
 </metadata>
 <path id="path14" d="m26 0c-14.397 0-26 11.603-26 26v460c0 14.397 11.603 26 26 26h460c14.397 0 26-11.603 26-26v-460c0-14.397-11.6-26-26-26h-460" fill="#e93131"/>
 <text id="text16" style="word-spacing:0;letter-spacing:0" font-size="129.23px" line-height="125%" y="97.709999" x="-133.85001" font-family="Gentium Book Basic">
  <tspan id="tspan18" y="97.709999" x="-133.85001"/>
 </text>
 <text id="text20" style="text-anchor:middle" transform="scale(4.0128 .2492)" font-size="46.954px" y="42.936001" x="163.73" font-family="Arial"/>
 <text id="text22" style="word-spacing:0;letter-spacing:0" font-size="129.23px" line-height="125%" y="17.708" x="447.42001" font-family="Gentium Book Basic">
  <tspan id="tspan24" y="17.708" x="447.42001"/>
 </text>
 <text id="text26" style="text-anchor:middle" transform="scale(4.0128 .2492)" font-size="46.954px" y="-278.10001" x="308.57001" font-family="Arial"/>
 <text id="text28" style="word-spacing:0;letter-spacing:0" font-size="129.23px" line-height="125%" y="-163.55" x="-624.15997" font-family="Gentium Book Basic">
  <tspan id="tspan30" y="-163.55" x="-624.15997"/>
 </text>
 <text id="text32" style="text-anchor:middle" transform="scale(4.0128 .2492)" font-size="46.954px" y="-1005.45" x="41.535999" font-family="Arial"/>
 <text id="text34" style="word-spacing:0;letter-spacing:0" font-size="129.23px" line-height="125%" y="-380.01999" x="473.89001" font-family="Gentium Book Basic">
  <tspan id="tspan36" y="-380.01999" x="473.89001"/>
 </text>
 <text id="text38" style="text-anchor:middle" transform="scale(4.0128 .2492)" font-size="46.954px" y="-1874.11" x="315.17001" font-family="Arial"/>
 <text id="text40" style="word-spacing:0;letter-spacing:0" font-size="129.23px" line-height="125%" y="-460.01999" x="1055.16" font-family="Gentium Book Basic">
  <tspan id="tspan42" y="-460.01999" x="1055.16"/>
 </text>
 <text id="text44" style="text-anchor:middle" transform="scale(4.0128 .2492)" font-size="46.954px" y="-2195.1399" x="460.01999" font-family="Arial"/>
 <text id="text46" style="word-spacing:0;letter-spacing:0" font-size="129.23px" line-height="125%" y="-932.41998" x="666.03998" font-family="Gentium Book Basic">
  <tspan id="tspan48" y="-932.41998" x="666.03998"/>
 </text>
 <text id="text50" style="text-anchor:middle" transform="scale(4.0128 .2492)" font-size="46.954px" y="-4090.78" x="363.04999" font-family="Arial"/>
 <text id="text52" style="word-spacing:0;letter-spacing:0" font-size="129.23px" line-height="125%" y="-1012.43" x="1247.3" font-family="Gentium Book Basic">
  <tspan id="tspan54" y="-1012.43" x="1247.3"/>
 </text>
 <text id="text56" style="text-anchor:middle" transform="scale(4.0128 .2492)" font-size="46.954px" y="-4411.8198" x="507.89999" font-family="Arial"/>
 <text id="text58" style="word-spacing:0;letter-spacing:0" font-size="208.33px" line-height="125%" y="402.29001" x="-585.5" font-family="Gentium Book Basic">
  <tspan id="tspan60" y="402.29001" x="-585.5"/>
 </text>
 <path id="path62" opacity=".25" d="m158.19 0c-33.497 43.923-74.22 100.14-74.875 143.41-0.472 31.1 2.956 58.06 17.844 81.13 5.708 8.845 12.479 17.07 20.09 24.688l140.75 140.75c-54.58 45.16-151.33 99.24-208.91 122.03h432.91c14.397 0 26-11.603 26-26v-322.62l-163.37-163.37h-190.44" fill-rule="evenodd"/>
 <g id="g64" fill="#fff">
  <path id="path66" d="m293.93 297.45a52.587 31.714 46.464 1 1 -73.465 -75.237 52.587 31.714 46.464 0 1 73.465 75.237"/>
  <path id="path68" d="m158.19 0c-33.497 43.923-74.22 100.14-74.875 143.41-0.472 31.1 2.956 58.06 17.844 81.13 29.773 46.14 88.78 75.67 142.72 87.28 1.478 0.227 2.878-0.643 3.438-2.063 0.559-1.42 0.124-3.05-1.094-3.938-27.662-17.937-42.4-39.39-47.969-62.47-5.569-23.09-1.841-48.01 8.313-72.66 17.19-41.706 91.33-128.34 142.06-170.69h-190.44m112.16 207.81c-0.206 0-0.422-0.01-0.625 0.031-1.236 0.237-2.191 1.268-2.438 2.531-0.246 1.262 0.293 2.514 1.344 3.219 27.662 17.932 41.938 39.86 46.03 63.47 4.091 23.607-2.072 49.2-16.25 74.31-26.43 46.81-169.69 130.69-245.31 160.63h332.31c4.051-2 8.03-4.097 11.969-6.281 40.35-77.863 38.894-172.27 11.781-213.06-30.02-45.15-84.33-73.21-138.22-84.81-0.203-0.043-0.386-0.031-0.594-0.031" fill-rule="evenodd"/>
 </g>
</svg>
