<?xml version="1.0" encoding="UTF-8" standalone="no"?>
<svg
   xmlns:dc="http://purl.org/dc/elements/1.1/"
   xmlns:cc="http://creativecommons.org/ns#"
   xmlns:rdf="http://www.w3.org/1999/02/22-rdf-syntax-ns#"
   xmlns:svg="http://www.w3.org/2000/svg"
   xmlns="http://www.w3.org/2000/svg"
   xmlns:sodipodi="http://sodipodi.sourceforge.net/DTD/sodipodi-0.dtd"
   xmlns:inkscape="http://www.inkscape.org/namespaces/inkscape"
   viewBox="0 0 512 512"
   id="svg2"
   version="1.1"
   inkscape:version="0.91+devel r13804 custom"
   sodipodi:docname="gconf-editor.svg">
  <metadata
     id="metadata15508">
    <rdf:RDF>
      <cc:Work
         rdf:about="">
        <dc:format>image/svg+xml</dc:format>
        <dc:type
           rdf:resource="http://purl.org/dc/dcmitype/StillImage" />
      </cc:Work>
    </rdf:RDF>
  </metadata>
  <defs
     id="defs15506" />
  <sodipodi:namedview
     pagecolor="#ffffff"
     bordercolor="#666666"
     borderopacity="1"
     objecttolerance="10"
     gridtolerance="10"
     guidetolerance="10"
     inkscape:pageopacity="0"
     inkscape:pageshadow="2"
     inkscape:window-width="1366"
     inkscape:window-height="709"
     id="namedview15504"
     showgrid="false"
     inkscape:zoom="0.4609375"
     inkscape:cx="-8.6779661"
     inkscape:cy="237.55932"
     inkscape:window-x="-2"
     inkscape:window-y="-3"
     inkscape:window-maximized="1"
     inkscape:current-layer="svg2" />
  <g
     id="g18860"
     transform="translate(765.83051,-28.20339)">
    <rect
       id="rect15450"
       height="512"
       rx="25.988001"
       width="512"
       style="fill:#55405f"
       x="-765.83051"
       y="28.20289" />
    <g
       transform="translate(-765.83051,28.20289)"
       id="g15498">
      <path
         id="path15500"
         d="M 141.5,148.48 C 85.824,148.48 41,193.341 41,249.02 l 0,13.961 -0.002,0 c 0,27.85 11.213,52.99 29.393,71.17 l 177.85,177.85 237.77,0 c 14.397,0 25.988,-11.591 25.988,-25.988 l 0,-237.77 -70.39,-70.39 c -18.16,-18.16 -43.27,-29.364 -71.09,-29.369 l -229.02,0"
         inkscape:connector-curvature="0"
         style="opacity:0.25" />
      <path
         id="path15502"
         d="m 370.5,148.48 c 55.679,0 100.5,44.865 100.5,100.54 l 0,13.962 c 0,55.679 -44.823,100.54 -100.5,100.54 l -229,0 C 85.821,363.522 41,318.657 41,262.982 L 41,249.02 C 41,193.341 85.823,148.48 141.5,148.48 l 229.02,0 m -222.03,28.563 c -43.616,0 -78.962,35.35 -78.962,78.962 0,43.616 35.35,78.962 78.962,78.962 43.616,0 78.962,-35.35 78.962,-78.962 0,-43.616 -35.35,-78.962 -78.962,-78.962"
         inkscape:connector-curvature="0"
         style="fill:#ffffff" />
    </g>
  </g>
</svg>
