<svg xmlns="http://www.w3.org/2000/svg" xmlns:svg="http://www.w3.org/2000/svg" id="svg2" version="1.1" viewBox="0 0 512 512"><metadata id="metadata18202"/><g id="g21554" transform="translate(301.55931,-290.71186)"><rect id="rect18138" width="512" height="512" x="-301.561" y="290.706" rx="25.988" style="fill:#f38725"/><g id="g18192" transform="translate(-301.56132,290.70636)" style="fill-rule:evenodd"><path id="path18194" d="m 256,105.28 -63.781,124.28 0.004,0.004 16.871,32.881 -104.31,-104.31 -63.781,124.31 0.004,0.004 63.779,124.28 0,0.002 105.28,105.28 275.95,0 c 14.397,0 25.988,-11.591 25.988,-25.988 l 0,-223.1 -104.78,-104.78 -33.36,65.01 -117.86,-117.86" style="opacity:.25"/><path id="path18196" d="M 256,105.28 192.219,229.56 256,353.87 319.781,229.56 256,105.28 m -151.22,52.844 -63.781,124.31 63.781,124.28 63.781,-124.28 -63.781,-124.31 m 302.44,0 -63.781,124.31 63.781,124.28 63.781,-124.28 -63.781,-124.31" style="fill:#fff"/></g></g></svg>