<svg xmlns="http://www.w3.org/2000/svg" viewBox="0 0 512 512"><defs><clipPath><rect y="6" x="6" rx="6" height="84" width="84" style="fill:#fff"/></clipPath><clipPath><rect y="6" x="6" rx="6" height="84" width="84" style="fill:#fff"/></clipPath><clipPath><rect y="6" x="6" rx="6" height="84" width="84" style="fill:#fff"/></clipPath><clipPath><rect y="6" x="6" rx="6" height="84" width="84" style="fill:#fff"/></clipPath><clipPath><rect y="6" x="6" rx="6" height="84" width="84" style="fill:#fff"/></clipPath><filter style="color-interpolation-filters:sRGB"><feGaussianBlur stdDeviation="1.71"/></filter><filter height="1.384" width="1.384" y="-.192" x="-.192" style="color-interpolation-filters:sRGB"><feGaussianBlur stdDeviation="5.28"/></filter><linearGradient gradientUnits="userSpaceOnUse" y2="138.66" x2="0" y1="20.221"><stop style="stop-color:#fff"/><stop offset="1" style="stop-color:#fff;stop-opacity:0"/></linearGradient><linearGradient gradientUnits="userSpaceOnUse" gradientTransform="scale(1.0059.99417)" y1="92.54" x2="0" y2="7.02"><stop/><stop offset="1" style="stop-opacity:.588"/></linearGradient></defs><path d="m26 0c-14.397 0-26 11.603-26 26v460c0 14.397 11.603 26 26 26h460c14.397 0 26-11.603 26-26v-460c0-14.397-11.603-26-26-26h-460" style="fill:#0078ad"/><text x="-235.1" y="168.28" line-height="125%" style="letter-spacing:0;word-spacing:0;font-size:129.23;font-family:&apos;Gentium Book Basic&apos;"><tspan x="-235.1" y="168.28"/></text><text x="138.49" y="326.11" transform="scale(4.0128.2492)" style="font-size:46.954;font-family:Arial;text-anchor:middle"/><text x="346.17" y="88.28" line-height="125%" style="letter-spacing:0;word-spacing:0;font-size:129.23;font-family:&apos;Gentium Book Basic&apos;"><tspan x="346.17" y="88.28"/></text><text x="283.34" y="5.071" transform="scale(4.0128.2492)" style="font-size:46.954;font-family:Arial;text-anchor:middle"/><text x="-725.41" y="-92.98" line-height="125%" style="letter-spacing:0;word-spacing:0;font-size:129.23;font-family:&apos;Gentium Book Basic&apos;"><tspan x="-725.41" y="-92.98"/></text><text x="16.305" y="-722.27" transform="scale(4.0128.2492)" style="font-size:46.954;font-family:Arial;text-anchor:middle"/><text x="372.64" y="-309.45" line-height="125%" style="letter-spacing:0;word-spacing:0;font-size:129.23;font-family:&apos;Gentium Book Basic&apos;"><tspan x="372.64" y="-309.45"/></text><text x="289.94" y="-1590.95" transform="scale(4.0128.2492)" style="font-size:46.954;font-family:Arial;text-anchor:middle"/><text x="953.91" y="-389.45" line-height="125%" style="letter-spacing:0;word-spacing:0;font-size:129.23;font-family:&apos;Gentium Book Basic&apos;"><tspan x="953.91" y="-389.45"/></text><text x="434.79" y="-1911.98" transform="scale(4.0128.2492)" style="font-size:46.954;font-family:Arial;text-anchor:middle"/><text x="564.79" y="-861.85" line-height="125%" style="letter-spacing:0;word-spacing:0;font-size:129.23;font-family:&apos;Gentium Book Basic&apos;"><tspan x="564.79" y="-861.85"/></text><text x="337.82" y="-3807.63" transform="scale(4.0128.2492)" style="font-size:46.954;font-family:Arial;text-anchor:middle"/><text x="1146.05" y="-941.86" line-height="125%" style="letter-spacing:0;word-spacing:0;font-size:129.23;font-family:&apos;Gentium Book Basic&apos;"><tspan x="1146.05" y="-941.86"/></text><text x="482.67" y="-4128.67" transform="scale(4.0128.2492)" style="font-size:46.954;font-family:Arial;text-anchor:middle"/><text x="-686.75" y="472.86" line-height="125%" style="letter-spacing:0;word-spacing:0;font-size:208.33;font-family:&apos;Gentium Book Basic&apos;"><tspan x="-686.75" y="472.86"/></text><path d="m396.26 182.06c-13.591 0-25.342 7.232-31.65 17.906l-15.797-15.797h-65.51c-8.619 0-16.588 2.499-23.309 6.926l-6.926-6.926h-67.19c-8.912 0-17.303 2.868-24.26 7.65l-7.65-7.65h-62.994c-27.29 0-49.921 22.05-49.975 51.24 0 13.599 5.885 25.774 14.283 34.857h-14.283v59.676l182.06 182.06h262.94c14.397 0 26-11.603 26-26v-203.8l-89.19-89.19c-6.734-6.734-16.13-10.927-26.537-10.934l-.014-.014" style="opacity:.25"/><path d="m396.26 182.06c-15.534 0-28.662 9.447-34.01 22.683l-13.438 41.16v-61.732h-65.51c-11.812 0-22.414 4.676-30.23 12.604v-12.604h-67.19c-12.497 0-23.986 5.617-31.914 14.284v-14.284h-62.995c-27.29 0-49.92 22.05-49.974 51.24 0 13.599 5.886 25.773 14.284 34.857h-14.284v59.676h63.828c17.899-.054 35.435-11.395 41.576-24.832l.417-.363c7.135 14.848 21.836 25.2 39.05 25.2h67.19v-13.07c7.874 7.982 18.369 13.07 30.23 13.07h187.71l-40.31-125.18c-5.509-13.276-18.839-22.683-34.44-22.683m-4.206 10.495c1.465-.215 2.674 0 4.206 0 12.12 0 22.521 7.458 25.612 18.06l35.27 108.76h-68.03v-17.213h44.935l-28.971-88.61c-1.411-3.467-4.932-5.886-8.815-5.886-3.883 0-6.988 2.782-8.398 6.302l-34.857 105.4h-69.71c-18.638 0-33.594-15.587-33.594-34.857v-55.43c0-19.269 14.956-34.857 33.594-34.857h55.846v17.643h-55.846c-9.285 0-16.797 7.565-16.797 17.213v55.43c0 9.662 7.928 17.643 17.213 17.643h38.22v-47.45h-30.651v-17.11h47.878v69.18l31.914-96.05c2.728-9.285 10.871-16.528 21-18.17m-301.51 1.68h53.75v17.684h-53.75c-12.551 0-22.682 10.548-22.682 23.516 0 13.02 10.08 23.516 22.682 23.516h13.854c10.387 0 18.893 9.03 18.893 19.74 0 10.763-8.506 19.363-18.893 19.363h-53.75v-17.213h53.75c1.048 0 2.096-.994 2.096-2.096 0-1.102-1.048-2.096-2.096-2.096h-13.854c-21.943 0-39.896-18.423-39.896-41.16 0-22.723 17.952-41.2 39.896-41.2m95.33 0h57.53v17.684h-57.53c-9.339 0-16.797 7.767-16.797 17.213v55.43c0 9.769 7.458 17.643 16.797 17.643h57.11v17.213h-57.11c-18.692 0-33.594-15.587-33.594-34.857v-55.43c0-19.323 14.902-34.911 33.594-34.911m210.38 17.684c2.419 0 4.73 1.572 5.456 3.776l26.875 82.3h-39.479v-15.534l-12.174 36.953h-19.74l34.01-103.72c.739-2.204 2.62-3.776 5.04-3.776m-305.7 4.206h53.75v17.213h-53.75c-1.102 0-2.096.941-2.096 2.096 0 1.156.994 2.096 2.096 2.096h13.854c21.997 0 39.896 18.423 39.896 41.16 0 22.683-17.899 41.16-39.896 41.16h-53.75v-17.643h53.75c12.604 0 23.1-10.548 23.1-23.516 0-12.967-10.495-23.516-23.1-23.516l-13.854-.417c-10.387 0-18.893-8.56-18.893-19.323 0-10.71 8.506-19.363 18.893-19.363m95.33 0h57.53v17.213h-49.598c-3.991 0-3.722 4.246-3.722 4.246h41.16v17.16h-57.956v-25.558c0-7.35 5.402-13.07 12.604-13.07m97.42 0h55.846v17.213h-47.918c-3.991.108-3.722 4.246-3.722 4.246v38.996c0 2.258 1.626 4.246 3.722 4.246h10.08v-4.246h-10.08v-17.643h26.875v39.05h-34.857c-7.135 0-12.604-6.03-12.604-13.438v-55.43c0-7.404 5.456-13.07 12.604-13.07m-110.03 42.879h57.956v17.643h-41.16c.054 4.152 3.776 4.246 3.776 4.246h49.13v17.213h-57.11c-7.082 0-12.604-6.087-12.604-13.438m222.98-23.986l-5.926 18.06h11.758" style="fill:#fff"/></svg>