<svg xmlns="http://www.w3.org/2000/svg" viewBox="0 0 512 512"><defs><clipPath><rect y="6" x="6" rx="6" height="84" width="84" style="fill:#fff"/></clipPath><clipPath><rect y="6" x="6" rx="6" height="84" width="84" style="fill:#fff"/></clipPath><clipPath><rect y="6" x="6" rx="6" height="84" width="84" style="fill:#fff"/></clipPath><clipPath><rect y="6" x="6" rx="6" height="84" width="84" style="fill:#fff"/></clipPath><clipPath><rect y="6" x="6" rx="6" height="84" width="84" style="fill:#fff"/></clipPath><filter style="color-interpolation-filters:sRGB"><feGaussianBlur stdDeviation="1.71"/></filter><filter height="1.384" width="1.384" y="-.192" x="-.192" style="color-interpolation-filters:sRGB"><feGaussianBlur stdDeviation="5.28"/></filter><linearGradient gradientUnits="userSpaceOnUse" y2="138.66" x2="0" y1="20.221"><stop style="stop-color:#fff"/><stop offset="1" style="stop-color:#fff;stop-opacity:0"/></linearGradient><linearGradient gradientUnits="userSpaceOnUse" gradientTransform="scale(1.0059.99417)" y1="92.54" x2="0" y2="7.02"><stop/><stop offset="1" style="stop-opacity:.588"/></linearGradient></defs><text x="-235.1" y="168.28" line-height="125%" style="letter-spacing:0;word-spacing:0;font-size:129.23;font-family:&apos;Gentium Book Basic&apos;"><tspan x="-235.1" y="168.28"/></text><text x="138.49" y="326.11" transform="scale(4.0128.2492)" style="font-size:46.954;font-family:Arial;text-anchor:middle"/><text x="346.17" y="88.28" line-height="125%" style="letter-spacing:0;word-spacing:0;font-size:129.23;font-family:&apos;Gentium Book Basic&apos;"><tspan x="346.17" y="88.28"/></text><text x="283.34" y="5.071" transform="scale(4.0128.2492)" style="font-size:46.954;font-family:Arial;text-anchor:middle"/><text x="-725.41" y="-92.98" line-height="125%" style="letter-spacing:0;word-spacing:0;font-size:129.23;font-family:&apos;Gentium Book Basic&apos;"><tspan x="-725.41" y="-92.98"/></text><text x="16.305" y="-722.27" transform="scale(4.0128.2492)" style="font-size:46.954;font-family:Arial;text-anchor:middle"/><text x="372.64" y="-309.45" line-height="125%" style="letter-spacing:0;word-spacing:0;font-size:129.23;font-family:&apos;Gentium Book Basic&apos;"><tspan x="372.64" y="-309.45"/></text><text x="289.94" y="-1590.95" transform="scale(4.0128.2492)" style="font-size:46.954;font-family:Arial;text-anchor:middle"/><text x="953.91" y="-389.45" line-height="125%" style="letter-spacing:0;word-spacing:0;font-size:129.23;font-family:&apos;Gentium Book Basic&apos;"><tspan x="953.91" y="-389.45"/></text><text x="434.79" y="-1911.98" transform="scale(4.0128.2492)" style="font-size:46.954;font-family:Arial;text-anchor:middle"/><text x="564.79" y="-861.85" line-height="125%" style="letter-spacing:0;word-spacing:0;font-size:129.23;font-family:&apos;Gentium Book Basic&apos;"><tspan x="564.79" y="-861.85"/></text><text x="337.82" y="-3807.63" transform="scale(4.0128.2492)" style="font-size:46.954;font-family:Arial;text-anchor:middle"/><text x="1146.05" y="-941.86" line-height="125%" style="letter-spacing:0;word-spacing:0;font-size:129.23;font-family:&apos;Gentium Book Basic&apos;"><tspan x="1146.05" y="-941.86"/></text><text x="482.67" y="-4128.67" transform="scale(4.0128.2492)" style="font-size:46.954;font-family:Arial;text-anchor:middle"/><text x="-686.75" y="472.86" line-height="125%" style="letter-spacing:0;word-spacing:0;font-size:208.33;font-family:&apos;Gentium Book Basic&apos;"><tspan x="-686.75" y="472.86"/></text><rect width="512" height="512" rx="25.988" style="fill:#e75177"/><g transform="translate(-682.47-47.744)" line-height="125%" style="letter-spacing:0;word-spacing:0;font-size:208.33;font-family:&apos;Gentium Book Basic&apos;"><text x="550.11" y="79.28"><tspan x="550.11" y="79.28"/></text><text x="-1808.72" y="357.4"><tspan x="-1808.72" y="357.4"/></text><text x="-1520.5" y="130.11"><tspan x="-1520.5" y="130.11"/></text><text x="2674.1" y="-126.79"><tspan x="2674.1" y="-126.79"/></text></g><text x="47.17" y="183.62" line-height="125%" style="letter-spacing:0;word-spacing:0;font-size:129.23;font-family:&apos;Gentium Book Basic&apos;"><tspan x="47.17" y="183.62"/></text><text x="208.84" y="387.66" transform="scale(4.0128.2492)" style="font-size:46.954;font-family:Arial;text-anchor:middle"/><text x="628.44" y="103.62" line-height="125%" style="letter-spacing:0;word-spacing:0;font-size:129.23;font-family:&apos;Gentium Book Basic&apos;"><tspan x="628.44" y="103.62"/></text><text x="353.69" y="66.63" transform="scale(4.0128.2492)" style="font-size:46.954;font-family:Arial;text-anchor:middle"/><text x="-443.14" y="-77.65" line-height="125%" style="letter-spacing:0;word-spacing:0;font-size:129.23;font-family:&apos;Gentium Book Basic&apos;"><tspan x="-443.14" y="-77.65"/></text><text x="86.65" y="-660.73" transform="scale(4.0128.2492)" style="font-size:46.954;font-family:Arial;text-anchor:middle"/><text x="654.91" y="-294.11" line-height="125%" style="letter-spacing:0;word-spacing:0;font-size:129.23;font-family:&apos;Gentium Book Basic&apos;"><tspan x="654.91" y="-294.11"/></text><text x="360.29" y="-1529.38" transform="scale(4.0128.2492)" style="font-size:46.954;font-family:Arial;text-anchor:middle"/><text x="1236.18" y="-374.12" line-height="125%" style="letter-spacing:0;word-spacing:0;font-size:129.23;font-family:&apos;Gentium Book Basic&apos;"><tspan x="1236.18" y="-374.12"/></text><text x="505.13" y="-1850.42" transform="scale(4.0128.2492)" style="font-size:46.954;font-family:Arial;text-anchor:middle"/><text x="847.06" y="-846.52" line-height="125%" style="letter-spacing:0;word-spacing:0;font-size:129.23;font-family:&apos;Gentium Book Basic&apos;"><tspan x="847.06" y="-846.52"/></text><text x="408.16" y="-3746.06" transform="scale(4.0128.2492)" style="font-size:46.954;font-family:Arial;text-anchor:middle"/><text x="1428.32" y="-926.52" line-height="125%" style="letter-spacing:0;word-spacing:0;font-size:129.23;font-family:&apos;Gentium Book Basic&apos;"><tspan x="1428.32" y="-926.52"/></text><text x="553.01" y="-4067.09" transform="scale(4.0128.2492)" style="font-size:46.954;font-family:Arial;text-anchor:middle"/><text x="-404.48" y="488.2" line-height="125%" style="letter-spacing:0;word-spacing:0;font-size:208.33;font-family:&apos;Gentium Book Basic&apos;"><tspan x="-404.48" y="488.2"/></text><path d="m164.82 132.21l29.914 29.914c-.005-.001-.009-.002-.014-.004l-29.9-29.9c-68.36 0-123.82 55.43-123.82 123.78 0 34.17 13.859 65.11 36.26 87.51l168.49 168.49h240.26c14.397 0 25.988-11.591 25.988-25.988v-222.8l-64.881-64.881c-14.757-14.757-35.14-23.885-57.656-23.885l81.54 81.54v.006l-81.54-81.54c-35.472 0-65.64 22.664-76.857 54.29l-60.29-60.29c-22.389-22.389-53.32-36.24-87.49-36.24" style="opacity:.25"/><path d="m164.82 132.22c-68.36 0-123.82 55.43-123.82 123.78 0 68.35 55.46 123.78 123.82 123.78 68.36 0 123.75-55.43 123.75-123.78 0-68.35-55.38-123.78-123.75-123.78m-.039 25.26c54.41 0 98.51 44.13 98.51 98.51 0 54.4-44.11 98.51-98.51 98.51-54.41 0-98.51-44.13-98.51-98.51 0-54.4 44.11-98.51 98.51-98.51m224.67 16.973c-45.03 0-81.54 36.512-81.54 81.54 0 45.03 36.512 81.54 81.54 81.54 45.03 0 81.54-36.512 81.54-81.54 0-45.03-36.512-81.54-81.54-81.54m0 25.26c31.08 0 56.29 25.2 56.29 56.29 0 31.08-25.2 56.29-56.29 56.29-31.08 0-56.29-25.2-56.29-56.29 0-31.08 25.2-56.29 56.29-56.29" style="fill:#fff"/></svg>