<svg xmlns="http://www.w3.org/2000/svg" xmlns:svg="http://www.w3.org/2000/svg" id="svg2" version="1.1" viewBox="0 0 512 512"><metadata id="metadata124"/><g id="g3473" transform="translate(371.38028,-394.8169)"><rect id="rect50" width="512" height="512" x="-371.38" y="394.817" rx="25.988" style="fill:#e75177"/><path id="path116" d="m -206.56028,527.0269 29.914,29.914 c -0.005,-0.001 -0.009,-0.002 -0.014,-0.004 l -29.9,-29.9 c -68.36,0 -123.82,55.43 -123.82,123.78 0,34.17 13.859,65.11 36.26,87.51 l 168.49,168.49 240.26,0 c 14.397,0 25.988,-11.591 25.988,-25.988 l 0,-222.8 -64.881002,-64.881 c -14.757,-14.757 -35.14,-23.885 -57.656,-23.885 l 81.54,81.54 0,0.006 -81.54,-81.54 c -35.472,0 -65.64,22.664 -76.857,54.29 l -60.289998,-60.29 c -22.389,-22.389 -53.32,-36.24 -87.49,-36.24" style="opacity:.25"/><path id="path118" d="m -206.56028,527.0369 c -68.36,0 -123.82,55.43 -123.82,123.78 0,68.35 55.46,123.78 123.82,123.78 68.36,0 123.749998,-55.43 123.749998,-123.78 0,-68.35 -55.379998,-123.78 -123.749998,-123.78 m -0.039,25.26 c 54.41,0 98.51,44.13 98.51,98.51 0,54.4 -44.11,98.51 -98.51,98.51 -54.41,0 -98.51,-44.13 -98.51,-98.51 0,-54.4 44.11,-98.51 98.51,-98.51 m 224.669998,16.973 c -45.03,0 -81.54,36.512 -81.54,81.54 0,45.03 36.512,81.54 81.54,81.54 45.03,0 81.54,-36.512 81.54,-81.54 0,-45.03 -36.512,-81.54 -81.54,-81.54 m 0,25.26 c 31.08,0 56.29,25.2 56.29,56.29 0,31.08 -25.2,56.29 -56.29,56.29 -31.08,0 -56.29,-25.2 -56.29,-56.29 0,-31.08 25.2,-56.29 56.29,-56.29" style="fill:#fff"/></g></svg>