<?xml version="1.0" encoding="UTF-8" standalone="no"?>
<svg xmlns="http://www.w3.org/2000/svg" viewBox="0 0 512 512">
 <text style="word-spacing:0;letter-spacing:0" font-size="129.23" y="168.28" x="-235.1" font-family="&apos;Gentium Book Basic&apos;" line-height="125%">
  <tspan y="168.28" x="-235.1"/>
 </text>
 <text style="text-anchor:middle" transform="scale(4.0128.2492)" font-size="46.954" y="326.11" x="138.49" font-family="Arial"/>
 <text style="word-spacing:0;letter-spacing:0" font-size="129.23" y="88.28" x="346.17" font-family="&apos;Gentium Book Basic&apos;" line-height="125%">
  <tspan y="88.28" x="346.17"/>
 </text>
 <text style="text-anchor:middle" transform="scale(4.0128.2492)" font-size="46.954" y="5.071" x="283.34" font-family="Arial"/>
 <text style="word-spacing:0;letter-spacing:0" font-size="129.23" y="-92.98" x="-725.41" font-family="&apos;Gentium Book Basic&apos;" line-height="125%">
  <tspan y="-92.98" x="-725.41"/>
 </text>
 <text style="text-anchor:middle" transform="scale(4.0128.2492)" font-size="46.954" y="-722.27" x="16.305" font-family="Arial"/>
 <text style="word-spacing:0;letter-spacing:0" font-size="129.23" y="-309.45" x="372.64" font-family="&apos;Gentium Book Basic&apos;" line-height="125%">
  <tspan y="-309.45" x="372.64"/>
 </text>
 <text style="text-anchor:middle" transform="scale(4.0128.2492)" font-size="46.954" y="-1590.95" x="289.94" font-family="Arial"/>
 <text style="word-spacing:0;letter-spacing:0" font-size="129.23" y="-389.45" x="953.91" font-family="&apos;Gentium Book Basic&apos;" line-height="125%">
  <tspan y="-389.45" x="953.91"/>
 </text>
 <text style="text-anchor:middle" transform="scale(4.0128.2492)" font-size="46.954" y="-1911.98" x="434.79" font-family="Arial"/>
 <text style="word-spacing:0;letter-spacing:0" font-size="129.23" y="-861.85" x="564.79" font-family="&apos;Gentium Book Basic&apos;" line-height="125%">
  <tspan y="-861.85" x="564.79"/>
 </text>
 <text style="text-anchor:middle" transform="scale(4.0128.2492)" font-size="46.954" y="-3807.63" x="337.82" font-family="Arial"/>
 <text style="word-spacing:0;letter-spacing:0" font-size="129.23" y="-941.86" x="1146.05" font-family="&apos;Gentium Book Basic&apos;" line-height="125%">
  <tspan y="-941.86" x="1146.05"/>
 </text>
 <text style="text-anchor:middle" transform="scale(4.0128.2492)" font-size="46.954" y="-4128.67" x="482.67" font-family="Arial"/>
 <text style="word-spacing:0;letter-spacing:0" font-size="208.33" y="472.86" x="-686.75" font-family="&apos;Gentium Book Basic&apos;" line-height="125%">
  <tspan y="472.86" x="-686.75"/>
 </text>
 <rect width="512" fill="#e75177" rx="25.988" height="512"/>
 <g style="word-spacing:0;letter-spacing:0" font-family="&apos;Gentium Book Basic&apos;" transform="translate(-682.47-47.744)" font-size="208.33" line-height="125%">
  <text y="79.28" x="550.11">
   <tspan y="79.28" x="550.11"/>
  </text>
  <text y="357.4" x="-1808.72">
   <tspan y="357.4" x="-1808.72"/>
  </text>
  <text y="130.11" x="-1520.5">
   <tspan y="130.11" x="-1520.5"/>
  </text>
  <text y="-126.79" x="2674.1">
   <tspan y="-126.79" x="2674.1"/>
  </text>
 </g>
 <text style="word-spacing:0;letter-spacing:0" font-size="129.23" y="183.62" x="47.17" font-family="&apos;Gentium Book Basic&apos;" line-height="125%">
  <tspan y="183.62" x="47.17"/>
 </text>
 <text style="text-anchor:middle" transform="scale(4.0128.2492)" font-size="46.954" y="387.66" x="208.84" font-family="Arial"/>
 <text style="word-spacing:0;letter-spacing:0" font-size="129.23" y="103.62" x="628.44" font-family="&apos;Gentium Book Basic&apos;" line-height="125%">
  <tspan y="103.62" x="628.44"/>
 </text>
 <text style="text-anchor:middle" transform="scale(4.0128.2492)" font-size="46.954" y="66.63" x="353.69" font-family="Arial"/>
 <text style="word-spacing:0;letter-spacing:0" font-size="129.23" y="-77.65" x="-443.14" font-family="&apos;Gentium Book Basic&apos;" line-height="125%">
  <tspan y="-77.65" x="-443.14"/>
 </text>
 <text style="text-anchor:middle" transform="scale(4.0128.2492)" font-size="46.954" y="-660.73" x="86.65" font-family="Arial"/>
 <text style="word-spacing:0;letter-spacing:0" font-size="129.23" y="-294.11" x="654.91" font-family="&apos;Gentium Book Basic&apos;" line-height="125%">
  <tspan y="-294.11" x="654.91"/>
 </text>
 <text style="text-anchor:middle" transform="scale(4.0128.2492)" font-size="46.954" y="-1529.38" x="360.29" font-family="Arial"/>
 <text style="word-spacing:0;letter-spacing:0" font-size="129.23" y="-374.12" x="1236.18" font-family="&apos;Gentium Book Basic&apos;" line-height="125%">
  <tspan y="-374.12" x="1236.18"/>
 </text>
 <text style="text-anchor:middle" transform="scale(4.0128.2492)" font-size="46.954" y="-1850.42" x="505.13" font-family="Arial"/>
 <text style="word-spacing:0;letter-spacing:0" font-size="129.23" y="-846.52" x="847.06" font-family="&apos;Gentium Book Basic&apos;" line-height="125%">
  <tspan y="-846.52" x="847.06"/>
 </text>
 <text style="text-anchor:middle" transform="scale(4.0128.2492)" font-size="46.954" y="-3746.06" x="408.16" font-family="Arial"/>
 <text style="word-spacing:0;letter-spacing:0" font-size="129.23" y="-926.52" x="1428.32" font-family="&apos;Gentium Book Basic&apos;" line-height="125%">
  <tspan y="-926.52" x="1428.32"/>
 </text>
 <text style="text-anchor:middle" transform="scale(4.0128.2492)" font-size="46.954" y="-4067.09" x="553.01" font-family="Arial"/>
 <text style="word-spacing:0;letter-spacing:0" font-size="208.33" y="488.2" x="-404.48" font-family="&apos;Gentium Book Basic&apos;" line-height="125%">
  <tspan y="488.2" x="-404.48"/>
 </text>
 <path opacity=".25" d="m164.82 132.21l29.914 29.914c-0.005-0.001-0.009-0.002-0.014-0.004l-29.9-29.9c-68.36 0-123.82 55.43-123.82 123.78 0 34.17 13.859 65.11 36.26 87.51l168.49 168.49h240.26c14.397 0 25.988-11.591 25.988-25.988v-222.8l-64.881-64.881c-14.757-14.757-35.14-23.885-57.656-23.885l81.54 81.54v0.006l-81.54-81.54c-35.472 0-65.64 22.664-76.857 54.29l-60.29-60.29c-22.389-22.389-53.32-36.24-87.49-36.24"/>
 <path d="m164.82 132.22c-68.36 0-123.82 55.43-123.82 123.78s55.46 123.78 123.82 123.78 123.75-55.43 123.75-123.78-55.38-123.78-123.75-123.78m-0.039 25.26c54.41 0 98.51 44.13 98.51 98.51 0 54.4-44.11 98.51-98.51 98.51-54.41 0-98.51-44.13-98.51-98.51 0-54.4 44.11-98.51 98.51-98.51m224.67 16.973c-45.03 0-81.54 36.512-81.54 81.54 0 45.03 36.512 81.54 81.54 81.54 45.03 0 81.54-36.512 81.54-81.54 0-45.03-36.512-81.54-81.54-81.54m0 25.26c31.08 0 56.29 25.2 56.29 56.29 0 31.08-25.2 56.29-56.29 56.29-31.08 0-56.29-25.2-56.29-56.29 0-31.08 25.2-56.29 56.29-56.29" fill="#fff"/>
</svg>
