<?xml version="1.0" encoding="UTF-8" standalone="no"?>
<svg xmlns="http://www.w3.org/2000/svg" viewBox="0 0 512 512">
 <text style="word-spacing:0;letter-spacing:0" font-size="129.23" y="168.28" x="-235.1" font-family="&apos;Gentium Book Basic&apos;" line-height="125%">
  <tspan y="168.28" x="-235.1"/>
 </text>
 <text style="text-anchor:middle" transform="scale(4.0128.2492)" font-size="46.954" y="326.11" x="138.49" font-family="Arial"/>
 <text style="word-spacing:0;letter-spacing:0" font-size="129.23" y="88.28" x="346.17" font-family="&apos;Gentium Book Basic&apos;" line-height="125%">
  <tspan y="88.28" x="346.17"/>
 </text>
 <text style="text-anchor:middle" transform="scale(4.0128.2492)" font-size="46.954" y="5.071" x="283.34" font-family="Arial"/>
 <text style="word-spacing:0;letter-spacing:0" font-size="129.23" y="-92.98" x="-725.41" font-family="&apos;Gentium Book Basic&apos;" line-height="125%">
  <tspan y="-92.98" x="-725.41"/>
 </text>
 <text style="text-anchor:middle" transform="scale(4.0128.2492)" font-size="46.954" y="-722.27" x="16.305" font-family="Arial"/>
 <text style="word-spacing:0;letter-spacing:0" font-size="129.23" y="-309.45" x="372.64" font-family="&apos;Gentium Book Basic&apos;" line-height="125%">
  <tspan y="-309.45" x="372.64"/>
 </text>
 <text style="text-anchor:middle" transform="scale(4.0128.2492)" font-size="46.954" y="-1590.95" x="289.94" font-family="Arial"/>
 <text style="word-spacing:0;letter-spacing:0" font-size="129.23" y="-389.45" x="953.91" font-family="&apos;Gentium Book Basic&apos;" line-height="125%">
  <tspan y="-389.45" x="953.91"/>
 </text>
 <text style="text-anchor:middle" transform="scale(4.0128.2492)" font-size="46.954" y="-1911.98" x="434.79" font-family="Arial"/>
 <text style="word-spacing:0;letter-spacing:0" font-size="129.23" y="-861.85" x="564.79" font-family="&apos;Gentium Book Basic&apos;" line-height="125%">
  <tspan y="-861.85" x="564.79"/>
 </text>
 <text style="text-anchor:middle" transform="scale(4.0128.2492)" font-size="46.954" y="-3807.63" x="337.82" font-family="Arial"/>
 <text style="word-spacing:0;letter-spacing:0" font-size="129.23" y="-941.86" x="1146.05" font-family="&apos;Gentium Book Basic&apos;" line-height="125%">
  <tspan y="-941.86" x="1146.05"/>
 </text>
 <text style="text-anchor:middle" transform="scale(4.0128.2492)" font-size="46.954" y="-4128.67" x="482.67" font-family="Arial"/>
 <g style="word-spacing:0;letter-spacing:0" font-family="&apos;Gentium Book Basic&apos;" line-height="125%">
  <text y="472.86" x="-686.75" font-size="208.33">
   <tspan y="472.86" x="-686.75"/>
  </text>
  <g font-size="0">
   <text y="31.536" x="-132.36">
    <tspan y="31.536" x="-132.36"/>
   </text>
   <text y="309.66" x="-2491.19">
    <tspan y="309.66" x="-2491.19"/>
   </text>
   <text y="82.37" x="-2202.97">
    <tspan y="82.37" x="-2202.97"/>
   </text>
   <text y="-174.53" x="1991.63">
    <tspan y="-174.53" x="1991.63"/>
   </text>
  </g>
  <text y="183.62" x="47.17" font-size="129.23">
   <tspan y="183.62" x="47.17"/>
  </text>
 </g>
 <text style="text-anchor:middle" transform="scale(4.0128.2492)" font-size="46.954" y="387.66" x="208.84" font-family="Arial"/>
 <text style="word-spacing:0;letter-spacing:0" font-size="129.23" y="103.62" x="628.44" font-family="&apos;Gentium Book Basic&apos;" line-height="125%">
  <tspan y="103.62" x="628.44"/>
 </text>
 <text style="text-anchor:middle" transform="scale(4.0128.2492)" font-size="46.954" y="66.63" x="353.69" font-family="Arial"/>
 <text style="word-spacing:0;letter-spacing:0" font-size="129.23" y="-77.65" x="-443.14" font-family="&apos;Gentium Book Basic&apos;" line-height="125%">
  <tspan y="-77.65" x="-443.14"/>
 </text>
 <text style="text-anchor:middle" transform="scale(4.0128.2492)" font-size="46.954" y="-660.73" x="86.65" font-family="Arial"/>
 <text style="word-spacing:0;letter-spacing:0" font-size="129.23" y="-294.11" x="654.91" font-family="&apos;Gentium Book Basic&apos;" line-height="125%">
  <tspan y="-294.11" x="654.91"/>
 </text>
 <text style="text-anchor:middle" transform="scale(4.0128.2492)" font-size="46.954" y="-1529.38" x="360.29" font-family="Arial"/>
 <text style="word-spacing:0;letter-spacing:0" font-size="129.23" y="-374.12" x="1236.18" font-family="&apos;Gentium Book Basic&apos;" line-height="125%">
  <tspan y="-374.12" x="1236.18"/>
 </text>
 <text style="text-anchor:middle" transform="scale(4.0128.2492)" font-size="46.954" y="-1850.42" x="505.13" font-family="Arial"/>
 <text style="word-spacing:0;letter-spacing:0" font-size="129.23" y="-846.52" x="847.06" font-family="&apos;Gentium Book Basic&apos;" line-height="125%">
  <tspan y="-846.52" x="847.06"/>
 </text>
 <text style="text-anchor:middle" transform="scale(4.0128.2492)" font-size="46.954" y="-3746.06" x="408.16" font-family="Arial"/>
 <text style="word-spacing:0;letter-spacing:0" font-size="129.23" y="-926.52" x="1428.32" font-family="&apos;Gentium Book Basic&apos;" line-height="125%">
  <tspan y="-926.52" x="1428.32"/>
 </text>
 <text style="text-anchor:middle" transform="scale(4.0128.2492)" font-size="46.954" y="-4067.09" x="553.01" font-family="Arial"/>
 <text style="word-spacing:0;letter-spacing:0" font-size="208.33" y="488.2" x="-404.48" font-family="&apos;Gentium Book Basic&apos;" line-height="125%">
  <tspan y="488.2" x="-404.48"/>
 </text>
 <rect width="512" fill="#62c0dc" rx="25.988" height="512"/>
 <text style="word-spacing:0;letter-spacing:0" font-size="129.23" y="189.75" x="172.96" font-family="&apos;Gentium Book Basic&apos;" line-height="125%">
  <tspan y="189.75" x="172.96"/>
 </text>
 <text style="text-anchor:middle" transform="scale(4.0128.2492)" font-size="46.954" y="412.28" x="240.18" font-family="Arial"/>
 <text style="word-spacing:0;letter-spacing:0" font-size="129.23" y="109.75" x="754.23" font-family="&apos;Gentium Book Basic&apos;" line-height="125%">
  <tspan y="109.75" x="754.23"/>
 </text>
 <text style="text-anchor:middle" transform="scale(4.0128.2492)" font-size="46.954" y="91.25" x="385.03" font-family="Arial"/>
 <text style="word-spacing:0;letter-spacing:0" font-size="129.23" y="-71.51" x="-317.35" font-family="&apos;Gentium Book Basic&apos;" line-height="125%">
  <tspan y="-71.51" x="-317.35"/>
 </text>
 <text style="text-anchor:middle" transform="scale(4.0128.2492)" font-size="46.954" y="-636.1" x="117.99" font-family="Arial"/>
 <text style="word-spacing:0;letter-spacing:0" font-size="129.23" y="-287.98" x="780.7" font-family="&apos;Gentium Book Basic&apos;" line-height="125%">
  <tspan y="-287.98" x="780.7"/>
 </text>
 <text style="text-anchor:middle" transform="scale(4.0128.2492)" font-size="46.954" y="-1504.76" x="391.63" font-family="Arial"/>
 <text style="word-spacing:0;letter-spacing:0" font-size="129.23" y="-367.99" x="1361.97" font-family="&apos;Gentium Book Basic&apos;" line-height="125%">
  <tspan y="-367.99" x="1361.97"/>
 </text>
 <text style="text-anchor:middle" transform="scale(4.0128.2492)" font-size="46.954" y="-1825.8" x="536.48" font-family="Arial"/>
 <text style="word-spacing:0;letter-spacing:0" font-size="129.23" y="-840.39" x="972.85" font-family="&apos;Gentium Book Basic&apos;" line-height="125%">
  <tspan y="-840.39" x="972.85"/>
 </text>
 <text style="text-anchor:middle" transform="scale(4.0128.2492)" font-size="46.954" y="-3721.44" x="439.51" font-family="Arial"/>
 <text style="word-spacing:0;letter-spacing:0" font-size="129.23" y="-920.39" x="1554.11" font-family="&apos;Gentium Book Basic&apos;" line-height="125%">
  <tspan y="-920.39" x="1554.11"/>
 </text>
 <text style="text-anchor:middle" transform="scale(4.0128.2492)" font-size="46.954" y="-4042.47" x="584.36" font-family="Arial"/>
 <text style="word-spacing:0;letter-spacing:0" font-size="208.33" y="494.33" x="-278.69" font-family="&apos;Gentium Book Basic&apos;" line-height="125%">
  <tspan y="494.33" x="-278.69"/>
 </text>
 <g>
  <path opacity=".25" d="m242.13 61.813c-25.5 0-46.49 19.843-48.37 44.875l52.08 52.08h-0.012l-52.07-52.07c-4.692 1.899-9.364 3.939-13.996 6.154l-0.004-0.004c-31.876 15.246-58.923 36.486-79.56 61.13-3.425-0.771-6.973-1.189-10.625-1.189l-0.004-0.002c-26.732 0-48.564 21.8-48.564 48.531l0.004 0.004c0.001 13.357 5.469 25.47 14.262 34.27l0.045 0.045 3.033 3.035c-6.069 30.646-3.102 62.04 10.76 91.03l96.08 96.08c-0.002 0.001-0.004 0.001-0.006 0.002l-96.09-96.09c7.03 14.707 16.314 27.619 27.363 38.668l1.48 1.48c-0.956 3.79-1.463 7.738-1.463 11.816l48.533 48.533h-0.008l-48.53-48.53c0 13.358 5.45 25.484 14.24 34.27l76.07 76.07h299.23c14.397 0 25.988-11.591 25.988-25.988v-251.42l-41-41c0-26.732-21.83-48.563-48.563-48.563l0.002 0.002c-2.49 0-4.932 0.198-7.322 0.563l-8.902-8.902c0.06 0.06 0.118 0.122 0.178 0.182l-0.182-0.182c-29.31-29.31-71.07-45.49-116.45-47.29l-13.334-13.334c-8.796-8.796-20.931-14.253-34.29-14.254l-0.004-0.004"/>
  <path d="m242.13 61.813c-25.5 0-46.49 19.843-48.37 44.875-4.693 1.9-9.367 3.94-14 6.156-31.876 15.246-58.922 36.485-79.56 61.13-3.425-0.771-6.973-1.188-10.625-1.188-26.732 0-48.563 21.8-48.563 48.531 0 14.871 6.777 28.2 17.375 37.13-6.127 30.716-3.176 62.19 10.719 91.25 7.346 15.359 17.14 28.759 28.844 40.13-0.96 3.798-1.469 7.756-1.469 11.844 0 26.732 21.831 48.531 48.563 48.531 15.16 0 28.737-7.02 37.656-17.969 44.03 8.395 93.88 2.183 140.25-20 0.093-0.044 0.188-0.08 0.281-0.125 8.248 6.472 18.618 10.344 29.875 10.344 26.732 0 48.563-21.8 48.563-48.531 0-6.305-1.231-12.337-3.438-17.875 31.46-35.37 49.46-78.38 49.13-120.78 14.157-8.496 23.656-24.01 23.656-41.656 0-26.732-21.831-48.563-48.563-48.563-2.714 0-5.374 0.224-7.969 0.656-30.18-35.909-77.26-55.33-128.62-56.41-7.876-16.226-24.53-27.469-43.719-27.469m46.563 62.22c38.451 1.652 72.69 15.785 95.41 39.844-6.386 8.225-10.188 18.545-10.188 29.719 0 23.279 16.544 42.81 38.469 47.47-1.286 30.559-14.527 62.17-37.75 89.34-6.499-3.239-13.804-5.063-21.531-5.063-26.732 0-48.531 21.831-48.531 48.563 0 2.824 0.252 5.587 0.719 8.281-38.07 17.586-77.36 22.451-111.78 16.719-1.434-25.465-22.658-45.813-48.47-45.813-9.782 0-18.922 2.92-26.563 7.938-7.314-7.773-13.432-16.566-18.09-26.313-9.604-20.08-12.219-42.44-8.625-64.906 25.726-1.149 46.34-22.499 46.34-48.5 0-10.403-3.297-20.05-8.906-27.969 16.938-19.441 39.01-36.536 65.53-49.22 3.02-1.443 6.03-2.81 9.06-4.094 8.891 11.463 22.777 18.875 38.34 18.875 21.978 0 40.619-14.771 46.563-34.875" fill="#fff"/>
 </g>
</svg>
