<?xml version="1.0" encoding="UTF-8" standalone="no"?>
<svg xmlns="http://www.w3.org/2000/svg" viewBox="0 0 512 512">
 <text style="word-spacing:0;letter-spacing:0" font-size="129.23" y="168.28" x="-235.1" font-family="&apos;Gentium Book Basic&apos;" line-height="125%">
  <tspan y="168.28" x="-235.1"/>
 </text>
 <text style="text-anchor:middle" transform="scale(4.0128.2492)" font-size="46.954" y="326.11" x="138.49" font-family="Arial"/>
 <text style="word-spacing:0;letter-spacing:0" font-size="129.23" y="88.28" x="346.17" font-family="&apos;Gentium Book Basic&apos;" line-height="125%">
  <tspan y="88.28" x="346.17"/>
 </text>
 <text style="text-anchor:middle" transform="scale(4.0128.2492)" font-size="46.954" y="5.071" x="283.34" font-family="Arial"/>
 <text style="word-spacing:0;letter-spacing:0" font-size="129.23" y="-92.98" x="-725.41" font-family="&apos;Gentium Book Basic&apos;" line-height="125%">
  <tspan y="-92.98" x="-725.41"/>
 </text>
 <text style="text-anchor:middle" transform="scale(4.0128.2492)" font-size="46.954" y="-722.27" x="16.305" font-family="Arial"/>
 <text style="word-spacing:0;letter-spacing:0" font-size="129.23" y="-309.45" x="372.64" font-family="&apos;Gentium Book Basic&apos;" line-height="125%">
  <tspan y="-309.45" x="372.64"/>
 </text>
 <text style="text-anchor:middle" transform="scale(4.0128.2492)" font-size="46.954" y="-1590.95" x="289.94" font-family="Arial"/>
 <text style="word-spacing:0;letter-spacing:0" font-size="129.23" y="-389.45" x="953.91" font-family="&apos;Gentium Book Basic&apos;" line-height="125%">
  <tspan y="-389.45" x="953.91"/>
 </text>
 <text style="text-anchor:middle" transform="scale(4.0128.2492)" font-size="46.954" y="-1911.98" x="434.79" font-family="Arial"/>
 <text style="word-spacing:0;letter-spacing:0" font-size="129.23" y="-861.85" x="564.79" font-family="&apos;Gentium Book Basic&apos;" line-height="125%">
  <tspan y="-861.85" x="564.79"/>
 </text>
 <text style="text-anchor:middle" transform="scale(4.0128.2492)" font-size="46.954" y="-3807.63" x="337.82" font-family="Arial"/>
 <text style="word-spacing:0;letter-spacing:0" font-size="129.23" y="-941.86" x="1146.05" font-family="&apos;Gentium Book Basic&apos;" line-height="125%">
  <tspan y="-941.86" x="1146.05"/>
 </text>
 <text style="text-anchor:middle" transform="scale(4.0128.2492)" font-size="46.954" y="-4128.67" x="482.67" font-family="Arial"/>
 <g style="word-spacing:0;letter-spacing:0" font-family="&apos;Gentium Book Basic&apos;" line-height="125%">
  <text y="472.86" x="-686.75" font-size="208.33">
   <tspan y="472.86" x="-686.75"/>
  </text>
  <g font-size="0">
   <text y="31.536" x="-132.36">
    <tspan y="31.536" x="-132.36"/>
   </text>
   <text y="309.66" x="-2491.19">
    <tspan y="309.66" x="-2491.19"/>
   </text>
   <text y="82.37" x="-2202.97">
    <tspan y="82.37" x="-2202.97"/>
   </text>
   <text y="-174.53" x="1991.63">
    <tspan y="-174.53" x="1991.63"/>
   </text>
  </g>
  <text y="183.62" x="47.17" font-size="129.23">
   <tspan y="183.62" x="47.17"/>
  </text>
 </g>
 <text style="text-anchor:middle" transform="scale(4.0128.2492)" font-size="46.954" y="387.66" x="208.84" font-family="Arial"/>
 <text style="word-spacing:0;letter-spacing:0" font-size="129.23" y="103.62" x="628.44" font-family="&apos;Gentium Book Basic&apos;" line-height="125%">
  <tspan y="103.62" x="628.44"/>
 </text>
 <text style="text-anchor:middle" transform="scale(4.0128.2492)" font-size="46.954" y="66.63" x="353.69" font-family="Arial"/>
 <text style="word-spacing:0;letter-spacing:0" font-size="129.23" y="-77.65" x="-443.14" font-family="&apos;Gentium Book Basic&apos;" line-height="125%">
  <tspan y="-77.65" x="-443.14"/>
 </text>
 <text style="text-anchor:middle" transform="scale(4.0128.2492)" font-size="46.954" y="-660.73" x="86.65" font-family="Arial"/>
 <text style="word-spacing:0;letter-spacing:0" font-size="129.23" y="-294.11" x="654.91" font-family="&apos;Gentium Book Basic&apos;" line-height="125%">
  <tspan y="-294.11" x="654.91"/>
 </text>
 <text style="text-anchor:middle" transform="scale(4.0128.2492)" font-size="46.954" y="-1529.38" x="360.29" font-family="Arial"/>
 <text style="word-spacing:0;letter-spacing:0" font-size="129.23" y="-374.12" x="1236.18" font-family="&apos;Gentium Book Basic&apos;" line-height="125%">
  <tspan y="-374.12" x="1236.18"/>
 </text>
 <text style="text-anchor:middle" transform="scale(4.0128.2492)" font-size="46.954" y="-1850.42" x="505.13" font-family="Arial"/>
 <text style="word-spacing:0;letter-spacing:0" font-size="129.23" y="-846.52" x="847.06" font-family="&apos;Gentium Book Basic&apos;" line-height="125%">
  <tspan y="-846.52" x="847.06"/>
 </text>
 <text style="text-anchor:middle" transform="scale(4.0128.2492)" font-size="46.954" y="-3746.06" x="408.16" font-family="Arial"/>
 <text style="word-spacing:0;letter-spacing:0" font-size="129.23" y="-926.52" x="1428.32" font-family="&apos;Gentium Book Basic&apos;" line-height="125%">
  <tspan y="-926.52" x="1428.32"/>
 </text>
 <text style="text-anchor:middle" transform="scale(4.0128.2492)" font-size="46.954" y="-4067.09" x="553.01" font-family="Arial"/>
 <g style="word-spacing:0;letter-spacing:0" font-family="&apos;Gentium Book Basic&apos;" line-height="125%">
  <text y="488.2" x="-404.48" font-size="208.33">
   <tspan y="488.2" x="-404.48"/>
  </text>
  <text y="189.75" x="172.96" font-size="129.23">
   <tspan y="189.75" x="172.96"/>
  </text>
 </g>
 <text style="text-anchor:middle" transform="scale(4.0128.2492)" font-size="46.954" y="412.28" x="240.18" font-family="Arial"/>
 <text style="word-spacing:0;letter-spacing:0" font-size="129.23" y="109.75" x="754.23" font-family="&apos;Gentium Book Basic&apos;" line-height="125%">
  <tspan y="109.75" x="754.23"/>
 </text>
 <text style="text-anchor:middle" transform="scale(4.0128.2492)" font-size="46.954" y="91.25" x="385.03" font-family="Arial"/>
 <text style="word-spacing:0;letter-spacing:0" font-size="129.23" y="-71.51" x="-317.35" font-family="&apos;Gentium Book Basic&apos;" line-height="125%">
  <tspan y="-71.51" x="-317.35"/>
 </text>
 <text style="text-anchor:middle" transform="scale(4.0128.2492)" font-size="46.954" y="-636.1" x="117.99" font-family="Arial"/>
 <text style="word-spacing:0;letter-spacing:0" font-size="129.23" y="-287.98" x="780.7" font-family="&apos;Gentium Book Basic&apos;" line-height="125%">
  <tspan y="-287.98" x="780.7"/>
 </text>
 <text style="text-anchor:middle" transform="scale(4.0128.2492)" font-size="46.954" y="-1504.76" x="391.63" font-family="Arial"/>
 <text style="word-spacing:0;letter-spacing:0" font-size="129.23" y="-367.99" x="1361.97" font-family="&apos;Gentium Book Basic&apos;" line-height="125%">
  <tspan y="-367.99" x="1361.97"/>
 </text>
 <text style="text-anchor:middle" transform="scale(4.0128.2492)" font-size="46.954" y="-1825.8" x="536.48" font-family="Arial"/>
 <text style="word-spacing:0;letter-spacing:0" font-size="129.23" y="-840.39" x="972.85" font-family="&apos;Gentium Book Basic&apos;" line-height="125%">
  <tspan y="-840.39" x="972.85"/>
 </text>
 <text style="text-anchor:middle" transform="scale(4.0128.2492)" font-size="46.954" y="-3721.44" x="439.51" font-family="Arial"/>
 <text style="word-spacing:0;letter-spacing:0" font-size="129.23" y="-920.39" x="1554.11" font-family="&apos;Gentium Book Basic&apos;" line-height="125%">
  <tspan y="-920.39" x="1554.11"/>
 </text>
 <text style="text-anchor:middle" transform="scale(4.0128.2492)" font-size="46.954" y="-4042.47" x="584.36" font-family="Arial"/>
 <text style="word-spacing:0;letter-spacing:0" font-size="208.33" y="494.33" x="-278.69" font-family="&apos;Gentium Book Basic&apos;" line-height="125%">
  <tspan y="494.33" x="-278.69"/>
 </text>
 <path d="m26 0c-14.397 0-26 11.603-26 26v460c0 14.397 11.603 26 26 26h460c14.397 0 26-11.603 26-26v-460c0-14.397-11.603-26-26-26h-460" fill="#68af4c"/>
 <text style="word-spacing:0;letter-spacing:0" font-size="129.23" y="116.12" x="-152.26" font-family="&apos;Gentium Book Basic&apos;" line-height="125%">
  <tspan y="116.12" x="-152.26"/>
 </text>
 <text style="text-anchor:middle" transform="scale(4.0128.2492)" font-size="46.954" y="116.81" x="159.14" font-family="Arial"/>
 <text style="word-spacing:0;letter-spacing:0" font-size="129.23" y="36.12" x="429.01" font-family="&apos;Gentium Book Basic&apos;" line-height="125%">
  <tspan y="36.12" x="429.01"/>
 </text>
 <text style="text-anchor:middle" transform="scale(4.0128.2492)" font-size="46.954" y="-204.23" x="303.99" font-family="Arial"/>
 <text style="word-spacing:0;letter-spacing:0" font-size="129.23" y="-145.14" x="-642.57" font-family="&apos;Gentium Book Basic&apos;" line-height="125%">
  <tspan y="-145.14" x="-642.57"/>
 </text>
 <text style="text-anchor:middle" transform="scale(4.0128.2492)" font-size="46.954" y="-931.58" x="36.949" font-family="Arial"/>
 <text style="word-spacing:0;letter-spacing:0" font-size="129.23" y="-361.61" x="455.48" font-family="&apos;Gentium Book Basic&apos;" line-height="125%">
  <tspan y="-361.61" x="455.48"/>
 </text>
 <text style="text-anchor:middle" transform="scale(4.0128.2492)" font-size="46.954" y="-1800.25" x="310.59" font-family="Arial"/>
 <text style="word-spacing:0;letter-spacing:0" font-size="129.23" y="-441.61" x="1036.75" font-family="&apos;Gentium Book Basic&apos;" line-height="125%">
  <tspan y="-441.61" x="1036.75"/>
 </text>
 <text style="text-anchor:middle" transform="scale(4.0128.2492)" font-size="46.954" y="-2121.28" x="455.44" font-family="Arial"/>
 <text style="word-spacing:0;letter-spacing:0" font-size="129.23" y="-914.01" x="647.63" font-family="&apos;Gentium Book Basic&apos;" line-height="125%">
  <tspan y="-914.01" x="647.63"/>
 </text>
 <text style="text-anchor:middle" transform="scale(4.0128.2492)" font-size="46.954" y="-4016.93" x="358.47" font-family="Arial"/>
 <text style="word-spacing:0;letter-spacing:0" font-size="129.23" y="-994.02" x="1228.89" font-family="&apos;Gentium Book Basic&apos;" line-height="125%">
  <tspan y="-994.02" x="1228.89"/>
 </text>
 <text style="text-anchor:middle" transform="scale(4.0128.2492)" font-size="46.954" y="-4337.97" x="503.32" font-family="Arial"/>
 <text style="word-spacing:0;letter-spacing:0" font-size="208.33" y="420.7" x="-603.91" font-family="&apos;Gentium Book Basic&apos;" line-height="125%">
  <tspan y="420.7" x="-603.91"/>
 </text>
 <g fill-rule="evenodd">
  <path opacity=".25" d="m181.29 41l-109.69 29.406-29.4 109.72 80.29 80.31 17.02 17.02-12.883 3.447-29.414 109.77 121.33 121.33h267.46c14.397 0 26-11.603 26-26v-266.75l-42.2-42.2-80.3-80.26-109.8 29.377-2.795 10.428-15.266-15.266-80.34-80.33"/>
  <path d="m181.29 41l-109.69 29.407-29.399 109.72 80.29 80.31 109.74-29.392 29.399-109.72-80.34-80.33m208.2 55.788l-109.8 29.377-29.384 109.66 80.33 80.38 109.76-29.448 29.399-109.72-80.3-80.25m-153.2 154.76l-109.67 29.351-29.414 109.77 80.34 80.33 109.69-29.407 29.414-109.77-80.36-80.27" fill="#fff"/>
 </g>
</svg>
