<?xml version="1.0" encoding="UTF-8" standalone="no"?>
<svg xmlns="http://www.w3.org/2000/svg" viewBox="0 0 512 512">
 <text style="word-spacing:0;letter-spacing:0" font-size="129.23" y="168.28" x="-235.1" font-family="&apos;Gentium Book Basic&apos;" line-height="125%">
  <tspan y="168.28" x="-235.1"/>
 </text>
 <text style="text-anchor:middle" transform="scale(4.0128.2492)" font-size="46.954" y="326.11" x="138.49" font-family="Arial"/>
 <text style="word-spacing:0;letter-spacing:0" font-size="129.23" y="88.28" x="346.17" font-family="&apos;Gentium Book Basic&apos;" line-height="125%">
  <tspan y="88.28" x="346.17"/>
 </text>
 <text style="text-anchor:middle" transform="scale(4.0128.2492)" font-size="46.954" y="5.071" x="283.34" font-family="Arial"/>
 <text style="word-spacing:0;letter-spacing:0" font-size="129.23" y="-92.98" x="-725.41" font-family="&apos;Gentium Book Basic&apos;" line-height="125%">
  <tspan y="-92.98" x="-725.41"/>
 </text>
 <text style="text-anchor:middle" transform="scale(4.0128.2492)" font-size="46.954" y="-722.27" x="16.305" font-family="Arial"/>
 <text style="word-spacing:0;letter-spacing:0" font-size="129.23" y="-309.45" x="372.64" font-family="&apos;Gentium Book Basic&apos;" line-height="125%">
  <tspan y="-309.45" x="372.64"/>
 </text>
 <text style="text-anchor:middle" transform="scale(4.0128.2492)" font-size="46.954" y="-1590.95" x="289.94" font-family="Arial"/>
 <text style="word-spacing:0;letter-spacing:0" font-size="129.23" y="-389.45" x="953.91" font-family="&apos;Gentium Book Basic&apos;" line-height="125%">
  <tspan y="-389.45" x="953.91"/>
 </text>
 <text style="text-anchor:middle" transform="scale(4.0128.2492)" font-size="46.954" y="-1911.98" x="434.79" font-family="Arial"/>
 <text style="word-spacing:0;letter-spacing:0" font-size="129.23" y="-861.85" x="564.79" font-family="&apos;Gentium Book Basic&apos;" line-height="125%">
  <tspan y="-861.85" x="564.79"/>
 </text>
 <text style="text-anchor:middle" transform="scale(4.0128.2492)" font-size="46.954" y="-3807.63" x="337.82" font-family="Arial"/>
 <text style="word-spacing:0;letter-spacing:0" font-size="129.23" y="-941.86" x="1146.05" font-family="&apos;Gentium Book Basic&apos;" line-height="125%">
  <tspan y="-941.86" x="1146.05"/>
 </text>
 <text style="text-anchor:middle" transform="scale(4.0128.2492)" font-size="46.954" y="-4128.67" x="482.67" font-family="Arial"/>
 <g style="word-spacing:0;letter-spacing:0" font-family="&apos;Gentium Book Basic&apos;" line-height="125%">
  <text y="472.86" x="-686.75" font-size="208.33">
   <tspan y="472.86" x="-686.75"/>
  </text>
  <g font-size="0">
   <text y="31.536" x="-132.36">
    <tspan y="31.536" x="-132.36"/>
   </text>
   <text y="309.66" x="-2491.19">
    <tspan y="309.66" x="-2491.19"/>
   </text>
   <text y="82.37" x="-2202.97">
    <tspan y="82.37" x="-2202.97"/>
   </text>
   <text y="-174.53" x="1991.63">
    <tspan y="-174.53" x="1991.63"/>
   </text>
  </g>
  <text y="183.62" x="47.17" font-size="129.23">
   <tspan y="183.62" x="47.17"/>
  </text>
 </g>
 <text style="text-anchor:middle" transform="scale(4.0128.2492)" font-size="46.954" y="387.66" x="208.84" font-family="Arial"/>
 <text style="word-spacing:0;letter-spacing:0" font-size="129.23" y="103.62" x="628.44" font-family="&apos;Gentium Book Basic&apos;" line-height="125%">
  <tspan y="103.62" x="628.44"/>
 </text>
 <text style="text-anchor:middle" transform="scale(4.0128.2492)" font-size="46.954" y="66.63" x="353.69" font-family="Arial"/>
 <text style="word-spacing:0;letter-spacing:0" font-size="129.23" y="-77.65" x="-443.14" font-family="&apos;Gentium Book Basic&apos;" line-height="125%">
  <tspan y="-77.65" x="-443.14"/>
 </text>
 <text style="text-anchor:middle" transform="scale(4.0128.2492)" font-size="46.954" y="-660.73" x="86.65" font-family="Arial"/>
 <text style="word-spacing:0;letter-spacing:0" font-size="129.23" y="-294.11" x="654.91" font-family="&apos;Gentium Book Basic&apos;" line-height="125%">
  <tspan y="-294.11" x="654.91"/>
 </text>
 <text style="text-anchor:middle" transform="scale(4.0128.2492)" font-size="46.954" y="-1529.38" x="360.29" font-family="Arial"/>
 <text style="word-spacing:0;letter-spacing:0" font-size="129.23" y="-374.12" x="1236.18" font-family="&apos;Gentium Book Basic&apos;" line-height="125%">
  <tspan y="-374.12" x="1236.18"/>
 </text>
 <text style="text-anchor:middle" transform="scale(4.0128.2492)" font-size="46.954" y="-1850.42" x="505.13" font-family="Arial"/>
 <text style="word-spacing:0;letter-spacing:0" font-size="129.23" y="-846.52" x="847.06" font-family="&apos;Gentium Book Basic&apos;" line-height="125%">
  <tspan y="-846.52" x="847.06"/>
 </text>
 <text style="text-anchor:middle" transform="scale(4.0128.2492)" font-size="46.954" y="-3746.06" x="408.16" font-family="Arial"/>
 <text style="word-spacing:0;letter-spacing:0" font-size="129.23" y="-926.52" x="1428.32" font-family="&apos;Gentium Book Basic&apos;" line-height="125%">
  <tspan y="-926.52" x="1428.32"/>
 </text>
 <text style="text-anchor:middle" transform="scale(4.0128.2492)" font-size="46.954" y="-4067.09" x="553.01" font-family="Arial"/>
 <g style="word-spacing:0;letter-spacing:0" font-family="&apos;Gentium Book Basic&apos;" line-height="125%">
  <text y="488.2" x="-404.48" font-size="208.33">
   <tspan y="488.2" x="-404.48"/>
  </text>
  <text y="189.75" x="172.96" font-size="129.23">
   <tspan y="189.75" x="172.96"/>
  </text>
 </g>
 <text style="text-anchor:middle" transform="scale(4.0128.2492)" font-size="46.954" y="412.28" x="240.18" font-family="Arial"/>
 <text style="word-spacing:0;letter-spacing:0" font-size="129.23" y="109.75" x="754.23" font-family="&apos;Gentium Book Basic&apos;" line-height="125%">
  <tspan y="109.75" x="754.23"/>
 </text>
 <text style="text-anchor:middle" transform="scale(4.0128.2492)" font-size="46.954" y="91.25" x="385.03" font-family="Arial"/>
 <text style="word-spacing:0;letter-spacing:0" font-size="129.23" y="-71.51" x="-317.35" font-family="&apos;Gentium Book Basic&apos;" line-height="125%">
  <tspan y="-71.51" x="-317.35"/>
 </text>
 <text style="text-anchor:middle" transform="scale(4.0128.2492)" font-size="46.954" y="-636.1" x="117.99" font-family="Arial"/>
 <text style="word-spacing:0;letter-spacing:0" font-size="129.23" y="-287.98" x="780.7" font-family="&apos;Gentium Book Basic&apos;" line-height="125%">
  <tspan y="-287.98" x="780.7"/>
 </text>
 <text style="text-anchor:middle" transform="scale(4.0128.2492)" font-size="46.954" y="-1504.76" x="391.63" font-family="Arial"/>
 <text style="word-spacing:0;letter-spacing:0" font-size="129.23" y="-367.99" x="1361.97" font-family="&apos;Gentium Book Basic&apos;" line-height="125%">
  <tspan y="-367.99" x="1361.97"/>
 </text>
 <text style="text-anchor:middle" transform="scale(4.0128.2492)" font-size="46.954" y="-1825.8" x="536.48" font-family="Arial"/>
 <text style="word-spacing:0;letter-spacing:0" font-size="129.23" y="-840.39" x="972.85" font-family="&apos;Gentium Book Basic&apos;" line-height="125%">
  <tspan y="-840.39" x="972.85"/>
 </text>
 <text style="text-anchor:middle" transform="scale(4.0128.2492)" font-size="46.954" y="-3721.44" x="439.51" font-family="Arial"/>
 <text style="word-spacing:0;letter-spacing:0" font-size="129.23" y="-920.39" x="1554.11" font-family="&apos;Gentium Book Basic&apos;" line-height="125%">
  <tspan y="-920.39" x="1554.11"/>
 </text>
 <text style="text-anchor:middle" transform="scale(4.0128.2492)" font-size="46.954" y="-4042.47" x="584.36" font-family="Arial"/>
 <g style="word-spacing:0;letter-spacing:0" font-family="&apos;Gentium Book Basic&apos;" line-height="125%">
  <text y="494.33" x="-278.69" font-size="208.33">
   <tspan y="494.33" x="-278.69"/>
  </text>
  <text y="116.12" x="-152.26" font-size="129.23">
   <tspan y="116.12" x="-152.26"/>
  </text>
 </g>
 <text style="text-anchor:middle" transform="scale(4.0128.2492)" font-size="46.954" y="116.81" x="159.14" font-family="Arial"/>
 <text style="word-spacing:0;letter-spacing:0" font-size="129.23" y="36.12" x="429.01" font-family="&apos;Gentium Book Basic&apos;" line-height="125%">
  <tspan y="36.12" x="429.01"/>
 </text>
 <text style="text-anchor:middle" transform="scale(4.0128.2492)" font-size="46.954" y="-204.23" x="303.99" font-family="Arial"/>
 <text style="word-spacing:0;letter-spacing:0" font-size="129.23" y="-145.14" x="-642.57" font-family="&apos;Gentium Book Basic&apos;" line-height="125%">
  <tspan y="-145.14" x="-642.57"/>
 </text>
 <text style="text-anchor:middle" transform="scale(4.0128.2492)" font-size="46.954" y="-931.58" x="36.949" font-family="Arial"/>
 <text style="word-spacing:0;letter-spacing:0" font-size="129.23" y="-361.61" x="455.48" font-family="&apos;Gentium Book Basic&apos;" line-height="125%">
  <tspan y="-361.61" x="455.48"/>
 </text>
 <text style="text-anchor:middle" transform="scale(4.0128.2492)" font-size="46.954" y="-1800.25" x="310.59" font-family="Arial"/>
 <text style="word-spacing:0;letter-spacing:0" font-size="129.23" y="-441.61" x="1036.75" font-family="&apos;Gentium Book Basic&apos;" line-height="125%">
  <tspan y="-441.61" x="1036.75"/>
 </text>
 <text style="text-anchor:middle" transform="scale(4.0128.2492)" font-size="46.954" y="-2121.28" x="455.44" font-family="Arial"/>
 <text style="word-spacing:0;letter-spacing:0" font-size="129.23" y="-914.01" x="647.63" font-family="&apos;Gentium Book Basic&apos;" line-height="125%">
  <tspan y="-914.01" x="647.63"/>
 </text>
 <text style="text-anchor:middle" transform="scale(4.0128.2492)" font-size="46.954" y="-4016.93" x="358.47" font-family="Arial"/>
 <text style="word-spacing:0;letter-spacing:0" font-size="129.23" y="-994.02" x="1228.89" font-family="&apos;Gentium Book Basic&apos;" line-height="125%">
  <tspan y="-994.02" x="1228.89"/>
 </text>
 <text style="text-anchor:middle" transform="scale(4.0128.2492)" font-size="46.954" y="-4337.97" x="503.32" font-family="Arial"/>
 <text style="word-spacing:0;letter-spacing:0" font-size="208.33" y="420.7" x="-603.91" font-family="&apos;Gentium Book Basic&apos;" line-height="125%">
  <tspan y="420.7" x="-603.91"/>
 </text>
 <rect width="512" fill="#ef6a47" rx="25.988" height="512"/>
 <text style="word-spacing:0;letter-spacing:0" font-size="208.33" y="533.99" x="-687.55" font-family="&apos;Gentium Book Basic&apos;" line-height="125%">
  <tspan y="533.99" x="-687.55"/>
 </text>
 <text style="text-anchor:middle" transform="scale(4.0128.2492)" font-size="75.7" y="1579.91" x="146.39" font-family="Arial"/>
 <text style="word-spacing:0;letter-spacing:0" font-size="208.33" y="408.05" x="124.28" font-family="&apos;Gentium Book Basic&apos;" line-height="125%">
  <tspan y="408.05" x="124.28"/>
 </text>
 <text style="text-anchor:middle" transform="scale(4.0128.2492)" font-size="75.7" y="1074.54" x="348.7" font-family="Arial"/>
 <text style="word-spacing:0;letter-spacing:0" font-size="129.23" y="215.83" x="102.4" font-family="&apos;Gentium Book Basic&apos;" line-height="125%">
  <tspan y="215.83" x="102.4"/>
 </text>
 <text style="text-anchor:middle" transform="scale(4.0128.2492)" font-size="46.954" y="516.93" x="222.6" font-family="Arial"/>
 <text style="word-spacing:0;letter-spacing:0" font-size="129.23" y="135.83" x="683.67" font-family="&apos;Gentium Book Basic&apos;" line-height="125%">
  <tspan y="135.83" x="683.67"/>
 </text>
 <text style="text-anchor:middle" transform="scale(4.0128.2492)" font-size="46.954" y="195.9" x="367.45" font-family="Arial"/>
 <text style="word-spacing:0;letter-spacing:0" font-size="129.23" y="-45.43" x="-387.91" font-family="&apos;Gentium Book Basic&apos;" line-height="125%">
  <tspan y="-45.43" x="-387.91"/>
 </text>
 <text style="text-anchor:middle" transform="scale(4.0128.2492)" font-size="46.954" y="-531.45" x="100.41" font-family="Arial"/>
 <text style="word-spacing:0;letter-spacing:0" font-size="129.23" y="-261.9" x="710.14" font-family="&apos;Gentium Book Basic&apos;" line-height="125%">
  <tspan y="-261.9" x="710.14"/>
 </text>
 <text style="text-anchor:middle" transform="scale(4.0128.2492)" font-size="46.954" y="-1400.11" x="374.05" font-family="Arial"/>
 <text style="word-spacing:0;letter-spacing:0" font-size="129.23" y="-341.91" x="1291.41" font-family="&apos;Gentium Book Basic&apos;" line-height="125%">
  <tspan y="-341.91" x="1291.41"/>
 </text>
 <text style="text-anchor:middle" transform="scale(4.0128.2492)" font-size="46.954" y="-1721.15" x="518.9" font-family="Arial"/>
 <text style="word-spacing:0;letter-spacing:0" font-size="129.23" y="-814.31" x="902.29" font-family="&apos;Gentium Book Basic&apos;" line-height="125%">
  <tspan y="-814.31" x="902.29"/>
 </text>
 <text style="text-anchor:middle" transform="scale(4.0128.2492)" font-size="46.954" y="-3616.79" x="421.93" font-family="Arial"/>
 <text style="word-spacing:0;letter-spacing:0" font-size="129.23" y="-894.31" x="1483.55" font-family="&apos;Gentium Book Basic&apos;" line-height="125%">
  <tspan y="-894.31" x="1483.55"/>
 </text>
 <text style="text-anchor:middle" transform="scale(4.0128.2492)" font-size="46.954" y="-3937.82" x="566.78" font-family="Arial"/>
 <text style="word-spacing:0;letter-spacing:0" font-size="208.33" y="520.41" x="-349.25" font-family="&apos;Gentium Book Basic&apos;" line-height="125%">
  <tspan y="520.41" x="-349.25"/>
 </text>
 <path opacity=".25" d="m471 111.33c-20.18 20.07-21.545 25.568-45.25 49.13-13.46 13.31-27.561 24.331-45.22 29.992l-7.803-7.803c-3.149-3.149-6.709-5.71-10.371-8.566l16.16 16.16 0.006 0.012-16.16-16.16c-12.453-9.769-28.17-16.942-42.15-20.699l116.92 116.92c-0.001 0.003-0.003 0.005-0.004 0.008l-116.93-116.93c-12.93-3.331-26.24-4.657-38.01-4.547l-0.004-0.004c-15.08 0.637-28.918 2.376-42.29 7.16-8 2.923-15.89 6.53-24.334 10.1l180 180c-0.001 0.001-0.001 0.003-0.002 0.004l-180.01-180.01-20.84-15.178-0.021-0.021-14.363-10.111 210.71 210.71c-0.002 0.002-0.004 0.005-0.006 0.008l-210.71-210.71-14.309-10.04-0.061-0.061 0.006 0.021-0.031-0.021 0.033 0.033 2.445 10.129 216.97 216.97-0.002 0.002-216.97-216.97-0.004-0.002 1.957 11.441 0.002 0.002c1.238 6.489 2.237 13.219 2.957 19.939l0.004 0.004c1.183 11.05 1.606 22.07 1.084 31.922l178.68 178.68c-0.001 0.001-0.003 0.001-0.004 0.002l-178.68-178.68c-0.214 3.783-0.412 7.368-0.414 7.709l0.004 0.004c-2.101 11.896-5.711 24.431-14.205 32.453l-0.006-0.006c-3.343 2.946-7.157 5.235-11.131 7.01l-38.42-38.42c-13.839-13.839-33.18-18.03-48.779-8.861v0.002c-20.301 11.934-26.558 42-13.963 67.16l0.004 0.004c2.916 5.822 6.586 10.868 10.756 15.04l225.74 225.74h202.02c14.397 0 25.988-11.591 25.988-25.988v-333.69l-40.996-40.996v0.004l-0.004-0.004"/>
 <path d="m165.96 130.7l2.455 10.161 1.958 11.44c1.238 6.49 2.237 13.222 2.957 19.943 1.183 11.05 1.607 22.07 1.085 31.927-0.214 3.783-0.411 7.367-0.413 7.708-2.101 11.897-5.711 24.435-14.207 32.457-9.06 7.986-21.578 11.176-31.378 12.199l-0.925-0.273c0.17-9.334-1.895-19.13-6.473-28.28-12.594-25.16-39.25-35.858-59.55-23.923-20.301 11.934-26.557 42-13.962 67.16 11.448 22.866 34.522 33.765 53.869 26.604l-0.218 0.412c13.366 17.09 31.41 32.665 46.4 44.647 16.689 13.289 34.21 25.2 51.29 33.516 23.802 11.267 49.646 19.881 72.924 24.27 22.441-0.057 39.886-1.933 55.799-6.808 16.331-5 31.05-13.161 47.895-25.754 16.02-15.822 27.788-30.643 37.599-46.624 16.186-28.568 25.27-51.637 32.995-78.64 6.828-24.08 11.364-42.676 14.949-64.32 4.124-22.1 4.486-46.796 9.994-67.2-20.18 20.07-21.545 25.567-45.25 49.13-13.87 13.716-28.41 25.02-46.831 30.513-4.124-7.836-10.189-11.912-16.562-16.883-12.453-9.769-28.17-16.942-42.15-20.699-12.931-3.331-26.24-4.656-38.01-4.546-15.08 0.637-28.919 2.376-42.29 7.16-8 2.923-15.889 6.53-24.333 10.1l-20.869-15.199-14.365-10.11-14.394-10.1" fill="#fff"/>
</svg>
