<?xml version="1.0" encoding="UTF-8" standalone="no"?>
<svg xmlns="http://www.w3.org/2000/svg" viewBox="0 0 512 512">
 <text style="word-spacing:0;letter-spacing:0" font-size="129.23" y="271.06" x="165.22" font-family="&apos;Gentium Book Basic&apos;" line-height="125%">
  <tspan y="271.06" x="165.22"/>
 </text>
 <text style="text-anchor:middle" transform="scale(4.0128.2492)" font-size="46.954" y="738.52" x="238.25" font-family="Arial"/>
 <text style="word-spacing:0;letter-spacing:0" font-size="129.23" y="191.06" x="746.49" font-family="&apos;Gentium Book Basic&apos;" line-height="125%">
  <tspan y="191.06" x="746.49"/>
 </text>
 <text style="text-anchor:middle" transform="scale(4.0128.2492)" font-size="46.954" y="417.51" x="383.1" font-family="Arial"/>
 <text style="word-spacing:0;letter-spacing:0" font-size="129.23" y="9.793" x="-325.09" font-family="&apos;Gentium Book Basic&apos;" line-height="125%">
  <tspan y="9.793" x="-325.09"/>
 </text>
 <text style="text-anchor:middle" transform="scale(4.0128.2492)" font-size="46.954" y="-309.85" x="116.06" font-family="Arial"/>
 <text style="word-spacing:0;letter-spacing:0" font-size="129.23" y="-206.67" x="772.96" font-family="&apos;Gentium Book Basic&apos;" line-height="125%">
  <tspan y="-206.67" x="772.96"/>
 </text>
 <text style="text-anchor:middle" transform="scale(4.0128.2492)" font-size="46.954" y="-1178.52" x="389.7" font-family="Arial"/>
 <text style="word-spacing:0;letter-spacing:0" font-size="129.23" y="-286.68" x="1354.23" font-family="&apos;Gentium Book Basic&apos;" line-height="125%">
  <tspan y="-286.68" x="1354.23"/>
 </text>
 <text style="text-anchor:middle" transform="scale(4.0128.2492)" font-size="46.954" y="-1499.54" x="534.55" font-family="Arial"/>
 <text style="word-spacing:0;letter-spacing:0" font-size="129.23" y="-759.08" x="965.11" font-family="&apos;Gentium Book Basic&apos;" line-height="125%">
  <tspan y="-759.08" x="965.11"/>
 </text>
 <text style="text-anchor:middle" transform="scale(4.0128.2492)" font-size="46.954" y="-3395.18" x="437.58" font-family="Arial"/>
 <text style="word-spacing:0;letter-spacing:0" font-size="129.23" y="-839.08" x="1546.37" font-family="&apos;Gentium Book Basic&apos;" line-height="125%">
  <tspan y="-839.08" x="1546.37"/>
 </text>
 <text style="text-anchor:middle" transform="scale(4.0128.2492)" font-size="46.954" y="-3716.21" x="582.43" font-family="Arial"/>
 <text style="word-spacing:0;letter-spacing:0" font-size="208.33" y="575.64" x="-286.43" font-family="&apos;Gentium Book Basic&apos;" line-height="125%">
  <tspan y="575.64" x="-286.43"/>
 </text>
 <path d="m26 0c-14.397 0-26 11.603-26 26v460c0 14.397 11.603 26 26 26h460c14.397 0 26-11.603 26-26v-460c0-14.397-11.603-26-26-26h-460" fill="#ec513d"/>
 <text style="word-spacing:0;letter-spacing:0" font-size="129.23" y="186.68" x="53.31" font-family="&apos;Gentium Book Basic&apos;" line-height="125%">
  <tspan y="186.68" x="53.31"/>
 </text>
 <text style="text-anchor:middle" transform="scale(4.0128.2492)" font-size="46.954" y="399.98" x="210.36" font-family="Arial"/>
 <text style="word-spacing:0;letter-spacing:0" font-size="129.23" y="106.68" x="634.58" font-family="&apos;Gentium Book Basic&apos;" line-height="125%">
  <tspan y="106.68" x="634.58"/>
 </text>
 <text style="text-anchor:middle" transform="scale(4.0128.2492)" font-size="46.954" y="78.942" x="355.21" font-family="Arial"/>
 <text style="word-spacing:0;letter-spacing:0" font-size="129.23" y="-74.58" x="-437" font-family="&apos;Gentium Book Basic&apos;" line-height="125%">
  <tspan y="-74.58" x="-437"/>
 </text>
 <text style="text-anchor:middle" transform="scale(4.0128.2492)" font-size="46.954" y="-648.4" x="88.18" font-family="Arial"/>
 <text style="word-spacing:0;letter-spacing:0" font-size="129.23" y="-291.05" x="661.05" font-family="&apos;Gentium Book Basic&apos;" line-height="125%">
  <tspan y="-291.05" x="661.05"/>
 </text>
 <text style="text-anchor:middle" transform="scale(4.0128.2492)" font-size="46.954" y="-1517.08" x="361.81" font-family="Arial"/>
 <text style="word-spacing:0;letter-spacing:0" font-size="129.23" y="-371.05" x="1242.32" font-family="&apos;Gentium Book Basic&apos;" line-height="125%">
  <tspan y="-371.05" x="1242.32"/>
 </text>
 <text style="text-anchor:middle" transform="scale(4.0128.2492)" font-size="46.954" y="-1838.11" x="506.66" font-family="Arial"/>
 <text style="word-spacing:0;letter-spacing:0" font-size="129.23" y="-843.45" x="853.2" font-family="&apos;Gentium Book Basic&apos;" line-height="125%">
  <tspan y="-843.45" x="853.2"/>
 </text>
 <text style="text-anchor:middle" transform="scale(4.0128.2492)" font-size="46.954" y="-3733.76" x="409.69" font-family="Arial"/>
 <text style="word-spacing:0;letter-spacing:0" font-size="129.23" y="-923.46" x="1434.46" font-family="&apos;Gentium Book Basic&apos;" line-height="125%">
  <tspan y="-923.46" x="1434.46"/>
 </text>
 <text style="text-anchor:middle" transform="scale(4.0128.2492)" font-size="46.954" y="-4054.8" x="554.54" font-family="Arial"/>
 <text style="word-spacing:0;letter-spacing:0" font-size="208.33" y="491.26" x="-398.34" font-family="&apos;Gentium Book Basic&apos;" line-height="125%">
  <tspan y="491.26" x="-398.34"/>
 </text>
 <path opacity=".25" d="m255.56 41c-7.085 0.001-14.17 2.704-19.578 8.109l-38.986 38.988 49.45 49.45 41.713 41.713c-0.024 0.071-0.042 0.142-0.066 0.213l47.662 47.662 41.893 41.893c-1.58 4.573-4.195 8.868-7.848 12.521-3.126 3.126-6.725 5.487-10.563 7.096l-181.4-181.4-128.73 128.72c-10.816 10.821-10.817 28.355-0.002 39.17l236.85 236.85h200.04c14.397 0 26-11.603 26-26v-200.04l-49.07-49.07-0.039-0.039-160.93-160.92-26.82-26.818-0.008-0.01c-5.402-5.402-12.486-8.101-19.57-8.1"/>
 <path d="m462.89 236.85l-187.75-187.73c-10.803-10.813-28.339-10.813-39.16 0l-38.985 38.988 49.45 49.45c11.496-3.882 24.674-1.279 33.833 7.882 9.207 9.219 11.791 22.508 7.812 34.04l47.663 47.661c11.531-3.974 24.836-1.406 34.04 7.818 12.873 12.869 12.873 33.722 0 46.596-12.875 12.877-33.728 12.877-46.609 0-9.68-9.687-12.07-23.909-7.171-35.835l-44.45-44.45-0.003 116.97c3.138 1.554 6.1 3.627 8.716 6.231 12.869 12.868 12.869 33.717 0 46.606-12.873 12.868-33.736 12.868-46.596 0-12.871-12.888-12.871-33.738 0-46.606 3.181-3.175 6.861-5.579 10.789-7.189v-118.06c-3.927-1.605-7.602-3.992-10.789-7.19-9.749-9.742-12.1-24.05-7.097-36.02l-48.748-48.758-128.73 128.72c-10.816 10.822-10.816 28.358 0 39.17l187.75 187.74c10.809 10.813 28.339 10.813 39.16 0l186.87-186.87c10.813-10.818 10.813-28.36 0-39.17" fill="#fff"/>
</svg>
