<svg xmlns="http://www.w3.org/2000/svg" viewBox="0 0 512 512"><defs><clipPath><rect width="84" height="84" rx="6" x="6" y="6" style="fill:#fff"/></clipPath><clipPath><rect width="84" height="84" rx="6" x="6" y="6" style="fill:#fff"/></clipPath><clipPath><rect width="84" height="84" rx="6" x="6" y="6" style="fill:#fff"/></clipPath><clipPath><rect width="84" height="84" rx="6" x="6" y="6" style="fill:#fff"/></clipPath><clipPath><rect width="84" height="84" rx="6" x="6" y="6" style="fill:#fff"/></clipPath><filter style="color-interpolation-filters:sRGB"><feGaussianBlur stdDeviation="1.71"/></filter><filter x="-.192" y="-.192" width="1.384" height="1.384" style="color-interpolation-filters:sRGB"><feGaussianBlur stdDeviation="5.28"/></filter><linearGradient y1="20.221" x2="0" y2="138.66" gradientUnits="userSpaceOnUse"><stop style="stop-color:#fff"/><stop offset="1" style="stop-color:#fff;stop-opacity:0"/></linearGradient><linearGradient y2="7.02" x2="0" y1="92.54" gradientTransform="scale(1.0059.99417)" gradientUnits="userSpaceOnUse"><stop/><stop offset="1" style="stop-opacity:.588"/></linearGradient></defs><text y="271.06" x="165.22" line-height="125%" style="letter-spacing:0;word-spacing:0;font-size:129.23;font-family:&apos;Gentium Book Basic&apos;"><tspan y="271.06" x="165.22"/></text><text transform="scale(4.0128.2492)" y="738.52" x="238.25" style="font-size:46.954;font-family:Arial;text-anchor:middle"/><text y="191.06" x="746.49" line-height="125%" style="letter-spacing:0;word-spacing:0;font-size:129.23;font-family:&apos;Gentium Book Basic&apos;"><tspan y="191.06" x="746.49"/></text><text transform="scale(4.0128.2492)" y="417.51" x="383.1" style="font-size:46.954;font-family:Arial;text-anchor:middle"/><text y="9.793" x="-325.09" line-height="125%" style="letter-spacing:0;word-spacing:0;font-size:129.23;font-family:&apos;Gentium Book Basic&apos;"><tspan y="9.793" x="-325.09"/></text><text transform="scale(4.0128.2492)" y="-309.85" x="116.06" style="font-size:46.954;font-family:Arial;text-anchor:middle"/><text y="-206.67" x="772.96" line-height="125%" style="letter-spacing:0;word-spacing:0;font-size:129.23;font-family:&apos;Gentium Book Basic&apos;"><tspan y="-206.67" x="772.96"/></text><text transform="scale(4.0128.2492)" y="-1178.52" x="389.7" style="font-size:46.954;font-family:Arial;text-anchor:middle"/><text y="-286.68" x="1354.23" line-height="125%" style="letter-spacing:0;word-spacing:0;font-size:129.23;font-family:&apos;Gentium Book Basic&apos;"><tspan y="-286.68" x="1354.23"/></text><text transform="scale(4.0128.2492)" y="-1499.54" x="534.55" style="font-size:46.954;font-family:Arial;text-anchor:middle"/><text y="-759.08" x="965.11" line-height="125%" style="letter-spacing:0;word-spacing:0;font-size:129.23;font-family:&apos;Gentium Book Basic&apos;"><tspan y="-759.08" x="965.11"/></text><text transform="scale(4.0128.2492)" y="-3395.18" x="437.58" style="font-size:46.954;font-family:Arial;text-anchor:middle"/><text y="-839.08" x="1546.37" line-height="125%" style="letter-spacing:0;word-spacing:0;font-size:129.23;font-family:&apos;Gentium Book Basic&apos;"><tspan y="-839.08" x="1546.37"/></text><text transform="scale(4.0128.2492)" y="-3716.21" x="582.43" style="font-size:46.954;font-family:Arial;text-anchor:middle"/><g line-height="125%" style="letter-spacing:0;word-spacing:0;font-family:&apos;Gentium Book Basic&apos;"><text y="575.64" x="-286.43" style="font-size:208.33"><tspan y="575.64" x="-286.43"/></text><text x="53.31" y="186.68" style="font-size:129.23"><tspan x="53.31" y="186.68"/></text></g><text x="210.36" y="399.98" transform="scale(4.0128.2492)" style="font-size:46.954;font-family:Arial;text-anchor:middle"/><text x="634.58" y="106.68" line-height="125%" style="letter-spacing:0;word-spacing:0;font-size:129.23;font-family:&apos;Gentium Book Basic&apos;"><tspan x="634.58" y="106.68"/></text><text x="355.21" y="78.942" transform="scale(4.0128.2492)" style="font-size:46.954;font-family:Arial;text-anchor:middle"/><text x="-437" y="-74.58" line-height="125%" style="letter-spacing:0;word-spacing:0;font-size:129.23;font-family:&apos;Gentium Book Basic&apos;"><tspan x="-437" y="-74.58"/></text><text x="88.18" y="-648.4" transform="scale(4.0128.2492)" style="font-size:46.954;font-family:Arial;text-anchor:middle"/><text x="661.05" y="-291.05" line-height="125%" style="letter-spacing:0;word-spacing:0;font-size:129.23;font-family:&apos;Gentium Book Basic&apos;"><tspan x="661.05" y="-291.05"/></text><text x="361.81" y="-1517.08" transform="scale(4.0128.2492)" style="font-size:46.954;font-family:Arial;text-anchor:middle"/><text x="1242.32" y="-371.05" line-height="125%" style="letter-spacing:0;word-spacing:0;font-size:129.23;font-family:&apos;Gentium Book Basic&apos;"><tspan x="1242.32" y="-371.05"/></text><text x="506.66" y="-1838.11" transform="scale(4.0128.2492)" style="font-size:46.954;font-family:Arial;text-anchor:middle"/><text x="853.2" y="-843.45" line-height="125%" style="letter-spacing:0;word-spacing:0;font-size:129.23;font-family:&apos;Gentium Book Basic&apos;"><tspan x="853.2" y="-843.45"/></text><text x="409.69" y="-3733.76" transform="scale(4.0128.2492)" style="font-size:46.954;font-family:Arial;text-anchor:middle"/><text x="1434.46" y="-923.46" line-height="125%" style="letter-spacing:0;word-spacing:0;font-size:129.23;font-family:&apos;Gentium Book Basic&apos;"><tspan x="1434.46" y="-923.46"/></text><text x="554.54" y="-4054.8" transform="scale(4.0128.2492)" style="font-size:46.954;font-family:Arial;text-anchor:middle"/><text x="-398.34" y="491.26" line-height="125%" style="letter-spacing:0;word-spacing:0;font-size:208.33;font-family:&apos;Gentium Book Basic&apos;"><tspan x="-398.34" y="491.26"/></text><rect width="512" height="512" rx="25.988" style="fill:#f05133"/><text x="125.41" y="223.5" line-height="125%" style="letter-spacing:0;word-spacing:0;font-size:129.23;font-family:&apos;Gentium Book Basic&apos;"><tspan x="125.41" y="223.5"/></text><text x="228.33" y="547.71" transform="scale(4.0128.2492)" style="font-size:46.954;font-family:Arial;text-anchor:middle"/><text x="706.68" y="143.5" line-height="125%" style="letter-spacing:0;word-spacing:0;font-size:129.23;font-family:&apos;Gentium Book Basic&apos;"><tspan x="706.68" y="143.5"/></text><text x="373.18" y="226.68" transform="scale(4.0128.2492)" style="font-size:46.954;font-family:Arial;text-anchor:middle"/><text x="-364.9" y="-37.76" line-height="125%" style="letter-spacing:0;word-spacing:0;font-size:129.23;font-family:&apos;Gentium Book Basic&apos;"><tspan x="-364.9" y="-37.76"/></text><text x="106.14" y="-500.67" transform="scale(4.0128.2492)" style="font-size:46.954;font-family:Arial;text-anchor:middle"/><text x="733.15" y="-254.23" line-height="125%" style="letter-spacing:0;word-spacing:0;font-size:129.23;font-family:&apos;Gentium Book Basic&apos;"><tspan x="733.15" y="-254.23"/></text><text x="379.78" y="-1369.33" transform="scale(4.0128.2492)" style="font-size:46.954;font-family:Arial;text-anchor:middle"/><text x="1314.42" y="-334.24" line-height="125%" style="letter-spacing:0;word-spacing:0;font-size:129.23;font-family:&apos;Gentium Book Basic&apos;"><tspan x="1314.42" y="-334.24"/></text><text x="524.63" y="-1690.37" transform="scale(4.0128.2492)" style="font-size:46.954;font-family:Arial;text-anchor:middle"/><text x="925.3" y="-806.64" line-height="125%" style="letter-spacing:0;word-spacing:0;font-size:129.23;font-family:&apos;Gentium Book Basic&apos;"><tspan x="925.3" y="-806.64"/></text><text x="427.66" y="-3586.01" transform="scale(4.0128.2492)" style="font-size:46.954;font-family:Arial;text-anchor:middle"/><text x="1506.56" y="-886.64" line-height="125%" style="letter-spacing:0;word-spacing:0;font-size:129.23;font-family:&apos;Gentium Book Basic&apos;"><tspan x="1506.56" y="-886.64"/></text><text x="572.51" y="-3907.04" transform="scale(4.0128.2492)" style="font-size:46.954;font-family:Arial;text-anchor:middle"/><text x="-326.24" y="528.08" line-height="125%" style="letter-spacing:0;word-spacing:0;font-size:208.33;font-family:&apos;Gentium Book Basic&apos;"><tspan x="-326.24" y="528.08"/></text><path d="m160.49 41c-39.574 0-71.66 32.08-71.66 71.66 0 19.806 8.03 37.753 21.01 50.736l26.711 26.711v46.12l91.48 91.48c-.001.002-.001.004-.002.006l-91.48-91.48c-27.82 9.853-47.713 36.34-47.713 67.53l.012.012c.006 19.773 8.02 37.661 20.963 50.611l.371.371c-.124-.122-.25-.24-.373-.363l26.76 26.76v89.85l41 41h308.44c14.397 0 25.988-11.591 25.988-25.988v-314.21l-109.82-109.82c-12.967-12.967-30.88-20.986-50.668-20.986h-.002c-39.574 0-71.66 32.08-71.66 71.66l.01.01c.001 7.402 1.152 14.547 3.254 21.27l-71.953-71.953c-12.967-12.967-30.88-20.986-50.668-20.986h-.002" style="opacity:.25"/><path d="m88.85 303.75c0 31.19 19.898 57.682 47.713 67.53v99.72h47.794v-99.72c27.82-9.853 47.794-36.34 47.794-67.53 0-12.02-3.02-23.292-8.248-33.24l94.37-94.37c9.941 5.219 21.235 8.162 33.24 8.162 39.574 0 71.66-32.08 71.66-71.66 0-39.574-32.08-71.66-71.66-71.66-39.574 0-71.66 32.08-71.66 71.66 0 12.02 3.02 23.368 8.248 33.32l-94.3 94.3c-3.02-1.587-6.211-2.893-9.461-4.04v-55.963c27.82-9.853 47.794-36.419 47.794-67.61 0-39.574-32.08-71.66-71.66-71.66-39.574 0-71.66 32.08-71.66 71.66 0 31.19 19.898 57.763 47.713 67.61v55.963c-27.82 9.853-47.713 36.34-47.713 67.53" style="fill:#f9f9f9"/></svg>