<svg xmlns="http://www.w3.org/2000/svg" xmlns:svg="http://www.w3.org/2000/svg" id="svg2" version="1.1" viewBox="0 0 512 512"><metadata id="metadata154"/><rect style="fill:#f05133" id="rect98" width="512" height="512" x="0" y="-.002" rx="25.988"/><path style="opacity:.25" id="path146" d="m 160.49,40.998 c -39.574,0 -71.66,32.08 -71.66,71.66 0,19.806 8.03,37.753 21.01,50.736 l 26.711,26.711 0,46.12 91.48,91.48 c -9.9e-4,0.002 -9.9e-4,0.004 -0.002,0.006 l -91.48,-91.48 c -27.82,9.853 -47.713,36.34 -47.713,67.53 l 0.012,0.012 c 0.006,19.773 8.02,37.661 20.963,50.611 l 0.371,0.371 c -0.124,-0.122 -0.25,-0.24 -0.373,-0.363 l 26.76,26.76 0,89.85 41.00001,41 308.43999,0 c 14.397,0 25.988,-11.591 25.988,-25.988 l 0,-314.21 -109.82,-109.82 C 389.21,49.017 371.297,40.998 351.509,40.998 l -0.002,0 c -39.57399,0 -71.65999,32.08 -71.65999,71.66 l 0.01,0.01 c 10e-4,7.402 1.152,14.547 3.254,21.27 l -71.953,-71.953 c -12.967,-12.967 -30.88,-20.986 -50.668,-20.986 l -0.002,0"/><path id="path148" d="m 88.85,303.748 c 0,31.19 19.898,57.682 47.713,67.53 l 0,99.72 47.79401,0 0,-99.72 c 27.81999,-9.853 47.79399,-36.34 47.79399,-67.53 0,-12.02 -3.01999,-23.292 -8.248,-33.24 l 94.37,-94.37 c 9.94101,5.219 21.23501,8.162 33.24,8.162 39.574,0 71.66,-32.08 71.66,-71.66 0,-39.574 -32.08,-71.66 -71.66,-71.66 -39.574,0 -71.66,32.08 -71.66,71.66 0,12.02 3.02001,23.368 8.248,33.32 l -94.3,94.3 c -3.02,-1.587 -6.21099,-2.893 -9.46099,-4.04 l 0,-55.963 c 27.81999,-9.853 47.79399,-36.419 47.79399,-67.61 0,-39.574 -32.07999,-71.66 -71.66,-71.66 -39.574,0 -71.66,32.08 -71.66,71.66 0,31.19 19.898,57.763 47.713,67.61 l 0,55.963 c -27.82,9.853 -47.713,36.34 -47.713,67.53" style="fill:#fff"/></svg>