<?xml version="1.0" encoding="UTF-8" standalone="no"?>
<svg xmlns="http://www.w3.org/2000/svg" viewBox="0 0 512 512">
 <text style="word-spacing:0;letter-spacing:0" font-size="129.23" y="271.06" x="165.22" font-family="&apos;Gentium Book Basic&apos;" line-height="125%">
  <tspan y="271.06" x="165.22"/>
 </text>
 <text style="text-anchor:middle" transform="scale(4.0128.2492)" font-size="46.954" y="738.52" x="238.25" font-family="Arial"/>
 <text style="word-spacing:0;letter-spacing:0" font-size="129.23" y="191.06" x="746.49" font-family="&apos;Gentium Book Basic&apos;" line-height="125%">
  <tspan y="191.06" x="746.49"/>
 </text>
 <text style="text-anchor:middle" transform="scale(4.0128.2492)" font-size="46.954" y="417.51" x="383.1" font-family="Arial"/>
 <text style="word-spacing:0;letter-spacing:0" font-size="129.23" y="9.793" x="-325.09" font-family="&apos;Gentium Book Basic&apos;" line-height="125%">
  <tspan y="9.793" x="-325.09"/>
 </text>
 <text style="text-anchor:middle" transform="scale(4.0128.2492)" font-size="46.954" y="-309.85" x="116.06" font-family="Arial"/>
 <text style="word-spacing:0;letter-spacing:0" font-size="129.23" y="-206.67" x="772.96" font-family="&apos;Gentium Book Basic&apos;" line-height="125%">
  <tspan y="-206.67" x="772.96"/>
 </text>
 <text style="text-anchor:middle" transform="scale(4.0128.2492)" font-size="46.954" y="-1178.52" x="389.7" font-family="Arial"/>
 <text style="word-spacing:0;letter-spacing:0" font-size="129.23" y="-286.68" x="1354.23" font-family="&apos;Gentium Book Basic&apos;" line-height="125%">
  <tspan y="-286.68" x="1354.23"/>
 </text>
 <text style="text-anchor:middle" transform="scale(4.0128.2492)" font-size="46.954" y="-1499.54" x="534.55" font-family="Arial"/>
 <text style="word-spacing:0;letter-spacing:0" font-size="129.23" y="-759.08" x="965.11" font-family="&apos;Gentium Book Basic&apos;" line-height="125%">
  <tspan y="-759.08" x="965.11"/>
 </text>
 <text style="text-anchor:middle" transform="scale(4.0128.2492)" font-size="46.954" y="-3395.18" x="437.58" font-family="Arial"/>
 <text style="word-spacing:0;letter-spacing:0" font-size="129.23" y="-839.08" x="1546.37" font-family="&apos;Gentium Book Basic&apos;" line-height="125%">
  <tspan y="-839.08" x="1546.37"/>
 </text>
 <text style="text-anchor:middle" transform="scale(4.0128.2492)" font-size="46.954" y="-3716.21" x="582.43" font-family="Arial"/>
 <g style="word-spacing:0;letter-spacing:0" font-family="&apos;Gentium Book Basic&apos;" line-height="125%">
  <text y="575.64" x="-286.43" font-size="208.33">
   <tspan y="575.64" x="-286.43"/>
  </text>
  <text y="186.68" x="53.31" font-size="129.23">
   <tspan y="186.68" x="53.31"/>
  </text>
 </g>
 <text style="text-anchor:middle" transform="scale(4.0128.2492)" font-size="46.954" y="399.98" x="210.36" font-family="Arial"/>
 <text style="word-spacing:0;letter-spacing:0" font-size="129.23" y="106.68" x="634.58" font-family="&apos;Gentium Book Basic&apos;" line-height="125%">
  <tspan y="106.68" x="634.58"/>
 </text>
 <text style="text-anchor:middle" transform="scale(4.0128.2492)" font-size="46.954" y="78.942" x="355.21" font-family="Arial"/>
 <text style="word-spacing:0;letter-spacing:0" font-size="129.23" y="-74.58" x="-437" font-family="&apos;Gentium Book Basic&apos;" line-height="125%">
  <tspan y="-74.58" x="-437"/>
 </text>
 <text style="text-anchor:middle" transform="scale(4.0128.2492)" font-size="46.954" y="-648.4" x="88.18" font-family="Arial"/>
 <text style="word-spacing:0;letter-spacing:0" font-size="129.23" y="-291.05" x="661.05" font-family="&apos;Gentium Book Basic&apos;" line-height="125%">
  <tspan y="-291.05" x="661.05"/>
 </text>
 <text style="text-anchor:middle" transform="scale(4.0128.2492)" font-size="46.954" y="-1517.08" x="361.81" font-family="Arial"/>
 <text style="word-spacing:0;letter-spacing:0" font-size="129.23" y="-371.05" x="1242.32" font-family="&apos;Gentium Book Basic&apos;" line-height="125%">
  <tspan y="-371.05" x="1242.32"/>
 </text>
 <text style="text-anchor:middle" transform="scale(4.0128.2492)" font-size="46.954" y="-1838.11" x="506.66" font-family="Arial"/>
 <text style="word-spacing:0;letter-spacing:0" font-size="129.23" y="-843.45" x="853.2" font-family="&apos;Gentium Book Basic&apos;" line-height="125%">
  <tspan y="-843.45" x="853.2"/>
 </text>
 <text style="text-anchor:middle" transform="scale(4.0128.2492)" font-size="46.954" y="-3733.76" x="409.69" font-family="Arial"/>
 <text style="word-spacing:0;letter-spacing:0" font-size="129.23" y="-923.46" x="1434.46" font-family="&apos;Gentium Book Basic&apos;" line-height="125%">
  <tspan y="-923.46" x="1434.46"/>
 </text>
 <text style="text-anchor:middle" transform="scale(4.0128.2492)" font-size="46.954" y="-4054.8" x="554.54" font-family="Arial"/>
 <g style="word-spacing:0;letter-spacing:0" font-family="&apos;Gentium Book Basic&apos;" line-height="125%">
  <text y="491.26" x="-398.34" font-size="208.33">
   <tspan y="491.26" x="-398.34"/>
  </text>
  <text y="223.5" x="125.41" font-size="129.23">
   <tspan y="223.5" x="125.41"/>
  </text>
 </g>
 <text style="text-anchor:middle" transform="scale(4.0128.2492)" font-size="46.954" y="547.71" x="228.33" font-family="Arial"/>
 <text style="word-spacing:0;letter-spacing:0" font-size="129.23" y="143.5" x="706.68" font-family="&apos;Gentium Book Basic&apos;" line-height="125%">
  <tspan y="143.5" x="706.68"/>
 </text>
 <text style="text-anchor:middle" transform="scale(4.0128.2492)" font-size="46.954" y="226.68" x="373.18" font-family="Arial"/>
 <text style="word-spacing:0;letter-spacing:0" font-size="129.23" y="-37.76" x="-364.9" font-family="&apos;Gentium Book Basic&apos;" line-height="125%">
  <tspan y="-37.76" x="-364.9"/>
 </text>
 <text style="text-anchor:middle" transform="scale(4.0128.2492)" font-size="46.954" y="-500.67" x="106.14" font-family="Arial"/>
 <text style="word-spacing:0;letter-spacing:0" font-size="129.23" y="-254.23" x="733.15" font-family="&apos;Gentium Book Basic&apos;" line-height="125%">
  <tspan y="-254.23" x="733.15"/>
 </text>
 <text style="text-anchor:middle" transform="scale(4.0128.2492)" font-size="46.954" y="-1369.33" x="379.78" font-family="Arial"/>
 <text style="word-spacing:0;letter-spacing:0" font-size="129.23" y="-334.24" x="1314.42" font-family="&apos;Gentium Book Basic&apos;" line-height="125%">
  <tspan y="-334.24" x="1314.42"/>
 </text>
 <text style="text-anchor:middle" transform="scale(4.0128.2492)" font-size="46.954" y="-1690.37" x="524.63" font-family="Arial"/>
 <text style="word-spacing:0;letter-spacing:0" font-size="129.23" y="-806.64" x="925.3" font-family="&apos;Gentium Book Basic&apos;" line-height="125%">
  <tspan y="-806.64" x="925.3"/>
 </text>
 <text style="text-anchor:middle" transform="scale(4.0128.2492)" font-size="46.954" y="-3586.01" x="427.66" font-family="Arial"/>
 <text style="word-spacing:0;letter-spacing:0" font-size="129.23" y="-886.64" x="1506.56" font-family="&apos;Gentium Book Basic&apos;" line-height="125%">
  <tspan y="-886.64" x="1506.56"/>
 </text>
 <text style="text-anchor:middle" transform="scale(4.0128.2492)" font-size="46.954" y="-3907.04" x="572.51" font-family="Arial"/>
 <text style="word-spacing:0;letter-spacing:0" font-size="208.33" y="528.08" x="-326.24" font-family="&apos;Gentium Book Basic&apos;" line-height="125%">
  <tspan y="528.08" x="-326.24"/>
 </text>
 <rect width="512" fill="#cd1d31" rx="25.988" height="512"/>
 <text style="word-spacing:0;letter-spacing:0" font-size="129.23" y="223.5" x="125.41" font-family="&apos;Gentium Book Basic&apos;" line-height="125%">
  <tspan y="223.5" x="125.41"/>
 </text>
 <text style="text-anchor:middle" transform="scale(4.0128.2492)" font-size="46.954" y="547.71" x="228.33" font-family="Arial"/>
 <text style="word-spacing:0;letter-spacing:0" font-size="129.23" y="143.5" x="706.68" font-family="&apos;Gentium Book Basic&apos;" line-height="125%">
  <tspan y="143.5" x="706.68"/>
 </text>
 <text style="text-anchor:middle" transform="scale(4.0128.2492)" font-size="46.954" y="226.68" x="373.18" font-family="Arial"/>
 <text style="word-spacing:0;letter-spacing:0" font-size="129.23" y="-37.76" x="-364.9" font-family="&apos;Gentium Book Basic&apos;" line-height="125%">
  <tspan y="-37.76" x="-364.9"/>
 </text>
 <text style="text-anchor:middle" transform="scale(4.0128.2492)" font-size="46.954" y="-500.67" x="106.14" font-family="Arial"/>
 <text style="word-spacing:0;letter-spacing:0" font-size="129.23" y="-254.23" x="733.15" font-family="&apos;Gentium Book Basic&apos;" line-height="125%">
  <tspan y="-254.23" x="733.15"/>
 </text>
 <text style="text-anchor:middle" transform="scale(4.0128.2492)" font-size="46.954" y="-1369.33" x="379.78" font-family="Arial"/>
 <text style="word-spacing:0;letter-spacing:0" font-size="129.23" y="-334.24" x="1314.42" font-family="&apos;Gentium Book Basic&apos;" line-height="125%">
  <tspan y="-334.24" x="1314.42"/>
 </text>
 <text style="text-anchor:middle" transform="scale(4.0128.2492)" font-size="46.954" y="-1690.37" x="524.63" font-family="Arial"/>
 <text style="word-spacing:0;letter-spacing:0" font-size="129.23" y="-806.64" x="925.3" font-family="&apos;Gentium Book Basic&apos;" line-height="125%">
  <tspan y="-806.64" x="925.3"/>
 </text>
 <text style="text-anchor:middle" transform="scale(4.0128.2492)" font-size="46.954" y="-3586.01" x="427.66" font-family="Arial"/>
 <text style="word-spacing:0;letter-spacing:0" font-size="129.23" y="-886.64" x="1506.56" font-family="&apos;Gentium Book Basic&apos;" line-height="125%">
  <tspan y="-886.64" x="1506.56"/>
 </text>
 <text style="text-anchor:middle" transform="scale(4.0128.2492)" font-size="46.954" y="-3907.04" x="572.51" font-family="Arial"/>
 <text style="word-spacing:0;letter-spacing:0" font-size="208.33" y="528.08" x="-326.24" font-family="&apos;Gentium Book Basic&apos;" line-height="125%">
  <tspan y="528.08" x="-326.24"/>
 </text>
 <path opacity=".25" d="m160.49 41c-39.574 0-71.66 32.08-71.66 71.66 0 19.806 8.03 37.753 21.01 50.736l26.711 26.711v46.12l91.48 91.48c-0.001 0.002-0.001 0.004-0.002 0.006l-91.48-91.48c-27.82 9.853-47.713 36.34-47.713 67.53l0.012 0.012c0.006 19.773 8.02 37.661 20.963 50.611l0.371 0.371c-0.124-0.122-0.25-0.24-0.373-0.363l26.76 26.76v89.85l41 41h308.44c14.397 0 25.988-11.591 25.988-25.988v-314.21l-109.82-109.82c-12.967-12.967-30.88-20.986-50.668-20.986h-0.002c-39.574 0-71.66 32.08-71.66 71.66l0.01 0.01c0.001 7.402 1.152 14.547 3.254 21.27l-71.953-71.953c-12.967-12.967-30.88-20.986-50.668-20.986h-0.002"/>
 <path d="m88.85 303.75c0 31.19 19.898 57.682 47.713 67.53v99.72h47.794v-99.72c27.82-9.853 47.794-36.34 47.794-67.53 0-12.02-3.02-23.292-8.248-33.24l94.37-94.37c9.941 5.219 21.235 8.162 33.24 8.162 39.574 0 71.66-32.08 71.66-71.66 0-39.574-32.08-71.66-71.66-71.66-39.574 0-71.66 32.08-71.66 71.66 0 12.02 3.02 23.368 8.248 33.32l-94.3 94.3c-3.02-1.587-6.211-2.893-9.461-4.04v-55.963c27.82-9.853 47.794-36.419 47.794-67.61 0-39.574-32.08-71.66-71.66-71.66-39.574 0-71.66 32.08-71.66 71.66 0 31.19 19.898 57.763 47.713 67.61v55.963c-27.82 9.853-47.713 36.34-47.713 67.53" fill="#f9f9f9"/>
</svg>
