<svg xmlns="http://www.w3.org/2000/svg" viewBox="0 0 512 512"><defs><clipPath><rect width="84" height="84" rx="6" x="6" y="6" style="fill:#fff"/></clipPath><clipPath><rect width="84" height="84" rx="6" x="6" y="6" style="fill:#fff"/></clipPath><clipPath><rect width="84" height="84" rx="6" x="6" y="6" style="fill:#fff"/></clipPath><clipPath><rect width="84" height="84" rx="6" x="6" y="6" style="fill:#fff"/></clipPath><clipPath><rect width="84" height="84" rx="6" x="6" y="6" style="fill:#fff"/></clipPath><filter style="color-interpolation-filters:sRGB"><feGaussianBlur stdDeviation="1.71"/></filter><filter x="-.192" y="-.192" width="1.384" height="1.384" style="color-interpolation-filters:sRGB"><feGaussianBlur stdDeviation="5.28"/></filter><linearGradient y1="20.221" x2="0" y2="138.66" gradientUnits="userSpaceOnUse"><stop style="stop-color:#fff"/><stop offset="1" style="stop-color:#fff;stop-opacity:0"/></linearGradient><linearGradient y2="7.02" x2="0" y1="92.54" gradientTransform="scale(1.0059.99417)" gradientUnits="userSpaceOnUse"><stop/><stop offset="1" style="stop-opacity:.588"/></linearGradient></defs><text y="271.06" x="165.22" line-height="125%" style="letter-spacing:0;word-spacing:0;font-size:129.23;font-family:&apos;Gentium Book Basic&apos;"><tspan y="271.06" x="165.22"/></text><text transform="scale(4.0128.2492)" y="738.52" x="238.25" style="font-size:46.954;font-family:Arial;text-anchor:middle"/><text y="191.06" x="746.49" line-height="125%" style="letter-spacing:0;word-spacing:0;font-size:129.23;font-family:&apos;Gentium Book Basic&apos;"><tspan y="191.06" x="746.49"/></text><text transform="scale(4.0128.2492)" y="417.51" x="383.1" style="font-size:46.954;font-family:Arial;text-anchor:middle"/><text y="9.793" x="-325.09" line-height="125%" style="letter-spacing:0;word-spacing:0;font-size:129.23;font-family:&apos;Gentium Book Basic&apos;"><tspan y="9.793" x="-325.09"/></text><text transform="scale(4.0128.2492)" y="-309.85" x="116.06" style="font-size:46.954;font-family:Arial;text-anchor:middle"/><text y="-206.67" x="772.96" line-height="125%" style="letter-spacing:0;word-spacing:0;font-size:129.23;font-family:&apos;Gentium Book Basic&apos;"><tspan y="-206.67" x="772.96"/></text><text transform="scale(4.0128.2492)" y="-1178.52" x="389.7" style="font-size:46.954;font-family:Arial;text-anchor:middle"/><text y="-286.68" x="1354.23" line-height="125%" style="letter-spacing:0;word-spacing:0;font-size:129.23;font-family:&apos;Gentium Book Basic&apos;"><tspan y="-286.68" x="1354.23"/></text><text transform="scale(4.0128.2492)" y="-1499.54" x="534.55" style="font-size:46.954;font-family:Arial;text-anchor:middle"/><text y="-759.08" x="965.11" line-height="125%" style="letter-spacing:0;word-spacing:0;font-size:129.23;font-family:&apos;Gentium Book Basic&apos;"><tspan y="-759.08" x="965.11"/></text><text transform="scale(4.0128.2492)" y="-3395.18" x="437.58" style="font-size:46.954;font-family:Arial;text-anchor:middle"/><text y="-839.08" x="1546.37" line-height="125%" style="letter-spacing:0;word-spacing:0;font-size:129.23;font-family:&apos;Gentium Book Basic&apos;"><tspan y="-839.08" x="1546.37"/></text><text transform="scale(4.0128.2492)" y="-3716.21" x="582.43" style="font-size:46.954;font-family:Arial;text-anchor:middle"/><g line-height="125%" style="letter-spacing:0;word-spacing:0;font-family:&apos;Gentium Book Basic&apos;"><text y="575.64" x="-286.43" style="font-size:208.33"><tspan y="575.64" x="-286.43"/></text><text x="53.31" y="186.68" style="font-size:129.23"><tspan x="53.31" y="186.68"/></text></g><text x="210.36" y="399.98" transform="scale(4.0128.2492)" style="font-size:46.954;font-family:Arial;text-anchor:middle"/><text x="634.58" y="106.68" line-height="125%" style="letter-spacing:0;word-spacing:0;font-size:129.23;font-family:&apos;Gentium Book Basic&apos;"><tspan x="634.58" y="106.68"/></text><text x="355.21" y="78.942" transform="scale(4.0128.2492)" style="font-size:46.954;font-family:Arial;text-anchor:middle"/><text x="-437" y="-74.58" line-height="125%" style="letter-spacing:0;word-spacing:0;font-size:129.23;font-family:&apos;Gentium Book Basic&apos;"><tspan x="-437" y="-74.58"/></text><text x="88.18" y="-648.4" transform="scale(4.0128.2492)" style="font-size:46.954;font-family:Arial;text-anchor:middle"/><text x="661.05" y="-291.05" line-height="125%" style="letter-spacing:0;word-spacing:0;font-size:129.23;font-family:&apos;Gentium Book Basic&apos;"><tspan x="661.05" y="-291.05"/></text><text x="361.81" y="-1517.08" transform="scale(4.0128.2492)" style="font-size:46.954;font-family:Arial;text-anchor:middle"/><text x="1242.32" y="-371.05" line-height="125%" style="letter-spacing:0;word-spacing:0;font-size:129.23;font-family:&apos;Gentium Book Basic&apos;"><tspan x="1242.32" y="-371.05"/></text><text x="506.66" y="-1838.11" transform="scale(4.0128.2492)" style="font-size:46.954;font-family:Arial;text-anchor:middle"/><text x="853.2" y="-843.45" line-height="125%" style="letter-spacing:0;word-spacing:0;font-size:129.23;font-family:&apos;Gentium Book Basic&apos;"><tspan x="853.2" y="-843.45"/></text><text x="409.69" y="-3733.76" transform="scale(4.0128.2492)" style="font-size:46.954;font-family:Arial;text-anchor:middle"/><text x="1434.46" y="-923.46" line-height="125%" style="letter-spacing:0;word-spacing:0;font-size:129.23;font-family:&apos;Gentium Book Basic&apos;"><tspan x="1434.46" y="-923.46"/></text><text x="554.54" y="-4054.8" transform="scale(4.0128.2492)" style="font-size:46.954;font-family:Arial;text-anchor:middle"/><g line-height="125%" style="letter-spacing:0;word-spacing:0;font-family:&apos;Gentium Book Basic&apos;"><text x="-398.34" y="491.26" style="font-size:208.33"><tspan x="-398.34" y="491.26"/></text><text x="125.41" y="223.5" style="font-size:129.23"><tspan x="125.41" y="223.5"/></text></g><text x="228.33" y="547.71" transform="scale(4.0128.2492)" style="font-size:46.954;font-family:Arial;text-anchor:middle"/><text x="706.68" y="143.5" line-height="125%" style="letter-spacing:0;word-spacing:0;font-size:129.23;font-family:&apos;Gentium Book Basic&apos;"><tspan x="706.68" y="143.5"/></text><text x="373.18" y="226.68" transform="scale(4.0128.2492)" style="font-size:46.954;font-family:Arial;text-anchor:middle"/><text x="-364.9" y="-37.76" line-height="125%" style="letter-spacing:0;word-spacing:0;font-size:129.23;font-family:&apos;Gentium Book Basic&apos;"><tspan x="-364.9" y="-37.76"/></text><text x="106.14" y="-500.67" transform="scale(4.0128.2492)" style="font-size:46.954;font-family:Arial;text-anchor:middle"/><text x="733.15" y="-254.23" line-height="125%" style="letter-spacing:0;word-spacing:0;font-size:129.23;font-family:&apos;Gentium Book Basic&apos;"><tspan x="733.15" y="-254.23"/></text><text x="379.78" y="-1369.33" transform="scale(4.0128.2492)" style="font-size:46.954;font-family:Arial;text-anchor:middle"/><text x="1314.42" y="-334.24" line-height="125%" style="letter-spacing:0;word-spacing:0;font-size:129.23;font-family:&apos;Gentium Book Basic&apos;"><tspan x="1314.42" y="-334.24"/></text><text x="524.63" y="-1690.37" transform="scale(4.0128.2492)" style="font-size:46.954;font-family:Arial;text-anchor:middle"/><text x="925.3" y="-806.64" line-height="125%" style="letter-spacing:0;word-spacing:0;font-size:129.23;font-family:&apos;Gentium Book Basic&apos;"><tspan x="925.3" y="-806.64"/></text><text x="427.66" y="-3586.01" transform="scale(4.0128.2492)" style="font-size:46.954;font-family:Arial;text-anchor:middle"/><text x="1506.56" y="-886.64" line-height="125%" style="letter-spacing:0;word-spacing:0;font-size:129.23;font-family:&apos;Gentium Book Basic&apos;"><tspan x="1506.56" y="-886.64"/></text><text x="572.51" y="-3907.04" transform="scale(4.0128.2492)" style="font-size:46.954;font-family:Arial;text-anchor:middle"/><g line-height="125%" style="letter-spacing:0;word-spacing:0;font-family:&apos;Gentium Book Basic&apos;"><text x="-326.24" y="528.08" style="font-size:208.33"><tspan x="-326.24" y="528.08"/></text><text x="125.41" y="223.5" style="font-size:129.23"><tspan x="125.41" y="223.5"/></text></g><text x="228.33" y="547.71" transform="scale(4.0128.2492)" style="font-size:46.954;font-family:Arial;text-anchor:middle"/><text x="706.68" y="143.5" line-height="125%" style="letter-spacing:0;word-spacing:0;font-size:129.23;font-family:&apos;Gentium Book Basic&apos;"><tspan x="706.68" y="143.5"/></text><text x="373.18" y="226.68" transform="scale(4.0128.2492)" style="font-size:46.954;font-family:Arial;text-anchor:middle"/><text x="-364.9" y="-37.76" line-height="125%" style="letter-spacing:0;word-spacing:0;font-size:129.23;font-family:&apos;Gentium Book Basic&apos;"><tspan x="-364.9" y="-37.76"/></text><text x="106.14" y="-500.67" transform="scale(4.0128.2492)" style="font-size:46.954;font-family:Arial;text-anchor:middle"/><text x="733.15" y="-254.23" line-height="125%" style="letter-spacing:0;word-spacing:0;font-size:129.23;font-family:&apos;Gentium Book Basic&apos;"><tspan x="733.15" y="-254.23"/></text><text x="379.78" y="-1369.33" transform="scale(4.0128.2492)" style="font-size:46.954;font-family:Arial;text-anchor:middle"/><text x="1314.42" y="-334.24" line-height="125%" style="letter-spacing:0;word-spacing:0;font-size:129.23;font-family:&apos;Gentium Book Basic&apos;"><tspan x="1314.42" y="-334.24"/></text><text x="524.63" y="-1690.37" transform="scale(4.0128.2492)" style="font-size:46.954;font-family:Arial;text-anchor:middle"/><text x="925.3" y="-806.64" line-height="125%" style="letter-spacing:0;word-spacing:0;font-size:129.23;font-family:&apos;Gentium Book Basic&apos;"><tspan x="925.3" y="-806.64"/></text><text x="427.66" y="-3586.01" transform="scale(4.0128.2492)" style="font-size:46.954;font-family:Arial;text-anchor:middle"/><text x="1506.56" y="-886.64" line-height="125%" style="letter-spacing:0;word-spacing:0;font-size:129.23;font-family:&apos;Gentium Book Basic&apos;"><tspan x="1506.56" y="-886.64"/></text><text x="572.51" y="-3907.04" transform="scale(4.0128.2492)" style="font-size:46.954;font-family:Arial;text-anchor:middle"/><text x="-326.24" y="528.08" line-height="125%" style="letter-spacing:0;word-spacing:0;font-size:208.33;font-family:&apos;Gentium Book Basic&apos;"><tspan x="-326.24" y="528.08"/></text><path d="m26 0c-14.397 0-26 11.603-26 26v460c0 14.397 11.603 26 26 26h460c14.397 0 26-11.603 26-26v-460c0-14.397-11.603-26-26-26h-460" style="fill:#3392bb"/><text x="-259.64" y="91.57" line-height="125%" style="letter-spacing:0;word-spacing:0;font-size:129.23;font-family:&apos;Gentium Book Basic&apos;"><tspan x="-259.64" y="91.57"/></text><text x="132.38" y="18.314" transform="scale(4.0128.2492)" style="font-size:46.954;font-family:Arial;text-anchor:middle"/><text x="321.63" y="11.572" line-height="125%" style="letter-spacing:0;word-spacing:0;font-size:129.23;font-family:&apos;Gentium Book Basic&apos;"><tspan x="321.63" y="11.572"/></text><text x="277.23" y="-302.72" transform="scale(4.0128.2492)" style="font-size:46.954;font-family:Arial;text-anchor:middle"/><text x="-749.95" y="-169.69" line-height="125%" style="letter-spacing:0;word-spacing:0;font-size:129.23;font-family:&apos;Gentium Book Basic&apos;"><tspan x="-749.95" y="-169.69"/></text><text x="10.188" y="-1030.07" transform="scale(4.0128.2492)" style="font-size:46.954;font-family:Arial;text-anchor:middle"/><text x="348.1" y="-386.16" line-height="125%" style="letter-spacing:0;word-spacing:0;font-size:129.23;font-family:&apos;Gentium Book Basic&apos;"><tspan x="348.1" y="-386.16"/></text><text x="283.83" y="-1898.75" transform="scale(4.0128.2492)" style="font-size:46.954;font-family:Arial;text-anchor:middle"/><text x="929.37" y="-466.16" line-height="125%" style="letter-spacing:0;word-spacing:0;font-size:129.23;font-family:&apos;Gentium Book Basic&apos;"><tspan x="929.37" y="-466.16"/></text><text x="428.68" y="-2219.77" transform="scale(4.0128.2492)" style="font-size:46.954;font-family:Arial;text-anchor:middle"/><text x="540.25" y="-938.56" line-height="125%" style="letter-spacing:0;word-spacing:0;font-size:129.23;font-family:&apos;Gentium Book Basic&apos;"><tspan x="540.25" y="-938.56"/></text><text x="331.71" y="-4115.42" transform="scale(4.0128.2492)" style="font-size:46.954;font-family:Arial;text-anchor:middle"/><text x="1121.51" y="-1018.57" line-height="125%" style="letter-spacing:0;word-spacing:0;font-size:129.23;font-family:&apos;Gentium Book Basic&apos;"><tspan x="1121.51" y="-1018.57"/></text><text x="476.56" y="-4436.46" transform="scale(4.0128.2492)" style="font-size:46.954;font-family:Arial;text-anchor:middle"/><text x="-711.29" y="396.15" line-height="125%" style="letter-spacing:0;word-spacing:0;font-size:208.33;font-family:&apos;Gentium Book Basic&apos;"><tspan x="-711.29" y="396.15"/></text><path d="m142.93 79.48c-8.621 12.944-10.669 40.14-4.074 56.756-23.274 19.794-26.974 72.943-16.301 106.4-34.9.071-71.04-1.074-96.79 8.109l13.295 13.295c-4.212 1.193-8.319 2.492-12.283 3.932l244.02 244.02h215.21c14.397 0 26-11.603 26-26v-256.48l-150.03-150.03c-12.474.449-21.699 2.285-32.602 7.1-8.371 3.693-17.871 13.369-26.492 14.178-8.785.829-20.922-4.414-32.588-5.059-27.739-1.524-49.03 1.339-69.28 7.096-16.33-10.821-32.09-22.15-58.07-23.314" style="opacity:.25"/><path d="m361.95 79.5c5.986 13.594 9.864 36.17 4.078 52.701 23.663 20.2 31.794 69.32 20.374 109.46 33.728 2.573 73.896-1.238 99.83 9.112-24.24-3.116-57.35-9.23-88.62-7.101-5.924.404-14.705-.225-14.275 8.11 36.2 2.845 72.16 5.935 101.88 15.216-29.476-4.815-65.25-12.147-101.88-13.17-15.13 29.854-45.567 44.529-87.6 47.619 4.518 9.828 13.17 13.574 15.285 29.388 3.152 23.627-4.932 58.23 3.045 73.979 3.827 7.546 10.06 7.746 14.269 14.198-10.294 12.183-35.821-1.366-38.721-14.198-4.979-21.975 7.582-56.04-6.104-70.94.966 23.965-5.669 57.631 1.019 79.04 2.635 8.422 10.243 11.67 8.151 19.258-47.848 4.86-27.854-61.924-35.671-101.35-7.219.511-4.047 10.811-4.073 15.203-.205 38.501 7.879 91.3-33.615 86.14-1.212-8.089 5.567-10.841 8.15-18.229 7.567-21.663-1.417-53.938 2.052-80.08-15.835 11.937 1.663 53.622-8.15 74.996-5.654 12.3-23.873 17.652-37.693 12.162 1.801-9.159 11.256-7.68 15.271-16.214 5.608-11.895.041-29.03 2.041-46.615-29.31 5.849-52.05-.849-63.18-19.258-4.979-8.261-6.212-18.01-12.228-25.332-5.986-7.326-15.555-8.316-18.327-18.235 36.3-8.739 37.693 37.36 70.29 38.501 9.997.363 15.203-2.885 24.447-5.06 2.588-11.625 8.131-20.291 16.301-26.364-40.567-5.553-74.07-18.18-89.65-48.632-36.879 1.816-70.62 6.738-101.88 14.177 28.371-10.305 63.37-13.999 100.87-15.216-2.21-13.282-21.586-9.636-33.615-9.117-22.353.992-50.49 3.77-68.26 7.106 25.756-9.183 61.896-8.04 96.8-8.11-10.673-33.461-6.973-86.61 16.301-106.4-6.595-16.618-4.548-43.811 4.073-56.756 25.986 1.167 41.745 12.495 58.08 23.315 20.246-5.757 41.539-8.621 69.28-7.097 11.666.645 23.802 5.889 32.587 5.06 8.621-.808 18.12-10.484 26.493-14.177 10.903-4.815 20.13-6.651 32.602-7.101" style="fill:#fff"/></svg>