<?xml version="1.0" encoding="UTF-8" standalone="no"?>
<svg xmlns="http://www.w3.org/2000/svg" viewBox="0 0 512 512">
 <text style="word-spacing:0;letter-spacing:0" font-size="129.23" y="271.06" x="165.22" font-family="&apos;Gentium Book Basic&apos;" line-height="125%">
  <tspan y="271.06" x="165.22"/>
 </text>
 <text style="text-anchor:middle" transform="scale(4.0128.2492)" font-size="46.954" y="738.52" x="238.25" font-family="Arial"/>
 <text style="word-spacing:0;letter-spacing:0" font-size="129.23" y="191.06" x="746.49" font-family="&apos;Gentium Book Basic&apos;" line-height="125%">
  <tspan y="191.06" x="746.49"/>
 </text>
 <text style="text-anchor:middle" transform="scale(4.0128.2492)" font-size="46.954" y="417.51" x="383.1" font-family="Arial"/>
 <text style="word-spacing:0;letter-spacing:0" font-size="129.23" y="9.793" x="-325.09" font-family="&apos;Gentium Book Basic&apos;" line-height="125%">
  <tspan y="9.793" x="-325.09"/>
 </text>
 <text style="text-anchor:middle" transform="scale(4.0128.2492)" font-size="46.954" y="-309.85" x="116.06" font-family="Arial"/>
 <text style="word-spacing:0;letter-spacing:0" font-size="129.23" y="-206.67" x="772.96" font-family="&apos;Gentium Book Basic&apos;" line-height="125%">
  <tspan y="-206.67" x="772.96"/>
 </text>
 <text style="text-anchor:middle" transform="scale(4.0128.2492)" font-size="46.954" y="-1178.52" x="389.7" font-family="Arial"/>
 <text style="word-spacing:0;letter-spacing:0" font-size="129.23" y="-286.68" x="1354.23" font-family="&apos;Gentium Book Basic&apos;" line-height="125%">
  <tspan y="-286.68" x="1354.23"/>
 </text>
 <text style="text-anchor:middle" transform="scale(4.0128.2492)" font-size="46.954" y="-1499.54" x="534.55" font-family="Arial"/>
 <text style="word-spacing:0;letter-spacing:0" font-size="129.23" y="-759.08" x="965.11" font-family="&apos;Gentium Book Basic&apos;" line-height="125%">
  <tspan y="-759.08" x="965.11"/>
 </text>
 <text style="text-anchor:middle" transform="scale(4.0128.2492)" font-size="46.954" y="-3395.18" x="437.58" font-family="Arial"/>
 <text style="word-spacing:0;letter-spacing:0" font-size="129.23" y="-839.08" x="1546.37" font-family="&apos;Gentium Book Basic&apos;" line-height="125%">
  <tspan y="-839.08" x="1546.37"/>
 </text>
 <text style="text-anchor:middle" transform="scale(4.0128.2492)" font-size="46.954" y="-3716.21" x="582.43" font-family="Arial"/>
 <g style="word-spacing:0;letter-spacing:0" font-family="&apos;Gentium Book Basic&apos;" line-height="125%">
  <text y="575.64" x="-286.43" font-size="208.33">
   <tspan y="575.64" x="-286.43"/>
  </text>
  <text y="186.68" x="53.31" font-size="129.23">
   <tspan y="186.68" x="53.31"/>
  </text>
 </g>
 <text style="text-anchor:middle" transform="scale(4.0128.2492)" font-size="46.954" y="399.98" x="210.36" font-family="Arial"/>
 <text style="word-spacing:0;letter-spacing:0" font-size="129.23" y="106.68" x="634.58" font-family="&apos;Gentium Book Basic&apos;" line-height="125%">
  <tspan y="106.68" x="634.58"/>
 </text>
 <text style="text-anchor:middle" transform="scale(4.0128.2492)" font-size="46.954" y="78.942" x="355.21" font-family="Arial"/>
 <text style="word-spacing:0;letter-spacing:0" font-size="129.23" y="-74.58" x="-437" font-family="&apos;Gentium Book Basic&apos;" line-height="125%">
  <tspan y="-74.58" x="-437"/>
 </text>
 <text style="text-anchor:middle" transform="scale(4.0128.2492)" font-size="46.954" y="-648.4" x="88.18" font-family="Arial"/>
 <text style="word-spacing:0;letter-spacing:0" font-size="129.23" y="-291.05" x="661.05" font-family="&apos;Gentium Book Basic&apos;" line-height="125%">
  <tspan y="-291.05" x="661.05"/>
 </text>
 <text style="text-anchor:middle" transform="scale(4.0128.2492)" font-size="46.954" y="-1517.08" x="361.81" font-family="Arial"/>
 <text style="word-spacing:0;letter-spacing:0" font-size="129.23" y="-371.05" x="1242.32" font-family="&apos;Gentium Book Basic&apos;" line-height="125%">
  <tspan y="-371.05" x="1242.32"/>
 </text>
 <text style="text-anchor:middle" transform="scale(4.0128.2492)" font-size="46.954" y="-1838.11" x="506.66" font-family="Arial"/>
 <text style="word-spacing:0;letter-spacing:0" font-size="129.23" y="-843.45" x="853.2" font-family="&apos;Gentium Book Basic&apos;" line-height="125%">
  <tspan y="-843.45" x="853.2"/>
 </text>
 <text style="text-anchor:middle" transform="scale(4.0128.2492)" font-size="46.954" y="-3733.76" x="409.69" font-family="Arial"/>
 <text style="word-spacing:0;letter-spacing:0" font-size="129.23" y="-923.46" x="1434.46" font-family="&apos;Gentium Book Basic&apos;" line-height="125%">
  <tspan y="-923.46" x="1434.46"/>
 </text>
 <text style="text-anchor:middle" transform="scale(4.0128.2492)" font-size="46.954" y="-4054.8" x="554.54" font-family="Arial"/>
 <g style="word-spacing:0;letter-spacing:0" font-family="&apos;Gentium Book Basic&apos;" line-height="125%">
  <text y="491.26" x="-398.34" font-size="208.33">
   <tspan y="491.26" x="-398.34"/>
  </text>
  <text y="223.5" x="125.41" font-size="129.23">
   <tspan y="223.5" x="125.41"/>
  </text>
 </g>
 <text style="text-anchor:middle" transform="scale(4.0128.2492)" font-size="46.954" y="547.71" x="228.33" font-family="Arial"/>
 <text style="word-spacing:0;letter-spacing:0" font-size="129.23" y="143.5" x="706.68" font-family="&apos;Gentium Book Basic&apos;" line-height="125%">
  <tspan y="143.5" x="706.68"/>
 </text>
 <text style="text-anchor:middle" transform="scale(4.0128.2492)" font-size="46.954" y="226.68" x="373.18" font-family="Arial"/>
 <text style="word-spacing:0;letter-spacing:0" font-size="129.23" y="-37.76" x="-364.9" font-family="&apos;Gentium Book Basic&apos;" line-height="125%">
  <tspan y="-37.76" x="-364.9"/>
 </text>
 <text style="text-anchor:middle" transform="scale(4.0128.2492)" font-size="46.954" y="-500.67" x="106.14" font-family="Arial"/>
 <text style="word-spacing:0;letter-spacing:0" font-size="129.23" y="-254.23" x="733.15" font-family="&apos;Gentium Book Basic&apos;" line-height="125%">
  <tspan y="-254.23" x="733.15"/>
 </text>
 <text style="text-anchor:middle" transform="scale(4.0128.2492)" font-size="46.954" y="-1369.33" x="379.78" font-family="Arial"/>
 <text style="word-spacing:0;letter-spacing:0" font-size="129.23" y="-334.24" x="1314.42" font-family="&apos;Gentium Book Basic&apos;" line-height="125%">
  <tspan y="-334.24" x="1314.42"/>
 </text>
 <text style="text-anchor:middle" transform="scale(4.0128.2492)" font-size="46.954" y="-1690.37" x="524.63" font-family="Arial"/>
 <text style="word-spacing:0;letter-spacing:0" font-size="129.23" y="-806.64" x="925.3" font-family="&apos;Gentium Book Basic&apos;" line-height="125%">
  <tspan y="-806.64" x="925.3"/>
 </text>
 <text style="text-anchor:middle" transform="scale(4.0128.2492)" font-size="46.954" y="-3586.01" x="427.66" font-family="Arial"/>
 <text style="word-spacing:0;letter-spacing:0" font-size="129.23" y="-886.64" x="1506.56" font-family="&apos;Gentium Book Basic&apos;" line-height="125%">
  <tspan y="-886.64" x="1506.56"/>
 </text>
 <text style="text-anchor:middle" transform="scale(4.0128.2492)" font-size="46.954" y="-3907.04" x="572.51" font-family="Arial"/>
 <g style="word-spacing:0;letter-spacing:0" font-family="&apos;Gentium Book Basic&apos;" line-height="125%">
  <text y="528.08" x="-326.24" font-size="208.33">
   <tspan y="528.08" x="-326.24"/>
  </text>
  <text y="223.5" x="125.41" font-size="129.23">
   <tspan y="223.5" x="125.41"/>
  </text>
 </g>
 <text style="text-anchor:middle" transform="scale(4.0128.2492)" font-size="46.954" y="547.71" x="228.33" font-family="Arial"/>
 <text style="word-spacing:0;letter-spacing:0" font-size="129.23" y="143.5" x="706.68" font-family="&apos;Gentium Book Basic&apos;" line-height="125%">
  <tspan y="143.5" x="706.68"/>
 </text>
 <text style="text-anchor:middle" transform="scale(4.0128.2492)" font-size="46.954" y="226.68" x="373.18" font-family="Arial"/>
 <text style="word-spacing:0;letter-spacing:0" font-size="129.23" y="-37.76" x="-364.9" font-family="&apos;Gentium Book Basic&apos;" line-height="125%">
  <tspan y="-37.76" x="-364.9"/>
 </text>
 <text style="text-anchor:middle" transform="scale(4.0128.2492)" font-size="46.954" y="-500.67" x="106.14" font-family="Arial"/>
 <text style="word-spacing:0;letter-spacing:0" font-size="129.23" y="-254.23" x="733.15" font-family="&apos;Gentium Book Basic&apos;" line-height="125%">
  <tspan y="-254.23" x="733.15"/>
 </text>
 <text style="text-anchor:middle" transform="scale(4.0128.2492)" font-size="46.954" y="-1369.33" x="379.78" font-family="Arial"/>
 <text style="word-spacing:0;letter-spacing:0" font-size="129.23" y="-334.24" x="1314.42" font-family="&apos;Gentium Book Basic&apos;" line-height="125%">
  <tspan y="-334.24" x="1314.42"/>
 </text>
 <text style="text-anchor:middle" transform="scale(4.0128.2492)" font-size="46.954" y="-1690.37" x="524.63" font-family="Arial"/>
 <text style="word-spacing:0;letter-spacing:0" font-size="129.23" y="-806.64" x="925.3" font-family="&apos;Gentium Book Basic&apos;" line-height="125%">
  <tspan y="-806.64" x="925.3"/>
 </text>
 <text style="text-anchor:middle" transform="scale(4.0128.2492)" font-size="46.954" y="-3586.01" x="427.66" font-family="Arial"/>
 <text style="word-spacing:0;letter-spacing:0" font-size="129.23" y="-886.64" x="1506.56" font-family="&apos;Gentium Book Basic&apos;" line-height="125%">
  <tspan y="-886.64" x="1506.56"/>
 </text>
 <text style="text-anchor:middle" transform="scale(4.0128.2492)" font-size="46.954" y="-3907.04" x="572.51" font-family="Arial"/>
 <text style="word-spacing:0;letter-spacing:0" font-size="208.33" y="528.08" x="-326.24" font-family="&apos;Gentium Book Basic&apos;" line-height="125%">
  <tspan y="528.08" x="-326.24"/>
 </text>
 <path d="m26 0c-14.397 0-26 11.603-26 26v460c0 14.397 11.603 26 26 26h460c14.397 0 26-11.603 26-26v-460c0-14.397-11.603-26-26-26h-460" fill="#3392bb"/>
 <text style="word-spacing:0;letter-spacing:0" font-size="129.23" y="91.57" x="-259.64" font-family="&apos;Gentium Book Basic&apos;" line-height="125%">
  <tspan y="91.57" x="-259.64"/>
 </text>
 <text style="text-anchor:middle" transform="scale(4.0128.2492)" font-size="46.954" y="18.314" x="132.38" font-family="Arial"/>
 <text style="word-spacing:0;letter-spacing:0" font-size="129.23" y="11.572" x="321.63" font-family="&apos;Gentium Book Basic&apos;" line-height="125%">
  <tspan y="11.572" x="321.63"/>
 </text>
 <text style="text-anchor:middle" transform="scale(4.0128.2492)" font-size="46.954" y="-302.72" x="277.23" font-family="Arial"/>
 <text style="word-spacing:0;letter-spacing:0" font-size="129.23" y="-169.69" x="-749.95" font-family="&apos;Gentium Book Basic&apos;" line-height="125%">
  <tspan y="-169.69" x="-749.95"/>
 </text>
 <text style="text-anchor:middle" transform="scale(4.0128.2492)" font-size="46.954" y="-1030.07" x="10.188" font-family="Arial"/>
 <text style="word-spacing:0;letter-spacing:0" font-size="129.23" y="-386.16" x="348.1" font-family="&apos;Gentium Book Basic&apos;" line-height="125%">
  <tspan y="-386.16" x="348.1"/>
 </text>
 <text style="text-anchor:middle" transform="scale(4.0128.2492)" font-size="46.954" y="-1898.75" x="283.83" font-family="Arial"/>
 <text style="word-spacing:0;letter-spacing:0" font-size="129.23" y="-466.16" x="929.37" font-family="&apos;Gentium Book Basic&apos;" line-height="125%">
  <tspan y="-466.16" x="929.37"/>
 </text>
 <text style="text-anchor:middle" transform="scale(4.0128.2492)" font-size="46.954" y="-2219.77" x="428.68" font-family="Arial"/>
 <text style="word-spacing:0;letter-spacing:0" font-size="129.23" y="-938.56" x="540.25" font-family="&apos;Gentium Book Basic&apos;" line-height="125%">
  <tspan y="-938.56" x="540.25"/>
 </text>
 <text style="text-anchor:middle" transform="scale(4.0128.2492)" font-size="46.954" y="-4115.42" x="331.71" font-family="Arial"/>
 <text style="word-spacing:0;letter-spacing:0" font-size="129.23" y="-1018.57" x="1121.51" font-family="&apos;Gentium Book Basic&apos;" line-height="125%">
  <tspan y="-1018.57" x="1121.51"/>
 </text>
 <text style="text-anchor:middle" transform="scale(4.0128.2492)" font-size="46.954" y="-4436.46" x="476.56" font-family="Arial"/>
 <text style="word-spacing:0;letter-spacing:0" font-size="208.33" y="396.15" x="-711.29" font-family="&apos;Gentium Book Basic&apos;" line-height="125%">
  <tspan y="396.15" x="-711.29"/>
 </text>
 <path opacity=".25" d="m142.93 79.48c-8.621 12.944-10.669 40.14-4.074 56.756-23.274 19.794-26.974 72.943-16.301 106.4-34.9 0.071-71.04-1.074-96.79 8.109l13.295 13.295c-4.212 1.193-8.319 2.492-12.283 3.932l244.02 244.02h215.21c14.397 0 26-11.603 26-26v-256.48l-150.03-150.03c-12.474 0.449-21.699 2.285-32.602 7.1-8.371 3.693-17.871 13.369-26.492 14.178-8.785 0.829-20.922-4.414-32.588-5.059-27.739-1.524-49.03 1.339-69.28 7.096-16.33-10.821-32.09-22.15-58.07-23.314"/>
 <path d="m361.95 79.5c5.986 13.594 9.864 36.17 4.078 52.701 23.663 20.2 31.794 69.32 20.374 109.46 33.728 2.573 73.896-1.238 99.83 9.112-24.24-3.116-57.35-9.23-88.62-7.101-5.924 0.404-14.705-0.225-14.275 8.11 36.2 2.845 72.16 5.935 101.88 15.216-29.476-4.815-65.25-12.147-101.88-13.17-15.13 29.854-45.567 44.529-87.6 47.619 4.518 9.828 13.17 13.574 15.285 29.388 3.152 23.627-4.932 58.23 3.045 73.979 3.827 7.546 10.06 7.746 14.269 14.198-10.294 12.183-35.821-1.366-38.721-14.198-4.979-21.975 7.582-56.04-6.104-70.94 0.966 23.965-5.669 57.631 1.019 79.04 2.635 8.422 10.243 11.67 8.151 19.258-47.848 4.86-27.854-61.924-35.671-101.35-7.219 0.511-4.047 10.811-4.073 15.203-0.205 38.501 7.879 91.3-33.615 86.14-1.212-8.089 5.567-10.841 8.15-18.229 7.567-21.663-1.417-53.938 2.052-80.08-15.835 11.937 1.663 53.622-8.15 74.996-5.654 12.3-23.873 17.652-37.693 12.162 1.801-9.159 11.256-7.68 15.271-16.214 5.608-11.895 0.041-29.03 2.041-46.615-29.31 5.849-52.05-0.849-63.18-19.258-4.979-8.261-6.212-18.01-12.228-25.332-5.986-7.326-15.555-8.316-18.327-18.235 36.3-8.739 37.693 37.36 70.29 38.501 9.997 0.363 15.203-2.885 24.447-5.06 2.588-11.625 8.131-20.291 16.301-26.364-40.567-5.553-74.07-18.18-89.65-48.632-36.879 1.816-70.62 6.738-101.88 14.177 28.371-10.305 63.37-13.999 100.87-15.216-2.21-13.282-21.586-9.636-33.615-9.117-22.353 0.992-50.49 3.77-68.26 7.106 25.756-9.183 61.896-8.04 96.8-8.11-10.673-33.461-6.973-86.61 16.301-106.4-6.595-16.618-4.548-43.811 4.073-56.756 25.986 1.167 41.745 12.495 58.08 23.315 20.246-5.757 41.539-8.621 69.28-7.097 11.666 0.645 23.802 5.889 32.587 5.06 8.621-0.808 18.12-10.484 26.493-14.177 10.903-4.815 20.13-6.651 32.602-7.101" fill="#fff"/>
</svg>
