<svg xmlns="http://www.w3.org/2000/svg" viewBox="0 0 512 512"><defs><clipPath><rect y="6" x="6" rx="6" height="84" width="84" style="fill:#fff"/></clipPath><clipPath><rect y="6" x="6" rx="6" height="84" width="84" style="fill:#fff"/></clipPath><clipPath><rect y="6" x="6" rx="6" height="84" width="84" style="fill:#fff"/></clipPath><clipPath><rect y="6" x="6" rx="6" height="84" width="84" style="fill:#fff"/></clipPath><clipPath><rect y="6" x="6" rx="6" height="84" width="84" style="fill:#fff"/></clipPath><filter style="color-interpolation-filters:sRGB"><feGaussianBlur stdDeviation="1.71"/></filter><filter height="1.384" width="1.384" y="-.192" x="-.192" style="color-interpolation-filters:sRGB"><feGaussianBlur stdDeviation="5.28"/></filter><linearGradient gradientUnits="userSpaceOnUse" y2="138.66" x2="0" y1="20.221"><stop style="stop-color:#fff"/><stop offset="1" style="stop-color:#fff;stop-opacity:0"/></linearGradient><linearGradient gradientUnits="userSpaceOnUse" gradientTransform="scale(1.0059.99417)" y1="92.54" x2="0" y2="7.02"><stop/><stop offset="1" style="stop-opacity:.588"/></linearGradient></defs><text x="165.22" y="271.06" line-height="125%" style="letter-spacing:0;word-spacing:0;font-size:129.23;font-family:&apos;Gentium Book Basic&apos;"><tspan x="165.22" y="271.06"/></text><text x="238.25" y="738.52" transform="scale(4.0128.2492)" style="font-size:46.954;font-family:Arial;text-anchor:middle"/><text x="746.49" y="191.06" line-height="125%" style="letter-spacing:0;word-spacing:0;font-size:129.23;font-family:&apos;Gentium Book Basic&apos;"><tspan x="746.49" y="191.06"/></text><text x="383.1" y="417.51" transform="scale(4.0128.2492)" style="font-size:46.954;font-family:Arial;text-anchor:middle"/><text x="-325.09" y="9.793" line-height="125%" style="letter-spacing:0;word-spacing:0;font-size:129.23;font-family:&apos;Gentium Book Basic&apos;"><tspan x="-325.09" y="9.793"/></text><text x="116.06" y="-309.85" transform="scale(4.0128.2492)" style="font-size:46.954;font-family:Arial;text-anchor:middle"/><text x="772.96" y="-206.67" line-height="125%" style="letter-spacing:0;word-spacing:0;font-size:129.23;font-family:&apos;Gentium Book Basic&apos;"><tspan x="772.96" y="-206.67"/></text><text x="389.7" y="-1178.52" transform="scale(4.0128.2492)" style="font-size:46.954;font-family:Arial;text-anchor:middle"/><text x="1354.23" y="-286.68" line-height="125%" style="letter-spacing:0;word-spacing:0;font-size:129.23;font-family:&apos;Gentium Book Basic&apos;"><tspan x="1354.23" y="-286.68"/></text><text x="534.55" y="-1499.54" transform="scale(4.0128.2492)" style="font-size:46.954;font-family:Arial;text-anchor:middle"/><text x="965.11" y="-759.08" line-height="125%" style="letter-spacing:0;word-spacing:0;font-size:129.23;font-family:&apos;Gentium Book Basic&apos;"><tspan x="965.11" y="-759.08"/></text><text x="437.58" y="-3395.18" transform="scale(4.0128.2492)" style="font-size:46.954;font-family:Arial;text-anchor:middle"/><text x="1546.37" y="-839.08" line-height="125%" style="letter-spacing:0;word-spacing:0;font-size:129.23;font-family:&apos;Gentium Book Basic&apos;"><tspan x="1546.37" y="-839.08"/></text><text x="582.43" y="-3716.21" transform="scale(4.0128.2492)" style="font-size:46.954;font-family:Arial;text-anchor:middle"/><g line-height="125%" style="letter-spacing:0;word-spacing:0;font-family:&apos;Gentium Book Basic&apos;"><text x="-286.43" y="575.64" style="font-size:208.33"><tspan x="-286.43" y="575.64"/></text><text y="186.68" x="53.31" style="font-size:129.23"><tspan y="186.68" x="53.31"/></text></g><text transform="scale(4.0128.2492)" y="399.98" x="210.36" style="font-size:46.954;font-family:Arial;text-anchor:middle"/><text y="106.68" x="634.58" line-height="125%" style="letter-spacing:0;word-spacing:0;font-size:129.23;font-family:&apos;Gentium Book Basic&apos;"><tspan y="106.68" x="634.58"/></text><text transform="scale(4.0128.2492)" y="78.942" x="355.21" style="font-size:46.954;font-family:Arial;text-anchor:middle"/><text y="-74.58" x="-437" line-height="125%" style="letter-spacing:0;word-spacing:0;font-size:129.23;font-family:&apos;Gentium Book Basic&apos;"><tspan y="-74.58" x="-437"/></text><text transform="scale(4.0128.2492)" y="-648.4" x="88.18" style="font-size:46.954;font-family:Arial;text-anchor:middle"/><text y="-291.05" x="661.05" line-height="125%" style="letter-spacing:0;word-spacing:0;font-size:129.23;font-family:&apos;Gentium Book Basic&apos;"><tspan y="-291.05" x="661.05"/></text><text transform="scale(4.0128.2492)" y="-1517.08" x="361.81" style="font-size:46.954;font-family:Arial;text-anchor:middle"/><text y="-371.05" x="1242.32" line-height="125%" style="letter-spacing:0;word-spacing:0;font-size:129.23;font-family:&apos;Gentium Book Basic&apos;"><tspan y="-371.05" x="1242.32"/></text><text transform="scale(4.0128.2492)" y="-1838.11" x="506.66" style="font-size:46.954;font-family:Arial;text-anchor:middle"/><text y="-843.45" x="853.2" line-height="125%" style="letter-spacing:0;word-spacing:0;font-size:129.23;font-family:&apos;Gentium Book Basic&apos;"><tspan y="-843.45" x="853.2"/></text><text transform="scale(4.0128.2492)" y="-3733.76" x="409.69" style="font-size:46.954;font-family:Arial;text-anchor:middle"/><text y="-923.46" x="1434.46" line-height="125%" style="letter-spacing:0;word-spacing:0;font-size:129.23;font-family:&apos;Gentium Book Basic&apos;"><tspan y="-923.46" x="1434.46"/></text><text transform="scale(4.0128.2492)" y="-4054.8" x="554.54" style="font-size:46.954;font-family:Arial;text-anchor:middle"/><g line-height="125%" style="letter-spacing:0;word-spacing:0;font-family:&apos;Gentium Book Basic&apos;"><text y="491.26" x="-398.34" style="font-size:208.33"><tspan y="491.26" x="-398.34"/></text><text y="223.5" x="125.41" style="font-size:129.23"><tspan y="223.5" x="125.41"/></text></g><text transform="scale(4.0128.2492)" y="547.71" x="228.33" style="font-size:46.954;font-family:Arial;text-anchor:middle"/><text y="143.5" x="706.68" line-height="125%" style="letter-spacing:0;word-spacing:0;font-size:129.23;font-family:&apos;Gentium Book Basic&apos;"><tspan y="143.5" x="706.68"/></text><text transform="scale(4.0128.2492)" y="226.68" x="373.18" style="font-size:46.954;font-family:Arial;text-anchor:middle"/><text y="-37.76" x="-364.9" line-height="125%" style="letter-spacing:0;word-spacing:0;font-size:129.23;font-family:&apos;Gentium Book Basic&apos;"><tspan y="-37.76" x="-364.9"/></text><text transform="scale(4.0128.2492)" y="-500.67" x="106.14" style="font-size:46.954;font-family:Arial;text-anchor:middle"/><text y="-254.23" x="733.15" line-height="125%" style="letter-spacing:0;word-spacing:0;font-size:129.23;font-family:&apos;Gentium Book Basic&apos;"><tspan y="-254.23" x="733.15"/></text><text transform="scale(4.0128.2492)" y="-1369.33" x="379.78" style="font-size:46.954;font-family:Arial;text-anchor:middle"/><text y="-334.24" x="1314.42" line-height="125%" style="letter-spacing:0;word-spacing:0;font-size:129.23;font-family:&apos;Gentium Book Basic&apos;"><tspan y="-334.24" x="1314.42"/></text><text transform="scale(4.0128.2492)" y="-1690.37" x="524.63" style="font-size:46.954;font-family:Arial;text-anchor:middle"/><text y="-806.64" x="925.3" line-height="125%" style="letter-spacing:0;word-spacing:0;font-size:129.23;font-family:&apos;Gentium Book Basic&apos;"><tspan y="-806.64" x="925.3"/></text><text transform="scale(4.0128.2492)" y="-3586.01" x="427.66" style="font-size:46.954;font-family:Arial;text-anchor:middle"/><text y="-886.64" x="1506.56" line-height="125%" style="letter-spacing:0;word-spacing:0;font-size:129.23;font-family:&apos;Gentium Book Basic&apos;"><tspan y="-886.64" x="1506.56"/></text><text transform="scale(4.0128.2492)" y="-3907.04" x="572.51" style="font-size:46.954;font-family:Arial;text-anchor:middle"/><g line-height="125%" style="letter-spacing:0;word-spacing:0;font-family:&apos;Gentium Book Basic&apos;"><text y="528.08" x="-326.24" style="font-size:208.33"><tspan y="528.08" x="-326.24"/></text><text y="223.5" x="125.41" style="font-size:129.23"><tspan y="223.5" x="125.41"/></text></g><text transform="scale(4.0128.2492)" y="547.71" x="228.33" style="font-size:46.954;font-family:Arial;text-anchor:middle"/><text y="143.5" x="706.68" line-height="125%" style="letter-spacing:0;word-spacing:0;font-size:129.23;font-family:&apos;Gentium Book Basic&apos;"><tspan y="143.5" x="706.68"/></text><text transform="scale(4.0128.2492)" y="226.68" x="373.18" style="font-size:46.954;font-family:Arial;text-anchor:middle"/><text y="-37.76" x="-364.9" line-height="125%" style="letter-spacing:0;word-spacing:0;font-size:129.23;font-family:&apos;Gentium Book Basic&apos;"><tspan y="-37.76" x="-364.9"/></text><text transform="scale(4.0128.2492)" y="-500.67" x="106.14" style="font-size:46.954;font-family:Arial;text-anchor:middle"/><text y="-254.23" x="733.15" line-height="125%" style="letter-spacing:0;word-spacing:0;font-size:129.23;font-family:&apos;Gentium Book Basic&apos;"><tspan y="-254.23" x="733.15"/></text><text transform="scale(4.0128.2492)" y="-1369.33" x="379.78" style="font-size:46.954;font-family:Arial;text-anchor:middle"/><text y="-334.24" x="1314.42" line-height="125%" style="letter-spacing:0;word-spacing:0;font-size:129.23;font-family:&apos;Gentium Book Basic&apos;"><tspan y="-334.24" x="1314.42"/></text><text transform="scale(4.0128.2492)" y="-1690.37" x="524.63" style="font-size:46.954;font-family:Arial;text-anchor:middle"/><text y="-806.64" x="925.3" line-height="125%" style="letter-spacing:0;word-spacing:0;font-size:129.23;font-family:&apos;Gentium Book Basic&apos;"><tspan y="-806.64" x="925.3"/></text><text transform="scale(4.0128.2492)" y="-3586.01" x="427.66" style="font-size:46.954;font-family:Arial;text-anchor:middle"/><text y="-886.64" x="1506.56" line-height="125%" style="letter-spacing:0;word-spacing:0;font-size:129.23;font-family:&apos;Gentium Book Basic&apos;"><tspan y="-886.64" x="1506.56"/></text><text transform="scale(4.0128.2492)" y="-3907.04" x="572.51" style="font-size:46.954;font-family:Arial;text-anchor:middle"/><g line-height="125%" style="letter-spacing:0;word-spacing:0;font-family:&apos;Gentium Book Basic&apos;"><text y="528.08" x="-326.24" style="font-size:208.33"><tspan y="528.08" x="-326.24"/></text><text y="91.57" x="-259.64" style="font-size:129.23"><tspan y="91.57" x="-259.64"/></text></g><text transform="scale(4.0128.2492)" y="18.314" x="132.38" style="font-size:46.954;font-family:Arial;text-anchor:middle"/><text y="11.572" x="321.63" line-height="125%" style="letter-spacing:0;word-spacing:0;font-size:129.23;font-family:&apos;Gentium Book Basic&apos;"><tspan y="11.572" x="321.63"/></text><text transform="scale(4.0128.2492)" y="-302.72" x="277.23" style="font-size:46.954;font-family:Arial;text-anchor:middle"/><text y="-169.69" x="-749.95" line-height="125%" style="letter-spacing:0;word-spacing:0;font-size:129.23;font-family:&apos;Gentium Book Basic&apos;"><tspan y="-169.69" x="-749.95"/></text><text transform="scale(4.0128.2492)" y="-1030.07" x="10.188" style="font-size:46.954;font-family:Arial;text-anchor:middle"/><text y="-386.16" x="348.1" line-height="125%" style="letter-spacing:0;word-spacing:0;font-size:129.23;font-family:&apos;Gentium Book Basic&apos;"><tspan y="-386.16" x="348.1"/></text><text transform="scale(4.0128.2492)" y="-1898.75" x="283.83" style="font-size:46.954;font-family:Arial;text-anchor:middle"/><text y="-466.16" x="929.37" line-height="125%" style="letter-spacing:0;word-spacing:0;font-size:129.23;font-family:&apos;Gentium Book Basic&apos;"><tspan y="-466.16" x="929.37"/></text><text transform="scale(4.0128.2492)" y="-2219.77" x="428.68" style="font-size:46.954;font-family:Arial;text-anchor:middle"/><text y="-938.56" x="540.25" line-height="125%" style="letter-spacing:0;word-spacing:0;font-size:129.23;font-family:&apos;Gentium Book Basic&apos;"><tspan y="-938.56" x="540.25"/></text><text transform="scale(4.0128.2492)" y="-4115.42" x="331.71" style="font-size:46.954;font-family:Arial;text-anchor:middle"/><text y="-1018.57" x="1121.51" line-height="125%" style="letter-spacing:0;word-spacing:0;font-size:129.23;font-family:&apos;Gentium Book Basic&apos;"><tspan y="-1018.57" x="1121.51"/></text><text transform="scale(4.0128.2492)" y="-4436.46" x="476.56" style="font-size:46.954;font-family:Arial;text-anchor:middle"/><text y="396.15" x="-711.29" line-height="125%" style="letter-spacing:0;word-spacing:0;font-size:208.33;font-family:&apos;Gentium Book Basic&apos;"><tspan y="396.15" x="-711.29"/></text><rect y="-.009" x="-.008" rx="25.988" height="512" width="512" style="fill:#9a3034"/><g transform="translate(-553.62 1.337)" line-height="125%" style="letter-spacing:0;word-spacing:0;font-size:208.33;font-family:&apos;Gentium Book Basic&apos;"><text y="89.28" x="261.57"><tspan y="89.28" x="261.57"/></text><text y="367.4" x="-2097.26"><tspan y="367.4" x="-2097.26"/></text><text y="140.11" x="-1809.05"><tspan y="140.11" x="-1809.05"/></text><text y="-116.79" x="2385.55"><tspan y="-116.79" x="2385.55"/></text><text y="28.25" x="257.62"><tspan y="28.25" x="257.62"/></text><text y="306.36" x="-2101.21"><tspan y="306.36" x="-2101.21"/></text><text y="79.08" x="-1812.99"><tspan y="79.08" x="-1812.99"/></text></g><path d="m134.64 96.16l-20.764 83.27h-73.1v46.07l48.752 48.752-2.686 10.508h-70.939v46.5l48.25 48.25-8.668 34.584 97.91 97.91h332.61c14.397 0 25.988-11.591 25.988-25.988v-347.11l-40.998-40.998h-147.43v33.854l-35.586-35.586h-47.797l-11.533 45.779-45.779-45.779h-48.23" style="opacity:.25;fill-rule:evenodd"/><g transform="matrix(1.37475 0 0 1.37475-87.5-95.95)" style="fill:#fff"><path d="m299.01 141h107.24v230h-107.24z" style="fill-opacity:.435;fill-rule:evenodd"/><text y="371" x="188.33" text-align="center" line-height="125%" style="letter-spacing:0;word-spacing:0;font-size:322.19;font-family:Sans;font-weight:bold;text-anchor:middle"><tspan y="371" x="188.33" style="fill:#fff">#</tspan></text></g></svg>