<?xml version="1.0" encoding="UTF-8" standalone="no"?>
<svg xmlns="http://www.w3.org/2000/svg" viewBox="0 0 512 512">
 <text style="word-spacing:0;letter-spacing:0" font-size="129.23" y="271.06" x="165.22" font-family="&apos;Gentium Book Basic&apos;" line-height="125%">
  <tspan y="271.06" x="165.22"/>
 </text>
 <text style="text-anchor:middle" transform="scale(4.0128.2492)" font-size="46.954" y="738.52" x="238.25" font-family="Arial"/>
 <text style="word-spacing:0;letter-spacing:0" font-size="129.23" y="191.06" x="746.49" font-family="&apos;Gentium Book Basic&apos;" line-height="125%">
  <tspan y="191.06" x="746.49"/>
 </text>
 <text style="text-anchor:middle" transform="scale(4.0128.2492)" font-size="46.954" y="417.51" x="383.1" font-family="Arial"/>
 <text style="word-spacing:0;letter-spacing:0" font-size="129.23" y="9.793" x="-325.09" font-family="&apos;Gentium Book Basic&apos;" line-height="125%">
  <tspan y="9.793" x="-325.09"/>
 </text>
 <text style="text-anchor:middle" transform="scale(4.0128.2492)" font-size="46.954" y="-309.85" x="116.06" font-family="Arial"/>
 <text style="word-spacing:0;letter-spacing:0" font-size="129.23" y="-206.67" x="772.96" font-family="&apos;Gentium Book Basic&apos;" line-height="125%">
  <tspan y="-206.67" x="772.96"/>
 </text>
 <text style="text-anchor:middle" transform="scale(4.0128.2492)" font-size="46.954" y="-1178.52" x="389.7" font-family="Arial"/>
 <text style="word-spacing:0;letter-spacing:0" font-size="129.23" y="-286.68" x="1354.23" font-family="&apos;Gentium Book Basic&apos;" line-height="125%">
  <tspan y="-286.68" x="1354.23"/>
 </text>
 <text style="text-anchor:middle" transform="scale(4.0128.2492)" font-size="46.954" y="-1499.54" x="534.55" font-family="Arial"/>
 <text style="word-spacing:0;letter-spacing:0" font-size="129.23" y="-759.08" x="965.11" font-family="&apos;Gentium Book Basic&apos;" line-height="125%">
  <tspan y="-759.08" x="965.11"/>
 </text>
 <text style="text-anchor:middle" transform="scale(4.0128.2492)" font-size="46.954" y="-3395.18" x="437.58" font-family="Arial"/>
 <text style="word-spacing:0;letter-spacing:0" font-size="129.23" y="-839.08" x="1546.37" font-family="&apos;Gentium Book Basic&apos;" line-height="125%">
  <tspan y="-839.08" x="1546.37"/>
 </text>
 <text style="text-anchor:middle" transform="scale(4.0128.2492)" font-size="46.954" y="-3716.21" x="582.43" font-family="Arial"/>
 <g style="word-spacing:0;letter-spacing:0" font-family="&apos;Gentium Book Basic&apos;" line-height="125%">
  <text y="575.64" x="-286.43" font-size="208.33">
   <tspan y="575.64" x="-286.43"/>
  </text>
  <text y="186.68" x="53.31" font-size="129.23">
   <tspan y="186.68" x="53.31"/>
  </text>
 </g>
 <text style="text-anchor:middle" transform="scale(4.0128.2492)" font-size="46.954" y="399.98" x="210.36" font-family="Arial"/>
 <text style="word-spacing:0;letter-spacing:0" font-size="129.23" y="106.68" x="634.58" font-family="&apos;Gentium Book Basic&apos;" line-height="125%">
  <tspan y="106.68" x="634.58"/>
 </text>
 <text style="text-anchor:middle" transform="scale(4.0128.2492)" font-size="46.954" y="78.942" x="355.21" font-family="Arial"/>
 <text style="word-spacing:0;letter-spacing:0" font-size="129.23" y="-74.58" x="-437" font-family="&apos;Gentium Book Basic&apos;" line-height="125%">
  <tspan y="-74.58" x="-437"/>
 </text>
 <text style="text-anchor:middle" transform="scale(4.0128.2492)" font-size="46.954" y="-648.4" x="88.18" font-family="Arial"/>
 <text style="word-spacing:0;letter-spacing:0" font-size="129.23" y="-291.05" x="661.05" font-family="&apos;Gentium Book Basic&apos;" line-height="125%">
  <tspan y="-291.05" x="661.05"/>
 </text>
 <text style="text-anchor:middle" transform="scale(4.0128.2492)" font-size="46.954" y="-1517.08" x="361.81" font-family="Arial"/>
 <text style="word-spacing:0;letter-spacing:0" font-size="129.23" y="-371.05" x="1242.32" font-family="&apos;Gentium Book Basic&apos;" line-height="125%">
  <tspan y="-371.05" x="1242.32"/>
 </text>
 <text style="text-anchor:middle" transform="scale(4.0128.2492)" font-size="46.954" y="-1838.11" x="506.66" font-family="Arial"/>
 <text style="word-spacing:0;letter-spacing:0" font-size="129.23" y="-843.45" x="853.2" font-family="&apos;Gentium Book Basic&apos;" line-height="125%">
  <tspan y="-843.45" x="853.2"/>
 </text>
 <text style="text-anchor:middle" transform="scale(4.0128.2492)" font-size="46.954" y="-3733.76" x="409.69" font-family="Arial"/>
 <text style="word-spacing:0;letter-spacing:0" font-size="129.23" y="-923.46" x="1434.46" font-family="&apos;Gentium Book Basic&apos;" line-height="125%">
  <tspan y="-923.46" x="1434.46"/>
 </text>
 <text style="text-anchor:middle" transform="scale(4.0128.2492)" font-size="46.954" y="-4054.8" x="554.54" font-family="Arial"/>
 <g style="word-spacing:0;letter-spacing:0" font-family="&apos;Gentium Book Basic&apos;" line-height="125%">
  <text y="491.26" x="-398.34" font-size="208.33">
   <tspan y="491.26" x="-398.34"/>
  </text>
  <text y="223.5" x="125.41" font-size="129.23">
   <tspan y="223.5" x="125.41"/>
  </text>
 </g>
 <text style="text-anchor:middle" transform="scale(4.0128.2492)" font-size="46.954" y="547.71" x="228.33" font-family="Arial"/>
 <text style="word-spacing:0;letter-spacing:0" font-size="129.23" y="143.5" x="706.68" font-family="&apos;Gentium Book Basic&apos;" line-height="125%">
  <tspan y="143.5" x="706.68"/>
 </text>
 <text style="text-anchor:middle" transform="scale(4.0128.2492)" font-size="46.954" y="226.68" x="373.18" font-family="Arial"/>
 <text style="word-spacing:0;letter-spacing:0" font-size="129.23" y="-37.76" x="-364.9" font-family="&apos;Gentium Book Basic&apos;" line-height="125%">
  <tspan y="-37.76" x="-364.9"/>
 </text>
 <text style="text-anchor:middle" transform="scale(4.0128.2492)" font-size="46.954" y="-500.67" x="106.14" font-family="Arial"/>
 <text style="word-spacing:0;letter-spacing:0" font-size="129.23" y="-254.23" x="733.15" font-family="&apos;Gentium Book Basic&apos;" line-height="125%">
  <tspan y="-254.23" x="733.15"/>
 </text>
 <text style="text-anchor:middle" transform="scale(4.0128.2492)" font-size="46.954" y="-1369.33" x="379.78" font-family="Arial"/>
 <text style="word-spacing:0;letter-spacing:0" font-size="129.23" y="-334.24" x="1314.42" font-family="&apos;Gentium Book Basic&apos;" line-height="125%">
  <tspan y="-334.24" x="1314.42"/>
 </text>
 <text style="text-anchor:middle" transform="scale(4.0128.2492)" font-size="46.954" y="-1690.37" x="524.63" font-family="Arial"/>
 <text style="word-spacing:0;letter-spacing:0" font-size="129.23" y="-806.64" x="925.3" font-family="&apos;Gentium Book Basic&apos;" line-height="125%">
  <tspan y="-806.64" x="925.3"/>
 </text>
 <text style="text-anchor:middle" transform="scale(4.0128.2492)" font-size="46.954" y="-3586.01" x="427.66" font-family="Arial"/>
 <text style="word-spacing:0;letter-spacing:0" font-size="129.23" y="-886.64" x="1506.56" font-family="&apos;Gentium Book Basic&apos;" line-height="125%">
  <tspan y="-886.64" x="1506.56"/>
 </text>
 <text style="text-anchor:middle" transform="scale(4.0128.2492)" font-size="46.954" y="-3907.04" x="572.51" font-family="Arial"/>
 <g style="word-spacing:0;letter-spacing:0" font-family="&apos;Gentium Book Basic&apos;" line-height="125%">
  <text y="528.08" x="-326.24" font-size="208.33">
   <tspan y="528.08" x="-326.24"/>
  </text>
  <text y="223.5" x="125.41" font-size="129.23">
   <tspan y="223.5" x="125.41"/>
  </text>
 </g>
 <text style="text-anchor:middle" transform="scale(4.0128.2492)" font-size="46.954" y="547.71" x="228.33" font-family="Arial"/>
 <text style="word-spacing:0;letter-spacing:0" font-size="129.23" y="143.5" x="706.68" font-family="&apos;Gentium Book Basic&apos;" line-height="125%">
  <tspan y="143.5" x="706.68"/>
 </text>
 <text style="text-anchor:middle" transform="scale(4.0128.2492)" font-size="46.954" y="226.68" x="373.18" font-family="Arial"/>
 <text style="word-spacing:0;letter-spacing:0" font-size="129.23" y="-37.76" x="-364.9" font-family="&apos;Gentium Book Basic&apos;" line-height="125%">
  <tspan y="-37.76" x="-364.9"/>
 </text>
 <text style="text-anchor:middle" transform="scale(4.0128.2492)" font-size="46.954" y="-500.67" x="106.14" font-family="Arial"/>
 <text style="word-spacing:0;letter-spacing:0" font-size="129.23" y="-254.23" x="733.15" font-family="&apos;Gentium Book Basic&apos;" line-height="125%">
  <tspan y="-254.23" x="733.15"/>
 </text>
 <text style="text-anchor:middle" transform="scale(4.0128.2492)" font-size="46.954" y="-1369.33" x="379.78" font-family="Arial"/>
 <text style="word-spacing:0;letter-spacing:0" font-size="129.23" y="-334.24" x="1314.42" font-family="&apos;Gentium Book Basic&apos;" line-height="125%">
  <tspan y="-334.24" x="1314.42"/>
 </text>
 <text style="text-anchor:middle" transform="scale(4.0128.2492)" font-size="46.954" y="-1690.37" x="524.63" font-family="Arial"/>
 <text style="word-spacing:0;letter-spacing:0" font-size="129.23" y="-806.64" x="925.3" font-family="&apos;Gentium Book Basic&apos;" line-height="125%">
  <tspan y="-806.64" x="925.3"/>
 </text>
 <text style="text-anchor:middle" transform="scale(4.0128.2492)" font-size="46.954" y="-3586.01" x="427.66" font-family="Arial"/>
 <text style="word-spacing:0;letter-spacing:0" font-size="129.23" y="-886.64" x="1506.56" font-family="&apos;Gentium Book Basic&apos;" line-height="125%">
  <tspan y="-886.64" x="1506.56"/>
 </text>
 <text style="text-anchor:middle" transform="scale(4.0128.2492)" font-size="46.954" y="-3907.04" x="572.51" font-family="Arial"/>
 <g style="word-spacing:0;letter-spacing:0" font-family="&apos;Gentium Book Basic&apos;" line-height="125%">
  <text y="528.08" x="-326.24" font-size="208.33">
   <tspan y="528.08" x="-326.24"/>
  </text>
  <text y="91.57" x="-259.64" font-size="129.23">
   <tspan y="91.57" x="-259.64"/>
  </text>
 </g>
 <text style="text-anchor:middle" transform="scale(4.0128.2492)" font-size="46.954" y="18.314" x="132.38" font-family="Arial"/>
 <text style="word-spacing:0;letter-spacing:0" font-size="129.23" y="11.572" x="321.63" font-family="&apos;Gentium Book Basic&apos;" line-height="125%">
  <tspan y="11.572" x="321.63"/>
 </text>
 <text style="text-anchor:middle" transform="scale(4.0128.2492)" font-size="46.954" y="-302.72" x="277.23" font-family="Arial"/>
 <text style="word-spacing:0;letter-spacing:0" font-size="129.23" y="-169.69" x="-749.95" font-family="&apos;Gentium Book Basic&apos;" line-height="125%">
  <tspan y="-169.69" x="-749.95"/>
 </text>
 <text style="text-anchor:middle" transform="scale(4.0128.2492)" font-size="46.954" y="-1030.07" x="10.188" font-family="Arial"/>
 <text style="word-spacing:0;letter-spacing:0" font-size="129.23" y="-386.16" x="348.1" font-family="&apos;Gentium Book Basic&apos;" line-height="125%">
  <tspan y="-386.16" x="348.1"/>
 </text>
 <text style="text-anchor:middle" transform="scale(4.0128.2492)" font-size="46.954" y="-1898.75" x="283.83" font-family="Arial"/>
 <text style="word-spacing:0;letter-spacing:0" font-size="129.23" y="-466.16" x="929.37" font-family="&apos;Gentium Book Basic&apos;" line-height="125%">
  <tspan y="-466.16" x="929.37"/>
 </text>
 <text style="text-anchor:middle" transform="scale(4.0128.2492)" font-size="46.954" y="-2219.77" x="428.68" font-family="Arial"/>
 <text style="word-spacing:0;letter-spacing:0" font-size="129.23" y="-938.56" x="540.25" font-family="&apos;Gentium Book Basic&apos;" line-height="125%">
  <tspan y="-938.56" x="540.25"/>
 </text>
 <text style="text-anchor:middle" transform="scale(4.0128.2492)" font-size="46.954" y="-4115.42" x="331.71" font-family="Arial"/>
 <text style="word-spacing:0;letter-spacing:0" font-size="129.23" y="-1018.57" x="1121.51" font-family="&apos;Gentium Book Basic&apos;" line-height="125%">
  <tspan y="-1018.57" x="1121.51"/>
 </text>
 <text style="text-anchor:middle" transform="scale(4.0128.2492)" font-size="46.954" y="-4436.46" x="476.56" font-family="Arial"/>
 <text style="word-spacing:0;letter-spacing:0" font-size="208.33" y="396.15" x="-711.29" font-family="&apos;Gentium Book Basic&apos;" line-height="125%">
  <tspan y="396.15" x="-711.29"/>
 </text>
 <rect rx="25.988" height="512" width="512" y="-.009" x="-.008" fill="#9a3034"/>
 <g style="word-spacing:0;letter-spacing:0" font-family="&apos;Gentium Book Basic&apos;" transform="translate(-553.62 1.337)" font-size="208.33" line-height="125%">
  <text y="89.28" x="261.57">
   <tspan y="89.28" x="261.57"/>
  </text>
  <text y="367.4" x="-2097.26">
   <tspan y="367.4" x="-2097.26"/>
  </text>
  <text y="140.11" x="-1809.05">
   <tspan y="140.11" x="-1809.05"/>
  </text>
  <text y="-116.79" x="2385.55">
   <tspan y="-116.79" x="2385.55"/>
  </text>
  <text y="28.25" x="257.62">
   <tspan y="28.25" x="257.62"/>
  </text>
  <text y="306.36" x="-2101.21">
   <tspan y="306.36" x="-2101.21"/>
  </text>
  <text y="79.08" x="-1812.99">
   <tspan y="79.08" x="-1812.99"/>
  </text>
 </g>
 <path opacity=".25" d="m134.64 96.16l-20.764 83.27h-73.1v46.07l48.752 48.752-2.686 10.508h-70.939v46.5l48.25 48.25-8.668 34.584 97.91 97.91h332.61c14.397 0 25.988-11.591 25.988-25.988v-347.11l-40.998-40.998h-147.43v33.854l-35.586-35.586h-47.797l-11.533 45.779-45.779-45.779h-48.23" fill-rule="evenodd"/>
 <g transform="matrix(1.37475 0 0 1.37475-87.5-95.95)" fill="#fff">
  <path fill-opacity=".435" d="m299.01 141h107.24v230h-107.24z" fill-rule="evenodd"/>
  <text style="word-spacing:0;letter-spacing:0;text-anchor:middle" font-family="Sans" font-size="322.19" y="371" x="188.33" font-weight="bold" line-height="125%" text-align="center">
   <tspan y="371" x="188.33" fill="#fff">#</tspan>
  </text>
 </g>
</svg>
