<?xml version="1.0" encoding="UTF-8" standalone="no"?>
<svg xmlns="http://www.w3.org/2000/svg" viewBox="0 0 512 512">
 <text style="word-spacing:0;letter-spacing:0" font-size="129.23" y="271.06" x="165.22" font-family="&apos;Gentium Book Basic&apos;" line-height="125%">
  <tspan y="271.06" x="165.22"/>
 </text>
 <text style="text-anchor:middle" transform="scale(4.0128.2492)" font-size="46.954" y="738.52" x="238.25" font-family="Arial"/>
 <text style="word-spacing:0;letter-spacing:0" font-size="129.23" y="191.06" x="746.49" font-family="&apos;Gentium Book Basic&apos;" line-height="125%">
  <tspan y="191.06" x="746.49"/>
 </text>
 <text style="text-anchor:middle" transform="scale(4.0128.2492)" font-size="46.954" y="417.51" x="383.1" font-family="Arial"/>
 <text style="word-spacing:0;letter-spacing:0" font-size="129.23" y="9.793" x="-325.09" font-family="&apos;Gentium Book Basic&apos;" line-height="125%">
  <tspan y="9.793" x="-325.09"/>
 </text>
 <text style="text-anchor:middle" transform="scale(4.0128.2492)" font-size="46.954" y="-309.85" x="116.06" font-family="Arial"/>
 <text style="word-spacing:0;letter-spacing:0" font-size="129.23" y="-206.67" x="772.96" font-family="&apos;Gentium Book Basic&apos;" line-height="125%">
  <tspan y="-206.67" x="772.96"/>
 </text>
 <text style="text-anchor:middle" transform="scale(4.0128.2492)" font-size="46.954" y="-1178.52" x="389.7" font-family="Arial"/>
 <text style="word-spacing:0;letter-spacing:0" font-size="129.23" y="-286.68" x="1354.23" font-family="&apos;Gentium Book Basic&apos;" line-height="125%">
  <tspan y="-286.68" x="1354.23"/>
 </text>
 <text style="text-anchor:middle" transform="scale(4.0128.2492)" font-size="46.954" y="-1499.54" x="534.55" font-family="Arial"/>
 <text style="word-spacing:0;letter-spacing:0" font-size="129.23" y="-759.08" x="965.11" font-family="&apos;Gentium Book Basic&apos;" line-height="125%">
  <tspan y="-759.08" x="965.11"/>
 </text>
 <text style="text-anchor:middle" transform="scale(4.0128.2492)" font-size="46.954" y="-3395.18" x="437.58" font-family="Arial"/>
 <text style="word-spacing:0;letter-spacing:0" font-size="129.23" y="-839.08" x="1546.37" font-family="&apos;Gentium Book Basic&apos;" line-height="125%">
  <tspan y="-839.08" x="1546.37"/>
 </text>
 <text style="text-anchor:middle" transform="scale(4.0128.2492)" font-size="46.954" y="-3716.21" x="582.43" font-family="Arial"/>
 <g style="word-spacing:0;letter-spacing:0" font-family="&apos;Gentium Book Basic&apos;" line-height="125%">
  <text y="575.64" x="-286.43" font-size="208.33">
   <tspan y="575.64" x="-286.43"/>
  </text>
  <text y="186.68" x="53.31" font-size="129.23">
   <tspan y="186.68" x="53.31"/>
  </text>
 </g>
 <text style="text-anchor:middle" transform="scale(4.0128.2492)" font-size="46.954" y="399.98" x="210.36" font-family="Arial"/>
 <text style="word-spacing:0;letter-spacing:0" font-size="129.23" y="106.68" x="634.58" font-family="&apos;Gentium Book Basic&apos;" line-height="125%">
  <tspan y="106.68" x="634.58"/>
 </text>
 <text style="text-anchor:middle" transform="scale(4.0128.2492)" font-size="46.954" y="78.942" x="355.21" font-family="Arial"/>
 <text style="word-spacing:0;letter-spacing:0" font-size="129.23" y="-74.58" x="-437" font-family="&apos;Gentium Book Basic&apos;" line-height="125%">
  <tspan y="-74.58" x="-437"/>
 </text>
 <text style="text-anchor:middle" transform="scale(4.0128.2492)" font-size="46.954" y="-648.4" x="88.18" font-family="Arial"/>
 <text style="word-spacing:0;letter-spacing:0" font-size="129.23" y="-291.05" x="661.05" font-family="&apos;Gentium Book Basic&apos;" line-height="125%">
  <tspan y="-291.05" x="661.05"/>
 </text>
 <text style="text-anchor:middle" transform="scale(4.0128.2492)" font-size="46.954" y="-1517.08" x="361.81" font-family="Arial"/>
 <text style="word-spacing:0;letter-spacing:0" font-size="129.23" y="-371.05" x="1242.32" font-family="&apos;Gentium Book Basic&apos;" line-height="125%">
  <tspan y="-371.05" x="1242.32"/>
 </text>
 <text style="text-anchor:middle" transform="scale(4.0128.2492)" font-size="46.954" y="-1838.11" x="506.66" font-family="Arial"/>
 <text style="word-spacing:0;letter-spacing:0" font-size="129.23" y="-843.45" x="853.2" font-family="&apos;Gentium Book Basic&apos;" line-height="125%">
  <tspan y="-843.45" x="853.2"/>
 </text>
 <text style="text-anchor:middle" transform="scale(4.0128.2492)" font-size="46.954" y="-3733.76" x="409.69" font-family="Arial"/>
 <text style="word-spacing:0;letter-spacing:0" font-size="129.23" y="-923.46" x="1434.46" font-family="&apos;Gentium Book Basic&apos;" line-height="125%">
  <tspan y="-923.46" x="1434.46"/>
 </text>
 <text style="text-anchor:middle" transform="scale(4.0128.2492)" font-size="46.954" y="-4054.8" x="554.54" font-family="Arial"/>
 <g style="word-spacing:0;letter-spacing:0" font-family="&apos;Gentium Book Basic&apos;" line-height="125%">
  <text y="491.26" x="-398.34" font-size="208.33">
   <tspan y="491.26" x="-398.34"/>
  </text>
  <text y="223.5" x="125.41" font-size="129.23">
   <tspan y="223.5" x="125.41"/>
  </text>
 </g>
 <text style="text-anchor:middle" transform="scale(4.0128.2492)" font-size="46.954" y="547.71" x="228.33" font-family="Arial"/>
 <text style="word-spacing:0;letter-spacing:0" font-size="129.23" y="143.5" x="706.68" font-family="&apos;Gentium Book Basic&apos;" line-height="125%">
  <tspan y="143.5" x="706.68"/>
 </text>
 <text style="text-anchor:middle" transform="scale(4.0128.2492)" font-size="46.954" y="226.68" x="373.18" font-family="Arial"/>
 <text style="word-spacing:0;letter-spacing:0" font-size="129.23" y="-37.76" x="-364.9" font-family="&apos;Gentium Book Basic&apos;" line-height="125%">
  <tspan y="-37.76" x="-364.9"/>
 </text>
 <text style="text-anchor:middle" transform="scale(4.0128.2492)" font-size="46.954" y="-500.67" x="106.14" font-family="Arial"/>
 <text style="word-spacing:0;letter-spacing:0" font-size="129.23" y="-254.23" x="733.15" font-family="&apos;Gentium Book Basic&apos;" line-height="125%">
  <tspan y="-254.23" x="733.15"/>
 </text>
 <text style="text-anchor:middle" transform="scale(4.0128.2492)" font-size="46.954" y="-1369.33" x="379.78" font-family="Arial"/>
 <text style="word-spacing:0;letter-spacing:0" font-size="129.23" y="-334.24" x="1314.42" font-family="&apos;Gentium Book Basic&apos;" line-height="125%">
  <tspan y="-334.24" x="1314.42"/>
 </text>
 <text style="text-anchor:middle" transform="scale(4.0128.2492)" font-size="46.954" y="-1690.37" x="524.63" font-family="Arial"/>
 <text style="word-spacing:0;letter-spacing:0" font-size="129.23" y="-806.64" x="925.3" font-family="&apos;Gentium Book Basic&apos;" line-height="125%">
  <tspan y="-806.64" x="925.3"/>
 </text>
 <text style="text-anchor:middle" transform="scale(4.0128.2492)" font-size="46.954" y="-3586.01" x="427.66" font-family="Arial"/>
 <text style="word-spacing:0;letter-spacing:0" font-size="129.23" y="-886.64" x="1506.56" font-family="&apos;Gentium Book Basic&apos;" line-height="125%">
  <tspan y="-886.64" x="1506.56"/>
 </text>
 <text style="text-anchor:middle" transform="scale(4.0128.2492)" font-size="46.954" y="-3907.04" x="572.51" font-family="Arial"/>
 <g style="word-spacing:0;letter-spacing:0" font-family="&apos;Gentium Book Basic&apos;" line-height="125%">
  <text y="528.08" x="-326.24" font-size="208.33">
   <tspan y="528.08" x="-326.24"/>
  </text>
  <text y="223.5" x="125.41" font-size="129.23">
   <tspan y="223.5" x="125.41"/>
  </text>
 </g>
 <text style="text-anchor:middle" transform="scale(4.0128.2492)" font-size="46.954" y="547.71" x="228.33" font-family="Arial"/>
 <text style="word-spacing:0;letter-spacing:0" font-size="129.23" y="143.5" x="706.68" font-family="&apos;Gentium Book Basic&apos;" line-height="125%">
  <tspan y="143.5" x="706.68"/>
 </text>
 <text style="text-anchor:middle" transform="scale(4.0128.2492)" font-size="46.954" y="226.68" x="373.18" font-family="Arial"/>
 <text style="word-spacing:0;letter-spacing:0" font-size="129.23" y="-37.76" x="-364.9" font-family="&apos;Gentium Book Basic&apos;" line-height="125%">
  <tspan y="-37.76" x="-364.9"/>
 </text>
 <text style="text-anchor:middle" transform="scale(4.0128.2492)" font-size="46.954" y="-500.67" x="106.14" font-family="Arial"/>
 <text style="word-spacing:0;letter-spacing:0" font-size="129.23" y="-254.23" x="733.15" font-family="&apos;Gentium Book Basic&apos;" line-height="125%">
  <tspan y="-254.23" x="733.15"/>
 </text>
 <text style="text-anchor:middle" transform="scale(4.0128.2492)" font-size="46.954" y="-1369.33" x="379.78" font-family="Arial"/>
 <text style="word-spacing:0;letter-spacing:0" font-size="129.23" y="-334.24" x="1314.42" font-family="&apos;Gentium Book Basic&apos;" line-height="125%">
  <tspan y="-334.24" x="1314.42"/>
 </text>
 <text style="text-anchor:middle" transform="scale(4.0128.2492)" font-size="46.954" y="-1690.37" x="524.63" font-family="Arial"/>
 <text style="word-spacing:0;letter-spacing:0" font-size="129.23" y="-806.64" x="925.3" font-family="&apos;Gentium Book Basic&apos;" line-height="125%">
  <tspan y="-806.64" x="925.3"/>
 </text>
 <text style="text-anchor:middle" transform="scale(4.0128.2492)" font-size="46.954" y="-3586.01" x="427.66" font-family="Arial"/>
 <text style="word-spacing:0;letter-spacing:0" font-size="129.23" y="-886.64" x="1506.56" font-family="&apos;Gentium Book Basic&apos;" line-height="125%">
  <tspan y="-886.64" x="1506.56"/>
 </text>
 <text style="text-anchor:middle" transform="scale(4.0128.2492)" font-size="46.954" y="-3907.04" x="572.51" font-family="Arial"/>
 <g style="word-spacing:0;letter-spacing:0" font-family="&apos;Gentium Book Basic&apos;" line-height="125%">
  <text y="528.08" x="-326.24" font-size="208.33">
   <tspan y="528.08" x="-326.24"/>
  </text>
  <text y="91.57" x="-259.64" font-size="129.23">
   <tspan y="91.57" x="-259.64"/>
  </text>
 </g>
 <text style="text-anchor:middle" transform="scale(4.0128.2492)" font-size="46.954" y="18.314" x="132.38" font-family="Arial"/>
 <text style="word-spacing:0;letter-spacing:0" font-size="129.23" y="11.572" x="321.63" font-family="&apos;Gentium Book Basic&apos;" line-height="125%">
  <tspan y="11.572" x="321.63"/>
 </text>
 <text style="text-anchor:middle" transform="scale(4.0128.2492)" font-size="46.954" y="-302.72" x="277.23" font-family="Arial"/>
 <text style="word-spacing:0;letter-spacing:0" font-size="129.23" y="-169.69" x="-749.95" font-family="&apos;Gentium Book Basic&apos;" line-height="125%">
  <tspan y="-169.69" x="-749.95"/>
 </text>
 <text style="text-anchor:middle" transform="scale(4.0128.2492)" font-size="46.954" y="-1030.07" x="10.188" font-family="Arial"/>
 <text style="word-spacing:0;letter-spacing:0" font-size="129.23" y="-386.16" x="348.1" font-family="&apos;Gentium Book Basic&apos;" line-height="125%">
  <tspan y="-386.16" x="348.1"/>
 </text>
 <text style="text-anchor:middle" transform="scale(4.0128.2492)" font-size="46.954" y="-1898.75" x="283.83" font-family="Arial"/>
 <text style="word-spacing:0;letter-spacing:0" font-size="129.23" y="-466.16" x="929.37" font-family="&apos;Gentium Book Basic&apos;" line-height="125%">
  <tspan y="-466.16" x="929.37"/>
 </text>
 <text style="text-anchor:middle" transform="scale(4.0128.2492)" font-size="46.954" y="-2219.77" x="428.68" font-family="Arial"/>
 <text style="word-spacing:0;letter-spacing:0" font-size="129.23" y="-938.56" x="540.25" font-family="&apos;Gentium Book Basic&apos;" line-height="125%">
  <tspan y="-938.56" x="540.25"/>
 </text>
 <text style="text-anchor:middle" transform="scale(4.0128.2492)" font-size="46.954" y="-4115.42" x="331.71" font-family="Arial"/>
 <text style="word-spacing:0;letter-spacing:0" font-size="129.23" y="-1018.57" x="1121.51" font-family="&apos;Gentium Book Basic&apos;" line-height="125%">
  <tspan y="-1018.57" x="1121.51"/>
 </text>
 <text style="text-anchor:middle" transform="scale(4.0128.2492)" font-size="46.954" y="-4436.46" x="476.56" font-family="Arial"/>
 <g style="word-spacing:0;letter-spacing:0" font-family="&apos;Gentium Book Basic&apos;" line-height="125%">
  <text y="396.15" x="-711.29" font-size="208.33">
   <tspan y="396.15" x="-711.29"/>
  </text>
  <g font-size="0">
   <text y="90.62" x="-292.05">
    <tspan y="90.62" x="-292.05"/>
   </text>
   <text y="368.74" x="-2650.88">
    <tspan y="368.74" x="-2650.88"/>
   </text>
   <text y="141.45" x="-2362.67">
    <tspan y="141.45" x="-2362.67"/>
   </text>
   <text y="-115.45" x="1831.93">
    <tspan y="-115.45" x="1831.93"/>
   </text>
   <text y="29.587" x="-296">
    <tspan y="29.587" x="-296"/>
   </text>
   <text y="307.7" x="-2654.83">
    <tspan y="307.7" x="-2654.83"/>
   </text>
   <text y="80.42" x="-2366.61">
    <tspan y="80.42" x="-2366.61"/>
   </text>
  </g>
 </g>
 <rect width="512" fill="#e46431" rx="25.988" height="512"/>
 <text style="word-spacing:0;letter-spacing:0" font-size="129.23" y="209.69" x="243.53" font-family="&apos;Gentium Book Basic&apos;" line-height="125%">
  <tspan y="209.69" x="243.53"/>
 </text>
 <text style="text-anchor:middle" transform="scale(4.0128.2492)" font-size="46.954" y="492.31" x="257.77" font-family="Arial"/>
 <text style="word-spacing:0;letter-spacing:0" font-size="129.23" y="129.69" x="824.8" font-family="&apos;Gentium Book Basic&apos;" line-height="125%">
  <tspan y="129.69" x="824.8"/>
 </text>
 <text style="text-anchor:middle" transform="scale(4.0128.2492)" font-size="46.954" y="171.28" x="402.62" font-family="Arial"/>
 <text style="word-spacing:0;letter-spacing:0" font-size="129.23" y="-51.566" x="-246.78" font-family="&apos;Gentium Book Basic&apos;" line-height="125%">
  <tspan y="-51.566" x="-246.78"/>
 </text>
 <text style="text-anchor:middle" transform="scale(4.0128.2492)" font-size="46.954" y="-556.08" x="135.58" font-family="Arial"/>
 <text style="word-spacing:0;letter-spacing:0" font-size="129.23" y="-268.04" x="851.27" font-family="&apos;Gentium Book Basic&apos;" line-height="125%">
  <tspan y="-268.04" x="851.27"/>
 </text>
 <text style="text-anchor:middle" transform="scale(4.0128.2492)" font-size="46.954" y="-1424.73" x="409.22" font-family="Arial"/>
 <text style="word-spacing:0;letter-spacing:0" font-size="129.23" y="-348.05" x="1432.54" font-family="&apos;Gentium Book Basic&apos;" line-height="125%">
  <tspan y="-348.05" x="1432.54"/>
 </text>
 <text style="text-anchor:middle" transform="scale(4.0128.2492)" font-size="46.954" y="-1745.77" x="554.07" font-family="Arial"/>
 <text style="word-spacing:0;letter-spacing:0" font-size="129.23" y="-820.45" x="1043.42" font-family="&apos;Gentium Book Basic&apos;" line-height="125%">
  <tspan y="-820.45" x="1043.42"/>
 </text>
 <text style="text-anchor:middle" transform="scale(4.0128.2492)" font-size="46.954" y="-3641.41" x="457.1" font-family="Arial"/>
 <text style="word-spacing:0;letter-spacing:0" font-size="129.23" y="-900.45" x="1624.68" font-family="&apos;Gentium Book Basic&apos;" line-height="125%">
  <tspan y="-900.45" x="1624.68"/>
 </text>
 <text style="text-anchor:middle" transform="scale(4.0128.2492)" font-size="46.954" y="-3962.44" x="601.95" font-family="Arial"/>
 <text style="word-spacing:0;letter-spacing:0" font-size="208.33" y="514.27" x="-208.12" font-family="&apos;Gentium Book Basic&apos;" line-height="125%">
  <tspan y="514.27" x="-208.12"/>
 </text>
 <g fill-rule="evenodd">
  <path opacity=".25" d="m471 88.3l-430 335.4 88.3 88.3h356.71c14.397 0 25.988-11.591 25.988-25.988v-356.71l-41-41"/>
  <path d="m471 88.3l-430 335.4h67.19v-40.25h13.438v40.25h40.31v-40.25h13.438v40.25h40.31v-40.25h13.438v40.25h40.31v-40.25h13.438v40.25h40.31v-40.25h13.438v40.25h40.31v-40.25h13.438v40.25h40.31v-40.25h13.438v40.25h26.876v-335.4m-67.19 147.58v120.74h-161.25l161.25-120.74" fill="#fff"/>
 </g>
</svg>
