<?xml version="1.0" encoding="UTF-8" standalone="no"?>
<svg xmlns="http://www.w3.org/2000/svg" viewBox="0 0 512 512">
 <rect width="512" fill="#99c1c3" rx="25.988" height="512"/>
 <text style="word-spacing:0;letter-spacing:0" font-size="129.23" y="232.71" x="120.81" font-family="&apos;Gentium Book Basic&apos;" line-height="125%">
  <tspan y="232.71" x="120.81"/>
 </text>
 <text style="text-anchor:middle" transform="scale(4.0128.2492)" font-size="46.954" y="584.65" x="227.19" font-family="Arial"/>
 <text style="word-spacing:0;letter-spacing:0" font-size="129.23" y="152.71" x="702.08" font-family="&apos;Gentium Book Basic&apos;" line-height="125%">
  <tspan y="152.71" x="702.08"/>
 </text>
 <text style="text-anchor:middle" transform="scale(4.0128.2492)" font-size="46.954" y="263.62" x="372.04" font-family="Arial"/>
 <text style="word-spacing:0;letter-spacing:0" font-size="129.23" y="-28.555" x="-369.5" font-family="&apos;Gentium Book Basic&apos;" line-height="125%">
  <tspan y="-28.555" x="-369.5"/>
 </text>
 <text style="text-anchor:middle" transform="scale(4.0128.2492)" font-size="46.954" y="-463.74" x="105" font-family="Arial"/>
 <text style="word-spacing:0;letter-spacing:0" font-size="129.23" y="-245.02" x="728.55" font-family="&apos;Gentium Book Basic&apos;" line-height="125%">
  <tspan y="-245.02" x="728.55"/>
 </text>
 <text style="text-anchor:middle" transform="scale(4.0128.2492)" font-size="46.954" y="-1332.39" x="378.63" font-family="Arial"/>
 <text style="word-spacing:0;letter-spacing:0" font-size="129.23" y="-325.03" x="1309.82" font-family="&apos;Gentium Book Basic&apos;" line-height="125%">
  <tspan y="-325.03" x="1309.82"/>
 </text>
 <text style="text-anchor:middle" transform="scale(4.0128.2492)" font-size="46.954" y="-1653.43" x="523.48" font-family="Arial"/>
 <text style="word-spacing:0;letter-spacing:0" font-size="129.23" y="-797.43" x="920.7" font-family="&apos;Gentium Book Basic&apos;" line-height="125%">
  <tspan y="-797.43" x="920.7"/>
 </text>
 <text style="text-anchor:middle" transform="scale(4.0128.2492)" font-size="46.954" y="-3549.07" x="426.51" font-family="Arial"/>
 <text style="word-spacing:0;letter-spacing:0" font-size="129.23" y="-877.43" x="1501.96" font-family="&apos;Gentium Book Basic&apos;" line-height="125%">
  <tspan y="-877.43" x="1501.96"/>
 </text>
 <text style="text-anchor:middle" transform="scale(4.0128.2492)" font-size="46.954" y="-3870.1" x="571.36" font-family="Arial"/>
 <text style="word-spacing:0;letter-spacing:0" font-size="208.33" y="537.29" x="-330.84" font-family="&apos;Gentium Book Basic&apos;" line-height="125%">
  <tspan y="537.29" x="-330.84"/>
 </text>
 <g fill-rule="evenodd">
  <path opacity=".25" d="m285.96 41.01c-87.81-0.644-171.12 50.49-207.87 131h-0.002c-37.458 82.03-18.388 179.64 42.842 240.87l99.12 99.12h265.96c14.397 0 25.988-11.591 25.988-25.988v-223.08l-221.85-221.85c-1.396-0.036-2.792-0.06-4.186-0.07"/>
  <path d="m261.73 267.56c-3.247-14.159 13.764-22.363 25.347-20.849 22.634 2.965 33.371 28.349 28.16 48.691-7.927 30.932-43.05 44.855-71.848 35.589-39.12-12.591-56.28-57.992-42.877-95.29 17.08-47.5 72.74-67.978 118.34-50.33 55.701 21.563 79.46 87.79 57.59 141.87-25.932 64.13-102.5 91.26-164.85 65.07-72.32-30.385-102.72-117.62-72.3-188.46 34.697-80.79 132.29-114.59 211.35-79.81 88.96 39.14 126 147.48 86.996 235.06-43.41 97.49-162.07 137.96-257.83 94.56-105.6-47.881-149.35-177.35-101.73-281.65 37.34-81.79 122.72-133.26 212.06-130.93" fill="#fff"/>
 </g>
</svg>
