<svg xmlns="http://www.w3.org/2000/svg" viewBox="0 0 512 512"><defs><clipPath><rect y="6" x="6" rx="6" height="84" width="84" style="fill:#fff"/></clipPath><clipPath><rect y="6" x="6" rx="6" height="84" width="84" style="fill:#fff"/></clipPath><clipPath><rect y="6" x="6" rx="6" height="84" width="84" style="fill:#fff"/></clipPath><clipPath><rect y="6" x="6" rx="6" height="84" width="84" style="fill:#fff"/></clipPath><clipPath><rect y="6" x="6" rx="6" height="84" width="84" style="fill:#fff"/></clipPath><clipPath><rect y="6" x="6" rx="6" height="84" width="84" style="fill:#fff"/></clipPath><clipPath><rect y="6" x="6" rx="6" height="84" width="84" style="fill:#fff"/></clipPath><clipPath><rect y="6" x="6" rx="6" height="84" width="84" style="fill:#fff"/></clipPath><clipPath><rect y="6" x="6" rx="6" height="84" width="84" style="fill:#fff"/></clipPath><clipPath><rect y="6" x="6" rx="6" height="84" width="84" style="fill:#fff"/></clipPath><filter height="1.384" width="1.384" y="-.192" x="-.192" style="color-interpolation-filters:sRGB"><feGaussianBlur stdDeviation="5.28"/></filter><filter style="color-interpolation-filters:sRGB"><feGaussianBlur stdDeviation="1.71"/></filter><linearGradient gradientUnits="userSpaceOnUse" gradientTransform="scale(1.0059.99417)" y1="92.54" x2="0" y2="7.02"><stop/><stop offset="1" style="stop-opacity:.588"/></linearGradient><linearGradient gradientUnits="userSpaceOnUse" y2="138.66" x2="0" y1="20.221"><stop style="stop-color:#fff"/><stop offset="1" style="stop-color:#fff;stop-opacity:0"/></linearGradient></defs><rect width="512" height="512" rx="25.988" style="fill:#99c1c3"/><text x="120.81" y="232.71" line-height="125%" style="letter-spacing:0;word-spacing:0;font-size:129.23;font-family:&apos;Gentium Book Basic&apos;"><tspan x="120.81" y="232.71"/></text><text x="227.19" y="584.65" transform="scale(4.0128.2492)" style="font-size:46.954;font-family:Arial;text-anchor:middle"/><text x="702.08" y="152.71" line-height="125%" style="letter-spacing:0;word-spacing:0;font-size:129.23;font-family:&apos;Gentium Book Basic&apos;"><tspan x="702.08" y="152.71"/></text><text x="372.04" y="263.62" transform="scale(4.0128.2492)" style="font-size:46.954;font-family:Arial;text-anchor:middle"/><text x="-369.5" y="-28.555" line-height="125%" style="letter-spacing:0;word-spacing:0;font-size:129.23;font-family:&apos;Gentium Book Basic&apos;"><tspan x="-369.5" y="-28.555"/></text><text x="105" y="-463.74" transform="scale(4.0128.2492)" style="font-size:46.954;font-family:Arial;text-anchor:middle"/><text x="728.55" y="-245.02" line-height="125%" style="letter-spacing:0;word-spacing:0;font-size:129.23;font-family:&apos;Gentium Book Basic&apos;"><tspan x="728.55" y="-245.02"/></text><text x="378.63" y="-1332.39" transform="scale(4.0128.2492)" style="font-size:46.954;font-family:Arial;text-anchor:middle"/><text x="1309.82" y="-325.03" line-height="125%" style="letter-spacing:0;word-spacing:0;font-size:129.23;font-family:&apos;Gentium Book Basic&apos;"><tspan x="1309.82" y="-325.03"/></text><text x="523.48" y="-1653.43" transform="scale(4.0128.2492)" style="font-size:46.954;font-family:Arial;text-anchor:middle"/><text x="920.7" y="-797.43" line-height="125%" style="letter-spacing:0;word-spacing:0;font-size:129.23;font-family:&apos;Gentium Book Basic&apos;"><tspan x="920.7" y="-797.43"/></text><text x="426.51" y="-3549.07" transform="scale(4.0128.2492)" style="font-size:46.954;font-family:Arial;text-anchor:middle"/><text x="1501.96" y="-877.43" line-height="125%" style="letter-spacing:0;word-spacing:0;font-size:129.23;font-family:&apos;Gentium Book Basic&apos;"><tspan x="1501.96" y="-877.43"/></text><text x="571.36" y="-3870.1" transform="scale(4.0128.2492)" style="font-size:46.954;font-family:Arial;text-anchor:middle"/><text x="-330.84" y="537.29" line-height="125%" style="letter-spacing:0;word-spacing:0;font-size:208.33;font-family:&apos;Gentium Book Basic&apos;"><tspan x="-330.84" y="537.29"/></text><g style="fill-rule:evenodd"><path d="m285.96 41.01c-87.81-.644-171.12 50.49-207.87 131h-.002c-37.458 82.03-18.388 179.64 42.842 240.87l99.12 99.12h265.96c14.397 0 25.988-11.591 25.988-25.988v-223.08l-221.85-221.85c-1.396-.036-2.792-.06-4.186-.07" style="opacity:.25"/><path d="m261.73 267.56c-3.247-14.159 13.764-22.363 25.347-20.849 22.634 2.965 33.371 28.349 28.16 48.691-7.927 30.932-43.05 44.855-71.848 35.589-39.12-12.591-56.28-57.992-42.877-95.29 17.08-47.5 72.74-67.978 118.34-50.33 55.701 21.563 79.46 87.79 57.59 141.87-25.932 64.13-102.5 91.26-164.85 65.07-72.32-30.385-102.72-117.62-72.3-188.46 34.697-80.79 132.29-114.59 211.35-79.81 88.96 39.14 126 147.48 86.996 235.06-43.41 97.49-162.07 137.96-257.83 94.56-105.6-47.881-149.35-177.35-101.73-281.65 37.34-81.79 122.72-133.26 212.06-130.93" style="fill:#fff"/></g></svg>