<svg xmlns="http://www.w3.org/2000/svg" viewBox="0 0 512 512"><defs><clipPath><rect y="6" x="6" rx="6" height="84" width="84" style="fill:#fff"/></clipPath><clipPath><rect y="6" x="6" rx="6" height="84" width="84" style="fill:#fff"/></clipPath><clipPath><rect y="6" x="6" rx="6" height="84" width="84" style="fill:#fff"/></clipPath><clipPath><rect y="6" x="6" rx="6" height="84" width="84" style="fill:#fff"/></clipPath><clipPath><rect y="6" x="6" rx="6" height="84" width="84" style="fill:#fff"/></clipPath><clipPath><rect y="6" x="6" rx="6" height="84" width="84" style="fill:#fff"/></clipPath><clipPath><rect y="6" x="6" rx="6" height="84" width="84" style="fill:#fff"/></clipPath><clipPath><rect y="6" x="6" rx="6" height="84" width="84" style="fill:#fff"/></clipPath><clipPath><rect y="6" x="6" rx="6" height="84" width="84" style="fill:#fff"/></clipPath><clipPath><rect y="6" x="6" rx="6" height="84" width="84" style="fill:#fff"/></clipPath><filter height="1.384" width="1.384" y="-.192" x="-.192" style="color-interpolation-filters:sRGB"><feGaussianBlur stdDeviation="5.28"/></filter><filter style="color-interpolation-filters:sRGB"><feGaussianBlur stdDeviation="1.71"/></filter><linearGradient gradientUnits="userSpaceOnUse" gradientTransform="scale(1.0059.99417)" y1="92.54" x2="0" y2="7.02"><stop/><stop offset="1" style="stop-opacity:.588"/></linearGradient><linearGradient gradientUnits="userSpaceOnUse" y2="138.66" x2="0" y1="20.221"><stop style="stop-color:#fff"/><stop offset="1" style="stop-color:#fff;stop-opacity:0"/></linearGradient></defs><text x="120.81" y="232.71" line-height="125%" style="letter-spacing:0;word-spacing:0;font-size:129.23;font-family:&apos;Gentium Book Basic&apos;"><tspan x="120.81" y="232.71"/></text><text x="227.19" y="584.65" transform="scale(4.0128.2492)" style="font-size:46.954;font-family:Arial;text-anchor:middle"/><text x="702.08" y="152.71" line-height="125%" style="letter-spacing:0;word-spacing:0;font-size:129.23;font-family:&apos;Gentium Book Basic&apos;"><tspan x="702.08" y="152.71"/></text><text x="372.04" y="263.62" transform="scale(4.0128.2492)" style="font-size:46.954;font-family:Arial;text-anchor:middle"/><text x="-369.5" y="-28.555" line-height="125%" style="letter-spacing:0;word-spacing:0;font-size:129.23;font-family:&apos;Gentium Book Basic&apos;"><tspan x="-369.5" y="-28.555"/></text><text x="105" y="-463.74" transform="scale(4.0128.2492)" style="font-size:46.954;font-family:Arial;text-anchor:middle"/><text x="728.55" y="-245.02" line-height="125%" style="letter-spacing:0;word-spacing:0;font-size:129.23;font-family:&apos;Gentium Book Basic&apos;"><tspan x="728.55" y="-245.02"/></text><text x="378.63" y="-1332.39" transform="scale(4.0128.2492)" style="font-size:46.954;font-family:Arial;text-anchor:middle"/><text x="1309.82" y="-325.03" line-height="125%" style="letter-spacing:0;word-spacing:0;font-size:129.23;font-family:&apos;Gentium Book Basic&apos;"><tspan x="1309.82" y="-325.03"/></text><text x="523.48" y="-1653.43" transform="scale(4.0128.2492)" style="font-size:46.954;font-family:Arial;text-anchor:middle"/><text x="920.7" y="-797.43" line-height="125%" style="letter-spacing:0;word-spacing:0;font-size:129.23;font-family:&apos;Gentium Book Basic&apos;"><tspan x="920.7" y="-797.43"/></text><text x="426.51" y="-3549.07" transform="scale(4.0128.2492)" style="font-size:46.954;font-family:Arial;text-anchor:middle"/><text x="1501.96" y="-877.43" line-height="125%" style="letter-spacing:0;word-spacing:0;font-size:129.23;font-family:&apos;Gentium Book Basic&apos;"><tspan x="1501.96" y="-877.43"/></text><text x="571.36" y="-3870.1" transform="scale(4.0128.2492)" style="font-size:46.954;font-family:Arial;text-anchor:middle"/><text x="-330.84" y="537.29" line-height="125%" style="letter-spacing:0;word-spacing:0;font-size:208.33;font-family:&apos;Gentium Book Basic&apos;"><tspan x="-330.84" y="537.29"/></text><rect width="512" height="512" rx="25.988" style="fill:#62c0dc"/><text x="7.285" y="142.2" line-height="125%" style="letter-spacing:0;word-spacing:0;font-size:129.23;font-family:&apos;Gentium Book Basic&apos;"><tspan x="7.285" y="142.2"/></text><text x="198.9" y="221.45" transform="scale(4.0128.2492)" style="font-size:46.954;font-family:Arial;text-anchor:middle"/><text x="588.56" y="62.2" line-height="125%" style="letter-spacing:0;word-spacing:0;font-size:129.23;font-family:&apos;Gentium Book Basic&apos;"><tspan x="588.56" y="62.2"/></text><text x="343.75" y="-99.58" transform="scale(4.0128.2492)" style="font-size:46.954;font-family:Arial;text-anchor:middle"/><text x="-483.02" y="-119.06" line-height="125%" style="letter-spacing:0;word-spacing:0;font-size:129.23;font-family:&apos;Gentium Book Basic&apos;"><tspan x="-483.02" y="-119.06"/></text><text x="76.71" y="-826.94" transform="scale(4.0128.2492)" style="font-size:46.954;font-family:Arial;text-anchor:middle"/><text x="615.03" y="-335.53" line-height="125%" style="letter-spacing:0;word-spacing:0;font-size:129.23;font-family:&apos;Gentium Book Basic&apos;"><tspan x="615.03" y="-335.53"/></text><text x="350.35" y="-1695.59" transform="scale(4.0128.2492)" style="font-size:46.954;font-family:Arial;text-anchor:middle"/><text x="1196.3" y="-415.54" line-height="125%" style="letter-spacing:0;word-spacing:0;font-size:129.23;font-family:&apos;Gentium Book Basic&apos;"><tspan x="1196.3" y="-415.54"/></text><text x="495.19" y="-2016.63" transform="scale(4.0128.2492)" style="font-size:46.954;font-family:Arial;text-anchor:middle"/><text x="807.18" y="-887.94" line-height="125%" style="letter-spacing:0;word-spacing:0;font-size:129.23;font-family:&apos;Gentium Book Basic&apos;"><tspan x="807.18" y="-887.94"/></text><text x="398.23" y="-3912.27" transform="scale(4.0128.2492)" style="font-size:46.954;font-family:Arial;text-anchor:middle"/><text x="1388.44" y="-967.94" line-height="125%" style="letter-spacing:0;word-spacing:0;font-size:129.23;font-family:&apos;Gentium Book Basic&apos;"><tspan x="1388.44" y="-967.94"/></text><text x="543.07" y="-4233.3" transform="scale(4.0128.2492)" style="font-size:46.954;font-family:Arial;text-anchor:middle"/><g transform="translate(-722.35-89.16)" line-height="125%" style="letter-spacing:0;word-spacing:0;font-size:208.33;font-family:&apos;Gentium Book Basic&apos;"><text x="277.99" y="535.94"><tspan x="277.99" y="535.94"/></text><text x="-1771.42" y="413.27"><tspan x="-1771.42" y="413.27"/></text></g><text x="-303.72" y="737.69" transform="scale(4.0128.2492)" style="font-size:75.7;font-family:Arial;text-anchor:middle"/><text x="-1935.59" y="770.02" line-height="125%" style="letter-spacing:0;word-spacing:0;font-size:208.33;font-family:&apos;Gentium Book Basic&apos;"><tspan x="-1935.59" y="770.02"/></text><text x="-164.63" y="2527.03" transform="scale(4.0128.2492)" style="font-size:75.7;font-family:Arial;text-anchor:middle"/><g transform="translate(-722.35-89.16)" line-height="125%" style="letter-spacing:0;word-spacing:0"><text x="875.45" y="621.66" style="font-size:40;font-family:Sans"><tspan x="875.45" y="621.66" style="font-weight:bold;font-style:italic"/></text><text x="-1886.19" y="424.14" style="font-size:208.33;font-family:&apos;Gentium Book Basic&apos;"><tspan x="-1886.19" y="424.14"/></text></g><text x="-332.32" y="781.33" transform="scale(4.0128.2492)" style="font-size:75.7;font-family:Arial;text-anchor:middle"/><text x="-1902.2" y="179.35" line-height="125%" style="letter-spacing:0;word-spacing:0;font-size:208.33;font-family:&apos;Gentium Book Basic&apos;"><tspan x="-1902.2" y="179.35"/></text><text x="-156.3" y="156.81" transform="scale(4.0128.2492)" style="font-size:75.7;font-family:Arial;text-anchor:middle"/><text x="-1868.83" y="171.23" line-height="125%" style="letter-spacing:0;word-spacing:0;font-size:208.33;font-family:&apos;Gentium Book Basic&apos;"><tspan x="-1868.83" y="171.23"/></text><text x="-147.99" y="124.21" transform="scale(4.0128.2492)" style="font-size:75.7;font-family:Arial;text-anchor:middle"/><text x="-2490.54" y="204.15" line-height="125%" style="letter-spacing:0;word-spacing:0;font-size:208.33;font-family:&apos;Gentium Book Basic&apos;"><tspan x="-2490.54" y="204.15"/></text><text x="-302.92" y="256.33" transform="scale(4.0128.2492)" style="font-size:75.7;font-family:Arial;text-anchor:middle"/><path d="m100.55 41c-2.622.159-4.695 2.127-5.309 4.797l.008.008c-.543 2.365.348 4.815 2.094 6.561l.07.07c-.024-.023-.051-.043-.074-.066l88.34 88.34h-62.881l73.71 73.71c-.002.001-.005.002-.008.004l-73.72-73.72c-36.05 0-65.03 30.598-65.03 68.19l.008.008v194.25c0 19.312 7.653 36.69 19.986 49.02l.082.082c-.028-.028-.058-.054-.086-.082l59.82 59.82h348.44c14.397 0 25.988-11.591 25.988-25.988v-248.57l-77.82-77.82c-3.075-3.075-6.44-5.829-10.05-8.219l-.43-.43c-.887-.887-2.084-1.617-3.307-2.031h-.002l-.99-.34c-6.2-3.358-13.05-5.721-20.238-6.852l53.814 53.814c0 .001 0 .003 0 .004l-53.816-53.816-295.61-100.39c-.924-.313-2.109-.397-2.982-.342l-.018-.018" style="opacity:.25"/><path d="m100.55 41c-2.622.159-4.694 2.127-5.308 4.797-.819 3.557 1.609 7.312 5.308 8.565l255.13 86.34h-232.89c-36.05 0-65.03 30.599-65.03 68.19v194.26c0 37.581 28.983 67.839 65.03 67.839h266.41c36.05 0 65.03-30.25 65.03-67.839v-194.26c0-24.21-11.988-45.553-30.19-57.56-.906-1.052-2.262-1.928-3.65-2.398l-.995-.342c-6.2-3.358-13.05-5.721-20.238-6.852l-295.61-100.39c-.925-.313-2.112-.398-2.986-.342m153.28 157.6c60.99 0 110.15 48.577 110.15 108.95 0 60.38-49.15 108.95-110.15 108.95-60.99 0-110.15-48.577-110.15-108.95 0-60.37 49.15-108.95 110.15-108.95" style="fill:#fff"/></svg>