<?xml version="1.0" encoding="UTF-8" standalone="no"?>
<svg xmlns="http://www.w3.org/2000/svg" viewBox="0 0 512 512">
 <text style="word-spacing:0;letter-spacing:0" font-size="129.23" y="232.71" x="120.81" font-family="&apos;Gentium Book Basic&apos;" line-height="125%">
  <tspan y="232.71" x="120.81"/>
 </text>
 <text style="text-anchor:middle" transform="scale(4.0128.2492)" font-size="46.954" y="584.65" x="227.19" font-family="Arial"/>
 <text style="word-spacing:0;letter-spacing:0" font-size="129.23" y="152.71" x="702.08" font-family="&apos;Gentium Book Basic&apos;" line-height="125%">
  <tspan y="152.71" x="702.08"/>
 </text>
 <text style="text-anchor:middle" transform="scale(4.0128.2492)" font-size="46.954" y="263.62" x="372.04" font-family="Arial"/>
 <text style="word-spacing:0;letter-spacing:0" font-size="129.23" y="-28.555" x="-369.5" font-family="&apos;Gentium Book Basic&apos;" line-height="125%">
  <tspan y="-28.555" x="-369.5"/>
 </text>
 <text style="text-anchor:middle" transform="scale(4.0128.2492)" font-size="46.954" y="-463.74" x="105" font-family="Arial"/>
 <text style="word-spacing:0;letter-spacing:0" font-size="129.23" y="-245.02" x="728.55" font-family="&apos;Gentium Book Basic&apos;" line-height="125%">
  <tspan y="-245.02" x="728.55"/>
 </text>
 <text style="text-anchor:middle" transform="scale(4.0128.2492)" font-size="46.954" y="-1332.39" x="378.63" font-family="Arial"/>
 <text style="word-spacing:0;letter-spacing:0" font-size="129.23" y="-325.03" x="1309.82" font-family="&apos;Gentium Book Basic&apos;" line-height="125%">
  <tspan y="-325.03" x="1309.82"/>
 </text>
 <text style="text-anchor:middle" transform="scale(4.0128.2492)" font-size="46.954" y="-1653.43" x="523.48" font-family="Arial"/>
 <text style="word-spacing:0;letter-spacing:0" font-size="129.23" y="-797.43" x="920.7" font-family="&apos;Gentium Book Basic&apos;" line-height="125%">
  <tspan y="-797.43" x="920.7"/>
 </text>
 <text style="text-anchor:middle" transform="scale(4.0128.2492)" font-size="46.954" y="-3549.07" x="426.51" font-family="Arial"/>
 <text style="word-spacing:0;letter-spacing:0" font-size="129.23" y="-877.43" x="1501.96" font-family="&apos;Gentium Book Basic&apos;" line-height="125%">
  <tspan y="-877.43" x="1501.96"/>
 </text>
 <text style="text-anchor:middle" transform="scale(4.0128.2492)" font-size="46.954" y="-3870.1" x="571.36" font-family="Arial"/>
 <text style="word-spacing:0;letter-spacing:0" font-size="208.33" y="537.29" x="-330.84" font-family="&apos;Gentium Book Basic&apos;" line-height="125%">
  <tspan y="537.29" x="-330.84"/>
 </text>
 <rect width="512" fill="#62c0dc" rx="25.988" height="512"/>
 <text style="word-spacing:0;letter-spacing:0" font-size="129.23" y="142.2" x="7.285" font-family="&apos;Gentium Book Basic&apos;" line-height="125%">
  <tspan y="142.2" x="7.285"/>
 </text>
 <text style="text-anchor:middle" transform="scale(4.0128.2492)" font-size="46.954" y="221.45" x="198.9" font-family="Arial"/>
 <text style="word-spacing:0;letter-spacing:0" font-size="129.23" y="62.2" x="588.56" font-family="&apos;Gentium Book Basic&apos;" line-height="125%">
  <tspan y="62.2" x="588.56"/>
 </text>
 <text style="text-anchor:middle" transform="scale(4.0128.2492)" font-size="46.954" y="-99.58" x="343.75" font-family="Arial"/>
 <text style="word-spacing:0;letter-spacing:0" font-size="129.23" y="-119.06" x="-483.02" font-family="&apos;Gentium Book Basic&apos;" line-height="125%">
  <tspan y="-119.06" x="-483.02"/>
 </text>
 <text style="text-anchor:middle" transform="scale(4.0128.2492)" font-size="46.954" y="-826.94" x="76.71" font-family="Arial"/>
 <text style="word-spacing:0;letter-spacing:0" font-size="129.23" y="-335.53" x="615.03" font-family="&apos;Gentium Book Basic&apos;" line-height="125%">
  <tspan y="-335.53" x="615.03"/>
 </text>
 <text style="text-anchor:middle" transform="scale(4.0128.2492)" font-size="46.954" y="-1695.59" x="350.35" font-family="Arial"/>
 <text style="word-spacing:0;letter-spacing:0" font-size="129.23" y="-415.54" x="1196.3" font-family="&apos;Gentium Book Basic&apos;" line-height="125%">
  <tspan y="-415.54" x="1196.3"/>
 </text>
 <text style="text-anchor:middle" transform="scale(4.0128.2492)" font-size="46.954" y="-2016.63" x="495.19" font-family="Arial"/>
 <text style="word-spacing:0;letter-spacing:0" font-size="129.23" y="-887.94" x="807.18" font-family="&apos;Gentium Book Basic&apos;" line-height="125%">
  <tspan y="-887.94" x="807.18"/>
 </text>
 <text style="text-anchor:middle" transform="scale(4.0128.2492)" font-size="46.954" y="-3912.27" x="398.23" font-family="Arial"/>
 <text style="word-spacing:0;letter-spacing:0" font-size="129.23" y="-967.94" x="1388.44" font-family="&apos;Gentium Book Basic&apos;" line-height="125%">
  <tspan y="-967.94" x="1388.44"/>
 </text>
 <text style="text-anchor:middle" transform="scale(4.0128.2492)" font-size="46.954" y="-4233.3" x="543.07" font-family="Arial"/>
 <g style="word-spacing:0;letter-spacing:0" font-family="&apos;Gentium Book Basic&apos;" transform="translate(-722.35-89.16)" font-size="208.33" line-height="125%">
  <text y="535.94" x="277.99">
   <tspan y="535.94" x="277.99"/>
  </text>
  <text y="413.27" x="-1771.42">
   <tspan y="413.27" x="-1771.42"/>
  </text>
 </g>
 <text style="text-anchor:middle" transform="scale(4.0128.2492)" font-size="75.7" y="737.69" x="-303.72" font-family="Arial"/>
 <text style="word-spacing:0;letter-spacing:0" font-size="208.33" y="770.02" x="-1935.59" font-family="&apos;Gentium Book Basic&apos;" line-height="125%">
  <tspan y="770.02" x="-1935.59"/>
 </text>
 <text style="text-anchor:middle" transform="scale(4.0128.2492)" font-size="75.7" y="2527.03" x="-164.63" font-family="Arial"/>
 <g style="word-spacing:0;letter-spacing:0" transform="translate(-722.35-89.16)" line-height="125%">
  <text y="621.66" x="875.45" font-family="Sans" font-size="40">
   <tspan y="621.66" x="875.45" font-weight="bold" font-style="italic"/>
  </text>
  <text y="424.14" x="-1886.19" font-family="&apos;Gentium Book Basic&apos;" font-size="208.33">
   <tspan y="424.14" x="-1886.19"/>
  </text>
 </g>
 <text style="text-anchor:middle" transform="scale(4.0128.2492)" font-size="75.7" y="781.33" x="-332.32" font-family="Arial"/>
 <text style="word-spacing:0;letter-spacing:0" font-size="208.33" y="179.35" x="-1902.2" font-family="&apos;Gentium Book Basic&apos;" line-height="125%">
  <tspan y="179.35" x="-1902.2"/>
 </text>
 <text style="text-anchor:middle" transform="scale(4.0128.2492)" font-size="75.7" y="156.81" x="-156.3" font-family="Arial"/>
 <text style="word-spacing:0;letter-spacing:0" font-size="208.33" y="171.23" x="-1868.83" font-family="&apos;Gentium Book Basic&apos;" line-height="125%">
  <tspan y="171.23" x="-1868.83"/>
 </text>
 <text style="text-anchor:middle" transform="scale(4.0128.2492)" font-size="75.7" y="124.21" x="-147.99" font-family="Arial"/>
 <text style="word-spacing:0;letter-spacing:0" font-size="208.33" y="204.15" x="-2490.54" font-family="&apos;Gentium Book Basic&apos;" line-height="125%">
  <tspan y="204.15" x="-2490.54"/>
 </text>
 <text style="text-anchor:middle" transform="scale(4.0128.2492)" font-size="75.7" y="256.33" x="-302.92" font-family="Arial"/>
 <path opacity=".25" d="m100.55 41c-2.622 0.159-4.695 2.127-5.309 4.797l0.008 0.008c-0.543 2.365 0.348 4.815 2.094 6.561l0.07 0.07c-0.024-0.023-0.051-0.043-0.074-0.066l88.34 88.34h-62.881l73.71 73.71c-0.002 0.001-0.005 0.002-0.008 0.004l-73.72-73.72c-36.05 0-65.03 30.598-65.03 68.19l0.008 0.008v194.25c0 19.312 7.653 36.69 19.986 49.02l0.082 0.082c-0.028-0.028-0.058-0.054-0.086-0.082l59.82 59.82h348.44c14.397 0 25.988-11.591 25.988-25.988v-248.57l-77.82-77.82c-3.075-3.075-6.44-5.829-10.05-8.219l-0.43-0.43c-0.887-0.887-2.084-1.617-3.307-2.031h-0.002l-0.99-0.34c-6.2-3.358-13.05-5.721-20.238-6.852l53.814 53.814v0.004l-53.816-53.816-295.61-100.39c-0.924-0.313-2.109-0.397-2.982-0.342l-0.018-0.018"/>
 <path d="m100.55 41c-2.622 0.159-4.694 2.127-5.308 4.797-0.819 3.557 1.609 7.312 5.308 8.565l255.13 86.34h-232.89c-36.05 0-65.03 30.599-65.03 68.19v194.26c0 37.581 28.983 67.839 65.03 67.839h266.41c36.05 0 65.03-30.25 65.03-67.839v-194.26c0-24.21-11.988-45.553-30.19-57.56-0.906-1.052-2.262-1.928-3.65-2.398l-0.995-0.342c-6.2-3.358-13.05-5.721-20.238-6.852l-295.61-100.39c-0.925-0.313-2.112-0.398-2.986-0.342m153.28 157.6c60.99 0 110.15 48.577 110.15 108.95 0 60.38-49.15 108.95-110.15 108.95-60.99 0-110.15-48.577-110.15-108.95 0-60.37 49.15-108.95 110.15-108.95" fill="#fff"/>
</svg>
