<?xml version="1.0" encoding="UTF-8" standalone="no"?>
<!-- Created with Inkscape (http://www.inkscape.org/) -->
<svg id="svg2" xmlns:rdf="http://www.w3.org/1999/02/22-rdf-syntax-ns#" xmlns="http://www.w3.org/2000/svg" height="100%" width="100%" version="1.1" xmlns:cc="http://creativecommons.org/ns#" viewBox="0 0 512 512" xmlns:dc="http://purl.org/dc/elements/1.1/">
 <metadata id="metadata83">
  <rdf:RDF>
   <cc:Work rdf:about="">
    <dc:format>image/svg+xml</dc:format>
    <dc:type rdf:resource="http://purl.org/dc/dcmitype/StillImage"/>
   </cc:Work>
  </rdf:RDF>
 </metadata>
 <defs id="defs4">
  <clipPath id="0">
   <rect id="rect7" rx="25.988" height="512" width="512" y="0" x="0" fill="#2d4c7b"/>
  </clipPath>
 </defs>
 <rect id="rect9" rx="25.988" height="512" width="512" y="0" x="0" fill="#2d4c7b"/>
 <text id="text11" style="word-spacing:0;letter-spacing:0" font-size="129.23px" line-height="125%" y="212.75999" x="139.21001" font-family="Gentium Book Basic">
  <tspan id="tspan13" y="212.75999" x="139.21001"/>
 </text>
 <text id="text15" style="text-anchor:middle" transform="scale(4.0128 .2492)" font-size="46.954px" y="504.62" x="231.77" font-family="Arial"/>
 <text id="text17" style="word-spacing:0;letter-spacing:0" font-size="129.23px" line-height="125%" y="132.75999" x="720.47998" font-family="Gentium Book Basic">
  <tspan id="tspan19" y="132.75999" x="720.47998"/>
 </text>
 <text id="text21" style="text-anchor:middle" transform="scale(4.0128 .2492)" font-size="46.954px" y="183.59" x="376.62" font-family="Arial"/>
 <text id="text23" style="word-spacing:0;letter-spacing:0" font-size="129.23px" line-height="125%" y="-48.5" x="-351.10001" font-family="Gentium Book Basic">
  <tspan id="tspan25" y="-48.5" x="-351.10001"/>
 </text>
 <text id="text27" style="text-anchor:middle" transform="scale(4.0128 .2492)" font-size="46.954px" y="-543.76001" x="109.58" font-family="Arial"/>
 <text id="text29" style="word-spacing:0;letter-spacing:0" font-size="129.23px" line-height="125%" y="-264.97" x="746.95001" font-family="Gentium Book Basic">
  <tspan id="tspan31" y="-264.97" x="746.95001"/>
 </text>
 <text id="text33" style="text-anchor:middle" transform="scale(4.0128 .2492)" font-size="46.954px" y="-1412.4301" x="383.22" font-family="Arial"/>
 <text id="text35" style="word-spacing:0;letter-spacing:0" font-size="129.23px" line-height="125%" y="-344.98001" x="1328.22" font-family="Gentium Book Basic">
  <tspan id="tspan37" y="-344.98001" x="1328.22"/>
 </text>
 <text id="text39" style="text-anchor:middle" transform="scale(4.0128 .2492)" font-size="46.954px" y="-1733.47" x="528.07001" font-family="Arial"/>
 <text id="text41" style="word-spacing:0;letter-spacing:0" font-size="129.23px" line-height="125%" y="-817.38" x="939.09998" font-family="Gentium Book Basic">
  <tspan id="tspan43" y="-817.38" x="939.09998"/>
 </text>
 <text id="text45" style="text-anchor:middle" transform="scale(4.0128 .2492)" font-size="46.954px" y="-3629.1201" x="431.10001" font-family="Arial"/>
 <text id="text47" style="word-spacing:0;letter-spacing:0" font-size="129.23px" line-height="125%" y="-897.38" x="1520.36" font-family="Gentium Book Basic">
  <tspan id="tspan49" y="-897.38" x="1520.36"/>
 </text>
 <text id="text51" style="text-anchor:middle" transform="scale(4.0128 .2492)" font-size="46.954px" y="-3950.1499" x="575.95001" font-family="Arial"/>
 <text id="text53" style="word-spacing:0;letter-spacing:0" font-size="208.33px" line-height="125%" y="517.34003" x="-312.44" font-family="Gentium Book Basic">
  <tspan id="tspan55" y="517.34003" x="-312.44"/>
 </text>
 <g id="g57" opacity=".25" style="color:#000000" clip-path="url(#0)">
  <path id="path59" d="m471 76.63s-35.832 53.749-89.59 53.749l353.55 353.55c53.757 0 89.59-53.749 89.59-53.749z"/>
  <path id="path61" d="m381.41 130.37c-50.09-9.653-69.977-1.438-71.67 0l353.55 353.55c1.691-1.438 21.581-9.653 71.67 0z"/>
  <path id="path63" d="m309.74 130.37v216.84l353.55 353.55v-216.84z"/>
  <path id="path65" d="m309.74 347.21c-2.373 45.675-39.79 91.44-95.59 112.48l353.55 353.55c55.795-21.04 93.21-66.805 95.59-112.48z"/>
  <path id="path67" d="m214.16 459.69c-56.04 21.15-114.61 10.99-147.31-21.72l353.55 353.55c32.707 32.707 91.27 42.869 147.31 21.722z"/>
  <path id="path69" d="m66.843 437.97c-8.602-8.6-15.415-18.76-19.924-30.32l353.55 353.55c4.509 11.561 11.322 21.723 19.924 30.32z"/>
  <path id="path71" d="m46.919 407.64c-21.656-55.51 17.958-122.71 88.741-149.42l353.55 353.55c-70.781 26.708-110.39 93.91-88.74 149.42z"/>
  <path id="path73" d="m135.66 258.22c54.788-20.667 105.12-15.547 138.25 15.476l353.55 353.55c-33.12-31.02-83.46-36.14-138.25-15.48z"/>
  <path id="path75" d="m273.9 273.7v-214.99l353.55 353.55v214.99z"/>
  <path id="path77" d="m273.9 58.71c71.67-47.657 138.28 17.18 197.08 17.916l353.55 353.55c-58.8-0.74-125.42-65.57-197.08-17.92z"/>
 </g>
 <path id="path79" style="color:#000000" d="m471 76.63s-35.832 53.749-89.59 53.749c-50.09-9.653-69.977-1.438-71.67 0v216.84c-2.373 45.675-39.79 91.44-95.59 112.48-70.781 26.708-145.59 3.474-167.24-52.05-21.656-55.51 17.958-122.71 88.74-149.42 54.788-20.667 105.12-15.547 138.25 15.476v-215c71.67-47.657 138.28 17.18 197.08 17.916" fill="#fff"/>
</svg>
