<svg xmlns="http://www.w3.org/2000/svg" xmlns:svg="http://www.w3.org/2000/svg" id="svg2" width="100%" height="100%" version="1.1" viewBox="0 0 512 512"><metadata id="metadata83"/><defs id="defs4"><clipPath id="0"><rect id="rect7" width="512" height="512" x="0" y="0" fill="#2d4c7b" rx="25.988"/></clipPath><clipPath id="0-5"><rect style="fill:#2d4c7b" id="rect7-6" width="512" height="512" x="0" y="0" rx="25.988"/></clipPath></defs><g id="g3428" transform="translate(333.52112,-317.29578)"><rect id="rect9" width="512" height="512" x="-333.521" y="317.296" rx="25.988" style="fill:#2d4c7b"/><g style="color:#000;opacity:.25" id="g57" clip-path="url(#0-5)" transform="translate(-333.52113,317.29577)"><path id="path59" d="m 471,76.63 c 0,0 -35.832,53.749 -89.59,53.749 l 353.55,353.55 c 53.757,0 89.59,-53.749 89.59,-53.749 z"/><path id="path61" d="m 381.41,130.37 c -50.09,-9.653 -69.977,-1.438 -71.67,0 l 353.55,353.55 c 1.691,-1.438 21.581,-9.653 71.67,0 z"/><path id="path63" d="m 309.74,130.37 0,216.84 353.55,353.55 0,-216.84 z"/><path id="path65" d="m 309.74,347.21 c -2.373,45.675 -39.79,91.44 -95.59,112.48 L 567.7,813.24 c 55.795,-21.04 93.21,-66.805 95.59,-112.48 z"/><path id="path67" d="M 214.16,459.69 C 158.12,480.84 99.55,470.68 66.85,437.97 L 420.4,791.52 c 32.707,32.707 91.27,42.869 147.31,21.722 z"/><path id="path69" d="m 66.843,437.97 c -8.602,-8.6 -15.415,-18.76 -19.924,-30.32 l 353.55,353.55 c 4.509,11.561 11.322,21.723 19.924,30.32 z"/><path id="path71" d="M 46.919,407.64 C 25.263,352.13 64.877,284.93 135.66,258.22 l 353.55,353.55 c -70.781,26.708 -110.39,93.91 -88.74,149.42 z"/><path id="path73" d="m 135.66,258.22 c 54.788,-20.667 105.12,-15.547 138.25,15.476 l 353.55,353.55 C 594.34,596.226 544,591.106 489.21,611.766 Z"/><path id="path75" d="m 273.9,273.7 0,-214.99 353.55,353.55 0,214.99 z"/><path id="path77" d="m 273.9,58.71 c 71.67,-47.657 138.28,17.18 197.08,17.916 l 353.55,353.55 c -58.8,-0.74 -125.42,-65.57 -197.08,-17.92 z"/></g><path style="color:#000;fill:#fff" id="path79" d="m 137.47887,393.92577 c 0,0 -35.832,53.749 -89.589997,53.749 -50.0899998,-9.653 -69.977,-1.438 -71.67,0 l 0,216.84 c -2.373,45.675 -39.79,91.44 -95.590003,112.48 -70.781,26.708 -145.59,3.474 -167.24,-52.05 -21.656,-55.51 17.958,-122.71 88.74,-149.42 54.788,-20.667 105.120003,-15.547 138.250003,15.476 l 0,-215 c 71.67,-47.657 138.28,17.18 197.079997,17.916"/></g></svg>