<svg xmlns="http://www.w3.org/2000/svg" viewBox="0 0 512 512"><defs><clipPath><rect y="6" x="6" rx="6" height="84" width="84" style="fill:#fff"/></clipPath><clipPath><rect y="6" x="6" rx="6" height="84" width="84" style="fill:#fff"/></clipPath><clipPath><rect y="6" x="6" rx="6" height="84" width="84" style="fill:#fff"/></clipPath><clipPath><rect y="6" x="6" rx="6" height="84" width="84" style="fill:#fff"/></clipPath><clipPath><rect y="6" x="6" rx="6" height="84" width="84" style="fill:#fff"/></clipPath><clipPath><rect y="6" x="6" rx="6" height="84" width="84" style="fill:#fff"/></clipPath><clipPath><rect y="6" x="6" rx="6" height="84" width="84" style="fill:#fff"/></clipPath><clipPath><rect y="6" x="6" rx="6" height="84" width="84" style="fill:#fff"/></clipPath><clipPath><rect y="6" x="6" rx="6" height="84" width="84" style="fill:#fff"/></clipPath><clipPath><rect y="6" x="6" rx="6" height="84" width="84" style="fill:#fff"/></clipPath><filter height="1.384" width="1.384" y="-.192" x="-.192" style="color-interpolation-filters:sRGB"><feGaussianBlur stdDeviation="5.28"/></filter><filter style="color-interpolation-filters:sRGB"><feGaussianBlur stdDeviation="1.71"/></filter><linearGradient gradientUnits="userSpaceOnUse" gradientTransform="scale(1.0059.99417)" y1="92.54" x2="0" y2="7.02"><stop/><stop offset="1" style="stop-opacity:.588"/></linearGradient><linearGradient gradientUnits="userSpaceOnUse" y2="138.66" x2="0" y1="20.221"><stop style="stop-color:#fff"/><stop offset="1" style="stop-color:#fff;stop-opacity:0"/></linearGradient></defs><text x="120.81" y="232.71" line-height="125%" style="letter-spacing:0;word-spacing:0;font-size:129.23;font-family:&apos;Gentium Book Basic&apos;"><tspan x="120.81" y="232.71"/></text><text x="227.19" y="584.65" transform="scale(4.0128.2492)" style="font-size:46.954;font-family:Arial;text-anchor:middle"/><text x="702.08" y="152.71" line-height="125%" style="letter-spacing:0;word-spacing:0;font-size:129.23;font-family:&apos;Gentium Book Basic&apos;"><tspan x="702.08" y="152.71"/></text><text x="372.04" y="263.62" transform="scale(4.0128.2492)" style="font-size:46.954;font-family:Arial;text-anchor:middle"/><text x="-369.5" y="-28.555" line-height="125%" style="letter-spacing:0;word-spacing:0;font-size:129.23;font-family:&apos;Gentium Book Basic&apos;"><tspan x="-369.5" y="-28.555"/></text><text x="105" y="-463.74" transform="scale(4.0128.2492)" style="font-size:46.954;font-family:Arial;text-anchor:middle"/><text x="728.55" y="-245.02" line-height="125%" style="letter-spacing:0;word-spacing:0;font-size:129.23;font-family:&apos;Gentium Book Basic&apos;"><tspan x="728.55" y="-245.02"/></text><text x="378.63" y="-1332.39" transform="scale(4.0128.2492)" style="font-size:46.954;font-family:Arial;text-anchor:middle"/><text x="1309.82" y="-325.03" line-height="125%" style="letter-spacing:0;word-spacing:0;font-size:129.23;font-family:&apos;Gentium Book Basic&apos;"><tspan x="1309.82" y="-325.03"/></text><text x="523.48" y="-1653.43" transform="scale(4.0128.2492)" style="font-size:46.954;font-family:Arial;text-anchor:middle"/><text x="920.7" y="-797.43" line-height="125%" style="letter-spacing:0;word-spacing:0;font-size:129.23;font-family:&apos;Gentium Book Basic&apos;"><tspan x="920.7" y="-797.43"/></text><text x="426.51" y="-3549.07" transform="scale(4.0128.2492)" style="font-size:46.954;font-family:Arial;text-anchor:middle"/><text x="1501.96" y="-877.43" line-height="125%" style="letter-spacing:0;word-spacing:0;font-size:129.23;font-family:&apos;Gentium Book Basic&apos;"><tspan x="1501.96" y="-877.43"/></text><text x="571.36" y="-3870.1" transform="scale(4.0128.2492)" style="font-size:46.954;font-family:Arial;text-anchor:middle"/><g line-height="125%" style="letter-spacing:0;word-spacing:0;font-family:&apos;Gentium Book Basic&apos;"><text x="-330.84" y="537.29" style="font-size:208.33"><tspan x="-330.84" y="537.29"/></text><text x="7.285" y="142.2" style="font-size:129.23"><tspan x="7.285" y="142.2"/></text></g><text x="198.9" y="221.45" transform="scale(4.0128.2492)" style="font-size:46.954;font-family:Arial;text-anchor:middle"/><text x="588.56" y="62.2" line-height="125%" style="letter-spacing:0;word-spacing:0;font-size:129.23;font-family:&apos;Gentium Book Basic&apos;"><tspan x="588.56" y="62.2"/></text><text x="343.75" y="-99.58" transform="scale(4.0128.2492)" style="font-size:46.954;font-family:Arial;text-anchor:middle"/><text x="-483.02" y="-119.06" line-height="125%" style="letter-spacing:0;word-spacing:0;font-size:129.23;font-family:&apos;Gentium Book Basic&apos;"><tspan x="-483.02" y="-119.06"/></text><text x="76.71" y="-826.94" transform="scale(4.0128.2492)" style="font-size:46.954;font-family:Arial;text-anchor:middle"/><text x="615.03" y="-335.53" line-height="125%" style="letter-spacing:0;word-spacing:0;font-size:129.23;font-family:&apos;Gentium Book Basic&apos;"><tspan x="615.03" y="-335.53"/></text><text x="350.35" y="-1695.59" transform="scale(4.0128.2492)" style="font-size:46.954;font-family:Arial;text-anchor:middle"/><text x="1196.3" y="-415.54" line-height="125%" style="letter-spacing:0;word-spacing:0;font-size:129.23;font-family:&apos;Gentium Book Basic&apos;"><tspan x="1196.3" y="-415.54"/></text><text x="495.19" y="-2016.63" transform="scale(4.0128.2492)" style="font-size:46.954;font-family:Arial;text-anchor:middle"/><text x="807.18" y="-887.94" line-height="125%" style="letter-spacing:0;word-spacing:0;font-size:129.23;font-family:&apos;Gentium Book Basic&apos;"><tspan x="807.18" y="-887.94"/></text><text x="398.23" y="-3912.27" transform="scale(4.0128.2492)" style="font-size:46.954;font-family:Arial;text-anchor:middle"/><text x="1388.44" y="-967.94" line-height="125%" style="letter-spacing:0;word-spacing:0;font-size:129.23;font-family:&apos;Gentium Book Basic&apos;"><tspan x="1388.44" y="-967.94"/></text><text x="543.07" y="-4233.3" transform="scale(4.0128.2492)" style="font-size:46.954;font-family:Arial;text-anchor:middle"/><g line-height="125%" style="letter-spacing:0;word-spacing:0;font-size:0;font-family:&apos;Gentium Book Basic&apos;"><text y="446.78" x="-444.36"><tspan y="446.78" x="-444.36"/></text><text y="324.11" x="-2493.77"><tspan y="324.11" x="-2493.77"/></text></g><text x="-303.72" y="737.69" transform="scale(4.0128.2492)" style="font-size:75.7;font-family:Arial;text-anchor:middle"/><text x="-1935.59" y="770.02" line-height="125%" style="letter-spacing:0;word-spacing:0;font-size:208.33;font-family:&apos;Gentium Book Basic&apos;"><tspan x="-1935.59" y="770.02"/></text><text x="-164.63" y="2527.03" transform="scale(4.0128.2492)" style="font-size:75.7;font-family:Arial;text-anchor:middle"/><g line-height="125%" style="letter-spacing:0;word-spacing:0"><text y="532.5" x="153.1" style="font-size:40;font-family:Sans"><tspan y="532.5" x="153.1" style="font-weight:bold;font-style:italic"/></text><text y="334.98" x="-2608.54" style="font-size:208.33;font-family:&apos;Gentium Book Basic&apos;"><tspan y="334.98" x="-2608.54"/></text></g><text x="-332.32" y="781.33" transform="scale(4.0128.2492)" style="font-size:75.7;font-family:Arial;text-anchor:middle"/><text x="-1902.2" y="179.35" line-height="125%" style="letter-spacing:0;word-spacing:0;font-size:208.33;font-family:&apos;Gentium Book Basic&apos;"><tspan x="-1902.2" y="179.35"/></text><text x="-156.3" y="156.81" transform="scale(4.0128.2492)" style="font-size:75.7;font-family:Arial;text-anchor:middle"/><text x="-1868.83" y="171.23" line-height="125%" style="letter-spacing:0;word-spacing:0;font-size:208.33;font-family:&apos;Gentium Book Basic&apos;"><tspan x="-1868.83" y="171.23"/></text><text x="-147.99" y="124.21" transform="scale(4.0128.2492)" style="font-size:75.7;font-family:Arial;text-anchor:middle"/><text x="-2490.54" y="204.15" line-height="125%" style="letter-spacing:0;word-spacing:0;font-size:208.33;font-family:&apos;Gentium Book Basic&apos;"><tspan x="-2490.54" y="204.15"/></text><text x="-302.92" y="256.33" transform="scale(4.0128.2492)" style="font-size:75.7;font-family:Arial;text-anchor:middle"/><rect width="512" height="512" rx="25.988" style="fill:#f29948"/><text x="174.5" y="186.68" line-height="125%" style="letter-spacing:0;word-spacing:0;font-size:129.23;font-family:&apos;Gentium Book Basic&apos;"><tspan x="174.5" y="186.68"/></text><text x="240.57" y="399.97" transform="scale(4.0128.2492)" style="font-size:46.954;font-family:Arial;text-anchor:middle"/><text x="755.77" y="106.68" line-height="125%" style="letter-spacing:0;word-spacing:0;font-size:129.23;font-family:&apos;Gentium Book Basic&apos;"><tspan x="755.77" y="106.68"/></text><text x="385.42" y="78.941" transform="scale(4.0128.2492)" style="font-size:46.954;font-family:Arial;text-anchor:middle"/><text x="-315.81" y="-74.58" line-height="125%" style="letter-spacing:0;word-spacing:0;font-size:129.23;font-family:&apos;Gentium Book Basic&apos;"><tspan x="-315.81" y="-74.58"/></text><text x="118.38" y="-648.42" transform="scale(4.0128.2492)" style="font-size:46.954;font-family:Arial;text-anchor:middle"/><text x="782.24" y="-291.05" line-height="125%" style="letter-spacing:0;word-spacing:0;font-size:129.23;font-family:&apos;Gentium Book Basic&apos;"><tspan x="782.24" y="-291.05"/></text><text x="392.02" y="-1517.07" transform="scale(4.0128.2492)" style="font-size:46.954;font-family:Arial;text-anchor:middle"/><text x="1363.51" y="-371.06" line-height="125%" style="letter-spacing:0;word-spacing:0;font-size:129.23;font-family:&apos;Gentium Book Basic&apos;"><tspan x="1363.51" y="-371.06"/></text><text x="536.86" y="-1838.11" transform="scale(4.0128.2492)" style="font-size:46.954;font-family:Arial;text-anchor:middle"/><text x="974.39" y="-843.46" line-height="125%" style="letter-spacing:0;word-spacing:0;font-size:129.23;font-family:&apos;Gentium Book Basic&apos;"><tspan x="974.39" y="-843.46"/></text><text x="439.89" y="-3733.75" transform="scale(4.0128.2492)" style="font-size:46.954;font-family:Arial;text-anchor:middle"/><text x="1555.65" y="-923.46" line-height="125%" style="letter-spacing:0;word-spacing:0;font-size:129.23;font-family:&apos;Gentium Book Basic&apos;"><tspan x="1555.65" y="-923.46"/></text><text x="584.74" y="-4054.78" transform="scale(4.0128.2492)" style="font-size:46.954;font-family:Arial;text-anchor:middle"/><text x="-277.15" y="491.26" line-height="125%" style="letter-spacing:0;word-spacing:0;font-size:208.33;font-family:&apos;Gentium Book Basic&apos;"><tspan x="-277.15" y="491.26"/></text><g style="fill-rule:evenodd"><path d="m185.21 41.01c-7.32-.063-13.96.69-21.561 4.252v.002c-9.14 3.556-14.987 11.266-21.258 18.295l-.006-.006c-6.66 9.852-10.5 23.298-14.986 34.68h-.002c-3.109 9.56-6.508 15.905-12.199 22.309l211.16 211.16c0 .002-.002.004-.002.006l-211.15-211.15c-3.654 4.112-8.516 10.838-11.852 16.381-9.678 24.72-19.404 43.15-36.25 64.13-8.998 9.805-10.799 14.683-10.799 27.699l16.334 16.334c0 .001-.002.003-.002.004l-16.338-16.338c-2.564 20.05-2.374 35.07 2.266 55.42l.01.01c.566 1.491 3.772 6.808 7.141 11.84l10.645 10.645c-.001 0-.003 0-.004 0l-10.645-10.645c3.514 5.252 5.265 7.683 6.492 8.91l.051.051c-.017-.017-.031-.025-.049-.043l17.434 17.434c-.203 6.175.065 13.685.814 17.738 1.09 5.891.783 8.416-1.568 13.941l.006.006c-2.375 5.584-3.14 9.384-2.787 15.854l16.574 16.574c0 .003-.002.005-.002.008l-16.58-16.58c.304 5.57.949 7.97 3.139 13.418l12.707 12.707c0 .002 0 .004 0 .006l-12.709-12.709c2.442 6.077 2.863 8.427 3.311 17.775.235 4.866.834 10.1 1.221 11.67l10.809 10.809c.002.005.002.009.004.014l-10.813-10.813c2.224 9.06 1.894 11.196-2.438 24.566l-.002-.002c-2.725 8.406-4.348 16.314-3.66 17.426l13.11 13.11c-.001 0-.003 0-.004 0l-13.1-13.1c.282 4.923-1.266 9.937-.174 14.813l.006.006c.14.489.456.922.693 1.385l41 41h356.82c7.04 0 13.403-2.777 18.07-7.293l-33.18-33.18.002-.002 33.18 33.18c4.88-4.719 7.912-11.337 7.912-18.693v-20.262l-26.43-26.43c.001-.003.001-.005.002-.008l26.428 26.428v-17.25l-21.488-21.488.002-.002 21.486 21.486v-304.87l-63.07-63.07c-1.043-1.044-2.096-1.902-3.105-2.498l-.023-.023c-9.579-4.457-20.476-2.721-30.68-5.229l34.756 34.756c-.001.001-.003.001-.004.002l-34.758-34.758c-8.548-2.195-12.03-3.806-17.254-8.539-7.803-7.07-9.779-8.167-16.725-8.189h-.004c-31.1 2.054-41.9 37.04-44.781 63.26-.876 14.922 3.607 28.17 7.867 41.775l-94.84-94.84c-6.68-6.684-15.262-11.633-24.05-15.08l39.781 39.781c.005.007.009.014.014.021l-39.803-39.803c-9.25-3.263-18.233-7.75-27.881-9.76h-.002v-.002c-3.255-.171-6.183-.251-9.06-.348l.008.008c-1.076-.036-2.134-.061-3.178-.07" style="opacity:.25"/><path d="m188.38 41.07c2.876.097 5.805.177 9.06.348 9.649 2.01 18.632 6.496 27.883 9.759 14.314 5.615 28.08 15.212 33.99 29.8 1.48 3.233 7.968 13.718 11.328 18.472 6.292 7.345 14.278 13.37 22.309 18.647 9.966 5.929 18.1 13.754 27.883 26.837 9.888 13.599 10.75 25.407 15.684 40.781 7.604 8.04 13.616-3.051 11.676-10.805-4.654-18.761-13.02-35.688-11.851-55.59 2.881-26.22 13.684-61.21 44.786-63.26 6.951.022 8.925 1.121 16.73 8.19 5.224 4.733 8.705 6.345 17.253 8.54 10.204 2.508 21.1.771 30.679 5.228 4.581 2.684 10.11 10.864 11.328 16.73 1.015 4.895-1.421 9.742-6.273 12.374-9.784 4.599-26.467 1.17-28.581 14.813 3.326 14.45 12.377 24.436 11.851 38.862.643 15.779-1.365 28.82-2.44 44.26-1.419 18.929-15.09 28.964-24.572 44.786-14.272 18.214-39.603 37.24-63.956 29.8-8.453-2.733-11.837-2.25-14.986 2.265-2.149 3.081-2.448 5.919-1.219 12.722 1.499 8.301 1.484 24.07 0 32.937-1.098 6.565-1.919 16.552-1.917 22.14.002 4.564-.905 10.272-2.092 14.986-.774 3.076-.908 6.297-1.221 16.73-.211 7.04-.581 13.927-.871 15.331-.986 4.776-.769 8.666 1.394 23.526.915 6.289 4.092 17.784 6.273 22.655 1.178 2.628 4.209 8.772 6.791 13.767.217.421.357.711.523 1.046-1.112-.068-2.392-.105-3.486-.175-8.632-.538-16.829-1.265-24.92-1.917 2.56.171 5.11.326 7.667.523-1.268-6.25-2.525-12.934-2.788-17.601-.25-4.387-.849-9.424-1.569-12.896-.652-3.143-1.302-8.392-1.569-11.676-.623-7.715-1.226-9.954-4.879-17.776-1.662-3.557-3.545-8.255-4.182-10.457-1.115-3.851-1.148-4.598-1.046-15.859.092-10.238-.141-12.343-1.046-17.776-1.795-10.789-2.623-14-6.098-21.09-4.725-9.63-5.127-11.1-5.577-19.866-.528-10.221-2.202-15.518-5.75-19.17-1.997-2.054-3.723-3.138-6.971-3.486-1.083-.115-2.374.005-3.834 0-6.149-.015-8.903.818-10.805 3.311-1.783 2.336-1.978 5.214-.523 11.501.652 2.818 1.469 7.924 1.742 11.328.601 7.457 1.902 11.698 5.228 17.601 4.239 7.523 4.351 8.185 4.357 20.739 0 10.08-.082 11.11-1.046 14.12-.576 1.793-1.723 4.197-2.615 5.402-1.976 2.672-7.869 7.722-14.12 12.199-6.05 4.336-12.929 11.01-17.08 16.555-4.406 5.84-10.711 11.613-11.503 19.17-.015 5.521 3.204 12.494 7.842 17.08 2.379 2.351 4.01 3.453 8.713 5.75 6.475 3.161 8.918 5.216 9.411 7.842.188 1.01-.163 1.786-.523 2.615-11.523-.01-22.423.182-32.762.523-2.01-1.486-3.591-3.396-4.879-6.1-1.766-3.699-3.126-5.552-4.879-5.402-1.754.149-3.761 2.368-6.448 6.448-1.803 2.737-3.509 4.66-5.227 6.1-3.915.233-7.935.418-11.676.698-2.149-2.02-3.599-5.448-4.357-10.63-.452-3.088-.435-4.487.175-8.02 1.397-8.095 3.319-11.243 9.06-16.03 1.939-1.618 4.054-3.723 4.705-4.705 1.728-2.61 2.272-6.068 1.569-9.411-.856-4.071-4.835-11.292-9.411-17.426-4.098-5.496-6.253-8.927-9.584-15.331-1.248-2.401-3.104-4.757-5.925-7.667-2.26-2.331-4.735-5.596-5.577-7.144l-1.394-2.788v-15.859c.056-11.304-.598-22.258-2.092-33.46-1.238-13.424-5.997-24.02-12.547-35.55-3.745-7.735-5.504-9.934-8.713-9.934-4.304 0-6.922 4.767-8.19 14.813-1.45 9.861-6.248 18.299-9.236 27.708-1.822 6.703-3.124 9.716-7.319 18.12-3.981 7.976-7.334 16.874-8.365 22.309-.545 2.874-.694 6.859-.698 15.16 0 12.228-.409 17.1-1.917 23.351-1.146 4.75-1.698 18.372-1.221 27.535.285 5.358.39 6.06 3.311 14.638 4.284 12.589 5.265 16.267 6.1 22.655.803 6.153 1.345 7.643 4.182 13.767.406.876.593 1.632.871 2.44-10.319 2-19.518 4.17-28.23 6.448-.239-.467-.559-.9-.698-1.394-1.092-4.876.457-9.89.175-14.813-.688-1.112.935-9.02 3.66-17.426 4.333-13.374 4.664-15.508 2.44-24.572-.387-1.574-.986-6.808-1.221-11.676-.448-9.348-.869-11.699-3.311-17.776-2.19-5.448-2.834-7.849-3.138-13.419-.353-6.472.411-10.272 2.788-15.859 2.351-5.525 2.659-8.05 1.569-13.941-1.18-6.38-1.177-21.36 0-26.14 1.17-4.754 1.767-21.995 1.569-44.09l-2.44-27.01c-3.757-14.615-6.05-19.866-9.06-19.866-2.762 0-5.358 4.516-7.144 12.722-1.093 7.61-.542 15.416-1.917 23-1.781 10.467 1.07 20.941 6.448 29.975 3.192 5.598 4.292 9.625 3.486 12.547-.643 2.331-3.02 4.935-4.879 5.402-.806.202-1.815-.121-2.963-.698-1.423-.715-2.866-2.496-7.842-9.934-3.374-5.04-6.586-10.37-7.144-11.851-4.64-20.35-4.829-35.37-2.265-55.42 0-13.02 1.801-17.898 10.805-27.708 16.846-20.98 26.572-39.41 36.25-64.13 3.336-5.543 8.197-12.27 11.851-16.382 5.691-6.404 9.09-12.749 12.199-22.309 4.486-11.382 8.326-24.827 14.986-34.679 6.272-7.03 12.12-14.742 21.261-18.299 8.686-4.071 16.12-4.474 24.745-4.182m9.411 241.53c-.688.044-1.333.45-2.092 1.046-2.141 1.684-2.65 3.579-3.834 16.38-.618 6.683-1.418 15.06-1.917 18.647-2.2 15.827-2.55 20.783-1.917 26.14.326 2.759.657 8.448.871 12.547.601 11.55 2.238 16.669 8.54 27.535 1.924 3.316 4.282 7.596 5.227 9.584 1.883 3.959 3.905 6.623 5.925 7.667 1.981 1.025 4.576.839 7.144-.523 3.54-1.876 9.973-6.859 13.07-10.11 3.314-3.472 4.722-5.346 8.54-12.199 4.34-7.789 4.876-9.424 4.879-12.896 0-4.542-1.657-7.908-6.1-12.199-1.941-1.874-6.139-6.03-9.236-9.236-6.413-6.628-6.584-6.963-8.19-16.38-1.457-8.54-1.489-8.681-7.494-17.426-2.151-3.132-3.173-5.978-5.75-15.684-2.384-8.971-3.457-11.194-5.402-12.199-.93-.48-1.579-.742-2.265-.698" style="fill:#fff"/></g></svg>