<?xml version="1.0" encoding="UTF-8" standalone="no"?>
<!-- Created with Inkscape (http://www.inkscape.org/) -->
<svg id="svg2" xmlns:rdf="http://www.w3.org/1999/02/22-rdf-syntax-ns#" xmlns="http://www.w3.org/2000/svg" height="100%" width="100%" version="1.1" xmlns:cc="http://creativecommons.org/ns#" viewBox="0 0 512 512" xmlns:dc="http://purl.org/dc/elements/1.1/">
 <metadata id="metadata64">
  <rdf:RDF>
   <cc:Work rdf:about="">
    <dc:format>image/svg+xml</dc:format>
    <dc:type rdf:resource="http://purl.org/dc/dcmitype/StillImage"/>
   </cc:Work>
  </rdf:RDF>
 </metadata>
 <path id="path10" d="m26 0c-14.397 0-26 11.603-26 26v460c0 14.397 11.603 26 26 26h460c14.397 0 26-11.603 26-26v-460c0-14.397-11.6-26-26-26h-460" fill="#d23638"/>
 <text id="text12" style="word-spacing:0;letter-spacing:0" font-size="129.23px" line-height="125%" y="119.19" x="-32.601002" font-family="Gentium Book Basic">
  <tspan id="tspan14" y="119.19" x="-32.601002"/>
 </text>
 <text id="text16" style="text-anchor:middle" transform="scale(4.0128 .2492)" font-size="46.954px" y="129.11" x="188.96001" font-family="Arial"/>
 <text id="text18" style="word-spacing:0;letter-spacing:0" font-size="129.23px" line-height="125%" y="39.189999" x="548.66998" font-family="Gentium Book Basic">
  <tspan id="tspan20" y="39.189999" x="548.66998"/>
 </text>
 <text id="text22" style="text-anchor:middle" transform="scale(4.0128 .2492)" font-size="46.954px" y="-191.92" x="333.81" font-family="Arial"/>
 <text id="text24" style="word-spacing:0;letter-spacing:0" font-size="129.23px" line-height="125%" y="-142.08" x="-522.90997" font-family="Gentium Book Basic">
  <tspan id="tspan26" y="-142.08" x="-522.90997"/>
 </text>
 <text id="text28" style="text-anchor:middle" transform="scale(4.0128 .2492)" font-size="46.954px" y="-919.28003" x="66.766998" font-family="Arial"/>
 <text id="text30" style="word-spacing:0;letter-spacing:0" font-size="129.23px" line-height="125%" y="-358.54001" x="575.14001" font-family="Gentium Book Basic">
  <tspan id="tspan32" y="-358.54001" x="575.14001"/>
 </text>
 <text id="text34" style="text-anchor:middle" transform="scale(4.0128 .2492)" font-size="46.954px" y="-1787.9399" x="340.41" font-family="Arial"/>
 <text id="text36" style="word-spacing:0;letter-spacing:0" font-size="129.23px" line-height="125%" y="-438.54999" x="1156.41" font-family="Gentium Book Basic">
  <tspan id="tspan38" y="-438.54999" x="1156.41"/>
 </text>
 <text id="text40" style="text-anchor:middle" transform="scale(4.0128 .2492)" font-size="46.954px" y="-2108.98" x="485.26001" font-family="Arial"/>
 <text id="text42" style="word-spacing:0;letter-spacing:0" font-size="129.23px" line-height="125%" y="-910.95001" x="767.28998" font-family="Gentium Book Basic">
  <tspan id="tspan44" y="-910.95001" x="767.28998"/>
 </text>
 <text id="text46" style="text-anchor:middle" transform="scale(4.0128 .2492)" font-size="46.954px" y="-4004.6299" x="388.29001" font-family="Arial"/>
 <text id="text48" style="word-spacing:0;letter-spacing:0" font-size="129.23px" line-height="125%" y="-990.95001" x="1348.55" font-family="Gentium Book Basic">
  <tspan id="tspan50" y="-990.95001" x="1348.55"/>
 </text>
 <text id="text52" style="text-anchor:middle" transform="scale(4.0128 .2492)" font-size="46.954px" y="-4325.6602" x="533.14001" font-family="Arial"/>
 <text id="text54" style="word-spacing:0;letter-spacing:0" font-size="208.33px" line-height="125%" y="423.76999" x="-484.25" font-family="Gentium Book Basic">
  <tspan id="tspan56" y="423.76999" x="-484.25"/>
 </text>
 <path id="path58" opacity=".25" d="m212 41c-13.672 19.12 29.29 35.891 35.06 56.09l-12.531-12.531-10.781 40.19-40.19 10.781-41.09-41c-7.92 26.493 2.905 50.39 19.281 70.75l-0.531-0.531c1.231 1.666 2.53 3.158 3.906 4.531 9.09 10.6 19.474 20.21 29.22 28.625l7.344 7.344c-1.393 0.16-2.743 0.357-4 0.594-31.932-28.908-49.613-49.581-76.72-76.69-44.751 35.66-71.985 92.37-71.53 149.63-3.057 76.62 51.975 138.48 106.09 185.69l47.531 47.531h282.94c14.397 0 26-11.603 26-26v-209.59c-15.614-15.506-31.379-30.897-47.12-46.28l-84.53-84.5c-0.911-0.945-1.85-1.855-2.781-2.781-18.251-9.894-52.69-43.965-56.59-29.25l-16.6-16.591c-0.205 1.875-0.325 3.707-0.344 5.5l-40.34-40.341c-25.57-11.995-39.21-18.636-38.88-8.344l-12.81-12.813m83.16 351.03 2.625 2.625c0.433 13.682 11.335 24.598 25 25.09 7.137 7.177 14.258 14.369 21.406 21.531-23.377 14.721-49.832 24.541-77.19 28.16 3.635-27.422 13.4-53.989 28.16-77.41"/>
 <path id="path60" d="m212.01 41c-6.23 0.043-12.469 0.862-18.529 2.503l41.05 41.05-10.778 40.21-40.21 10.778-41.09-41.01c-6.527 24.23-0.316 51.15 18.731 70.2 19.948 19.961 48.704 25.818 73.833 17.641l0.242 0.202 168.86 168.86c6.679 6.666 15.419 10.05 24.18 10.05s17.504-3.385 24.22-10.05c13.37-13.32 13.37-34.939 0-48.36l-168.9-168.86-1.373-1.251c6.793-24.379 0.591-51.632-18.569-70.805-14.285-14.247-32.981-21.282-51.671-21.15m92.36 55.99c1.862 9.575 2.149 19.468 0.525 29.27 42.34 42.673 84.92 85.08 127.4 127.6-9.477-73.18-60.11-133.48-127.93-156.87m-183.39 32.17c-43.622 35.24-71.53 89.16-71.53 149.6 0 106.16 86.07 192.23 192.23 192.23 69.869 0 131.05-37.29 164.7-93.05-0.972-0.446-1.957-0.893-2.906-1.413-61.34-53.756-116.17-114.78-174.75-171.32-18.494 3.331-38.05 0.683-55.1-6.984-28.448-11.809-47.11-39.27-52.64-69.07m120.7 107.3c23.355 0 42.31 18.951 42.31 42.31 0 23.355-18.951 42.31-42.31 42.31-23.355 0-42.31-18.951-42.31-42.31 0-23.355 18.951-42.31 42.31-42.31m189.57 83.12c7.238 0 13.08 5.842 13.08 13.08 0.013 7.212-5.829 13.04-13.08 13.04-7.187 0-13.04-5.827-13.04-13.04 0-7.238 5.852-13.08 13.04-13.08" fill="#fff"/>
</svg>
