<svg xmlns="http://www.w3.org/2000/svg" xmlns:svg="http://www.w3.org/2000/svg" id="svg2" version="1.1" viewBox="0 0 512 512"><metadata id="metadata10486"/><g id="g13838" transform="translate(305.89831,-305.89831)"><path id="path10428" d="m -279.89881,305.89781 c -14.397,0 -26,11.603 -26,26 l 0,460 c 0,14.397 11.603,26 26,26 l 460,0 c 14.397,0 26,-11.603 26,-26 l 0,-460 c 0,-14.397 -11.603,-26 -26,-26 l -460,0" style="fill:#87aade"/><g id="g10476" transform="translate(-305.89881,305.89781)"><path id="path10478" d="M 141.5,148.48 C 85.823,148.48 41,193.342 41,249.02 l 0,13.961 c 0,27.849 11.214,52.993 29.391,71.17 l 177.85,177.85 237.76,0 c 14.397,0 26,-11.603 26,-26 l 0,-237.76 -70.39,-70.39 c -18.16,-18.16 -43.28,-29.369 -71.1,-29.369 l 100.49,100.49 0,0.01 -100.5,-100.5 -229,0" style="opacity:.25"/><path id="path10480" d="M 141.5,148.48 C 85.823,148.48 41,193.343 41,249.02 l 0,13.961 c 0,55.677 44.821,100.54 100.5,100.54 l 229.01,0 c 55.677,0 100.5,-44.863 100.5,-100.54 l 0,-13.961 c 0,-55.677 -44.821,-100.54 -100.5,-100.54 l -229,0 m 222.02,28.562 c 43.614,0 78.959,35.35 78.959,78.959 0,43.614 -35.35,78.959 -78.959,78.959 -43.614,0 -78.959,-35.35 -78.959,-78.959 0,-43.614 35.35,-78.959 78.959,-78.959" style="fill:#fff"/></g></g></svg>