<?xml version="1.0" encoding="UTF-8" standalone="no"?>
<!-- Created with Inkscape (http://www.inkscape.org/) -->
<svg id="svg2" xmlns:rdf="http://www.w3.org/1999/02/22-rdf-syntax-ns#" xmlns="http://www.w3.org/2000/svg" height="100%" width="100%" version="1.1" xmlns:cc="http://creativecommons.org/ns#" viewBox="0 0 512 512" xmlns:dc="http://purl.org/dc/elements/1.1/">
 <metadata id="metadata70">
  <rdf:RDF>
   <cc:Work rdf:about="">
    <dc:format>image/svg+xml</dc:format>
    <dc:type rdf:resource="http://purl.org/dc/dcmitype/StillImage"/>
   </cc:Work>
  </rdf:RDF>
 </metadata>
 <rect id="rect4" rx="25.988" height="512" width="512" y="0" x="0" fill="#555753"/>
 <text id="text6" style="word-spacing:0;letter-spacing:0" font-size="129.22px" line-height="125%" y="218.88" x="140.74001" font-family="Gentium Book Basic">
  <tspan id="tspan8" y="218.88" x="140.74001"/>
 </text>
 <text id="text10" style="text-anchor:middle" transform="scale(4.0128 .2492)" font-size="46.952px" y="529.25" x="232.17" font-family="Arial"/>
 <text id="text12" style="word-spacing:0;letter-spacing:0" font-size="129.22px" line-height="125%" y="138.89" x="722.02002" font-family="Gentium Book Basic">
  <tspan id="tspan14" y="138.89" x="722.02002"/>
 </text>
 <text id="text16" style="text-anchor:middle" transform="scale(4.0128 .2492)" font-size="46.952px" y="208.21001" x="377.01999" font-family="Arial"/>
 <text id="text18" style="word-spacing:0;letter-spacing:0" font-size="129.22px" line-height="125%" y="-42.360001" x="-349.57999" font-family="Gentium Book Basic">
  <tspan id="tspan20" y="-42.360001" x="-349.57999"/>
 </text>
 <text id="text22" style="text-anchor:middle" transform="scale(4.0128 .2492)" font-size="46.952px" y="-519.14001" x="109.96" font-family="Arial"/>
 <text id="text24" style="word-spacing:0;letter-spacing:0" font-size="129.22px" line-height="125%" y="-258.82999" x="748.48999" font-family="Gentium Book Basic">
  <tspan id="tspan26" y="-258.82999" x="748.48999"/>
 </text>
 <text id="text28" style="text-anchor:middle" transform="scale(4.0128 .2492)" font-size="46.952px" y="-1387.8101" x="383.60999" font-family="Arial"/>
 <text id="text30" style="word-spacing:0;letter-spacing:0" font-size="129.22px" line-height="125%" y="-338.84" x="1329.77" font-family="Gentium Book Basic">
  <tspan id="tspan32" y="-338.84" x="1329.77"/>
 </text>
 <text id="text34" style="text-anchor:middle" transform="scale(4.0128 .2492)" font-size="46.952px" y="-1708.83" x="528.46002" font-family="Arial"/>
 <text id="text36" style="word-spacing:0;letter-spacing:0" font-size="129.22px" line-height="125%" y="-811.22998" x="940.64001" font-family="Gentium Book Basic">
  <tspan id="tspan38" y="-811.22998" x="940.64001"/>
 </text>
 <text id="text40" style="text-anchor:middle" transform="scale(4.0128 .2492)" font-size="46.952px" y="-3604.49" x="431.48001" font-family="Arial"/>
 <text id="text42" style="word-spacing:0;letter-spacing:0" font-size="129.22px" line-height="125%" y="-891.23999" x="1521.89" font-family="Gentium Book Basic">
  <tspan id="tspan44" y="-891.23999" x="1521.89"/>
 </text>
 <text id="text46" style="text-anchor:middle" transform="scale(4.0128 .2492)" font-size="46.952px" y="-3925.51" x="576.33002" font-family="Arial"/>
 <text id="text48" style="word-spacing:0;letter-spacing:0" font-size="208.33px" line-height="125%" y="523.46002" x="-310.92001" font-family="Gentium Book Basic">
  <tspan id="tspan50" y="523.46002" x="-310.92001"/>
 </text>
 <path id="path52" fill="#f9f9f9" d="m407.76 256a151.76 151.76 0 0 1 -303.52 0 151.76 151.76 0 1 1 303.52 0" fill-opacity="0.133"/>
 <path id="path54" opacity=".25" d="m451.22 58.688-187.37 186.38-116.37 225.97 40.969 40.969h297.56c14.397 0 26-11.603 26-26v-366.53l-60.78-60.784"/>
 <g id="g56" fill="#f9f9f9">
  <rect id="rect58" rx="13.874" transform="matrix(-.7494 -.66211 .66211 -.7494 0 0)" height="27.748" width="228.28" y="-25.969" x="-356.88"/>
  <rect id="rect60" rx="15.16" transform="rotate(-45)" height="30.33" width="278.3" y="344.02" x="-0.748"/>
 </g>
 <rect id="rect62" rx="7.259" transform="matrix(.4772 -.87879 .85224 .52315 0 0)" height="14.518" width="239.46" y="344.7" x="-325.24" fill="#cd1d31"/>
 <path id="path64" d="m286.35 254.93a30.352 30.352 0 0 1 -60.704 0 30.352 30.352 0 1 1 60.704 0" fill="#dedede"/>
</svg>
