<?xml version="1.0" encoding="UTF-8" standalone="no"?>
<svg
   xmlns:dc="http://purl.org/dc/elements/1.1/"
   xmlns:cc="http://creativecommons.org/ns#"
   xmlns:rdf="http://www.w3.org/1999/02/22-rdf-syntax-ns#"
   xmlns:svg="http://www.w3.org/2000/svg"
   xmlns="http://www.w3.org/2000/svg"
   xmlns:sodipodi="http://sodipodi.sourceforge.net/DTD/sodipodi-0.dtd"
   xmlns:inkscape="http://www.inkscape.org/namespaces/inkscape"
   viewBox="0 0 512 512"
   id="svg2"
   version="1.1"
   inkscape:version="0.91+devel r13804 custom"
   sodipodi:docname="gnumeric.svg">
  <metadata
     id="metadata13830">
    <rdf:RDF>
      <cc:Work
         rdf:about="">
        <dc:format>image/svg+xml</dc:format>
        <dc:type
           rdf:resource="http://purl.org/dc/dcmitype/StillImage" />
      </cc:Work>
    </rdf:RDF>
  </metadata>
  <defs
     id="defs13828" />
  <sodipodi:namedview
     pagecolor="#ffffff"
     bordercolor="#666666"
     borderopacity="1"
     objecttolerance="10"
     gridtolerance="10"
     guidetolerance="10"
     inkscape:pageopacity="0"
     inkscape:pageshadow="2"
     inkscape:window-width="1366"
     inkscape:window-height="709"
     id="namedview13826"
     showgrid="false"
     inkscape:zoom="0.4609375"
     inkscape:cx="-8.6779661"
     inkscape:cy="237.55932"
     inkscape:window-x="-2"
     inkscape:window-y="-3"
     inkscape:window-maximized="1"
     inkscape:current-layer="svg2" />
  <g
     id="g17179"
     transform="translate(279.86441,-292.88136)">
    <path
       id="path10476"
       d="m -253.86441,292.88136 c -14.397,0 -26,11.603 -26,26 l 0,460 c 0,14.397 11.603,26 26,26 l 460,0 c 14.397,0 26,-11.603 26,-26 l 0,-460 c 0,-14.397 -11.603,-26 -26,-26 l -460,0"
       style="fill:#ce3b3d"
       inkscape:connector-curvature="0" />
    <path
       id="path13822"
       d="m -238.86441,361.16136 0,375.43 68.28,68.28 376.72,0 c 14.397,0 26,-11.603 26,-26 l 0,-376.72 -41,-41 -430,0"
       style="opacity:0.25"
       inkscape:connector-curvature="0" />
    <path
       id="path13824"
       d="m -238.86441,361.16136 0,375.46 430,0 0,-375.43 -430,0 m 41.615,41.615 96.38,0 0,125.3 -96.38,0 0,-125.3 m 138.000003,0 208.779997,0 0,125.3 -208.779997,0 0,-125.3 m -138.000003,166.91 96.38,0 0,125.3 -96.38,0 0,-125.3 m 138.000003,0 208.779997,0 0,125.3 -208.779997,0 0,-125.3"
       style="fill:#f9f9f9"
       inkscape:connector-curvature="0" />
  </g>
</svg>
