<?xml version="1.0" encoding="UTF-8" standalone="no"?>
<!-- Created with Inkscape (http://www.inkscape.org/) -->
<svg id="svg2" xmlns:rdf="http://www.w3.org/1999/02/22-rdf-syntax-ns#" xmlns="http://www.w3.org/2000/svg" height="100%" width="100%" version="1.1" xmlns:cc="http://creativecommons.org/ns#" viewBox="0 0 512 512" xmlns:dc="http://purl.org/dc/elements/1.1/">
 <metadata id="metadata10">
  <rdf:RDF>
   <cc:Work rdf:about="">
    <dc:format>image/svg+xml</dc:format>
    <dc:type rdf:resource="http://purl.org/dc/dcmitype/StillImage"/>
    <dc:title/>
   </cc:Work>
  </rdf:RDF>
 </metadata>
 <defs id="defs8">
  <clipPath id="clipPath3286">
   <path id="path3288" fill="#28a645" d="m26 0c-14.397 0-26 11.603-26 26v460c0 14.397 11.603 26 26 26h460c14.397 0 26-11.603 26-26v-460c0-14.397-11.6-26-26-26h-460z"/>
  </clipPath>
 </defs>
 <path id="rect2986" fill="#28a645" d="m26 0c-14.397 0-26 11.603-26 26v460c0 14.397 11.603 26 26 26h460c14.397 0 26-11.603 26-26v-460c0-14.397-11.6-26-26-26h-460z"/>
 <text id="text20" style="word-spacing:0;letter-spacing:0" font-size="129.23px" line-height="125%" y="238.19794" x="-26.464216" font-family="Gentium Book Basic">
  <tspan id="tspan22" y="238.19794" x="-26.464216"/>
 </text>
 <text id="text24" style="text-anchor:middle" transform="scale(4.0128 .24920)" font-size="46.954px" y="606.69769" x="190.48592" font-family="Arial"/>
 <text id="text26" style="word-spacing:0;letter-spacing:0" font-size="129.23px" line-height="125%" y="158.19794" x="554.80579" font-family="Gentium Book Basic">
  <tspan id="tspan28" y="158.19794" x="554.80579"/>
 </text>
 <text id="text30" style="text-anchor:middle" transform="scale(4.0128 .24920)" font-size="46.954px" y="285.65952" x="335.33517" font-family="Arial"/>
 <text id="text32" style="word-spacing:0;letter-spacing:0" font-size="129.23px" line-height="125%" y="-23.062038" x="-516.77423" font-family="Gentium Book Basic">
  <tspan id="tspan34" y="-23.062038" x="-516.77423"/>
 </text>
 <text id="text36" style="text-anchor:middle" transform="scale(4.0128 .24920)" font-size="46.954px" y="-441.68686" x="68.296547" font-family="Arial"/>
 <text id="text38" style="word-spacing:0;letter-spacing:0" font-size="129.23px" line-height="125%" y="-239.53204" x="581.27576" font-family="Gentium Book Basic">
  <tspan id="tspan40" y="-239.53204" x="581.27576"/>
 </text>
 <text id="text42" style="text-anchor:middle" transform="scale(4.0128 .24920)" font-size="46.954px" y="-1310.3624" x="341.93515" font-family="Arial"/>
 <text id="text44" style="word-spacing:0;letter-spacing:0" font-size="129.23px" line-height="125%" y="-319.53201" x="1162.5458" font-family="Gentium Book Basic">
  <tspan id="tspan46" y="-319.53201" x="1162.5458"/>
 </text>
 <text id="text48" style="text-anchor:middle" transform="scale(4.0128 .24920)" font-size="46.954px" y="-1631.3907" x="486.78439" font-family="Arial"/>
 <text id="text50" style="word-spacing:0;letter-spacing:0" font-size="129.23px" line-height="125%" y="-791.93207" x="773.42578" font-family="Gentium Book Basic">
  <tspan id="tspan52" y="-791.93207" x="773.42578"/>
 </text>
 <text id="text54" style="text-anchor:middle" transform="scale(4.0128 .24920)" font-size="46.954px" y="-3527.0413" x="389.81485" font-family="Arial"/>
 <text id="text56" style="word-spacing:0;letter-spacing:0" font-size="129.23px" line-height="125%" y="-871.94208" x="1354.6858" font-family="Gentium Book Basic">
  <tspan id="tspan58" y="-871.94208" x="1354.6858"/>
 </text>
 <text id="text60" style="text-anchor:middle" transform="scale(4.0128 .24920)" font-size="46.954px" y="-3848.0796" x="534.66418" font-family="Arial"/>
 <text id="text62" style="word-spacing:0;letter-spacing:0" font-size="208.33px" line-height="125%" y="542.77802" x="-478.11423" font-family="Gentium Book Basic">
  <tspan id="tspan64" y="542.77802" x="-478.11423"/>
 </text>
 <path id="path3144" style="block-progression:tb;text-indent:0;color:#000000;text-transform:none" d="m373.16 192.47-0.28125 0.1875-95.438 65.094h-0.0312l-112.53 71.438-64.812-38.906-0.25-0.125-0.2188 0.0937-99.601 45.72v150.03c0 14.397 11.603 26 26 26h460c14.397 0 26-11.603 26-26v-274.5l-41.062 44.906-34.562-16-62.906-47.719-0.3125-0.21875z" fill="#005c2b"/>
 <g id="g3187" opacity=".25" style="block-progression:tb;text-indent:0;color:#000000;text-transform:none" clip-path="url(#clipPath3286)">
  <path id="path3189" d="m371.34 153.22-1.4062 1 388.91 388.91 1.4062-1z"/>
  <path id="path3191" d="m369.94 154.22-0.875 0.625 388.91 388.91 0.875-0.625z"/>
  <path id="path3193" d="m369.06 154.84c-66.523 49.138-133.07 98.202-199.69 147.38l388.91 388.91c66.622-49.173 133.16-98.237 199.69-147.38z"/>
  <path id="path3195" d="m169.38 302.22c-22.09-13.52-44.11-27.14-66.38-40.34l388.91 388.91c22.271 13.209 44.294 26.821 66.375 40.344z"/>
  <path id="path3197" d="m103 261.88c-34.451 15.49-68.712 31.46-103 47.34l388.91 388.91c34.288-15.881 68.549-31.845 103-47.344z"/>
  <path id="path3199" d="m0 309.22v48.25l388.91 388.91v-48.25z"/>
  <path id="path3201" d="m0 357.47c33.131-15.894 66.692-30.823 100.03-46.312l388.91 388.91c-33.339 15.489-66.9 30.418-100.03 46.312z"/>
  <path id="path3203" d="m100.03 311.16c23.926 14.597 47.807 29.338 72 43.469l388.91 388.91c-24.193-14.131-48.074-28.872-72-43.469z"/>
  <path id="path3205" d="m172.03 354.62c65.372-48.765 131.13-96.659 196.56-145.38l388.91 388.91c-65.436 48.716-131.19 96.61-196.56 145.38z"/>
  <path id="path3207" d="m368.59 209.25c29.237 26.245 58.584 52.27 88.031 78.281l388.91 388.91c-29.447-26.011-58.794-52.036-88.031-78.281z"/>
  <path id="path3209" d="m456.62 287.53c18.25-18.73 36.81-37.16 55.38-55.59l388.91 388.91c-18.565 18.429-37.127 36.864-55.375 55.594z"/>
  <path id="path3211" d="m512 231.94v-62.125l388.91 388.91v62.125z"/>
  <path id="path3213" d="m512 169.81c-18.406 19.626-37.947 38.547-57.062 57.688l388.91 388.91c19.116-19.141 38.657-38.062 57.062-57.688z"/>
  <path id="path3215" d="m454.94 227.5c-27.772-24.884-55.685-49.574-83.594-74.281l388.91 388.91c27.909 24.707 55.822 49.398 83.594 74.281z"/>
 </g>
 <path id="path3115" style="block-progression:tb;text-indent:0;color:#000000;text-transform:none" d="m371.34 153.22-1.4062 1-0.875 0.625c-66.52 49.14-133.06 98.21-199.68 147.38-22.09-13.52-44.11-27.14-66.38-40.34-34.451 15.49-68.712 31.46-103 47.34v48.25c33.131-15.894 66.692-30.823 100.03-46.312 23.926 14.597 47.807 29.338 72 43.469 65.372-48.765 131.13-96.659 196.56-145.38 29.237 26.245 58.584 52.27 88.031 78.281 18.248-18.729 36.81-37.165 55.375-55.594v-62.125c-18.406 19.626-37.947 38.547-57.062 57.688-27.772-24.884-55.685-49.574-83.594-74.281z" fill="#fff"/>
</svg>
