<?xml version="1.0" encoding="UTF-8" standalone="no"?>
<!-- Created with Inkscape (http://www.inkscape.org/) -->
<svg id="svg2" xmlns:rdf="http://www.w3.org/1999/02/22-rdf-syntax-ns#" xmlns="http://www.w3.org/2000/svg" height="100%" width="100%" version="1.1" xmlns:cc="http://creativecommons.org/ns#" viewBox="0 0 512 512" xmlns:dc="http://purl.org/dc/elements/1.1/">
 <metadata id="metadata10">
  <rdf:RDF>
   <cc:Work rdf:about="">
    <dc:format>image/svg+xml</dc:format>
    <dc:type rdf:resource="http://purl.org/dc/dcmitype/StillImage"/>
    <dc:title/>
   </cc:Work>
  </rdf:RDF>
 </metadata>
 <defs id="defs8">
  <clipPath id="clipPath3277">
   <path id="path3279" fill="#0aa25a" d="m26 0c-14.397 0-26 11.603-26 26v460c0 14.397 11.603 26 26 26h460c14.397 0 26-11.603 26-26v-460c0-14.397-11.6-26-26-26h-460z"/>
  </clipPath>
 </defs>
 <path id="rect2986" fill="#0aa25a" d="m26 0c-14.397 0-26 11.603-26 26v460c0 14.397 11.603 26 26 26h460c14.397 0 26-11.603 26-26v-460c0-14.397-11.6-26-26-26h-460z"/>
 <text id="text20" style="word-spacing:0;letter-spacing:0" font-size="129.23px" line-height="125%" y="309.40817" x="-462.13788" font-family="Gentium Book Basic">
  <tspan id="tspan22" y="309.40817" x="-462.13788"/>
 </text>
 <text id="text24" style="text-anchor:middle" transform="scale(4.0128 .24920)" font-size="46.954px" y="892.45154" x="81.915474" font-family="Arial"/>
 <text id="text26" style="word-spacing:0;letter-spacing:0" font-size="129.23px" line-height="125%" y="229.40817" x="119.13213" font-family="Gentium Book Basic">
  <tspan id="tspan28" y="229.40817" x="119.13213"/>
 </text>
 <text id="text30" style="text-anchor:middle" transform="scale(4.0128 .24920)" font-size="46.954px" y="571.41339" x="226.76476" font-family="Arial"/>
 <text id="text32" style="word-spacing:0;letter-spacing:0" font-size="129.23px" line-height="125%" y="48.14819" x="-952.44788" font-family="Gentium Book Basic">
  <tspan id="tspan34" y="48.14819" x="-952.44788"/>
 </text>
 <text id="text36" style="text-anchor:middle" transform="scale(4.0128 .24920)" font-size="46.954px" y="-155.933" x="-40.273888" font-family="Arial"/>
 <text id="text38" style="word-spacing:0;letter-spacing:0" font-size="129.23px" line-height="125%" y="-168.32181" x="145.60211" font-family="Gentium Book Basic">
  <tspan id="tspan40" y="-168.32181" x="145.60211"/>
 </text>
 <text id="text42" style="text-anchor:middle" transform="scale(4.0128 .24920)" font-size="46.954px" y="-1024.6086" x="233.36473" font-family="Arial"/>
 <text id="text44" style="word-spacing:0;letter-spacing:0" font-size="129.23px" line-height="125%" y="-248.32179" x="726.87213" font-family="Gentium Book Basic">
  <tspan id="tspan46" y="-248.32179" x="726.87213"/>
 </text>
 <text id="text48" style="text-anchor:middle" transform="scale(4.0128 .24920)" font-size="46.954px" y="-1345.637" x="378.21396" font-family="Arial"/>
 <text id="text50" style="word-spacing:0;letter-spacing:0" font-size="129.23px" line-height="125%" y="-720.7218" x="337.75214" font-family="Gentium Book Basic">
  <tspan id="tspan52" y="-720.7218" x="337.75214"/>
 </text>
 <text id="text54" style="text-anchor:middle" transform="scale(4.0128 .24920)" font-size="46.954px" y="-3241.2874" x="281.24442" font-family="Arial"/>
 <text id="text56" style="word-spacing:0;letter-spacing:0" font-size="129.23px" line-height="125%" y="-800.73181" x="919.01215" font-family="Gentium Book Basic">
  <tspan id="tspan58" y="-800.73181" x="919.01215"/>
 </text>
 <text id="text60" style="text-anchor:middle" transform="scale(4.0128 .24920)" font-size="46.954px" y="-3562.3257" x="426.09372" font-family="Arial"/>
 <text id="text62" style="word-spacing:0;letter-spacing:0" font-size="208.33px" line-height="125%" y="613.98828" x="-913.7879" font-family="Gentium Book Basic">
  <tspan id="tspan64" y="613.98828" x="-913.7879"/>
 </text>
 <path id="path3135" style="block-progression:tb;text-indent:0;color:#000000;text-transform:none" d="m512 122.75-256 241.03-92.938-95.125-0.34375-0.34375-0.375 0.34375l-162.34 165.93v51.41c0 14.397 11.603 26 26 26h460c14.397 0 26-11.603 26-26v-363.25z" fill="#087a44"/>
 <g id="g3178" opacity=".25" clip-path="url(#clipPath3277)">
  <path id="path3180" d="m512 65.562c-83.98 84.088-172.56 171.59-256.44 255.47l388.91 388.91c83.877-83.879 172.45-171.38 256.44-255.47z"/>
  <path id="path3182" d="m255.56 321.03c-9.5191-9.5494-19.05-19.085-28.584-28.619l388.91 388.91c9.5334 9.5334 19.065 19.069 28.584 28.619z"/>
  <path id="path3184" d="m226.98 292.41c-9.42-9.41-18.83-18.83-28.24-28.25l388.91 388.91c9.4091 9.4209 18.826 18.834 28.241 28.249z"/>
  <path id="path3186" d="m198.74 264.16c-12.34-12.355-24.666-24.725-36.956-37.133l388.91 388.91c12.29 12.408 24.616 24.777 36.956 37.133z"/>
  <path id="path3188" d="m161.78 227.03c-53.85 54.07-107.76 108.07-161.78 161.97l388.91 388.91c54.016-53.899 107.93-107.9 161.78-161.97z"/>
  <path id="path3190" d="m0 389v58.438l388.91 388.91v-58.438z"/>
  <path id="path3192" d="m0 447.44c0.87661 1.1808 0.69449 3.2205 0 5.6875l388.91 388.91c0.69449-2.467 0.87661-4.5067 0-5.6875z"/>
  <path id="path3194" d="m0 453.12v16.688l388.91 388.91v-16.688z"/>
  <path id="path3196" d="m0 469.81c49.351-49.25 113.78-110.6 161.78-158.62l388.91 388.91c-48 48.01-112.43 109.37-161.78 158.62z"/>
  <path id="path3198" d="m161.78 311.19c9.5203 9.5507 19.053 19.088 28.588 28.622l388.91 388.91c-9.5347-9.5347-19.067-19.072-28.588-28.622z"/>
  <path id="path3200" d="m190.37 339.81c9.4143 9.4143 18.831 18.826 28.239 28.246l388.91 388.91c-9.4082-9.4201-18.824-18.832-28.239-28.246z"/>
  <path id="path3202" d="m218.61 368.06c12.34 12.355 24.665 24.724 36.955 37.131l388.91 388.91c-12.29-12.407-24.615-24.776-36.955-37.131z"/>
  <path id="path3204" d="m255.56 405.19c85.4-85.59 170.89-171.1 256.44-256.53l388.91 388.91c-85.546 85.437-171.04 170.94-256.44 256.53z"/>
  <path id="path3206" d="m512 148.66v-83.094l388.91 388.91v83.094z"/>
 </g>
 <path id="rect3115" fill="#fff" d="m512 65.562c-83.983 84.09-172.56 171.59-256.44 255.47-31.249-31.349-62.632-62.552-93.781-94-53.85 54.07-107.76 108.07-161.78 161.97v58.438c0.87661 1.1808 0.69449 3.2205 0 5.6875v16.688c49.351-49.254 113.78-110.61 161.78-158.62 31.249 31.349 62.632 62.552 93.781 94 85.4-85.6 170.89-171.11 256.44-256.54v-83.094z"/>
</svg>
