<?xml version="1.0" encoding="UTF-8" standalone="no"?>
<!-- Created with Inkscape (http://www.inkscape.org/) -->
<svg id="svg2" xmlns:rdf="http://www.w3.org/1999/02/22-rdf-syntax-ns#" xmlns="http://www.w3.org/2000/svg" height="100%" width="100%" version="1.1" xmlns:cc="http://creativecommons.org/ns#" xmlns:dc="http://purl.org/dc/elements/1.1/" viewBox="0 0 512 512">
 <metadata id="metadata10">
  <rdf:RDF>
   <cc:Work rdf:about="">
    <dc:format>image/svg+xml</dc:format>
    <dc:type rdf:resource="http://purl.org/dc/dcmitype/StillImage"/>
    <dc:title/>
   </cc:Work>
  </rdf:RDF>
 </metadata>
 <text id="text20" style="word-spacing:0;letter-spacing:0" font-size="129.23px" line-height="125%" y="91.57193" x="-351.68549" font-family="Gentium Book Basic">
  <tspan id="tspan22" y="91.57193" x="-351.68549"/>
 </text>
 <text id="text24" style="text-anchor:middle" transform="scale(4.0128 .24920)" font-size="46.954px" y="18.313808" x="109.44035" font-family="Arial"/>
 <text id="text26" style="word-spacing:0;letter-spacing:0" font-size="129.23px" line-height="125%" y="11.57193" x="229.58453" font-family="Gentium Book Basic">
  <tspan id="tspan28" y="11.57193" x="229.58453"/>
 </text>
 <text id="text30" style="text-anchor:middle" transform="scale(4.0128 .24920)" font-size="46.954px" y="-302.72433" x="254.28963" font-family="Arial"/>
 <text id="text32" style="word-spacing:0;letter-spacing:0" font-size="129.23px" line-height="125%" y="-169.68805" x="-841.99548" font-family="Gentium Book Basic">
  <tspan id="tspan34" y="-169.68805" x="-841.99548"/>
 </text>
 <text id="text36" style="text-anchor:middle" transform="scale(4.0128 .24920)" font-size="46.954px" y="-1030.0707" x="-12.749008" font-family="Arial"/>
 <text id="text38" style="word-spacing:0;letter-spacing:0" font-size="129.23px" line-height="125%" y="-386.15805" x="256.0545" font-family="Gentium Book Basic">
  <tspan id="tspan40" y="-386.15805" x="256.0545"/>
 </text>
 <text id="text42" style="text-anchor:middle" transform="scale(4.0128 .24920)" font-size="46.954px" y="-1898.7463" x="260.88962" font-family="Arial"/>
 <text id="text44" style="word-spacing:0;letter-spacing:0" font-size="129.23px" line-height="125%" y="-466.15802" x="837.32452" font-family="Gentium Book Basic">
  <tspan id="tspan46" y="-466.15802" x="837.32452"/>
 </text>
 <text id="text48" style="text-anchor:middle" transform="scale(4.0128 .24920)" font-size="46.954px" y="-2219.7747" x="405.73886" font-family="Arial"/>
 <text id="text50" style="word-spacing:0;letter-spacing:0" font-size="129.23px" line-height="125%" y="-938.55804" x="448.20453" font-family="Gentium Book Basic">
  <tspan id="tspan52" y="-938.55804" x="448.20453"/>
 </text>
 <text id="text54" style="text-anchor:middle" transform="scale(4.0128 .24920)" font-size="46.954px" y="-4115.4248" x="308.76932" font-family="Arial"/>
 <text id="text56" style="word-spacing:0;letter-spacing:0" font-size="129.23px" line-height="125%" y="-1018.5681" x="1029.4646" font-family="Gentium Book Basic">
  <tspan id="tspan58" y="-1018.5681" x="1029.4646"/>
 </text>
 <text id="text60" style="text-anchor:middle" transform="scale(4.0128 .24920)" font-size="46.954px" y="-4436.4634" x="453.61862" font-family="Arial"/>
 <text id="text62" style="word-spacing:0;letter-spacing:0" font-size="208.33px" line-height="125%" y="396.15204" x="-803.33551" font-family="Gentium Book Basic">
  <tspan id="tspan64" y="396.15204" x="-803.33551"/>
 </text>
 <text id="text20-2" font-size="129.23px" style="word-spacing:0;letter-spacing:0" line-height="125%" y="149.14371" x="-100.09924" font-family="&apos;Gentium Book Basic&apos;">
  <tspan id="tspan22-9" y="149.14371" x="-100.09924"/>
 </text>
 <text id="text24-1" style="text-anchor:middle" transform="scale(4.0128 .24920)" font-size="46.954px" y="249.33902" x="172.13597" font-family="Arial"/>
 <text id="text26-2" font-size="129.23px" style="word-spacing:0;letter-spacing:0" line-height="125%" y="69.143707" x="481.17078" font-family="&apos;Gentium Book Basic&apos;">
  <tspan id="tspan28-7" y="69.143707" x="481.17078"/>
 </text>
 <text id="text30-0" style="text-anchor:middle" transform="scale(4.0128 .24920)" font-size="46.954px" y="-71.69912" x="316.98523" font-family="Arial"/>
 <text id="text32-5" font-size="129.23px" style="word-spacing:0;letter-spacing:0" line-height="125%" y="-112.11627" x="-590.40924" font-family="&apos;Gentium Book Basic&apos;">
  <tspan id="tspan34-9" y="-112.11627" x="-590.40924"/>
 </text>
 <text id="text36-4" style="text-anchor:middle" transform="scale(4.0128 .24920)" font-size="46.954px" y="-799.04547" x="49.946606" font-family="Arial"/>
 <text id="text38-5" font-size="129.23px" style="word-spacing:0;letter-spacing:0" line-height="125%" y="-328.58627" x="507.64075" font-family="&apos;Gentium Book Basic&apos;">
  <tspan id="tspan40-1" y="-328.58627" x="507.64075"/>
 </text>
 <text id="text42-0" style="text-anchor:middle" transform="scale(4.0128 .24920)" font-size="46.954px" y="-1667.7211" x="323.58521" font-family="Arial"/>
 <text id="text44-6" font-size="129.23px" style="word-spacing:0;letter-spacing:0" line-height="125%" y="-408.58624" x="1088.9108" font-family="&apos;Gentium Book Basic&apos;">
  <tspan id="tspan46-1" y="-408.58624" x="1088.9108"/>
 </text>
 <text id="text48-6" style="text-anchor:middle" transform="scale(4.0128 .24920)" font-size="46.954px" y="-1988.7494" x="468.43445" font-family="Arial"/>
 <text id="text50-9" font-size="129.23px" style="word-spacing:0;letter-spacing:0" line-height="125%" y="-880.98627" x="699.79077" font-family="&apos;Gentium Book Basic&apos;">
  <tspan id="tspan52-2" y="-880.98627" x="699.79077"/>
 </text>
 <text id="text54-6" style="text-anchor:middle" transform="scale(4.0128 .24920)" font-size="46.954px" y="-3884.3999" x="371.4649" font-family="Arial"/>
 <text id="text56-5" font-size="129.23px" style="word-spacing:0;letter-spacing:0" line-height="125%" y="-960.99628" x="1281.0508" font-family="&apos;Gentium Book Basic&apos;">
  <tspan id="tspan58-1" y="-960.99628" x="1281.0508"/>
 </text>
 <text id="text60-5" style="text-anchor:middle" transform="scale(4.0128 .24920)" font-size="46.954px" y="-4205.438" x="516.31421" font-family="Arial"/>
 <text id="text62-6" font-size="208.33px" style="word-spacing:0;letter-spacing:0" line-height="125%" y="453.72382" x="-551.74927" font-family="&apos;Gentium Book Basic&apos;">
  <tspan id="tspan64-2" y="453.72382" x="-551.74927"/>
 </text>
 <path id="rect2986" fill="#dd4b38" d="m26 0c-14.397 0-26 11.603-26 26v460c0 14.397 11.603 26 26 26h460c14.397 0 26-11.603 26-26v-460c0-14.397-11.6-26-26-26h-460z"/>
 <text id="text20-4" font-size="129.23px" style="word-spacing:0;letter-spacing:0" line-height="125%" y="156.00256" x="-406.91168" font-family="&apos;Gentium Book Basic&apos;">
  <tspan id="tspan22-90" y="156.00256" x="-406.91168"/>
 </text>
 <text id="text24-0" style="text-anchor:middle" transform="scale(4.0128 .24920)" font-size="46.954px" y="276.8512" x="95.677933" font-family="Arial"/>
 <text id="text26-9" font-size="129.23px" style="word-spacing:0;letter-spacing:0" line-height="125%" y="76.002571" x="174.35834" font-family="&apos;Gentium Book Basic&apos;">
  <tspan id="tspan28-2" y="76.002571" x="174.35834"/>
 </text>
 <text id="text30-9" style="text-anchor:middle" transform="scale(4.0128 .24920)" font-size="46.954px" y="-44.17717" x="240.52719" font-family="Arial"/>
 <text id="text32-0" font-size="129.23px" style="word-spacing:0;letter-spacing:0" line-height="125%" y="-105.25843" x="-897.22168" font-family="&apos;Gentium Book Basic&apos;">
  <tspan id="tspan34-7" y="-105.25843" x="-897.22168"/>
 </text>
 <text id="text36-8" style="text-anchor:middle" transform="scale(4.0128 .24920)" font-size="46.954px" y="-771.53345" x="-26.511448" font-family="Arial"/>
 <text id="text38-2" font-size="129.23px" style="word-spacing:0;letter-spacing:0" line-height="125%" y="-321.72742" x="200.82831" font-family="&apos;Gentium Book Basic&apos;">
  <tspan id="tspan40-2" y="-321.72742" x="200.82831"/>
 </text>
 <text id="text42-9" style="text-anchor:middle" transform="scale(4.0128 .24920)" font-size="46.954px" y="-1640.1991" x="247.12714" font-family="Arial"/>
 <text id="text44-69" font-size="129.23px" style="word-spacing:0;letter-spacing:0" line-height="125%" y="-401.73743" x="782.09833" font-family="&apos;Gentium Book Basic&apos;">
  <tspan id="tspan46-0" y="-401.73743" x="782.09833"/>
 </text>
 <text id="text48-8" style="text-anchor:middle" transform="scale(4.0128 .24920)" font-size="46.954px" y="-1961.2373" x="391.97644" font-family="Arial"/>
 <text id="text50-5" font-size="129.23px" style="word-spacing:0;letter-spacing:0" line-height="125%" y="-874.13745" x="392.97833" font-family="&apos;Gentium Book Basic&apos;">
  <tspan id="tspan52-4" y="-874.13745" x="392.97833"/>
 </text>
 <text id="text54-5" style="text-anchor:middle" transform="scale(4.0128 .24920)" font-size="46.954px" y="-3856.8877" x="295.0069" font-family="Arial"/>
 <text id="text56-6" font-size="129.23px" style="word-spacing:0;letter-spacing:0" line-height="125%" y="-954.13745" x="974.23834" font-family="&apos;Gentium Book Basic&apos;">
  <tspan id="tspan58-6" y="-954.13745" x="974.23834"/>
 </text>
 <text id="text60-3" style="text-anchor:middle" transform="scale(4.0128 .24920)" font-size="46.954px" y="-4177.916" x="439.8562" font-family="Arial"/>
 <text id="text62-3" font-size="208.33px" style="word-spacing:0;letter-spacing:0" line-height="125%" y="460.58258" x="-858.56171" font-family="&apos;Gentium Book Basic&apos;">
  <tspan id="tspan64-0" y="460.58258" x="-858.56171"/>
 </text>
 <path id="path3133" opacity=".25" d="m183.38 61.795c-4.59-0.001-15.38 0.254-28.24 2.59-30.4 5.498-72.424 25.564-84.308 67.365-12.078 42.45 4.203 68.09 16.803 80.69l78.865 78.87c-21.26 0.82-74.954 5.94-103.6 36.35-36.222 38.45-16.588 73.83-16.588 73.83s3.146 7.67 12.397 16.92l93.591 93.59h333.7c14.4 0 26-11.6 26-26v-210.93l-113.98-113.98h-4.18l-99-99.004-109.08-0.285h-2.37l-0.01-0.006z"/>
 <path id="path66" d="m183.38 61.795c-4.5961-0.0013-15.379 0.25376-28.241 2.5893-30.396 5.4985-72.425 25.565-84.309 67.362-18.391 64.643 28.968 90.303 28.968 90.303s16.577 9.7398 23.421 11.652c20.585 5.7458 42.482 3.0748 42.482 3.0748s-8.7261 28.936 8.7792 49.366c4.1792 4.8757 1.1328 5.0169 1.1328 5.0169s-76.489-1.9562-112.71 36.497c-36.222 38.452-16.589 73.835-16.589 73.835s18.988 46.292 100.9 48.632c82.276 2.3472 133.16-46.398 137.6-83.183 2.2359-18.489-0.28354-35.789-9.5482-50.932-9.0083-14.733-24.497-27.408-39.609-39.771-9.3903-7.6826-15.939-11.644-20.149-16.062-3.9759-4.1727-4.6323-9.5612-4.4912-13.594 0.20715-5.6318 3.1499-12.512 13.024-23.951 18.018-20.87 22.614-18.281 33.5-33.907 3.2613-4.6828 5.6318-11.508 8.9824-21.686 2.0197-6.1316 1.6999-12.499 1.6999-18.409 0-12.777-3.0671-24.935-8.1733-35.202-9.4861-19.073-25.783-31.472-26.101-32.406h28.56l32.327-18.935-109.08-0.28353h-2.3874m-23.41 17.714c16.637 0.12429 41.624 8.7585 56.602 53.689 25.701 77.098-28.119 88.853-28.119 88.853s-61.69 9.499-73.032-59.069c-11.548-69.849 16.587-73.616 27.593-80.516 0 0 6.9705-3.0205 16.947-2.9531m194.41 81.564v73.594h-73.188v43.655h73.188v72.579h43.655v-72.579h72.994v-43.655h-72.981v-73.594h-43.655m-160.33 145.61s49.111 30.088 53.729 52.149c5.1735 24.715 5.4881 42.713-32.003 62.429-11.068 5.8208-30.491 6.4993-42.724 6.5549-30.062 0.12429-52.742-11.435-63.97-17.236-5.8325-3.0166-38.225-39.396-14.241-71.932 6.0332-8.1849 12.683-11.811 18.894-15.981 13.219-8.875 26.191-13.037 50.661-15.172 8.137-0.71078 19.01-0.0906 29.656-0.80917" fill="#fff"/>
</svg>
