<?xml version="1.0" encoding="UTF-8" standalone="no"?>
<svg id="svg2" xmlns:rdf="http://www.w3.org/1999/02/22-rdf-syntax-ns#" xmlns="http://www.w3.org/2000/svg" height="100%" viewBox="0 0 512 512" width="100%" version="1.1" xmlns:cc="http://creativecommons.org/ns#" xmlns:xlink="http://www.w3.org/1999/xlink" xmlns:dc="http://purl.org/dc/elements/1.1/">
 <metadata id="metadata10">
  <rdf:RDF>
   <cc:Work rdf:about="">
    <dc:format>image/svg+xml</dc:format>
    <dc:type rdf:resource="http://purl.org/dc/dcmitype/StillImage"/>
    <dc:title/>
   </cc:Work>
  </rdf:RDF>
 </metadata>
 <defs id="defs8">
  <linearGradient id="linearGradient4216-1">
   <stop id="stop4218-0" stop-color="#fff" offset="0"/>
   <stop id="stop4220-2" stop-color="#e8e8e8" offset=".6875"/>
   <stop id="stop4222-6" stop-color="#686868" offset=".875"/>
   <stop id="stop4224-6" offset="1"/>
  </linearGradient>
  <radialGradient id="radialGradient21305" cx="64" xlink:href="#linearGradient4216-1" gradientUnits="userSpaceOnUse" cy="64" r="64" gradientTransform="matrix(4.1658 0 0 3.8875 -39.924 -73.947)"/>
  <radialGradient id="radialGradient21305-0" xlink:href="#linearGradient4216-1" gradientUnits="userSpaceOnUse" cy="64" cx="64" gradientTransform="matrix(4.1658 0 0 3.8875 1383.5 -189.35)" r="64"/>
  <linearGradient id="ButtonShadow" y2="7.0165" gradientUnits="userSpaceOnUse" x2="45.448" gradientTransform="scale(1.0059 .99417)" y1="92.54" x1="45.448">
   <stop id="stop3750-1" offset="0"/>
   <stop id="stop3752-6" stop-opacity=".58824" offset="1"/>
  </linearGradient>
  <filter id="filter3174" color-interpolation-filters="sRGB">
   <feGaussianBlur id="feGaussianBlur3176" stdDeviation="1.71"/>
  </filter>
  <linearGradient id="linearGradient64021" gradientUnits="userSpaceOnUse" x2="0" gradientTransform="matrix(1.9671 0 0 -1.9671 -241.74 753.78)" y1="264.77" y2="473.45">
   <stop id="stop49378-2" offset="0"/>
   <stop id="stop49380-7" stop-opacity="0" offset="1"/>
  </linearGradient>
  <linearGradient id="linearGradient64019" gradientUnits="userSpaceOnUse" x2="0" gradientTransform="matrix(1.9671 0 0 -1.9671 -241.74 753.78)" y1="265.27" y2="34.772">
   <stop id="stop49423" stop-color="#fff" offset="0"/>
   <stop id="stop49425" stop-color="#fff" stop-opacity="0" offset="1"/>
  </linearGradient>
 </defs>
 <path id="path4230" d="m273.04 165.47c-2.1202 7.3447-36.402 181.33-29.267 189.98 6.1765 7.4828 15.826 4.2405 17.946-3.1042-2.1202 7.3447-6.3607 22.034-8.4809 29.379-17.946 3.1042-33.92-0.81668-37.444-17.946-4.0713-19.793 27.134-182.59 29.267-189.98-4.7411-8.958-29.531-15.826-33.772-1.1362l-7.9128-2.1202c18.514-34.603 53.838-9.3127 69.663-5.0722z" display="none"/>
 <path id="path4232" d="m250.86 183.26c-26.427 32.483-124.22 164.54-147.96 158.17l-15.826-4.2405 12.153-12.569 7.9128 2.1202c15.826 4.2405 123.65-133.04 140.05-160.3 12.573-20.906 3.6724 16.81 3.6724 16.81z" display="none"/>
 <path id="path4234" d="m187.97 253.45 47.477 12.721-4.2405 14.689-55.39-14.842z" display="none"/>
 <ellipse id="path3281-0-0" rx="266.61" transform="matrix(.96593 .25882 -.27735 .96077 0 0)" ry="248.8" cy="174.85" cx="226.69" display="none" fill="url(#radialGradient21305)"/>
 <path id="path4230-0" d="m273.04 165.47c-2.1202 7.3447-36.402 181.33-29.267 189.98 6.1765 7.4828 15.826 4.2405 17.946-3.1042-2.1202 7.3447-6.3607 22.034-8.4809 29.379-17.946 3.1042-33.92-0.81668-37.444-17.946-4.0713-19.793 27.134-182.59 29.267-189.98-4.7411-8.958-29.531-15.826-33.772-1.1362l-7.9128-2.1202c18.514-34.603 53.838-9.3127 69.663-5.0722z" display="none"/>
 <path id="path4232-1" d="m250.86 183.26c-26.427 32.483-124.22 164.54-147.96 158.17l-15.826-4.2405 12.153-12.569 7.9128 2.1202c15.826 4.2405 123.65-133.04 140.05-160.3 12.573-20.906 3.6724 16.81 3.6724 16.81z" display="none"/>
 <path id="path4234-6" d="m187.97 253.45 47.477 12.721-4.2405 14.689-55.39-14.842z" display="none"/>
 <ellipse id="path3281-0-0-1" rx="266.61" transform="matrix(.96593 .25882 -.27735 .96077 0 0)" ry="248.8" cy="174.85" cx="226.69" display="none" fill="url(#radialGradient21305)"/>
 <path id="path4230-8" d="m1680 423c-2.1203 7.3447-36.402 181.33-29.267 189.98 6.1765 7.4828 15.826 4.2405 17.946-3.1042-2.1203 7.3447-6.3607 22.034-8.481 29.379-17.946 3.1042-33.92-0.81668-37.444-17.946-4.0713-19.793 27.134-182.59 29.267-189.98-4.7412-8.958-29.531-15.826-33.772-1.1362l-7.9128-2.1202c18.514-34.603 53.838-9.3127 69.663-5.0722z" display="none"/>
 <path id="path4232-9" d="m1657.8 440.8c-26.427 32.483-124.22 164.54-147.96 158.17l-15.826-4.2405 12.153-12.569 7.9128 2.1202c15.826 4.2405 123.65-133.04 140.05-160.3 12.573-20.906 3.6723 16.81 3.6723 16.81z" display="none"/>
 <path id="path4234-5" d="m1594.9 510.99 47.477 12.721-4.2405 14.689-55.39-14.842z" display="none"/>
 <ellipse id="path3281-0-0-6" rx="266.61" transform="matrix(.96593 .25882 -.27735 .96077 0 0)" ry="248.8" cy="59.452" cx="1650.1" display="none" fill="url(#radialGradient21305-0)"/>
 <g id="layer2" display="none" transform="matrix(6.7274 0 0 6.7274 -2789.7 -809.34)">
  <rect id="rect3745" opacity=".9" rx="6" ry="6" height="85" filter="url(#filter3174)" width="86" y="7" x="5" fill="url(#ButtonShadow)"/>
 </g>
 <path id="rect2986" d="m26 0c-14.397 0-26 11.603-26 26v460c0 14.397 11.603 26 26 26h460c14.397 0 26-11.603 26-26v-460c0-14.397-11.6-26-26-26h-460z" fill="#1a957a"/>
 <g id="g64033" opacity=".15">
  <path id="path64017" d="m26 0c-14.397 0-26 11.603-26 26v210.14h512v-210.14c0-14.397-11.6-26-26-26h-460z" style="color:#000000" fill="url(#linearGradient64021)"/>
  <path id="path64015" d="m0 236.14v249.86c0 14.397 11.603 26 26 26h460c14.397 0 26-11.603 26-26v-249.86h-512z" fill-rule="evenodd" fill="url(#linearGradient64019)"/>
 </g>
 <path id="path5675" opacity=".25" d="m41.869 41v80.338l21.516 21.516h-4.7031v328.15l41 41 386.32-0.01c14.397 0 26-11.603 26-26v-403.13l-41.87-41.87h-428.26z"/>
 <path id="path6191" d="m41.869 41v80.338h428.26v-80.338h-428.26zm108.24 19.471c11.408 0 20.698 9.1871 20.698 20.595s-9.2893 20.698-20.698 20.698c-11.408 0-20.698-9.2893-20.698-20.698 0-11.408 9.2893-20.595 20.698-20.595zm211.73 0c11.408 0 20.647 9.1871 20.647 20.595s-9.2382 20.698-20.647 20.698c-11.408 0-20.647-9.2893-20.647-20.698 0-11.408 9.2382-20.595 20.647-20.595zm-303.16 82.382v328.15h70.014c47.964-26.759 95.902-53.558 143.86-80.338v-35.007c8.7001 4.3501 17.269 7.6077 25.808 9.8633 4.8917 1.2344 9.768 2.0688 14.565 2.6064 16.285-9.0847 32.62-18.119 48.908-27.188-0.7727-6.6769-4.1403-11.847-10.017-15.485-6.6863-4.2695-16.613-6.3881-29.743-6.3882h-18.602v-29.999h19.573c11.681 0.00011 20.395-1.792 26.115-5.4172 5.7194-3.7055 8.5345-9.2706 8.5346-16.763-0.0001-6.9278-2.6696-12.261-8.228-16.047-5.5585-3.786-13.461-5.7236-23.611-5.7238-7.4919 0.00018-15.089 0.81262-22.742 2.5042-7.653 1.6918-15.323 4.2098-22.895 7.5125v-34.138c9.1835-2.5776 18.319-4.4347 27.341-5.7238 9.0223-1.2887 17.977-1.9418 26.677-1.942 23.442 0.00017 40.885 3.8676 52.485 11.601 11.681 7.6531 17.58 19.234 17.58 34.7-0.00014 10.553-2.7718 19.195-8.3302 25.961-5.5585 6.6864-13.86 11.366-24.735 14.105 12.164 3.1418 21.467 8.693 27.75 16.507 3.2439 3.9421 5.6252 8.4511 7.2058 13.492 12.942 23.184 25.89 46.375 38.84 69.554l8.2791-2.2486v-254.15h-394.64zm106.45 70.474c21.589 0.00017 38.314 4.7017 50.237 14.207 12.003 9.5059 18.04 22.814 18.04 39.811-0.00017 9.8281-2.5908 19.058-7.6658 27.597-5.0752 8.4586-15.72 19.727-31.992 33.985l-38.533 33.883h79.418v34.189h-131.09v-34.189l65.824-58.107c5.8806-5.3167 10.212-10.563 13.032-15.638 2.8194-5.075 4.2416-10.262 4.2417-15.74-0.00012-8.4584-2.8662-15.337-8.5857-20.493-5.6391-5.1555-13.163-7.7167-22.589-7.7169-7.2502 0.00018-15.195 1.5601-23.815 4.7017-8.6196 3.0614-17.82 7.6762-27.648 13.798v-39.607c10.472-3.4638 20.841-6.1488 31.072-7.9213 10.231-1.8526 20.222-2.7595 30.05-2.7597zm231.67 118.98-248.53 138.7h28.772l258.54-69.248-38.789-69.452z" fill="#fff"/>
</svg>
