<?xml version="1.0" encoding="UTF-8" standalone="no"?>
<!-- Created with Inkscape (http://www.inkscape.org/) -->

<svg
   xmlns:dc="http://purl.org/dc/elements/1.1/"
   xmlns:cc="http://creativecommons.org/ns#"
   xmlns:rdf="http://www.w3.org/1999/02/22-rdf-syntax-ns#"
   xmlns:svg="http://www.w3.org/2000/svg"
   xmlns="http://www.w3.org/2000/svg"
   xmlns:sodipodi="http://sodipodi.sourceforge.net/DTD/sodipodi-0.dtd"
   xmlns:inkscape="http://www.inkscape.org/namespaces/inkscape"
   version="1.1"
   width="100%"
   height="100%"
   viewBox="0 0 512 512"
   id="svg2"
   inkscape:version="0.91+devel r13804 custom"
   sodipodi:docname="googleplus.svg">
  <sodipodi:namedview
     pagecolor="#ffffff"
     bordercolor="#666666"
     borderopacity="1"
     objecttolerance="10"
     gridtolerance="10"
     guidetolerance="10"
     inkscape:pageopacity="0"
     inkscape:pageshadow="2"
     inkscape:window-width="1366"
     inkscape:window-height="709"
     id="namedview83"
     showgrid="false"
     inkscape:zoom="0.4609375"
     inkscape:cx="366.64407"
     inkscape:cy="144.27119"
     inkscape:window-x="-2"
     inkscape:window-y="-3"
     inkscape:window-maximized="1"
     inkscape:current-layer="svg2" />
  <metadata
     id="metadata10">
    <rdf:RDF>
      <cc:Work
         rdf:about="">
        <dc:format>image/svg+xml</dc:format>
        <dc:type
           rdf:resource="http://purl.org/dc/dcmitype/StillImage" />
        <dc:title></dc:title>
      </cc:Work>
    </rdf:RDF>
  </metadata>
  <defs
     id="defs8" />
  <text
     x="-351.68549"
     y="91.57193"
     id="text20"
     style="font-size:129.22999573px;line-height:125%;letter-spacing:0;word-spacing:0;font-family:Gentium Book Basic">
    <tspan
       x="-351.68549"
       y="91.57193"
       id="tspan22" />
  </text>
  <text
     x="109.44035"
     y="18.313808"
     transform="scale(4.0128205,0.24920128)"
     id="text24"
     style="font-size:46.95375824px;text-anchor:middle;font-family:Arial" />
  <text
     x="229.58453"
     y="11.57193"
     id="text26"
     style="font-size:129.22999573px;line-height:125%;letter-spacing:0;word-spacing:0;font-family:Gentium Book Basic">
    <tspan
       x="229.58453"
       y="11.57193"
       id="tspan28" />
  </text>
  <text
     x="254.28963"
     y="-302.72433"
     transform="scale(4.0128205,0.24920128)"
     id="text30"
     style="font-size:46.95375824px;text-anchor:middle;font-family:Arial" />
  <text
     x="-841.99548"
     y="-169.68805"
     id="text32"
     style="font-size:129.22999573px;line-height:125%;letter-spacing:0;word-spacing:0;font-family:Gentium Book Basic">
    <tspan
       x="-841.99548"
       y="-169.68805"
       id="tspan34" />
  </text>
  <text
     x="-12.749008"
     y="-1030.0707"
     transform="scale(4.0128205,0.24920128)"
     id="text36"
     style="font-size:46.95375824px;text-anchor:middle;font-family:Arial" />
  <text
     x="256.0545"
     y="-386.15805"
     id="text38"
     style="font-size:129.22999573px;line-height:125%;letter-spacing:0;word-spacing:0;font-family:Gentium Book Basic">
    <tspan
       x="256.0545"
       y="-386.15805"
       id="tspan40" />
  </text>
  <text
     x="260.88962"
     y="-1898.7463"
     transform="scale(4.0128205,0.24920128)"
     id="text42"
     style="font-size:46.95375824px;text-anchor:middle;font-family:Arial" />
  <text
     x="837.32452"
     y="-466.15802"
     id="text44"
     style="font-size:129.22999573px;line-height:125%;letter-spacing:0;word-spacing:0;font-family:Gentium Book Basic">
    <tspan
       x="837.32452"
       y="-466.15802"
       id="tspan46" />
  </text>
  <text
     x="405.73886"
     y="-2219.7747"
     transform="scale(4.0128205,0.24920128)"
     id="text48"
     style="font-size:46.95375824px;text-anchor:middle;font-family:Arial" />
  <text
     x="448.20453"
     y="-938.55804"
     id="text50"
     style="font-size:129.22999573px;line-height:125%;letter-spacing:0;word-spacing:0;font-family:Gentium Book Basic">
    <tspan
       x="448.20453"
       y="-938.55804"
       id="tspan52" />
  </text>
  <text
     x="308.76932"
     y="-4115.4248"
     transform="scale(4.0128205,0.24920128)"
     id="text54"
     style="font-size:46.95375824px;text-anchor:middle;font-family:Arial" />
  <text
     x="1029.4646"
     y="-1018.5681"
     id="text56"
     style="font-size:129.22999573px;line-height:125%;letter-spacing:0;word-spacing:0;font-family:Gentium Book Basic">
    <tspan
       x="1029.4646"
       y="-1018.5681"
       id="tspan58" />
  </text>
  <text
     x="453.61862"
     y="-4436.4634"
     transform="scale(4.0128205,0.24920128)"
     id="text60"
     style="font-size:46.95375824px;text-anchor:middle;font-family:Arial" />
  <text
     x="-803.33551"
     y="396.15204"
     id="text62"
     style="font-size:208.33000183px;line-height:125%;letter-spacing:0;word-spacing:0;font-family:Gentium Book Basic">
    <tspan
       x="-803.33551"
       y="396.15204"
       id="tspan64" />
  </text>
  <text
     sodipodi:linespacing="125%"
     x="-100.09924"
     y="149.14371"
     id="text20-2"
     style="font-size:129.22999573px;line-height:125%;font-family:'Gentium Book Basic';letter-spacing:0;word-spacing:0">
    <tspan
       x="-100.09924"
       y="149.14371"
       id="tspan22-9" />
  </text>
  <text
     x="172.13597"
     y="249.33902"
     transform="scale(4.0128205,0.24920128)"
     id="text24-1"
     style="font-size:46.95375824px;font-family:Arial;text-anchor:middle" />
  <text
     sodipodi:linespacing="125%"
     x="481.17078"
     y="69.143707"
     id="text26-2"
     style="font-size:129.22999573px;line-height:125%;font-family:'Gentium Book Basic';letter-spacing:0;word-spacing:0">
    <tspan
       x="481.17078"
       y="69.143707"
       id="tspan28-7" />
  </text>
  <text
     x="316.98523"
     y="-71.69912"
     transform="scale(4.0128205,0.24920128)"
     id="text30-0"
     style="font-size:46.95375824px;font-family:Arial;text-anchor:middle" />
  <text
     sodipodi:linespacing="125%"
     x="-590.40924"
     y="-112.11627"
     id="text32-5"
     style="font-size:129.22999573px;line-height:125%;font-family:'Gentium Book Basic';letter-spacing:0;word-spacing:0">
    <tspan
       x="-590.40924"
       y="-112.11627"
       id="tspan34-9" />
  </text>
  <text
     x="49.946606"
     y="-799.04547"
     transform="scale(4.0128205,0.24920128)"
     id="text36-4"
     style="font-size:46.95375824px;font-family:Arial;text-anchor:middle" />
  <text
     sodipodi:linespacing="125%"
     x="507.64075"
     y="-328.58627"
     id="text38-5"
     style="font-size:129.22999573px;line-height:125%;font-family:'Gentium Book Basic';letter-spacing:0;word-spacing:0">
    <tspan
       x="507.64075"
       y="-328.58627"
       id="tspan40-1" />
  </text>
  <text
     x="323.58521"
     y="-1667.7211"
     transform="scale(4.0128205,0.24920128)"
     id="text42-0"
     style="font-size:46.95375824px;font-family:Arial;text-anchor:middle" />
  <text
     sodipodi:linespacing="125%"
     x="1088.9108"
     y="-408.58624"
     id="text44-6"
     style="font-size:129.22999573px;line-height:125%;font-family:'Gentium Book Basic';letter-spacing:0;word-spacing:0">
    <tspan
       x="1088.9108"
       y="-408.58624"
       id="tspan46-1" />
  </text>
  <text
     x="468.43445"
     y="-1988.7494"
     transform="scale(4.0128205,0.24920128)"
     id="text48-6"
     style="font-size:46.95375824px;font-family:Arial;text-anchor:middle" />
  <text
     sodipodi:linespacing="125%"
     x="699.79077"
     y="-880.98627"
     id="text50-9"
     style="font-size:129.22999573px;line-height:125%;font-family:'Gentium Book Basic';letter-spacing:0;word-spacing:0">
    <tspan
       x="699.79077"
       y="-880.98627"
       id="tspan52-2" />
  </text>
  <text
     x="371.4649"
     y="-3884.3999"
     transform="scale(4.0128205,0.24920128)"
     id="text54-6"
     style="font-size:46.95375824px;font-family:Arial;text-anchor:middle" />
  <text
     sodipodi:linespacing="125%"
     x="1281.0508"
     y="-960.99628"
     id="text56-5"
     style="font-size:129.22999573px;line-height:125%;font-family:'Gentium Book Basic';letter-spacing:0;word-spacing:0">
    <tspan
       x="1281.0508"
       y="-960.99628"
       id="tspan58-1" />
  </text>
  <text
     x="516.31421"
     y="-4205.438"
     transform="scale(4.0128205,0.24920128)"
     id="text60-5"
     style="font-size:46.95375824px;font-family:Arial;text-anchor:middle" />
  <text
     sodipodi:linespacing="125%"
     x="-551.74927"
     y="453.72382"
     id="text62-6"
     style="font-size:208.33000183px;line-height:125%;font-family:'Gentium Book Basic';letter-spacing:0;word-spacing:0">
    <tspan
       x="-551.74927"
       y="453.72382"
       id="tspan64-2" />
  </text>
  <path
     d="M 26,0 C 11.602648,0 0,11.602648 0,26 l 0,460 c 0,14.39735 11.602648,26 26,26 l 460,0 c 14.39735,0 26,-11.60265 26,-26 L 512,26 C 512,11.602648 500.39735,0 486,0 L 26,0 Z"
     inkscape:connector-curvature="0"
     id="rect2986"
     style="fill:#dd4b38;fill-opacity:1;stroke:none" />
  <text
     sodipodi:linespacing="125%"
     x="-406.91168"
     y="156.00256"
     id="text20-4"
     style="font-size:129.22999573px;line-height:125%;font-family:'Gentium Book Basic';letter-spacing:0;word-spacing:0">
    <tspan
       x="-406.91168"
       y="156.00256"
       id="tspan22-90" />
  </text>
  <text
     x="95.677933"
     y="276.8512"
     transform="scale(4.0128205,0.24920128)"
     id="text24-0"
     style="font-size:46.95375824px;font-family:Arial;text-anchor:middle" />
  <text
     sodipodi:linespacing="125%"
     x="174.35834"
     y="76.002571"
     id="text26-9"
     style="font-size:129.22999573px;line-height:125%;font-family:'Gentium Book Basic';letter-spacing:0;word-spacing:0">
    <tspan
       x="174.35834"
       y="76.002571"
       id="tspan28-2" />
  </text>
  <text
     x="240.52719"
     y="-44.17717"
     transform="scale(4.0128205,0.24920128)"
     id="text30-9"
     style="font-size:46.95375824px;font-family:Arial;text-anchor:middle" />
  <text
     sodipodi:linespacing="125%"
     x="-897.22168"
     y="-105.25843"
     id="text32-0"
     style="font-size:129.22999573px;line-height:125%;font-family:'Gentium Book Basic';letter-spacing:0;word-spacing:0">
    <tspan
       x="-897.22168"
       y="-105.25843"
       id="tspan34-7" />
  </text>
  <text
     x="-26.511448"
     y="-771.53345"
     transform="scale(4.0128205,0.24920128)"
     id="text36-8"
     style="font-size:46.95375824px;font-family:Arial;text-anchor:middle" />
  <text
     sodipodi:linespacing="125%"
     x="200.82831"
     y="-321.72742"
     id="text38-2"
     style="font-size:129.22999573px;line-height:125%;font-family:'Gentium Book Basic';letter-spacing:0;word-spacing:0">
    <tspan
       x="200.82831"
       y="-321.72742"
       id="tspan40-2" />
  </text>
  <text
     x="247.12714"
     y="-1640.1991"
     transform="scale(4.0128205,0.24920128)"
     id="text42-9"
     style="font-size:46.95375824px;font-family:Arial;text-anchor:middle" />
  <text
     sodipodi:linespacing="125%"
     x="782.09833"
     y="-401.73743"
     id="text44-69"
     style="font-size:129.22999573px;line-height:125%;font-family:'Gentium Book Basic';letter-spacing:0;word-spacing:0">
    <tspan
       x="782.09833"
       y="-401.73743"
       id="tspan46-0" />
  </text>
  <text
     x="391.97644"
     y="-1961.2373"
     transform="scale(4.0128205,0.24920128)"
     id="text48-8"
     style="font-size:46.95375824px;font-family:Arial;text-anchor:middle" />
  <text
     sodipodi:linespacing="125%"
     x="392.97833"
     y="-874.13745"
     id="text50-5"
     style="font-size:129.22999573px;line-height:125%;font-family:'Gentium Book Basic';letter-spacing:0;word-spacing:0">
    <tspan
       x="392.97833"
       y="-874.13745"
       id="tspan52-4" />
  </text>
  <text
     x="295.0069"
     y="-3856.8877"
     transform="scale(4.0128205,0.24920128)"
     id="text54-5"
     style="font-size:46.95375824px;font-family:Arial;text-anchor:middle" />
  <text
     sodipodi:linespacing="125%"
     x="974.23834"
     y="-954.13745"
     id="text56-6"
     style="font-size:129.22999573px;line-height:125%;font-family:'Gentium Book Basic';letter-spacing:0;word-spacing:0">
    <tspan
       x="974.23834"
       y="-954.13745"
       id="tspan58-6" />
  </text>
  <text
     x="439.8562"
     y="-4177.916"
     transform="scale(4.0128205,0.24920128)"
     id="text60-3"
     style="font-size:46.95375824px;font-family:Arial;text-anchor:middle" />
  <text
     sodipodi:linespacing="125%"
     x="-858.56171"
     y="460.58258"
     id="text62-3"
     style="font-size:208.33000183px;line-height:125%;font-family:'Gentium Book Basic';letter-spacing:0;word-spacing:0">
    <tspan
       x="-858.56171"
       y="460.58258"
       id="tspan64-0" />
  </text>
  <path
     style="fill:#000000;opacity:0.25"
     d="M 183.38281 61.794922 C 178.78672 61.793622 168.0019 62.049176 155.14062 64.384766 C 124.74429 69.88324 82.715861 89.948881 70.832031 131.74609 C 58.753859 174.20043 75.034703 199.84135 87.634766 212.44141 L 166.50391 291.31055 C 145.23535 292.12973 91.546244 297.24842 62.900391 327.65625 C 26.677991 366.10803 46.3125 401.49219 46.3125 401.49219 C 46.3125 401.49219 49.457724 409.1589 58.708984 418.41016 L 152.29883 512 L 486 512 C 500.39735 512 512 500.39735 512 486 L 512 275.07227 L 398.01953 161.0918 L 393.8418 161.0918 L 294.83594 62.085938 L 185.75977 61.800781 L 183.38867 61.800781 L 183.38281 61.794922 z "
     id="path3133" />
  <path
     d="m 183.38199,61.795171 c -4.59609,-0.0013 -15.37942,0.253756 -28.24069,2.589346 -30.39633,5.498474 -72.425285,25.564606 -84.309115,67.361823 -18.3908,64.643 28.96833,90.30342 28.96833,90.30342 0,0 16.576985,9.73982 23.420625,11.65205 20.5853,5.74576 42.4821,3.07485 42.4821,3.07485 0,0 -8.7261,28.93594 8.77917,49.36587 4.1792,4.87574 1.13284,5.01686 1.13284,5.01686 0,0 -76.489255,-1.95625 -112.714165,36.49682 -36.2224,38.45178 -16.5887,73.83518 -16.5887,73.83518 0,0 18.9877,46.29232 100.904215,48.63179 82.27645,2.34725 133.15709,-46.39848 137.59782,-83.18272 2.2359,-18.48922 -0.28354,-35.78863 -9.54821,-50.93242 -9.00834,-14.73337 -24.49651,-27.40822 -39.60922,-39.77105 -9.39026,-7.68259 -15.93872,-11.64429 -20.14899,-16.06171 -3.97594,-4.17273 -4.63234,-9.56116 -4.49122,-13.59406 0.20715,-5.63183 3.14994,-12.51172 13.02441,-23.95145 18.01796,-20.87012 22.61404,-18.28078 33.49965,-33.90748 3.26128,-4.68283 5.63183,-11.50834 8.98244,-21.68576 2.01969,-6.13157 1.69991,-12.49877 1.69991,-18.40896 0,-12.77712 -3.06708,-24.93539 -8.17327,-35.20215 -9.48607,-19.073115 -25.78341,-31.472195 -26.1006,-32.405654 l 28.56048,0 32.32668,-18.934588 -109.07618,-0.283533 c 0,0 -0.85318,0 -2.38737,0 M 159.9523,79.523124 c 16.63654,0.124289 41.62373,8.758461 56.60179,53.688786 25.70055,77.09776 -28.11899,88.85339 -28.11899,88.85339 0,0 -61.68986,9.49901 -73.03249,-59.06945 -11.54848,-69.848885 16.58735,-73.616382 27.59336,-80.515693 0,0 6.97052,-3.020472 16.94727,-2.953149 m 194.40805,81.564382 0,73.59438 -73.18785,0 0,43.65506 73.18785,0 0,72.57935 43.65507,0 0,-72.57935 72.99364,0 0,-43.65506 -72.9807,0 0,-73.59438 -43.65507,0 M 194.03197,306.70323 c 0,0 49.11082,30.08819 53.72891,52.14941 5.17352,24.71531 5.48812,42.71255 -32.00301,62.42912 -11.06816,5.82085 -30.49084,6.49926 -42.7242,6.55493 -30.0623,0.12429 -52.74237,-11.43455 -63.96978,-17.23598 -5.8325,-3.01659 -38.225205,-39.39559 -14.241395,-71.93201 6.033175,-8.18492 12.682615,-11.8113 18.894455,-15.98144 13.21861,-8.87498 26.19123,-13.03736 50.66054,-15.17227 8.13702,-0.71078 19.00968,-0.0906 29.65577,-0.80917"
     inkscape:connector-curvature="0"
     id="path66"
     style="fill:#ffffff" />
</svg>
