<?xml version="1.0" encoding="UTF-8" standalone="no"?>
<!-- Created with Inkscape (http://www.inkscape.org/) -->
<svg id="svg2" xmlns:rdf="http://www.w3.org/1999/02/22-rdf-syntax-ns#" xmlns="http://www.w3.org/2000/svg" height="100%" width="100%" version="1.1" xmlns:cc="http://creativecommons.org/ns#" xmlns:xlink="http://www.w3.org/1999/xlink" viewBox="0 0 512 512" xmlns:dc="http://purl.org/dc/elements/1.1/">
 <metadata id="metadata75">
  <rdf:RDF>
   <cc:Work rdf:about="">
    <dc:format>image/svg+xml</dc:format>
    <dc:type rdf:resource="http://purl.org/dc/dcmitype/StillImage"/>
    <dc:title/>
   </cc:Work>
  </rdf:RDF>
 </metadata>
 <defs id="defs4">
  <linearGradient id="ButtonShadow-5" x1="45.448" gradientUnits="userSpaceOnUse" y1="92.54" gradientTransform="scale(1.0059 .99417)" x2="45.448" y2="7.0165">
   <stop id="stop3750-0" offset="0"/>
   <stop id="stop3752-8" stop-opacity=".58824" offset="1"/>
  </linearGradient>
  <filter id="filter3174-8" color-interpolation-filters="sRGB">
   <feGaussianBlur id="feGaussianBlur3176-5" stdDeviation="1.71"/>
  </filter>
  <linearGradient id="linearGradient3737">
   <stop id="stop3739" stop-color="#fff" offset="0"/>
   <stop id="stop3741" stop-color="#fff" stop-opacity="0" offset="1"/>
  </linearGradient>
  <filter id="filter3174" color-interpolation-filters="sRGB">
   <feGaussianBlur id="feGaussianBlur3176" stdDeviation="1.71"/>
  </filter>
  <filter id="filter3794" height="1.384" width="1.384" color-interpolation-filters="sRGB" y="-.192" x="-.192">
   <feGaussianBlur id="feGaussianBlur3796" stdDeviation="5.28"/>
  </filter>
  <linearGradient id="linearGradient3613" x1="48" xlink:href="#linearGradient3737" gradientUnits="userSpaceOnUse" y1="20.221" x2="48" y2="138.66"/>
  <clipPath id="clipPath3613">
   <rect id="rect3615" rx="6" ry="6" height="84" width="84" y="6" x="6" fill="#fff"/>
  </clipPath>
  <filter id="filter3174-3" color-interpolation-filters="sRGB">
   <feGaussianBlur id="feGaussianBlur3176-2" stdDeviation="1.71"/>
  </filter>
  <filter id="filter3794-0" height="1.384" width="1.384" color-interpolation-filters="sRGB" y="-.192" x="-.192">
   <feGaussianBlur id="feGaussianBlur3796-3" stdDeviation="5.28"/>
  </filter>
  <clipPath id="clipPath3613-1">
   <rect id="rect3615-9" rx="6" ry="6" height="84" width="84" y="6" x="6" fill="#fff"/>
  </clipPath>
  <filter id="filter3174-8-3" color-interpolation-filters="sRGB">
   <feGaussianBlur id="feGaussianBlur3176-5-8" stdDeviation="1.71"/>
  </filter>
  <filter id="filter3174-0" color-interpolation-filters="sRGB">
   <feGaussianBlur id="feGaussianBlur3176-6" stdDeviation="1.71"/>
  </filter>
  <filter id="filter3794-9" height="1.384" width="1.384" color-interpolation-filters="sRGB" y="-.192" x="-.192">
   <feGaussianBlur id="feGaussianBlur3796-2" stdDeviation="5.28"/>
  </filter>
  <clipPath id="clipPath3613-2">
   <rect id="rect3615-3" rx="6" ry="6" height="84" width="84" y="6" x="6" fill="#fff"/>
  </clipPath>
  <filter id="filter3174-35" color-interpolation-filters="sRGB">
   <feGaussianBlur id="feGaussianBlur3176-3" stdDeviation="1.71"/>
  </filter>
  <filter id="filter3794-91" height="1.384" width="1.384" color-interpolation-filters="sRGB" y="-.192" x="-.192">
   <feGaussianBlur id="feGaussianBlur3796-7" stdDeviation="5.28"/>
  </filter>
  <clipPath id="clipPath3613-8">
   <rect id="rect3615-8" rx="6" ry="6" height="84" width="84" y="6" x="6" fill="#fff"/>
  </clipPath>
  <filter id="filter3174-4" color-interpolation-filters="sRGB">
   <feGaussianBlur id="feGaussianBlur3176-37" stdDeviation="1.71"/>
  </filter>
  <filter id="filter3794-4" height="1.384" width="1.384" color-interpolation-filters="sRGB" y="-.192" x="-.192">
   <feGaussianBlur id="feGaussianBlur3796-9" stdDeviation="5.28"/>
  </filter>
  <clipPath id="clipPath3613-9">
   <rect id="rect3615-1" rx="6" ry="6" height="84" width="84" y="6" x="6" fill="#fff"/>
  </clipPath>
  <style id="style5970" type="text/css"/>
  <style id="style5970-0" type="text/css"/>
  <style id="style5970-7" type="text/css"/>
  <linearGradient id="linearGradient7062" y2="7.0165" xlink:href="#ButtonShadow-5" gradientUnits="userSpaceOnUse" x2="45.448" gradientTransform="scale(1.0059 .99417)" y1="92.54" x1="45.448"/>
  <filter id="filter3174-8-0" color-interpolation-filters="sRGB">
   <feGaussianBlur id="feGaussianBlur3176-5-0" stdDeviation="1.71"/>
  </filter>
  <filter id="filter3174-83" color-interpolation-filters="sRGB">
   <feGaussianBlur id="feGaussianBlur3176-32" stdDeviation="1.71"/>
  </filter>
  <filter id="filter3794-42" height="1.384" width="1.384" color-interpolation-filters="sRGB" y="-.192" x="-.192">
   <feGaussianBlur id="feGaussianBlur3796-4" stdDeviation="5.28"/>
  </filter>
  <clipPath id="clipPath3613-89">
   <rect id="rect3615-13" rx="6" ry="6" height="84" width="84" y="6" x="6" fill="#fff"/>
  </clipPath>
  <filter id="filter3174-3-1" color-interpolation-filters="sRGB">
   <feGaussianBlur id="feGaussianBlur3176-2-9" stdDeviation="1.71"/>
  </filter>
  <filter id="filter3794-0-4" height="1.384" width="1.384" color-interpolation-filters="sRGB" y="-.192" x="-.192">
   <feGaussianBlur id="feGaussianBlur3796-3-8" stdDeviation="5.28"/>
  </filter>
  <clipPath id="clipPath3613-1-4">
   <rect id="rect3615-9-6" rx="6" ry="6" height="84" width="84" y="6" x="6" fill="#fff"/>
  </clipPath>
  <filter id="filter3174-8-3-9" color-interpolation-filters="sRGB">
   <feGaussianBlur id="feGaussianBlur3176-5-8-2" stdDeviation="1.71"/>
  </filter>
  <filter id="filter3174-0-1" color-interpolation-filters="sRGB">
   <feGaussianBlur id="feGaussianBlur3176-6-2" stdDeviation="1.71"/>
  </filter>
  <filter id="filter3794-9-0" height="1.384" width="1.384" color-interpolation-filters="sRGB" y="-.192" x="-.192">
   <feGaussianBlur id="feGaussianBlur3796-2-2" stdDeviation="5.28"/>
  </filter>
  <clipPath id="clipPath3613-2-1">
   <rect id="rect3615-3-8" rx="6" ry="6" height="84" width="84" y="6" x="6" fill="#fff"/>
  </clipPath>
  <filter id="filter3174-35-0" color-interpolation-filters="sRGB">
   <feGaussianBlur id="feGaussianBlur3176-3-3" stdDeviation="1.71"/>
  </filter>
  <filter id="filter3794-91-1" height="1.384" width="1.384" color-interpolation-filters="sRGB" y="-.192" x="-.192">
   <feGaussianBlur id="feGaussianBlur3796-7-4" stdDeviation="5.28"/>
  </filter>
  <clipPath id="clipPath3613-8-0">
   <rect id="rect3615-8-0" rx="6" ry="6" height="84" width="84" y="6" x="6" fill="#fff"/>
  </clipPath>
  <filter id="filter3174-4-2" color-interpolation-filters="sRGB">
   <feGaussianBlur id="feGaussianBlur3176-37-6" stdDeviation="1.71"/>
  </filter>
  <filter id="filter3794-4-3" height="1.384" width="1.384" color-interpolation-filters="sRGB" y="-.192" x="-.192">
   <feGaussianBlur id="feGaussianBlur3796-9-4" stdDeviation="5.28"/>
  </filter>
  <clipPath id="clipPath3613-9-2">
   <rect id="rect3615-1-5" rx="6" ry="6" height="84" width="84" y="6" x="6" fill="#fff"/>
  </clipPath>
  <style id="style5970-1" type="text/css"/>
  <style id="style5970-0-0" type="text/css"/>
  <style id="style5970-7-6" type="text/css"/>
  <filter id="filter3174-8-5" color-interpolation-filters="sRGB">
   <feGaussianBlur id="feGaussianBlur3176-5-7" stdDeviation="1.71"/>
  </filter>
  <filter id="filter3174-04" color-interpolation-filters="sRGB">
   <feGaussianBlur id="feGaussianBlur3176-0" stdDeviation="1.71"/>
  </filter>
  <filter id="filter3794-8" height="1.384" width="1.384" color-interpolation-filters="sRGB" y="-.192" x="-.192">
   <feGaussianBlur id="feGaussianBlur3796-38" stdDeviation="5.28"/>
  </filter>
  <clipPath id="clipPath3613-95">
   <rect id="rect3615-0" rx="6" ry="6" height="84" width="84" y="6" x="6" fill="#fff"/>
  </clipPath>
  <filter id="filter3174-3-5" color-interpolation-filters="sRGB">
   <feGaussianBlur id="feGaussianBlur3176-2-1" stdDeviation="1.71"/>
  </filter>
  <filter id="filter3794-0-6" height="1.384" width="1.384" color-interpolation-filters="sRGB" y="-.192" x="-.192">
   <feGaussianBlur id="feGaussianBlur3796-3-83" stdDeviation="5.28"/>
  </filter>
  <clipPath id="clipPath3613-1-3">
   <rect id="rect3615-9-7" rx="6" ry="6" height="84" width="84" y="6" x="6" fill="#fff"/>
  </clipPath>
  <filter id="filter3174-8-3-1" color-interpolation-filters="sRGB">
   <feGaussianBlur id="feGaussianBlur3176-5-8-5" stdDeviation="1.71"/>
  </filter>
  <filter id="filter3174-0-3" color-interpolation-filters="sRGB">
   <feGaussianBlur id="feGaussianBlur3176-6-3" stdDeviation="1.71"/>
  </filter>
  <filter id="filter3794-9-5" height="1.384" width="1.384" color-interpolation-filters="sRGB" y="-.192" x="-.192">
   <feGaussianBlur id="feGaussianBlur3796-2-24" stdDeviation="5.28"/>
  </filter>
  <clipPath id="clipPath3613-2-2">
   <rect id="rect3615-3-1" rx="6" ry="6" height="84" width="84" y="6" x="6" fill="#fff"/>
  </clipPath>
  <filter id="filter3174-35-9" color-interpolation-filters="sRGB">
   <feGaussianBlur id="feGaussianBlur3176-3-0" stdDeviation="1.71"/>
  </filter>
  <filter id="filter3794-91-5" height="1.384" width="1.384" color-interpolation-filters="sRGB" y="-.192" x="-.192">
   <feGaussianBlur id="feGaussianBlur3796-7-7" stdDeviation="5.28"/>
  </filter>
  <clipPath id="clipPath3613-8-09">
   <rect id="rect3615-8-1" rx="6" ry="6" height="84" width="84" y="6" x="6" fill="#fff"/>
  </clipPath>
  <filter id="filter3174-4-5" color-interpolation-filters="sRGB">
   <feGaussianBlur id="feGaussianBlur3176-37-7" stdDeviation="1.71"/>
  </filter>
  <filter id="filter3794-4-2" height="1.384" width="1.384" color-interpolation-filters="sRGB" y="-.192" x="-.192">
   <feGaussianBlur id="feGaussianBlur3796-9-1" stdDeviation="5.28"/>
  </filter>
  <clipPath id="clipPath3613-9-7">
   <rect id="rect3615-1-4" rx="6" ry="6" height="84" width="84" y="6" x="6" fill="#fff"/>
  </clipPath>
  <style id="style5970-5" type="text/css"/>
  <style id="style5970-0-6" type="text/css"/>
  <style id="style5970-7-8" type="text/css"/>
  <filter id="filter3174-9" color-interpolation-filters="sRGB">
   <feGaussianBlur id="feGaussianBlur3176-7" stdDeviation="1.71"/>
  </filter>
  <linearGradient id="linearGradient3287" x1="-34.4" xlink:href="#ButtonShadow-5" gradientUnits="userSpaceOnUse" y1="92.083" gradientTransform="translate(100)" x2="-34.4" y2="7"/>
  <filter id="filter7725" color-interpolation-filters="sRGB">
   <feGaussianBlur id="feGaussianBlur7727" stdDeviation="1.71"/>
  </filter>
  <linearGradient id="linearGradient3390" x1="36.357" xlink:href="#linearGradient3737" gradientUnits="userSpaceOnUse" y1="6" gradientTransform="matrix(3.1178 0 0 3.1178 -1834.7 -105.38)" x2="36.357" y2="63.893"/>
  <linearGradient id="linearGradient3393" x1="48" gradientUnits="userSpaceOnUse" y1="90" gradientTransform="matrix(3.1178 0 0 3.1178 -1834.7 -105.38)" x2="48" y2="5.9877">
   <stop id="stop3702" stop-color="#2276c5" offset="0"/>
   <stop id="stop3704" stop-color="#69a9e6" offset="1"/>
  </linearGradient>
  <filter id="filter3174-8-59" color-interpolation-filters="sRGB">
   <feGaussianBlur id="feGaussianBlur3176-5-6" stdDeviation="1.71"/>
  </filter>
  <filter id="filter3174-5" color-interpolation-filters="sRGB">
   <feGaussianBlur id="feGaussianBlur3176-06" stdDeviation="1.71"/>
  </filter>
  <filter id="filter3794-6" height="1.384" width="1.384" color-interpolation-filters="sRGB" y="-.192" x="-.192">
   <feGaussianBlur id="feGaussianBlur3796-21" stdDeviation="5.28"/>
  </filter>
  <clipPath id="clipPath3613-4">
   <rect id="rect3615-6" rx="6" ry="6" height="84" width="84" y="6" x="6" fill="#fff"/>
  </clipPath>
  <filter id="filter3174-3-57" color-interpolation-filters="sRGB">
   <feGaussianBlur id="feGaussianBlur3176-2-10" stdDeviation="1.71"/>
  </filter>
  <filter id="filter3794-0-0" height="1.384" width="1.384" color-interpolation-filters="sRGB" y="-.192" x="-.192">
   <feGaussianBlur id="feGaussianBlur3796-3-7" stdDeviation="5.28"/>
  </filter>
  <clipPath id="clipPath3613-1-9">
   <rect id="rect3615-9-4" rx="6" ry="6" height="84" width="84" y="6" x="6" fill="#fff"/>
  </clipPath>
  <filter id="filter3174-8-3-92" color-interpolation-filters="sRGB">
   <feGaussianBlur id="feGaussianBlur3176-5-8-6" stdDeviation="1.71"/>
  </filter>
  <filter id="filter3174-0-5" color-interpolation-filters="sRGB">
   <feGaussianBlur id="feGaussianBlur3176-6-21" stdDeviation="1.71"/>
  </filter>
  <filter id="filter3794-9-2" height="1.384" width="1.384" color-interpolation-filters="sRGB" y="-.192" x="-.192">
   <feGaussianBlur id="feGaussianBlur3796-2-7" stdDeviation="5.28"/>
  </filter>
  <clipPath id="clipPath3613-2-16">
   <rect id="rect3615-3-5" rx="6" ry="6" height="84" width="84" y="6" x="6" fill="#fff"/>
  </clipPath>
  <filter id="filter3174-35-2" color-interpolation-filters="sRGB">
   <feGaussianBlur id="feGaussianBlur3176-3-31" stdDeviation="1.71"/>
  </filter>
  <filter id="filter3794-91-2" height="1.384" width="1.384" color-interpolation-filters="sRGB" y="-.192" x="-.192">
   <feGaussianBlur id="feGaussianBlur3796-7-1" stdDeviation="5.28"/>
  </filter>
  <clipPath id="clipPath3613-8-7">
   <rect id="rect3615-8-2" rx="6" ry="6" height="84" width="84" y="6" x="6" fill="#fff"/>
  </clipPath>
  <filter id="filter3174-4-3" color-interpolation-filters="sRGB">
   <feGaussianBlur id="feGaussianBlur3176-37-5" stdDeviation="1.71"/>
  </filter>
  <filter id="filter3794-4-7" height="1.384" width="1.384" color-interpolation-filters="sRGB" y="-.192" x="-.192">
   <feGaussianBlur id="feGaussianBlur3796-9-18" stdDeviation="5.28"/>
  </filter>
  <clipPath id="clipPath3613-9-3">
   <rect id="rect3615-1-53" rx="6" ry="6" height="84" width="84" y="6" x="6" fill="#fff"/>
  </clipPath>
  <style id="style5970-59" type="text/css"/>
  <style id="style5970-0-2" type="text/css"/>
  <style id="style5970-7-7" type="text/css"/>
 </defs>
 <g id="layer2" display="none" transform="matrix(13.4 0 0 13.4 -1705.8 -834.03)">
  <rect id="rect3745" opacity=".9" rx="6" ry="6" height="85" filter="url(#filter3174)" width="86" y="7" x="5" fill="url(#linearGradient7062)"/>
 </g>
 <g id="layer5" display="none" transform="matrix(13.4 0 0 13.4 -1705.8 -834.03)">
  <rect id="rect3171" height="66" stroke="#fff" stroke-linecap="round" stroke-width=".5" fill="url(#linearGradient3613)" rx="12" ry="12" width="66" opacity=".1" clip-path="url(#clipPath3613)" filter="url(#filter3794)" y="15" x="15"/>
 </g>
 <g id="layer2-5" display="none" transform="translate(-118.36 -21.072)">
  <rect id="rect3745-0" opacity=".9" rx="6" ry="6" height="85" filter="url(#filter3174-8)" width="86" y="7" x="5" fill="url(#linearGradient7062)"/>
 </g>
 <g id="layer2-8" display="none" transform="matrix(13.4 0 0 13.4 -1708.9 -839.43)">
  <rect id="rect3745-3" opacity=".9" rx="6" ry="6" height="85" filter="url(#filter3174-3)" width="86" y="7" x="5" fill="url(#linearGradient7062)"/>
 </g>
 <g id="layer5-5" display="none" transform="matrix(13.4 0 0 13.4 -1708.9 -839.43)">
  <rect id="rect3171-2" height="66" stroke="#fff" stroke-linecap="round" stroke-width=".5" fill="url(#linearGradient3613)" rx="12" ry="12" width="66" opacity=".1" clip-path="url(#clipPath3613-1)" filter="url(#filter3794-0)" y="15" x="15"/>
 </g>
 <g id="layer2-3" display="none" transform="matrix(13.4 0 0 13.4 -1693.5 -882.16)">
  <rect id="rect3745-6" opacity=".9" rx="6" ry="6" height="85" filter="url(#filter3174-0)" width="86" y="7" x="5" fill="url(#linearGradient7062)"/>
 </g>
 <g id="layer5-3" display="none" transform="matrix(13.4 0 0 13.4 -1693.5 -882.16)">
  <rect id="rect3171-7" height="66" stroke="#fff" stroke-linecap="round" stroke-width=".5" fill="url(#linearGradient3613)" rx="12" ry="12" width="66" opacity=".1" clip-path="url(#clipPath3613-2)" filter="url(#filter3794-9)" y="15" x="15"/>
 </g>
 <g id="layer2-5-4" display="none" transform="translate(-106.08 -69.206)">
  <rect id="rect3745-0-9" opacity=".9" rx="6" ry="6" height="85" filter="url(#filter3174-8-3)" width="86" y="7" x="5" fill="url(#linearGradient7062)"/>
 </g>
 <g id="layer2-33" display="none" transform="matrix(13.4 0 0 13.4 -1500.2 -968.07)">
  <rect id="rect3745-1" opacity=".9" rx="6" ry="6" height="85" filter="url(#filter3174-35)" width="86" y="7" x="5" fill="url(#linearGradient7062)"/>
 </g>
 <g id="layer5-6" display="none" transform="matrix(13.4 0 0 13.4 -1500.2 -968.07)">
  <rect id="rect3171-4" height="66" stroke="#fff" stroke-linecap="round" stroke-width=".5" fill="url(#linearGradient3613)" rx="12" ry="12" width="66" opacity=".1" clip-path="url(#clipPath3613-8)" filter="url(#filter3794-91)" y="15" x="15"/>
 </g>
 <g id="layer2-58" display="none" transform="matrix(13.4 0 0 13.4 -1659.8 -887.77)">
  <rect id="rect3745-7" opacity=".9" rx="6" ry="6" height="85" filter="url(#filter3174-4)" width="86" y="7" x="5" fill="url(#linearGradient7062)"/>
 </g>
 <g id="layer5-0" display="none" transform="matrix(13.4 0 0 13.4 -1659.8 -887.77)">
  <rect id="rect3171-9" height="66" stroke="#fff" stroke-linecap="round" stroke-width=".5" fill="url(#linearGradient3613)" rx="12" ry="12" width="66" opacity=".1" clip-path="url(#clipPath3613-9)" filter="url(#filter3794-4)" y="15" x="15"/>
 </g>
 <g id="layer2-0" display="none" transform="matrix(13.4 0 0 13.4 -1705.8 -834.03)">
  <rect id="rect3745-9" opacity=".9" rx="6" ry="6" height="85" filter="url(#filter3174-83)" width="86" y="7" x="5" fill="url(#linearGradient7062)"/>
 </g>
 <g id="layer5-2" display="none" transform="matrix(13.4 0 0 13.4 -1705.8 -834.03)">
  <rect id="rect3171-42" height="66" stroke="#fff" stroke-linecap="round" stroke-width=".5" fill="url(#linearGradient3613)" rx="12" ry="12" width="66" opacity=".1" clip-path="url(#clipPath3613-89)" filter="url(#filter3794-42)" y="15" x="15"/>
 </g>
 <g id="layer2-5-8" display="none" transform="translate(-118.36 -21.072)">
  <rect id="rect3745-0-1" opacity=".9" rx="6" ry="6" height="85" filter="url(#filter3174-8-0)" width="86" y="7" x="5" fill="url(#linearGradient7062)"/>
 </g>
 <g id="layer2-8-4" display="none" transform="matrix(13.4 0 0 13.4 -1708.9 -839.43)">
  <rect id="rect3745-3-6" opacity=".9" rx="6" ry="6" height="85" filter="url(#filter3174-3-1)" width="86" y="7" x="5" fill="url(#linearGradient7062)"/>
 </g>
 <g id="layer5-5-6" display="none" transform="matrix(13.4 0 0 13.4 -1708.9 -839.43)">
  <rect id="rect3171-2-2" height="66" stroke="#fff" stroke-linecap="round" stroke-width=".5" fill="url(#linearGradient3613)" rx="12" ry="12" width="66" opacity=".1" clip-path="url(#clipPath3613-1-4)" filter="url(#filter3794-0-4)" y="15" x="15"/>
 </g>
 <g id="layer2-3-6" display="none" transform="matrix(13.4 0 0 13.4 -1693.5 -882.16)">
  <rect id="rect3745-6-3" opacity=".9" rx="6" ry="6" height="85" filter="url(#filter3174-0-1)" width="86" y="7" x="5" fill="url(#linearGradient7062)"/>
 </g>
 <g id="layer5-3-8" display="none" transform="matrix(13.4 0 0 13.4 -1693.5 -882.16)">
  <rect id="rect3171-7-6" height="66" stroke="#fff" stroke-linecap="round" stroke-width=".5" fill="url(#linearGradient3613)" rx="12" ry="12" width="66" opacity=".1" clip-path="url(#clipPath3613-2-1)" filter="url(#filter3794-9-0)" y="15" x="15"/>
 </g>
 <g id="layer2-5-4-8" display="none" transform="translate(-106.08 -69.206)">
  <rect id="rect3745-0-9-1" opacity=".9" rx="6" ry="6" height="85" filter="url(#filter3174-8-3-9)" width="86" y="7" x="5" fill="url(#linearGradient7062)"/>
 </g>
 <g id="layer2-33-9" display="none" transform="matrix(13.4 0 0 13.4 -1500.2 -968.07)">
  <rect id="rect3745-1-1" opacity=".9" rx="6" ry="6" height="85" filter="url(#filter3174-35-0)" width="86" y="7" x="5" fill="url(#linearGradient7062)"/>
 </g>
 <g id="layer5-6-6" display="none" transform="matrix(13.4 0 0 13.4 -1500.2 -968.07)">
  <rect id="rect3171-4-2" height="66" stroke="#fff" stroke-linecap="round" stroke-width=".5" fill="url(#linearGradient3613)" rx="12" ry="12" width="66" opacity=".1" clip-path="url(#clipPath3613-8-0)" filter="url(#filter3794-91-1)" y="15" x="15"/>
 </g>
 <g id="layer2-58-6" display="none" transform="matrix(13.4 0 0 13.4 -1659.8 -887.77)">
  <rect id="rect3745-7-0" opacity=".9" rx="6" ry="6" height="85" filter="url(#filter3174-4-2)" width="86" y="7" x="5" fill="url(#linearGradient7062)"/>
 </g>
 <g id="layer5-0-0" display="none" transform="matrix(13.4 0 0 13.4 -1659.8 -887.77)">
  <rect id="rect3171-9-9" height="66" stroke="#fff" stroke-linecap="round" stroke-width=".5" fill="url(#linearGradient3613)" rx="12" ry="12" width="66" opacity=".1" clip-path="url(#clipPath3613-9-2)" filter="url(#filter3794-4-3)" y="15" x="15"/>
 </g>
 <g id="layer2-7" display="none" transform="matrix(13.4 0 0 13.4 -1705.8 -834.03)">
  <rect id="rect3745-97" opacity=".9" rx="6" ry="6" height="85" filter="url(#filter3174-04)" width="86" y="7" x="5" fill="url(#linearGradient7062)"/>
 </g>
 <g id="layer5-8" display="none" transform="matrix(13.4 0 0 13.4 -1705.8 -834.03)">
  <rect id="rect3171-6" height="66" stroke="#fff" stroke-linecap="round" stroke-width=".5" fill="url(#linearGradient3613)" rx="12" ry="12" width="66" opacity=".1" clip-path="url(#clipPath3613-95)" filter="url(#filter3794-8)" y="15" x="15"/>
 </g>
 <g id="layer2-5-0" display="none" transform="translate(-118.36 -21.072)">
  <rect id="rect3745-0-4" opacity=".9" rx="6" ry="6" height="85" filter="url(#filter3174-8-5)" width="86" y="7" x="5" fill="url(#linearGradient7062)"/>
 </g>
 <g id="layer2-8-3" display="none" transform="matrix(13.4 0 0 13.4 -1708.9 -839.43)">
  <rect id="rect3745-3-4" opacity=".9" rx="6" ry="6" height="85" filter="url(#filter3174-3-5)" width="86" y="7" x="5" fill="url(#linearGradient7062)"/>
 </g>
 <g id="layer5-5-0" display="none" transform="matrix(13.4 0 0 13.4 -1708.9 -839.43)">
  <rect id="rect3171-2-4" height="66" stroke="#fff" stroke-linecap="round" stroke-width=".5" fill="url(#linearGradient3613)" rx="12" ry="12" width="66" opacity=".1" clip-path="url(#clipPath3613-1-3)" filter="url(#filter3794-0-6)" y="15" x="15"/>
 </g>
 <g id="layer2-3-61" display="none" transform="matrix(13.4 0 0 13.4 -1693.5 -882.16)">
  <rect id="rect3745-6-39" opacity=".9" rx="6" ry="6" height="85" filter="url(#filter3174-0-3)" width="86" y="7" x="5" fill="url(#linearGradient7062)"/>
 </g>
 <g id="layer5-3-7" display="none" transform="matrix(13.4 0 0 13.4 -1693.5 -882.16)">
  <rect id="rect3171-7-2" height="66" stroke="#fff" stroke-linecap="round" stroke-width=".5" fill="url(#linearGradient3613)" rx="12" ry="12" width="66" opacity=".1" clip-path="url(#clipPath3613-2-2)" filter="url(#filter3794-9-5)" y="15" x="15"/>
 </g>
 <g id="layer2-5-4-2" display="none" transform="translate(-106.08 -69.206)">
  <rect id="rect3745-0-9-7" opacity=".9" rx="6" ry="6" height="85" filter="url(#filter3174-8-3-1)" width="86" y="7" x="5" fill="url(#linearGradient7062)"/>
 </g>
 <g id="layer2-33-1" display="none" transform="matrix(13.4 0 0 13.4 -1500.2 -968.07)">
  <rect id="rect3745-1-5" opacity=".9" rx="6" ry="6" height="85" filter="url(#filter3174-35-9)" width="86" y="7" x="5" fill="url(#linearGradient7062)"/>
 </g>
 <g id="layer5-6-4" display="none" transform="matrix(13.4 0 0 13.4 -1500.2 -968.07)">
  <rect id="rect3171-4-0" height="66" stroke="#fff" stroke-linecap="round" stroke-width=".5" fill="url(#linearGradient3613)" rx="12" ry="12" width="66" opacity=".1" clip-path="url(#clipPath3613-8-09)" filter="url(#filter3794-91-5)" y="15" x="15"/>
 </g>
 <g id="layer2-58-7" display="none" transform="matrix(13.4 0 0 13.4 -1659.8 -887.77)">
  <rect id="rect3745-7-7" opacity=".9" rx="6" ry="6" height="85" filter="url(#filter3174-4-5)" width="86" y="7" x="5" fill="url(#linearGradient7062)"/>
 </g>
 <g id="layer5-0-07" display="none" transform="matrix(13.4 0 0 13.4 -1659.8 -887.77)">
  <rect id="rect3171-9-2" height="66" stroke="#fff" stroke-linecap="round" stroke-width=".5" fill="url(#linearGradient3613)" rx="12" ry="12" width="66" opacity=".1" clip-path="url(#clipPath3613-9-7)" filter="url(#filter3794-4-2)" y="15" x="15"/>
 </g>
 <rect id="rect3745-35" opacity=".9" transform="matrix(4.6213 0 0 4.6213 -1249.2 -220.89)" rx="6" ry="6" height="85" filter="url(#filter3174-9)" width="86" display="none" y="7" x="5" fill="url(#linearGradient7062)"/>
 <path id="rect7705" opacity=".9" d="m11.281 7c-3.482 0-6.281 2.7531-6.281 6.156v30.688c0 2.528 1.5572 4.712 3.7812 5.656-2.224 0.944-3.7812 3.128-3.7812 5.656v30.688c0 3.403 2.799 6.156 6.281 6.156h31.438c2.218 0 4.163-1.126 5.281-2.812 1.118 1.686 3.063 2.812 5.281 2.812h31.438c3.482 0 6.281-2.753 6.281-6.156v-30.688c0-3.403-2.799-6.156-6.281-6.156h-31.438c-2.218 0-4.163 1.126-5.281 2.812-0.667-1.006-1.644-1.829-2.781-2.312 2.224-0.944 3.781-3.128 3.781-5.656v-30.688c0-3.4029-2.799-6.156-6.281-6.156h-31.438z" transform="matrix(3.1178 0 0 3.1178 -1834.7 -105.38)" display="none" filter="url(#filter7725)" fill="url(#linearGradient3287)"/>
 <rect id="rect2419" rx="18.707" ry="18.707" height="261.9" width="261.9" display="none" y="-86.668" x="-1816" fill="url(#linearGradient3393)"/>
 <path id="rect3728" opacity=".5" d="m-1797.3-86.668c-10.364 0-18.707 8.3433-18.707 18.707v6.2357 212.01 6.2357c0 1.0436 0.1289 2.0288 0.2923 3.0204 0.1518 0.92162 0.3025 1.8611 0.5846 2.7281 0.031 0.0947 0.065 0.1983 0.097 0.2923 0.3082 0.89722 0.7323 1.7069 1.1692 2.5332 0.4508 0.85275 0.984 1.67 1.5589 2.4358 0.5749 0.76585 1.1654 1.4762 1.8512 2.1435 1.3717 1.3346 2.9398 2.5396 4.6768 3.4101 0.8684 0.43529 1.788 0.76994 2.7281 1.0718-0.7988-0.31248-1.5175-0.73666-2.241-1.1692-0.023-0.0137-0.074 0.014-0.097 0-0.1-0.0602-0.1942-0.13254-0.2923-0.19487-0.3753-0.23914-0.7203-0.50981-1.0717-0.77946-0.331-0.25192-0.665-0.50232-0.9743-0.77946-0.5548-0.50332-1.0834-1.0769-1.559-1.6564-0.3354-0.40611-0.6809-0.82711-0.9743-1.2666-0.078-0.11966-0.1198-0.26773-0.1948-0.38973-0.202-0.32124-0.4061-0.63765-0.5847-0.97432-0.3149-0.60706-0.6412-1.2961-0.8768-1.9486-0.025-0.068-0.073-0.12643-0.097-0.19487-0.099-0.28668-0.1117-0.5825-0.1949-0.87689-0.095-0.33241-0.2195-0.63301-0.2923-0.97432-0.2272-1.0648-0.3897-2.1769-0.3897-3.3127v-6.2357-212.01-6.2357c0-8.6733 6.9158-15.589 15.589-15.589h6.2356 212.01 6.2357c8.6734 0 15.589 6.9158 15.589 15.589v6.2357 212.01 6.2357c0 1.1358-0.1625 2.2479-0.3897 3.3127-0.1377 0.64506-0.2756 1.2398-0.4872 1.8512-0.024 0.0684-0.073 0.12687-0.097 0.19487-0.1956 0.54169-0.4314 1.1456-0.682 1.6564-0.1297 0.25816-0.2464 0.52989-0.3897 0.77946-0.1703 0.30308-0.3953 0.58724-0.5846 0.87689-0.2935 0.43951-0.6389 0.86051-0.9744 1.2666-0.4464 0.54391-0.9451 1.0819-1.4614 1.5589-0.035 0.0318-0.062 0.0659-0.097 0.0974-0.4315 0.39147-0.8889 0.73094-1.3641 1.0718-0.3198 0.22807-0.637 0.47816-0.9743 0.68203-0.023 0.014-0.074-0.0137-0.097 0-0.7235 0.43253-1.4422 0.85671-2.241 1.1692 0.9401-0.30181 1.8597-0.63647 2.7281-1.0718 1.7369-0.87058 3.3051-2.0755 4.6768-3.4101 0.6858-0.6673 1.2763-1.3777 1.8512-2.1435 0.5749-0.76585 1.1081-1.5831 1.5589-2.4358 0.4369-0.82637 0.861-1.636 1.1692-2.5332 0.033-0.096 0.066-0.19561 0.097-0.2923 0.2821-0.86702 0.4328-1.8065 0.5846-2.7281 0.1634-0.99162 0.2923-1.9768 0.2923-3.0204v-6.2357-212.01-6.2357c0-10.364-8.3433-18.707-18.707-18.707h-224.48z" display="none" fill="url(#linearGradient3390)"/>
 <g id="layer2-83" display="none" transform="matrix(13.4 0 0 13.4 -1705.8 -834.03)">
  <rect id="rect3745-4" opacity=".9" rx="6" ry="6" height="85" filter="url(#filter3174-5)" width="86" y="7" x="5" fill="url(#linearGradient7062)"/>
 </g>
 <g id="layer5-38" display="none" transform="matrix(13.4 0 0 13.4 -1705.8 -834.03)">
  <rect id="rect3171-1" height="66" stroke="#fff" stroke-linecap="round" stroke-width=".5" fill="url(#linearGradient3613)" rx="12" ry="12" width="66" opacity=".1" clip-path="url(#clipPath3613-4)" filter="url(#filter3794-6)" y="15" x="15"/>
 </g>
 <g id="layer2-5-7" display="none" transform="translate(-118.36 -21.072)">
  <rect id="rect3745-0-48" opacity=".9" rx="6" ry="6" height="85" filter="url(#filter3174-8-59)" width="86" y="7" x="5" fill="url(#linearGradient7062)"/>
 </g>
 <g id="layer2-8-2" display="none" transform="matrix(13.4 0 0 13.4 -1708.9 -839.43)">
  <rect id="rect3745-3-8" opacity=".9" rx="6" ry="6" height="85" filter="url(#filter3174-3-57)" width="86" y="7" x="5" fill="url(#linearGradient7062)"/>
 </g>
 <g id="layer5-5-7" display="none" transform="matrix(13.4 0 0 13.4 -1708.9 -839.43)">
  <rect id="rect3171-2-0" height="66" stroke="#fff" stroke-linecap="round" stroke-width=".5" fill="url(#linearGradient3613)" rx="12" ry="12" width="66" opacity=".1" clip-path="url(#clipPath3613-1-9)" filter="url(#filter3794-0-0)" y="15" x="15"/>
 </g>
 <g id="layer2-3-3" display="none" transform="matrix(13.4 0 0 13.4 -1693.5 -882.16)">
  <rect id="rect3745-6-2" opacity=".9" rx="6" ry="6" height="85" filter="url(#filter3174-0-5)" width="86" y="7" x="5" fill="url(#linearGradient7062)"/>
 </g>
 <g id="layer5-3-6" display="none" transform="matrix(13.4 0 0 13.4 -1693.5 -882.16)">
  <rect id="rect3171-7-9" height="66" stroke="#fff" stroke-linecap="round" stroke-width=".5" fill="url(#linearGradient3613)" rx="12" ry="12" width="66" opacity=".1" clip-path="url(#clipPath3613-2-16)" filter="url(#filter3794-9-2)" y="15" x="15"/>
 </g>
 <g id="layer2-5-4-7" display="none" transform="translate(-106.08 -69.206)">
  <rect id="rect3745-0-9-3" opacity=".9" rx="6" ry="6" height="85" filter="url(#filter3174-8-3-92)" width="86" y="7" x="5" fill="url(#linearGradient7062)"/>
 </g>
 <g id="layer2-33-3" display="none" transform="matrix(13.4 0 0 13.4 -1500.2 -968.07)">
  <rect id="rect3745-1-8" opacity=".9" rx="6" ry="6" height="85" filter="url(#filter3174-35-2)" width="86" y="7" x="5" fill="url(#linearGradient7062)"/>
 </g>
 <g id="layer5-6-7" display="none" transform="matrix(13.4 0 0 13.4 -1500.2 -968.07)">
  <rect id="rect3171-4-3" height="66" stroke="#fff" stroke-linecap="round" stroke-width=".5" fill="url(#linearGradient3613)" rx="12" ry="12" width="66" opacity=".1" clip-path="url(#clipPath3613-8-7)" filter="url(#filter3794-91-2)" y="15" x="15"/>
 </g>
 <g id="layer2-58-8" display="none" transform="matrix(13.4 0 0 13.4 -1659.8 -887.77)">
  <rect id="rect3745-7-9" opacity=".9" rx="6" ry="6" height="85" filter="url(#filter3174-4-3)" width="86" y="7" x="5" fill="url(#linearGradient7062)"/>
 </g>
 <g id="layer5-0-1" display="none" transform="matrix(13.4 0 0 13.4 -1659.8 -887.77)">
  <rect id="rect3171-9-6" height="66" stroke="#fff" stroke-linecap="round" stroke-width=".5" fill="url(#linearGradient3613)" rx="12" ry="12" width="66" opacity=".1" clip-path="url(#clipPath3613-9-3)" filter="url(#filter3794-4-7)" y="15" x="15"/>
 </g>
 <text id="text20" font-size="129.23px" style="word-spacing:0;letter-spacing:0" line-height="125%" y="271.35495" x="-51.009254" font-family="&apos;Gentium Book Basic&apos;">
  <tspan id="tspan22" y="271.35495" x="-51.009254"/>
 </text>
 <text id="text24" style="text-anchor:middle" transform="scale(4.0128 .24920)" font-size="46.954px" y="739.75073" x="184.36925" font-family="Arial"/>
 <text id="text26" font-size="129.23px" style="word-spacing:0;letter-spacing:0" line-height="125%" y="191.35493" x="530.26074" font-family="&apos;Gentium Book Basic&apos;">
  <tspan id="tspan28" y="191.35493" x="530.26074"/>
 </text>
 <text id="text30" style="text-anchor:middle" transform="scale(4.0128 .24920)" font-size="46.954px" y="418.71262" x="329.21854" font-family="Arial"/>
 <text id="text32" font-size="129.23px" style="word-spacing:0;letter-spacing:0" line-height="125%" y="10.094961" x="-541.31927" font-family="&apos;Gentium Book Basic&apos;">
  <tspan id="tspan34" y="10.094961" x="-541.31927"/>
 </text>
 <text id="text36" style="text-anchor:middle" transform="scale(4.0128 .24920)" font-size="46.954px" y="-308.63376" x="62.179893" font-family="Arial"/>
 <text id="text38" font-size="129.23px" style="word-spacing:0;letter-spacing:0" line-height="125%" y="-206.37505" x="556.73071" font-family="&apos;Gentium Book Basic&apos;">
  <tspan id="tspan40" y="-206.37505" x="556.73071"/>
 </text>
 <text id="text42" style="text-anchor:middle" transform="scale(4.0128 .24920)" font-size="46.954px" y="-1177.3093" x="335.81851" font-family="Arial"/>
 <text id="text44" font-size="129.23px" style="word-spacing:0;letter-spacing:0" line-height="125%" y="-286.37503" x="1138.0007" font-family="&apos;Gentium Book Basic&apos;">
  <tspan id="tspan46" y="-286.37503" x="1138.0007"/>
 </text>
 <text id="text48" style="text-anchor:middle" transform="scale(4.0128 .24920)" font-size="46.954px" y="-1498.3376" x="480.66776" font-family="Arial"/>
 <text id="text50" font-size="129.23px" style="word-spacing:0;letter-spacing:0" line-height="125%" y="-758.77502" x="748.88074" font-family="&apos;Gentium Book Basic&apos;">
  <tspan id="tspan52" y="-758.77502" x="748.88074"/>
 </text>
 <text id="text54" style="text-anchor:middle" transform="scale(4.0128 .24920)" font-size="46.954px" y="-3393.988" x="383.69821" font-family="Arial"/>
 <text id="text56" font-size="129.23px" style="word-spacing:0;letter-spacing:0" line-height="125%" y="-838.78503" x="1330.1407" font-family="&apos;Gentium Book Basic&apos;">
  <tspan id="tspan58" y="-838.78503" x="1330.1407"/>
 </text>
 <text id="text60" style="text-anchor:middle" transform="scale(4.0128 .24920)" font-size="46.954px" y="-3715.0264" x="528.54749" font-family="Arial"/>
 <text id="text62" font-size="208.33px" style="word-spacing:0;letter-spacing:0" line-height="125%" y="575.93506" x="-502.65927" font-family="&apos;Gentium Book Basic&apos;">
  <tspan id="tspan64" y="575.93506" x="-502.65927"/>
 </text>
 <text id="text20-3" font-size="129.23px" style="word-spacing:0;letter-spacing:0" line-height="125%" y="129.03397" x="-127.71236" font-family="&apos;Gentium Book Basic&apos;">
  <tspan id="tspan22-8" y="129.03397" x="-127.71236"/>
 </text>
 <text id="text24-6" style="text-anchor:middle" transform="scale(4.0128 .24920)" font-size="46.954px" y="168.64221" x="165.25475" font-family="Arial"/>
 <text id="text26-6" font-size="129.23px" style="word-spacing:0;letter-spacing:0" line-height="125%" y="49.033958" x="453.55768" font-family="&apos;Gentium Book Basic&apos;">
  <tspan id="tspan28-6" y="49.033958" x="453.55768"/>
 </text>
 <text id="text30-1" style="text-anchor:middle" transform="scale(4.0128 .24920)" font-size="46.954px" y="-152.39594" x="310.104" font-family="Arial"/>
 <text id="text32-2" font-size="129.23px" style="word-spacing:0;letter-spacing:0" line-height="125%" y="-132.22601" x="-618.02234" font-family="&apos;Gentium Book Basic&apos;">
  <tspan id="tspan34-4" y="-132.22601" x="-618.02234"/>
 </text>
 <text id="text36-5" style="text-anchor:middle" transform="scale(4.0128 .24920)" font-size="46.954px" y="-879.74231" x="43.065384" font-family="Arial"/>
 <text id="text38-8" font-size="129.23px" style="word-spacing:0;letter-spacing:0" line-height="125%" y="-348.69601" x="480.02765" font-family="&apos;Gentium Book Basic&apos;">
  <tspan id="tspan40-8" y="-348.69601" x="480.02765"/>
 </text>
 <text id="text42-2" style="text-anchor:middle" transform="scale(4.0128 .24920)" font-size="46.954px" y="-1748.418" x="316.70398" font-family="Arial"/>
 <text id="text44-8" font-size="129.23px" style="word-spacing:0;letter-spacing:0" line-height="125%" y="-428.69601" x="1061.2976" font-family="&apos;Gentium Book Basic&apos;">
  <tspan id="tspan46-3" y="-428.69601" x="1061.2976"/>
 </text>
 <text id="text48-0" style="text-anchor:middle" transform="scale(4.0128 .24920)" font-size="46.954px" y="-2069.4463" x="461.55322" font-family="Arial"/>
 <text id="text50-1" font-size="129.23px" style="word-spacing:0;letter-spacing:0" line-height="125%" y="-901.09601" x="672.17767" font-family="&apos;Gentium Book Basic&apos;">
  <tspan id="tspan52-6" y="-901.09601" x="672.17767"/>
 </text>
 <text id="text54-1" style="text-anchor:middle" transform="scale(4.0128 .24920)" font-size="46.954px" y="-3965.0967" x="364.58368" font-family="Arial"/>
 <text id="text56-1" font-size="129.23px" style="word-spacing:0;letter-spacing:0" line-height="125%" y="-981.10602" x="1253.4376" font-family="&apos;Gentium Book Basic&apos;">
  <tspan id="tspan58-8" y="-981.10602" x="1253.4376"/>
 </text>
 <text id="text60-3" style="text-anchor:middle" transform="scale(4.0128 .24920)" font-size="46.954px" y="-4286.1348" x="509.43298" font-family="Arial"/>
 <text id="text62-3" font-size="208.33px" style="word-spacing:0;letter-spacing:0" line-height="125%" y="433.61404" x="-579.36237" font-family="&apos;Gentium Book Basic&apos;">
  <tspan id="tspan64-2" y="433.61404" x="-579.36237"/>
 </text>
 <text id="text20-7" font-size="129.23px" style="word-spacing:0;letter-spacing:0" line-height="125%" y="103.84443" x="-213.61984" font-family="&apos;Gentium Book Basic&apos;">
  <tspan id="tspan22-9" y="103.84443" x="-213.61984"/>
 </text>
 <text id="text24-1" style="text-anchor:middle" transform="scale(4.0128 .24920)" font-size="46.954px" y="67.56115" x="143.84648" font-family="Arial"/>
 <text id="text26-0" font-size="129.23px" style="word-spacing:0;letter-spacing:0" line-height="125%" y="23.844431" x="367.65018" font-family="&apos;Gentium Book Basic&apos;">
  <tspan id="tspan28-3" y="23.844431" x="367.65018"/>
 </text>
 <text id="text30-2" style="text-anchor:middle" transform="scale(4.0128 .24920)" font-size="46.954px" y="-253.47701" x="288.69577" font-family="Arial"/>
 <text id="text32-28" font-size="129.23px" style="word-spacing:0;letter-spacing:0" line-height="125%" y="-157.41554" x="-703.92987" font-family="&apos;Gentium Book Basic&apos;">
  <tspan id="tspan34-2" y="-157.41554" x="-703.92987"/>
 </text>
 <text id="text36-8" style="text-anchor:middle" transform="scale(4.0128 .24920)" font-size="46.954px" y="-980.82336" x="21.657125" font-family="Arial"/>
 <text id="text38-4" font-size="129.23px" style="word-spacing:0;letter-spacing:0" line-height="125%" y="-373.88556" x="394.12015" font-family="&apos;Gentium Book Basic&apos;">
  <tspan id="tspan40-9" y="-373.88556" x="394.12015"/>
 </text>
 <text id="text42-1" style="text-anchor:middle" transform="scale(4.0128 .24920)" font-size="46.954px" y="-1849.499" x="295.29575" font-family="Arial"/>
 <text id="text44-85" font-size="129.23px" style="word-spacing:0;letter-spacing:0" line-height="125%" y="-453.88553" x="975.39014" font-family="&apos;Gentium Book Basic&apos;">
  <tspan id="tspan46-6" y="-453.88553" x="975.39014"/>
 </text>
 <text id="text48-9" style="text-anchor:middle" transform="scale(4.0128 .24920)" font-size="46.954px" y="-2170.5273" x="440.14499" font-family="Arial"/>
 <text id="text50-3" font-size="129.23px" style="word-spacing:0;letter-spacing:0" line-height="125%" y="-926.28558" x="586.27014" font-family="&apos;Gentium Book Basic&apos;">
  <tspan id="tspan52-0" y="-926.28558" x="586.27014"/>
 </text>
 <text id="text54-7" style="text-anchor:middle" transform="scale(4.0128 .24920)" font-size="46.954px" y="-4066.1777" x="343.17545" font-family="Arial"/>
 <text id="text56-6" font-size="129.23px" style="word-spacing:0;letter-spacing:0" line-height="125%" y="-1006.2956" x="1167.5302" font-family="&apos;Gentium Book Basic&apos;">
  <tspan id="tspan58-2" y="-1006.2956" x="1167.5302"/>
 </text>
 <text id="text60-0" style="text-anchor:middle" transform="scale(4.0128 .24920)" font-size="46.954px" y="-4387.2158" x="488.02475" font-family="Arial"/>
 <text id="text62-4" font-size="208.33px" style="word-spacing:0;letter-spacing:0" line-height="125%" y="408.42453" x="-665.2699" font-family="&apos;Gentium Book Basic&apos;">
  <tspan id="tspan64-5" y="408.42453" x="-665.2699"/>
 </text>
 <path id="path9" d="m26 0c-14.397 0-26 11.603-26 26v460c0 14.397 11.603 26 26 26h460c14.397 0 26-11.603 26-26v-460c0-14.397-11.6-26-26-26h-460" fill="#3a6b87"/>
 <text id="text11" font-size="129.23px" style="word-spacing:0;letter-spacing:0" line-height="125%" y="189.21001" x="-118.19" font-family="&apos;Gentium Book Basic&apos;">
  <tspan id="tspan13" y="189.21001" x="-118.19"/>
 </text>
 <text id="text15" style="text-anchor:middle" transform="scale(4.0128 .24920)" font-size="46.954px" y="410.11789" x="167.62915" font-family="Arial"/>
 <text id="text17" font-size="129.23px" style="word-spacing:0;letter-spacing:0" line-height="125%" y="109.21" x="463.07999" font-family="&apos;Gentium Book Basic&apos;">
  <tspan id="tspan19" y="109.21" x="463.07999"/>
 </text>
 <text id="text21" style="text-anchor:middle" transform="scale(4.0128 .24920)" font-size="46.954px" y="89.089539" x="312.47842" font-family="Arial"/>
 <text id="text23" font-size="129.23px" style="word-spacing:0;letter-spacing:0" line-height="125%" y="-72.050003" x="-608.5" font-family="&apos;Gentium Book Basic&apos;">
  <tspan id="tspan25" y="-72.050003" x="-608.5"/>
 </text>
 <text id="text27" style="text-anchor:middle" transform="scale(4.0128 .24920)" font-size="46.954px" y="-638.26672" x="45.439766" font-family="Arial"/>
 <text id="text29" font-size="129.23px" style="word-spacing:0;letter-spacing:0" line-height="125%" y="-288.51999" x="489.54999" font-family="&apos;Gentium Book Basic&apos;">
  <tspan id="tspan31" y="-288.51999" x="489.54999"/>
 </text>
 <text id="text33" style="text-anchor:middle" transform="scale(4.0128 .24920)" font-size="46.954px" y="-1506.9224" x="319.07834" font-family="Arial"/>
 <text id="text35" font-size="129.23px" style="word-spacing:0;letter-spacing:0" line-height="125%" y="-368.53" x="1070.8199" font-family="&apos;Gentium Book Basic&apos;">
  <tspan id="tspan37" y="-368.53" x="1070.8199"/>
 </text>
 <text id="text39" style="text-anchor:middle" transform="scale(4.0128 .24920)" font-size="46.954px" y="-1827.9606" x="463.92761" font-family="Arial"/>
 <text id="text41" font-size="129.23px" style="word-spacing:0;letter-spacing:0" line-height="125%" y="-840.92999" x="681.70001" font-family="&apos;Gentium Book Basic&apos;">
  <tspan id="tspan43" y="-840.92999" x="681.70001"/>
 </text>
 <text id="text45" style="text-anchor:middle" transform="scale(4.0128 .24920)" font-size="46.954px" y="-3723.6011" x="366.9581" font-family="Arial"/>
 <text id="text47" font-size="129.23px" style="word-spacing:0;letter-spacing:0" line-height="125%" y="-920.92999" x="1262.96" font-family="&apos;Gentium Book Basic&apos;">
  <tspan id="tspan49" y="-920.92999" x="1262.96"/>
 </text>
 <text id="text51" style="text-anchor:middle" transform="scale(4.0128 .24920)" font-size="46.954px" y="-4044.6292" x="511.80737" font-family="Arial"/>
 <text id="text53" font-size="208.33px" style="word-spacing:0;letter-spacing:0" line-height="125%" y="493.79001" x="-569.84003" font-family="&apos;Gentium Book Basic&apos;">
  <tspan id="tspan55" y="493.79001" x="-569.84003"/>
 </text>
 <path id="path59" opacity=".25" style="color:#000000" fill-rule="evenodd" d="m254.74 47.689l26.3 26.303c0-0.001 0-0.003-0.01-0.004l-26.29-26.291c-27.41 0-53.56 5.078-77.76 14.115-0.01 0-0.01 0.001-0.02 0v0.004 0.002l170.76 170.75c-13.12-11.26-27.27-23.67-43.03-37.26-28.4-24.5-99.82-107.86-138.11-107.86l214.35 214.35s-0.01-0.01-0.02-0.01l-214.34-214.34c-4.66-0.001-9.3 0.496-13.86 1.411v-0.002c-1.52 0.306-3.04 0.664-4.54 1.061-42.13 11.11-78.167 56.86-89.969 77.86h-0.002c-0.749 1.34-1.599 2.91-2.388 4.35l11.875 11.88h-0.002l-11.87-11.87c-6.261 13.09-11.302 26.81-14.814 41.17l163.39 163.4c-33.85-11.01-59.58-23.16-71.36-29.19l-0.01-0.01c-6.5-3.33-23.17-12.94-43.129-12.94l82.819 82.82c0 0.01-0.01 0.01-0.01 0.01l-82.831-82.83c-16.972 0-29.637 8.47-31.058 27.52 10.294 19.9 23.615 38.01 39.369 53.77 0.026 0.03 0.053 0.05 0.08 0.08l96.06 96.06h291.68c14.4 0 26-11.6 26-26v-273l-100.73-100.73c0.06 0.07 0.13 0.14 0.2 0.21l-0.21-0.21c-39.85-39.853-95.26-64.581-156.52-64.581z"/>
 <path id="path133" style="color:#000000" fill="#fff" d="m254.74 47.698c-27.414 0-53.57 5.079-77.78 14.12 66.63 1.151 104.24 7.964 138.36 26.348 2.843 1.532 5.675 3.126 8.483 4.822 8.426 5.088 16.805 10.957 25.449 17.643 37.26 28.825 40.518 63.89 72.17 90.68 19.262 16.314 16.659 14.939 25.568 14.939 9.75 0 14.715-8.676 17.09-18.11-28.37-87.21-111.35-150.44-209.32-150.44m-88.17 39.758c-4.659 0-9.302 0.495-13.859 1.411-1.519 0.306-3.036 0.662-4.54 1.059-42.13 11.11-78.17 56.862-89.97 77.866-0.749 1.336-1.6 2.906-2.389 4.353-6.261 13.09-11.303 26.807-14.815 41.17 3.373-4.248 6.655-8.234 9.916-11.997 22.827-26.327 43.716-40.58 73.72-40.58 53.53 0 60.34 23.482 158.43 86.45 48.28 30.992 121.53 73.73 181.96 80.1 2.478-8 4.443-16.22 5.975-24.583-22.608-1.607-42.973-10.09-64.993-24.466-3.146-2.054-6.334-4.176-9.559-6.469-25.794-18.346-54.46-44.28-91.76-76.45-28.398-24.496-99.82-107.86-138.11-107.86m-76.71 247.12c-16.973 0-29.639 8.469-31.06 27.523 23.796 45.99 63.759 82.47 112.55 102.22-0.647-0.89-1.26-1.829-1.911-2.824-4.557-6.956-8.961-16.363-8.961-27.17 0-12.573 8.261-17.525 17.563-17.525 12.385 0 53.29 19.17 121.75 19.17 34.24 0 76.953-4.938 108.24-16.82 12.357-11.845 23.23-25.11 32.498-39.521-19.999 7.982-56.981 19.525-105.13 19.525-93.04 0-177.88-39.09-202.39-51.637-6.502-3.326-23.17-12.938-43.13-12.938" fill-rule="evenodd"/>
</svg>
