<?xml version="1.0" encoding="UTF-8" standalone="no"?>
<!-- Created with Inkscape (http://www.inkscape.org/) -->
<svg id="svg2" xmlns:rdf="http://www.w3.org/1999/02/22-rdf-syntax-ns#" xmlns="http://www.w3.org/2000/svg" height="100%" width="100%" version="1.1" xmlns:cc="http://creativecommons.org/ns#" xmlns:dc="http://purl.org/dc/elements/1.1/" viewBox="0 0 512 512">
 <metadata id="metadata10">
  <rdf:RDF>
   <cc:Work rdf:about="">
    <dc:format>image/svg+xml</dc:format>
    <dc:type rdf:resource="http://purl.org/dc/dcmitype/StillImage"/>
    <dc:title/>
   </cc:Work>
  </rdf:RDF>
 </metadata>
 <text id="text20" style="word-spacing:0;letter-spacing:0" font-size="129.23px" line-height="125%" y="91.57193" x="-351.68549" font-family="Gentium Book Basic">
  <tspan id="tspan22" y="91.57193" x="-351.68549"/>
 </text>
 <text id="text24" style="text-anchor:middle" transform="scale(4.0128 .24920)" font-size="46.954px" y="18.313808" x="109.44035" font-family="Arial"/>
 <text id="text26" style="word-spacing:0;letter-spacing:0" font-size="129.23px" line-height="125%" y="11.57193" x="229.58453" font-family="Gentium Book Basic">
  <tspan id="tspan28" y="11.57193" x="229.58453"/>
 </text>
 <text id="text30" style="text-anchor:middle" transform="scale(4.0128 .24920)" font-size="46.954px" y="-302.72433" x="254.28963" font-family="Arial"/>
 <text id="text32" style="word-spacing:0;letter-spacing:0" font-size="129.23px" line-height="125%" y="-169.68805" x="-841.99548" font-family="Gentium Book Basic">
  <tspan id="tspan34" y="-169.68805" x="-841.99548"/>
 </text>
 <text id="text36" style="text-anchor:middle" transform="scale(4.0128 .24920)" font-size="46.954px" y="-1030.0707" x="-12.749008" font-family="Arial"/>
 <text id="text38" style="word-spacing:0;letter-spacing:0" font-size="129.23px" line-height="125%" y="-386.15805" x="256.0545" font-family="Gentium Book Basic">
  <tspan id="tspan40" y="-386.15805" x="256.0545"/>
 </text>
 <text id="text42" style="text-anchor:middle" transform="scale(4.0128 .24920)" font-size="46.954px" y="-1898.7463" x="260.88962" font-family="Arial"/>
 <text id="text44" style="word-spacing:0;letter-spacing:0" font-size="129.23px" line-height="125%" y="-466.15802" x="837.32452" font-family="Gentium Book Basic">
  <tspan id="tspan46" y="-466.15802" x="837.32452"/>
 </text>
 <text id="text48" style="text-anchor:middle" transform="scale(4.0128 .24920)" font-size="46.954px" y="-2219.7747" x="405.73886" font-family="Arial"/>
 <text id="text50" style="word-spacing:0;letter-spacing:0" font-size="129.23px" line-height="125%" y="-938.55804" x="448.20453" font-family="Gentium Book Basic">
  <tspan id="tspan52" y="-938.55804" x="448.20453"/>
 </text>
 <text id="text54" style="text-anchor:middle" transform="scale(4.0128 .24920)" font-size="46.954px" y="-4115.4248" x="308.76932" font-family="Arial"/>
 <text id="text56" style="word-spacing:0;letter-spacing:0" font-size="129.23px" line-height="125%" y="-1018.5681" x="1029.4646" font-family="Gentium Book Basic">
  <tspan id="tspan58" y="-1018.5681" x="1029.4646"/>
 </text>
 <text id="text60" style="text-anchor:middle" transform="scale(4.0128 .24920)" font-size="46.954px" y="-4436.4634" x="453.61862" font-family="Arial"/>
 <text id="text62" style="word-spacing:0;letter-spacing:0" font-size="208.33px" line-height="125%" y="396.15204" x="-803.33551" font-family="Gentium Book Basic">
  <tspan id="tspan64" y="396.15204" x="-803.33551"/>
 </text>
 <path id="rect2986-9" fill="#51b0cd" d="m26 0c-14.397 0-26 11.603-26 26v460c0 14.397 11.603 26 26 26h460c14.397 0 26-11.603 26-26v-460c0-14.397-11.6-26-26-26h-460z"/>
 <path id="path3080" d="m267.94 247.5-241.47 264.5h459.53c8.5803 0 16.176-4.1225 20.906-10.5l-238.97-254z" fill="#bd446f"/>
 <path id="path3086" d="m493.72 1.1562-225.78 246.28 238.81 254.25c3.3-4.36 5.25-9.79 5.25-15.69v-460c0-11.708-7.67-21.569-18.28-24.844z" fill="#f6bd7b"/>
 <path id="path3084" d="m26 0c-6.157 0-11.804 2.1326-16.25 5.6875 93.22 102.34 122.4 145.43 239.31 262.22 72.66-78.17 175.14-141.19 262.94-208v-33.91c0-14.397-11.6-26-26-26h-460z" fill="#71c67a"/>
 <text id="text20-2" font-size="129.23px" style="word-spacing:0;letter-spacing:0" line-height="125%" y="149.14371" x="-100.09924" font-family="&apos;Gentium Book Basic&apos;">
  <tspan id="tspan22-9" y="149.14371" x="-100.09924"/>
 </text>
 <text id="text24-1" style="text-anchor:middle" transform="scale(4.0128 .24920)" font-size="46.954px" y="249.33902" x="172.13597" font-family="Arial"/>
 <text id="text26-2" font-size="129.23px" style="word-spacing:0;letter-spacing:0" line-height="125%" y="69.143707" x="481.17078" font-family="&apos;Gentium Book Basic&apos;">
  <tspan id="tspan28-7" y="69.143707" x="481.17078"/>
 </text>
 <text id="text30-0" style="text-anchor:middle" transform="scale(4.0128 .24920)" font-size="46.954px" y="-71.69912" x="316.98523" font-family="Arial"/>
 <text id="text32-5" font-size="129.23px" style="word-spacing:0;letter-spacing:0" line-height="125%" y="-112.11627" x="-590.40924" font-family="&apos;Gentium Book Basic&apos;">
  <tspan id="tspan34-9" y="-112.11627" x="-590.40924"/>
 </text>
 <text id="text36-4" style="text-anchor:middle" transform="scale(4.0128 .24920)" font-size="46.954px" y="-799.04547" x="49.946606" font-family="Arial"/>
 <text id="text38-5" font-size="129.23px" style="word-spacing:0;letter-spacing:0" line-height="125%" y="-328.58627" x="507.64075" font-family="&apos;Gentium Book Basic&apos;">
  <tspan id="tspan40-1" y="-328.58627" x="507.64075"/>
 </text>
 <text id="text42-0" style="text-anchor:middle" transform="scale(4.0128 .24920)" font-size="46.954px" y="-1667.7211" x="323.58521" font-family="Arial"/>
 <text id="text44-6" font-size="129.23px" style="word-spacing:0;letter-spacing:0" line-height="125%" y="-408.58624" x="1088.9108" font-family="&apos;Gentium Book Basic&apos;">
  <tspan id="tspan46-1" y="-408.58624" x="1088.9108"/>
 </text>
 <text id="text48-6" style="text-anchor:middle" transform="scale(4.0128 .24920)" font-size="46.954px" y="-1988.7494" x="468.43445" font-family="Arial"/>
 <text id="text50-9" font-size="129.23px" style="word-spacing:0;letter-spacing:0" line-height="125%" y="-880.98627" x="699.79077" font-family="&apos;Gentium Book Basic&apos;">
  <tspan id="tspan52-2" y="-880.98627" x="699.79077"/>
 </text>
 <text id="text54-6" style="text-anchor:middle" transform="scale(4.0128 .24920)" font-size="46.954px" y="-3884.3999" x="371.4649" font-family="Arial"/>
 <text id="text56-5" font-size="129.23px" style="word-spacing:0;letter-spacing:0" line-height="125%" y="-960.99628" x="1281.0508" font-family="&apos;Gentium Book Basic&apos;">
  <tspan id="tspan58-1" y="-960.99628" x="1281.0508"/>
 </text>
 <text id="text60-5" style="text-anchor:middle" transform="scale(4.0128 .24920)" font-size="46.954px" y="-4205.438" x="516.31421" font-family="Arial"/>
 <text id="text62-6" font-size="208.33px" style="word-spacing:0;letter-spacing:0" line-height="125%" y="453.72382" x="-551.74927" font-family="&apos;Gentium Book Basic&apos;">
  <tspan id="tspan64-2" y="453.72382" x="-551.74927"/>
 </text>
 <path id="path3536" opacity=".25" d="m67.713 41l-3.815 2.201c-2.283 1.329-4.929 4.479-6.65 7.824l-2.885 5.577v200.27 200.27l2.494 4.69c1.129 2.11 3.017 4.63 4.588 6.2l43.965 43.97h380.59c12.92 0 23.59-9.35 25.64-21.68-18.9-20.74-49.09-53.86-50.42-55.33l-4.6-5.08-388.91-388.91zm35.257 11.395l4.99 5.576c2.76 3.07 41.54 45.789 86.17 94.929l0.55 0.54c40.08 44.14 73.88 80.88 80.46 87.46l14.45 14.45-1.12 1.23 31.16 34.08c11.64 12.73 20.27 21.91 25.74 27.38l166.63 166.63v-179.15l-57.72-57.71c-5.44-5.45-19.7-13.37-56.99-33.83-21.72-11.92-41.04-22.62-42.94-23.77l-3.42-2.05-4.27 4.68-13.93-13.93c-0.84-0.82-216.17-119.54-225.3-124.22l-4.46-2.295z"/>
 <path id="path3092" d="m67.714 41-3.8146 2.2008c-2.2836 1.3286-4.9298 4.4797-6.6512 7.8249l-2.8854 5.5752v200.27 200.27l2.4942 4.6949c1.3786 2.5776 3.8937 5.7679 5.5752 7.0913 1.6828 1.3234 3.7525 2.2325 4.5971 2.054 0.84721-0.17969 45.407-48.483 99.034-107.35 96.552-105.98 97.49-107.05 95.561-109.5-1.068-1.3542-43.057-47.556-93.312-102.7-50.26-55.157-93.475-102.56-96.009-105.35l-4.5971-5.0862zm35.261 11.395 4.9884 5.5752c2.7611 3.0705 41.54 45.788 86.172 94.926h0.0488c44.631 49.151 81.567 89.239 82.112 89.057 2.1745-0.72397 57.247-62.241 56.437-63.039-0.85-0.83-216.18-119.55-225.32-124.23l-4.4504-2.2986zm247.95 135.76-20.247 22.203c-11.132 12.232-25.214 27.641-31.251 34.234l-10.955 11.982 31.153 34.087c20.51 22.427 31.661 33.808 32.718 33.402 3.9536-1.5096 92.848-50.932 97.126-53.992 6.2642-4.4812 8.1672-7.5771 8.1672-13.253 0-9.4913-1.2887-10.429-60.349-42.841-21.717-11.917-41.042-22.62-42.939-23.768l-3.4234-2.054zm-73.75 82.993c-0.50063-0.51345-29.74 30.721-64.995 69.397-35.254 38.676-74.551 81.729-87.296 95.659l-23.132 25.333 11.248-6.0643c6.2052-3.3285 15.105-8.2049 19.758-10.808 4.6468-2.6033 51.849-28.442 104.9-57.464 53.051-29.02 96.56-52.87 96.686-52.965 0.17588-0.12833-52.743-58.529-57.171-63.088z" fill="#fff"/>
</svg>
