<svg xmlns="http://www.w3.org/2000/svg" xmlns:svg="http://www.w3.org/2000/svg" xmlns:xlink="http://www.w3.org/1999/xlink" id="svg2" width="100%" height="100%" version="1.1" viewBox="0 0 512 512"><metadata id="metadata75"/><defs id="defs4"><linearGradient id="ButtonShadow-5" x1="45.448" x2="45.448" y1="92.54" y2="7.016" gradientTransform="scale(1.0059 .99417)" gradientUnits="userSpaceOnUse"><stop id="stop3750-0" offset="0"/><stop id="stop3752-8" offset="1" stop-opacity=".588"/></linearGradient><filter id="filter3174-8" color-interpolation-filters="sRGB"><feGaussianBlur id="feGaussianBlur3176-5" stdDeviation="1.71"/></filter><linearGradient id="linearGradient3737"><stop id="stop3739" offset="0" stop-color="#fff"/><stop id="stop3741" offset="1" stop-color="#fff" stop-opacity="0"/></linearGradient><filter id="filter3174" color-interpolation-filters="sRGB"><feGaussianBlur id="feGaussianBlur3176" stdDeviation="1.71"/></filter><filter id="filter3794" width="1.384" height="1.384" x="-.192" y="-.192" color-interpolation-filters="sRGB"><feGaussianBlur id="feGaussianBlur3796" stdDeviation="5.28"/></filter><linearGradient id="linearGradient3613" x1="48" x2="48" y1="20.221" y2="138.66" gradientUnits="userSpaceOnUse" xlink:href="#linearGradient3737"/><clipPath id="clipPath3613"><rect id="rect3615" width="84" height="84" x="6" y="6" fill="#fff" rx="6" ry="6"/></clipPath><filter id="filter3174-3" color-interpolation-filters="sRGB"><feGaussianBlur id="feGaussianBlur3176-2" stdDeviation="1.71"/></filter><filter id="filter3794-0" width="1.384" height="1.384" x="-.192" y="-.192" color-interpolation-filters="sRGB"><feGaussianBlur id="feGaussianBlur3796-3" stdDeviation="5.28"/></filter><clipPath id="clipPath3613-1"><rect id="rect3615-9" width="84" height="84" x="6" y="6" fill="#fff" rx="6" ry="6"/></clipPath><filter id="filter3174-8-3" color-interpolation-filters="sRGB"><feGaussianBlur id="feGaussianBlur3176-5-8" stdDeviation="1.71"/></filter><filter id="filter3174-0" color-interpolation-filters="sRGB"><feGaussianBlur id="feGaussianBlur3176-6" stdDeviation="1.71"/></filter><filter id="filter3794-9" width="1.384" height="1.384" x="-.192" y="-.192" color-interpolation-filters="sRGB"><feGaussianBlur id="feGaussianBlur3796-2" stdDeviation="5.28"/></filter><clipPath id="clipPath3613-2"><rect id="rect3615-3" width="84" height="84" x="6" y="6" fill="#fff" rx="6" ry="6"/></clipPath><filter id="filter3174-35" color-interpolation-filters="sRGB"><feGaussianBlur id="feGaussianBlur3176-3" stdDeviation="1.71"/></filter><filter id="filter3794-91" width="1.384" height="1.384" x="-.192" y="-.192" color-interpolation-filters="sRGB"><feGaussianBlur id="feGaussianBlur3796-7" stdDeviation="5.28"/></filter><clipPath id="clipPath3613-8"><rect id="rect3615-8" width="84" height="84" x="6" y="6" fill="#fff" rx="6" ry="6"/></clipPath><filter id="filter3174-4" color-interpolation-filters="sRGB"><feGaussianBlur id="feGaussianBlur3176-37" stdDeviation="1.71"/></filter><filter id="filter3794-4" width="1.384" height="1.384" x="-.192" y="-.192" color-interpolation-filters="sRGB"><feGaussianBlur id="feGaussianBlur3796-9" stdDeviation="5.28"/></filter><clipPath id="clipPath3613-9"><rect id="rect3615-1" width="84" height="84" x="6" y="6" fill="#fff" rx="6" ry="6"/></clipPath><style id="style5970" type="text/css"/><style id="style5970-0" type="text/css"/><style id="style5970-7" type="text/css"/><linearGradient id="linearGradient7062" x1="45.448" x2="45.448" y1="92.54" y2="7.016" gradientTransform="scale(1.0059 .99417)" gradientUnits="userSpaceOnUse" xlink:href="#ButtonShadow-5"/><filter id="filter3174-8-0" color-interpolation-filters="sRGB"><feGaussianBlur id="feGaussianBlur3176-5-0" stdDeviation="1.71"/></filter><filter id="filter3174-83" color-interpolation-filters="sRGB"><feGaussianBlur id="feGaussianBlur3176-32" stdDeviation="1.71"/></filter><filter id="filter3794-42" width="1.384" height="1.384" x="-.192" y="-.192" color-interpolation-filters="sRGB"><feGaussianBlur id="feGaussianBlur3796-4" stdDeviation="5.28"/></filter><clipPath id="clipPath3613-89"><rect id="rect3615-13" width="84" height="84" x="6" y="6" fill="#fff" rx="6" ry="6"/></clipPath><filter id="filter3174-3-1" color-interpolation-filters="sRGB"><feGaussianBlur id="feGaussianBlur3176-2-9" stdDeviation="1.71"/></filter><filter id="filter3794-0-4" width="1.384" height="1.384" x="-.192" y="-.192" color-interpolation-filters="sRGB"><feGaussianBlur id="feGaussianBlur3796-3-8" stdDeviation="5.28"/></filter><clipPath id="clipPath3613-1-4"><rect id="rect3615-9-6" width="84" height="84" x="6" y="6" fill="#fff" rx="6" ry="6"/></clipPath><filter id="filter3174-8-3-9" color-interpolation-filters="sRGB"><feGaussianBlur id="feGaussianBlur3176-5-8-2" stdDeviation="1.71"/></filter><filter id="filter3174-0-1" color-interpolation-filters="sRGB"><feGaussianBlur id="feGaussianBlur3176-6-2" stdDeviation="1.71"/></filter><filter id="filter3794-9-0" width="1.384" height="1.384" x="-.192" y="-.192" color-interpolation-filters="sRGB"><feGaussianBlur id="feGaussianBlur3796-2-2" stdDeviation="5.28"/></filter><clipPath id="clipPath3613-2-1"><rect id="rect3615-3-8" width="84" height="84" x="6" y="6" fill="#fff" rx="6" ry="6"/></clipPath><filter id="filter3174-35-0" color-interpolation-filters="sRGB"><feGaussianBlur id="feGaussianBlur3176-3-3" stdDeviation="1.71"/></filter><filter id="filter3794-91-1" width="1.384" height="1.384" x="-.192" y="-.192" color-interpolation-filters="sRGB"><feGaussianBlur id="feGaussianBlur3796-7-4" stdDeviation="5.28"/></filter><clipPath id="clipPath3613-8-0"><rect id="rect3615-8-0" width="84" height="84" x="6" y="6" fill="#fff" rx="6" ry="6"/></clipPath><filter id="filter3174-4-2" color-interpolation-filters="sRGB"><feGaussianBlur id="feGaussianBlur3176-37-6" stdDeviation="1.71"/></filter><filter id="filter3794-4-3" width="1.384" height="1.384" x="-.192" y="-.192" color-interpolation-filters="sRGB"><feGaussianBlur id="feGaussianBlur3796-9-4" stdDeviation="5.28"/></filter><clipPath id="clipPath3613-9-2"><rect id="rect3615-1-5" width="84" height="84" x="6" y="6" fill="#fff" rx="6" ry="6"/></clipPath><style id="style5970-1" type="text/css"/><style id="style5970-0-0" type="text/css"/><style id="style5970-7-6" type="text/css"/><filter id="filter3174-8-5" color-interpolation-filters="sRGB"><feGaussianBlur id="feGaussianBlur3176-5-7" stdDeviation="1.71"/></filter><filter id="filter3174-04" color-interpolation-filters="sRGB"><feGaussianBlur id="feGaussianBlur3176-0" stdDeviation="1.71"/></filter><filter id="filter3794-8" width="1.384" height="1.384" x="-.192" y="-.192" color-interpolation-filters="sRGB"><feGaussianBlur id="feGaussianBlur3796-38" stdDeviation="5.28"/></filter><clipPath id="clipPath3613-95"><rect id="rect3615-0" width="84" height="84" x="6" y="6" fill="#fff" rx="6" ry="6"/></clipPath><filter id="filter3174-3-5" color-interpolation-filters="sRGB"><feGaussianBlur id="feGaussianBlur3176-2-1" stdDeviation="1.71"/></filter><filter id="filter3794-0-6" width="1.384" height="1.384" x="-.192" y="-.192" color-interpolation-filters="sRGB"><feGaussianBlur id="feGaussianBlur3796-3-83" stdDeviation="5.28"/></filter><clipPath id="clipPath3613-1-3"><rect id="rect3615-9-7" width="84" height="84" x="6" y="6" fill="#fff" rx="6" ry="6"/></clipPath><filter id="filter3174-8-3-1" color-interpolation-filters="sRGB"><feGaussianBlur id="feGaussianBlur3176-5-8-5" stdDeviation="1.71"/></filter><filter id="filter3174-0-3" color-interpolation-filters="sRGB"><feGaussianBlur id="feGaussianBlur3176-6-3" stdDeviation="1.71"/></filter><filter id="filter3794-9-5" width="1.384" height="1.384" x="-.192" y="-.192" color-interpolation-filters="sRGB"><feGaussianBlur id="feGaussianBlur3796-2-24" stdDeviation="5.28"/></filter><clipPath id="clipPath3613-2-2"><rect id="rect3615-3-1" width="84" height="84" x="6" y="6" fill="#fff" rx="6" ry="6"/></clipPath><filter id="filter3174-35-9" color-interpolation-filters="sRGB"><feGaussianBlur id="feGaussianBlur3176-3-0" stdDeviation="1.71"/></filter><filter id="filter3794-91-5" width="1.384" height="1.384" x="-.192" y="-.192" color-interpolation-filters="sRGB"><feGaussianBlur id="feGaussianBlur3796-7-7" stdDeviation="5.28"/></filter><clipPath id="clipPath3613-8-09"><rect id="rect3615-8-1" width="84" height="84" x="6" y="6" fill="#fff" rx="6" ry="6"/></clipPath><filter id="filter3174-4-5" color-interpolation-filters="sRGB"><feGaussianBlur id="feGaussianBlur3176-37-7" stdDeviation="1.71"/></filter><filter id="filter3794-4-2" width="1.384" height="1.384" x="-.192" y="-.192" color-interpolation-filters="sRGB"><feGaussianBlur id="feGaussianBlur3796-9-1" stdDeviation="5.28"/></filter><clipPath id="clipPath3613-9-7"><rect id="rect3615-1-4" width="84" height="84" x="6" y="6" fill="#fff" rx="6" ry="6"/></clipPath><style id="style5970-5" type="text/css"/><style id="style5970-0-6" type="text/css"/><style id="style5970-7-8" type="text/css"/><filter id="filter3174-9" color-interpolation-filters="sRGB"><feGaussianBlur id="feGaussianBlur3176-7" stdDeviation="1.71"/></filter><linearGradient id="linearGradient3287" x1="-34.4" x2="-34.4" y1="92.083" y2="7" gradientTransform="translate(100)" gradientUnits="userSpaceOnUse" xlink:href="#ButtonShadow-5"/><filter id="filter7725" color-interpolation-filters="sRGB"><feGaussianBlur id="feGaussianBlur7727" stdDeviation="1.71"/></filter><linearGradient id="linearGradient3390" x1="36.357" x2="36.357" y1="6" y2="63.893" gradientTransform="matrix(3.1178 0 0 3.1178 -1834.7 -105.38)" gradientUnits="userSpaceOnUse" xlink:href="#linearGradient3737"/><linearGradient id="linearGradient3393" x1="48" x2="48" y1="90" y2="5.988" gradientTransform="matrix(3.1178 0 0 3.1178 -1834.7 -105.38)" gradientUnits="userSpaceOnUse"><stop id="stop3702" offset="0" stop-color="#2276c5"/><stop id="stop3704" offset="1" stop-color="#69a9e6"/></linearGradient><filter id="filter3174-8-59" color-interpolation-filters="sRGB"><feGaussianBlur id="feGaussianBlur3176-5-6" stdDeviation="1.71"/></filter><filter id="filter3174-5" color-interpolation-filters="sRGB"><feGaussianBlur id="feGaussianBlur3176-06" stdDeviation="1.71"/></filter><filter id="filter3794-6" width="1.384" height="1.384" x="-.192" y="-.192" color-interpolation-filters="sRGB"><feGaussianBlur id="feGaussianBlur3796-21" stdDeviation="5.28"/></filter><clipPath id="clipPath3613-4"><rect id="rect3615-6" width="84" height="84" x="6" y="6" fill="#fff" rx="6" ry="6"/></clipPath><filter id="filter3174-3-57" color-interpolation-filters="sRGB"><feGaussianBlur id="feGaussianBlur3176-2-10" stdDeviation="1.71"/></filter><filter id="filter3794-0-0" width="1.384" height="1.384" x="-.192" y="-.192" color-interpolation-filters="sRGB"><feGaussianBlur id="feGaussianBlur3796-3-7" stdDeviation="5.28"/></filter><clipPath id="clipPath3613-1-9"><rect id="rect3615-9-4" width="84" height="84" x="6" y="6" fill="#fff" rx="6" ry="6"/></clipPath><filter id="filter3174-8-3-92" color-interpolation-filters="sRGB"><feGaussianBlur id="feGaussianBlur3176-5-8-6" stdDeviation="1.71"/></filter><filter id="filter3174-0-5" color-interpolation-filters="sRGB"><feGaussianBlur id="feGaussianBlur3176-6-21" stdDeviation="1.71"/></filter><filter id="filter3794-9-2" width="1.384" height="1.384" x="-.192" y="-.192" color-interpolation-filters="sRGB"><feGaussianBlur id="feGaussianBlur3796-2-7" stdDeviation="5.28"/></filter><clipPath id="clipPath3613-2-16"><rect id="rect3615-3-5" width="84" height="84" x="6" y="6" fill="#fff" rx="6" ry="6"/></clipPath><filter id="filter3174-35-2" color-interpolation-filters="sRGB"><feGaussianBlur id="feGaussianBlur3176-3-31" stdDeviation="1.71"/></filter><filter id="filter3794-91-2" width="1.384" height="1.384" x="-.192" y="-.192" color-interpolation-filters="sRGB"><feGaussianBlur id="feGaussianBlur3796-7-1" stdDeviation="5.28"/></filter><clipPath id="clipPath3613-8-7"><rect id="rect3615-8-2" width="84" height="84" x="6" y="6" fill="#fff" rx="6" ry="6"/></clipPath><filter id="filter3174-4-3" color-interpolation-filters="sRGB"><feGaussianBlur id="feGaussianBlur3176-37-5" stdDeviation="1.71"/></filter><filter id="filter3794-4-7" width="1.384" height="1.384" x="-.192" y="-.192" color-interpolation-filters="sRGB"><feGaussianBlur id="feGaussianBlur3796-9-18" stdDeviation="5.28"/></filter><clipPath id="clipPath3613-9-3"><rect id="rect3615-1-53" width="84" height="84" x="6" y="6" fill="#fff" rx="6" ry="6"/></clipPath><style id="style5970-59" type="text/css"/><style id="style5970-0-2" type="text/css"/><style id="style5970-7-7" type="text/css"/></defs><g id="layer2" display="none" transform="matrix(13.4 0 0 13.4 -1705.8 -834.03)"><rect id="rect3745" width="86" height="85" x="5" y="7" fill="url(#linearGradient7062)" filter="url(#filter3174)" opacity=".9" rx="6" ry="6"/></g><g id="layer5" display="none" transform="matrix(13.4 0 0 13.4 -1705.8 -834.03)"><rect id="rect3171" width="66" height="66" x="15" y="15" fill="url(#linearGradient3613)" stroke="#fff" stroke-linecap="round" stroke-width=".5" clip-path="url(#clipPath3613)" filter="url(#filter3794)" opacity=".1" rx="12" ry="12"/></g><g id="layer2-5" display="none" transform="translate(-118.36 -21.072)"><rect id="rect3745-0" width="86" height="85" x="5" y="7" fill="url(#linearGradient7062)" filter="url(#filter3174-8)" opacity=".9" rx="6" ry="6"/></g><g id="layer2-8" display="none" transform="matrix(13.4 0 0 13.4 -1708.9 -839.43)"><rect id="rect3745-3" width="86" height="85" x="5" y="7" fill="url(#linearGradient7062)" filter="url(#filter3174-3)" opacity=".9" rx="6" ry="6"/></g><g id="layer5-5" display="none" transform="matrix(13.4 0 0 13.4 -1708.9 -839.43)"><rect id="rect3171-2" width="66" height="66" x="15" y="15" fill="url(#linearGradient3613)" stroke="#fff" stroke-linecap="round" stroke-width=".5" clip-path="url(#clipPath3613-1)" filter="url(#filter3794-0)" opacity=".1" rx="12" ry="12"/></g><g id="layer2-3" display="none" transform="matrix(13.4 0 0 13.4 -1693.5 -882.16)"><rect id="rect3745-6" width="86" height="85" x="5" y="7" fill="url(#linearGradient7062)" filter="url(#filter3174-0)" opacity=".9" rx="6" ry="6"/></g><g id="layer5-3" display="none" transform="matrix(13.4 0 0 13.4 -1693.5 -882.16)"><rect id="rect3171-7" width="66" height="66" x="15" y="15" fill="url(#linearGradient3613)" stroke="#fff" stroke-linecap="round" stroke-width=".5" clip-path="url(#clipPath3613-2)" filter="url(#filter3794-9)" opacity=".1" rx="12" ry="12"/></g><g id="layer2-5-4" display="none" transform="translate(-106.08 -69.206)"><rect id="rect3745-0-9" width="86" height="85" x="5" y="7" fill="url(#linearGradient7062)" filter="url(#filter3174-8-3)" opacity=".9" rx="6" ry="6"/></g><g id="layer2-33" display="none" transform="matrix(13.4 0 0 13.4 -1500.2 -968.07)"><rect id="rect3745-1" width="86" height="85" x="5" y="7" fill="url(#linearGradient7062)" filter="url(#filter3174-35)" opacity=".9" rx="6" ry="6"/></g><g id="layer5-6" display="none" transform="matrix(13.4 0 0 13.4 -1500.2 -968.07)"><rect id="rect3171-4" width="66" height="66" x="15" y="15" fill="url(#linearGradient3613)" stroke="#fff" stroke-linecap="round" stroke-width=".5" clip-path="url(#clipPath3613-8)" filter="url(#filter3794-91)" opacity=".1" rx="12" ry="12"/></g><g id="layer2-58" display="none" transform="matrix(13.4 0 0 13.4 -1659.8 -887.77)"><rect id="rect3745-7" width="86" height="85" x="5" y="7" fill="url(#linearGradient7062)" filter="url(#filter3174-4)" opacity=".9" rx="6" ry="6"/></g><g id="layer5-0" display="none" transform="matrix(13.4 0 0 13.4 -1659.8 -887.77)"><rect id="rect3171-9" width="66" height="66" x="15" y="15" fill="url(#linearGradient3613)" stroke="#fff" stroke-linecap="round" stroke-width=".5" clip-path="url(#clipPath3613-9)" filter="url(#filter3794-4)" opacity=".1" rx="12" ry="12"/></g><g id="layer2-0" display="none" transform="matrix(13.4 0 0 13.4 -1705.8 -834.03)"><rect id="rect3745-9" width="86" height="85" x="5" y="7" fill="url(#linearGradient7062)" filter="url(#filter3174-83)" opacity=".9" rx="6" ry="6"/></g><g id="layer5-2" display="none" transform="matrix(13.4 0 0 13.4 -1705.8 -834.03)"><rect id="rect3171-42" width="66" height="66" x="15" y="15" fill="url(#linearGradient3613)" stroke="#fff" stroke-linecap="round" stroke-width=".5" clip-path="url(#clipPath3613-89)" filter="url(#filter3794-42)" opacity=".1" rx="12" ry="12"/></g><g id="layer2-5-8" display="none" transform="translate(-118.36 -21.072)"><rect id="rect3745-0-1" width="86" height="85" x="5" y="7" fill="url(#linearGradient7062)" filter="url(#filter3174-8-0)" opacity=".9" rx="6" ry="6"/></g><g id="layer2-8-4" display="none" transform="matrix(13.4 0 0 13.4 -1708.9 -839.43)"><rect id="rect3745-3-6" width="86" height="85" x="5" y="7" fill="url(#linearGradient7062)" filter="url(#filter3174-3-1)" opacity=".9" rx="6" ry="6"/></g><g id="layer5-5-6" display="none" transform="matrix(13.4 0 0 13.4 -1708.9 -839.43)"><rect id="rect3171-2-2" width="66" height="66" x="15" y="15" fill="url(#linearGradient3613)" stroke="#fff" stroke-linecap="round" stroke-width=".5" clip-path="url(#clipPath3613-1-4)" filter="url(#filter3794-0-4)" opacity=".1" rx="12" ry="12"/></g><g id="layer2-3-6" display="none" transform="matrix(13.4 0 0 13.4 -1693.5 -882.16)"><rect id="rect3745-6-3" width="86" height="85" x="5" y="7" fill="url(#linearGradient7062)" filter="url(#filter3174-0-1)" opacity=".9" rx="6" ry="6"/></g><g id="layer5-3-8" display="none" transform="matrix(13.4 0 0 13.4 -1693.5 -882.16)"><rect id="rect3171-7-6" width="66" height="66" x="15" y="15" fill="url(#linearGradient3613)" stroke="#fff" stroke-linecap="round" stroke-width=".5" clip-path="url(#clipPath3613-2-1)" filter="url(#filter3794-9-0)" opacity=".1" rx="12" ry="12"/></g><g id="layer2-5-4-8" display="none" transform="translate(-106.08 -69.206)"><rect id="rect3745-0-9-1" width="86" height="85" x="5" y="7" fill="url(#linearGradient7062)" filter="url(#filter3174-8-3-9)" opacity=".9" rx="6" ry="6"/></g><g id="layer2-33-9" display="none" transform="matrix(13.4 0 0 13.4 -1500.2 -968.07)"><rect id="rect3745-1-1" width="86" height="85" x="5" y="7" fill="url(#linearGradient7062)" filter="url(#filter3174-35-0)" opacity=".9" rx="6" ry="6"/></g><g id="layer5-6-6" display="none" transform="matrix(13.4 0 0 13.4 -1500.2 -968.07)"><rect id="rect3171-4-2" width="66" height="66" x="15" y="15" fill="url(#linearGradient3613)" stroke="#fff" stroke-linecap="round" stroke-width=".5" clip-path="url(#clipPath3613-8-0)" filter="url(#filter3794-91-1)" opacity=".1" rx="12" ry="12"/></g><g id="layer2-58-6" display="none" transform="matrix(13.4 0 0 13.4 -1659.8 -887.77)"><rect id="rect3745-7-0" width="86" height="85" x="5" y="7" fill="url(#linearGradient7062)" filter="url(#filter3174-4-2)" opacity=".9" rx="6" ry="6"/></g><g id="layer5-0-0" display="none" transform="matrix(13.4 0 0 13.4 -1659.8 -887.77)"><rect id="rect3171-9-9" width="66" height="66" x="15" y="15" fill="url(#linearGradient3613)" stroke="#fff" stroke-linecap="round" stroke-width=".5" clip-path="url(#clipPath3613-9-2)" filter="url(#filter3794-4-3)" opacity=".1" rx="12" ry="12"/></g><g id="layer2-7" display="none" transform="matrix(13.4 0 0 13.4 -1705.8 -834.03)"><rect id="rect3745-97" width="86" height="85" x="5" y="7" fill="url(#linearGradient7062)" filter="url(#filter3174-04)" opacity=".9" rx="6" ry="6"/></g><g id="layer5-8" display="none" transform="matrix(13.4 0 0 13.4 -1705.8 -834.03)"><rect id="rect3171-6" width="66" height="66" x="15" y="15" fill="url(#linearGradient3613)" stroke="#fff" stroke-linecap="round" stroke-width=".5" clip-path="url(#clipPath3613-95)" filter="url(#filter3794-8)" opacity=".1" rx="12" ry="12"/></g><g id="layer2-5-0" display="none" transform="translate(-118.36 -21.072)"><rect id="rect3745-0-4" width="86" height="85" x="5" y="7" fill="url(#linearGradient7062)" filter="url(#filter3174-8-5)" opacity=".9" rx="6" ry="6"/></g><g id="layer2-8-3" display="none" transform="matrix(13.4 0 0 13.4 -1708.9 -839.43)"><rect id="rect3745-3-4" width="86" height="85" x="5" y="7" fill="url(#linearGradient7062)" filter="url(#filter3174-3-5)" opacity=".9" rx="6" ry="6"/></g><g id="layer5-5-0" display="none" transform="matrix(13.4 0 0 13.4 -1708.9 -839.43)"><rect id="rect3171-2-4" width="66" height="66" x="15" y="15" fill="url(#linearGradient3613)" stroke="#fff" stroke-linecap="round" stroke-width=".5" clip-path="url(#clipPath3613-1-3)" filter="url(#filter3794-0-6)" opacity=".1" rx="12" ry="12"/></g><g id="layer2-3-61" display="none" transform="matrix(13.4 0 0 13.4 -1693.5 -882.16)"><rect id="rect3745-6-39" width="86" height="85" x="5" y="7" fill="url(#linearGradient7062)" filter="url(#filter3174-0-3)" opacity=".9" rx="6" ry="6"/></g><g id="layer5-3-7" display="none" transform="matrix(13.4 0 0 13.4 -1693.5 -882.16)"><rect id="rect3171-7-2" width="66" height="66" x="15" y="15" fill="url(#linearGradient3613)" stroke="#fff" stroke-linecap="round" stroke-width=".5" clip-path="url(#clipPath3613-2-2)" filter="url(#filter3794-9-5)" opacity=".1" rx="12" ry="12"/></g><g id="layer2-5-4-2" display="none" transform="translate(-106.08 -69.206)"><rect id="rect3745-0-9-7" width="86" height="85" x="5" y="7" fill="url(#linearGradient7062)" filter="url(#filter3174-8-3-1)" opacity=".9" rx="6" ry="6"/></g><g id="layer2-33-1" display="none" transform="matrix(13.4 0 0 13.4 -1500.2 -968.07)"><rect id="rect3745-1-5" width="86" height="85" x="5" y="7" fill="url(#linearGradient7062)" filter="url(#filter3174-35-9)" opacity=".9" rx="6" ry="6"/></g><g id="layer5-6-4" display="none" transform="matrix(13.4 0 0 13.4 -1500.2 -968.07)"><rect id="rect3171-4-0" width="66" height="66" x="15" y="15" fill="url(#linearGradient3613)" stroke="#fff" stroke-linecap="round" stroke-width=".5" clip-path="url(#clipPath3613-8-09)" filter="url(#filter3794-91-5)" opacity=".1" rx="12" ry="12"/></g><g id="layer2-58-7" display="none" transform="matrix(13.4 0 0 13.4 -1659.8 -887.77)"><rect id="rect3745-7-7" width="86" height="85" x="5" y="7" fill="url(#linearGradient7062)" filter="url(#filter3174-4-5)" opacity=".9" rx="6" ry="6"/></g><g id="layer5-0-07" display="none" transform="matrix(13.4 0 0 13.4 -1659.8 -887.77)"><rect id="rect3171-9-2" width="66" height="66" x="15" y="15" fill="url(#linearGradient3613)" stroke="#fff" stroke-linecap="round" stroke-width=".5" clip-path="url(#clipPath3613-9-7)" filter="url(#filter3794-4-2)" opacity=".1" rx="12" ry="12"/></g><rect id="rect3745-35" width="86" height="85" x="5" y="7" fill="url(#linearGradient7062)" display="none" filter="url(#filter3174-9)" opacity=".9" rx="6" ry="6" transform="matrix(4.6213 0 0 4.6213 -1249.2 -220.89)"/><path id="rect7705" fill="url(#linearGradient3287)" d="m11.281 7c-3.482 0-6.281 2.7531-6.281 6.156v30.688c0 2.528 1.5572 4.712 3.7812 5.656-2.224 0.944-3.7812 3.128-3.7812 5.656v30.688c0 3.403 2.799 6.156 6.281 6.156h31.438c2.218 0 4.163-1.126 5.281-2.812 1.118 1.686 3.063 2.812 5.281 2.812h31.438c3.482 0 6.281-2.753 6.281-6.156v-30.688c0-3.403-2.799-6.156-6.281-6.156h-31.438c-2.218 0-4.163 1.126-5.281 2.812-0.667-1.006-1.644-1.829-2.781-2.312 2.224-0.944 3.781-3.128 3.781-5.656v-30.688c0-3.4029-2.799-6.156-6.281-6.156h-31.438z" display="none" filter="url(#filter7725)" opacity=".9" transform="matrix(3.1178 0 0 3.1178 -1834.7 -105.38)"/><rect id="rect2419" width="261.9" height="261.9" x="-1816" y="-86.668" fill="url(#linearGradient3393)" display="none" rx="18.707" ry="18.707"/><path id="rect3728" fill="url(#linearGradient3390)" d="m-1797.3-86.668c-10.364 0-18.707 8.3433-18.707 18.707v6.2357 212.01 6.2357c0 1.0436 0.1289 2.0288 0.2923 3.0204 0.1518 0.92162 0.3025 1.8611 0.5846 2.7281 0.031 0.0947 0.065 0.1983 0.097 0.2923 0.3082 0.89722 0.7323 1.7069 1.1692 2.5332 0.4508 0.85275 0.984 1.67 1.5589 2.4358 0.5749 0.76585 1.1654 1.4762 1.8512 2.1435 1.3717 1.3346 2.9398 2.5396 4.6768 3.4101 0.8684 0.43529 1.788 0.76994 2.7281 1.0718-0.7988-0.31248-1.5175-0.73666-2.241-1.1692-0.023-0.0137-0.074 0.014-0.097 0-0.1-0.0602-0.1942-0.13254-0.2923-0.19487-0.3753-0.23914-0.7203-0.50981-1.0717-0.77946-0.331-0.25192-0.665-0.50232-0.9743-0.77946-0.5548-0.50332-1.0834-1.0769-1.559-1.6564-0.3354-0.40611-0.6809-0.82711-0.9743-1.2666-0.078-0.11966-0.1198-0.26773-0.1948-0.38973-0.202-0.32124-0.4061-0.63765-0.5847-0.97432-0.3149-0.60706-0.6412-1.2961-0.8768-1.9486-0.025-0.068-0.073-0.12643-0.097-0.19487-0.099-0.28668-0.1117-0.5825-0.1949-0.87689-0.095-0.33241-0.2195-0.63301-0.2923-0.97432-0.2272-1.0648-0.3897-2.1769-0.3897-3.3127v-6.2357-212.01-6.2357c0-8.6733 6.9158-15.589 15.589-15.589h6.2356 212.01 6.2357c8.6734 0 15.589 6.9158 15.589 15.589v6.2357 212.01 6.2357c0 1.1358-0.1625 2.2479-0.3897 3.3127-0.1377 0.64506-0.2756 1.2398-0.4872 1.8512-0.024 0.0684-0.073 0.12687-0.097 0.19487-0.1956 0.54169-0.4314 1.1456-0.682 1.6564-0.1297 0.25816-0.2464 0.52989-0.3897 0.77946-0.1703 0.30308-0.3953 0.58724-0.5846 0.87689-0.2935 0.43951-0.6389 0.86051-0.9744 1.2666-0.4464 0.54391-0.9451 1.0819-1.4614 1.5589-0.035 0.0318-0.062 0.0659-0.097 0.0974-0.4315 0.39147-0.8889 0.73094-1.3641 1.0718-0.3198 0.22807-0.637 0.47816-0.9743 0.68203-0.023 0.014-0.074-0.0137-0.097 0-0.7235 0.43253-1.4422 0.85671-2.241 1.1692 0.9401-0.30181 1.8597-0.63647 2.7281-1.0718 1.7369-0.87058 3.3051-2.0755 4.6768-3.4101 0.6858-0.6673 1.2763-1.3777 1.8512-2.1435 0.5749-0.76585 1.1081-1.5831 1.5589-2.4358 0.4369-0.82637 0.861-1.636 1.1692-2.5332 0.033-0.096 0.066-0.19561 0.097-0.2923 0.2821-0.86702 0.4328-1.8065 0.5846-2.7281 0.1634-0.99162 0.2923-1.9768 0.2923-3.0204v-6.2357-212.01-6.2357c0-10.364-8.3433-18.707-18.707-18.707h-224.48z" display="none" opacity=".5"/><g id="layer2-83" display="none" transform="matrix(13.4 0 0 13.4 -1705.8 -834.03)"><rect id="rect3745-4" width="86" height="85" x="5" y="7" fill="url(#linearGradient7062)" filter="url(#filter3174-5)" opacity=".9" rx="6" ry="6"/></g><g id="layer5-38" display="none" transform="matrix(13.4 0 0 13.4 -1705.8 -834.03)"><rect id="rect3171-1" width="66" height="66" x="15" y="15" fill="url(#linearGradient3613)" stroke="#fff" stroke-linecap="round" stroke-width=".5" clip-path="url(#clipPath3613-4)" filter="url(#filter3794-6)" opacity=".1" rx="12" ry="12"/></g><g id="layer2-5-7" display="none" transform="translate(-118.36 -21.072)"><rect id="rect3745-0-48" width="86" height="85" x="5" y="7" fill="url(#linearGradient7062)" filter="url(#filter3174-8-59)" opacity=".9" rx="6" ry="6"/></g><g id="layer2-8-2" display="none" transform="matrix(13.4 0 0 13.4 -1708.9 -839.43)"><rect id="rect3745-3-8" width="86" height="85" x="5" y="7" fill="url(#linearGradient7062)" filter="url(#filter3174-3-57)" opacity=".9" rx="6" ry="6"/></g><g id="layer5-5-7" display="none" transform="matrix(13.4 0 0 13.4 -1708.9 -839.43)"><rect id="rect3171-2-0" width="66" height="66" x="15" y="15" fill="url(#linearGradient3613)" stroke="#fff" stroke-linecap="round" stroke-width=".5" clip-path="url(#clipPath3613-1-9)" filter="url(#filter3794-0-0)" opacity=".1" rx="12" ry="12"/></g><g id="layer2-3-3" display="none" transform="matrix(13.4 0 0 13.4 -1693.5 -882.16)"><rect id="rect3745-6-2" width="86" height="85" x="5" y="7" fill="url(#linearGradient7062)" filter="url(#filter3174-0-5)" opacity=".9" rx="6" ry="6"/></g><g id="layer5-3-6" display="none" transform="matrix(13.4 0 0 13.4 -1693.5 -882.16)"><rect id="rect3171-7-9" width="66" height="66" x="15" y="15" fill="url(#linearGradient3613)" stroke="#fff" stroke-linecap="round" stroke-width=".5" clip-path="url(#clipPath3613-2-16)" filter="url(#filter3794-9-2)" opacity=".1" rx="12" ry="12"/></g><g id="layer2-5-4-7" display="none" transform="translate(-106.08 -69.206)"><rect id="rect3745-0-9-3" width="86" height="85" x="5" y="7" fill="url(#linearGradient7062)" filter="url(#filter3174-8-3-92)" opacity=".9" rx="6" ry="6"/></g><g id="layer2-33-3" display="none" transform="matrix(13.4 0 0 13.4 -1500.2 -968.07)"><rect id="rect3745-1-8" width="86" height="85" x="5" y="7" fill="url(#linearGradient7062)" filter="url(#filter3174-35-2)" opacity=".9" rx="6" ry="6"/></g><g id="layer5-6-7" display="none" transform="matrix(13.4 0 0 13.4 -1500.2 -968.07)"><rect id="rect3171-4-3" width="66" height="66" x="15" y="15" fill="url(#linearGradient3613)" stroke="#fff" stroke-linecap="round" stroke-width=".5" clip-path="url(#clipPath3613-8-7)" filter="url(#filter3794-91-2)" opacity=".1" rx="12" ry="12"/></g><g id="layer2-58-8" display="none" transform="matrix(13.4 0 0 13.4 -1659.8 -887.77)"><rect id="rect3745-7-9" width="86" height="85" x="5" y="7" fill="url(#linearGradient7062)" filter="url(#filter3174-4-3)" opacity=".9" rx="6" ry="6"/></g><g id="layer5-0-1" display="none" transform="matrix(13.4 0 0 13.4 -1659.8 -887.77)"><rect id="rect3171-9-6" width="66" height="66" x="15" y="15" fill="url(#linearGradient3613)" stroke="#fff" stroke-linecap="round" stroke-width=".5" clip-path="url(#clipPath3613-9-3)" filter="url(#filter3794-4-7)" opacity=".1" rx="12" ry="12"/></g><g id="g3645" transform="translate(466.92958,-376.78873)"><path id="rect2986" d="m -440.92958,376.78873 c -14.397,0 -26,11.603 -26,26 l 0,460 c 0,14.397 11.603,26 26,26 l 460.000003,0 c 14.397,0 26,-11.603 26,-26 l 0,-460 c 0,-14.397 -11.6,-26 -26,-26 l -460.000003,0 z" style="fill:#e84d40"/><path id="path3267" d="m -305.08958,474.47273 0,18.676 0,32.81 -120.84,0 0,58.42 15.203,15.2 -15.203,0 0,191.53 97.68,97.68 347.320003,0 c 14.4,0 26,-11.6 26,-26 l 0,-295.83 -41.0000005,-41 -69.3599995,0 -51.480003,-51.486 -169.65,0 -18.67,0 z" style="opacity:.25"/><path id="rect3140" d="m -305.08958,474.47273 0,18.672 0,32.81 -120.84,0 0,58.418 179.52,0 0,-32.543 70.955,0 0,32.543 179.5200025,0 0,-58.418 -120.8400025,0 0,-51.483 -169.65,0 -18.672,0 z m 18.672,18.672 150.98,0 0,32.81 -150.98,0 0,-32.81 z m -139.51,106.43 0,191.53 430.0000025,0 0,-191.53 -179.5200025,0 0,39.746 -70.955,0 0,-39.746 -179.52,0 z m 44.547,80.825 340.640003,0 0,27.208 -340.640003,0 0,-27.208 z m 0,45.081 340.640003,0 0,27.208 -340.640003,0 0,-27.208 z" style="fill:#fff"/></g></svg>