<?xml version="1.0" encoding="UTF-8" standalone="no"?>
<svg id="svg2" xmlns:rdf="http://www.w3.org/1999/02/22-rdf-syntax-ns#" xmlns="http://www.w3.org/2000/svg" height="100%" viewBox="0 0 512 512" width="100%" version="1.1" xmlns:cc="http://creativecommons.org/ns#" xmlns:xlink="http://www.w3.org/1999/xlink" xmlns:dc="http://purl.org/dc/elements/1.1/">
 <metadata id="metadata10">
  <rdf:RDF>
   <cc:Work rdf:about="">
    <dc:format>image/svg+xml</dc:format>
    <dc:type rdf:resource="http://purl.org/dc/dcmitype/StillImage"/>
    <dc:title/>
   </cc:Work>
  </rdf:RDF>
 </metadata>
 <defs id="defs8">
  <linearGradient id="linearGradient4216-1">
   <stop id="stop4218-0" stop-color="#fff" offset="0"/>
   <stop id="stop4220-2" stop-color="#e8e8e8" offset=".6875"/>
   <stop id="stop4222-6" stop-color="#686868" offset=".875"/>
   <stop id="stop4224-6" offset="1"/>
  </linearGradient>
  <radialGradient id="radialGradient21305" cx="64" xlink:href="#linearGradient4216-1" gradientUnits="userSpaceOnUse" cy="64" r="64" gradientTransform="matrix(4.1658 0 0 3.8875 -39.924 -73.947)"/>
  <radialGradient id="radialGradient21305-0" xlink:href="#linearGradient4216-1" gradientUnits="userSpaceOnUse" cy="64" cx="64" gradientTransform="matrix(4.1658 0 0 3.8875 1383.5 -189.35)" r="64"/>
  <linearGradient id="ButtonShadow" y2="7.0165" gradientUnits="userSpaceOnUse" x2="45.448" gradientTransform="scale(1.0059 .99417)" y1="92.54" x1="45.448">
   <stop id="stop3750-1" offset="0"/>
   <stop id="stop3752-6" stop-opacity=".58824" offset="1"/>
  </linearGradient>
  <filter id="filter3174" color-interpolation-filters="sRGB">
   <feGaussianBlur id="feGaussianBlur3176" stdDeviation="1.71"/>
  </filter>
 </defs>
 <path id="path4230" d="m273.04 165.47c-2.1202 7.3447-36.402 181.33-29.267 189.98 6.1765 7.4828 15.826 4.2405 17.946-3.1042-2.1202 7.3447-6.3607 22.034-8.4809 29.379-17.946 3.1042-33.92-0.81668-37.444-17.946-4.0713-19.793 27.134-182.59 29.267-189.98-4.7411-8.958-29.531-15.826-33.772-1.1362l-7.9128-2.1202c18.514-34.603 53.838-9.3127 69.663-5.0722z" display="none"/>
 <path id="path4232" d="m250.86 183.26c-26.427 32.483-124.22 164.54-147.96 158.17l-15.826-4.2405 12.153-12.569 7.9128 2.1202c15.826 4.2405 123.65-133.04 140.05-160.3 12.573-20.906 3.6724 16.81 3.6724 16.81z" display="none"/>
 <path id="path4234" d="m187.97 253.45 47.477 12.721-4.2405 14.689-55.39-14.842z" display="none"/>
 <ellipse id="path3281-0-0" rx="266.61" transform="matrix(.96593 .25882 -.27735 .96077 0 0)" ry="248.8" cy="174.85" cx="226.69" display="none" fill="url(#radialGradient21305)"/>
 <path id="path4230-0" d="m273.04 165.47c-2.1202 7.3447-36.402 181.33-29.267 189.98 6.1765 7.4828 15.826 4.2405 17.946-3.1042-2.1202 7.3447-6.3607 22.034-8.4809 29.379-17.946 3.1042-33.92-0.81668-37.444-17.946-4.0713-19.793 27.134-182.59 29.267-189.98-4.7411-8.958-29.531-15.826-33.772-1.1362l-7.9128-2.1202c18.514-34.603 53.838-9.3127 69.663-5.0722z" display="none"/>
 <path id="path4232-1" d="m250.86 183.26c-26.427 32.483-124.22 164.54-147.96 158.17l-15.826-4.2405 12.153-12.569 7.9128 2.1202c15.826 4.2405 123.65-133.04 140.05-160.3 12.573-20.906 3.6724 16.81 3.6724 16.81z" display="none"/>
 <path id="path4234-6" d="m187.97 253.45 47.477 12.721-4.2405 14.689-55.39-14.842z" display="none"/>
 <ellipse id="path3281-0-0-1" rx="266.61" transform="matrix(.96593 .25882 -.27735 .96077 0 0)" ry="248.8" cy="174.85" cx="226.69" display="none" fill="url(#radialGradient21305)"/>
 <path id="path4230-8" d="m1680 423c-2.1203 7.3447-36.402 181.33-29.267 189.98 6.1765 7.4828 15.826 4.2405 17.946-3.1042-2.1203 7.3447-6.3607 22.034-8.481 29.379-17.946 3.1042-33.92-0.81668-37.444-17.946-4.0713-19.793 27.134-182.59 29.267-189.98-4.7412-8.958-29.531-15.826-33.772-1.1362l-7.9128-2.1202c18.514-34.603 53.838-9.3127 69.663-5.0722z" display="none"/>
 <path id="path4232-9" d="m1657.8 440.8c-26.427 32.483-124.22 164.54-147.96 158.17l-15.826-4.2405 12.153-12.569 7.9128 2.1202c15.826 4.2405 123.65-133.04 140.05-160.3 12.573-20.906 3.6723 16.81 3.6723 16.81z" display="none"/>
 <path id="path4234-5" d="m1594.9 510.99 47.477 12.721-4.2405 14.689-55.39-14.842z" display="none"/>
 <ellipse id="path3281-0-0-6" rx="266.61" transform="matrix(.96593 .25882 -.27735 .96077 0 0)" ry="248.8" cy="59.452" cx="1650.1" display="none" fill="url(#radialGradient21305-0)"/>
 <g id="layer2" display="none" transform="matrix(6.7274 0 0 6.7274 -2789.7 -809.34)">
  <rect id="rect3745" opacity=".9" rx="6" ry="6" height="85" filter="url(#filter3174)" width="86" y="7" x="5" fill="url(#ButtonShadow)"/>
 </g>
 <path id="rect2986" d="m26 0c-14.397 0-26 11.603-26 26v460c0 14.397 11.603 26 26 26h460c14.397 0 26-11.603 26-26v-460c0-14.397-11.603-26-26-26h-460z" fill="#de7f17"/>
 <path id="path74181" opacity=".25" d="m255.79 41c-32.928 0-46.984 2.2245-72.438 11.438-71.607 25.921-122.83 85.225-139.45 161.51-3.7719 17.309-3.823 65.441-0.0898 83.965 1.4324 7.1046 3.8624 19.376 5.3809 27.27s4.6247 24.04 6.9082 35.881c2.2821 11.841 5.6822 29.441 7.5352 39.111l3.3652 17.582 33.035 33.035c0.55349 2.9795 1.458 7.898 1.6348 8.8125 0.40762 2.1084 2.2944 5.5505 4.2148 7.623l3.5 3.7676 41.006 41.006h335.61c14.397 0 26-11.603 26-26v-278.98l-103.38-103.39c-22.54-22.528-50.08-40.268-80.41-51.245-25.43-9.207-39.51-11.393-72.43-11.393l-0.002-0.002z"/>
 <path id="path72713" fill="#fff" d="m255.79 41c-32.928 0-46.984 2.2245-72.438 11.438-71.607 25.921-122.83 85.225-139.45 161.51-3.7719 17.309-3.823 65.441-0.0898 83.965 1.4324 7.1046 3.8624 19.376 5.3809 27.27s4.6247 24.04 6.9082 35.881c2.2821 11.841 5.6822 29.441 7.5352 39.111l3.3652 17.582h13.186c11.354 0 13.329 0.35308 13.949 2.5117 0.39613 1.3807 2.1012 9.9395 3.7676 19.018 1.6663 9.078 3.36 18.21 3.7676 20.318 0.40762 2.1084 2.2944 5.5505 4.2148 7.623l3.5 3.7676 37.811-0.44726c6.496-0.0732 10.674-0.15428 15.16-0.22461l-34.76-180.89c-20.085 6.229-45.957 16.775-51.266 24.266-1.0406 2.5404-1.2204 2.4119-1.3008-0.98828-0.0502-2.1127-1.2843-10.187-2.7812-17.941-1.4984-7.7548-3.1758-19.735-3.7226-26.643l-0.98633-12.559h0.76172c0.482-103.25 84.336-186.81 187.71-186.81 51.684 0 98.488 20.891 132.43 54.688-33.95-33.79-80.74-54.671-132.41-54.671l-0.006-0.008c-103.37 0-187.22 83.561-187.7 186.81h17.41c9.9894 0 19.383-0.66616 20.9-1.4785 4.0073-2.1443 6.5705-8.1075 7.6699-17.852 3.3858-30.021 17.635-58.104 41.623-81.939 28.569-28.395 59.69-41.219 99.879-41.219 21.572 0 35.794 2.6738 54.182 10.182 37.918 15.474 68.936 49.686 81.738 87.914-0.28851-0.85589-0.5802-1.7105-0.88672-2.5625 0.31376 0.87227 0.61137 1.749 0.90625 2.625 2.7418 8.2009 4.6618 16.583 5.6133 25.008 1.0994 9.7455 3.6627 15.705 7.6699 17.85 1.5185 0.81236 10.911 1.4805 20.902 1.4805h17.807c-0.00003-0.008 0.00004-0.0156 0-0.0234h0.33789l-0.44922 5.832c-0.006 0.2023-0.0153 0.40333-0.0215 0.60547l-0.49219 6.1426c-0.1733 2.1942-0.4475 4.9524-0.80664 7.875h-0.0234c-0.77073 6.2721-1.8955 13.462-2.916 18.744-1.4984 7.7547-2.7759 15.832-2.8262 17.941-0.0804 3.4002-0.21529 3.5268-1.2559 0.98633-4.6373-10.654-34.117-18.642-51.445-23.322l-0.002 0.0117c-2.2852-0.61752-5.0729-1.3783-6.8106-1.8711-7.3844-2.1328-12.874-3.3179-17.537-3.2734l-0.01-0.006c-0.63081 0.006-1.2441 0.0406-1.8477 0.0937-0.0285 0.003-0.0575 0.005-0.0859 0.008-0.0987 0.009-0.19884 0.015-0.29688 0.0254-4.9633 0.52571-9.1193 2.7185-13.961 7.0918-3.0098 2.7198-6.1402 6.9966-6.9512 9.5098-0.81092 2.5132-4.9531 22.978-9.2402 45.48-4.2857 22.498-8.2227 42.843-8.6992 45.211-0.47938 2.3682-1.1522 6.2432-1.5254 8.6113-0.37173 2.3682-2.3784 12.662-4.4395 22.92-2.3582 11.743-3.4194 20.698-2.8711 24.131 1.1166 6.9797 5.7703 14.046 12.111 18.389 0.6853 0.47001 1.3264 0.87184 2.0176 1.2227-0.19303-0.0971-0.39912-0.18327-0.58594-0.28907 1.2981 0.78476 2.8533 1.3206 5.3906 1.707 0.33066 0.0518 0.71615 0.0961 1.084 0.14257 0.32121 0.0394 0.59133 0.0872 0.94336 0.12305-0.30493-0.0315-0.52912-0.075-0.81055-0.10937 1.4118 0.17413 3.1738 0.30992 5.2715 0.42187-0.40702-0.0214-0.89881-0.0372-1.2774-0.0605 0.43757 0.0271 0.99587 0.0478 1.4727 0.0723 0.73386 0.0381 1.4775 0.0787 2.3125 0.11133 0.54605 0.0211 1.1889 0.0395 1.7812 0.0586 2.803 0.0916 5.9696 0.16858 9.9844 0.23242l0.002-0.0117c4.4807 0.0717 8.6609 0.1516 15.166 0.22461l37.811 0.44712 3.5-3.7676c1.9204-2.0725 3.8078-5.5166 4.2168-7.625 0.40762-2.1084 2.1012-11.238 3.7676-20.316 1.6663-9.0781 3.3714-17.637 3.7676-19.018 0.62004-2.1586 2.5895-2.5117 13.994-2.5117h13.232l6.9512-36.24c3.8221-19.932 7.7968-40.761 8.8359-46.287 1.0391-5.5258 3.2042-16.829 4.7988-25.117 5.4224-28.203 6.2052-37.262 5.3828-62.434-1.1252-34.438-7.4527-59.698-22.338-89.303-24.42-48.55-68.2-87.168-120.13-105.96-25.43-9.213-39.51-11.398-72.43-11.398l0.008-0.002zm101.83 244.33c0.59351-0.0546 1.1985-0.0957 1.8145-0.10156-0.61458 0-1.2222 0.0455-1.8145 0.10156zm39.72-49.08c0.19532 1.7364 0.42864 3.3421 0.71094 4.8359-0.28206-1.4936-0.51569-3.1012-0.71094-4.8359zm45.75 31.889c-0.13348 1.6965-0.33712 3.7789-0.58398 5.9648 0.25691-2.2175 0.44763-4.2382 0.58398-5.9648zm-293.79 16.156-0.008 0.002c-1.0982 0.0758-2.4927 0.27437-4.1016 0.57226-0.13866 0.0256-0.30045 0.0604-0.44336 0.0879-0.0828 0.0159-0.17195 0.0344-0.25586 0.0508-0.9959 0.19451-2.0639 0.42309-3.207 0.6875-0.024 0.006-0.0463 0.012-0.0703 0.0176-0.0821 0.0191-0.15552 0.0333-0.23828 0.0527-3.8437 0.89986-8.4098 2.1586-13.342 3.6895l34.762 180.89c4.613-0.0732 8.205-0.16105 11.248-0.27344 0.0373-0.001 0.0821-0.003 0.11914-0.004 0.0102-0.00037 0.0171-0.002 0.0273-0.002 1.2256-0.0459 2.3167-0.10077 3.334-0.1582 0.32748-0.0184 0.68236-0.0369 0.99024-0.0566-0.24027 0.0153-0.51182 0.0285-0.76368 0.043 0.25187-0.0147 0.52371-0.0274 0.76368-0.043 0.0173-0.001 0.0296-0.003 0.0469-0.004 0.8465-0.0551 1.6293-0.11848 2.3398-0.18555 0.003-0.00025 0.005 0.00026 0.008 0 0.3407-0.0322 0.66964-0.0663 0.98242-0.10156-0.14879 0.0167-0.25714 0.0387-0.41211 0.0547 0.20868-0.0212 0.36676-0.0479 0.56445-0.0703 0.71854-0.0833 1.4464-0.16721 2.0352-0.26954 0.25039-0.0435 0.48634-0.0894 0.71679-0.13671 0.17863-0.036 0.3561-0.073 0.52344-0.11133 0.1257-0.0292 0.2471-0.0612 0.36719-0.0918 0.23286-0.0586 0.45737-0.11969 0.66992-0.18359 0.0766-0.0232 0.15405-0.0464 0.22852-0.0703 0.24529-0.0785 0.47896-0.16138 0.70117-0.24804 0.0478-0.0184 0.0975-0.0359 0.14453-0.0547 0.15926-0.0647 0.31326-0.13186 0.46289-0.20117 0.89597-0.40327 1.6811-0.88189 2.5312-1.4648 6.1142-4.1924 10.77-11.093 12.021-17.762 0.56693-3.0241-0.20492-10.884-1.9746-19.869-1.6132-8.1896-3.2496-16.829-3.6328-19.197-0.38321-2.3682-3.6001-19.484-7.1309-38.035s-6.761-35.667-7.1758-38.035c-3.9025-22.247-5.7039-30.49-7.4004-33.771-4.257-8.2327-16.348-15.715-25.432-15.744zm213.83 1.1113c0.62865 0.0675 1.2646 0.16906 1.9277 0.26953-0.66166-0.10334-1.3005-0.20064-1.9277-0.26953zm-7.9551 0.27539c-0.67691 0.14048-1.3415 0.31648-2.0039 0.5332 0.6595-0.21529 1.3254-0.39218 2.0039-0.5332zm-6.082 2.373c-0.60282 0.35164-1.1864 0.74404-1.7949 1.166 0.60425-0.42053 1.1964-0.81581 1.7949-1.166zm-25.051 180.04c0.74372 0.34834 1.5592 0.64071 2.5664 0.88477-1.0075-0.24176-1.8228-0.53976-2.5664-0.88477zm2.5742 0.88672c0.31354 0.0758 0.65243 0.14764 1.0059 0.21484-0.35536-0.0669-0.69067-0.13936-1.0059-0.21484zm1.2109 0.2539c0.14048 0.0255 0.30182 0.048 0.44922 0.0723-0.14726-0.024-0.30884-0.0471-0.44922-0.0723zm9.7676 0.81055c0.40108 0.0155 0.88272 0.0285 1.3086 0.043-0.42682-0.0143-0.90594-0.0276-1.3086-0.043z"/>
 <path id="path72717" opacity=".5" fill="#f07703" d="m256.02 68.772c-103.37 0-187.22 83.561-187.7 186.81h17.41c9.9894 0 19.383-0.6674 20.9-1.4798 4.0073-2.1443 6.5706-8.1064 7.6701-17.85 3.3858-30.021 17.635-58.104 41.623-81.939 28.569-28.395 59.691-41.219 99.88-41.219 21.572 0 35.794 2.6739 54.181 10.182 46.072 18.802 81.982 65.262 87.372 112.98 1.0994 9.7455 3.6628 15.706 7.6701 17.85 1.5185 0.81236 10.911 1.4798 20.902 1.4798h17.806c-0.48-103.24-84.34-186.8-187.7-186.8m187.62 192.64-0.53823 6.7285c-0.17366 2.1988-0.4478 4.9646-0.80805 7.894h0.40331c0.49947-4.8196 0.80805-9.6995 0.94153-14.622zm-294.36 22.875c-4.1407 0.28562-12.276 2.2462-21.658 5.1584l34.762 180.89c21.156-0.33586 23.583-0.85829 27.629-3.6327 6.1142-4.1924 10.769-11.093 12.02-17.761 0.56693-3.0241-0.20381-10.885-1.9735-19.87-1.6132-8.1896-3.2494-16.828-3.6327-19.197-0.38321-2.3682-3.6011-19.484-7.1318-38.035-3.5308-18.551-6.7615-35.666-7.1763-38.035-3.9025-22.247-5.7037-30.492-7.4002-33.773-4.257-8.2327-16.348-15.715-25.431-15.743m210.18 0.94154c-5.9951 0.056-10.642 2.2074-16.191 7.2194-3.0098 2.7198-6.1415 6.9955-6.9524 9.5086-0.81092 2.5132-4.9531 22.979-9.2402 45.481-4.2857 22.498-8.2212 42.843-8.6977 45.211-0.47938 2.3682-1.1525 6.2434-1.5257 8.6116-0.37174 2.3682-2.3797 12.662-4.4407 22.92-2.3582 11.743-3.4188 20.698-2.8705 24.131 1.1166 6.9797 5.7698 14.046 12.111 18.389 4.0431 2.7729 6.4659 3.2968 27.584 3.6327l34.633-179.94c-2.295-0.62004-5.111-1.3879-6.862-1.8845-7.3844-2.1328-12.874-3.3183-17.538-3.2738"/>
</svg>
