<svg xmlns="http://www.w3.org/2000/svg" xmlns:svg="http://www.w3.org/2000/svg" xmlns:xlink="http://www.w3.org/1999/xlink" id="svg2" width="100%" height="100%" version="1.1" viewBox="0 0 512 512"><metadata id="metadata10"/><defs id="defs8"><linearGradient id="ButtonShadow-5" x1="45.448" x2="45.448" y1="92.54" y2="7.016" gradientTransform="scale(1.0059 .99417)" gradientUnits="userSpaceOnUse"><stop id="stop3750-0" offset="0"/><stop id="stop3752-8" offset="1" stop-opacity=".588"/></linearGradient><filter id="filter3174-8" color-interpolation-filters="sRGB"><feGaussianBlur id="feGaussianBlur3176-5" stdDeviation="1.71"/></filter><linearGradient id="linearGradient3737"><stop id="stop3739" offset="0" stop-color="#fff"/><stop id="stop3741" offset="1" stop-color="#fff" stop-opacity="0"/></linearGradient><filter id="filter3174" color-interpolation-filters="sRGB"><feGaussianBlur id="feGaussianBlur3176" stdDeviation="1.71"/></filter><filter id="filter3794" width="1.384" height="1.384" x="-.192" y="-.192" color-interpolation-filters="sRGB"><feGaussianBlur id="feGaussianBlur3796" stdDeviation="5.28"/></filter><linearGradient id="linearGradient3613" x1="48" x2="48" y1="20.221" y2="138.66" gradientUnits="userSpaceOnUse" xlink:href="#linearGradient3737"/><clipPath id="clipPath3613"><rect id="rect3615" width="84" height="84" x="6" y="6" fill="#fff" rx="6" ry="6"/></clipPath><filter id="filter3174-3" color-interpolation-filters="sRGB"><feGaussianBlur id="feGaussianBlur3176-2" stdDeviation="1.71"/></filter><filter id="filter3794-0" width="1.384" height="1.384" x="-.192" y="-.192" color-interpolation-filters="sRGB"><feGaussianBlur id="feGaussianBlur3796-3" stdDeviation="5.28"/></filter><clipPath id="clipPath3613-1"><rect id="rect3615-9" width="84" height="84" x="6" y="6" fill="#fff" rx="6" ry="6"/></clipPath><filter id="filter3174-8-3" color-interpolation-filters="sRGB"><feGaussianBlur id="feGaussianBlur3176-5-8" stdDeviation="1.71"/></filter><filter id="filter3174-0" color-interpolation-filters="sRGB"><feGaussianBlur id="feGaussianBlur3176-6" stdDeviation="1.71"/></filter><filter id="filter3794-9" width="1.384" height="1.384" x="-.192" y="-.192" color-interpolation-filters="sRGB"><feGaussianBlur id="feGaussianBlur3796-2" stdDeviation="5.28"/></filter><clipPath id="clipPath3613-2"><rect id="rect3615-3" width="84" height="84" x="6" y="6" fill="#fff" rx="6" ry="6"/></clipPath><filter id="filter3174-35" color-interpolation-filters="sRGB"><feGaussianBlur id="feGaussianBlur3176-3" stdDeviation="1.71"/></filter><filter id="filter3794-91" width="1.384" height="1.384" x="-.192" y="-.192" color-interpolation-filters="sRGB"><feGaussianBlur id="feGaussianBlur3796-7" stdDeviation="5.28"/></filter><clipPath id="clipPath3613-8"><rect id="rect3615-8" width="84" height="84" x="6" y="6" fill="#fff" rx="6" ry="6"/></clipPath><filter id="filter3174-4" color-interpolation-filters="sRGB"><feGaussianBlur id="feGaussianBlur3176-37" stdDeviation="1.71"/></filter><filter id="filter3794-4" width="1.384" height="1.384" x="-.192" y="-.192" color-interpolation-filters="sRGB"><feGaussianBlur id="feGaussianBlur3796-9" stdDeviation="5.28"/></filter><clipPath id="clipPath3613-9"><rect id="rect3615-1" width="84" height="84" x="6" y="6" fill="#fff" rx="6" ry="6"/></clipPath><style id="style5970" type="text/css"/><style id="style5970-0" type="text/css"/><style id="style5970-7" type="text/css"/><linearGradient id="linearGradient9267" x1="45.448" x2="45.448" y1="92.54" y2="7.016" gradientTransform="scale(1.0059 .99417)" gradientUnits="userSpaceOnUse" xlink:href="#ButtonShadow-5"/></defs><g id="layer2" display="none" transform="matrix(13.4 0 0 13.4 -1705.8 -834.03)"><rect id="rect3745" width="86" height="85" x="5" y="7" fill="url(#linearGradient9267)" filter="url(#filter3174)" opacity=".9" rx="6" ry="6"/></g><g id="layer5" display="none" transform="matrix(13.4 0 0 13.4 -1705.8 -834.03)"><rect id="rect3171" width="66" height="66" x="15" y="15" fill="url(#linearGradient3613)" stroke="#fff" stroke-linecap="round" stroke-width=".5" clip-path="url(#clipPath3613)" filter="url(#filter3794)" opacity=".1" rx="12" ry="12"/></g><g id="layer2-5" display="none" transform="translate(-118.36 -21.072)"><rect id="rect3745-0" width="86" height="85" x="5" y="7" fill="url(#linearGradient9267)" filter="url(#filter3174-8)" opacity=".9" rx="6" ry="6"/></g><g id="layer2-8" display="none" transform="matrix(13.4 0 0 13.4 -1708.9 -839.43)"><rect id="rect3745-3" width="86" height="85" x="5" y="7" fill="url(#linearGradient9267)" filter="url(#filter3174-3)" opacity=".9" rx="6" ry="6"/></g><g id="layer5-5" display="none" transform="matrix(13.4 0 0 13.4 -1708.9 -839.43)"><rect id="rect3171-2" width="66" height="66" x="15" y="15" fill="url(#linearGradient3613)" stroke="#fff" stroke-linecap="round" stroke-width=".5" clip-path="url(#clipPath3613-1)" filter="url(#filter3794-0)" opacity=".1" rx="12" ry="12"/></g><g id="layer2-3" display="none" transform="matrix(13.4 0 0 13.4 -1693.5 -882.16)"><rect id="rect3745-6" width="86" height="85" x="5" y="7" fill="url(#linearGradient9267)" filter="url(#filter3174-0)" opacity=".9" rx="6" ry="6"/></g><g id="layer5-3" display="none" transform="matrix(13.4 0 0 13.4 -1693.5 -882.16)"><rect id="rect3171-7" width="66" height="66" x="15" y="15" fill="url(#linearGradient3613)" stroke="#fff" stroke-linecap="round" stroke-width=".5" clip-path="url(#clipPath3613-2)" filter="url(#filter3794-9)" opacity=".1" rx="12" ry="12"/></g><g id="layer2-5-4" display="none" transform="translate(-106.08 -69.206)"><rect id="rect3745-0-9" width="86" height="85" x="5" y="7" fill="url(#linearGradient9267)" filter="url(#filter3174-8-3)" opacity=".9" rx="6" ry="6"/></g><g id="layer2-33" display="none" transform="matrix(13.4 0 0 13.4 -1500.2 -968.07)"><rect id="rect3745-1" width="86" height="85" x="5" y="7" fill="url(#linearGradient9267)" filter="url(#filter3174-35)" opacity=".9" rx="6" ry="6"/></g><g id="layer5-6" display="none" transform="matrix(13.4 0 0 13.4 -1500.2 -968.07)"><rect id="rect3171-4" width="66" height="66" x="15" y="15" fill="url(#linearGradient3613)" stroke="#fff" stroke-linecap="round" stroke-width=".5" clip-path="url(#clipPath3613-8)" filter="url(#filter3794-91)" opacity=".1" rx="12" ry="12"/></g><g id="layer2-58" display="none" transform="matrix(13.4 0 0 13.4 -1659.8 -887.77)"><rect id="rect3745-7" width="86" height="85" x="5" y="7" fill="url(#linearGradient9267)" filter="url(#filter3174-4)" opacity=".9" rx="6" ry="6"/></g><g id="layer5-0" display="none" transform="matrix(13.4 0 0 13.4 -1659.8 -887.77)"><rect id="rect3171-9" width="66" height="66" x="15" y="15" fill="url(#linearGradient3613)" stroke="#fff" stroke-linecap="round" stroke-width=".5" clip-path="url(#clipPath3613-9)" filter="url(#filter3794-4)" opacity=".1" rx="12" ry="12"/></g><g id="g5464" transform="translate(370.98305,-318.91525)"><path id="rect2986" d="m -344.98305,318.91525 c -14.397,0 -26,11.603 -26,26 l 0,460 c 0,14.397 11.603,26 26,26 l 460,0 c 14.397,0 26,-11.603 26,-26 l 0,-460 c 0,-14.397 -11.6,-26 -26,-26 l -460,0 z" style="fill:#d07a27"/><path id="path111840" d="m -215.02305,380.88825 c -2.28,0.168 -2.03,1.831 -0.95,5.933 9.63,55.864 7.78,118.08 -24.52,166.21 -22.29,29.55 -56.492,45.36 -76.896,37.07 l -12.594,-12.6 c 1.039,19.7 4.695,38.71 10.672,56.66 0.012,0.03 0.029,0.05 0.041,0.08 11.243,26.13 27.348,49.69 47.176,69.51 l 127.15,127.16 259.96,0 c 14.4,0 26,-11.6 26,-26 l 0,-177.22 -41,-41 c -5.300001,6.87 -12.740001,16.65 -18.990001,18.71 -5.08,1.97 -10.71,2.15 -16.67,0.9 l -145.57,-145.57 c -35.729999,-35.73 -76.449999,-65.513 -126.599999,-78.763 -3.53,-0.746 -5.83,-1.169 -7.2,-1.073 l -0.01,-0.011 z" style="opacity:.25"/><path id="path66" d="m -215.02305,380.88825 c -2.2823,0.16877 -2.0318,1.8314 -0.94801,5.9333 9.6343,55.865 7.7832,118.09 -24.516,166.21 -24.677,32.712 -63.948,48.592 -82.942,33.581 -2.5619,-2.0239 -4.7282,-5.1712 -6.5517,-9.1056 1.039,19.696 4.6952,38.707 10.672,56.655 0.0119,0.0277 0.029,0.0541 0.0409,0.0831 34.08,79.216 112.82,134.7 204.54,134.7 92.242999,0 171.389999,-56.141 205.149999,-136.1 0.0119,-0.0277 0.029,-0.0541 0.0409,-0.0831 4.7915,-14.724 8.0403,-30.14 9.559201,-46.066 -5.300401,6.8668 -12.745001,16.651 -18.994001,18.707 -27.81,10.8 -71.9599998,-31.98 -97.41,-70.02 -51.42,-64.44 -108.539999,-131.49 -191.429999,-153.39 -3.5362,-0.7476 -5.841,-1.1722 -7.2109,-1.0719" style="fill:#fff"/></g></svg>