<?xml version="1.0" encoding="UTF-8" standalone="no"?>
<!-- Created with Inkscape (http://www.inkscape.org/) -->
<svg id="svg2" xmlns:rdf="http://www.w3.org/1999/02/22-rdf-syntax-ns#" xmlns="http://www.w3.org/2000/svg" height="100%" width="100%" version="1.1" xmlns:cc="http://creativecommons.org/ns#" viewBox="0 0 512 512" xmlns:dc="http://purl.org/dc/elements/1.1/">
 <metadata id="metadata78">
  <rdf:RDF>
   <cc:Work rdf:about="">
    <dc:format>image/svg+xml</dc:format>
    <dc:type rdf:resource="http://purl.org/dc/dcmitype/StillImage"/>
   </cc:Work>
  </rdf:RDF>
 </metadata>
 <path id="path24" d="m26 0c-14.397 0-26 11.603-26 26v460c0 14.397 11.603 26 26 26h460c14.397 0 26-11.603 26-26v-460c0-14.397-11.6-26-26-26h-460" fill="#4b7f59"/>
 <text id="text26" style="word-spacing:0;letter-spacing:0" font-size="129.23px" line-height="125%" y="191.38" x="59.439999" font-family="Gentium Book Basic">
  <tspan id="tspan28" y="191.38" x="59.439999"/>
 </text>
 <text id="text30" style="text-anchor:middle" transform="scale(4.0128 .2492)" font-size="46.954px" y="418.81" x="211.89" font-family="Arial"/>
 <text id="text32" style="word-spacing:0;letter-spacing:0" font-size="129.23px" line-height="125%" y="111.38" x="640.71002" font-family="Gentium Book Basic">
  <tspan id="tspan34" y="111.38" x="640.71002"/>
 </text>
 <text id="text36" style="text-anchor:middle" transform="scale(4.0128 .2492)" font-size="46.954px" y="97.779999" x="356.73999" font-family="Arial"/>
 <text id="text38" style="word-spacing:0;letter-spacing:0" font-size="129.23px" line-height="125%" y="-69.883003" x="-430.87" font-family="Gentium Book Basic">
  <tspan id="tspan40" y="-69.883003" x="-430.87"/>
 </text>
 <text id="text42" style="text-anchor:middle" transform="scale(4.0128 .2492)" font-size="46.954px" y="-629.57001" x="89.699997" font-family="Arial"/>
 <text id="text44" style="word-spacing:0;letter-spacing:0" font-size="129.23px" line-height="125%" y="-286.35001" x="667.17999" font-family="Gentium Book Basic">
  <tspan id="tspan46" y="-286.35001" x="667.17999"/>
 </text>
 <text id="text48" style="text-anchor:middle" transform="scale(4.0128 .2492)" font-size="46.954px" y="-1498.25" x="363.34" font-family="Arial"/>
 <text id="text50" style="word-spacing:0;letter-spacing:0" font-size="129.23px" line-height="125%" y="-366.35001" x="1248.45" font-family="Gentium Book Basic">
  <tspan id="tspan52" y="-366.35001" x="1248.45"/>
 </text>
 <text id="text54" style="text-anchor:middle" transform="scale(4.0128 .2492)" font-size="46.954px" y="-1819.28" x="508.19" font-family="Arial"/>
 <text id="text56" style="word-spacing:0;letter-spacing:0" font-size="129.23px" line-height="125%" y="-838.75" x="859.33002" font-family="Gentium Book Basic">
  <tspan id="tspan58" y="-838.75" x="859.33002"/>
 </text>
 <text id="text60" style="text-anchor:middle" transform="scale(4.0128 .2492)" font-size="46.954px" y="-3714.9299" x="411.22" font-family="Arial"/>
 <text id="text62" style="word-spacing:0;letter-spacing:0" font-size="129.23px" line-height="125%" y="-918.76001" x="1440.59" font-family="Gentium Book Basic">
  <tspan id="tspan64" y="-918.76001" x="1440.59"/>
 </text>
 <text id="text66" style="text-anchor:middle" transform="scale(4.0128 .2492)" font-size="46.954px" y="-4035.96" x="556.07001" font-family="Arial"/>
 <text id="text68" style="word-spacing:0;letter-spacing:0" font-size="208.33px" line-height="125%" y="495.95999" x="-392.20999" font-family="Gentium Book Basic">
  <tspan id="tspan70" y="495.95999" x="-392.20999"/>
 </text>
 <path id="path72" opacity=".25" d="m241.09 61.41 181.16 181.16-6.406 7.438-181.66-181.66v108.47h-59.656l163.34 163.34-7.688 8.906-160.75-160.75 146.09 166.06 157.63 157.63h7.03l-25.656-29.16 29.16 29.16h2.313c14.397 0 26-11.603 26-26v-309.97l-107.69-107.69-6.906-6.938h-156.31m-200.09 241.81v32.75l36.38 36.38-36.37 13.813v31.688l94.16 94.16h196.47l-94.16-94.16h-26.5l-71.72-71.72-98.25-42.906"/>
 <path id="path74" d="m240.38 61.417a6.7866 6.7866 0 0 0 -6.2058 6.9218v108.48h-59.63a6.7866 6.7866 0 0 0 -5.092 11.497l146.08 166.04a6.7866 6.7866 0 0 0 10.263 -0.23868l143.53-166.04a6.7866 6.7866 0 0 0 -5.1316 -11.258h-59.87v-108.48a6.7866 6.7866 0 0 0 -6.922 -6.9218h-156.3a6.7866 6.7866 0 0 0 -0.71604 0m-199.38 241.78v32.78l65.6 25.3-65.6 24.87v31.7l97.82-40.26 0.44-31.46-98.26-42.93m98.26 114.65v32.74h98.22v-32.74h-98.22" fill="#fff"/>
</svg>
