<svg xmlns="http://www.w3.org/2000/svg" xmlns:svg="http://www.w3.org/2000/svg" xmlns:xlink="http://www.w3.org/1999/xlink" id="svg2" width="100%" height="100%" version="1.1" viewBox="0 0 512 512"><metadata id="metadata10"/><defs id="defs8"><linearGradient id="ButtonShadow-5" x1="45.448" x2="45.448" y1="92.54" y2="7.016" gradientTransform="scale(1.0059 .99417)" gradientUnits="userSpaceOnUse"><stop id="stop3750-0" offset="0"/><stop id="stop3752-8" offset="1" stop-opacity=".588"/></linearGradient><filter id="filter3174-8" color-interpolation-filters="sRGB"><feGaussianBlur id="feGaussianBlur3176-5" stdDeviation="1.71"/></filter><linearGradient id="linearGradient3737"><stop id="stop3739" offset="0" stop-color="#fff"/><stop id="stop3741" offset="1" stop-color="#fff" stop-opacity="0"/></linearGradient><filter id="filter3174" color-interpolation-filters="sRGB"><feGaussianBlur id="feGaussianBlur3176" stdDeviation="1.71"/></filter><filter id="filter3794" width="1.384" height="1.384" x="-.192" y="-.192" color-interpolation-filters="sRGB"><feGaussianBlur id="feGaussianBlur3796" stdDeviation="5.28"/></filter><linearGradient id="linearGradient3613" x1="48" x2="48" y1="20.221" y2="138.66" gradientUnits="userSpaceOnUse" xlink:href="#linearGradient3737"/><clipPath id="clipPath3613"><rect id="rect3615" width="84" height="84" x="6" y="6" fill="#fff" rx="6" ry="6"/></clipPath><filter id="filter3174-3" color-interpolation-filters="sRGB"><feGaussianBlur id="feGaussianBlur3176-2" stdDeviation="1.71"/></filter><filter id="filter3794-0" width="1.384" height="1.384" x="-.192" y="-.192" color-interpolation-filters="sRGB"><feGaussianBlur id="feGaussianBlur3796-3" stdDeviation="5.28"/></filter><clipPath id="clipPath3613-1"><rect id="rect3615-9" width="84" height="84" x="6" y="6" fill="#fff" rx="6" ry="6"/></clipPath><filter id="filter3174-8-3" color-interpolation-filters="sRGB"><feGaussianBlur id="feGaussianBlur3176-5-8" stdDeviation="1.71"/></filter><filter id="filter3174-0" color-interpolation-filters="sRGB"><feGaussianBlur id="feGaussianBlur3176-6" stdDeviation="1.71"/></filter><filter id="filter3794-9" width="1.384" height="1.384" x="-.192" y="-.192" color-interpolation-filters="sRGB"><feGaussianBlur id="feGaussianBlur3796-2" stdDeviation="5.28"/></filter><clipPath id="clipPath3613-2"><rect id="rect3615-3" width="84" height="84" x="6" y="6" fill="#fff" rx="6" ry="6"/></clipPath><filter id="filter3174-35" color-interpolation-filters="sRGB"><feGaussianBlur id="feGaussianBlur3176-3" stdDeviation="1.71"/></filter><filter id="filter3794-91" width="1.384" height="1.384" x="-.192" y="-.192" color-interpolation-filters="sRGB"><feGaussianBlur id="feGaussianBlur3796-7" stdDeviation="5.28"/></filter><clipPath id="clipPath3613-8"><rect id="rect3615-8" width="84" height="84" x="6" y="6" fill="#fff" rx="6" ry="6"/></clipPath><filter id="filter3174-4" color-interpolation-filters="sRGB"><feGaussianBlur id="feGaussianBlur3176-37" stdDeviation="1.71"/></filter><filter id="filter3794-4" width="1.384" height="1.384" x="-.192" y="-.192" color-interpolation-filters="sRGB"><feGaussianBlur id="feGaussianBlur3796-9" stdDeviation="5.28"/></filter><clipPath id="clipPath3613-9"><rect id="rect3615-1" width="84" height="84" x="6" y="6" fill="#fff" rx="6" ry="6"/></clipPath><style id="style5970" type="text/css"/><style id="style5970-0" type="text/css"/><style id="style5970-7" type="text/css"/><linearGradient id="linearGradient9267" x1="45.448" x2="45.448" y1="92.54" y2="7.016" gradientTransform="scale(1.0059 .99417)" gradientUnits="userSpaceOnUse" xlink:href="#ButtonShadow-5"/><filter id="filter3174-8-2" color-interpolation-filters="sRGB"><feGaussianBlur id="feGaussianBlur3176-5-7" stdDeviation="1.71"/></filter><filter id="filter3174-5" color-interpolation-filters="sRGB"><feGaussianBlur id="feGaussianBlur3176-0" stdDeviation="1.71"/></filter><filter id="filter3794-6" width="1.384" height="1.384" x="-.192" y="-.192" color-interpolation-filters="sRGB"><feGaussianBlur id="feGaussianBlur3796-8" stdDeviation="5.28"/></filter><clipPath id="clipPath3613-7"><rect id="rect3615-95" width="84" height="84" x="6" y="6" fill="#fff" rx="6" ry="6"/></clipPath><filter id="filter3174-3-7" color-interpolation-filters="sRGB"><feGaussianBlur id="feGaussianBlur3176-2-3" stdDeviation="1.71"/></filter><filter id="filter3794-0-5" width="1.384" height="1.384" x="-.192" y="-.192" color-interpolation-filters="sRGB"><feGaussianBlur id="feGaussianBlur3796-3-2" stdDeviation="5.28"/></filter><clipPath id="clipPath3613-1-4"><rect id="rect3615-9-9" width="84" height="84" x="6" y="6" fill="#fff" rx="6" ry="6"/></clipPath><filter id="filter3174-8-3-0" color-interpolation-filters="sRGB"><feGaussianBlur id="feGaussianBlur3176-5-8-2" stdDeviation="1.71"/></filter><filter id="filter3174-0-2" color-interpolation-filters="sRGB"><feGaussianBlur id="feGaussianBlur3176-6-7" stdDeviation="1.71"/></filter><filter id="filter3794-9-3" width="1.384" height="1.384" x="-.192" y="-.192" color-interpolation-filters="sRGB"><feGaussianBlur id="feGaussianBlur3796-2-6" stdDeviation="5.28"/></filter><clipPath id="clipPath3613-2-8"><rect id="rect3615-3-4" width="84" height="84" x="6" y="6" fill="#fff" rx="6" ry="6"/></clipPath><filter id="filter3174-35-4" color-interpolation-filters="sRGB"><feGaussianBlur id="feGaussianBlur3176-3-8" stdDeviation="1.71"/></filter><filter id="filter3794-91-9" width="1.384" height="1.384" x="-.192" y="-.192" color-interpolation-filters="sRGB"><feGaussianBlur id="feGaussianBlur3796-7-5" stdDeviation="5.28"/></filter><clipPath id="clipPath3613-8-6"><rect id="rect3615-8-4" width="84" height="84" x="6" y="6" fill="#fff" rx="6" ry="6"/></clipPath><filter id="filter3174-4-4" color-interpolation-filters="sRGB"><feGaussianBlur id="feGaussianBlur3176-37-4" stdDeviation="1.71"/></filter><filter id="filter3794-4-8" width="1.384" height="1.384" x="-.192" y="-.192" color-interpolation-filters="sRGB"><feGaussianBlur id="feGaussianBlur3796-9-9" stdDeviation="5.28"/></filter><clipPath id="clipPath3613-9-6"><rect id="rect3615-1-6" width="84" height="84" x="6" y="6" fill="#fff" rx="6" ry="6"/></clipPath><style id="style5970-06" type="text/css"/><style id="style5970-0-5" type="text/css"/><style id="style5970-7-9" type="text/css"/><filter id="filter3174-8-8" color-interpolation-filters="sRGB"><feGaussianBlur id="feGaussianBlur3176-5-9" stdDeviation="1.71"/></filter><filter id="filter3174-2" color-interpolation-filters="sRGB"><feGaussianBlur id="feGaussianBlur3176-62" stdDeviation="1.71"/></filter><filter id="filter3794-5" width="1.384" height="1.384" x="-.192" y="-.192" color-interpolation-filters="sRGB"><feGaussianBlur id="feGaussianBlur3796-6" stdDeviation="5.28"/></filter><clipPath id="clipPath3613-13"><rect id="rect3615-92" width="84" height="84" x="6" y="6" fill="#fff" rx="6" ry="6"/></clipPath><filter id="filter3174-3-6" color-interpolation-filters="sRGB"><feGaussianBlur id="feGaussianBlur3176-2-9" stdDeviation="1.71"/></filter><filter id="filter3794-0-1" width="1.384" height="1.384" x="-.192" y="-.192" color-interpolation-filters="sRGB"><feGaussianBlur id="feGaussianBlur3796-3-6" stdDeviation="5.28"/></filter><clipPath id="clipPath3613-1-6"><rect id="rect3615-9-7" width="84" height="84" x="6" y="6" fill="#fff" rx="6" ry="6"/></clipPath><filter id="filter3174-8-3-3" color-interpolation-filters="sRGB"><feGaussianBlur id="feGaussianBlur3176-5-8-6" stdDeviation="1.71"/></filter><filter id="filter3174-0-6" color-interpolation-filters="sRGB"><feGaussianBlur id="feGaussianBlur3176-6-3" stdDeviation="1.71"/></filter><filter id="filter3794-9-38" width="1.384" height="1.384" x="-.192" y="-.192" color-interpolation-filters="sRGB"><feGaussianBlur id="feGaussianBlur3796-2-8" stdDeviation="5.28"/></filter><clipPath id="clipPath3613-2-4"><rect id="rect3615-3-7" width="84" height="84" x="6" y="6" fill="#fff" rx="6" ry="6"/></clipPath><filter id="filter3174-35-1" color-interpolation-filters="sRGB"><feGaussianBlur id="feGaussianBlur3176-3-1" stdDeviation="1.71"/></filter><filter id="filter3794-91-8" width="1.384" height="1.384" x="-.192" y="-.192" color-interpolation-filters="sRGB"><feGaussianBlur id="feGaussianBlur3796-7-4" stdDeviation="5.28"/></filter><clipPath id="clipPath3613-8-2"><rect id="rect3615-8-9" width="84" height="84" x="6" y="6" fill="#fff" rx="6" ry="6"/></clipPath><filter id="filter3174-4-5" color-interpolation-filters="sRGB"><feGaussianBlur id="feGaussianBlur3176-37-2" stdDeviation="1.71"/></filter><filter id="filter3794-4-3" width="1.384" height="1.384" x="-.192" y="-.192" color-interpolation-filters="sRGB"><feGaussianBlur id="feGaussianBlur3796-9-7" stdDeviation="5.28"/></filter><clipPath id="clipPath3613-9-2"><rect id="rect3615-1-1" width="84" height="84" x="6" y="6" fill="#fff" rx="6" ry="6"/></clipPath><style id="style5970-4" type="text/css"/><style id="style5970-0-3" type="text/css"/><style id="style5970-7-2" type="text/css"/></defs><g id="layer2" display="none" transform="matrix(13.4 0 0 13.4 -1705.8 -834.03)"><rect id="rect3745" width="86" height="85" x="5" y="7" fill="url(#linearGradient9267)" filter="url(#filter3174)" opacity=".9" rx="6" ry="6"/></g><g id="layer5" display="none" transform="matrix(13.4 0 0 13.4 -1705.8 -834.03)"><rect id="rect3171" width="66" height="66" x="15" y="15" fill="url(#linearGradient3613)" stroke="#fff" stroke-linecap="round" stroke-width=".5" clip-path="url(#clipPath3613)" filter="url(#filter3794)" opacity=".1" rx="12" ry="12"/></g><g id="layer2-5" display="none" transform="translate(-118.36 -21.072)"><rect id="rect3745-0" width="86" height="85" x="5" y="7" fill="url(#linearGradient9267)" filter="url(#filter3174-8)" opacity=".9" rx="6" ry="6"/></g><g id="layer2-8" display="none" transform="matrix(13.4 0 0 13.4 -1708.9 -839.43)"><rect id="rect3745-3" width="86" height="85" x="5" y="7" fill="url(#linearGradient9267)" filter="url(#filter3174-3)" opacity=".9" rx="6" ry="6"/></g><g id="layer5-5" display="none" transform="matrix(13.4 0 0 13.4 -1708.9 -839.43)"><rect id="rect3171-2" width="66" height="66" x="15" y="15" fill="url(#linearGradient3613)" stroke="#fff" stroke-linecap="round" stroke-width=".5" clip-path="url(#clipPath3613-1)" filter="url(#filter3794-0)" opacity=".1" rx="12" ry="12"/></g><g id="layer2-3" display="none" transform="matrix(13.4 0 0 13.4 -1693.5 -882.16)"><rect id="rect3745-6" width="86" height="85" x="5" y="7" fill="url(#linearGradient9267)" filter="url(#filter3174-0)" opacity=".9" rx="6" ry="6"/></g><g id="layer5-3" display="none" transform="matrix(13.4 0 0 13.4 -1693.5 -882.16)"><rect id="rect3171-7" width="66" height="66" x="15" y="15" fill="url(#linearGradient3613)" stroke="#fff" stroke-linecap="round" stroke-width=".5" clip-path="url(#clipPath3613-2)" filter="url(#filter3794-9)" opacity=".1" rx="12" ry="12"/></g><g id="layer2-5-4" display="none" transform="translate(-106.08 -69.206)"><rect id="rect3745-0-9" width="86" height="85" x="5" y="7" fill="url(#linearGradient9267)" filter="url(#filter3174-8-3)" opacity=".9" rx="6" ry="6"/></g><g id="layer2-33" display="none" transform="matrix(13.4 0 0 13.4 -1500.2 -968.07)"><rect id="rect3745-1" width="86" height="85" x="5" y="7" fill="url(#linearGradient9267)" filter="url(#filter3174-35)" opacity=".9" rx="6" ry="6"/></g><g id="layer5-6" display="none" transform="matrix(13.4 0 0 13.4 -1500.2 -968.07)"><rect id="rect3171-4" width="66" height="66" x="15" y="15" fill="url(#linearGradient3613)" stroke="#fff" stroke-linecap="round" stroke-width=".5" clip-path="url(#clipPath3613-8)" filter="url(#filter3794-91)" opacity=".1" rx="12" ry="12"/></g><g id="layer2-58" display="none" transform="matrix(13.4 0 0 13.4 -1659.8 -887.77)"><rect id="rect3745-7" width="86" height="85" x="5" y="7" fill="url(#linearGradient9267)" filter="url(#filter3174-4)" opacity=".9" rx="6" ry="6"/></g><g id="layer5-0" display="none" transform="matrix(13.4 0 0 13.4 -1659.8 -887.77)"><rect id="rect3171-9" width="66" height="66" x="15" y="15" fill="url(#linearGradient3613)" stroke="#fff" stroke-linecap="round" stroke-width=".5" clip-path="url(#clipPath3613-9)" filter="url(#filter3794-4)" opacity=".1" rx="12" ry="12"/></g><g id="layer2-85" display="none" transform="matrix(13.4 0 0 13.4 -1705.8 -834.03)"><rect id="rect3745-9" width="86" height="85" x="5" y="7" fill="url(#linearGradient9267)" filter="url(#filter3174-5)" opacity=".9" rx="6" ry="6"/></g><g id="layer5-07" display="none" transform="matrix(13.4 0 0 13.4 -1705.8 -834.03)"><rect id="rect3171-95" width="66" height="66" x="15" y="15" fill="url(#linearGradient3613)" stroke="#fff" stroke-linecap="round" stroke-width=".5" clip-path="url(#clipPath3613-7)" filter="url(#filter3794-6)" opacity=".1" rx="12" ry="12"/></g><g id="layer2-5-9" display="none" transform="translate(-118.36 -21.072)"><rect id="rect3745-0-2" width="86" height="85" x="5" y="7" fill="url(#linearGradient9267)" filter="url(#filter3174-8-2)" opacity=".9" rx="6" ry="6"/></g><g id="layer2-8-5" display="none" transform="matrix(13.4 0 0 13.4 -1708.9 -839.43)"><rect id="rect3745-3-5" width="86" height="85" x="5" y="7" fill="url(#linearGradient9267)" filter="url(#filter3174-3-7)" opacity=".9" rx="6" ry="6"/></g><g id="layer5-5-9" display="none" transform="matrix(13.4 0 0 13.4 -1708.9 -839.43)"><rect id="rect3171-2-9" width="66" height="66" x="15" y="15" fill="url(#linearGradient3613)" stroke="#fff" stroke-linecap="round" stroke-width=".5" clip-path="url(#clipPath3613-1-4)" filter="url(#filter3794-0-5)" opacity=".1" rx="12" ry="12"/></g><g id="layer2-3-9" display="none" transform="matrix(13.4 0 0 13.4 -1693.5 -882.16)"><rect id="rect3745-6-4" width="86" height="85" x="5" y="7" fill="url(#linearGradient9267)" filter="url(#filter3174-0-2)" opacity=".9" rx="6" ry="6"/></g><g id="layer5-3-6" display="none" transform="matrix(13.4 0 0 13.4 -1693.5 -882.16)"><rect id="rect3171-7-9" width="66" height="66" x="15" y="15" fill="url(#linearGradient3613)" stroke="#fff" stroke-linecap="round" stroke-width=".5" clip-path="url(#clipPath3613-2-8)" filter="url(#filter3794-9-3)" opacity=".1" rx="12" ry="12"/></g><g id="layer2-5-4-8" display="none" transform="translate(-106.08 -69.206)"><rect id="rect3745-0-9-3" width="86" height="85" x="5" y="7" fill="url(#linearGradient9267)" filter="url(#filter3174-8-3-0)" opacity=".9" rx="6" ry="6"/></g><g id="layer2-33-9" display="none" transform="matrix(13.4 0 0 13.4 -1500.2 -968.07)"><rect id="rect3745-1-8" width="86" height="85" x="5" y="7" fill="url(#linearGradient9267)" filter="url(#filter3174-35-4)" opacity=".9" rx="6" ry="6"/></g><g id="layer5-6-7" display="none" transform="matrix(13.4 0 0 13.4 -1500.2 -968.07)"><rect id="rect3171-4-3" width="66" height="66" x="15" y="15" fill="url(#linearGradient3613)" stroke="#fff" stroke-linecap="round" stroke-width=".5" clip-path="url(#clipPath3613-8-6)" filter="url(#filter3794-91-9)" opacity=".1" rx="12" ry="12"/></g><g id="layer2-58-0" display="none" transform="matrix(13.4 0 0 13.4 -1659.8 -887.77)"><rect id="rect3745-7-7" width="86" height="85" x="5" y="7" fill="url(#linearGradient9267)" filter="url(#filter3174-4-4)" opacity=".9" rx="6" ry="6"/></g><g id="layer5-0-0" display="none" transform="matrix(13.4 0 0 13.4 -1659.8 -887.77)"><rect id="rect3171-9-0" width="66" height="66" x="15" y="15" fill="url(#linearGradient3613)" stroke="#fff" stroke-linecap="round" stroke-width=".5" clip-path="url(#clipPath3613-9-6)" filter="url(#filter3794-4-8)" opacity=".1" rx="12" ry="12"/></g><g id="layer2-9" display="none" transform="matrix(13.4 0 0 13.4 -1705.8 -834.03)"><rect id="rect3745-8" width="86" height="85" x="5" y="7" fill="url(#linearGradient9267)" filter="url(#filter3174-2)" opacity=".9" rx="6" ry="6"/></g><g id="layer5-65" display="none" transform="matrix(13.4 0 0 13.4 -1705.8 -834.03)"><rect id="rect3171-3" width="66" height="66" x="15" y="15" fill="url(#linearGradient3613)" stroke="#fff" stroke-linecap="round" stroke-width=".5" clip-path="url(#clipPath3613-13)" filter="url(#filter3794-5)" opacity=".1" rx="12" ry="12"/></g><g id="layer2-5-1" display="none" transform="translate(-118.36 -21.072)"><rect id="rect3745-0-27" width="86" height="85" x="5" y="7" fill="url(#linearGradient9267)" filter="url(#filter3174-8-8)" opacity=".9" rx="6" ry="6"/></g><g id="layer2-8-9" display="none" transform="matrix(13.4 0 0 13.4 -1708.9 -839.43)"><rect id="rect3745-3-6" width="86" height="85" x="5" y="7" fill="url(#linearGradient9267)" filter="url(#filter3174-3-6)" opacity=".9" rx="6" ry="6"/></g><g id="layer5-5-99" display="none" transform="matrix(13.4 0 0 13.4 -1708.9 -839.43)"><rect id="rect3171-2-1" width="66" height="66" x="15" y="15" fill="url(#linearGradient3613)" stroke="#fff" stroke-linecap="round" stroke-width=".5" clip-path="url(#clipPath3613-1-6)" filter="url(#filter3794-0-1)" opacity=".1" rx="12" ry="12"/></g><g id="layer2-3-6" display="none" transform="matrix(13.4 0 0 13.4 -1693.5 -882.16)"><rect id="rect3745-6-2" width="86" height="85" x="5" y="7" fill="url(#linearGradient9267)" filter="url(#filter3174-0-6)" opacity=".9" rx="6" ry="6"/></g><g id="layer5-3-7" display="none" transform="matrix(13.4 0 0 13.4 -1693.5 -882.16)"><rect id="rect3171-7-3" width="66" height="66" x="15" y="15" fill="url(#linearGradient3613)" stroke="#fff" stroke-linecap="round" stroke-width=".5" clip-path="url(#clipPath3613-2-4)" filter="url(#filter3794-9-38)" opacity=".1" rx="12" ry="12"/></g><g id="layer2-5-4-6" display="none" transform="translate(-106.08 -69.206)"><rect id="rect3745-0-9-36" width="86" height="85" x="5" y="7" fill="url(#linearGradient9267)" filter="url(#filter3174-8-3-3)" opacity=".9" rx="6" ry="6"/></g><g id="layer2-33-2" display="none" transform="matrix(13.4 0 0 13.4 -1500.2 -968.07)"><rect id="rect3745-1-3" width="86" height="85" x="5" y="7" fill="url(#linearGradient9267)" filter="url(#filter3174-35-1)" opacity=".9" rx="6" ry="6"/></g><g id="layer5-6-5" display="none" transform="matrix(13.4 0 0 13.4 -1500.2 -968.07)"><rect id="rect3171-4-9" width="66" height="66" x="15" y="15" fill="url(#linearGradient3613)" stroke="#fff" stroke-linecap="round" stroke-width=".5" clip-path="url(#clipPath3613-8-2)" filter="url(#filter3794-91-8)" opacity=".1" rx="12" ry="12"/></g><g id="layer2-58-8" display="none" transform="matrix(13.4 0 0 13.4 -1659.8 -887.77)"><rect id="rect3745-7-4" width="86" height="85" x="5" y="7" fill="url(#linearGradient9267)" filter="url(#filter3174-4-5)" opacity=".9" rx="6" ry="6"/></g><g id="layer5-0-7" display="none" transform="matrix(13.4 0 0 13.4 -1659.8 -887.77)"><rect id="rect3171-9-9" width="66" height="66" x="15" y="15" fill="url(#linearGradient3613)" stroke="#fff" stroke-linecap="round" stroke-width=".5" clip-path="url(#clipPath3613-9-2)" filter="url(#filter3794-4-3)" opacity=".1" rx="12" ry="12"/></g><g id="g12097" transform="translate(321.08475,-327.59322)"><path id="rect2986" d="m -295.08475,327.59322 c -14.397,0 -26,11.603 -26,26 l 0,460 c 0,14.397 11.603,26 26,26 l 460,0 c 14.397,0 26,-11.603 26,-26 l 0,-460 c 0,-14.397 -11.6,-26 -26,-26 l -460,0 z" style="fill:#104599"/><path id="path125248" d="m -136.75475,368.60322 -17.92,107.49 -113.66,0 -11.75,71.67 71.66,71.66 -59.889,0 -11.753,71.67 76.782,76.78 -5.12,30.71 41.01,41.01 332.31,0 c 14.4,0 26,-11.6 26,-26 l 0,-332.31 -112.679996,-112.68 -71.6699998,0 -10.23,61.43 -61.4300002,-61.43 -10.24,61.42 -61.420004,-61.42 z" style="opacity:.25"/><path id="path8915" d="m -136.75475,368.60222 -17.916,107.5 -113.66,0 -11.75,71.66 113.1,0 -11.753,71.664 -89.58,0 -11.753,71.664 89.58,0 -17.916,107.5 71.664,0 17.916,-107.5 71.664004,0 -17.916,107.5 71.6640002,0 17.9159998,-107.5 113.659996,0 11.76,-71.67 -113.099996,0 11.753,-71.664 89.579996,0 11.753,-71.664 -89.579996,0 17.916,-107.5 -71.6639998,0 -17.9160002,107.5 -71.664,0 17.916,-107.5 m -30.242,179.16 72.201,0 -11.753,71.664 -72.201004,0 m 11.753004,-71.664" style="fill:#fff"/></g></svg>