<?xml version="1.0" encoding="UTF-8" standalone="no"?>
<!-- Created with Inkscape (http://www.inkscape.org/) -->
<svg id="svg14764" xmlns:rdf="http://www.w3.org/1999/02/22-rdf-syntax-ns#" xmlns="http://www.w3.org/2000/svg" height="512" width="512" version="1.1" xmlns:cc="http://creativecommons.org/ns#" xmlns:dc="http://purl.org/dc/elements/1.1/" viewBox="0 0 135.46666 135.46667">
 <metadata id="metadata14769">
  <rdf:RDF>
   <cc:Work rdf:about="">
    <dc:format>image/svg+xml</dc:format>
    <dc:type rdf:resource="http://purl.org/dc/dcmitype/StillImage"/>
    <dc:title/>
   </cc:Work>
  </rdf:RDF>
 </metadata>
 <g id="layer1" transform="translate(0 -161.53)">
  <g id="g14782" transform="translate(69.245 127.3)">
   <path id="rect2986-9" fill="#68af4c" d="m-62.366 34.231c-3.8092 0-6.8792 3.07-6.8792 6.8792v121.71c0 3.8092 3.07 6.8792 6.8792 6.8792h121.71c3.8092 0 6.8792-3.07 6.8792-6.8792v-121.71c0-3.8092-3.0692-6.8792-6.8792-6.8792h-121.71z"/>
   <path id="path132929" opacity=".25" d="m38.866 45.079c-5.9161 1.8867-12.039 4.0992-18.269 6.6373-37.319 15.191-64.085 36.063-59.791 46.63 0.31485 0.77523 0.78846 1.4711 1.4102 2.0929l36.88 36.88c-8.5169 6.0325-18.997 12.012-30.668 17.24-3.4766 1.561-6.9268 2.9924-10.319 4.2889l10.848 10.848h90.384c3.81 0 6.8792-3.0692 6.8792-6.8792v-90.384l-27.355-27.355z"/>
   <path id="path85" fill="#fff" d="m13.665 99.85c-0.31157 0.01402-7.7015 0.66514-15.713 1.8711-6.5865 0.98544-10.178 0.81741-12.561 0.50234-5.0324-0.8599-8.4296-2.8443-9.615-6.0299-4.0799-10.975 19.542-31.938 52.769-46.821 3.4899-1.5618 6.9294-2.9919 10.321-4.2942-5.9161 1.8869-12.039 4.0992-18.27 6.6373-37.322 15.189-64.085 36.065-59.791 46.63 2.1669 5.3263 11.82 7.0067 25.646 5.4279 0.02445-0.007 0.05778-0.007 0.08403-0.007 8.0428-0.7544 17.672-2.7517 23.637-2.2684 5.8095 0.71762 9.7372 2.7673 11.027 6.2383 4.0764 10.975-19.548 31.935-52.771 46.823-3.4761 1.5596-6.9279 2.993-10.32 4.2884 5.9161-1.8764 12.039-4.1029 18.272-6.6339 37.319-15.184 64.085-36.065 59.788-46.635-1.9936-4.908-10.367-6.7231-22.504-5.7325z"/>
  </g>
 </g>
</svg>
