<?xml version="1.0" encoding="UTF-8" standalone="no"?>
<!-- Created with Inkscape (http://www.inkscape.org/) -->
<svg id="svg2" xmlns:rdf="http://www.w3.org/1999/02/22-rdf-syntax-ns#" xmlns="http://www.w3.org/2000/svg" height="100%" width="100%" version="1.1" xmlns:cc="http://creativecommons.org/ns#" xmlns:dc="http://purl.org/dc/elements/1.1/" viewBox="0 0 512 512">
 <metadata id="metadata135">
  <rdf:RDF>
   <cc:Work rdf:about="">
    <dc:format>image/svg+xml</dc:format>
    <dc:type rdf:resource="http://purl.org/dc/dcmitype/StillImage"/>
   </cc:Work>
  </rdf:RDF>
 </metadata>
 <path id="path9" d="m26 0c-14.397 0-26 11.603-26 26v460c0 14.397 11.603 26 26 26h460c14.397 0 26-11.603 26-26v-460c0-14.397-11.6-26-26-26h-460" fill="#ef6a47"/>
 <text id="text11" style="word-spacing:0;letter-spacing:0" font-size="129.23px" line-height="125%" y="192.28" x="-1.597" font-family="Gentium Book Basic">
  <tspan id="tspan13" y="192.28" x="-1.597"/>
 </text>
 <text id="text15" style="text-anchor:middle" transform="scale(4.0128 .2492)" font-size="46.954px" y="422.44" x="196.67999" font-family="Arial"/>
 <text id="text17" style="word-spacing:0;letter-spacing:0" font-size="129.23px" line-height="125%" y="112.28" x="579.66998" font-family="Gentium Book Basic">
  <tspan id="tspan19" y="112.28" x="579.66998"/>
 </text>
 <text id="text21" style="text-anchor:middle" transform="scale(4.0128 .2492)" font-size="46.954px" y="101.4" x="341.53" font-family="Arial"/>
 <text id="text23" style="word-spacing:0;letter-spacing:0" font-size="129.23px" line-height="125%" y="-68.978996" x="-491.91" font-family="Gentium Book Basic">
  <tspan id="tspan25" y="-68.978996" x="-491.91"/>
 </text>
 <text id="text27" style="text-anchor:middle" transform="scale(4.0128 .2492)" font-size="46.954px" y="-625.94" x="74.489998" font-family="Arial"/>
 <text id="text29" style="word-spacing:0;letter-spacing:0" font-size="129.23px" line-height="125%" y="-285.45001" x="606.14001" font-family="Gentium Book Basic">
  <tspan id="tspan31" y="-285.45001" x="606.14001"/>
 </text>
 <text id="text33" style="text-anchor:middle" transform="scale(4.0128 .2492)" font-size="46.954px" y="-1494.62" x="348.13" font-family="Arial"/>
 <text id="text35" style="word-spacing:0;letter-spacing:0" font-size="129.23px" line-height="125%" y="-365.45001" x="1187.41" font-family="Gentium Book Basic">
  <tspan id="tspan37" y="-365.45001" x="1187.41"/>
 </text>
 <text id="text39" style="text-anchor:middle" transform="scale(4.0128 .2492)" font-size="46.954px" y="-1815.65" x="492.98001" font-family="Arial"/>
 <text id="text41" style="word-spacing:0;letter-spacing:0" font-size="129.23px" line-height="125%" y="-837.84998" x="798.28998" font-family="Gentium Book Basic">
  <tspan id="tspan43" y="-837.84998" x="798.28998"/>
 </text>
 <text id="text45" style="text-anchor:middle" transform="scale(4.0128 .2492)" font-size="46.954px" y="-3711.3" x="396.01001" font-family="Arial"/>
 <text id="text47" style="word-spacing:0;letter-spacing:0" font-size="129.23px" line-height="125%" y="-917.85999" x="1379.55" font-family="Gentium Book Basic">
  <tspan id="tspan49" y="-917.85999" x="1379.55"/>
 </text>
 <text id="text51" style="text-anchor:middle" transform="scale(4.0128 .2492)" font-size="46.954px" y="-4032.3401" x="540.85999" font-family="Arial"/>
 <text id="text53" style="word-spacing:0;letter-spacing:0" font-size="208.33px" line-height="125%" y="496.85999" x="-453.25" font-family="Gentium Book Basic">
  <tspan id="tspan55" y="496.85999" x="-453.25"/>
 </text>
 <path id="path59" opacity=".25" d="m256 41c-118.73 0-214.99 96.28-214.99 215.01 0 59.37 24.06 113.12 62.97 152.02l103.97 103.97h278.05c14.4 0 26-11.6 26-26v-278.05l-103.99-103.99c0.13 0.14 0.27 0.28 0.4 0.41l-0.4-0.4c-38.9-38.901-92.64-62.965-152.01-62.966v-0.004z"/>
 <path id="path131" d="m256 41c-118.73 0-214.99 96.28-214.99 215.01s96.24 214.99 214.99 214.99c118.73 0 214.99-96.24 214.99-214.99 0-118.73-96.24-215.01-214.99-215.01m79.38 40.672c42.05 19.18 75.946 53.11 95.07 95.19l-92.71 34.784c-8.513-15.659-21.43-28.573-37.04-37.16l33.678-88.85 0.999-3.961m-158.77 0.112 34.784 92.71c-15.659 8.513-28.573 21.43-37.16 37.04l-88.849-33.67-3.961-1c19.18-42.05 53.11-75.946 95.19-95.07m79.38 104.59c38.462 0 69.65 31.19 69.65 69.65 0 38.462-31.19 69.61-69.65 69.61-38.462 0-69.65-31.15-69.65-69.61 0-38.462 31.19-69.65 69.65-69.65m81.75 115.43 92.71 34.784c-19.12 42.08-53.02 76.02-95.07 95.19l-0.999-3.961-33.678-88.85c15.616-8.584 28.531-21.496 37.04-37.16m-163.51 0.112c8.584 15.616 21.496 28.531 37.16 37.04l-34.784 92.71c-42.08-19.12-76.02-53.02-95.19-95.07l3.961-0.999 88.85-33.678" fill="#fff"/>
</svg>
