<?xml version="1.0" encoding="UTF-8" standalone="no"?>
<!-- Created with Inkscape (http://www.inkscape.org/) -->
<svg id="svg2" xmlns:rdf="http://www.w3.org/1999/02/22-rdf-syntax-ns#" xmlns="http://www.w3.org/2000/svg" height="100%" width="100%" version="1.1" xmlns:cc="http://creativecommons.org/ns#" xmlns:dc="http://purl.org/dc/elements/1.1/" viewBox="0 0 512 512">
 <metadata id="metadata135">
  <rdf:RDF>
   <cc:Work rdf:about="">
    <dc:format>image/svg+xml</dc:format>
    <dc:type rdf:resource="http://purl.org/dc/dcmitype/StillImage"/>
    <dc:title/>
   </cc:Work>
  </rdf:RDF>
 </metadata>
 <text id="text11" style="word-spacing:0;letter-spacing:0" font-size="129.23px" line-height="125%" y="192.28" x="-1.597" font-family="Gentium Book Basic">
  <tspan id="tspan13" y="192.28" x="-1.597"/>
 </text>
 <text id="text15" style="text-anchor:middle" transform="scale(4.0128 .2492)" font-size="46.954px" y="422.44" x="196.67999" font-family="Arial"/>
 <text id="text17" style="word-spacing:0;letter-spacing:0" font-size="129.23px" line-height="125%" y="112.28" x="579.66998" font-family="Gentium Book Basic">
  <tspan id="tspan19" y="112.28" x="579.66998"/>
 </text>
 <text id="text21" style="text-anchor:middle" transform="scale(4.0128 .2492)" font-size="46.954px" y="101.4" x="341.53" font-family="Arial"/>
 <text id="text23" style="word-spacing:0;letter-spacing:0" font-size="129.23px" line-height="125%" y="-68.978996" x="-491.91" font-family="Gentium Book Basic">
  <tspan id="tspan25" y="-68.978996" x="-491.91"/>
 </text>
 <text id="text27" style="text-anchor:middle" transform="scale(4.0128 .2492)" font-size="46.954px" y="-625.94" x="74.489998" font-family="Arial"/>
 <text id="text29" style="word-spacing:0;letter-spacing:0" font-size="129.23px" line-height="125%" y="-285.45001" x="606.14001" font-family="Gentium Book Basic">
  <tspan id="tspan31" y="-285.45001" x="606.14001"/>
 </text>
 <text id="text33" style="text-anchor:middle" transform="scale(4.0128 .2492)" font-size="46.954px" y="-1494.62" x="348.13" font-family="Arial"/>
 <text id="text35" style="word-spacing:0;letter-spacing:0" font-size="129.23px" line-height="125%" y="-365.45001" x="1187.41" font-family="Gentium Book Basic">
  <tspan id="tspan37" y="-365.45001" x="1187.41"/>
 </text>
 <text id="text39" style="text-anchor:middle" transform="scale(4.0128 .2492)" font-size="46.954px" y="-1815.65" x="492.98001" font-family="Arial"/>
 <text id="text41" style="word-spacing:0;letter-spacing:0" font-size="129.23px" line-height="125%" y="-837.84998" x="798.28998" font-family="Gentium Book Basic">
  <tspan id="tspan43" y="-837.84998" x="798.28998"/>
 </text>
 <text id="text45" style="text-anchor:middle" transform="scale(4.0128 .2492)" font-size="46.954px" y="-3711.3" x="396.01001" font-family="Arial"/>
 <text id="text47" style="word-spacing:0;letter-spacing:0" font-size="129.23px" line-height="125%" y="-917.85999" x="1379.55" font-family="Gentium Book Basic">
  <tspan id="tspan49" y="-917.85999" x="1379.55"/>
 </text>
 <text id="text51" style="text-anchor:middle" transform="scale(4.0128 .2492)" font-size="46.954px" y="-4032.3401" x="540.85999" font-family="Arial"/>
 <text id="text53" style="word-spacing:0;letter-spacing:0" font-size="208.33px" line-height="125%" y="496.85999" x="-453.25" font-family="Gentium Book Basic">
  <tspan id="tspan55" y="496.85999" x="-453.25"/>
 </text>
 <path id="path9-8" d="m26 0c-14.397 0-26 11.603-26 26v460c0 14.397 11.603 26 26 26h460c14.397 0 26-11.603 26-26v-460c0-14.397-11.6-26-26-26h-460" fill="#8126ae"/>
 <text id="text11-9" font-size="129.23px" style="word-spacing:0;letter-spacing:0" line-height="125%" y="226.57001" x="-32.601002" font-family="&apos;Gentium Book Basic&apos;">
  <tspan id="tspan13-5" y="226.57001" x="-32.601002"/>
 </text>
 <text id="text15-7" style="text-anchor:middle" transform="scale(4.0128 .24920)" font-size="46.954px" y="560.01715" x="188.95905" font-family="Arial"/>
 <text id="text17-2" font-size="129.23px" style="word-spacing:0;letter-spacing:0" line-height="125%" y="146.57001" x="548.66998" font-family="&apos;Gentium Book Basic&apos;">
  <tspan id="tspan19-6" y="146.57001" x="548.66998"/>
 </text>
 <text id="text21-2" style="text-anchor:middle" transform="scale(4.0128 .24920)" font-size="46.954px" y="238.98878" x="333.80829" font-family="Arial"/>
 <text id="text23-7" font-size="129.23px" style="word-spacing:0;letter-spacing:0" line-height="125%" y="-34.692001" x="-522.90997" font-family="&apos;Gentium Book Basic&apos;">
  <tspan id="tspan25-2" y="-34.692001" x="-522.90997"/>
 </text>
 <text id="text27-1" style="text-anchor:middle" transform="scale(4.0128 .24920)" font-size="46.954px" y="-488.35748" x="66.766655" font-family="Arial"/>
 <text id="text29-7" font-size="129.23px" style="word-spacing:0;letter-spacing:0" line-height="125%" y="-251.16" x="575.14001" font-family="&apos;Gentium Book Basic&apos;">
  <tspan id="tspan31-5" y="-251.16" x="575.14001"/>
 </text>
 <text id="text33-2" style="text-anchor:middle" transform="scale(4.0128 .24920)" font-size="46.954px" y="-1357.0231" x="340.40826" font-family="Arial"/>
 <text id="text35-9" font-size="129.23px" style="word-spacing:0;letter-spacing:0" line-height="125%" y="-331.17001" x="1156.41" font-family="&apos;Gentium Book Basic&apos;">
  <tspan id="tspan37-3" y="-331.17001" x="1156.41"/>
 </text>
 <text id="text39-3" style="text-anchor:middle" transform="scale(4.0128 .24920)" font-size="46.954px" y="-1678.0614" x="485.25754" font-family="Arial"/>
 <text id="text41-3" font-size="129.23px" style="word-spacing:0;letter-spacing:0" line-height="125%" y="-803.57001" x="767.28998" font-family="&apos;Gentium Book Basic&apos;">
  <tspan id="tspan43-8" y="-803.57001" x="767.28998"/>
 </text>
 <text id="text45-7" style="text-anchor:middle" transform="scale(4.0128 .24920)" font-size="46.954px" y="-3573.7017" x="388.28802" font-family="Arial"/>
 <text id="text47-9" font-size="129.23px" style="word-spacing:0;letter-spacing:0" line-height="125%" y="-883.57001" x="1348.55" font-family="&apos;Gentium Book Basic&apos;">
  <tspan id="tspan49-5" y="-883.57001" x="1348.55"/>
 </text>
 <text id="text51-0" style="text-anchor:middle" transform="scale(4.0128 .24920)" font-size="46.954px" y="-3894.72" x="533.13727" font-family="Arial"/>
 <text id="text53-8" font-size="208.33px" style="word-spacing:0;letter-spacing:0" line-height="125%" y="531.15002" x="-484.25" font-family="&apos;Gentium Book Basic&apos;">
  <tspan id="tspan55-7" y="531.15002" x="-484.25"/>
 </text>
 <path id="path59-5" opacity=".25" d="m269.71 72.896c-6.06 0.02-12.15 0.079-18.26 0.137v-0.004c-48.88 0.465-96.04 3.432-105.26 8.549v0.002c-18.43 10.231-105.4 157.66-105.19 177.77 0.157 14.6 47.624 93.85 80.79 140.07-0.38 0.71-0.8 1.43-1.17 2.14l10.52 10.53c5.28 6.88 9.93 12.46 13.59 16.12l83.8 83.79h257.47c14.4 0 26-11.6 26-26v-256.69l-147-147c-2.08-2.074-3.82-3.524-5.18-4.244l12.57 12.567c0 0.007 0.01 0.014 0.01 0.021l-12.58-12.584c-8.16-4.323-47.61-5.307-90.09-5.17l84.17 84.17v0.01l-84.19-84.184z"/>
 <path id="path127" d="m269.71 72.896c-6.067 0.02-12.157 0.08-18.267 0.138-48.876 0.465-96.04 3.431-105.26 8.548-18.429 10.231-105.4 157.66-105.19 177.77 0.157 14.602 47.625 93.85 80.79 140.07-0.377 0.706-0.798 1.433-1.172 2.137h2.689c11.864 16.378 21.77 28.351 26.676 30.95 18.645 9.879 195.6 8.232 214.03-1.999 18.429-10.231 107.19-155.04 106.98-175.15-0.216-20.11-92.54-167.41-111.18-177.29-8.157-4.323-47.612-5.306-90.09-5.169m-16.957 42.32c20.05-0.196 39.633 0.498 54.938 1.724l-52.04 87.27-53.01-86.78c13.341-1.21 30.715-2.02 50.11-2.205m105.94 34.33c25.329 36.18 60.06 95.34 60.18 106.84 0.115 10.977-31.2 67.17-55.828 104.77-4.375-7.526-8.977-15.309-14.06-23.714-15.357-25.655-34.379-53.55-57-83.61l66.73-104.3m-208.45 4.481 64.52 98.99c-19.398 27.586-37.04 53.686-52.945 78.24-5.857 9.201-11.285 18.198-16.613 27.09-25.398-35.933-57.11-88.12-57.21-98.91-0.117-11.166 35.467-68.33 62.24-105.39m101.74 148.68c12.12 17.1 22.755 33.906 31.917 50.46 9.01 15.546 17.209 30.958 24.746 46.26-32.541 1.828-84.36 0.693-113.8-2.482 2.304-4.595 5.28-10.223 9.03-16.888 5.119-9.104 10.547-18.605 16.199-28.537 5.926-9.931 11.713-19.296 17.37-28.12 5.927-8.827 10.772-15.714 14.55-20.679" fill="#fff"/>
</svg>
