<?xml version="1.0" encoding="UTF-8" standalone="no"?>
<!-- Created with Inkscape (http://www.inkscape.org/) -->
<svg id="svg2" xmlns:rdf="http://www.w3.org/1999/02/22-rdf-syntax-ns#" xmlns="http://www.w3.org/2000/svg" height="100%" width="100%" version="1.1" xmlns:cc="http://creativecommons.org/ns#" xmlns:dc="http://purl.org/dc/elements/1.1/" viewBox="0 0 512 512">
 <metadata id="metadata10">
  <rdf:RDF>
   <cc:Work rdf:about="">
    <dc:format>image/svg+xml</dc:format>
    <dc:type rdf:resource="http://purl.org/dc/dcmitype/StillImage"/>
    <dc:title/>
   </cc:Work>
  </rdf:RDF>
 </metadata>
 <path id="rect2986" fill="#0078ad" d="m26 0c-14.397 0-26 11.603-26 26v460c0 14.397 11.603 26 26 26h460c14.397 0 26-11.603 26-26v-460c0-14.397-11.6-26-26-26h-460z"/>
 <text id="text20" style="word-spacing:0;letter-spacing:0" font-size="129.23px" line-height="125%" y="168.27504" x="-471.34229" font-family="Gentium Book Basic">
  <tspan id="tspan22" y="168.27504" x="-471.34229"/>
 </text>
 <text id="text24" style="text-anchor:middle" transform="scale(4.0128 .24920)" font-size="46.954px" y="326.10962" x="79.621727" font-family="Arial"/>
 <text id="text26" style="word-spacing:0;letter-spacing:0" font-size="129.23px" line-height="125%" y="88.27504" x="109.92773" font-family="Gentium Book Basic">
  <tspan id="tspan28" y="88.27504" x="109.92773"/>
 </text>
 <text id="text30" style="text-anchor:middle" transform="scale(4.0128 .24920)" font-size="46.954px" y="5.0714598" x="224.47099" font-family="Arial"/>
 <text id="text32" style="word-spacing:0;letter-spacing:0" font-size="129.23px" line-height="125%" y="-92.98494" x="-961.65228" font-family="Gentium Book Basic">
  <tspan id="tspan34" y="-92.98494" x="-961.65228"/>
 </text>
 <text id="text36" style="text-anchor:middle" transform="scale(4.0128 .24920)" font-size="46.954px" y="-722.2749" x="-42.567635" font-family="Arial"/>
 <text id="text38" style="word-spacing:0;letter-spacing:0" font-size="129.23px" line-height="125%" y="-309.45496" x="136.39771" font-family="Gentium Book Basic">
  <tspan id="tspan40" y="-309.45496" x="136.39771"/>
 </text>
 <text id="text42" style="text-anchor:middle" transform="scale(4.0128 .24920)" font-size="46.954px" y="-1590.9506" x="231.07097" font-family="Arial"/>
 <text id="text44" style="word-spacing:0;letter-spacing:0" font-size="129.23px" line-height="125%" y="-389.45493" x="717.66772" font-family="Gentium Book Basic">
  <tspan id="tspan46" y="-389.45493" x="717.66772"/>
 </text>
 <text id="text48" style="text-anchor:middle" transform="scale(4.0128 .24920)" font-size="46.954px" y="-1911.9789" x="375.92023" font-family="Arial"/>
 <text id="text50" style="word-spacing:0;letter-spacing:0" font-size="129.23px" line-height="125%" y="-861.85498" x="328.54773" font-family="Gentium Book Basic">
  <tspan id="tspan52" y="-861.85498" x="328.54773"/>
 </text>
 <text id="text54" style="text-anchor:middle" transform="scale(4.0128 .24920)" font-size="46.954px" y="-3807.6292" x="278.95068" font-family="Arial"/>
 <text id="text56" style="word-spacing:0;letter-spacing:0" font-size="129.23px" line-height="125%" y="-941.86499" x="909.80774" font-family="Gentium Book Basic">
  <tspan id="tspan58" y="-941.86499" x="909.80774"/>
 </text>
 <text id="text60" style="text-anchor:middle" transform="scale(4.0128 .24920)" font-size="46.954px" y="-4128.6675" x="423.79999" font-family="Arial"/>
 <text id="text62" style="word-spacing:0;letter-spacing:0" font-size="208.33px" line-height="125%" y="472.85513" x="-922.99231" font-family="Gentium Book Basic">
  <tspan id="tspan64" y="472.85513" x="-922.99231"/>
 </text>
 <path id="path3295" opacity=".25" d="m168.69 41c-5.61 0-10.13 4.519-10.13 10.129v75.831h-101.27c-8.9 0-16.048 7.18-16.048 16.08v232.55c0 4.46 1.794 8.48 4.701 11.39l125.02 125.02h315.04c14.4 0 26-11.6 26-26v-308.39l-45.94-45.95c-2.91-2.9-6.93-4.7-11.38-4.7h-91.11l-83-82.999c-1.83-1.831-4.36-2.961-7.17-2.961h-23.67c-5.61 0-10.13 4.519-10.13 10.129v32.869l-40.04-40.037c-1.83-1.831-4.36-2.961-7.17-2.961h-23.7z"/>
 <path id="rect3046" fill="#fff" d="m168.69 41c-5.6103 0-10.13 4.5194-10.13 10.13v75.83h-101.27c-8.8991 0-16.048 7.1775-16.048 16.077v232.56c0 8.8991 7.149 16.077 16.048 16.077h79.643l-1.5081 78.278-0.028 1.0528 0.7968-0.71135 87.61-78.619h230.88c8.8991 0 16.077-7.1775 16.077-16.077v-232.56c0-8.8991-7.1775-16.077-16.077-16.077h-171.15v-75.83c0-5.611-4.52-10.13-10.13-10.13h-23.674c-5.6103 0-10.13 4.5194-10.13 10.13v75.83h-37.076v-75.83c0-5.611-4.52-10.13-10.13-10.13h-23.702zm26.206 175.36c35.486 0 64.25 28.763 64.25 64.25 0 35.486-28.763 64.25-64.25 64.25-35.486 0-64.278-28.763-64.278-64.25 0-35.486 28.792-64.25 64.278-64.25zm143.86 9.0769c30.472 0 55.173 24.701 55.173 55.173s-24.701 55.173-55.173 55.173-55.173-24.701-55.173-55.173 24.701-55.173 55.173-55.173z"/>
</svg>
