<?xml version="1.0" encoding="UTF-8" standalone="no"?>
<!-- Created with Inkscape (http://www.inkscape.org/) -->
<svg id="svg2" xmlns:rdf="http://www.w3.org/1999/02/22-rdf-syntax-ns#" xmlns="http://www.w3.org/2000/svg" height="100%" width="100%" version="1.1" xmlns:cc="http://creativecommons.org/ns#" xmlns:xlink="http://www.w3.org/1999/xlink" viewBox="0 0 512 512" xmlns:dc="http://purl.org/dc/elements/1.1/">
 <metadata id="metadata10">
  <rdf:RDF>
   <cc:Work rdf:about="">
    <dc:format>image/svg+xml</dc:format>
    <dc:type rdf:resource="http://purl.org/dc/dcmitype/StillImage"/>
    <dc:title/>
   </cc:Work>
  </rdf:RDF>
 </metadata>
 <text id="text20" style="word-spacing:0;letter-spacing:0" font-size="129.23px" line-height="125%" y="168.27504" x="-471.34229" font-family="Gentium Book Basic">
  <tspan id="tspan22" y="168.27504" x="-471.34229"/>
 </text>
 <text id="text24" style="text-anchor:middle" transform="scale(4.0128 .24920)" font-size="46.954px" y="326.10962" x="79.621727" font-family="Arial"/>
 <text id="text26" style="word-spacing:0;letter-spacing:0" font-size="129.23px" line-height="125%" y="88.27504" x="109.92773" font-family="Gentium Book Basic">
  <tspan id="tspan28" y="88.27504" x="109.92773"/>
 </text>
 <text id="text30" style="text-anchor:middle" transform="scale(4.0128 .24920)" font-size="46.954px" y="5.0714598" x="224.47099" font-family="Arial"/>
 <text id="text32" style="word-spacing:0;letter-spacing:0" font-size="129.23px" line-height="125%" y="-92.98494" x="-961.65228" font-family="Gentium Book Basic">
  <tspan id="tspan34" y="-92.98494" x="-961.65228"/>
 </text>
 <text id="text36" style="text-anchor:middle" transform="scale(4.0128 .24920)" font-size="46.954px" y="-722.2749" x="-42.567635" font-family="Arial"/>
 <text id="text38" style="word-spacing:0;letter-spacing:0" font-size="129.23px" line-height="125%" y="-309.45496" x="136.39771" font-family="Gentium Book Basic">
  <tspan id="tspan40" y="-309.45496" x="136.39771"/>
 </text>
 <text id="text42" style="text-anchor:middle" transform="scale(4.0128 .24920)" font-size="46.954px" y="-1590.9506" x="231.07097" font-family="Arial"/>
 <text id="text44" style="word-spacing:0;letter-spacing:0" font-size="129.23px" line-height="125%" y="-389.45493" x="717.66772" font-family="Gentium Book Basic">
  <tspan id="tspan46" y="-389.45493" x="717.66772"/>
 </text>
 <text id="text48" style="text-anchor:middle" transform="scale(4.0128 .24920)" font-size="46.954px" y="-1911.9789" x="375.92023" font-family="Arial"/>
 <text id="text50" style="word-spacing:0;letter-spacing:0" font-size="129.23px" line-height="125%" y="-861.85498" x="328.54773" font-family="Gentium Book Basic">
  <tspan id="tspan52" y="-861.85498" x="328.54773"/>
 </text>
 <text id="text54" style="text-anchor:middle" transform="scale(4.0128 .24920)" font-size="46.954px" y="-3807.6292" x="278.95068" font-family="Arial"/>
 <text id="text56" style="word-spacing:0;letter-spacing:0" font-size="129.23px" line-height="125%" y="-941.86499" x="909.80774" font-family="Gentium Book Basic">
  <tspan id="tspan58" y="-941.86499" x="909.80774"/>
 </text>
 <text id="text60" style="text-anchor:middle" transform="scale(4.0128 .24920)" font-size="46.954px" y="-4128.6675" x="423.79999" font-family="Arial"/>
 <text id="text62" style="word-spacing:0;letter-spacing:0" font-size="208.33px" line-height="125%" y="472.85513" x="-922.99231" font-family="Gentium Book Basic">
  <tspan id="tspan64" y="472.85513" x="-922.99231"/>
 </text>
 <text id="text11" font-size="129.23px" style="word-spacing:0;letter-spacing:0" line-height="125%" y="198.42" x="75.110001" font-family="&apos;Gentium Book Basic&apos;">
  <tspan id="tspan13" y="198.42" x="75.110001"/>
 </text>
 <text id="text15" style="text-anchor:middle" transform="scale(4.0128 .24920)" font-size="46.954px" y="447.0477" x="215.7989" font-family="Arial"/>
 <text id="text17" font-size="129.23px" style="word-spacing:0;letter-spacing:0" line-height="125%" y="118.42" x="656.38" font-family="&apos;Gentium Book Basic&apos;">
  <tspan id="tspan19" y="118.42" x="656.38"/>
 </text>
 <text id="text21" style="text-anchor:middle" transform="scale(4.0128 .24920)" font-size="46.954px" y="126.02935" x="360.64813" font-family="Arial"/>
 <text id="text23" font-size="129.23px" style="word-spacing:0;letter-spacing:0" line-height="125%" y="-62.844002" x="-415.20001" font-family="&apos;Gentium Book Basic&apos;">
  <tspan id="tspan25" y="-62.844002" x="-415.20001"/>
 </text>
 <text id="text27" style="text-anchor:middle" transform="scale(4.0128 .24920)" font-size="46.954px" y="-601.32697" x="93.60952" font-family="Arial"/>
 <text id="text29" font-size="129.23px" style="word-spacing:0;letter-spacing:0" line-height="125%" y="-279.31" x="682.84998" font-family="&apos;Gentium Book Basic&apos;">
  <tspan id="tspan31" y="-279.31" x="682.84998"/>
 </text>
 <text id="text33" style="text-anchor:middle" transform="scale(4.0128 .24920)" font-size="46.954px" y="-1469.9924" x="367.24811" font-family="Arial"/>
 <text id="text35" font-size="129.23px" style="word-spacing:0;letter-spacing:0" line-height="125%" y="-359.32001" x="1264.12" font-family="&apos;Gentium Book Basic&apos;">
  <tspan id="tspan37" y="-359.32001" x="1264.12"/>
 </text>
 <text id="text39" style="text-anchor:middle" transform="scale(4.0128 .24920)" font-size="46.954px" y="-1791.0209" x="512.09735" font-family="Arial"/>
 <text id="text41" font-size="129.23px" style="word-spacing:0;letter-spacing:0" line-height="125%" y="-831.71997" x="875" font-family="&apos;Gentium Book Basic&apos;">
  <tspan id="tspan43" y="-831.71997" x="875"/>
 </text>
 <text id="text45" style="text-anchor:middle" transform="scale(4.0128 .24920)" font-size="46.954px" y="-3686.6611" x="415.12787" font-family="Arial"/>
 <text id="text47" font-size="129.23px" style="word-spacing:0;letter-spacing:0" line-height="125%" y="-911.71997" x="1456.26" font-family="&apos;Gentium Book Basic&apos;">
  <tspan id="tspan49" y="-911.71997" x="1456.26"/>
 </text>
 <text id="text51" style="text-anchor:middle" transform="scale(4.0128 .24920)" font-size="46.954px" y="-4007.6895" x="559.97711" font-family="Arial"/>
 <text id="text53" font-size="208.33px" style="word-spacing:0;letter-spacing:0" line-height="125%" y="503" x="-376.54001" font-family="&apos;Gentium Book Basic&apos;">
  <tspan id="tspan55" y="503" x="-376.54001"/>
 </text>
 <path id="path9-0" d="m26 0c-14.397 0-26 11.603-26 26v460c0 14.397 11.603 26 26 26h460c14.397 0 26-11.603 26-26v-460c0-14.397-11.6-26-26-26h-460" fill="#282629"/>
 <path id="path13" opacity=".25" fill-rule="evenodd" d="m435.03 47.529v0.008h-24.56v0.004 10.715 0.004l11.37 11.369v13.412l-23.22-23.221v-0.002h-25.78v11.25l-11.25-11.25h-25.75v90.942l11.25 11.25h-11.25v58.27l-11.25-11.25v0.01h-0.03l-149.22-149.22v-0.002h-25.75v11.25l-11.25-11.25h-25.34l-12.28-12.281h-24.56v0.002 102.43 0.01 103.65l0.529 0.53h-0.529v102.41 103.66l51.77 51.77h358.07c14.4 0 26-11.6 26-26v-361.5l-76.97-76.971z"/>
 <text id="text285" font-size="208.33px" style="word-spacing:0;letter-spacing:0" line-height="125%" y="562.59998" x="-1775.13" font-family="&apos;Gentium Book Basic&apos;">
  <tspan id="tspan287" y="562.59998" x="-1775.13"/>
 </text>
 <text id="text289" style="text-anchor:middle" transform="scale(4.0128 .24920)" font-size="75.7px" y="1694.7213" x="-124.63936" font-family="Arial"/>
 <text id="text291" font-size="129.23px" style="word-spacing:0;letter-spacing:0" line-height="125%" y="244.44" x="114.99" font-family="&apos;Gentium Book Basic&apos;">
  <tspan id="tspan293" y="244.44" x="114.99"/>
 </text>
 <text id="text295" style="text-anchor:middle" transform="scale(4.0128 .24920)" font-size="46.954px" y="631.73676" x="225.73885" font-family="Arial"/>
 <text id="text297" font-size="129.23px" style="word-spacing:0;letter-spacing:0" line-height="125%" y="164.44" x="696.26001" font-family="&apos;Gentium Book Basic&apos;">
  <tspan id="tspan299" y="164.44" x="696.26001"/>
 </text>
 <text id="text301" style="text-anchor:middle" transform="scale(4.0128 .24920)" font-size="46.954px" y="310.69843" x="370.5881" font-family="Arial"/>
 <text id="text303" font-size="129.23px" style="word-spacing:0;letter-spacing:0" line-height="125%" y="-16.820999" x="-375.32001" font-family="&apos;Gentium Book Basic&apos;">
  <tspan id="tspan305" y="-16.820999" x="-375.32001"/>
 </text>
 <text id="text307" style="text-anchor:middle" transform="scale(4.0128 .24920)" font-size="46.954px" y="-416.63788" x="103.54948" font-family="Arial"/>
 <text id="text309" font-size="129.23px" style="word-spacing:0;letter-spacing:0" line-height="125%" y="-233.28999" x="722.72998" font-family="&apos;Gentium Book Basic&apos;">
  <tspan id="tspan311" y="-233.28999" x="722.72998"/>
 </text>
 <text id="text313" style="text-anchor:middle" transform="scale(4.0128 .24920)" font-size="46.954px" y="-1285.3134" x="377.18808" font-family="Arial"/>
 <text id="text315" font-size="129.23px" style="word-spacing:0;letter-spacing:0" line-height="125%" y="-313.29001" x="1304" font-family="&apos;Gentium Book Basic&apos;">
  <tspan id="tspan317" y="-313.29001" x="1304"/>
 </text>
 <text id="text319" style="text-anchor:middle" transform="scale(4.0128 .24920)" font-size="46.954px" y="-1606.3418" x="522.03729" font-family="Arial"/>
 <text id="text321" font-size="129.23px" style="word-spacing:0;letter-spacing:0" line-height="125%" y="-785.69" x="914.88" font-family="&apos;Gentium Book Basic&apos;">
  <tspan id="tspan323" y="-785.69" x="914.88"/>
 </text>
 <text id="text325" style="text-anchor:middle" transform="scale(4.0128 .24920)" font-size="46.954px" y="-3501.9822" x="425.06784" font-family="Arial"/>
 <text id="text327" font-size="129.23px" style="word-spacing:0;letter-spacing:0" line-height="125%" y="-865.70001" x="1496.14" font-family="&apos;Gentium Book Basic&apos;">
  <tspan id="tspan329" y="-865.70001" x="1496.14"/>
 </text>
 <text id="text331" style="text-anchor:middle" transform="scale(4.0128 .24920)" font-size="46.954px" y="-3823.0105" x="569.91705" font-family="Arial"/>
 <text id="text333" font-size="208.33px" style="word-spacing:0;letter-spacing:0" line-height="125%" y="549.02002" x="-336.66" font-family="&apos;Gentium Book Basic&apos;">
  <tspan id="tspan335" y="549.02002" x="-336.66"/>
 </text>
 <g id="g337" transform="matrix(1.1722 0 0 1.1722 -46.539 -674.71)">
  <g id="g339" transform="matrix(1.2002 0 0 1.2002 -1.786 -164.81)">
   <g id="g341" transform="translate(-48.19)">
    <path id="1" fill="#5c805a" d="m321.36 659.56h18.314v64.65h-18.314z" fill-rule="evenodd"/>
    <path id="2" fill="#5c805a" d="m347.67 659.56h18.314v64.65h-18.314z" fill-rule="evenodd"/>
    <path id="3" fill="#5c805a" d="m321.36 732.21h18.314v64.65h-18.314z" fill-rule="evenodd"/>
    <path id="4" fill="#5c805a" d="m347.67 732.21h18.314v64.65h-18.314z" fill-rule="evenodd"/>
    <path id="5" fill="#5c805a" d="m321.36 804.86h18.314v64.65h-18.314z" fill-rule="evenodd"/>
    <path id="6" fill="#5c805a" d="m347.67 804.86h18.314v64.65h-18.314z" fill-rule="evenodd"/>
    <path id="7" fill="#5c805a" d="m321.36 877.51h18.314v64.65h-18.314z" fill-rule="evenodd"/>
    <path id="8" fill="#5c805a" d="m347.67 877.51h18.314v64.65h-18.314z" fill-rule="evenodd"/>
   </g>
   <g id="g351" transform="translate(-206.07)">
    <use id="use353" xlink:href="#1" height="1" width="1" y="0" x="0"/>
    <use id="use355" xlink:href="#2" height="1" width="1" y="0" x="0"/>
    <use id="use357" xlink:href="#3" height="1" width="1" y="0" x="0"/>
    <use id="use359" xlink:href="#4" height="1" width="1" y="0" x="0"/>
    <use id="use361" xlink:href="#5" height="1" width="1" y="0" x="0"/>
    <use id="use363" xlink:href="#6" height="1" width="1" y="0" x="0"/>
    <use id="use365" xlink:href="#7" height="1" width="1" y="0" x="0"/>
    <use id="use367" xlink:href="#8" height="1" width="1" y="0" x="0"/>
   </g>
   <g id="g369" fill-rule="evenodd" fill="#5c805a" transform="translate(0,27.27)">
    <path id="path371" d="m167.91 738.35h18.314v64.65h-18.314z"/>
    <path id="path373" d="m194.23 738.35h18.314v64.65h-18.314z"/>
    <g id="g375" transform="translate(52.628,-72.65)">
     <path id="path377" d="m167.91 811h18.314v64.65h-18.314z"/>
     <path id="path379" d="m194.23 811h18.314v64.65h-18.314z"/>
    </g>
   </g>
  </g>
  <g id="g381" style="word-spacing:0;letter-spacing:0" font-family="Sans" transform="translate(7.258 -.039)" line-height="125%" font-size="88.65px" font-weight="bold" fill="#fff">
   <text id="text383" y="690.09998" x="378.16">
    <tspan id="tspan385" y="690.09998" x="378.16">]</tspan>
   </text>
   <text id="text387" y="777.47998" x="378.16">
    <tspan id="tspan389" y="777.47998" x="378.16">]</tspan>
   </text>
   <g id="g391" transform="translate(0,176.27)">
    <text id="text393" y="690.09998" x="378.16">
     <tspan id="tspan395" y="690.09998" x="378.16">]</tspan>
    </text>
    <text id="text397" y="777.47998" x="378.16">
     <tspan id="tspan399" y="777.47998" x="378.16">]</tspan>
    </text>
   </g>
  </g>
  <g id="g401" style="word-spacing:0;letter-spacing:0" font-family="Sans" transform="matrix(-1 0 0 1 508.95 -.039)" line-height="125%" font-size="88.65px" font-weight="bold" fill="#fff">
   <text id="text403" y="690.09998" x="378.16">
    <tspan id="tspan405" y="690.09998" x="378.16">]</tspan>
   </text>
   <text id="text407" y="777.47998" x="378.16">
    <tspan id="tspan409" y="777.47998" x="378.16">]</tspan>
   </text>
   <g id="g411" transform="translate(0,176.27)">
    <text id="text413" y="690.09998" x="378.16">
     <tspan id="tspan415" y="690.09998" x="378.16">]</tspan>
    </text>
    <text id="text417" y="777.47998" x="378.16">
     <tspan id="tspan419" y="777.47998" x="378.16">]</tspan>
    </text>
   </g>
  </g>
 </g>
</svg>
