<?xml version="1.0" encoding="UTF-8" standalone="no"?>
<!-- Created with Inkscape (http://www.inkscape.org/) -->
<svg id="svg2" xmlns:rdf="http://www.w3.org/1999/02/22-rdf-syntax-ns#" xmlns="http://www.w3.org/2000/svg" height="100%" width="100%" version="1.1" xmlns:cc="http://creativecommons.org/ns#" xmlns:dc="http://purl.org/dc/elements/1.1/" viewBox="0 0 512 512">
 <metadata id="metadata10">
  <rdf:RDF>
   <cc:Work rdf:about="">
    <dc:format>image/svg+xml</dc:format>
    <dc:type rdf:resource="http://purl.org/dc/dcmitype/StillImage"/>
    <dc:title/>
   </cc:Work>
  </rdf:RDF>
 </metadata>
 <text id="text20" style="word-spacing:0;letter-spacing:0" font-size="129.23px" line-height="125%" y="168.27504" x="-471.34229" font-family="Gentium Book Basic">
  <tspan id="tspan22" y="168.27504" x="-471.34229"/>
 </text>
 <text id="text24" style="text-anchor:middle" transform="scale(4.0128 .24920)" font-size="46.954px" y="326.10962" x="79.621727" font-family="Arial"/>
 <text id="text26" style="word-spacing:0;letter-spacing:0" font-size="129.23px" line-height="125%" y="88.27504" x="109.92773" font-family="Gentium Book Basic">
  <tspan id="tspan28" y="88.27504" x="109.92773"/>
 </text>
 <text id="text30" style="text-anchor:middle" transform="scale(4.0128 .24920)" font-size="46.954px" y="5.0714598" x="224.47099" font-family="Arial"/>
 <text id="text32" style="word-spacing:0;letter-spacing:0" font-size="129.23px" line-height="125%" y="-92.98494" x="-961.65228" font-family="Gentium Book Basic">
  <tspan id="tspan34" y="-92.98494" x="-961.65228"/>
 </text>
 <text id="text36" style="text-anchor:middle" transform="scale(4.0128 .24920)" font-size="46.954px" y="-722.2749" x="-42.567635" font-family="Arial"/>
 <text id="text38" style="word-spacing:0;letter-spacing:0" font-size="129.23px" line-height="125%" y="-309.45496" x="136.39771" font-family="Gentium Book Basic">
  <tspan id="tspan40" y="-309.45496" x="136.39771"/>
 </text>
 <text id="text42" style="text-anchor:middle" transform="scale(4.0128 .24920)" font-size="46.954px" y="-1590.9506" x="231.07097" font-family="Arial"/>
 <text id="text44" style="word-spacing:0;letter-spacing:0" font-size="129.23px" line-height="125%" y="-389.45493" x="717.66772" font-family="Gentium Book Basic">
  <tspan id="tspan46" y="-389.45493" x="717.66772"/>
 </text>
 <text id="text48" style="text-anchor:middle" transform="scale(4.0128 .24920)" font-size="46.954px" y="-1911.9789" x="375.92023" font-family="Arial"/>
 <text id="text50" style="word-spacing:0;letter-spacing:0" font-size="129.23px" line-height="125%" y="-861.85498" x="328.54773" font-family="Gentium Book Basic">
  <tspan id="tspan52" y="-861.85498" x="328.54773"/>
 </text>
 <text id="text54" style="text-anchor:middle" transform="scale(4.0128 .24920)" font-size="46.954px" y="-3807.6292" x="278.95068" font-family="Arial"/>
 <text id="text56" style="word-spacing:0;letter-spacing:0" font-size="129.23px" line-height="125%" y="-941.86499" x="909.80774" font-family="Gentium Book Basic">
  <tspan id="tspan58" y="-941.86499" x="909.80774"/>
 </text>
 <text id="text60" style="text-anchor:middle" transform="scale(4.0128 .24920)" font-size="46.954px" y="-4128.6675" x="423.79999" font-family="Arial"/>
 <text id="text62" style="word-spacing:0;letter-spacing:0" font-size="208.33px" line-height="125%" y="472.85513" x="-922.99231" font-family="Gentium Book Basic">
  <tspan id="tspan64" y="472.85513" x="-922.99231"/>
 </text>
 <text id="text11" font-size="129.23px" style="word-spacing:0;letter-spacing:0" line-height="125%" y="198.42" x="75.110001" font-family="&apos;Gentium Book Basic&apos;">
  <tspan id="tspan13" y="198.42" x="75.110001"/>
 </text>
 <text id="text15" style="text-anchor:middle" transform="scale(4.0128 .24920)" font-size="46.954px" y="447.0477" x="215.7989" font-family="Arial"/>
 <text id="text17" font-size="129.23px" style="word-spacing:0;letter-spacing:0" line-height="125%" y="118.42" x="656.38" font-family="&apos;Gentium Book Basic&apos;">
  <tspan id="tspan19" y="118.42" x="656.38"/>
 </text>
 <text id="text21" style="text-anchor:middle" transform="scale(4.0128 .24920)" font-size="46.954px" y="126.02935" x="360.64813" font-family="Arial"/>
 <text id="text23" font-size="129.23px" style="word-spacing:0;letter-spacing:0" line-height="125%" y="-62.844002" x="-415.20001" font-family="&apos;Gentium Book Basic&apos;">
  <tspan id="tspan25" y="-62.844002" x="-415.20001"/>
 </text>
 <text id="text27" style="text-anchor:middle" transform="scale(4.0128 .24920)" font-size="46.954px" y="-601.32697" x="93.60952" font-family="Arial"/>
 <text id="text29" font-size="129.23px" style="word-spacing:0;letter-spacing:0" line-height="125%" y="-279.31" x="682.84998" font-family="&apos;Gentium Book Basic&apos;">
  <tspan id="tspan31" y="-279.31" x="682.84998"/>
 </text>
 <text id="text33" style="text-anchor:middle" transform="scale(4.0128 .24920)" font-size="46.954px" y="-1469.9924" x="367.24811" font-family="Arial"/>
 <text id="text35" font-size="129.23px" style="word-spacing:0;letter-spacing:0" line-height="125%" y="-359.32001" x="1264.12" font-family="&apos;Gentium Book Basic&apos;">
  <tspan id="tspan37" y="-359.32001" x="1264.12"/>
 </text>
 <text id="text39" style="text-anchor:middle" transform="scale(4.0128 .24920)" font-size="46.954px" y="-1791.0209" x="512.09735" font-family="Arial"/>
 <text id="text41" font-size="129.23px" style="word-spacing:0;letter-spacing:0" line-height="125%" y="-831.71997" x="875" font-family="&apos;Gentium Book Basic&apos;">
  <tspan id="tspan43" y="-831.71997" x="875"/>
 </text>
 <text id="text45" style="text-anchor:middle" transform="scale(4.0128 .24920)" font-size="46.954px" y="-3686.6611" x="415.12787" font-family="Arial"/>
 <text id="text47" font-size="129.23px" style="word-spacing:0;letter-spacing:0" line-height="125%" y="-911.71997" x="1456.26" font-family="&apos;Gentium Book Basic&apos;">
  <tspan id="tspan49" y="-911.71997" x="1456.26"/>
 </text>
 <text id="text51" style="text-anchor:middle" transform="scale(4.0128 .24920)" font-size="46.954px" y="-4007.6895" x="559.97711" font-family="Arial"/>
 <text id="text53" font-size="208.33px" style="word-spacing:0;letter-spacing:0" line-height="125%" y="503" x="-376.54001" font-family="&apos;Gentium Book Basic&apos;">
  <tspan id="tspan55" y="503" x="-376.54001"/>
 </text>
 <text id="text285" font-size="208.33px" style="word-spacing:0;letter-spacing:0" line-height="125%" y="562.59998" x="-1775.13" font-family="&apos;Gentium Book Basic&apos;">
  <tspan id="tspan287" y="562.59998" x="-1775.13"/>
 </text>
 <text id="text289" style="text-anchor:middle" transform="scale(4.0128 .24920)" font-size="75.7px" y="1694.7213" x="-124.63936" font-family="Arial"/>
 <text id="text291" font-size="129.23px" style="word-spacing:0;letter-spacing:0" line-height="125%" y="244.44" x="114.99" font-family="&apos;Gentium Book Basic&apos;">
  <tspan id="tspan293" y="244.44" x="114.99"/>
 </text>
 <text id="text295" style="text-anchor:middle" transform="scale(4.0128 .24920)" font-size="46.954px" y="631.73676" x="225.73885" font-family="Arial"/>
 <text id="text297" font-size="129.23px" style="word-spacing:0;letter-spacing:0" line-height="125%" y="164.44" x="696.26001" font-family="&apos;Gentium Book Basic&apos;">
  <tspan id="tspan299" y="164.44" x="696.26001"/>
 </text>
 <text id="text301" style="text-anchor:middle" transform="scale(4.0128 .24920)" font-size="46.954px" y="310.69843" x="370.5881" font-family="Arial"/>
 <text id="text303" font-size="129.23px" style="word-spacing:0;letter-spacing:0" line-height="125%" y="-16.820999" x="-375.32001" font-family="&apos;Gentium Book Basic&apos;">
  <tspan id="tspan305" y="-16.820999" x="-375.32001"/>
 </text>
 <text id="text307" style="text-anchor:middle" transform="scale(4.0128 .24920)" font-size="46.954px" y="-416.63788" x="103.54948" font-family="Arial"/>
 <text id="text309" font-size="129.23px" style="word-spacing:0;letter-spacing:0" line-height="125%" y="-233.28999" x="722.72998" font-family="&apos;Gentium Book Basic&apos;">
  <tspan id="tspan311" y="-233.28999" x="722.72998"/>
 </text>
 <text id="text313" style="text-anchor:middle" transform="scale(4.0128 .24920)" font-size="46.954px" y="-1285.3134" x="377.18808" font-family="Arial"/>
 <text id="text315" font-size="129.23px" style="word-spacing:0;letter-spacing:0" line-height="125%" y="-313.29001" x="1304" font-family="&apos;Gentium Book Basic&apos;">
  <tspan id="tspan317" y="-313.29001" x="1304"/>
 </text>
 <text id="text319" style="text-anchor:middle" transform="scale(4.0128 .24920)" font-size="46.954px" y="-1606.3418" x="522.03729" font-family="Arial"/>
 <text id="text321" font-size="129.23px" style="word-spacing:0;letter-spacing:0" line-height="125%" y="-785.69" x="914.88" font-family="&apos;Gentium Book Basic&apos;">
  <tspan id="tspan323" y="-785.69" x="914.88"/>
 </text>
 <text id="text325" style="text-anchor:middle" transform="scale(4.0128 .24920)" font-size="46.954px" y="-3501.9822" x="425.06784" font-family="Arial"/>
 <text id="text327" font-size="129.23px" style="word-spacing:0;letter-spacing:0" line-height="125%" y="-865.70001" x="1496.14" font-family="&apos;Gentium Book Basic&apos;">
  <tspan id="tspan329" y="-865.70001" x="1496.14"/>
 </text>
 <text id="text331" style="text-anchor:middle" transform="scale(4.0128 .24920)" font-size="46.954px" y="-3823.0105" x="569.91705" font-family="Arial"/>
 <text id="text333" font-size="208.33px" style="word-spacing:0;letter-spacing:0" line-height="125%" y="549.02002" x="-336.66" font-family="&apos;Gentium Book Basic&apos;">
  <tspan id="tspan335" y="549.02002" x="-336.66"/>
 </text>
 <text id="text20-0" font-size="129.23px" style="word-spacing:0;letter-spacing:0" line-height="125%" y="113.0488" x="-17.259886" font-family="&apos;Gentium Book Basic&apos;">
  <tspan id="tspan22-8" y="113.0488" x="-17.259886"/>
 </text>
 <text id="text24-1" style="text-anchor:middle" transform="scale(4.0128 .24920)" font-size="46.954px" y="104.49664" x="192.77965" font-family="Arial"/>
 <text id="text26-9" font-size="129.23px" style="word-spacing:0;letter-spacing:0" line-height="125%" y="33.048801" x="564.01013" font-family="&apos;Gentium Book Basic&apos;">
  <tspan id="tspan28-7" y="33.048801" x="564.01013"/>
 </text>
 <text id="text30-3" style="text-anchor:middle" transform="scale(4.0128 .24920)" font-size="46.954px" y="-216.54152" x="337.62891" font-family="Arial"/>
 <text id="text32-0" font-size="129.23px" style="word-spacing:0;letter-spacing:0" line-height="125%" y="-148.21118" x="-507.56989" font-family="&apos;Gentium Book Basic&apos;">
  <tspan id="tspan34-6" y="-148.21118" x="-507.56989"/>
 </text>
 <text id="text36-9" style="text-anchor:middle" transform="scale(4.0128 .24920)" font-size="46.954px" y="-943.88788" x="70.590279" font-family="Arial"/>
 <text id="text38-5" font-size="129.23px" style="word-spacing:0;letter-spacing:0" line-height="125%" y="-364.68118" x="590.4801" font-family="&apos;Gentium Book Basic&apos;">
  <tspan id="tspan40-2" y="-364.68118" x="590.4801"/>
 </text>
 <text id="text42-2" style="text-anchor:middle" transform="scale(4.0128 .24920)" font-size="46.954px" y="-1812.5635" x="344.22888" font-family="Arial"/>
 <text id="text44-4" font-size="129.23px" style="word-spacing:0;letter-spacing:0" line-height="125%" y="-444.68115" x="1171.7501" font-family="&apos;Gentium Book Basic&apos;">
  <tspan id="tspan46-6" y="-444.68115" x="1171.7501"/>
 </text>
 <text id="text48-6" style="text-anchor:middle" transform="scale(4.0128 .24920)" font-size="46.954px" y="-2133.5918" x="489.07812" font-family="Arial"/>
 <text id="text50-1" font-size="129.23px" style="word-spacing:0;letter-spacing:0" line-height="125%" y="-917.08118" x="782.63013" font-family="&apos;Gentium Book Basic&apos;">
  <tspan id="tspan52-8" y="-917.08118" x="782.63013"/>
 </text>
 <text id="text54-7" style="text-anchor:middle" transform="scale(4.0128 .24920)" font-size="46.954px" y="-4029.2422" x="392.10858" font-family="Arial"/>
 <text id="text56-1" font-size="129.23px" style="word-spacing:0;letter-spacing:0" line-height="125%" y="-997.09119" x="1363.8901" font-family="&apos;Gentium Book Basic&apos;">
  <tspan id="tspan58-3" y="-997.09119" x="1363.8901"/>
 </text>
 <text id="text60-6" style="text-anchor:middle" transform="scale(4.0128 .24920)" font-size="46.954px" y="-4350.2808" x="536.95789" font-family="Arial"/>
 <text id="text62-6" font-size="208.33px" style="word-spacing:0;letter-spacing:0" line-height="125%" y="417.62891" x="-468.90991" font-family="&apos;Gentium Book Basic&apos;">
  <tspan id="tspan64-5" y="417.62891" x="-468.90991"/>
 </text>
 <path id="rect2986-2" fill="#86bb40" d="m26 0c-14.397 0-26 11.603-26 26v460c0 14.397 11.603 26 26 26h460c14.397 0 26-11.603 26-26v-460c0-14.397-11.6-26-26-26h-460z"/>
 <text id="text20-05" font-size="129.23px" style="word-spacing:0;letter-spacing:0" line-height="125%" y="79.299431" x="-305.66357" font-family="&apos;Gentium Book Basic&apos;">
  <tspan id="tspan22-9" y="79.299431" x="-305.66357"/>
 </text>
 <text id="text24-3" style="text-anchor:middle" transform="scale(4.0128 .24920)" font-size="46.954px" y="-30.933531" x="120.90907" font-family="Arial"/>
 <text id="text26-7" font-size="129.23px" style="word-spacing:0;letter-spacing:0" line-height="125%" y="-0.70056993" x="275.60645" font-family="&apos;Gentium Book Basic&apos;">
  <tspan id="tspan28-0" y="-0.70056993" x="275.60645"/>
 </text>
 <text id="text30-4" style="text-anchor:middle" transform="scale(4.0128 .24920)" font-size="46.954px" y="-351.97168" x="265.75833" font-family="Arial"/>
 <text id="text32-6" font-size="129.23px" style="word-spacing:0;letter-spacing:0" line-height="125%" y="-181.96056" x="-795.97357" font-family="&apos;Gentium Book Basic&apos;">
  <tspan id="tspan34-7" y="-181.96056" x="-795.97357"/>
 </text>
 <text id="text36-8" style="text-anchor:middle" transform="scale(4.0128 .24920)" font-size="46.954px" y="-1079.3181" x="-1.280292" font-family="Arial"/>
 <text id="text38-8" font-size="129.23px" style="word-spacing:0;letter-spacing:0" line-height="125%" y="-398.43054" x="302.07642" font-family="&apos;Gentium Book Basic&apos;">
  <tspan id="tspan40-6" y="-398.43054" x="302.07642"/>
 </text>
 <text id="text42-9" style="text-anchor:middle" transform="scale(4.0128 .24920)" font-size="46.954px" y="-1947.9937" x="272.35831" font-family="Arial"/>
 <text id="text44-6" font-size="129.23px" style="word-spacing:0;letter-spacing:0" line-height="125%" y="-478.43054" x="883.34644" font-family="&apos;Gentium Book Basic&apos;">
  <tspan id="tspan46-0" y="-478.43054" x="883.34644"/>
 </text>
 <text id="text48-4" style="text-anchor:middle" transform="scale(4.0128 .24920)" font-size="46.954px" y="-2269.022" x="417.20755" font-family="Arial"/>
 <text id="text50-0" font-size="129.23px" style="word-spacing:0;letter-spacing:0" line-height="125%" y="-950.83057" x="494.22644" font-family="&apos;Gentium Book Basic&apos;">
  <tspan id="tspan52-82" y="-950.83057" x="494.22644"/>
 </text>
 <text id="text54-1" style="text-anchor:middle" transform="scale(4.0128 .24920)" font-size="46.954px" y="-4164.6724" x="320.23801" font-family="Arial"/>
 <text id="text56-6" font-size="129.23px" style="word-spacing:0;letter-spacing:0" line-height="125%" y="-1030.8406" x="1075.4865" font-family="&apos;Gentium Book Basic&apos;">
  <tspan id="tspan58-9" y="-1030.8406" x="1075.4865"/>
 </text>
 <text id="text60-3" style="text-anchor:middle" transform="scale(4.0128 .24920)" font-size="46.954px" y="-4485.7109" x="465.08731" font-family="Arial"/>
 <text id="text62-2" font-size="208.33px" style="word-spacing:0;letter-spacing:0" line-height="125%" y="383.87952" x="-757.3136" font-family="&apos;Gentium Book Basic&apos;">
  <tspan id="tspan64-7" y="383.87952" x="-757.3136"/>
 </text>
 <path id="path3218" opacity=".25" style="color:#000000" d="m95.379 41v238.46 151.75 32.95c0 2.29 0.132 4.58 0.279 6.84l41.002 41h349.34c14.4 0 26-11.6 26-26v-153.82l-125.4-125.39c-13.79-13.8-31.51-23.67-51.37-27.85l-137.94-137.94h-101.91z" fill-rule="evenodd"/>
 <path id="rect3020-7" style="color:#000000" d="m95.378 41v238.45 151.76 32.948c0 2.2959 0.13227 4.5836 0.27922 6.8409h100.8v-39.789h0.83766v-137.52c3.1258-12.635 14.574-21.919 28.201-21.919h61.01c16.033 0 29.04 12.867 29.039 28.899v170.32h100.8c0.14654-2.2573 0.27922-4.545 0.27878-6.8409v-184.7c0-56.962-45.93-102.75-102.89-102.75h-115.46c-0.32791 0-0.6502 0.005-0.97727 0l-0.01-135.7h-101.91z" fill-rule="evenodd" fill="#fff"/>
</svg>
