<?xml version="1.0" encoding="UTF-8" standalone="no"?>
<!-- Created with Inkscape (http://www.inkscape.org/) -->
<svg id="svg2" xmlns:rdf="http://www.w3.org/1999/02/22-rdf-syntax-ns#" xmlns="http://www.w3.org/2000/svg" height="100%" width="100%" version="1.1" xmlns:cc="http://creativecommons.org/ns#" xmlns:dc="http://purl.org/dc/elements/1.1/" viewBox="0 0 512 512">
 <metadata id="metadata10">
  <rdf:RDF>
   <cc:Work rdf:about="">
    <dc:format>image/svg+xml</dc:format>
    <dc:type rdf:resource="http://purl.org/dc/dcmitype/StillImage"/>
    <dc:title/>
   </cc:Work>
  </rdf:RDF>
 </metadata>
 <text id="text20" style="word-spacing:0;letter-spacing:0" font-size="129.23px" line-height="125%" y="168.27504" x="-471.34229" font-family="Gentium Book Basic">
  <tspan id="tspan22" y="168.27504" x="-471.34229"/>
 </text>
 <text id="text24" style="text-anchor:middle" transform="scale(4.0128 .24920)" font-size="46.954px" y="326.10962" x="79.621727" font-family="Arial"/>
 <text id="text26" style="word-spacing:0;letter-spacing:0" font-size="129.23px" line-height="125%" y="88.27504" x="109.92773" font-family="Gentium Book Basic">
  <tspan id="tspan28" y="88.27504" x="109.92773"/>
 </text>
 <text id="text30" style="text-anchor:middle" transform="scale(4.0128 .24920)" font-size="46.954px" y="5.0714598" x="224.47099" font-family="Arial"/>
 <text id="text32" style="word-spacing:0;letter-spacing:0" font-size="129.23px" line-height="125%" y="-92.98494" x="-961.65228" font-family="Gentium Book Basic">
  <tspan id="tspan34" y="-92.98494" x="-961.65228"/>
 </text>
 <text id="text36" style="text-anchor:middle" transform="scale(4.0128 .24920)" font-size="46.954px" y="-722.2749" x="-42.567635" font-family="Arial"/>
 <text id="text38" style="word-spacing:0;letter-spacing:0" font-size="129.23px" line-height="125%" y="-309.45496" x="136.39771" font-family="Gentium Book Basic">
  <tspan id="tspan40" y="-309.45496" x="136.39771"/>
 </text>
 <text id="text42" style="text-anchor:middle" transform="scale(4.0128 .24920)" font-size="46.954px" y="-1590.9506" x="231.07097" font-family="Arial"/>
 <text id="text44" style="word-spacing:0;letter-spacing:0" font-size="129.23px" line-height="125%" y="-389.45493" x="717.66772" font-family="Gentium Book Basic">
  <tspan id="tspan46" y="-389.45493" x="717.66772"/>
 </text>
 <text id="text48" style="text-anchor:middle" transform="scale(4.0128 .24920)" font-size="46.954px" y="-1911.9789" x="375.92023" font-family="Arial"/>
 <text id="text50" style="word-spacing:0;letter-spacing:0" font-size="129.23px" line-height="125%" y="-861.85498" x="328.54773" font-family="Gentium Book Basic">
  <tspan id="tspan52" y="-861.85498" x="328.54773"/>
 </text>
 <text id="text54" style="text-anchor:middle" transform="scale(4.0128 .24920)" font-size="46.954px" y="-3807.6292" x="278.95068" font-family="Arial"/>
 <text id="text56" style="word-spacing:0;letter-spacing:0" font-size="129.23px" line-height="125%" y="-941.86499" x="909.80774" font-family="Gentium Book Basic">
  <tspan id="tspan58" y="-941.86499" x="909.80774"/>
 </text>
 <text id="text60" style="text-anchor:middle" transform="scale(4.0128 .24920)" font-size="46.954px" y="-4128.6675" x="423.79999" font-family="Arial"/>
 <text id="text62" style="word-spacing:0;letter-spacing:0" font-size="208.33px" line-height="125%" y="472.85513" x="-922.99231" font-family="Gentium Book Basic">
  <tspan id="tspan64" y="472.85513" x="-922.99231"/>
 </text>
 <text id="text11" font-size="129.23px" style="word-spacing:0;letter-spacing:0" line-height="125%" y="198.42" x="75.110001" font-family="&apos;Gentium Book Basic&apos;">
  <tspan id="tspan13" y="198.42" x="75.110001"/>
 </text>
 <text id="text15" style="text-anchor:middle" transform="scale(4.0128 .24920)" font-size="46.954px" y="447.0477" x="215.7989" font-family="Arial"/>
 <text id="text17" font-size="129.23px" style="word-spacing:0;letter-spacing:0" line-height="125%" y="118.42" x="656.38" font-family="&apos;Gentium Book Basic&apos;">
  <tspan id="tspan19" y="118.42" x="656.38"/>
 </text>
 <text id="text21" style="text-anchor:middle" transform="scale(4.0128 .24920)" font-size="46.954px" y="126.02935" x="360.64813" font-family="Arial"/>
 <text id="text23" font-size="129.23px" style="word-spacing:0;letter-spacing:0" line-height="125%" y="-62.844002" x="-415.20001" font-family="&apos;Gentium Book Basic&apos;">
  <tspan id="tspan25" y="-62.844002" x="-415.20001"/>
 </text>
 <text id="text27" style="text-anchor:middle" transform="scale(4.0128 .24920)" font-size="46.954px" y="-601.32697" x="93.60952" font-family="Arial"/>
 <text id="text29" font-size="129.23px" style="word-spacing:0;letter-spacing:0" line-height="125%" y="-279.31" x="682.84998" font-family="&apos;Gentium Book Basic&apos;">
  <tspan id="tspan31" y="-279.31" x="682.84998"/>
 </text>
 <text id="text33" style="text-anchor:middle" transform="scale(4.0128 .24920)" font-size="46.954px" y="-1469.9924" x="367.24811" font-family="Arial"/>
 <text id="text35" font-size="129.23px" style="word-spacing:0;letter-spacing:0" line-height="125%" y="-359.32001" x="1264.12" font-family="&apos;Gentium Book Basic&apos;">
  <tspan id="tspan37" y="-359.32001" x="1264.12"/>
 </text>
 <text id="text39" style="text-anchor:middle" transform="scale(4.0128 .24920)" font-size="46.954px" y="-1791.0209" x="512.09735" font-family="Arial"/>
 <text id="text41" font-size="129.23px" style="word-spacing:0;letter-spacing:0" line-height="125%" y="-831.71997" x="875" font-family="&apos;Gentium Book Basic&apos;">
  <tspan id="tspan43" y="-831.71997" x="875"/>
 </text>
 <text id="text45" style="text-anchor:middle" transform="scale(4.0128 .24920)" font-size="46.954px" y="-3686.6611" x="415.12787" font-family="Arial"/>
 <text id="text47" font-size="129.23px" style="word-spacing:0;letter-spacing:0" line-height="125%" y="-911.71997" x="1456.26" font-family="&apos;Gentium Book Basic&apos;">
  <tspan id="tspan49" y="-911.71997" x="1456.26"/>
 </text>
 <text id="text51" style="text-anchor:middle" transform="scale(4.0128 .24920)" font-size="46.954px" y="-4007.6895" x="559.97711" font-family="Arial"/>
 <text id="text53" font-size="208.33px" style="word-spacing:0;letter-spacing:0" line-height="125%" y="503" x="-376.54001" font-family="&apos;Gentium Book Basic&apos;">
  <tspan id="tspan55" y="503" x="-376.54001"/>
 </text>
 <text id="text285" font-size="208.33px" style="word-spacing:0;letter-spacing:0" line-height="125%" y="562.59998" x="-1775.13" font-family="&apos;Gentium Book Basic&apos;">
  <tspan id="tspan287" y="562.59998" x="-1775.13"/>
 </text>
 <text id="text289" style="text-anchor:middle" transform="scale(4.0128 .24920)" font-size="75.7px" y="1694.7213" x="-124.63936" font-family="Arial"/>
 <text id="text291" font-size="129.23px" style="word-spacing:0;letter-spacing:0" line-height="125%" y="244.44" x="114.99" font-family="&apos;Gentium Book Basic&apos;">
  <tspan id="tspan293" y="244.44" x="114.99"/>
 </text>
 <text id="text295" style="text-anchor:middle" transform="scale(4.0128 .24920)" font-size="46.954px" y="631.73676" x="225.73885" font-family="Arial"/>
 <text id="text297" font-size="129.23px" style="word-spacing:0;letter-spacing:0" line-height="125%" y="164.44" x="696.26001" font-family="&apos;Gentium Book Basic&apos;">
  <tspan id="tspan299" y="164.44" x="696.26001"/>
 </text>
 <text id="text301" style="text-anchor:middle" transform="scale(4.0128 .24920)" font-size="46.954px" y="310.69843" x="370.5881" font-family="Arial"/>
 <text id="text303" font-size="129.23px" style="word-spacing:0;letter-spacing:0" line-height="125%" y="-16.820999" x="-375.32001" font-family="&apos;Gentium Book Basic&apos;">
  <tspan id="tspan305" y="-16.820999" x="-375.32001"/>
 </text>
 <text id="text307" style="text-anchor:middle" transform="scale(4.0128 .24920)" font-size="46.954px" y="-416.63788" x="103.54948" font-family="Arial"/>
 <text id="text309" font-size="129.23px" style="word-spacing:0;letter-spacing:0" line-height="125%" y="-233.28999" x="722.72998" font-family="&apos;Gentium Book Basic&apos;">
  <tspan id="tspan311" y="-233.28999" x="722.72998"/>
 </text>
 <text id="text313" style="text-anchor:middle" transform="scale(4.0128 .24920)" font-size="46.954px" y="-1285.3134" x="377.18808" font-family="Arial"/>
 <text id="text315" font-size="129.23px" style="word-spacing:0;letter-spacing:0" line-height="125%" y="-313.29001" x="1304" font-family="&apos;Gentium Book Basic&apos;">
  <tspan id="tspan317" y="-313.29001" x="1304"/>
 </text>
 <text id="text319" style="text-anchor:middle" transform="scale(4.0128 .24920)" font-size="46.954px" y="-1606.3418" x="522.03729" font-family="Arial"/>
 <text id="text321" font-size="129.23px" style="word-spacing:0;letter-spacing:0" line-height="125%" y="-785.69" x="914.88" font-family="&apos;Gentium Book Basic&apos;">
  <tspan id="tspan323" y="-785.69" x="914.88"/>
 </text>
 <text id="text325" style="text-anchor:middle" transform="scale(4.0128 .24920)" font-size="46.954px" y="-3501.9822" x="425.06784" font-family="Arial"/>
 <text id="text327" font-size="129.23px" style="word-spacing:0;letter-spacing:0" line-height="125%" y="-865.70001" x="1496.14" font-family="&apos;Gentium Book Basic&apos;">
  <tspan id="tspan329" y="-865.70001" x="1496.14"/>
 </text>
 <text id="text331" style="text-anchor:middle" transform="scale(4.0128 .24920)" font-size="46.954px" y="-3823.0105" x="569.91705" font-family="Arial"/>
 <text id="text333" font-size="208.33px" style="word-spacing:0;letter-spacing:0" line-height="125%" y="549.02002" x="-336.66" font-family="&apos;Gentium Book Basic&apos;">
  <tspan id="tspan335" y="549.02002" x="-336.66"/>
 </text>
 <text id="text20-0" font-size="129.23px" style="word-spacing:0;letter-spacing:0" line-height="125%" y="113.0488" x="-17.259886" font-family="&apos;Gentium Book Basic&apos;">
  <tspan id="tspan22-8" y="113.0488" x="-17.259886"/>
 </text>
 <text id="text24-1" style="text-anchor:middle" transform="scale(4.0128 .24920)" font-size="46.954px" y="104.49664" x="192.77965" font-family="Arial"/>
 <text id="text26-9" font-size="129.23px" style="word-spacing:0;letter-spacing:0" line-height="125%" y="33.048801" x="564.01013" font-family="&apos;Gentium Book Basic&apos;">
  <tspan id="tspan28-7" y="33.048801" x="564.01013"/>
 </text>
 <text id="text30-3" style="text-anchor:middle" transform="scale(4.0128 .24920)" font-size="46.954px" y="-216.54152" x="337.62891" font-family="Arial"/>
 <text id="text32-0" font-size="129.23px" style="word-spacing:0;letter-spacing:0" line-height="125%" y="-148.21118" x="-507.56989" font-family="&apos;Gentium Book Basic&apos;">
  <tspan id="tspan34-6" y="-148.21118" x="-507.56989"/>
 </text>
 <text id="text36-9" style="text-anchor:middle" transform="scale(4.0128 .24920)" font-size="46.954px" y="-943.88788" x="70.590279" font-family="Arial"/>
 <text id="text38-5" font-size="129.23px" style="word-spacing:0;letter-spacing:0" line-height="125%" y="-364.68118" x="590.4801" font-family="&apos;Gentium Book Basic&apos;">
  <tspan id="tspan40-2" y="-364.68118" x="590.4801"/>
 </text>
 <text id="text42-2" style="text-anchor:middle" transform="scale(4.0128 .24920)" font-size="46.954px" y="-1812.5635" x="344.22888" font-family="Arial"/>
 <text id="text44-4" font-size="129.23px" style="word-spacing:0;letter-spacing:0" line-height="125%" y="-444.68115" x="1171.7501" font-family="&apos;Gentium Book Basic&apos;">
  <tspan id="tspan46-6" y="-444.68115" x="1171.7501"/>
 </text>
 <text id="text48-6" style="text-anchor:middle" transform="scale(4.0128 .24920)" font-size="46.954px" y="-2133.5918" x="489.07812" font-family="Arial"/>
 <text id="text50-1" font-size="129.23px" style="word-spacing:0;letter-spacing:0" line-height="125%" y="-917.08118" x="782.63013" font-family="&apos;Gentium Book Basic&apos;">
  <tspan id="tspan52-8" y="-917.08118" x="782.63013"/>
 </text>
 <text id="text54-7" style="text-anchor:middle" transform="scale(4.0128 .24920)" font-size="46.954px" y="-4029.2422" x="392.10858" font-family="Arial"/>
 <text id="text56-1" font-size="129.23px" style="word-spacing:0;letter-spacing:0" line-height="125%" y="-997.09119" x="1363.8901" font-family="&apos;Gentium Book Basic&apos;">
  <tspan id="tspan58-3" y="-997.09119" x="1363.8901"/>
 </text>
 <text id="text60-6" style="text-anchor:middle" transform="scale(4.0128 .24920)" font-size="46.954px" y="-4350.2808" x="536.95789" font-family="Arial"/>
 <text id="text62-6" font-size="208.33px" style="word-spacing:0;letter-spacing:0" line-height="125%" y="417.62891" x="-468.90991" font-family="&apos;Gentium Book Basic&apos;">
  <tspan id="tspan64-5" y="417.62891" x="-468.90991"/>
 </text>
 <text id="text20-05" font-size="129.23px" style="word-spacing:0;letter-spacing:0" line-height="125%" y="79.299431" x="-305.66357" font-family="&apos;Gentium Book Basic&apos;">
  <tspan id="tspan22-9" y="79.299431" x="-305.66357"/>
 </text>
 <text id="text24-3" style="text-anchor:middle" transform="scale(4.0128 .24920)" font-size="46.954px" y="-30.933531" x="120.90907" font-family="Arial"/>
 <text id="text26-7" font-size="129.23px" style="word-spacing:0;letter-spacing:0" line-height="125%" y="-0.70056993" x="275.60645" font-family="&apos;Gentium Book Basic&apos;">
  <tspan id="tspan28-0" y="-0.70056993" x="275.60645"/>
 </text>
 <text id="text30-4" style="text-anchor:middle" transform="scale(4.0128 .24920)" font-size="46.954px" y="-351.97168" x="265.75833" font-family="Arial"/>
 <text id="text32-6" font-size="129.23px" style="word-spacing:0;letter-spacing:0" line-height="125%" y="-181.96056" x="-795.97357" font-family="&apos;Gentium Book Basic&apos;">
  <tspan id="tspan34-7" y="-181.96056" x="-795.97357"/>
 </text>
 <text id="text36-8" style="text-anchor:middle" transform="scale(4.0128 .24920)" font-size="46.954px" y="-1079.3181" x="-1.280292" font-family="Arial"/>
 <text id="text38-8" font-size="129.23px" style="word-spacing:0;letter-spacing:0" line-height="125%" y="-398.43054" x="302.07642" font-family="&apos;Gentium Book Basic&apos;">
  <tspan id="tspan40-6" y="-398.43054" x="302.07642"/>
 </text>
 <text id="text42-9" style="text-anchor:middle" transform="scale(4.0128 .24920)" font-size="46.954px" y="-1947.9937" x="272.35831" font-family="Arial"/>
 <text id="text44-6" font-size="129.23px" style="word-spacing:0;letter-spacing:0" line-height="125%" y="-478.43054" x="883.34644" font-family="&apos;Gentium Book Basic&apos;">
  <tspan id="tspan46-0" y="-478.43054" x="883.34644"/>
 </text>
 <text id="text48-4" style="text-anchor:middle" transform="scale(4.0128 .24920)" font-size="46.954px" y="-2269.022" x="417.20755" font-family="Arial"/>
 <text id="text50-0" font-size="129.23px" style="word-spacing:0;letter-spacing:0" line-height="125%" y="-950.83057" x="494.22644" font-family="&apos;Gentium Book Basic&apos;">
  <tspan id="tspan52-82" y="-950.83057" x="494.22644"/>
 </text>
 <text id="text54-1" style="text-anchor:middle" transform="scale(4.0128 .24920)" font-size="46.954px" y="-4164.6724" x="320.23801" font-family="Arial"/>
 <text id="text56-6" font-size="129.23px" style="word-spacing:0;letter-spacing:0" line-height="125%" y="-1030.8406" x="1075.4865" font-family="&apos;Gentium Book Basic&apos;">
  <tspan id="tspan58-9" y="-1030.8406" x="1075.4865"/>
 </text>
 <text id="text60-3" style="text-anchor:middle" transform="scale(4.0128 .24920)" font-size="46.954px" y="-4485.7109" x="465.08731" font-family="Arial"/>
 <text id="text62-2" font-size="208.33px" style="word-spacing:0;letter-spacing:0" line-height="125%" y="383.87952" x="-757.3136" font-family="&apos;Gentium Book Basic&apos;">
  <tspan id="tspan64-7" y="383.87952" x="-757.3136"/>
 </text>
 <text id="text11-3" font-size="129.23px" style="word-spacing:0;letter-spacing:0" line-height="125%" y="149.33" x="102.72" font-family="&apos;Gentium Book Basic&apos;">
  <tspan id="tspan13-4" y="149.33" x="102.72"/>
 </text>
 <text id="text15-9" style="text-anchor:middle" transform="scale(4.0128 .24920)" font-size="46.954px" y="250.07872" x="222.67885" font-family="Arial"/>
 <text id="text17-4" font-size="129.23px" style="word-spacing:0;letter-spacing:0" line-height="125%" y="69.330002" x="683.98999" font-family="&apos;Gentium Book Basic&apos;">
  <tspan id="tspan19-1" y="69.330002" x="683.98999"/>
 </text>
 <text id="text21-0" style="text-anchor:middle" transform="scale(4.0128 .24920)" font-size="46.954px" y="-70.961632" x="367.52811" font-family="Arial"/>
 <text id="text23-9" font-size="129.23px" style="word-spacing:0;letter-spacing:0" line-height="125%" y="-111.93" x="-387.59" font-family="&apos;Gentium Book Basic&apos;">
  <tspan id="tspan25-9" y="-111.93" x="-387.59"/>
 </text>
 <text id="text27-0" style="text-anchor:middle" transform="scale(4.0128 .24920)" font-size="46.954px" y="-798.30591" x="100.48949" font-family="Arial"/>
 <text id="text29-6" font-size="129.23px" style="word-spacing:0;letter-spacing:0" line-height="125%" y="-328.39999" x="710.46002" font-family="&apos;Gentium Book Basic&apos;">
  <tspan id="tspan31-7" y="-328.39999" x="710.46002"/>
 </text>
 <text id="text33-0" style="text-anchor:middle" transform="scale(4.0128 .24920)" font-size="46.954px" y="-1666.9714" x="374.12808" font-family="Arial"/>
 <text id="text35-6" font-size="129.23px" style="word-spacing:0;letter-spacing:0" line-height="125%" y="-408.39999" x="1291.73" font-family="&apos;Gentium Book Basic&apos;">
  <tspan id="tspan37-6" y="-408.39999" x="1291.73"/>
 </text>
 <text id="text39-8" style="text-anchor:middle" transform="scale(4.0128 .24920)" font-size="46.954px" y="-1987.9999" x="518.97729" font-family="Arial"/>
 <text id="text41-5" font-size="129.23px" style="word-spacing:0;letter-spacing:0" line-height="125%" y="-880.79999" x="902.60999" font-family="&apos;Gentium Book Basic&apos;">
  <tspan id="tspan43-4" y="-880.79999" x="902.60999"/>
 </text>
 <text id="text45-8" style="text-anchor:middle" transform="scale(4.0128 .24920)" font-size="46.954px" y="-3883.6401" x="422.00784" font-family="Arial"/>
 <text id="text47-1" font-size="129.23px" style="word-spacing:0;letter-spacing:0" line-height="125%" y="-960.81" x="1483.87" font-family="&apos;Gentium Book Basic&apos;">
  <tspan id="tspan49-4" y="-960.81" x="1483.87"/>
 </text>
 <text id="text51-6" style="text-anchor:middle" transform="scale(4.0128 .24920)" font-size="46.954px" y="-4204.6787" x="566.85706" font-family="Arial"/>
 <text id="text53-4" font-size="208.33px" style="word-spacing:0;letter-spacing:0" line-height="125%" y="453.91" x="-348.92999" font-family="&apos;Gentium Book Basic&apos;">
  <tspan id="tspan55-7" y="453.91" x="-348.92999"/>
 </text>
 <text id="text13" font-size="129.23px" style="word-spacing:0;letter-spacing:0" line-height="125%" y="192.2755" x="-81.378006" font-family="&apos;Gentium Book Basic&apos;">
  <tspan id="tspan15" y="192.2755" x="-81.378006"/>
 </text>
 <text id="text17-2" style="text-anchor:middle" transform="scale(4.0128 .24920)" font-size="46.954px" y="422.40976" x="176.7971" font-family="Arial"/>
 <text id="text19" font-size="129.23px" style="word-spacing:0;letter-spacing:0" line-height="125%" y="112.2755" x="499.892" font-family="&apos;Gentium Book Basic&apos;">
  <tspan id="tspan21" y="112.2755" x="499.892"/>
 </text>
 <text id="text23-6" style="text-anchor:middle" transform="scale(4.0128 .24920)" font-size="46.954px" y="101.38142" x="321.64636" font-family="Arial"/>
 <text id="text25" font-size="129.23px" style="word-spacing:0;letter-spacing:0" line-height="125%" y="-68.984505" x="-571.68799" font-family="&apos;Gentium Book Basic&apos;">
  <tspan id="tspan27" y="-68.984505" x="-571.68799"/>
 </text>
 <text id="text29-3" style="text-anchor:middle" transform="scale(4.0128 .24920)" font-size="46.954px" y="-625.96484" x="54.611725" font-family="Arial"/>
 <text id="text31" font-size="129.23px" style="word-spacing:0;letter-spacing:0" line-height="125%" y="-285.4545" x="526.362" font-family="&apos;Gentium Book Basic&apos;">
  <tspan id="tspan33" y="-285.4545" x="526.362"/>
 </text>
 <text id="text35-65" style="text-anchor:middle" transform="scale(4.0128 .24920)" font-size="46.954px" y="-1494.6304" x="328.24634" font-family="Arial"/>
 <text id="text37" font-size="129.23px" style="word-spacing:0;letter-spacing:0" line-height="125%" y="-365.46448" x="1107.632" font-family="&apos;Gentium Book Basic&apos;">
  <tspan id="tspan39" y="-365.46448" x="1107.632"/>
 </text>
 <text id="text41-9" style="text-anchor:middle" transform="scale(4.0128 .24920)" font-size="46.954px" y="-1815.6688" x="473.09558" font-family="Arial"/>
 <text id="text43" font-size="129.23px" style="word-spacing:0;letter-spacing:0" line-height="125%" y="-837.8645" x="718.51202" font-family="&apos;Gentium Book Basic&apos;">
  <tspan id="tspan45" y="-837.8645" x="718.51202"/>
 </text>
 <text id="text47-9" style="text-anchor:middle" transform="scale(4.0128 .24920)" font-size="46.954px" y="-3711.3091" x="376.1261" font-family="Arial"/>
 <text id="text49" font-size="129.23px" style="word-spacing:0;letter-spacing:0" line-height="125%" y="-917.8645" x="1299.772" font-family="&apos;Gentium Book Basic&apos;">
  <tspan id="tspan51" y="-917.8645" x="1299.772"/>
 </text>
 <text id="text53-9" style="text-anchor:middle" transform="scale(4.0128 .24920)" font-size="46.954px" y="-4032.3374" x="520.97534" font-family="Arial"/>
 <text id="text55" font-size="208.33px" style="word-spacing:0;letter-spacing:0" line-height="125%" y="496.8555" x="-533.02802" font-family="&apos;Gentium Book Basic&apos;">
  <tspan id="tspan57" y="496.8555" x="-533.02802"/>
 </text>
 <path id="path9" d="m26 0c-14.397 0-26 11.603-26 26v460c0 14.397 11.603 26 26 26h460c14.397 0 26-11.603 26-26v-460c0-14.397-11.6-26-26-26h-460" fill="#0078ad"/>
 <text id="text11-1" font-size="129.23px" style="word-spacing:0;letter-spacing:0" line-height="125%" y="180.00999" x="-151.94" font-family="&apos;Gentium Book Basic&apos;">
  <tspan id="tspan13-1" y="180.00999" x="-151.94"/>
 </text>
 <text id="text15-7" style="text-anchor:middle" transform="scale(4.0128 .24920)" font-size="46.954px" y="373.17807" x="159.21919" font-family="Arial"/>
 <text id="text17-21" font-size="129.23px" style="word-spacing:0;letter-spacing:0" line-height="125%" y="100.01" x="429.32999" font-family="&apos;Gentium Book Basic&apos;">
  <tspan id="tspan19-3" y="100.01" x="429.32999"/>
 </text>
 <text id="text21-1" style="text-anchor:middle" transform="scale(4.0128 .24920)" font-size="46.954px" y="52.149734" x="304.06845" font-family="Arial"/>
 <text id="text23-3" font-size="129.23px" style="word-spacing:0;letter-spacing:0" line-height="125%" y="-81.25" x="-642.25" font-family="&apos;Gentium Book Basic&apos;">
  <tspan id="tspan25-99" y="-81.25" x="-642.25"/>
 </text>
 <text id="text27-1" style="text-anchor:middle" transform="scale(4.0128 .24920)" font-size="46.954px" y="-675.19653" x="37.029808" font-family="Arial"/>
 <text id="text29-63" font-size="129.23px" style="word-spacing:0;letter-spacing:0" line-height="125%" y="-297.72" x="455.79999" font-family="&apos;Gentium Book Basic&apos;">
  <tspan id="tspan31-9" y="-297.72" x="455.79999"/>
 </text>
 <text id="text33-8" style="text-anchor:middle" transform="scale(4.0128 .24920)" font-size="46.954px" y="-1543.8621" x="310.66843" font-family="Arial"/>
 <text id="text35-9" font-size="129.23px" style="word-spacing:0;letter-spacing:0" line-height="125%" y="-377.73001" x="1037.08" font-family="&apos;Gentium Book Basic&apos;">
  <tspan id="tspan37-7" y="-377.73001" x="1037.08"/>
 </text>
 <text id="text39-4" style="text-anchor:middle" transform="scale(4.0128 .24920)" font-size="46.954px" y="-1864.9005" x="455.51767" font-family="Arial"/>
 <text id="text41-7" font-size="129.23px" style="word-spacing:0;letter-spacing:0" line-height="125%" y="-850.13" x="647.95001" font-family="&apos;Gentium Book Basic&apos;">
  <tspan id="tspan43-49" y="-850.13" x="647.95001"/>
 </text>
 <text id="text45-9" style="text-anchor:middle" transform="scale(4.0128 .24920)" font-size="46.954px" y="-3760.5408" x="358.54816" font-family="Arial"/>
 <text id="text47-0" font-size="129.23px" style="word-spacing:0;letter-spacing:0" line-height="125%" y="-930.13" x="1229.21" font-family="&apos;Gentium Book Basic&apos;">
  <tspan id="tspan49-47" y="-930.13" x="1229.21"/>
 </text>
 <text id="text51-66" style="text-anchor:middle" transform="scale(4.0128 .24920)" font-size="46.954px" y="-4081.5591" x="503.39743" font-family="Arial"/>
 <text id="text53-7" font-size="208.33px" style="word-spacing:0;letter-spacing:0" line-height="125%" y="484.59" x="-603.59003" font-family="&apos;Gentium Book Basic&apos;">
  <tspan id="tspan55-76" y="484.59" x="-603.59003"/>
 </text>
 <path id="path59" opacity=".25" d="m416.47 41c-7.67 0-9.34 0.216-13.88 1.418v0.002c-9.08 2.401-16.08 6.548-22.38 13.172v-0.002c-8.24 8.666-13.78 20.745-16.5 35.789l-44.41-44.414-116.43 0.14-0.01-0.005-116.29 0.14 107.47 107.47h-0.01l-107.46-107.46-3.966 1.135-0.004-0.004c-10.743 3.102-17.306 6.819-24.782 14.16l-0.002-0.002c-8.438 8.287-12.893 16.282-15.16 27.346l0.004 0.006c-3.76 18.359 2.369 36.229 14.641 48.499l59.489 59.49c-3.08-0.58-6.34-0.91-10.09-1.05l60.01 60.02-60.02-60.02c-2.25-0.08-4.36-0.19-6.23-0.14-5.622 0.15-9.927 1-15.298 2.69l78.528 78.52-0.01 0.01-78.52-78.52c-9.838 3.1-20.447 9.66-26.912 16.57-17.499 18.72-22.118 45.59-11.613 68.42l0.008 0.01c2.9 6.29 7.941 13.22 13.509 18.78l0.196 0.2c-0.066-0.07-0.133-0.13-0.198-0.19l59.28 59.28c-4.39 0.56-9.44 0.84-17.42 1.08h-0.01c-12.203 0.38-15.08 0.59-18.838 1.56l93.638 93.63h-0.01l-93.63-93.63c-19.779 5.09-34.655 19.67-39.799 38.95h-0.002c-1.11 4.17-1.364 6.19-1.416 12.47h0.004c-0.036 4.59 0.27 8.98 0.709 11.19h-0.002c2.126 10.62 7.368 20.12 14.764 27.52l56.772 56.77h371.81c14.4 0 26-11.6 26-26v-371.09l-60.11-60.111c-5.96-5.956-13.23-10.129-21.68-12.365v-0.004c-4.54-1.199-6.06-1.416-13.73-1.416l-0.01-0.014z"/>
 <path id="path165" d="m416.47 41c-7.675 0-9.339 0.215-13.882 1.417-9.08 2.401-16.08 6.548-22.38 13.173-9.987 10.505-16.02 26.01-17.847 45.752-0.753 8.115-0.753 301.12 0 308.79 1.206 12.267 4.04 22.56 8.5 31.729 7.474 15.366 19.633 24.82 35.978 27.762h0.141c1.348 0.242 6.285 0.236 11.05 0.141 7.554-0.148 9.231-0.35 13.315-1.558 22.952-6.787 36.46-27.02 39.24-59.21 0.419-4.821 0.404-50.07 0.283-157.79-0.19-166.42 0.108-153.53-3.258-166.85-5.659-22.423-18.613-36.962-37.4-41.929-4.543-1.2-6.06-1.417-13.739-1.417m-97.17 5.949-116.44 0.141-116.29 0.141-3.966 1.134c-10.745 3.103-17.31 6.821-24.788 14.165-8.438 8.287-12.893 16.281-15.16 27.345-6.317 30.847 15.279 60.31 47.02 64.16 3.179 0.386 23.389 0.565 61.892 0.567 43.823 0.002 57.45 0.088 57.939 0.567 0.839 0.828 0.832 106.6 0 114.16-3.976 36.15-26.12 67.53-58.925 83.43-6.148 2.98-14.14 6.01-20.679 7.649-8.541 2.139-13.46 2.67-27.905 3.115-12.203 0.377-15.08 0.59-18.838 1.558-19.779 5.094-34.655 19.669-39.799 38.953-1.11 4.166-1.365 6.186-1.417 12.465-0.036 4.586 0.269 8.976 0.708 11.191 4.225 21.12 20.759 37.783 42.07 42.35 4.556 0.976 6.339 1.052 21.53 0.85 16.838-0.224 23.421-0.814 35.695-2.975 88.34-15.55 158.13-84.41 173.94-171.67 3.339-18.418 3.081-10.175 3.258-135.27l0.141-114.02m-218.83 149.72c-5.621 0.146-9.925 1-15.297 2.691-9.839 3.097-20.447 9.658-26.912 16.573-17.501 18.716-22.12 45.593-11.615 68.42 4.281 9.305 13.247 19.981 21.678 25.638 7.456 5.01 17.09 8.709 25.78 10.06 25.36 3.938 50.954-8 64.02-29.887 10.756-18 11.496-40.743 1.984-59.49-6.229-12.277-18.02-23.277-30.883-28.897-7.485-3.271-13.618-4.635-22.522-4.958-2.251-0.081-4.359-0.19-6.233-0.141" fill="#fff"/>
</svg>
