<?xml version="1.0" encoding="UTF-8" standalone="no"?>
<!-- Created with Inkscape (http://www.inkscape.org/) -->
<svg id="svg2" xmlns:rdf="http://www.w3.org/1999/02/22-rdf-syntax-ns#" xmlns="http://www.w3.org/2000/svg" height="100%" width="100%" version="1.1" xmlns:cc="http://creativecommons.org/ns#" viewBox="0 0 512 512" xmlns:dc="http://purl.org/dc/elements/1.1/">
 <metadata id="metadata14">
  <rdf:RDF>
   <cc:Work rdf:about="">
    <dc:format>image/svg+xml</dc:format>
    <dc:type rdf:resource="http://purl.org/dc/dcmitype/StillImage"/>
   </cc:Work>
  </rdf:RDF>
 </metadata>
 <path id="path4" d="m26 0c-14.397 0-26 11.603-26 26v460c0 14.397 11.603 26 26 26h460c14.397 0 26-11.603 26-26v-460c0-14.397-11.6-26-26-26h-460" fill="#62c0dc"/>
 <path id="path6" opacity=".25" d="m102.28 197.75c-33.717 0-61.03 27.346-61.03 61.06 0 16.866 6.823 32.14 17.875 43.19l210 210h216.88c0.543 0 1.091-0.03 1.625-0.063 0.44-0.027 0.879-0.045 1.313-0.094 0.093-0.01 0.188-0.02 0.281-0.031 0.257-0.031 0.495-0.086 0.75-0.125 0.262-0.04 0.522-0.077 0.781-0.125 0.168-0.031 0.334-0.06 0.5-0.094 0.349-0.071 0.688-0.134 1.031-0.219 0.073-0.018 0.146-0.044 0.219-0.063 0.429-0.11 0.862-0.244 1.281-0.375 0.491-0.154 0.991-0.319 1.469-0.5s0.942-0.386 1.406-0.594c0.209-0.094 0.419-0.182 0.625-0.281 0.253-0.121 0.502-0.246 0.75-0.375 0.872-0.455 1.721-0.952 2.531-1.5 0.024-0.017 0.038-0.046 0.063-0.063 0.317-0.216 0.631-0.427 0.938-0.656 0.094-0.07 0.189-0.148 0.281-0.219 0.244-0.188 0.482-0.366 0.719-0.563 0.149-0.123 0.291-0.249 0.438-0.375 0.165-0.143 0.339-0.291 0.5-0.438 0.214-0.195 0.418-0.392 0.625-0.594 0.36-0.349 0.692-0.693 1.031-1.063 0.029-0.032 0.065-0.062 0.094-0.094 0.314-0.345 0.611-0.7 0.906-1.063 0.236-0.29 0.464-0.575 0.688-0.875 0.077-0.103 0.143-0.208 0.219-0.313 3.1-4.281 4.938-9.54 4.938-15.25v-211.9l-58.47-58.47c-11.04-11.04-26.306-17.875-43.16-17.875-33.717 0-61.06 27.346-61.06 61.06 0 2.02 0.089 4.03 0.281 6l-50.12-50.12c-10.967-10.499-25.842-16.938-42.22-16.938-33.717 0-61.03 27.346-61.03 61.06 0 2.667 0.169 5.298 0.5 7.875l-49.19-49.19-0.094 0.219c-11.17-12.271-27.26-19.969-45.16-19.969"/>
 <path id="path8" d="m102.28 197.75c-33.717 0-61.03 27.346-61.03 61.06 0 33.717 27.314 61.06 61.03 61.06 33.717 0 61.06-27.346 61.06-61.06 0-33.717-27.346-61.06-61.06-61.06m154.97 0c-33.717 0-61.03 27.346-61.03 61.06 0 33.717 27.314 61.06 61.03 61.06 33.717 0 61.06-27.346 61.06-61.06 0-33.717-27.346-61.06-61.06-61.06m153.13 0c-33.717 0-61.06 27.346-61.06 61.06 0 33.717 27.346 61.06 61.06 61.06 33.717 0 61.03-27.346 61.03-61.06 0-33.717-27.314-61.06-61.03-61.06" fill="#fff"/>
</svg>
