<?xml version="1.0" encoding="UTF-8" standalone="no"?>
<!-- Created with Inkscape (http://www.inkscape.org/) -->
<svg id="svg2" xmlns:rdf="http://www.w3.org/1999/02/22-rdf-syntax-ns#" xmlns="http://www.w3.org/2000/svg" height="100%" width="100%" version="1.1" xmlns:cc="http://creativecommons.org/ns#" viewBox="0 0 512 512" xmlns:dc="http://purl.org/dc/elements/1.1/">
 <metadata id="metadata64">
  <rdf:RDF>
   <cc:Work rdf:about="">
    <dc:format>image/svg+xml</dc:format>
    <dc:type rdf:resource="http://purl.org/dc/dcmitype/StillImage"/>
   </cc:Work>
  </rdf:RDF>
 </metadata>
 <path id="path4" d="m26 0c-14.397 0-26 11.603-26 26v460c0 14.397 11.603 26 26 26h460c14.397 0 26-11.603 26-26v-460c0-14.397-11.6-26-26-26h-460" fill="#0078ad"/>
 <path id="path6" opacity=".8" d="m26 0c-14.397 0-26 11.603-26 26v28.781h0.188c-0.061 0.074-0.126 0.145-0.188 0.219v214.41c17.54-14.643 51.37-12.279 59.63 11.344-9.126-32.24 22.807-57.59 40.719-80.75 3.731-11.32 25.938-20.988 18.313-5.938 12.993-0.457 32.642-23.326 9.563-12.781-0.326-20.84-20.233-14.887-26.688-11.938 11.961-18.49 73.43-8.336 47.719-38.563-19.927-7.866-18.314-53.818-38.469-28.25 1.696-15.757-41.03-46.548-40.09-20.12 5.214 23.643 0.972 50.849-10.125 66.34-2.308-34.65-62.984-27.07-55.183-63.975 11.296-17.595 24.556-41.881 25.813-39.688 10.676-3.971 20.225-11.929 23.438-20.688 6.05-1.724 10.469-7.287 10.469-13.906v-10.5h-39.09m47.563 0c2.608 2.26 4.923 5.723 7.03 11.03 23.06 12.946 2.082 34.93-7.969 42.469 16.81-9.674 46.25 38.26 38.22 11.688-9.894-7.04 26.602 11.28 7.688-11.594-17.407-27.321 1.38-12.189 8.719-5.813 24.959-21.805-28.28-24.466-15-46.906-0.346-0.273-0.679-0.571-1.031-0.875h-37.654m88.59 0c0.253 5.359 16.436 6.03 9.781 0h-9.781m15.406 0c8.548 9.262-15.13 15 0.531 23.719-19.13 9.617 3.106 50.32 17.313 60.5 23.385 19.18 10.343-40.64 36.438-43.75 13.784-15.332 37.687-25.342 55.25-40.469h-109.53m280.34 0v3.781c-15.852 14.338-25.969 35.05-37.625 53.22-25.93 11.389-24.999 60.16 3.969 44.531 7.753 13.193-5.489 34 17.09 16.75 18.215-23.485 3.25-61.44 34.25-76.25 2.257 11.515-28.578 54.5 7.469 47.44 32.583 1.198-23.691 3.13-7.844 23.406-16.467-9.517-7.885 26.01-29.375 17.75-18.618 9.867-30.86-4.579-26.594-20.406-14.647 8.324 4.612 31.839-20.813 33.25-5.696 19.704-52.573 16.685-25.938 36.75 11.825 29.852-43.992 1.949-28.12 37.781 13.574 35.432 42.03-11.755 53.56-20.875 21.572-16.303 53.17 25.871 36.906 30.06 20.474-3.766 15.648-23.686-1.875-31.531-9.723-24.569 30.777 12.06 28.531 24.375 14.29 26.07 8.427-26.742 22.969-3.375-0.913 13.252 16.09 13.935 27.531 16.625v-25.75c-16.575-0.461-30.958-6.222-11.375-25.09 2.82-1.649 7.308-0.046 11.375 1.781v-158.2c0-14.397-11.603-26-26-26h-28.09m-382.34 15.943c-11.02 17.58 16.276 6.491 0 0m-48.44 9h0.969c-0.326 0.309-0.644 0.627-0.969 0.938v-0.938m289.59 11.813c-12.897 14.465-29.843-3.839-30.12 8.594 2.337 3.756 11.71 30.567 32.22 10.781 11.01-4.521 6.593-15.883-2.094-19.375m-274.53 8.594c-24.461 20.81 41.574 22.748 5.219 2.406l-5.219-2.406m322.41 57.906c-16.971 11.272 8.778 34.751 0 45.844-11.03 18.732 40.985-1.305 13.188-16.25-1.905-12.351-15.221-27.28-13.156-29.594h-0.031m-11.563 22.281c-24.536 6.759-5.628 41.68 3.063 8.813 0.489-1.906 1.209-8.876-3.063-8.813m-196.5 25.281c-22.827 15.16-3.573 30.354 13.156 23.531-3.434-9.15-13-14.966-13.156-23.531m259.31 57.875c-14.309 8.982 9.895 15.868 0 0m2.094 20.19c-25.19 1.994-56.38 1.74-73.25 21.563-18.234 24.373-44.44 58.44-24.563 89.56 19.887 46.11 69.12 2.388 97.47 29.625 8.426 11.357-7.279 24.861 11.563 37.16 7.089 26.2-8.04 51.08 9.375 76.13 3.547 9.281 6.563 20.367 10.969 29.09h36.5c1.264 0 2.504-0.108 3.719-0.281 7.791-7.758 15.239-15.883 22.25-24.375 0.001-0.01-0.001-0.021 0-0.031 0.021-0.434 0.031-0.873 0.031-1.313v-231.69c-23.926 3.781-47.48-6.364-68.09 0.5-19.801-0.17-18.761-20.779-25.969-25.938m-361.44 63.5c-2.413 7.841 45.24 15.813 12.344 3.25l-4.906-1.688-7.438-1.563m-25.313 5.781c-8.814 8.54-22.295 10.894-31.19 6.25v18.906c5.05 1.769 10.358 3.222 15.938 4.375 19.488 6.458 35.455 28.699 52.594 23.813 9.691 24.889-28.665 48.817 1.344 72.03 15.667 23.502 41.99 38.912 27.75 71.906-1.685 5.451-2.958 10.991-3.969 16.563h80.969c11.11-18.01 18.307-36.35 41.25-43.25 3.311-25.464 46.13-64.4 1.938-74.31-12.01-5.767-42.958-7.81-40.594-10.656 4.788-25.26-39.887-32.508-58.938-42.844-25.003-17.3-62.623 28.75-71.433-10.91-5.257-12.48-24.492-12.62-15.656-31.88m62.31 5.375c-14.459 14.302 29.792 4.273 0 0" fill-opacity=".281" fill="#fff"/>
 <text id="text8" style="word-spacing:0;letter-spacing:0" font-size="129.23px" line-height="125%" y="238.84" x="16.489" font-family="Gentium Book Basic">
  <tspan id="tspan10" y="238.84" x="16.489"/>
 </text>
 <text id="text12" style="text-anchor:middle" transform="scale(4.0128 .2492)" font-size="46.954px" y="609.27002" x="201.19" font-family="Arial"/>
 <text id="text14" style="word-spacing:0;letter-spacing:0" font-size="129.23px" line-height="125%" y="158.84" x="597.76001" font-family="Gentium Book Basic">
  <tspan id="tspan16" y="158.84" x="597.76001"/>
 </text>
 <text id="text18" style="text-anchor:middle" transform="scale(4.0128 .2492)" font-size="46.954px" y="288.23999" x="346.04001" font-family="Arial"/>
 <text id="text20" style="word-spacing:0;letter-spacing:0" font-size="129.23px" line-height="125%" y="-22.419001" x="-473.82001" font-family="Gentium Book Basic">
  <tspan id="tspan22" y="-22.419001" x="-473.82001"/>
 </text>
 <text id="text24" style="text-anchor:middle" transform="scale(4.0128 .2492)" font-size="46.954px" y="-439.10999" x="79" font-family="Arial"/>
 <text id="text26" style="word-spacing:0;letter-spacing:0" font-size="129.23px" line-height="125%" y="-238.89" x="624.22998" font-family="Gentium Book Basic">
  <tspan id="tspan28" y="-238.89" x="624.22998"/>
 </text>
 <text id="text30" style="text-anchor:middle" transform="scale(4.0128 .2492)" font-size="46.954px" y="-1307.78" x="352.64001" font-family="Arial"/>
 <text id="text32" style="word-spacing:0;letter-spacing:0" font-size="129.23px" line-height="125%" y="-318.89999" x="1205.5" font-family="Gentium Book Basic">
  <tspan id="tspan34" y="-318.89999" x="1205.5"/>
 </text>
 <text id="text36" style="text-anchor:middle" transform="scale(4.0128 .2492)" font-size="46.954px" y="-1628.8199" x="497.48999" font-family="Arial"/>
 <text id="text38" style="word-spacing:0;letter-spacing:0" font-size="129.23px" line-height="125%" y="-791.29999" x="816.38" font-family="Gentium Book Basic">
  <tspan id="tspan40" y="-791.29999" x="816.38"/>
 </text>
 <text id="text42" style="text-anchor:middle" transform="scale(4.0128 .2492)" font-size="46.954px" y="-3524.47" x="400.51999" font-family="Arial"/>
 <text id="text44" style="word-spacing:0;letter-spacing:0" font-size="129.23px" line-height="125%" y="-871.29999" x="1397.64" font-family="Gentium Book Basic">
  <tspan id="tspan46" y="-871.29999" x="1397.64"/>
 </text>
 <text id="text48" style="text-anchor:middle" transform="scale(4.0128 .2492)" font-size="46.954px" y="-3845.5" x="545.37" font-family="Arial"/>
 <text id="text50" style="word-spacing:0;letter-spacing:0" font-size="208.33px" line-height="125%" y="543.41998" x="-435.16" font-family="Gentium Book Basic">
  <tspan id="tspan52" y="543.41998" x="-435.16"/>
 </text>
 <g id="g54" fill-rule="evenodd">
  <path id="path56" opacity=".25" d="m26 0c-0.536 0-1.066 0.031-1.594 0.063-0.263 0.016-0.52 0.008-0.781 0.031-0.387 0.035-0.774 0.105-1.156 0.156-0.324 0.043-0.648 0.101-0.969 0.156-0.433 0.075-0.856 0.154-1.281 0.25-0.104 0.023-0.209 0.038-0.313 0.063-0.555 0.133-1.116 0.27-1.656 0.438-0.031 0.01-0.062 0.021-0.094 0.031l98.84 113.16-117 79.906v117.78l199.97 199.97h286.03c14.397 0 26-11.603 26-26v-436.82l-49.19-49.186h-178.37l-82.97 56.625-56.63-56.625h-118.84"/>
  <path id="path58" d="m26 0c-2.734 0-5.372 0.411-7.844 1.188l98.84 113.16-117 79.906v117.78l184.09-124.59 82.03 89.44-53.44 49.06 180.25 16.406 3.344-184.94-58.31 53-72.16-78.7 197-131.72h-178.37l-85.84 58.59-53.75-58.59h-118.84" fill="#fff"/>
 </g>
</svg>
