<?xml version="1.0" encoding="UTF-8" standalone="no"?>
<!-- Created with Inkscape (http://www.inkscape.org/) -->
<svg id="svg2" xmlns:rdf="http://www.w3.org/1999/02/22-rdf-syntax-ns#" xmlns="http://www.w3.org/2000/svg" height="100%" width="100%" version="1.1" xmlns:cc="http://creativecommons.org/ns#" xmlns:dc="http://purl.org/dc/elements/1.1/" viewBox="0 0 512 512">
 <metadata id="metadata515">
  <rdf:RDF>
   <cc:Work rdf:about="">
    <dc:format>image/svg+xml</dc:format>
    <dc:type rdf:resource="http://purl.org/dc/dcmitype/StillImage"/>
    <dc:title/>
   </cc:Work>
  </rdf:RDF>
 </metadata>
 <path id="path13" d="m26 0c-14.397 0-26 11.603-26 26v460c0 14.397 11.603 26 26 26h460c14.397 0 26-11.603 26-26v-460c0-14.397-11.6-26-26-26h-460" fill="#e4a146"/>
 <text id="text15" font-size="129.23px" style="word-spacing:0;letter-spacing:0" line-height="125%" y="165.21001" x="180.63" font-family="&apos;Gentium Book Basic&apos;">
  <tspan id="tspan17" y="165.21001" x="180.63"/>
 </text>
 <text id="text19" style="text-anchor:middle" transform="scale(4.0128 .24920)" font-size="46.954px" y="313.79837" x="242.09877" font-family="Arial"/>
 <text id="text21" font-size="129.23px" style="word-spacing:0;letter-spacing:0" line-height="125%" y="85.209999" x="761.90002" font-family="&apos;Gentium Book Basic&apos;">
  <tspan id="tspan23" y="85.209999" x="761.90002"/>
 </text>
 <text id="text25" style="text-anchor:middle" transform="scale(4.0128 .24920)" font-size="46.954px" y="-7.2419629" x="386.93802" font-family="Arial"/>
 <text id="text27" font-size="129.23px" style="word-spacing:0;letter-spacing:0" line-height="125%" y="-96.050003" x="-309.67999" font-family="&apos;Gentium Book Basic&apos;">
  <tspan id="tspan29" y="-96.050003" x="-309.67999"/>
 </text>
 <text id="text31" style="text-anchor:middle" transform="scale(4.0128 .24920)" font-size="46.954px" y="-734.58624" x="119.90939" font-family="Arial"/>
 <text id="text33" font-size="129.23px" style="word-spacing:0;letter-spacing:0" line-height="125%" y="-312.51999" x="788.37" font-family="&apos;Gentium Book Basic&apos;">
  <tspan id="tspan35" y="-312.51999" x="788.37"/>
 </text>
 <text id="text37" style="text-anchor:middle" transform="scale(4.0128 .24920)" font-size="46.954px" y="-1603.2418" x="393.53799" font-family="Arial"/>
 <text id="text39" font-size="129.23px" style="word-spacing:0;letter-spacing:0" line-height="125%" y="-392.51999" x="1369.64" font-family="&apos;Gentium Book Basic&apos;">
  <tspan id="tspan41" y="-392.51999" x="1369.64"/>
 </text>
 <text id="text43" style="text-anchor:middle" transform="scale(4.0128 .24920)" font-size="46.954px" y="-1924.2701" x="538.38727" font-family="Arial"/>
 <text id="text45" font-size="129.23px" style="word-spacing:0;letter-spacing:0" line-height="125%" y="-864.91998" x="980.52002" font-family="&apos;Gentium Book Basic&apos;">
  <tspan id="tspan47" y="-864.91998" x="980.52002"/>
 </text>
 <text id="text49" style="text-anchor:middle" transform="scale(4.0128 .24920)" font-size="46.954px" y="-3819.9004" x="441.41776" font-family="Arial"/>
 <text id="text51" font-size="129.23px" style="word-spacing:0;letter-spacing:0" line-height="125%" y="-944.92999" x="1561.78" font-family="&apos;Gentium Book Basic&apos;">
  <tspan id="tspan53" y="-944.92999" x="1561.78"/>
 </text>
 <text id="text55" style="text-anchor:middle" transform="scale(4.0128 .24920)" font-size="46.954px" y="-4140.939" x="586.26703" font-family="Arial"/>
 <g id="g57" line-height="125%" style="word-spacing:0;letter-spacing:0" font-family="&apos;Gentium Book Basic&apos;" transform="translate(-549.01,-66.15)">
  <text id="text59" y="535.94" x="277.98999" font-size="208.33px">
   <tspan id="tspan61" y="535.94" x="277.98999"/>
  </text>
  <text id="text63" y="1328.78" x="-27822.33" font-size="4848.4px">
   <tspan id="tspan65" y="1328.78" x="-27822.33"/>
  </text>
 </g>
 <text id="text67" style="text-anchor:middle" transform="scale(4.0128 .24920)" font-size="1761.7px" y="-8033.3188" x="324.11835" font-family="Arial"/>
 <text id="text69" font-size="4848.4px" style="word-spacing:0;letter-spacing:0" line-height="125%" y="2174.6799" x="-28506.09" font-family="&apos;Gentium Book Basic&apos;">
  <tspan id="tspan71" y="2174.6799" x="-28506.09"/>
 </text>
 <text id="text73" style="text-anchor:middle" transform="scale(4.0128 .24920)" font-size="1761.7px" y="-4373.5073" x="290.5885" font-family="Arial"/>
 <g id="g75" fill="#555753" transform="matrix(23.273 0 0 23.273 -1243.2 -11526)">
  <text id="text77" style="word-spacing:0;letter-spacing:0" transform="scale(1.0508 .95163)" line-height="125%" font-size="127.88px" y="310.85001" x="-549.96002" font-family="&apos;Gentium Book Basic&apos;">
   <tspan id="tspan79" y="310.85001" x="-549.96002"/>
  </text>
  <text id="text81" style="text-anchor:middle" transform="scale(4.2168 .23715)" font-size="46.47px" y="901.85999" x="57.980999" font-family="Arial"/>
  <text id="text83" style="word-spacing:0;letter-spacing:0" transform="scale(1.0508 .95163)" line-height="125%" font-size="68.46px" y="275.39999" x="-145.92999" font-family="&apos;Gentium Book Basic&apos;">
   <tspan id="tspan85" y="275.39999" x="-145.92999"/>
  </text>
  <text id="text87" style="text-anchor:middle" transform="scale(4.2168 .23715)" font-size="24.874px" y="920.15997" x="68.040001" font-family="Arial"/>
  <text id="text89" font-size="200px" style="word-spacing:0;letter-spacing:0" line-height="125%" y="415.73001" x="-1695.66" font-family="&apos;Gentium Book Basic&apos;">
   <tspan id="tspan91" y="415.73001" x="-1695.66"/>
  </text>
  <text id="text93" style="text-anchor:middle" transform="scale(4.0128 .2492)" font-size="72.67px" y="1127.9" x="-117.54" font-family="Arial"/>
 </g>
 <g id="g95" transform="matrix(23.273 0 0 23.273 -1243.2 -11526)">
  <g id="g97">
   <text id="text99" font-size="208.33px" style="word-spacing:0;letter-spacing:0" line-height="125%" stroke="#cd1d31" y="-109.63" x="-1086.23" font-family="&apos;Gentium Book Basic&apos;">
    <tspan id="tspan101" y="-109.63" x="-1086.23"/>
   </text>
   <text id="text103" style="text-anchor:middle" transform="scale(4.0128 .2492)" font-size="75.7px" y="-1002.83" x="47.040001" font-family="Arial"/>
   <text id="text105" font-size="208.33px" style="word-spacing:0;letter-spacing:0" line-height="125%" stroke="#cd1d31" y="-70.440002" x="-1092.03" font-family="&apos;Gentium Book Basic&apos;">
    <tspan id="tspan107" y="-70.440002" x="-1092.03"/>
   </text>
   <text id="text109" style="text-anchor:middle" transform="scale(4.0128 .2492)" font-size="75.7px" y="-845.56" x="45.592999" font-family="Arial"/>
  </g>
  <g id="g111" fill="#555753">
   <g id="g113" stroke="#cd1d31">
    <text id="text115" style="word-spacing:0;letter-spacing:0" transform="scale(1.0508 .95163)" line-height="125%" font-size="127.88px" y="-381.81" x="-474.37" font-family="&apos;Gentium Book Basic&apos;">
     <tspan id="tspan117" y="-381.81" x="-474.37"/>
    </text>
    <text id="text119" style="text-anchor:middle" transform="scale(4.2168 .23715)" font-size="46.47px" y="-1877.64" x="76.82" font-family="Arial"/>
    <text id="text121" style="word-spacing:0;letter-spacing:0" transform="scale(1.0508 .95163)" line-height="125%" font-size="68.46px" y="-417.25" x="-70.349998" font-family="&apos;Gentium Book Basic&apos;">
     <tspan id="tspan123" y="-417.25" x="-70.349998"/>
    </text>
    <text id="text125" style="text-anchor:middle" transform="scale(4.2168 .23715)" font-size="24.874px" y="-1859.34" x="86.870003" font-family="Arial"/>
    <text id="text127" font-size="200px" style="word-spacing:0;letter-spacing:0" line-height="125%" y="-243.42" x="-1616.23" font-family="&apos;Gentium Book Basic&apos;">
     <tspan id="tspan129" y="-243.42" x="-1616.23"/>
    </text>
   </g>
   <text id="text131" style="text-anchor:middle" transform="scale(4.0128 .2492)" font-size="72.67px" y="-1517.17" x="-97.75" font-family="Arial"/>
  </g>
  <g id="g133">
   <text id="text135" font-size="200px" style="word-spacing:0;letter-spacing:0" line-height="125%" stroke="#cd1d31" y="-397.07001" x="-356.79999" font-family="&apos;Gentium Book Basic&apos;">
    <tspan id="tspan137" y="-397.07001" x="-356.79999"/>
   </text>
   <text id="text139" style="text-anchor:middle" transform="scale(4.0128 .2492)" font-size="72.67px" y="-2133.74" x="216.10001" font-family="Arial"/>
   <text id="text141" font-size="200px" style="word-spacing:0;letter-spacing:0" line-height="125%" stroke="#cd1d31" y="-520.89001" x="542.82001" font-family="&apos;Gentium Book Basic&apos;">
    <tspan id="tspan143" y="-520.89001" x="542.82001"/>
   </text>
   <text id="text145" style="text-anchor:middle" transform="scale(4.0128 .2492)" font-size="72.67px" y="-2630.6001" x="440.29001" font-family="Arial"/>
  </g>
 </g>
 <text id="text147" font-size="4848.4px" style="word-spacing:0;letter-spacing:0" line-height="125%" y="6563.2202" x="-41010.289" font-family="&apos;Gentium Book Basic&apos;">
  <tspan id="tspan149" y="6563.2202" x="-41010.289"/>
 </text>
 <text id="text151" style="text-anchor:middle" transform="scale(4.0128 .24920)" font-size="1761.7px" y="13237.163" x="-2825.3257" font-family="Arial"/>
 <text id="text153" font-size="3007.5px" style="word-spacing:0;letter-spacing:0" line-height="125%" y="-841.22998" x="2977.96" font-family="&apos;Gentium Book Basic&apos;">
  <tspan id="tspan155" y="-841.22998" x="2977.96"/>
 </text>
 <text id="text157" style="text-anchor:middle" transform="scale(4.0128 .24920)" font-size="1092.7px" y="-11501.132" x="5328.6128" font-family="Arial"/>
 <text id="text159" font-size="3007.5px" style="word-spacing:0;letter-spacing:0" line-height="125%" y="-2703.05" x="16505.711" font-family="&apos;Gentium Book Basic&apos;">
  <tspan id="tspan161" y="-2703.05" x="16505.711"/>
 </text>
 <text id="text163" style="text-anchor:middle" transform="scale(4.0128 .24920)" font-size="1092.7px" y="-18972.502" x="8699.6152" font-family="Arial"/>
 <text id="text165" font-size="3007.5px" style="word-spacing:0;letter-spacing:0" line-height="125%" y="-6921.46" x="-8432.8896" font-family="&apos;Gentium Book Basic&apos;">
  <tspan id="tspan167" y="-6921.46" x="-8432.8896"/>
 </text>
 <text id="text169" style="text-anchor:middle" transform="scale(4.0128 .24920)" font-size="1092.7px" y="-35899.656" x="2484.9573" font-family="Arial"/>
 <text id="text171" font-size="3007.5px" style="word-spacing:0;letter-spacing:0" line-height="125%" y="-11959.36" x="17121.73" font-family="&apos;Gentium Book Basic&apos;">
  <tspan id="tspan173" y="-11959.36" x="17121.73"/>
 </text>
 <text id="text175" style="text-anchor:middle" transform="scale(4.0128 .24920)" font-size="1092.7px" y="-56115.902" x="8853.2148" font-family="Arial"/>
 <text id="text177" font-size="3007.5px" style="word-spacing:0;letter-spacing:0" line-height="125%" y="-13821.13" x="30649.24" font-family="&apos;Gentium Book Basic&apos;">
  <tspan id="tspan179" y="-13821.13" x="30649.24"/>
 </text>
 <text id="text181" style="text-anchor:middle" transform="scale(4.0128 .24920)" font-size="1092.7px" y="-63587.035" x="12224.218" font-family="Arial"/>
 <text id="text183" font-size="3007.5px" style="word-spacing:0;letter-spacing:0" line-height="125%" y="-24815.17" x="21593.35" font-family="&apos;Gentium Book Basic&apos;">
  <tspan id="tspan185" y="-24815.17" x="21593.35"/>
 </text>
 <text id="text187" style="text-anchor:middle" transform="scale(4.0128 .24920)" font-size="1092.7px" y="-107703.54" x="9967.499" font-family="Arial"/>
 <text id="text189" font-size="3007.5px" style="word-spacing:0;letter-spacing:0" line-height="125%" y="-26677.221" x="35121.09" font-family="&apos;Gentium Book Basic&apos;">
  <tspan id="tspan191" y="-26677.221" x="35121.09"/>
 </text>
 <text id="text193" style="text-anchor:middle" transform="scale(4.0128 .24920)" font-size="1092.7px" y="-115174.91" x="13338.502" font-family="Arial"/>
 <g id="g195" style="word-spacing:0;letter-spacing:0" transform="matrix(23.273 0 0 23.273 -1243.2 -11526)" font-size="208.33px" font-family="&apos;Gentium Book Basic&apos;" line-height="125%">
  <text id="text197" y="763.70001" x="-270.28">
   <tspan id="tspan199" y="763.70001" x="-270.28"/>
  </text>
  <text id="text201" y="549.47998" x="-1203.23">
   <tspan id="tspan203" y="549.47998" x="-1203.23"/>
  </text>
 </g>
 <text id="text205" style="text-anchor:middle" transform="scale(4.0128 .24920)" font-size="1761.7px" y="-8037.269" x="106.29946" font-family="Arial"/>
 <text id="text207" font-size="4848.4px" style="word-spacing:0;letter-spacing:0" line-height="125%" y="2173.75" x="-29380.439" font-family="&apos;Gentium Book Basic&apos;">
  <tspan id="tspan209" y="2173.75" x="-29380.439"/>
 </text>
 <text id="text211" style="text-anchor:middle" transform="scale(4.0128 .24920)" font-size="1761.7px" y="-4377.2275" x="72.719627" font-family="Arial"/>
 <g id="g213" fill="#555753" transform="matrix(23.273 0 0 23.273 -1243.2 -11526)">
  <text id="text215" style="word-spacing:0;letter-spacing:0" transform="scale(1.0508 .95163)" line-height="125%" font-size="127.88px" y="310.79999" x="-585.71002" font-family="&apos;Gentium Book Basic&apos;">
   <tspan id="tspan217" y="310.79999" x="-585.71002"/>
  </text>
  <text id="text219" style="text-anchor:middle" transform="scale(4.2168 .23715)" font-size="46.47px" y="901.67999" x="49.07" font-family="Arial"/>
  <text id="text221" style="word-spacing:0;letter-spacing:0" transform="scale(1.0508 .95163)" line-height="125%" font-size="68.46px" y="275.35001" x="-181.69" font-family="&apos;Gentium Book Basic&apos;">
   <tspan id="tspan223" y="275.35001" x="-181.69"/>
  </text>
  <text id="text225" style="text-anchor:middle" transform="scale(4.2168 .23715)" font-size="24.874px" y="919.98999" x="59.130001" font-family="Arial"/>
  <text id="text227" font-size="200px" style="word-spacing:0;letter-spacing:0" line-height="125%" y="415.69" x="-1733.23" font-family="&apos;Gentium Book Basic&apos;">
   <tspan id="tspan229" y="415.69" x="-1733.23"/>
  </text>
  <text id="text231" style="text-anchor:middle" transform="scale(4.0128 .2492)" font-size="72.67px" y="1127.73" x="-126.9" font-family="Arial"/>
 </g>
 <g id="g233" transform="matrix(23.273 0 0 23.273 -1243.2 -11526)">
  <g id="g235">
   <text id="text237" font-size="208.33px" style="word-spacing:0;letter-spacing:0" line-height="125%" stroke="#cd1d31" y="-109.67" x="-1123.8" font-family="&apos;Gentium Book Basic&apos;">
    <tspan id="tspan239" y="-109.67" x="-1123.8"/>
   </text>
   <text id="text241" style="text-anchor:middle" transform="scale(4.0128 .2492)" font-size="75.7px" y="-1002.99" x="37.674" font-family="Arial"/>
   <text id="text243" font-size="208.33px" style="word-spacing:0;letter-spacing:0" line-height="125%" stroke="#cd1d31" y="-70.480003" x="-1129.59" font-family="&apos;Gentium Book Basic&apos;">
    <tspan id="tspan245" y="-70.480003" x="-1129.59"/>
   </text>
   <text id="text247" style="text-anchor:middle" transform="scale(4.0128 .2492)" font-size="75.7px" y="-845.72998" x="36.23" font-family="Arial"/>
  </g>
  <g id="g249" fill="#555753">
   <g id="g251" stroke="#cd1d31">
    <text id="text253" style="word-spacing:0;letter-spacing:0" transform="scale(1.0508 .95163)" line-height="125%" font-size="127.88px" y="-381.85001" x="-510.12" font-family="&apos;Gentium Book Basic&apos;">
     <tspan id="tspan255" y="-381.85001" x="-510.12"/>
    </text>
    <text id="text257" style="text-anchor:middle" transform="scale(4.2168 .23715)" font-size="46.47px" y="-1877.8199" x="67.907997" font-family="Arial"/>
    <text id="text259" style="word-spacing:0;letter-spacing:0" transform="scale(1.0508 .95163)" line-height="125%" font-size="68.46px" y="-417.29999" x="-106.1" font-family="&apos;Gentium Book Basic&apos;">
     <tspan id="tspan261" y="-417.29999" x="-106.1"/>
    </text>
    <text id="text263" style="text-anchor:middle" transform="scale(4.2168 .23715)" font-size="24.874px" y="-1859.51" x="77.964996" font-family="Arial"/>
    <text id="text265" font-size="200px" style="word-spacing:0;letter-spacing:0" line-height="125%" y="-243.46001" x="-1653.8" font-family="&apos;Gentium Book Basic&apos;">
     <tspan id="tspan267" y="-243.46001" x="-1653.8"/>
    </text>
   </g>
   <text id="text269" style="text-anchor:middle" transform="scale(4.0128 .2492)" font-size="72.67px" y="-1517.34" x="-107.11" font-family="Arial"/>
  </g>
  <g id="g271">
   <text id="text273" font-size="200px" style="word-spacing:0;letter-spacing:0" line-height="125%" stroke="#cd1d31" y="-397.10999" x="-394.37" font-family="&apos;Gentium Book Basic&apos;">
    <tspan id="tspan275" y="-397.10999" x="-394.37"/>
   </text>
   <text id="text277" style="text-anchor:middle" transform="scale(4.0128 .2492)" font-size="72.67px" y="-2133.9099" x="206.74001" font-family="Arial"/>
   <text id="text279" font-size="200px" style="word-spacing:0;letter-spacing:0" line-height="125%" stroke="#cd1d31" y="-520.92999" x="505.25" font-family="&apos;Gentium Book Basic&apos;">
    <tspan id="tspan281" y="-520.92999" x="505.25"/>
   </text>
   <text id="text283" style="text-anchor:middle" transform="scale(4.0128 .2492)" font-size="72.67px" y="-2630.77" x="430.92001" font-family="Arial"/>
  </g>
 </g>
 <text id="text285" font-size="152.11px" style="word-spacing:0;letter-spacing:0" line-height="125%" y="462.04001" x="-2936.1101" font-family="&apos;Gentium Book Basic&apos;">
  <tspan id="tspan287" y="462.04001" x="-2936.1101"/>
 </text>
 <text id="text289" style="text-anchor:middle" transform="scale(4.0128 .24920)" font-size="55.27px" y="1442.4926" x="-499.71744" font-family="Arial"/>
 <text id="text291" font-size="94.35px" style="word-spacing:0;letter-spacing:0" line-height="125%" y="229.55" x="-1556.17" font-family="&apos;Gentium Book Basic&apos;">
  <tspan id="tspan293" y="229.55" x="-1556.17"/>
 </text>
 <text id="text295" style="text-anchor:middle" transform="scale(4.0128 .24920)" font-size="34.28px" y="666.58661" x="-243.90875" font-family="Arial"/>
 <text id="text297" font-size="94.35px" style="word-spacing:0;letter-spacing:0" line-height="125%" y="171.13" x="-1131.77" font-family="&apos;Gentium Book Basic&apos;">
  <tspan id="tspan299" y="171.13" x="-1131.77"/>
 </text>
 <text id="text301" style="text-anchor:middle" transform="scale(4.0128 .24920)" font-size="34.28px" y="432.01779" x="-138.1393" font-family="Arial"/>
 <text id="text303" font-size="94.35px" style="word-spacing:0;letter-spacing:0" line-height="125%" y="38.937" x="-1914.15" font-family="&apos;Gentium Book Basic&apos;">
  <tspan id="tspan305" y="38.937" x="-1914.15"/>
 </text>
 <text id="text307" style="text-anchor:middle" transform="scale(4.0128 .24920)" font-size="34.28px" y="-99.059494" x="-333.08829" font-family="Arial"/>
 <text id="text309" font-size="94.35px" style="word-spacing:0;letter-spacing:0" line-height="125%" y="-119.08" x="-1112.4301" font-family="&apos;Gentium Book Basic&apos;">
  <tspan id="tspan311" y="-119.08" x="-1112.4301"/>
 </text>
 <text id="text313" style="text-anchor:middle" transform="scale(4.0128 .24920)" font-size="34.28px" y="-733.23621" x="-133.31932" font-family="Arial"/>
 <text id="text315" font-size="94.35px" style="word-spacing:0;letter-spacing:0" line-height="125%" y="-177.49001" x="-688.04999" font-family="&apos;Gentium Book Basic&apos;">
  <tspan id="tspan317" y="-177.49001" x="-688.04999"/>
 </text>
 <text id="text319" style="text-anchor:middle" transform="scale(4.0128 .24920)" font-size="34.28px" y="-967.59503" x="-27.523859" font-family="Arial"/>
 <text id="text321" font-size="94.35px" style="word-spacing:0;letter-spacing:0" line-height="125%" y="-522.39001" x="-972.14001" font-family="&apos;Gentium Book Basic&apos;">
  <tspan id="tspan323" y="-522.39001" x="-972.14001"/>
 </text>
 <text id="text325" style="text-anchor:middle" transform="scale(4.0128 .24920)" font-size="34.28px" y="-2351.5981" x="-98.269493" font-family="Arial"/>
 <text id="text327" font-size="94.35px" style="word-spacing:0;letter-spacing:0" line-height="125%" y="-580.81" x="-547.73999" font-family="&apos;Gentium Book Basic&apos;">
  <tspan id="tspan329" y="-580.81" x="-547.73999"/>
 </text>
 <text id="text331" style="text-anchor:middle" transform="scale(4.0128 .24920)" font-size="34.28px" y="-2585.9468" x="7.3859625" font-family="Arial"/>
 <text id="text333" font-size="152.11px" style="word-spacing:0;letter-spacing:0" line-height="125%" y="452.04001" x="-1885.92" font-family="&apos;Gentium Book Basic&apos;">
  <tspan id="tspan335" y="452.04001" x="-1885.92"/>
 </text>
 <path id="path339" opacity=".25" d="m117.42 41c-0.75 0.024-1.55 0.091-2.41 0.232l26.89 26.899-26.9-26.901c-3.46 0.565-7.66 1.76-12.63 4.178l0.01 0.004c-10.054 4.46-21.468 17.903-20.978 36.117h-0.002v362.64c0 8.94 2.98 14.91 6.955 18.88l0.061 0.06c-0.022-0.02-0.045-0.04-0.066-0.06l48.95 48.95h348.7c14.4 0 26-11.6 26-26v-363.38l-81.38-81.38h-308.93c-0.42 0.021-2.02-0.304-4.26-0.232l-0.01-0.008z"/>
 <path id="path495" d="m117.42 41c-0.747 0.024-1.548 0.091-2.414 0.232-3.465 0.565-7.659 1.761-12.628 4.179-10.052 4.457-21.47 17.902-20.98 36.12v362.64c0 26.861 26.876 26.831 26.876 26.831h322.34v-376.05h-26.876v-26.831h26.876v-26.876h-308.93c-0.423 0.021-2.028-0.305-4.271-0.232m2.832 26.98c0.927-0.019 1.419 0.199 1.44 0.14h255.21v26.831h-255.21c-0.16 0-1.218-0.621-2.508-0.836-2.364-0.376-5.634-1.651-7.568-3.343-1.827-1.799-3.127-2.524-3.343-9.239 0.429-8.703 2.457-9.483 5.897-11.793 1.719-0.887 3.456-1.402 5.01-1.671v0.046c0.397-0.067 0.759-0.132 1.068-0.14m144.72 99.78c21.08 0 39.926 4.331 56.5 12.953 16.576 8.623 29.388 20.859 38.4 36.77 9 15.906 13.505 34.27 13.505 55.06 0 13.797-2.231 26.433-6.639 37.93-4.408 11.498-10.615 20.462-18.664 26.876-8.05 6.42-17.406 9.611-28.04 9.611-7.091 0-13.43-1.661-18.988-5.01-5.461-3.45-9.308-7.953-11.607-13.505h-2.322c-4.695 5.75-10.379 10.296-17.09 13.65-6.708 3.258-14.184 4.874-22.419 4.874-16.959 0-30.34-5.072-40.11-15.228-9.773-10.253-14.671-24.2-14.671-41.836 0-20.03 6.341-36.25 18.988-48.702 12.743-12.456 29.621-18.663 50.602-18.664 7.761 0 16.724 0.741 26.876 2.275 10.156 1.438 18.419 3.319 24.839 5.617l-3.297 70.29c0 13.416 3.628 20.1 10.911 20.1 6.131 0 11.03-4.457 14.671-13.371 3.641-9 5.478-20.724 5.479-35.19 0-15.426-3.237-29.02-9.657-40.81-6.324-11.881-15.332-20.978-27.02-27.21-11.594-6.323-24.885-9.471-39.927-9.471-19.259 0-36.09 4.02-50.47 12.07-14.372 8.05-25.345 19.548-32.922 34.497-7.569 14.946-11.328 32.22-11.328 51.766 0 26.541 7.04 46.871 21.12 61.05 14.181 14.08 34.687 21.12 61.52 21.12 10.731 0 22.23-1.18 34.497-3.575 12.264-2.395 23.889-5.677 34.913-9.796v27.764c-20.313 8.623-43.1 12.906-68.29 12.907-36.409 0-64.785-9.575-85.19-28.739-20.313-19.16-30.502-45.791-30.502-79.9 0-23.667 5.249-45.18 15.693-64.54 10.539-19.358 25.449-34.438 44.704-45.27 19.259-10.923 41.21-16.387 65.934-16.387m-0.836 80.924c-11.974 0-21.336 3.716-28.04 11.189-6.611 7.473-9.889 17.708-9.889 30.642 0 20.22 8.219 30.32 24.699 30.32 8.528 0 15.04-3.02 19.545-9.05 4.6-6.131 7.399-16.1 8.357-29.892l1.857-31.756c-4.408-0.958-9.917-1.44-16.528-1.44" fill="#fff"/>
</svg>
