<?xml version="1.0" encoding="UTF-8" standalone="no"?>
<!-- Created with Inkscape (http://www.inkscape.org/) -->
<svg id="svg2" xmlns:rdf="http://www.w3.org/1999/02/22-rdf-syntax-ns#" xmlns="http://www.w3.org/2000/svg" height="100%" width="100%" version="1.1" xmlns:cc="http://creativecommons.org/ns#" xmlns:dc="http://purl.org/dc/elements/1.1/" viewBox="0 0 512 512">
 <metadata id="metadata515">
  <rdf:RDF>
   <cc:Work rdf:about="">
    <dc:format>image/svg+xml</dc:format>
    <dc:type rdf:resource="http://purl.org/dc/dcmitype/StillImage"/>
    <dc:title/>
   </cc:Work>
  </rdf:RDF>
 </metadata>
 <path id="path9" d="m26 0c-14.397 0-26 11.603-26 26v460c0 14.397 11.603 26 26 26h460c14.397 0 26-11.603 26-26v-460c0-14.397-11.6-26-26-26h-460" fill="#e7c649"/>
 <text id="text11" font-size="129.23px" style="word-spacing:0;letter-spacing:0" line-height="125%" y="229.10001" x="13.744" font-family="&apos;Gentium Book Basic&apos;">
  <tspan id="tspan13" y="229.10001" x="13.744"/>
 </text>
 <text id="text15" style="text-anchor:middle" transform="scale(4.0128 .24920)" font-size="46.954px" y="570.16705" x="200.50897" font-family="Arial"/>
 <text id="text17" font-size="129.23px" style="word-spacing:0;letter-spacing:0" line-height="125%" y="149.10001" x="595.01001" font-family="&apos;Gentium Book Basic&apos;">
  <tspan id="tspan19" y="149.10001" x="595.01001"/>
 </text>
 <text id="text21" style="text-anchor:middle" transform="scale(4.0128 .24920)" font-size="46.954px" y="249.13872" x="345.35822" font-family="Arial"/>
 <text id="text23" font-size="129.23px" style="word-spacing:0;letter-spacing:0" line-height="125%" y="-32.16" x="-476.57001" font-family="&apos;Gentium Book Basic&apos;">
  <tspan id="tspan25" y="-32.16" x="-476.57001"/>
 </text>
 <text id="text27" style="text-anchor:middle" transform="scale(4.0128 .24920)" font-size="46.954px" y="-478.20755" x="78.319595" font-family="Arial"/>
 <text id="text29" font-size="129.23px" style="word-spacing:0;letter-spacing:0" line-height="125%" y="-248.63" x="621.47998" font-family="&apos;Gentium Book Basic&apos;">
  <tspan id="tspan31" y="-248.63" x="621.47998"/>
 </text>
 <text id="text33" style="text-anchor:middle" transform="scale(4.0128 .24920)" font-size="46.954px" y="-1346.8732" x="351.94821" font-family="Arial"/>
 <text id="text35" font-size="129.23px" style="word-spacing:0;letter-spacing:0" line-height="125%" y="-328.64001" x="1202.75" font-family="&apos;Gentium Book Basic&apos;">
  <tspan id="tspan37" y="-328.64001" x="1202.75"/>
 </text>
 <text id="text39" style="text-anchor:middle" transform="scale(4.0128 .24920)" font-size="46.954px" y="-1667.9115" x="496.79745" font-family="Arial"/>
 <text id="text41" font-size="129.23px" style="word-spacing:0;letter-spacing:0" line-height="125%" y="-801.03998" x="813.63" font-family="&apos;Gentium Book Basic&apos;">
  <tspan id="tspan43" y="-801.03998" x="813.63"/>
 </text>
 <text id="text45" style="text-anchor:middle" transform="scale(4.0128 .24920)" font-size="46.954px" y="-3563.5518" x="399.82794" font-family="Arial"/>
 <text id="text47" font-size="129.23px" style="word-spacing:0;letter-spacing:0" line-height="125%" y="-881.03998" x="1394.89" font-family="&apos;Gentium Book Basic&apos;">
  <tspan id="tspan49" y="-881.03998" x="1394.89"/>
 </text>
 <text id="text51" style="text-anchor:middle" transform="scale(4.0128 .24920)" font-size="46.954px" y="-3884.5703" x="544.67719" font-family="Arial"/>
 <text id="text53" font-size="208.33px" style="word-spacing:0;letter-spacing:0" line-height="125%" y="533.67999" x="-437.91" font-family="&apos;Gentium Book Basic&apos;">
  <tspan id="tspan55" y="533.67999" x="-437.91"/>
 </text>
 <path id="path59" opacity=".25" d="m256 41.008v0.002c-20.5 0-37.12 16.626-37.12 37.121v38.749c-12.4 3.3-24.17 8.2-35.01 14.48l-27.38-27.38 7.82 7.83-7.83-7.83c-14.49-14.493-38.01-14.493-52.51 0l0.01 0.01c-14.492 14.49-14.491 38 0 52.5l27.29 27.29c-6.33 10.87-11.25 22.66-14.58 35.1h-38.84-0.002c-20.373 0.14-36.844 16.71-36.844 37.12l37.119 37.12h-0.004l-37.119-37.12c0 10.25 4.155 19.53 10.873 26.25l62.687 62.69-10.76 10.76 0.03 0.03c-14.319 14.51-14.283 37.86 0.15 52.3l103.97 103.97h278.05c14.4 0 26-11.6 26-26v-278.04l-103.98-103.98c-14.49-14.493-38.01-14.493-52.51 0l0.01 0.01c-0.15 0.14-0.26 0.3-0.4 0.45l-10.16 10.15-62.71-62.707c-6.72-6.718-16-10.875-26.25-10.875z"/>
 <path id="path173" d="m256 41.01c-20.498 0-37.12 16.625-37.12 37.12v38.75c-12.405 3.299-24.18 8.202-35.03 14.493l-27.362-27.39c-14.493-14.493-38.01-14.493-52.51 0-14.493 14.493-14.493 38.01 0 52.51l27.29 27.29c-6.331 10.87-11.255 22.66-14.585 35.1h-38.842c-20.374 0.143-36.846 16.714-36.846 37.12 0 20.498 16.625 37.12 37.12 37.12h38.42c3.299 12.51 8.216 24.374 14.555 35.31l-27.29 27.27 0.031 0.03c-14.319 14.507-14.282 37.856 0.153 52.3 14.493 14.493 38.01 14.493 52.51 0l27.05-27.08c10.945 6.38 22.803 11.376 35.34 14.707v38.498c0.143 20.374 16.714 36.846 37.12 36.846 20.498 0 37.12-16.625 37.12-37.12v-38.23c12.539-3.331 24.39-8.327 35.34-14.707l27.05 27.08c14.493 14.493 38.01 14.493 52.51 0 14.435-14.435 14.473-37.783 0.153-52.3l0.03-0.03-27.29-27.27c6.332-10.931 11.256-22.8 14.555-35.31h38.42c20.498 0 37.12-16.625 37.12-37.12 0-20.408-16.472-36.984-36.846-37.12h-38.842c-3.33-12.435-8.257-24.23-14.585-35.1l27.29-27.29c14.493-14.493 14.493-38.01 0-52.51-14.493-14.493-38.01-14.493-52.51 0-0.147 0.147-0.254 0.311-0.399 0.46l-26.959 26.928c-10.859-6.287-22.623-11.195-35.03-14.493v-38.75c0-20.498-16.625-37.12-37.12-37.12m-29.415 120.7a27.817 41.52 0 0 1 27.02 41.513 27.819 41.523 0 0 1 -55.637 0 27.817 41.52 0 0 1 28.617 -41.513m60.151 0a27.817 41.52 0 0 1 27.02 41.513 27.819 41.523 0 0 1 -55.637 0 27.817 41.52 0 0 1 28.617 -41.513m-99.05 121.25c51.14 31.3 95.15 24.997 136.63 3.776-2.519 11.1-7.17 20.07-12.988 28.432-11.222 16.527-21.89 26.639-35.13 31.689-9.392 3.316-17.03 4.453-24.01 3.838-20.484-3.428-32.02-13.277-44.31-26.744-12.07-10.733-14.864-25.505-20.2-40.996" fill="#fff"/>
</svg>
