<?xml version="1.0" encoding="UTF-8" standalone="no"?>
<!-- Created with Inkscape (http://www.inkscape.org/) -->
<svg id="svg2" xmlns:rdf="http://www.w3.org/1999/02/22-rdf-syntax-ns#" xmlns="http://www.w3.org/2000/svg" height="100%" width="100%" version="1.1" xmlns:cc="http://creativecommons.org/ns#" xmlns:dc="http://purl.org/dc/elements/1.1/" viewBox="0 0 512 512">
 <metadata id="metadata515">
  <rdf:RDF>
   <cc:Work rdf:about="">
    <dc:format>image/svg+xml</dc:format>
    <dc:type rdf:resource="http://purl.org/dc/dcmitype/StillImage"/>
    <dc:title/>
   </cc:Work>
  </rdf:RDF>
 </metadata>
 <path id="path9" d="m26 0c-14.397 0-26 11.603-26 26v460c0 14.397 11.603 26 26 26h460c14.397 0 26-11.603 26-26v-460c0-14.397-11.6-26-26-26h-460" fill="#cd1d31"/>
 <text id="text11" font-size="129.23px" style="word-spacing:0;letter-spacing:0" line-height="125%" y="198.42" x="90.449997" font-family="&apos;Gentium Book Basic&apos;">
  <tspan id="tspan13" y="198.42" x="90.449997"/>
 </text>
 <text id="text15" style="text-anchor:middle" transform="scale(4.0128 .24920)" font-size="46.954px" y="447.06772" x="219.61887" font-family="Arial"/>
 <text id="text17" font-size="129.23px" style="word-spacing:0;letter-spacing:0" line-height="125%" y="118.42" x="671.71997" font-family="&apos;Gentium Book Basic&apos;">
  <tspan id="tspan19" y="118.42" x="671.71997"/>
 </text>
 <text id="text21" style="text-anchor:middle" transform="scale(4.0128 .24920)" font-size="46.954px" y="126.02935" x="364.46814" font-family="Arial"/>
 <text id="text23" font-size="129.23px" style="word-spacing:0;letter-spacing:0" line-height="125%" y="-62.842999" x="-399.85999" font-family="&apos;Gentium Book Basic&apos;">
  <tspan id="tspan25" y="-62.842999" x="-399.85999"/>
 </text>
 <text id="text27" style="text-anchor:middle" transform="scale(4.0128 .24920)" font-size="46.954px" y="-601.31696" x="97.429504" font-family="Arial"/>
 <text id="text29" font-size="129.23px" style="word-spacing:0;letter-spacing:0" line-height="125%" y="-279.31" x="698.19" font-family="&apos;Gentium Book Basic&apos;">
  <tspan id="tspan31" y="-279.31" x="698.19"/>
 </text>
 <text id="text33" style="text-anchor:middle" transform="scale(4.0128 .24920)" font-size="46.954px" y="-1469.9824" x="371.06812" font-family="Arial"/>
 <text id="text35" font-size="129.23px" style="word-spacing:0;letter-spacing:0" line-height="125%" y="-359.31" x="1279.46" font-family="&apos;Gentium Book Basic&apos;">
  <tspan id="tspan37" y="-359.31" x="1279.46"/>
 </text>
 <text id="text39" style="text-anchor:middle" transform="scale(4.0128 .24920)" font-size="46.954px" y="-1791.0109" x="515.91736" font-family="Arial"/>
 <text id="text41" font-size="129.23px" style="word-spacing:0;letter-spacing:0" line-height="125%" y="-831.71002" x="890.34003" font-family="&apos;Gentium Book Basic&apos;">
  <tspan id="tspan43" y="-831.71002" x="890.34003"/>
 </text>
 <text id="text45" style="text-anchor:middle" transform="scale(4.0128 .24920)" font-size="46.954px" y="-3686.6511" x="418.94788" font-family="Arial"/>
 <text id="text47" font-size="129.23px" style="word-spacing:0;letter-spacing:0" line-height="125%" y="-911.71997" x="1471.6" font-family="&apos;Gentium Book Basic&apos;">
  <tspan id="tspan49" y="-911.71997" x="1471.6"/>
 </text>
 <text id="text51" style="text-anchor:middle" transform="scale(4.0128 .24920)" font-size="46.954px" y="-4007.6895" x="563.79712" font-family="Arial"/>
 <text id="text53" font-size="208.33px" style="word-spacing:0;letter-spacing:0" line-height="125%" y="503" x="-361.20001" font-family="&apos;Gentium Book Basic&apos;">
  <tspan id="tspan55" y="503" x="-361.20001"/>
 </text>
 <path id="path59" opacity=".25" fill-rule="evenodd" d="m244.4 41c-6.68 0.001-12.03 5.35-12.03 12.029v23.315l56.53 56.526h-0.01l-56.52-56.52v13.74c-5.53 0.73-10.98 1.707-16.34 2.91l-21.84-21.84c-11.76-11.757-27.74-17.47-45.06-17.566l27.29 27.293c0 0.002-0.01 0.005-0.02 0.008l-27.29-27.291c-1.15-0.007-2.3-0.008-3.46 0.035-16.47 0.616-33.96 6.191-50.119 16.457l-0.328-0.328-0.004-0.004c-0.364-0.364-0.741-0.721-1.137-1.061l-0.001-0.004c-10.399-8.962-27.26-6.43-37.666 5.643l0.005 0.008c-9.994 11.596-10.367 27.8-1.168 37l0.237 0.24c-19.815 33.71-19.727 72.33 3.107 95.17l18.406 18.41c-4.447 15.97-6.832 32.81-6.832 50.2l49.56 49.56c0.01 0.01 0.01 0.02 0.01 0.03l-49.579-49.58c0 51.62 20.931 98.36 54.769 132.19l104.43 104.43h256.66c14.4 0 26-11.6 26-26v-355.39l-58.11-58.11c-10.47-10.466-26.11-12.284-35.95-3.799-0.52 0.443-1 0.911-1.46 1.391l40.76 40.758c0 0.01-0.01 0.01-0.01 0.01l-40.76-40.76c-16.17-10.266-33.66-15.842-50.12-16.459v-0.002c-1.17-0.044-2.31-0.042-3.46-0.035l-0.01-0.01c-17.31 0.096-33.3 5.808-45.06 17.566-1.19 1.194-2.21 2.505-3.28 3.783l42.35 42.357c-6.86-4.34-14.02-8.26-21.45-11.69l-61.1-61.1c-2.17-2.173-5.18-3.509-8.52-3.51h-21.42zm-143.85 375.27c-3.197 0-6.368 1.23-8.82 3.68l92.05 92.05h17.68l-92.05-92.05c-2.45-2.45-5.66-3.68-8.85-3.68h-0.01zm-8.82 3.68l-17.209 17.17h-0.001c-4.903 4.9-4.903 12.77 0 17.67l57.21 57.21h52.05l-61.85-61.85-30.2-30.2z"/>
 <path id="path261" fill="#fff" d="m244.4 41c-6.68 0-12.03 5.35-12.03 12.03v23.314 13.745c-91.54 12.1-162.22 90.44-162.22 185.28 0 103.23 83.73 186.96 186.96 186.96s186.9-83.73 186.9-186.96c0-96.22-72.67-175.47-166.15-185.79v-36.559c0-6.68-5.35-12.03-12.03-12.03h-21.422m-95.29 12.603c-1.154-0.007-2.298-0.008-3.464 0.035-16.464 0.616-33.957 6.192-50.12 16.459-0.465-0.481-0.949-0.949-1.464-1.392-10.399-8.962-27.26-6.432-37.666 5.641-10.08 11.695-10.372 28.08-0.928 37.23-19.818 33.713-19.729 72.34 3.106 95.18 0.51 0.51 1.117 0.904 1.642 1.392 0.765-2.982 1.377-6.04 2.284-8.962 1.786-5.743 3.856-11.33 6.177-16.823 2.321-5.485 4.887-10.833 7.712-16.03 2.824-5.196 5.879-10.224 9.176-15.1 3.296-4.877 6.83-9.609 10.568-14.14 3.739-4.529 7.704-8.883 11.858-13.03 4.149-4.148 8.502-8.08 13.03-11.825 4.53-3.737 9.223-7.273 14.1-10.568 4.879-3.296 9.939-6.352 15.15-9.175 5.198-2.823 10.545-5.392 16.03-7.712 5.486-2.32 11.144-4.391 16.89-6.176 4.676-1.454 9.453-2.596 14.28-3.677-1.07-1.278-2.09-2.59-3.284-3.784-11.76-11.757-27.75-17.47-45.06-17.566m213.75 0c-17.311 0.096-33.3 5.808-45.06 17.566-1.194 1.194-2.214 2.506-3.284 3.784 4.829 1.082 9.641 2.222 14.317 3.677 5.743 1.786 11.365 3.856 16.856 6.176 5.486 2.32 10.869 4.889 16.07 7.712 5.198 2.823 10.223 5.88 15.1 9.175 4.879 3.296 9.572 6.831 14.1 10.568 4.53 3.737 8.881 7.668 13.03 11.825 4.149 4.148 8.114 8.502 11.858 13.03 3.739 4.529 7.271 9.26 10.568 14.14 3.296 4.877 6.352 9.906 9.176 15.1 2.824 5.196 5.391 10.545 7.712 16.03s4.389 11.07 6.176 16.823c0.909 2.922 1.556 5.979 2.321 8.962 0.527-0.488 1.097-0.882 1.607-1.392 22.836-22.836 22.925-61.47 3.106-95.18 9.445-9.159 9.151-25.541-0.928-37.23-10.404-12.07-27.27-14.602-37.666-5.641-0.515 0.444-1 0.911-1.464 1.392-16.17-10.266-33.662-15.842-50.12-16.459-1.166-0.044-2.31-0.042-3.464-0.035m-105.75 75.79c80.64 0 145.99 65.34 145.99 145.99 0 80.64-65.34 146.02-145.99 146.02-80.64 0-146.05-65.38-146.05-146.02s65.41-145.99 146.05-145.99m-46.41 21.03c-2.521-0.01-5.082 0.575-7.462 1.857l-1.929 1.035c-7.635 4.097-10.481 13.535-6.39 21.17l42.35 79.15-52.91 64.976c-5.132 6.296-4.19 15.468 2.107 20.6l3.177 2.642c6.296 5.132 15.504 4.19 20.635-2.107l60.09-73.76c0.753-0.924 1.362-1.9 1.857-2.927 2.457-4.478 2.672-10.06 0.072-14.924l-47.875-89.46c-2.813-5.251-8.165-8.224-13.71-8.247m-110.18 265.84c-3.198 0-6.367 1.226-8.819 3.677l-17.209 17.17c-4.903 4.903-4.903 12.771 0 17.673l12.531 12.531c4.903 4.903 12.806 4.903 17.708 0l17.17-17.17c4.903-4.903 4.903-12.771 0-17.673l-12.531-12.531c-2.45-2.45-5.656-3.677-8.854-3.677m310.64 0c-3.199 0-6.404 1.226-8.854 3.677l-12.531 12.531c-4.903 4.903-4.903 12.771 0 17.673l17.17 17.17c4.903 4.903 12.806 4.903 17.708 0l12.531-12.531c4.903-4.903 4.903-12.771 0-17.673l-17.17-17.17c-2.45-2.45-5.656-3.677-8.854-3.677" fill-rule="evenodd"/>
</svg>
