<?xml version="1.0" encoding="UTF-8" standalone="no"?>
<!-- Created with Inkscape (http://www.inkscape.org/) -->
<svg id="svg2" xmlns:rdf="http://www.w3.org/1999/02/22-rdf-syntax-ns#" xmlns="http://www.w3.org/2000/svg" height="100%" width="100%" version="1.1" xmlns:cc="http://creativecommons.org/ns#" xmlns:dc="http://purl.org/dc/elements/1.1/" viewBox="0 0 512 512">
 <metadata id="metadata515">
  <rdf:RDF>
   <cc:Work rdf:about="">
    <dc:format>image/svg+xml</dc:format>
    <dc:type rdf:resource="http://purl.org/dc/dcmitype/StillImage"/>
    <dc:title/>
   </cc:Work>
  </rdf:RDF>
 </metadata>
 <path id="rect2986" fill="#c86a79" d="m26 0c-14.397 0-26 11.603-26 26v460c0 14.397 11.603 26 26 26h460c14.397 0 26-11.603 26-26v-460c0-14.397-11.6-26-26-26h-460z"/>
 <text id="text20" font-size="129.23px" style="word-spacing:0;letter-spacing:0" line-height="125%" y="191.37692" x="-232.02858" font-family="&apos;Gentium Book Basic&apos;">
  <tspan id="tspan22" y="191.37692" x="-232.02858"/>
 </text>
 <text id="text24" style="text-anchor:middle" transform="scale(4.0128 .24920)" font-size="46.954px" y="418.81332" x="139.259" font-family="Arial"/>
 <text id="text26" font-size="129.23px" style="word-spacing:0;letter-spacing:0" line-height="125%" y="111.37692" x="349.24142" font-family="&apos;Gentium Book Basic&apos;">
  <tspan id="tspan28" y="111.37692" x="349.24142"/>
 </text>
 <text id="text30" style="text-anchor:middle" transform="scale(4.0128 .24920)" font-size="46.954px" y="97.775162" x="284.10828" font-family="Arial"/>
 <text id="text32" font-size="129.23px" style="word-spacing:0;letter-spacing:0" line-height="125%" y="-69.883057" x="-722.33862" font-family="&apos;Gentium Book Basic&apos;">
  <tspan id="tspan34" y="-69.883057" x="-722.33862"/>
 </text>
 <text id="text36" style="text-anchor:middle" transform="scale(4.0128 .24920)" font-size="46.954px" y="-629.57123" x="17.069645" font-family="Arial"/>
 <text id="text38" font-size="129.23px" style="word-spacing:0;letter-spacing:0" line-height="125%" y="-286.35306" x="375.7114" font-family="&apos;Gentium Book Basic&apos;">
  <tspan id="tspan40" y="-286.35306" x="375.7114"/>
 </text>
 <text id="text42" style="text-anchor:middle" transform="scale(4.0128 .24920)" font-size="46.954px" y="-1498.2468" x="290.70825" font-family="Arial"/>
 <text id="text44" font-size="129.23px" style="word-spacing:0;letter-spacing:0" line-height="125%" y="-366.35306" x="956.98145" font-family="&apos;Gentium Book Basic&apos;">
  <tspan id="tspan46" y="-366.35306" x="956.98145"/>
 </text>
 <text id="text48" style="text-anchor:middle" transform="scale(4.0128 .24920)" font-size="46.954px" y="-1819.2751" x="435.5575" font-family="Arial"/>
 <text id="text50" font-size="129.23px" style="word-spacing:0;letter-spacing:0" line-height="125%" y="-838.75305" x="567.86145" font-family="&apos;Gentium Book Basic&apos;">
  <tspan id="tspan52" y="-838.75305" x="567.86145"/>
 </text>
 <text id="text54" style="text-anchor:middle" transform="scale(4.0128 .24920)" font-size="46.954px" y="-3714.9255" x="338.58795" font-family="Arial"/>
 <text id="text56" font-size="129.23px" style="word-spacing:0;letter-spacing:0" line-height="125%" y="-918.76306" x="1149.1215" font-family="&apos;Gentium Book Basic&apos;">
  <tspan id="tspan58" y="-918.76306" x="1149.1215"/>
 </text>
 <text id="text60" style="text-anchor:middle" transform="scale(4.0128 .24920)" font-size="46.954px" y="-4035.9639" x="483.43726" font-family="Arial"/>
 <text id="text62" font-size="208.33px" style="word-spacing:0;letter-spacing:0" line-height="125%" y="495.957" x="-683.67859" font-family="&apos;Gentium Book Basic&apos;">
  <tspan id="tspan64" y="495.957" x="-683.67859"/>
 </text>
 <path id="path3299" opacity=".25" d="m127.65 61.869l-25.52 14.443-7.888 52.568-30.404-30.401-22.838 13.431 62.47 108.15 64.03 64.03c-2.25 7.27-4.42 14.12-6.5 20.49l-58.93-58.93c-6.633-6.64-14.908-3.3-29.834 5.31-16.387 9.46-18.732 14.22-10.388 22.57l13.752 13.75c9.506 13.91 21.637 42.64 29.55 71.5 9.73 35.46 20.1 71.74 23.17 80.6 1.84 5.28 3.22 8.62 4.61 10.01l62.61 62.61h290.46c14.4 0 26-11.6 26-26v-349.35l-41-40.996c-11.94 0-31.9-0.199-122.01-0.199l32.24 32.245h-26.53-101.1l-32.24-32.243-13.2 46.923-80.51-80.511z"/>
 <path id="path3103" fill="#fff" d="m127.65 61.87-25.52 14.442-8.063 53.738-1.68 18.14-28.548-49.711-22.839 13.431l62.471 108.15 22.839-13.099-22.167-38.624 5.7097-12.763 54.746 29.22 25.862-14.778-72.883-38.624zm93.71 33.587-36.27 128.97c-19.925 70.935-39.467 128.97-43.327 128.97-3.8594 0-11.944-24.361-19.816-53.738-16.624-62.043-19.933-65.891-49.708-48.7-20.277 11.707-19.053 16.214-2.6869 29.22 9.7584 7.7546 25.874 43.125 35.602 78.592 9.7274 35.467 20.095 71.741 23.175 80.608 4.9765 14.33 6.6207 14.33 14.106 0 4.6318-8.8668 27.06-82.623 49.708-163.9l40.976-147.78h121.58c73.245 0 101.38-0.009 115.96-0.009 0-8.4729 0.34307-22.742 0.34307-32.036-11.941 0-31.904-0.1988-122.01-0.1988zm53.067 67.845-98.744 280.78h63.814l20.152-66.501h102.1l20.152 66.501h64.15l-99.416-280.78zm36.273 43.327c1.02 4.5927 2.7416 10.9 5.038 18.808 2.4236 7.9094 13.155 42.1 31.907 102.44h-72.883c19.9-64.421 31.728-104.92 35.938-121.25z"/>
</svg>
