<?xml version="1.0" encoding="UTF-8" standalone="no"?>
<!-- Created with Inkscape (http://www.inkscape.org/) -->
<svg id="svg2" xmlns:rdf="http://www.w3.org/1999/02/22-rdf-syntax-ns#" xmlns="http://www.w3.org/2000/svg" height="100%" width="100%" version="1.1" xmlns:cc="http://creativecommons.org/ns#" xmlns:dc="http://purl.org/dc/elements/1.1/" viewBox="0 0 512 512">
 <metadata id="metadata555">
  <rdf:RDF>
   <cc:Work rdf:about="">
    <dc:format>image/svg+xml</dc:format>
    <dc:type rdf:resource="http://purl.org/dc/dcmitype/StillImage"/>
   </cc:Work>
  </rdf:RDF>
 </metadata>
 <path id="path9" d="m26 0c-14.397 0-26 11.603-26 26v460c0 14.397 11.603 26 26 26h460c14.397 0 26-11.603 26-26v-460c0-14.397-11.6-26-26-26h-460" fill="#62c0dc"/>
 <text id="text11" style="word-spacing:0;letter-spacing:0" font-size="129.23px" line-height="125%" y="241.37" x="105.79" font-family="Gentium Book Basic">
  <tspan id="tspan13" y="241.37" x="105.79"/>
 </text>
 <text id="text15" style="text-anchor:middle" transform="scale(4.0128 .2492)" font-size="46.954px" y="619.41998" x="223.44" font-family="Arial"/>
 <text id="text17" style="word-spacing:0;letter-spacing:0" font-size="129.23px" line-height="125%" y="161.37" x="687.06" font-family="Gentium Book Basic">
  <tspan id="tspan19" y="161.37" x="687.06"/>
 </text>
 <text id="text21" style="text-anchor:middle" transform="scale(4.0128 .2492)" font-size="46.954px" y="298.39001" x="368.29001" font-family="Arial"/>
 <text id="text23" style="word-spacing:0;letter-spacing:0" font-size="129.23px" line-height="125%" y="-19.889999" x="-384.51999" font-family="Gentium Book Basic">
  <tspan id="tspan25" y="-19.889999" x="-384.51999"/>
 </text>
 <text id="text27" style="text-anchor:middle" transform="scale(4.0128 .2492)" font-size="46.954px" y="-428.95999" x="101.25" font-family="Arial"/>
 <text id="text29" style="word-spacing:0;letter-spacing:0" font-size="129.23px" line-height="125%" y="-236.36" x="713.53003" font-family="Gentium Book Basic">
  <tspan id="tspan31" y="-236.36" x="713.53003"/>
 </text>
 <text id="text33" style="text-anchor:middle" transform="scale(4.0128 .2492)" font-size="46.954px" y="-1297.63" x="374.89001" font-family="Arial"/>
 <text id="text35" style="word-spacing:0;letter-spacing:0" font-size="129.23px" line-height="125%" y="-316.37" x="1294.8" font-family="Gentium Book Basic">
  <tspan id="tspan37" y="-316.37" x="1294.8"/>
 </text>
 <text id="text39" style="text-anchor:middle" transform="scale(4.0128 .2492)" font-size="46.954px" y="-1618.67" x="519.73999" font-family="Arial"/>
 <text id="text41" style="word-spacing:0;letter-spacing:0" font-size="129.23px" line-height="125%" y="-788.77002" x="905.67999" font-family="Gentium Book Basic">
  <tspan id="tspan43" y="-788.77002" x="905.67999"/>
 </text>
 <text id="text45" style="text-anchor:middle" transform="scale(4.0128 .2492)" font-size="46.954px" y="-3514.3201" x="422.76999" font-family="Arial"/>
 <text id="text47" style="word-spacing:0;letter-spacing:0" font-size="129.23px" line-height="125%" y="-868.77002" x="1486.9399" font-family="Gentium Book Basic">
  <tspan id="tspan49" y="-868.77002" x="1486.9399"/>
 </text>
 <text id="text51" style="text-anchor:middle" transform="scale(4.0128 .2492)" font-size="46.954px" y="-3835.3501" x="567.62" font-family="Arial"/>
 <text id="text53" style="word-spacing:0;letter-spacing:0" font-size="208.33px" line-height="125%" y="545.95001" x="-345.85999" font-family="Gentium Book Basic">
  <tspan id="tspan55" y="545.95001" x="-345.85999"/>
 </text>
 <path id="path59" opacity=".25" style="color:#000000" d="m240.78 41l-0.56 1.656v0.004l-10.31 31.559v0.004l-0.12 0.373-0.01-0.006v0.375l207.26 207.26h-0.01l-207.25-207.25v2.78 0.188l0.03 0.156 3.41 25.276 175.4 175.41-175.4-175.4-21.77 5.85-23.45-23.451-0.31-0.279-24.69-22.16-1.28-1.156 28.86 28.859v0.008l-28.86-28.862-1.5 0.842v-0.002l-23.44 13.5-1.5 0.875 102.53 102.53h-0.01l-102.52-102.52 0.37 1.688 0.01 0.009 6.81 32.513 75.85 75.84-0.01 0.01-75.84-75.84 0.09 0.4v0.01l0.19 0.33 75.26 75.27-75.26-75.26 1.47 2.38 0.01 0.01 0.05 0.11 73.12 73.11-0.01 0.01-73.11-73.12 0.09 0.13 0.06 0.05 15.54 20.16 54.51 54.51-54.51-54.51-24.75 24.75-20.22-15.59 73 73-73-73-0.07-0.06-0.05-0.04-0.12-0.06 73.21 73.21v0.01l-73.22-73.22-2.36-1.46-0.01-0.01-0.34-0.19 75.54 75.55-75.55-75.55-0.41-0.09-32.52-6.81 101.08 101.08v0.01l-101.09-101.09-1.67-0.37-0.01-0.01-0.004 0.01h-0.004 0.002l-0.869 1.49 102.96 102.95-0.01 0.01-102.96-102.96-13.501 23.44-0.875 1.5 0.08 0.08 1.114 1.2 27.496 27.5-0.01-0.01-27.494-27.49 22.16 24.69 0.281 0.31 23.449 23.45v0.01l-5.85 21.76-25.28-3.41 204.09 204.09v0.01l-204.1-204.1-0.184-0.03h-0.156-2.781-0.375l207.63 207.63-0.01-0.01-207.62-207.62-0.375 0.12 0.006 0.01-31.563 10.31h-0.002l-1.654 0.56h-0.002v1.72 27 1.72h0.004l50.15 50.16-2.34 0.96 36.976 36.97h-0.01l-36.969-36.97-0.125 0.03 37.014 37.01h-0.01l-37.001-37-0.125 0.09h-0.003l-2.44 1.34-0.336 0.19 37.355 37.35-0.01 0.01-37.351-37.36-0.281 0.31-22.158 24.69-1.188 1.28 0.022 0.02 0.861 1.48 23.086 23.09h-0.004l-23.088-23.09 13.5 23.44 0.875 1.5 135.29 135.28h273.31c14.4 0 26-11.6 26-26v-273.32l-77.4-77.4v0.01l-57.89-57.888v0.004l-1.48-0.863-0.01-0.014-23.44-13.5-1.5-0.843 24.48 24.48v0.002l-24.48-24.479-1.28 1.153v-0.002l-24.72 22.16-0.28 0.281-0.19 0.342 37.32 37.317h-0.01l-37.31-37.309-1.34 2.43-0.09 0.125v0.003l-0.03 0.125 36.97 36.966v0.01l-36.98-36.979-0.96 2.343-50.16-50.154h-1.72-27-1.72z"/>
 <path id="path551" style="color:#000000" d="m240.78 41-0.563 1.656-10.313 31.563-0.125 0.375v3.344l0.031 0.156 3.406 25.281-33.813 9.09-9.75-23.656-0.063-0.125-0.063-0.125-1.344-2.438-0.188-0.344-0.313-0.281-24.688-22.16-1.281-1.156-1.5 0.844-23.438 13.5-1.5 0.875 0.375 1.688 6.813 32.531 0.094 0.406 0.188 0.344 1.469 2.375 0.063 0.125 0.094 0.125 15.594 20.22-24.75 24.75-20.22-15.594-0.125-0.094-0.125-0.063-2.375-1.469-0.344-0.188-0.406-0.094-32.531-6.813-1.688-0.375-0.875 1.5-13.5 23.438-0.875 1.5 1.188 1.281 22.16 24.688 0.281 0.313 0.344 0.188 2.438 1.344 0.125 0.094 0.125 0.031 23.656 9.75-9.09 33.813-25.281-3.406-0.188-0.031h-3.312l-0.375 0.125-31.563 10.313-1.656 0.563v30.438l1.656 0.563 31.563 10.313 0.375 0.125h3.312l0.188-0.031 25.281-3.406 9.09 33.813-23.656 9.75-0.125 0.031-0.125 0.094-2.438 1.344-0.344 0.188-0.281 0.313-22.16 24.688-1.188 1.281 0.875 1.5 13.5 23.438 0.875 1.5 1.688-0.375 32.531-6.813 0.406-0.094 0.344-0.188 2.375-1.469 0.125-0.063 0.125-0.094 20.22-15.594 24.75 24.75-15.594 20.22-0.094 0.125-0.063 0.125-1.469 2.375-0.188 0.344-0.094 0.406-6.813 32.531-0.375 1.688 1.5 0.875 23.438 13.5 1.5 0.844 1.281-1.156 24.688-22.16 0.313-0.281 0.188-0.344 1.344-2.438 0.063-0.125 0.063-0.125 9.75-23.656 33.813 9.09-3.406 25.281-0.031 0.156v3.344l0.125 0.375 10.313 31.563 0.563 1.656h30.438l0.563-1.656 10.313-31.563 0.125-0.375v-3.344l-0.031-0.156-3.406-25.281 33.813-9.09 9.75 23.656 0.031 0.125 0.094 0.125 1.344 2.438 0.188 0.344 0.281 0.281 24.719 22.16 1.281 1.156 1.5-0.844 23.438-13.5 1.5-0.875-0.375-1.688-6.813-32.531-0.094-0.406-0.188-0.344-1.469-2.375-0.063-0.125-0.094-0.125-15.594-20.25 24.75-24.719 20.22 15.594 0.125 0.094 0.125 0.063 2.375 1.469 0.344 0.188 0.406 0.094 32.531 6.813 1.688 0.375 0.875-1.5 13.5-23.438 0.844-1.5-1.156-1.281-22.16-24.688-0.281-0.313-0.344-0.188-2.438-1.344-0.125-0.094-0.125-0.031-23.688-9.781 9.125-33.781 25.281 3.406 0.156 0.031h3.344l0.375-0.125 31.563-10.313 1.656-0.563v-30.438l-1.656-0.563-31.563-10.313-0.375-0.125h-3.344l-0.156 0.031-25.281 3.406-9.125-33.781 23.688-9.781 0.125-0.031 0.125-0.094 2.438-1.344 0.344-0.188 0.281-0.313 22.16-24.688 1.156-1.281-0.844-1.5-13.5-23.438-0.875-1.5-1.688 0.375-32.531 6.813-0.406 0.094-0.344 0.188-2.375 1.469-0.125 0.063-0.125 0.094-20.22 15.594-24.75-24.719 15.594-20.25 0.094-0.125 0.063-0.125 1.469-2.375 0.188-0.344 0.094-0.406 6.813-32.531 0.375-1.688-1.5-0.875-23.438-13.5-1.5-0.844-1.281 1.156-24.719 22.16-0.281 0.281-0.188 0.344-1.344 2.438-0.094 0.125-0.031 0.125-9.75 23.656-33.813-9.09 3.406-25.281 0.031-0.156v-3.344l-0.125-0.375-10.313-31.563-0.563-1.656h-30.438m15.219 136.78c43.17 0 78.22 35.05 78.22 78.22s-35.05 78.22-78.22 78.22-78.22-35.05-78.22-78.22 35.05-78.22 78.22-78.22" fill="#fff"/>
</svg>
