<?xml version="1.0" encoding="UTF-8" standalone="no"?>
<!-- Created with Inkscape (http://www.inkscape.org/) -->
<svg id="svg2" xmlns:rdf="http://www.w3.org/1999/02/22-rdf-syntax-ns#" xmlns="http://www.w3.org/2000/svg" height="100%" width="100%" version="1.1" xmlns:cc="http://creativecommons.org/ns#" xmlns:dc="http://purl.org/dc/elements/1.1/" viewBox="0 0 512 512">
 <metadata id="metadata555">
  <rdf:RDF>
   <cc:Work rdf:about="">
    <dc:format>image/svg+xml</dc:format>
    <dc:type rdf:resource="http://purl.org/dc/dcmitype/StillImage"/>
    <dc:title/>
   </cc:Work>
  </rdf:RDF>
 </metadata>
 <style id="style1470" type="text/css"/>
 <path id="path13" d="m26 0c-14.397 0-26 11.603-26 26v460c0 14.397 11.603 26 26 26h460c14.397 0 26-11.603 26-26v-460c0-14.397-11.6-26-26-26h-460" fill="#68af4c"/>
 <path id="path17" opacity=".25" d="m118.48 41c-6.86 0.001-12.42 5.566-12.42 12.422v0.002 24.799c0 0.166 0.02 0.327 0.03 0.492l-12.879-12.875v0.004c-20.4 0.223-36.764 16.727-36.764 37.176l84.523 84.53-84.521-84.52v297.84c0.003 10.29 4.15 19.58 10.869 26.3l0.088 0.09c-0.028-0.03-0.058-0.05-0.086-0.08l84.82 84.82h333.86c14.4 0 26-11.6 26-26v-290.21l-119.1-119.1c-5.49-5.489-12.7-9.249-20.77-10.44l-21.69-21.691c-2.24-2.201-5.31-3.558-8.7-3.559-6.86 0.001-12.38 5.566-12.38 12.422v24.801c0 0.163 0.02 0.321 0.02 0.482l-12.86-12.865v0.004h-168.07l-21.23-21.225c-2.23-2.235-5.32-3.618-8.74-3.619z"/>
 <path id="path221" d="m118.48 41c-6.857 0-12.422 5.565-12.422 12.422v24.802c0 6.857 5.565 12.422 12.422 12.422s12.38-5.565 12.38-12.422v-24.802c0-6.857-5.52-12.422-12.38-12.422m223.26 0c-6.857 0-12.38 5.565-12.38 12.422v24.802c0 6.857 5.523 12.422 12.38 12.422s12.422-5.565 12.422-12.422v-24.802c0-6.857-5.56-12.422-12.42-12.422m-248.52 24.844c-20.4 0.223-36.763 16.728-36.763 37.18v297.84c0 20.594 16.588 37.18 37.18 37.18h48.22c6.336-26.376 18.04-51.596 24.676-77.81 31.896-37.34 68.18-71.28 102.9-105.97 23.336-22.03 44.968-46.1 68.28-68.07 13.755-12.798 25.503-32.984 46.583-33.825 0.687-0.03 1.372-0.042 2.056-0.042 5.958 0 11.809 1.154 17.416 3.064v-52.37c0-20.465-16.347-36.977-36.763-37.18v12.38c0 13.796-11.468 25.26-25.26 25.26-13.796 0-25.22-11.52-25.22-25.26v-12.38h-172.82v12.38c0 13.744-11.426 25.26-25.22 25.26-13.796 0-25.26-11.468-25.26-25.26v-12.38m292.21 107.94c-3.629 0.188-6.741 1.357-9.02 3.567l-0.126 0.126-17.668 17.71 75.54 75.5 17.416-17.458 0.294-0.252c0.04-0.04 0.044-0.085 0.084-0.126 8.207-8.454 1.948-28.06-14.14-44.15l-17.12-17.16c-11.13-11.11-23.98-17.53-33.63-17.74-0.539-0.012-1.076-0.027-1.595 0h-0.042m-264.09 13.765h196.23c-10.151 10.341-20.422 20.565-30.761 30.761h-165.47c-8.524 0-15.402-6.877-15.402-15.402 0-8.524 6.877-15.36 15.402-15.36m227.54 17.416-18.675 18.717 75.5 75.54 18.675-18.759-75.5-75.5m-30.26 30.26-113.98 114.02-14.06 14.02-3.567 3.567-28.453 89.14a11.605 12.929 0 0 0 3.777 12.842 11.605 12.929 0 0 0 10.408 1.4268l90.4-28.537 2.938-2.98 13.597-13.597 114.44-114.4-75.5-75.5m-197.28 30.09h117.63c-10.319 10.187-20.622 20.407-30.761 30.761h-86.87c-8.524 0-15.402-6.877-15.402-15.402 0-8.524 6.877-15.36 15.402-15.36m282.43 66.1c-35.06 35.01-70.26 69.898-105.21 105-0.003 0.542-0.041 1.096-0.084 1.637h68.15c20.594 0 37.14-16.588 37.14-37.18v-69.45m-282.43 11.667h42.89c-2.246 2.53-4.495 5.04-6.715 7.596-4.463 7.164-6.902 15.12-9.149 23.17h-27.03c-8.524 0-15.402-6.835-15.402-15.36 0-8.524 6.877-15.402 15.402-15.402m85.611 36.763a3.2386 3.2386 0 0 1 0.33573 0v0.042a3.2386 3.2386 0 0 1 0.0419 0 3.2386 3.2386 0 0 1 2.2662 0.96523l6.631 6.631 24.76-1.259a3.2386 3.2386 0 0 1 2.3082 0.79736 3.2386 3.2386 0 0 1 1.0911 2.6019l-1.217 26.942 4.91 4.91a3.2386 3.2386 0 0 1 -1.4688 5.4137l-42.638 11.415a3.2386 3.2386 0 0 1 -3.1475 -0.79736l-8.267-8.267a3.2386 3.2386 0 0 1 -0.83933 -3.1894l12.464-43.813a3.2386 3.2386 0 0 1 2.7698 -2.3921m69.41 57.37-0.839 0.839h0.839v-0.839" fill="#fff"/>
</svg>
