<?xml version="1.0" encoding="UTF-8" standalone="no"?>
<!-- Created with Inkscape (http://www.inkscape.org/) -->
<svg id="svg2" xmlns:rdf="http://www.w3.org/1999/02/22-rdf-syntax-ns#" xmlns="http://www.w3.org/2000/svg" height="100%" width="100%" version="1.1" xmlns:cc="http://creativecommons.org/ns#" xmlns:dc="http://purl.org/dc/elements/1.1/" viewBox="0 0 512 512">
 <metadata id="metadata555">
  <rdf:RDF>
   <cc:Work rdf:about="">
    <dc:format>image/svg+xml</dc:format>
    <dc:type rdf:resource="http://purl.org/dc/dcmitype/StillImage"/>
    <dc:title/>
   </cc:Work>
  </rdf:RDF>
 </metadata>
 <style id="style1470" type="text/css"/>
 <path id="rect2986" fill="#d23638" d="m26 0c-14.397 0-26 11.603-26 26v460c0 14.397 11.603 26 26 26h460c14.397 0 26-11.603 26-26v-460c0-14.397-11.6-26-26-26h-460z"/>
 <text id="text20" font-size="129.23px" style="word-spacing:0;letter-spacing:0" line-height="125%" y="180.54753" x="-434.52478" font-family="&apos;Gentium Book Basic&apos;">
  <tspan id="tspan22" y="180.54753" x="-434.52478"/>
 </text>
 <text id="text24" style="text-anchor:middle" transform="scale(4.0128 .24920)" font-size="46.954px" y="375.35693" x="88.796692" font-family="Arial"/>
 <text id="text26" font-size="129.23px" style="word-spacing:0;letter-spacing:0" line-height="125%" y="100.54753" x="146.74524" font-family="&apos;Gentium Book Basic&apos;">
  <tspan id="tspan28" y="100.54753" x="146.74524"/>
 </text>
 <text id="text30" style="text-anchor:middle" transform="scale(4.0128 .24920)" font-size="46.954px" y="54.318787" x="233.64597" font-family="Arial"/>
 <text id="text32" font-size="129.23px" style="word-spacing:0;letter-spacing:0" line-height="125%" y="-80.712448" x="-924.83478" font-family="&apos;Gentium Book Basic&apos;">
  <tspan id="tspan34" y="-80.712448" x="-924.83478"/>
 </text>
 <text id="text36" style="text-anchor:middle" transform="scale(4.0128 .24920)" font-size="46.954px" y="-673.02759" x="-33.39267" font-family="Arial"/>
 <text id="text38" font-size="129.23px" style="word-spacing:0;letter-spacing:0" line-height="125%" y="-297.18243" x="173.21521" font-family="&apos;Gentium Book Basic&apos;">
  <tspan id="tspan40" y="-297.18243" x="173.21521"/>
 </text>
 <text id="text42" style="text-anchor:middle" transform="scale(4.0128 .24920)" font-size="46.954px" y="-1541.7032" x="240.24594" font-family="Arial"/>
 <text id="text44" font-size="129.23px" style="word-spacing:0;letter-spacing:0" line-height="125%" y="-377.18243" x="754.48523" font-family="&apos;Gentium Book Basic&apos;">
  <tspan id="tspan46" y="-377.18243" x="754.48523"/>
 </text>
 <text id="text48" style="text-anchor:middle" transform="scale(4.0128 .24920)" font-size="46.954px" y="-1862.7316" x="385.09518" font-family="Arial"/>
 <text id="text50" font-size="129.23px" style="word-spacing:0;letter-spacing:0" line-height="125%" y="-849.58246" x="365.36523" font-family="&apos;Gentium Book Basic&apos;">
  <tspan id="tspan52" y="-849.58246" x="365.36523"/>
 </text>
 <text id="text54" style="text-anchor:middle" transform="scale(4.0128 .24920)" font-size="46.954px" y="-3758.3818" x="288.12564" font-family="Arial"/>
 <text id="text56" font-size="129.23px" style="word-spacing:0;letter-spacing:0" line-height="125%" y="-929.59247" x="946.62524" font-family="&apos;Gentium Book Basic&apos;">
  <tspan id="tspan58" y="-929.59247" x="946.62524"/>
 </text>
 <text id="text60" style="text-anchor:middle" transform="scale(4.0128 .24920)" font-size="46.954px" y="-4079.4202" x="432.97495" font-family="Arial"/>
 <text id="text62" font-size="208.33px" style="word-spacing:0;letter-spacing:0" line-height="125%" y="485.12762" x="-886.1748" font-family="&apos;Gentium Book Basic&apos;">
  <tspan id="tspan64" y="485.12762" x="-886.1748"/>
 </text>
 <path id="path3186" style="color:#000000;text-indent:0;block-progression:tb;text-decoration-line:none;text-transform:none" d="m0 255.5v230.5c0 14.397 11.603 26 26 26h230.5v-256.5h-256.5z" fill="#68af4c"/>
 <path id="path3236" opacity=".25" d="m41.381 41v183.87l62.329 62.33h-62.329v183.8l41 41h403.62c14.4 0 26-11.6 26-26v-403.62l-41.38-41.38h-184.19v60.87l-60.86-60.87h-184.19z"/>
 <path id="path3140" fill="#fff" d="m41.382 41v183.87h184.19v-183.87h-184.19zm245.05 0v183.87h184.19v-183.87h-184.19zm-200.91 44.075h95.909v95.718h-95.909v-95.718zm245.05 0h95.909v95.718h-95.909v-95.718zm-289.19 202.12v183.8h184.19v-183.8h-184.19zm245.05 0v183.8h184.19v-183.8h-184.19zm-200.91 44.075h95.909v95.654h-95.909v-95.654zm245.05 0h95.909v95.654h-95.909v-95.654z"/>
</svg>
