<?xml version="1.0" encoding="UTF-8" standalone="no"?>
<!-- Created with Inkscape (http://www.inkscape.org/) -->
<svg id="svg2" xmlns:rdf="http://www.w3.org/1999/02/22-rdf-syntax-ns#" xmlns="http://www.w3.org/2000/svg" height="100%" width="100%" version="1.1" xmlns:cc="http://creativecommons.org/ns#" xmlns:dc="http://purl.org/dc/elements/1.1/" viewBox="0 0 512 512">
 <metadata id="metadata555">
  <rdf:RDF>
   <cc:Work rdf:about="">
    <dc:format>image/svg+xml</dc:format>
    <dc:type rdf:resource="http://purl.org/dc/dcmitype/StillImage"/>
    <dc:title/>
   </cc:Work>
  </rdf:RDF>
 </metadata>
 <style id="style1470" type="text/css"/>
 <path id="path9" d="m26 0c-14.397 0-26 11.603-26 26v460c0 14.397 11.603 26 26 26h460c14.397 0 26-11.603 26-26v-460c0-14.397-11.6-26-26-26h-460" fill="#8db173"/>
 <text id="text11" font-size="208.33px" style="word-spacing:0;letter-spacing:0" line-height="125%" y="556.46002" x="-1811.95" font-family="&apos;Gentium Book Basic&apos;">
  <tspan id="tspan13" y="556.46002" x="-1811.95"/>
 </text>
 <text id="text15" style="text-anchor:middle" transform="scale(4.0128 .24920)" font-size="75.7px" y="1670.0914" x="-133.80931" font-family="Arial"/>
 <text id="text17" font-size="129.23px" style="word-spacing:0;letter-spacing:0" line-height="125%" y="238.3" x="78.169998" font-family="&apos;Gentium Book Basic&apos;">
  <tspan id="tspan19" y="238.3" x="78.169998"/>
 </text>
 <text id="text21" style="text-anchor:middle" transform="scale(4.0128 .24920)" font-size="46.954px" y="607.11688" x="216.55888" font-family="Arial"/>
 <text id="text23" font-size="129.23px" style="word-spacing:0;letter-spacing:0" line-height="125%" y="158.3" x="659.44" font-family="&apos;Gentium Book Basic&apos;">
  <tspan id="tspan25" y="158.3" x="659.44"/>
 </text>
 <text id="text27" style="text-anchor:middle" transform="scale(4.0128 .24920)" font-size="46.954px" y="286.07852" x="361.40814" font-family="Arial"/>
 <text id="text29" font-size="129.23px" style="word-spacing:0;letter-spacing:0" line-height="125%" y="-22.957001" x="-412.14001" font-family="&apos;Gentium Book Basic&apos;">
  <tspan id="tspan31" y="-22.957001" x="-412.14001"/>
 </text>
 <text id="text33" style="text-anchor:middle" transform="scale(4.0128 .24920)" font-size="46.954px" y="-441.26773" x="94.369522" font-family="Arial"/>
 <text id="text35" font-size="129.23px" style="word-spacing:0;letter-spacing:0" line-height="125%" y="-239.42999" x="685.90997" font-family="&apos;Gentium Book Basic&apos;">
  <tspan id="tspan37" y="-239.42999" x="685.90997"/>
 </text>
 <text id="text39" style="text-anchor:middle" transform="scale(4.0128 .24920)" font-size="46.954px" y="-1309.9332" x="368.00812" font-family="Arial"/>
 <text id="text41" font-size="129.23px" style="word-spacing:0;letter-spacing:0" line-height="125%" y="-319.42999" x="1267.1801" font-family="&apos;Gentium Book Basic&apos;">
  <tspan id="tspan43" y="-319.42999" x="1267.1801"/>
 </text>
 <text id="text45" style="text-anchor:middle" transform="scale(4.0128 .24920)" font-size="46.954px" y="-1630.9617" x="512.85736" font-family="Arial"/>
 <text id="text47" font-size="129.23px" style="word-spacing:0;letter-spacing:0" line-height="125%" y="-791.83002" x="878.06" font-family="&apos;Gentium Book Basic&apos;">
  <tspan id="tspan49" y="-791.83002" x="878.06"/>
 </text>
 <text id="text51" style="text-anchor:middle" transform="scale(4.0128 .24920)" font-size="46.954px" y="-3526.6021" x="415.88788" font-family="Arial"/>
 <text id="text53" font-size="129.23px" style="word-spacing:0;letter-spacing:0" line-height="125%" y="-871.84003" x="1459.3199" font-family="&apos;Gentium Book Basic&apos;">
  <tspan id="tspan55" y="-871.84003" x="1459.3199"/>
 </text>
 <text id="text57" style="text-anchor:middle" transform="scale(4.0128 .24920)" font-size="46.954px" y="-3847.6401" x="560.73712" font-family="Arial"/>
 <text id="text59" font-size="208.33px" style="word-spacing:0;letter-spacing:0" line-height="125%" y="542.88" x="-373.48001" font-family="&apos;Gentium Book Basic&apos;">
  <tspan id="tspan61" y="542.88" x="-373.48001"/>
 </text>
 <path id="path65" opacity=".25" fill-rule="evenodd" d="m314.3 41.016c-0.73-0.024-1.48-0.023-2.25 0.007l98.4 98.397v0.01l-98.4-98.401c-3.46 0.135-7.38 0.847-11.91 2.326v0.004c-8.39 2.528-13.46 6.926-16.32 12.551v-0.002c-2.97 9.732-5.63 13.922-3.91 32.813v0.002c-32.03 56.307-68.62 97.077-104.6 133.92-107.75 92.46-6.45 4.92-102.93 87.79l69.5 69.5h-0.01l-69.489-69.49c-7.412 5.26-12.225 12.4-15.537 20.27h-0.002c-7.539 18.11-4.43 34.18 5.388 44l137.29 137.29h286.48c14.4 0 26-11.6 26-26v-264.77l-154.77-154.77c-5.47-5.465-11.17-10.67-17.13-15.569v0.002c-8.48-3.445-14.85-9.528-25.8-9.877z"/>
 <path id="path161" fill="#fff" d="m312.05 41.03c-3.461 0.135-7.375 0.847-11.913 2.326-8.395 2.528-13.456 6.926-16.317 12.552-2.967 9.732-5.633 13.92-3.912 32.811-32.03 56.31-68.62 97.08-104.6 133.92-107.75 92.46-6.449 4.921-102.93 87.79-7.412 5.265-12.224 12.405-15.536 20.271-12.469 29.946 4.189 54.34 32.15 54.05 18.812 2.472 51.38-5.507 77.08-8.282 29.28 3.644 31.849 25.427 45.46 39.719 12.831 19.295 23.848 51.575 39.19 52.903 14.155 2.147 27.675 5.188 52.51-8.106 2.617-2.973-4.439-8.41-9.305-13.287-1.404-1.215-0.195-3.542 0.141-16.283-3.348-5.01-16.671-12.317-18.891-16.529 2.792-10.763-9.165-15.444-17.16-22.38-4.82-12.82-11.464-20.832-18.257-28.23-21.03-31.1 30.767-28.13 86.24-36.759 26.306-4.093 53.855-10 80.7-2.22 9.69 2.808 16.616 3.779 24.993 5.111 7.307 1.161 16.353-4.437 17.971-7.683 8.716-8.468 12.01-35.486 7.965-53.852-15.344-69.71-50.739-163.05-117.54-217.98-9.04-3.674-15.691-10.351-28.05-9.869m-27.73 79.51c12.901 41.775 18.45 76.35 55.931 133.76 11.927 18.268 26.1 36.522 44.37 54.27-42.639 3.801-85.56 0.791-126.64 13.217-13.482 4.079-24.649 3.387-37.15-0.212-23.23-16.1-32.28-40.799-36.9-68.16 2.299-14.02 7.169-21.378 15.93-30.73 6.561-7.15 12.579-15.771 20.723-23.367 23.624-22.04 43.635-47.813 63.726-78.77m30.17 38.982c36.725 20.623 56.773 63.27 61.07 114.36l-0.423 1.974c-29.596-41.471-44.25-78.61-60.865-116.31l0.212-0.035" fill-rule="evenodd"/>
</svg>
