<?xml version="1.0" encoding="UTF-8" standalone="no"?>
<!-- Created with Inkscape (http://www.inkscape.org/) -->
<svg id="svg2" xmlns:rdf="http://www.w3.org/1999/02/22-rdf-syntax-ns#" xmlns="http://www.w3.org/2000/svg" height="100%" width="100%" version="1.1" xmlns:cc="http://creativecommons.org/ns#" viewBox="0 0 512 512" xmlns:dc="http://purl.org/dc/elements/1.1/">
 <metadata id="metadata66">
  <rdf:RDF>
   <cc:Work rdf:about="">
    <dc:format>image/svg+xml</dc:format>
    <dc:type rdf:resource="http://purl.org/dc/dcmitype/StillImage"/>
   </cc:Work>
  </rdf:RDF>
 </metadata>
 <path id="path4" d="m26 0c-14.397 0-26 11.603-26 26v460c0 14.397 11.603 26 26 26h460c14.397 0 26-11.603 26-26v-460c0-14.397-11.6-26-26-26h-460" fill="#ecc651"/>
 <text id="text6" style="word-spacing:0;letter-spacing:0" font-size="208.33px" line-height="125%" y="550.33002" x="-1775.13" font-family="Gentium Book Basic">
  <tspan id="tspan8" y="550.33002" x="-1775.13"/>
 </text>
 <text id="text10" style="text-anchor:middle" transform="scale(4.0128 .2492)" font-size="75.7px" y="1645.48" x="-124.64" font-family="Arial"/>
 <text id="text12" style="word-spacing:0;letter-spacing:0" font-size="129.23px" line-height="125%" y="232.17" x="114.99" font-family="Gentium Book Basic">
  <tspan id="tspan14" y="232.17" x="114.99"/>
 </text>
 <text id="text16" style="text-anchor:middle" transform="scale(4.0128 .2492)" font-size="46.954px" y="582.5" x="225.74001" font-family="Arial"/>
 <text id="text18" style="word-spacing:0;letter-spacing:0" font-size="129.23px" line-height="125%" y="152.17" x="696.26001" font-family="Gentium Book Basic">
  <tspan id="tspan20" y="152.17" x="696.26001"/>
 </text>
 <text id="text22" style="text-anchor:middle" transform="scale(4.0128 .2492)" font-size="46.954px" y="261.45999" x="370.59" font-family="Arial"/>
 <text id="text24" style="word-spacing:0;letter-spacing:0" font-size="129.23px" line-height="125%" y="-29.09" x="-375.32001" font-family="Gentium Book Basic">
  <tspan id="tspan26" y="-29.09" x="-375.32001"/>
 </text>
 <text id="text28" style="text-anchor:middle" transform="scale(4.0128 .2492)" font-size="46.954px" y="-465.89001" x="103.55" font-family="Arial"/>
 <text id="text30" style="word-spacing:0;letter-spacing:0" font-size="129.23px" line-height="125%" y="-245.56" x="722.72998" font-family="Gentium Book Basic">
  <tspan id="tspan32" y="-245.56" x="722.72998"/>
 </text>
 <text id="text34" style="text-anchor:middle" transform="scale(4.0128 .2492)" font-size="46.954px" y="-1334.5601" x="377.19" font-family="Arial"/>
 <text id="text36" style="word-spacing:0;letter-spacing:0" font-size="129.23px" line-height="125%" y="-325.56" x="1304" font-family="Gentium Book Basic">
  <tspan id="tspan38" y="-325.56" x="1304"/>
 </text>
 <text id="text40" style="text-anchor:middle" transform="scale(4.0128 .2492)" font-size="46.954px" y="-1655.59" x="522.03998" font-family="Arial"/>
 <text id="text42" style="word-spacing:0;letter-spacing:0" font-size="129.23px" line-height="125%" y="-797.96002" x="914.88" font-family="Gentium Book Basic">
  <tspan id="tspan44" y="-797.96002" x="914.88"/>
 </text>
 <text id="text46" style="text-anchor:middle" transform="scale(4.0128 .2492)" font-size="46.954px" y="-3551.24" x="425.07001" font-family="Arial"/>
 <text id="text48" style="word-spacing:0;letter-spacing:0" font-size="129.23px" line-height="125%" y="-877.96997" x="1496.14" font-family="Gentium Book Basic">
  <tspan id="tspan50" y="-877.96997" x="1496.14"/>
 </text>
 <text id="text52" style="text-anchor:middle" transform="scale(4.0128 .2492)" font-size="46.954px" y="-3872.28" x="569.91998" font-family="Arial"/>
 <text id="text54" style="word-spacing:0;letter-spacing:0" font-size="208.33px" line-height="125%" y="536.75" x="-336.66" font-family="Gentium Book Basic">
  <tspan id="tspan56" y="536.75" x="-336.66"/>
 </text>
 <path id="path58" opacity=".25" d="m300.78 41c-6.144 0.203-13.427 2.524-21.938 7.438-52.91 30.548-42.786 97.93-17.594 123.13l31.22 31.22c-4.881 1.412-9.891 3.239-14.969 5.406l-77.97-77.98c-4.591-4.591-9.825-7.364-15.563-7.281-4.254 0.061-8.772 1.669-13.5 5.281-23.488 17.955-10.983 48.986 7.25 67.22l46.875 46.875c-6.736 5.909-13.197 12.289-19.25 19.03l-58.75-58.75c-6.067-6.067-12.789-10.05-19.281-10-4.951 0.035-9.794 2.412-14.09 8-11.567 15.03-4.932 31.631 7.156 43.719l1.344 1.313 55.688 55.688v0.031c-3.835 7.47-7.02 15.12-9.406 22.875l-42.56-42.56c-8.489-8.489-18.683-14.793-27.22-14.313-5.358 0.302-10.07 3.288-13.281 10.06-5.629 11.878-1.567 22.526 6.5 30.594l76.06 76.06c4.656 14.02 13.29 27.01 24.719 38.438l2.094 2.063 87.44 87.44h204.25c14.397 0 26-11.603 26-26v-243.78l-194.94-194.96c-4.161-4.161-9.549-6.473-16.281-6.25"/>
 <path id="path60" d="m300.78 41c-6.144 0.203-13.427 2.524-21.938 7.438-72.62 41.925-26.516 153.22 14.344 129.63 36.06-20.818 53.876-138.59 7.594-137.06m-116.81 81.938c-4.254 0.061-8.772 1.669-13.5 5.281-37.803 28.898 17.598 91.67 40.13 80.44 19.703-9.826 3.156-86.15-26.625-85.72m-56.656 69.66c-4.951 0.035-9.794 2.412-14.09 8-25.02 32.518 35.15 72.38 51.38 58 13.455-11.914-13.428-66.17-37.28-66m187.03 6.594c-63.38 1.201-173.94 98.64-147.28 183.59 21.748 69.39 141.23 114.05 214.56 71.72 36.07-20.825 58.884-77.4 42.844-123.16-12.232-34.887-80.84 21.538-66.09 40.781 17.674 23.07 3.197 47.826-27.22 43.938-96.82-12.376 67.08-141.04 14.906-204.22-7.442-9.01-18.565-12.906-31.719-12.656m-216.12 68.16c-5.358 0.302-10.07 3.288-13.281 10.06-15.804 33.35 44.672 56.945 56.22 41.22 9.195-12.544-21.916-52.47-42.938-51.28" fill="#fff"/>
</svg>
