<?xml version="1.0" encoding="UTF-8" standalone="no"?>
<!-- Created with Inkscape (http://www.inkscape.org/) -->
<svg id="svg2" xmlns:rdf="http://www.w3.org/1999/02/22-rdf-syntax-ns#" xmlns="http://www.w3.org/2000/svg" height="100%" width="100%" version="1.1" xmlns:cc="http://creativecommons.org/ns#" viewBox="0 0 512 512" xmlns:dc="http://purl.org/dc/elements/1.1/">
 <metadata id="metadata14">
  <rdf:RDF>
   <cc:Work rdf:about="">
    <dc:format>image/svg+xml</dc:format>
    <dc:type rdf:resource="http://purl.org/dc/dcmitype/StillImage"/>
   </cc:Work>
  </rdf:RDF>
 </metadata>
 <path id="path4" d="m26 0c-14.397 0-26 11.603-26 26v460c0 14.397 11.603 26 26 26h460c14.397 0 26-11.603 26-26v-460c0-14.397-11.6-26-26-26h-460" fill="#b93d48"/>
 <path id="path6" opacity=".25" d="m135.41 97.38c-5.161-0.069-8.313 0.691-5.469 3.938l-3.406-3.406c-20.49-0.336-30.94 18.275-24.781 32.625l-3.844-3.844c1.838 10.545-3.347 24.01 2.094 33.06l-2.094-2.094c0.948 8.01 4.351 14.665 8.969 20.656-0.18-0.071-0.351-0.148-0.531-0.219l1.813 1.813c4.408 5.366 9.737 10.228 15.06 15.06l34.531 34.531c-1.386 4.878-1.134 10.122 0.938 14.906l-3.875-3.875c0.719 4.126 0.378 8.701 0 13.281l-25.594-25.563c-3.107-3.174-4.575-4.845-5-5.03l-3.125-3.125c-15.633-11.203-18.656-8.91-14.531-2.688l-5.656-5.656c-6.776 2.206-35.12-4.535-27.75 3.531l-3.531-3.531c-20.521-0.336-30.968 18.298-24.75 32.656l-3.875-3.875c1.83 10.5-3.326 23.886 2 32.938l-2-2c0.945 7.982 4.342 14.648 8.938 20.625-0.167-0.066-0.332-0.122-0.5-0.188l1.688 1.688c4.522 5.538 10.02 10.52 15.5 15.5l16.469 16.469h-4c-20.459-0.35-30.898 18.23-24.762 32.58l-3.813-3.813c1.834 10.522-3.351 23.948 2.031 33l-2.031-2.031c0.946 7.99 4.303 14.643 8.906 20.625-0.169-0.067-0.331-0.152-0.5-0.219l1.688 1.688c4.484 5.491 9.936 10.437 15.375 15.375l14.844 14.844c0.052 0.063 0.105 0.124 0.156 0.188l74.19 74.19h320.84c14.397 0 26-11.603 26-26v-273.41l-93.22-93.22c-0.485-0.467-0.868-0.878-1.313-1.313l-3.688-3.656c-3.107-3.174-4.575-4.814-5-5l-3.125-3.125c-15.554-11.147-18.625-8.933-14.594-2.781l-5.594-5.594c-6.73 2.191-34.723-4.409-27.875 3.406l-3.406-3.406c-20.49-0.336-30.94 18.275-24.781 32.625l-3.844-3.844c0.719 4.123 0.346 8.705-0.031 13.281l-20.563-20.594c-0.485-0.467-0.868-0.878-1.313-1.313l-4.531-4.5c-2.443-2.524-3.778-3.991-4.156-4.156l-3.125-3.125c-15.57-11.168-18.64-8.954-14.61-2.8l-5.594-5.594c-6.776 2.206-35.12-4.504-27.75 3.563l-3.563-3.563c-20.477-0.335-30.915 18.248-24.781 32.594l-3.813-3.813c0.719 4.123 0.346 8.705-0.031 13.281l-25.594-25.563c-3.03-3.093-4.502-4.744-4.969-5l-3.125-3.125c-15.554-11.147-18.657-8.933-14.625-2.781l-5.594-5.594c-3.934 1.281-15.14-0.433-22.406-0.531"/>
 <path id="path8" d="m126.53 97.91c-15.852 0-28.62 12.846-28.62 28.784v30.961c0 15.938 12.768 28.784 28.62 28.784h31.29c15.852 0 28.62-12.846 28.62-28.784v-30.961c0-15.938-12.768-28.784-28.62-28.784h-31.29m113.82 0c-15.852 0-28.62 12.846-28.62 28.784v30.961c0 15.938 12.768 28.784 28.62 28.784h31.29c15.852 0 28.62-12.846 28.62-28.784v-30.961c0-15.938-12.768-28.784-28.62-28.784h-31.29m113.82 0c-15.852 0-28.62 12.846-28.62 28.784v30.961c0 15.938 12.768 28.784 28.62 28.784h31.29c15.852 0 28.62-12.846 28.62-28.784v-30.961c0-15.938-12.768-28.784-28.62-28.784h-31.29m-284.56 113.82c-15.852 0-28.62 12.846-28.62 28.784v30.961c0 15.938 12.768 28.784 28.62 28.784h31.29c15.852 0 28.62-12.846 28.62-28.784v-30.961c0-15.938-12.768-28.784-28.62-28.784h-31.29m113.82 0c-15.852 0-28.62 12.846-28.62 28.784v30.961c0 15.938 12.768 28.784 28.62 28.784h31.29c15.852 0 28.62-12.846 28.62-28.784v-30.961c0-15.938-12.768-28.784-28.62-28.784h-31.29m113.82 0c-15.852 0-28.62 12.846-28.62 28.784v30.961c0 15.938 12.768 28.784 28.62 28.784h31.29c15.852 0 28.62-12.846 28.62-28.784v-30.961c0-15.938-12.768-28.784-28.62-28.784h-31.29m113.82 0c-15.852 0-28.62 12.846-28.62 28.784v30.961c0 15.938 12.768 28.784 28.62 28.784h31.29c15.852 0 28.62-12.846 28.62-28.784v-30.961c0-15.938-12.768-28.784-28.62-28.784h-31.29m-331.99 113.82c-15.852 0-28.62 12.846-28.62 28.784v30.961c0 15.938 12.768 28.784 28.62 28.784h353.79c15.852 0 28.62-12.846 28.62-28.784v-30.961c0-15.938-12.768-28.784-28.62-28.784h-353.79" fill="#fff"/>
</svg>
