<?xml version="1.0" encoding="UTF-8" standalone="no"?>
<!-- Created with Inkscape (http://www.inkscape.org/) -->
<svg id="svg2" xmlns:rdf="http://www.w3.org/1999/02/22-rdf-syntax-ns#" xmlns="http://www.w3.org/2000/svg" height="100%" width="100%" version="1.1" xmlns:cc="http://creativecommons.org/ns#" viewBox="0 0 512 512" xmlns:dc="http://purl.org/dc/elements/1.1/">
 <metadata id="metadata68">
  <rdf:RDF>
   <cc:Work rdf:about="">
    <dc:format>image/svg+xml</dc:format>
    <dc:type rdf:resource="http://purl.org/dc/dcmitype/StillImage"/>
   </cc:Work>
  </rdf:RDF>
 </metadata>
 <path id="path4" d="m26 0c-14.397 0-26 11.603-26 26v460c0 14.397 11.603 26 26 26h460c14.397 0 26-11.603 26-26v-460c0-14.397-11.6-26-26-26h-460" fill="#0078ad"/>
 <text id="text6" style="word-spacing:0;letter-spacing:0" font-size="208.33px" line-height="125%" y="636.23999" x="-2385.2" font-family="Gentium Book Basic">
  <tspan id="tspan8" y="636.23999" x="-2385.2"/>
 </text>
 <text id="text10" style="text-anchor:middle" transform="scale(4.0128 .2492)" font-size="75.7px" y="1990.25" x="-276.67001" font-family="Arial"/>
 <text id="text12" style="word-spacing:0;letter-spacing:0" font-size="129.23px" line-height="125%" y="268.98001" x="118.06" font-family="Gentium Book Basic">
  <tspan id="tspan14" y="268.98001" x="118.06"/>
 </text>
 <text id="text16" style="text-anchor:middle" transform="scale(4.0128 .2492)" font-size="46.954px" y="730.23999" x="226.5" font-family="Arial"/>
 <text id="text18" style="word-spacing:0;letter-spacing:0" font-size="129.23px" line-height="125%" y="188.98" x="699.33002" font-family="Gentium Book Basic">
  <tspan id="tspan20" y="188.98" x="699.33002"/>
 </text>
 <text id="text22" style="text-anchor:middle" transform="scale(4.0128 .2492)" font-size="46.954px" y="409.20001" x="371.35001" font-family="Arial"/>
 <text id="text24" style="word-spacing:0;letter-spacing:0" font-size="129.23px" line-height="125%" y="7.724" x="-372.25" font-family="Gentium Book Basic">
  <tspan id="tspan26" y="7.724" x="-372.25"/>
 </text>
 <text id="text28" style="text-anchor:middle" transform="scale(4.0128 .2492)" font-size="46.954px" y="-318.14999" x="104.31" font-family="Arial"/>
 <text id="text30" style="word-spacing:0;letter-spacing:0" font-size="129.23px" line-height="125%" y="-208.75" x="725.79999" font-family="Gentium Book Basic">
  <tspan id="tspan32" y="-208.75" x="725.79999"/>
 </text>
 <text id="text34" style="text-anchor:middle" transform="scale(4.0128 .2492)" font-size="46.954px" y="-1186.8199" x="377.95001" font-family="Arial"/>
 <text id="text36" style="word-spacing:0;letter-spacing:0" font-size="129.23px" line-height="125%" y="-288.75" x="1307.0699" font-family="Gentium Book Basic">
  <tspan id="tspan38" y="-288.75" x="1307.0699"/>
 </text>
 <text id="text40" style="text-anchor:middle" transform="scale(4.0128 .2492)" font-size="46.954px" y="-1507.85" x="522.79999" font-family="Arial"/>
 <text id="text42" style="word-spacing:0;letter-spacing:0" font-size="129.23px" line-height="125%" y="-761.15002" x="917.95001" font-family="Gentium Book Basic">
  <tspan id="tspan44" y="-761.15002" x="917.95001"/>
 </text>
 <text id="text46" style="text-anchor:middle" transform="scale(4.0128 .2492)" font-size="46.954px" y="-3403.5" x="425.82999" font-family="Arial"/>
 <text id="text48" style="word-spacing:0;letter-spacing:0" font-size="129.23px" line-height="125%" y="-841.15997" x="1499.21" font-family="Gentium Book Basic">
  <tspan id="tspan50" y="-841.15997" x="1499.21"/>
 </text>
 <text id="text52" style="text-anchor:middle" transform="scale(4.0128 .2492)" font-size="46.954px" y="-3724.54" x="570.67999" font-family="Arial"/>
 <text id="text54" style="word-spacing:0;letter-spacing:0" font-size="208.33px" line-height="125%" y="573.56" x="-333.59" font-family="Gentium Book Basic">
  <tspan id="tspan56" y="573.56" x="-333.59"/>
 </text>
 <g id="g58" style="color:#000000">
  <path id="path60" opacity=".25" d="m204.81 41c-0.4 1.412 0.353 3.171 1.781 5.125l-4.531-4.531c-0.137 1.94 0.76 3.965 2.25 6.06l-4.531-4.531c0.238 2.315 1.301 4.556 2.875 6.75l-4.469-4.469c0.797 2.621 2.238 5.058 4.03 7.375l-4.563-4.563c-0.289 2.656 0.181 4.979 1.125 7.125-0.369 0.011-0.744 0.022-1.125 0.063l2.531 2.531c2.391 3.606 6.086 6.671 9.75 9.75l5.688 5.688h-17.969c-1.654 5.682-0.8 10.31 1.375 14.406h-1.375l4 4c3.186 4.073 7.462 7.691 11.438 11.438l2.531 2.531h-17.969c-1.65 5.652-0.813 10.3 1.344 14.375h-1.344l3.938 3.938c3.197 4.103 7.506 7.727 11.5 11.5l2.594 2.594h-18.03c-1.329 5.756 0.217 10.33 3.094 14.344 0.016 0.016 0.016 0.047 0.031 0.063 0.579 0.803 1.201 1.581 1.875 2.344l-5.03-5v164c-15.169 0.864-59.09-13.578-55.59-4l-4.5-4.469c0.565 1.379 1.735 3.01 3.281 4.813l-4.875-4.875c-4.851 2.262-5.386 5.059-3.719 8.125l-3.281-3.281c-0.026 4.279 1.516 7.921 3.875 11.219l-2.781-2.781c40.969 50.16 80.29 101.79 122.19 151.13-0.436-0.209-0.868-0.402-1.313-0.594l42.813 42.813h192.28c14.397 0 26-11.603 26-26v-243.12l-185.37-185.37-0.063-0.063c-3.591-3.677-7.112-7.272-9.563-9.563l-4.75-4.75c-0.115 0.226 0.486 1.073 1.563 2.281l0.5 0.531-4.375-4.344c-0.405 0.788 0.381 2.199 1.844 4l-4.594-4.594h-102.37m1.625 117.72c1.164 1.073 2.378 2.136 3.594 3.188 22.726 22.94 45.516 45.847 68.34 68.75l-71.938-71.938m4.25 3.75c3.47 2.999 6.936 6.01 9.438 9.406l94.22 94.22c-34.59-34.52-69.18-69.06-103.66-103.61m-59.06 158.59c3.441 3.252 6.819 6.485 9.344 9.344l-9.344-9.344m-8.719 3.125c4.135 3.426 8.208 6.806 9.906 9.875l-9.906-9.875m0.875 8.219c3.694 3.193 7.342 6.402 10 10l-10-10"/>
  <path id="path62" d="m204.82 41c-0.996 0-1.888 0.221-2.749 0.583-0.861 0.363-1.642 0.891-2.291 1.541-0.65 0.65-1.22 1.431-1.583 2.291-0.363 0.861-0.541 1.794-0.541 2.79v7.205h116.69v-7.205c0-0.996-0.221-1.929-0.583-2.79-0.363-0.861-0.891-1.642-1.541-2.291-0.65-0.65-1.43-1.177-2.291-1.541-0.86-0.363-1.76-0.583-2.75-0.583h-102.37m-7.163 32.36v14.41h116.7v-14.41h-116.7m0 32.402v14.369h116.7v-14.369h-116.7m0 32.402v11.245c-0.011 0.177-0.042 0.321-0.042 0.5v164.01c-21.03-2.384-39.915-5.645-60.1-8.496-0.537-0.068-1.043-0.08-1.583-0.042-2.971 0.189-5.789 2.111-6.997 4.831-1.207 2.72-0.768 6.124 1.083 8.455l119.53 148.97c1.729 2.155 3.575 4.097 6.914 3.082 2.824-0.921 18.09-18.294 24.531-26.321 11.203-13.964 26.15-32.645 41.11-51.27 29.917-37.25 59.848-74.47 59.848-74.47 2.032-2.523 2.365-6.29 0.791-9.121-1.574-2.832-4.905-4.519-8.121-4.123-23.01 2.749-41.12 5.85-60.26 8.205v-175.46h-116.7" fill="#fff"/>
 </g>
</svg>
