<?xml version="1.0" encoding="UTF-8" standalone="no"?>
<!-- Created with Inkscape (http://www.inkscape.org/) -->
<svg id="svg2" xmlns:rdf="http://www.w3.org/1999/02/22-rdf-syntax-ns#" xmlns="http://www.w3.org/2000/svg" height="100%" width="100%" version="1.1" xmlns:cc="http://creativecommons.org/ns#" xmlns:xlink="http://www.w3.org/1999/xlink" viewBox="0 0 512 512" xmlns:dc="http://purl.org/dc/elements/1.1/">
 <metadata id="metadata10">
  <rdf:RDF>
   <cc:Work rdf:about="">
    <dc:format>image/svg+xml</dc:format>
    <dc:type rdf:resource="http://purl.org/dc/dcmitype/StillImage"/>
    <dc:title/>
   </cc:Work>
  </rdf:RDF>
 </metadata>
 <defs id="defs8">
  <filter id="filter3174-0" color-interpolation-filters="sRGB">
   <feGaussianBlur id="feGaussianBlur3176-6" stdDeviation="1.71"/>
  </filter>
  <filter id="filter3174-8" color-interpolation-filters="sRGB">
   <feGaussianBlur id="feGaussianBlur3176-3" stdDeviation="1.71"/>
  </filter>
  <clipPath id="clipPath3613-8">
   <rect id="rect3615-9" rx="6" ry="6" height="84" width="84" y="6" x="6" fill="#fff"/>
  </clipPath>
  <filter id="filter3794-5" height="1.384" width="1.384" color-interpolation-filters="sRGB" y="-.192" x="-.192">
   <feGaussianBlur id="feGaussianBlur3796-3" stdDeviation="5.28"/>
  </filter>
  <linearGradient id="linearGradient3604" y2="138.66" gradientUnits="userSpaceOnUse" x2="48" y1="20.221" x1="48">
   <stop id="stop3739-2-2" stop-color="#fff" offset="0"/>
   <stop id="stop3741-9" stop-color="#fff" stop-opacity="0" offset="1"/>
  </linearGradient>
  <linearGradient id="linearGradient3607" y2="7.0165" gradientUnits="userSpaceOnUse" x2="45.448" gradientTransform="scale(1.0059 .99417)" y1="92.54" x1="45.448">
   <stop id="stop3750-7" offset="0"/>
   <stop id="stop3752-9" stop-opacity=".58824" offset="1"/>
  </linearGradient>
  <filter id="filter3174" color-interpolation-filters="sRGB">
   <feGaussianBlur id="feGaussianBlur3176" stdDeviation="1.71"/>
  </filter>
  <style id="style5970" type="text/css"/>
 </defs>
 <style id="style1470" type="text/css"/>
 <rect id="rect3745" opacity=".9" transform="matrix(3.1226 0 0 3.1226 -341.46 -20.047)" rx="6" ry="6" height="85" filter="url(#filter3174)" width="86" display="none" y="7" x="5" fill="url(#linearGradient3607)"/>
 <path id="rect3745-2" opacity=".9" d="m11 7c-3.324 0-6 2.676-6 6v73c0 3.324 2.676 6 6 6h74c3.324 0 6-2.676 6-6v-73c0-3.324-2.676-6-6-6h-74zm-1 4h6v4h-6v-4zm70 0h6v4h-6v-4zm-70 8h6v4h-6v-4zm70 0h6v4h-6v-4zm-70 8h6v4h-6v-4zm70 0h6v4h-6v-4zm-70 8h6v4h-6v-4zm70 0h6v4h-6v-4zm-70 8h6v4h-6v-4zm70 0h6v4h-6v-4zm-70 8h6v4h-6v-4zm70 0h6v4h-6v-4zm-70 8h6v4h-6v-4zm70 0h6v4h-6v-4zm-70 8h6v4h-6v-4zm70 0h6v4h-6v-4zm-70 8h6v4h-6v-4zm70 0h6v4h-6v-4zm-70 8h6v4h-6v-4zm70 0h6v4h-6v-4z" transform="matrix(4.2365 0 0 4.2365 498.8 -571.15)" display="none" filter="url(#filter3174-0)" fill="url(#linearGradient3607)"/>
 <rect id="rect3745-9" opacity=".9" transform="matrix(5.0049 0 0 5.0049 -950.71 -548.22)" rx="6" ry="6" height="85" filter="url(#filter3174-8)" width="86" display="none" y="7" x="5" fill="url(#linearGradient3607)"/>
 <rect id="rect3171-6" ry="12" stroke="#fff" stroke-linecap="round" stroke-width=".5" fill="url(#linearGradient3604)" rx="12" transform="matrix(5.0049 0 0 5.0049 -950.71 -548.22)" width="66" opacity=".1" clip-path="url(#clipPath3613-8)" height="66" filter="url(#filter3794-5)" y="15" x="15" display="none"/>
 <path id="path23392" style="color:#000000" d="m-1379.7-492.31c-7.1453 0-13.74 3.812-17.312 10-3.572 6.1878-3.5724 13.812 0 20 0.9304 1.611 2.0465 3.049 3.3438 4.3125 0.083 0.0834 0.166 0.1682 0.25 0.25l251.06 250.81c3.4907 2.7892 7.9381 4.3575 12.406 4.375 7.25-0.0194 14.304-4.3213 17.656-10.75 3.3518-6.4287 2.8535-14.701-1.2813-20.656-0.2486-0.36263-0.5092-0.71705-0.7812-1.0625l-250.91-251.12c-0.083-0.0838-0.1654-0.16767-0.25-0.25-3.6237-3.6523-8.6363-5.9062-14.188-5.9062zm60 0c-7.1453 0-13.74 3.812-17.312 10-3.572 6.1878-3.5724 13.812 0 20 0.9304 1.611 2.0465 3.049 3.3438 4.3125 0.083 0.0834 0.166 0.1682 0.25 0.25l251.06 250.81c3.4907 2.7892 7.9381 4.3575 12.406 4.375 7.25-0.0194 14.304-4.3213 17.656-10.75 3.3518-6.4287 2.8535-14.701-1.2813-20.656-0.2486-0.36263-0.5092-0.71705-0.7812-1.0625l-250.91-251.12c-0.083-0.0838-0.1654-0.16767-0.25-0.25-3.6237-3.6523-8.6363-5.9062-14.188-5.9062zm60 0c-7.1453 0-13.74 3.812-17.312 10-3.572 6.1878-3.5724 13.812 0 20 0.9304 1.611 2.0465 3.049 3.3438 4.3125 0.083 0.0834 0.166 0.1682 0.25 0.25l251.06 250.81c3.4907 2.7892 7.9381 4.3575 12.406 4.375 7.25-0.0194 14.304-4.3213 17.656-10.75 3.3519-6.4287 2.8536-14.701-1.2812-20.656-0.24864-0.36263-0.50925-0.71705-0.78125-1.0625l-250.91-251.12c-0.083-0.0838-0.1654-0.16767-0.25-0.25-3.6237-3.6523-8.6363-5.9062-14.188-5.9062z" fill-opacity=".31373" display="none"/>
 <path id="path3132" d="m-1424.7-350.28c-13.688 0-15.123 0.90811-18.531 11.469-3.1027 9.6149-5.5821 11.943-17.5 16.562-10.829 4.1976-13.953 4.1884-19.25 0-6.4233-5.0788-14.498-3.3778-22.438 4.6875-8.9495 9.0909-9.5667 12.082-4.5312 21.688 4.5103 8.604 4.3538 12.318-1.0625 24.219-4.1018 9.0128-6.071 10.857-14.438 13.594-9.5265 3.1167-11.25 6.0449-11.25 19.031 0.5279 4.7111 0.04 10.889 2.8125 14.125l27.5 27.468c1.8957 5.3663 1.0095 6.6522-2.3438 12.969-5.4123 10.195-5.1193 12.686 3.8125 21.781l303.87 303.78c0.8936 0.8261 1.7188 1.5093 2.5 2.125 5.4413 4.2885 8.6191 3.6237 16.344-0.6562 6.4082-3.5506 8.9741-4.3252 15.156-2.3125l27.089 27.06c1.9665 1.8769 3.99 2.125 13.656 2.125 13.922 0 16.403-1.3453 18.281-9.75 2.4974-11.174 3.8953-12.702 15.719-17.562 12.903-5.3046 13.891-5.387 19.719-1.4063 8.9954 6.1443 14.284 5.595 22.531-2.3125 9.685-9.2858 11.588-14.728 7.3438-21.188-6.2342-9.4882-6.4216-12.188-1.5938-23.781 4.6977-11.28 7.3387-13.539 17.594-15.188 7.6176-1.2244 9.0811-3.8602 9.5625-16.969 0.3354-9.1338 0.011-13.732-2.5-16.656l-28.03-28.061c-1.7172-5.771-1.1247-8.7527 1.5625-12.406 5.4952-7.4711 4.8924-14.379-1.9375-21.719-0.1046-0.1125-0.2092-0.2022-0.3125-0.3125-0.626-0.6688-1.2337-1.3152-1.8125-1.9063l-300.46-300.49c-0.098-0.0969-0.2163-0.18666-0.3125-0.28125-0.1113-0.10789-0.2029-0.20774-0.3125-0.3125-7.5624-7.3351-11.426-7.3972-20.688-2.5-6.901 3.6489-9.812 4.2975-14.812 2.5938l-26.343-26.341c-2.729-2.8393-6.7479-3.1605-14.595-3.1605z" fill-opacity=".31373" display="none"/>
 <path id="path9" d="m26 0c-14.397 0-26 11.603-26 26v460c0 14.397 11.603 26 26 26h460c14.397 0 26-11.603 26-26v-460c0-14.397-11.6-26-26-26h-460" fill="#b93d48"/>
 <text id="text11" font-size="129.23px" style="word-spacing:0;letter-spacing:0" line-height="125%" y="152.39999" x="-93.639999" font-family="&apos;Gentium Book Basic&apos;">
  <tspan id="tspan13" y="152.39999" x="-93.639999"/>
 </text>
 <text id="text15" style="text-anchor:middle" transform="scale(4.0128 .24920)" font-size="46.954px" y="262.37866" x="173.74911" font-family="Arial"/>
 <text id="text17" font-size="129.23px" style="word-spacing:0;letter-spacing:0" line-height="125%" y="72.400002" x="487.63" font-family="&apos;Gentium Book Basic&apos;">
  <tspan id="tspan19" y="72.400002" x="487.63"/>
 </text>
 <text id="text21" style="text-anchor:middle" transform="scale(4.0128 .24920)" font-size="46.954px" y="-58.651699" x="318.58838" font-family="Arial"/>
 <text id="text23" font-size="129.23px" style="word-spacing:0;letter-spacing:0" line-height="125%" y="-108.87" x="-583.95001" font-family="&apos;Gentium Book Basic&apos;">
  <tspan id="tspan25" y="-108.87" x="-583.95001"/>
 </text>
 <text id="text27" style="text-anchor:middle" transform="scale(4.0128 .24920)" font-size="46.954px" y="-786.00598" x="51.559738" font-family="Arial"/>
 <text id="text29" font-size="129.23px" style="word-spacing:0;letter-spacing:0" line-height="125%" y="-325.32999" x="514.09998" font-family="&apos;Gentium Book Basic&apos;">
  <tspan id="tspan31" y="-325.32999" x="514.09998"/>
 </text>
 <text id="text33" style="text-anchor:middle" transform="scale(4.0128 .24920)" font-size="46.954px" y="-1654.6616" x="325.18832" font-family="Arial"/>
 <text id="text35" font-size="129.23px" style="word-spacing:0;letter-spacing:0" line-height="125%" y="-405.34" x="1095.37" font-family="&apos;Gentium Book Basic&apos;">
  <tspan id="tspan37" y="-405.34" x="1095.37"/>
 </text>
 <text id="text39" style="text-anchor:middle" transform="scale(4.0128 .24920)" font-size="46.954px" y="-1975.6998" x="470.0376" font-family="Arial"/>
 <text id="text41" font-size="129.23px" style="word-spacing:0;letter-spacing:0" line-height="125%" y="-877.73999" x="706.25" font-family="&apos;Gentium Book Basic&apos;">
  <tspan id="tspan43" y="-877.73999" x="706.25"/>
 </text>
 <text id="text45" style="text-anchor:middle" transform="scale(4.0128 .24920)" font-size="46.954px" y="-3871.3403" x="373.06808" font-family="Arial"/>
 <text id="text47" font-size="129.23px" style="word-spacing:0;letter-spacing:0" line-height="125%" y="-957.73999" x="1287.51" font-family="&apos;Gentium Book Basic&apos;">
  <tspan id="tspan49" y="-957.73999" x="1287.51"/>
 </text>
 <text id="text51" style="text-anchor:middle" transform="scale(4.0128 .24920)" font-size="46.954px" y="-4192.3687" x="517.91736" font-family="Arial"/>
 <text id="text53" font-size="208.33px" style="word-spacing:0;letter-spacing:0" line-height="125%" y="456.98001" x="-545.28998" font-family="&apos;Gentium Book Basic&apos;">
  <tspan id="tspan55" y="456.98001" x="-545.28998"/>
 </text>
 <path id="path59" opacity=".25" d="m417.28 48.562c-5.31 0-10.61 2.021-14.66 6.061l0.01 0.006-227.23 227.24-10.52-10.52-0.1-0.1c-28.3-28.3-74.22-28.29-102.53 0.03l-0.029-0.03c-23.15 23.15-27.344 58.02-12.657 85.47h-0.002c-14.682 27.45-10.482 62.33 12.688 85.5l69.78 69.78h353.97c14.4 0 26-11.6 26-26v-351.31l-80.06-80.065c-4.05-4.046-9.35-6.061-14.66-6.061v-0.002z"/>
 <path id="path153" d="m417.28 48.563c-5.305 0-10.611 2.02-14.656 6.06l-228.37 228.38c-2.691-4.14-5.8-8.08-9.438-11.719-28.29-28.326-74.24-28.326-102.56 0l-0.031-0.031c-23.15 23.15-27.343 58.02-12.656 85.47-14.682 27.445-10.483 62.33 12.688 85.5 23.15 23.15 58.02 27.339 85.47 12.656 27.445 14.682 62.33 10.514 85.5-12.656 28.326-28.29 28.326-74.24 0-102.56-3.637-3.637-7.579-6.747-11.719-9.438l142.06-142.09 36.34 36.31c7.888 7.888 20.674 7.888 28.563 0 7.888-7.888 7.888-20.674 0-28.563l-36.31-36.34 8.03-8.03 36.31 36.34c7.888 7.888 20.706 7.888 28.594 0s7.888-20.674 0-28.563l-36.34-36.34 21.09-21.09c8.091-8.091 8.096-21.22 0-29.31l-17.89-17.907c-4.046-4.046-9.352-6.06-14.656-6.06m-288.28 248.88c9.134 0 18.28 3.468 25.25 10.438 8.894 8.89 12.04 21.308 9.594 32.75 11.447-2.451 23.824 0.704 32.719 9.594 13.939 13.939 13.939 36.53 0 50.47-13.616 13.616-35.452 13.837-49.44 0.844-1.602 3.452-3.715 6.719-6.563 9.563-13.04 13.04-34.18 13.04-47.22 0s-13.03-34.18 0-47.22c2.843-2.843 6.11-4.956 9.563-6.563-12.993-13.995-12.772-35.821 0.844-49.44 6.97-6.97 16.12-10.438 25.25-10.438" fill="#fff"/>
</svg>
