<?xml version="1.0" encoding="UTF-8" standalone="no"?>
<!-- Created with Inkscape (http://www.inkscape.org/) -->
<svg id="svg2" xmlns:rdf="http://www.w3.org/1999/02/22-rdf-syntax-ns#" xmlns="http://www.w3.org/2000/svg" height="100%" width="100%" version="1.1" xmlns:cc="http://creativecommons.org/ns#" viewBox="0 0 512 512" xmlns:dc="http://purl.org/dc/elements/1.1/">
 <metadata id="metadata60">
  <rdf:RDF>
   <cc:Work rdf:about="">
    <dc:format>image/svg+xml</dc:format>
    <dc:type rdf:resource="http://purl.org/dc/dcmitype/StillImage"/>
   </cc:Work>
  </rdf:RDF>
 </metadata>
 <path id="path4" d="m26 0c-14.397 0-26 11.603-26 26v460c0 14.397 11.603 26 26 26h460c14.397 0 26-11.603 26-26v-460c0-14.397-11.6-26-26-26h-460" fill="#1583b4"/>
 <text id="text6" style="word-spacing:0;letter-spacing:0" font-size="129.23px" line-height="125%" y="250.58" x="75.110001" font-family="Gentium Book Basic">
  <tspan id="tspan8" y="250.58" x="75.110001"/>
 </text>
 <text id="text10" style="text-anchor:middle" transform="scale(4.0128 .2492)" font-size="46.954px" y="656.35999" x="215.8" font-family="Arial"/>
 <text id="text12" style="word-spacing:0;letter-spacing:0" font-size="129.23px" line-height="125%" y="170.58" x="656.38" font-family="Gentium Book Basic">
  <tspan id="tspan14" y="170.58" x="656.38"/>
 </text>
 <text id="text16" style="text-anchor:middle" transform="scale(4.0128 .2492)" font-size="46.954px" y="335.32999" x="360.64999" font-family="Arial"/>
 <text id="text18" style="word-spacing:0;letter-spacing:0" font-size="129.23px" line-height="125%" y="-10.685" x="-415.20001" font-family="Gentium Book Basic">
  <tspan id="tspan20" y="-10.685" x="-415.20001"/>
 </text>
 <text id="text22" style="text-anchor:middle" transform="scale(4.0128 .2492)" font-size="46.954px" y="-392.03" x="93.610001" font-family="Arial"/>
 <text id="text24" style="word-spacing:0;letter-spacing:0" font-size="129.23px" line-height="125%" y="-227.14999" x="682.84998" font-family="Gentium Book Basic">
  <tspan id="tspan26" y="-227.14999" x="682.84998"/>
 </text>
 <text id="text28" style="text-anchor:middle" transform="scale(4.0128 .2492)" font-size="46.954px" y="-1260.6899" x="367.25" font-family="Arial"/>
 <text id="text30" style="word-spacing:0;letter-spacing:0" font-size="129.23px" line-height="125%" y="-307.16" x="1264.12" font-family="Gentium Book Basic">
  <tspan id="tspan32" y="-307.16" x="1264.12"/>
 </text>
 <text id="text34" style="text-anchor:middle" transform="scale(4.0128 .2492)" font-size="46.954px" y="-1581.73" x="512.09998" font-family="Arial"/>
 <text id="text36" style="word-spacing:0;letter-spacing:0" font-size="129.23px" line-height="125%" y="-779.56" x="875" font-family="Gentium Book Basic">
  <tspan id="tspan38" y="-779.56" x="875"/>
 </text>
 <text id="text40" style="text-anchor:middle" transform="scale(4.0128 .2492)" font-size="46.954px" y="-3477.3799" x="415.13" font-family="Arial"/>
 <text id="text42" style="word-spacing:0;letter-spacing:0" font-size="129.23px" line-height="125%" y="-859.56" x="1456.26" font-family="Gentium Book Basic">
  <tspan id="tspan44" y="-859.56" x="1456.26"/>
 </text>
 <text id="text46" style="text-anchor:middle" transform="scale(4.0128 .2492)" font-size="46.954px" y="-3798.4099" x="559.97998" font-family="Arial"/>
 <text id="text48" style="word-spacing:0;letter-spacing:0" font-size="208.33px" line-height="125%" y="555.15997" x="-376.54001" font-family="Gentium Book Basic">
  <tspan id="tspan50" y="555.15997" x="-376.54001"/>
 </text>
 <path id="path52" opacity=".25" d="m41 114.72v282.56l114.72 114.72h330.28c14.397 0 26-11.603 26-26v-224.06c-2.457-2.46-4.919-4.915-7.375-7.375l-20.781-20.813c-0.096-0.084-0.239-0.218-0.344-0.313l-10.281-10.281c-4.529-4.667-8.998-9.298-10.688-10.688l-2.969-2.969c-9.975-7.262-10.271-6.547-6.844-2.781l-4.469-4.469c-1.101 4.478-2.761 9.124-3.719 13.563l-18.03-18.03v1.594l-1.594-1.594c-14.06-1.407-32.22 3.591-36.06 11.688l-94.75-94.75h-88.94l-36.19 52.41-52.41-52.41h-75.56m424.38 104.66c0.717 0.7 1.393 1.341 2.063 2v0.063l-2.063-2.063"/>
 <path id="path54" d="m41 114.72v282.57h75.58v-126.79l91.26 126.79h95.27l-112.48-144.76 103.47-137.8h-88.93l-88.59 128.36v-128.36h-75.58m383.89 83.06c-17.249 0-30.811 4.125-40.721 12.397-9.91 8.277-14.877 19.582-14.877 33.902 0 13.921 4.902 25.442 14.686 34.57 9.785 9.07 22.1 13.637 36.906 13.637 15.05 0 27.16-4.566 36.38-13.637 9.158-9.124 13.733-21.22 13.733-36.29 0-10.1-1.961-18.598-5.913-25.558-3.956-6.965-9.561-11.804-16.832-14.543l-5.77 22.935c3.764 1.651 2.204 4.053 4.148 7.248 1.882 3.139 2.813 7.01 2.813 11.635 0 6.162-1.961 10.939-5.913 14.305-4.01 3.367-9.684 5.092-17.02 5.15v-65.754h-1.621m-17.309 30.04v34.999c-5.958-0.973-10.403-2.908-13.351-5.817-3.01-2.967-4.53-6.909-4.53-11.873 0-4.622 1.65-8.497 4.911-11.635 3.262-3.195 7.575-5.103 12.97-5.674m-86.07 82.59v30.564h145.81v-30.56h-145.81m21.17 53.26c-5.206 0-9.552 1.612-13.06 4.864-3.512 3.195-5.293 7.176-5.293 11.968 0 4.625 1.813 8.612 5.388 11.921 3.575 3.253 7.889 4.864 12.97 4.864 5.08 0 9.46-1.65 13.16-4.959 3.701-3.309 5.579-7.261 5.579-11.825 0-4.673-1.848-8.622-5.483-11.873-3.647-3.309-8.05-4.959-13.256-4.959m29.611 1.526v30.564h95.03v-30.564h-95.03" fill="#fff"/>
</svg>
