<?xml version="1.0" encoding="UTF-8" standalone="no"?>
<!-- Created with Inkscape (http://www.inkscape.org/) -->
<svg id="svg2" xmlns:rdf="http://www.w3.org/1999/02/22-rdf-syntax-ns#" xmlns="http://www.w3.org/2000/svg" height="100%" width="100%" version="1.1" xmlns:cc="http://creativecommons.org/ns#" viewBox="0 0 512 512" xmlns:dc="http://purl.org/dc/elements/1.1/">
 <metadata id="metadata10">
  <rdf:RDF>
   <cc:Work rdf:about="">
    <dc:format>image/svg+xml</dc:format>
    <dc:type rdf:resource="http://purl.org/dc/dcmitype/StillImage"/>
    <dc:title/>
   </cc:Work>
  </rdf:RDF>
 </metadata>
 <path id="rect2986" fill="#fff" d="m26 0c-14.397 0-26 11.603-26 26v460c0 14.397 11.603 26 26 26h460c14.397 0 26-11.603 26-26v-460c0-14.397-11.6-26-26-26h-460z"/>
 <path id="path3333" opacity=".25" style="block-progression:tb;text-indent:0;color:#000000;text-transform:none" d="m406.81 102.72c-302.04 13.29-150.69 157.21-303.47 304.22l104.85 105.06h277.81c14.397 0 26-11.603 26-26v-278.22l-105.19-105.06z"/>
 <g id="g3119" transform="matrix(3.3369 0 0 3.3369 -348.05 -633.46)">
  <path id="path3069" fill="#c50e0e" d="m245.45 266.55a64.431 64.431 0 1 1 -128.86 0 64.431 64.431 0 1 1 128.86 0z"/>
 </g>
</svg>
