<?xml version="1.0" encoding="UTF-8" standalone="no"?>
<!-- Created with Inkscape (http://www.inkscape.org/) -->
<svg id="svg2" xmlns:rdf="http://www.w3.org/1999/02/22-rdf-syntax-ns#" xmlns="http://www.w3.org/2000/svg" height="100%" width="100%" version="1.1" xmlns:cc="http://creativecommons.org/ns#" viewBox="0 0 512 512" xmlns:dc="http://purl.org/dc/elements/1.1/">
 <metadata id="metadata30">
  <rdf:RDF>
   <cc:Work rdf:about="">
    <dc:format>image/svg+xml</dc:format>
    <dc:type rdf:resource="http://purl.org/dc/dcmitype/StillImage"/>
   </cc:Work>
  </rdf:RDF>
 </metadata>
 <path id="path4" d="m26 0c-14.397 0-26 11.603-26 26v460c0 14.397 11.603 26 26 26h460c14.397 0 26-11.603 26-26v-460c0-14.397-11.6-26-26-26h-460" fill="#4d4d4d"/>
 <path id="path6" opacity=".25" d="m135.41 97.34c-5.244-0.071-8.438 0.71-5.344 4.094l-3.531-3.531c-20.491-0.338-30.939 18.275-24.781 32.625l-3.844-3.844c1.838 10.548-3.347 24.01 2.094 33.06l-2.1-2.09c0.949 8.01 4.352 14.666 8.969 20.656-0.18-0.071-0.351-0.148-0.531-0.219l1.813 1.813c4.412 5.371 9.732 10.223 15.06 15.06l34.531 34.531c-1.371 4.845-1.136 10.09 0.906 14.844l-3.844-3.844c0.718 4.127 0.377 8.701 0 13.281l-28.75-28.781c-0.975-1.019-1.519-1.605-1.781-1.75l-3.156-3.156c-15.557-11.147-18.651-8.901-14.625-2.75l-5.594-5.594c-6.771 2.207-35.13-4.537-27.75 3.531l-3.531-3.531c-20.493-0.349-30.939 18.25-24.781 32.594l-3.844-3.844c1.837 10.556-3.347 24.03 2.094 33.09l-2.094-2.094c0.948 7.985 4.335 14.647 8.938 20.625-0.178-0.071-0.352-0.149-0.531-0.219l1.719 1.719c4.435 5.422 9.814 10.309 15.188 15.188l15.16 15.13c0.005 0.006-0.005 0.025 0 0.031l1.594 1.594h-3.969c-20.49-0.333-30.914 18.278-24.75 32.625l-3.844-3.844c1.838 10.548-3.347 24.01 2.094 33.06l-2.094-2.094c0.945 8.01 4.352 14.664 8.969 20.656-0.18-0.071-0.351-0.148-0.531-0.219l1.594 1.594c4.544 5.584 10.1 10.609 15.625 15.625l89.03 89.03h320.81c14.397 0 26-11.603 26-26v-273.41l-98.22-98.19c-3.03-3.093-4.502-4.744-4.969-5l-3.156-3.156c-15.554-11.148-18.624-8.901-14.594-2.75l-5.594-5.594c-6.771 2.207-35.13-4.537-27.75 3.531l-3.531-3.531c-20.491-0.338-30.939 18.275-24.781 32.625l-3.844-3.844c0.721 4.136 0.379 8.721 0 13.313l-25.64-25.59c-3.107-3.174-4.575-4.847-5-5.03l-3.125-3.125c-15.553-11.14-18.602-8.904-14.563-2.75l-5.594-5.594c-6.789 2.203-35.11-4.532-27.75 3.531l-3.563-3.531c-20.491-0.338-30.939 18.275-24.781 32.625l-3.844-3.844c0.719 4.127 0.378 8.7 0 13.281l-25.594-25.563c-3.03-3.093-4.502-4.744-4.969-5l-3.156-3.156c-15.554-11.148-18.624-8.901-14.594-2.75l-5.594-5.594c-3.932 1.281-15.14-0.464-22.406-0.563"/>
 <g id="g8" transform="matrix(1.314 0 0 1.314 749.14 -59.65)">
  <rect id="rect10" rx="21.776" ry="21.895" height="67.37" width="67.37" y="206.53" x="-538.91" fill="#924565"/>
  <rect id="rect12" rx="21.776" ry="21.895" height="67.37" width="67.37" y="206.53" x="-452.29" fill="#ffd459"/>
  <rect id="rect14" rx="21.776" ry="21.895" height="67.37" width="67.37" y="206.53" x="-365.66" fill="#ae4a32"/>
  <rect id="rect16" rx="21.776" ry="21.895" height="67.37" width="67.37" y="206.53" x="-279.04" fill="#68af4c"/>
  <rect id="rect18" rx="21.776" ry="21.895" height="67.37" width="67.37" y="119.91" x="-495.6" fill="#cd1d31"/>
  <rect id="rect20" rx="21.776" ry="21.895" height="67.37" width="67.37" y="119.91" x="-408.98" fill="#0078ad"/>
  <rect id="rect22" rx="21.776" ry="21.895" height="67.37" width="67.37" y="119.91" x="-322.35" fill="#c74a6c"/>
  <rect id="rect24" rx="21.776" ry="21.895" height="67.37" width="312.81" y="293.15" x="-531.69" fill="#fff"/>
 </g>
</svg>
