<?xml version="1.0" encoding="UTF-8" standalone="no"?>
<!-- Created with Inkscape (http://www.inkscape.org/) -->
<svg id="svg2" xmlns:rdf="http://www.w3.org/1999/02/22-rdf-syntax-ns#" xmlns="http://www.w3.org/2000/svg" height="100%" width="100%" version="1.1" xmlns:cc="http://creativecommons.org/ns#" viewBox="0 0 512 512" xmlns:dc="http://purl.org/dc/elements/1.1/">
 <metadata id="metadata60">
  <rdf:RDF>
   <cc:Work rdf:about="">
    <dc:format>image/svg+xml</dc:format>
    <dc:type rdf:resource="http://purl.org/dc/dcmitype/StillImage"/>
   </cc:Work>
  </rdf:RDF>
 </metadata>
 <path id="path4" d="m26 0c-14.397 0-26 11.603-26 26v460c0 14.397 11.603 26 26 26h460c14.397 0 26-11.603 26-26v-460c0-14.397-11.6-26-26-26h-460" fill="#ae4a32"/>
 <text id="text6" style="word-spacing:0;letter-spacing:0" font-size="129.23px" line-height="125%" y="253.64" x="145.67" font-family="Gentium Book Basic">
  <tspan id="tspan8" y="253.64" x="145.67"/>
 </text>
 <text id="text10" style="text-anchor:middle" transform="scale(4.0128 .2492)" font-size="46.954px" y="668.66998" x="233.38" font-family="Arial"/>
 <text id="text12" style="word-spacing:0;letter-spacing:0" font-size="129.23px" line-height="125%" y="173.64" x="726.94" font-family="Gentium Book Basic">
  <tspan id="tspan14" y="173.64" x="726.94"/>
 </text>
 <text id="text16" style="text-anchor:middle" transform="scale(4.0128 .2492)" font-size="46.954px" y="347.64001" x="378.23001" font-family="Arial"/>
 <text id="text18" style="word-spacing:0;letter-spacing:0" font-size="129.23px" line-height="125%" y="-7.6170001" x="-344.64001" font-family="Gentium Book Basic">
  <tspan id="tspan20" y="-7.6170001" x="-344.64001"/>
 </text>
 <text id="text22" style="text-anchor:middle" transform="scale(4.0128 .2492)" font-size="46.954px" y="-379.72" x="111.19" font-family="Arial"/>
 <text id="text24" style="word-spacing:0;letter-spacing:0" font-size="129.23px" line-height="125%" y="-224.09" x="753.40997" font-family="Gentium Book Basic">
  <tspan id="tspan26" y="-224.09" x="753.40997"/>
 </text>
 <text id="text28" style="text-anchor:middle" transform="scale(4.0128 .2492)" font-size="46.954px" y="-1248.38" x="384.82999" font-family="Arial"/>
 <text id="text30" style="word-spacing:0;letter-spacing:0" font-size="129.23px" line-height="125%" y="-304.10001" x="1334.6801" font-family="Gentium Book Basic">
  <tspan id="tspan32" y="-304.10001" x="1334.6801"/>
 </text>
 <text id="text34" style="text-anchor:middle" transform="scale(4.0128 .2492)" font-size="46.954px" y="-1569.42" x="529.67999" font-family="Arial"/>
 <text id="text36" style="word-spacing:0;letter-spacing:0" font-size="129.23px" line-height="125%" y="-776.5" x="945.56" font-family="Gentium Book Basic">
  <tspan id="tspan38" y="-776.5" x="945.56"/>
 </text>
 <text id="text40" style="text-anchor:middle" transform="scale(4.0128 .2492)" font-size="46.954px" y="-3465.0701" x="432.70999" font-family="Arial"/>
 <text id="text42" style="word-spacing:0;letter-spacing:0" font-size="129.23px" line-height="125%" y="-856.5" x="1526.8199" font-family="Gentium Book Basic">
  <tspan id="tspan44" y="-856.5" x="1526.8199"/>
 </text>
 <text id="text46" style="text-anchor:middle" transform="scale(4.0128 .2492)" font-size="46.954px" y="-3786.1001" x="577.56" font-family="Arial"/>
 <text id="text48" style="word-spacing:0;letter-spacing:0" font-size="208.33px" line-height="125%" y="558.21997" x="-305.98001" font-family="Gentium Book Basic">
  <tspan id="tspan50" y="558.21997" x="-305.98001"/>
 </text>
 <path id="path52" opacity=".25" d="m219.75 41c-21.17 2.379-19.907 13.778-11.5 26.06l-14.84-14.844c-10.914 12.39-9.137 23.533-2.156 33.813-3.056-3.073-6.103-6.144-9.156-9.219 3.398 3.579 6.811 7.15 10.219 10.719 4.05 5.53 9.517 10.81 15.219 15.906 13.335 13.861 26.734 27.63 40.19 41.38-0.125 0.005-0.25 0.026-0.375 0.031l-65.25-65.25c-3.382 4.299-3.882 8.415-2.469 12.438l-12.44-12.442c-16.229 2.379-16.822 9.811-11.03 18.719l-12.94-12.938c-4.913 12.414-2.288 22.489 3.781 31.406l-6.125-6.125c0.061 0.435 0.118 0.883 0.188 1.313l-21.75-21.75c0.529 2.116 1.233 4.141 2 6.094-0.463-0.325-0.94-0.648-1.406-0.969l1.656 1.656c1.408 3.436 3.167 6.638 5.188 9.656l-15.38-15.377c-26.22 3.266-55.802 35.22-40.938 58.656l-8.531-8.531c-3.219 47.01-0.801 94.13-1.438 141.19l0.25 134.28c14.12 16.209 28.698 31.991 43.563 47.5l-41.63-41.63c6.219 10.863 13.331 20.989 21.03 30.625-1.218-0.676-2.423-1.375-3.656-2.031l11.938 11.938c14.948 17.207 31.641 32.986 48.38 48.719h345.66c14.397 0 26-11.603 26-26v-225.87c-7.595-7.582-15.186-15.168-22.781-22.75l-91.5-91.5c-7.43-7.879-15.553-16.523-20.438-20.438l-16.06-16.06c-12.776-16.658-26.22-15.07-25.438-7.625l-11.65-11.655c3.967 4.428 7.976 8.812 12 13.188 0.57 1.709 1.8 3.617 3.844 5.656 1.413 1.41 3.208 2.899 5.438 4.375 7.808 8.339 15.726 16.554 23.688 24.75l-29.12-29.12-19.469-19.438c19.683 20.891 39.602 41.564 59.656 62.09-0.01 0.078-0.022 0.169-0.031 0.25l-59.09-59.09c-1.726 4.04-2.861 8.08-3.5 12.06-0.812-0.666-1.616-1.28-2.406-1.875l-18.5-18.531c-10.72-1.456-12.679 1.561-10.09 6.656-9.21-10.417-18.265-20.462-23.563-23.313l-16.281-16.25c-21.1-11.402-16.594-2.01-6.594 9.844l-20.34-20.333m-3.656 69.938c5.816 5.087 11.256 10.02 14.969 14.844l18.969 18.969c-0.042 0.001-0.083-0.001-0.125 0-11.28-11.259-22.553-22.534-33.813-33.813m-12.781 4.781c8.06 6.196 15.786 12.427 18.969 18.969l-18.97-18.97m-16.594 13.156c2.906 2.656 5.387 5.055 6.969 6.969l-6.969-6.969m-16.06 11.563c1.764 1.518 3.489 3.04 5.188 4.563-0.208 0.004-0.417-0.004-0.625 0l-4.563-4.563"/>
 <path id="path54" d="m219.76 41c-9.563 0.128-19.01 3.869-26.357 11.221-6.286 6.281-11.316 17.196-11.316 24.59v2.769h-14.9c-16.688 0.024-19.734 0.754-23.969 5.777-4.102 4.885-4.398 7.981-2.34 25.306 1.016 8.547 2.429 17.397 3.151 19.672 2.202 6.935 8.915 12.943 16.616 14.85h0.048c1.375 0.342 28.962 0.549 61.31 0.477 57.751-0.138 58.838-0.189 62.55-1.91 10.09-4.691 12.682-9.648 15.09-28.983 2.622-21.07 2.359-24.623-2.292-29.604-4.506-4.819-7.497-5.562-23.444-5.586h-14.468l-0.477-3.151c-1.84-11.468-5.3-18.459-12.28-24.919-7.72-7.152-17.36-10.632-26.93-10.505m-0.621 18.765c6.65-0.367 13.562 2.488 17.953 8.738 2.148 3.048 2.553 4.555 2.817 9.788 0.277 5.516 0.058 6.671-2.053 10.552-2.726 5-7.614 8.776-13.04 10.03-4.899 1.126-5.425 1.076-10.791-0.764-11.08-3.815-16.711-17.443-11.412-27.694 3.456-6.683 9.871-10.281 16.521-10.648m101.37 29.747 0.525 3.247c0.657 3.876-3.166 35.37-5.157 42.543-3.702 13.324-16.892 25.61-30.797 28.696-5.227 1.161-13.832 1.309-67.32 1.098l-61.31-0.239-5.01-2.01c-12.595-5.05-22.251-14.719-25.975-25.975-1.659-5.01-5.539-34.06-5.539-41.541 0-6.54 0.416-6.35-8.547-4.059-24.866 6.364-43.572 25.326-49.47 50.14-1.606 6.782-1.656 10.277-1.432 141.19l0.239 134.27 1.958 5.873c8.471 25.08 27.16 41.889 52.24 47.03 4.4 0.908 33.03 1.14 150.31 1.194 160.89 0.072 150.12 0.412 161.63-5.634 11.11-5.837 19.446-15.999 23.16-28.314 1.754-5.852 1.751-6.421 1.528-97.88l-0.239-91.96-2.769-5.873c-2.544-5.409-5.161-8.268-32.755-35.954-16.491-16.549-31-30.649-32.28-31.32l-2.34-1.241v-9.836c-0.023-12.08-1.024-19.404-3.82-27.789-7.711-23.15-28.785-41.01-53.19-45.07l-3.629-0.573m44.549 101.75 0.334 17.05c0.295 15.183 0.523 17.55 2.196 21.773 3.667 9.285 10.919 16.511 20.1 20.1 4.271 1.665 6.849 1.961 22.441 2.387l17.667 0.477v177.24l-2.101 4.059c-2.329 4.556-5.897 8.07-11.173 10.886l-3.533 1.862-81.935 0.191c-77.66 0.189-82.11 0.131-86.33-1.337-5.901-2.052-9.912-5.434-13.08-11.03l-2.626-4.632v-221.74l1.91-3.533c2.562-4.79 6.731-8.851 11.65-11.268l4.106-2.01 60.16-0.239 60.21-0.239m-64.08 63.887c-35.894 0.017-38.92 0.127-42.11 1.576-10.433 4.747-10.396 20.373 0.048 24.972 2.041 0.903 10.644 1.106 43.02 0.955 39.4-0.186 40.519-0.272 42.782-1.958 4.512-3.374 5.777-5.929 5.777-11.698 0-6.407-1.646-9.164-7.162-11.985-3.669-1.878-3.894-1.88-42.35-1.862m-39.535 60.5-3.295 1.862c-5.239 3.01-6.78 5.778-6.78 11.985 0 6.407 1.646 9.164 7.162 11.985l3.724 1.862h131.07l3.342-1.91c4.842-2.743 7.162-6.608 7.162-11.937 0-4.831-1.991-8.603-6.159-11.698-2.362-1.743-2.846-1.753-69.28-1.958l-66.942-0.191m65.94 60.878c-67.29 0-67.939-0.002-70.24 1.719-4.475 3.339-5.777 5.995-5.777 11.603 0 6.307 2.263 9.991 7.496 12.367 3.259 1.479 6.853 1.557 68.57 1.576l65.13 0.048 3.677-1.91c5.108-2.61 6.991-5.463 7.401-11.316 0.283-4.04 0.013-5.299-1.623-7.687-1.082-1.569-3.039-3.669-4.345-4.632-2.353-1.751-2.689-1.767-70.28-1.767" fill="#fff"/>
</svg>
