<?xml version="1.0" encoding="UTF-8" standalone="no"?>
<!-- Created with Inkscape (http://www.inkscape.org/) -->
<svg id="svg2" xmlns:rdf="http://www.w3.org/1999/02/22-rdf-syntax-ns#" xmlns="http://www.w3.org/2000/svg" height="100%" width="100%" version="1.1" xmlns:cc="http://creativecommons.org/ns#" viewBox="0 0 512 512" xmlns:dc="http://purl.org/dc/elements/1.1/">
 <metadata id="metadata68">
  <rdf:RDF>
   <cc:Work rdf:about="">
    <dc:format>image/svg+xml</dc:format>
    <dc:type rdf:resource="http://purl.org/dc/dcmitype/StillImage"/>
   </cc:Work>
  </rdf:RDF>
 </metadata>
 <path id="path4" d="m26 0c-14.397 0-26 11.603-26 26v460c0 14.397 11.603 26 26 26h460c14.397 0 26-11.603 26-26v-460c0-14.397-11.6-26-26-26h-460" fill="#55405f"/>
 <text id="text6" style="word-spacing:0;letter-spacing:0" font-size="208.33px" line-height="125%" y="584.08002" x="-1833.42" font-family="Gentium Book Basic">
  <tspan id="tspan8" y="584.08002" x="-1833.42"/>
 </text>
 <text id="text10" style="text-anchor:middle" transform="scale(4.0128 .2492)" font-size="75.7px" y="1780.91" x="-139.16" font-family="Arial"/>
 <text id="text12" style="word-spacing:0;letter-spacing:0" font-size="129.23px" line-height="125%" y="265.92001" x="56.696999" font-family="Gentium Book Basic">
  <tspan id="tspan14" y="265.92001" x="56.696999"/>
 </text>
 <text id="text16" style="text-anchor:middle" transform="scale(4.0128 .2492)" font-size="46.954px" y="717.92999" x="211.21001" font-family="Arial"/>
 <text id="text18" style="word-spacing:0;letter-spacing:0" font-size="129.23px" line-height="125%" y="185.92" x="637.96997" font-family="Gentium Book Basic">
  <tspan id="tspan20" y="185.92" x="637.96997"/>
 </text>
 <text id="text22" style="text-anchor:middle" transform="scale(4.0128 .2492)" font-size="46.954px" y="396.89001" x="356.06" font-family="Arial"/>
 <text id="text24" style="word-spacing:0;letter-spacing:0" font-size="129.23px" line-height="125%" y="4.6560001" x="-433.60999" font-family="Gentium Book Basic">
  <tspan id="tspan26" y="4.6560001" x="-433.60999"/>
 </text>
 <text id="text28" style="text-anchor:middle" transform="scale(4.0128 .2492)" font-size="46.954px" y="-330.45999" x="89.019997" font-family="Arial"/>
 <text id="text30" style="word-spacing:0;letter-spacing:0" font-size="129.23px" line-height="125%" y="-211.81" x="664.44" font-family="Gentium Book Basic">
  <tspan id="tspan32" y="-211.81" x="664.44"/>
 </text>
 <text id="text34" style="text-anchor:middle" transform="scale(4.0128 .2492)" font-size="46.954px" y="-1199.13" x="362.66" font-family="Arial"/>
 <text id="text36" style="word-spacing:0;letter-spacing:0" font-size="129.23px" line-height="125%" y="-291.81" x="1245.71" font-family="Gentium Book Basic">
  <tspan id="tspan38" y="-291.81" x="1245.71"/>
 </text>
 <text id="text40" style="text-anchor:middle" transform="scale(4.0128 .2492)" font-size="46.954px" y="-1520.16" x="507.51001" font-family="Arial"/>
 <text id="text42" style="word-spacing:0;letter-spacing:0" font-size="129.23px" line-height="125%" y="-764.21002" x="856.59003" font-family="Gentium Book Basic">
  <tspan id="tspan44" y="-764.21002" x="856.59003"/>
 </text>
 <text id="text46" style="text-anchor:middle" transform="scale(4.0128 .2492)" font-size="46.954px" y="-3415.8101" x="410.54001" font-family="Arial"/>
 <text id="text48" style="word-spacing:0;letter-spacing:0" font-size="129.23px" line-height="125%" y="-844.21997" x="1437.85" font-family="Gentium Book Basic">
  <tspan id="tspan50" y="-844.21997" x="1437.85"/>
 </text>
 <text id="text52" style="text-anchor:middle" transform="scale(4.0128 .2492)" font-size="46.954px" y="-3736.8501" x="555.39001" font-family="Arial"/>
 <text id="text54" style="word-spacing:0;letter-spacing:0" font-size="208.33px" line-height="125%" y="570.5" x="-394.95001" font-family="Gentium Book Basic">
  <tspan id="tspan56" y="570.5" x="-394.95001"/>
 </text>
 <g id="g58" fill-rule="evenodd">
  <path id="path60" opacity=".25" d="m397.81 40.719c-23.342 0.171-46.29 26.485-38.563 46.19l-4.313-4.313c-20.467-11.11-83.5-37.32-87.31-15.406l-9.281-9.25c-25.825 2.304-77.41 5.05-94.5 26-3.986-3.992-7.983-7.976-11.969-11.969-6.882-7.88-9.834-10.81-10.625-10.625l-6.344-6.344c-13.39-14.679-27.32-13.54-25.88-6.06l-7.938-7.938c-26.453-2.73-61.158 32.469-39.592 55.938l-8.188-8.156c1.092 13.31 6.621 24.2 14.25 33.906-0.084-0.041-0.166-0.084-0.25-0.125l0.781 0.781c7.06 8.824 15.832 16.68 24.531 24.531-22.05 34.533-41.927 76.65-27.969 116.63l-6.188-6.188c-0.992 45.04 15.485 88.86 43.688 123.38l-5.688-5.688c-24.721-0.191-50.15 30.24-38.969 51.47l-4.188-4.188c1.086 13.293 6.604 24.15 14.219 33.844-0.084-0.04-0.166-0.085-0.25-0.125l0.719 0.688c7.15 8.962 16.05 16.939 24.875 24.906l29.406 29.406h363.72c14.397 0 26-11.603 26-26v-354.91c-19.709-19.708-39.4-39.43-59.09-59.16-6.815-7.803-9.768-10.717-10.594-10.594l-6.375-6.375c-13.37-14.64-27.21-13.525-25.85-6.1l-7.875-7.875c-1.463-0.204-2.939-0.292-4.406-0.281m-275.22 21.781c0.054 0.032 0.102 0.062 0.156 0.094l35.469 35.469c-0.001 0.021 0.001 0.042 0 0.063l-35.63-35.625"/>
  <path id="path62" d="m101.09 41c-26.372 0-47.783 21.412-47.783 47.783 0 26.01 20.882 47.21 46.76 47.783-25.895 33.803-41.593 75.841-41.593 121.76 0 43.98 14.07 84.62 38.01 117.67-24.09 2.45-43.18 22.544-43.18 47.27 0 26.372 21.412 47.732 47.783 47.732 25.5 0 45.907-20.02 47.27-45.17 31.468 20.749 69.4 32.845 109.99 32.845 35.23 0 68.33-9.19 97.1-25.17 4.636 21.521 23.858 37.5 46.76 37.5 26.372 0 47.732-21.361 47.732-47.732 0-20.765-13.292-38.12-31.822-44.714 25.27-33.54 40.57-75.01 40.57-120.23 0-46.808-16.214-89.74-43.13-123.86 19.861-5.804 34.38-23.967 34.38-45.686 0-26.372-21.361-47.783-47.732-47.783-24.3 0-44.26 18.12-47.27 41.593-28.624-15.767-61.6-24.659-96.59-24.659-40.43 0-78.05 12.295-109.43 32.896 0.033-0.674 0-1.356 0-2.046 0-26.372-21.412-47.783-47.783-47.783h-0.051m0.051 28.752c10.325 0 18.98 8.723 18.98 19.03 0 10.325-8.672 18.469-18.98 18.469-10.325 0-18.52-8.144-18.52-18.469s8.195-19.03 18.52-19.03m301.08 0c10.325 0 18.98 8.723 18.98 19.03 0 10.325-8.672 18.469-18.98 18.469-10.325 0-18.52-8.144-18.52-18.469s8.195-19.03 18.52-19.03m-143.86 19.543c93.45 0 169.54 75.6 169.54 169.03 0 93.45-76.09 169.03-169.54 169.03s-169.03-75.6-169.03-169.03c0-93.45 75.6-169.03 169.03-169.03m-0.102 27.831c-77.964 0-140.79 63.34-140.79 141.3 0 77.964 62.812 141.3 140.79 141.3 77.964 0 141.3-63.34 141.3-141.3 0-77.964-63.34-141.3-141.3-141.3m0 62.67c43.569 0 79.14 35.06 79.14 78.63 0 43.569-35.576 79.14-79.14 79.14-43.569 0-78.58-35.576-78.58-79.14 0-43.569 35.01-78.63 78.58-78.63m0.358 26.757c-28.664 0-51.927 23.263-51.927 51.927s23.263 51.876 51.927 51.876 51.876-23.21 51.876-51.876c0-28.664-23.21-51.927-51.876-51.927m-157.47 197.73c10.325 0 18.98 8.723 18.98 19.03 0 10.325-8.672 18.469-18.98 18.469-10.325 0-18.52-8.144-18.52-18.469s8.195-19.03 18.52-19.03m301.08 0c10.325 0 18.98 8.723 18.98 19.03 0 10.325-8.672 18.469-18.98 18.469-10.325 0-18.52-8.144-18.52-18.469s8.195-19.03 18.52-19.03" fill="#fff"/>
 </g>
</svg>
