<?xml version="1.0" encoding="UTF-8" standalone="no"?>
<!-- Created with Inkscape (http://www.inkscape.org/) -->
<svg id="svg2" xmlns:rdf="http://www.w3.org/1999/02/22-rdf-syntax-ns#" xmlns="http://www.w3.org/2000/svg" height="100%" width="100%" version="1.1" xmlns:cc="http://creativecommons.org/ns#" xmlns:dc="http://purl.org/dc/elements/1.1/" viewBox="0 0 512 512">
 <metadata id="metadata10">
  <rdf:RDF>
   <cc:Work rdf:about="">
    <dc:format>image/svg+xml</dc:format>
    <dc:type rdf:resource="http://purl.org/dc/dcmitype/StillImage"/>
    <dc:title/>
   </cc:Work>
  </rdf:RDF>
 </metadata>
 <path id="rect2986" fill="#cd1d31" d="m26 0c-14.397 0-26 11.603-26 26v460c0 14.397 11.603 26 26 26h460c14.397 0 26-11.603 26-26v-460c0-14.397-11.6-26-26-26h-460z"/>
 <text id="text20" style="word-spacing:0;letter-spacing:0" font-size="129.23px" line-height="125%" y="134.52567" x="-449.86539" font-family="Gentium Book Basic">
  <tspan id="tspan22" y="134.52567" x="-449.86539"/>
 </text>
 <text id="text24" style="text-anchor:middle" transform="scale(4.0128 .24920)" font-size="46.954px" y="190.67946" x="84.973793" font-family="Arial"/>
 <text id="text26" style="word-spacing:0;letter-spacing:0" font-size="129.23px" line-height="125%" y="54.525669" x="131.40463" font-family="Gentium Book Basic">
  <tspan id="tspan28" y="54.525669" x="131.40463"/>
 </text>
 <text id="text30" style="text-anchor:middle" transform="scale(4.0128 .24920)" font-size="46.954px" y="-130.35869" x="229.82307" font-family="Arial"/>
 <text id="text32" style="word-spacing:0;letter-spacing:0" font-size="129.23px" line-height="125%" y="-126.73431" x="-940.17542" font-family="Gentium Book Basic">
  <tspan id="tspan34" y="-126.73431" x="-940.17542"/>
 </text>
 <text id="text36" style="text-anchor:middle" transform="scale(4.0128 .24920)" font-size="46.954px" y="-857.70508" x="-37.215565" font-family="Arial"/>
 <text id="text38" style="word-spacing:0;letter-spacing:0" font-size="129.23px" line-height="125%" y="-343.20432" x="157.8746" font-family="Gentium Book Basic">
  <tspan id="tspan40" y="-343.20432" x="157.8746"/>
 </text>
 <text id="text42" style="text-anchor:middle" transform="scale(4.0128 .24920)" font-size="46.954px" y="-1726.3806" x="236.42305" font-family="Arial"/>
 <text id="text44" style="word-spacing:0;letter-spacing:0" font-size="129.23px" line-height="125%" y="-423.20428" x="739.14465" font-family="Gentium Book Basic">
  <tspan id="tspan46" y="-423.20428" x="739.14465"/>
 </text>
 <text id="text48" style="text-anchor:middle" transform="scale(4.0128 .24920)" font-size="46.954px" y="-2047.4089" x="381.27228" font-family="Arial"/>
 <text id="text50" style="word-spacing:0;letter-spacing:0" font-size="129.23px" line-height="125%" y="-895.60431" x="350.02463" font-family="Gentium Book Basic">
  <tspan id="tspan52" y="-895.60431" x="350.02463"/>
 </text>
 <text id="text54" style="text-anchor:middle" transform="scale(4.0128 .24920)" font-size="46.954px" y="-3943.0593" x="284.30273" font-family="Arial"/>
 <text id="text56" style="word-spacing:0;letter-spacing:0" font-size="129.23px" line-height="125%" y="-975.61432" x="931.28467" font-family="Gentium Book Basic">
  <tspan id="tspan58" y="-975.61432" x="931.28467"/>
 </text>
 <text id="text60" style="text-anchor:middle" transform="scale(4.0128 .24920)" font-size="46.954px" y="-4264.0977" x="429.15204" font-family="Arial"/>
 <text id="text62" style="word-spacing:0;letter-spacing:0" font-size="208.33px" line-height="125%" y="439.10577" x="-901.51538" font-family="Gentium Book Basic">
  <tspan id="tspan64" y="439.10577" x="-901.51538"/>
 </text>
 <path id="path3230" opacity=".25" d="m185.71 147.04c-8.45 0.06-15.67 2.22-25.56 7.49-7.83 4.16-12.7 7.62-39.03 27.68-26.167 19.94-27.811 21.06-38.013 26.04-11.831 5.77-24.973 9.52-36.769 10.47l-5.338 0.44 3.236 5.32c16.312 26.83 33.712 49.24 54.44 69.97l217.55 217.55h169.77c14.4 0 26-11.6 26-26v-221.97l-41-41-6.08-0.73c-21.79-2.58-45.17-14.19-78.37-38.9-23.07-17.17-40.55-27.42-56-32.86-5.85-2.06-5.87-2.06-17.26-2.02-9 0.02-12.87 0.31-18.39 1.36-13.89 2.64-25.04 5.94-38.81 11.47l-6.72 2.7-14.41-5.77c-19.07-7.64-29.57-10.21-45.54-11.15-1.27-0.07-2.5-0.1-3.71-0.09z"/>
 <path id="path3380" d="m235.98 364.38c-43.66-3.12-87.22-23.49-125.63-58.76-26.027-23.88-46.831-49.42-66.114-81.14l-3.236-5.32 5.338-0.4336c11.796-0.95821 24.937-4.7014 36.769-10.474 10.201-4.9768 11.845-6.103 38.009-26.038 26.334-20.065 31.207-23.521 39.033-27.684 11.307-6.0152 19.113-7.9867 29.269-7.3921 15.975 0.93528 26.471 3.5033 45.538 11.142l14.415 5.775 6.7212-2.7012c13.762-5.531 24.918-8.8284 38.81-11.471 5.5168-1.0495 9.3905-1.3367 18.39-1.3635 11.387-0.034 11.409-0.0315 17.256 2.0253 15.453 5.4355 32.932 15.693 56 32.863 33.195 24.707 56.579 36.315 78.37 38.901l6.0792 0.7215-4.4608 7.0874c-18.242 28.983-38.185 52.932-60.185 72.273-44.125 38.792-90.129 58.759-142.98 62.056-11.426 0.71275-16.732 0.70069-27.395-0.0623zm30.609-80.359c34.835-4.7231 72.508-19.374 122.37-47.586 4.4976-2.5449 8.3273-4.8696 8.5105-5.166 0.57642-0.93277-6.3533-0.76971-69.073 1.6251-39.52 1.509-42.849 1.8368-60.032 5.9112-16.651 3.9483-21.441 3.8607-35.552-0.6503-10.602-3.3895-17.694-4.7959-29.605-5.8712-19.96-1.8019-70.09-2.7402-87.365-1.6353l-6.095 0.38983 30.131 16.455c17.83 9.7374 34.156 18.198 39.991 20.724 18.244 7.8981 35.572 13.159 51.071 15.506 9.6043 1.4542 26.108 1.5924 35.651 0.29846z" fill="#fff"/>
</svg>
