<?xml version="1.0" encoding="UTF-8" standalone="no"?>
<!-- Created with Inkscape (http://www.inkscape.org/) -->
<svg id="svg2" xmlns:rdf="http://www.w3.org/1999/02/22-rdf-syntax-ns#" xmlns="http://www.w3.org/2000/svg" height="100%" width="100%" version="1.1" xmlns:cc="http://creativecommons.org/ns#" xmlns:dc="http://purl.org/dc/elements/1.1/" viewBox="0 0 512 512">
 <metadata id="metadata10">
  <rdf:RDF>
   <cc:Work rdf:about="">
    <dc:format>image/svg+xml</dc:format>
    <dc:type rdf:resource="http://purl.org/dc/dcmitype/StillImage"/>
    <dc:title/>
   </cc:Work>
  </rdf:RDF>
 </metadata>
 <text id="text20" style="word-spacing:0;letter-spacing:0" font-size="129.23px" line-height="125%" y="134.52567" x="-449.86539" font-family="Gentium Book Basic">
  <tspan id="tspan22" y="134.52567" x="-449.86539"/>
 </text>
 <text id="text24" style="text-anchor:middle" transform="scale(4.0128 .24920)" font-size="46.954px" y="190.67946" x="84.973793" font-family="Arial"/>
 <text id="text26" style="word-spacing:0;letter-spacing:0" font-size="129.23px" line-height="125%" y="54.525669" x="131.40463" font-family="Gentium Book Basic">
  <tspan id="tspan28" y="54.525669" x="131.40463"/>
 </text>
 <text id="text30" style="text-anchor:middle" transform="scale(4.0128 .24920)" font-size="46.954px" y="-130.35869" x="229.82307" font-family="Arial"/>
 <text id="text32" style="word-spacing:0;letter-spacing:0" font-size="129.23px" line-height="125%" y="-126.73431" x="-940.17542" font-family="Gentium Book Basic">
  <tspan id="tspan34" y="-126.73431" x="-940.17542"/>
 </text>
 <text id="text36" style="text-anchor:middle" transform="scale(4.0128 .24920)" font-size="46.954px" y="-857.70508" x="-37.215565" font-family="Arial"/>
 <text id="text38" style="word-spacing:0;letter-spacing:0" font-size="129.23px" line-height="125%" y="-343.20432" x="157.8746" font-family="Gentium Book Basic">
  <tspan id="tspan40" y="-343.20432" x="157.8746"/>
 </text>
 <text id="text42" style="text-anchor:middle" transform="scale(4.0128 .24920)" font-size="46.954px" y="-1726.3806" x="236.42305" font-family="Arial"/>
 <text id="text44" style="word-spacing:0;letter-spacing:0" font-size="129.23px" line-height="125%" y="-423.20428" x="739.14465" font-family="Gentium Book Basic">
  <tspan id="tspan46" y="-423.20428" x="739.14465"/>
 </text>
 <text id="text48" style="text-anchor:middle" transform="scale(4.0128 .24920)" font-size="46.954px" y="-2047.4089" x="381.27228" font-family="Arial"/>
 <text id="text50" style="word-spacing:0;letter-spacing:0" font-size="129.23px" line-height="125%" y="-895.60431" x="350.02463" font-family="Gentium Book Basic">
  <tspan id="tspan52" y="-895.60431" x="350.02463"/>
 </text>
 <text id="text54" style="text-anchor:middle" transform="scale(4.0128 .24920)" font-size="46.954px" y="-3943.0593" x="284.30273" font-family="Arial"/>
 <text id="text56" style="word-spacing:0;letter-spacing:0" font-size="129.23px" line-height="125%" y="-975.61432" x="931.28467" font-family="Gentium Book Basic">
  <tspan id="tspan58" y="-975.61432" x="931.28467"/>
 </text>
 <text id="text60" style="text-anchor:middle" transform="scale(4.0128 .24920)" font-size="46.954px" y="-4264.0977" x="429.15204" font-family="Arial"/>
 <text id="text62" style="word-spacing:0;letter-spacing:0" font-size="208.33px" line-height="125%" y="439.10577" x="-901.51538" font-family="Gentium Book Basic">
  <tspan id="tspan64" y="439.10577" x="-901.51538"/>
 </text>
 <path id="path9" d="m25.992-0.0125c-14.397 0-26 11.603-26 26v460c0 14.397 11.603 26 26 26h460c14.397 0 26-11.603 26-26v-460c0-14.397-11.603-26-26-26h-460" fill="#4a789c"/>
 <path id="path11" fill="#fff" d="m25.992-0.0125c-14.397 0-26 11.603-26 26v232.75c17.689-13.975 51.23-11.519 59.41 11.438-9.229-31.487 22.791-56.2 40.75-78.81 3.736-11.04 25.951-20.511 18.313-5.844 13.02-0.446 32.71-22.719 9.594-12.438-0.327-20.315-20.231-14.509-26.688-11.625 11.975-18.03 73.51-8.148 47.75-37.625-19.957-7.672-18.346-52.44-38.531-27.5 1.698-15.366-41.09-45.45-40.16-19.688 5.222 23.06 0.931 49.636-10.188 64.75-2.32-33.787-63.06-26.372-55.25-62.37 11.314-17.16 24.585-40.853 25.844-38.719 18.83-6.822 34.21-25.742 17.469-39.656-2.272 1.737-4.522 3.488-6.75 5.281-3.383 8.306-9.437 16.352-12.03 11.688v-15.281c0-0.79-0.045-1.576-0.125-2.344h-3.406m50.656 0c1.324 1.88 2.574 4.179 3.75 7.06 23.08 12.618 2.041 34.04-8.03 41.41 16.838-9.377 46.32 37.28 38.28 11.375-9.908-6.863 26.63 11.02 7.688-11.281-17.431-26.646 1.337-11.906 8.688-5.688 23.863-20.3-23.588-23.58-16.375-42.875h-34m89.88 0c2.161 0.576 4.54 0.588 5.875 0h-5.875m12.813 0c0.685 7.01-14.788 12.159-1.344 19.438-19.16 9.379 3.109 49.07 17.344 59 23.42 18.706 10.368-39.623 36.5-42.656 12.62-13.669 33.686-23.01 50.656-35.781h-103.16m278.91 0c-15.882 13.98-26.04 34.1-37.719 51.813-25.966 11.11-25.01 58.792 4 43.563 7.765 12.866-5.43 33.1 17.188 16.281 18.243-22.903 3.204-59.903 34.25-74.34 2.261 11.23-28.629 53.17 7.469 46.28 32.632 1.168-23.684 3.068-7.813 22.844-16.49-9.282-7.944 25.341-29.469 17.281-18.647 9.622-30.896-4.471-26.625-19.906-14.669 8.119 4.59 31.06-20.875 32.438-5.704 19.216-52.612 16.276-25.938 35.844 11.843 29.12-44.11 1.837-28.22 36.781 13.595 34.554 42.06-11.427 53.625-20.313 21.605-15.903 53.29 25.25 37 29.344 20.504-3.674 15.706-23.17-1.844-30.813-9.738-23.959 30.812 11.8 28.563 23.813 14.313 25.426 8.435-26.06 23-3.281-0.904 12.778 15.716 13.553 27.16 16.09v-25.09c-16.414-0.516-30.401-6.136-10.969-24.375 2.732-1.556 7.01-0.147 10.969 1.563v-149.81c0-14.397-11.603-26-26-26h-27.75m-382.94 11.844c-11.03 17.14 16.301 6.329 0 0m241.56 20.313c-12.915 14.11-29.94-3.75-30.22 8.375 2.341 3.664 11.709 29.827 32.25 10.531 11.02-4.409 6.668-15.498-2.031-18.906m-275 8.375c-24.497 20.3 41.602 22.21 5.188 2.375l-5.188-2.375m30.469 7.938c-0.535 0.301-1.024 0.673-1.531 1.094 0.477-0.314 0.981-0.692 1.531-1.094m292.41 48.5c-16.997 10.994 8.791 33.898 0 44.719-11.05 18.269 41.09-1.269 13.25-15.844-1.907-12.04-15.256-26.614-13.188-28.875h-0.063m-11.594 21.813c-24.568 6.592-5.579 40.618 3.125 8.563 0.489-1.858 1.153-8.624-3.125-8.563m-196.75 24.594c-22.861 14.79-3.566 29.593 13.188 22.938-3.44-8.923-13.03-14.591-13.188-22.938m259.72 56.44c-14.331 8.759 9.911 15.476 0 0m2.094 19.688c-25.22 1.944-56.46 1.7-73.34 21.03-18.262 23.769-44.561 56.99-24.656 87.34 19.917 44.969 69.29 2.312 97.69 28.875 8.439 11.07-7.336 24.26 11.531 36.25 7.101 25.554-8.06 49.819 9.375 74.25 9.02 22.973 14.656 57.36 48.22 36.38 12.954-7.398 19.922-17.07 24.969-27.375v-231.91c-23.828 3.531-47.27-6.188-67.813 0.469-19.83-0.167-18.745-20.276-25.969-25.313m-361.97 61.969c-2.416 7.647 45.32 15.407 12.375 3.156l-4.906-1.656-7.469-1.5m-25.406 5.594c-8.704 8.213-21.944 10.562-30.844 6.281v18.438c4.936 1.663 10.122 3.03 15.563 4.125 19.517 6.298 35.586 27.957 52.75 23.19 9.706 24.272-28.774 47.576 1.281 70.22 15.689 22.92 42.07 37.98 27.813 70.16-3.373 10.629-5.134 21.567-6.313 32.531h61.19c1.608-4.077 4.969-6.842 14.656-5.531 16.448-20.453 21.18-44.884 48.938-53 3.316-24.827 46.16-62.829 1.906-72.5-12.03-5.624-42.997-7.6-40.625-10.375 4.795-24.64-40.01-31.702-59.09-41.781-25.05-16.869-62.706 28.02-71.53-10.656-5.265-12.17-24.53-12.315-15.688-31.09m62.44 5.281c-14.475 13.948 29.836 4.167 0 0" fill-opacity="0.33"/>
 <text id="text13" font-size="129.23px" style="word-spacing:0;letter-spacing:0" line-height="125%" y="158.5175" x="-13.877001" font-family="&apos;Gentium Book Basic&apos;">
  <tspan id="tspan15" y="158.5175" x="-13.877001"/>
 </text>
 <text id="text17" style="text-anchor:middle" transform="scale(4.0128 .24920)" font-size="46.954px" y="286.94836" x="193.617" font-family="Arial"/>
 <text id="text19" font-size="129.23px" style="word-spacing:0;letter-spacing:0" line-height="125%" y="78.517502" x="567.39203" font-family="&apos;Gentium Book Basic&apos;">
  <tspan id="tspan21" y="78.517502" x="567.39203"/>
 </text>
 <text id="text23" style="text-anchor:middle" transform="scale(4.0128 .24920)" font-size="46.954px" y="-34.079987" x="338.46628" font-family="Arial"/>
 <text id="text25" font-size="129.23px" style="word-spacing:0;letter-spacing:0" line-height="125%" y="-102.7425" x="-504.18799" font-family="&apos;Gentium Book Basic&apos;">
  <tspan id="tspan27" y="-102.7425" x="-504.18799"/>
 </text>
 <text id="text29" style="text-anchor:middle" transform="scale(4.0128 .24920)" font-size="46.954px" y="-761.42627" x="71.437645" font-family="Arial"/>
 <text id="text31" font-size="129.23px" style="word-spacing:0;letter-spacing:0" line-height="125%" y="-319.21252" x="593.862" font-family="&apos;Gentium Book Basic&apos;">
  <tspan id="tspan33" y="-319.21252" x="593.862"/>
 </text>
 <text id="text35" style="text-anchor:middle" transform="scale(4.0128 .24920)" font-size="46.954px" y="-1630.0919" x="345.06625" font-family="Arial"/>
 <text id="text37" font-size="129.23px" style="word-spacing:0;letter-spacing:0" line-height="125%" y="-399.2225" x="1175.132" font-family="&apos;Gentium Book Basic&apos;">
  <tspan id="tspan39" y="-399.2225" x="1175.132"/>
 </text>
 <text id="text41" style="text-anchor:middle" transform="scale(4.0128 .24920)" font-size="46.954px" y="-1951.1301" x="489.9155" font-family="Arial"/>
 <text id="text43" font-size="129.23px" style="word-spacing:0;letter-spacing:0" line-height="125%" y="-871.6225" x="786.01202" font-family="&apos;Gentium Book Basic&apos;">
  <tspan id="tspan45" y="-871.6225" x="786.01202"/>
 </text>
 <text id="text47" style="text-anchor:middle" transform="scale(4.0128 .24920)" font-size="46.954px" y="-3846.7705" x="392.94601" font-family="Arial"/>
 <text id="text49" font-size="129.23px" style="word-spacing:0;letter-spacing:0" line-height="125%" y="-951.6225" x="1367.272" font-family="&apos;Gentium Book Basic&apos;">
  <tspan id="tspan51" y="-951.6225" x="1367.272"/>
 </text>
 <text id="text53" style="text-anchor:middle" transform="scale(4.0128 .24920)" font-size="46.954px" y="-4167.7988" x="537.79523" font-family="Arial"/>
 <text id="text55" font-size="208.33px" style="word-spacing:0;letter-spacing:0" line-height="125%" y="463.09747" x="-465.52798" font-family="&apos;Gentium Book Basic&apos;">
  <tspan id="tspan57" y="463.09747" x="-465.52798"/>
 </text>
 <path id="path61" opacity=".25" fill-rule="evenodd" d="m227.12 40.988v183.72l34.12 34.12h-220.49l183.72 183.72h-0.01l-183.72-183.72 0.002 183.72 69.438 69.44h375.81c14.4 0 26-11.6 26-26v-404.25l-40.75-40.752h-0.03-244.09z"/>
 <path id="path119" fill="#fff" d="m227.12 40.988v183.72h110.31v7.656h-49.37l-8.094 14.469-0.563 6.313h139.97l-0.281-6.06-14.688-14.719h-43.47v-7.656h110.31v-183.72h-0.031-244.09m-186.37 217.84v183.72h110.31v7.656h-49.37l-8.094 14.469-0.531 6.313h139.97l-0.313-6.094-14.688-14.688h-43.47v-7.656h110.31v-183.72h-244.12" fill-rule="evenodd"/>
</svg>
