<svg xmlns="http://www.w3.org/2000/svg" xmlns:svg="http://www.w3.org/2000/svg" id="svg2" width="100%" height="100%" version="1.1" viewBox="0 0 512 512"><metadata id="metadata10"/><defs id="defs8"><style id="style2464" type="text/css"/><style id="style2464-7" type="text/css"/><style id="style2464-7-7" type="text/css"/><style id="style2464-4" type="text/css"/></defs><path id="rect2986" d="M 26,0 C 11.60265,0 0,11.60265 0,26 l 0,460 c 0,14.39735 11.60265,26 26,26 l 460,0 c 14.39735,0 26,-11.60265 26,-26 L 512,26 C 512,11.60265 500.39735,0 486,0 L 26,0 Z" style="fill:#1898a8;fill-opacity:1;stroke:none"/><path style="opacity:.25;fill:#000" id="path19821" d="m 210.05273,58.23047 c -1.82788,-0.003 -3.57854,0.005 -5.24609,0.0332 l 266.10352,266.10547 c 5e-5,10e-4 -6e-5,0.003 0,0.004 L 204.80664,58.26758 c -23.33471,0.40256 -33.02281,3.46155 -52.80273,14.30469 -34.2379,18.77285 -69.85474,58.26396 -90.0918,99.36718 -19.29549,54.77518 -25.12529,91.64624 -17.95703,149.27344 1.54337,11.70693 5.03045,19.51944 11.41406,32.56641 5.47332,11.18856 13.44311,21.91576 23.42969,31.90234 L 205.11719,512 486,512 c 14.39735,0 26,-11.60265 26,-26 L 512,276.03711 371.21094,135.24805 C 360.40302,124.44013 349.05581,114.53327 337.34961,105.89453 289.5612,70.62227 258.98065,58.64304 215.76367,58.26368 c -1.97867,-0.017 -3.88305,-0.0303 -5.71094,-0.0332 z"/><path style="fill:#fff" id="path15319" d="m 204.80646,58.26814 c -23.33471,0.40256 -33.0234,3.46064 -52.80332,14.30377 -34.2379,18.77286 -69.85405,58.26447 -90.09111,99.36769 -19.29549,54.77518 -25.12508,91.64676 -17.95682,149.27396 1.54337,11.70693 5.02993,19.51792 11.41354,32.56489 21.54845,44.0494 81.80115,80.96192 151.41639,93.5845 47.53868,8.61883 61.73465,8.56834 105.75675,-0.30431 33.77121,-6.80528 67.04296,-19.6653 94.19857,-35.30365 27.15151,-15.63836 48.22508,-34.07688 57.83189,-52.65186 7.20101,-13.92441 8.01841,-32.6031 4.10745,-53.86908 -3.90959,-21.26598 -12.58164,-45.07284 -24.80848,-69.2386 C 419.42718,187.67894 380.88123,138.01829 337.35038,105.89416 289.56197,70.6219 258.98121,58.64341 215.76423,58.26405 c -3.95735,-0.0341 -7.62268,-0.0573 -10.95777,0 m -13.08654,67.86855 c 11.82838,-0.52538 30.46886,9.66275 61.02096,29.52182 61.83018,40.18621 118.84331,88.08515 118.84331,99.82074 0.005,16.1801 -84.07321,77.68277 -155.37374,113.67145 -34.48352,17.40415 -31.60421,16.98795 -40.02108,6.85031 -8.00886,-9.64774 -11.94165,-148.59165 -5.78319,-205.74124 3.15087,-29.23253 7.89832,-43.53494 21.30418,-44.13127"/></svg>