<?xml version="1.0" encoding="UTF-8" standalone="no"?>
<!-- Created with Inkscape (http://www.inkscape.org/) -->
<svg id="svg2" xmlns:rdf="http://www.w3.org/1999/02/22-rdf-syntax-ns#" xmlns="http://www.w3.org/2000/svg" height="100%" width="100%" version="1.1" xmlns:cc="http://creativecommons.org/ns#" xmlns:dc="http://purl.org/dc/elements/1.1/" viewBox="0 0 512 512">
 <metadata id="metadata10">
  <rdf:RDF>
   <cc:Work rdf:about="">
    <dc:format>image/svg+xml</dc:format>
    <dc:type rdf:resource="http://purl.org/dc/dcmitype/StillImage"/>
    <dc:title/>
   </cc:Work>
  </rdf:RDF>
 </metadata>
 <path id="path9" d="m26 0c-14.397 0-26 11.603-26 26v460c0 14.397 11.603 26 26 26h460c14.397 0 26-11.603 26-26v-460c0-14.397-11.6-26-26-26h-460" fill="#cd1d31"/>
 <text id="text11" font-size="129.23px" style="word-spacing:0;letter-spacing:0" line-height="125%" y="198.42" x="72.040001" font-family="&apos;Gentium Book Basic&apos;">
  <tspan id="tspan13" y="198.42" x="72.040001"/>
 </text>
 <text id="text15" style="text-anchor:middle" transform="scale(4.0128 .24920)" font-size="46.954px" y="447.0477" x="215.0289" font-family="Arial"/>
 <text id="text17" font-size="129.23px" style="word-spacing:0;letter-spacing:0" line-height="125%" y="118.42" x="653.31" font-family="&apos;Gentium Book Basic&apos;">
  <tspan id="tspan19" y="118.42" x="653.31"/>
 </text>
 <text id="text21" style="text-anchor:middle" transform="scale(4.0128 .24920)" font-size="46.954px" y="126.02935" x="359.87817" font-family="Arial"/>
 <text id="text23" font-size="129.23px" style="word-spacing:0;letter-spacing:0" line-height="125%" y="-62.844002" x="-418.26999" font-family="&apos;Gentium Book Basic&apos;">
  <tspan id="tspan25" y="-62.844002" x="-418.26999"/>
 </text>
 <text id="text27" style="text-anchor:middle" transform="scale(4.0128 .24920)" font-size="46.954px" y="-601.32697" x="92.839523" font-family="Arial"/>
 <text id="text29" font-size="129.23px" style="word-spacing:0;letter-spacing:0" line-height="125%" y="-279.31" x="679.78003" font-family="&apos;Gentium Book Basic&apos;">
  <tspan id="tspan31" y="-279.31" x="679.78003"/>
 </text>
 <text id="text33" style="text-anchor:middle" transform="scale(4.0128 .24920)" font-size="46.954px" y="-1469.9924" x="366.47815" font-family="Arial"/>
 <text id="text35" font-size="129.23px" style="word-spacing:0;letter-spacing:0" line-height="125%" y="-359.32001" x="1261.05" font-family="&apos;Gentium Book Basic&apos;">
  <tspan id="tspan37" y="-359.32001" x="1261.05"/>
 </text>
 <text id="text39" style="text-anchor:middle" transform="scale(4.0128 .24920)" font-size="46.954px" y="-1791.0209" x="511.32736" font-family="Arial"/>
 <text id="text41" font-size="129.23px" style="word-spacing:0;letter-spacing:0" line-height="125%" y="-831.71997" x="871.92999" font-family="&apos;Gentium Book Basic&apos;">
  <tspan id="tspan43" y="-831.71997" x="871.92999"/>
 </text>
 <text id="text45" style="text-anchor:middle" transform="scale(4.0128 .24920)" font-size="46.954px" y="-3686.6611" x="414.35785" font-family="Arial"/>
 <text id="text47" font-size="129.23px" style="word-spacing:0;letter-spacing:0" line-height="125%" y="-911.71997" x="1453.1899" font-family="&apos;Gentium Book Basic&apos;">
  <tspan id="tspan49" y="-911.71997" x="1453.1899"/>
 </text>
 <text id="text51" style="text-anchor:middle" transform="scale(4.0128 .24920)" font-size="46.954px" y="-4007.6895" x="559.20715" font-family="Arial"/>
 <text id="text53" font-size="208.33px" style="word-spacing:0;letter-spacing:0" line-height="125%" y="503" x="-379.60999" font-family="&apos;Gentium Book Basic&apos;">
  <tspan id="tspan55" y="503" x="-379.60999"/>
 </text>
 <path id="path59" opacity=".25" d="m255.63 87.551c-25.96 0.004-48.32 15.409-58.44 37.579l37.13 37.13c0.01 0 0.01 0.01 0.01 0.01l-37.14-37.14h-112.27c-8.668 0-15.637 6.15-15.637 13.8l39.507 39.51-39.511-39.51v25.67c0.001 3.53 1.479 6.74 3.918 9.18h0.002l38.031 38.03-69.595 112.27h-0.002-0.332c-0.199 2.48-0.301 4.97-0.301 7.5l180.42 180.42h264.58c14.4 0 26-11.6 26-26v-282.34l-73.88-73.88c-2.86-2.86-7.05-4.66-11.74-4.66l15.64 15.64v0.01l-15.64-15.64h-106.55l-18.75-18.75c-11.63-11.629-27.7-18.827-45.44-18.829h-0.01zm-214.63 244.04c0 25.46 10.325 48.52 27.02 65.21l115.2 115.2h38.19l-180.41-180.41z"/>
 <path id="path173" d="m255.64 87.55c-25.969 0-48.33 15.409-58.45 37.577h-112.27c-8.668 0-15.637 6.147-15.637 13.798v25.674c0 7.658 6.969 13.839 15.637 13.839h112.3c10.133 22.15 32.463 37.543 58.42 37.543 25.952 0 48.31-15.388 58.45-37.543h112.3c8.668 0 15.637-6.18 15.637-13.839v-25.674c0-7.658-6.969-13.798-15.637-13.798h-112.27c-10.12-22.16-32.51-37.58-58.48-37.58m0 40.478c0.41 0 0.83 0.012 1.234 0.033 0.055 0.003 0.113-0.003 0.166 0 12.477 0.718 22.373 11.06 22.373 23.707 0 13.12-10.657 23.74-23.773 23.74-0.407 0-0.798 0.017-1.201 0-12.549-0.637-22.539-11.03-22.539-23.74 0-12.649 9.902-22.988 22.373-23.707 0.458-0.021 0.902-0.033 1.367-0.033m-122.4 56.983a9.4051 9.4051 0 0 0 -8.1356 4.4346l-83.46 134.64h-0.333c-0.199 2.479-0.3 4.972-0.3 7.502 0 50.928 41.3 92.23 92.23 92.23 50.928 0 92.2-41.3 92.2-92.23 0-2.124-0.092-4.216-0.234-6.302l0.066-0.033-0.066-0.1c-0.025-0.355-0.038-0.713-0.066-1.068h-0.6l-83.46-134.64a9.4051 9.4051 0 0 0 -7.8355 -4.4346m245.57 0.63345a9.4051 9.4051 0 0 0 -8.1356 4.4679l-83.46 134.61h-0.333c-0.199 2.479-0.3 4.972-0.3 7.502 0 50.928 41.3 92.23 92.23 92.23 50.928 0 92.2-41.3 92.2-92.23 0-2.124-0.092-4.216-0.234-6.302l0.066-0.033-0.066-0.1c-0.025-0.355-0.038-0.713-0.066-1.068h-0.6l-83.42-134.61a9.4051 9.4051 0 0 0 -7.8689 -4.4679m-245.7 26.607 69.28 111.83h-138.6l69.32-111.83m245.57 0.667 69.28 111.8h-138.6l69.32-111.8" fill="#fff"/>
</svg>
