<?xml version="1.0" encoding="UTF-8" standalone="no"?>
<!-- Created with Inkscape (http://www.inkscape.org/) -->
<svg id="svg2" xmlns:rdf="http://www.w3.org/1999/02/22-rdf-syntax-ns#" xmlns="http://www.w3.org/2000/svg" height="100%" width="100%" version="1.1" xmlns:cc="http://creativecommons.org/ns#" xmlns:dc="http://purl.org/dc/elements/1.1/" viewBox="0 0 512 512">
 <metadata id="metadata10">
  <rdf:RDF>
   <cc:Work rdf:about="">
    <dc:format>image/svg+xml</dc:format>
    <dc:type rdf:resource="http://purl.org/dc/dcmitype/StillImage"/>
    <dc:title/>
   </cc:Work>
  </rdf:RDF>
 </metadata>
 <path id="rect2986" fill="#0078ad" d="m26 0c-14.397 0-26 11.603-26 26v460c0 14.397 11.603 26 26 26h460c14.397 0 26-11.603 26-26v-460c0-14.397-11.6-26-26-26h-460z"/>
 <text id="text20" font-size="129.23px" style="word-spacing:0;letter-spacing:0" line-height="125%" y="149.86629" x="-32.600506" font-family="&apos;Gentium Book Basic&apos;">
  <tspan id="tspan22" y="149.86629" x="-32.600506"/>
 </text>
 <text id="text24" style="text-anchor:middle" transform="scale(4.0128 .24920)" font-size="46.954px" y="252.23862" x="188.95674" font-family="Arial"/>
 <text id="text26" font-size="129.23px" style="word-spacing:0;letter-spacing:0" line-height="125%" y="69.866295" x="548.66949" font-family="&apos;Gentium Book Basic&apos;">
  <tspan id="tspan28" y="69.866295" x="548.66949"/>
 </text>
 <text id="text30" style="text-anchor:middle" transform="scale(4.0128 .24920)" font-size="46.954px" y="-68.79953" x="333.806" font-family="Arial"/>
 <text id="text32" font-size="129.23px" style="word-spacing:0;letter-spacing:0" line-height="125%" y="-111.39368" x="-522.91052" font-family="&apos;Gentium Book Basic&apos;">
  <tspan id="tspan34" y="-111.39368" x="-522.91052"/>
 </text>
 <text id="text36" style="text-anchor:middle" transform="scale(4.0128 .24920)" font-size="46.954px" y="-796.14594" x="66.76738" font-family="Arial"/>
 <text id="text38" font-size="129.23px" style="word-spacing:0;letter-spacing:0" line-height="125%" y="-327.86368" x="575.13947" font-family="&apos;Gentium Book Basic&apos;">
  <tspan id="tspan40" y="-327.86368" x="575.13947"/>
 </text>
 <text id="text42" style="text-anchor:middle" transform="scale(4.0128 .24920)" font-size="46.954px" y="-1664.8215" x="340.40598" font-family="Arial"/>
 <text id="text44" font-size="129.23px" style="word-spacing:0;letter-spacing:0" line-height="125%" y="-407.86368" x="1156.4095" font-family="&apos;Gentium Book Basic&apos;">
  <tspan id="tspan46" y="-407.86368" x="1156.4095"/>
 </text>
 <text id="text48" style="text-anchor:middle" transform="scale(4.0128 .24920)" font-size="46.954px" y="-1985.8499" x="485.25522" font-family="Arial"/>
 <text id="text50" font-size="129.23px" style="word-spacing:0;letter-spacing:0" line-height="125%" y="-880.26367" x="767.28949" font-family="&apos;Gentium Book Basic&apos;">
  <tspan id="tspan52" y="-880.26367" x="767.28949"/>
 </text>
 <text id="text54" style="text-anchor:middle" transform="scale(4.0128 .24920)" font-size="46.954px" y="-3881.5002" x="388.28568" font-family="Arial"/>
 <text id="text56" font-size="129.23px" style="word-spacing:0;letter-spacing:0" line-height="125%" y="-960.27368" x="1348.5496" font-family="&apos;Gentium Book Basic&apos;">
  <tspan id="tspan58" y="-960.27368" x="1348.5496"/>
 </text>
 <text id="text60" style="text-anchor:middle" transform="scale(4.0128 .24920)" font-size="46.954px" y="-4202.5386" x="533.13501" font-family="Arial"/>
 <text id="text62" font-size="208.33px" style="word-spacing:0;letter-spacing:0" line-height="125%" y="454.44638" x="-484.25052" font-family="&apos;Gentium Book Basic&apos;">
  <tspan id="tspan64" y="454.44638" x="-484.25052"/>
 </text>
 <path id="path3291" opacity=".25" d="m104.88 104.85v59.82h-63.88v54.35l63.88 63.87v16.56h-63.88v54.34l158.21 158.21h286.79c14.4 0 26-11.6 26-26v-280.33l-41-41h-4.72l-59.82-59.82h-54.34v59.82h-8.54l-59.82-59.82h-54.3v59.82h-10.42l-59.82-59.82h-54.34z"/>
 <path id="path3101" fill="#fff" d="m104.87 104.85v59.818h-63.875v54.346h63.875v80.433h-63.875v54.346h119.45v53.355h58.497v-53.355h69.819v53.355h58.544v-53.355h123.69v-54.346h-64.535v-80.433h64.535v-54.346h-64.535v-59.818h-54.346v59.818h-68.357v-59.818h-54.298v59.818h-70.244v-59.818h-54.346zm54.346 114.16h70.244v80.433h-70.244v-80.433zm124.54 0h68.357v80.433h-68.357v-80.433z"/>
</svg>
