<?xml version="1.0" encoding="UTF-8" standalone="no"?>
<!-- Created with Inkscape (http://www.inkscape.org/) -->
<svg id="svg2" xmlns:rdf="http://www.w3.org/1999/02/22-rdf-syntax-ns#" xmlns="http://www.w3.org/2000/svg" height="100%" width="100%" version="1.1" xmlns:cc="http://creativecommons.org/ns#" xmlns:dc="http://purl.org/dc/elements/1.1/" viewBox="0 0 512 512">
 <metadata id="metadata10">
  <rdf:RDF>
   <cc:Work rdf:about="">
    <dc:format>image/svg+xml</dc:format>
    <dc:type rdf:resource="http://purl.org/dc/dcmitype/StillImage"/>
    <dc:title/>
   </cc:Work>
  </rdf:RDF>
 </metadata>
 <path id="path9" d="m26 0c-14.397 0-26 11.603-26 26v460c0 14.397 11.603 26 26 26h460c14.397 0 26-11.603 26-26v-460c0-14.397-11.6-26-26-26h-460" fill="#0078ad"/>
 <text id="text11" font-size="129.23px" style="word-spacing:0;letter-spacing:0" line-height="125%" y="210.69" x="179.42" font-family="&apos;Gentium Book Basic&apos;">
  <tspan id="tspan13" y="210.69" x="179.42"/>
 </text>
 <text id="text15" style="text-anchor:middle" transform="scale(4.0128 .24920)" font-size="46.954px" y="496.30746" x="241.78876" font-family="Arial"/>
 <text id="text17" font-size="129.23px" style="word-spacing:0;letter-spacing:0" line-height="125%" y="130.69" x="760.69" font-family="&apos;Gentium Book Basic&apos;">
  <tspan id="tspan19" y="130.69" x="760.69"/>
 </text>
 <text id="text21" style="text-anchor:middle" transform="scale(4.0128 .24920)" font-size="46.954px" y="175.2691" x="386.63803" font-family="Arial"/>
 <text id="text23" font-size="129.23px" style="word-spacing:0;letter-spacing:0" line-height="125%" y="-50.57" x="-310.89001" font-family="&apos;Gentium Book Basic&apos;">
  <tspan id="tspan25" y="-50.57" x="-310.89001"/>
 </text>
 <text id="text27" style="text-anchor:middle" transform="scale(4.0128 .24920)" font-size="46.954px" y="-552.0672" x="119.59939" font-family="Arial"/>
 <text id="text29" font-size="129.23px" style="word-spacing:0;letter-spacing:0" line-height="125%" y="-267.04001" x="787.15997" font-family="&apos;Gentium Book Basic&apos;">
  <tspan id="tspan31" y="-267.04001" x="787.15997"/>
 </text>
 <text id="text33" style="text-anchor:middle" transform="scale(4.0128 .24920)" font-size="46.954px" y="-1420.7427" x="393.23798" font-family="Arial"/>
 <text id="text35" font-size="129.23px" style="word-spacing:0;letter-spacing:0" line-height="125%" y="-347.04001" x="1368.4301" font-family="&apos;Gentium Book Basic&apos;">
  <tspan id="tspan37" y="-347.04001" x="1368.4301"/>
 </text>
 <text id="text39" style="text-anchor:middle" transform="scale(4.0128 .24920)" font-size="46.954px" y="-1741.7711" x="538.08728" font-family="Arial"/>
 <text id="text41" font-size="129.23px" style="word-spacing:0;letter-spacing:0" line-height="125%" y="-819.44" x="979.31" font-family="&apos;Gentium Book Basic&apos;">
  <tspan id="tspan43" y="-819.44" x="979.31"/>
 </text>
 <text id="text45" style="text-anchor:middle" transform="scale(4.0128 .24920)" font-size="46.954px" y="-3637.4114" x="441.11774" font-family="Arial"/>
 <text id="text47" font-size="129.23px" style="word-spacing:0;letter-spacing:0" line-height="125%" y="-899.45001" x="1560.5699" font-family="&apos;Gentium Book Basic&apos;">
  <tspan id="tspan49" y="-899.45001" x="1560.5699"/>
 </text>
 <text id="text51" style="text-anchor:middle" transform="scale(4.0128 .24920)" font-size="46.954px" y="-3958.4397" x="585.96698" font-family="Arial"/>
 <text id="text53" font-size="208.33px" style="word-spacing:0;letter-spacing:0" line-height="125%" y="515.27002" x="-272.23001" font-family="&apos;Gentium Book Basic&apos;">
  <tspan id="tspan55" y="515.27002" x="-272.23001"/>
 </text>
 <path id="path59" opacity=".25" d="m256.86 83.811c-67.09 0.179-132.98 11.404-191.21 30.979l66.96 66.95-66.96-66.95c-11.11 22.55-16.337 45.85-24.65 69.42l13.416 13.42c-3.857-0.72-7.724-1.53-11.635-2.44h-0.002-0.002c-0.787 15.1-0.323 31.84 6.135 38.3h0.002l66.326 66.33c-24.229 44.22-24 68.72-24 128.37l83.81 83.81h310.95c14.4 0 26-11.6 26-26v-302.97l-68.24-68.24c-59.81-21.554-123.87-31.14-186.9-30.976v-0.003z"/>
 <path id="path191" d="m256.86 83.81c-67.09 0.179-132.98 11.405-191.21 30.97-11.11 22.56-16.337 45.85-24.65 69.42 43.538 18.11 91.64 2.08 110.24-13.621 3.46-7.567 5.61-19.11 10.371-22.715 57.976-20.352 153.42-21.839 191.36 3.871 3.243 2.594 8.436 22.06 8.436 22.06 28.15 15.403 82.3 21.549 109.59 10.407l-27.24-69.42c-59.81-21.547-123.87-31.133-186.9-30.968m-83.999 83.85 0.914 43.13c-83.12 117.53-82.53 127.65-82.53 217.4h329.84c0-83.58 11.359-84.96-77.6-216.49v-44.04h-54.12v31.19h-66.939v-31.19h-49.555m-21.838 16.982c-45.04 20.03-75.15 18.202-108.24 10.554-0.866 16.604-0.218 35.2 8.253 39.915 28.992 14.572 87.68 13.01 100.43-27.535 0.879-2.714-0.178-14.94-0.438-22.935m209.44 0c-0.26 7.993-1.354 20.22-0.474 22.935 12.744 40.544 71.44 42.11 100.43 27.535 8.478-4.712 9.155-23.311 8.289-39.915-33.09 7.644-63.21 9.48-108.24-10.554m-166.42 49.48h28.23v19.796h-28.23v-19.796m46.38 0h28.23v19.796h-28.23v-19.796m46.38 0h28.23v19.796h-28.23v-19.796m-92.76 34.33h28.23v19.754h-28.23v-19.754m46.38 0h28.23v19.754h-28.23v-19.754m46.38 0h28.23v19.754h-28.23v-19.754m-92.76 34.29h28.23v19.796h-28.23v-19.796m46.38 0h28.23v19.796h-28.23v-19.796m46.38 0h28.23v19.796h-28.23v-19.796" fill="#fff"/>
</svg>
