<?xml version="1.0" encoding="UTF-8" standalone="no"?>
<!-- Created with Inkscape (http://www.inkscape.org/) -->
<svg id="svg2" xmlns:rdf="http://www.w3.org/1999/02/22-rdf-syntax-ns#" xmlns="http://www.w3.org/2000/svg" height="100%" width="100%" version="1.1" xmlns:cc="http://creativecommons.org/ns#" xmlns:dc="http://purl.org/dc/elements/1.1/" viewBox="0 0 512 512">
 <metadata id="metadata10">
  <rdf:RDF>
   <cc:Work rdf:about="">
    <dc:format>image/svg+xml</dc:format>
    <dc:type rdf:resource="http://purl.org/dc/dcmitype/StillImage"/>
    <dc:title/>
   </cc:Work>
  </rdf:RDF>
 </metadata>
 <path id="path9" d="m26 0c-14.397 0-26 11.603-26 26v460c0 14.397 11.603 26 26 26h460c14.397 0 26-11.603 26-26v-460c0-14.397-11.6-26-26-26h-460" fill="#555753"/>
 <text id="text11" font-size="129.23px" style="word-spacing:0;letter-spacing:0" line-height="125%" y="219.89" x="87.379997" font-family="&apos;Gentium Book Basic&apos;">
  <tspan id="tspan13" y="219.89" x="87.379997"/>
 </text>
 <text id="text15" style="text-anchor:middle" transform="scale(4.0128 .24920)" font-size="46.954px" y="533.23724" x="218.85889" font-family="Arial"/>
 <text id="text17" font-size="129.23px" style="word-spacing:0;letter-spacing:0" line-height="125%" y="139.89" x="668.65002" font-family="&apos;Gentium Book Basic&apos;">
  <tspan id="tspan19" y="139.89" x="668.65002"/>
 </text>
 <text id="text21" style="text-anchor:middle" transform="scale(4.0128 .24920)" font-size="46.954px" y="212.20892" x="363.69815" font-family="Arial"/>
 <text id="text23" font-size="129.23px" style="word-spacing:0;letter-spacing:0" line-height="125%" y="-41.369999" x="-402.92999" font-family="&apos;Gentium Book Basic&apos;">
  <tspan id="tspan25" y="-41.369999" x="-402.92999"/>
 </text>
 <text id="text27" style="text-anchor:middle" transform="scale(4.0128 .24920)" font-size="46.954px" y="-515.1474" x="96.669502" font-family="Arial"/>
 <text id="text29" font-size="129.23px" style="word-spacing:0;letter-spacing:0" line-height="125%" y="-257.84" x="695.12" font-family="&apos;Gentium Book Basic&apos;">
  <tspan id="tspan31" y="-257.84" x="695.12"/>
 </text>
 <text id="text33" style="text-anchor:middle" transform="scale(4.0128 .24920)" font-size="46.954px" y="-1383.803" x="370.2981" font-family="Arial"/>
 <text id="text35" font-size="129.23px" style="word-spacing:0;letter-spacing:0" line-height="125%" y="-337.85001" x="1276.39" font-family="&apos;Gentium Book Basic&apos;">
  <tspan id="tspan37" y="-337.85001" x="1276.39"/>
 </text>
 <text id="text39" style="text-anchor:middle" transform="scale(4.0128 .24920)" font-size="46.954px" y="-1704.8412" x="515.1474" font-family="Arial"/>
 <text id="text41" font-size="129.23px" style="word-spacing:0;letter-spacing:0" line-height="125%" y="-810.25" x="887.27002" font-family="&apos;Gentium Book Basic&apos;">
  <tspan id="tspan43" y="-810.25" x="887.27002"/>
 </text>
 <text id="text45" style="text-anchor:middle" transform="scale(4.0128 .24920)" font-size="46.954px" y="-3600.4814" x="418.17786" font-family="Arial"/>
 <text id="text47" font-size="129.23px" style="word-spacing:0;letter-spacing:0" line-height="125%" y="-890.25" x="1468.53" font-family="&apos;Gentium Book Basic&apos;">
  <tspan id="tspan49" y="-890.25" x="1468.53"/>
 </text>
 <text id="text51" style="text-anchor:middle" transform="scale(4.0128 .24920)" font-size="46.954px" y="-3921.51" x="563.02716" font-family="Arial"/>
 <text id="text53" font-size="208.33px" style="word-spacing:0;letter-spacing:0" line-height="125%" y="524.46997" x="-364.26999" font-family="&apos;Gentium Book Basic&apos;">
  <tspan id="tspan55" y="524.46997" x="-364.26999"/>
 </text>
 <path id="path59" opacity=".25" d="m370.96 60.688c-4.13-0.067-8.11 1.167-11.68 4.093l-144.81 119c-3.65 3-7.25 6.06-10.59 9.25l-124.69 33.37 147.79 147.8v0.01l-147.79-147.8c-11.101 2.98-18.748 12.31-20.059 23.03l-2.438 0.66-0.005-0.01c-11.314 3.03-18 14.59-14.969 25.91l92.041 92.03h-0.01l-92.031-92.03 19.281 71.97c0.999 3.73 2.923 6.95 5.459 9.49l154.54 154.54h265c14.4 0 26-11.6 26-26v-295.12l-119.06-119.06c0.14 0.146 0.28 0.294 0.42 0.438l-0.43-0.43c-6.6-6.603-14.5-11.017-21.96-11.14v0h-0.01z"/>
 <path id="path119" d="m370.97 60.688c-4.135-0.068-8.12 1.166-11.688 4.094l-144.81 119c-3.648 2.996-7.249 6.06-10.594 9.25l-124.69 33.375c-11.1 2.976-18.749 12.312-20.06 23.03l-2.438 0.656c-11.313 3.03-18 14.593-14.969 25.906l19.281 71.969c3.03 11.313 14.593 17.969 25.906 14.938l2.469-0.656c6.496 8.632 17.767 12.914 28.875 9.938l33.22-8.906 15.09 56.28c5.908 22.05 25.768 35.746 44.531 30.719 18.763-5.03 29.1-26.827 23.19-48.875l-15.09-56.28 21.969-5.875c5.141 1.391 10.531 2.455 15.906 3.5l186.41 36.28c20.712 4.03 31.941-28.01 25.906-50.53l-21.781-81.28c15.811-6.218 24.635-24.13 19.906-41.781-4.73-17.654-21.319-28.809-38.12-26.28l-22.42-83.55c-4.715-17.598-21.232-34.662-36-34.906" fill="#fff"/>
</svg>
