<?xml version="1.0" encoding="UTF-8" standalone="no"?>
<!-- Created with Inkscape (http://www.inkscape.org/) -->
<svg id="svg2" xmlns:rdf="http://www.w3.org/1999/02/22-rdf-syntax-ns#" xmlns="http://www.w3.org/2000/svg" height="100%" width="100%" version="1.1" xmlns:cc="http://creativecommons.org/ns#" xmlns:dc="http://purl.org/dc/elements/1.1/" viewBox="0 0 512 512">
 <metadata id="metadata157">
  <rdf:RDF>
   <cc:Work rdf:about="">
    <dc:format>image/svg+xml</dc:format>
    <dc:type rdf:resource="http://purl.org/dc/dcmitype/StillImage"/>
   </cc:Work>
  </rdf:RDF>
 </metadata>
 <path id="path9" d="m26 0c-14.397 0-26 11.603-26 26v460c0 14.397 11.603 26 26 26h460c14.397 0 26-11.603 26-26v-460c0-14.397-11.6-26-26-26h-460" fill="#6ea6c1"/>
 <text id="text11" style="word-spacing:0;letter-spacing:0" font-size="129.23px" line-height="125%" y="219.89" x="-72.160004" font-family="Gentium Book Basic">
  <tspan id="tspan13" y="219.89" x="-72.160004"/>
 </text>
 <text id="text15" style="text-anchor:middle" transform="scale(4.0128 .2492)" font-size="46.954px" y="533.23999" x="179.10001" font-family="Arial"/>
 <text id="text17" style="word-spacing:0;letter-spacing:0" font-size="129.23px" line-height="125%" y="139.89" x="509.10999" font-family="Gentium Book Basic">
  <tspan id="tspan19" y="139.89" x="509.10999"/>
 </text>
 <text id="text21" style="text-anchor:middle" transform="scale(4.0128 .2492)" font-size="46.954px" y="212.21001" x="323.95001" font-family="Arial"/>
 <text id="text23" style="word-spacing:0;letter-spacing:0" font-size="129.23px" line-height="125%" y="-41.369999" x="-562.46997" font-family="Gentium Book Basic">
  <tspan id="tspan25" y="-41.369999" x="-562.46997"/>
 </text>
 <text id="text27" style="text-anchor:middle" transform="scale(4.0128 .2492)" font-size="46.954px" y="-515.15002" x="56.908001" font-family="Arial"/>
 <text id="text29" style="word-spacing:0;letter-spacing:0" font-size="129.23px" line-height="125%" y="-257.84" x="535.58002" font-family="Gentium Book Basic">
  <tspan id="tspan31" y="-257.84" x="535.58002"/>
 </text>
 <text id="text33" style="text-anchor:middle" transform="scale(4.0128 .2492)" font-size="46.954px" y="-1383.8101" x="330.54999" font-family="Arial"/>
 <text id="text35" style="word-spacing:0;letter-spacing:0" font-size="129.23px" line-height="125%" y="-337.85001" x="1116.85" font-family="Gentium Book Basic">
  <tspan id="tspan37" y="-337.85001" x="1116.85"/>
 </text>
 <text id="text39" style="text-anchor:middle" transform="scale(4.0128 .2492)" font-size="46.954px" y="-1704.85" x="475.39999" font-family="Arial"/>
 <text id="text41" style="word-spacing:0;letter-spacing:0" font-size="129.23px" line-height="125%" y="-810.25" x="727.72998" font-family="Gentium Book Basic">
  <tspan id="tspan43" y="-810.25" x="727.72998"/>
 </text>
 <text id="text45" style="text-anchor:middle" transform="scale(4.0128 .2492)" font-size="46.954px" y="-3600.5" x="378.42999" font-family="Arial"/>
 <text id="text47" style="word-spacing:0;letter-spacing:0" font-size="129.23px" line-height="125%" y="-890.25" x="1308.99" font-family="Gentium Book Basic">
  <tspan id="tspan49" y="-890.25" x="1308.99"/>
 </text>
 <text id="text51" style="text-anchor:middle" transform="scale(4.0128 .2492)" font-size="46.954px" y="-3921.53" x="523.28003" font-family="Arial"/>
 <g id="g53" style="word-spacing:0;letter-spacing:0" font-family="Gentium Book Basic" font-size="208.33px" line-height="125%">
  <text id="text55" y="524.46997" x="-523.81">
   <tspan id="tspan57" y="524.46997" x="-523.81"/>
  </text>
  <text id="text59" y="401.79999" x="-2573.22">
   <tspan id="tspan61" y="401.79999" x="-2573.22"/>
  </text>
 </g>
 <text id="text63" style="text-anchor:middle" transform="scale(4.0128 .2492)" font-size="75.7px" y="1049.47" x="-323.51999" font-family="Arial"/>
 <text id="text65" style="word-spacing:0;letter-spacing:0" font-size="208.33px" line-height="125%" y="847.71002" x="-2015.04" font-family="Gentium Book Basic">
  <tspan id="tspan67" y="847.71002" x="-2015.04"/>
 </text>
 <text id="text69" style="text-anchor:middle" transform="scale(4.0128 .2492)" font-size="75.7px" y="2838.8301" x="-184.42" font-family="Arial"/>
 <g id="g71" style="word-spacing:0;letter-spacing:0" line-height="125%">
  <text id="text73" font-size="40px" y="610.19" x="73.650002" font-family="Sans">
   <tspan id="tspan75" font-style="italic" y="610.19" x="73.650002" font-weight="bold"/>
  </text>
  <text id="text77" font-size="208.33px" y="412.67001" x="-2687.99" font-family="Gentium Book Basic">
   <tspan id="tspan79" y="412.67001" x="-2687.99"/>
  </text>
 </g>
 <text id="text81" style="text-anchor:middle" transform="scale(4.0128 .2492)" font-size="75.7px" y="1093.11" x="-352.12" font-family="Arial"/>
 <text id="text83" style="word-spacing:0;letter-spacing:0" font-size="208.33px" line-height="125%" y="257.04001" x="-1981.65" font-family="Gentium Book Basic">
  <tspan id="tspan85" y="257.04001" x="-1981.65"/>
 </text>
 <text id="text87" style="text-anchor:middle" transform="scale(4.0128 .2492)" font-size="75.7px" y="468.60001" x="-176.10001" font-family="Arial"/>
 <text id="text89" style="word-spacing:0;letter-spacing:0" font-size="208.33px" line-height="125%" y="248.92" x="-1948.28" font-family="Gentium Book Basic">
  <tspan id="tspan91" y="248.92" x="-1948.28"/>
 </text>
 <text id="text93" style="text-anchor:middle" transform="scale(4.0128 .2492)" font-size="75.7px" y="436" x="-167.78999" font-family="Arial"/>
 <text id="text95" style="word-spacing:0;letter-spacing:0" font-size="208.33px" line-height="125%" y="281.84" x="-2569.99" font-family="Gentium Book Basic">
  <tspan id="tspan97" y="281.84" x="-2569.99"/>
 </text>
 <text id="text99" style="text-anchor:middle" transform="scale(4.0128 .2492)" font-size="75.7px" y="568.12" x="-322.72" font-family="Arial"/>
 <path id="path103" opacity=".25" fill-rule="evenodd" d="m255.99 40.996v0.004c-118.72 0.003-214.99 96.26-214.99 215 0 53.51 19.579 102.44 51.926 140.07h0.002l-42.188 72.85h0.004-0.01l43.08 43.08h392.19c14.4 0 26-11.6 26-26v-278.05l-103.97-103.98c0.08 0.08 0.16 0.17 0.24 0.25l-0.25-0.25c-38.91-38.906-92.66-62.974-152.03-62.974z"/>
 <path id="path153" fill="#fff" d="m256 41c-118.73 0-215 96.26-215 215 0 53.51 19.578 102.44 51.925 140.07l-42.19 72.846h175.54c9.719 1.345 19.633 2.079 29.722 2.079 118.73 0 215-96.26 215-215 0-118.73-96.26-215-215-215m-126.63 174.13c24.873 0 45.03 20.15 45.03 45.03 0 24.873-20.15 45.03-45.03 45.03-24.873 0-45.03-20.15-45.03-45.03 0-24.873 20.15-45.03 45.03-45.03m130.83 0c24.873 0 45.03 20.15 45.03 45.03 0 24.873-20.15 45.03-45.03 45.03-24.873 0-45.03-20.15-45.03-45.03 0-24.873 20.15-45.03 45.03-45.03m130.83 0c24.873 0 45.03 20.15 45.03 45.03 0 24.873-20.15 45.03-45.03 45.03-24.873 0-45.03-20.15-45.03-45.03 0-24.873 20.15-45.03 45.03-45.03" fill-rule="evenodd"/>
</svg>
