<?xml version="1.0" encoding="UTF-8" standalone="no"?>
<!-- Created with Inkscape (http://www.inkscape.org/) -->
<svg id="svg2" xmlns:rdf="http://www.w3.org/1999/02/22-rdf-syntax-ns#" xmlns="http://www.w3.org/2000/svg" height="100%" width="100%" version="1.1" xmlns:cc="http://creativecommons.org/ns#" xmlns:dc="http://purl.org/dc/elements/1.1/" viewBox="0 0 512 512">
 <metadata id="metadata157">
  <rdf:RDF>
   <cc:Work rdf:about="">
    <dc:format>image/svg+xml</dc:format>
    <dc:type rdf:resource="http://purl.org/dc/dcmitype/StillImage"/>
    <dc:title/>
   </cc:Work>
  </rdf:RDF>
 </metadata>
 <path id="rect2986" fill="#d23638" d="m26 0c-14.397 0-26 11.603-26 26v460c0 14.397 11.603 26 26 26h460c14.397 0 26-11.603 26-26v-460c0-14.397-11.6-26-26-26h-460z"/>
 <text id="text20" font-size="129.23px" style="word-spacing:0;letter-spacing:0" line-height="125%" y="186.68378" x="133.07822" font-family="&apos;Gentium Book Basic&apos;">
  <tspan id="tspan22" y="186.68378" x="133.07822"/>
 </text>
 <text id="text24" style="text-anchor:middle" transform="scale(4.0128 .24920)" font-size="46.954px" y="399.98059" x="230.24409" font-family="Arial"/>
 <text id="text26" font-size="129.23px" style="word-spacing:0;letter-spacing:0" line-height="125%" y="106.68378" x="714.34821" font-family="&apos;Gentium Book Basic&apos;">
  <tspan id="tspan28" y="106.68378" x="714.34821"/>
 </text>
 <text id="text30" style="text-anchor:middle" transform="scale(4.0128 .24920)" font-size="46.954px" y="78.942451" x="375.09335" font-family="Arial"/>
 <text id="text32" font-size="129.23px" style="word-spacing:0;letter-spacing:0" line-height="125%" y="-74.576195" x="-357.23181" font-family="&apos;Gentium Book Basic&apos;">
  <tspan id="tspan34" y="-74.576195" x="-357.23181"/>
 </text>
 <text id="text36" style="text-anchor:middle" transform="scale(4.0128 .24920)" font-size="46.954px" y="-648.40393" x="108.05473" font-family="Arial"/>
 <text id="text38" font-size="129.23px" style="word-spacing:0;letter-spacing:0" line-height="125%" y="-291.0462" x="740.81818" font-family="&apos;Gentium Book Basic&apos;">
  <tspan id="tspan40" y="-291.0462" x="740.81818"/>
 </text>
 <text id="text42" style="text-anchor:middle" transform="scale(4.0128 .24920)" font-size="46.954px" y="-1517.0795" x="381.69333" font-family="Arial"/>
 <text id="text44" font-size="129.23px" style="word-spacing:0;letter-spacing:0" line-height="125%" y="-371.04617" x="1322.0883" font-family="&apos;Gentium Book Basic&apos;">
  <tspan id="tspan46" y="-371.04617" x="1322.0883"/>
 </text>
 <text id="text48" style="text-anchor:middle" transform="scale(4.0128 .24920)" font-size="46.954px" y="-1838.1078" x="526.5426" font-family="Arial"/>
 <text id="text50" font-size="129.23px" style="word-spacing:0;letter-spacing:0" line-height="125%" y="-843.44623" x="932.9682" font-family="&apos;Gentium Book Basic&apos;">
  <tspan id="tspan52" y="-843.44623" x="932.9682"/>
 </text>
 <text id="text54" style="text-anchor:middle" transform="scale(4.0128 .24920)" font-size="46.954px" y="-3733.7583" x="429.57303" font-family="Arial"/>
 <text id="text56" font-size="129.23px" style="word-spacing:0;letter-spacing:0" line-height="125%" y="-923.45624" x="1514.2283" font-family="&apos;Gentium Book Basic&apos;">
  <tspan id="tspan58" y="-923.45624" x="1514.2283"/>
 </text>
 <text id="text60" style="text-anchor:middle" transform="scale(4.0128 .24920)" font-size="46.954px" y="-4054.7966" x="574.42236" font-family="Arial"/>
 <text id="text62" font-size="208.33px" style="word-spacing:0;letter-spacing:0" line-height="125%" y="491.26389" x="-318.57181" font-family="&apos;Gentium Book Basic&apos;">
  <tspan id="tspan64" y="491.26389" x="-318.57181"/>
 </text>
 <text id="text3106" font-size="129.23px" style="word-spacing:0;letter-spacing:0" line-height="125%" y="192.82483" x="79.523651" font-family="&apos;Gentium Book Basic&apos;">
  <tspan id="tspan3108" y="192.82483" x="79.523651"/>
 </text>
 <text id="text3110" style="text-anchor:middle" transform="scale(4.0128 .24920)" font-size="46.954px" y="424.61401" x="216.8903" font-family="Arial"/>
 <text id="text3112" font-size="129.23px" style="word-spacing:0;letter-spacing:0" line-height="125%" y="112.82484" x="660.78351" font-family="&apos;Gentium Book Basic&apos;">
  <tspan id="tspan3114" y="112.82484" x="660.78351"/>
 </text>
 <text id="text3116" style="text-anchor:middle" transform="scale(4.0128 .24920)" font-size="46.954px" y="103.57572" x="361.73959" font-family="Arial"/>
 <text id="text3118" font-size="129.23px" style="word-spacing:0;letter-spacing:0" line-height="125%" y="-68.435165" x="-410.78638" font-family="&apos;Gentium Book Basic&apos;">
  <tspan id="tspan3120" y="-68.435165" x="-410.78638"/>
 </text>
 <text id="text3122" style="text-anchor:middle" transform="scale(4.0128 .24920)" font-size="46.954px" y="-623.77051" x="94.710945" font-family="Arial"/>
 <text id="text3124" font-size="129.23px" style="word-spacing:0;letter-spacing:0" line-height="125%" y="-284.90515" x="687.26361" font-family="&apos;Gentium Book Basic&apos;">
  <tspan id="tspan3126" y="-284.90515" x="687.26361"/>
 </text>
 <text id="text3128" style="text-anchor:middle" transform="scale(4.0128 .24920)" font-size="46.954px" y="-1492.436" x="368.33951" font-family="Arial"/>
 <text id="text3130" font-size="129.23px" style="word-spacing:0;letter-spacing:0" line-height="125%" y="-364.91516" x="1268.5237" font-family="&apos;Gentium Book Basic&apos;">
  <tspan id="tspan3132" y="-364.91516" x="1268.5237"/>
 </text>
 <text id="text3134" style="text-anchor:middle" transform="scale(4.0128 .24920)" font-size="46.954px" y="-1813.4744" x="513.18878" font-family="Arial"/>
 <text id="text3136" font-size="129.23px" style="word-spacing:0;letter-spacing:0" line-height="125%" y="-837.31519" x="879.4035" font-family="&apos;Gentium Book Basic&apos;">
  <tspan id="tspan3138" y="-837.31519" x="879.4035"/>
 </text>
 <text id="text3140" style="text-anchor:middle" transform="scale(4.0128 .24920)" font-size="46.954px" y="-3709.1248" x="416.21927" font-family="Arial"/>
 <text id="text3142" font-size="129.23px" style="word-spacing:0;letter-spacing:0" line-height="125%" y="-917.31519" x="1460.6736" font-family="&apos;Gentium Book Basic&apos;">
  <tspan id="tspan3144" y="-917.31519" x="1460.6736"/>
 </text>
 <text id="text3146" style="text-anchor:middle" transform="scale(4.0128 .24920)" font-size="46.954px" y="-4030.1633" x="561.07855" font-family="Arial"/>
 <text id="text3148" font-size="208.33px" style="word-spacing:0;letter-spacing:0" line-height="125%" y="497.40482" x="-372.13635" font-family="&apos;Gentium Book Basic&apos;">
  <tspan id="tspan3150" y="497.40482" x="-372.13635"/>
 </text>
 <text id="text3180" font-size="129.23px" style="word-spacing:0;letter-spacing:0" line-height="125%" y="54.344833" x="-487.39636" font-family="&apos;Gentium Book Basic&apos;">
  <tspan id="tspan3182" y="54.344833" x="-487.39636"/>
 </text>
 <text id="text3184" style="text-anchor:middle" transform="scale(4.0128 .24920)" font-size="46.954px" y="-131.08305" x="75.62104" font-family="Arial"/>
 <text id="text3186" font-size="129.23px" style="word-spacing:0;letter-spacing:0" line-height="125%" y="-25.655167" x="93.873627" font-family="&apos;Gentium Book Basic&apos;">
  <tspan id="tspan3188" y="-25.655167" x="93.873627"/>
 </text>
 <text id="text3190" style="text-anchor:middle" transform="scale(4.0128 .24920)" font-size="46.954px" y="-452.11142" x="220.47032" font-family="Arial"/>
 <text id="text3192" font-size="129.23px" style="word-spacing:0;letter-spacing:0" line-height="125%" y="-206.91617" x="-977.70642" font-family="&apos;Gentium Book Basic&apos;">
  <tspan id="tspan3194" y="-206.91617" x="-977.70642"/>
 </text>
 <text id="text3196" style="text-anchor:middle" transform="scale(4.0128 .24920)" font-size="46.954px" y="-1179.4677" x="-46.568336" font-family="Arial"/>
 <text id="text3198" font-size="129.23px" style="word-spacing:0;letter-spacing:0" line-height="125%" y="-423.38516" x="120.3436" font-family="&apos;Gentium Book Basic&apos;">
  <tspan id="tspan3200" y="-423.38516" x="120.3436"/>
 </text>
 <text id="text3202" style="text-anchor:middle" transform="scale(4.0128 .24920)" font-size="46.954px" y="-2048.1233" x="227.07027" font-family="Arial"/>
 <text id="text3204" font-size="129.23px" style="word-spacing:0;letter-spacing:0" line-height="125%" y="-503.39517" x="701.61359" font-family="&apos;Gentium Book Basic&apos;">
  <tspan id="tspan3206" y="-503.39517" x="701.61359"/>
 </text>
 <text id="text3208" style="text-anchor:middle" transform="scale(4.0128 .24920)" font-size="46.954px" y="-2369.1616" x="371.91953" font-family="Arial"/>
 <text id="text3210" font-size="129.23px" style="word-spacing:0;letter-spacing:0" line-height="125%" y="-975.79523" x="312.49362" font-family="&apos;Gentium Book Basic&apos;">
  <tspan id="tspan3212" y="-975.79523" x="312.49362"/>
 </text>
 <text id="text3214" style="text-anchor:middle" transform="scale(4.0128 .24920)" font-size="46.954px" y="-4264.8018" x="274.95001" font-family="Arial"/>
 <text id="text3216" font-size="129.23px" style="word-spacing:0;letter-spacing:0" line-height="125%" y="-1055.7952" x="893.7536" font-family="&apos;Gentium Book Basic&apos;">
  <tspan id="tspan3218" y="-1055.7952" x="893.7536"/>
 </text>
 <text id="text3220" style="text-anchor:middle" transform="scale(4.0128 .24920)" font-size="46.954px" y="-4585.8301" x="419.79929" font-family="Arial"/>
 <text id="text3222" font-size="208.33px" style="word-spacing:0;letter-spacing:0" line-height="125%" y="358.92484" x="-939.04639" font-family="&apos;Gentium Book Basic&apos;">
  <tspan id="tspan3224" y="358.92484" x="-939.04639"/>
 </text>
 <path id="path3480" opacity=".25" style="color:#000000" d="m255.81 41c-81.25 0-152.34 44.158-190.58 109.72l175.76 175.76 0.18 97.72h-54.67c-12.96 0-23.36 10.48-23.36 23.45 0 6.48 2.6 12.32 6.82 16.53l47.82 47.82h268.22c14.4 0 26-11.6 26-26v-280.01l-100.39-100.39c-39.9-39.904-95-64.6-155.8-64.6z"/>
 <path id="path3160" style="color:#000000" d="m255.81 41c-81.25 0-152.34 44.158-190.58 109.72l21.732 12.511c33.798-58.04 96.718-96.93 168.85-96.93 72.408 0 135.46 39.222 169.13 97.63l21.824-12.557c-38.12-65.948-109.41-110.37-190.95-110.37zm0 58.245c-59.748 0-112.03 32.387-140.17 80.579l14.503 8.3869c25.186-43.17 72.005-72.145 125.66-72.145 53.952 0 100.97 29.282 126.03 72.841l14.457-8.4332c-28.04-48.54-80.46-81.235-140.48-81.235zm0 66.075c-35.311 0-66.227 19.105-82.942 47.541l10.148 5.8847c14.628-24.946 41.728-41.656 72.794-41.656 31.325 0 58.578 17.013 73.119 42.305l10.148-5.8384c-16.612-28.799-47.689-48.236-83.266-48.236zm0 52.36c-16.453 0-29.748 13.297-29.748 29.748 0 11.027 5.9252 20.706 14.828 25.856l0.27802 150.92h-54.677c-12.96 0-23.353 10.484-23.353 23.446 0 12.96 10.393 23.353 23.353 23.353h138.59c12.96 0 23.353-10.393 23.353-23.353s-10.393-23.446-23.353-23.446h-54.445l-0.23168-150.73c9.049-5.1117 15.152-14.862 15.152-25.995 0-16.453-13.297-29.748-29.748-29.748v-0.0463z" fill="#fff"/>
</svg>
