<?xml version="1.0" encoding="UTF-8" standalone="no"?>
<!-- Created with Inkscape (http://www.inkscape.org/) -->
<svg id="svg2" xmlns:rdf="http://www.w3.org/1999/02/22-rdf-syntax-ns#" xmlns="http://www.w3.org/2000/svg" height="100%" width="100%" version="1.1" xmlns:cc="http://creativecommons.org/ns#" xmlns:dc="http://purl.org/dc/elements/1.1/" viewBox="0 0 512 512">
 <metadata id="metadata157">
  <rdf:RDF>
   <cc:Work rdf:about="">
    <dc:format>image/svg+xml</dc:format>
    <dc:type rdf:resource="http://purl.org/dc/dcmitype/StillImage"/>
    <dc:title/>
   </cc:Work>
  </rdf:RDF>
 </metadata>
 <path id="path9" d="m26 0c-14.397 0-26 11.603-26 26v460c0 14.397 11.603 26 26 26h460c14.397 0 26-11.603 26-26v-460c0-14.397-11.6-26-26-26h-460" fill="#f69033"/>
 <text id="text11" font-size="129.23px" style="word-spacing:0;letter-spacing:0" line-height="125%" y="195.89" x="-161.46001" font-family="&apos;Gentium Book Basic&apos;">
  <tspan id="tspan13" y="195.89" x="-161.46001"/>
 </text>
 <text id="text15" style="text-anchor:middle" transform="scale(4.0128 .24920)" font-size="46.954px" y="436.89777" x="156.83919" font-family="Arial"/>
 <text id="text17" font-size="129.23px" style="word-spacing:0;letter-spacing:0" line-height="125%" y="115.89" x="419.81" font-family="&apos;Gentium Book Basic&apos;">
  <tspan id="tspan19" y="115.89" x="419.81"/>
 </text>
 <text id="text21" style="text-anchor:middle" transform="scale(4.0128 .24920)" font-size="46.954px" y="115.8794" x="301.68845" font-family="Arial"/>
 <text id="text23" font-size="129.23px" style="word-spacing:0;letter-spacing:0" line-height="125%" y="-65.370003" x="-651.77002" font-family="&apos;Gentium Book Basic&apos;">
  <tspan id="tspan25" y="-65.370003" x="-651.77002"/>
 </text>
 <text id="text27" style="text-anchor:middle" transform="scale(4.0128 .24920)" font-size="46.954px" y="-611.47687" x="34.654819" font-family="Arial"/>
 <text id="text29" font-size="129.23px" style="word-spacing:0;letter-spacing:0" line-height="125%" y="-281.84" x="446.28" font-family="&apos;Gentium Book Basic&apos;">
  <tspan id="tspan31" y="-281.84" x="446.28"/>
 </text>
 <text id="text33" style="text-anchor:middle" transform="scale(4.0128 .24920)" font-size="46.954px" y="-1480.1425" x="308.28842" font-family="Arial"/>
 <text id="text35" font-size="129.23px" style="word-spacing:0;letter-spacing:0" line-height="125%" y="-361.85001" x="1027.55" font-family="&apos;Gentium Book Basic&apos;">
  <tspan id="tspan37" y="-361.85001" x="1027.55"/>
 </text>
 <text id="text39" style="text-anchor:middle" transform="scale(4.0128 .24920)" font-size="46.954px" y="-1801.1708" x="453.1377" font-family="Arial"/>
 <text id="text41" font-size="129.23px" style="word-spacing:0;letter-spacing:0" line-height="125%" y="-834.25" x="638.42999" font-family="&apos;Gentium Book Basic&apos;">
  <tspan id="tspan43" y="-834.25" x="638.42999"/>
 </text>
 <text id="text45" style="text-anchor:middle" transform="scale(4.0128 .24920)" font-size="46.954px" y="-3696.811" x="356.16818" font-family="Arial"/>
 <text id="text47" font-size="129.23px" style="word-spacing:0;letter-spacing:0" line-height="125%" y="-914.25" x="1219.6899" font-family="&apos;Gentium Book Basic&apos;">
  <tspan id="tspan49" y="-914.25" x="1219.6899"/>
 </text>
 <text id="text51" style="text-anchor:middle" transform="scale(4.0128 .24920)" font-size="46.954px" y="-4017.8396" x="501.01743" font-family="Arial"/>
 <text id="text53" font-size="208.33px" style="word-spacing:0;letter-spacing:0" line-height="125%" y="500.47" x="-613.10999" font-family="&apos;Gentium Book Basic&apos;">
  <tspan id="tspan55" y="500.47" x="-613.10999"/>
 </text>
 <path id="path59" opacity=".25" fill-rule="evenodd" d="m369.75 41c-3.87-0.012-6.98 3.482-7 7.781v0.002l-0.04 8.942-13.94-13.94-0.02-0.019c-1.23-1.232-2.86-1.981-4.66-1.989-3.87-0.015-6.99 3.431-7.01 7.735l-0.04 8.545-14.34-14.34c0.01 0.013 0.03 0.028 0.04 0.041l-0.04-0.039c-1.23-1.232-2.86-1.981-4.66-1.989-3.87-0.015-6.99 3.431-7.01 7.735l-0.04 10.004-14.3-14.299c-1.23-1.231-2.86-1.98-4.66-1.988v-0.002c-3.87-0.017-7.04 3.479-7.06 7.781l13.96 13.955v0.004l-13.96-13.955c-0.18 38.328-0.26 56.945-0.34 78.995l-49.23-49.23c-9.69-9.693-21.53-15.547-34.45-15.962-0.54-0.017-1.1-0.001-1.64 0l58.59 58.592c0 0.01 0 0.02 0.01 0.03l-58.61-58.607c-33.99 0.119-62.46 38.157-63.95 85.997l90.05 90.05-90.05-90.05c-0.95 30.48 9.29 57.68 25.61 74l11.65 11.65 0.24 234.55 0.01 0.01h-0.01l41.01 41.01h272.14c14.4 0 26-11.6 26-26v-305.4l-137.61-137.61c-1.23-1.229-2.85-1.979-4.63-1.99h-0.01z"/>
 <path id="path145" fill="#fff" d="m369.76 41c-3.873-0.017-6.99 3.479-7.01 7.781l-0.58 127.57h-11.699l0.58-126.8c0.019-4.305-3.088-7.766-6.961-7.781-3.873-0.017-6.99 3.43-7.01 7.735l-0.58 126.85h-12.04l0.532-126.85c0.019-4.305-3.088-7.766-6.961-7.781-3.873-0.017-6.99 3.43-7.01 7.735l-0.532 126.89h-12.09l0.58-125.39c0.019-4.305-3.088-7.766-6.961-7.781-3.873-0.017-7.04 3.479-7.06 7.781-0.288 61.24-0.326 61.17-0.484 129.31v25.765h0.098c0.803 12.484 9.752 22.665 21.657 25.331l1.595 239.63h49.45l-0.871-239.96c11.178-3.14 19.485-13.03 20.249-24.998h0.048v-29.685c-0.981-41.21-0.183-85.33 0-127.53 0.019-4.305-3.088-7.812-6.961-7.832m-170.45 23.784c-33.992 0.119-62.46 38.16-63.949 85.993-1.16 37.22 14.357 69.54 37.27 83.15l0.241 237.06h51.3l1.306-239.68c20.2-14.205 34.532-42.904 35.579-76.48 1.516-48.599-25.383-88.95-60.09-90.06-0.543-0.017-1.105-0.001-1.644 0" fill-rule="evenodd"/>
</svg>
