<?xml version="1.0" encoding="UTF-8" standalone="no"?>
<!-- Created with Inkscape (http://www.inkscape.org/) -->
<svg id="svg2" xmlns:rdf="http://www.w3.org/1999/02/22-rdf-syntax-ns#" xmlns="http://www.w3.org/2000/svg" height="100%" width="100%" version="1.1" xmlns:cc="http://creativecommons.org/ns#" xmlns:dc="http://purl.org/dc/elements/1.1/" viewBox="0 0 512 512">
 <metadata id="metadata157">
  <rdf:RDF>
   <cc:Work rdf:about="">
    <dc:format>image/svg+xml</dc:format>
    <dc:type rdf:resource="http://purl.org/dc/dcmitype/StillImage"/>
    <dc:title/>
   </cc:Work>
  </rdf:RDF>
 </metadata>
 <text id="text11" font-size="129.23px" style="word-spacing:0;letter-spacing:0" line-height="125%" y="195.89" x="-161.46001" font-family="&apos;Gentium Book Basic&apos;">
  <tspan id="tspan13" y="195.89" x="-161.46001"/>
 </text>
 <text id="text15" style="text-anchor:middle" transform="scale(4.0128 .24920)" font-size="46.954px" y="436.89777" x="156.83919" font-family="Arial"/>
 <text id="text17" font-size="129.23px" style="word-spacing:0;letter-spacing:0" line-height="125%" y="115.89" x="419.81" font-family="&apos;Gentium Book Basic&apos;">
  <tspan id="tspan19" y="115.89" x="419.81"/>
 </text>
 <text id="text21" style="text-anchor:middle" transform="scale(4.0128 .24920)" font-size="46.954px" y="115.8794" x="301.68845" font-family="Arial"/>
 <text id="text23" font-size="129.23px" style="word-spacing:0;letter-spacing:0" line-height="125%" y="-65.370003" x="-651.77002" font-family="&apos;Gentium Book Basic&apos;">
  <tspan id="tspan25" y="-65.370003" x="-651.77002"/>
 </text>
 <text id="text27" style="text-anchor:middle" transform="scale(4.0128 .24920)" font-size="46.954px" y="-611.47687" x="34.654819" font-family="Arial"/>
 <text id="text29" font-size="129.23px" style="word-spacing:0;letter-spacing:0" line-height="125%" y="-281.84" x="446.28" font-family="&apos;Gentium Book Basic&apos;">
  <tspan id="tspan31" y="-281.84" x="446.28"/>
 </text>
 <text id="text33" style="text-anchor:middle" transform="scale(4.0128 .24920)" font-size="46.954px" y="-1480.1425" x="308.28842" font-family="Arial"/>
 <text id="text35" font-size="129.23px" style="word-spacing:0;letter-spacing:0" line-height="125%" y="-361.85001" x="1027.55" font-family="&apos;Gentium Book Basic&apos;">
  <tspan id="tspan37" y="-361.85001" x="1027.55"/>
 </text>
 <text id="text39" style="text-anchor:middle" transform="scale(4.0128 .24920)" font-size="46.954px" y="-1801.1708" x="453.1377" font-family="Arial"/>
 <text id="text41" font-size="129.23px" style="word-spacing:0;letter-spacing:0" line-height="125%" y="-834.25" x="638.42999" font-family="&apos;Gentium Book Basic&apos;">
  <tspan id="tspan43" y="-834.25" x="638.42999"/>
 </text>
 <text id="text45" style="text-anchor:middle" transform="scale(4.0128 .24920)" font-size="46.954px" y="-3696.811" x="356.16818" font-family="Arial"/>
 <text id="text47" font-size="129.23px" style="word-spacing:0;letter-spacing:0" line-height="125%" y="-914.25" x="1219.6899" font-family="&apos;Gentium Book Basic&apos;">
  <tspan id="tspan49" y="-914.25" x="1219.6899"/>
 </text>
 <text id="text51" style="text-anchor:middle" transform="scale(4.0128 .24920)" font-size="46.954px" y="-4017.8396" x="501.01743" font-family="Arial"/>
 <text id="text53" font-size="208.33px" style="word-spacing:0;letter-spacing:0" line-height="125%" y="500.47" x="-613.10999" font-family="&apos;Gentium Book Basic&apos;">
  <tspan id="tspan55" y="500.47" x="-613.10999"/>
 </text>
 <path id="path9-3" d="m26 0c-14.397 0-26 11.603-26 26v460c0 14.397 11.603 26 26 26h460c14.397 0 26-11.603 26-26v-460c0-14.397-11.6-26-26-26h-460" fill="#0078ad"/>
 <text id="text11-6" font-size="129.23px" style="word-spacing:0;letter-spacing:0" line-height="125%" y="257.25" x="56.380001" font-family="&apos;Gentium Book Basic&apos;">
  <tspan id="tspan13-4" y="257.25" x="56.380001"/>
 </text>
 <text id="text15-1" style="text-anchor:middle" transform="scale(4.0128 .24920)" font-size="46.954px" y="683.14655" x="211.12892" font-family="Arial"/>
 <text id="text17-6" font-size="129.23px" style="word-spacing:0;letter-spacing:0" line-height="125%" y="177.25" x="637.65002" font-family="&apos;Gentium Book Basic&apos;">
  <tspan id="tspan19-7" y="177.25" x="637.65002"/>
 </text>
 <text id="text21-9" style="text-anchor:middle" transform="scale(4.0128 .24920)" font-size="46.954px" y="362.10812" x="355.97818" font-family="Arial"/>
 <text id="text23-5" font-size="129.23px" style="word-spacing:0;letter-spacing:0" line-height="125%" y="-4.0100002" x="-433.92999" font-family="&apos;Gentium Book Basic&apos;">
  <tspan id="tspan25-7" y="-4.0100002" x="-433.92999"/>
 </text>
 <text id="text27-0" style="text-anchor:middle" transform="scale(4.0128 .24920)" font-size="46.954px" y="-365.22815" x="88.939545" font-family="Arial"/>
 <text id="text29-2" font-size="129.23px" style="word-spacing:0;letter-spacing:0" line-height="125%" y="-220.48" x="664.12" font-family="&apos;Gentium Book Basic&apos;">
  <tspan id="tspan31-0" y="-220.48" x="664.12"/>
 </text>
 <text id="text33-0" style="text-anchor:middle" transform="scale(4.0128 .24920)" font-size="46.954px" y="-1233.9037" x="362.57812" font-family="Arial"/>
 <text id="text35-2" font-size="129.23px" style="word-spacing:0;letter-spacing:0" line-height="125%" y="-300.48001" x="1245.39" font-family="&apos;Gentium Book Basic&apos;">
  <tspan id="tspan37-5" y="-300.48001" x="1245.39"/>
 </text>
 <text id="text39-5" style="text-anchor:middle" transform="scale(4.0128 .24920)" font-size="46.954px" y="-1554.932" x="507.4274" font-family="Arial"/>
 <text id="text41-2" font-size="129.23px" style="word-spacing:0;letter-spacing:0" line-height="125%" y="-772.88" x="856.27002" font-family="&apos;Gentium Book Basic&apos;">
  <tspan id="tspan43-1" y="-772.88" x="856.27002"/>
 </text>
 <text id="text45-7" style="text-anchor:middle" transform="scale(4.0128 .24920)" font-size="46.954px" y="-3450.5725" x="410.45789" font-family="Arial"/>
 <text id="text47-1" font-size="129.23px" style="word-spacing:0;letter-spacing:0" line-height="125%" y="-852.89001" x="1437.53" font-family="&apos;Gentium Book Basic&apos;">
  <tspan id="tspan49-9" y="-852.89001" x="1437.53"/>
 </text>
 <text id="text51-0" style="text-anchor:middle" transform="scale(4.0128 .24920)" font-size="46.954px" y="-3771.6008" x="555.30713" font-family="Arial"/>
 <text id="text53-4" font-size="208.33px" style="word-spacing:0;letter-spacing:0" line-height="125%" y="561.83002" x="-395.26999" font-family="&apos;Gentium Book Basic&apos;">
  <tspan id="tspan55-2" y="561.83002" x="-395.26999"/>
 </text>
 <path id="path59-3" opacity=".25" d="m395.97 41.816c-41.44 0-75.03 33.592-75.03 75.034l75.03 75.03-75.03-75.03c0 1.02 0.06 2.04 0.1 3.05l-156.64 78.8 45.39 45.39v0.01l-45.39-45.39c-13.06-11.01-29.95-17.63-48.37-17.64-41.441 0-75.03 33.59-75.03 75.03 0 20.72 8.399 39.48 21.977 53.05l0.211 0.21c-0.069-0.07-0.143-0.13-0.211-0.2l202.83 202.84h220.19c14.4 0 26-11.6 26-26v-359.23l-62.98-62.977c-13.58-13.578-32.34-21.977-53.05-21.977z"/>
 <path id="path119" d="m395.97 41.816c-41.44 0-75.03 33.592-75.03 75.03 0 1.023 0.062 2.046 0.102 3.058l-156.64 78.8c-13.06-11.01-29.955-17.636-48.37-17.636-41.44 0-75.03 33.592-75.03 75.03 0 41.44 33.592 75.03 75.03 75.03 18.686 0 35.799-6.845 48.933-18.15 0.999 0.443 1.743 0.735 2.905 1.274 5.35 2.483 12.427 5.948 20.644 9.991 16.434 8.08 37.38 18.616 58.01 29.11 35.766 18.19 65.903 33.766 74.52 38.23-0.056 1.195-0.102 2.359-0.102 3.568 0 41.44 33.592 75.03 75.03 75.03 41.44 0 75.03-33.592 75.03-75.03 0-41.44-33.592-75.03-75.03-75.03-17.96 0-34.437 6.347-47.35 16.872l-157.55-79.31c0.011-0.532 0-1.045 0-1.58 0-0.784-0.027-1.567-0.051-2.345 6.285-3.245 39.19-20.22 76.71-39.3 20.626-10.489 41.572-21.07 58.01-29.16 8.217-4.04 15.293-7.457 20.644-9.94 0.698-0.324 1.097-0.475 1.733-0.765 12.994 10.786 29.656 17.28 47.863 17.28 41.44 0 75.03-33.592 75.03-75.03 0-41.44-33.592-75.03-75.03-75.03" fill="#fff"/>
</svg>
