<?xml version="1.0" encoding="UTF-8" standalone="no"?>
<!-- Created with Inkscape (http://www.inkscape.org/) -->
<svg id="svg2" xmlns:rdf="http://www.w3.org/1999/02/22-rdf-syntax-ns#" xmlns="http://www.w3.org/2000/svg" height="100%" width="100%" version="1.1" xmlns:cc="http://creativecommons.org/ns#" xmlns:dc="http://purl.org/dc/elements/1.1/" viewBox="0 0 512 512">
 <metadata id="metadata157">
  <rdf:RDF>
   <cc:Work rdf:about="">
    <dc:format>image/svg+xml</dc:format>
    <dc:type rdf:resource="http://purl.org/dc/dcmitype/StillImage"/>
    <dc:title/>
   </cc:Work>
  </rdf:RDF>
 </metadata>
 <rect id="rect9" rx="25.988" height="512" width="512" y="0" x="0" fill="#b93d48"/>
 <text id="text11" font-size="129.23px" style="word-spacing:0;letter-spacing:0" line-height="125%" y="179.00999" x="220.52" font-family="&apos;Gentium Book Basic&apos;">
  <tspan id="tspan13" y="179.00999" x="220.52"/>
 </text>
 <text id="text15" style="text-anchor:middle" transform="scale(4.0128 .24920)" font-size="46.954px" y="369.18811" x="252.0287" font-family="Arial"/>
 <text id="text17" font-size="129.23px" style="word-spacing:0;letter-spacing:0" line-height="125%" y="99.010002" x="801.78998" font-family="&apos;Gentium Book Basic&apos;">
  <tspan id="tspan19" y="99.010002" x="801.78998"/>
 </text>
 <text id="text21" style="text-anchor:middle" transform="scale(4.0128 .24920)" font-size="46.954px" y="48.159752" x="396.87796" font-family="Arial"/>
 <text id="text23" font-size="129.23px" style="word-spacing:0;letter-spacing:0" line-height="125%" y="-82.25" x="-269.79001" font-family="&apos;Gentium Book Basic&apos;">
  <tspan id="tspan25" y="-82.25" x="-269.79001"/>
 </text>
 <text id="text27" style="text-anchor:middle" transform="scale(4.0128 .24920)" font-size="46.954px" y="-679.18652" x="129.84933" font-family="Arial"/>
 <text id="text29" font-size="129.23px" style="word-spacing:0;letter-spacing:0" line-height="125%" y="-298.72" x="828.26001" font-family="&apos;Gentium Book Basic&apos;">
  <tspan id="tspan31" y="-298.72" x="828.26001"/>
 </text>
 <text id="text33" style="text-anchor:middle" transform="scale(4.0128 .24920)" font-size="46.954px" y="-1547.8521" x="403.47794" font-family="Arial"/>
 <text id="text35" font-size="129.23px" style="word-spacing:0;letter-spacing:0" line-height="125%" y="-378.73001" x="1409.53" font-family="&apos;Gentium Book Basic&apos;">
  <tspan id="tspan37" y="-378.73001" x="1409.53"/>
 </text>
 <text id="text39" style="text-anchor:middle" transform="scale(4.0128 .24920)" font-size="46.954px" y="-1868.8905" x="548.32721" font-family="Arial"/>
 <text id="text41" font-size="129.23px" style="word-spacing:0;letter-spacing:0" line-height="125%" y="-851.13" x="1020.41" font-family="&apos;Gentium Book Basic&apos;">
  <tspan id="tspan43" y="-851.13" x="1020.41"/>
 </text>
 <text id="text45" style="text-anchor:middle" transform="scale(4.0128 .24920)" font-size="46.954px" y="-3764.5308" x="451.35767" font-family="Arial"/>
 <text id="text47" font-size="129.23px" style="word-spacing:0;letter-spacing:0" line-height="125%" y="-931.13" x="1601.67" font-family="&apos;Gentium Book Basic&apos;">
  <tspan id="tspan49" y="-931.13" x="1601.67"/>
 </text>
 <text id="text51" style="text-anchor:middle" transform="scale(4.0128 .24920)" font-size="46.954px" y="-4085.5591" x="596.20697" font-family="Arial"/>
 <text id="text53" font-size="208.33px" style="word-spacing:0;letter-spacing:0" line-height="125%" y="483.59" x="-231.13" font-family="&apos;Gentium Book Basic&apos;">
  <tspan id="tspan55" y="483.59" x="-231.13"/>
 </text>
 <path id="path59" opacity=".25" d="m41 90.811v51.589l0.006 0.01h-0.006l29.59 29.59h-29.58l185.96 185.96v0.01l-185.97-185.97v249.19l90.81 90.81h354.2c14.4 0 25.99-11.59 25.99-25.99v-354.2l-41-40.999h-185.91v51.589l0.01 0.01h-0.01l29.59 29.59h-6.52l-81.19-81.189h-185.97z"/>
 <path id="path131" d="m41 90.81v51.594h60.22c4.085-6.383 10.568-10.5 17.938-10.5h29.625c7.37 0 13.852 4.117 17.938 10.5h60.25v-51.594h-185.97m244.09 0v51.594h60.22c4.085-6.383 10.568-10.5 17.938-10.5h29.594c7.37 0 13.852 4.117 17.937 10.5h60.22v-51.594h-185.91m-244.09 81.194v249.19h185.97v-249.19h-59.09c-3.949 7.453-10.985 12.375-19.06 12.375h-29.625c-8.08 0-15.11-4.922-19.06-12.375h-59.12m244.09 0v249.19h185.91v-249.19h-59.09c-3.949 7.453-10.985 12.375-19.06 12.375h-29.594c-8.08 0-15.11-4.922-19.06-12.375h-59.09" fill="#fff"/>
</svg>
