<?xml version="1.0" encoding="UTF-8" standalone="no"?>
<!-- Created with Inkscape (http://www.inkscape.org/) -->
<svg id="svg2" xmlns:rdf="http://www.w3.org/1999/02/22-rdf-syntax-ns#" xmlns="http://www.w3.org/2000/svg" height="100%" width="100%" version="1.1" xmlns:cc="http://creativecommons.org/ns#" xmlns:dc="http://purl.org/dc/elements/1.1/" viewBox="0 0 512 512">
 <metadata id="metadata157">
  <rdf:RDF>
   <cc:Work rdf:about="">
    <dc:format>image/svg+xml</dc:format>
    <dc:type rdf:resource="http://purl.org/dc/dcmitype/StillImage"/>
    <dc:title/>
   </cc:Work>
  </rdf:RDF>
 </metadata>
 <path id="rect2986" fill="#e65177" d="m26 0c-14.397 0-26 11.603-26 26v460c0 14.397 11.603 26 26 26h460c14.397 0 26-11.603 26-26v-460c0-14.397-11.6-26-26-26h-460z"/>
 <text id="text20" font-size="129.23px" style="word-spacing:0;letter-spacing:0" line-height="125%" y="11.80069" x="80.920097" font-family="&apos;Gentium Book Basic&apos;">
  <tspan id="tspan22" y="11.80069" x="80.920097"/>
 </text>
 <text id="text24" style="text-anchor:middle" transform="scale(4.0128 .24920)" font-size="46.954px" y="-301.79385" x="217.24622" font-family="Arial"/>
 <text id="text26" font-size="129.23px" style="word-spacing:0;letter-spacing:0" line-height="125%" y="-68.19931" x="662.19012" font-family="&apos;Gentium Book Basic&apos;">
  <tspan id="tspan28" y="-68.19931" x="662.19012"/>
 </text>
 <text id="text30" style="text-anchor:middle" transform="scale(4.0128 .24920)" font-size="46.954px" y="-622.83203" x="362.09549" font-family="Arial"/>
 <text id="text32" font-size="129.23px" style="word-spacing:0;letter-spacing:0" line-height="125%" y="-249.45929" x="-409.38992" font-family="&apos;Gentium Book Basic&apos;">
  <tspan id="tspan34" y="-249.45929" x="-409.38992"/>
 </text>
 <text id="text36" style="text-anchor:middle" transform="scale(4.0128 .24920)" font-size="46.954px" y="-1350.1783" x="95.056854" font-family="Arial"/>
 <text id="text38" font-size="129.23px" style="word-spacing:0;letter-spacing:0" line-height="125%" y="-465.92929" x="688.6601" font-family="&apos;Gentium Book Basic&apos;">
  <tspan id="tspan40" y="-465.92929" x="688.6601"/>
 </text>
 <text id="text42" style="text-anchor:middle" transform="scale(4.0128 .24920)" font-size="46.954px" y="-2218.854" x="368.69547" font-family="Arial"/>
 <text id="text44" font-size="129.23px" style="word-spacing:0;letter-spacing:0" line-height="125%" y="-545.92926" x="1269.9301" font-family="&apos;Gentium Book Basic&apos;">
  <tspan id="tspan46" y="-545.92926" x="1269.9301"/>
 </text>
 <text id="text48" style="text-anchor:middle" transform="scale(4.0128 .24920)" font-size="46.954px" y="-2539.8823" x="513.54474" font-family="Arial"/>
 <text id="text50" font-size="129.23px" style="word-spacing:0;letter-spacing:0" line-height="125%" y="-1018.3293" x="880.81012" font-family="&apos;Gentium Book Basic&apos;">
  <tspan id="tspan52" y="-1018.3293" x="880.81012"/>
 </text>
 <text id="text54" style="text-anchor:middle" transform="scale(4.0128 .24920)" font-size="46.954px" y="-4435.5327" x="416.57516" font-family="Arial"/>
 <text id="text56" font-size="129.23px" style="word-spacing:0;letter-spacing:0" line-height="125%" y="-1098.3394" x="1462.0701" font-family="&apos;Gentium Book Basic&apos;">
  <tspan id="tspan58" y="-1098.3394" x="1462.0701"/>
 </text>
 <text id="text60" style="text-anchor:middle" transform="scale(4.0128 .24920)" font-size="46.954px" y="-4756.5708" x="561.4245" font-family="Arial"/>
 <text id="text62" font-size="208.33px" style="word-spacing:0;letter-spacing:0" line-height="125%" y="316.3808" x="-370.72992" font-family="&apos;Gentium Book Basic&apos;">
  <tspan id="tspan64" y="316.3808" x="-370.72992"/>
 </text>
 <text id="text3068" font-size="129.23px" style="word-spacing:0;letter-spacing:0" line-height="125%" y="-265.8942" x="-741.3172" font-family="&apos;Gentium Book Basic&apos;">
  <tspan id="tspan3070" y="-265.8942" x="-741.3172"/>
 </text>
 <text id="text3072" style="text-anchor:middle" transform="scale(4.0128 .24920)" font-size="46.954px" y="-1416.1448" x="12.343644" font-family="Arial"/>
 <text id="text3074" font-size="129.23px" style="word-spacing:0;letter-spacing:0" line-height="125%" y="-345.8942" x="-160.0472" font-family="&apos;Gentium Book Basic&apos;">
  <tspan id="tspan3076" y="-345.8942" x="-160.0472"/>
 </text>
 <text id="text3078" style="text-anchor:middle" transform="scale(4.0128 .24920)" font-size="46.954px" y="-1737.1732" x="157.1929" font-family="Arial"/>
 <text id="text3080" font-size="129.23px" style="word-spacing:0;letter-spacing:0" line-height="125%" y="-527.15521" x="-1231.6272" font-family="&apos;Gentium Book Basic&apos;">
  <tspan id="tspan3082" y="-527.15521" x="-1231.6272"/>
 </text>
 <text id="text3084" style="text-anchor:middle" transform="scale(4.0128 .24920)" font-size="46.954px" y="-2464.5295" x="-109.84573" font-family="Arial"/>
 <text id="text3086" font-size="129.23px" style="word-spacing:0;letter-spacing:0" line-height="125%" y="-743.62421" x="-133.57722" font-family="&apos;Gentium Book Basic&apos;">
  <tspan id="tspan3088" y="-743.62421" x="-133.57722"/>
 </text>
 <text id="text3090" style="text-anchor:middle" transform="scale(4.0128 .24920)" font-size="46.954px" y="-3333.1951" x="163.79285" font-family="Arial"/>
 <text id="text3092" font-size="129.23px" style="word-spacing:0;letter-spacing:0" line-height="125%" y="-823.63422" x="447.69281" font-family="&apos;Gentium Book Basic&apos;">
  <tspan id="tspan3094" y="-823.63422" x="447.69281"/>
 </text>
 <text id="text3096" style="text-anchor:middle" transform="scale(4.0128 .24920)" font-size="46.954px" y="-3654.2334" x="308.64215" font-family="Arial"/>
 <text id="text3098" font-size="129.23px" style="word-spacing:0;letter-spacing:0" line-height="125%" y="-1296.0343" x="58.572803" font-family="&apos;Gentium Book Basic&apos;">
  <tspan id="tspan3100" y="-1296.0343" x="58.572803"/>
 </text>
 <text id="text3102" style="text-anchor:middle" transform="scale(4.0128 .24920)" font-size="46.954px" y="-5549.8833" x="211.67261" font-family="Arial"/>
 <text id="text3104" font-size="129.23px" style="word-spacing:0;letter-spacing:0" line-height="125%" y="-1376.0343" x="639.83282" font-family="&apos;Gentium Book Basic&apos;">
  <tspan id="tspan3106" y="-1376.0343" x="639.83282"/>
 </text>
 <text id="text3108" style="text-anchor:middle" transform="scale(4.0128 .24920)" font-size="46.954px" y="-5870.9116" x="356.52188" font-family="Arial"/>
 <g id="g3110" line-height="125%" style="word-spacing:0;letter-spacing:0" font-family="&apos;Gentium Book Basic&apos;" transform="translate(-1471 -497.25)">
  <text id="text3112" y="535.94" x="277.98999" font-size="208.33px">
   <tspan id="tspan3114" y="535.94" x="277.98999"/>
  </text>
  <text id="text3116" y="-11.341" x="-307.17999" font-size="200px">
   <tspan id="tspan3118" y="-11.341" x="-307.17999"/>
  </text>
 </g>
 <text id="text3120" style="text-anchor:middle" transform="scale(4.0128 .24920)" font-size="72.67px" y="-2581.2688" x="-138.09558" font-family="Arial"/>
 <text id="text3122" font-size="200px" style="word-spacing:0;letter-spacing:0" line-height="125%" y="-455.45221" x="-1032.7572" font-family="&apos;Gentium Book Basic&apos;">
  <tspan id="tspan3124" y="-455.45221" x="-1032.7572"/>
 </text>
 <text id="text3126" style="text-anchor:middle" transform="scale(4.0128 .24920)" font-size="72.67px" y="-2368.02" x="47.653458" font-family="Arial"/>
 <text id="text3128" font-size="200px" style="word-spacing:0;letter-spacing:0" line-height="125%" y="-579.27417" x="-133.14717" font-family="&apos;Gentium Book Basic&apos;">
  <tspan id="tspan3130" y="-579.27417" x="-133.14717"/>
 </text>
 <text id="text3132" style="text-anchor:middle" transform="scale(4.0128 .24920)" font-size="72.67px" y="-2864.8774" x="271.83234" font-family="Arial"/>
 <text id="text3134" font-size="200px" style="word-spacing:0;letter-spacing:0" line-height="125%" y="-631.90417" x="-1005.2972" font-family="&apos;Gentium Book Basic&apos;">
  <tspan id="tspan3136" y="-631.90417" x="-1005.2972"/>
 </text>
 <text id="text3138" style="text-anchor:middle" transform="scale(4.0128 .24920)" font-size="72.67px" y="-3076.0962" x="54.493423" font-family="Arial"/>
 <text id="text3140" font-size="200px" style="word-spacing:0;letter-spacing:0" line-height="125%" y="-755.72418" x="-105.6872" font-family="&apos;Gentium Book Basic&apos;">
  <tspan id="tspan3142" y="-755.72418" x="-105.6872"/>
 </text>
 <text id="text3144" style="text-anchor:middle" transform="scale(4.0128 .24920)" font-size="72.67px" y="-3572.9539" x="278.67227" font-family="Arial"/>
 <text id="text3146" font-size="200px" style="word-spacing:0;letter-spacing:0" line-height="125%" y="-180.02419" x="-4015.2773" font-family="&apos;Gentium Book Basic&apos;">
  <tspan id="tspan3148" y="-180.02419" x="-4015.2773"/>
 </text>
 <text id="text3150" style="text-anchor:middle" transform="scale(4.0128 .24920)" font-size="72.67px" y="-1262.7756" x="-695.59277" font-family="Arial"/>
 <text id="text3152" font-size="200px" style="word-spacing:0;letter-spacing:0" line-height="125%" y="-415.45419" x="-2086.9971" font-family="&apos;Gentium Book Basic&apos;">
  <tspan id="tspan3154" y="-415.45419" x="-2086.9971"/>
 </text>
 <text id="text3156" style="text-anchor:middle" transform="scale(4.0128 .24920)" font-size="72.67px" y="-2207.5107" x="-215.06519" font-family="Arial"/>
 <text id="text3158" font-size="200px" style="word-spacing:0;letter-spacing:0" line-height="125%" y="-362.31418" x="-1341.6172" font-family="&apos;Gentium Book Basic&apos;">
  <tspan id="tspan3160" y="-362.31418" x="-1341.6172"/>
 </text>
 <text id="text3162" style="text-anchor:middle" transform="scale(4.0128 .24920)" font-size="72.67px" y="-1994.2539" x="-29.316145" font-family="Arial"/>
 <text id="text3164" font-size="200px" style="word-spacing:0;letter-spacing:0" line-height="125%" y="-486.1272" x="-442.00726" font-family="&apos;Gentium Book Basic&apos;">
  <tspan id="tspan3166" y="-486.1272" x="-442.00726"/>
 </text>
 <text id="text3168" style="text-anchor:middle" transform="scale(4.0128 .24920)" font-size="72.67px" y="-2491.1094" x="194.8627" font-family="Arial"/>
 <text id="text3170" font-size="200px" style="word-spacing:0;letter-spacing:0" line-height="125%" y="-538.76422" x="-1314.1572" font-family="&apos;Gentium Book Basic&apos;">
  <tspan id="tspan3172" y="-538.76422" x="-1314.1572"/>
 </text>
 <text id="text3174" style="text-anchor:middle" transform="scale(4.0128 .24920)" font-size="72.67px" y="-2702.3381" x="-22.476179" font-family="Arial"/>
 <text id="text3176" font-size="200px" style="word-spacing:0;letter-spacing:0" line-height="125%" y="-662.58423" x="-414.53717" font-family="&apos;Gentium Book Basic&apos;">
  <tspan id="tspan3178" y="-662.58423" x="-414.53717"/>
 </text>
 <text id="text3180" style="text-anchor:middle" transform="scale(4.0128 .24920)" font-size="72.67px" y="-3199.1958" x="201.71271" font-family="Arial"/>
 <text id="text3182" font-size="200px" style="word-spacing:0;letter-spacing:0" line-height="125%" y="-86.884201" x="-4324.1372" font-family="&apos;Gentium Book Basic&apos;">
  <tspan id="tspan3184" y="-86.884201" x="-4324.1372"/>
 </text>
 <text id="text3186" style="text-anchor:middle" transform="scale(4.0128 .24920)" font-size="72.67px" y="-889.00751" x="-772.56238" font-family="Arial"/>
 <text id="text3188" font-size="200px" style="word-spacing:0;letter-spacing:0" line-height="125%" y="-532.31421" x="-2801.5671" font-family="&apos;Gentium Book Basic&apos;">
  <tspan id="tspan3190" y="-532.31421" x="-2801.5671"/>
 </text>
 <text id="text3192" style="text-anchor:middle" transform="scale(4.0128 .24920)" font-size="72.67px" y="-2676.4282" x="-393.13528" font-family="Arial"/>
 <text id="text3194" font-size="200px" style="word-spacing:0;letter-spacing:0" line-height="125%" y="-479.16418" x="-2056.1873" font-family="&apos;Gentium Book Basic&apos;">
  <tspan id="tspan3196" y="-479.16418" x="-2056.1873"/>
 </text>
 <text id="text3198" style="text-anchor:middle" transform="scale(4.0128 .24920)" font-size="72.67px" y="-2463.1794" x="-207.38524" font-family="Arial"/>
 <text id="text3200" font-size="200px" style="word-spacing:0;letter-spacing:0" line-height="125%" y="-602.98419" x="-1156.5773" font-family="&apos;Gentium Book Basic&apos;">
  <tspan id="tspan3202" y="-602.98419" x="-1156.5773"/>
 </text>
 <text id="text3204" style="text-anchor:middle" transform="scale(4.0128 .24920)" font-size="72.67px" y="-2960.0369" x="16.793612" font-family="Arial"/>
 <text id="text3206" font-size="200px" style="word-spacing:0;letter-spacing:0" line-height="125%" y="-655.62421" x="-2028.7273" font-family="&apos;Gentium Book Basic&apos;">
  <tspan id="tspan3208" y="-655.62421" x="-2028.7273"/>
 </text>
 <text id="text3210" style="text-anchor:middle" transform="scale(4.0128 .24920)" font-size="72.67px" y="-3171.2659" x="-200.54526" font-family="Arial"/>
 <text id="text3212" font-size="200px" style="word-spacing:0;letter-spacing:0" line-height="125%" y="-779.4342" x="-1129.1072" font-family="&apos;Gentium Book Basic&apos;">
  <tspan id="tspan3214" y="-779.4342" x="-1129.1072"/>
 </text>
 <text id="text3216" style="text-anchor:middle" transform="scale(4.0128 .24920)" font-size="72.67px" y="-3668.1133" x="23.633593" font-family="Arial"/>
 <text id="text3218" font-size="200px" style="word-spacing:0;letter-spacing:0" line-height="125%" y="-203.73421" x="-5038.707" font-family="&apos;Gentium Book Basic&apos;">
  <tspan id="tspan3220" y="-203.73421" x="-5038.707"/>
 </text>
 <text id="text3222" style="text-anchor:middle" transform="scale(4.0128 .24920)" font-size="72.67px" y="-1357.9351" x="-950.63147" font-family="Arial"/>
 <text id="text3240" font-size="129.23px" style="word-spacing:0;letter-spacing:0" line-height="125%" y="-265.8942" x="-741.3172" font-family="&apos;Gentium Book Basic&apos;">
  <tspan id="tspan3242" y="-265.8942" x="-741.3172"/>
 </text>
 <text id="text3244" style="text-anchor:middle" transform="scale(4.0128 .24920)" font-size="46.954px" y="-1416.1448" x="12.343644" font-family="Arial"/>
 <text id="text3246" font-size="129.23px" style="word-spacing:0;letter-spacing:0" line-height="125%" y="-345.8942" x="-160.0472" font-family="&apos;Gentium Book Basic&apos;">
  <tspan id="tspan3248" y="-345.8942" x="-160.0472"/>
 </text>
 <text id="text3250" style="text-anchor:middle" transform="scale(4.0128 .24920)" font-size="46.954px" y="-1737.1732" x="157.1929" font-family="Arial"/>
 <text id="text3252" font-size="129.23px" style="word-spacing:0;letter-spacing:0" line-height="125%" y="-527.15521" x="-1231.6272" font-family="&apos;Gentium Book Basic&apos;">
  <tspan id="tspan3254" y="-527.15521" x="-1231.6272"/>
 </text>
 <text id="text3256" style="text-anchor:middle" transform="scale(4.0128 .24920)" font-size="46.954px" y="-2464.5295" x="-109.84573" font-family="Arial"/>
 <text id="text3258" font-size="129.23px" style="word-spacing:0;letter-spacing:0" line-height="125%" y="-743.62421" x="-133.57722" font-family="&apos;Gentium Book Basic&apos;">
  <tspan id="tspan3260" y="-743.62421" x="-133.57722"/>
 </text>
 <text id="text3262" style="text-anchor:middle" transform="scale(4.0128 .24920)" font-size="46.954px" y="-3333.1851" x="163.79285" font-family="Arial"/>
 <text id="text3264" font-size="129.23px" style="word-spacing:0;letter-spacing:0" line-height="125%" y="-823.63422" x="447.69281" font-family="&apos;Gentium Book Basic&apos;">
  <tspan id="tspan3266" y="-823.63422" x="447.69281"/>
 </text>
 <text id="text3268" style="text-anchor:middle" transform="scale(4.0128 .24920)" font-size="46.954px" y="-3654.2234" x="308.64215" font-family="Arial"/>
 <text id="text3270" font-size="129.23px" style="word-spacing:0;letter-spacing:0" line-height="125%" y="-1296.0343" x="58.572803" font-family="&apos;Gentium Book Basic&apos;">
  <tspan id="tspan3272" y="-1296.0343" x="58.572803"/>
 </text>
 <text id="text3274" style="text-anchor:middle" transform="scale(4.0128 .24920)" font-size="46.954px" y="-5549.8633" x="211.67261" font-family="Arial"/>
 <text id="text3276" font-size="129.23px" style="word-spacing:0;letter-spacing:0" line-height="125%" y="-1376.0343" x="639.83282" font-family="&apos;Gentium Book Basic&apos;">
  <tspan id="tspan3278" y="-1376.0343" x="639.83282"/>
 </text>
 <text id="text3280" style="text-anchor:middle" transform="scale(4.0128 .24920)" font-size="46.954px" y="-5870.8916" x="356.52188" font-family="Arial"/>
 <g id="g3282" line-height="125%" style="word-spacing:0;letter-spacing:0" font-family="&apos;Gentium Book Basic&apos;" transform="translate(-1471 -497.25)">
  <text id="text3284" y="535.94" x="277.98999" font-size="208.33px">
   <tspan id="tspan3286" y="535.94" x="277.98999"/>
  </text>
  <text id="text3288" y="227.12" x="104.96" font-size="129.23px">
   <tspan id="tspan3290" y="227.12" x="104.96"/>
  </text>
 </g>
 <text id="text3292" style="text-anchor:middle" transform="scale(4.0128 .24920)" font-size="46.954px" y="-1433.1648" x="-143.32555" font-family="Arial"/>
 <text id="text3294" font-size="129.23px" style="word-spacing:0;letter-spacing:0" line-height="125%" y="-350.1442" x="-784.72723" font-family="&apos;Gentium Book Basic&apos;">
  <tspan id="tspan3296" y="-350.1442" x="-784.72723"/>
 </text>
 <text id="text3298" style="text-anchor:middle" transform="scale(4.0128 .24920)" font-size="46.954px" y="-1754.2031" x="1.523698" font-family="Arial"/>
 <text id="text3300" font-size="129.23px" style="word-spacing:0;letter-spacing:0" line-height="125%" y="-531.39423" x="-1856.3073" font-family="&apos;Gentium Book Basic&apos;">
  <tspan id="tspan3302" y="-531.39423" x="-1856.3073"/>
 </text>
 <text id="text3304" style="text-anchor:middle" transform="scale(4.0128 .24920)" font-size="46.954px" y="-2481.5493" x="-265.51492" font-family="Arial"/>
 <text id="text3306" font-size="129.23px" style="word-spacing:0;letter-spacing:0" line-height="125%" y="-747.87421" x="-758.2572" font-family="&apos;Gentium Book Basic&apos;">
  <tspan id="tspan3308" y="-747.87421" x="-758.2572"/>
 </text>
 <text id="text3310" style="text-anchor:middle" transform="scale(4.0128 .24920)" font-size="46.954px" y="-3350.2249" x="8.1236734" font-family="Arial"/>
 <text id="text3312" font-size="129.23px" style="word-spacing:0;letter-spacing:0" line-height="125%" y="-827.87421" x="-176.98726" font-family="&apos;Gentium Book Basic&apos;">
  <tspan id="tspan3314" y="-827.87421" x="-176.98726"/>
 </text>
 <text id="text3316" style="text-anchor:middle" transform="scale(4.0128 .24920)" font-size="46.954px" y="-3671.2534" x="152.9729" font-family="Arial"/>
 <text id="text3318" font-size="129.23px" style="word-spacing:0;letter-spacing:0" line-height="125%" y="-1300.2743" x="-566.10724" font-family="&apos;Gentium Book Basic&apos;">
  <tspan id="tspan3320" y="-1300.2743" x="-566.10724"/>
 </text>
 <text id="text3322" style="text-anchor:middle" transform="scale(4.0128 .24920)" font-size="46.954px" y="-5566.9033" x="56.003433" font-family="Arial"/>
 <text id="text3324" font-size="129.23px" style="word-spacing:0;letter-spacing:0" line-height="125%" y="-1380.2743" x="15.16277" font-family="&apos;Gentium Book Basic&apos;">
  <tspan id="tspan3326" y="-1380.2743" x="15.16277"/>
 </text>
 <text id="text3328" style="text-anchor:middle" transform="scale(4.0128 .24920)" font-size="46.954px" y="-5887.9419" x="200.85266" font-family="Arial"/>
 <g id="g3330" line-height="125%" style="word-spacing:0;letter-spacing:0" font-family="&apos;Gentium Book Basic&apos;" transform="translate(-1471 -497.25)">
  <text id="text3332" y="531.69" x="-346.69" font-size="208.33px">
   <tspan id="tspan3334" y="531.69" x="-346.69"/>
  </text>
  <text id="text3336" y="-15.584" x="-931.85999" font-size="200px">
   <tspan id="tspan3338" y="-15.584" x="-931.85999"/>
  </text>
 </g>
 <text id="text3340" style="text-anchor:middle" transform="scale(4.0128 .24920)" font-size="72.67px" y="-2598.2988" x="-293.76779" font-family="Arial"/>
 <text id="text3342" font-size="200px" style="word-spacing:0;letter-spacing:0" line-height="125%" y="-459.69519" x="-1657.4373" font-family="&apos;Gentium Book Basic&apos;">
  <tspan id="tspan3344" y="-459.69519" x="-1657.4373"/>
 </text>
 <text id="text3346" style="text-anchor:middle" transform="scale(4.0128 .24920)" font-size="72.67px" y="-2385.0498" x="-108.01575" font-family="Arial"/>
 <text id="text3348" font-size="200px" style="word-spacing:0;letter-spacing:0" line-height="125%" y="-583.51422" x="-757.82721" font-family="&apos;Gentium Book Basic&apos;">
  <tspan id="tspan3350" y="-583.51422" x="-757.82721"/>
 </text>
 <text id="text3352" style="text-anchor:middle" transform="scale(4.0128 .24920)" font-size="72.67px" y="-2881.8972" x="116.16312" font-family="Arial"/>
 <text id="text3354" font-size="200px" style="word-spacing:0;letter-spacing:0" line-height="125%" y="-636.15417" x="-1629.9773" font-family="&apos;Gentium Book Basic&apos;">
  <tspan id="tspan3356" y="-636.15417" x="-1629.9773"/>
 </text>
 <text id="text3358" style="text-anchor:middle" transform="scale(4.0128 .24920)" font-size="72.67px" y="-3093.1262" x="-101.17576" font-family="Arial"/>
 <text id="text3360" font-size="200px" style="word-spacing:0;letter-spacing:0" line-height="125%" y="-759.96417" x="-730.35724" font-family="&apos;Gentium Book Basic&apos;">
  <tspan id="tspan3362" y="-759.96417" x="-730.35724"/>
 </text>
 <text id="text3364" style="text-anchor:middle" transform="scale(4.0128 .24920)" font-size="72.67px" y="-3589.9836" x="123.00308" font-family="Arial"/>
 <text id="text3366" font-size="200px" style="word-spacing:0;letter-spacing:0" line-height="125%" y="-184.26421" x="-4639.957" font-family="&apos;Gentium Book Basic&apos;">
  <tspan id="tspan3368" y="-184.26421" x="-4639.957"/>
 </text>
 <text id="text3370" style="text-anchor:middle" transform="scale(4.0128 .24920)" font-size="72.67px" y="-1279.8055" x="-851.26196" font-family="Arial"/>
 <text id="text3372" font-size="200px" style="word-spacing:0;letter-spacing:0" line-height="125%" y="-419.69418" x="-2711.6772" font-family="&apos;Gentium Book Basic&apos;">
  <tspan id="tspan3374" y="-419.69418" x="-2711.6772"/>
 </text>
 <text id="text3376" style="text-anchor:middle" transform="scale(4.0128 .24920)" font-size="72.67px" y="-2224.5308" x="-370.73438" font-family="Arial"/>
 <text id="text3378" font-size="200px" style="word-spacing:0;letter-spacing:0" line-height="125%" y="-366.5542" x="-1966.2972" font-family="&apos;Gentium Book Basic&apos;">
  <tspan id="tspan3380" y="-366.5542" x="-1966.2972"/>
 </text>
 <text id="text3382" style="text-anchor:middle" transform="scale(4.0128 .24920)" font-size="72.67px" y="-2011.2808" x="-184.98534" font-family="Arial"/>
 <text id="text3384" font-size="200px" style="word-spacing:0;letter-spacing:0" line-height="125%" y="-490.37018" x="-1066.6873" font-family="&apos;Gentium Book Basic&apos;">
  <tspan id="tspan3386" y="-490.37018" x="-1066.6873"/>
 </text>
 <text id="text3388" style="text-anchor:middle" transform="scale(4.0128 .24920)" font-size="72.67px" y="-2508.1392" x="39.193512" font-family="Arial"/>
 <text id="text3390" font-size="200px" style="word-spacing:0;letter-spacing:0" line-height="125%" y="-543.00818" x="-1938.8373" font-family="&apos;Gentium Book Basic&apos;">
  <tspan id="tspan3392" y="-543.00818" x="-1938.8373"/>
 </text>
 <text id="text3394" style="text-anchor:middle" transform="scale(4.0128 .24920)" font-size="72.67px" y="-2719.3582" x="-178.14539" font-family="Arial"/>
 <text id="text3396" font-size="200px" style="word-spacing:0;letter-spacing:0" line-height="125%" y="-666.82422" x="-1039.2173" font-family="&apos;Gentium Book Basic&apos;">
  <tspan id="tspan3398" y="-666.82422" x="-1039.2173"/>
 </text>
 <text id="text3400" style="text-anchor:middle" transform="scale(4.0128 .24920)" font-size="72.67px" y="-3216.2156" x="46.043457" font-family="Arial"/>
 <text id="text3402" font-size="200px" style="word-spacing:0;letter-spacing:0" line-height="125%" y="-91.124191" x="-4948.8169" font-family="&apos;Gentium Book Basic&apos;">
  <tspan id="tspan3404" y="-91.124191" x="-4948.8169"/>
 </text>
 <text id="text3406" style="text-anchor:middle" transform="scale(4.0128 .24920)" font-size="72.67px" y="-906.03748" x="-928.23157" font-family="Arial"/>
 <text id="text3408" font-size="200px" style="word-spacing:0;letter-spacing:0" line-height="125%" y="-536.5542" x="-3426.2473" font-family="&apos;Gentium Book Basic&apos;">
  <tspan id="tspan3410" y="-536.5542" x="-3426.2473"/>
 </text>
 <text id="text3412" style="text-anchor:middle" transform="scale(4.0128 .24920)" font-size="72.67px" y="-2693.4583" x="-548.80353" font-family="Arial"/>
 <text id="text3414" font-size="200px" style="word-spacing:0;letter-spacing:0" line-height="125%" y="-483.41019" x="-2680.8672" font-family="&apos;Gentium Book Basic&apos;">
  <tspan id="tspan3416" y="-483.41019" x="-2680.8672"/>
 </text>
 <text id="text3418" style="text-anchor:middle" transform="scale(4.0128 .24920)" font-size="72.67px" y="-2480.2092" x="-363.05743" font-family="Arial"/>
 <text id="text3420" font-size="200px" style="word-spacing:0;letter-spacing:0" line-height="125%" y="-607.22418" x="-1781.2572" font-family="&apos;Gentium Book Basic&apos;">
  <tspan id="tspan3422" y="-607.22418" x="-1781.2572"/>
 </text>
 <text id="text3424" style="text-anchor:middle" transform="scale(4.0128 .24920)" font-size="72.67px" y="-2977.0669" x="-138.87558" font-family="Arial"/>
 <text id="text3426" font-size="200px" style="word-spacing:0;letter-spacing:0" line-height="125%" y="-659.8642" x="-2653.4072" font-family="&apos;Gentium Book Basic&apos;">
  <tspan id="tspan3428" y="-659.8642" x="-2653.4072"/>
 </text>
 <text id="text3430" style="text-anchor:middle" transform="scale(4.0128 .24920)" font-size="72.67px" y="-3188.2859" x="-356.21347" font-family="Arial"/>
 <text id="text3432" font-size="200px" style="word-spacing:0;letter-spacing:0" line-height="125%" y="-783.6842" x="-1753.7872" font-family="&apos;Gentium Book Basic&apos;">
  <tspan id="tspan3434" y="-783.6842" x="-1753.7872"/>
 </text>
 <text id="text3436" style="text-anchor:middle" transform="scale(4.0128 .24920)" font-size="72.67px" y="-3685.1433" x="-132.02562" font-family="Arial"/>
 <text id="text3438" font-size="200px" style="word-spacing:0;letter-spacing:0" line-height="125%" y="-207.98421" x="-5663.3872" font-family="&apos;Gentium Book Basic&apos;">
  <tspan id="tspan3440" y="-207.98421" x="-5663.3872"/>
 </text>
 <text id="text3442" style="text-anchor:middle" transform="scale(4.0128 .24920)" font-size="72.67px" y="-1374.9651" x="-1106.3007" font-family="Arial"/>
 <path id="path4176" opacity=".25" d="m256 41c-86.11 0-155.89 69.78-155.89 155.89 0 43.07 17.45 82.06 45.68 110.29l101.39 101.39c-4.13 4.35-6.83 10.05-7.37 16.37l-8.92-8.92h-48.3c-6.24 0-11.26 5.02-11.26 11.26 0 3.14 1.27 5.97 3.31 8.02l76.7 76.7h234.66c14.4 0 26-11.6 26-26v-253.58l-145.76-145.77c-28.21-28.205-67.18-45.65-110.24-45.65zm-193.94 342.61v43.67 43.72l40.996 41h119.35l-84.71-84.72-37.821-21.83-37.815-21.84z" fill-rule="evenodd"/>
 <path id="path3444" fill="#fff" d="m256 41c-86.109 0-155.89 69.782-155.89 155.89 0 86.109 69.782 155.94 155.89 155.94 86.109 0 155.89-69.827 155.89-155.94 0-86.11-69.78-155.89-155.89-155.89zm53.75 18.567c18.422 7.1981 35.646 18.214 50.527 33.094 12.522 12.522 22.381 26.778 29.463 41.947l-91.112 52.57c-1.7803-7.7417-5.6815-15.079-11.712-21.11-6.2768-6.2768-14.019-10.267-22.108-11.939l44.94-94.563zm-53.75 100.87c20.145 0 36.454 16.314 36.454 36.454 0 20.145-16.314 36.499-36.454 36.499-20.145 0-36.454-16.36-36.454-36.499 0-20.145 16.314-36.454 36.454-36.454zm0 8.0807c-15.687 0-28.418 12.689-28.418 28.373 0 15.687 12.735 28.418 28.418 28.418 15.687 0 28.418-12.735 28.418-28.418 0-15.687-12.735-28.373-28.418-28.373zm0 8.353c11.071 0 20.065 8.9491 20.065 20.02s-8.9945 20.065-20.065 20.065c-11.071 0-20.065-8.9945-20.065-20.065 0-11.071 8.9945-20.02 20.065-20.02zm-43.036 29.69c0.33407 1.4514 0.74329 2.8934 1.2257 4.3127 0.16082 0.47309 0.32195 0.93838 0.49937 1.4073 1.4203 3.7536 3.3673 7.34 5.8562 10.668 0.31021 0.415 0.62756 0.81902 0.95333 1.2257 0.98457 1.2242 2.0418 2.4049 3.1778 3.541 1.9619 1.9619 4.0529 3.6636 6.2648 5.1753 0.44197 0.3019 0.91163 0.62367 1.3619 0.90794 1.8073 1.1402 3.6614 2.1465 5.5838 2.9962 0.9576 0.42433 1.926 0.78322 2.9054 1.1349 1.4691 0.52809 2.9414 0.99464 4.4489 1.3619 0.50214 0.12246 0.99285 0.21299 1.4981 0.31778l-44.898 94.562c-1.1589-0.45337-2.2996-0.87843-3.4502-1.3619-1.1423-0.47931-2.2729-0.98869-3.4048-1.4981-2.2752-1.025-4.4882-2.0768-6.7188-3.2232-1.1028-0.56542-2.2226-1.175-3.314-1.7705-1.0987-0.59966-2.1823-1.2315-3.2686-1.8613-2.1787-1.2637-4.3206-2.5655-6.4464-3.9495-1.0593-0.68993-2.0897-1.3682-3.1324-2.0883-4.1914-2.8832-8.2745-5.9841-12.212-9.3518-0.97732-0.83518-1.9447-1.7224-2.9054-2.5876-0.9659-0.86942-1.9571-1.7335-2.9054-2.633-0.94827-0.89949-1.885-1.8386-2.8146-2.7692-4.7029-4.7029-9.0019-9.6122-12.938-14.754-0.65464-0.85593-1.2728-1.7203-1.9067-2.5876-5.7072-7.8019-10.541-16.024-14.527-24.56l91.066-52.615zm-150.9 177.05v43.672 43.717l37.816-21.881 37.816-21.836-37.816-21.836-37.816-21.836zm204.83 16.479c-15.013 0-27.193 12.18-27.193 27.193s12.18 27.193 27.193 27.193 27.193-12.18 27.193-27.193-12.18-27.193-27.193-27.193zm-84.302 15.934c-6.248 0-11.258 5.0105-11.258 11.258 0 6.2479 5.0105 11.304 11.258 11.304h47.576c-2.1891-7.3138-1.7436-15.263 0.72635-22.562h-48.302zm120.39 0c2.1781 7.3019 2.3564 15.27 0.22699 22.562h135.46c6.2479 0 11.258-5.0559 11.258-11.304 0-6.248-5.0105-11.258-11.258-11.258h-135.69z" fill-rule="evenodd"/>
</svg>
