<?xml version="1.0" encoding="UTF-8" standalone="no"?>
<!-- Created with Inkscape (http://www.inkscape.org/) -->
<svg id="svg2" xmlns:rdf="http://www.w3.org/1999/02/22-rdf-syntax-ns#" xmlns="http://www.w3.org/2000/svg" height="100%" width="100%" version="1.1" xmlns:cc="http://creativecommons.org/ns#" xmlns:dc="http://purl.org/dc/elements/1.1/" viewBox="0 0 512 512">
 <metadata id="metadata157">
  <rdf:RDF>
   <cc:Work rdf:about="">
    <dc:format>image/svg+xml</dc:format>
    <dc:type rdf:resource="http://purl.org/dc/dcmitype/StillImage"/>
    <dc:title/>
   </cc:Work>
  </rdf:RDF>
 </metadata>
 <path id="rect2986" fill="#cd1d31" d="m26 0c-14.397 0-26 11.603-26 26v460c0 14.397 11.603 26 26 26h460c14.397 0 26-11.603 26-26v-460c0-14.397-11.6-26-26-26h-460z"/>
 <path id="path8" fill="#68af4c" d="m26 0c-14.397 0-26 11.603-26 26v460c0 14.397 11.603 26 26 26h235.06v-256h250.94v-230c0-14.397-11.6-26-26-26h-460z" fill-rule="evenodd"/>
 <path id="path3352" style="color:#000000;text-indent:0;block-progression:tb;text-decoration-line:none;text-transform:none" d="m0 256v230c0 14.397 11.603 26 26 26h237.09v-256h-263.09z" fill="#55405f"/>
 <path id="path3330" style="color:#000000;text-indent:0;block-progression:tb;text-decoration-line:none;text-transform:none" d="m26 0c-14.397 0-26 11.603-26 26v230h263.09v-256h-237.09z" fill="#0078ad"/>
 <text id="text20" font-size="129.23px" style="word-spacing:0;letter-spacing:0" line-height="125%" y="183.61566" x="-621.68036" font-family="&apos;Gentium Book Basic&apos;">
  <tspan id="tspan22" y="183.61566" x="-621.68036"/>
 </text>
 <text id="text24" style="text-anchor:middle" transform="scale(4.0128 .24920)" font-size="46.954px" y="387.66876" x="42.15728" font-family="Arial"/>
 <text id="text26" font-size="129.23px" style="word-spacing:0;letter-spacing:0" line-height="125%" y="103.61566" x="-40.410366" font-family="&apos;Gentium Book Basic&apos;">
  <tspan id="tspan28" y="103.61566" x="-40.410366"/>
 </text>
 <text id="text30" style="text-anchor:middle" transform="scale(4.0128 .24920)" font-size="46.954px" y="66.630623" x="187.00655" font-family="Arial"/>
 <text id="text32" font-size="129.23px" style="word-spacing:0;letter-spacing:0" line-height="125%" y="-77.644318" x="-1111.9904" font-family="&apos;Gentium Book Basic&apos;">
  <tspan id="tspan34" y="-77.644318" x="-1111.9904"/>
 </text>
 <text id="text36" style="text-anchor:middle" transform="scale(4.0128 .24920)" font-size="46.954px" y="-660.71576" x="-80.032082" font-family="Arial"/>
 <text id="text38" font-size="129.23px" style="word-spacing:0;letter-spacing:0" line-height="125%" y="-294.11432" x="-13.940395" font-family="&apos;Gentium Book Basic&apos;">
  <tspan id="tspan40" y="-294.11432" x="-13.940395"/>
 </text>
 <text id="text42" style="text-anchor:middle" transform="scale(4.0128 .24920)" font-size="46.954px" y="-1529.3914" x="193.60652" font-family="Arial"/>
 <text id="text44" font-size="129.23px" style="word-spacing:0;letter-spacing:0" line-height="125%" y="-374.11432" x="567.32965" font-family="&apos;Gentium Book Basic&apos;">
  <tspan id="tspan46" y="-374.11432" x="567.32965"/>
 </text>
 <text id="text48" style="text-anchor:middle" transform="scale(4.0128 .24920)" font-size="46.954px" y="-1850.4197" x="338.45578" font-family="Arial"/>
 <text id="text50" font-size="129.23px" style="word-spacing:0;letter-spacing:0" line-height="125%" y="-846.51434" x="178.20963" font-family="&apos;Gentium Book Basic&apos;">
  <tspan id="tspan52" y="-846.51434" x="178.20963"/>
 </text>
 <text id="text54" style="text-anchor:middle" transform="scale(4.0128 .24920)" font-size="46.954px" y="-3746.0701" x="241.48622" font-family="Arial"/>
 <text id="text56" font-size="129.23px" style="word-spacing:0;letter-spacing:0" line-height="125%" y="-926.52435" x="759.46967" font-family="&apos;Gentium Book Basic&apos;">
  <tspan id="tspan58" y="-926.52435" x="759.46967"/>
 </text>
 <text id="text60" style="text-anchor:middle" transform="scale(4.0128 .24920)" font-size="46.954px" y="-4067.1084" x="386.33554" font-family="Arial"/>
 <text id="text62" font-size="208.33px" style="word-spacing:0;letter-spacing:0" line-height="125%" y="488.19574" x="-1073.3304" font-family="&apos;Gentium Book Basic&apos;">
  <tspan id="tspan64" y="488.19574" x="-1073.3304"/>
 </text>
 <path id="path3250" opacity=".25" d="m254.36 39.91c-16.97 0.86-30.48 14.931-30.48 32.115 0 8.858 3.6 16.867 9.4 22.668l12.65 12.657v117.04c-9.63 3.18-17.27 10.82-20.45 20.45h-117.04l-12.657-12.65c-5.801-5.8-13.81-9.4-22.668-9.4-17.738 0-32.115 14.38-32.115 32.12 0 8.87 3.595 16.9 9.406 22.71l234.38 234.38h201.21c14.4 0 26-11.6 26-26v-203.39l-233.29-233.29c-5.81-5.815-13.84-9.41-22.71-9.41-0.55 0-1.09-0.028-1.64 0z"/>
 <path id="path3613" fill="#fff" d="m254.36 39.91c-16.97 0.86002-30.474 14.931-30.474 32.115 0 14.216 9.2474 26.246 22.046 30.473v121.89c-9.6318 3.1804-17.268 10.817-20.449 20.449h-121.89c-4.229-12.8-16.259-22.04-30.475-22.04-17.739 0-32.115 14.37-32.115 32.11 0 17.738 14.376 32.115 32.115 32.115 14.216 0 26.246-9.2474 30.474-22.046h121.89c4.2271 12.802 16.3 22.046 30.518 22.046s26.291-9.2441 30.518-22.046h121.89c4.2275 12.798 16.257 22.046 30.473 22.046 17.738 0 32.115-14.376 32.115-32.115 0-17.738-14.376-32.115-32.115-32.115-14.216 0-26.246 9.2474-30.473 22.046h-121.89c-3.1803-9.6318-10.817-17.268-20.449-20.449v-121.89c12.798-4.2275 22.046-16.257 22.046-30.473 0-17.738-14.376-32.115-32.115-32.115-0.5543 0-1.0938-0.0277-1.6412 0z"/>
</svg>
