<?xml version="1.0" encoding="UTF-8" standalone="no"?>
<!-- Created with Inkscape (http://www.inkscape.org/) -->
<svg id="svg2" xmlns:rdf="http://www.w3.org/1999/02/22-rdf-syntax-ns#" xmlns="http://www.w3.org/2000/svg" height="100%" width="100%" version="1.1" xmlns:cc="http://creativecommons.org/ns#" xmlns:dc="http://purl.org/dc/elements/1.1/" viewBox="0 0 512 512">
 <metadata id="metadata157">
  <rdf:RDF>
   <cc:Work rdf:about="">
    <dc:format>image/svg+xml</dc:format>
    <dc:type rdf:resource="http://purl.org/dc/dcmitype/StillImage"/>
    <dc:title/>
   </cc:Work>
  </rdf:RDF>
 </metadata>
 <path id="rect2986" fill="#924565" d="m26 0c-14.397 0-26 11.603-26 26v460c0 14.397 11.603 26 26 26h460c14.397 0 26-11.603 26-26v-460c0-14.397-11.6-26-26-26h-460z"/>
 <text id="text20" font-size="129.23px" style="word-spacing:0;letter-spacing:0" line-height="125%" y="131.45755" x="-121.57612" font-family="&apos;Gentium Book Basic&apos;">
  <tspan id="tspan22" y="131.45755" x="-121.57612"/>
 </text>
 <text id="text24" style="text-anchor:middle" transform="scale(4.0128 .24920)" font-size="46.954px" y="178.36761" x="166.78391" font-family="Arial"/>
 <text id="text26" font-size="129.23px" style="word-spacing:0;letter-spacing:0" line-height="125%" y="51.457546" x="459.69391" font-family="&apos;Gentium Book Basic&apos;">
  <tspan id="tspan28" y="51.457546" x="459.69391"/>
 </text>
 <text id="text30" style="text-anchor:middle" transform="scale(4.0128 .24920)" font-size="46.954px" y="-142.67053" x="311.63318" font-family="Arial"/>
 <text id="text32" font-size="129.23px" style="word-spacing:0;letter-spacing:0" line-height="125%" y="-129.80243" x="-611.88611" font-family="&apos;Gentium Book Basic&apos;">
  <tspan id="tspan34" y="-129.80243" x="-611.88611"/>
 </text>
 <text id="text36" style="text-anchor:middle" transform="scale(4.0128 .24920)" font-size="46.954px" y="-870.01691" x="44.59454" font-family="Arial"/>
 <text id="text38" font-size="129.23px" style="word-spacing:0;letter-spacing:0" line-height="125%" y="-346.27243" x="486.16388" font-family="&apos;Gentium Book Basic&apos;">
  <tspan id="tspan40" y="-346.27243" x="486.16388"/>
 </text>
 <text id="text42" style="text-anchor:middle" transform="scale(4.0128 .24920)" font-size="46.954px" y="-1738.6925" x="318.23315" font-family="Arial"/>
 <text id="text44" font-size="129.23px" style="word-spacing:0;letter-spacing:0" line-height="125%" y="-426.27243" x="1067.4338" font-family="&apos;Gentium Book Basic&apos;">
  <tspan id="tspan46" y="-426.27243" x="1067.4338"/>
 </text>
 <text id="text48" style="text-anchor:middle" transform="scale(4.0128 .24920)" font-size="46.954px" y="-2059.7207" x="463.0824" font-family="Arial"/>
 <text id="text50" font-size="129.23px" style="word-spacing:0;letter-spacing:0" line-height="125%" y="-898.67242" x="678.3139" font-family="&apos;Gentium Book Basic&apos;">
  <tspan id="tspan52" y="-898.67242" x="678.3139"/>
 </text>
 <text id="text54" style="text-anchor:middle" transform="scale(4.0128 .24920)" font-size="46.954px" y="-3955.3713" x="366.11285" font-family="Arial"/>
 <text id="text56" font-size="129.23px" style="word-spacing:0;letter-spacing:0" line-height="125%" y="-978.68243" x="1259.5739" font-family="&apos;Gentium Book Basic&apos;">
  <tspan id="tspan58" y="-978.68243" x="1259.5739"/>
 </text>
 <text id="text60" style="text-anchor:middle" transform="scale(4.0128 .24920)" font-size="46.954px" y="-4276.4097" x="510.96216" font-family="Arial"/>
 <text id="text62" font-size="208.33px" style="word-spacing:0;letter-spacing:0" line-height="125%" y="436.03763" x="-573.22614" font-family="&apos;Gentium Book Basic&apos;">
  <tspan id="tspan64" y="436.03763" x="-573.22614"/>
 </text>
 <path id="path3263" opacity=".25" d="m222.89 41c-0.38-0.004-0.75 0.003-1.13 0.02-5.35 0.238-10.66 2.58-14.57 7.912-5.44 7.399-9.07 15.08-10.95 23.088l-24.82-24.827c-3.75-3.748-9.29-6.129-14.93-6.191-0.37-0.004-0.75 0.001-1.12 0.018-5.35 0.238-10.67 2.58-14.58 7.912-11.91 16.221-15.18 33.788-10.09 53.208 5.02 19.14 19.02 33.97 11.89 54.51-2.46 7.1-0.61 12.92 3.33 16.85l28.58 28.58h-126.62c0.001 71.25 0.002 172.19 55.75 227.94l81.98 81.98h300.39c14.4 0 26-11.6 26-26v-231.02l-207.79-207.79c-4-3.995-10.03-6.439-16.05-6.17-5.35 0.238-10.71 2.58-14.62 7.912-5.43 7.393-9.06 15.066-10.92 23.066l-24.81-24.805c-3.74-3.748-9.28-6.131-14.92-6.193z"/>
 <path id="path3050" d="m155.36 41.02c-5.3498 0.23855-10.662 2.5801-14.575 7.912-11.906 16.221-15.177 33.787-10.087 53.21 5.0162 19.135 19.017 33.968 11.891 54.505-7.8193 22.536 27.836 32.131 35.581 9.8091 5.9014-17.011 4.3189-33.527-2.1284-50.11-7.1702-18.42-16.613-30.798-3.4239-48.768 10.132-13.806-3.5866-27.168-17.258-26.559zm66.396 0c-5.3498 0.23855-10.662 2.5801-14.575 7.912-11.906 16.221-15.223 33.787-10.133 53.21 5.0162 19.135 19.063 33.968 11.937 54.505-7.8193 22.536 27.836 32.131 35.581 9.8091 5.9014-17.011 4.2726-33.527-2.1747-50.11-7.1702-18.42-16.567-30.798-3.3776-48.768 10.132-13.806-3.5866-27.168-17.258-26.559zm66.396 0c-5.3498 0.23855-10.708 2.5801-14.621 7.912-11.906 16.221-15.177 33.787-10.087 53.21 5.0162 19.135 19.063 33.968 11.937 54.505-7.8193 22.536 27.835 32.131 35.581 9.8091 5.9014-17.011 4.2726-33.527-2.1747-50.11-7.1702-18.42-16.567-30.798-3.3776-48.768 10.132-13.806-3.5866-27.168-17.258-26.559zm-240.28 161.06c0 103.27 0.001 268.92 169.76 268.92 79.248 0 121.51-36.093 144.04-85.089 72.793-3.0613 102.44-35.581 102.44-75.326 0-34.73-22.69-63.954-76.946-72.828 0.22129-12.422 0.23135-24.431 0.23135-35.674h-339.52zm58.16 26.42c9.2209-0.00092 18.395 5.965 18.369 17.86-0.1032 50.516 10.398 98.729 39.005 140.98 13.374 19.762-18.624 38.217-31.88 18.646-31.994-47.28-44.114-103.11-43.996-159.63 0.0258-11.891 9.2868-17.859 18.508-17.86zm279.88 42.614c28.363 7.0448 34.856 21.576 34.517 40.254-0.38358 21.26-8.2161 35.709-46.686 40.902 7.1923-26.091 10.561-54.025 12.169-81.156z" fill="#fff"/>
</svg>
