<?xml version="1.0" encoding="UTF-8" standalone="no"?>
<!-- Created with Inkscape (http://www.inkscape.org/) -->
<svg id="svg2" xmlns:rdf="http://www.w3.org/1999/02/22-rdf-syntax-ns#" xmlns="http://www.w3.org/2000/svg" height="100%" width="100%" version="1.1" xmlns:cc="http://creativecommons.org/ns#" viewBox="0 0 512 512" xmlns:dc="http://purl.org/dc/elements/1.1/">
 <metadata id="metadata110">
  <rdf:RDF>
   <cc:Work rdf:about="">
    <dc:format>image/svg+xml</dc:format>
    <dc:type rdf:resource="http://purl.org/dc/dcmitype/StillImage"/>
   </cc:Work>
  </rdf:RDF>
 </metadata>
 <text id="text4" style="word-spacing:0;letter-spacing:0" font-size="129.23px" line-height="125%" y="231.36" x="729.64001" font-family="Gentium Book Basic">
  <tspan id="tspan6" y="231.36" x="729.64001"/>
 </text>
 <text id="text8" style="text-anchor:middle" transform="scale(4.0128 .2492)" font-size="46.954px" y="579.25" x="378.91" font-family="Arial"/>
 <text id="text10" style="word-spacing:0;letter-spacing:0" font-size="129.23px" line-height="125%" y="151.36" x="1310.91" font-family="Gentium Book Basic">
  <tspan id="tspan12" y="151.36" x="1310.91"/>
 </text>
 <text id="text14" style="text-anchor:middle" transform="scale(4.0128 .2492)" font-size="46.954px" y="258.22" x="523.76001" font-family="Arial"/>
 <text id="text16" style="word-spacing:0;letter-spacing:0" font-size="129.23px" line-height="125%" y="-29.900999" x="239.33" font-family="Gentium Book Basic">
  <tspan id="tspan18" y="-29.900999" x="239.33"/>
 </text>
 <text id="text20" style="text-anchor:middle" transform="scale(4.0128 .2492)" font-size="46.954px" y="-469.14001" x="256.72" font-family="Arial"/>
 <text id="text22" style="word-spacing:0;letter-spacing:0" font-size="129.23px" line-height="125%" y="-246.37" x="1337.38" font-family="Gentium Book Basic">
  <tspan id="tspan24" y="-246.37" x="1337.38"/>
 </text>
 <text id="text26" style="text-anchor:middle" transform="scale(4.0128 .2492)" font-size="46.954px" y="-1337.8101" x="530.35999" font-family="Arial"/>
 <text id="text28" style="word-spacing:0;letter-spacing:0" font-size="129.23px" line-height="125%" y="-326.38" x="1918.65" font-family="Gentium Book Basic">
  <tspan id="tspan30" y="-326.38" x="1918.65"/>
 </text>
 <text id="text32" style="text-anchor:middle" transform="scale(4.0128 .2492)" font-size="46.954px" y="-1658.85" x="675.21002" font-family="Arial"/>
 <text id="text34" style="word-spacing:0;letter-spacing:0" font-size="129.23px" line-height="125%" y="-798.78003" x="1529.53" font-family="Gentium Book Basic">
  <tspan id="tspan36" y="-798.78003" x="1529.53"/>
 </text>
 <text id="text38" style="text-anchor:middle" transform="scale(4.0128 .2492)" font-size="46.954px" y="-3554.51" x="578.23999" font-family="Arial"/>
 <text id="text40" style="word-spacing:0;letter-spacing:0" font-size="129.23px" line-height="125%" y="-878.78003" x="2110.79" font-family="Gentium Book Basic">
  <tspan id="tspan42" y="-878.78003" x="2110.79"/>
 </text>
 <text id="text44" style="text-anchor:middle" transform="scale(4.0128 .2492)" font-size="46.954px" y="-3875.54" x="723.09003" font-family="Arial"/>
 <rect id="rect46" rx="25.988" height="512" width="512" y="-.003" x="0" fill="#0078ad"/>
 <g id="g48" fill-rule="evenodd">
  <path id="path50" d="m26-0.003c-14.397 0-26 11.603-26 26v460c0 14.397 11.603 26 26 26h21.781v-512h-21.781" fill="#369"/>
  <path id="path52" d="m47.781-0.003v512h40v-512h-40" fill="#32465c"/>
 </g>
 <text id="text54" style="word-spacing:0;letter-spacing:0" font-size="129.23px" line-height="125%" y="271.06" x="171.42999" font-family="Gentium Book Basic">
  <tspan id="tspan56" y="271.06" x="171.42999"/>
 </text>
 <text id="text58" style="text-anchor:middle" transform="scale(4.0128 .2492)" font-size="46.954px" y="738.52002" x="239.8" font-family="Arial"/>
 <text id="text60" style="word-spacing:0;letter-spacing:0" font-size="129.23px" line-height="125%" y="191.06" x="752.70001" font-family="Gentium Book Basic">
  <tspan id="tspan62" y="191.06" x="752.70001"/>
 </text>
 <text id="text64" style="text-anchor:middle" transform="scale(4.0128 .2492)" font-size="46.954px" y="417.51001" x="384.64999" font-family="Arial"/>
 <text id="text66" style="word-spacing:0;letter-spacing:0" font-size="129.23px" line-height="125%" y="9.7930002" x="-318.88" font-family="Gentium Book Basic">
  <tspan id="tspan68" y="9.7930002" x="-318.88"/>
 </text>
 <text id="text70" style="text-anchor:middle" transform="scale(4.0128 .2492)" font-size="46.954px" y="-309.85001" x="117.61" font-family="Arial"/>
 <text id="text72" style="word-spacing:0;letter-spacing:0" font-size="129.23px" line-height="125%" y="-206.67" x="779.16998" font-family="Gentium Book Basic">
  <tspan id="tspan74" y="-206.67" x="779.16998"/>
 </text>
 <text id="text76" style="text-anchor:middle" transform="scale(4.0128 .2492)" font-size="46.954px" y="-1178.52" x="391.25" font-family="Arial"/>
 <text id="text78" style="word-spacing:0;letter-spacing:0" font-size="129.23px" line-height="125%" y="-286.67999" x="1360.4399" font-family="Gentium Book Basic">
  <tspan id="tspan80" y="-286.67999" x="1360.4399"/>
 </text>
 <text id="text82" style="text-anchor:middle" transform="scale(4.0128 .2492)" font-size="46.954px" y="-1499.54" x="536.09998" font-family="Arial"/>
 <text id="text84" style="word-spacing:0;letter-spacing:0" font-size="129.23px" line-height="125%" y="-759.08002" x="971.32001" font-family="Gentium Book Basic">
  <tspan id="tspan86" y="-759.08002" x="971.32001"/>
 </text>
 <text id="text88" style="text-anchor:middle" transform="scale(4.0128 .2492)" font-size="46.954px" y="-3395.1799" x="439.13" font-family="Arial"/>
 <text id="text90" style="word-spacing:0;letter-spacing:0" font-size="129.23px" line-height="125%" y="-839.08002" x="1552.58" font-family="Gentium Book Basic">
  <tspan id="tspan92" y="-839.08002" x="1552.58"/>
 </text>
 <text id="text94" style="text-anchor:middle" transform="scale(4.0128 .2492)" font-size="46.954px" y="-3716.21" x="583.97998" font-family="Arial"/>
 <text id="text96" style="word-spacing:0;letter-spacing:0" font-size="208.33px" line-height="125%" y="575.64001" x="-280.22" font-family="Gentium Book Basic">
  <tspan id="tspan98" y="575.64001" x="-280.22"/>
 </text>
 <path id="path100" d="m188.34 127.44c-5.262-0.002-11.413 1.213-16.06 0.344-14.12 0-28.23 0.001-42.34 0l-88.94 253c5.02 2.678 6.833 7.615 11.844 10.313 2.23 4.562 7.685 6.854 9.906 11.438 5.04 2.654 6.796 7.636 11.844 10.281 2.19 4.598 7.681 6.857 9.875 11.438 5.05 2.674 6.816 7.652 11.875 10.313 2.179 4.595 7.686 6.852 9.875 11.438 5.03 2.678 6.829 7.619 11.844 10.313 2.233 4.563 7.689 6.856 9.906 11.438 5.03 2.659 6.8 7.636 11.844 10.281 2.206 4.611 7.69 6.869 9.906 11.469 5.03 2.651 6.801 7.636 11.844 10.281 2.184 4.598 7.683 6.853 9.875 11.438 0.454 0.242 0.875 0.506 1.281 0.781h313.28c14.397 0 26-11.603 26-26v-223.44c-21.391-21.305-42.829-42.515-64.34-63.56-36.24-22.886-84.14-17.1-122.12-1.563-16.582 3.519 1.824 19.18 3.844 29.13 3.171 8.42 7.668 13.662 12.219 15.969 3.234 4.557 7.576 5.932 9.844 9.969 4.799 1.873 6.581 7.02 11 8.094 7.241 2-24.714 13.09-28.719 5.656-6.713-5.59-12.337-12.729-19.06-18.313-6.245-7.384-13.587-13.218-19.844-20.594-6.712-5.591-12.339-12.73-19.06-18.313-6.245-7.384-13.587-13.218-19.844-20.594-6.712-5.591-12.339-12.73-19.06-18.313-6.246-7.386-13.587-13.217-19.844-20.594-6.712-5.591-12.339-12.73-19.06-18.313-1.942-3.046-5.501-3.78-9.594-3.781" fill-opacity="0.235"/>
 <text id="text102" style="word-spacing:0;letter-spacing:0" font-weight="bold" font-size="352.96px" line-height="125%" y="380.78" x="41" font-family="Sans" fill="#ffffff">
  <tspan id="tspan104" y="380.78" x="41">Aa</tspan>
 </text>
</svg>
