<?xml version="1.0" encoding="UTF-8" standalone="no"?>
<!-- Created with Inkscape (http://www.inkscape.org/) -->

<svg
   xmlns:dc="http://purl.org/dc/elements/1.1/"
   xmlns:cc="http://creativecommons.org/ns#"
   xmlns:rdf="http://www.w3.org/1999/02/22-rdf-syntax-ns#"
   xmlns:svg="http://www.w3.org/2000/svg"
   xmlns="http://www.w3.org/2000/svg"
   xmlns:sodipodi="http://sodipodi.sourceforge.net/DTD/sodipodi-0.dtd"
   xmlns:inkscape="http://www.inkscape.org/namespaces/inkscape"
   id="svg2"
   height="100%"
   width="100%"
   version="1.1"
   viewBox="0 0 512 512"
   inkscape:version="0.91+devel r13804 custom"
   sodipodi:docname="kthesaurus.svg">
  <defs
     id="defs57" />
  <sodipodi:namedview
     pagecolor="#ffffff"
     bordercolor="#666666"
     borderopacity="1"
     objecttolerance="10"
     gridtolerance="10"
     guidetolerance="10"
     inkscape:pageopacity="0"
     inkscape:pageshadow="2"
     inkscape:window-width="1366"
     inkscape:window-height="709"
     id="namedview55"
     showgrid="false"
     inkscape:zoom="0.4609375"
     inkscape:cx="-8.6779661"
     inkscape:cy="237.55932"
     inkscape:window-x="0"
     inkscape:window-y="0"
     inkscape:window-maximized="0"
     inkscape:current-layer="svg2" />
  <metadata
     id="metadata110">
    <rdf:RDF>
      <cc:Work
         rdf:about="">
        <dc:format>image/svg+xml</dc:format>
        <dc:type
           rdf:resource="http://purl.org/dc/dcmitype/StillImage" />
      </cc:Work>
    </rdf:RDF>
  </metadata>
  <rect
     style="fill:#0078ad"
     id="rect46"
     rx="25.988001"
     height="512"
     width="512"
     y="-0.0045011719"
     x="5.830078e-06" />
  <path
     d="m 25.99999,-0.00449 c -14.397,0 -26,11.603 -26,26 l 0,460 c 0,14.397 11.603,26 26,26 l 21.781,0 0,-512 -21.781,0"
     id="path50"
     inkscape:connector-curvature="0"
     style="fill:#336699;fill-rule:evenodd" />
  <path
     d="m 47.78099,-0.00449 0,512 40,0 0,-512 -40,0"
     id="path52"
     inkscape:connector-curvature="0"
     style="fill:#32465c;fill-rule:evenodd" />
  <path
     inkscape:connector-curvature="0"
     style="fill-opacity:0.23500001"
     id="path100"
     d="m 188.33999,127.43851 c -5.262,-0.002 -11.413,1.213 -16.06,0.344 -14.12,0 -28.23,0.001 -42.34,0 l -88.94,253 c 5.02,2.678 6.833,7.615 11.844,10.313 2.23,4.562 7.685,6.854 9.906,11.438 5.04,2.654 6.796,7.636 11.844,10.281 2.19,4.598 7.681,6.857 9.875,11.438 5.05,2.674 6.816,7.652 11.875,10.313 2.179,4.595 7.686,6.852 9.875,11.438 5.03,2.678 6.829,7.619 11.844,10.313 2.233,4.563 7.689,6.856 9.906,11.438 5.03,2.659 6.8,7.636 11.844,10.281 2.206,4.611 7.69,6.869 9.906,11.469 5.03,2.651 6.801,7.636 11.844,10.281 2.184,4.598 7.683,6.853 9.875,11.438 0.454,0.242 0.875,0.506 1.281,0.781 l 313.28,0 c 14.397,0 26,-11.603 26,-26 l 0,-223.44 c -21.391,-21.305 -42.829,-42.515 -64.34,-63.56 -36.24,-22.886 -84.14,-17.1 -122.12,-1.563 -16.582,3.519 1.824,19.18 3.844,29.13 3.171,8.42 7.668,13.662 12.219,15.969 3.234,4.557 7.576,5.932 9.844,9.969 4.799,1.873 6.581,7.02 11,8.094 7.241,2 -24.714,13.09 -28.719,5.656 -6.713,-5.59 -12.337,-12.729 -19.06,-18.313 -6.245,-7.384 -13.587,-13.218 -19.844,-20.594 -6.712,-5.591 -12.339,-12.73 -19.06,-18.313 -6.245,-7.384 -13.587,-13.218 -19.844,-20.594 -6.712,-5.591 -12.339,-12.73 -19.06,-18.313 -6.246,-7.386 -13.587,-13.217 -19.844,-20.594 -6.712,-5.591 -12.339,-12.73 -19.06,-18.313 -1.942,-3.046 -5.501,-3.78 -9.594,-3.781" />
  <text
     id="text102"
     style="font-weight:bold;font-size:352.95999146px;line-height:125%;font-family:Sans;letter-spacing:0;word-spacing:0;fill:#ffffff"
     font-weight="bold"
     font-size="352.96px"
     line-height="125%"
     y="382.15414"
     x="13.426184"
     sodipodi:linespacing="125%">
    <tspan
       id="tspan104"
       y="382.15414"
       x="13.426184">Aa</tspan>
  </text>
</svg>
