<?xml version="1.0" encoding="UTF-8" standalone="no"?>
<!-- Created with Inkscape (http://www.inkscape.org/) -->
<svg id="svg2" xmlns:rdf="http://www.w3.org/1999/02/22-rdf-syntax-ns#" xmlns="http://www.w3.org/2000/svg" height="100%" width="100%" version="1.1" xmlns:cc="http://creativecommons.org/ns#" xmlns:dc="http://purl.org/dc/elements/1.1/" viewBox="0 0 512 512">
 <metadata id="metadata157">
  <rdf:RDF>
   <cc:Work rdf:about="">
    <dc:format>image/svg+xml</dc:format>
    <dc:type rdf:resource="http://purl.org/dc/dcmitype/StillImage"/>
    <dc:title/>
   </cc:Work>
  </rdf:RDF>
 </metadata>
 <path id="path9" d="m26 0c-14.397 0-26 11.603-26 26v460c0 14.397 11.603 26 26 26h460c14.397 0 26-11.603 26-26v-460c0-14.397-11.6-26-26-26h-460" fill="#9b202f"/>
 <text id="text11" font-size="129.23px" style="word-spacing:0;letter-spacing:0" line-height="125%" y="195.89" x="-330.20999" font-family="&apos;Gentium Book Basic&apos;">
  <tspan id="tspan13" y="195.89" x="-330.20999"/>
 </text>
 <text id="text15" style="text-anchor:middle" transform="scale(4.0128 .24920)" font-size="46.954px" y="436.89777" x="114.78941" font-family="Arial"/>
 <text id="text17" font-size="129.23px" style="word-spacing:0;letter-spacing:0" line-height="125%" y="115.89" x="251.06" font-family="&apos;Gentium Book Basic&apos;">
  <tspan id="tspan19" y="115.89" x="251.06"/>
 </text>
 <text id="text21" style="text-anchor:middle" transform="scale(4.0128 .24920)" font-size="46.954px" y="115.8794" x="259.63867" font-family="Arial"/>
 <text id="text23" font-size="129.23px" style="word-spacing:0;letter-spacing:0" line-height="125%" y="-65.370003" x="-820.52002" font-family="&apos;Gentium Book Basic&apos;">
  <tspan id="tspan25" y="-65.370003" x="-820.52002"/>
 </text>
 <text id="text27" style="text-anchor:middle" transform="scale(4.0128 .24920)" font-size="46.954px" y="-611.47687" x="-7.3969622" font-family="Arial"/>
 <text id="text29" font-size="129.23px" style="word-spacing:0;letter-spacing:0" line-height="125%" y="-281.84" x="277.53" font-family="&apos;Gentium Book Basic&apos;">
  <tspan id="tspan31" y="-281.84" x="277.53"/>
 </text>
 <text id="text33" style="text-anchor:middle" transform="scale(4.0128 .24920)" font-size="46.954px" y="-1480.1425" x="266.23862" font-family="Arial"/>
 <text id="text35" font-size="129.23px" style="word-spacing:0;letter-spacing:0" line-height="125%" y="-361.85001" x="858.79999" font-family="&apos;Gentium Book Basic&apos;">
  <tspan id="tspan37" y="-361.85001" x="858.79999"/>
 </text>
 <text id="text39" style="text-anchor:middle" transform="scale(4.0128 .24920)" font-size="46.954px" y="-1801.1708" x="411.08789" font-family="Arial"/>
 <text id="text41" font-size="129.23px" style="word-spacing:0;letter-spacing:0" line-height="125%" y="-834.25" x="469.67999" font-family="&apos;Gentium Book Basic&apos;">
  <tspan id="tspan43" y="-834.25" x="469.67999"/>
 </text>
 <text id="text45" style="text-anchor:middle" transform="scale(4.0128 .24920)" font-size="46.954px" y="-3696.811" x="314.11838" font-family="Arial"/>
 <text id="text47" font-size="129.23px" style="word-spacing:0;letter-spacing:0" line-height="125%" y="-914.25" x="1050.9399" font-family="&apos;Gentium Book Basic&apos;">
  <tspan id="tspan49" y="-914.25" x="1050.9399"/>
 </text>
 <text id="text51" style="text-anchor:middle" transform="scale(4.0128 .24920)" font-size="46.954px" y="-4017.8396" x="458.96765" font-family="Arial"/>
 <text id="text53" font-size="208.33px" style="word-spacing:0;letter-spacing:0" line-height="125%" y="500.47" x="-781.85999" font-family="&apos;Gentium Book Basic&apos;">
  <tspan id="tspan55" y="500.47" x="-781.85999"/>
 </text>
 <path id="path59" opacity=".25" d="m278.14 63.141c-103.06 0-187.25 80.809-192.62 182.52l47.49 47.49h-0.01l-47.49-47.49h-44.514l128.35 128.36-23.95 21.95 0.03 0.03 116 116h224.57c14.4 0 26-11.6 26-26v-268.9l-97.48-97.48c-34.9-34.9-83.12-56.479-136.38-56.479z"/>
 <path id="path101" d="m278.14 63.14c-103.06 0-187.25 80.81-192.62 182.52h-44.513l70.62 69.903 66.71-69.903h-53.34c5.321-79.946 71.853-143.16 153.14-143.16 84.78 0 153.5 68.73 153.5 153.5 0 84.78-68.73 153.46-153.5 153.46-39.922 0-76.3-15.23-103.6-40.2l-29.14 26.708c34.582 32.806 81.31 52.897 132.74 52.897 106.53 0 192.86-86.33 192.86-192.86s-86.33-192.86-192.86-192.86m3.393 81.04-11.378 0.639a4.2801 4.2801 0 0 0 -4.072 4.072l-5.669 121.44a4.2801 4.2801 0 0 0 1.4372 3.4333l67.07 58.765a4.2801 4.2801 0 0 0 5.5891 0.0399l8.863-7.585a4.2801 4.2801 0 0 0 0.31937 -6.2278l-52.657-55.05-4.99-115.41a4.2801 4.2801 0 0 0 -4.5112 -4.112" fill="#fff"/>
</svg>
