<?xml version="1.0" encoding="UTF-8" standalone="no"?>
<!-- Created with Inkscape (http://www.inkscape.org/) -->
<svg id="svg2" xmlns:rdf="http://www.w3.org/1999/02/22-rdf-syntax-ns#" xmlns="http://www.w3.org/2000/svg" height="100%" width="100%" version="1.1" xmlns:cc="http://creativecommons.org/ns#" xmlns:dc="http://purl.org/dc/elements/1.1/" viewBox="0 0 512 512">
 <metadata id="metadata157">
  <rdf:RDF>
   <cc:Work rdf:about="">
    <dc:format>image/svg+xml</dc:format>
    <dc:type rdf:resource="http://purl.org/dc/dcmitype/StillImage"/>
    <dc:title/>
   </cc:Work>
  </rdf:RDF>
 </metadata>
 <path id="path9" d="m26 0c-14.397 0-26 11.603-26 26v460c0 14.397 11.603 26 26 26h460c14.397 0 26-11.603 26-26v-460c0-14.397-11.6-26-26-26h-460" fill="#d23638"/>
 <text id="text11" font-size="129.23px" style="word-spacing:0;letter-spacing:0" line-height="125%" y="91.57" x="71.720001" font-family="&apos;Gentium Book Basic&apos;">
  <tspan id="tspan13" y="91.57" x="71.720001"/>
 </text>
 <text id="text15" style="text-anchor:middle" transform="scale(4.0128 .24920)" font-size="46.954px" y="18.302906" x="214.9489" font-family="Arial"/>
 <text id="text17" font-size="129.23px" style="word-spacing:0;letter-spacing:0" line-height="125%" y="11.572" x="652.98999" font-family="&apos;Gentium Book Basic&apos;">
  <tspan id="tspan19" y="11.572" x="652.98999"/>
 </text>
 <text id="text21" style="text-anchor:middle" transform="scale(4.0128 .24920)" font-size="46.954px" y="-302.72845" x="359.79816" font-family="Arial"/>
 <text id="text23" font-size="129.23px" style="word-spacing:0;letter-spacing:0" line-height="125%" y="-169.69" x="-418.59" font-family="&apos;Gentium Book Basic&apos;">
  <tspan id="tspan25" y="-169.69" x="-418.59"/>
 </text>
 <text id="text27" style="text-anchor:middle" transform="scale(4.0128 .24920)" font-size="46.954px" y="-1030.0747" x="92.759529" font-family="Arial"/>
 <text id="text29" font-size="129.23px" style="word-spacing:0;letter-spacing:0" line-height="125%" y="-386.16" x="679.46002" font-family="&apos;Gentium Book Basic&apos;">
  <tspan id="tspan31" y="-386.16" x="679.46002"/>
 </text>
 <text id="text33" style="text-anchor:middle" transform="scale(4.0128 .24920)" font-size="46.954px" y="-1898.7402" x="366.39813" font-family="Arial"/>
 <text id="text35" font-size="129.23px" style="word-spacing:0;letter-spacing:0" line-height="125%" y="-466.17001" x="1260.73" font-family="&apos;Gentium Book Basic&apos;">
  <tspan id="tspan37" y="-466.17001" x="1260.73"/>
 </text>
 <text id="text39" style="text-anchor:middle" transform="scale(4.0128 .24920)" font-size="46.954px" y="-2219.7786" x="511.24738" font-family="Arial"/>
 <text id="text41" font-size="129.23px" style="word-spacing:0;letter-spacing:0" line-height="125%" y="-938.57001" x="871.60999" font-family="&apos;Gentium Book Basic&apos;">
  <tspan id="tspan43" y="-938.57001" x="871.60999"/>
 </text>
 <text id="text45" style="text-anchor:middle" transform="scale(4.0128 .24920)" font-size="46.954px" y="-4115.4189" x="414.27786" font-family="Arial"/>
 <text id="text47" font-size="129.23px" style="word-spacing:0;letter-spacing:0" line-height="125%" y="-1018.57" x="1452.87" font-family="&apos;Gentium Book Basic&apos;">
  <tspan id="tspan49" y="-1018.57" x="1452.87"/>
 </text>
 <text id="text51" style="text-anchor:middle" transform="scale(4.0128 .24920)" font-size="46.954px" y="-4436.437" x="559.12714" font-family="Arial"/>
 <g id="g53" style="word-spacing:0;letter-spacing:0" transform="translate(-657.92,-139.79)" font-size="208.33px" font-family="&apos;Gentium Book Basic&apos;" line-height="125%">
  <text id="text55" y="535.94" x="277.98999">
   <tspan id="tspan57" y="535.94" x="277.98999"/>
  </text>
  <text id="text59" y="413.26999" x="-1771.42">
   <tspan id="tspan61" y="413.26999" x="-1771.42"/>
  </text>
 </g>
 <text id="text63" style="text-anchor:middle" transform="scale(4.0128 .24920)" font-size="75.7px" y="534.53723" x="-287.65854" font-family="Arial"/>
 <text id="text65" font-size="208.33px" style="word-spacing:0;letter-spacing:0" line-height="125%" y="719.39001" x="-1871.16" font-family="&apos;Gentium Book Basic&apos;">
  <tspan id="tspan67" y="719.39001" x="-1871.16"/>
 </text>
 <text id="text69" style="text-anchor:middle" transform="scale(4.0128 .24920)" font-size="75.7px" y="2323.8779" x="-148.56924" font-family="Arial"/>
 <text id="text71" font-size="40px" style="word-spacing:0;letter-spacing:0" line-height="125%" y="481.87" x="217.53" font-family="Sans">
  <tspan id="tspan73" font-style="italic" y="481.87" x="217.53" font-weight="bold"/>
 </text>
 <path id="path77" opacity=".25" d="m255.93 40.996v0.004c-77.89 0.003-140.96 60.5-140.96 135.22 0 36.35 14.94 69.38 39.25 93.69l9.12 9.12c4.29 5.04 8.48 11.77 12.03 19.75l0.02 0.02c5.03 11.33 7.72 22.85 7.99 32.14l0.03 0.06c0.61 9.71 4.77 18.42 11.21 24.86l26.05 26.05-27.04 3.19 17.35 17.34-15.1 1.78 14.69 14.69-16.98 2 17.6 17.6-15.31 1.8 30.02 30.02-5.68 0.61 41.06 41.06h224.72c14.4 0 26-11.6 26-26v-249.15l-154.18-154.18c-25.69-25.687-61.85-41.674-101.89-41.674z"/>
 <path id="path133" d="m255.94 41c-77.893 0-140.97 60.5-140.97 135.22 0 38.471 16.732 73.21 43.594 97.84l0.063 0.125c5.88 5.094 11.907 13.705 16.75 24.594 5.04 11.335 7.732 22.864 8 32.16l0.031 0.063c1.275 20.254 18.01 36.16 38.594 36.16h68.28c21.424 0 38.688-17.233 38.688-38.656v-3.063c0.952-8.158 3.496-17.446 7.594-26.656 4.847-10.892 10.843-19.535 16.719-24.625 26.947-24.646 43.75-59.42 43.75-97.94 0-74.72-63.2-135.22-141.09-135.22m-5.0625 35.781a10.753 10.753 0 0 1 1.875 21.406c-19.741 2.459-36.904 8.472-49.813 19.781-12.907 11.31-22.326 28.13-25.5 55.22a10.764 10.764 0 1 1 -21.344 -2.5312c3.642-31.09 15.497-53.836 32.656-68.875 17.16-15.04 38.864-22.14 61.34-24.938a10.753 10.753 0 0 1 0.78125 -0.0625m70.25 293.28a9.6397 9.6397 0 0 0 -0.1875 0.0312 9.6397 9.6397 0 0 0 -0.6875 0.0625l-126.62 14.938a9.6397 9.6397 0 1 0 2.25 19.125l126.63-14.906a9.6495 9.6495 0 1 0 -1.375 -19.25m-0.1875 35.844a9.7756 9.7756 0 0 0 -0.6875 0.0937l-126.66 14.906a9.7756 9.7756 0 1 0 2.2812 19.406l126.66-14.906a9.7825 9.7825 0 1 0 -1.5938 -19.5m-23.938 37.094a9.7859 9.7859 0 0 0 -0.40625 0.0312 9.7756 9.7756 0 0 0 -0.6875 0.0937l-77.78 8.375a9.7788 9.7788 0 1 0 2.0938 19.438l77.78-8.375a9.794 9.794 0 1 0 -1 -19.562" fill="#fff"/>
</svg>
