<?xml version="1.0" encoding="UTF-8" standalone="no"?>
<!-- Created with Inkscape (http://www.inkscape.org/) -->
<svg id="svg2" xmlns:rdf="http://www.w3.org/1999/02/22-rdf-syntax-ns#" xmlns="http://www.w3.org/2000/svg" height="100%" width="100%" version="1.1" xmlns:cc="http://creativecommons.org/ns#" xmlns:dc="http://purl.org/dc/elements/1.1/" viewBox="0 0 512 512">
 <metadata id="metadata157">
  <rdf:RDF>
   <cc:Work rdf:about="">
    <dc:format>image/svg+xml</dc:format>
    <dc:type rdf:resource="http://purl.org/dc/dcmitype/StillImage"/>
    <dc:title/>
   </cc:Work>
  </rdf:RDF>
 </metadata>
 <path id="path9" d="m26 0c-14.397 0-26 11.603-26 26v460c0 14.397 11.603 26 26 26h460c14.397 0 26-11.603 26-26v-460c0-14.397-11.6-26-26-26h-460" fill="#49a026"/>
 <text id="text11" font-size="129.23px" style="word-spacing:0;letter-spacing:0" line-height="125%" y="48.618" x="-618.60999" font-family="&apos;Gentium Book Basic&apos;">
  <tspan id="tspan13" y="48.618" x="-618.60999"/>
 </text>
 <text id="text15" style="text-anchor:middle" transform="scale(4.0128 .24920)" font-size="46.954px" y="-154.0592" x="42.92178" font-family="Arial"/>
 <text id="text17" font-size="129.23px" style="word-spacing:0;letter-spacing:0" line-height="125%" y="-31.382" x="-37.34" font-family="&apos;Gentium Book Basic&apos;">
  <tspan id="tspan19" y="-31.382" x="-37.34"/>
 </text>
 <text id="text21" style="text-anchor:middle" transform="scale(4.0128 .24920)" font-size="46.954px" y="-475.08755" x="187.76904" font-family="Arial"/>
 <text id="text23" font-size="129.23px" style="word-spacing:0;letter-spacing:0" line-height="125%" y="-212.64" x="-1108.92" font-family="&apos;Gentium Book Basic&apos;">
  <tspan id="tspan25" y="-212.64" x="-1108.92"/>
 </text>
 <text id="text27" style="text-anchor:middle" transform="scale(4.0128 .24920)" font-size="46.954px" y="-1202.4438" x="-79.269592" font-family="Arial"/>
 <text id="text29" font-size="129.23px" style="word-spacing:0;letter-spacing:0" line-height="125%" y="-429.10999" x="-10.872" font-family="&apos;Gentium Book Basic&apos;">
  <tspan id="tspan31" y="-429.10999" x="-10.872"/>
 </text>
 <text id="text33" style="text-anchor:middle" transform="scale(4.0128 .24920)" font-size="46.954px" y="-2071.0996" x="194.369" font-family="Arial"/>
 <text id="text35" font-size="129.23px" style="word-spacing:0;letter-spacing:0" line-height="125%" y="-509.12" x="570.40002" font-family="&apos;Gentium Book Basic&apos;">
  <tspan id="tspan37" y="-509.12" x="570.40002"/>
 </text>
 <text id="text39" style="text-anchor:middle" transform="scale(4.0128 .24920)" font-size="46.954px" y="-2392.1377" x="339.21826" font-family="Arial"/>
 <text id="text41" font-size="129.23px" style="word-spacing:0;letter-spacing:0" line-height="125%" y="-981.52002" x="181.28" font-family="&apos;Gentium Book Basic&apos;">
  <tspan id="tspan43" y="-981.52002" x="181.28"/>
 </text>
 <text id="text45" style="text-anchor:middle" transform="scale(4.0128 .24920)" font-size="46.954px" y="-4287.7778" x="242.24876" font-family="Arial"/>
 <text id="text47" font-size="129.23px" style="word-spacing:0;letter-spacing:0" line-height="125%" y="-1061.52" x="762.53998" font-family="&apos;Gentium Book Basic&apos;">
  <tspan id="tspan49" y="-1061.52" x="762.53998"/>
 </text>
 <text id="text51" style="text-anchor:middle" transform="scale(4.0128 .24920)" font-size="46.954px" y="-4608.8066" x="387.09802" font-family="Arial"/>
 <text id="text53" font-size="208.33px" style="word-spacing:0;letter-spacing:0" line-height="125%" y="353.20001" x="-1070.26" font-family="&apos;Gentium Book Basic&apos;">
  <tspan id="tspan55" y="353.20001" x="-1070.26"/>
 </text>
 <path id="path59" opacity=".25" style="color:#000000" d="m254.47 41c-0.46-0.013-0.88 0.157-1.22 0.5l-91.41 93.22c-0.67 0.69-0.63 1.83 0.09 2.56l0.78 0.78 135.39 137.1 0.05 0.05c-0.01-0.01-0.03-0.02-0.05-0.04l25.15 25.15-25.4 26.3 53.46 53.46c0 0.01-0.01 0.01-0.01 0.01l-53.46-53.46c-0.45 0.46-0.36 1.27 0.19 1.81l183.56 183.56h4.41c14.4 0 26-11.6 26-26v-188.19l-256.26-256.26c-0.36-0.353-0.82-0.535-1.27-0.55zm-122.84 123.19c-0.31 0.02-0.63 0.18-0.87 0.44l61.52 61.52v0.01l-61.53-61.53-87.336 90.65h-0.004c-0.49 0.51-0.546 1.29-0.094 1.75l60.494 60.49h-0.01l-60.489-60.49 59.719 60.19 32.49 32.49-3.83 3.88c-0.59 0.59-0.54 1.61 0.09 2.25l115.15 115.15-115.15-115.15 114 114.66 41.5 41.5h192.69l-347.5-347.5c-0.22-0.23-0.53-0.33-0.84-0.31z"/>
 <path id="path147" style="color:#000000" d="m254.47 41c-0.455-0.014-0.882 0.156-1.219 0.5l-91.41 93.22c-0.674 0.687-0.628 1.832 0.094 2.563l136.16 137.88c0.721 0.73 1.857 0.75 2.531 0.063l91.38-93.22c0.674-0.687 0.628-1.832-0.094-2.563l-136.16-137.87c-0.361-0.365-0.826-0.548-1.281-0.563m-122.84 123.19c-0.307 0.017-0.63 0.183-0.875 0.438l-87.34 90.66c-0.49 0.508-0.546 1.294-0.094 1.75l59.719 60.19c0.452 0.456 1.229 0.415 1.719-0.094l87.34-90.69c0.49-0.508 0.546-1.294 0.094-1.75l-59.719-60.19c-0.226-0.228-0.536-0.33-0.844-0.313m284.41 40.625c-0.323-0.027-0.621 0.05-0.844 0.281l-117.34 121.53c-0.446 0.462-0.357 1.269 0.188 1.813l51.563 51.44c0.545 0.544 1.335 0.618 1.781 0.156l117.34-121.5c0.446-0.462 0.357-1.269-0.188-1.813l-51.563-51.47c-0.272-0.272-0.614-0.411-0.938-0.438m-207.06 70.86c-0.292 0.047-0.593 0.184-0.813 0.406l-76.47 77.5c-0.586 0.594-0.54 1.613 0.094 2.25l114 114.66c0.633 0.637 1.602 0.656 2.188 0.063l76.47-77.5c0.586-0.594 0.54-1.582-0.094-2.219l-113.98-114.66c-0.396-0.398-0.92-0.579-1.406-0.5" fill="#fff"/>
</svg>
