<?xml version="1.0" encoding="UTF-8" standalone="no"?>
<!-- Created with Inkscape (http://www.inkscape.org/) -->
<svg id="svg2" xmlns:rdf="http://www.w3.org/1999/02/22-rdf-syntax-ns#" xmlns="http://www.w3.org/2000/svg" height="100%" width="100%" version="1.1" xmlns:cc="http://creativecommons.org/ns#" xmlns:dc="http://purl.org/dc/elements/1.1/" viewBox="0 0 512 512">
 <metadata id="metadata139">
  <rdf:RDF>
   <cc:Work rdf:about="">
    <dc:format>image/svg+xml</dc:format>
    <dc:type rdf:resource="http://purl.org/dc/dcmitype/StillImage"/>
    <dc:title/>
   </cc:Work>
  </rdf:RDF>
 </metadata>
 <path id="path9" d="m26 0c-14.397 0-26 11.603-26 26v460c0 14.397 11.603 26 26 26h460c14.397 0 26-11.603 26-26v-460c0-14.397-11.6-26-26-26h-460" fill="#32465c"/>
 <text id="text11" style="word-spacing:0;letter-spacing:0" font-size="129.23px" line-height="125%" y="109.98" x="206.71001" font-family="Gentium Book Basic">
  <tspan id="tspan13" y="109.98" x="206.71001"/>
 </text>
 <text id="text15" style="text-anchor:middle" transform="scale(4.0128 .2492)" font-size="46.954px" y="92.169998" x="248.59" font-family="Arial"/>
 <text id="text17" style="word-spacing:0;letter-spacing:0" font-size="129.23px" line-height="125%" y="29.981001" x="787.97998" font-family="Gentium Book Basic">
  <tspan id="tspan19" y="29.981001" x="787.97998"/>
 </text>
 <text id="text21" style="text-anchor:middle" transform="scale(4.0128 .2492)" font-size="46.954px" y="-228.85001" x="393.44" font-family="Arial"/>
 <text id="text23" style="word-spacing:0;letter-spacing:0" font-size="129.23px" line-height="125%" y="-151.28" x="-283.60001" font-family="Gentium Book Basic">
  <tspan id="tspan25" y="-151.28" x="-283.60001"/>
 </text>
 <text id="text27" style="text-anchor:middle" transform="scale(4.0128 .2492)" font-size="46.954px" y="-956.21002" x="126.4" font-family="Arial"/>
 <text id="text29" style="word-spacing:0;letter-spacing:0" font-size="129.23px" line-height="125%" y="-367.75" x="814.45001" font-family="Gentium Book Basic">
  <tspan id="tspan31" y="-367.75" x="814.45001"/>
 </text>
 <text id="text33" style="text-anchor:middle" transform="scale(4.0128 .2492)" font-size="46.954px" y="-1824.88" x="400.04001" font-family="Arial"/>
 <text id="text35" style="word-spacing:0;letter-spacing:0" font-size="129.23px" line-height="125%" y="-447.76001" x="1395.72" font-family="Gentium Book Basic">
  <tspan id="tspan37" y="-447.76001" x="1395.72"/>
 </text>
 <text id="text39" style="text-anchor:middle" transform="scale(4.0128 .2492)" font-size="46.954px" y="-2145.9099" x="544.89001" font-family="Arial"/>
 <text id="text41" style="word-spacing:0;letter-spacing:0" font-size="129.23px" line-height="125%" y="-920.15997" x="1006.6" font-family="Gentium Book Basic">
  <tspan id="tspan43" y="-920.15997" x="1006.6"/>
 </text>
 <text id="text45" style="text-anchor:middle" transform="scale(4.0128 .2492)" font-size="46.954px" y="-4041.5701" x="447.92001" font-family="Arial"/>
 <text id="text47" style="word-spacing:0;letter-spacing:0" font-size="129.23px" line-height="125%" y="-1000.16" x="1587.86" font-family="Gentium Book Basic">
  <tspan id="tspan49" y="-1000.16" x="1587.86"/>
 </text>
 <text id="text51" style="text-anchor:middle" transform="scale(4.0128 .2492)" font-size="46.954px" y="-4362.5898" x="592.77002" font-family="Arial"/>
 <text id="text53" style="word-spacing:0;letter-spacing:0" font-size="208.33px" line-height="125%" y="414.56" x="-244.94" font-family="Gentium Book Basic">
  <tspan id="tspan55" y="414.56" x="-244.94"/>
 </text>
 <path id="path59" opacity=".25" fill-rule="evenodd" d="m209.82 61.59c-16.57 0-30.01 13.397-30.01 29.971l30.06 30.059h-0.01l-30.06-30.059c0 8.298 3.37 15.819 8.81 21.259l22.58 22.58h-128.35c-8.752 0-15.795 7-15.795 15.75l0.006 0.01c0.002 4.38 1.77 8.34 4.635 11.21l0.058 0.06c-0.021-0.02-0.044-0.04-0.064-0.06l18.75 18.75h-6.731l-0.01-0.01-40.179 190.6h0.002c-1.612 5.51-2.512 11.3-2.512 17.33l61.37 61.37h-0.01l-61.36-61.36c0 17 6.846 32.36 17.945 43.46l79.495 79.49h347.56c14.4 0 26-11.6 26-26v-274.64l-71.33-71.33-0.02-0.02c-2.86-2.86-6.81-4.62-11.2-4.62l15.79 15.8v0.01l-15.79-15.8h-33.02l-65.01-65.009c-5.43-5.433-12.94-8.791-21.24-8.791-16.58 0.001-30.01 13.397-30.01 29.97l30.05 30.05h-0.01l-30.05-30.05c0 2.239 0.26 4.422 0.73 6.52-1.75 1.721-6.93 6.81-11.16 10.97l-38.67-38.669c-5.43-5.43-12.94-8.788-21.23-8.791l-0.01-0.01z"/>
 <path id="path135" fill="#fff" d="m209.82 61.59c-16.575 0-30.01 13.397-30.01 29.971 0 16.575 13.437 30.06 30.01 30.06 2.686 0 5.259-0.391 7.736-1.054l9.355 8.465 11.907-0.121 15.351-15.11-15.189-15.07c0.56-2.292 0.85-4.705 0.85-7.166 0-16.575-13.437-29.971-30.01-29.971m100.36 0c-16.575 0-30.01 13.397-30.01 29.971 0 2.239 0.264 4.422 0.729 6.52-5.794 5.715-30.818 30.414-38.473 37.31h-159.58c-8.752 0-15.796 7-15.796 15.753 0 8.752 7.04 15.836 15.796 15.836h346.61c8.752 0 15.796-7.085 15.796-15.836 0-8.752-7.04-15.753-15.796-15.753h-143.98l14.945-15.472c3.064 1.055 6.34 1.7 9.76 1.7 16.573 0 30.01-13.478 30.01-30.06 0-16.575-13.437-29.971-30.01-29.971m-226.49 119.51-40.18 190.6c-1.611 5.5-2.51 11.29-2.51 17.33 0 33.961 27.316 61.36 61.28 61.36h307.2c33.961 0 61.32-27.397 61.32-61.36 0-2.649-0.203-5.218-0.526-7.776h0.729l-44.02-200.15h-343.28" fill-rule="evenodd"/>
</svg>
