<?xml version="1.0" encoding="UTF-8" standalone="no"?>
<!-- Created with Inkscape (http://www.inkscape.org/) -->
<svg id="svg2" xmlns:rdf="http://www.w3.org/1999/02/22-rdf-syntax-ns#" xmlns="http://www.w3.org/2000/svg" height="100%" width="100%" version="1.1" xmlns:cc="http://creativecommons.org/ns#" xmlns:dc="http://purl.org/dc/elements/1.1/" viewBox="0 0 512 512">
 <metadata id="metadata139">
  <rdf:RDF>
   <cc:Work rdf:about="">
    <dc:format>image/svg+xml</dc:format>
    <dc:type rdf:resource="http://purl.org/dc/dcmitype/StillImage"/>
    <dc:title/>
   </cc:Work>
  </rdf:RDF>
 </metadata>
 <path id="rect2986" fill="#cd1d31" d="m26 0c-14.397 0-26 11.603-26 26v460c0 14.397 11.603 26 26 26h460c14.397 0 26-11.603 26-26v-460c0-14.397-11.6-26-26-26h-460z"/>
 <text id="text20" font-size="129.23px" style="word-spacing:0;letter-spacing:0" line-height="125%" y="109.98067" x="-333.27667" font-family="&apos;Gentium Book Basic&apos;">
  <tspan id="tspan22" y="109.98067" x="-333.27667"/>
 </text>
 <text id="text24" style="text-anchor:middle" transform="scale(4.0128 .24920)" font-size="46.954px" y="92.184776" x="114.02785" font-family="Arial"/>
 <text id="text26" font-size="129.23px" style="word-spacing:0;letter-spacing:0" line-height="125%" y="29.980671" x="247.99333" font-family="&apos;Gentium Book Basic&apos;">
  <tspan id="tspan28" y="29.980671" x="247.99333"/>
 </text>
 <text id="text30" style="text-anchor:middle" transform="scale(4.0128 .24920)" font-size="46.954px" y="-228.85338" x="258.87714" font-family="Arial"/>
 <text id="text32" font-size="129.23px" style="word-spacing:0;letter-spacing:0" line-height="125%" y="-151.27931" x="-823.58667" font-family="&apos;Gentium Book Basic&apos;">
  <tspan id="tspan34" y="-151.27931" x="-823.58667"/>
 </text>
 <text id="text36" style="text-anchor:middle" transform="scale(4.0128 .24920)" font-size="46.954px" y="-956.19977" x="-8.1615124" font-family="Arial"/>
 <text id="text38" font-size="129.23px" style="word-spacing:0;letter-spacing:0" line-height="125%" y="-367.7493" x="274.46332" font-family="&apos;Gentium Book Basic&apos;">
  <tspan id="tspan40" y="-367.7493" x="274.46332"/>
 </text>
 <text id="text42" style="text-anchor:middle" transform="scale(4.0128 .24920)" font-size="46.954px" y="-1824.8754" x="265.47711" font-family="Arial"/>
 <text id="text44" font-size="129.23px" style="word-spacing:0;letter-spacing:0" line-height="125%" y="-447.7493" x="855.73334" font-family="&apos;Gentium Book Basic&apos;">
  <tspan id="tspan46" y="-447.7493" x="855.73334"/>
 </text>
 <text id="text48" style="text-anchor:middle" transform="scale(4.0128 .24920)" font-size="46.954px" y="-2145.9036" x="410.32635" font-family="Arial"/>
 <text id="text50" font-size="129.23px" style="word-spacing:0;letter-spacing:0" line-height="125%" y="-920.14929" x="466.61334" font-family="&apos;Gentium Book Basic&apos;">
  <tspan id="tspan52" y="-920.14929" x="466.61334"/>
 </text>
 <text id="text54" style="text-anchor:middle" transform="scale(4.0128 .24920)" font-size="46.954px" y="-4041.554" x="313.35681" font-family="Arial"/>
 <text id="text56" font-size="129.23px" style="word-spacing:0;letter-spacing:0" line-height="125%" y="-1000.1593" x="1047.8733" font-family="&apos;Gentium Book Basic&apos;">
  <tspan id="tspan58" y="-1000.1593" x="1047.8733"/>
 </text>
 <text id="text60" style="text-anchor:middle" transform="scale(4.0128 .24920)" font-size="46.954px" y="-4362.5923" x="458.20612" font-family="Arial"/>
 <text id="text62" font-size="208.33px" style="word-spacing:0;letter-spacing:0" line-height="125%" y="414.56076" x="-784.9267" font-family="&apos;Gentium Book Basic&apos;">
  <tspan id="tspan64" y="414.56076" x="-784.9267"/>
 </text>
 <path id="path3323" opacity=".25" d="m189.74 41c-1.92 0-77.52 44.839-80.45 47.736-1.56 1.553-1.22 2.742 2.4 8.698 39.93 65.756 66.52 111.17 65.61 111.98-0.62 0.56-24.69 0.28-53.45-0.62-28.771-0.89-58.961-1.69-67.096-1.75h-14.789l-0.719 48.02c-0.442 28.22-0.281 48.5 0.4 49.21h0.002l84.742 84.74c-10.44 17.61-18.38 31.95-18.09 32.73 0.02 0.05 0.07 0.12 0.15 0.2l90.06 90.06h287.49c14.4 0 26-11.6 26-26v-289.13l-107.57-107.57c-0.79-0.793-7.87-5.157-16.16-10.017-8.61-5.047-26.66-15.734-40.14-23.722s-25.05-14.497-25.72-14.497c-0.97 0-22.14 38.958-46.72 85.886l-85.76-85.762-0.19-0.188z"/>
 <path id="rect3036" fill="#fff" d="m189.74 41c-1.9233 0-77.517 44.84-80.447 47.737-1.5655 1.5525-1.2255 2.7406 2.3918 8.6964 39.934 65.761 66.527 111.17 65.617 111.98-0.62742 0.55843-24.692 0.27923-53.458-0.61428s-58.957-1.7005-67.092-1.7549h-14.79l-0.71744 48.023c-0.44212 28.215-0.28071 48.495 0.40029 49.207 1.0917 1.1588 85.026-0.73993 119.51-2.6945 11.89-0.67013 14.436-0.47467 15.029 1.089 0.40629 1.089-4.9837 11.42-12.517 24.013-7.2789 12.164-22.853 38.192-34.603 57.824-11.749 19.635-21.09 36.395-20.769 37.243 0.8258 2.1919 77.465 47.121 80.526 47.211 2.3589 0 19.829-31.646 59.717-108.38 2.9887-5.7492 6.2769-10.453 7.2952-10.453 1.1324 0 12.883 21.076 30.257 54.232 35.912 68.533 34.919 66.644 35.599 66.644 0.31677 0 8.7462-4.9254 18.736-10.901 9.9902-5.9795 28.328-16.893 40.781-24.299 12.454-7.4064 22.643-14.011 22.643-14.662 0-0.65617-11.865-21.009-26.39-45.246-14.525-24.241-30.268-50.532-35.001-58.438-4.8367-8.0793-8.1537-14.882-7.5344-15.518 0.62016-0.64221 30.027-0.27922 67.252 0.80974 36.368 1.089 66.618 1.5525 67.212 0.97727 1.4429-1.3821 2.2986-96.454 0.87717-97.355-0.61177-0.39091-28.299 0.18148-61.511 1.2704-72.17 2.3441-73.789 2.3608-73.789 0.6143 0-0.75392 11.599-20.598 25.753-44.103 42.259-70.185 44.361-73.794 43.771-74.773-0.31063-0.53054-7.6132-5.0414-16.225-10.088-8.6117-5.0469-26.663-15.736-40.144-23.724-13.481-7.9871-25.049-14.496-25.713-14.496-1.076 0-26.801 47.528-54.575 100.91-6.5706 12.628-10.665 19.162-11.88 18.948-1.02-0.18147-15.945-27.2-33.167-60.07-17.83-34.037-32.05-59.779-33.05-59.786z"/>
</svg>
