<?xml version="1.0" encoding="UTF-8" standalone="no"?>
<!-- Created with Inkscape (http://www.inkscape.org/) -->
<svg id="svg2" xmlns:rdf="http://www.w3.org/1999/02/22-rdf-syntax-ns#" xmlns="http://www.w3.org/2000/svg" height="100%" width="100%" version="1.1" xmlns:cc="http://creativecommons.org/ns#" xmlns:dc="http://purl.org/dc/elements/1.1/" viewBox="0 0 512 512">
 <metadata id="metadata139">
  <rdf:RDF>
   <cc:Work rdf:about="">
    <dc:format>image/svg+xml</dc:format>
    <dc:type rdf:resource="http://purl.org/dc/dcmitype/StillImage"/>
    <dc:title/>
   </cc:Work>
  </rdf:RDF>
 </metadata>
 <path id="rect2986" fill="#ef6a47" d="m26 0c-14.397 0-26 11.603-26 26v460c0 14.397 11.603 26 26 26h460c14.397 0 26-11.603 26-26v-460c0-14.397-11.6-26-26-26h-460z"/>
 <text id="text20" font-size="129.23px" style="word-spacing:0;letter-spacing:0" line-height="125%" y="220.43315" x="-796.56348" font-family="&apos;Gentium Book Basic&apos;">
  <tspan id="tspan22" y="220.43315" x="-796.56348"/>
 </text>
 <text id="text24" style="text-anchor:middle" transform="scale(4.0128 .24920)" font-size="46.954px" y="535.41077" x="-1.4238133" font-family="Arial"/>
 <text id="text26" font-size="129.23px" style="word-spacing:0;letter-spacing:0" line-height="125%" y="140.43315" x="-215.29347" font-family="&apos;Gentium Book Basic&apos;">
  <tspan id="tspan28" y="140.43315" x="-215.29347"/>
 </text>
 <text id="text30" style="text-anchor:middle" transform="scale(4.0128 .24920)" font-size="46.954px" y="214.3726" x="143.42546" font-family="Arial"/>
 <text id="text32" font-size="129.23px" style="word-spacing:0;letter-spacing:0" line-height="125%" y="-40.826828" x="-1286.8735" font-family="&apos;Gentium Book Basic&apos;">
  <tspan id="tspan34" y="-40.826828" x="-1286.8735"/>
 </text>
 <text id="text36" style="text-anchor:middle" transform="scale(4.0128 .24920)" font-size="46.954px" y="-512.97375" x="-123.61317" font-family="Arial"/>
 <text id="text38" font-size="129.23px" style="word-spacing:0;letter-spacing:0" line-height="125%" y="-257.29684" x="-188.8235" font-family="&apos;Gentium Book Basic&apos;">
  <tspan id="tspan40" y="-257.29684" x="-188.8235"/>
 </text>
 <text id="text42" style="text-anchor:middle" transform="scale(4.0128 .24920)" font-size="46.954px" y="-1381.6494" x="150.02544" font-family="Arial"/>
 <text id="text44" font-size="129.23px" style="word-spacing:0;letter-spacing:0" line-height="125%" y="-337.29681" x="392.44653" font-family="&apos;Gentium Book Basic&apos;">
  <tspan id="tspan46" y="-337.29681" x="392.44653"/>
 </text>
 <text id="text48" style="text-anchor:middle" transform="scale(4.0128 .24920)" font-size="46.954px" y="-1702.6777" x="294.87469" font-family="Arial"/>
 <text id="text50" font-size="129.23px" style="word-spacing:0;letter-spacing:0" line-height="125%" y="-809.69684" x="3.3265293" font-family="&apos;Gentium Book Basic&apos;">
  <tspan id="tspan52" y="-809.69684" x="3.3265293"/>
 </text>
 <text id="text54" style="text-anchor:middle" transform="scale(4.0128 .24920)" font-size="46.954px" y="-3598.3281" x="197.90514" font-family="Arial"/>
 <text id="text56" font-size="129.23px" style="word-spacing:0;letter-spacing:0" line-height="125%" y="-889.70685" x="584.58655" font-family="&apos;Gentium Book Basic&apos;">
  <tspan id="tspan58" y="-889.70685" x="584.58655"/>
 </text>
 <text id="text60" style="text-anchor:middle" transform="scale(4.0128 .24920)" font-size="46.954px" y="-3919.3665" x="342.75446" font-family="Arial"/>
 <text id="text62" font-size="208.33px" style="word-spacing:0;letter-spacing:0" line-height="125%" y="525.01324" x="-1248.2135" font-family="&apos;Gentium Book Basic&apos;">
  <tspan id="tspan64" y="525.01324" x="-1248.2135"/>
 </text>
 <path id="path3291" opacity=".25" d="m239.18 41l-164.3 92.9 85.9 85.9v11.92l-23.88-23.88-79.328-44.89-0.088 185.88 24.748 24.75-7.753 4.39 134.03 134.03h277.49c14.4 0 26-11.6 26-26v-277.49l-74.48-74.48-164.21-93.03h-0.09v34.035l-34.04-34.035z"/>
 <path id="path3072" d="m239.18 41-164.3 92.896 79.371 44.891 84.932-47.872v-89.915zm34.035 0v89.871l84.843 48.05 79.46-44.891-164.21-93.03h-0.088zm-17.129 107.13-95.298 53.922-0.044 107.8 95.21 53.967 95.298-53.878v-107.84l-95.165-53.967zm-198.52 14.815-0.088 185.88 79.415-44.846v-96.144l-79.326-44.891zm396.94 0.1334-79.416 44.891v96.099l79.326 44.891 0.088-185.88zm-300.62 169.92-79.412 44.98 164.26 93.03v-89.871l-84.843-48.139zm204.03 0.089v0.0444l-84.843 47.872v89.96l164.21-92.896-79.371-44.98z" fill="#fff"/>
</svg>
