<?xml version="1.0" encoding="UTF-8" standalone="no"?>
<!-- Created with Inkscape (http://www.inkscape.org/) -->
<svg id="svg2" xmlns:rdf="http://www.w3.org/1999/02/22-rdf-syntax-ns#" xmlns="http://www.w3.org/2000/svg" height="100%" width="100%" version="1.1" xmlns:cc="http://creativecommons.org/ns#" xmlns:dc="http://purl.org/dc/elements/1.1/" viewBox="0 0 512 512">
 <metadata id="metadata139">
  <rdf:RDF>
   <cc:Work rdf:about="">
    <dc:format>image/svg+xml</dc:format>
    <dc:type rdf:resource="http://purl.org/dc/dcmitype/StillImage"/>
    <dc:title/>
   </cc:Work>
  </rdf:RDF>
 </metadata>
 <path id="path9" d="m26 0c-14.397 0-26 11.603-26 26v460c0 14.397 11.603 26 26 26h460c14.397 0 26-11.603 26-26v-460c0-14.397-11.6-26-26-26h-460" fill="#68af4c"/>
 <path id="path11" d="m26 0c-14.397 0-26 11.603-26 26v122.41h512v-122.41c0-14.397-11.6-26-26-26h-460" fill="#366378"/>
 <text id="text13" font-size="129.23px" style="word-spacing:0;letter-spacing:0" line-height="125%" y="254.17999" x="258.87" font-family="&apos;Gentium Book Basic&apos;">
  <tspan id="tspan15" y="254.17999" x="258.87"/>
 </text>
 <text id="text17" style="text-anchor:middle" transform="scale(4.0128 .24920)" font-size="46.954px" y="670.8266" x="261.58865" font-family="Arial"/>
 <text id="text19" font-size="129.23px" style="word-spacing:0;letter-spacing:0" line-height="125%" y="174.17999" x="840.14001" font-family="&apos;Gentium Book Basic&apos;">
  <tspan id="tspan21" y="174.17999" x="840.14001"/>
 </text>
 <text id="text23" style="text-anchor:middle" transform="scale(4.0128 .24920)" font-size="46.954px" y="349.79819" x="406.43793" font-family="Arial"/>
 <text id="text25" font-size="129.23px" style="word-spacing:0;letter-spacing:0" line-height="125%" y="-7.0770001" x="-231.44" font-family="&apos;Gentium Book Basic&apos;">
  <tspan id="tspan27" y="-7.0770001" x="-231.44"/>
 </text>
 <text id="text29" style="text-anchor:middle" transform="scale(4.0128 .24920)" font-size="46.954px" y="-377.54807" x="139.39928" font-family="Arial"/>
 <text id="text31" font-size="129.23px" style="word-spacing:0;letter-spacing:0" line-height="125%" y="-223.55" x="866.60999" font-family="&apos;Gentium Book Basic&apos;">
  <tspan id="tspan33" y="-223.55" x="866.60999"/>
 </text>
 <text id="text35" style="text-anchor:middle" transform="scale(4.0128 .24920)" font-size="46.954px" y="-1246.2136" x="413.0379" font-family="Arial"/>
 <text id="text37" font-size="129.23px" style="word-spacing:0;letter-spacing:0" line-height="125%" y="-303.56" x="1447.88" font-family="&apos;Gentium Book Basic&apos;">
  <tspan id="tspan39" y="-303.56" x="1447.88"/>
 </text>
 <text id="text41" style="text-anchor:middle" transform="scale(4.0128 .24920)" font-size="46.954px" y="-1567.252" x="557.88715" font-family="Arial"/>
 <text id="text43" font-size="129.23px" style="word-spacing:0;letter-spacing:0" line-height="125%" y="-775.96002" x="1058.76" font-family="&apos;Gentium Book Basic&apos;">
  <tspan id="tspan45" y="-775.96002" x="1058.76"/>
 </text>
 <text id="text47" style="text-anchor:middle" transform="scale(4.0128 .24920)" font-size="46.954px" y="-3462.8921" x="460.91766" font-family="Arial"/>
 <text id="text49" font-size="129.23px" style="word-spacing:0;letter-spacing:0" line-height="125%" y="-855.96002" x="1640.02" font-family="&apos;Gentium Book Basic&apos;">
  <tspan id="tspan51" y="-855.96002" x="1640.02"/>
 </text>
 <text id="text53" style="text-anchor:middle" transform="scale(4.0128 .24920)" font-size="46.954px" y="-3783.9207" x="605.76691" font-family="Arial"/>
 <text id="text55" font-size="208.33px" style="word-spacing:0;letter-spacing:0" line-height="125%" y="558.76001" x="-192.78" font-family="&apos;Gentium Book Basic&apos;">
  <tspan id="tspan57" y="558.76001" x="-192.78"/>
 </text>
 <path id="path61" opacity=".25" fill-rule="evenodd" d="m370.63 41.072c-0.49-0.006-0.97 0-1.44 0.018-4.95 0.187-9.09 1.734-12.11 4.64l-0.05-0.054-25.76 25.816 180.73 180.73v-95.02l-72.11-72.11c0.06 0.059 0.12 0.119 0.18 0.178l-13.11-13.108c-19.4-19.404-41.19-30.909-56.33-31.088zm-53.57 44.578l-27.09 27.09 222.03 222.03v-54.19l-85.59-85.59v0.01l-109.35-109.35zm-43.79 43.78l-165.13 165.13-20.288 20.29h0.003l-5.193 5.2 24.268 24.27-24.27-24.27-41.189 129.09 20.633 20.63-0.122 0.04 42.188 42.19h381.83c14.4 0 26-11.6 26-26v-117.85l-238.72-238.72 18.21 18.22-18.22-18.22z"/>
 <path id="path117" fill="#fff" d="m369.19 41.09c-4.949 0.187-9.09 1.735-12.11 4.644l-0.055-0.055-25.762 25.817 109.35 109.35 25.596-25.651c12.144-12.144 0.393-43.39-26.315-70.1l-12.94-12.931c-20.03-20.03-42.599-31.643-57.771-31.07m-52.13 44.558-27.09 27.09 109.35 109.35 27.09-27.09-109.35-109.35m-43.784 43.784-165.13 165.13-20.289 20.289-5.197 5.197-41.19 129.09a16.807 18.725 0.7854 0 0 5.4177 18.63 16.807 18.725 0.7854 0 0 15.092 2.0455l130.91-41.35 4.257-4.257 19.736-19.736 165.68-165.68-109.29-109.35m-161.77 209.51a4.6904 4.6904 0 0 1 3.8145 1.3821l9.619 9.619 35.879-1.824a4.6904 4.6904 0 0 1 3.317 1.161 4.6904 4.6904 0 0 1 1.6032 3.704l-1.824 39.14 7.132 7.132a4.6904 4.6904 0 0 1 -2.1008 7.8502l-61.751 16.474a4.6904 4.6904 0 0 1 -4.5332 -1.161l-11.996-11.996a4.6904 4.6904 0 0 1 -1.2162 -4.5885l18.02-63.46a4.6904 4.6904 0 0 1 4.0357 -3.4275" fill-rule="evenodd"/>
</svg>
