<svg xmlns="http://www.w3.org/2000/svg" xmlns:svg="http://www.w3.org/2000/svg" id="svg2" width="100%" height="100%" version="1.1" viewBox="0 0 512 512"><metadata id="metadata139"/><g id="g3385" transform="translate(346.14085,-333.52113)"><path id="path9" d="m -320.14085,333.52113 c -14.397,0 -26,11.603 -26,26 l 0,460 c 0,14.397 11.603,26 26,26 l 460,0 c 14.397,0 26,-11.603 26,-26 l 0,-460 c 0,-14.397 -11.6,-26 -26,-26 l -460,0" style="fill:#68af4c"/><path id="path11" d="m -320.14085,333.52113 c -14.397,0 -26,11.603 -26,26 l 0,122.41 512,0 0,-122.41 c 0,-14.397 -11.6,-26 -26,-26 l -460,0" style="fill:#366378"/><path id="path61" d="m 24.489155,374.59313 c -0.49,-0.006 -0.97,0 -1.44,0.018 -4.95,0.187 -9.09,1.734 -12.11,4.64 l -0.05,-0.054 -25.76,25.816 180.729995,180.73 0,-95.02 -72.109995,-72.11 c 0.06,0.059 0.12,0.119 0.18,0.178 l -13.11,-13.108 c -19.4,-19.404 -41.19,-30.909 -56.33,-31.088 z m -53.57,44.578 -27.09,27.09 222.029995,222.03 0,-54.19 -85.589995,-85.59 0,0.01 -109.35,-109.35 z m -43.79,43.78 -165.130005,165.13 -20.288,20.29 0.003,0 -5.193,5.2 24.268,24.27 -24.27,-24.27 -41.189,129.09 20.633,20.63 -0.122,0.04 42.188,42.19 381.83,0 c 14.4,0 26,-11.6 26,-26 l 0,-117.85 -238.719995,-238.72 18.21,18.22 -18.22,-18.22 z" style="opacity:.25;fill-rule:evenodd"/><path id="path117" d="m 23.049155,374.61113 c -4.949,0.187 -9.09,1.735 -12.11,4.644 l -0.055,-0.055 -25.762,25.817 109.35,109.35 25.595995,-25.651 c 12.144,-12.144 0.393,-43.39 -26.314995,-70.1 l -12.94,-12.931 c -20.03,-20.03 -42.599,-31.643 -57.771,-31.07 m -52.13,44.558 -27.09,27.09 109.35,109.35 27.09,-27.09 -109.35,-109.35 m -43.784,43.784 -165.130005,165.13 -20.289,20.289 -5.197,5.197 -41.19,129.09 a 16.807,18.725 0.7854 0 0 5.4177,18.63 16.807,18.725 0.7854 0 0 15.092,2.0455 l 130.91,-41.35 4.257,-4.257 19.736,-19.736 165.680005,-165.68 -109.29,-109.35 m -161.770005,209.51 a 4.6904,4.6904 0 0 1 3.8145,1.3821 l 9.619,9.619 35.879,-1.824 a 4.6904,4.6904 0 0 1 3.317,1.161 4.6904,4.6904 0 0 1 1.6032,3.704 l -1.824,39.14 7.132,7.132 a 4.6904,4.6904 0 0 1 -2.1008,7.8502 l -61.751,16.474 a 4.6904,4.6904 0 0 1 -4.5332,-1.161 l -11.996,-11.996 a 4.6904,4.6904 0 0 1 -1.2162,-4.5885 l 18.02,-63.46 a 4.6904,4.6904 0 0 1 4.0357,-3.4275" style="fill:#fff;fill-rule:evenodd"/></g></svg>