<?xml version="1.0" encoding="UTF-8" standalone="no"?>
<svg id="svg2" xmlns:rdf="http://www.w3.org/1999/02/22-rdf-syntax-ns#" xmlns="http://www.w3.org/2000/svg" height="100%" viewBox="0 0 512 512" width="100%" version="1.1" xmlns:cc="http://creativecommons.org/ns#" xmlns:dc="http://purl.org/dc/elements/1.1/">
 <metadata id="metadata10">
  <rdf:RDF>
   <cc:Work rdf:about="">
    <dc:format>image/svg+xml</dc:format>
    <dc:type rdf:resource="http://purl.org/dc/dcmitype/StillImage"/>
    <dc:title/>
   </cc:Work>
  </rdf:RDF>
 </metadata>
 <path id="path9" d="m26 0c-14.397 0-26 11.603-26 26v460c0 14.397 11.603 26 26 26h460c14.397 0 26-11.603 26-26v-460c0-14.397-11.6-26-26-26h-460" fill="#8db173"/>
 <text id="text11" font-size="129.23px" style="word-spacing:0;letter-spacing:0" line-height="125%" y="180.55" x="163.75999" font-family="&apos;Gentium Book Basic&apos;">
  <tspan id="tspan13" y="180.55" x="163.75999"/>
 </text>
 <text id="text15" style="text-anchor:middle" transform="scale(4.0128 .24920)" font-size="46.954px" y="375.34808" x="237.88878" font-family="Arial"/>
 <text id="text17" font-size="129.23px" style="word-spacing:0;letter-spacing:0" line-height="125%" y="100.55" x="745.03003" font-family="&apos;Gentium Book Basic&apos;">
  <tspan id="tspan19" y="100.55" x="745.03003"/>
 </text>
 <text id="text21" style="text-anchor:middle" transform="scale(4.0128 .24920)" font-size="46.954px" y="54.319721" x="382.73804" font-family="Arial"/>
 <text id="text23" font-size="129.23px" style="word-spacing:0;letter-spacing:0" line-height="125%" y="-80.709999" x="-326.54999" font-family="&apos;Gentium Book Basic&apos;">
  <tspan id="tspan25" y="-80.709999" x="-326.54999"/>
 </text>
 <text id="text27" style="text-anchor:middle" transform="scale(4.0128 .24920)" font-size="46.954px" y="-673.03656" x="115.6994" font-family="Arial"/>
 <text id="text29" font-size="129.23px" style="word-spacing:0;letter-spacing:0" line-height="125%" y="-297.17999" x="771.5" font-family="&apos;Gentium Book Basic&apos;">
  <tspan id="tspan31" y="-297.17999" x="771.5"/>
 </text>
 <text id="text33" style="text-anchor:middle" transform="scale(4.0128 .24920)" font-size="46.954px" y="-1541.692" x="389.33801" font-family="Arial"/>
 <text id="text35" font-size="129.23px" style="word-spacing:0;letter-spacing:0" line-height="125%" y="-377.19" x="1352.77" font-family="&apos;Gentium Book Basic&apos;">
  <tspan id="tspan37" y="-377.19" x="1352.77"/>
 </text>
 <text id="text39" style="text-anchor:middle" transform="scale(4.0128 .24920)" font-size="46.954px" y="-1862.7305" x="534.18726" font-family="Arial"/>
 <text id="text41" font-size="129.23px" style="word-spacing:0;letter-spacing:0" line-height="125%" y="-849.59003" x="963.65002" font-family="&apos;Gentium Book Basic&apos;">
  <tspan id="tspan43" y="-849.59003" x="963.65002"/>
 </text>
 <text id="text45" style="text-anchor:middle" transform="scale(4.0128 .24920)" font-size="46.954px" y="-3758.3706" x="437.21777" font-family="Arial"/>
 <text id="text47" font-size="129.23px" style="word-spacing:0;letter-spacing:0" line-height="125%" y="-929.59003" x="1544.91" font-family="&apos;Gentium Book Basic&apos;">
  <tspan id="tspan49" y="-929.59003" x="1544.91"/>
 </text>
 <text id="text51" style="text-anchor:middle" transform="scale(4.0128 .24920)" font-size="46.954px" y="-4079.3989" x="582.06702" font-family="Arial"/>
 <g id="g53" style="word-spacing:0;letter-spacing:0" transform="translate(-565.88,-50.812)" font-size="208.33px" font-family="&apos;Gentium Book Basic&apos;" line-height="125%">
  <text id="text55" y="535.94" x="277.98999">
   <tspan id="tspan57" y="535.94" x="277.98999"/>
  </text>
  <text id="text59" y="445.32999" x="-1784.22">
   <tspan id="tspan61" y="445.32999" x="-1784.22"/>
  </text>
 </g>
 <text id="text63" style="text-anchor:middle" transform="scale(4.0128 .24920)" font-size="75.7px" y="1020.2247" x="-267.91864" font-family="Arial"/>
 <text id="text65" font-size="208.33px" style="word-spacing:0;letter-spacing:0" line-height="125%" y="394.51999" x="-2350.1001" font-family="&apos;Gentium Book Basic&apos;">
  <tspan id="tspan67" y="394.51999" x="-2350.1001"/>
 </text>
 <text id="text69" style="text-anchor:middle" transform="scale(4.0128 .24920)" font-size="75.7px" y="1020.2247" x="-267.91864" font-family="Arial"/>
 <text id="text71" font-size="208.33px" style="word-spacing:0;letter-spacing:0" line-height="125%" y="394.51999" x="-2350.1001" font-family="&apos;Gentium Book Basic&apos;">
  <tspan id="tspan73" y="394.51999" x="-2350.1001"/>
 </text>
 <text id="text75" style="text-anchor:middle" transform="scale(4.0128 .24920)" font-size="75.7px" y="1020.2247" x="-267.91864" font-family="Arial"/>
 <text id="text77" font-size="208.33px" style="word-spacing:0;letter-spacing:0" line-height="125%" y="430.97" x="-2379.99" font-family="&apos;Gentium Book Basic&apos;">
  <tspan id="tspan79" y="430.97" x="-2379.99"/>
 </text>
 <text id="text81" style="text-anchor:middle" transform="scale(4.0128 .24920)" font-size="75.7px" y="1166.504" x="-275.36859" font-family="Arial"/>
 <text id="text83" font-size="208.33px" style="word-spacing:0;letter-spacing:0" line-height="125%" y="-336.98001" x="-3027.76" font-family="&apos;Gentium Book Basic&apos;">
  <tspan id="tspan85" y="-336.98001" x="-3027.76"/>
 </text>
 <text id="text87" style="text-anchor:middle" transform="scale(4.0128 .24920)" font-size="75.7px" y="-1915.1202" x="-436.79776" font-family="Arial"/>
 <text id="text89" font-size="208.33px" style="word-spacing:0;letter-spacing:0" line-height="125%" y="-492.60999" x="-2321.4199" font-family="&apos;Gentium Book Basic&apos;">
  <tspan id="tspan91" y="-492.60999" x="-2321.4199"/>
 </text>
 <text id="text93" style="text-anchor:middle" transform="scale(4.0128 .24920)" font-size="75.7px" y="-2539.647" x="-260.77866" font-family="Arial"/>
 <text id="text95" font-size="208.33px" style="word-spacing:0;letter-spacing:0" line-height="125%" y="197.97" x="-3426.3401" font-family="&apos;Gentium Book Basic&apos;">
  <tspan id="tspan97" y="197.97" x="-3426.3401"/>
 </text>
 <text id="text99" style="text-anchor:middle" transform="scale(4.0128 .24920)" font-size="75.7px" y="231.51881" x="-536.11725" font-family="Arial"/>
 <path id="path103" opacity=".25" style="color:#000000" d="m338.66 108.72c-42 0-75.67 12.95-99 39.06-18.5 20.72-29.38 48.07-33.02 81.36l-116.45-116.45h-7.501-34.189-7.5v7.5 271.63 7.49l112.69 112.69h332.31c14.4 0 26-11.6 26-26v-262.14l-80.54-80.54c-23.06-23.06-54.56-34.6-92.8-34.6z"/>
 <path id="path189" style="color:#000000" d="m338.66 108.72c-41.999 0-75.67 12.946-99 39.06-23.18 25.962-34.406 62.32-34.406 107.75 0 45.803 11.299 82.42 34.594 108.63l0.031 0.031c23.431 26.08 56.878 39.09 98.41 39.09 41.06 0 74.35-13.296 97.75-39.844h0.031c0.005-0.006-0.005-0.026 0-0.031 23.47-26.514 34.937-62.776 34.938-107.5 0-44.957-11.408-81.21-34.781-107.5-0.005-0.006 0.005-0.025 0-0.031-23.398-26.427-56.62-39.656-97.56-39.656m-297.66 3.969v7.5 271.63 7.5h7.5 152.88 7.5v-7.5-30.5-7.5h-7.5-111.19v-233.62-7.5h-7.5-34.19-7.5m297.66 41.13c27.517 0 46.863 8.306 60.34 24.906h0.031v0.031c13.446 16.447 20.75 41.903 20.75 77.16 0 35.37-7.377 61.04-20.969 77.75-13.615 16.74-33.02 25.09-60.53 25.09-27.615 0-47.09-8.47-60.844-25.469-13.763-17.01-21.16-42.522-21.16-77.37 0-34.725 7.392-60.03 21.13-76.78l0.031-0.031c13.735-16.861 33.33-25.281 61.22-25.281" fill="#fff"/>
</svg>
