<?xml version="1.0" encoding="UTF-8" standalone="no"?>
<!-- Created with Inkscape (http://www.inkscape.org/) -->
<svg id="svg2" xmlns:rdf="http://www.w3.org/1999/02/22-rdf-syntax-ns#" xmlns="http://www.w3.org/2000/svg" height="100%" width="100%" version="1.1" xmlns:cc="http://creativecommons.org/ns#" xmlns:dc="http://purl.org/dc/elements/1.1/" viewBox="0 0 512 512">
 <metadata id="metadata139">
  <rdf:RDF>
   <cc:Work rdf:about="">
    <dc:format>image/svg+xml</dc:format>
    <dc:type rdf:resource="http://purl.org/dc/dcmitype/StillImage"/>
    <dc:title/>
   </cc:Work>
  </rdf:RDF>
 </metadata>
 <path id="rect2986" fill="#d72323" d="m26 0c-14.397 0-26 11.603-26 26v460c0 14.397 11.603 26 26 26h460c14.397 0 26-11.603 26-26v-460c0-14.397-11.6-26-26-26h-460z"/>
 <text id="text20" font-size="129.23px" style="word-spacing:0;letter-spacing:0" line-height="125%" y="205.09253" x="37.966354" font-family="&apos;Gentium Book Basic&apos;">
  <tspan id="tspan22" y="205.09253" x="37.966354"/>
 </text>
 <text id="text24" style="text-anchor:middle" transform="scale(4.0128 .24920)" font-size="46.954px" y="473.85159" x="206.54208" font-family="Arial"/>
 <text id="text26" font-size="129.23px" style="word-spacing:0;letter-spacing:0" line-height="125%" y="125.09253" x="619.23639" font-family="&apos;Gentium Book Basic&apos;">
  <tspan id="tspan28" y="125.09253" x="619.23639"/>
 </text>
 <text id="text30" style="text-anchor:middle" transform="scale(4.0128 .24920)" font-size="46.954px" y="152.81345" x="351.39136" font-family="Arial"/>
 <text id="text32" font-size="129.23px" style="word-spacing:0;letter-spacing:0" line-height="125%" y="-56.16745" x="-452.34366" font-family="&apos;Gentium Book Basic&apos;">
  <tspan id="tspan34" y="-56.16745" x="-452.34366"/>
 </text>
 <text id="text36" style="text-anchor:middle" transform="scale(4.0128 .24920)" font-size="46.954px" y="-574.53296" x="84.35273" font-family="Arial"/>
 <text id="text38" font-size="129.23px" style="word-spacing:0;letter-spacing:0" line-height="125%" y="-272.63745" x="645.70636" font-family="&apos;Gentium Book Basic&apos;">
  <tspan id="tspan40" y="-272.63745" x="645.70636"/>
 </text>
 <text id="text42" style="text-anchor:middle" transform="scale(4.0128 .24920)" font-size="46.954px" y="-1443.2085" x="357.99133" font-family="Arial"/>
 <text id="text44" font-size="129.23px" style="word-spacing:0;letter-spacing:0" line-height="125%" y="-352.63745" x="1226.9763" font-family="&apos;Gentium Book Basic&apos;">
  <tspan id="tspan46" y="-352.63745" x="1226.9763"/>
 </text>
 <text id="text48" style="text-anchor:middle" transform="scale(4.0128 .24920)" font-size="46.954px" y="-1764.2368" x="502.84058" font-family="Arial"/>
 <text id="text50" font-size="129.23px" style="word-spacing:0;letter-spacing:0" line-height="125%" y="-825.03748" x="837.85638" font-family="&apos;Gentium Book Basic&apos;">
  <tspan id="tspan52" y="-825.03748" x="837.85638"/>
 </text>
 <text id="text54" style="text-anchor:middle" transform="scale(4.0128 .24920)" font-size="46.954px" y="-3659.8872" x="405.87103" font-family="Arial"/>
 <text id="text56" font-size="129.23px" style="word-spacing:0;letter-spacing:0" line-height="125%" y="-905.04749" x="1419.1163" font-family="&apos;Gentium Book Basic&apos;">
  <tspan id="tspan58" y="-905.04749" x="1419.1163"/>
 </text>
 <text id="text60" style="text-anchor:middle" transform="scale(4.0128 .24920)" font-size="46.954px" y="-3980.9255" x="550.72034" font-family="Arial"/>
 <text id="text62" font-size="208.33px" style="word-spacing:0;letter-spacing:0" line-height="125%" y="509.67261" x="-413.68365" font-family="&apos;Gentium Book Basic&apos;">
  <tspan id="tspan64" y="509.67261" x="-413.68365"/>
 </text>
 <path id="path3250" opacity=".25" d="m132.89 61.939c-31.13-0.008-62.035 4.129-91.89 12.178l13.768 51.383 48.582 48.58c-11.419 1.39-22.714 3.59-33.799 6.59l11.289 42.13 55.79 55.8c-13.4-0.41-26.75 1.18-39.585 4.68l9.335 34.86 193.87 193.86h185.75c14.4 0 26-11.6 26-26v-189.71l-131.68-131.69c-21.19-21.19-45.48-39.98-72.68-55.69-55.14-31.834-115.34-46.955-174.75-46.971zm-1.41 313.22c-12.66 0.29-24.89 6.98-31.679 18.74-8.654 14.99-5.716 33.46 5.969 45.15l72.95 72.95h105.95l-125.89-125.89c-2.26-2.26-4.85-4.26-7.75-5.94-6.16-3.55-12.91-5.16-19.55-5.01z"/>
 <path id="path3071" fill="#fff" d="m307.64 108.91c-84.02-48.51-179.79-58.21-266.64-34.793l13.768 51.381c73.708-19.895 154.98-11.739 226.3 29.441 71.299 41.165 119.09 107.43 138.7 181.17l51.23-13.73c-23.12-86.91-79.33-164.96-163.36-213.47zm-55.2 95.609c-57.64-33.28-123.32-39.94-182.89-23.85l11.29 42.136c48.805-13.223 102.63-7.8826 149.85 19.384 47.204 27.253 78.831 71.155 91.77 119.99l42.136-11.29c-15.843-59.591-54.536-113.1-112.16-146.37zm-53.092 91.958c-32.25-18.62-69-22.27-102.3-13.2l9.3408 34.86c24.391-6.6817 51.317-4.0676 74.935 9.5682 23.593 13.621 39.411 35.596 45.809 60.015l34.709-9.3002c-8.773-33.362-30.24-63.326-62.488-81.944zm-48.321 83.694c-17.91-10.341-40.889-4.1834-51.23 13.727s-4.1279 40.793 13.782 51.133c17.91 10.341 40.737 4.2241 51.078-13.686s4.2795-40.834-13.631-51.174z"/>
</svg>
