<?xml version="1.0" encoding="UTF-8" standalone="no"?>
<svg id="svg2" xmlns:rdf="http://www.w3.org/1999/02/22-rdf-syntax-ns#" xmlns="http://www.w3.org/2000/svg" height="100%" viewBox="0 0 512 512" width="100%" version="1.1" xmlns:cc="http://creativecommons.org/ns#" xmlns:dc="http://purl.org/dc/elements/1.1/">
 <metadata id="metadata10">
  <rdf:RDF>
   <cc:Work rdf:about="">
    <dc:format>image/svg+xml</dc:format>
    <dc:type rdf:resource="http://purl.org/dc/dcmitype/StillImage"/>
    <dc:title/>
   </cc:Work>
  </rdf:RDF>
 </metadata>
 <path id="path9" d="m26 0c-14.397 0-26 11.603-26 26v460c0 14.397 11.603 26 26 26h460c14.397 0 26-11.603 26-26v-460c0-14.397-11.6-26-26-26h-460" fill="#484848"/>
 <text id="text11" font-size="129.23px" style="word-spacing:0;letter-spacing:0" line-height="125%" y="60.890999" x="-274.98001" font-family="&apos;Gentium Book Basic&apos;">
  <tspan id="tspan13" y="60.890999" x="-274.98001"/>
 </text>
 <text id="text15" style="text-anchor:middle" transform="scale(4.0128 .24920)" font-size="46.954px" y="-104.81947" x="128.54935" font-family="Arial"/>
 <text id="text17" font-size="129.23px" style="word-spacing:0;letter-spacing:0" line-height="125%" y="-19.110001" x="306.29001" font-family="&apos;Gentium Book Basic&apos;">
  <tspan id="tspan19" y="-19.110001" x="306.29001"/>
 </text>
 <text id="text21" style="text-anchor:middle" transform="scale(4.0128 .24920)" font-size="46.954px" y="-425.83783" x="273.39859" font-family="Arial"/>
 <text id="text23" font-size="129.23px" style="word-spacing:0;letter-spacing:0" line-height="125%" y="-200.37" x="-765.28998" font-family="&apos;Gentium Book Basic&apos;">
  <tspan id="tspan25" y="-200.37" x="-765.28998"/>
 </text>
 <text id="text27" style="text-anchor:middle" transform="scale(4.0128 .24920)" font-size="46.954px" y="-1153.1941" x="6.3659678" font-family="Arial"/>
 <text id="text29" font-size="129.23px" style="word-spacing:0;letter-spacing:0" line-height="125%" y="-416.84" x="332.76001" font-family="&apos;Gentium Book Basic&apos;">
  <tspan id="tspan31" y="-416.84" x="332.76001"/>
 </text>
 <text id="text33" style="text-anchor:middle" transform="scale(4.0128 .24920)" font-size="46.954px" y="-2021.8596" x="279.99857" font-family="Arial"/>
 <text id="text35" font-size="129.23px" style="word-spacing:0;letter-spacing:0" line-height="125%" y="-496.85001" x="914.03003" font-family="&apos;Gentium Book Basic&apos;">
  <tspan id="tspan37" y="-496.85001" x="914.03003"/>
 </text>
 <text id="text39" style="text-anchor:middle" transform="scale(4.0128 .24920)" font-size="46.954px" y="-2342.8879" x="424.84784" font-family="Arial"/>
 <text id="text41" font-size="129.23px" style="word-spacing:0;letter-spacing:0" line-height="125%" y="-969.25" x="524.90997" font-family="&apos;Gentium Book Basic&apos;">
  <tspan id="tspan43" y="-969.25" x="524.90997"/>
 </text>
 <text id="text45" style="text-anchor:middle" transform="scale(4.0128 .24920)" font-size="46.954px" y="-4238.5283" x="327.87833" font-family="Arial"/>
 <text id="text47" font-size="129.23px" style="word-spacing:0;letter-spacing:0" line-height="125%" y="-1049.25" x="1106.17" font-family="&apos;Gentium Book Basic&apos;">
  <tspan id="tspan49" y="-1049.25" x="1106.17"/>
 </text>
 <text id="text51" style="text-anchor:middle" transform="scale(4.0128 .24920)" font-size="46.954px" y="-4559.5566" x="472.7276" font-family="Arial"/>
 <text id="text53" font-size="208.33px" style="word-spacing:0;letter-spacing:0" line-height="125%" y="365.47" x="-726.63" font-family="&apos;Gentium Book Basic&apos;">
  <tspan id="tspan55" y="365.47" x="-726.63"/>
 </text>
 <path id="path59" opacity=".25" style="color:#000000" d="m213.84 40.996c-30.27 0-54.8 16.988-54.8 37.943v0.002c0.88 7.817 5.82 17.686 8.43 21.079l260.43 260.43-260.43-260.43c12.65 16.86 12.65 27.4 9.49 33.72h-0.01-102.23c-18.683 0-33.726 15.04-33.726 33.72l0.006 0.01v85.37l79.04 79.04c-6.57 7.9-15.02 12.65-24.235 12.65h-0.004c-6.431-0.11-16.208-5.86-21.08-8.43-16.857-12.64-27.395-12.65-33.719-9.49h-0.002c-0.002 0-0.004 0-0.006 0.01h0.006v110.66c0 9.34 3.759 17.77 9.855 23.87 0.014 0.01 0.028 0.03 0.041 0.04l50.814 50.81h384.29c14.4 0 26-11.6 26-26v-198.79l-143.56-143.56-0.04-0.04c-6.1-6.1-14.53-9.86-23.87-9.86h-9.22l-76.37-76.369c-9.89-9.889-26.39-16.368-45.08-16.369l-0.02-0.016z"/>
 <path id="path143" style="color:#000000" d="m213.84 40.997c-30.27 0-54.803 16.987-54.803 37.942 0.881 7.817 5.823 17.689 8.432 21.08 12.647 16.863 12.647 27.402 9.485 33.725h-102.23c-18.684 0-33.725 15.04-33.725 33.725v85.37c6.323 3.162 16.863 3.162 33.725-9.485 3.389-2.609 13.261-7.551 21.08-8.432 20.955 0 37.942 24.529 37.942 54.803 0 30.27-16.987 54.803-37.942 54.803-6.431-0.109-16.208-5.86-21.08-8.432-16.863-12.647-27.402-12.647-33.725-9.485v110.67c0 18.684 15.04 33.725 33.725 33.725h135.96c3.162-6.323 3.162-16.863-9.485-33.725-2.609-3.389-7.551-13.261-8.432-21.08 0-20.955 24.529-37.942 54.803-37.942 30.27 0 54.803 16.987 54.803 37.942-0.109 6.431-5.86 16.208-8.432 21.08-12.647 16.863-12.647 27.402-9.485 33.725h60.07c18.684 0 33.725-15.04 33.725-33.725v-93.8c6.323-3.162 16.863-3.162 33.725 9.485 4.87 2.57 14.646 8.323 21.08 8.432 20.955 0 37.942-24.529 37.942-54.803 0-30.27-16.987-54.803-37.942-54.803-7.817 0.881-17.689 5.823-21.08 8.432-16.863 12.647-27.402 12.647-33.725 9.485v-102.23c0-18.684-15.04-33.725-33.725-33.725h-93.8c-3.162-6.323-3.162-16.863 9.485-33.725 2.57-4.87 8.323-14.646 8.432-21.08 0-20.955-24.529-37.942-54.803-37.942" fill="#fff"/>
</svg>
