<svg xmlns="http://www.w3.org/2000/svg" xmlns:svg="http://www.w3.org/2000/svg" id="svg2" width="100%" height="100%" version="1.1" viewBox="0 0 512 512"><metadata id="metadata10"/><path style="fill:#9bbe22" id="rect2986" d="M 26,0 C 11.603,0 0,11.603 0,26 l 0,460 c 0,14.4 11.603,26 26,26 l 460,0 c 14.4,0 26,-11.6 26,-26 L 512,26 C 512,11.603 500.4,0 486,0 L 26,0 Z"/><path style="opacity:.25" id="path6142" d="m 41,68.283 0,41.617 0,125.29 0,41.62 0,125.29 0,34.39 0,7.23 68.28,68.28 376.72,0 c 14.4,0 26,-11.6 26,-26 l 0,-376.72 -41,-40.997 -430,0 z"/><path id="path3269" d="m 41,68.283 0,41.615 0,125.3 0,41.615 0,125.3 0,34.386 0,7.2286 430,0 0,-7.2286 0,-34.386 0,-326.59 0,-7.2286 -430,0 z m 41.615,41.615 96.381,0 0,125.3 -96.381,0 0,-125.3 z m 138,0 208.78,0 0,125.3 -208.78,0 0,-125.3 z m -138,166.91 96.381,0 0,125.3 -96.381,0 0,-125.3 z m 138,0 208.78,0 0,125.3 -208.78,0 0,-125.3 z" style="fill:#fff"/></svg>