<?xml version="1.0" encoding="UTF-8" standalone="no"?>
<svg id="svg2" xmlns:rdf="http://www.w3.org/1999/02/22-rdf-syntax-ns#" xmlns="http://www.w3.org/2000/svg" height="100%" viewBox="0 0 512 512" width="100%" version="1.1" xmlns:cc="http://creativecommons.org/ns#" xmlns:dc="http://purl.org/dc/elements/1.1/">
 <metadata id="metadata10">
  <rdf:RDF>
   <cc:Work rdf:about="">
    <dc:format>image/svg+xml</dc:format>
    <dc:type rdf:resource="http://purl.org/dc/dcmitype/StillImage"/>
    <dc:title/>
   </cc:Work>
  </rdf:RDF>
 </metadata>
 <path id="path9" d="m26 0c-14.397 0-26 11.603-26 26v460c0 14.397 11.603 26 26 26h460c14.397 0 26-11.603 26-26v-460c0-14.397-11.6-26-26-26h-460" fill="#8db173"/>
 <text id="text11" font-size="129.23px" style="word-spacing:0;letter-spacing:0" line-height="125%" y="63.959" x="-72.489998" font-family="&apos;Gentium Book Basic&apos;">
  <tspan id="tspan13" y="63.959" x="-72.489998"/>
 </text>
 <text id="text15" style="text-anchor:middle" transform="scale(4.0128 .24920)" font-size="46.954px" y="-92.499527" x="179.01909" font-family="Arial"/>
 <text id="text17" font-size="129.23px" style="word-spacing:0;letter-spacing:0" line-height="125%" y="-16.040001" x="508.78" font-family="&apos;Gentium Book Basic&apos;">
  <tspan id="tspan19" y="-16.040001" x="508.78"/>
 </text>
 <text id="text21" style="text-anchor:middle" transform="scale(4.0128 .24920)" font-size="46.954px" y="-413.52789" x="323.86835" font-family="Arial"/>
 <text id="text23" font-size="129.23px" style="word-spacing:0;letter-spacing:0" line-height="125%" y="-197.3" x="-562.79999" font-family="&apos;Gentium Book Basic&apos;">
  <tspan id="tspan25" y="-197.3" x="-562.79999"/>
 </text>
 <text id="text27" style="text-anchor:middle" transform="scale(4.0128 .24920)" font-size="46.954px" y="-1140.8842" x="56.827709" font-family="Arial"/>
 <text id="text29" font-size="129.23px" style="word-spacing:0;letter-spacing:0" line-height="125%" y="-413.76999" x="535.25" font-family="&apos;Gentium Book Basic&apos;">
  <tspan id="tspan31" y="-413.76999" x="535.25"/>
 </text>
 <text id="text33" style="text-anchor:middle" transform="scale(4.0128 .24920)" font-size="46.954px" y="-2009.5398" x="330.46832" font-family="Arial"/>
 <text id="text35" font-size="129.23px" style="word-spacing:0;letter-spacing:0" line-height="125%" y="-493.78" x="1116.52" font-family="&apos;Gentium Book Basic&apos;">
  <tspan id="tspan37" y="-493.78" x="1116.52"/>
 </text>
 <text id="text39" style="text-anchor:middle" transform="scale(4.0128 .24920)" font-size="46.954px" y="-2330.5781" x="475.31757" font-family="Arial"/>
 <text id="text41" font-size="129.23px" style="word-spacing:0;letter-spacing:0" line-height="125%" y="-966.17999" x="727.40002" font-family="&apos;Gentium Book Basic&apos;">
  <tspan id="tspan43" y="-966.17999" x="727.40002"/>
 </text>
 <text id="text45" style="text-anchor:middle" transform="scale(4.0128 .24920)" font-size="46.954px" y="-4226.2188" x="378.34808" font-family="Arial"/>
 <text id="text47" font-size="129.23px" style="word-spacing:0;letter-spacing:0" line-height="125%" y="-1046.1801" x="1308.66" font-family="&apos;Gentium Book Basic&apos;">
  <tspan id="tspan49" y="-1046.1801" x="1308.66"/>
 </text>
 <text id="text51" style="text-anchor:middle" transform="scale(4.0128 .24920)" font-size="46.954px" y="-4547.2466" x="523.19733" font-family="Arial"/>
 <text id="text53" font-size="208.33px" style="word-spacing:0;letter-spacing:0" line-height="125%" y="368.54001" x="-524.14001" font-family="&apos;Gentium Book Basic&apos;">
  <tspan id="tspan55" y="368.54001" x="-524.14001"/>
 </text>
 <path id="path59" opacity=".25" fill-rule="evenodd" d="m114.88 112.02c-73.539 0-73.882 79.19-73.882 79.19h0.002v90.04c0 16.92 11.599 39.47 22.898 50.77l0.034 0.03 39.728 39.73c2.04 6.05 5.48 11.38 9.84 15.74l124.47 124.48h248.03c14.4 0 26-11.6 26-26v-230.4l-59.69-59.69-0.04-0.04c-14.87-14.87-37.45-25.65-63.56-28.53h-0.04l81 80.99v0.01l-81-81c-4.62-0.51-9.17-0.76-13.65-0.75-26.37 0.05-49.92 8.76-65.14 22.94l-65.87-65.88h-17.1v0.01l-0.03 0.03 17.13 17.12v0.01l-17.13-17.13-17.1 45h-8.19l-38.1-38.1c0.08 0.08 0.15 0.16 0.23 0.24l-0.23-0.23c-10.82-10.82-26.34-18.58-48.61-18.58z"/>
 <path id="path171" fill="#fff" d="m114.88 112.02c-73.54 0-73.881 79.19-73.881 79.19v90.04c0 16.938 11.621 39.512 22.931 50.8 19.998 19.959 33.854 17.1 33.854 17.1s0.18 5.585 5.836 22.52c5.656 16.938 22.309 28.318 39.28 28.318 16.97 0 22.931-5.836 22.931-5.836v-22.482s-5.783 0.183-17.1-5.462c-11.315-5.645-11.297-17.06-11.297-17.06s16.843-5.547 33.817-22.482c16.97-16.938 17.13-45.41 17.13-45.41v-84.62s0.024-84.62-73.51-84.62m112.04 11.634-0.037 0.037-17.1 45h-11.297v22.52h11.297v118.73s0.074 27.944 28.355 27.944c28.28 0 33.892-11.222 33.892-11.222v-21.772c-0.53 1.587-2.812 5.05-11.297 5.05-11.313 0-16.721-11.222-16.721-11.222v-107.51h28.02v-22.557h-28.02v-45h-17.1m-108.52 16.721c28.29 0 28.393 27.944 28.393 27.944v112.94s-0.111 39.578-28.393 39.578c-28.29 0-28.393-39.578-28.393-39.578v-107.14s0.111-33.742 28.393-33.742m256.62 26.22c-43.33 0.079-79.08 23.528-82.67 56.19-3.776 34.33 29.32 66.41 75.04 74.07-6.116 19.14-10.692 38.978-16.834 48.556 33.488-13.287 78.7-37.37 105-72.12 8.415-8.687 13.863-19.2 15.15-30.899 3.963-36.04-32.75-69.62-81.999-75.04h-0.037c-4.617-0.508-9.172-0.756-13.654-0.748" fill-rule="evenodd"/>
</svg>
