<?xml version="1.0" encoding="UTF-8" standalone="no"?>
<!-- Created with Inkscape (http://www.inkscape.org/) -->
<svg id="svg2" xmlns:rdf="http://www.w3.org/1999/02/22-rdf-syntax-ns#" xmlns="http://www.w3.org/2000/svg" height="100%" width="100%" version="1.1" xmlns:cc="http://creativecommons.org/ns#" xmlns:dc="http://purl.org/dc/elements/1.1/" viewBox="0 0 512 512">
 <metadata id="metadata10">
  <rdf:RDF>
   <cc:Work rdf:about="">
    <dc:format>image/svg+xml</dc:format>
    <dc:type rdf:resource="http://purl.org/dc/dcmitype/StillImage"/>
    <dc:title/>
   </cc:Work>
  </rdf:RDF>
 </metadata>
 <path id="rect2986" fill="#346da6" d="m26 0c-14.397 0-26 11.603-26 26v460c0 14.397 11.603 26 26 26h460c14.397 0 26-11.603 26-26v-460c0-14.397-11.6-26-26-26h-460z"/>
 <text id="text20" style="word-spacing:0;letter-spacing:0" font-size="129.23px" line-height="125%" y="312.51822" x="83.988243" font-family="Gentium Book Basic">
  <tspan id="tspan22" y="312.51822" x="83.988243"/>
 </text>
 <text id="text24" style="text-anchor:middle" transform="scale(4.0128 .24920)" font-size="46.954px" y="904.93164" x="218.0108" font-family="Arial"/>
 <text id="text26" style="word-spacing:0;letter-spacing:0" font-size="129.23px" line-height="125%" y="232.51823" x="665.25824" font-family="Gentium Book Basic">
  <tspan id="tspan28" y="232.51823" x="665.25824"/>
 </text>
 <text id="text30" style="text-anchor:middle" transform="scale(4.0128 .24920)" font-size="46.954px" y="583.89349" x="362.86008" font-family="Arial"/>
 <text id="text32" style="word-spacing:0;letter-spacing:0" font-size="129.23px" line-height="125%" y="51.258251" x="-406.32178" font-family="Gentium Book Basic">
  <tspan id="tspan34" y="51.258251" x="-406.32178"/>
 </text>
 <text id="text36" style="text-anchor:middle" transform="scale(4.0128 .24920)" font-size="46.954px" y="-143.45288" x="95.821442" font-family="Arial"/>
 <text id="text38" style="word-spacing:0;letter-spacing:0" font-size="129.23px" line-height="125%" y="-165.21175" x="691.72821" font-family="Gentium Book Basic">
  <tspan id="tspan40" y="-165.21175" x="691.72821"/>
 </text>
 <text id="text42" style="text-anchor:middle" transform="scale(4.0128 .24920)" font-size="46.954px" y="-1012.1285" x="369.46005" font-family="Arial"/>
 <text id="text44" style="word-spacing:0;letter-spacing:0" font-size="129.23px" line-height="125%" y="-245.21173" x="1272.9983" font-family="Gentium Book Basic">
  <tspan id="tspan46" y="-245.21173" x="1272.9983"/>
 </text>
 <text id="text48" style="text-anchor:middle" transform="scale(4.0128 .24920)" font-size="46.954px" y="-1333.1569" x="514.30933" font-family="Arial"/>
 <text id="text50" style="word-spacing:0;letter-spacing:0" font-size="129.23px" line-height="125%" y="-717.61176" x="883.87823" font-family="Gentium Book Basic">
  <tspan id="tspan52" y="-717.61176" x="883.87823"/>
 </text>
 <text id="text54" style="text-anchor:middle" transform="scale(4.0128 .24920)" font-size="46.954px" y="-3228.8071" x="417.33975" font-family="Arial"/>
 <text id="text56" style="word-spacing:0;letter-spacing:0" font-size="129.23px" line-height="125%" y="-797.62177" x="1465.1383" font-family="Gentium Book Basic">
  <tspan id="tspan58" y="-797.62177" x="1465.1383"/>
 </text>
 <text id="text60" style="text-anchor:middle" transform="scale(4.0128 .24920)" font-size="46.954px" y="-3549.8455" x="562.18909" font-family="Arial"/>
 <text id="text62" style="word-spacing:0;letter-spacing:0" font-size="208.33px" line-height="125%" y="617.09833" x="-367.66177" font-family="Gentium Book Basic">
  <tspan id="tspan64" y="617.09833" x="-367.66177"/>
 </text>
 <path id="path3300" opacity=".25" d="m86.369 41.961c-27.437 0-45.369 19.288-45.369 44.623 0 12.722 4.586 24.146 12.689 32.246l68.101 68.11h-78.087v283.1l41.961 41.96h400.34c14.4 0 26-11.6 26-26v-207.38l-75.25-75.25c-19.52-19.52-46.09-28.95-76.27-28.95-34.37 0-55.93 12.75-70.25 27.09l-16.28-16.28h-24.61l-130.95-130.96c-7.69-7.688-18.594-12.309-32.021-12.309z"/>
 <path id="path3050" d="m131.2 470.04v-283.1h-87.496v283.1h87.5m0-383.45c-0.52-25.34-17.4-44.63-44.832-44.63-27.437 0-45.368 19.29-45.368 44.624 0 24.786 17.406 44.636 44.315 44.636h0.5214c27.959 0 45.368-19.848 45.368-44.632m142.75 383.45v-161.3c0-8.6321 0.62439-17.265 3.1619-23.418 6.9404-17.256 22.736-35.12 49.256-35.12 34.743 0 56.533 19.718 56.533 58.538v161.3h88.1v-165.61c0-88.718-47.359-130-110.52-130-51.792 0-74.529 28.958-87.157 48.667l0.63213-37.864h-87.943c1.2655 27.1 0 284.81 0 284.81h87.943" fill="#fff"/>
</svg>
