<?xml version="1.0" encoding="UTF-8" standalone="no"?>
<!-- Created with Inkscape (http://www.inkscape.org/) -->
<svg id="svg2" xmlns:rdf="http://www.w3.org/1999/02/22-rdf-syntax-ns#" xmlns="http://www.w3.org/2000/svg" height="100%" width="100%" version="1.1" xmlns:cc="http://creativecommons.org/ns#" xmlns:dc="http://purl.org/dc/elements/1.1/" viewBox="0 0 512 512">
 <metadata id="metadata10">
  <rdf:RDF>
   <cc:Work rdf:about="">
    <dc:format>image/svg+xml</dc:format>
    <dc:type rdf:resource="http://purl.org/dc/dcmitype/StillImage"/>
    <dc:title/>
   </cc:Work>
  </rdf:RDF>
 </metadata>
 <path id="rect2986" fill="#036" d="m26 0c-14.397 0-26 11.603-26 26v460c0 14.397 11.603 26 26 26h460c14.397 0 26-11.603 26-26v-460c0-14.397-11.6-26-26-26h-460z"/>
 <text id="text20" font-size="129.23px" style="word-spacing:0;letter-spacing:0" line-height="125%" y="186.68378" x="-317.9361" font-family="&apos;Gentium Book Basic&apos;">
  <tspan id="tspan22" y="186.68378" x="-317.9361"/>
 </text>
 <text id="text24" style="text-anchor:middle" transform="scale(4.0128 .24920)" font-size="46.954px" y="399.98059" x="117.85075" font-family="Arial"/>
 <text id="text26" font-size="129.23px" style="word-spacing:0;letter-spacing:0" line-height="125%" y="106.68378" x="263.33392" font-family="&apos;Gentium Book Basic&apos;">
  <tspan id="tspan28" y="106.68378" x="263.33392"/>
 </text>
 <text id="text30" style="text-anchor:middle" transform="scale(4.0128 .24920)" font-size="46.954px" y="78.942451" x="262.70001" font-family="Arial"/>
 <text id="text32" font-size="129.23px" style="word-spacing:0;letter-spacing:0" line-height="125%" y="-74.576195" x="-808.24609" font-family="&apos;Gentium Book Basic&apos;">
  <tspan id="tspan34" y="-74.576195" x="-808.24609"/>
 </text>
 <text id="text36" style="text-anchor:middle" transform="scale(4.0128 .24920)" font-size="46.954px" y="-648.40393" x="-4.3386149" font-family="Arial"/>
 <text id="text38" font-size="129.23px" style="word-spacing:0;letter-spacing:0" line-height="125%" y="-291.0462" x="289.80389" font-family="&apos;Gentium Book Basic&apos;">
  <tspan id="tspan40" y="-291.0462" x="289.80389"/>
 </text>
 <text id="text42" style="text-anchor:middle" transform="scale(4.0128 .24920)" font-size="46.954px" y="-1517.0795" x="269.29999" font-family="Arial"/>
 <text id="text44" font-size="129.23px" style="word-spacing:0;letter-spacing:0" line-height="125%" y="-371.04617" x="871.07391" font-family="&apos;Gentium Book Basic&apos;">
  <tspan id="tspan46" y="-371.04617" x="871.07391"/>
 </text>
 <text id="text48" style="text-anchor:middle" transform="scale(4.0128 .24920)" font-size="46.954px" y="-1838.1078" x="414.14923" font-family="Arial"/>
 <text id="text50" font-size="129.23px" style="word-spacing:0;letter-spacing:0" line-height="125%" y="-843.44623" x="481.95392" font-family="&apos;Gentium Book Basic&apos;">
  <tspan id="tspan52" y="-843.44623" x="481.95392"/>
 </text>
 <text id="text54" style="text-anchor:middle" transform="scale(4.0128 .24920)" font-size="46.954px" y="-3733.7583" x="317.17969" font-family="Arial"/>
 <text id="text56" font-size="129.23px" style="word-spacing:0;letter-spacing:0" line-height="125%" y="-923.45624" x="1063.214" font-family="&apos;Gentium Book Basic&apos;">
  <tspan id="tspan58" y="-923.45624" x="1063.214"/>
 </text>
 <text id="text60" style="text-anchor:middle" transform="scale(4.0128 .24920)" font-size="46.954px" y="-4054.7966" x="462.02899" font-family="Arial"/>
 <text id="text62" font-size="208.33px" style="word-spacing:0;letter-spacing:0" line-height="125%" y="491.26389" x="-769.58612" font-family="&apos;Gentium Book Basic&apos;">
  <tspan id="tspan64" y="491.26389" x="-769.58612"/>
 </text>
 <text id="text20-4" style="word-spacing:0;letter-spacing:0" transform="rotate(-15)" line-height="125%" font-size="129.23px" y="-134.67603" x="-929.54004" font-family="&apos;Gentium Book Basic&apos;">
  <tspan id="tspan22-4" y="-134.67603" x="-929.54004"/>
 </text>
 <text id="text24-0" style="text-anchor:middle" transform="matrix(3.8761 -1.0386 .064498 .24071 0 0)" font-size="46.954px" y="-889.57861" x="-34.561741" font-family="Arial"/>
 <text id="text26-6" style="word-spacing:0;letter-spacing:0" transform="rotate(-15)" line-height="125%" font-size="129.23px" y="-214.67603" x="-348.27002" font-family="&apos;Gentium Book Basic&apos;">
  <tspan id="tspan28-5" y="-214.67603" x="-348.27002"/>
 </text>
 <text id="text30-5" style="text-anchor:middle" transform="matrix(3.8761 -1.0386 .064498 .24071 0 0)" font-size="46.954px" y="-1210.6168" x="110.28753" font-family="Arial"/>
 <text id="text32-9" style="word-spacing:0;letter-spacing:0" transform="rotate(-15)" line-height="125%" font-size="129.23px" y="-395.936" x="-1419.8501" font-family="&apos;Gentium Book Basic&apos;">
  <tspan id="tspan34-4" y="-395.936" x="-1419.8501"/>
 </text>
 <text id="text36-1" style="text-anchor:middle" transform="matrix(3.8761 -1.0386 .064498 .24071 0 0)" font-size="46.954px" y="-1937.9631" x="-156.7511" font-family="Arial"/>
 <text id="text38-1" style="word-spacing:0;letter-spacing:0" transform="rotate(-15)" line-height="125%" font-size="129.23px" y="-612.40601" x="-321.80005" font-family="&apos;Gentium Book Basic&apos;">
  <tspan id="tspan40-8" y="-612.40601" x="-321.80005"/>
 </text>
 <text id="text42-4" style="text-anchor:middle" transform="matrix(3.8761 -1.0386 .064498 .24071 0 0)" font-size="46.954px" y="-2806.6387" x="116.8875" font-family="Arial"/>
 <text id="text44-4" style="word-spacing:0;letter-spacing:0" transform="rotate(-15)" line-height="125%" font-size="129.23px" y="-692.40601" x="259.46997" font-family="&apos;Gentium Book Basic&apos;">
  <tspan id="tspan46-8" y="-692.40601" x="259.46997"/>
 </text>
 <text id="text48-7" style="text-anchor:middle" transform="matrix(3.8761 -1.0386 .064498 .24071 0 0)" font-size="46.954px" y="-3127.667" x="261.73676" font-family="Arial"/>
 <text id="text50-4" style="word-spacing:0;letter-spacing:0" transform="rotate(-15)" line-height="125%" font-size="129.23px" y="-1164.806" x="-129.65002" font-family="&apos;Gentium Book Basic&apos;">
  <tspan id="tspan52-4" y="-1164.806" x="-129.65002"/>
 </text>
 <text id="text54-7" style="text-anchor:middle" transform="matrix(3.8761 -1.0386 .064498 .24071 0 0)" font-size="46.954px" y="-5023.3174" x="164.76721" font-family="Arial"/>
 <text id="text56-3" style="word-spacing:0;letter-spacing:0" transform="rotate(-15)" line-height="125%" font-size="129.23px" y="-1244.816" x="451.60999" font-family="&apos;Gentium Book Basic&apos;">
  <tspan id="tspan58-6" y="-1244.816" x="451.60999"/>
 </text>
 <text id="text60-8" style="text-anchor:middle" transform="matrix(3.8761 -1.0386 .064498 .24071 0 0)" font-size="46.954px" y="-5344.356" x="309.61652" font-family="Arial"/>
 <text id="text62-0" style="word-spacing:0;letter-spacing:0" transform="rotate(-15)" line-height="125%" font-size="208.33px" y="169.90408" x="-1381.1901" font-family="&apos;Gentium Book Basic&apos;">
  <tspan id="tspan64-6" y="169.90408" x="-1381.1901"/>
 </text>
 <text id="text3196" style="word-spacing:0;letter-spacing:0" transform="rotate(-15)" line-height="125%" font-size="129.23px" y="-358.13361" x="-2053.3367" font-family="&apos;Gentium Book Basic&apos;">
  <tspan id="tspan3198" y="-358.13361" x="-2053.3367"/>
 </text>
 <text id="text3200" style="text-anchor:middle" transform="matrix(3.8761 -1.0386 .064498 .24071 0 0)" font-size="46.954px" y="-1786.285" x="-314.61328" font-family="Arial"/>
 <text id="text3202" style="word-spacing:0;letter-spacing:0" transform="rotate(-15)" line-height="125%" font-size="129.23px" y="-438.13361" x="-1472.0667" font-family="&apos;Gentium Book Basic&apos;">
  <tspan id="tspan3204" y="-438.13361" x="-1472.0667"/>
 </text>
 <text id="text3206" style="text-anchor:middle" transform="matrix(3.8761 -1.0386 .064498 .24071 0 0)" font-size="46.954px" y="-2107.3135" x="-169.76401" font-family="Arial"/>
 <text id="text3208" style="word-spacing:0;letter-spacing:0" transform="rotate(-15)" line-height="125%" font-size="129.23px" y="-619.39465" x="-2543.6467" font-family="&apos;Gentium Book Basic&apos;">
  <tspan id="tspan3210" y="-619.39465" x="-2543.6467"/>
 </text>
 <text id="text3212" style="text-anchor:middle" transform="matrix(3.8761 -1.0386 .064498 .24071 0 0)" font-size="46.954px" y="-2834.6697" x="-436.80264" font-family="Arial"/>
 <text id="text3214" style="word-spacing:0;letter-spacing:0" transform="rotate(-15)" line-height="125%" font-size="129.23px" y="-835.86365" x="-1445.5967" font-family="&apos;Gentium Book Basic&apos;">
  <tspan id="tspan3216" y="-835.86365" x="-1445.5967"/>
 </text>
 <text id="text3218" style="text-anchor:middle" transform="matrix(3.8761 -1.0386 .064498 .24071 0 0)" font-size="46.954px" y="-3703.3354" x="-163.16406" font-family="Arial"/>
 <text id="text3220" style="word-spacing:0;letter-spacing:0" transform="rotate(-15)" line-height="125%" font-size="129.23px" y="-915.87366" x="-864.3266" font-family="&apos;Gentium Book Basic&apos;">
  <tspan id="tspan3222" y="-915.87366" x="-864.3266"/>
 </text>
 <text id="text3224" style="text-anchor:middle" transform="matrix(3.8761 -1.0386 .064498 .24071 0 0)" font-size="46.954px" y="-4024.3738" x="-18.314764" font-family="Arial"/>
 <text id="text3226" style="word-spacing:0;letter-spacing:0" transform="rotate(-15)" line-height="125%" font-size="129.23px" y="-1388.2737" x="-1253.4467" font-family="&apos;Gentium Book Basic&apos;">
  <tspan id="tspan3228" y="-1388.2737" x="-1253.4467"/>
 </text>
 <text id="text3230" style="text-anchor:middle" transform="matrix(3.8761 -1.0386 .064498 .24071 0 0)" font-size="46.954px" y="-5920.0234" x="-115.28431" font-family="Arial"/>
 <text id="text3232" style="word-spacing:0;letter-spacing:0" transform="rotate(-15)" line-height="125%" font-size="129.23px" y="-1468.2737" x="-672.18658" font-family="&apos;Gentium Book Basic&apos;">
  <tspan id="tspan3234" y="-1468.2737" x="-672.18658"/>
 </text>
 <text id="text3236" style="text-anchor:middle" transform="matrix(3.8761 -1.0386 .064498 .24071 0 0)" font-size="46.954px" y="-6241.0518" x="29.564999" font-family="Arial"/>
 <g id="g3238" line-height="125%" style="word-spacing:0;letter-spacing:0" font-family="&apos;Gentium Book Basic&apos;" transform="rotate(-15 -847.34 10864)">
  <text id="text3240" y="535.94" x="277.98999" font-size="208.33px">
   <tspan id="tspan3242" y="535.94" x="277.98999"/>
  </text>
  <text id="text3244" y="-11.341" x="-307.17999" font-size="200px">
   <tspan id="tspan3246" y="-11.341" x="-307.17999"/>
  </text>
 </g>
 <text id="text3248" style="text-anchor:middle" transform="matrix(3.8761 -1.0386 .064498 .24071 0 0)" font-size="72.67px" y="-2951.4092" x="-465.05252" font-family="Arial"/>
 <text id="text3250" style="word-spacing:0;letter-spacing:0" transform="rotate(-15)" line-height="125%" font-size="200px" y="-547.69165" x="-2344.7766" font-family="&apos;Gentium Book Basic&apos;">
  <tspan id="tspan3252" y="-547.69165" x="-2344.7766"/>
 </text>
 <text id="text3254" style="text-anchor:middle" transform="matrix(3.8761 -1.0386 .064498 .24071 0 0)" font-size="72.67px" y="-2738.1602" x="-279.30347" font-family="Arial"/>
 <text id="text3256" style="word-spacing:0;letter-spacing:0" transform="rotate(-15)" line-height="125%" font-size="200px" y="-671.51361" x="-1445.1666" font-family="&apos;Gentium Book Basic&apos;">
  <tspan id="tspan3258" y="-671.51361" x="-1445.1666"/>
 </text>
 <text id="text3260" style="text-anchor:middle" transform="matrix(3.8761 -1.0386 .064498 .24071 0 0)" font-size="72.67px" y="-3235.0176" x="-55.124577" font-family="Arial"/>
 <text id="text3262" style="word-spacing:0;letter-spacing:0" transform="rotate(-15)" line-height="125%" font-size="200px" y="-724.14362" x="-2317.3167" font-family="&apos;Gentium Book Basic&apos;">
  <tspan id="tspan3264" y="-724.14362" x="-2317.3167"/>
 </text>
 <text id="text3266" style="text-anchor:middle" transform="matrix(3.8761 -1.0386 .064498 .24071 0 0)" font-size="72.67px" y="-3446.2366" x="-272.4635" font-family="Arial"/>
 <text id="text3268" style="word-spacing:0;letter-spacing:0" transform="rotate(-15)" line-height="125%" font-size="200px" y="-847.96368" x="-1417.7067" font-family="&apos;Gentium Book Basic&apos;">
  <tspan id="tspan3270" y="-847.96368" x="-1417.7067"/>
 </text>
 <text id="text3272" style="text-anchor:middle" transform="matrix(3.8761 -1.0386 .064498 .24071 0 0)" font-size="72.67px" y="-3943.0942" x="-48.284641" font-family="Arial"/>
 <text id="text3274" style="word-spacing:0;letter-spacing:0" transform="rotate(-15)" line-height="125%" font-size="200px" y="-272.26361" x="-5327.2969" font-family="&apos;Gentium Book Basic&apos;">
  <tspan id="tspan3276" y="-272.26361" x="-5327.2969"/>
 </text>
 <text id="text3278" style="text-anchor:middle" transform="matrix(3.8761 -1.0386 .064498 .24071 0 0)" font-size="72.67px" y="-1632.9159" x="-1022.5496" font-family="Arial"/>
 <text id="text3280" style="word-spacing:0;letter-spacing:0" transform="rotate(-15)" line-height="125%" font-size="200px" y="-507.69363" x="-3399.0168" font-family="&apos;Gentium Book Basic&apos;">
  <tspan id="tspan3282" y="-507.69363" x="-3399.0168"/>
 </text>
 <text id="text3284" style="text-anchor:middle" transform="matrix(3.8761 -1.0386 .064498 .24071 0 0)" font-size="72.67px" y="-2577.6511" x="-542.02216" font-family="Arial"/>
 <text id="text3286" style="word-spacing:0;letter-spacing:0" transform="rotate(-15)" line-height="125%" font-size="200px" y="-454.55362" x="-2653.6367" font-family="&apos;Gentium Book Basic&apos;">
  <tspan id="tspan3288" y="-454.55362" x="-2653.6367"/>
 </text>
 <text id="text3290" style="text-anchor:middle" transform="matrix(3.8761 -1.0386 .064498 .24071 0 0)" font-size="72.67px" y="-2364.394" x="-356.27307" font-family="Arial"/>
 <text id="text3292" style="word-spacing:0;letter-spacing:0" transform="rotate(-15)" line-height="125%" font-size="200px" y="-578.36664" x="-1754.0267" font-family="&apos;Gentium Book Basic&apos;">
  <tspan id="tspan3294" y="-578.36664" x="-1754.0267"/>
 </text>
 <text id="text3296" style="text-anchor:middle" transform="matrix(3.8761 -1.0386 .064498 .24071 0 0)" font-size="72.67px" y="-2861.2495" x="-132.09421" font-family="Arial"/>
 <text id="text3298" style="word-spacing:0;letter-spacing:0" transform="rotate(-15)" line-height="125%" font-size="200px" y="-631.0036" x="-2626.1768" font-family="&apos;Gentium Book Basic&apos;">
  <tspan id="tspan3300" y="-631.0036" x="-2626.1768"/>
 </text>
 <text id="text3302" style="text-anchor:middle" transform="matrix(3.8761 -1.0386 .064498 .24071 0 0)" font-size="72.67px" y="-3072.4785" x="-349.43311" font-family="Arial"/>
 <text id="text3304" style="word-spacing:0;letter-spacing:0" transform="rotate(-15)" line-height="125%" font-size="200px" y="-754.82361" x="-1726.5566" font-family="&apos;Gentium Book Basic&apos;">
  <tspan id="tspan3306" y="-754.82361" x="-1726.5566"/>
 </text>
 <text id="text3308" style="text-anchor:middle" transform="matrix(3.8761 -1.0386 .064498 .24071 0 0)" font-size="72.67px" y="-3569.3362" x="-125.24422" font-family="Arial"/>
 <text id="text3310" style="word-spacing:0;letter-spacing:0" transform="rotate(-15)" line-height="125%" font-size="200px" y="-179.12363" x="-5636.1567" font-family="&apos;Gentium Book Basic&apos;">
  <tspan id="tspan3312" y="-179.12363" x="-5636.1567"/>
 </text>
 <text id="text3314" style="text-anchor:middle" transform="matrix(3.8761 -1.0386 .064498 .24071 0 0)" font-size="72.67px" y="-1259.1478" x="-1099.5193" font-family="Arial"/>
 <text id="text3316" style="word-spacing:0;letter-spacing:0" transform="rotate(-15)" line-height="125%" font-size="200px" y="-624.55365" x="-4113.5864" font-family="&apos;Gentium Book Basic&apos;">
  <tspan id="tspan3318" y="-624.55365" x="-4113.5864"/>
 </text>
 <text id="text3320" style="text-anchor:middle" transform="matrix(3.8761 -1.0386 .064498 .24071 0 0)" font-size="72.67px" y="-3046.5686" x="-720.09222" font-family="Arial"/>
 <text id="text3322" style="word-spacing:0;letter-spacing:0" transform="rotate(-15)" line-height="125%" font-size="200px" y="-571.40363" x="-3368.2068" font-family="&apos;Gentium Book Basic&apos;">
  <tspan id="tspan3324" y="-571.40363" x="-3368.2068"/>
 </text>
 <text id="text3326" style="text-anchor:middle" transform="matrix(3.8761 -1.0386 .064498 .24071 0 0)" font-size="72.67px" y="-2833.3198" x="-534.34216" font-family="Arial"/>
 <text id="text3328" style="word-spacing:0;letter-spacing:0" transform="rotate(-15)" line-height="125%" font-size="200px" y="-695.22363" x="-2468.5967" font-family="&apos;Gentium Book Basic&apos;">
  <tspan id="tspan3330" y="-695.22363" x="-2468.5967"/>
 </text>
 <text id="text3332" style="text-anchor:middle" transform="matrix(3.8761 -1.0386 .064498 .24071 0 0)" font-size="72.67px" y="-3330.1772" x="-310.16333" font-family="Arial"/>
 <text id="text3334" style="word-spacing:0;letter-spacing:0" transform="rotate(-15)" line-height="125%" font-size="200px" y="-747.86365" x="-3340.7468" font-family="&apos;Gentium Book Basic&apos;">
  <tspan id="tspan3336" y="-747.86365" x="-3340.7468"/>
 </text>
 <text id="text3338" style="text-anchor:middle" transform="matrix(3.8761 -1.0386 .064498 .24071 0 0)" font-size="72.67px" y="-3541.4062" x="-527.5022" font-family="Arial"/>
 <text id="text3340" style="word-spacing:0;letter-spacing:0" transform="rotate(-15)" line-height="125%" font-size="200px" y="-871.67365" x="-2441.1267" font-family="&apos;Gentium Book Basic&apos;">
  <tspan id="tspan3342" y="-871.67365" x="-2441.1267"/>
 </text>
 <text id="text3344" style="text-anchor:middle" transform="matrix(3.8761 -1.0386 .064498 .24071 0 0)" font-size="72.67px" y="-4038.2537" x="-303.32333" font-family="Arial"/>
 <text id="text3346" style="word-spacing:0;letter-spacing:0" transform="rotate(-15)" line-height="125%" font-size="200px" y="-295.97363" x="-6350.7266" font-family="&apos;Gentium Book Basic&apos;">
  <tspan id="tspan3348" y="-295.97363" x="-6350.7266"/>
 </text>
 <text id="text3350" style="text-anchor:middle" transform="matrix(3.8761 -1.0386 .064498 .24071 0 0)" font-size="72.67px" y="-1728.0753" x="-1277.5885" font-family="Arial"/>
 <text id="text3368" style="word-spacing:0;letter-spacing:0" transform="rotate(-15)" line-height="125%" font-size="129.23px" y="-358.13361" x="-2053.3367" font-family="&apos;Gentium Book Basic&apos;">
  <tspan id="tspan3370" y="-358.13361" x="-2053.3367"/>
 </text>
 <text id="text3372" style="text-anchor:middle" transform="matrix(3.8761 -1.0386 .064498 .24071 0 0)" font-size="46.954px" y="-1786.285" x="-314.61328" font-family="Arial"/>
 <text id="text3374" style="word-spacing:0;letter-spacing:0" transform="rotate(-15)" line-height="125%" font-size="129.23px" y="-438.13361" x="-1472.0667" font-family="&apos;Gentium Book Basic&apos;">
  <tspan id="tspan3376" y="-438.13361" x="-1472.0667"/>
 </text>
 <text id="text3378" style="text-anchor:middle" transform="matrix(3.8761 -1.0386 .064498 .24071 0 0)" font-size="46.954px" y="-2107.3135" x="-169.76401" font-family="Arial"/>
 <text id="text3380" style="word-spacing:0;letter-spacing:0" transform="rotate(-15)" line-height="125%" font-size="129.23px" y="-619.39465" x="-2543.6467" font-family="&apos;Gentium Book Basic&apos;">
  <tspan id="tspan3382" y="-619.39465" x="-2543.6467"/>
 </text>
 <text id="text3384" style="text-anchor:middle" transform="matrix(3.8761 -1.0386 .064498 .24071 0 0)" font-size="46.954px" y="-2834.6697" x="-436.80264" font-family="Arial"/>
 <text id="text3386" style="word-spacing:0;letter-spacing:0" transform="rotate(-15)" line-height="125%" font-size="129.23px" y="-835.86365" x="-1445.5967" font-family="&apos;Gentium Book Basic&apos;">
  <tspan id="tspan3388" y="-835.86365" x="-1445.5967"/>
 </text>
 <text id="text3390" style="text-anchor:middle" transform="matrix(3.8761 -1.0386 .064498 .24071 0 0)" font-size="46.954px" y="-3703.3254" x="-163.16406" font-family="Arial"/>
 <text id="text3392" style="word-spacing:0;letter-spacing:0" transform="rotate(-15)" line-height="125%" font-size="129.23px" y="-915.87366" x="-864.3266" font-family="&apos;Gentium Book Basic&apos;">
  <tspan id="tspan3394" y="-915.87366" x="-864.3266"/>
 </text>
 <text id="text3396" style="text-anchor:middle" transform="matrix(3.8761 -1.0386 .064498 .24071 0 0)" font-size="46.954px" y="-4024.3638" x="-18.314764" font-family="Arial"/>
 <text id="text3398" style="word-spacing:0;letter-spacing:0" transform="rotate(-15)" line-height="125%" font-size="129.23px" y="-1388.2737" x="-1253.4467" font-family="&apos;Gentium Book Basic&apos;">
  <tspan id="tspan3400" y="-1388.2737" x="-1253.4467"/>
 </text>
 <text id="text3402" style="text-anchor:middle" transform="matrix(3.8761 -1.0386 .064498 .24071 0 0)" font-size="46.954px" y="-5920.0034" x="-115.28431" font-family="Arial"/>
 <text id="text3404" style="word-spacing:0;letter-spacing:0" transform="rotate(-15)" line-height="125%" font-size="129.23px" y="-1468.2737" x="-672.18658" font-family="&apos;Gentium Book Basic&apos;">
  <tspan id="tspan3406" y="-1468.2737" x="-672.18658"/>
 </text>
 <text id="text3408" style="text-anchor:middle" transform="matrix(3.8761 -1.0386 .064498 .24071 0 0)" font-size="46.954px" y="-6241.0317" x="29.564999" font-family="Arial"/>
 <g id="g3410" line-height="125%" style="word-spacing:0;letter-spacing:0" font-family="&apos;Gentium Book Basic&apos;" transform="rotate(-15 -847.34 10864)">
  <text id="text3412" y="535.94" x="277.98999" font-size="208.33px">
   <tspan id="tspan3414" y="535.94" x="277.98999"/>
  </text>
  <text id="text3416" y="227.12" x="104.96" font-size="129.23px">
   <tspan id="tspan3418" y="227.12" x="104.96"/>
  </text>
 </g>
 <text id="text3420" style="text-anchor:middle" transform="matrix(3.8761 -1.0386 .064498 .24071 0 0)" font-size="46.954px" y="-1803.3051" x="-470.28247" font-family="Arial"/>
 <text id="text3422" style="word-spacing:0;letter-spacing:0" transform="rotate(-15)" line-height="125%" font-size="129.23px" y="-442.38364" x="-2096.7468" font-family="&apos;Gentium Book Basic&apos;">
  <tspan id="tspan3424" y="-442.38364" x="-2096.7468"/>
 </text>
 <text id="text3426" style="text-anchor:middle" transform="matrix(3.8761 -1.0386 .064498 .24071 0 0)" font-size="46.954px" y="-2124.3433" x="-325.43323" font-family="Arial"/>
 <text id="text3428" style="word-spacing:0;letter-spacing:0" transform="rotate(-15)" line-height="125%" font-size="129.23px" y="-623.63361" x="-3168.3269" font-family="&apos;Gentium Book Basic&apos;">
  <tspan id="tspan3430" y="-623.63361" x="-3168.3269"/>
 </text>
 <text id="text3432" style="text-anchor:middle" transform="matrix(3.8761 -1.0386 .064498 .24071 0 0)" font-size="46.954px" y="-2851.6897" x="-592.47186" font-family="Arial"/>
 <text id="text3434" style="word-spacing:0;letter-spacing:0" transform="rotate(-15)" line-height="125%" font-size="129.23px" y="-840.11365" x="-2070.2766" font-family="&apos;Gentium Book Basic&apos;">
  <tspan id="tspan3436" y="-840.11365" x="-2070.2766"/>
 </text>
 <text id="text3438" style="text-anchor:middle" transform="matrix(3.8761 -1.0386 .064498 .24071 0 0)" font-size="46.954px" y="-3720.3652" x="-318.83325" font-family="Arial"/>
 <text id="text3440" style="word-spacing:0;letter-spacing:0" transform="rotate(-15)" line-height="125%" font-size="129.23px" y="-920.11365" x="-1489.0067" font-family="&apos;Gentium Book Basic&apos;">
  <tspan id="tspan3442" y="-920.11365" x="-1489.0067"/>
 </text>
 <text id="text3444" style="text-anchor:middle" transform="matrix(3.8761 -1.0386 .064498 .24071 0 0)" font-size="46.954px" y="-4041.3938" x="-173.98401" font-family="Arial"/>
 <text id="text3446" style="word-spacing:0;letter-spacing:0" transform="rotate(-15)" line-height="125%" font-size="129.23px" y="-1392.5137" x="-1878.1267" font-family="&apos;Gentium Book Basic&apos;">
  <tspan id="tspan3448" y="-1392.5137" x="-1878.1267"/>
 </text>
 <text id="text3450" style="text-anchor:middle" transform="matrix(3.8761 -1.0386 .064498 .24071 0 0)" font-size="46.954px" y="-5937.0435" x="-270.95349" font-family="Arial"/>
 <text id="text3452" style="word-spacing:0;letter-spacing:0" transform="rotate(-15)" line-height="125%" font-size="129.23px" y="-1472.5137" x="-1296.8567" font-family="&apos;Gentium Book Basic&apos;">
  <tspan id="tspan3454" y="-1472.5137" x="-1296.8567"/>
 </text>
 <text id="text3456" style="text-anchor:middle" transform="matrix(3.8761 -1.0386 .064498 .24071 0 0)" font-size="46.954px" y="-6258.082" x="-126.10426" font-family="Arial"/>
 <g id="g3458" line-height="125%" style="word-spacing:0;letter-spacing:0" font-family="&apos;Gentium Book Basic&apos;" transform="rotate(-15 -847.34 10864)">
  <text id="text3460" y="531.69" x="-346.69" font-size="208.33px">
   <tspan id="tspan3462" y="531.69" x="-346.69"/>
  </text>
  <text id="text3464" y="-15.584" x="-931.85999" font-size="200px">
   <tspan id="tspan3466" y="-15.584" x="-931.85999"/>
  </text>
 </g>
 <text id="text3468" style="text-anchor:middle" transform="matrix(3.8761 -1.0386 .064498 .24071 0 0)" font-size="72.67px" y="-2968.439" x="-620.72473" font-family="Arial"/>
 <text id="text3470" style="word-spacing:0;letter-spacing:0" transform="rotate(-15)" line-height="125%" font-size="200px" y="-551.93463" x="-2969.4568" font-family="&apos;Gentium Book Basic&apos;">
  <tspan id="tspan3472" y="-551.93463" x="-2969.4568"/>
 </text>
 <text id="text3474" style="text-anchor:middle" transform="matrix(3.8761 -1.0386 .064498 .24071 0 0)" font-size="72.67px" y="-2755.1902" x="-434.97269" font-family="Arial"/>
 <text id="text3476" style="word-spacing:0;letter-spacing:0" transform="rotate(-15)" line-height="125%" font-size="200px" y="-675.7536" x="-2069.8467" font-family="&apos;Gentium Book Basic&apos;">
  <tspan id="tspan3478" y="-675.7536" x="-2069.8467"/>
 </text>
 <text id="text3480" style="text-anchor:middle" transform="matrix(3.8761 -1.0386 .064498 .24071 0 0)" font-size="72.67px" y="-3252.0376" x="-210.79379" font-family="Arial"/>
 <text id="text3482" style="word-spacing:0;letter-spacing:0" transform="rotate(-15)" line-height="125%" font-size="200px" y="-728.39362" x="-2941.9968" font-family="&apos;Gentium Book Basic&apos;">
  <tspan id="tspan3484" y="-728.39362" x="-2941.9968"/>
 </text>
 <text id="text3486" style="text-anchor:middle" transform="matrix(3.8761 -1.0386 .064498 .24071 0 0)" font-size="72.67px" y="-3463.2666" x="-428.13269" font-family="Arial"/>
 <text id="text3488" style="word-spacing:0;letter-spacing:0" transform="rotate(-15)" line-height="125%" font-size="200px" y="-852.20367" x="-2042.3767" font-family="&apos;Gentium Book Basic&apos;">
  <tspan id="tspan3490" y="-852.20367" x="-2042.3767"/>
 </text>
 <text id="text3492" style="text-anchor:middle" transform="matrix(3.8761 -1.0386 .064498 .24071 0 0)" font-size="72.67px" y="-3960.124" x="-203.95383" font-family="Arial"/>
 <text id="text3494" style="word-spacing:0;letter-spacing:0" transform="rotate(-15)" line-height="125%" font-size="200px" y="-276.50363" x="-5951.9766" font-family="&apos;Gentium Book Basic&apos;">
  <tspan id="tspan3496" y="-276.50363" x="-5951.9766"/>
 </text>
 <text id="text3498" style="text-anchor:middle" transform="matrix(3.8761 -1.0386 .064498 .24071 0 0)" font-size="72.67px" y="-1649.9458" x="-1178.2189" font-family="Arial"/>
 <text id="text3500" style="word-spacing:0;letter-spacing:0" transform="rotate(-15)" line-height="125%" font-size="200px" y="-511.93362" x="-4023.6968" font-family="&apos;Gentium Book Basic&apos;">
  <tspan id="tspan3502" y="-511.93362" x="-4023.6968"/>
 </text>
 <text id="text3504" style="text-anchor:middle" transform="matrix(3.8761 -1.0386 .064498 .24071 0 0)" font-size="72.67px" y="-2594.6709" x="-697.69135" font-family="Arial"/>
 <text id="text3506" style="word-spacing:0;letter-spacing:0" transform="rotate(-15)" line-height="125%" font-size="200px" y="-458.79364" x="-3278.3169" font-family="&apos;Gentium Book Basic&apos;">
  <tspan id="tspan3508" y="-458.79364" x="-3278.3169"/>
 </text>
 <text id="text3510" style="text-anchor:middle" transform="matrix(3.8761 -1.0386 .064498 .24071 0 0)" font-size="72.67px" y="-2381.4211" x="-511.94226" font-family="Arial"/>
 <text id="text3512" style="word-spacing:0;letter-spacing:0" transform="rotate(-15)" line-height="125%" font-size="200px" y="-582.60962" x="-2378.7068" font-family="&apos;Gentium Book Basic&apos;">
  <tspan id="tspan3514" y="-582.60962" x="-2378.7068"/>
 </text>
 <text id="text3516" style="text-anchor:middle" transform="matrix(3.8761 -1.0386 .064498 .24071 0 0)" font-size="72.67px" y="-2878.2795" x="-287.7634" font-family="Arial"/>
 <text id="text3518" style="word-spacing:0;letter-spacing:0" transform="rotate(-15)" line-height="125%" font-size="200px" y="-635.24762" x="-3250.8569" font-family="&apos;Gentium Book Basic&apos;">
  <tspan id="tspan3520" y="-635.24762" x="-3250.8569"/>
 </text>
 <text id="text3522" style="text-anchor:middle" transform="matrix(3.8761 -1.0386 .064498 .24071 0 0)" font-size="72.67px" y="-3089.4983" x="-505.10233" font-family="Arial"/>
 <text id="text3524" style="word-spacing:0;letter-spacing:0" transform="rotate(-15)" line-height="125%" font-size="200px" y="-759.06366" x="-2351.2368" font-family="&apos;Gentium Book Basic&apos;">
  <tspan id="tspan3526" y="-759.06366" x="-2351.2368"/>
 </text>
 <text id="text3528" style="text-anchor:middle" transform="matrix(3.8761 -1.0386 .064498 .24071 0 0)" font-size="72.67px" y="-3586.356" x="-280.91348" font-family="Arial"/>
 <text id="text3530" style="word-spacing:0;letter-spacing:0" transform="rotate(-15)" line-height="125%" font-size="200px" y="-183.36362" x="-6260.8369" font-family="&apos;Gentium Book Basic&apos;">
  <tspan id="tspan3532" y="-183.36362" x="-6260.8369"/>
 </text>
 <text id="text3534" style="text-anchor:middle" transform="matrix(3.8761 -1.0386 .064498 .24071 0 0)" font-size="72.67px" y="-1276.1777" x="-1255.1885" font-family="Arial"/>
 <text id="text3536" style="word-spacing:0;letter-spacing:0" transform="rotate(-15)" line-height="125%" font-size="200px" y="-628.79364" x="-4738.2666" font-family="&apos;Gentium Book Basic&apos;">
  <tspan id="tspan3538" y="-628.79364" x="-4738.2666"/>
 </text>
 <text id="text3540" style="text-anchor:middle" transform="matrix(3.8761 -1.0386 .064498 .24071 0 0)" font-size="72.67px" y="-3063.5986" x="-875.76044" font-family="Arial"/>
 <text id="text3542" style="word-spacing:0;letter-spacing:0" transform="rotate(-15)" line-height="125%" font-size="200px" y="-575.64966" x="-3992.8867" font-family="&apos;Gentium Book Basic&apos;">
  <tspan id="tspan3544" y="-575.64966" x="-3992.8867"/>
 </text>
 <text id="text3546" style="text-anchor:middle" transform="matrix(3.8761 -1.0386 .064498 .24071 0 0)" font-size="72.67px" y="-2850.3496" x="-690.01434" font-family="Arial"/>
 <text id="text3548" style="word-spacing:0;letter-spacing:0" transform="rotate(-15)" line-height="125%" font-size="200px" y="-699.46362" x="-3093.2769" font-family="&apos;Gentium Book Basic&apos;">
  <tspan id="tspan3550" y="-699.46362" x="-3093.2769"/>
 </text>
 <text id="text3552" style="text-anchor:middle" transform="matrix(3.8761 -1.0386 .064498 .24071 0 0)" font-size="72.67px" y="-3347.2073" x="-465.83252" font-family="Arial"/>
 <text id="text3554" style="word-spacing:0;letter-spacing:0" transform="rotate(-15)" line-height="125%" font-size="200px" y="-752.10364" x="-3965.4268" font-family="&apos;Gentium Book Basic&apos;">
  <tspan id="tspan3556" y="-752.10364" x="-3965.4268"/>
 </text>
 <text id="text3558" style="text-anchor:middle" transform="matrix(3.8761 -1.0386 .064498 .24071 0 0)" font-size="72.67px" y="-3558.4263" x="-683.17041" font-family="Arial"/>
 <text id="text3560" style="word-spacing:0;letter-spacing:0" transform="rotate(-15)" line-height="125%" font-size="200px" y="-875.92365" x="-3065.8069" font-family="&apos;Gentium Book Basic&apos;">
  <tspan id="tspan3562" y="-875.92365" x="-3065.8069"/>
 </text>
 <text id="text3564" style="text-anchor:middle" transform="matrix(3.8761 -1.0386 .064498 .24071 0 0)" font-size="72.67px" y="-4055.2837" x="-458.98254" font-family="Arial"/>
 <text id="text3566" style="word-spacing:0;letter-spacing:0" transform="rotate(-15)" line-height="125%" font-size="200px" y="-300.22363" x="-6975.4067" font-family="&apos;Gentium Book Basic&apos;">
  <tspan id="tspan3568" y="-300.22363" x="-6975.4067"/>
 </text>
 <text id="text3570" style="text-anchor:middle" transform="matrix(3.8761 -1.0386 .064498 .24071 0 0)" font-size="72.67px" y="-1745.1053" x="-1433.2576" font-family="Arial"/>
 <path id="path4986" opacity=".25" d="m238.69 41.002c-12.29-0.117-23.55 8.058-26.85 20.422l-72.42 270.25 29.92 29.91-5.37-1.44-22.32 83.31 68.55 68.55h275.8c14.4 0 26-11.6 26-26v-260.88l-147.54-147.54c-3.3-3.307-7.5-5.82-12.34-7.125l-106.55-28.51c-2.3-0.616-4.61-0.921-6.88-0.943z"/>
 <path id="path4175" fill="#fff" d="m352.13 70.456-106.56-28.511c-14.724-3.9453-29.819 4.8248-33.737 19.478l-72.411 270.24 159.8 42.817 72.411-270.24c3.9366-14.692-4.7961-29.817-19.506-33.785zm-35.95 66.694c3.9782 1.066 6.4444 2.2366 9.8578 4.1445 4.9913 2.7546 8.4495 8.0359 7.1504 12.884-1.5626 5.8316-7.3339 9.0438-14.047 7.245-3.1758-0.85093-3.9594-1.8328-8.6382-3.0864-13.822-3.7036-28.019 4.2043-31.52 17.269l-5.3115 19.823c-0.49662 1.8534 0.1627 3.0497 2.7734 3.7492l16.26 4.3569c6.1367 1.6443 9.831 8.4897 8.2684 14.321-1.5626 5.8316-8.1393 9.9248-14.321 8.2684l-19.785-5.3014-6.0529 22.59c-6.6349 24.762-33.611 39.458-59.797 32.441-3.9782-1.066-6.4323-2.2818-9.8578-4.1445-4.9913-2.7547-8.4404-8.0698-7.1504-12.884 1.5747-5.8768 7.5168-9.7261 14.23-7.9273l8.8312 2.3663c13.777 3.6914 27.516-2.5068 31.053-15.525l5.1795-19.33c0.92363-3.447-0.60605-4.0622-2.5499-4.5831l-16.26-4.3569c-10.601-2.8405-12.662-9.2966-11.111-15.083 1.5747-5.8768 7.5263-10.089 16.974-7.5575l19.974 5.3521 6.063-22.628c6.6349-24.762 33.601-39.42 59.787-32.403zm-152.21 222.99-22.32 83.31 102.83 27.55 22.27-83.28-102.78-27.58zm12.708 53.697 20.884 5.5959-4.5525 17.142-20.95-5.6541 4.6182-17.084zm31.876 8.5411 20.884 5.5959-4.5803 17.094-20.922-5.606 4.6182-17.084z"/>
</svg>
