<?xml version="1.0" encoding="UTF-8" standalone="no"?>
<!-- Created with Inkscape (http://www.inkscape.org/) -->
<svg id="svg2" xmlns:rdf="http://www.w3.org/1999/02/22-rdf-syntax-ns#" xmlns="http://www.w3.org/2000/svg" height="100%" width="100%" version="1.1" xmlns:cc="http://creativecommons.org/ns#" viewBox="0 0 512 512" xmlns:dc="http://purl.org/dc/elements/1.1/">
 <metadata id="metadata72">
  <rdf:RDF>
   <cc:Work rdf:about="">
    <dc:format>image/svg+xml</dc:format>
    <dc:type rdf:resource="http://purl.org/dc/dcmitype/StillImage"/>
   </cc:Work>
  </rdf:RDF>
 </metadata>
 <path id="path4" d="m26 0c-14.397 0-26 11.603-26 26v460c0 14.397 11.603 26 26 26h460c14.397 0 26-11.603 26-26v-460c0-14.397-11.6-26-26-26h-460" fill="#9bd182"/>
 <path id="path6" d="m512 101.13-255.19 146.22 255.19 230.13v-376.34" fill="#d9c194"/>
 <path id="path8" d="m0 58v326.5l213.03-118 4.938-34.75-217.97-173.75" fill="#75b8f3"/>
 <path id="path10" style="color:#000000" d="m16.531 1.75c-9.695 3.772-16.531 13.195-16.531 24.25v39.19l201.06 171.88-201.06 107.91v68.16l243.72-139.22 261.41 229.75c0.045-0.049 0.08-0.107 0.125-0.156 0.279-0.308 0.548-0.617 0.813-0.938s0.532-0.666 0.781-1 0.486-0.654 0.719-1c0.145-0.215 0.299-0.436 0.438-0.656 0.084-0.132 0.169-0.272 0.25-0.406 0.125-0.207 0.255-0.415 0.375-0.625 0.089-0.156 0.164-0.311 0.25-0.469 0.2-0.368 0.38-0.746 0.563-1.125 0.084-0.175 0.17-0.354 0.25-0.531 0.095-0.21 0.192-0.412 0.281-0.625 0.066-0.157 0.124-0.31 0.188-0.469 0.091-0.229 0.197-0.455 0.281-0.688 0.053-0.144 0.106-0.292 0.156-0.438 0.089-0.259 0.169-0.518 0.25-0.781 0.038-0.121 0.058-0.253 0.094-0.375 0.063-0.215 0.13-0.439 0.188-0.656 0.019-0.073 0.044-0.146 0.063-0.219 0.107-0.416 0.195-0.826 0.281-1.25s0.153-0.85 0.219-1.281c0.009-0.062 0.022-0.126 0.031-0.188 0.053-0.369 0.119-0.751 0.156-1.125 0.004-0.041-0.004-0.083 0-0.125 0.038-0.395 0.074-0.787 0.094-1.188 0.001-0.021-0.001-0.042 0-0.063 0.02-0.421 0.031-0.855 0.031-1.281v-55.47l-218.09-183.44 218.09-119.28v-61.218l-261.62 142.88-233.84-207.72" fill="#fae597"/>
 <path id="path12" opacity=".25" d="m255.97 41c-88.43 0-160.06 71.69-160.06 160.13 0 88.43 160.06 269.88 160.06 269.88l0.063-0.063c0.322 0.368 0.938 1.063 0.938 1.063l0.063-0.063c0.322 0.368 0.938 1.063 0.938 1.063l0.063-0.063c0.322 0.368 0.938 1.063 0.938 1.063l0.063-0.063c0.307 0.351 0.906 1.031 0.906 1.031s0.06-0.091 0.063-0.094c0.338 0.386 0.938 1.094 0.938 1.094s0.06-0.091 0.063-0.094c0.338 0.386 0.938 1.094 0.938 1.094l0.063-0.063c0.322 0.368 0.938 1.063 0.938 1.063l0.063-0.063c0.322 0.368 0.938 1.063 0.938 1.063l0.063-0.063c0.322 0.368 0.938 1.063 0.938 1.063l0.063-0.063c0.313 0.357 0.906 1.031 0.906 1.031l0.063-0.063c0.327 0.374 0.938 1.063 0.938 1.063s0.06-0.091 0.063-0.094c0.338 0.386 0.938 1.094 0.938 1.094l0.063-0.063c0.322 0.368 0.938 1.063 0.938 1.063l0.063-0.063c0.322 0.368 0.938 1.063 0.938 1.063l0.063-0.063c0.322 0.368 0.938 1.063 0.938 1.063l0.063-0.063c0.313 0.357 0.906 1.031 0.906 1.031l0.063-0.063c0.327 0.374 0.938 1.063 0.938 1.063s0.06-0.091 0.063-0.094c0.338 0.386 0.938 1.094 0.938 1.094l0.063-0.063c0.322 0.368 0.938 1.063 0.938 1.063l0.063-0.063c0.322 0.368 0.938 1.063 0.938 1.063l0.063-0.063c0.322 0.368 0.938 1.063 0.938 1.063l0.063-0.063c0.313 0.357 0.906 1.031 0.906 1.031l0.063-0.063c0.327 0.374 0.938 1.063 0.938 1.063s0.06-0.091 0.063-0.094c0.338 0.386 0.938 1.094 0.938 1.094l0.063-0.063c0.322 0.368 0.938 1.063 0.938 1.063l0.063-0.063c0.322 0.368 0.938 1.063 0.938 1.063l0.063-0.063c0.322 0.368 0.938 1.063 0.938 1.063l0.063-0.063c0.322 0.368 0.938 1.063 0.938 1.063l0.063-0.063c0.307 0.351 0.906 1.031 0.906 1.031s0.06-0.091 0.063-0.094c0.338 0.386 0.938 1.094 0.938 1.094s0.06-0.091 0.063-0.094c0.338 0.386 0.938 1.094 0.938 1.094l0.063-0.063c0.322 0.368 0.938 1.063 0.938 1.063l0.063-0.063c0.322 0.368 0.938 1.063 0.938 1.063l0.063-0.063c0.322 0.368 0.938 1.063 0.938 1.063l0.063-0.063c0.313 0.357 0.906 1.031 0.906 1.031l0.063-0.063c0.327 0.374 0.938 1.063 0.938 1.063s0.06-0.091 0.063-0.094c0.338 0.386 0.938 1.094 0.938 1.094l0.063-0.063c0.322 0.368 0.938 1.063 0.938 1.063l0.063-0.063c0.322 0.368 0.938 1.063 0.938 1.063l0.063-0.063c0.322 0.368 0.938 1.063 0.938 1.063l0.063-0.063c0.313 0.357 0.906 1.031 0.906 1.031l0.063-0.063c0.087 0.099 0.14 0.156 0.25 0.281h188.94c14.397 0 26-11.603 26-26v-255.25l-0.375-0.375c-0.026-0.027-0.036-0.067-0.063-0.094-0.031-0.032-0.063-0.062-0.094-0.094-0.327-0.333-0.639-0.67-0.969-1-0.165-0.168-0.334-0.333-0.5-0.5-0.167-0.166-0.332-0.335-0.5-0.5-0.328-0.328-0.669-0.644-1-0.969-0.113-0.115-0.23-0.229-0.344-0.344-0.131-0.13-0.275-0.246-0.406-0.375-0.011-0.01-0.021-0.021-0.031-0.031-0.144-0.147-0.293-0.291-0.438-0.438-0.026-0.026-0.068-0.037-0.094-0.063-0.026-0.027-0.037-0.067-0.063-0.094-0.179-0.175-0.351-0.357-0.531-0.531l-0.031-0.031c-0.113-0.116-0.23-0.228-0.344-0.344-0.02-0.021-0.042-0.041-0.063-0.063-0.165-0.167-0.334-0.333-0.5-0.5-0.026-0.027-0.036-0.067-0.063-0.094-0.031-0.032-0.063-0.062-0.094-0.094-0.327-0.333-0.639-0.67-0.969-1-0.165-0.168-0.334-0.333-0.5-0.5-0.167-0.166-0.332-0.335-0.5-0.5-0.657-0.669-1.331-1.312-2-1.969-0.113-0.115-0.23-0.229-0.344-0.344-0.131-0.13-0.275-0.246-0.406-0.375l-0.031-0.031c-0.165-0.168-0.334-0.332-0.5-0.5-0.03-0.032-0.063-0.062-0.094-0.094-0.041-0.042-0.084-0.083-0.125-0.125-0.168-0.176-0.331-0.357-0.5-0.531-0.088-0.089-0.193-0.161-0.281-0.25-0.041-0.043-0.084-0.082-0.125-0.125-0.031-0.031-0.063-0.062-0.094-0.094-0.168-0.176-0.331-0.357-0.5-0.531-0.325-0.331-0.641-0.672-0.969-1-0.657-0.669-1.331-1.312-2-1.969-0.113-0.115-0.23-0.229-0.344-0.344-0.131-0.13-0.275-0.246-0.406-0.375l-0.031-0.031c-0.407-0.416-0.808-0.839-1.219-1.25-0.088-0.089-0.193-0.161-0.281-0.25-0.02-0.021-0.042-0.041-0.063-0.063-0.165-0.167-0.334-0.333-0.5-0.5-0.026-0.027-0.036-0.067-0.063-0.094-0.031-0.032-0.063-0.062-0.094-0.094-0.327-0.333-0.639-0.67-0.969-1-0.165-0.168-0.334-0.333-0.5-0.5-0.167-0.166-0.332-0.335-0.5-0.5-0.328-0.328-0.669-0.644-1-0.969-0.113-0.115-0.23-0.229-0.344-0.344-0.131-0.13-0.275-0.246-0.406-0.375-0.011-0.01-0.021-0.021-0.031-0.031-0.144-0.147-0.293-0.291-0.438-0.438-0.026-0.026-0.068-0.037-0.094-0.063-0.026-0.027-0.037-0.067-0.063-0.094-0.179-0.175-0.351-0.357-0.531-0.531l-0.031-0.031c-0.113-0.116-0.23-0.228-0.344-0.344-0.02-0.021-0.042-0.041-0.063-0.063-0.165-0.167-0.334-0.333-0.5-0.5-0.026-0.027-0.036-0.067-0.063-0.094-0.031-0.032-0.063-0.062-0.094-0.094-0.327-0.333-0.639-0.67-0.969-1-0.165-0.168-0.334-0.333-0.5-0.5-0.167-0.166-0.332-0.335-0.5-0.5-0.328-0.328-0.669-0.644-1-0.969-0.113-0.115-0.23-0.229-0.344-0.344-0.131-0.13-0.275-0.246-0.406-0.375-0.011-0.01-0.021-0.021-0.031-0.031-0.144-0.147-0.293-0.291-0.438-0.438-0.026-0.026-0.068-0.037-0.094-0.063-0.026-0.027-0.037-0.067-0.063-0.094-0.179-0.175-0.351-0.357-0.531-0.531l-0.031-0.031c-0.113-0.116-0.23-0.228-0.344-0.344-0.02-0.021-0.042-0.041-0.063-0.063-0.165-0.167-0.334-0.333-0.5-0.5-0.026-0.027-0.036-0.067-0.063-0.094-0.031-0.032-0.063-0.062-0.094-0.094-0.327-0.333-0.639-0.67-0.969-1-0.165-0.168-0.334-0.333-0.5-0.5-0.167-0.166-0.332-0.335-0.5-0.5-0.657-0.669-1.331-1.312-2-1.969-0.113-0.115-0.23-0.229-0.344-0.344-0.131-0.13-0.275-0.246-0.406-0.375l-0.031-0.031c-0.165-0.168-0.334-0.332-0.5-0.5-0.03-0.032-0.063-0.062-0.094-0.094-0.041-0.042-0.084-0.083-0.125-0.125-0.168-0.176-0.331-0.357-0.5-0.531-0.088-0.089-0.193-0.161-0.281-0.25-0.041-0.043-0.084-0.082-0.125-0.125-0.031-0.031-0.063-0.062-0.094-0.094-0.168-0.176-0.331-0.357-0.5-0.531-0.325-0.331-0.641-0.672-0.969-1-0.657-0.669-1.331-1.312-2-1.969-0.113-0.115-0.23-0.229-0.344-0.344-0.131-0.13-0.275-0.246-0.406-0.375l-0.031-0.031c-0.407-0.416-0.808-0.839-1.219-1.25-0.088-0.089-0.193-0.161-0.281-0.25-0.02-0.021-0.042-0.041-0.063-0.063-0.165-0.167-0.334-0.333-0.5-0.5-0.026-0.027-0.036-0.067-0.063-0.094-0.031-0.032-0.063-0.062-0.094-0.094-0.327-0.333-0.639-0.67-0.969-1-0.165-0.168-0.334-0.333-0.5-0.5-0.167-0.166-0.332-0.335-0.5-0.5-0.328-0.328-0.669-0.644-1-0.969-0.113-0.115-0.23-0.229-0.344-0.344-0.131-0.13-0.275-0.246-0.406-0.375-0.011-0.01-0.021-0.021-0.031-0.031-0.144-0.147-0.293-0.291-0.438-0.438-0.026-0.026-0.068-0.037-0.094-0.063-0.026-0.027-0.037-0.067-0.063-0.094-0.179-0.175-0.351-0.357-0.531-0.531l-0.031-0.031c-0.113-0.116-0.23-0.228-0.344-0.344-0.02-0.021-0.042-0.041-0.063-0.063-0.165-0.167-0.334-0.333-0.5-0.5-0.026-0.027-0.036-0.067-0.063-0.094-0.031-0.032-0.063-0.062-0.094-0.094-0.327-0.333-0.639-0.67-0.969-1-0.165-0.168-0.334-0.333-0.5-0.5-0.167-0.166-0.332-0.335-0.5-0.5-0.657-0.669-1.331-1.312-2-1.969-0.113-0.115-0.23-0.229-0.344-0.344-0.131-0.13-0.275-0.246-0.406-0.375l-0.031-0.031c-0.165-0.168-0.334-0.332-0.5-0.5-0.03-0.032-0.063-0.062-0.094-0.094-0.041-0.042-0.084-0.083-0.125-0.125-0.168-0.176-0.331-0.357-0.5-0.531-0.088-0.089-0.193-0.161-0.281-0.25-0.041-0.043-0.084-0.082-0.125-0.125-0.031-0.031-0.063-0.062-0.094-0.094-0.168-0.176-0.331-0.357-0.5-0.531-0.325-0.331-0.641-0.672-0.969-1-0.657-0.669-1.331-1.312-2-1.969-0.113-0.115-0.23-0.229-0.344-0.344-0.131-0.13-0.275-0.246-0.406-0.375l-0.031-0.031c-0.165-0.168-0.334-0.332-0.5-0.5-0.03-0.032-0.063-0.062-0.094-0.094-0.041-0.042-0.084-0.083-0.125-0.125-0.168-0.176-0.331-0.357-0.5-0.531-0.088-0.089-0.193-0.161-0.281-0.25-0.041-0.043-0.084-0.082-0.125-0.125-0.031-0.031-0.063-0.062-0.094-0.094-0.168-0.176-0.331-0.357-0.5-0.531-0.325-0.331-0.641-0.672-0.969-1-0.165-0.168-0.334-0.333-0.5-0.5-0.167-0.166-0.332-0.335-0.5-0.5-0.33-0.33-0.667-0.642-1-0.969-0.113-0.115-0.23-0.229-0.344-0.344-0.131-0.13-0.275-0.246-0.406-0.375l-0.031-0.031c-0.407-0.416-0.808-0.839-1.219-1.25-0.088-0.089-0.193-0.161-0.281-0.25-0.02-0.021-0.042-0.041-0.063-0.063-0.165-0.167-0.334-0.333-0.5-0.5-0.026-0.027-0.036-0.067-0.063-0.094-0.031-0.032-0.063-0.062-0.094-0.094-0.327-0.333-0.639-0.67-0.969-1-0.165-0.168-0.334-0.333-0.5-0.5-0.167-0.166-0.332-0.335-0.5-0.5-0.328-0.328-0.669-0.644-1-0.969-0.113-0.115-0.23-0.229-0.344-0.344-0.131-0.13-0.275-0.246-0.406-0.375-0.011-0.01-0.021-0.021-0.031-0.031-0.144-0.147-0.293-0.291-0.438-0.438-0.026-0.026-0.068-0.037-0.094-0.063-0.026-0.027-0.037-0.067-0.063-0.094-0.179-0.175-0.351-0.357-0.531-0.531l-0.031-0.031c-0.113-0.116-0.23-0.228-0.344-0.344-0.02-0.021-0.042-0.041-0.063-0.063-0.165-0.167-0.334-0.333-0.5-0.5-0.026-0.027-0.036-0.067-0.063-0.094-0.031-0.032-0.063-0.062-0.094-0.094-0.327-0.333-0.639-0.67-0.969-1-0.165-0.168-0.334-0.333-0.5-0.5-0.167-0.166-0.332-0.335-0.5-0.5-0.657-0.669-1.331-1.312-2-1.969-0.113-0.115-0.23-0.229-0.344-0.344-0.131-0.13-0.275-0.246-0.406-0.375l-0.031-0.031c-0.165-0.168-0.334-0.332-0.5-0.5-0.03-0.032-0.063-0.062-0.094-0.094-0.041-0.042-0.084-0.083-0.125-0.125-0.168-0.176-0.331-0.357-0.5-0.531-0.088-0.089-0.193-0.161-0.281-0.25-0.041-0.043-0.084-0.082-0.125-0.125-0.031-0.031-0.063-0.062-0.094-0.094-0.168-0.176-0.331-0.357-0.5-0.531-0.325-0.331-0.641-0.672-0.969-1-0.657-0.669-1.331-1.312-2-1.969-0.113-0.115-0.23-0.229-0.344-0.344-0.131-0.13-0.275-0.246-0.406-0.375l-0.031-0.031c-0.407-0.416-0.808-0.839-1.219-1.25-0.088-0.089-0.193-0.161-0.281-0.25-0.02-0.021-0.042-0.041-0.063-0.063-0.165-0.167-0.334-0.333-0.5-0.5-0.026-0.027-0.036-0.067-0.063-0.094-0.031-0.032-0.063-0.062-0.094-0.094-0.327-0.333-0.639-0.67-0.969-1-0.165-0.168-0.334-0.333-0.5-0.5-0.167-0.166-0.332-0.335-0.5-0.5-0.328-0.328-0.669-0.644-1-0.969-0.113-0.115-0.23-0.229-0.344-0.344-0.131-0.13-0.275-0.246-0.406-0.375-0.011-0.01-0.021-0.021-0.031-0.031-0.144-0.147-0.293-0.291-0.438-0.438-0.026-0.026-0.068-0.037-0.094-0.063-0.026-0.027-0.037-0.067-0.063-0.094-0.179-0.175-0.351-0.357-0.531-0.531l-0.031-0.031c-0.113-0.116-0.23-0.228-0.344-0.344-0.02-0.021-0.042-0.041-0.063-0.063-0.165-0.167-0.334-0.333-0.5-0.5-0.026-0.027-0.036-0.067-0.063-0.094-0.031-0.032-0.063-0.062-0.094-0.094-0.327-0.333-0.639-0.67-0.969-1-0.165-0.168-0.334-0.333-0.5-0.5-0.167-0.166-0.332-0.335-0.5-0.5-0.657-0.669-1.331-1.312-2-1.969-0.113-0.115-0.23-0.229-0.344-0.344-0.131-0.13-0.275-0.246-0.406-0.375l-0.031-0.031c-0.165-0.168-0.334-0.332-0.5-0.5-0.02-0.021-0.042-0.041-0.063-0.063-0.165-0.167-0.334-0.333-0.5-0.5-0.026-0.027-0.036-0.067-0.063-0.094-0.031-0.032-0.063-0.062-0.094-0.094-0.327-0.333-0.639-0.67-0.969-1-0.165-0.168-0.334-0.333-0.5-0.5-0.167-0.166-0.332-0.335-0.5-0.5-0.657-0.669-1.331-1.312-2-1.969-0.113-0.115-0.23-0.229-0.344-0.344-0.131-0.13-0.275-0.246-0.406-0.375l-0.031-0.031c-0.165-0.168-0.334-0.332-0.5-0.5-0.03-0.032-0.063-0.062-0.094-0.094-0.041-0.042-0.084-0.083-0.125-0.125-0.168-0.176-0.331-0.357-0.5-0.531-0.088-0.089-0.193-0.161-0.281-0.25-0.041-0.043-0.084-0.082-0.125-0.125-0.031-0.031-0.063-0.062-0.094-0.094-0.168-0.176-0.331-0.357-0.5-0.531-0.325-0.331-0.641-0.672-0.969-1-0.165-0.168-0.334-0.333-0.5-0.5-0.167-0.166-0.332-0.335-0.5-0.5-0.33-0.33-0.667-0.642-1-0.969-0.113-0.115-0.23-0.229-0.344-0.344-0.131-0.13-0.275-0.246-0.406-0.375l-0.031-0.031c-0.407-0.416-0.808-0.839-1.219-1.25-0.088-0.089-0.193-0.161-0.281-0.25-0.02-0.021-0.042-0.041-0.063-0.063-0.165-0.167-0.334-0.333-0.5-0.5-0.026-0.027-0.036-0.067-0.063-0.094-0.031-0.032-0.063-0.062-0.094-0.094-0.327-0.333-0.639-0.67-0.969-1-0.165-0.168-0.334-0.333-0.5-0.5-0.167-0.166-0.332-0.335-0.5-0.5-0.328-0.328-0.669-0.644-1-0.969-0.113-0.115-0.23-0.229-0.344-0.344-0.131-0.13-0.275-0.246-0.406-0.375-0.011-0.01-0.021-0.021-0.031-0.031-0.144-0.147-0.293-0.291-0.438-0.438-0.026-0.026-0.068-0.037-0.094-0.063-0.026-0.027-0.037-0.067-0.063-0.094-0.179-0.175-0.351-0.357-0.531-0.531l-0.031-0.031c-0.113-0.116-0.23-0.228-0.344-0.344-0.02-0.021-0.042-0.041-0.063-0.063-0.165-0.167-0.334-0.333-0.5-0.5-0.026-0.027-0.036-0.067-0.063-0.094-0.031-0.032-0.063-0.062-0.094-0.094-0.327-0.333-0.639-0.67-0.969-1-0.165-0.168-0.334-0.333-0.5-0.5-0.167-0.166-0.332-0.335-0.5-0.5-0.657-0.669-1.331-1.312-2-1.969-0.113-0.115-0.23-0.229-0.344-0.344-0.131-0.13-0.275-0.246-0.406-0.375l-0.031-0.031c-0.165-0.168-0.334-0.332-0.5-0.5-0.03-0.032-0.063-0.062-0.094-0.094-0.041-0.042-0.084-0.083-0.125-0.125-0.168-0.176-0.331-0.357-0.5-0.531-0.088-0.089-0.193-0.161-0.281-0.25-0.041-0.043-0.084-0.082-0.125-0.125-0.031-0.031-0.063-0.062-0.094-0.094-0.168-0.176-0.331-0.357-0.5-0.531-0.325-0.331-0.641-0.672-0.969-1-0.657-0.669-1.331-1.312-2-1.969-0.113-0.115-0.23-0.229-0.344-0.344-0.131-0.13-0.275-0.246-0.406-0.375l-0.031-0.031c-0.407-0.416-0.808-0.839-1.219-1.25-0.088-0.089-0.193-0.161-0.281-0.25-0.02-0.021-0.042-0.041-0.063-0.063-0.165-0.167-0.334-0.333-0.5-0.5-0.026-0.027-0.036-0.067-0.063-0.094-0.031-0.032-0.063-0.062-0.094-0.094-0.327-0.333-0.639-0.67-0.969-1-0.165-0.168-0.334-0.333-0.5-0.5-0.167-0.166-0.332-0.335-0.5-0.5-0.328-0.328-0.669-0.644-1-0.969-0.113-0.115-0.23-0.229-0.344-0.344-0.131-0.13-0.275-0.246-0.406-0.375-0.011-0.01-0.021-0.021-0.031-0.031-0.144-0.147-0.293-0.291-0.438-0.438-0.026-0.026-0.068-0.037-0.094-0.063-0.026-0.027-0.037-0.067-0.063-0.094-0.179-0.175-0.351-0.357-0.531-0.531l-0.031-0.031c-0.113-0.116-0.23-0.228-0.344-0.344-0.02-0.021-0.042-0.041-0.063-0.063-0.165-0.167-0.334-0.333-0.5-0.5-0.026-0.027-0.036-0.067-0.063-0.094-0.031-0.032-0.063-0.062-0.094-0.094-0.327-0.333-0.639-0.67-0.969-1-0.165-0.168-0.334-0.333-0.5-0.5-0.167-0.166-0.332-0.335-0.5-0.5-0.636-0.647-1.29-1.27-1.938-1.906-0.021-0.021-0.041-0.042-0.063-0.063-0.113-0.115-0.23-0.229-0.344-0.344-0.131-0.13-0.275-0.246-0.406-0.375-0.659-0.663-1.329-1.318-2-1.969-28.83-27.974-68.13-45.22-111.47-45.22"/>
 <g id="g14" style="word-spacing:0;letter-spacing:0" font-family="Gentium Book Basic" line-height="125%">
  <text id="text16" y="249.41" x="-2028.65" font-size="200px">
   <tspan id="tspan18" y="249.41" x="-2028.65"/>
  </text>
  <text id="text20" y="191.38" x="-110.84" font-size="129.23px">
   <tspan id="tspan22" y="191.38" x="-110.84"/>
  </text>
 </g>
 <text id="text24" style="text-anchor:middle" transform="scale(4.0128 .2492)" font-size="46.954px" y="418.81" x="169.46001" font-family="Arial"/>
 <text id="text26" style="word-spacing:0;letter-spacing:0" font-size="129.23px" line-height="125%" y="111.38" x="470.42999" font-family="Gentium Book Basic">
  <tspan id="tspan28" y="111.38" x="470.42999"/>
 </text>
 <text id="text30" style="text-anchor:middle" transform="scale(4.0128 .2492)" font-size="46.954px" y="97.769997" x="314.31" font-family="Arial"/>
 <text id="text32" style="word-spacing:0;letter-spacing:0" font-size="129.23px" line-height="125%" y="-69.883003" x="-601.15002" font-family="Gentium Book Basic">
  <tspan id="tspan34" y="-69.883003" x="-601.15002"/>
 </text>
 <text id="text36" style="text-anchor:middle" transform="scale(4.0128 .2492)" font-size="46.954px" y="-629.57001" x="47.27" font-family="Arial"/>
 <text id="text38" style="word-spacing:0;letter-spacing:0" font-size="129.23px" line-height="125%" y="-286.35001" x="496.89999" font-family="Gentium Book Basic">
  <tspan id="tspan40" y="-286.35001" x="496.89999"/>
 </text>
 <text id="text42" style="text-anchor:middle" transform="scale(4.0128 .2492)" font-size="46.954px" y="-1498.24" x="320.91" font-family="Arial"/>
 <text id="text44" style="word-spacing:0;letter-spacing:0" font-size="129.23px" line-height="125%" y="-366.35001" x="1078.17" font-family="Gentium Book Basic">
  <tspan id="tspan46" y="-366.35001" x="1078.17"/>
 </text>
 <text id="text48" style="text-anchor:middle" transform="scale(4.0128 .2492)" font-size="46.954px" y="-1819.27" x="465.76001" font-family="Arial"/>
 <text id="text50" style="word-spacing:0;letter-spacing:0" font-size="129.23px" line-height="125%" y="-838.75" x="689.04999" font-family="Gentium Book Basic">
  <tspan id="tspan52" y="-838.75" x="689.04999"/>
 </text>
 <text id="text54" style="text-anchor:middle" transform="scale(4.0128 .2492)" font-size="46.954px" y="-3714.9099" x="368.79001" font-family="Arial"/>
 <text id="text56" style="word-spacing:0;letter-spacing:0" font-size="129.23px" line-height="125%" y="-918.76001" x="1270.3101" font-family="Gentium Book Basic">
  <tspan id="tspan58" y="-918.76001" x="1270.3101"/>
 </text>
 <text id="text60" style="text-anchor:middle" transform="scale(4.0128 .2492)" font-size="46.954px" y="-4035.95" x="513.64001" font-family="Arial"/>
 <text id="text62" style="word-spacing:0;letter-spacing:0" font-size="208.33px" line-height="125%" y="495.95999" x="-562.48999" font-family="Gentium Book Basic">
  <tspan id="tspan64" y="495.95999" x="-562.48999"/>
 </text>
 <path id="path66" d="m255.98 41c-88.43 0-160.09 71.69-160.09 160.13 0 88.43 160.09 269.87 160.09 269.87s160.13-181.45 160.13-269.87c0-88.43-71.69-160.13-160.13-160.13m0 49.618c61.05 0 110.59 49.49 110.59 110.55s-49.54 110.55-110.59 110.55-110.54-49.49-110.54-110.54c0-61.06 49.5-110.54 110.55-110.54m-2.767 35.34c-39.958 0-72.36 32.398-72.36 72.37 0 39.958 32.398 72.37 72.37 72.37 39.958 0 72.37-32.398 72.37-72.36 0-39.958-32.398-72.36-72.36-72.36" fill="#fff"/>
</svg>
