<?xml version="1.0" encoding="UTF-8" standalone="no"?>
<!-- Created with Inkscape (http://www.inkscape.org/) -->
<svg id="svg2" xmlns:rdf="http://www.w3.org/1999/02/22-rdf-syntax-ns#" xmlns="http://www.w3.org/2000/svg" height="100%" width="100%" version="1.1" xmlns:cc="http://creativecommons.org/ns#" xmlns:dc="http://purl.org/dc/elements/1.1/" viewBox="0 0 512 512">
 <metadata id="metadata10">
  <rdf:RDF>
   <cc:Work rdf:about="">
    <dc:format>image/svg+xml</dc:format>
    <dc:type rdf:resource="http://purl.org/dc/dcmitype/StillImage"/>
    <dc:title/>
   </cc:Work>
  </rdf:RDF>
 </metadata>
 <path id="path9" d="m26 0c-14.397 0-26 11.603-26 26v460c0 14.397 11.603 26 26 26h460c14.397 0 26-11.603 26-26v-460c0-14.397-11.6-26-26-26h-460" fill="#cd1d31"/>
 <text id="text11" font-size="129.23px" style="word-spacing:0;letter-spacing:0" line-height="125%" y="-328.37" x="-216.25999" font-family="&apos;Gentium Book Basic&apos;">
  <tspan id="tspan13" y="-328.37" x="-216.25999"/>
 </text>
 <text id="text15" style="text-anchor:middle" transform="scale(4.0128 .24920)" font-size="46.954px" y="-1666.8314" x="143.18927" font-family="Arial"/>
 <text id="text17" font-size="129.23px" style="word-spacing:0;letter-spacing:0" line-height="125%" y="-408.37" x="365.01001" font-family="&apos;Gentium Book Basic&apos;">
  <tspan id="tspan19" y="-408.37" x="365.01001"/>
 </text>
 <text id="text21" style="text-anchor:middle" transform="scale(4.0128 .24920)" font-size="46.954px" y="-1987.8599" x="288.03854" font-family="Arial"/>
 <text id="text23" font-size="129.23px" style="word-spacing:0;letter-spacing:0" line-height="125%" y="-589.63" x="-706.57001" font-family="&apos;Gentium Book Basic&apos;">
  <tspan id="tspan25" y="-589.63" x="-706.57001"/>
 </text>
 <text id="text27" style="text-anchor:middle" transform="scale(4.0128 .24920)" font-size="46.954px" y="-2715.2161" x="20.999893" font-family="Arial"/>
 <text id="text29" font-size="129.23px" style="word-spacing:0;letter-spacing:0" line-height="125%" y="-806.09998" x="391.48001" font-family="&apos;Gentium Book Basic&apos;">
  <tspan id="tspan31" y="-806.09998" x="391.48001"/>
 </text>
 <text id="text33" style="text-anchor:middle" transform="scale(4.0128 .24920)" font-size="46.954px" y="-3583.8716" x="294.63852" font-family="Arial"/>
 <text id="text35" font-size="129.23px" style="word-spacing:0;letter-spacing:0" line-height="125%" y="-886.10999" x="972.75" font-family="&apos;Gentium Book Basic&apos;">
  <tspan id="tspan37" y="-886.10999" x="972.75"/>
 </text>
 <text id="text39" style="text-anchor:middle" transform="scale(4.0128 .24920)" font-size="46.954px" y="-3904.9099" x="439.48773" font-family="Arial"/>
 <text id="text41" font-size="129.23px" style="word-spacing:0;letter-spacing:0" line-height="125%" y="-1358.51" x="583.63" font-family="&apos;Gentium Book Basic&apos;">
  <tspan id="tspan43" y="-1358.51" x="583.63"/>
 </text>
 <text id="text45" style="text-anchor:middle" transform="scale(4.0128 .24920)" font-size="46.954px" y="-5800.5503" x="342.51825" font-family="Arial"/>
 <text id="text47" font-size="129.23px" style="word-spacing:0;letter-spacing:0" line-height="125%" y="-1438.51" x="1164.89" font-family="&apos;Gentium Book Basic&apos;">
  <tspan id="tspan49" y="-1438.51" x="1164.89"/>
 </text>
 <text id="text51" style="text-anchor:middle" transform="scale(4.0128 .24920)" font-size="46.954px" y="-6121.5786" x="487.36749" font-family="Arial"/>
 <g id="g53" style="word-spacing:0;letter-spacing:0" transform="translate(-945.9,-559.73)" font-size="208.33px" font-family="&apos;Gentium Book Basic&apos;" line-height="125%">
  <text id="text55" y="535.94" x="277.98999">
   <tspan id="tspan57" y="535.94" x="277.98999"/>
  </text>
  <text id="text59" y="11.553" x="-860.84003">
   <tspan id="tspan61" y="11.553" x="-860.84003"/>
  </text>
  <text id="text63" y="289.67001" x="-3219.6699">
   <tspan id="tspan65" y="289.67001" x="-3219.6699"/>
  </text>
  <text id="text67" y="62.380001" x="-2931.46">
   <tspan id="tspan69" y="62.380001" x="-2931.46"/>
  </text>
  <text id="text71" y="-194.52" x="1263.14">
   <tspan id="tspan73" y="-194.52" x="1263.14"/>
  </text>
  <text id="text75" y="-49.48" x="-864.78998">
   <tspan id="tspan77" y="-49.48" x="-864.78998"/>
  </text>
  <text id="text79" y="228.64" x="-3223.6201">
   <tspan id="tspan81" y="228.64" x="-3223.6201"/>
  </text>
  <text id="text83" y="1.35" x="-2935.4099">
   <tspan id="tspan85" y="1.35" x="-2935.4099"/>
  </text>
 </g>
 <path id="path91" opacity=".25" fill-rule="evenodd" d="m254.17 41c-56.27 0-113.25 37.59-113.25 94.6v103.72h-41.731v231.68l41.001 41h345.81c14.4 0 26-11.6 26-26v-242.26l-168.29-168.29c-20.03-20.028-50.8-34.443-89.54-34.446v-0.004z"/>
 <path id="path143" d="m254.17 41c-56.27 0-113.25 37.59-113.25 94.6v103.72h-41.73v231.68h313.63v-231.68h-42.99v-106.59c0-42.843-44.31-91.73-115.66-91.73m-0.806 51.96c30.3-0.158 63.3 20.99 63.3 53.22v93.13h-124.23l0.05-0.05v-92.68c0-34.959 34.816-53.49 60.881-53.624m1.412 197.16c17.337 0 31.398 14.06 31.398 31.398 0 10.337-5.04 19.48-12.75 25.2l12.448 69.852h-61.64l12.347-69.5c-7.978-5.692-13.211-15.01-13.211-25.552 0-17.337 14.06-31.398 31.398-31.398" fill="#fff" fill-rule="evenodd"/>
</svg>
