<?xml version="1.0" encoding="UTF-8" standalone="no"?>
<!-- Created with Inkscape (http://www.inkscape.org/) -->
<svg id="svg2" xmlns:rdf="http://www.w3.org/1999/02/22-rdf-syntax-ns#" xmlns="http://www.w3.org/2000/svg" height="100%" width="100%" version="1.1" xmlns:cc="http://creativecommons.org/ns#" xmlns:dc="http://purl.org/dc/elements/1.1/" viewBox="0 0 512 512">
 <metadata id="metadata10">
  <rdf:RDF>
   <cc:Work rdf:about="">
    <dc:format>image/svg+xml</dc:format>
    <dc:type rdf:resource="http://purl.org/dc/dcmitype/StillImage"/>
    <dc:title/>
   </cc:Work>
  </rdf:RDF>
 </metadata>
 <path id="path9" d="m26 0c-14.397 0-26 11.603-26 26v460c0 14.397 11.603 26 26 26h460c14.397 0 26-11.603 26-26v-460c0-14.397-11.6-26-26-26h-460" fill="#0078ad"/>
 <text id="text11" font-size="208.33px" style="word-spacing:0;letter-spacing:0" line-height="125%" y="72.230003" x="-1789.63" font-family="&apos;Gentium Book Basic&apos;">
  <tspan id="tspan13" y="72.230003" x="-1789.63"/>
 </text>
 <text id="text15" style="text-anchor:middle" transform="scale(4.0128 .24920)" font-size="75.7px" y="-273.02859" x="-128.24934" font-family="Arial"/>
 <text id="text17" font-size="129.23px" style="word-spacing:0;letter-spacing:0" line-height="125%" y="-245.92999" x="100.49" font-family="&apos;Gentium Book Basic&apos;">
  <tspan id="tspan19" y="-245.92999" x="100.49"/>
 </text>
 <text id="text21" style="text-anchor:middle" transform="scale(4.0128 .24920)" font-size="46.954px" y="-1336.0032" x="222.11885" font-family="Arial"/>
 <text id="text23" font-size="129.23px" style="word-spacing:0;letter-spacing:0" line-height="125%" y="-325.92999" x="681.76001" font-family="&apos;Gentium Book Basic&apos;">
  <tspan id="tspan25" y="-325.92999" x="681.76001"/>
 </text>
 <text id="text27" style="text-anchor:middle" transform="scale(4.0128 .24920)" font-size="46.954px" y="-1657.0415" x="366.96811" font-family="Arial"/>
 <text id="text29" font-size="129.23px" style="word-spacing:0;letter-spacing:0" line-height="125%" y="-507.19" x="-389.82001" font-family="&apos;Gentium Book Basic&apos;">
  <tspan id="tspan31" y="-507.19" x="-389.82001"/>
 </text>
 <text id="text33" style="text-anchor:middle" transform="scale(4.0128 .24920)" font-size="46.954px" y="-2384.3877" x="99.929489" font-family="Arial"/>
 <text id="text35" font-size="129.23px" style="word-spacing:0;letter-spacing:0" line-height="125%" y="-723.65997" x="708.22998" font-family="&apos;Gentium Book Basic&apos;">
  <tspan id="tspan37" y="-723.65997" x="708.22998"/>
 </text>
 <text id="text39" style="text-anchor:middle" transform="scale(4.0128 .24920)" font-size="46.954px" y="-3253.0535" x="373.56808" font-family="Arial"/>
 <text id="text41" font-size="129.23px" style="word-spacing:0;letter-spacing:0" line-height="125%" y="-803.65997" x="1289.5" font-family="&apos;Gentium Book Basic&apos;">
  <tspan id="tspan43" y="-803.65997" x="1289.5"/>
 </text>
 <text id="text45" style="text-anchor:middle" transform="scale(4.0128 .24920)" font-size="46.954px" y="-3574.0818" x="518.41736" font-family="Arial"/>
 <text id="text47" font-size="129.23px" style="word-spacing:0;letter-spacing:0" line-height="125%" y="-1276.0601" x="900.38" font-family="&apos;Gentium Book Basic&apos;">
  <tspan id="tspan49" y="-1276.0601" x="900.38"/>
 </text>
 <text id="text51" style="text-anchor:middle" transform="scale(4.0128 .24920)" font-size="46.954px" y="-5469.7222" x="421.44785" font-family="Arial"/>
 <text id="text53" font-size="129.23px" style="word-spacing:0;letter-spacing:0" line-height="125%" y="-1356.0699" x="1481.64" font-family="&apos;Gentium Book Basic&apos;">
  <tspan id="tspan55" y="-1356.0699" x="1481.64"/>
 </text>
 <text id="text57" style="text-anchor:middle" transform="scale(4.0128 .24920)" font-size="46.954px" y="-5790.7603" x="566.29706" font-family="Arial"/>
 <text id="text59" font-size="208.33px" style="word-spacing:0;letter-spacing:0" line-height="125%" y="58.652" x="-351.16" font-family="&apos;Gentium Book Basic&apos;">
  <tspan id="tspan61" y="58.652" x="-351.16"/>
 </text>
 <path id="path65" opacity=".25" d="m211.64 85.359c-94.08 0-170.64 76.541-170.64 170.64 0 47.04 19.139 89.71 50.039 120.61l135.39 135.39h259.57c14.4 0 26-11.6 26-26v-187.29l-113.31-113.31-0.01-0.01c-0.73-0.73-1.76-1.15-2.76-1.05l74.98 74.98s0.01 0 0.01 0.01l-74.99-74.99c-0.33 0.03-0.64 0.08-0.96 0.21-1.28 0.53-2.13 1.82-2.13 3.2v8.83l-60.36-60.36-0.08-0.08c-31.64-31.64-75.18-50.768-120.74-50.771l-0.01-0.01z"/>
 <path id="path147" d="m211.64 85.36c-94.08 0-170.64 76.54-170.64 170.64 0 94.08 76.54 170.64 170.64 170.64 67.18 0 128.37-39.757 155.82-101.31 0.474-1.058 0.308-2.333-0.32-3.307-0.631-0.966-1.723-1.494-2.881-1.494h-62.922c-1.068 0-2.129 0.43-2.774 1.28-20.626 27.14-53.12 43.4-86.92 43.4-60.21 0-109.21-48.992-109.21-109.21 0-60.21 48.992-109.21 109.21-109.21 35.27 0 68.63 17.272 89.15 46.28 0.642 0.904 1.664 1.494 2.774 1.494h62.06c1.144 0 2.139-0.538 2.774-1.494 0.631-0.952 0.767-2.144 0.32-3.199-26.44-62.48-89.57-104.51-157.09-104.51m184.29 98.97c-0.334 0.029-0.639 0.077-0.96 0.214-1.28 0.526-2.133 1.817-2.133 3.199v37.539h-122.85c-1.888 0-3.413 1.529-3.413 3.413v57.692c0 1.888 1.525 3.413 3.413 3.413h122.85v37.539c0 1.359 0.774 2.554 2.027 3.093s2.739 0.292 3.732-0.641l71.35-67.19c0.665-0.631 1.054-1.531 1.066-2.452 0.02-0.917-0.315-1.797-0.96-2.452l-71.35-72.31c-0.73-0.737-1.772-1.158-2.774-1.066" fill="#fff"/>
</svg>
