<?xml version="1.0" encoding="UTF-8" standalone="no"?>
<!-- Created with Inkscape (http://www.inkscape.org/) -->
<svg id="svg2" xmlns:rdf="http://www.w3.org/1999/02/22-rdf-syntax-ns#" xmlns="http://www.w3.org/2000/svg" height="100%" width="100%" version="1.1" xmlns:cc="http://creativecommons.org/ns#" xmlns:xlink="http://www.w3.org/1999/xlink" viewBox="0 0 512 512" xmlns:dc="http://purl.org/dc/elements/1.1/">
 <metadata id="metadata10">
  <rdf:RDF>
   <cc:Work rdf:about="">
    <dc:format>image/svg+xml</dc:format>
    <dc:type rdf:resource="http://purl.org/dc/dcmitype/StillImage"/>
    <dc:title/>
   </cc:Work>
  </rdf:RDF>
 </metadata>
 <defs id="defs8">
  <filter id="filter3174-0" color-interpolation-filters="sRGB">
   <feGaussianBlur id="feGaussianBlur3176-6" stdDeviation="1.71"/>
  </filter>
  <linearGradient id="ButtonShadow-8" x1="45.448" gradientUnits="userSpaceOnUse" y1="92.54" gradientTransform="scale(1.0059 .99417)" x2="45.448" y2="7.0165">
   <stop id="stop3750-5" offset="0"/>
   <stop id="stop3752-1" stop-opacity=".58824" offset="1"/>
  </linearGradient>
  <filter id="filter3174-8" color-interpolation-filters="sRGB">
   <feGaussianBlur id="feGaussianBlur3176-3" stdDeviation="1.71"/>
  </filter>
  <clipPath id="clipPath3613-8">
   <rect id="rect3615-9" rx="6" ry="6" height="84" width="84" y="6" x="6" fill="#fff"/>
  </clipPath>
  <filter id="filter3794-5" height="1.384" width="1.384" color-interpolation-filters="sRGB" y="-.192" x="-.192">
   <feGaussianBlur id="feGaussianBlur3796-3" stdDeviation="5.28"/>
  </filter>
  <linearGradient id="linearGradient3604" x1="48" gradientUnits="userSpaceOnUse" y1="20.221" x2="48" y2="138.66">
   <stop id="stop3739-2-2" stop-color="#fff" offset="0"/>
   <stop id="stop3741-9" stop-color="#fff" stop-opacity="0" offset="1"/>
  </linearGradient>
  <linearGradient id="linearGradient3607" x1="45.448" xlink:href="#ButtonShadow-8" gradientUnits="userSpaceOnUse" y1="92.54" gradientTransform="scale(1.0059 .99417)" x2="45.448" y2="7.0165"/>
  <filter id="filter3174" color-interpolation-filters="sRGB">
   <feGaussianBlur id="feGaussianBlur3176" stdDeviation="1.71"/>
  </filter>
  <style id="style5970" type="text/css"/>
  <linearGradient id="ButtonShadow-82" x1="45.448" gradientUnits="userSpaceOnUse" y1="92.54" gradientTransform="scale(1.0059 .99417)" x2="45.448" y2="7.0165">
   <stop id="stop3750-1" offset="0"/>
   <stop id="stop3752-6" stop-opacity=".58824" offset="1"/>
  </linearGradient>
  <filter id="filter3174-6" color-interpolation-filters="sRGB">
   <feGaussianBlur id="feGaussianBlur3176-1" stdDeviation="1.71"/>
  </filter>
 </defs>
 <style id="style1470" type="text/css"/>
 <style id="style1470-1" type="text/css"/>
 <rect id="rect3745" opacity=".9" transform="matrix(3.1226 0 0 3.1226 -341.46 -20.047)" rx="6" ry="6" height="85" filter="url(#filter3174)" width="86" display="none" y="7" x="5" fill="url(#linearGradient3607)"/>
 <path id="rect3745-2" opacity=".9" d="m11 7c-3.324 0-6 2.676-6 6v73c0 3.324 2.676 6 6 6h74c3.324 0 6-2.676 6-6v-73c0-3.324-2.676-6-6-6h-74zm-1 4h6v4h-6v-4zm70 0h6v4h-6v-4zm-70 8h6v4h-6v-4zm70 0h6v4h-6v-4zm-70 8h6v4h-6v-4zm70 0h6v4h-6v-4zm-70 8h6v4h-6v-4zm70 0h6v4h-6v-4zm-70 8h6v4h-6v-4zm70 0h6v4h-6v-4zm-70 8h6v4h-6v-4zm70 0h6v4h-6v-4zm-70 8h6v4h-6v-4zm70 0h6v4h-6v-4zm-70 8h6v4h-6v-4zm70 0h6v4h-6v-4zm-70 8h6v4h-6v-4zm70 0h6v4h-6v-4zm-70 8h6v4h-6v-4zm70 0h6v4h-6v-4z" transform="matrix(4.2365 0 0 4.2365 498.8 -571.15)" display="none" filter="url(#filter3174-0)" fill="url(#linearGradient3607)"/>
 <rect id="rect3745-9" opacity=".9" transform="matrix(5.0049 0 0 5.0049 -950.71 -548.22)" rx="6" ry="6" height="85" filter="url(#filter3174-8)" width="86" display="none" y="7" x="5" fill="url(#linearGradient3607)"/>
 <rect id="rect3171-6" ry="12" stroke="#fff" stroke-linecap="round" stroke-width=".5" fill="url(#linearGradient3604)" rx="12" transform="matrix(5.0049 0 0 5.0049 -950.71 -548.22)" width="66" opacity=".1" clip-path="url(#clipPath3613-8)" height="66" filter="url(#filter3794-5)" y="15" x="15" display="none"/>
 <path id="path23392" style="color:#000000" d="m-1379.7-492.31c-7.1453 0-13.74 3.812-17.312 10-3.572 6.1878-3.5724 13.812 0 20 0.9304 1.611 2.0465 3.049 3.3438 4.3125 0.083 0.0834 0.166 0.1682 0.25 0.25l251.06 250.81c3.4907 2.7892 7.9381 4.3575 12.406 4.375 7.25-0.0194 14.304-4.3213 17.656-10.75 3.3518-6.4287 2.8535-14.701-1.2813-20.656-0.2486-0.36263-0.5092-0.71705-0.7812-1.0625l-250.91-251.12c-0.083-0.0838-0.1654-0.16767-0.25-0.25-3.6237-3.6523-8.6363-5.9062-14.188-5.9062zm60 0c-7.1453 0-13.74 3.812-17.312 10-3.572 6.1878-3.5724 13.812 0 20 0.9304 1.611 2.0465 3.049 3.3438 4.3125 0.083 0.0834 0.166 0.1682 0.25 0.25l251.06 250.81c3.4907 2.7892 7.9381 4.3575 12.406 4.375 7.25-0.0194 14.304-4.3213 17.656-10.75 3.3518-6.4287 2.8535-14.701-1.2813-20.656-0.2486-0.36263-0.5092-0.71705-0.7812-1.0625l-250.91-251.12c-0.083-0.0838-0.1654-0.16767-0.25-0.25-3.6237-3.6523-8.6363-5.9062-14.188-5.9062zm60 0c-7.1453 0-13.74 3.812-17.312 10-3.572 6.1878-3.5724 13.812 0 20 0.9304 1.611 2.0465 3.049 3.3438 4.3125 0.083 0.0834 0.166 0.1682 0.25 0.25l251.06 250.81c3.4907 2.7892 7.9381 4.3575 12.406 4.375 7.25-0.0194 14.304-4.3213 17.656-10.75 3.3519-6.4287 2.8536-14.701-1.2812-20.656-0.24864-0.36263-0.50925-0.71705-0.78125-1.0625l-250.91-251.12c-0.083-0.0838-0.1654-0.16767-0.25-0.25-3.6237-3.6523-8.6363-5.9062-14.188-5.9062z" fill-opacity=".31373" display="none"/>
 <path id="path3132" d="m-1424.7-350.28c-13.688 0-15.123 0.90811-18.531 11.469-3.1027 9.6149-5.5821 11.943-17.5 16.562-10.829 4.1976-13.953 4.1884-19.25 0-6.4233-5.0788-14.498-3.3778-22.438 4.6875-8.9495 9.0909-9.5667 12.082-4.5312 21.688 4.5103 8.604 4.3538 12.318-1.0625 24.219-4.1018 9.0128-6.071 10.857-14.438 13.594-9.5265 3.1167-11.25 6.0449-11.25 19.031 0.5279 4.7111 0.04 10.889 2.8125 14.125l27.5 27.468c1.8957 5.3663 1.0095 6.6522-2.3438 12.969-5.4123 10.195-5.1193 12.686 3.8125 21.781l303.87 303.78c0.8936 0.8261 1.7188 1.5093 2.5 2.125 5.4413 4.2885 8.6191 3.6237 16.344-0.6562 6.4082-3.5506 8.9741-4.3252 15.156-2.3125l27.089 27.06c1.9665 1.8769 3.99 2.125 13.656 2.125 13.922 0 16.403-1.3453 18.281-9.75 2.4974-11.174 3.8953-12.702 15.719-17.562 12.903-5.3046 13.891-5.387 19.719-1.4063 8.9954 6.1443 14.284 5.595 22.531-2.3125 9.685-9.2858 11.588-14.728 7.3438-21.188-6.2342-9.4882-6.4216-12.188-1.5938-23.781 4.6977-11.28 7.3387-13.539 17.594-15.188 7.6176-1.2244 9.0811-3.8602 9.5625-16.969 0.3354-9.1338 0.011-13.732-2.5-16.656l-28.03-28.061c-1.7172-5.771-1.1247-8.7527 1.5625-12.406 5.4952-7.4711 4.8924-14.379-1.9375-21.719-0.1046-0.1125-0.2092-0.2022-0.3125-0.3125-0.626-0.6688-1.2337-1.3152-1.8125-1.9063l-300.46-300.49c-0.098-0.0969-0.2163-0.18666-0.3125-0.28125-0.1113-0.10789-0.2029-0.20774-0.3125-0.3125-7.5624-7.3351-11.426-7.3972-20.688-2.5-6.901 3.6489-9.812 4.2975-14.812 2.5938l-26.343-26.341c-2.729-2.8393-6.7479-3.1605-14.595-3.1605z" fill-opacity=".31373" display="none"/>
 <g id="layer2" display="none" transform="matrix(6.7274 0 0 6.7274 -2346.4 -923.08)">
  <rect id="rect3745-5" opacity=".9" rx="6" ry="6" height="85" filter="url(#filter3174-6)" width="86" y="7" x="5" fill="url(#ButtonShadow-82)"/>
 </g>
 <path id="path9" d="m26 0c-14.397 0-26 11.603-26 26v460c0 14.397 11.603 26 26 26h460c14.397 0 26-11.603 26-26v-460c0-14.397-11.6-26-26-26h-460" fill="#cea86b"/>
 <text id="text11" font-size="129.23px" style="word-spacing:0;letter-spacing:0" line-height="125%" y="189.75" x="-250.44" font-family="&apos;Gentium Book Basic&apos;">
  <tspan id="tspan13" y="189.75" x="-250.44"/>
 </text>
 <text id="text15" style="text-anchor:middle" transform="scale(4.0128 .24920)" font-size="46.954px" y="412.27789" x="134.66931" font-family="Arial"/>
 <text id="text17" font-size="129.23px" style="word-spacing:0;letter-spacing:0" line-height="125%" y="109.75" x="330.82999" font-family="&apos;Gentium Book Basic&apos;">
  <tspan id="tspan19" y="109.75" x="330.82999"/>
 </text>
 <text id="text21" style="text-anchor:middle" transform="scale(4.0128 .24920)" font-size="46.954px" y="91.249535" x="279.51855" font-family="Arial"/>
 <text id="text23" font-size="129.23px" style="word-spacing:0;letter-spacing:0" line-height="125%" y="-71.510002" x="-740.75" font-family="&apos;Gentium Book Basic&apos;">
  <tspan id="tspan25" y="-71.510002" x="-740.75"/>
 </text>
 <text id="text27" style="text-anchor:middle" transform="scale(4.0128 .24920)" font-size="46.954px" y="-636.09674" x="12.481936" font-family="Arial"/>
 <text id="text29" font-size="129.23px" style="word-spacing:0;letter-spacing:0" line-height="125%" y="-287.98001" x="357.29999" font-family="&apos;Gentium Book Basic&apos;">
  <tspan id="tspan31" y="-287.98001" x="357.29999"/>
 </text>
 <text id="text33" style="text-anchor:middle" transform="scale(4.0128 .24920)" font-size="46.954px" y="-1504.7623" x="286.11853" font-family="Arial"/>
 <text id="text35" font-size="129.23px" style="word-spacing:0;letter-spacing:0" line-height="125%" y="-367.98999" x="938.57001" font-family="&apos;Gentium Book Basic&apos;">
  <tspan id="tspan37" y="-367.98999" x="938.57001"/>
 </text>
 <text id="text39" style="text-anchor:middle" transform="scale(4.0128 .24920)" font-size="46.954px" y="-1825.8007" x="430.9678" font-family="Arial"/>
 <text id="text41" font-size="129.23px" style="word-spacing:0;letter-spacing:0" line-height="125%" y="-840.39001" x="549.45001" font-family="&apos;Gentium Book Basic&apos;">
  <tspan id="tspan43" y="-840.39001" x="549.45001"/>
 </text>
 <text id="text45" style="text-anchor:middle" transform="scale(4.0128 .24920)" font-size="46.954px" y="-3721.4409" x="333.99829" font-family="Arial"/>
 <text id="text47" font-size="129.23px" style="word-spacing:0;letter-spacing:0" line-height="125%" y="-920.39001" x="1130.71" font-family="&apos;Gentium Book Basic&apos;">
  <tspan id="tspan49" y="-920.39001" x="1130.71"/>
 </text>
 <text id="text51" style="text-anchor:middle" transform="scale(4.0128 .24920)" font-size="46.954px" y="-4042.4692" x="478.84756" font-family="Arial"/>
 <text id="text53" font-size="208.33px" style="word-spacing:0;letter-spacing:0" line-height="125%" y="494.32999" x="-702.09003" font-family="&apos;Gentium Book Basic&apos;">
  <tspan id="tspan55" y="494.32999" x="-702.09003"/>
 </text>
 <path id="path59" opacity=".25" fill-rule="evenodd" d="m453.41 118.49l-67.14 3.64 43.32 43.32-0.01 0.01-43.32-43.32-13.83 28.04-26.42-26.42 0.01 0.01-0.01-0.01-61.02 4.41 0.01 0.01 40.61 68.31-58.23 7.85 89.39 89.39v0.01l-89.4-89.4-13.94 38.5-32.14-32.14-68.8 8.79 152.38 152.38-152.38-152.38 41.87 50.58-23.97 21.59-82.13-82.13-0.809 2.06h-0.002l-46.449 39.16 106.91 135.14 126.11 126.11h211.98c14.4 0 26-11.6 26-26v-308.92l-58.59-58.59z"/>
 <path id="path113" fill="#fff" d="m453.41 118.49-67.14 3.645-17.697 35.881-22.556-34.26-61.02 4.414 40.618 68.32-58.23 7.853-15.308 42.28-30.777-35.921-68.799 8.787 41.87 50.578-35.395 31.871-70.7-92.41-0.81 2.066-46.45 39.16 106.91 135.14 82.33-72.41 1.702 2.025 9.435 77.999 64.754-6.763-7.411-87.72 1.336-3.645 55.2 2.268 19.607-50.578 25.918 48.12 70.22-11.702-57.628-86.1 40.05-78.887" fill-rule="evenodd"/>
</svg>
