<?xml version="1.0" encoding="UTF-8" standalone="no"?>
<!-- Created with Inkscape (http://www.inkscape.org/) -->
<svg id="svg2" xmlns:rdf="http://www.w3.org/1999/02/22-rdf-syntax-ns#" xmlns="http://www.w3.org/2000/svg" height="100%" width="100%" version="1.1" xmlns:cc="http://creativecommons.org/ns#" viewBox="0 0 512 512" xmlns:dc="http://purl.org/dc/elements/1.1/">
 <metadata id="metadata60">
  <rdf:RDF>
   <cc:Work rdf:about="">
    <dc:format>image/svg+xml</dc:format>
    <dc:type rdf:resource="http://purl.org/dc/dcmitype/StillImage"/>
   </cc:Work>
  </rdf:RDF>
 </metadata>
 <path id="path4" d="m26 0c-14.397 0-26 11.603-26 26v460c0 14.397 11.603 26 26 26h460c14.397 0 26-11.603 26-26v-460c0-14.397-11.6-26-26-26h-460" fill="#727057"/>
 <text id="text6" style="word-spacing:0;letter-spacing:0" font-size="129.23px" line-height="125%" y="266.45999" x="87.059998" font-family="Gentium Book Basic">
  <tspan id="tspan8" y="266.45999" x="87.059998"/>
 </text>
 <text id="text10" style="text-anchor:middle" transform="scale(4.0128 .2492)" font-size="46.954px" y="720.08002" x="218.78" font-family="Arial"/>
 <text id="text12" style="word-spacing:0;letter-spacing:0" font-size="129.23px" line-height="125%" y="186.46001" x="668.33002" font-family="Gentium Book Basic">
  <tspan id="tspan14" y="186.46001" x="668.33002"/>
 </text>
 <text id="text16" style="text-anchor:middle" transform="scale(4.0128 .2492)" font-size="46.954px" y="399.04999" x="363.62" font-family="Arial"/>
 <text id="text18" style="word-spacing:0;letter-spacing:0" font-size="129.23px" line-height="125%" y="5.1939998" x="-403.25" font-family="Gentium Book Basic">
  <tspan id="tspan20" y="5.1939998" x="-403.25"/>
 </text>
 <text id="text22" style="text-anchor:middle" transform="scale(4.0128 .2492)" font-size="46.954px" y="-328.31" x="96.589996" font-family="Arial"/>
 <text id="text24" style="word-spacing:0;letter-spacing:0" font-size="129.23px" line-height="125%" y="-211.27" x="694.79999" font-family="Gentium Book Basic">
  <tspan id="tspan26" y="-211.27" x="694.79999"/>
 </text>
 <text id="text28" style="text-anchor:middle" transform="scale(4.0128 .2492)" font-size="46.954px" y="-1196.97" x="370.22" font-family="Arial"/>
 <text id="text30" style="word-spacing:0;letter-spacing:0" font-size="129.23px" line-height="125%" y="-291.28" x="1276.0699" font-family="Gentium Book Basic">
  <tspan id="tspan32" y="-291.28" x="1276.0699"/>
 </text>
 <text id="text34" style="text-anchor:middle" transform="scale(4.0128 .2492)" font-size="46.954px" y="-1518.01" x="515.07001" font-family="Arial"/>
 <text id="text36" style="word-spacing:0;letter-spacing:0" font-size="129.23px" line-height="125%" y="-763.67999" x="886.95001" font-family="Gentium Book Basic">
  <tspan id="tspan38" y="-763.67999" x="886.95001"/>
 </text>
 <text id="text40" style="text-anchor:middle" transform="scale(4.0128 .2492)" font-size="46.954px" y="-3413.6599" x="418.10001" font-family="Arial"/>
 <text id="text42" style="word-spacing:0;letter-spacing:0" font-size="129.23px" line-height="125%" y="-843.67999" x="1468.21" font-family="Gentium Book Basic">
  <tspan id="tspan44" y="-843.67999" x="1468.21"/>
 </text>
 <text id="text46" style="text-anchor:middle" transform="scale(4.0128 .2492)" font-size="46.954px" y="-3734.6899" x="562.95001" font-family="Arial"/>
 <text id="text48" style="word-spacing:0;letter-spacing:0" font-size="208.33px" line-height="125%" y="571.03998" x="-364.59" font-family="Gentium Book Basic">
  <tspan id="tspan50" y="571.03998" x="-364.59"/>
 </text>
 <path id="path52" opacity=".25" d="m258.16 41c-14.907 3.068-15.436 8.47-11 14.563l-5.156-5.156c-17.01 6.374-16.8 13.805-11.125 21.406l-6.094-6.094c2.338 2.434 4.686 4.853 7.03 7.281 1.175 1.441 2.494 2.869 3.938 4.313-2.861-2.717-5.717-5.425-8.594-8.125l12.281 12.281c2.164 8.193 6.28 15.13 11.531 21.469l-7.03-7c-2.307 8.04 0.305 14.05 4.625 19.344l-4.625-4.625c-10.841-0.339-19.915-0.01-19.313 4.03l-2.844-2.844c-22.12-2.287-23.305 6.415-17.09 15.938l-6.281-6.281c0.573 2.523 1.559 4.842 2.844 7.03-0.472-0.117-0.934-0.224-1.406-0.344l3.625 3.625c3.4 4.481 7.915 8.443 12.406 12.406l11.906 11.906c-2.887 1.67-4.755 3.217-4.313 5.5l-4.344-4.344c-14.89 5.725-35.665-2.038-35.06 2.188l-3.875-3.875c-21.857-14.76-28.696 2.632-22.12 16.875l-4-4c-0.777 40.753 27.22 70.63 54.656 97.13-7.991 5.801-14.162 11.619-12.75 17.531l-2.75-2.719c-7.852 18.207-63.696 25.22-48.625 42.688l-7.03-7.03c-14.436 6.939-35.21 14.698-36 24.875-1.248-0.337-2.478-0.701-3.719-1.094l4.094 4.094c1.068 3.461 4.537 7.19 11.25 11.25l65.875 65.875c30.26 30.332 60.56 60.64 90.88 90.94h216.06c14.397 0 26-11.603 26-26v-197.84c-4.779-4.772-9.565-9.541-14.344-14.313l-133.72-133.75c-0.031-0.02-0.063-0.043-0.094-0.063l-11.25-11.25c-3.802-4.609-7.306-8.946-10.281-10.281l-2.688-2.688c-6.665-6.148-6.743-6.03-3.906-3.125l-4.313-4.313c-10.781-9.658-12.751-11.11-9.469-7.656l-4.406-4.406c-0.646 0.095-1.271 0.183-1.906 0.281l-41.719-41.75c-2.807-2.831-5.407-5.448-7.625-7.594l-5.219-5.219c-0.404 0.608 0.388 1.957 1.875 3.75l-4.781-4.781m1.25 26.781c2.632 2.393 5.104 4.738 6.906 6.938l-6.906-6.938m73.34 43.719c2.26 2.251 4.522 4.498 6.781 6.75-0.013 0.005-0.018 0.026-0.031 0.031l-6.75-6.781"/>
 <path id="path54" d="m258.15 41.01c-2.977 0.238-7.645 3.147-16.14 9.398-9.359 6.883-17.15 13.759-17.228 15.3-0.083 1.541 4.216 5.683 9.518 9.156 7.507 4.918 9.638 9.567 9.638 21.08v14.698l-22.17 1.204c-19.456 1.015-22.317 2.218-23.372 9.638-1.227 8.621 2.923 10.264 33.975 13.614 6.468 0.697 10.05 3.768 10.843 9.276 1.035 7.261-1.718 8.669-24.1 12.891-22.15 4.18-26.953 3.988-38.92-1.686-20.901-9.918-27.05-6.855-26.14 12.891 1.388 30.17 12.333 54.5 34.34 76.5l20.481 20.481-15.662 14.939c-8.606 8.27-33.658 24.345-55.657 35.661-22 11.317-40.1 21.686-40.12 23.01-0.06 3.051 20.48 7.228 35.541 7.228 15.08 0 40.3-13.03 78.19-40.23l30.842-22.05 1.204 28.19c1.649 40.38-0.28 45.661-16.746 45.661h-13.614l6.259 12.05c3.439 6.65 10.266 22.696 15.185 35.661 4.913 12.964 10.832 28.498 13.13 34.456 5.327 13.795 9.509 11.05 17.951-11.806 5.181-14.03 7.147-34.27 8.434-86.5 1.402-56.909 2.649-67.775 7.228-66.02 3.02 1.158 18.522 19.941 34.456 41.805 33.34 45.755 53.33 65.3 62.767 61.2 9.68-4.199 51.41-13.04 62.04-13.13 12.666-0.108 6.48-4.952-17.11-13.373-37.818-13.501-77.852-42.825-98.91-72.41l-7.71-10.722 18.07-18.312c22.354-22.608 32.648-42.2 32.648-62.04 0-8.733 2.059-16.02 4.82-16.987 8.788-3.072-8.07-16.98-27.23-22.529-9.966-2.887-30.649-5.258-46.02-5.18-19.257 0.098-27.951-1.268-27.951-4.458 0-2.765 11.253-6.487 27.951-9.156 15.373-2.457 32.08-5.698 37.11-7.228 9.11-2.772 9.128-2.784-4.578-14.818l-13.858-12.05-22.288 5.302c-28.17 6.729-28.19 6.736-28.19 0.12 0-5.917 8.129-15.279 18.07-20.842 5.258-2.943 4.329-5.558-6.868-17.83-7.194-7.885-14.574-16.775-16.264-19.758-0.921-1.626-2.069-2.431-3.856-2.29m43.613 127.95h30.842v18.674c0 14.613-2.501 22.11-11.446 34.456-6.297 8.689-14.867 17.651-19.04 19.878-4.167 2.231-8.126 3.839-8.8 3.614-19.705-6.638-22.409-9.304-22.409-21.927v-13.13l23.13 2.772c19.978 2.318 23.417 1.754 25.661-4.096 4.092-10.663-15.08-24.818-33.613-24.818-12.631 0-15.185-1.303-15.185-7.71 0-7.07 2.57-7.71 30.842-7.71m-66.14 4.458c3.405-0.207 4.458 1.51 4.458 6.02 0 5.218-3.844 8.697-12.168 11.08-6.67 1.913-13.925 6.362-16.14 9.88-6.06 9.612 3.878 19.705 17.469 17.714 9.68-1.421 10.843-0.473 10.843 9.276 0 12.709-7.13 14.12-25.06 4.94-16.374-8.391-21.2-16.246-21.2-34.697 0-15.627 0.442-16.209 14.457-18.554 7.952-1.329 18.361-3.51 23.13-4.82 1.716-0.471 3.082-0.775 4.216-0.844m-169.99 296.25c-0.114 0.448-0.245 0.879-0.362 1.326 3.638-0.452 7.239-0.883 10.964-1.326h-10.603" fill="#fff"/>
</svg>
