<?xml version="1.0" encoding="UTF-8" standalone="no"?>
<!-- Created with Inkscape (http://www.inkscape.org/) -->
<svg id="svg2" xmlns:rdf="http://www.w3.org/1999/02/22-rdf-syntax-ns#" xmlns="http://www.w3.org/2000/svg" height="100%" width="100%" version="1.1" xmlns:cc="http://creativecommons.org/ns#" viewBox="0 0 512 512" xmlns:dc="http://purl.org/dc/elements/1.1/">
 <metadata id="metadata70">
  <rdf:RDF>
   <cc:Work rdf:about="">
    <dc:format>image/svg+xml</dc:format>
    <dc:type rdf:resource="http://purl.org/dc/dcmitype/StillImage"/>
   </cc:Work>
  </rdf:RDF>
 </metadata>
 <path id="path4" d="m26 0c-14.397 0-26 11.603-26 26v460c0 14.397 11.603 26 26 26h460c14.397 0 26-11.603 26-26v-460c0-14.397-11.6-26-26-26h-460" fill="#d23638"/>
 <text id="text6" style="word-spacing:0;letter-spacing:0" font-size="129.23px" line-height="125%" y="140.66" x="37.966" font-family="Gentium Book Basic">
  <tspan id="tspan8" y="140.66" x="37.966"/>
 </text>
 <text id="text10" style="text-anchor:middle" transform="scale(4.0128 .2492)" font-size="46.954px" y="215.3" x="206.53999" font-family="Arial"/>
 <text id="text12" style="word-spacing:0;letter-spacing:0" font-size="129.23px" line-height="125%" y="60.661999" x="619.23999" font-family="Gentium Book Basic">
  <tspan id="tspan14" y="60.661999" x="619.23999"/>
 </text>
 <text id="text16" style="text-anchor:middle" transform="scale(4.0128 .2492)" font-size="46.954px" y="-105.74" x="351.39001" font-family="Arial"/>
 <text id="text18" style="word-spacing:0;letter-spacing:0" font-size="129.23px" line-height="125%" y="-120.6" x="-452.34" font-family="Gentium Book Basic">
  <tspan id="tspan20" y="-120.6" x="-452.34"/>
 </text>
 <text id="text22" style="text-anchor:middle" transform="scale(4.0128 .2492)" font-size="46.954px" y="-833.08002" x="84.349998" font-family="Arial"/>
 <text id="text24" style="word-spacing:0;letter-spacing:0" font-size="129.23px" line-height="125%" y="-337.07001" x="645.71002" font-family="Gentium Book Basic">
  <tspan id="tspan26" y="-337.07001" x="645.71002"/>
 </text>
 <text id="text28" style="text-anchor:middle" transform="scale(4.0128 .2492)" font-size="46.954px" y="-1701.76" x="357.98999" font-family="Arial"/>
 <text id="text30" style="word-spacing:0;letter-spacing:0" font-size="129.23px" line-height="125%" y="-417.07001" x="1226.98" font-family="Gentium Book Basic">
  <tspan id="tspan32" y="-417.07001" x="1226.98"/>
 </text>
 <text id="text34" style="text-anchor:middle" transform="scale(4.0128 .2492)" font-size="46.954px" y="-2022.79" x="502.84" font-family="Arial"/>
 <text id="text36" style="word-spacing:0;letter-spacing:0" font-size="129.23px" line-height="125%" y="-889.46997" x="837.85999" font-family="Gentium Book Basic">
  <tspan id="tspan38" y="-889.46997" x="837.85999"/>
 </text>
 <text id="text40" style="text-anchor:middle" transform="scale(4.0128 .2492)" font-size="46.954px" y="-3918.4399" x="405.87" font-family="Arial"/>
 <text id="text42" style="word-spacing:0;letter-spacing:0" font-size="129.23px" line-height="125%" y="-969.47998" x="1419.12" font-family="Gentium Book Basic">
  <tspan id="tspan44" y="-969.47998" x="1419.12"/>
 </text>
 <text id="text46" style="text-anchor:middle" transform="scale(4.0128 .2492)" font-size="46.954px" y="-4239.4702" x="550.71997" font-family="Arial"/>
 <g id="g48" style="word-spacing:0;letter-spacing:0" font-family="Gentium Book Basic" font-size="208.33px" line-height="125%">
  <text id="text50" y="445.23999" x="-413.67999">
   <tspan id="tspan52" y="445.23999" x="-413.67999"/>
  </text>
  <text id="text54" y="-181.25999" x="-2572.76">
   <tspan id="tspan56" y="-181.25999" x="-2572.76"/>
  </text>
  <text id="text58" y="-484.31" x="575.89001">
   <tspan id="tspan60" y="-484.31" x="575.89001"/>
  </text>
 </g>
 <path id="path62" opacity=".25" d="m41 41v35.25l26.875 26.875v0.063c0 14.993-11.905 27.688-26.875 27.688v6.719l26.844 26.844c0.009 0.292 0.031 0.582 0.031 0.875 0 14.993-11.905 26.03-26.875 26.03v6.719l26.844 26.844c0.009 0.291 0.031 0.582 0.031 0.875 0 15.02-11.905 26.03-26.875 26.03v8.375l26.844 26.844c-0.419 14.65-12.144 26.92-26.844 26.92v5.906l26.875 26.875c-0.017 14.98-11.915 27.69-26.875 27.69v6.719l26.844 26.844c0.008 0.281 0.031 0.561 0.031 0.844 0 15.02-11.905 26.938-26.875 26.938v35.25l41 41h404c14.397 0 26-11.603 26-26v-404l-41-41h-35.31c0 14.993-11.801 26.875-26.813 26.875-0.304 0-0.604-0.022-0.906-0.031l-26.84-26.843h-6.688c0 14.993-12.763 26.875-27.75 26.875l-26.85-26.875h-5.906c0 14.993-11.888 26.875-26.875 26.875-0.282 0-0.563-0.023-0.844-0.031l-26.83-26.844h-6.75c0 14.993-11.832 26.875-26.844 26.875-0.293 0-0.584-0.022-0.875-0.031l-26.85-26.844h-5.906c0 14.993-11.874 26.875-26.844 26.875-0.293 0-0.583-0.022-0.875-0.031l-26.84-26.844h-6.719c0 14.972-12.721 26.842-27.688 26.875l-26.868-26.875h-35.31"/>
 <path id="path64" d="m41 41v35.26c14.97 0 26.869 11.902 26.869 26.92 0 14.993-11.898 27.697-26.869 27.697v6.73c14.97 0 26.869 12.679 26.869 27.697 0 14.993-11.898 26.04-26.869 26.04v6.73c14.97 0 26.869 12.704 26.869 27.697 0 15.02-11.898 26.04-26.869 26.04v8.387c14.97 0 26.869 11.05 26.869 26.04 0 14.993-11.898 27.697-26.869 27.697v5.902c14.97 0 26.869 11.898 26.869 26.869 0 14.993-11.898 27.697-26.869 27.697v6.73c14.97 0 26.869 12.727 26.869 27.697 0 15.02-11.898 26.92-26.869 26.92v35.26h31.942c0-14.993 11.875-27.749 26.869-27.749 14.987 0 27.697 12.755 27.697 27.749h6.73c0-14.993 12.778-27.749 27.749-27.749 14.987 0 26.817 12.755 26.817 27.749h5.902c0-14.993 11.898-27.749 26.869-27.749 14.987 0 27.697 12.755 27.697 27.749h6.73c0-14.993 11.857-27.749 26.869-27.749 14.97 0 27.749 12.755 27.749 27.749h5.85c0-14.993 11.882-27.749 26.869-27.749 14.946 0 27.697 12.755 27.697 27.749h6.782c0-14.993 12.71-27.749 27.697-27.749 14.993 0 26.817 12.755 26.817 27.749h38.672v-31.13c-14.946 0-26.869-11.799-26.869-26.817 0-14.945 11.923-26.869 26.869-26.869v-6.73c-14.946 0-26.869-12.679-26.869-27.697 0-14.993 11.923-27.749 26.869-27.749v-5.85c-14.946 0-26.869-11.927-26.869-26.92s11.923-26.869 26.869-26.869v-7.558c-14.946 0-26.869-11.05-26.869-26.04 0-14.97 11.923-27.697 26.869-27.697v-6.73c-14.946 0-26.869-11.898-26.869-26.869 0-15.02 11.923-26.869 26.869-26.869v-7.558c-14.946 0-26.869-11.923-26.869-26.869 0.019-15.02 11.898-27.697 26.869-27.697v-39.5h-35.31c0 14.993-11.805 26.869-26.817 26.869-14.993 0-27.749-11.875-27.749-26.869h-6.678c0 14.993-12.762 26.869-27.749 26.869-14.97 0-26.869-11.875-26.869-26.869h-5.902c0 14.993-11.882 26.869-26.869 26.869-14.97 0-27.697-11.875-27.697-26.869h-6.73c0 14.993-11.857 26.869-26.869 26.869-14.97 0-27.697-11.875-27.697-26.869h-5.902c0 14.993-11.898 26.869-26.869 26.869-15.01 0-27.697-11.875-27.697-26.869h-6.73c0 14.993-12.755 26.869-27.749 26.869-14.987 0-26.817-11.875-26.817-26.869h-35.31m262.63 91.99c1.406-0.056 2.866 0.083 4.297 0.466 7.631 2.045 12.14 9.867 10.1 17.498-0.405 1.513-1.049 2.9-1.864 4.142 27.582 11.627 41.955 35.536 34.893 60.36-5.875 26.8-9.156 57.855-2.847 93.81 0.174 0.588 0.438 1.181 0.569 1.76 3.639 16.05 11.389 29.657 21.02 44.26-4.593 13.04-11.965 12.965-18.637 13.874l-65.39-17.343c-0.086 0.37-0.16 0.717-0.259 1.087-5.03 18.791-24.384 29.936-43.18 24.901-18.791-5.03-29.936-24.332-24.901-43.12 0.082-0.303 0.17-0.58 0.259-0.88l-64.971-17.239c-4.094-3.639-13.637-9.953-9.422-21.899 21.553-10.247 31.21-20.613 42.4-30.958 26.09-27.19 32.945-54.777 43.694-80.86 8.909-26.838 29.786-39.61 60.52-34.945-0.061-1.422 0.078-2.901 0.466-4.349 1.661-6.2 7.16-10.319 13.253-10.561" fill="#fff"/>
</svg>
