<?xml version="1.0" encoding="UTF-8" standalone="no"?>
<!-- Created with Inkscape (http://www.inkscape.org/) -->
<svg id="svg2" xmlns:rdf="http://www.w3.org/1999/02/22-rdf-syntax-ns#" xmlns="http://www.w3.org/2000/svg" height="100%" width="100%" version="1.1" xmlns:cc="http://creativecommons.org/ns#" xmlns:dc="http://purl.org/dc/elements/1.1/" viewBox="0 0 512 512">
 <metadata id="metadata163">
  <rdf:RDF>
   <cc:Work rdf:about="">
    <dc:format>image/svg+xml</dc:format>
    <dc:type rdf:resource="http://purl.org/dc/dcmitype/StillImage"/>
   </cc:Work>
  </rdf:RDF>
 </metadata>
 <path id="path9" d="m26 0c-14.397 0-26 11.603-26 26v460c0 14.397 11.603 26 26 26h460c14.397 0 26-11.603 26-26v-460c0-14.397-11.6-26-26-26h-460" fill="#e75177"/>
 <text id="text11" style="word-spacing:0;letter-spacing:0" font-size="129.23px" line-height="125%" y="171.34" x="-164.53" font-family="Gentium Book Basic">
  <tspan id="tspan13" y="171.34" x="-164.53"/>
 </text>
 <text id="text15" style="text-anchor:middle" transform="scale(4.0128 .2492)" font-size="46.954px" y="338.41" x="156.08" font-family="Arial"/>
 <text id="text17" style="word-spacing:0;letter-spacing:0" font-size="129.23px" line-height="125%" y="91.339996" x="416.73999" font-family="Gentium Book Basic">
  <tspan id="tspan19" y="91.339996" x="416.73999"/>
 </text>
 <text id="text21" style="text-anchor:middle" transform="scale(4.0128 .2492)" font-size="46.954px" y="17.382" x="300.92999" font-family="Arial"/>
 <text id="text23" style="word-spacing:0;letter-spacing:0" font-size="129.23px" line-height="125%" y="-89.919998" x="-654.84003" font-family="Gentium Book Basic">
  <tspan id="tspan25" y="-89.919998" x="-654.84003"/>
 </text>
 <text id="text27" style="text-anchor:middle" transform="scale(4.0128 .2492)" font-size="46.954px" y="-709.96997" x="33.889999" font-family="Arial"/>
 <text id="text29" style="word-spacing:0;letter-spacing:0" font-size="129.23px" line-height="125%" y="-306.39001" x="443.20999" font-family="Gentium Book Basic">
  <tspan id="tspan31" y="-306.39001" x="443.20999"/>
 </text>
 <text id="text33" style="text-anchor:middle" transform="scale(4.0128 .2492)" font-size="46.954px" y="-1578.64" x="307.53" font-family="Arial"/>
 <text id="text35" style="word-spacing:0;letter-spacing:0" font-size="129.23px" line-height="125%" y="-386.39999" x="1024.48" font-family="Gentium Book Basic">
  <tspan id="tspan37" y="-386.39999" x="1024.48"/>
 </text>
 <text id="text39" style="text-anchor:middle" transform="scale(4.0128 .2492)" font-size="46.954px" y="-1899.6801" x="452.38" font-family="Arial"/>
 <text id="text41" style="word-spacing:0;letter-spacing:0" font-size="129.23px" line-height="125%" y="-858.79999" x="635.35999" font-family="Gentium Book Basic">
  <tspan id="tspan43" y="-858.79999" x="635.35999"/>
 </text>
 <text id="text45" style="text-anchor:middle" transform="scale(4.0128 .2492)" font-size="46.954px" y="-3795.3301" x="355.41" font-family="Arial"/>
 <text id="text47" style="word-spacing:0;letter-spacing:0" font-size="129.23px" line-height="125%" y="-938.79999" x="1216.62" font-family="Gentium Book Basic">
  <tspan id="tspan49" y="-938.79999" x="1216.62"/>
 </text>
 <text id="text51" style="text-anchor:middle" transform="scale(4.0128 .2492)" font-size="46.954px" y="-4116.3599" x="500.26001" font-family="Arial"/>
 <path id="path55" opacity=".25" d="m272.44 41c-45.26 0-85.52 10-120.78 30-35.26 19.825-62.55 47.47-81.84 82.91l41.89 41.89v0.01l-41.898-41.9c-19.12 35.44-28.687 74.82-28.687 118.16l0.006 0.01c0.003 60.41 17.398 108.01 52.199 142.82l97.1 97.1h295.57c14.4 0 26-11.6 26-26v-296.88l-93.36-93.36c0.13 0.129 0.26 0.265 0.39 0.394l-0.39-0.384c-12.27-12.268-26.52-22.627-42.76-31.077v-0.004c-30.35-15.788-64.84-23.686-103.44-23.687v-0.002z"/>
 <path id="path159" d="m272.44 41c-45.26 0-85.52 10-120.78 30-35.26 19.825-62.55 47.47-81.84 82.906-19.12 35.439-28.688 74.823-28.688 118.16 0 62.46 18.588 111.22 55.781 146.31 37.37 35.09 89.4 52.625 156.06 52.625 46.14 0 87.81-7.898 125-23.688v-50.781c-20.18 7.544-41.482 13.489-63.938 17.875s-43.507 6.594-63.16 6.594c-49.12 0-86.66-12.898-112.62-38.688-25.79-25.965-38.688-63.25-38.688-111.84 0-35.789 6.921-67.35 20.781-94.72 13.86-27.368 33.934-48.42 60.25-63.16 26.316-14.737 57.11-22.12 92.38-22.12 27.544 0 51.928 5.796 73.16 17.375 21.403 11.404 37.889 27.996 49.47 49.75 11.754 21.579 17.656 46.47 17.656 74.72 0 26.491-3.334 47.978-10 64.47-6.667 16.316-15.616 24.469-26.844 24.469-13.334 0-20-12.282-20-36.844l6.03-128.66c-11.755-4.21-26.935-7.649-45.531-10.281-18.597-2.807-34.977-4.218-49.19-4.219-38.421 0-69.29 11.412-92.62 34.22-23.16 22.807-34.75 52.55-34.75 89.22 0 32.28 8.949 57.791 26.844 76.56 17.895 18.597 42.35 27.906 73.41 27.906 15.09 0 28.782-2.973 41.06-8.938 12.28-6.14 22.716-14.474 31.31-25h4.219c4.21 10.176 11.312 18.403 21.313 24.719 10.175 6.14 21.767 9.219 34.75 9.219 19.473 0 36.575-5.871 51.31-17.625 14.736-11.754 26.12-28.17 34.19-49.22s12.12-44.21 12.13-69.47c0-38.07-8.259-71.66-24.75-100.78-16.492-29.12-39.9-51.585-70.25-67.37-30.34-15.785-64.83-23.683-103.42-23.684m-1.563 148.16c12.1 0 22.18 0.871 30.25 2.625l-3.406 58.16c-1.755 25.26-6.86 43.522-15.281 54.75-8.246 11.05-20.17 16.563-35.781 16.563-30.18 0-45.25-18.482-45.25-55.5 0-23.684 6.05-42.38 18.16-56.06 12.28-13.684 29.382-20.531 51.31-20.531" fill="#fff"/>
</svg>
