<?xml version="1.0" encoding="UTF-8" standalone="no"?>
<svg id="svg2" xmlns:rdf="http://www.w3.org/1999/02/22-rdf-syntax-ns#" xmlns="http://www.w3.org/2000/svg" height="100%" viewBox="0 0 512 512" width="100%" version="1.1" xmlns:cc="http://creativecommons.org/ns#" xmlns:dc="http://purl.org/dc/elements/1.1/">
 <metadata id="metadata10">
  <rdf:RDF>
   <cc:Work rdf:about="">
    <dc:format>image/svg+xml</dc:format>
    <dc:type rdf:resource="http://purl.org/dc/dcmitype/StillImage"/>
    <dc:title/>
   </cc:Work>
  </rdf:RDF>
 </metadata>
 <path id="path3379" fill="#e4a146" d="m26 0c-14.397 0-26 11.603-26 26v460c0 14.397 11.603 26 26 26h460c14.397 0 26-11.603 26-26v-460c0-14.397-11.6-26-26-26h-460"/>
 <path id="path9941" opacity=".25" d="m256 40.996l37.62 37.615v0.008l-37.62-37.619c-11.96 0-27 9.736-32.46 21.01l0.01 0.004c-6.49 13.397-6.49 19.815-0.02 33.175l15.99 15.991h-0.01l-15.99-15.991c1.86 3.846 3.93 6.911 6.5 9.471l38.52 38.52v10.87l-25.08-25.08v0.01l-9.41-2.52 9.41 9.41-9.41-9.41c-104.48-28.029-169.74-45.09-170.3-44.536l0.012 0.012c-0.002 0.013 0.001 0.029 0.033 0.06l140.1 140.09c4.25 26.92 9.25 58.95 14.72 94.73l23.58 154.18 41 41h202.8c14.4 0 26-11.6 26-26v-340.33l-63.75-63.748c-0.45-0.455-41.6 10.215-109.28 28.228l-56.98-56.98c-7.08-7.081-17.34-12.174-25.99-12.174z"/>
 <path id="path10011" fill="#fff" d="m256 241.65h12.49l0.652 114.68 0.652 114.68 23.582-154.18c12.97-84.8 24.41-156.45 25.422-159.23 1.198-3.291 24.21-17.242 65.992-40.01 35.28-19.226 63.839-35.28 63.46-35.659-0.556-0.586-65.822 16.509-170.3 44.536l-9.405 2.519v31.26 31.25h-12.541-12.541v-31.25-31.26l-9.405-2.519c-104.48-28.03-169.74-45.09-170.3-44.536-0.383 0.391 28.17 16.434 63.46 35.659 41.78 22.769 64.795 36.72 65.992 40.01 1.012 2.777 12.451 74.43 25.422 159.23l23.582 154.18 0.652-114.68 0.653-114.68zm16.614-130.57c11.272-5.452 21.01-20.495 21.01-32.451 0-3.267-2.325-10.744-5.167-16.615-5.45-11.271-20.49-21.01-32.45-21.01-11.958 0-26.998 9.736-32.455 21.01-6.488 13.4-6.492 19.818-0.022 33.18 3.673 7.586 8.155 12.12 15.676 15.84 13.224 6.551 19.972 6.557 33.414 0z"/>
</svg>
