<?xml version="1.0" encoding="UTF-8" standalone="no"?>
<svg id="svg2" xmlns:rdf="http://www.w3.org/1999/02/22-rdf-syntax-ns#" xmlns="http://www.w3.org/2000/svg" height="100%" viewBox="0 0 512 512" width="100%" version="1.1" xmlns:cc="http://creativecommons.org/ns#" xmlns:dc="http://purl.org/dc/elements/1.1/">
 <metadata id="metadata10">
  <rdf:RDF>
   <cc:Work rdf:about="">
    <dc:format>image/svg+xml</dc:format>
    <dc:type rdf:resource="http://purl.org/dc/dcmitype/StillImage"/>
    <dc:title/>
   </cc:Work>
  </rdf:RDF>
 </metadata>
 <path id="path23627" fill="#31afbc" d="m25.996 0.0035c-14.397 0-26 11.603-26 26v460c0 14.397 11.603 26 26 26h460c14.397 0 26-11.603 26-26v-460c0-14.397-11.603-26-26-26h-460"/>
 <path id="path23629" opacity=".2" d="m25.996 0.0035c-14.397 0-26 11.603-26 26v232.41c17.816-13.618 50.919-11.04 59.06 11.719-9.178-31.505 22.868-56.24 40.844-78.875 3.742-11.06 25.998-20.507 18.344-5.813 13.03-0.446 32.747-22.774 9.594-12.469-0.328-20.349-20.279-14.545-26.75-11.656 11.995-18.06 73.64-8.167 47.844-37.688-19.988-7.684-18.345-52.54-38.563-27.563 1.702-15.391-41.18-45.49-40.25-19.688 5.231 23.09 0.944 49.676-10.188 64.813-2.323-33.84-63.17-26.408-55.34-62.47 11.331-17.19 24.645-40.881 25.906-38.75 18.526-6.71 33.655-25.12 18.313-38.969l0.719-1h-23.531m50.625 0c1.226 1.813 2.402 3.996 3.5 6.688 23.13 12.645 2.02 34.1-8.06 41.469 16.861-9.449 46.4 37.36 38.34 11.406-9.924-6.875 26.691 11.03 7.719-11.313-17.46-26.687 1.357-11.916 8.719-5.688 23.734-20.19-22.954-23.588-16.531-42.563h-33.688m-4.563 48.16c-0.545 0.306-1.045 0.636-1.563 1.063 0.483-0.318 1-0.653 1.563-1.063m96.72-48.16c0.552 0.042 1.094 0.034 1.594 0h-1.594m10.438 0c0.087 6.816-14.551 11.912-1.344 19.06-19.19 9.393 3.092 49.16 17.344 59.09 23.458 18.735 10.388-39.678 36.563-42.719 12.507-13.546 33.31-22.854 50.22-35.438h-102.78m275.28 0v3.344c-13.667 13.709-23.07 31.954-33.75 48.16-26.01 11.125-25.03 58.853 4.03 43.594 7.776 12.886-5.434 33.19 17.219 16.344 18.272-22.939 3.187-60.01 34.28-74.47 2.264 11.248-28.654 53.25 7.5 46.34 32.684 1.169-23.74 3.069-7.844 22.875-16.516-9.296-7.942 25.384-29.5 17.313-18.676 9.638-30.935-4.479-26.656-19.938-14.692 8.132 4.599 31.09-20.906 32.469-5.713 19.246-52.716 16.339-26 35.938 11.862 29.16-44.16 1.812-28.25 36.813 13.613 34.608 42.14-11.411 53.719-20.313 21.639-15.925 53.38 25.279 37.06 29.375 20.537-3.679 15.703-23.18-1.875-30.844-9.753-23.998 30.877 11.812 28.625 23.844 14.335 25.466 8.444-26.1 23.03-3.281-0.895 12.649 15.367 13.553 26.813 16.03v-25.06c-16.276-0.59-29.914-6.278-10.594-24.406 2.644-1.506 6.738-0.222 10.594 1.406v-149.53c0-14.397-11.603-26-26-26h-31.5m-379.47 11.438c-11.05 17.17 16.326 6.339 0 0m241.94 20.344c-12.936 14.13-29.976-3.738-30.25 8.406 2.345 3.67 11.708 29.889 32.28 10.563 11.04-4.417 6.681-15.561-2.031-18.969m-275.44 8.406c-24.536 20.328 41.691 22.245 5.219 2.375l-5.219-2.375m323.41 56.53c-17.02 11.01 8.805 33.946 0 44.781-11.07 18.303 41.13-1.277 13.25-15.875-1.91-12.06-15.296-26.645-13.219-28.906h-0.031m-11.625 21.844c-24.613 6.601-5.592 40.665 3.125 8.563 0.49-1.861 1.16-8.625-3.125-8.563m-197.06 24.656c-22.901 14.813-3.564 29.602 13.219 22.938-3.446-8.936-13.06-14.573-13.219-22.938m260.16 56.5c-14.355 8.773 9.926 15.501 0 0m2.031 19.719c-25.26 1.947-56.52 1.731-73.44 21.09-18.287 23.807-44.653 57.07-24.719 87.47 19.948 45.05 69.43 2.304 97.88 28.906 8.452 11.09-7.336 24.302 11.563 36.31 7.112 25.595-8.091 49.883 9.375 74.34 9.03 23.01 14.667 57.47 48.28 36.438 12.654-7.224 19.599-16.619 24.625-26.656v-232.94c-23.735 3.368-47.07-6.255-67.53 0.375-19.861-0.166-18.801-20.302-26.03-25.344m-362.5 62.06c-2.42 7.66 45.4 15.427 12.406 3.156l-4.938-1.656-7.469-1.5m-25.438 5.594c-8.587 8.102-21.585 10.519-30.5 6.5v18.344c4.824 1.606 9.885 2.965 15.188 4.03 19.549 6.309 35.622 27.991 52.813 23.22 9.722 24.308-28.824 47.668 1.281 70.34 15.714 22.955 42.16 38.05 27.875 70.28-3.337 10.516-5.073 21.344-6.25 32.19h61.34c1.672-3.857 5.147-6.394 14.531-5.125 16.474-20.485 21.234-44.965 49.03-53.09 3.322-24.867 46.23-62.938 1.906-72.62-12.05-5.633-43.06-7.634-40.688-10.406 4.803-24.675-40.08-31.717-59.19-41.813-25.09-16.894-62.785 28.05-71.62-10.688-5.274-12.192-24.581-12.348-15.719-31.16m62.53 5.313c-14.504 13.969 29.883 4.173 0 0" fill="#e6e6e6"/>
 <text id="text23631" style="word-spacing:0;letter-spacing:0" font-size="129.23px" y="73.163506" x="65.576004" font-family="&apos;Gentium Book Basic&apos;" line-height="125%">
  <tspan id="tspan23633" y="73.163506" x="65.576004"/>
 </text>
 <text id="text23635" style="text-anchor:middle" transform="scale(4.0128 .24920)" font-size="46.954px" y="-55.555672" x="213.41791" font-family="Arial"/>
 <text id="text23637" style="word-spacing:0;letter-spacing:0" font-size="129.23px" y="-6.8334999" x="646.84595" font-family="&apos;Gentium Book Basic&apos;" line-height="125%">
  <tspan id="tspan23639" y="-6.8334999" x="646.84595"/>
 </text>
 <text id="text23641" style="text-anchor:middle" transform="scale(4.0128 .24920)" font-size="46.954px" y="-376.58405" x="358.26715" font-family="Arial"/>
 <text id="text23643" style="word-spacing:0;letter-spacing:0" font-size="129.23px" y="-188.09651" x="-424.73401" font-family="&apos;Gentium Book Basic&apos;" line-height="125%">
  <tspan id="tspan23645" y="-188.09651" x="-424.73401"/>
 </text>
 <text id="text23647" style="text-anchor:middle" transform="scale(4.0128 .24920)" font-size="46.954px" y="-1103.9303" x="91.228539" font-family="Arial"/>
 <text id="text23649" style="word-spacing:0;letter-spacing:0" font-size="129.23px" y="-404.5665" x="673.31598" font-family="&apos;Gentium Book Basic&apos;" line-height="125%">
  <tspan id="tspan23651" y="-404.5665" x="673.31598"/>
 </text>
 <text id="text23653" style="text-anchor:middle" transform="scale(4.0128 .24920)" font-size="46.954px" y="-1972.5958" x="364.86713" font-family="Arial"/>
 <text id="text23655" style="word-spacing:0;letter-spacing:0" font-size="129.23px" y="-484.57648" x="1254.5859" font-family="&apos;Gentium Book Basic&apos;" line-height="125%">
  <tspan id="tspan23657" y="-484.57648" x="1254.5859"/>
 </text>
 <text id="text23659" style="text-anchor:middle" transform="scale(4.0128 .24920)" font-size="46.954px" y="-2293.634" x="509.7164" font-family="Arial"/>
 <text id="text23661" style="word-spacing:0;letter-spacing:0" font-size="129.23px" y="-956.9765" x="865.46594" font-family="&apos;Gentium Book Basic&apos;" line-height="125%">
  <tspan id="tspan23663" y="-956.9765" x="865.46594"/>
 </text>
 <text id="text23665" style="text-anchor:middle" transform="scale(4.0128 .24920)" font-size="46.954px" y="-4189.2744" x="412.74689" font-family="Arial"/>
 <text id="text23667" style="word-spacing:0;letter-spacing:0" font-size="129.23px" y="-1036.9764" x="1446.726" font-family="&apos;Gentium Book Basic&apos;" line-height="125%">
  <tspan id="tspan23669" y="-1036.9764" x="1446.726"/>
 </text>
 <text id="text23671" style="text-anchor:middle" transform="scale(4.0128 .24920)" font-size="46.954px" y="-4510.3027" x="557.59613" font-family="Arial"/>
 <text id="text23673" style="word-spacing:0;letter-spacing:0" font-size="208.33px" y="377.7435" x="-386.07401" font-family="&apos;Gentium Book Basic&apos;" line-height="125%">
  <tspan id="tspan23675" y="377.7435" x="-386.07401"/>
 </text>
 <path id="path23679" opacity=".25" d="m255.76 41.104c-0.24 0-10.11 38.699-21.93 86.006l58.46 58.47-58.46-58.47h-0.01c-3.63 14.54-6.92 27.64-9.96 39.68l-10.98-10.99-0.01-0.01c-1.88-1.88-144.27-87.52-145.01-87.21l-0.014-0.016c0 0.001 0.006 0.012 0.006 0.012l0.003 0.006c-0.1 0.253 19.415 33.108 43.435 73.138l67.04 67.05-67.05-67.04 43.73 72.87 10.14 10.15c-50.5 12.65-123.7 31.11-124.15 31.39h-0.006c-0.005 0-0.004 0.01 0.002 0.01v0.01h0.004l87.05 87.05c-5.1 8.43-10.65 17.63-16.43 27.27v0.01c-23.431 39.06-43.159 71.9-43.843 72.96l0.034 0.04h-0.01l-0.033-0.03c-0.015 0.02-0.019 0.03-0.01 0.04l68.502 68.5h349.74c14.39 0 26-11.6 26-26v-349.1l-69.12-69.123c0 0.001-0.01 0.008-0.01 0.008-0.17-0.122-57.87 34.565-100.26 60.175l-86.85-86.856z"/>
 <path id="path23805" fill="#fff" d="m234.58 386.32c-11.871-46.844-21.835-85.56-22.12-86.04-0.294-0.477-39.17-10.494-86.38-22.257-47.22-11.768-85.5-21.616-85.07-21.88 0.672-0.415 169.98-43.01 170.96-43.01 0.199 0 10.04-38.706 21.858-86.01 11.827-47.31 21.691-86.01 21.929-86.01s10.09 38.63 21.885 85.84l21.452 85.84 24.728 6.106c13.6 3.358 50.85 12.557 82.78 20.44 31.928 7.883 59.47 14.6 61.23 14.925 1.748 0.327 3.177 0.837 3.177 1.134s-13.254 3.881-29.45 7.963c-87.16 21.964-141.74 35.932-142.15 36.37-0.138 0.149-9.678 38.6-21.2 85.44-11.52 46.842-21.19 85.42-21.488 85.75-0.299 0.321-10.259-37.743-22.14-84.59m32.672-105.43c20.21-9.784 20.683-38.527 0.791-48.692-4.385-2.243-5.837-2.545-12.239-2.545-6.246 0-7.942 0.334-12.11 2.382-14.572 7.155-19.435 25.545-10.386 39.29 3.166 4.81 8.9 9.221 14.306 10.989 5.177 1.696 14.615 1.012 19.646-1.424m-199.47 162.57c0.684-1.065 20.411-33.908 43.839-72.967 23.428-39.07 43.13-71.23 43.787-71.49 0.962-0.369 45.97 10.327 46.757 11.11 0.341 0.341 12.02 46.564 11.812 46.759-0.099 0.093-33.31 20.05-73.817 44.35-43.842 26.304-73.13 43.39-72.39 42.24m303.45-42.925c-39.733-23.654-72.46-43.25-72.73-43.525-0.43-0.43 10.4-46.29 11.126-47.13 0.141-0.163 10.674-2.91 23.406-6.103 17.829-4.472 23.362-5.571 24.08-4.787 0.512 0.56 19.919 32.481 43.13 70.934 23.21 38.453 42.763 70.772 43.44 71.819 0.687 1.049 0.918 1.887 0.515 1.864-0.403-0.024-33.24-19.402-72.962-43.06m-259.92-258.82c-24.05-40.09-43.597-73-43.44-73.16 0.474-0.474 144.21 85.983 145.03 87.23 0.506 0.771-1.189 9.01-4.954 24.09l-5.722 22.914-23.596 5.899-23.596 5.899-43.724-72.877m220.58 66.54-22.603-5.602-5.899-23.61-5.899-23.61 1.814-1.177c7.276-4.724 143.37-86.69 143.59-86.48 0.559 0.559-86.38 145.8-87.37 145.94-0.563 0.082-11.195-2.371-23.625-5.452"/>
</svg>
