<?xml version="1.0" encoding="UTF-8" standalone="no"?>
<svg id="svg2" xmlns:rdf="http://www.w3.org/1999/02/22-rdf-syntax-ns#" xmlns="http://www.w3.org/2000/svg" height="100%" viewBox="0 0 512 512" width="100%" version="1.1" xmlns:cc="http://creativecommons.org/ns#" xmlns:dc="http://purl.org/dc/elements/1.1/">
 <metadata id="metadata10">
  <rdf:RDF>
   <cc:Work rdf:about="">
    <dc:format>image/svg+xml</dc:format>
    <dc:type rdf:resource="http://purl.org/dc/dcmitype/StillImage"/>
    <dc:title/>
   </cc:Work>
  </rdf:RDF>
 </metadata>
 <path id="path24633" fill="#ef6a47" d="m26 0c-14.397 0-26 11.603-26 26v460c0 14.397 11.603 26 26 26h460c14.397 0 26-11.603 26-26v-460c0-14.397-11.6-26-26-26h-460"/>
 <text id="text24635" style="word-spacing:0;letter-spacing:0" font-size="129.23px" y="88.5" x="-195.21001" font-family="&apos;Gentium Book Basic&apos;" line-height="125%">
  <tspan id="tspan24637" y="88.5" x="-195.21001"/>
 </text>
 <text id="text24639" style="text-anchor:middle" transform="scale(4.0128 .24920)" font-size="46.954px" y="5.9999695" x="148.42923" font-family="Arial"/>
 <text id="text24641" style="word-spacing:0;letter-spacing:0" font-size="129.23px" y="8.5039997" x="386.06" font-family="&apos;Gentium Book Basic&apos;" line-height="125%">
  <tspan id="tspan24643" y="8.5039997" x="386.06"/>
 </text>
 <text id="text24645" style="text-anchor:middle" transform="scale(4.0128 .24920)" font-size="46.954px" y="-315.03839" x="293.2785" font-family="Arial"/>
 <text id="text24647" style="word-spacing:0;letter-spacing:0" font-size="129.23px" y="-172.75999" x="-685.52002" font-family="&apos;Gentium Book Basic&apos;" line-height="125%">
  <tspan id="tspan24649" y="-172.75999" x="-685.52002"/>
 </text>
 <text id="text24651" style="text-anchor:middle" transform="scale(4.0128 .24920)" font-size="46.954px" y="-1042.3746" x="26.239866" font-family="Arial"/>
 <text id="text24653" style="word-spacing:0;letter-spacing:0" font-size="129.23px" y="-389.23001" x="412.53" font-family="&apos;Gentium Book Basic&apos;" line-height="125%">
  <tspan id="tspan24655" y="-389.23001" x="412.53"/>
 </text>
 <text id="text24657" style="text-anchor:middle" transform="scale(4.0128 .24920)" font-size="46.954px" y="-1911.0503" x="299.87848" font-family="Arial"/>
 <text id="text24659" style="word-spacing:0;letter-spacing:0" font-size="129.23px" y="-469.23001" x="993.79999" font-family="&apos;Gentium Book Basic&apos;" line-height="125%">
  <tspan id="tspan24661" y="-469.23001" x="993.79999"/>
 </text>
 <text id="text24663" style="text-anchor:middle" transform="scale(4.0128 .24920)" font-size="46.954px" y="-2232.0786" x="444.72772" font-family="Arial"/>
 <text id="text24665" style="word-spacing:0;letter-spacing:0" font-size="129.23px" y="-941.63" x="604.67999" font-family="&apos;Gentium Book Basic&apos;" line-height="125%">
  <tspan id="tspan24667" y="-941.63" x="604.67999"/>
 </text>
 <text id="text24669" style="text-anchor:middle" transform="scale(4.0128 .24920)" font-size="46.954px" y="-4127.7192" x="347.75824" font-family="Arial"/>
 <text id="text24671" style="word-spacing:0;letter-spacing:0" font-size="129.23px" y="-1021.64" x="1185.9399" font-family="&apos;Gentium Book Basic&apos;" line-height="125%">
  <tspan id="tspan24673" y="-1021.64" x="1185.9399"/>
 </text>
 <text id="text24675" style="text-anchor:middle" transform="scale(4.0128 .24920)" font-size="46.954px" y="-4448.7568" x="492.60745" font-family="Arial"/>
 <text id="text24677" style="word-spacing:0;letter-spacing:0" font-size="208.33px" y="393.07999" x="-646.85999" font-family="&apos;Gentium Book Basic&apos;" line-height="125%">
  <tspan id="tspan24679" y="393.07999" x="-646.85999"/>
 </text>
 <path id="path24683" opacity=".25" d="m326.58 63.199c-1.73 0.055-3.44 0.371-5.04 0.922v-0.002c-3.08 1.059-4.54 1.802-5.8 3-0.37 0.351-1.8 1.601-3.2 2.762-2.03 1.675-4.63 4.812-7.56 8.842-3.46 4.756-7.46 10.87-12.32 19.117-2.73 4.63-6.48 10.81-8.36 13.72s-4.04 6.37-4.8 7.68c-3.08 5.3-13.3 19.26-21.36 29.16-6.82 8.38-19.76 20.4-24.64 22.87l157.06 157.07-157.06-157.06c-0.93 0.47-2.58 1.41-3.64 2.12-2.38 1.6-6.79 3.36-12.68 5.04-4.98 1.43-14.32 6.06-18.32 9.08-6.85 5.16-22.17 21.66-28.57 30.76l0.01 0.01c-1 1.41-2.53 3.32-3.4 4.27s-1.99 2.3-2.52 2.99c-0.58 0.77-2.52 1.9-5.04 2.92l153.83 153.83h-0.01l-153.82-153.82c-2.25 0.92-6.06 2.51-8.44 3.56s-8.99 3.69-14.68 5.88-12.62 5.04-15.4 6.32l166.84 166.84h-0.01l-166.84-166.84c-2.78 1.28-6.76 2.94-8.88 3.72-5.89 2.17-18.483 7.25-20.44 8.24-0.957 0.49-8.433 3.51-16.64 6.72h0.002c-8.207 3.22-16.572 6.63-18.551 7.56-1.986 0.93-6.186 2.69-9.362 3.96-5.4 2.16-7.009 2.95-5.271 4.68l232.87 232.88h211.46c14.4 0 26-11.6 26-26v-245.03l-169.88-169.88c-2.85-2.845-5.56-5.143-7.44-6.152l-0.01-0.01c-2.29-1.229-5.2-1.813-8.08-1.721l-0.01-0.008z"/>
 <path id="path24837" fill="#fff" d="m326.58 63.2c-1.731 0.055-3.437 0.37-5.04 0.921-3.083 1.059-4.541 1.802-5.8 3-0.368 0.351-1.796 1.599-3.199 2.76-2.027 1.675-4.631 4.811-7.56 8.841-3.459 4.757-7.455 10.872-12.32 19.12-2.732 4.634-6.48 10.808-8.36 13.72-1.879 2.912-4.04 6.371-4.8 7.681-3.083 5.301-13.303 19.258-21.358 29.16-6.821 8.383-19.755 20.4-24.641 22.873-0.926 0.47-2.581 1.408-3.64 2.12-2.375 1.598-6.787 3.357-12.68 5.04-4.983 1.43-14.319 6.06-18.32 9.08-6.854 5.162-22.17 21.66-28.567 30.761-0.994 1.416-2.53 3.333-3.401 4.277-0.87 0.948-2 2.311-2.52 3-0.581 0.772-2.521 1.895-5.04 2.92-2.251 0.916-6.06 2.507-8.44 3.561-2.384 1.054-8.988 3.694-14.68 5.881-5.694 2.187-12.621 5.04-15.401 6.32-2.78 1.278-6.761 2.94-8.88 3.721-5.886 2.168-18.483 7.246-20.44 8.24-0.957 0.487-8.433 3.507-16.64 6.72-8.207 3.214-16.575 6.633-18.554 7.56-1.986 0.928-6.184 2.692-9.36 3.96-7.631 3.046-7.688 3.371-1.44 7.48 2.175 1.43 9.768 6.938 17.241 12.441 1.559 1.149 4.291 3.042 6.04 4.24 1.751 1.198 5.245 3.709 7.76 5.56 2.515 1.85 5.484 3.957 6.6 4.679 1.845 1.195 9.416 6.651 16.68 12 1.559 1.149 4.291 3.041 6.04 4.24 2.964 2.032 9.444 6.732 16.12 11.641 5.417 3.984 10.917 7.6 11.52 7.6 0.618 0 8.411-3.02 9.88-3.84 1.827-1.014 5.828-2.035 9-2.28 0.513-0.035 1.047 0.166 1.52 0.16 1.889-0.024 3.528 0.023 6.16 0.68 6.869 1.715 8.961 3.01 15.241 9.52 4.868 5.05 6.267 6.917 11.401 15.2 6.429 10.376 8.998 15.201 11.401 21.443 0.874 2.27 3.137 7.389 5.04 11.359 1.904 3.971 4.415 9.716 5.56 12.761 1.146 3.045 3.075 7.819 4.32 10.6 1.245 2.78 3.75 8.754 5.56 13.281s4.04 9.893 4.96 11.92c1.193 2.619 1.942 3.682 2.561 3.68 1.119-0.004 8.193-1.707 12-2.879 2.865-0.884 11.652-5.164 18.96-9.24 1.986-1.108 5.797-3.706 8.44-5.8 5.509-4.364 20.487-17.756 22.04-19.68 0.574-0.71 3.985-4.528 7.56-8.481s9.21-10.272 12.52-14.08c3.31-3.807 7.645-8.773 9.641-11.04 1.996-2.268 5.805-6.743 8.479-9.914 6.638-7.887 21.04-21.967 26.88-26.28 10.646-7.863 17.569-11.284 26.12-12.92 6.373-1.219 11.605-0.756 18.92 1.719 5.964 2.02 7.734 2.918 12.24 5.96 1.854 1.252 3.981 2.633 4.721 3.08 3.518 2.127 14.436 11.43 22.04 18.8 16.586 16.09 33.07 29.941 34.25 28.761 0.508-0.508-1.275-4.937-6.6-16.48-1.772-3.84-4.141-9.475-5.28-12.52s-3.657-9.219-5.56-13.72c-1.904-4.501-4.378-10.782-5.521-13.961-1.142-3.177-3.622-9.46-5.521-13.961s-4.63-11.213-6.04-14.921c-1.411-3.706-4.075-10.634-5.92-15.401-3.855-9.957-12.507-34.85-25.841-74.16-13.281-39.16-19.733-57.36-27.321-77-6.457-16.718-18.539-41.512-25-51.36-4.541-6.917-13.32-16.09-17.64-18.401-2.294-1.229-5.195-1.811-8.08-1.719"/>
</svg>
