<?xml version="1.0" encoding="UTF-8" standalone="no"?>
<svg id="svg2" xmlns:rdf="http://www.w3.org/1999/02/22-rdf-syntax-ns#" xmlns="http://www.w3.org/2000/svg" height="100%" viewBox="0 0 512 512" width="100%" version="1.1" xmlns:cc="http://creativecommons.org/ns#" xmlns:xlink="http://www.w3.org/1999/xlink" xmlns:dc="http://purl.org/dc/elements/1.1/">
 <metadata id="metadata10">
  <rdf:RDF>
   <cc:Work rdf:about="">
    <dc:format>image/svg+xml</dc:format>
    <dc:type rdf:resource="http://purl.org/dc/dcmitype/StillImage"/>
    <dc:title/>
   </cc:Work>
  </rdf:RDF>
 </metadata>
 <path id="path25878" fill="#006e9e" d="m26 0c-14.397 0-26 11.603-26 26v460c0 14.397 11.603 26 26 26h460c14.397 0 26-11.603 26-26v-460c0-14.397-11.6-26-26-26h-460"/>
 <path id="path41936" opacity=".25" style="color:#000000" d="m324.38 137.38c-33.01 0.53-67.98 11.18-82.57 26.77-3.5 3.74-6.35 7.6-6.35 8.56 0 0.19 0.07 0.36 0.23 0.52l27.25 27.25c-12.97-0.61-26.54-2.31-35.6-4.75-39.26-10.66-85.24-13.28-112.96-6.39-10.85 2.7-22.824 8.45-29.144 14-4.909 4.31-10.128 12.97-8.713 14.39l17.008 17.01c-2.791 1.02-5.79 2.07-9.01 3.14-20.915 6.95-33.681 16.43-40.843 30.47-2.269 4.45-3.432 11.98-2.209 13.2l230.45 230.45h214.08c14.4 0 26-11.6 26-26v-231.64l-71.07-71.07c-21.7-21.7-53.69-37.54-90.61-44.02-7.22-1.26-14.91-1.86-22.75-1.89-1.05 0-2.1-0.02-3.16 0h-0.03z" fill-rule="evenodd"/>
 <path id="path33711" style="color:#000000" d="m324.41 137.38c-33.02 0.522-68.01 11.174-82.6 26.77-3.498 3.74-6.348 7.596-6.348 8.555 0 1.308 3.318 1.735 13.208 1.735 11.508 0 14.02 0.417 19.871 3.43 20.474 12.629 14.422 23.89-5.165 22.63-13.1-0.586-26.869-2.3-36.04-4.771-39.26-10.663-85.24-13.274-112.96-6.387-10.849 2.696-22.82 8.451-29.14 13.996-4.91 4.311-10.129 12.975-8.713 14.39 0.484 0.484 3.767-0.143 7.333-1.38 13.526-4.69 33.971-3.937 35.996 1.34 1.87 4.873-10.295 11.869-35.33 20.19-20.915 6.95-33.683 16.436-40.845 30.476-2.475 4.852-3.632 13.365-1.814 13.365 0.453 0 5.187-2.125 10.487-4.731 22.05-10.839 60.02-15.816 83.19-10.921 14.636 3.093 27.79 9.984 36.469 19.16l7.215 7.688-8.161 3.036c-11.123 4.182-15.762 6.703-21.329 11.591-5.441 4.777-6.107 7.946-1.695 7.964 5.386 0.022 32.32 6.542 47.587 11.552 8.166 2.679 27.881 11.142 43.842 18.806 41.699 20.02 55.22 25.03 74.87 27.598 13.566 1.774 35.81 1.498 48.691-0.591 29.626-4.805 52.23-15.902 72.62-35.641 15.98-15.47 25.717-31.06 32.13-51.49 2.71-8.63 3.193-12.885 3.193-29.648 0-21.06-1.813-29.32-9.738-45.1-17.925-35.707-59.677-62.734-110.91-71.72-7.222-1.266-14.918-1.86-22.749-1.892-1.06-0.004-2.128-0.017-3.193 0m44.24 76.72c67.08-1.705 81.81 103.08-15.849 94.7-39.736-4.836-83.7-37.862-107.12-47.666 21.241-3.265 40.973-10.7 54.49-20.07 14.68-9.884 44.06-24.05 60.64-26.455h1.183c2.271-0.284 4.499-0.458 6.663-0.513" fill-rule="evenodd" fill="#fff"/>
</svg>
