<?xml version="1.0" encoding="UTF-8" standalone="no"?>
<svg id="svg2" xmlns:rdf="http://www.w3.org/1999/02/22-rdf-syntax-ns#" xmlns="http://www.w3.org/2000/svg" height="100%" viewBox="0 0 512 512" width="100%" version="1.1" xmlns:cc="http://creativecommons.org/ns#" xmlns:dc="http://purl.org/dc/elements/1.1/">
 <metadata id="metadata10">
  <rdf:RDF>
   <cc:Work rdf:about="">
    <dc:format>image/svg+xml</dc:format>
    <dc:type rdf:resource="http://purl.org/dc/dcmitype/StillImage"/>
    <dc:title/>
   </cc:Work>
  </rdf:RDF>
 </metadata>
 <path id="path78705" fill="#484043" d="m26 0c-14.397 0-26 11.603-26 26v460c0 14.397 11.603 26 26 26h460c14.397 0 26-11.603 26-26v-460c0-14.397-11.603-26-26-26h-460"/>
 <path id="path78668" opacity=".25" d="m127.71 108.94l-35.96 36.21-35.965 36.21v77.6c0 69.13-1.003 78.5-9.209 85.93-8.872 8.03-8.473 9.15 10.865 30.67 2.86 3.18 5.739 6.21 8.485 8.96l127.48 127.48h292.59c14.4 0 26-11.6 26-26v-331.18l-40.99-40.99h-66.98-66.98l-29.59 29.9-29.59 29.9 61.99 61.99v3.88l-69.78-69.77-30.19-27.95c-16.6-15.37-32.75-27.95-35.89-27.95s-13.11 7.18-22.16 15.95l-16.45 15.94-18.84-18.39-18.84-18.39z"/>
 <path id="path88909" fill="#fff" d="m143.07 383.02-19.557-20.03-17.875 17.454c-9.831 9.6-20.18 17.454-22.997 17.454s-14.155-10.05-25.2-22.339c-19.338-21.521-19.736-22.644-10.864-30.673 8.206-7.426 9.209-16.791 9.209-85.93v-77.6l35.964-36.21 35.964-36.21 18.838 18.394 18.838 18.394 16.451-15.945c9.05-8.77 19.02-15.945 22.16-15.945 3.139 0 19.291 12.576 35.893 27.946l30.19 27.946v80.12c0 75.61 0.615 80.78 10.928 91.76l10.928 11.633-24.445 24.818-24.445 24.818-20.252-19.876-20.252-19.876-19.958 19.958-19.958 19.958zm-7.543-114.53c0-57.07-0.995-64.3-9.967-72.42-9.925-8.982-9.967-8.704-9.967 65.67 0 41.08 1.476 76.17 3.279 77.973 1.804 1.803 6.289 0.781 9.967-2.271 4.954-4.111 6.688-21.992 6.688-68.953m79.74 2.588c0-58.43-0.489-61.27-12.459-72.52l-12.459-11.704v72.13c0 73.953 3.843 90.4 18.32 78.38 4.814-3.996 6.597-21.91 6.597-66.29m129.71 109.52c-20.75-21.14-21.442-22.76-13.496-31.539 7.139-7.889 8.375-21.512 8.375-92.34v-83.08h-30.991-30.991l29.589-29.901 29.589-29.901h66.978 66.978l-26.954 29.338c-14.825 16.14-30.879 29.591-35.675 29.901-7.927 0.512-8.721 7.978-8.721 82.02 0 75.55 0.734 82.12 10.124 90.62 10.08 9.125 10.03 9.261-13.517 33.17-13 13.201-24.941 24-26.529 24s-12.729-10.03-24.759-22.285"/>
</svg>
