<?xml version="1.0" encoding="UTF-8" standalone="no"?>
<svg id="svg2" xmlns:rdf="http://www.w3.org/1999/02/22-rdf-syntax-ns#" xmlns="http://www.w3.org/2000/svg" height="100%" viewBox="0 0 512 512" width="100%" version="1.1" xmlns:cc="http://creativecommons.org/ns#" xmlns:dc="http://purl.org/dc/elements/1.1/">
 <metadata id="metadata10">
  <rdf:RDF>
   <cc:Work rdf:about="">
    <dc:format>image/svg+xml</dc:format>
    <dc:type rdf:resource="http://purl.org/dc/dcmitype/StillImage"/>
    <dc:title/>
   </cc:Work>
  </rdf:RDF>
 </metadata>
 <path id="path50155" fill="#484043" d="m26 0.003c-14.397 0-26 11.603-26 26v460c0 14.397 11.603 26 26 26h460c14.397 0 26-11.603 26-26v-460c0-14.397-11.603-26-26-26h-460"/>
 <path id="path59069" d="m104.56 0.003v512h52.625v-512h-52.625" fill-rule="evenodd" fill="#0078ad"/>
 <path id="path59071" d="m26 0.003c-12.35 0-22.635 8.547-25.313 20.06-0.269 24.339-0.507 48.769-0.688 73.31v294.59c0.26 35.36 0.619 70.5 1.063 105.44 3.177 10.769 13.12 18.594 24.938 18.594h26.625v-512h-26.625" fill-rule="evenodd" fill="#d23638"/>
 <path id="path59073" d="m52.16 0.003v512h52.625v-512h-52.625" fill-rule="evenodd" fill="#68af4c"/>
 <path id="path69324" opacity=".25" d="m258.24 62.162c-8.3 0.086-16.81 0.559-25.51 1.463l186.06 186.06c0.12 2.6 0.19 5.2 0.2 7.8l-78.26-78.26c-20.96-20.96-50.75-34.73-87.52-34.31l-0.01-0.01c-3.53 0.05-7.12 0.24-10.78 0.55l91.63 91.63c1.69 9.92 2.16 20.06 1.44 30.1l-53.05-53.05c-10.95-10.95-26.08-17.73-42.8-17.73-33.43 0-60.52 27.09-60.52 60.52 0 16.72 6.77 31.85 17.73 42.8l67.49 67.49c-7.36 2.67-15.24 4.61-23.64 5.67l60.77 60.77c-21.27 9.21-45.28 15.5-71.88 18.03l60.33 60.32h196.08c14.4 0 26-11.6 26-26v-265.03l-98.86-98.86c-36.52-36.517-89.31-60.624-154.9-59.946v-0.002z" fill-rule="evenodd"/>
 <path id="path59157" fill-rule="evenodd" fill="#fff" d="m258.24 62.163c-8.298 0.086-16.809 0.558-25.509 1.462 264.35 48.794 232.81 365.61-3.143 388.05 346.34-13.629 285.88-392.17 28.652-389.51m-5.04 82.74c-3.533 0.041-7.121 0.239-10.781 0.548 132.61 26.495 116.74 212.41-1.718 227.43 195.01-3.98 159.69-229.68 12.499-227.97m-13.559 51.49c-33.426 0-60.52 27.09-60.52 60.52 0 33.426 27.09 60.52 60.52 60.52 33.426 0 60.52-27.09 60.52-60.52 0-33.426-27.09-60.52-60.52-60.52m-0.036 16.01c21.649 0 34.463 8.939 34.463 23.791 0 10.447-5.771 18.387-16.848 23.17-8.811 3.902-10.343 5.678-10.343 12.1v0.987h-12.572c-0.252-1.51-0.256-2.242-0.256-4.13 0-9.188 1.65-12.215 10.964-19.516 4.154-3.398 6.14-7.172 6.14-12.206 0-8.06-5.288-13.23-13.595-13.23-6.797 0-12.828 3.164-12.828 6.688 0 0.881 0.016 0.861 1.023 3.253 0.378 1.01 0.877 3.273 0.877 4.532 0 5.538-4.411 9.575-10.452 9.575-6.797 0-10.964-4.394-10.964-11.695 0-13.216 14.88-23.316 34.39-23.316m1.498 65.71c6.545 0 11.695 5.166 11.695 11.585s-5.275 11.695-11.695 11.695c-6.419 0-11.585-5.28-11.585-11.951 0-6.168 5.292-11.329 11.585-11.329"/>
</svg>
