<?xml version="1.0" encoding="UTF-8" standalone="no"?>
<svg id="svg2" xmlns:rdf="http://www.w3.org/1999/02/22-rdf-syntax-ns#" xmlns="http://www.w3.org/2000/svg" height="100%" viewBox="0 0 512 512" width="100%" version="1.1" xmlns:cc="http://creativecommons.org/ns#" xmlns:dc="http://purl.org/dc/elements/1.1/">
 <metadata id="metadata10">
  <rdf:RDF>
   <cc:Work rdf:about="">
    <dc:format>image/svg+xml</dc:format>
    <dc:type rdf:resource="http://purl.org/dc/dcmitype/StillImage"/>
    <dc:title/>
   </cc:Work>
  </rdf:RDF>
 </metadata>
 <path id="path110114" fill="#f78914" d="m25.999-0.0065c-14.397 0-26 11.603-26 26v460c0 14.397 11.603 26 26 26h460c14.397 0 26-11.603 26-26v-460c0-14.397-11.603-26-26-26h-460"/>
 <text id="text110116" style="word-spacing:0;letter-spacing:0" font-size="129.23px" y="191.3735" x="54.149002" font-family="&apos;Gentium Book Basic&apos;" line-height="125%">
  <tspan id="tspan110118" y="191.3735" x="54.149002"/>
 </text>
 <text id="text110120" style="text-anchor:middle" transform="scale(4.0128 .24920)" font-size="46.954px" y="418.78177" x="210.57867" font-family="Arial"/>
 <text id="text110122" style="word-spacing:0;letter-spacing:0" font-size="129.23px" y="111.3735" x="635.41901" font-family="&apos;Gentium Book Basic&apos;" line-height="125%">
  <tspan id="tspan110124" y="111.3735" x="635.41901"/>
 </text>
 <text id="text110126" style="text-anchor:middle" transform="scale(4.0128 .24920)" font-size="46.954px" y="97.743416" x="355.42792" font-family="Arial"/>
 <text id="text110128" style="word-spacing:0;letter-spacing:0" font-size="129.23px" y="-69.889503" x="-436.16101" font-family="&apos;Gentium Book Basic&apos;" line-height="125%">
  <tspan id="tspan110130" y="-69.889503" x="-436.16101"/>
 </text>
 <text id="text110132" style="text-anchor:middle" transform="scale(4.0128 .24920)" font-size="46.954px" y="-629.5929" x="88.389297" font-family="Arial"/>
 <text id="text110134" style="word-spacing:0;letter-spacing:0" font-size="129.23px" y="-286.35651" x="661.88904" font-family="&apos;Gentium Book Basic&apos;" line-height="125%">
  <tspan id="tspan110136" y="-286.35651" x="661.88904"/>
 </text>
 <text id="text110138" style="text-anchor:middle" transform="scale(4.0128 .24920)" font-size="46.954px" y="-1498.2584" x="362.01788" font-family="Arial"/>
 <text id="text110140" style="word-spacing:0;letter-spacing:0" font-size="129.23px" y="-366.35651" x="1243.1591" font-family="&apos;Gentium Book Basic&apos;" line-height="125%">
  <tspan id="tspan110142" y="-366.35651" x="1243.1591"/>
 </text>
 <text id="text110144" style="text-anchor:middle" transform="scale(4.0128 .24920)" font-size="46.954px" y="-1819.2867" x="506.86716" font-family="Arial"/>
 <text id="text110146" style="word-spacing:0;letter-spacing:0" font-size="129.23px" y="-838.75647" x="854.039" font-family="&apos;Gentium Book Basic&apos;" line-height="125%">
  <tspan id="tspan110148" y="-838.75647" x="854.039"/>
 </text>
 <text id="text110150" style="text-anchor:middle" transform="scale(4.0128 .24920)" font-size="46.954px" y="-3714.917" x="409.89764" font-family="Arial"/>
 <text id="text110152" style="word-spacing:0;letter-spacing:0" font-size="129.23px" y="-918.76648" x="1435.2991" font-family="&apos;Gentium Book Basic&apos;" line-height="125%">
  <tspan id="tspan110154" y="-918.76648" x="1435.2991"/>
 </text>
 <text id="text110156" style="text-anchor:middle" transform="scale(4.0128 .24920)" font-size="46.954px" y="-4035.9553" x="554.74689" font-family="Arial"/>
 <text id="text110158" style="word-spacing:0;letter-spacing:0" font-size="208.33px" y="495.95349" x="-397.50101" font-family="&apos;Gentium Book Basic&apos;" line-height="125%">
  <tspan id="tspan110160" y="495.95349" x="-397.50101"/>
 </text>
 <path id="path110164" opacity=".25" d="m25.998-0.0058594c-0.481 0-0.959 0.015424-1.434 0.041015-0.806 0.043476-1.602 0.12546-2.386 0.24023-0.114 0.01663-0.227 0.03465-0.34 0.05273-0.796 0.12715-1.58 0.28519-2.35 0.48243-0.555 0.14239-1.102 0.30895-1.642 0.48635-0.268 0.088-0.537 0.1731-0.801 0.2695-0.001 0.0003-0.001 0.0017-0.002 0.002-0.242 0.0882-0.479 0.1861-0.717 0.2812-0.748 0.2986-1.478 0.6302-2.189 0.9942-0.183 0.0932-0.367 0.1818-0.547 0.2792-0.001 0.0005-0.001 0.0016-0.002 0.002-0.737 0.3995-1.451 0.8324-2.143 1.2988-0.691 0.4665-1.358 0.965-1.9997 1.4942-0.0007 0.0005-0.0012 0.0013-0.0019 0.0019-0.3201 0.264-0.6346 0.5356-0.9414 0.8145-0.3076 0.2794-0.6086 0.5675-0.9024 0.8613-0.2934 0.2935-0.5802 0.5932-0.8594 0.9004-0.0006 0.0007-0.0013 0.0013-0.0019 0.0019-0.8376 0.9221-1.6094 1.905-2.3086 2.941-0.0843 0.125-0.162 0.255-0.2442 0.381-0.1452 0.224-0.2931 0.446-0.4316 0.674-0.0003 0.001 0.0003 0.002 0 0.002-0.2164 0.357-0.4255 0.72-0.625 1.088-0.5992 1.105-1.1202 2.259-1.5566 3.455-0.291 0.797-0.5447 1.612-0.75785 2.443-0.00015 0.001 0.00016 0.002 0 0.002-0.1064 0.416-0.20284 0.835-0.28906 1.258-0.00013 0.001 0.00013 0.002 0 0.002-0.17251 0.847-0.30414 1.709-0.39258 2.584-0.00006 0.001 0.00007 0.001 0 0.002-0.00306 0.03-0.00485 0.061-0.00781 0.092-0.082411 0.846-0.12695 1.704-0.12695 2.572l107.61 107.61v0.01l-107.61-107.62-0.0019531 131.63 0.044922 0.05c-0.014311 0.03-0.028561 0.07-0.042969 0.11l-0.0019531-0.01v58.38c7.733 48.46 31.071 95.16 65.621 129.71l166.13 166.13h254.25c14.4 0 26-11.6 26-26v-150.56l-23.42-23.42 23.42 23.42v-24l-7.39-7.39 7.39 7.38v-96.59l-214.84-214.84-271.16 0.0041406z"/>
 <path id="path110232" fill="#fff" d="m25.999-0.0065c-14.397 0-26 11.603-26 26v131.63h0.063c-0.02 0.052-0.042 0.104-0.063 0.156v58.38c16.42 102.89 103.19 197.86 218.25 185.41 71.21-7.709 128.14-75.43 91.78-133.22-11.552-18.36-39.588-19.957-52.781-11.156 63.39-1.789 32.442 73.75-23.25 85.28-76.09 15.747-134.51-57.776-139.78-126.19-2.176-28.25 2.172-54.691 11.531-78.72 0.013-0.034 0.049-0.059 0.063-0.094 1.224-2.262 2.211-4.679 2.969-7.188 31.656-71.831 108.66-120.75 188.38-130.28h-271.16m288.31 116.5c-2.775 0.018-5.59 0.119-8.375 0.25-3.829 0.179-7.762 0.548-11.656 0.969-71.21 7.709-128.14 75.42-91.78 133.22 11.552 18.36 39.588 19.957 52.781 11.156-63.39 1.789-32.442-73.75 23.25-85.28 76.09-15.747 134.51 57.776 139.78 126.19 8.01 103.92-72.22 183.19-166.03 209h233.72c14.397 0 26-11.603 26-26v-186.16c-16.491-94.79-92.39-182-194.91-183.31l-0.031-0.031c-0.911-0.012-1.825-0.006-2.75 0"/>
</svg>
