<?xml version="1.0" encoding="UTF-8" standalone="no"?>
<!-- Created with Inkscape (http://www.inkscape.org/) -->
<svg id="svg2" xmlns:rdf="http://www.w3.org/1999/02/22-rdf-syntax-ns#" xmlns="http://www.w3.org/2000/svg" height="100%" width="100%" version="1.1" xmlns:cc="http://creativecommons.org/ns#" viewBox="0 0 512 512" xmlns:dc="http://purl.org/dc/elements/1.1/">
 <metadata id="metadata66">
  <rdf:RDF>
   <cc:Work rdf:about="">
    <dc:format>image/svg+xml</dc:format>
    <dc:type rdf:resource="http://purl.org/dc/dcmitype/StillImage"/>
   </cc:Work>
  </rdf:RDF>
 </metadata>
 <rect id="rect4" rx="25.988" height="512" width="512" y=".003" x="-0.004" fill="#49a026"/>
 <path id="path6" fill="#fff" d="m25.996 0.003c-14.397 0-26 11.603-26 26v173.53c5.213-0.462 10.211-0.248 14.531 0.656l-1.813 3.594 16 14.438c0.073-27.546 10.752-30.446 25.75-50.5l10.469-19.344c11.639-12.996 29.727-21.844 45.34-27.688l19.563-12.344c-6.334-11.131-22.997-7.941-33.688-7.219 19.225-11.11 45.36-5.108 58.53-25.22-14.365-10.613-14.363-38.29-37.25-27l3.531-10.813-19.5-9.06-14.21 30.155-19.531 23.906-1.75-12.594c-7.501-3.539-28.15-9.754-28.563-19.844-0.438-10.966 32.924-27.533 41-34.19l-3.563 9 13.75-1.313c2-1.282 15.638-20.315 25.16-24.16h-87.75m93.25 0c1.659 1.051 2.887 3.385 3.469 7.438 19.24 7.404 21.44 15.875 40.844 3.625l-12.4-5.438c-0.23-2.108-0.66-3.983-1.25-5.625h-30.656m72.59 0c-1.934 4.866-7.258 9.03-7.06 14.656 0.344 9.902 9.827 21.999 14.281 30.594l26.69-29.563c12-6.495 29.95-8.286 42.53-15.688h-76.44m194.19 0-13.375 18.688-16.875 14.281c-2.721 6.562 1.597 16.49 2.938 23.09l17.75-9c2.552 8.945 9.486 11.258 16 16.219 10.522-20.265 1.44-39.656 26.594-50.47l-15.969 19.875 5.344-3.656 1.781 10.813 1.75-14.406c4.687 16.251-0.221 38.584-17.75 44.719l-17.75-1.469v-10.813c-10.09 2.139-9.722 7.249-7.06 16.219-6.849-1.976-10.922-1.669-15.969 3.563-5.42-5.656-9.821-9.944-10.625-17.969-3.445-3.484-5.02-5.861-5.375-10.813l-12.375-1.813 5.281 28.844c-4.734-9.02-9.625-11.235-19.5-9.06l5.344 21.625 7.094-1.75-5.344-1.844 7.125-12.625 3.5 19.844 16-3.625c-4.48 4.34-8.05 5.396-14.219 5.406l1.813 5.406h-8.875l12.406 21.625c-29.07 0.244-29.403 15.336-28.375 39.625 5.675 0.415 8.441 1.27 12.406 5.406 23.48-12.56 28.878-35.881 56.75-43.22 4.523 14.28 18.511 13.421 14.219 30.656 13.696-2.838 17.531-14.564 8.875-25.25 11.668 7.06 14.997 21.528 23.03 32.406 5.657-7.541 3.497-16.17 12.469-21.625v5.406c15.03 13.544 25.414 16.6 44.38 23.438-6.517 9.393-14.385 18.583-26.625 17.813-14.987-0.942-34.12-15.841-44.37 2l-28.563-23c-15.837-6.781-31.392-0.369-47.719-2.219l-7.125 3.594 3.531 1.813c-32.51 14.849-50.558 53.964-53.938 86.47l-6.188 21.625c3.457 21.11 21.1 42.947 35.906 57.31 10.418 10.113 17.902-9.65 27.813 0.344 13.12-5.04 32.912-13.818 44.938 0.25 7.902 9.244-0.366 16.893 2.375 26.781 4.743 17.11 16.09 37.15 16.06 55.844l-4.438 45c2.52 17.786 9.662 33.762 14.469 50.625h60.31c0.926-1.216 1.808-2.461 2.625-3.75l5.156-16.03 9-11.156-3.406-17.688c5.078-12.374 25.626-13.73 28.719-27.25 4.212-18.406-6.781-40.19-0.219-59.37 1.194-3.489 2.627-6.886 4.25-10.188v-340.57c0-14.397-11.603-26-26-26h-31.5v1.469c-0.323-0.239-0.645-0.481-0.969-0.719-2.231-0.222-4.523-0.471-6.844-0.75h-60.66m-386.03 246.81v0.563c0.108-0.114 0.201-0.233 0.313-0.344-0.107-0.074-0.206-0.148-0.313-0.219m0 23.22v35.31l11.03 10.313 23.03 3.438c-8.227 18.845-24.875 49.21-21.844 70.25 1.764 12.236 14.09 29.667 21.16 39.625 9.878 13.91 28.528 22.15 33.5 39.656l0.813 28.844 3.625 14.531h79.72l6.156-21.656 25.281-16.531c10.338-15.678 2.819-28.734 6.688-44.844l17.03-48.625c-19.229-7.29-46.809-16.25-60.37-32.438l-3.5 1.844-3.594-16.219-21.281-10.813-3.531 3.594-5.344-25.22-28.375-2.313-21.344-11.781c-9.17-1.32-21.311 13.92-24.767 21.29l-12.469-1.781 3.594-3.625-10.656-7.219 1.781 7.219c-7.653-8.03-8.99-18.17-7.125-28.844l-9.188-4" fill-opacity="0.437"/>
 <text id="text8" style="word-spacing:0;letter-spacing:0" font-size="129.23px" line-height="125%" y="156" x="111.6" font-family="Gentium Book Basic">
  <tspan id="tspan10" y="156" x="111.6"/>
 </text>
 <text id="text12" style="text-anchor:middle" transform="scale(4.0128 .2492)" font-size="46.954px" y="276.85999" x="224.89" font-family="Arial"/>
 <text id="text14" style="word-spacing:0;letter-spacing:0" font-size="129.23px" line-height="125%" y="76" x="692.87" font-family="Gentium Book Basic">
  <tspan id="tspan16" y="76" x="692.87"/>
 </text>
 <text id="text18" style="text-anchor:middle" transform="scale(4.0128 .2492)" font-size="46.954px" y="-44.169998" x="369.73999" font-family="Arial"/>
 <text id="text20" style="word-spacing:0;letter-spacing:0" font-size="129.23px" line-height="125%" y="-105.26" x="-378.70999" font-family="Gentium Book Basic">
  <tspan id="tspan22" y="-105.26" x="-378.70999"/>
 </text>
 <text id="text24" style="text-anchor:middle" transform="scale(4.0128 .2492)" font-size="46.954px" y="-771.51001" x="102.7" font-family="Arial"/>
 <text id="text26" style="word-spacing:0;letter-spacing:0" font-size="129.23px" line-height="125%" y="-321.73001" x="719.34003" font-family="Gentium Book Basic">
  <tspan id="tspan28" y="-321.73001" x="719.34003"/>
 </text>
 <text id="text30" style="text-anchor:middle" transform="scale(4.0128 .2492)" font-size="46.954px" y="-1640.1801" x="376.34" font-family="Arial"/>
 <text id="text32" style="word-spacing:0;letter-spacing:0" font-size="129.23px" line-height="125%" y="-401.73999" x="1300.61" font-family="Gentium Book Basic">
  <tspan id="tspan34" y="-401.73999" x="1300.61"/>
 </text>
 <text id="text36" style="text-anchor:middle" transform="scale(4.0128 .2492)" font-size="46.954px" y="-1961.22" x="521.19" font-family="Arial"/>
 <text id="text38" style="word-spacing:0;letter-spacing:0" font-size="129.23px" line-height="125%" y="-874.14001" x="911.48999" font-family="Gentium Book Basic">
  <tspan id="tspan40" y="-874.14001" x="911.48999"/>
 </text>
 <text id="text42" style="text-anchor:middle" transform="scale(4.0128 .2492)" font-size="46.954px" y="-3856.8601" x="424.22" font-family="Arial"/>
 <text id="text44" style="word-spacing:0;letter-spacing:0" font-size="129.23px" line-height="125%" y="-954.14001" x="1492.75" font-family="Gentium Book Basic">
  <tspan id="tspan46" y="-954.14001" x="1492.75"/>
 </text>
 <text id="text48" style="text-anchor:middle" transform="scale(4.0128 .2492)" font-size="46.954px" y="-4177.8901" x="569.07001" font-family="Arial"/>
 <text id="text50" style="word-spacing:0;letter-spacing:0" font-size="208.33px" line-height="125%" y="460.57999" x="-340.04999" font-family="Gentium Book Basic">
  <tspan id="tspan52" y="460.57999" x="-340.04999"/>
 </text>
 <path id="path54" d="m252.88 49.951c-0.86 0.53-5.888 19.475-11.404 43.17-5.692 24.455-11.11 45.44-12.08 46.603-0.208 0.252-0.655 0.558-1.198 0.885-43.979 9.879-78.66 44.21-89.04 87.999-0.017 0.07-0.037 0.138-0.052 0.208-1.853 4.539-3.329 5.299-7.55 6.405-3.366 0.881-23.02 5.48-43.639 10.206-20.62 4.725-38.06 9.101-38.74 9.738-0.683 0.637 17.687 5.539 40.823 10.882 23.14 5.345 43.606 10.621 45.46 11.764 1.025 0.632 2.269 2.416 3.489 4.739 10.214 44.532 45.535 79.47 90.29 89.09 5.587 3.684 6.345 9.211 10.727 27.701 3.366 14.178 8.15 34.781 10.674 45.77 3.406 14.823 4.975 19.12 5.988 16.662 0.75-1.823 5.495-21.328 10.571-43.32 5.075-21.994 9.852-41.4 10.571-43.11 0.602-1.436 3.812-3.349 9.113-5.624 38.59-11.05 69.11-41.18 80.66-79.56 0.455-1.513 0.855-3.044 1.25-4.582-0.397 1.545-0.793 3.064-1.25 4.582 1.623-5.02 3.866-9.451 5.155-9.946 1.335-0.513 22.04-5.475 45.978-11.04 23.941-5.564 43.789-10.356 44.1-10.674 0.781-0.773-5.742-2.466-48.894-12.445-20.16-4.662-38.07-9.03-39.781-9.738-1.188-0.487-2.711-2.743-4.479-6.457-0.012-0.023-0.042-0.03-0.052-0.052-10.391-45.953-47.48-81.75-94.14-90.18-0.415-0.477-0.718-0.986-0.938-1.51-0.825-1.976-5.777-22.338-10.987-45.26-5.21-22.911-9.962-42.21-10.571-42.906-0.018-0.022-0.025-0.017-0.052 0m1.353 87.74c2.039 0 4.079 0.05 6.092 0.157-2.02-0.102-4.051-0.157-6.092-0.157-1.64 0-3.271 0.038-4.895 0.105 1.626-0.068 3.252-0.105 4.895-0.105m-7.133 0.26c-1.661 0.098-3.304 0.198-4.947 0.365-1.465 0.148-2.926 0.318-4.374 0.522 1.453-0.205 2.904-0.368 4.374-0.522 1.641-0.17 3.286-0.263 4.947-0.365m7.133 31.399c47.853 0 86.64 38.792 86.64 86.64 0 47.853-38.792 86.64-86.64 86.64-47.853 0-86.64-38.792-86.64-86.64 0-47.853 38.792-86.64 86.64-86.64m-117.74 75.03c-0.148 1.523-0.275 3.043-0.365 4.582 0.093-1.543 0.212-3.056 0.365-4.582m235.46 0.157c0.15 1.508 0.273 3.01 0.365 4.531-0.088-1.523-0.22-3.02-0.365-4.531m-235.87 5.883c-0.085 1.846-0.157 3.704-0.157 5.572 0 1.745 0.082 3.481 0.157 5.207-0.077-1.72-0.157-3.467-0.157-5.207 0-1.865 0.068-3.727 0.157-5.572m236.34 0.573c0.072 1.653 0.105 3.329 0.105 4.999 0-1.683-0.035-3.332-0.105-4.999m-236.29 11.82c0.098 1.733 0.245 3.442 0.417 5.155-0.177-1.72-0.317-3.414-0.417-5.155m236.19 0.157c-0.1 1.708-0.245 3.416-0.417 5.104-0.143 1.406-0.33 2.826-0.522 4.217 0.193-1.398 0.377-2.804 0.522-4.217 0.172-1.695 0.317-3.387 0.417-5.104m-1.458 12.757c-0.177 1.051-0.37 2.083-0.573 3.124 0.203-1.035 0.397-2.079 0.573-3.124m-128.72 97.94c1.886 0.192 3.766 0.367 5.675 0.468-1.908-0.103-3.792-0.277-5.675-0.468m5.988 0.468c2.02 0.102 4.051 0.157 6.092 0.157 1.938 0 3.866-0.063 5.78-0.157-1.918 0.093-3.841 0.157-5.78 0.157-2.038 0-4.079-0.053-6.092-0.157" fill="#fff"/>
 <path id="path56" d="m453.44 41c-102.38 105.89-228.46 178.56-299.62 307.97-19.884 30.783-68.48 93.2-97.34 122.06 21.788 21.788 24.13 24.11 41 40.969h388.53c14.397 0 26-11.603 26-26v-385.78c-19.08-19.458-38.26-38.92-58.56-59.221" fill-opacity="0.235"/>
 <path id="path58" d="m224.78 227.59c62.38-50.37-0.162-0.057 62.25-50.2 166.26-135.92 0.73 0.147 166.41-136.38-148.03 209.45-103.25 147.3-148.68 210.75-12.12 16.954-22.966 30.825-24.11 30.825-56.05-54.59-0.173-0.202-55.857-54.986" fill="#d04742"/>
 <path id="path60" d="m282.57 281.41c-61.701 51.19 0.162 0.055-61.58 51.03-164.44 138.1-0.73-0.14-164.59 138.56 145.25-211.38 101.29-148.66 145.88-212.7 11.892-17.11 22.556-31.13 23.699-31.14 56.769 53.836 0.177 0.2 56.58 54.24" fill="#fff"/>
</svg>
