<svg xmlns="http://www.w3.org/2000/svg" xmlns:svg="http://www.w3.org/2000/svg" id="svg2" width="100%" height="100%" version="1.1" viewBox="0 0 512 512"><metadata id="metadata10"/><path id="path144335" d="M 26,0 C 11.603,0 0,11.603 0,26 l 0,460 c 0,14.397 11.603,26 26,26 l 460,0 c 14.397,0 26,-11.603 26,-26 L 512,26 C 512,11.603 500.397,0 486,0 L 26,0" style="fill:#d23638"/><path style="opacity:.25" id="path144385" d="M 425.45703 80.097656 L 425.45898 80.099609 L 86.550781 80.099609 L 200.58984 194.13867 L 200.58984 194.15039 L 86.539062 80.099609 C 78.110062 80.099609 71.316406 86.894266 71.316406 95.322266 L 71.320312 95.326172 L 71.320312 341.86914 L 86.550781 357.09961 L 86.541016 357.09961 L 86.539062 357.09766 L 86.537109 357.09766 L 71.320312 341.88086 C 71.320312 346.06586 72.995844 349.8487 75.714844 352.5957 L 127.28906 404.16992 L 102.78906 404.16992 C 73.413064 404.16992 54.024906 404.35469 41.003906 404.67969 L 49.724609 413.40039 L 49.720703 413.40039 L 41 404.67969 L 41 413.39648 L 41.003906 413.40039 L 41 413.40039 L 139.59961 512 L 486 512 C 500.397 512 512 500.397 512 486 L 512 160.32031 L 436.16016 84.480469 L 436.1582 84.478516 C 433.41137 81.767657 429.63504 80.097656 425.45703 80.097656 z"/><path id="path144437" d="m 86.54,80.1 c -8.429,0 -15.224,6.795 -15.224,15.223 l 0,246.55 c 0,8.429 6.795,15.224 15.224,15.224 l 338.91,0 c 8.429,0 15.224,-6.795 15.224,-15.224 l 0,-246.55 c 0,-8.429 -6.795,-15.223 -15.224,-15.223 l -338.91,0 m 114.05,64.64 120.04,73.864 -120.04,73.864 0,-147.73 m 61.53,240.98 c -11.169,0 -20.486,7.916 -22.623,18.455 l -136.71,0 c -29.376,0 -48.766,0.185 -61.787,0.51 l 0,8.717 198.5,0 c 2.137,10.539 11.453,18.498 22.623,18.498 11.169,0 20.486,-7.959 22.623,-18.498 l 186.25,0 0,-9.228 -186.25,0 c -2.137,-10.539 -11.453,-18.455 -22.623,-18.455" style="fill:#fff"/></svg>