<svg xmlns="http://www.w3.org/2000/svg" xmlns:svg="http://www.w3.org/2000/svg" id="svg2" width="100%" height="100%" version="1.1" viewBox="0 0 512 512"><metadata id="metadata68"/><g id="g3389" transform="translate(425.46479,-382.19718)"><path id="path10" d="m -399.46879,382.19718 c -14.397,0 -26,11.603 -26,26 l 0,460 c 0,14.397 11.603,26 26,26 l 460.000001,0 c 14.397,0 26,-11.603 26,-26 l 0,-460 c 0,-14.397 -11.6,-26 -26,-26 l -460.000001,0" style="fill:#23689b"/><path id="path12" d="m -112.08879,423.16618 c -7.096,0.027 -14.209,1.888 -20.844,5.719 l -70.59,40.75 0.031,0.031 -92.41,0 c -23.352,0 -42.09,18.807 -42.09,42.16 l 0,17.563 -0.063,-0.063 -25.281,14.781 c -20.22,11.675 -27.11,37.38 -15.438,57.59 l 40.719,70.59 0.063,0.063 0,92.31 c 0,11.676 4.677,22.21 12.281,29.813 l 99.72,99.72 286.530001,0 c 14.397,0 26,-11.603 26,-26 l 0,-286.47 -99.75,-99.75 c -7.62,-7.62 -18.17,-12.313 -29.844,-12.313 l -4.938,0 -34.06,-34.06 c -7.319,-7.319 -17.01,-11.614 -27.000001,-12.313 -1.012,-0.071 -2.02,-0.129 -3.03,-0.125" style="opacity:.25;fill-rule:evenodd"/><g id="g60" transform="translate(-425.46879,382.19718)" style="fill-rule:evenodd"><path id="path62" d="m 129.55,87.45 c -23.352,0 -42.09,18.818 -42.09,42.17 l 0,252.86 c 0,23.352 18.745,42.09 42.09,42.09 l 252.86,0 c 23.352,0 42.17,-18.745 42.17,-42.09 l 0,-252.86 c 0,-23.352 -18.818,-42.17 -42.17,-42.17 l -252.86,0 m 38.11,44.969 202.37,123.63 -202.37,123.63 0,-247.25" style="fill:#fff"/><path id="path64" d="m 316.42,41.08 c -8.092,-0.566 -16.3,1.242 -23.882,5.62 l -70.59,40.741 142.94,0 -14.75,-25.288 c -7.3,-12.638 -20.24,-20.13 -33.72,-21.07 m -229,106.06 -25.288,14.752 C 41.91,173.57 35,199.275 46.676,219.485 l 40.741,70.59 0,-142.94 m 337.16,74.81 0,142.94 25.288,-14.752 c 20.22,-11.675 27.13,-37.38 15.454,-57.59 l -40.741,-70.59 m -277.47,202.65 14.752,25.288 c 11.675,20.22 37.38,27.13 57.59,15.454 l 70.59,-40.741 -142.94,0" style="opacity:.5;fill:#0a3859"/></g></g></svg>