<svg xmlns="http://www.w3.org/2000/svg" xmlns:svg="http://www.w3.org/2000/svg" id="svg2" width="100%" height="100%" version="1.1" viewBox="0 0 512 512"><metadata id="metadata10"/><path id="path178208" d="M 26,0 C 11.603,0 0,11.603 0,26 l 0,460 c 0,14.397 11.603,26 26,26 l 460,0 c 14.397,0 26,-11.603 26,-26 L 512,26 C 512,11.603 500.397,0 486,0 L 26,0" style="fill:#5133ab"/><path style="opacity:.25" id="path178258" d="M 41 60.630859 L 41 451.35938 L 41.009766 451.36914 L 41 451.36914 L 101.63086 512 L 486 512 C 500.397 512 512 500.397 512 486 L 512 101.63086 L 471 60.630859 L 41 60.630859 z"/><path id="path178418" d="m 41,60.63 0,390.73 430,0 0,-390.73 -430,0 m 33.998,61.702 362,0 0,298.18 -362,0 0,-298.18 m 83.52,16.554 0,54.725 54.725,0 0,-54.725 -54.725,0 m 70.46,0 0,54.725 54.725,0 0,-54.725 -54.725,0 m 70.53,0 0,54.725 54.725,0 0,-54.725 -54.725,0 m 70.46,0 0,54.725 54.725,0 0,-54.725 -54.725,0 m -281.9,70.46 0,54.725 54.725,0 0,-54.725 -54.725,0 m 70.46,0 0,54.725 54.725,0 0,-54.725 -54.725,0 m 70.46,0 0,54.725 54.725,0 0,-54.725 -54.725,0 m 70.53,0 0,54.725 54.725,0 0,-54.725 -54.725,0 m 70.46,0 0,54.725 54.725,0 0,-54.725 -54.725,0 m -281.9,70.53 0,54.725 54.725,0 0,-54.725 -54.725,0 m 70.46,0 0,54.725 54.725,0 0,-54.725 -54.725,0 m 70.46,0 0,54.725 54.725,0 0,-54.725 -54.725,0 m 70.53,0 0,54.725 54.725,0 0,-54.725 -54.725,0 m 70.46,0 0,54.725 54.725,0 0,-54.725 -54.725,0 m -281.9,70.46 0,54.725 54.725,0 0,-54.725 -54.725,0 m 70.46,0 0,54.725 54.725,0 0,-54.725 -54.725,0 m 70.46,0 0,54.725 54.725,0 0,-54.725 -54.725,0 m 70.53,0 0,54.725 54.725,0 0,-54.725 -54.725,0" style="fill:#fff"/></svg>