<?xml version="1.0" encoding="UTF-8" standalone="no"?>
<!-- Created with Inkscape (http://www.inkscape.org/) -->
<svg id="svg2" xmlns:rdf="http://www.w3.org/1999/02/22-rdf-syntax-ns#" xmlns="http://www.w3.org/2000/svg" height="100%" width="100%" version="1.1" xmlns:cc="http://creativecommons.org/ns#" viewBox="0 0 512 512" xmlns:dc="http://purl.org/dc/elements/1.1/">
 <metadata id="metadata159">
  <rdf:RDF>
   <cc:Work rdf:about="">
    <dc:format>image/svg+xml</dc:format>
    <dc:type rdf:resource="http://purl.org/dc/dcmitype/StillImage"/>
   </cc:Work>
  </rdf:RDF>
 </metadata>
 <defs id="defs4">
  <clipPath id="0">
   <path id="path7" d="m26 0c-14.397 0-26 11.603-26 26v460c0 14.397 11.603 26 26 26h460c14.397 0 26-11.603 26-26v-460c0-14.397-11.6-26-26-26h-460"/>
  </clipPath>
 </defs>
 <path id="path9" d="m26 0c-14.397 0-26 11.603-26 26v460c0 14.397 11.603 26 26 26h460c14.397 0 26-11.603 26-26v-460c0-14.397-11.6-26-26-26h-460" fill="#0078ad"/>
 <text id="text11" style="word-spacing:0;letter-spacing:0" font-size="129.23px" line-height="125%" y="-508.25" x="-295.69" font-family="Gentium Book Basic">
  <tspan id="tspan13" y="-508.25" x="-295.69"/>
 </text>
 <text id="text15" style="text-anchor:middle" transform="scale(4.0128 .2492)" font-size="46.954px" y="-2388.6599" x="123.39" font-family="Arial"/>
 <text id="text17" style="word-spacing:0;letter-spacing:0" font-size="129.23px" line-height="125%" y="-588.25" x="285.57999" font-family="Gentium Book Basic">
  <tspan id="tspan19" y="-588.25" x="285.57999"/>
 </text>
 <text id="text21" style="text-anchor:middle" transform="scale(4.0128 .2492)" font-size="46.954px" y="-2709.6899" x="268.23999" font-family="Arial"/>
 <text id="text23" style="word-spacing:0;letter-spacing:0" font-size="129.23px" line-height="125%" y="-769.51001" x="-786" font-family="Gentium Book Basic">
  <tspan id="tspan25" y="-769.51001" x="-786"/>
 </text>
 <text id="text27" style="text-anchor:middle" transform="scale(4.0128 .2492)" font-size="46.954px" y="-3437.05" x="1.205" font-family="Arial"/>
 <text id="text29" style="word-spacing:0;letter-spacing:0" font-size="129.23px" line-height="125%" y="-985.97998" x="312.04999" font-family="Gentium Book Basic">
  <tspan id="tspan31" y="-985.97998" x="312.04999"/>
 </text>
 <text id="text33" style="text-anchor:middle" transform="scale(4.0128 .2492)" font-size="46.954px" y="-4305.71" x="274.84" font-family="Arial"/>
 <text id="text35" style="word-spacing:0;letter-spacing:0" font-size="129.23px" line-height="125%" y="-1065.99" x="893.32001" font-family="Gentium Book Basic">
  <tspan id="tspan37" y="-1065.99" x="893.32001"/>
 </text>
 <text id="text39" style="text-anchor:middle" transform="scale(4.0128 .2492)" font-size="46.954px" y="-4626.75" x="419.69" font-family="Arial"/>
 <text id="text41" style="word-spacing:0;letter-spacing:0" font-size="129.23px" line-height="125%" y="-1538.39" x="504.20001" font-family="Gentium Book Basic">
  <tspan id="tspan43" y="-1538.39" x="504.20001"/>
 </text>
 <text id="text45" style="text-anchor:middle" transform="scale(4.0128 .2492)" font-size="46.954px" y="-6522.3999" x="322.72" font-family="Arial"/>
 <text id="text47" style="word-spacing:0;letter-spacing:0" font-size="129.23px" line-height="125%" y="-1618.39" x="1085.46" font-family="Gentium Book Basic">
  <tspan id="tspan49" y="-1618.39" x="1085.46"/>
 </text>
 <text id="text51" style="text-anchor:middle" transform="scale(4.0128 .2492)" font-size="46.954px" y="-6843.4302" x="467.57001" font-family="Arial"/>
 <g id="g53" style="word-spacing:0;letter-spacing:0" transform="translate(-1025.3 -739.61)" font-size="208.33px" font-family="Gentium Book Basic" line-height="125%">
  <text id="text55" y="535.94" x="277.98999">
   <tspan id="tspan57" y="535.94" x="277.98999"/>
  </text>
  <text id="text59" y="375.07001" x="-1649.1801">
   <tspan id="tspan61" y="375.07001" x="-1649.1801"/>
  </text>
 </g>
 <text id="text63" style="text-anchor:middle" transform="scale(4.0128 .2492)" font-size="75.7px" y="-2025.6899" x="-348.76001" font-family="Arial"/>
 <g id="g65" opacity=".25" clip-path="url(#0)">
  <path id="path67" d="m427.23 97.43c-3.02-0.058-5.736 0.519-7.563 1.211l353.55 353.55c1.827-0.693 4.548-1.269 7.563-1.211z"/>
  <path id="path69" d="m419.67 98.64c-31.832 10.583-66.964 28.613-101.54 52.02l353.55 353.55c34.576-23.409 69.71-41.44 101.54-52.02z"/>
  <path id="path71" d="m318.13 150.66-1.797 1.211 353.55 353.55 1.797-1.211z"/>
  <path id="path73" d="m316.33 151.87c-21.1 14.259-32.749 22.14-43.46 36.938l353.55 353.55c10.708-14.802 22.358-22.679 43.46-36.938z"/>
  <path id="path75" d="m272.88 188.81c-2.487 3.44-4.959 7.12-7.104 10.447l353.55 353.55c2.145-3.327 4.617-7.01 7.104-10.447z"/>
  <path id="path77" d="m265.77 199.26c-3.82 5.936-9.904 13.478-13.58 16.84l353.55 353.55c3.676-3.362 9.76-10.904 13.58-16.84z"/>
  <path id="path79" d="m252.19 216.1c-1.482 1.356-2.956 2.741-4.304 3.929l353.55 353.55c1.348-1.187 2.823-2.573 4.304-3.928z"/>
  <path id="path81" d="m247.89 220.03c-1.935 1.712-6.2 4.152-8.65 4.973l353.55 353.55c2.45-0.821 6.715-3.261 8.65-4.973z"/>
  <path id="path83" d="m239.24 225c-1.705 0.567-3.642 1.193-5.557 1.797l353.55 353.55c1.915-0.604 3.852-1.23 5.557-1.797z"/>
  <path id="path85" d="m233.68 226.8c-4.737 1.502-14.302 3-21.353 3.343l353.55 353.55c7.05-0.341 16.615-1.841 21.353-3.343z"/>
  <path id="path87" d="m212.33 230.14c-3.953 0.194-8.397 0.485-12.62 0.92l353.55 353.55c4.223-0.435 8.667-0.726 12.62-0.92z"/>
  <path id="path89" d="m199.71 231.06c-18.17 1.872-30.794 7.996-53.699 19.14l353.55 353.55c22.905-11.142 35.526-17.266 53.699-19.14z"/>
  <path id="path91" d="m146.01 250.2-1.923 0.961 353.55 353.55 1.923-0.961z"/>
  <path id="path93" d="m144.09 251.16c-37.573 18.247-70.831 39.718-95.73 61.842l353.55 353.55c24.895-22.12 58.15-43.596 95.73-61.842z"/>
  <path id="path95" d="m48.36 313c-4.152 3.399-10.617 12.568-5.433 22.905l353.55 353.55c-5.184-10.337 1.281-19.506 5.433-22.905z"/>
  <path id="path97" d="m42.927 335.91c1.052 2.111 3.331 5.834 5.349 9.151l353.55 353.55c-2.02-3.317-4.296-7.04-5.349-9.151z"/>
  <path id="path99" d="m48.28 345.06c1.316 2.182 2.515 4.171 3.134 5.307l353.55 353.55c-0.619-1.137-1.819-3.125-3.134-5.307z"/>
  <path id="path101" d="m51.41 350.37c1.197 2.191 2.421 3.808 3.639 5.02l353.55 353.55c-1.217-1.217-2.442-2.834-3.639-5.02z"/>
  <path id="path103" d="m55.05 355.39c2.58 2.58 5.128 3.369 7.31 4.04l353.55 353.55c-2.181-0.673-4.729-1.462-7.31-4.04z"/>
  <path id="path105" d="m62.36 359.43c1.031 0.324 1.892 0.583 2.716 1.044l353.55 353.55c-0.824-0.461-1.685-0.721-2.716-1.044z"/>
  <path id="path107" d="m65.07 360.48c1.239 0.692 2.451 1.642 3.627 2.819l353.55 353.55c-1.176-1.176-2.389-2.126-3.627-2.819z"/>
  <path id="path109" d="m68.7 363.3c0.569 0.569 1.129 1.19 1.68 1.861l353.55 353.55c-0.551-0.671-1.111-1.293-1.68-1.861z"/>
  <path id="path111" d="m70.38 365.16c12.729 15.516 21.733 26.326 29.19 33.785l353.55 353.55c-7.459-7.459-16.463-18.269-29.19-33.785z"/>
  <path id="path113" d="m99.57 398.94c14.04 14.04 22.599 16.203 40.21 15.522l353.55 353.55c-17.615 0.681-26.18-1.486-40.21-15.522z"/>
  <path id="path115" d="m139.79 414.46c12.917-0.497 35.26-8.74 55.658-20.517l353.55 353.55c-20.4 11.78-42.74 20.02-55.66 20.52z"/>
  <path id="path117" d="m195.44 393.95c15.903-9.181 37.667-24.551 51.03-45.543l353.55 353.55c-13.358 20.992-35.12 36.36-51.03 45.543z"/>
  <path id="path119" d="m246.47 348.41c19.445-30.592 0.884-86.7-0.084-89.51l353.55 353.55c0.968 2.801 19.529 58.913 0.084 89.51z"/>
  <path id="path121" d="m246.39 258.9c-0.12-0.274-2.728-6.699 9.987-14.04l353.55 353.55c-12.715 7.341-10.11 13.766-9.987 14.04z"/>
  <path id="path123" d="m256.37 244.86v-0.042l353.55 353.55v0.042z"/>
  <path id="path125" d="m256.37 244.82 0.753-0.419 353.55 353.55-0.753 0.419z"/>
  <path id="path127" d="m257.13 244.4c10.332-5.968 14.984-2.794 16.394-1.385l353.55 353.55c-1.409-1.409-6.06-4.582-16.394 1.385z"/>
  <path id="path129" d="m273.52 243.01c0.236 0.236 0.381 0.422 0.446 0.508l353.55 353.55c-0.066-0.086-0.211-0.272-0.446-0.508z"/>
  <path id="path131" d="m273.97 243.52c0.36 0.407 2.483 2.793 5.957 6.267l353.55 353.55c-3.474-3.474-5.597-5.86-5.957-6.267z"/>
  <path id="path133" d="m279.92 249.79c12.574 12.574 42.842 39.4 71.22 38.19l353.55 353.55c-28.379 1.204-58.648-25.619-71.22-38.19z"/>
  <path id="path135" d="m351.14 287.98c24.861-1.056 49.03-12.213 64.935-21.394l353.55 353.55c-15.903 9.181-40.07 20.338-64.935 21.394z"/>
  <path id="path137" d="m416.08 266.59c20.398-11.776 38.735-27.05 45.636-37.983l353.55 353.55c-6.901 10.93-25.24 26.21-45.636 37.983z"/>
  <path id="path139" d="m461.71 228.61c14.39-22.838 12.318-30.618-8.06-84.73l353.55 353.55c20.381 54.12 22.453 61.896 8.06 84.73z"/>
  <path id="path141" d="m453.65 143.87c-0.935-2.486-1.361-4.826-1.337-6.937l353.55 353.55c-0.024 2.111 0.402 4.451 1.337 6.937z"/>
  <path id="path143" d="m452.31 136.93c0.012-0.944 0.225-1.829 0.46-2.883l353.55 353.55c-0.235 1.054-0.448 1.939-0.46 2.883z"/>
  <path id="path145" d="m452.77 134.05c0.743-3.277 1.667-7.396-2.381-14.04l353.55 353.55c4.049 6.644 3.125 10.763 2.381 14.04z"/>
  <path id="path147" d="m450.39 120.01c-0.679-1.111-1.829-3.121-3.05-5.349l353.55 353.55c1.221 2.228 2.371 4.237 3.05 5.349z"/>
  <path id="path149" d="m447.34 114.66c-1.864-3.406-3.97-7.263-5.266-9.234l353.55 353.55c1.296 1.971 3.402 5.829 5.266 9.234z"/>
  <path id="path151" d="m442.08 105.43c-0.735-1.116-1.533-2.089-2.378-2.935l353.55 353.55c0.845 0.845 1.644 1.818 2.378 2.935z"/>
  <path id="path153" d="m439.7 102.49c-3.724-3.724-8.358-4.968-12.45-5.05l353.55 353.55c4.092 0.079 8.726 1.322 12.45 5.05z"/>
 </g>
 <path id="path155" d="m427.23 97.43c-3.02-0.058-5.736 0.519-7.563 1.211-31.832 10.583-66.964 28.613-101.54 52.02l-1.797 1.211c-21.1 14.259-32.749 22.14-43.46 36.938-2.487 3.44-4.959 7.12-7.104 10.447-3.82 5.936-9.904 13.478-13.58 16.84-1.482 1.356-2.956 2.741-4.304 3.929-1.935 1.712-6.2 4.152-8.65 4.973-1.705 0.567-3.642 1.193-5.557 1.797-4.737 1.502-14.302 3-21.353 3.343-3.953 0.194-8.397 0.485-12.62 0.92-18.17 1.872-30.794 7.996-53.699 19.14l-1.923 0.961c-37.573 18.247-70.831 39.718-95.73 61.842-4.152 3.399-10.617 12.568-5.433 22.905 1.052 2.111 3.331 5.834 5.349 9.151 1.316 2.182 2.515 4.171 3.134 5.307 3.733 6.835 7.738 8.08 10.948 9.07 1.031 0.324 1.892 0.583 2.716 1.044 1.837 1.027 3.617 2.621 5.307 4.68 36.68 44.712 42.43 50.35 69.41 49.31 12.917-0.497 35.26-8.74 55.658-20.517 15.903-9.181 37.667-24.551 51.03-45.543 19.445-30.592 0.884-86.7-0.084-89.51-0.12-0.274-2.728-6.699 9.987-14.04v-0.042l0.753-0.419c12.06-6.966 16.383-1.476 16.84-0.877 1.661 1.88 40.958 45.996 77.18 44.46 24.861-1.056 49.03-12.213 64.935-21.394 20.398-11.776 38.735-27.05 45.636-37.983 14.39-22.838 12.318-30.618-8.06-84.73-0.935-2.486-1.361-4.826-1.337-6.937 0.012-0.944 0.225-1.829 0.46-2.883 0.743-3.277 1.667-7.396-2.381-14.04-0.679-1.111-1.829-3.121-3.05-5.349-1.864-3.406-3.97-7.263-5.266-9.234-3.971-6.03-9.808-7.885-14.829-7.981" fill="#fff"/>
</svg>
