<?xml version="1.0" encoding="UTF-8" standalone="no"?>
<svg
   xmlns:dc="http://purl.org/dc/elements/1.1/"
   xmlns:cc="http://creativecommons.org/ns#"
   xmlns:rdf="http://www.w3.org/1999/02/22-rdf-syntax-ns#"
   xmlns:svg="http://www.w3.org/2000/svg"
   xmlns="http://www.w3.org/2000/svg"
   xmlns:sodipodi="http://sodipodi.sourceforge.net/DTD/sodipodi-0.dtd"
   xmlns:inkscape="http://www.inkscape.org/namespaces/inkscape"
   viewBox="0 0 512 512"
   id="svg2"
   version="1.1"
   inkscape:version="0.91+devel r13804 custom"
   width="100%"
   height="100%"
   sodipodi:docname="onboard.svg">
  <sodipodi:namedview
     inkscape:current-layer="svg2"
     inkscape:window-maximized="1"
     inkscape:window-y="-3"
     inkscape:window-x="-2"
     inkscape:cy="111.2532"
     inkscape:cx="359.44507"
     inkscape:zoom="0.4609375"
     inkscape:guide-bbox="true"
     showguides="true"
     showgrid="false"
     id="namedview6"
     inkscape:window-height="709"
     inkscape:window-width="1366"
     inkscape:pageshadow="2"
     inkscape:pageopacity="0"
     guidetolerance="10"
     gridtolerance="10"
     objecttolerance="10"
     borderopacity="1"
     bordercolor="#666666"
     pagecolor="#ffffff">
    <sodipodi:guide
       id="guide2989"
       position="260.08346,471.00503"
       orientation="0,1" />
    <sodipodi:guide
       id="guide2991"
       position="267.59322,40.983051"
       orientation="0,1" />
    <sodipodi:guide
       id="guide2993"
       position="40.940284,84.756935"
       orientation="1,0" />
    <sodipodi:guide
       id="guide2995"
       position="471.05085,254.98305"
       orientation="1,0" />
  </sodipodi:namedview>
  <metadata
     id="metadata10">
    <rdf:RDF>
      <cc:Work
         rdf:about="">
        <dc:format>image/svg+xml</dc:format>
        <dc:type
           rdf:resource="http://purl.org/dc/dcmitype/StillImage" />
        <dc:title></dc:title>
      </cc:Work>
    </rdf:RDF>
  </metadata>
  <defs
     id="defs8" />
  <path
     inkscape:connector-curvature="0"
     d="M 26,0 C 11.603,0 0,11.603 0,26 l 0,460 c 0,14.397 11.603,26 26,26 l 460,0 c 14.397,0 26,-11.603 26,-26 L 512,26 C 512,11.603 500.397,0 486,0 L 26,0"
     style="fill:#ffffff"
     id="path339809" />
  <text
     sodipodi:linespacing="125%"
     y="100.78"
     x="-262.70999"
     line-height="125%"
     style="font-size:129.22999573px;line-height:125%;font-family:'Gentium Book Basic';letter-spacing:0;word-spacing:0"
     id="text339811">
    <tspan
       y="100.78"
       x="-262.70999"
       id="tspan339813" />
  </text>
  <text
     transform="scale(4.0128205,0.24920128)"
     y="55.239719"
     x="131.60933"
     style="font-size:46.95399857px;font-family:Arial;text-anchor:middle"
     id="text339815" />
  <text
     sodipodi:linespacing="125%"
     y="20.775999"
     x="318.56"
     line-height="125%"
     style="font-size:129.22999573px;line-height:125%;font-family:'Gentium Book Basic';letter-spacing:0;word-spacing:0"
     id="text339817">
    <tspan
       y="20.775999"
       x="318.56"
       id="tspan339819" />
  </text>
  <text
     transform="scale(4.0128205,0.24920128)"
     y="-265.78864"
     x="276.45859"
     style="font-size:46.95399857px;font-family:Arial;text-anchor:middle"
     id="text339821" />
  <text
     sodipodi:linespacing="125%"
     y="-160.48"
     x="-753.02002"
     line-height="125%"
     style="font-size:129.22999573px;line-height:125%;font-family:'Gentium Book Basic';letter-spacing:0;word-spacing:0"
     id="text339823">
    <tspan
       y="-160.48"
       x="-753.02002"
       id="tspan339825" />
  </text>
  <text
     transform="scale(4.0128205,0.24920128)"
     y="-993.14496"
     x="9.4239511"
     style="font-size:46.95399857px;font-family:Arial;text-anchor:middle"
     id="text339827" />
  <text
     sodipodi:linespacing="125%"
     y="-376.95001"
     x="345.03"
     line-height="125%"
     style="font-size:129.22999573px;line-height:125%;font-family:'Gentium Book Basic';letter-spacing:0;word-spacing:0"
     id="text339829">
    <tspan
       y="-376.95001"
       x="345.03"
       id="tspan339831" />
  </text>
  <text
     transform="scale(4.0128205,0.24920128)"
     y="-1861.8005"
     x="283.05856"
     style="font-size:46.95399857px;font-family:Arial;text-anchor:middle"
     id="text339833" />
  <text
     sodipodi:linespacing="125%"
     y="-456.95999"
     x="926.29999"
     line-height="125%"
     style="font-size:129.22999573px;line-height:125%;font-family:'Gentium Book Basic';letter-spacing:0;word-spacing:0"
     id="text339835">
    <tspan
       y="-456.95999"
       x="926.29999"
       id="tspan339837" />
  </text>
  <text
     transform="scale(4.0128205,0.24920128)"
     y="-2182.8389"
     x="427.90781"
     style="font-size:46.95399857px;font-family:Arial;text-anchor:middle"
     id="text339839" />
  <text
     sodipodi:linespacing="125%"
     y="-929.35999"
     x="537.17999"
     line-height="125%"
     style="font-size:129.22999573px;line-height:125%;font-family:'Gentium Book Basic';letter-spacing:0;word-spacing:0"
     id="text339841">
    <tspan
       y="-929.35999"
       x="537.17999"
       id="tspan339843" />
  </text>
  <text
     transform="scale(4.0128205,0.24920128)"
     y="-4078.479"
     x="330.93829"
     style="font-size:46.95399857px;font-family:Arial;text-anchor:middle"
     id="text339845" />
  <text
     sodipodi:linespacing="125%"
     y="-1009.36"
     x="1118.4399"
     line-height="125%"
     style="font-size:129.22999573px;line-height:125%;font-family:'Gentium Book Basic';letter-spacing:0;word-spacing:0"
     id="text339847">
    <tspan
       y="-1009.36"
       x="1118.4399"
       id="tspan339849" />
  </text>
  <text
     transform="scale(4.0128205,0.24920128)"
     y="-4399.5073"
     x="475.78757"
     style="font-size:46.95399857px;font-family:Arial;text-anchor:middle"
     id="text339851" />
  <text
     sodipodi:linespacing="125%"
     y="405.35999"
     x="-714.35999"
     line-height="125%"
     style="font-size:208.33000183px;line-height:125%;font-family:'Gentium Book Basic';letter-spacing:0;word-spacing:0"
     id="text339853">
    <tspan
       y="405.35999"
       x="-714.35999"
       id="tspan339855" />
  </text>
  <path
     inkscape:connector-curvature="0"
     d="m 256,256 256,0 0,256 -256,0 z"
     style="fill:#2d88c8"
     id="path339857" />
  <path
     inkscape:connector-curvature="0"
     d="m 0,0 256,0 0,256 -256,0 z"
     style="fill:#fdcf41"
     id="path339859" />
  <path
     d="M 128.33984 43 C 103.71484 43 84.781344 50.415 71.527344 65.25 L 71.529297 65.251953 C 58.351951 80.011888 51.748047 100.83637 51.748047 127.7207 L 51.75 127.72266 C 51.750322 154.8317 58.371323 175.84036 71.625 190.75 L 71.736328 190.86133 C 72.47951 191.68489 73.235698 192.48862 74.013672 193.26562 L 74.15625 193.4082 C 74.108419 193.36067 74.057468 193.31723 74.009766 193.26953 L 323.7207 442.98047 L 323.7207 469 L 366.7207 512 L 486 512 C 500.397 512 512 500.397 512 486 L 512 393.16406 L 181.47852 62.644531 C 181.52137 62.687341 181.56272 62.732434 181.60547 62.775391 L 181.48047 62.650391 C 168.38124 49.551164 150.67688 43.004679 128.34375 43.003906 L 128.33984 43 z "
     id="path339863"
     style="opacity:0.25" />
  <path
     inkscape:connector-curvature="0"
     d="m 128.34,43 c -24.625,0 -43.559,7.415 -56.813,22.25 -13.178,14.76 -19.781,35.585 -19.781,62.47 0,27.11 6.621,48.12 19.875,63.03 13.329,14.835 32.18,22.25 56.5,22.25 24.02,0 42.671,-7.583 56,-22.719 13.404,-15.14 20.12,-35.912 20.13,-62.34 0,-26.582 -6.671,-47.36 -20,-62.34 -13.329,-15.06 -31.96,-22.594 -55.906,-22.594 m 0,18.313 c 17.696,0 31.11,5.592 40.22,16.813 9.112,11.145 13.656,27.748 13.656,49.813 0,22.14 -4.594,38.861 -13.781,50.16 -9.187,11.296 -22.616,16.938 -40.31,16.938 -17.772,0 -31.3,-5.71 -40.563,-17.16 -9.262,-11.446 -13.906,-28.1 -13.906,-49.938 0,-21.763 4.644,-38.3 13.906,-49.594 9.262,-11.371 22.859,-17.03 40.781,-17.03 m 195.38,237.69 0,170 61.03,0 c 19.05,0 33.739,-4.132 44.06,-12.406 10.325,-8.271 15.469,-20.01 15.469,-35.19 0,-11.542 -3.137,-21.15 -9.438,-28.813 -6.225,-7.743 -15,-12.821 -26.313,-15.25 9.413,-1.518 16.547,-5.351 21.406,-11.5 4.857,-6.147 7.281,-14.413 7.281,-24.813 0,-13.435 -4.731,-23.806 -14.219,-31.09 -9.489,-7.288 -23,-10.938 -40.531,-10.938 l -58.75,0 m 23,18.906 34.03,0 c 11.234,0 19.597,2.125 25.06,6.375 5.542,4.252 8.313,10.641 8.313,19.219 0,8.654 -2.771,15.12 -8.313,19.375 -5.466,4.176 -13.828,6.25 -25.06,6.25 l -34.03,0 0,-51.22 m 0,69.906 36.875,0 c 12.374,0 21.548,2.54 27.469,7.625 5.997,5.01 8.969,12.841 8.969,23.469 0,10.551 -2.972,18.401 -8.969,23.563 -5.921,5.085 -15.1,7.625 -27.469,7.625 l -36.875,0 0,-62.28"
     style="fill:#ffffff"
     id="path339961" />
</svg>
