<?xml version="1.0" encoding="UTF-8" standalone="no"?>
<!-- Created with Inkscape (http://www.inkscape.org/) -->
<svg id="svg2" xmlns:rdf="http://www.w3.org/1999/02/22-rdf-syntax-ns#" xmlns="http://www.w3.org/2000/svg" height="100%" width="100%" version="1.1" xmlns:cc="http://creativecommons.org/ns#" viewBox="0 0 512 512" xmlns:dc="http://purl.org/dc/elements/1.1/">
 <metadata id="metadata319">
  <rdf:RDF>
   <cc:Work rdf:about="">
    <dc:format>image/svg+xml</dc:format>
    <dc:type rdf:resource="http://purl.org/dc/dcmitype/StillImage"/>
   </cc:Work>
  </rdf:RDF>
 </metadata>
 <path id="path21" d="m26 0c-14.397 0-26 11.603-26 26v460c0 14.397 11.603 26 26 26h460c14.397 0 26-11.603 26-26v-460c0-14.397-11.6-26-26-26h-460" fill="#f0c81c"/>
 <path id="path23" d="m26 0c-14.397 0-26 11.603-26 26v460c0 14.397 11.603 26 26 26h173c15.38-73.45 9.77-145.6-13.12-231.06-30.5-113.84-41.37-191.27-12.03-280.94h-147.84" fill="#1f467c"/>
 <text id="text25" style="word-spacing:0;letter-spacing:0" font-size="129.23px" line-height="125%" y="254.17999" x="-161.46001" font-family="Gentium Book Basic">
  <tspan id="tspan27" y="254.17999" x="-161.46001"/>
 </text>
 <text id="text29" style="text-anchor:middle" transform="scale(4.0128 .2492)" font-size="46.954px" y="670.83002" x="156.84" font-family="Arial"/>
 <text id="text31" style="word-spacing:0;letter-spacing:0" font-size="129.23px" line-height="125%" y="174.17999" x="419.81" font-family="Gentium Book Basic">
  <tspan id="tspan33" y="174.17999" x="419.81"/>
 </text>
 <text id="text35" style="text-anchor:middle" transform="scale(4.0128 .2492)" font-size="46.954px" y="349.79999" x="301.69" font-family="Arial"/>
 <text id="text37" style="word-spacing:0;letter-spacing:0" font-size="129.23px" line-height="125%" y="-7.0780001" x="-651.77002" font-family="Gentium Book Basic">
  <tspan id="tspan39" y="-7.0780001" x="-651.77002"/>
 </text>
 <text id="text41" style="text-anchor:middle" transform="scale(4.0128 .2492)" font-size="46.954px" y="-377.54999" x="34.654999" font-family="Arial"/>
 <text id="text43" style="word-spacing:0;letter-spacing:0" font-size="129.23px" line-height="125%" y="-223.55" x="446.28" font-family="Gentium Book Basic">
  <tspan id="tspan45" y="-223.55" x="446.28"/>
 </text>
 <text id="text47" style="text-anchor:middle" transform="scale(4.0128 .2492)" font-size="46.954px" y="-1246.22" x="308.29001" font-family="Arial"/>
 <text id="text49" style="word-spacing:0;letter-spacing:0" font-size="129.23px" line-height="125%" y="-303.56" x="1027.55" font-family="Gentium Book Basic">
  <tspan id="tspan51" y="-303.56" x="1027.55"/>
 </text>
 <text id="text53" style="text-anchor:middle" transform="scale(4.0128 .2492)" font-size="46.954px" y="-1567.26" x="453.14001" font-family="Arial"/>
 <text id="text55" style="word-spacing:0;letter-spacing:0" font-size="129.23px" line-height="125%" y="-775.96002" x="638.42999" font-family="Gentium Book Basic">
  <tspan id="tspan57" y="-775.96002" x="638.42999"/>
 </text>
 <text id="text59" style="text-anchor:middle" transform="scale(4.0128 .2492)" font-size="46.954px" y="-3462.9099" x="356.17001" font-family="Arial"/>
 <text id="text61" style="word-spacing:0;letter-spacing:0" font-size="129.23px" line-height="125%" y="-855.96002" x="1219.6899" font-family="Gentium Book Basic">
  <tspan id="tspan63" y="-855.96002" x="1219.6899"/>
 </text>
 <text id="text65" style="text-anchor:middle" transform="scale(4.0128 .2492)" font-size="46.954px" y="-3783.9399" x="501.01999" font-family="Arial"/>
 <g id="g67" style="word-spacing:0;letter-spacing:0" font-family="Gentium Book Basic" line-height="125%">
  <text id="text69" y="558.76001" x="-613.10999" font-size="208.33px">
   <tspan id="tspan71" y="558.76001" x="-613.10999"/>
  </text>
  <text id="text73" y="230.42" x="1473.85" font-size="129.23px">
   <tspan id="tspan75" y="230.42" x="1473.85"/>
  </text>
 </g>
 <text id="text77" style="text-anchor:middle" transform="scale(4.0128 .2492)" font-size="46.954px" y="575.47998" x="564.37" font-family="Arial"/>
 <text id="text79" style="word-spacing:0;letter-spacing:0" font-size="129.23px" line-height="125%" y="150.42" x="2055.1201" font-family="Gentium Book Basic">
  <tspan id="tspan81" y="150.42" x="2055.1201"/>
 </text>
 <text id="text83" style="text-anchor:middle" transform="scale(4.0128 .2492)" font-size="46.954px" y="254.45" x="709.21997" font-family="Arial"/>
 <text id="text85" style="word-spacing:0;letter-spacing:0" font-size="129.23px" line-height="125%" y="-30.84" x="983.53998" font-family="Gentium Book Basic">
  <tspan id="tspan87" y="-30.84" x="983.53998"/>
 </text>
 <text id="text89" style="text-anchor:middle" transform="scale(4.0128 .2492)" font-size="46.954px" y="-472.91" x="442.17999" font-family="Arial"/>
 <text id="text91" style="word-spacing:0;letter-spacing:0" font-size="129.23px" line-height="125%" y="-247.31" x="2081.5901" font-family="Gentium Book Basic">
  <tspan id="tspan93" y="-247.31" x="2081.5901"/>
 </text>
 <text id="text95" style="text-anchor:middle" transform="scale(4.0128 .2492)" font-size="46.954px" y="-1341.5699" x="715.82001" font-family="Arial"/>
 <text id="text97" style="word-spacing:0;letter-spacing:0" font-size="129.23px" line-height="125%" y="-327.32001" x="2662.8601" font-family="Gentium Book Basic">
  <tspan id="tspan99" y="-327.32001" x="2662.8601"/>
 </text>
 <text id="text101" style="text-anchor:middle" transform="scale(4.0128 .2492)" font-size="46.954px" y="-1662.61" x="860.65997" font-family="Arial"/>
 <text id="text103" style="word-spacing:0;letter-spacing:0" font-size="129.23px" line-height="125%" y="-799.71997" x="2273.74" font-family="Gentium Book Basic">
  <tspan id="tspan105" y="-799.71997" x="2273.74"/>
 </text>
 <text id="text107" style="text-anchor:middle" transform="scale(4.0128 .2492)" font-size="46.954px" y="-3558.26" x="763.69" font-family="Arial"/>
 <text id="text109" style="word-spacing:0;letter-spacing:0" font-size="129.23px" line-height="125%" y="-879.71997" x="2855" font-family="Gentium Book Basic">
  <tspan id="tspan111" y="-879.71997" x="2855"/>
 </text>
 <text id="text113" style="text-anchor:middle" transform="scale(4.0128 .2492)" font-size="46.954px" y="-3879.29" x="908.53998" font-family="Arial"/>
 <g id="g115" style="word-spacing:0;letter-spacing:0" font-family="Gentium Book Basic" line-height="125%">
  <text id="text117" y="535" x="1022.2" font-size="208.33px">
   <tspan id="tspan119" y="535" x="1022.2"/>
  </text>
  <text id="text121" y="1.6569999" x="861.95001" font-size="129.23px">
   <tspan id="tspan123" y="1.6569999" x="861.95001"/>
  </text>
 </g>
 <text id="text125" style="text-anchor:middle" transform="scale(4.0128 .2492)" font-size="46.954px" y="-342.51001" x="411.88" font-family="Arial"/>
 <text id="text127" style="word-spacing:0;letter-spacing:0" font-size="129.23px" line-height="125%" y="-78.339996" x="1443.22" font-family="Gentium Book Basic">
  <tspan id="tspan129" y="-78.339996" x="1443.22"/>
 </text>
 <text id="text131" style="text-anchor:middle" transform="scale(4.0128 .2492)" font-size="46.954px" y="-663.53998" x="556.72998" font-family="Arial"/>
 <text id="text133" style="word-spacing:0;letter-spacing:0" font-size="129.23px" line-height="125%" y="-259.60001" x="371.64001" font-family="Gentium Book Basic">
  <tspan id="tspan135" y="-259.60001" x="371.64001"/>
 </text>
 <text id="text137" style="text-anchor:middle" transform="scale(4.0128 .2492)" font-size="46.954px" y="-1390.89" x="289.69" font-family="Arial"/>
 <text id="text139" style="word-spacing:0;letter-spacing:0" font-size="129.23px" line-height="125%" y="-476.07001" x="1469.6899" font-family="Gentium Book Basic">
  <tspan id="tspan141" y="-476.07001" x="1469.6899"/>
 </text>
 <text id="text143" style="text-anchor:middle" transform="scale(4.0128 .2492)" font-size="46.954px" y="-2259.5601" x="563.33002" font-family="Arial"/>
 <text id="text145" style="word-spacing:0;letter-spacing:0" font-size="129.23px" line-height="125%" y="-556.08002" x="2050.96" font-family="Gentium Book Basic">
  <tspan id="tspan147" y="-556.08002" x="2050.96"/>
 </text>
 <text id="text149" style="text-anchor:middle" transform="scale(4.0128 .2492)" font-size="46.954px" y="-2580.6001" x="708.17999" font-family="Arial"/>
 <text id="text151" style="word-spacing:0;letter-spacing:0" font-size="129.23px" line-height="125%" y="-1028.48" x="1661.84" font-family="Gentium Book Basic">
  <tspan id="tspan153" y="-1028.48" x="1661.84"/>
 </text>
 <text id="text155" style="text-anchor:middle" transform="scale(4.0128 .2492)" font-size="46.954px" y="-4476.25" x="611.21002" font-family="Arial"/>
 <text id="text157" style="word-spacing:0;letter-spacing:0" font-size="129.23px" line-height="125%" y="-1108.48" x="2243.1001" font-family="Gentium Book Basic">
  <tspan id="tspan159" y="-1108.48" x="2243.1001"/>
 </text>
 <text id="text161" style="text-anchor:middle" transform="scale(4.0128 .2492)" font-size="46.954px" y="-4797.2798" x="756.06" font-family="Arial"/>
 <g id="g163" style="word-spacing:0;letter-spacing:0" font-family="Gentium Book Basic" line-height="125%">
  <text id="text165" y="306.23999" x="410.29999" font-size="208.33px">
   <tspan id="tspan167" y="306.23999" x="410.29999"/>
  </text>
  <text id="text169" y="51.686001" x="1578.16" font-size="129.23px">
   <tspan id="tspan171" y="51.686001" x="1578.16"/>
  </text>
 </g>
 <text id="text173" style="text-anchor:middle" transform="scale(4.0128 .2492)" font-size="46.954px" y="-141.75" x="590.35999" font-family="Arial"/>
 <text id="text175" style="word-spacing:0;letter-spacing:0" font-size="129.23px" line-height="125%" y="-28.313999" x="2159.4299" font-family="Gentium Book Basic">
  <tspan id="tspan177" y="-28.313999" x="2159.4299"/>
 </text>
 <text id="text179" style="text-anchor:middle" transform="scale(4.0128 .2492)" font-size="46.954px" y="-462.78" x="735.21002" font-family="Arial"/>
 <text id="text181" style="word-spacing:0;letter-spacing:0" font-size="129.23px" line-height="125%" y="-209.57001" x="1087.85" font-family="Gentium Book Basic">
  <tspan id="tspan183" y="-209.57001" x="1087.85"/>
 </text>
 <text id="text185" style="text-anchor:middle" transform="scale(4.0128 .2492)" font-size="46.954px" y="-1190.14" x="468.17001" font-family="Arial"/>
 <text id="text187" style="word-spacing:0;letter-spacing:0" font-size="129.23px" line-height="125%" y="-426.04001" x="2185.8999" font-family="Gentium Book Basic">
  <tspan id="tspan189" y="-426.04001" x="2185.8999"/>
 </text>
 <text id="text191" style="text-anchor:middle" transform="scale(4.0128 .2492)" font-size="46.954px" y="-2058.8" x="741.81" font-family="Arial"/>
 <text id="text193" style="word-spacing:0;letter-spacing:0" font-size="129.23px" line-height="125%" y="-506.04999" x="2767.1699" font-family="Gentium Book Basic">
  <tspan id="tspan195" y="-506.04999" x="2767.1699"/>
 </text>
 <text id="text197" style="text-anchor:middle" transform="scale(4.0128 .2492)" font-size="46.954px" y="-2379.8401" x="886.65997" font-family="Arial"/>
 <text id="text199" style="word-spacing:0;letter-spacing:0" font-size="129.23px" line-height="125%" y="-978.45001" x="2378.05" font-family="Gentium Book Basic">
  <tspan id="tspan201" y="-978.45001" x="2378.05"/>
 </text>
 <text id="text203" style="text-anchor:middle" transform="scale(4.0128 .2492)" font-size="46.954px" y="-4275.4902" x="789.69" font-family="Arial"/>
 <text id="text205" style="word-spacing:0;letter-spacing:0" font-size="129.23px" line-height="125%" y="-1058.45" x="2959.3101" font-family="Gentium Book Basic">
  <tspan id="tspan207" y="-1058.45" x="2959.3101"/>
 </text>
 <text id="text209" style="text-anchor:middle" transform="scale(4.0128 .2492)" font-size="46.954px" y="-4596.52" x="934.53998" font-family="Arial"/>
 <g id="g211" style="word-spacing:0;letter-spacing:0" font-family="Gentium Book Basic" line-height="125%">
  <text id="text213" y="356.26999" x="1126.51" font-size="208.33px">
   <tspan id="tspan215" y="356.26999" x="1126.51"/>
  </text>
  <text id="text217" y="-177.08" x="966.26001" font-size="129.23px">
   <tspan id="tspan219" y="-177.08" x="966.26001"/>
  </text>
 </g>
 <text id="text221" style="text-anchor:middle" transform="scale(4.0128 .2492)" font-size="46.954px" y="-1059.74" x="437.87" font-family="Arial"/>
 <text id="text223" style="word-spacing:0;letter-spacing:0" font-size="129.23px" line-height="125%" y="-257.07999" x="1547.53" font-family="Gentium Book Basic">
  <tspan id="tspan225" y="-257.07999" x="1547.53"/>
 </text>
 <text id="text227" style="text-anchor:middle" transform="scale(4.0128 .2492)" font-size="46.954px" y="-1380.77" x="582.71997" font-family="Arial"/>
 <text id="text229" style="word-spacing:0;letter-spacing:0" font-size="129.23px" line-height="125%" y="-438.34" x="475.95001" font-family="Gentium Book Basic">
  <tspan id="tspan231" y="-438.34" x="475.95001"/>
 </text>
 <text id="text233" style="text-anchor:middle" transform="scale(4.0128 .2492)" font-size="46.954px" y="-2108.1201" x="315.69" font-family="Arial"/>
 <text id="text235" style="word-spacing:0;letter-spacing:0" font-size="129.23px" line-height="125%" y="-654.81" x="1574" font-family="Gentium Book Basic">
  <tspan id="tspan237" y="-654.81" x="1574"/>
 </text>
 <text id="text239" style="text-anchor:middle" transform="scale(4.0128 .2492)" font-size="46.954px" y="-2976.79" x="589.32001" font-family="Arial"/>
 <text id="text241" style="word-spacing:0;letter-spacing:0" font-size="129.23px" line-height="125%" y="-734.82001" x="2155.27" font-family="Gentium Book Basic">
  <tspan id="tspan243" y="-734.82001" x="2155.27"/>
 </text>
 <text id="text245" style="text-anchor:middle" transform="scale(4.0128 .2492)" font-size="46.954px" y="-3297.8301" x="734.16998" font-family="Arial"/>
 <text id="text247" style="word-spacing:0;letter-spacing:0" font-size="129.23px" line-height="125%" y="-1207.22" x="1766.15" font-family="Gentium Book Basic">
  <tspan id="tspan249" y="-1207.22" x="1766.15"/>
 </text>
 <text id="text251" style="text-anchor:middle" transform="scale(4.0128 .2492)" font-size="46.954px" y="-5193.48" x="637.20001" font-family="Arial"/>
 <text id="text253" style="word-spacing:0;letter-spacing:0" font-size="129.23px" line-height="125%" y="-1287.22" x="2347.4099" font-family="Gentium Book Basic">
  <tspan id="tspan255" y="-1287.22" x="2347.4099"/>
 </text>
 <text id="text257" style="text-anchor:middle" transform="scale(4.0128 .2492)" font-size="46.954px" y="-5514.5098" x="782.04999" font-family="Arial"/>
 <g id="g259" style="word-spacing:0;letter-spacing:0" font-family="Gentium Book Basic" line-height="125%">
  <text id="text261" y="127.5" x="514.60999" font-size="208.33px">
   <tspan id="tspan263" y="127.5" x="514.60999"/>
  </text>
  <text id="text265" y="-147.91" x="868.73999" font-size="129.23px">
   <tspan id="tspan267" y="-147.91" x="868.73999"/>
  </text>
 </g>
 <text id="text269" style="text-anchor:middle" transform="scale(4.0128 .2492)" font-size="46.954px" y="-942.67999" x="413.57001" font-family="Arial"/>
 <text id="text271" style="word-spacing:0;letter-spacing:0" font-size="129.23px" line-height="125%" y="-227.91" x="1450.01" font-family="Gentium Book Basic">
  <tspan id="tspan273" y="-227.91" x="1450.01"/>
 </text>
 <text id="text275" style="text-anchor:middle" transform="scale(4.0128 .2492)" font-size="46.954px" y="-1263.71" x="558.41998" font-family="Arial"/>
 <text id="text277" style="word-spacing:0;letter-spacing:0" font-size="129.23px" line-height="125%" y="-409.17001" x="378.42999" font-family="Gentium Book Basic">
  <tspan id="tspan279" y="-409.17001" x="378.42999"/>
 </text>
 <text id="text281" style="text-anchor:middle" transform="scale(4.0128 .2492)" font-size="46.954px" y="-1991.0699" x="291.38" font-family="Arial"/>
 <text id="text283" style="word-spacing:0;letter-spacing:0" font-size="129.23px" line-height="125%" y="-625.64001" x="1476.48" font-family="Gentium Book Basic">
  <tspan id="tspan285" y="-625.64001" x="1476.48"/>
 </text>
 <text id="text287" style="text-anchor:middle" transform="scale(4.0128 .2492)" font-size="46.954px" y="-2859.73" x="565.02002" font-family="Arial"/>
 <text id="text289" style="word-spacing:0;letter-spacing:0" font-size="129.23px" line-height="125%" y="-705.65002" x="2057.75" font-family="Gentium Book Basic">
  <tspan id="tspan291" y="-705.65002" x="2057.75"/>
 </text>
 <text id="text293" style="text-anchor:middle" transform="scale(4.0128 .2492)" font-size="46.954px" y="-3180.77" x="709.87" font-family="Arial"/>
 <text id="text295" style="word-spacing:0;letter-spacing:0" font-size="129.23px" line-height="125%" y="-1178.05" x="1668.63" font-family="Gentium Book Basic">
  <tspan id="tspan297" y="-1178.05" x="1668.63"/>
 </text>
 <text id="text299" style="text-anchor:middle" transform="scale(4.0128 .2492)" font-size="46.954px" y="-5076.4199" x="612.90002" font-family="Arial"/>
 <text id="text301" style="word-spacing:0;letter-spacing:0" font-size="129.23px" line-height="125%" y="-1258.05" x="2249.8899" font-family="Gentium Book Basic">
  <tspan id="tspan303" y="-1258.05" x="2249.8899"/>
 </text>
 <text id="text305" style="text-anchor:middle" transform="scale(4.0128 .2492)" font-size="46.954px" y="-5397.4502" x="757.75" font-family="Arial"/>
 <text id="text307" style="word-spacing:0;letter-spacing:0" font-size="208.33px" line-height="125%" y="156.67" x="417.09" font-family="Gentium Book Basic">
  <tspan id="tspan309" y="156.67" x="417.09"/>
 </text>
 <g id="g311" style="color:#000000">
  <path id="path313" opacity=".25" d="m255.06 41c-19.843 7.789-16.877 35.704-18.625 53.688-0.591 9.153 1.745 24.87 8.844 31.969l0.75 0.719 11.09 11.125c-34.918 5.165-68.3 20.2-93.22 45.688-7.788 7.312-14.697 15.631-20.563 24.656l-26.469-26.469c-11.886-11.886-28.37-19.319-43.37-26.469-3.973-1.618-8.156-3.01-12.5-3v0.031c-21.79 2.119-15.684 18.1-4.219 29.563l68.22 68.22c-7.715 30.436-4.838 63.18 12.219 90.63 4.964 8.165 10.909 15.597 17.594 22.281l148.38 148.38h182.81c14.397 0 26-11.603 26-26v-279.72l-49.625-49.625c-2.657-2.657-6.605-4.183-10.531-3.75-19.55 4.136-36.27 16.651-51.813 29.09l-137.04-137.02c-2.024-2.024-4.586-3.46-7.938-3.969m-107.94 337.91c-21.07 5.287-36.436 23.16-51.12 38.22-11.425 7.325-10.61 20.921-4.156 27.375l67.5 67.5h124.5l-130.5-130.5c-1.608-1.608-3.772-2.646-6.188-2.594h-0.031"/>
  <path id="path315" d="m255.05 41c-19.843 7.789-16.856 35.709-18.604 53.692-0.919 14.243 5.222 44.4 25.425 33.2 14.937-13.491 10.419-36.712 9.976-54.72-2.111-11.139-2.483-29.994-16.798-32.17m33.546 95.49c-45.729-0.885-92.34 14.611-124.69 47.695-41.626 39.08-57.855 106.98-26.675 157.15 23.06 37.93 66.99 60.22 110.39 63.796 38.38-0.194 75.78-18.1 103.81-43.654 27.01-24.21 37.1-63.54 26.375-97.98-10.399-43.35-53.34-75.7-98.03-72.33-38.635 1.169-79.01 24.767-88.46 64.22-8.096 29.559 12.5 62.696 40.27 73.22 19.352 9.715 47.646-17.466 19.05-26.961-21.738-6.337-35.638-33.531-17.374-51.44 20.03-25.336 61.04-36.06 86.85-13.08 22.689 20.08 37.18 58.21 17.294 85.04-18.287 24.17-44.45 47.52-76.79 46.07-23.662 0.798-50.896 1.6-67.965-17.97-17.947-16.16-36.86-36.12-34.483-62.33-3.621-59.63 47.826-112.21 105.63-118.38 22.406-4.069 44.13 3.389 65.864 7.238 36.17 6.245 22.607-34.97-3.901-35.757-12.05-3.524-24.685-4.504-37.19-4.546m-227.59 16.42c-31.647 3.077-4.472 35.414 12.543 40.654 14.07 9.344 49.29 26.05 51.08-1.746-11.555-17.74-32.474-27.06-51.11-35.935-3.973-1.618-8.169-2.987-12.513-2.974m390.85 0c-21.675 4.586-39.888 19.451-56.855 33.12-21.468 10.703-3.545 41.08 15.471 25.18 19.876-11.743 43.843-22.07 54.57-43.81 2.79-8.256-5.272-15.374-13.196-14.499m-304.7 226c-21.07 5.287-36.436 23.16-51.13 38.22-19.744 12.659-2.951 44.03 16.367 24.944 17.374-14.327 36.531-30.27 43.561-52.38 1.1-5.342-3.238-10.898-8.796-10.778m199.5 15.96c-21.19 10.617 3.521 37.848 11.134 51.4 6.598 18.354 42.722 41.31 40.21 7.07-6.276-21.22-22.325-38.542-38.539-53.01-3.673-2.788-7.968-5.713-12.81-5.46" fill="#fff"/>
 </g>
</svg>
