<?xml version="1.0" encoding="UTF-8" standalone="no"?>
<!-- Created with Inkscape (http://www.inkscape.org/) -->
<svg id="svg2" xmlns:rdf="http://www.w3.org/1999/02/22-rdf-syntax-ns#" xmlns="http://www.w3.org/2000/svg" height="100%" width="100%" version="1.1" xmlns:cc="http://creativecommons.org/ns#" viewBox="0 0 512 512" xmlns:dc="http://purl.org/dc/elements/1.1/">
 <metadata id="metadata511">
  <rdf:RDF>
   <cc:Work rdf:about="">
    <dc:format>image/svg+xml</dc:format>
    <dc:type rdf:resource="http://purl.org/dc/dcmitype/StillImage"/>
   </cc:Work>
  </rdf:RDF>
 </metadata>
 <path id="path23" d="m26 0c-14.397 0-26 11.603-26 26v460c0 14.397 11.603 26 26 26h460c14.397 0 26-11.603 26-26v-460c0-14.397-11.6-26-26-26h-460" fill="#f95"/>
 <path id="path25" d="m26 0c-14.397 0-26 11.603-26 26v460c0 14.397 11.603 26 26 26h173c15.38-73.45 9.77-145.6-13.12-231.06-30.5-113.84-41.37-191.27-12.03-280.94h-147.84" fill="#1f467c"/>
 <text id="text27" style="word-spacing:0;letter-spacing:0" font-size="129.23px" line-height="125%" y="254.17999" x="-161.46001" font-family="Gentium Book Basic">
  <tspan id="tspan29" y="254.17999" x="-161.46001"/>
 </text>
 <text id="text31" style="text-anchor:middle" transform="scale(4.0128 .2492)" font-size="46.954px" y="670.83002" x="156.84" font-family="Arial"/>
 <text id="text33" style="word-spacing:0;letter-spacing:0" font-size="129.23px" line-height="125%" y="174.17999" x="419.81" font-family="Gentium Book Basic">
  <tspan id="tspan35" y="174.17999" x="419.81"/>
 </text>
 <text id="text37" style="text-anchor:middle" transform="scale(4.0128 .2492)" font-size="46.954px" y="349.79999" x="301.69" font-family="Arial"/>
 <text id="text39" style="word-spacing:0;letter-spacing:0" font-size="129.23px" line-height="125%" y="-7.0780001" x="-651.77002" font-family="Gentium Book Basic">
  <tspan id="tspan41" y="-7.0780001" x="-651.77002"/>
 </text>
 <text id="text43" style="text-anchor:middle" transform="scale(4.0128 .2492)" font-size="46.954px" y="-377.54999" x="34.654999" font-family="Arial"/>
 <text id="text45" style="word-spacing:0;letter-spacing:0" font-size="129.23px" line-height="125%" y="-223.55" x="446.28" font-family="Gentium Book Basic">
  <tspan id="tspan47" y="-223.55" x="446.28"/>
 </text>
 <text id="text49" style="text-anchor:middle" transform="scale(4.0128 .2492)" font-size="46.954px" y="-1246.22" x="308.29001" font-family="Arial"/>
 <text id="text51" style="word-spacing:0;letter-spacing:0" font-size="129.23px" line-height="125%" y="-303.56" x="1027.55" font-family="Gentium Book Basic">
  <tspan id="tspan53" y="-303.56" x="1027.55"/>
 </text>
 <text id="text55" style="text-anchor:middle" transform="scale(4.0128 .2492)" font-size="46.954px" y="-1567.26" x="453.14001" font-family="Arial"/>
 <text id="text57" style="word-spacing:0;letter-spacing:0" font-size="129.23px" line-height="125%" y="-775.96002" x="638.42999" font-family="Gentium Book Basic">
  <tspan id="tspan59" y="-775.96002" x="638.42999"/>
 </text>
 <text id="text61" style="text-anchor:middle" transform="scale(4.0128 .2492)" font-size="46.954px" y="-3462.9099" x="356.17001" font-family="Arial"/>
 <text id="text63" style="word-spacing:0;letter-spacing:0" font-size="129.23px" line-height="125%" y="-855.96002" x="1219.6899" font-family="Gentium Book Basic">
  <tspan id="tspan65" y="-855.96002" x="1219.6899"/>
 </text>
 <text id="text67" style="text-anchor:middle" transform="scale(4.0128 .2492)" font-size="46.954px" y="-3783.9399" x="501.01999" font-family="Arial"/>
 <g id="g69" style="word-spacing:0;letter-spacing:0" font-family="Gentium Book Basic" line-height="125%">
  <text id="text71" y="558.76001" x="-613.10999" font-size="208.33px">
   <tspan id="tspan73" y="558.76001" x="-613.10999"/>
  </text>
  <text id="text75" y="230.42" x="1473.85" font-size="129.23px">
   <tspan id="tspan77" y="230.42" x="1473.85"/>
  </text>
 </g>
 <text id="text79" style="text-anchor:middle" transform="scale(4.0128 .2492)" font-size="46.954px" y="575.47998" x="564.37" font-family="Arial"/>
 <text id="text81" style="word-spacing:0;letter-spacing:0" font-size="129.23px" line-height="125%" y="150.42" x="2055.1201" font-family="Gentium Book Basic">
  <tspan id="tspan83" y="150.42" x="2055.1201"/>
 </text>
 <text id="text85" style="text-anchor:middle" transform="scale(4.0128 .2492)" font-size="46.954px" y="254.45" x="709.21997" font-family="Arial"/>
 <text id="text87" style="word-spacing:0;letter-spacing:0" font-size="129.23px" line-height="125%" y="-30.84" x="983.53998" font-family="Gentium Book Basic">
  <tspan id="tspan89" y="-30.84" x="983.53998"/>
 </text>
 <text id="text91" style="text-anchor:middle" transform="scale(4.0128 .2492)" font-size="46.954px" y="-472.91" x="442.17999" font-family="Arial"/>
 <text id="text93" style="word-spacing:0;letter-spacing:0" font-size="129.23px" line-height="125%" y="-247.31" x="2081.5901" font-family="Gentium Book Basic">
  <tspan id="tspan95" y="-247.31" x="2081.5901"/>
 </text>
 <text id="text97" style="text-anchor:middle" transform="scale(4.0128 .2492)" font-size="46.954px" y="-1341.5699" x="715.82001" font-family="Arial"/>
 <text id="text99" style="word-spacing:0;letter-spacing:0" font-size="129.23px" line-height="125%" y="-327.32001" x="2662.8601" font-family="Gentium Book Basic">
  <tspan id="tspan101" y="-327.32001" x="2662.8601"/>
 </text>
 <text id="text103" style="text-anchor:middle" transform="scale(4.0128 .2492)" font-size="46.954px" y="-1662.61" x="860.65997" font-family="Arial"/>
 <text id="text105" style="word-spacing:0;letter-spacing:0" font-size="129.23px" line-height="125%" y="-799.71997" x="2273.74" font-family="Gentium Book Basic">
  <tspan id="tspan107" y="-799.71997" x="2273.74"/>
 </text>
 <text id="text109" style="text-anchor:middle" transform="scale(4.0128 .2492)" font-size="46.954px" y="-3558.26" x="763.69" font-family="Arial"/>
 <text id="text111" style="word-spacing:0;letter-spacing:0" font-size="129.23px" line-height="125%" y="-879.71997" x="2855" font-family="Gentium Book Basic">
  <tspan id="tspan113" y="-879.71997" x="2855"/>
 </text>
 <text id="text115" style="text-anchor:middle" transform="scale(4.0128 .2492)" font-size="46.954px" y="-3879.29" x="908.53998" font-family="Arial"/>
 <g id="g117" style="word-spacing:0;letter-spacing:0" font-family="Gentium Book Basic" line-height="125%">
  <text id="text119" y="535" x="1022.2" font-size="208.33px">
   <tspan id="tspan121" y="535" x="1022.2"/>
  </text>
  <text id="text123" y="1.6569999" x="861.95001" font-size="129.23px">
   <tspan id="tspan125" y="1.6569999" x="861.95001"/>
  </text>
 </g>
 <text id="text127" style="text-anchor:middle" transform="scale(4.0128 .2492)" font-size="46.954px" y="-342.51001" x="411.88" font-family="Arial"/>
 <text id="text129" style="word-spacing:0;letter-spacing:0" font-size="129.23px" line-height="125%" y="-78.339996" x="1443.22" font-family="Gentium Book Basic">
  <tspan id="tspan131" y="-78.339996" x="1443.22"/>
 </text>
 <text id="text133" style="text-anchor:middle" transform="scale(4.0128 .2492)" font-size="46.954px" y="-663.53998" x="556.72998" font-family="Arial"/>
 <text id="text135" style="word-spacing:0;letter-spacing:0" font-size="129.23px" line-height="125%" y="-259.60001" x="371.64001" font-family="Gentium Book Basic">
  <tspan id="tspan137" y="-259.60001" x="371.64001"/>
 </text>
 <text id="text139" style="text-anchor:middle" transform="scale(4.0128 .2492)" font-size="46.954px" y="-1390.89" x="289.69" font-family="Arial"/>
 <text id="text141" style="word-spacing:0;letter-spacing:0" font-size="129.23px" line-height="125%" y="-476.07001" x="1469.6899" font-family="Gentium Book Basic">
  <tspan id="tspan143" y="-476.07001" x="1469.6899"/>
 </text>
 <text id="text145" style="text-anchor:middle" transform="scale(4.0128 .2492)" font-size="46.954px" y="-2259.5601" x="563.33002" font-family="Arial"/>
 <text id="text147" style="word-spacing:0;letter-spacing:0" font-size="129.23px" line-height="125%" y="-556.08002" x="2050.96" font-family="Gentium Book Basic">
  <tspan id="tspan149" y="-556.08002" x="2050.96"/>
 </text>
 <text id="text151" style="text-anchor:middle" transform="scale(4.0128 .2492)" font-size="46.954px" y="-2580.6001" x="708.17999" font-family="Arial"/>
 <text id="text153" style="word-spacing:0;letter-spacing:0" font-size="129.23px" line-height="125%" y="-1028.48" x="1661.84" font-family="Gentium Book Basic">
  <tspan id="tspan155" y="-1028.48" x="1661.84"/>
 </text>
 <text id="text157" style="text-anchor:middle" transform="scale(4.0128 .2492)" font-size="46.954px" y="-4476.25" x="611.21002" font-family="Arial"/>
 <text id="text159" style="word-spacing:0;letter-spacing:0" font-size="129.23px" line-height="125%" y="-1108.48" x="2243.1001" font-family="Gentium Book Basic">
  <tspan id="tspan161" y="-1108.48" x="2243.1001"/>
 </text>
 <text id="text163" style="text-anchor:middle" transform="scale(4.0128 .2492)" font-size="46.954px" y="-4797.2798" x="756.06" font-family="Arial"/>
 <g id="g165" style="word-spacing:0;letter-spacing:0" font-family="Gentium Book Basic" line-height="125%">
  <text id="text167" y="306.23999" x="410.29999" font-size="208.33px">
   <tspan id="tspan169" y="306.23999" x="410.29999"/>
  </text>
  <text id="text171" y="51.686001" x="1578.16" font-size="129.23px">
   <tspan id="tspan173" y="51.686001" x="1578.16"/>
  </text>
 </g>
 <text id="text175" style="text-anchor:middle" transform="scale(4.0128 .2492)" font-size="46.954px" y="-141.75" x="590.35999" font-family="Arial"/>
 <text id="text177" style="word-spacing:0;letter-spacing:0" font-size="129.23px" line-height="125%" y="-28.313999" x="2159.4299" font-family="Gentium Book Basic">
  <tspan id="tspan179" y="-28.313999" x="2159.4299"/>
 </text>
 <text id="text181" style="text-anchor:middle" transform="scale(4.0128 .2492)" font-size="46.954px" y="-462.78" x="735.21002" font-family="Arial"/>
 <text id="text183" style="word-spacing:0;letter-spacing:0" font-size="129.23px" line-height="125%" y="-209.57001" x="1087.85" font-family="Gentium Book Basic">
  <tspan id="tspan185" y="-209.57001" x="1087.85"/>
 </text>
 <text id="text187" style="text-anchor:middle" transform="scale(4.0128 .2492)" font-size="46.954px" y="-1190.14" x="468.17001" font-family="Arial"/>
 <text id="text189" style="word-spacing:0;letter-spacing:0" font-size="129.23px" line-height="125%" y="-426.04001" x="2185.8999" font-family="Gentium Book Basic">
  <tspan id="tspan191" y="-426.04001" x="2185.8999"/>
 </text>
 <text id="text193" style="text-anchor:middle" transform="scale(4.0128 .2492)" font-size="46.954px" y="-2058.8" x="741.81" font-family="Arial"/>
 <text id="text195" style="word-spacing:0;letter-spacing:0" font-size="129.23px" line-height="125%" y="-506.04999" x="2767.1699" font-family="Gentium Book Basic">
  <tspan id="tspan197" y="-506.04999" x="2767.1699"/>
 </text>
 <text id="text199" style="text-anchor:middle" transform="scale(4.0128 .2492)" font-size="46.954px" y="-2379.8401" x="886.65997" font-family="Arial"/>
 <text id="text201" style="word-spacing:0;letter-spacing:0" font-size="129.23px" line-height="125%" y="-978.45001" x="2378.05" font-family="Gentium Book Basic">
  <tspan id="tspan203" y="-978.45001" x="2378.05"/>
 </text>
 <text id="text205" style="text-anchor:middle" transform="scale(4.0128 .2492)" font-size="46.954px" y="-4275.4902" x="789.69" font-family="Arial"/>
 <text id="text207" style="word-spacing:0;letter-spacing:0" font-size="129.23px" line-height="125%" y="-1058.45" x="2959.3101" font-family="Gentium Book Basic">
  <tspan id="tspan209" y="-1058.45" x="2959.3101"/>
 </text>
 <text id="text211" style="text-anchor:middle" transform="scale(4.0128 .2492)" font-size="46.954px" y="-4596.52" x="934.53998" font-family="Arial"/>
 <g id="g213" style="word-spacing:0;letter-spacing:0" font-family="Gentium Book Basic" line-height="125%">
  <text id="text215" y="356.26999" x="1126.51" font-size="208.33px">
   <tspan id="tspan217" y="356.26999" x="1126.51"/>
  </text>
  <text id="text219" y="-177.08" x="966.26001" font-size="129.23px">
   <tspan id="tspan221" y="-177.08" x="966.26001"/>
  </text>
 </g>
 <text id="text223" style="text-anchor:middle" transform="scale(4.0128 .2492)" font-size="46.954px" y="-1059.74" x="437.87" font-family="Arial"/>
 <text id="text225" style="word-spacing:0;letter-spacing:0" font-size="129.23px" line-height="125%" y="-257.07999" x="1547.53" font-family="Gentium Book Basic">
  <tspan id="tspan227" y="-257.07999" x="1547.53"/>
 </text>
 <text id="text229" style="text-anchor:middle" transform="scale(4.0128 .2492)" font-size="46.954px" y="-1380.77" x="582.71997" font-family="Arial"/>
 <text id="text231" style="word-spacing:0;letter-spacing:0" font-size="129.23px" line-height="125%" y="-438.34" x="475.95001" font-family="Gentium Book Basic">
  <tspan id="tspan233" y="-438.34" x="475.95001"/>
 </text>
 <text id="text235" style="text-anchor:middle" transform="scale(4.0128 .2492)" font-size="46.954px" y="-2108.1201" x="315.69" font-family="Arial"/>
 <text id="text237" style="word-spacing:0;letter-spacing:0" font-size="129.23px" line-height="125%" y="-654.81" x="1574" font-family="Gentium Book Basic">
  <tspan id="tspan239" y="-654.81" x="1574"/>
 </text>
 <text id="text241" style="text-anchor:middle" transform="scale(4.0128 .2492)" font-size="46.954px" y="-2976.79" x="589.32001" font-family="Arial"/>
 <text id="text243" style="word-spacing:0;letter-spacing:0" font-size="129.23px" line-height="125%" y="-734.82001" x="2155.27" font-family="Gentium Book Basic">
  <tspan id="tspan245" y="-734.82001" x="2155.27"/>
 </text>
 <text id="text247" style="text-anchor:middle" transform="scale(4.0128 .2492)" font-size="46.954px" y="-3297.8301" x="734.16998" font-family="Arial"/>
 <text id="text249" style="word-spacing:0;letter-spacing:0" font-size="129.23px" line-height="125%" y="-1207.22" x="1766.15" font-family="Gentium Book Basic">
  <tspan id="tspan251" y="-1207.22" x="1766.15"/>
 </text>
 <text id="text253" style="text-anchor:middle" transform="scale(4.0128 .2492)" font-size="46.954px" y="-5193.48" x="637.20001" font-family="Arial"/>
 <text id="text255" style="word-spacing:0;letter-spacing:0" font-size="129.23px" line-height="125%" y="-1287.22" x="2347.4099" font-family="Gentium Book Basic">
  <tspan id="tspan257" y="-1287.22" x="2347.4099"/>
 </text>
 <text id="text259" style="text-anchor:middle" transform="scale(4.0128 .2492)" font-size="46.954px" y="-5514.5098" x="782.04999" font-family="Arial"/>
 <g id="g261" style="word-spacing:0;letter-spacing:0" font-family="Gentium Book Basic" line-height="125%">
  <text id="text263" y="127.5" x="514.60999" font-size="208.33px">
   <tspan id="tspan265" y="127.5" x="514.60999"/>
  </text>
  <text id="text267" y="-147.91" x="868.73999" font-size="129.23px">
   <tspan id="tspan269" y="-147.91" x="868.73999"/>
  </text>
 </g>
 <text id="text271" style="text-anchor:middle" transform="scale(4.0128 .2492)" font-size="46.954px" y="-942.67999" x="413.57001" font-family="Arial"/>
 <text id="text273" style="word-spacing:0;letter-spacing:0" font-size="129.23px" line-height="125%" y="-227.91" x="1450.01" font-family="Gentium Book Basic">
  <tspan id="tspan275" y="-227.91" x="1450.01"/>
 </text>
 <text id="text277" style="text-anchor:middle" transform="scale(4.0128 .2492)" font-size="46.954px" y="-1263.71" x="558.41998" font-family="Arial"/>
 <text id="text279" style="word-spacing:0;letter-spacing:0" font-size="129.23px" line-height="125%" y="-409.17001" x="378.42999" font-family="Gentium Book Basic">
  <tspan id="tspan281" y="-409.17001" x="378.42999"/>
 </text>
 <text id="text283" style="text-anchor:middle" transform="scale(4.0128 .2492)" font-size="46.954px" y="-1991.0699" x="291.38" font-family="Arial"/>
 <text id="text285" style="word-spacing:0;letter-spacing:0" font-size="129.23px" line-height="125%" y="-625.64001" x="1476.48" font-family="Gentium Book Basic">
  <tspan id="tspan287" y="-625.64001" x="1476.48"/>
 </text>
 <text id="text289" style="text-anchor:middle" transform="scale(4.0128 .2492)" font-size="46.954px" y="-2859.73" x="565.02002" font-family="Arial"/>
 <text id="text291" style="word-spacing:0;letter-spacing:0" font-size="129.23px" line-height="125%" y="-705.65002" x="2057.75" font-family="Gentium Book Basic">
  <tspan id="tspan293" y="-705.65002" x="2057.75"/>
 </text>
 <text id="text295" style="text-anchor:middle" transform="scale(4.0128 .2492)" font-size="46.954px" y="-3180.77" x="709.87" font-family="Arial"/>
 <text id="text297" style="word-spacing:0;letter-spacing:0" font-size="129.23px" line-height="125%" y="-1178.05" x="1668.63" font-family="Gentium Book Basic">
  <tspan id="tspan299" y="-1178.05" x="1668.63"/>
 </text>
 <text id="text301" style="text-anchor:middle" transform="scale(4.0128 .2492)" font-size="46.954px" y="-5076.4199" x="612.90002" font-family="Arial"/>
 <text id="text303" style="word-spacing:0;letter-spacing:0" font-size="129.23px" line-height="125%" y="-1258.05" x="2249.8899" font-family="Gentium Book Basic">
  <tspan id="tspan305" y="-1258.05" x="2249.8899"/>
 </text>
 <text id="text307" style="text-anchor:middle" transform="scale(4.0128 .2492)" font-size="46.954px" y="-5397.4502" x="757.75" font-family="Arial"/>
 <g id="g309" style="word-spacing:0;letter-spacing:0" font-family="Gentium Book Basic" line-height="125%">
  <text id="text311" y="156.67" x="417.09" font-size="208.33px">
   <tspan id="tspan313" y="156.67" x="417.09"/>
  </text>
  <text id="text315" y="157.89999" x="1477.47" font-size="129.23px">
   <tspan id="tspan317" y="157.89999" x="1477.47"/>
  </text>
 </g>
 <text id="text319" style="text-anchor:middle" transform="scale(4.0128 .2492)" font-size="46.954px" y="284.45001" x="565.27002" font-family="Arial"/>
 <text id="text321" style="word-spacing:0;letter-spacing:0" font-size="129.23px" line-height="125%" y="77.897003" x="2058.74" font-family="Gentium Book Basic">
  <tspan id="tspan323" y="77.897003" x="2058.74"/>
 </text>
 <text id="text325" style="text-anchor:middle" transform="scale(4.0128 .2492)" font-size="46.954px" y="-36.573002" x="710.12" font-family="Arial"/>
 <text id="text327" style="word-spacing:0;letter-spacing:0" font-size="129.23px" line-height="125%" y="-103.36" x="987.15997" font-family="Gentium Book Basic">
  <tspan id="tspan329" y="-103.36" x="987.15997"/>
 </text>
 <text id="text331" style="text-anchor:middle" transform="scale(4.0128 .2492)" font-size="46.954px" y="-763.92999" x="443.07999" font-family="Arial"/>
 <text id="text333" style="word-spacing:0;letter-spacing:0" font-size="129.23px" line-height="125%" y="-319.82999" x="2085.21" font-family="Gentium Book Basic">
  <tspan id="tspan335" y="-319.82999" x="2085.21"/>
 </text>
 <text id="text337" style="text-anchor:middle" transform="scale(4.0128 .2492)" font-size="46.954px" y="-1632.6" x="716.71997" font-family="Arial"/>
 <text id="text339" style="word-spacing:0;letter-spacing:0" font-size="129.23px" line-height="125%" y="-399.84" x="2666.48" font-family="Gentium Book Basic">
  <tspan id="tspan341" y="-399.84" x="2666.48"/>
 </text>
 <text id="text343" style="text-anchor:middle" transform="scale(4.0128 .2492)" font-size="46.954px" y="-1953.63" x="861.57001" font-family="Arial"/>
 <text id="text345" style="word-spacing:0;letter-spacing:0" font-size="129.23px" line-height="125%" y="-872.23999" x="2277.3601" font-family="Gentium Book Basic">
  <tspan id="tspan347" y="-872.23999" x="2277.3601"/>
 </text>
 <text id="text349" style="text-anchor:middle" transform="scale(4.0128 .2492)" font-size="46.954px" y="-3849.28" x="764.59998" font-family="Arial"/>
 <text id="text351" style="word-spacing:0;letter-spacing:0" font-size="129.23px" line-height="125%" y="-952.23999" x="2858.6201" font-family="Gentium Book Basic">
  <tspan id="tspan353" y="-952.23999" x="2858.6201"/>
 </text>
 <text id="text355" style="text-anchor:middle" transform="scale(4.0128 .2492)" font-size="46.954px" y="-4170.3101" x="909.45001" font-family="Arial"/>
 <g id="g357" style="word-spacing:0;letter-spacing:0" font-family="Gentium Book Basic" line-height="125%">
  <text id="text359" y="462.48001" x="1025.8199" font-size="208.33px">
   <tspan id="tspan361" y="462.48001" x="1025.8199"/>
  </text>
  <text id="text363" y="-70.865997" x="865.57001" font-size="129.23px">
   <tspan id="tspan365" y="-70.865997" x="865.57001"/>
  </text>
 </g>
 <text id="text367" style="text-anchor:middle" transform="scale(4.0128 .2492)" font-size="46.954px" y="-633.53003" x="412.78" font-family="Arial"/>
 <text id="text369" style="word-spacing:0;letter-spacing:0" font-size="129.23px" line-height="125%" y="-150.87" x="1446.84" font-family="Gentium Book Basic">
  <tspan id="tspan371" y="-150.87" x="1446.84"/>
 </text>
 <text id="text373" style="text-anchor:middle" transform="scale(4.0128 .2492)" font-size="46.954px" y="-954.56" x="557.63" font-family="Arial"/>
 <text id="text375" style="word-spacing:0;letter-spacing:0" font-size="129.23px" line-height="125%" y="-332.13" x="375.26001" font-family="Gentium Book Basic">
  <tspan id="tspan377" y="-332.13" x="375.26001"/>
 </text>
 <text id="text379" style="text-anchor:middle" transform="scale(4.0128 .2492)" font-size="46.954px" y="-1681.92" x="290.59" font-family="Arial"/>
 <text id="text381" style="word-spacing:0;letter-spacing:0" font-size="129.23px" line-height="125%" y="-548.59998" x="1473.3101" font-family="Gentium Book Basic">
  <tspan id="tspan383" y="-548.59998" x="1473.3101"/>
 </text>
 <text id="text385" style="text-anchor:middle" transform="scale(4.0128 .2492)" font-size="46.954px" y="-2550.5801" x="564.22998" font-family="Arial"/>
 <text id="text387" style="word-spacing:0;letter-spacing:0" font-size="129.23px" line-height="125%" y="-628.60999" x="2054.5801" font-family="Gentium Book Basic">
  <tspan id="tspan389" y="-628.60999" x="2054.5801"/>
 </text>
 <text id="text391" style="text-anchor:middle" transform="scale(4.0128 .2492)" font-size="46.954px" y="-2871.6201" x="709.08002" font-family="Arial"/>
 <text id="text393" style="word-spacing:0;letter-spacing:0" font-size="129.23px" line-height="125%" y="-1101.01" x="1665.46" font-family="Gentium Book Basic">
  <tspan id="tspan395" y="-1101.01" x="1665.46"/>
 </text>
 <text id="text397" style="text-anchor:middle" transform="scale(4.0128 .2492)" font-size="46.954px" y="-4767.27" x="612.10999" font-family="Arial"/>
 <text id="text399" style="word-spacing:0;letter-spacing:0" font-size="129.23px" line-height="125%" y="-1181.01" x="2246.72" font-family="Gentium Book Basic">
  <tspan id="tspan401" y="-1181.01" x="2246.72"/>
 </text>
 <text id="text403" style="text-anchor:middle" transform="scale(4.0128 .2492)" font-size="46.954px" y="-5088.2998" x="756.96002" font-family="Arial"/>
 <g id="g405" style="word-spacing:0;letter-spacing:0" font-family="Gentium Book Basic" line-height="125%">
  <text id="text407" y="233.71001" x="413.92001" font-size="208.33px">
   <tspan id="tspan409" y="233.71001" x="413.92001"/>
  </text>
  <text id="text411" y="-41.695999" x="768.04999" font-size="129.23px">
   <tspan id="tspan413" y="-41.695999" x="768.04999"/>
  </text>
 </g>
 <text id="text415" style="text-anchor:middle" transform="scale(4.0128 .2492)" font-size="46.954px" y="-516.47998" x="388.48001" font-family="Arial"/>
 <text id="text417" style="word-spacing:0;letter-spacing:0" font-size="129.23px" line-height="125%" y="-121.7" x="1349.3199" font-family="Gentium Book Basic">
  <tspan id="tspan419" y="-121.7" x="1349.3199"/>
 </text>
 <text id="text421" style="text-anchor:middle" transform="scale(4.0128 .2492)" font-size="46.954px" y="-837.51001" x="533.33002" font-family="Arial"/>
 <text id="text423" style="word-spacing:0;letter-spacing:0" font-size="129.23px" line-height="125%" y="-302.95999" x="277.73999" font-family="Gentium Book Basic">
  <tspan id="tspan425" y="-302.95999" x="277.73999"/>
 </text>
 <text id="text427" style="text-anchor:middle" transform="scale(4.0128 .2492)" font-size="46.954px" y="-1564.86" x="266.29001" font-family="Arial"/>
 <text id="text429" style="word-spacing:0;letter-spacing:0" font-size="129.23px" line-height="125%" y="-519.42999" x="1375.79" font-family="Gentium Book Basic">
  <tspan id="tspan431" y="-519.42999" x="1375.79"/>
 </text>
 <text id="text433" style="text-anchor:middle" transform="scale(4.0128 .2492)" font-size="46.954px" y="-2433.53" x="539.92999" font-family="Arial"/>
 <text id="text435" style="word-spacing:0;letter-spacing:0" font-size="129.23px" line-height="125%" y="-599.44" x="1957.0601" font-family="Gentium Book Basic">
  <tspan id="tspan437" y="-599.44" x="1957.0601"/>
 </text>
 <text id="text439" style="text-anchor:middle" transform="scale(4.0128 .2492)" font-size="46.954px" y="-2754.5701" x="684.78003" font-family="Arial"/>
 <text id="text441" style="word-spacing:0;letter-spacing:0" font-size="129.23px" line-height="125%" y="-1071.84" x="1567.9399" font-family="Gentium Book Basic">
  <tspan id="tspan443" y="-1071.84" x="1567.9399"/>
 </text>
 <text id="text445" style="text-anchor:middle" transform="scale(4.0128 .2492)" font-size="46.954px" y="-4650.2202" x="587.81" font-family="Arial"/>
 <text id="text447" style="word-spacing:0;letter-spacing:0" font-size="129.23px" line-height="125%" y="-1151.84" x="2149.2" font-family="Gentium Book Basic">
  <tspan id="tspan449" y="-1151.84" x="2149.2"/>
 </text>
 <text id="text451" style="text-anchor:middle" transform="scale(4.0128 .2492)" font-size="46.954px" y="-4971.2402" x="732.65997" font-family="Arial"/>
 <g id="g453" style="word-spacing:0;letter-spacing:0" font-family="Gentium Book Basic" line-height="125%">
  <text id="text455" y="262.88" x="316.39999" font-size="208.33px">
   <tspan id="tspan457" y="262.88" x="316.39999"/>
  </text>
  <text id="text459" y="-74.239998" x="687.78003" font-size="129.23px">
   <tspan id="tspan461" y="-74.239998" x="687.78003"/>
  </text>
 </g>
 <text id="text463" style="text-anchor:middle" transform="scale(4.0128 .2492)" font-size="46.954px" y="-647.06" x="368.48001" font-family="Arial"/>
 <text id="text465" style="word-spacing:0;letter-spacing:0" font-size="129.23px" line-height="125%" y="-154.24001" x="1269.05" font-family="Gentium Book Basic">
  <tspan id="tspan467" y="-154.24001" x="1269.05"/>
 </text>
 <text id="text469" style="text-anchor:middle" transform="scale(4.0128 .2492)" font-size="46.954px" y="-968.09003" x="513.33002" font-family="Arial"/>
 <text id="text471" style="word-spacing:0;letter-spacing:0" font-size="129.23px" line-height="125%" y="-335.5" x="197.47" font-family="Gentium Book Basic">
  <tspan id="tspan473" y="-335.5" x="197.47"/>
 </text>
 <text id="text475" style="text-anchor:middle" transform="scale(4.0128 .2492)" font-size="46.954px" y="-1695.45" x="246.28999" font-family="Arial"/>
 <text id="text477" style="word-spacing:0;letter-spacing:0" font-size="129.23px" line-height="125%" y="-551.96997" x="1295.52" font-family="Gentium Book Basic">
  <tspan id="tspan479" y="-551.96997" x="1295.52"/>
 </text>
 <text id="text481" style="text-anchor:middle" transform="scale(4.0128 .2492)" font-size="46.954px" y="-2564.1101" x="519.92999" font-family="Arial"/>
 <text id="text483" style="word-spacing:0;letter-spacing:0" font-size="129.23px" line-height="125%" y="-631.97998" x="1876.79" font-family="Gentium Book Basic">
  <tspan id="tspan485" y="-631.97998" x="1876.79"/>
 </text>
 <text id="text487" style="text-anchor:middle" transform="scale(4.0128 .2492)" font-size="46.954px" y="-2885.1499" x="664.77002" font-family="Arial"/>
 <text id="text489" style="word-spacing:0;letter-spacing:0" font-size="129.23px" line-height="125%" y="-1104.38" x="1487.67" font-family="Gentium Book Basic">
  <tspan id="tspan491" y="-1104.38" x="1487.67"/>
 </text>
 <text id="text493" style="text-anchor:middle" transform="scale(4.0128 .2492)" font-size="46.954px" y="-4780.7998" x="567.81" font-family="Arial"/>
 <text id="text495" style="word-spacing:0;letter-spacing:0" font-size="129.23px" line-height="125%" y="-1184.38" x="2068.9299" font-family="Gentium Book Basic">
  <tspan id="tspan497" y="-1184.38" x="2068.9299"/>
 </text>
 <text id="text499" style="text-anchor:middle" transform="scale(4.0128 .2492)" font-size="46.954px" y="-5101.8301" x="712.65002" font-family="Arial"/>
 <text id="text501" style="word-spacing:0;letter-spacing:0" font-size="208.33px" line-height="125%" y="230.34" x="236.13" font-family="Gentium Book Basic">
  <tspan id="tspan503" y="230.34" x="236.13"/>
 </text>
 <path id="path505" opacity=".25" d="m41 90.66v99.22l49.625 49.625h-49.625v99.22l49.563 49.563h-49.563v33.06l90.66 90.66h354.34c14.397 0 26-11.603 26-26v-286.44l-73-73-1.938-1.969c-20.96-20.95-49.89-33.929-81.87-33.929v33.31l-16.75-16.75c-40.34 0-75.866 20.635-96.59 51.938l-68.5-68.5h-132.34"/>
 <path id="path507" d="m41 90.66v99.22h132.33v-99.22h-132.33m314.18 0v115.82h115.82c0-63.92-51.84-115.82-115.82-115.82m-16.745 16.553c-63.924 0-115.78 51.794-115.78 115.78 0 63.924 51.794 115.78 115.78 115.78 63.924 0 115.78-51.794 115.78-115.78h-115.78v-115.78m-297.43 132.28v99.22h132.33v-99.22h-132.34m0 148.79v33.06h429.95v-33.06h-429.94" fill="#f9f9f9"/>
</svg>
