<?xml version="1.0" encoding="UTF-8" standalone="no"?>
<!-- Created with Inkscape (http://www.inkscape.org/) -->
<svg id="svg2" xmlns:rdf="http://www.w3.org/1999/02/22-rdf-syntax-ns#" xmlns="http://www.w3.org/2000/svg" height="100%" width="100%" version="1.1" xmlns:cc="http://creativecommons.org/ns#" viewBox="0 0 512 512" xmlns:dc="http://purl.org/dc/elements/1.1/">
 <metadata id="metadata173">
  <rdf:RDF>
   <cc:Work rdf:about="">
    <dc:format>image/svg+xml</dc:format>
    <dc:type rdf:resource="http://purl.org/dc/dcmitype/StillImage"/>
   </cc:Work>
  </rdf:RDF>
 </metadata>
 <path id="path19" d="m26 0c-14.397 0-26 11.603-26 26v460c0 14.397 11.603 26 26 26h460c14.397 0 26-11.603 26-26v-460c0-14.397-11.6-26-26-26h-460" fill="#a0d200"/>
 <path id="path21" d="m26 0c-14.397 0-26 11.603-26 26v460c0 14.397 11.603 26 26 26h173c15.38-73.45 9.77-145.6-13.12-231.06-30.5-113.84-41.37-191.27-12.03-280.94h-147.84" fill="#1f467c"/>
 <text id="text23" style="word-spacing:0;letter-spacing:0" font-size="129.23px" line-height="125%" y="254.17999" x="-161.46001" font-family="Gentium Book Basic">
  <tspan id="tspan25" y="254.17999" x="-161.46001"/>
 </text>
 <text id="text27" style="text-anchor:middle" transform="scale(4.0128 .2492)" font-size="46.954px" y="670.83002" x="156.84" font-family="Arial"/>
 <text id="text29" style="word-spacing:0;letter-spacing:0" font-size="129.23px" line-height="125%" y="174.17999" x="419.81" font-family="Gentium Book Basic">
  <tspan id="tspan31" y="174.17999" x="419.81"/>
 </text>
 <text id="text33" style="text-anchor:middle" transform="scale(4.0128 .2492)" font-size="46.954px" y="349.79999" x="301.69" font-family="Arial"/>
 <text id="text35" style="word-spacing:0;letter-spacing:0" font-size="129.23px" line-height="125%" y="-7.0780001" x="-651.77002" font-family="Gentium Book Basic">
  <tspan id="tspan37" y="-7.0780001" x="-651.77002"/>
 </text>
 <text id="text39" style="text-anchor:middle" transform="scale(4.0128 .2492)" font-size="46.954px" y="-377.54999" x="34.654999" font-family="Arial"/>
 <text id="text41" style="word-spacing:0;letter-spacing:0" font-size="129.23px" line-height="125%" y="-223.55" x="446.28" font-family="Gentium Book Basic">
  <tspan id="tspan43" y="-223.55" x="446.28"/>
 </text>
 <text id="text45" style="text-anchor:middle" transform="scale(4.0128 .2492)" font-size="46.954px" y="-1246.22" x="308.29001" font-family="Arial"/>
 <text id="text47" style="word-spacing:0;letter-spacing:0" font-size="129.23px" line-height="125%" y="-303.56" x="1027.55" font-family="Gentium Book Basic">
  <tspan id="tspan49" y="-303.56" x="1027.55"/>
 </text>
 <text id="text51" style="text-anchor:middle" transform="scale(4.0128 .2492)" font-size="46.954px" y="-1567.26" x="453.14001" font-family="Arial"/>
 <text id="text53" style="word-spacing:0;letter-spacing:0" font-size="129.23px" line-height="125%" y="-775.96002" x="638.42999" font-family="Gentium Book Basic">
  <tspan id="tspan55" y="-775.96002" x="638.42999"/>
 </text>
 <text id="text57" style="text-anchor:middle" transform="scale(4.0128 .2492)" font-size="46.954px" y="-3462.9099" x="356.17001" font-family="Arial"/>
 <text id="text59" style="word-spacing:0;letter-spacing:0" font-size="129.23px" line-height="125%" y="-855.96002" x="1219.6899" font-family="Gentium Book Basic">
  <tspan id="tspan61" y="-855.96002" x="1219.6899"/>
 </text>
 <text id="text63" style="text-anchor:middle" transform="scale(4.0128 .2492)" font-size="46.954px" y="-3783.9399" x="501.01999" font-family="Arial"/>
 <g id="g65" style="word-spacing:0;letter-spacing:0" font-family="Gentium Book Basic" line-height="125%">
  <text id="text67" y="558.76001" x="-613.10999" font-size="208.33px">
   <tspan id="tspan69" y="558.76001" x="-613.10999"/>
  </text>
  <text id="text71" y="230.42" x="1473.85" font-size="129.23px">
   <tspan id="tspan73" y="230.42" x="1473.85"/>
  </text>
 </g>
 <text id="text75" style="text-anchor:middle" transform="scale(4.0128 .2492)" font-size="46.954px" y="575.47998" x="564.37" font-family="Arial"/>
 <text id="text77" style="word-spacing:0;letter-spacing:0" font-size="129.23px" line-height="125%" y="150.42" x="2055.1201" font-family="Gentium Book Basic">
  <tspan id="tspan79" y="150.42" x="2055.1201"/>
 </text>
 <text id="text81" style="text-anchor:middle" transform="scale(4.0128 .2492)" font-size="46.954px" y="254.45" x="709.21997" font-family="Arial"/>
 <text id="text83" style="word-spacing:0;letter-spacing:0" font-size="129.23px" line-height="125%" y="-30.84" x="983.53998" font-family="Gentium Book Basic">
  <tspan id="tspan85" y="-30.84" x="983.53998"/>
 </text>
 <text id="text87" style="text-anchor:middle" transform="scale(4.0128 .2492)" font-size="46.954px" y="-472.91" x="442.17999" font-family="Arial"/>
 <text id="text89" style="word-spacing:0;letter-spacing:0" font-size="129.23px" line-height="125%" y="-247.31" x="2081.5901" font-family="Gentium Book Basic">
  <tspan id="tspan91" y="-247.31" x="2081.5901"/>
 </text>
 <text id="text93" style="text-anchor:middle" transform="scale(4.0128 .2492)" font-size="46.954px" y="-1341.5699" x="715.82001" font-family="Arial"/>
 <text id="text95" style="word-spacing:0;letter-spacing:0" font-size="129.23px" line-height="125%" y="-327.32001" x="2662.8601" font-family="Gentium Book Basic">
  <tspan id="tspan97" y="-327.32001" x="2662.8601"/>
 </text>
 <text id="text99" style="text-anchor:middle" transform="scale(4.0128 .2492)" font-size="46.954px" y="-1662.61" x="860.65997" font-family="Arial"/>
 <text id="text101" style="word-spacing:0;letter-spacing:0" font-size="129.23px" line-height="125%" y="-799.71997" x="2273.74" font-family="Gentium Book Basic">
  <tspan id="tspan103" y="-799.71997" x="2273.74"/>
 </text>
 <text id="text105" style="text-anchor:middle" transform="scale(4.0128 .2492)" font-size="46.954px" y="-3558.26" x="763.69" font-family="Arial"/>
 <text id="text107" style="word-spacing:0;letter-spacing:0" font-size="129.23px" line-height="125%" y="-879.71997" x="2855" font-family="Gentium Book Basic">
  <tspan id="tspan109" y="-879.71997" x="2855"/>
 </text>
 <text id="text111" style="text-anchor:middle" transform="scale(4.0128 .2492)" font-size="46.954px" y="-3879.29" x="908.53998" font-family="Arial"/>
 <g id="g113" style="word-spacing:0;letter-spacing:0" font-family="Gentium Book Basic" line-height="125%">
  <text id="text115" y="535" x="1022.2" font-size="208.33px">
   <tspan id="tspan117" y="535" x="1022.2"/>
  </text>
  <text id="text119" y="1.6569999" x="861.95001" font-size="129.23px">
   <tspan id="tspan121" y="1.6569999" x="861.95001"/>
  </text>
 </g>
 <text id="text123" style="text-anchor:middle" transform="scale(4.0128 .2492)" font-size="46.954px" y="-342.51001" x="411.88" font-family="Arial"/>
 <text id="text125" style="word-spacing:0;letter-spacing:0" font-size="129.23px" line-height="125%" y="-78.339996" x="1443.22" font-family="Gentium Book Basic">
  <tspan id="tspan127" y="-78.339996" x="1443.22"/>
 </text>
 <text id="text129" style="text-anchor:middle" transform="scale(4.0128 .2492)" font-size="46.954px" y="-663.53998" x="556.72998" font-family="Arial"/>
 <text id="text131" style="word-spacing:0;letter-spacing:0" font-size="129.23px" line-height="125%" y="-259.60001" x="371.64001" font-family="Gentium Book Basic">
  <tspan id="tspan133" y="-259.60001" x="371.64001"/>
 </text>
 <text id="text135" style="text-anchor:middle" transform="scale(4.0128 .2492)" font-size="46.954px" y="-1390.89" x="289.69" font-family="Arial"/>
 <text id="text137" style="word-spacing:0;letter-spacing:0" font-size="129.23px" line-height="125%" y="-476.07001" x="1469.6899" font-family="Gentium Book Basic">
  <tspan id="tspan139" y="-476.07001" x="1469.6899"/>
 </text>
 <text id="text141" style="text-anchor:middle" transform="scale(4.0128 .2492)" font-size="46.954px" y="-2259.5601" x="563.33002" font-family="Arial"/>
 <text id="text143" style="word-spacing:0;letter-spacing:0" font-size="129.23px" line-height="125%" y="-556.08002" x="2050.96" font-family="Gentium Book Basic">
  <tspan id="tspan145" y="-556.08002" x="2050.96"/>
 </text>
 <text id="text147" style="text-anchor:middle" transform="scale(4.0128 .2492)" font-size="46.954px" y="-2580.6001" x="708.17999" font-family="Arial"/>
 <text id="text149" style="word-spacing:0;letter-spacing:0" font-size="129.23px" line-height="125%" y="-1028.48" x="1661.84" font-family="Gentium Book Basic">
  <tspan id="tspan151" y="-1028.48" x="1661.84"/>
 </text>
 <text id="text153" style="text-anchor:middle" transform="scale(4.0128 .2492)" font-size="46.954px" y="-4476.25" x="611.21002" font-family="Arial"/>
 <text id="text155" style="word-spacing:0;letter-spacing:0" font-size="129.23px" line-height="125%" y="-1108.48" x="2243.1001" font-family="Gentium Book Basic">
  <tspan id="tspan157" y="-1108.48" x="2243.1001"/>
 </text>
 <text id="text159" style="text-anchor:middle" transform="scale(4.0128 .2492)" font-size="46.954px" y="-4797.2798" x="756.06" font-family="Arial"/>
 <text id="text161" style="word-spacing:0;letter-spacing:0" font-size="208.33px" line-height="125%" y="306.23999" x="410.29999" font-family="Gentium Book Basic">
  <tspan id="tspan163" y="306.23999" x="410.29999"/>
 </text>
 <g id="g165" style="color:#000000">
  <path id="path167" opacity=".25" d="m66.75 56.75 51.53 51.53h-25.75v25.813l-51.53-51.527v346.88l25.813 25.813h-0.063l56.75 56.75h362.5c14.397 0 26-11.603 26-26v-362.5l-66.75-66.744h-378.5"/>
  <path id="path169" d="m66.746 56.748a25.767 25.767 0 0 0 -25.746 25.8v346.9a25.767 25.767 0 0 0 25.746 25.8h378.5a25.767 25.767 0 0 0 25.75 -25.8v-346.9a25.767 25.767 0 0 0 -25.75 -25.8h-378.5m25.8 51.55h137.71v119.69h-137.71v-119.7m189.21 0h137.72v119.7h-137.72v-119.7m-189.21 171.19h137.71v124.23h-137.71v-124.23m189.21 0h137.72v124.23h-137.72v-124.23" fill="#fff"/>
 </g>
</svg>
