<svg xmlns="http://www.w3.org/2000/svg" xmlns:svg="http://www.w3.org/2000/svg" id="svg2" width="100%" height="100%" version="1.1" viewBox="0 0 512 512"><metadata id="metadata10"/><path id="path340368" d="M 26,0 C 11.603,0 0,11.603 0,26 l 0,460 c 0,14.397 11.603,26 26,26 l 460,0 c 14.397,0 26,-11.603 26,-26 L 512,26 C 512,11.603 500.397,0 486,0 L 26,0" style="fill:#6ea6c1"/><path id="path340418" d="M 104.33984 43.310547 L 366.00391 304.97266 L 343.82227 318.85156 L 81.130859 56.160156 L 81.130859 256 L 81.130859 455.83984 L 137.29102 512 L 486 512 C 500.397 512 512 500.397 512 486 L 512 331.41016 L 423.75 243.16016 L 264.0293 143.2207 L 104.33984 43.310547 z" style="color:#000;fill-rule:evenodd;opacity:.25"/><path id="path340430" d="M 95.65625,41 A 15.1633,15.1633 0 0 0 81.125,56.15625 l 0,199.84 0,199.84 A 15.1633,15.1633 0 0 0 104.34375,468.68 L 264.03,368.78 423.75,268.84 a 15.1633,15.1633 0 0 0 0,-25.6875 L 264.03,143.22 104.34,43.31 A 15.1633,15.1633 0 0 0 95.65625,41" style="color:#000;fill:#fff;fill-rule:evenodd"/></svg>