<?xml version="1.0" encoding="UTF-8" standalone="no"?>
<!-- Created with Inkscape (http://www.inkscape.org/) -->
<svg id="svg2" xmlns:rdf="http://www.w3.org/1999/02/22-rdf-syntax-ns#" xmlns="http://www.w3.org/2000/svg" height="100%" width="100%" version="1.1" xmlns:cc="http://creativecommons.org/ns#" viewBox="0 0 512 512" xmlns:dc="http://purl.org/dc/elements/1.1/">
 <metadata id="metadata62">
  <rdf:RDF>
   <cc:Work rdf:about="">
    <dc:format>image/svg+xml</dc:format>
    <dc:type rdf:resource="http://purl.org/dc/dcmitype/StillImage"/>
   </cc:Work>
  </rdf:RDF>
 </metadata>
 <path id="path4" d="m26 0c-14.397 0-26 11.603-26 26v460c0 14.397 11.603 26 26 26h460c14.397 0 26-11.603 26-26v-460c0-14.397-11.6-26-26-26h-460" fill="#0078ad"/>
 <text id="text6" style="word-spacing:0;letter-spacing:0" font-size="129.23px" line-height="125%" y="230.42999" x="4.217" font-family="Gentium Book Basic">
  <tspan id="tspan8" y="230.42999" x="4.217"/>
 </text>
 <text id="text10" style="text-anchor:middle" transform="scale(4.0128 .2492)" font-size="46.954px" y="575.51001" x="198.13" font-family="Arial"/>
 <text id="text12" style="word-spacing:0;letter-spacing:0" font-size="129.23px" line-height="125%" y="150.42999" x="585.48999" font-family="Gentium Book Basic">
  <tspan id="tspan14" y="150.42999" x="585.48999"/>
 </text>
 <text id="text16" style="text-anchor:middle" transform="scale(4.0128 .2492)" font-size="46.954px" y="254.48" x="342.98001" font-family="Arial"/>
 <text id="text18" style="word-spacing:0;letter-spacing:0" font-size="129.23px" line-height="125%" y="-30.833" x="-486.09" font-family="Gentium Book Basic">
  <tspan id="tspan20" y="-30.833" x="-486.09"/>
 </text>
 <text id="text22" style="text-anchor:middle" transform="scale(4.0128 .2492)" font-size="46.954px" y="-472.87" x="75.942001" font-family="Arial"/>
 <text id="text24" style="word-spacing:0;letter-spacing:0" font-size="129.23px" line-height="125%" y="-247.3" x="611.96002" font-family="Gentium Book Basic">
  <tspan id="tspan26" y="-247.3" x="611.96002"/>
 </text>
 <text id="text28" style="text-anchor:middle" transform="scale(4.0128 .2492)" font-size="46.954px" y="-1341.55" x="349.57999" font-family="Arial"/>
 <text id="text30" style="word-spacing:0;letter-spacing:0" font-size="129.23px" line-height="125%" y="-327.29999" x="1193.23" font-family="Gentium Book Basic">
  <tspan id="tspan32" y="-327.29999" x="1193.23"/>
 </text>
 <text id="text34" style="text-anchor:middle" transform="scale(4.0128 .2492)" font-size="46.954px" y="-1662.5699" x="494.42999" font-family="Arial"/>
 <text id="text36" style="word-spacing:0;letter-spacing:0" font-size="129.23px" line-height="125%" y="-799.70001" x="804.10999" font-family="Gentium Book Basic">
  <tspan id="tspan38" y="-799.70001" x="804.10999"/>
 </text>
 <text id="text40" style="text-anchor:middle" transform="scale(4.0128 .2492)" font-size="46.954px" y="-3558.22" x="397.45999" font-family="Arial"/>
 <text id="text42" style="word-spacing:0;letter-spacing:0" font-size="129.23px" line-height="125%" y="-879.71002" x="1385.37" font-family="Gentium Book Basic">
  <tspan id="tspan44" y="-879.71002" x="1385.37"/>
 </text>
 <text id="text46" style="text-anchor:middle" transform="scale(4.0128 .2492)" font-size="46.954px" y="-3879.26" x="542.31" font-family="Arial"/>
 <text id="text48" style="word-spacing:0;letter-spacing:0" font-size="208.33px" line-height="125%" y="535.01001" x="-447.42999" font-family="Gentium Book Basic">
  <tspan id="tspan50" y="535.01001" x="-447.42999"/>
 </text>
 <g id="g52" fill-rule="evenodd">
  <path id="path54" opacity=".25" d="m256.28 41c-25.775 0.004-49.909 5.189-72.28 15.531-22.38 10.39-42.48 25.735-60.47 45.875-19.448 21.431-33.901 44.69-43.06 69.69-9.166 24.961-13.625 53.02-13.625 84.16s4.459 59.3 13.625 84.25c9.163 25.02 23.615 48.22 43.06 69.66 2.761 3.097 5.569 6.069 8.438 8.938l92.91 92.91h261.13c14.397 0 26-11.603 26-26v-261.13l-131.58-131.59c-15.71-15.703-32.96-28.026-51.82-36.777-22.33-10.343-46.51-15.496-72.28-15.5h-0.031"/>
  <path id="path56" d="m256.3 41c-25.786 0-49.909 5.164-72.29 15.511-22.38 10.39-42.498 25.762-60.49 45.903-19.448 21.431-33.883 44.691-43.05 69.69-9.166 24.961-13.619 53.02-13.619 84.15 0 31.14 4.452 59.28 13.619 84.23 9.163 25.02 23.598 48.22 43.05 69.65 17.8 19.973 37.849 35.21 60.19 45.49 22.359 10.263 46.618 15.363 72.59 15.363 25.969 0 50.16-5.103 72.54-15.363 22.38-10.284 42.4-25.523 60.23-45.49 19.256-21.283 33.542-44.36 42.601-69.28 9.08-24.83 13.465-53.11 13.465-84.6 0-31.507-4.391-59.753-13.465-84.6-9.05-24.893-23.36-47.979-42.637-69.24-17.95-20.136-38.1-35.511-60.47-45.899-22.34-10.347-46.51-15.511-72.29-15.511m0 28.351c29.18 0 47.75 11.149 58.22 32.73 11.231 23.12 17.589 73.7 17.589 154.19 0 80.53-6.355 131.1-17.589 154.19-10.473 21.623-29.05 32.767-58.22 32.767-29.352 0-48.1-11.261-58.706-33.03-11.339-23.295-17.7-73.79-17.7-153.93 0-80.12 6.363-130.56 17.7-153.86 10.603-21.79 29.356-33.06 58.706-33.06" fill="#fff"/>
 </g>
</svg>
