<svg xmlns="http://www.w3.org/2000/svg" xmlns:svg="http://www.w3.org/2000/svg" id="svg2" width="100%" height="100%" version="1.1" viewBox="0 0 512 512"><metadata id="metadata10"/><defs id="defs8"><clipPath id="0-3"><path id="path342588" d="m26 0c-14.397 0-26 11.603-26 26v460c0 14.397 11.603 26 26 26h460c14.397 0 26-11.603 26-26v-460c0-14.397-11.603-26-26-26h-460"/></clipPath></defs><path style="fill:#366378" id="path343788" d="M 26,0 C 11.603,0 0,11.603 0,26 l 0,460 c 0,14.397 11.603,26 26,26 l 460,0 c 14.397,0 26,-11.603 26,-26 L 512,26 C 512,11.603 500.397,0 486,0 L 26,0"/><path id="path343876" d="M 145.98828 142.83789 L 250.17969 247.0293 C 250.17985 247.03319 250.17952 247.03712 250.17969 247.04102 L 145.98047 142.83984 C 112.19042 142.83984 86.247293 152.51366 68.103516 171.86328 L 68.099609 171.85938 C 50.049609 191.10938 41 219.02914 41 255.61914 C 41 292.20814 50.049609 320.28961 68.099609 339.84961 C 68.871609 340.68561 69.657031 341.50369 70.457031 342.30469 L 240.15234 512 L 486 512 C 500.397 512 512 500.397 512 486 L 512 192.51953 L 465.75977 146.2793 L 415.5293 146.2793 L 380.81055 205.39062 L 321.68945 146.26953 L 321.71875 146.31836 L 321.67969 146.2793 L 270.2207 146.2793 L 432.17188 308.23242 L 432.18945 308.25977 L 270.21094 146.2793 L 338.50586 252.76367 L 325.125 273.55664 L 220.96875 169.40039 C 221.02852 169.46016 221.08493 169.52401 221.14453 169.58398 L 220.9707 169.41016 C 203.2417 151.68116 178.24128 142.83889 145.98828 142.83789 z" style="opacity:.25"/><path style="fill:#fff" id="path343936" d="m 145.98,142.84 c -33.793,0 -59.736,9.677 -77.88,29.03 -18.05,19.25 -27.1,47.17 -27.1,83.76 0,36.589 9.05,64.67 27.1,84.23 18.05,19.551 43.897,29.321 77.59,29.321 33.685,0 59.53,-9.77 77.59,-29.321 18.05,-19.551 27.1,-47.53 27.1,-83.931 0,-36.495 -8.979,-64.48 -26.924,-83.931 -17.847,-19.45 -43.671,-29.15 -77.45,-29.15 m 124.22,3.445 68.3,106.49 -72.962,113.37 49.95,0 51.12,-83.13 51.12,83.13 53.26,0 -74.31,-110.81 69.06,-109.04 -50.23,0 -46.46,79.1 -47.38,-79.1 -51.46,0 m -124.22,35.37 c 36.996,0 55.49,24.738 55.49,74.27 0,49.43 -18.587,74.15 -55.784,74.15 -18.548,0 -32.476,-6.218 -41.791,-18.651 -9.325,-12.432 -13.988,-30.93 -13.988,-55.49 0,-24.564 4.69,-43.05 14.11,-55.49 9.423,-12.532 23.416,-18.777 41.966,-18.777"/></svg>