<svg xmlns="http://www.w3.org/2000/svg" xmlns:svg="http://www.w3.org/2000/svg" xmlns:xlink="http://www.w3.org/1999/xlink" id="svg2" width="100%" height="100%" version="1.1" viewBox="0 0 512 512"><metadata id="metadata10"/><defs id="defs8"><path style="fill:#fff" id="5" d="m350.45 319.42v-94.57h-3.967v53.54c0 5.293-.771 10.322-2.35 15.06-1.579 4.813-3.967 9.03-7.126 12.738-3.046 3.563-6.863 6.468-11.497 8.668-4.588 2.096-9.956 3.121-16.01 3.121-4.371 0-8.517-.62-12.485-1.73-3.817-1.25-7.239-3.01-10.285-5.547-2.905-2.538-5.218-5.688-6.9-9.551-1.73-3.93-1.871-8.781-1.871-14.318l-3.892.62c0 1.467 0 3.121 0 4.484.216 3.779.555 7.239 1.796 10.388 1.833 4.118 4.334 7.643 7.53 10.689 3.272 2.792 7.126 4.954 11.46 6.43 4.484 1.363 9.363 2.02 14.656 2.02 10.02 0 18.14-2.388 24.349-7.164 6.317-4.813 10.388-10.868 12.268-18.247h.367v23.39h3.93"/><path style="fill:#fff" id="6" d="m266.25 199.7h3.779c0-22.656 20.344-34.521 40.43-34.521 10.209 0 19.611 3.01 26.473 8.48 7.746 6.205 11.826 15.201 11.826 26.04h3.779c0-11.902-4.55-21.81-13.14-28.682-7.568-6.06-17.843-9.363-28.936-9.363-21.961 0-44.21 13.08-44.21 38.05"/><clipPath id="2"><path id="path346148" d="m47 24c0 12.708-10.304 23-23 23-12.696 0-23-10.292-23-23 0-12.708 10.304-23 23-23 12.696 0 23 10.292 23 23" style="fill:#1890d0;stroke-width:15.333"/></clipPath><clipPath id="1"><path id="path346151" d="m47 24c0 12.708-10.304 23-23 23-12.696 0-23-10.292-23-23 0-12.708 10.304-23 23-23 12.696 0 23 10.292 23 23" style="fill:#1890d0;stroke-width:15.333"/></clipPath><clipPath id="clipPath346153"><rect id="rect346155" width="84" height="84" x="6" y="6" rx="6" style="fill:#fff"/></clipPath><clipPath id="3"><path id="path346161" d="m47 24c0 12.708-10.304 23-23 23-12.696 0-23-10.292-23-23 0-12.708 10.304-23 23-23 12.696 0 23 10.292 23 23" style="fill:#1890d0;stroke-width:15.333"/></clipPath><filter id="filter346163" style="color-interpolation-filters:sRGB"><feGaussianBlur id="feGaussianBlur346165" stdDeviation="1.71"/></filter><filter id="filter346167" width="1.384" height="1.384" x="-.192" y="-.192" style="color-interpolation-filters:sRGB"><feGaussianBlur id="feGaussianBlur346169" stdDeviation="5.28"/></filter><linearGradient id="0" x2="0" y1="92.54" y2="7.02" gradientTransform="scale(1.0059.99417)" gradientUnits="userSpaceOnUse"><stop id="stop346172"/><stop id="stop346174" offset="1" style="stop-opacity:.588"/></linearGradient><linearGradient id="linearGradient346176" x2="0" y1="92.54" y2="7.02" gradientTransform="scale(1.0059.99417)" gradientUnits="userSpaceOnUse" xlink:href="#0"/><linearGradient id="linearGradient346178" x2="0" y1="20.221" y2="138.66" gradientUnits="userSpaceOnUse"><stop id="stop346180" style="stop-color:#fff"/><stop id="stop346182" offset="1" style="stop-color:#fff;stop-opacity:0"/></linearGradient><linearGradient id="linearGradient346184" x2="0" y1="92.54" y2="7.02" gradientTransform="scale(1.0059.99417)" gradientUnits="userSpaceOnUse" xlink:href="#0"/><linearGradient id="linearGradient346186" x2="0" y1="92.54" y2="7.02" gradientTransform="scale(1.0059.99417)" gradientUnits="userSpaceOnUse" xlink:href="#0"/><linearGradient id="linearGradient346188" x2="0" y1="92.54" y2="7.02" gradientTransform="scale(1.0059.99417)" gradientUnits="userSpaceOnUse"><stop id="stop346190"/><stop id="stop346192" offset="1" style="stop-opacity:.588"/></linearGradient></defs><path style="fill:#5791b5" id="path346194" d="M 26,0 C 11.603,0 0,11.603 0,26 l 0,460 c 0,14.397 11.603,26 26,26 l 460,0 c 14.397,0 26,-11.603 26,-26 L 512,26 C 512,11.603 500.397,0 486,0 L 26,0"/><path id="path346198" d="m 255.99921,40.99964 c -119.12001,0 -215.00001,95.84094 -215,214.96093 0,59.57 23.98051,113.33899 62.85351,152.20899 0.0273,0.0273 0.0547,0.0547 0.082,0.082 l 103.74805,103.74805 278.31641,0 c 14.397,0 26,-11.603 26,-26 l 0,-278.36133 -103.8086,-103.80859 c -38.862,-38.862 -92.62141,-62.83008 -152.1914,-62.83008 z" style="opacity:.25"/><path style="fill:#fff" id="path346238" d="M 256,41 C 136.88,41 41,136.84 41,255.96 41,375.08 136.88,471 256,471 375.12,471 471,375.07 471,255.96 471,136.84 375.12,41 256,41 m 0,27.949 c 103.65,0 187.09,83.36 187.09,187.01 0,58.6 -26.666,110.78 -68.59,145.04 l 0,-162.74 c 10e-4,-0.058 -10e-4,-0.113 0,-0.171 l -118.38,-69.62 -0.128,0.085 -0.128,-0.085 -118.38,69.62 c 0.001,0.058 -0.001,0.113 0,0.171 l 0,162.74 c -41.923,-34.26 -68.59,-86.44 -68.59,-145.04 0,-103.65 83.45,-187.01 187.09,-187.01"/><path style="fill:#f38725" id="path356783" d="m 256,196.46 94.81,55.813 0,79.13 0,86.06 c -27.777,16.296 -60.16,25.61 -94.81,25.61 -34.656,0 -67.04,-9.314 -94.81,-25.61 l 0,-86.06 0,-79.13 L 256,196.46"/><path style="fill:#fff" id="path356785" d="m 213.97,260.59 41.903,13.997 0.13,-0.043 0.13,0.043 41.903,-13.997 -0.303,0 -83.46,0 -0.303,0"/></svg>