<svg xmlns="http://www.w3.org/2000/svg" xmlns:svg="http://www.w3.org/2000/svg" id="svg2" width="100%" height="100%" version="1.1" viewBox="0 0 512 512"><metadata id="metadata10"/><path id="path382558" d="M 26,0 C 11.603,0 0,11.603 0,26 l 0,460 c 0,14.397 11.603,26 26,26 l 460,0 c 14.397,0 26,-11.603 26,-26 L 512,26 C 512,11.603 500.397,0 486,0 L 26,0" style="fill:#7f45b0"/><path id="path382608" d="M 220.50977 154.4707 L 205.54688 227.49805 L 188.36914 210.32031 C 180.12814 202.07931 167.45284 197.30953 150.33984 196.26953 L 199.77539 245.70508 C 199.77525 245.70832 199.77553 245.7116 199.77539 245.71484 L 150.33984 196.2793 L 74.009766 196.2793 L 41 357.5293 L 195.4707 512 L 486 512 C 500.397 512 512 500.397 512 486 L 512 262.82031 L 459.50977 210.33008 C 451.26177 202.08208 438.57322 197.29953 421.44922 196.26953 L 421.45898 196.2793 L 345.13086 196.2793 L 339.32227 224.65234 L 323.11914 208.44922 C 318.70813 204.03821 312.27942 200.60371 303.71875 198.47852 L 259.71094 154.4707 L 220.50977 154.4707 z" style="fill-rule:evenodd;opacity:.25"/><path id="path382692" d="m 220.51,154.47 -33.04,161.25 39.2,0 18.579,-89.59 30.965,0 c 14.443,0 14.42,5.967 12.357,15.92 l -14.431,73.67 41.28,0 14.431,-81.62 c 4.127,-19.907 -8.264,-35.839 -41.28,-37.829 l -37.13,0 8.267,-41.802 -39.2,0 m -146.5,41.802 -33.01,161.25 39.2,0 8.238,-41.802 37.13,0 c 35.08,1.991 74.29,-25.895 74.29,-73.67 0,-27.87 -16.501,-43.784 -49.51,-45.775 l -76.33,0 m 271.12,0 -33.01,161.25 39.2,0 8.238,-41.802 37.16,0 c 35.08,1.991 74.29,-25.895 74.29,-73.67 0,-27.87 -16.531,-43.784 -49.544,-45.775 l -76.33,0 m -238.11,29.855 26.817,0 c 14.443,0 24.772,5.962 24.772,17.907 -2.063,33.843 -18.588,39.841 -37.16,41.832 l -24.743,0 10.312,-59.738 m 271.12,0 26.817,0 c 14.443,0 24.772,5.962 24.772,17.907 -2.063,33.843 -18.588,39.841 -37.16,41.832 l -24.743,0 10.312,-59.738" style="fill:#fff;fill-rule:evenodd"/></svg>