<?xml version="1.0" encoding="UTF-8" standalone="no"?>
<!-- Created with Inkscape (http://www.inkscape.org/) -->
<svg id="svg2" xmlns:rdf="http://www.w3.org/1999/02/22-rdf-syntax-ns#" xmlns="http://www.w3.org/2000/svg" height="100%" width="100%" version="1.1" xmlns:cc="http://creativecommons.org/ns#" viewBox="0 0 512 512" xmlns:dc="http://purl.org/dc/elements/1.1/">
 <metadata id="metadata74">
  <rdf:RDF>
   <cc:Work rdf:about="">
    <dc:format>image/svg+xml</dc:format>
    <dc:type rdf:resource="http://purl.org/dc/dcmitype/StillImage"/>
   </cc:Work>
  </rdf:RDF>
 </metadata>
 <path id="path20" d="m26 0c-14.397 0-26 11.603-26 26v460c0 14.397 11.603 26 26 26h460c14.397 0 26-11.603 26-26v-460c0-14.397-11.6-26-26-26h-460" fill="#f93538"/>
 <text id="text22" style="word-spacing:0;letter-spacing:0" font-size="129.23px" line-height="125%" y="144.07001" x="78.010002" font-family="Gentium Book Basic">
  <tspan id="tspan24" y="144.07001" x="78.010002"/>
 </text>
 <text id="text26" style="text-anchor:middle" transform="scale(4.0128 .2492)" font-size="46.954px" y="228.99001" x="216.52" font-family="Arial"/>
 <text id="text28" style="word-spacing:0;letter-spacing:0" font-size="129.23px" line-height="125%" y="64.07" x="659.28003" font-family="Gentium Book Basic">
  <tspan id="tspan30" y="64.07" x="659.28003"/>
 </text>
 <text id="text32" style="text-anchor:middle" transform="scale(4.0128 .2492)" font-size="46.954px" y="-92.040001" x="361.37" font-family="Arial"/>
 <text id="text34" style="word-spacing:0;letter-spacing:0" font-size="129.23px" line-height="125%" y="-117.19" x="-412.29999" font-family="Gentium Book Basic">
  <tspan id="tspan36" y="-117.19" x="-412.29999"/>
 </text>
 <text id="text38" style="text-anchor:middle" transform="scale(4.0128 .2492)" font-size="46.954px" y="-819.39001" x="94.330002" font-family="Arial"/>
 <text id="text40" style="word-spacing:0;letter-spacing:0" font-size="129.23px" line-height="125%" y="-333.66" x="685.75" font-family="Gentium Book Basic">
  <tspan id="tspan42" y="-333.66" x="685.75"/>
 </text>
 <text id="text44" style="text-anchor:middle" transform="scale(4.0128 .2492)" font-size="46.954px" y="-1688.0699" x="367.97" font-family="Arial"/>
 <text id="text46" style="word-spacing:0;letter-spacing:0" font-size="129.23px" line-height="125%" y="-413.66" x="1267.02" font-family="Gentium Book Basic">
  <tspan id="tspan48" y="-413.66" x="1267.02"/>
 </text>
 <text id="text50" style="text-anchor:middle" transform="scale(4.0128 .2492)" font-size="46.954px" y="-2009.09" x="512.82001" font-family="Arial"/>
 <text id="text52" style="word-spacing:0;letter-spacing:0" font-size="129.23px" line-height="125%" y="-886.06" x="877.90002" font-family="Gentium Book Basic">
  <tspan id="tspan54" y="-886.06" x="877.90002"/>
 </text>
 <text id="text56" style="text-anchor:middle" transform="scale(4.0128 .2492)" font-size="46.954px" y="-3904.74" x="415.85001" font-family="Arial"/>
 <text id="text58" style="word-spacing:0;letter-spacing:0" font-size="129.23px" line-height="125%" y="-966.07001" x="1459.16" font-family="Gentium Book Basic">
  <tspan id="tspan60" y="-966.07001" x="1459.16"/>
 </text>
 <text id="text62" style="text-anchor:middle" transform="scale(4.0128 .2492)" font-size="46.954px" y="-4225.7798" x="560.70001" font-family="Arial"/>
 <text id="text64" style="word-spacing:0;letter-spacing:0" font-size="208.33px" line-height="125%" y="448.64999" x="-373.64001" font-family="Gentium Book Basic">
  <tspan id="tspan66" y="448.64999" x="-373.64001"/>
 </text>
 <path id="path68" opacity=".25" d="m256 41c-29.893 0-58.32 6.132-84.19 17.16l185.72 185.72v19.906l-71.28-71.28h-5.688l-40.25-40.25-91.62-82.53c-64.33 37.16-107.69 106.65-107.69 186.28 0 22.536 3.476 44.34 9.906 64.75l16.938 16.938-7.625 6.781c10.834 23.926 25.887 45.575 44.22 63.906l103.63 103.63h277.94c14.397 0 26-11.603 26-26v-278.06l-104-104c-14.84-14.85-31.82-27.533-50.47-37.54v13.06l-23.9-23.906c-24.1-9.344-50.23-14.563-77.62-14.563"/>
 <path id="path70" d="m256 41c-29.893 0-58.33 6.125-84.19 17.15l161.82 145.8v-148.39c-24.1-9.344-50.23-14.558-77.63-14.558m101.52 25.401v249.3h105.06c5.463-18.947 8.424-38.995 8.424-59.701 0-82.02-45.944-153.35-113.48-189.6m-208.82 3.326c-64.33 37.16-107.69 106.65-107.69 186.27 0 22.536 3.462 44.34 9.893 64.755l189.43-168.52-91.62-82.51m123.25 122.77-68.21 117.98h-11.145l-1.685 8.985h35.725l1.685-8.985h-13.953l16.07-27.906h53.39l5.184 27.906h-14.08l-1.728 8.985h46.18l1.728-8.985h-12.441l-22.42-117.98h-14.299m-1.21 20.606 11.577 60.35h-46.611l35.03-60.35m-116.25 47.562-94.26 83.81c19.533 43.14 52.728 78.84 94.26 101.13v-184.93m23.889 78.924v116.85c24.1 9.344 50.23 14.558 77.63 14.558 89.05 0 165.34-54.25 197.98-131.41h-275.61" fill="#fff"/>
</svg>
