<?xml version="1.0" encoding="UTF-8" standalone="no"?>
<!-- Created with Inkscape (http://www.inkscape.org/) -->
<svg id="svg2" xmlns:rdf="http://www.w3.org/1999/02/22-rdf-syntax-ns#" xmlns="http://www.w3.org/2000/svg" height="100%" width="100%" version="1.1" xmlns:cc="http://creativecommons.org/ns#" viewBox="0 0 512 512" xmlns:dc="http://purl.org/dc/elements/1.1/">
 <metadata id="metadata60">
  <rdf:RDF>
   <cc:Work rdf:about="">
    <dc:format>image/svg+xml</dc:format>
    <dc:type rdf:resource="http://purl.org/dc/dcmitype/StillImage"/>
   </cc:Work>
  </rdf:RDF>
 </metadata>
 <path id="path4" d="m26 0c-14.397 0-26 11.603-26 26v460c0 14.397 11.603 26 26 26h460c14.397 0 26-11.603 26-26v-460c0-14.397-11.6-26-26-26h-460" fill="#3689e6"/>
 <text id="text6" style="word-spacing:0;letter-spacing:0" font-size="129.23px" line-height="125%" y="218.64999" x="31.83" font-family="Gentium Book Basic">
  <tspan id="tspan8" y="218.64999" x="31.83"/>
 </text>
 <text id="text10" style="text-anchor:middle" transform="scale(4.0128 .2492)" font-size="46.954px" y="528.23999" x="205.00999" font-family="Arial"/>
 <text id="text12" style="word-spacing:0;letter-spacing:0" font-size="129.23px" line-height="125%" y="138.64999" x="613.09998" font-family="Gentium Book Basic">
  <tspan id="tspan14" y="138.64999" x="613.09998"/>
 </text>
 <text id="text16" style="text-anchor:middle" transform="scale(4.0128 .2492)" font-size="46.954px" y="207.2" x="349.85999" font-family="Arial"/>
 <text id="text18" style="word-spacing:0;letter-spacing:0" font-size="129.23px" line-height="125%" y="-42.613998" x="-458.48001" font-family="Gentium Book Basic">
  <tspan id="tspan20" y="-42.613998" x="-458.48001"/>
 </text>
 <text id="text22" style="text-anchor:middle" transform="scale(4.0128 .2492)" font-size="46.954px" y="-520.15002" x="82.82" font-family="Arial"/>
 <text id="text24" style="word-spacing:0;letter-spacing:0" font-size="129.23px" line-height="125%" y="-259.07999" x="639.57001" font-family="Gentium Book Basic">
  <tspan id="tspan26" y="-259.07999" x="639.57001"/>
 </text>
 <text id="text28" style="text-anchor:middle" transform="scale(4.0128 .2492)" font-size="46.954px" y="-1388.8199" x="356.45999" font-family="Arial"/>
 <text id="text30" style="word-spacing:0;letter-spacing:0" font-size="129.23px" line-height="125%" y="-339.07999" x="1220.84" font-family="Gentium Book Basic">
  <tspan id="tspan32" y="-339.07999" x="1220.84"/>
 </text>
 <text id="text34" style="text-anchor:middle" transform="scale(4.0128 .2492)" font-size="46.954px" y="-1709.85" x="501.31" font-family="Arial"/>
 <text id="text36" style="word-spacing:0;letter-spacing:0" font-size="129.23px" line-height="125%" y="-811.47998" x="831.71997" font-family="Gentium Book Basic">
  <tspan id="tspan38" y="-811.47998" x="831.71997"/>
 </text>
 <text id="text40" style="text-anchor:middle" transform="scale(4.0128 .2492)" font-size="46.954px" y="-3605.5" x="404.34" font-family="Arial"/>
 <text id="text42" style="word-spacing:0;letter-spacing:0" font-size="129.23px" line-height="125%" y="-891.48999" x="1412.98" font-family="Gentium Book Basic">
  <tspan id="tspan44" y="-891.48999" x="1412.98"/>
 </text>
 <text id="text46" style="text-anchor:middle" transform="scale(4.0128 .2492)" font-size="46.954px" y="-3926.54" x="549.19" font-family="Arial"/>
 <text id="text48" style="word-spacing:0;letter-spacing:0" font-size="208.33px" line-height="125%" y="523.22998" x="-419.82001" font-family="Gentium Book Basic">
  <tspan id="tspan50" y="523.22998" x="-419.82001"/>
 </text>
 <path id="path52" opacity=".25" d="m290 59.41c-7.75 0-13.969 6.25-13.969 14v128.75c0 3.875 1.54 7.353 4.063 9.875l86.28 86.28h-3.75l-169.03-169.03c-2.522-2.522-6.03-4.063-9.906-4.063h-128.71c-7.75 0-13.969 6.218-13.969 13.969v108.41c0 3.875 1.54 7.353 4.063 9.875l150.47 150.47v30.688c0 3.864 1.573 7.354 4.094 9.875l63.5 63.5h222.88c14.397 0 26-11.603 26-26v-377.41l-45.09-45.09c-2.534-2.534-6.03-4.094-9.906-4.094h-167"/>
 <path id="path54" d="m289.98 59.41c-7.75 0-13.965 6.259-13.965 14.01v128.73c0 7.75 6.215 13.965 13.965 13.965h167.01c7.75 0 14.01-6.215 14.01-13.965v-128.74c0-7.75-6.259-14.01-14.01-14.01h-167.01m-235.02 65.8c-7.75 0-13.965 6.215-13.965 13.965v108.41c0 7.75 6.215 13.965 13.965 13.965h128.73c7.75 0 13.965-6.215 13.965-13.965v-108.41c0-7.75-6.215-13.965-13.965-13.965h-128.74m154.59 173.1c-7.75 0-14.01 6.215-14.01 13.965v126.35c0 7.75 6.259 13.965 14.01 13.965h183.76c7.75 0 14.01-6.215 14.01-13.965v-126.35c0-7.75-6.259-13.965-14.01-13.965h-183.76" fill="#fff"/>
</svg>
