<?xml version="1.0" encoding="UTF-8" standalone="no"?>
<svg id="svg2" xmlns:rdf="http://www.w3.org/1999/02/22-rdf-syntax-ns#" xmlns="http://www.w3.org/2000/svg" height="100%" viewBox="0 0 512 512" width="100%" version="1.1" xmlns:cc="http://creativecommons.org/ns#" xmlns:xlink="http://www.w3.org/1999/xlink" xmlns:dc="http://purl.org/dc/elements/1.1/">
 <metadata id="metadata10">
  <rdf:RDF>
   <cc:Work rdf:about="">
    <dc:format>image/svg+xml</dc:format>
    <dc:type rdf:resource="http://purl.org/dc/dcmitype/StillImage"/>
    <dc:title/>
   </cc:Work>
  </rdf:RDF>
 </metadata>
 <defs id="defs8">
  <linearGradient id="linearGradient4216-1">
   <stop id="stop4218-0" stop-color="#fff" offset="0"/>
   <stop id="stop4220-2" stop-color="#e8e8e8" offset=".6875"/>
   <stop id="stop4222-6" stop-color="#686868" offset=".875"/>
   <stop id="stop4224-6" offset="1"/>
  </linearGradient>
  <radialGradient id="radialGradient21305" cx="64" xlink:href="#linearGradient4216-1" gradientUnits="userSpaceOnUse" cy="64" r="64" gradientTransform="matrix(4.1658 0 0 3.8875 -39.924 -73.947)"/>
  <radialGradient id="radialGradient21305-0" xlink:href="#linearGradient4216-1" gradientUnits="userSpaceOnUse" cy="64" cx="64" gradientTransform="matrix(4.1658 0 0 3.8875 1383.5 -189.35)" r="64"/>
  <linearGradient id="ButtonShadow" y2="7.0165" gradientUnits="userSpaceOnUse" x2="45.448" gradientTransform="scale(1.0059 .99417)" y1="92.54" x1="45.448">
   <stop id="stop3750-1" offset="0"/>
   <stop id="stop3752-6" stop-opacity=".58824" offset="1"/>
  </linearGradient>
  <filter id="filter3174" color-interpolation-filters="sRGB">
   <feGaussianBlur id="feGaussianBlur3176" stdDeviation="1.71"/>
  </filter>
  <filter id="filter3174-2" color-interpolation-filters="sRGB">
   <feGaussianBlur id="feGaussianBlur3176-21" stdDeviation="1.71"/>
  </filter>
  <filter id="filter3174-5" color-interpolation-filters="sRGB">
   <feGaussianBlur id="feGaussianBlur3176-2" stdDeviation="1.71"/>
  </filter>
  <linearGradient id="linearGradient6148" y2="7.0165" xlink:href="#ButtonShadow" gradientUnits="userSpaceOnUse" y1="92.54" gradientTransform="scale(1.0059 .99417)" x2="45.448" x1="45.448"/>
  <filter id="filter3174-3" color-interpolation-filters="sRGB">
   <feGaussianBlur id="feGaussianBlur3176-9" stdDeviation="1.71"/>
  </filter>
  <radialGradient id="radialGradient26869" xlink:href="#linearGradient4216-1" gradientUnits="userSpaceOnUse" cy="64" cx="64" gradientTransform="matrix(4.1658 0 0 3.8875 52.766 -98.917)" r="64"/>
  <radialGradient id="radialGradient26875" xlink:href="#linearGradient4216-1" gradientUnits="userSpaceOnUse" cy="64" cx="64" gradientTransform="matrix(4.1658 0 0 3.8875 1476.2 -214.32)" r="64"/>
  <filter id="filter3174-38" color-interpolation-filters="sRGB">
   <feGaussianBlur id="feGaussianBlur3176-7" stdDeviation="1.71"/>
  </filter>
  <filter id="filter3174-5-6" color-interpolation-filters="sRGB">
   <feGaussianBlur id="feGaussianBlur3176-2-7" stdDeviation="1.71"/>
  </filter>
  <filter id="filter3174-3-3" color-interpolation-filters="sRGB">
   <feGaussianBlur id="feGaussianBlur3176-9-1" stdDeviation="1.71"/>
  </filter>
  <radialGradient id="radialGradient26869-2" cx="64" xlink:href="#linearGradient4216-1" gradientUnits="userSpaceOnUse" cy="64" r="64" gradientTransform="matrix(4.1658 0 0 3.8875 49.28 -97.978)"/>
  <radialGradient id="radialGradient26875-4" cx="64" xlink:href="#linearGradient4216-1" gradientUnits="userSpaceOnUse" cy="64" r="64" gradientTransform="matrix(4.1658 0 0 3.8875 1472.7 -213.38)"/>
  <filter id="filter3174-6" color-interpolation-filters="sRGB">
   <feGaussianBlur id="feGaussianBlur3176-8" stdDeviation="1.71"/>
  </filter>
  <filter id="filter3174-5-3" color-interpolation-filters="sRGB">
   <feGaussianBlur id="feGaussianBlur3176-2-9" stdDeviation="1.71"/>
  </filter>
  <filter id="filter3174-3-2" color-interpolation-filters="sRGB">
   <feGaussianBlur id="feGaussianBlur3176-9-9" stdDeviation="1.71"/>
  </filter>
  <radialGradient id="radialGradient26869-3" xlink:href="#linearGradient4216-1" gradientUnits="userSpaceOnUse" cy="64" cx="64" gradientTransform="matrix(4.1658 0 0 3.8875 85.198 -107.65)" r="64"/>
  <radialGradient id="radialGradient26875-7" xlink:href="#linearGradient4216-1" gradientUnits="userSpaceOnUse" cy="64" cx="64" gradientTransform="matrix(4.1658 0 0 3.8875 1508.6 -223.05)" r="64"/>
  <radialGradient id="radialGradient21305-0-3" xlink:href="#linearGradient4216-1" gradientUnits="userSpaceOnUse" cy="64" cx="64" gradientTransform="matrix(4.1658 0 0 3.8875 1443.1 -258.29)" r="64"/>
  <radialGradient id="radialGradient21305-6-1" gradientUnits="userSpaceOnUse" xlink:href="#linearGradient4216-1" cx="64" cy="64" r="64" gradientTransform="matrix(4.1658 0 0 3.8875 19.688 -142.89)"/>
  <filter id="filter3174-5-0" color-interpolation-filters="sRGB">
   <feGaussianBlur id="feGaussianBlur3176-2-3" stdDeviation="1.71"/>
  </filter>
  <filter id="filter3174-39" color-interpolation-filters="sRGB">
   <feGaussianBlur id="feGaussianBlur3176-1" stdDeviation="1.71"/>
  </filter>
  <style id="style5970" type="text/css"/>
  <radialGradient id="radialGradient21305-72" xlink:href="#linearGradient4216-1" gradientUnits="userSpaceOnUse" cy="64" cx="64" gradientTransform="matrix(4.1658 0 0 3.8875 73.404 -104.48)" r="64"/>
  <radialGradient id="radialGradient21305-2" xlink:href="#linearGradient4216-1" gradientUnits="userSpaceOnUse" cy="64" cx="64" gradientTransform="matrix(4.1658 0 0 3.8875 -14.144 -76.376)" r="64"/>
  <filter id="filter3174-7" color-interpolation-filters="sRGB">
   <feGaussianBlur id="feGaussianBlur3176-5" stdDeviation="1.71"/>
  </filter>
  <linearGradient id="ButtonShadow-5" y2="7.0165" gradientUnits="userSpaceOnUse" x2="45.448" gradientTransform="scale(1.0059 .99417)" y1="92.54" x1="45.448">
   <stop id="stop3750" offset="0"/>
   <stop id="stop3752" stop-opacity=".58824" offset="1"/>
  </linearGradient>
  <linearGradient id="linearGradient3158" y2="7.0165" xlink:href="#ButtonShadow-5" gradientUnits="userSpaceOnUse" x2="45.448" gradientTransform="scale(1.0059 .99417)" y1="92.54" x1="45.448"/>
  <style id="style5970-4" type="text/css"/>
  <filter id="filter3174-61" color-interpolation-filters="sRGB">
   <feGaussianBlur id="feGaussianBlur3176-3" stdDeviation="1.71"/>
  </filter>
  <path id="0" d="m206.03 244.69c0 11.196-9.08 20.273-20.273 20.273-11.196 0-20.273-9.08-20.273-20.273 0-11.196 9.08-20.273 20.273-20.273 11.196 0 20.273 9.08 20.273 20.273"/>
  <clipPath id="1-1-8">
   <path id="path8-2" d="m26 0c-14.397 0-26 11.603-26 26v460c0 14.397 11.603 26 26 26h460c14.397 0 26-11.603 26-26v-460c0-14.397-11.6-26-26-26h-460"/>
  </clipPath>
 </defs>
 <path id="path4230" d="m273.04 165.47c-2.1202 7.3447-36.402 181.33-29.267 189.98 6.1765 7.4828 15.826 4.2405 17.946-3.1042-2.1202 7.3447-6.3607 22.034-8.4809 29.379-17.946 3.1042-33.92-0.81668-37.444-17.946-4.0713-19.793 27.134-182.59 29.267-189.98-4.7411-8.958-29.531-15.826-33.772-1.1362l-7.9128-2.1202c18.514-34.603 53.838-9.3127 69.663-5.0722z" display="none"/>
 <path id="path4232" d="m250.86 183.26c-26.427 32.483-124.22 164.54-147.96 158.17l-15.826-4.2405 12.153-12.569 7.9128 2.1202c15.826 4.2405 123.65-133.04 140.05-160.3 12.573-20.906 3.6724 16.81 3.6724 16.81z" display="none"/>
 <path id="path4234" d="m187.97 253.45 47.477 12.721-4.2405 14.689-55.39-14.842z" display="none"/>
 <ellipse id="path3281-0-0" rx="266.61" transform="matrix(.96593 .25882 -.27735 .96077 0 0)" ry="248.8" cy="174.85" cx="226.69" display="none" fill="url(#radialGradient21305)"/>
 <path id="path4230-0" d="m273.04 165.47c-2.1202 7.3447-36.402 181.33-29.267 189.98 6.1765 7.4828 15.826 4.2405 17.946-3.1042-2.1202 7.3447-6.3607 22.034-8.4809 29.379-17.946 3.1042-33.92-0.81668-37.444-17.946-4.0713-19.793 27.134-182.59 29.267-189.98-4.7411-8.958-29.531-15.826-33.772-1.1362l-7.9128-2.1202c18.514-34.603 53.838-9.3127 69.663-5.0722z" display="none"/>
 <path id="path4232-1" d="m250.86 183.26c-26.427 32.483-124.22 164.54-147.96 158.17l-15.826-4.2405 12.153-12.569 7.9128 2.1202c15.826 4.2405 123.65-133.04 140.05-160.3 12.573-20.906 3.6724 16.81 3.6724 16.81z" display="none"/>
 <path id="path4234-6" d="m187.97 253.45 47.477 12.721-4.2405 14.689-55.39-14.842z" display="none"/>
 <ellipse id="path3281-0-0-1" rx="266.61" transform="matrix(.96593 .25882 -.27735 .96077 0 0)" ry="248.8" cy="174.85" cx="226.69" display="none" fill="url(#radialGradient21305)"/>
 <path id="path4230-8" d="m1680 423c-2.1203 7.3447-36.402 181.33-29.267 189.98 6.1765 7.4828 15.826 4.2405 17.946-3.1042-2.1203 7.3447-6.3607 22.034-8.481 29.379-17.946 3.1042-33.92-0.81668-37.444-17.946-4.0713-19.793 27.134-182.59 29.267-189.98-4.7412-8.958-29.531-15.826-33.772-1.1362l-7.9128-2.1202c18.514-34.603 53.838-9.3127 69.663-5.0722z" display="none"/>
 <path id="path4232-9" d="m1657.8 440.8c-26.427 32.483-124.22 164.54-147.96 158.17l-15.826-4.2405 12.153-12.569 7.9128 2.1202c15.826 4.2405 123.65-133.04 140.05-160.3 12.573-20.906 3.6723 16.81 3.6723 16.81z" display="none"/>
 <path id="path4234-5" d="m1594.9 510.99 47.477 12.721-4.2405 14.689-55.39-14.842z" display="none"/>
 <ellipse id="path3281-0-0-6" rx="266.61" transform="matrix(.96593 .25882 -.27735 .96077 0 0)" ry="248.8" cy="59.452" cx="1650.1" display="none" fill="url(#radialGradient21305-0)"/>
 <g id="layer2" display="none" transform="matrix(6.7274 0 0 6.7274 -2789.7 -809.34)">
  <rect id="rect3745" opacity=".9" rx="6" ry="6" height="85" filter="url(#filter3174)" width="86" y="7" x="5" fill="url(#ButtonShadow)"/>
 </g>
 <g id="layer2-8" display="none" transform="matrix(6.7274 0 0 6.7274 -2077.1 -889.77)">
  <rect id="rect3745-5" opacity=".9" rx="6" ry="6" height="85" filter="url(#filter3174-2)" width="86" y="7" x="5" fill="url(#linearGradient6148)"/>
 </g>
 <g id="layer2-3" display="none" transform="matrix(6.7274 0 0 6.7274 -2077.1 -889.77)">
  <rect id="rect3745-8" opacity=".9" rx="6" ry="6" height="85" filter="url(#filter3174-5)" width="86" y="7" x="5" fill="url(#linearGradient6148)"/>
 </g>
 <path id="path3848" d="m-785.82-490.39c-31.718 0.73046-61.283 23.617-71.031 53.75-10.408 29.448-0.1539 63.832 23.031 84.219 0.2111 0.18773 0.44298 0.34587 0.65625 0.53125 0.0607 0.0539 0.12666 0.1025 0.1875 0.15625 0.53347 0.4555 1.0471 0.93438 1.5938 1.375 0.0982 0.0801 0.21385 0.13919 0.3125 0.21875 0.0114 0.009 0.0198 0.0222 0.0312 0.0312 0.0924 0.0753 0.18851 0.14387 0.28125 0.21875 0.0114 0.009 0.0198 0.0222 0.0312 0.0312 0.081 0.066 0.16873 0.1218 0.25 0.1875 0.0115 0.009 0.0197 0.0223 0.0312 0.0312 0.0114 0.009 0.0198 0.0222 0.0312 0.0312 0.0682 0.0557 0.11908 0.13204 0.1875 0.1875 0.0806 0.0661 0.16909 0.12176 0.25 0.1875 0.26263 0.21589 0.51553 0.44392 0.78125 0.65625 0.0113 0.009 0.0199 0.0221 0.0312 0.0312v77.719l366.09 366.06h61.812c0.19472-5.1667 0.39905-10.333 0.59375-15.5l15.5-0.5625v-71.125c-0.11718-3.5064-0.66635-7.1765 2.9688-9.0938 17.971-15.566 29.967-38.912 28.375-63.031 0.24347-20.205-8.8362-39.465-23.031-53.562-0.13063-0.13149-0.27474-0.2444-0.40625-0.375l-343.31-342.94c-1.6885-1.8492-3.3938-3.742-5.125-5.5-0.12897-0.13157-0.24515-0.27555-0.375-0.40625-14.005-14.287-33.185-23.492-53.375-23.375-2.1284-0.1527-4.2605-0.20495-6.375-0.15625z" fill-opacity=".39216" display="none"/>
 <path id="path11978" d="m-725.7-466.45c1.4663 1.516 2.9049 3.0642 4.25 4.6875 1.5801 1.907 3.0707 3.8973 4.4688 5.9375 1.398 2.0402 2.7063 4.1239 3.9062 6.2812 1.1999 2.1574 2.2954 4.3665 3.2812 6.625 0.98586 2.2585 1.8379 4.594 2.5938 6.9375 0.75581 2.3435 1.3964 4.7125 1.9062 7.125s0.90844 4.847 1.1562 7.3125c0.24781 2.4655 0.34265 4.9664 0.3125 7.4688 0.19898 3.0149 0.21091 6.023 0 9s-0.62772 5.932-1.2188 8.8438c-0.59103 2.9118-1.3711 5.7746-2.3125 8.5938-0.94136 2.8192-2.0506 5.582-3.3125 8.2812s-2.666 5.3231-4.2188 7.875c-1.5527 2.5519-3.2488 5.029-5.0625 7.4062s-3.7676 4.6686-5.8125 6.8438-4.1912 4.2418-6.4375 6.1875c-0.90877 0.47931-1.5415 1.0487-2 1.7188-0.45846 0.67003-0.72299 1.4189-0.875 2.2188-0.30402 1.5996-0.15234 3.403-0.0937 5.1562v71.125h-16.094v16.062h-61.812l350 350h61.812c0.19472-5.1667 0.39905-10.333 0.59375-15.5l15.5-0.5625v-71.125c-0.11718-3.5064-0.66635-7.1765 2.9688-9.0938 17.971-15.566 29.967-38.912 28.375-63.031 0.2435-20.205-8.8362-39.465-23.031-53.562-0.13063-0.13149-0.27474-0.2444-0.40625-0.375l-343.31-342.94c-1.6885-1.8492-3.3939-3.742-5.125-5.5zm-87.375 211.69v-16.062h-16.094l16.094 16.062z" fill-opacity=".39216" display="none"/>
 <path id="path11980" d="m-998.29-281.7 425.16 425.12v-125.12l-300-300z" fill-opacity=".39216" display="none"/>
 <g id="layer2-4" display="none" transform="matrix(6.7274 0 0 6.7274 -2834.4 -809.34)">
  <rect id="rect3745-3" opacity=".9" rx="6" ry="6" height="85" filter="url(#filter3174-3)" width="86" y="7" x="5" fill="url(#linearGradient6148)"/>
 </g>
 <path id="path4230-3" d="m369.5 165.47c-2.1202 7.3447-36.402 181.33-29.267 189.98 6.1765 7.4828 15.826 4.2405 17.946-3.1042-2.1202 7.3447-6.3607 22.034-8.4809 29.379-17.946 3.1042-33.92-0.81668-37.444-17.946-4.0713-19.793 27.134-182.59 29.267-189.98-4.7411-8.958-29.531-15.826-33.772-1.1362l-7.9128-2.1202c18.514-34.603 53.838-9.3127 69.663-5.0722z" display="none"/>
 <path id="path4232-8" d="m347.31 183.26c-26.427 32.483-124.22 164.54-147.96 158.17l-15.826-4.2405 12.153-12.569 7.9128 2.1202c15.826 4.2405 123.65-133.04 140.05-160.3 12.573-20.906 3.6724 16.81 3.6724 16.81z" display="none"/>
 <path id="path4234-62" d="m284.43 253.45 47.477 12.721-4.2405 14.689-55.39-14.842z" display="none"/>
 <ellipse id="path3281-0-0-9" rx="266.61" transform="matrix(.96593 .25882 -.27735 .96077 0 0)" ry="248.8" cy="149.88" cx="319.38" display="none" fill="url(#radialGradient26869)"/>
 <path id="path4230-0-4" d="m369.5 165.47c-2.1202 7.3447-36.402 181.33-29.267 189.98 6.1765 7.4828 15.826 4.2405 17.946-3.1042-2.1202 7.3447-6.3607 22.034-8.4809 29.379-17.946 3.1042-33.92-0.81668-37.444-17.946-4.0713-19.793 27.134-182.59 29.267-189.98-4.7411-8.958-29.531-15.826-33.772-1.1362l-7.9128-2.1202c18.514-34.603 53.838-9.3127 69.663-5.0722z" display="none"/>
 <path id="path4232-1-3" d="m347.31 183.26c-26.427 32.483-124.22 164.54-147.96 158.17l-15.826-4.2405 12.153-12.569 7.9128 2.1202c15.826 4.2405 123.65-133.04 140.05-160.3 12.573-20.906 3.6724 16.81 3.6724 16.81z" display="none"/>
 <path id="path4234-6-2" d="m284.43 253.45 47.477 12.721-4.2405 14.689-55.39-14.842z" display="none"/>
 <ellipse id="path3281-0-0-1-8" rx="266.61" transform="matrix(.96593 .25882 -.27735 .96077 0 0)" ry="248.8" cy="149.88" cx="319.38" display="none" fill="url(#radialGradient26869)"/>
 <path id="path4230-8-5" d="m1776.4 423c-2.1203 7.3447-36.402 181.33-29.267 189.98 6.1765 7.4828 15.826 4.2405 17.946-3.1042-2.1203 7.3447-6.3607 22.034-8.481 29.379-17.946 3.1042-33.92-0.81668-37.444-17.946-4.0713-19.793 27.134-182.59 29.267-189.98-4.7412-8.958-29.531-15.826-33.772-1.1362l-7.9128-2.1202c18.514-34.603 53.838-9.3127 69.663-5.0722z" display="none"/>
 <path id="path4232-9-3" d="m1754.2 440.8c-26.427 32.483-124.22 164.54-147.96 158.17l-15.826-4.2405 12.153-12.569 7.9128 2.1202c15.826 4.2405 123.65-133.04 140.05-160.3 12.573-20.906 3.6723 16.81 3.6723 16.81z" display="none"/>
 <path id="path4234-5-3" d="m1691.4 510.99 47.477 12.721-4.2405 14.689-55.39-14.842z" display="none"/>
 <ellipse id="path3281-0-0-6-9" rx="266.61" transform="matrix(.96593 .25882 -.27735 .96077 0 0)" ry="248.8" cy="34.482" cx="1742.8" display="none" fill="url(#radialGradient26875)"/>
 <g id="layer2-5" display="none" transform="matrix(6.7274 0 0 6.7274 -2080.7 -889.77)">
  <rect id="rect3745-6" opacity=".9" rx="6" ry="6" height="85" filter="url(#filter3174-38)" width="86" y="7" x="5" fill="url(#linearGradient6148)"/>
 </g>
 <g id="layer2-3-5" display="none" transform="matrix(6.7274 0 0 6.7274 -2080.7 -889.77)">
  <rect id="rect3745-8-5" opacity=".9" rx="6" ry="6" height="85" filter="url(#filter3174-5-6)" width="86" y="7" x="5" fill="url(#linearGradient6148)"/>
 </g>
 <path id="path3848-3" d="m-789.45-490.39c-31.718 0.73046-61.283 23.617-71.031 53.75-10.408 29.448-0.1539 63.832 23.031 84.219 0.2111 0.18773 0.44298 0.34587 0.65625 0.53125 0.0607 0.0539 0.12666 0.1025 0.1875 0.15625 0.53347 0.4555 1.0471 0.93438 1.5938 1.375 0.0982 0.0801 0.21385 0.13919 0.3125 0.21875 0.0114 0.009 0.0198 0.0222 0.0312 0.0312 0.0924 0.0753 0.18851 0.14387 0.28125 0.21875 0.0114 0.009 0.0198 0.0222 0.0312 0.0312 0.081 0.066 0.16873 0.1218 0.25 0.1875 0.0115 0.009 0.0197 0.0223 0.0312 0.0312 0.0114 0.009 0.0198 0.0222 0.0312 0.0312 0.0682 0.0557 0.11908 0.13204 0.1875 0.1875 0.0806 0.0661 0.16909 0.12176 0.25 0.1875 0.26263 0.21589 0.51553 0.44392 0.78125 0.65625 0.0113 0.009 0.0199 0.0221 0.0312 0.0312v77.719l366.09 366.06h61.812c0.19472-5.1667 0.39905-10.333 0.59375-15.5l15.5-0.5625v-71.125c-0.11718-3.5064-0.66635-7.1765 2.9688-9.0938 17.971-15.566 29.967-38.912 28.375-63.031 0.24347-20.205-8.8362-39.465-23.031-53.562-0.13063-0.13149-0.27474-0.2444-0.40625-0.375l-343.31-342.94c-1.6885-1.8492-3.3938-3.742-5.125-5.5-0.12897-0.13157-0.24515-0.27555-0.375-0.40625-14.005-14.287-33.185-23.492-53.375-23.375-2.1284-0.1527-4.2605-0.20495-6.375-0.15625z" fill-opacity=".39216" display="none"/>
 <path id="path11978-0" d="m-729.32-466.45c1.4663 1.516 2.9049 3.0642 4.25 4.6875 1.5801 1.907 3.0707 3.8973 4.4688 5.9375 1.398 2.0402 2.7063 4.1239 3.9062 6.2812 1.1999 2.1574 2.2954 4.3665 3.2812 6.625 0.98586 2.2585 1.8379 4.594 2.5938 6.9375 0.75581 2.3435 1.3964 4.7125 1.9062 7.125s0.90844 4.847 1.1562 7.3125c0.24781 2.4655 0.34265 4.9664 0.3125 7.4688 0.19898 3.0149 0.21091 6.023 0 9s-0.62772 5.932-1.2188 8.8438c-0.59103 2.9118-1.3711 5.7746-2.3125 8.5938-0.94136 2.8192-2.0506 5.582-3.3125 8.2812s-2.666 5.3231-4.2188 7.875c-1.5527 2.5519-3.2488 5.029-5.0625 7.4062s-3.7676 4.6686-5.8125 6.8438-4.1912 4.2418-6.4375 6.1875c-0.90877 0.47931-1.5415 1.0487-2 1.7188-0.45846 0.67003-0.72299 1.4189-0.875 2.2188-0.30402 1.5996-0.15234 3.403-0.0937 5.1562v71.125h-16.094v16.062h-61.812l350 350h61.812c0.19472-5.1667 0.39905-10.333 0.59375-15.5l15.5-0.5625v-71.125c-0.11718-3.5064-0.66635-7.1765 2.9688-9.0938 17.971-15.566 29.967-38.912 28.375-63.031 0.2435-20.205-8.8362-39.465-23.031-53.562-0.13063-0.13149-0.27474-0.2444-0.40625-0.375l-343.31-342.94c-1.6885-1.8492-3.3939-3.742-5.125-5.5zm-87.375 211.69v-16.062h-16.094l16.094 16.062z" fill-opacity=".39216" display="none"/>
 <path id="path11980-6" d="m-1001.9-281.7 425.16 425.12v-125.12l-300-300z" fill-opacity=".39216" display="none"/>
 <g id="layer2-4-0" display="none" transform="matrix(6.7274 0 0 6.7274 -2838 -809.34)">
  <rect id="rect3745-3-5" opacity=".9" rx="6" ry="6" height="85" filter="url(#filter3174-3-3)" width="86" y="7" x="5" fill="url(#linearGradient6148)"/>
 </g>
 <path id="path4230-5" d="m365.87 165.47c-2.1202 7.3447-36.402 181.33-29.267 189.98 6.1765 7.4828 15.826 4.2405 17.946-3.1042-2.1202 7.3447-6.3607 22.034-8.4809 29.379-17.946 3.1042-33.92-0.81668-37.444-17.946-4.0713-19.793 27.134-182.59 29.267-189.98-4.7411-8.958-29.531-15.826-33.772-1.1362l-7.9128-2.1202c18.514-34.603 53.838-9.3127 69.663-5.0722z" display="none"/>
 <path id="path4232-6" d="m343.69 183.26c-26.427 32.483-124.22 164.54-147.96 158.17l-15.826-4.2405 12.153-12.569 7.9128 2.1202c15.826 4.2405 123.65-133.04 140.05-160.3 12.573-20.906 3.6724 16.81 3.6724 16.81z" display="none"/>
 <path id="path4234-8" d="m280.8 253.45 47.477 12.721-4.2405 14.689-55.39-14.842z" display="none"/>
 <ellipse id="path3281-0-0-7" rx="266.61" ry="248.8" transform="matrix(.96593 .25882 -.27735 .96077 0 0)" cy="150.82" cx="315.89" display="none" fill="url(#radialGradient26869-2)"/>
 <path id="path4230-0-7" d="m365.87 165.47c-2.1202 7.3447-36.402 181.33-29.267 189.98 6.1765 7.4828 15.826 4.2405 17.946-3.1042-2.1202 7.3447-6.3607 22.034-8.4809 29.379-17.946 3.1042-33.92-0.81668-37.444-17.946-4.0713-19.793 27.134-182.59 29.267-189.98-4.7411-8.958-29.531-15.826-33.772-1.1362l-7.9128-2.1202c18.514-34.603 53.838-9.3127 69.663-5.0722z" display="none"/>
 <path id="path4232-1-5" d="m343.69 183.26c-26.427 32.483-124.22 164.54-147.96 158.17l-15.826-4.2405 12.153-12.569 7.9128 2.1202c15.826 4.2405 123.65-133.04 140.05-160.3 12.573-20.906 3.6724 16.81 3.6724 16.81z" display="none"/>
 <path id="path4234-6-1" d="m280.8 253.45 47.477 12.721-4.2405 14.689-55.39-14.842z" display="none"/>
 <ellipse id="path3281-0-0-1-0" rx="266.61" transform="matrix(.96593 .25882 -.27735 .96077 0 0)" ry="248.8" cy="150.82" cx="315.89" display="none" fill="url(#radialGradient26869-2)"/>
 <path id="path4230-8-7" d="m1772.8 423c-2.1203 7.3447-36.402 181.33-29.267 189.98 6.1765 7.4828 15.826 4.2405 17.946-3.1042-2.1203 7.3447-6.3607 22.034-8.481 29.379-17.946 3.1042-33.92-0.81668-37.444-17.946-4.0713-19.793 27.134-182.59 29.267-189.98-4.7412-8.958-29.531-15.826-33.772-1.1362l-7.9128-2.1202c18.514-34.603 53.838-9.3127 69.663-5.0722z" display="none"/>
 <path id="path4232-9-4" d="m1750.6 440.8c-26.427 32.483-124.22 164.54-147.96 158.17l-15.826-4.2405 12.153-12.569 7.9128 2.1202c15.826 4.2405 123.65-133.04 140.05-160.3 12.573-20.906 3.6723 16.81 3.6723 16.81z" display="none"/>
 <path id="path4234-5-0" d="m1687.7 510.99 47.477 12.721-4.2405 14.689-55.39-14.842z" display="none"/>
 <ellipse id="path3281-0-0-6-1" rx="266.61" ry="248.8" transform="matrix(.96593 .25882 -.27735 .96077 0 0)" cy="35.421" cx="1739.3" display="none" fill="url(#radialGradient26875-4)"/>
 <g id="layer2-0" display="none" transform="matrix(6.7274 0 0 6.7274 -2043.3 -889.77)">
  <rect id="rect3745-50" opacity=".9" rx="6" ry="6" height="85" filter="url(#filter3174-6)" width="86" y="7" x="5" fill="url(#linearGradient6148)"/>
 </g>
 <g id="layer2-3-0" display="none" transform="matrix(6.7274 0 0 6.7274 -2043.3 -889.77)">
  <rect id="rect3745-8-1" opacity=".9" rx="6" ry="6" height="85" filter="url(#filter3174-5-3)" width="86" y="7" x="5" fill="url(#linearGradient6148)"/>
 </g>
 <path id="path3848-0" d="m-752.07-490.39c-31.718 0.73046-61.283 23.617-71.031 53.75-10.408 29.448-0.1539 63.832 23.031 84.219 0.2111 0.18773 0.44298 0.34587 0.65625 0.53125 0.0607 0.0539 0.12666 0.1025 0.1875 0.15625 0.53347 0.4555 1.0471 0.93438 1.5938 1.375 0.0982 0.0801 0.21385 0.13919 0.3125 0.21875 0.0114 0.009 0.0198 0.0222 0.0312 0.0312 0.0924 0.0753 0.18851 0.14387 0.28125 0.21875 0.0114 0.009 0.0198 0.0222 0.0312 0.0312 0.081 0.066 0.16873 0.1218 0.25 0.1875 0.0115 0.009 0.0197 0.0223 0.0312 0.0312 0.0114 0.009 0.0198 0.0222 0.0312 0.0312 0.0682 0.0557 0.11908 0.13204 0.1875 0.1875 0.0806 0.0661 0.16909 0.12176 0.25 0.1875 0.26263 0.21589 0.51553 0.44392 0.78125 0.65625 0.0113 0.009 0.0199 0.0221 0.0312 0.0312v77.719l366.09 366.06h61.812c0.19472-5.1667 0.39905-10.333 0.59375-15.5l15.5-0.5625v-71.125c-0.11718-3.5064-0.66635-7.1765 2.9688-9.0938 17.971-15.566 29.967-38.912 28.375-63.031 0.24347-20.205-8.8362-39.465-23.031-53.562-0.13063-0.13149-0.27474-0.2444-0.40625-0.375l-343.3-342.95c-1.6885-1.8492-3.3938-3.742-5.125-5.5-0.12897-0.13157-0.24515-0.27555-0.375-0.40625-14.005-14.287-33.185-23.492-53.375-23.375-2.1284-0.1527-4.2605-0.20495-6.375-0.15625z" fill-opacity=".39216" display="none"/>
 <path id="path11978-7" d="m-691.95-466.45c1.4663 1.516 2.9049 3.0642 4.25 4.6875 1.5801 1.907 3.0707 3.8973 4.4688 5.9375 1.398 2.0402 2.7063 4.1239 3.9062 6.2812 1.1999 2.1574 2.2954 4.3665 3.2812 6.625 0.98586 2.2585 1.8379 4.594 2.5938 6.9375 0.75581 2.3435 1.3964 4.7125 1.9062 7.125s0.90844 4.847 1.1562 7.3125c0.24781 2.4655 0.34265 4.9664 0.3125 7.4688 0.19898 3.0149 0.21091 6.023 0 9s-0.62772 5.932-1.2188 8.8438c-0.59103 2.9118-1.3711 5.7746-2.3125 8.5938-0.94136 2.8192-2.0506 5.582-3.3125 8.2812s-2.666 5.3231-4.2188 7.875c-1.5527 2.5519-3.2488 5.029-5.0625 7.4062s-3.7676 4.6686-5.8125 6.8438-4.1912 4.2418-6.4375 6.1875c-0.90877 0.47931-1.5415 1.0487-2 1.7188-0.45846 0.67003-0.72299 1.4189-0.875 2.2188-0.30402 1.5996-0.15234 3.403-0.0937 5.1562v71.125h-16.094v16.062h-61.812l350 350h61.812c0.19472-5.1667 0.39905-10.333 0.59375-15.5l15.5-0.5625v-71.125c-0.11718-3.5064-0.66635-7.1765 2.9688-9.0938 17.971-15.566 29.967-38.912 28.375-63.031 0.2435-20.205-8.8362-39.465-23.031-53.562-0.13063-0.13149-0.27474-0.2444-0.40625-0.375l-343.31-342.94c-1.6885-1.8492-3.3939-3.742-5.125-5.5zm-87.375 211.69v-16.062h-16.094l16.094 16.062z" fill-opacity=".39216" display="none"/>
 <path id="path11980-69" d="m-964.54-281.7 425.16 425.12v-125.12l-300-300z" fill-opacity=".39216" display="none"/>
 <g id="layer2-4-5" display="none" transform="matrix(6.7274 0 0 6.7274 -2800.6 -809.34)">
  <rect id="rect3745-3-6" opacity=".9" rx="6" ry="6" height="85" filter="url(#filter3174-3-2)" width="86" y="7" x="5" fill="url(#linearGradient6148)"/>
 </g>
 <path id="path4230-6" d="m403.25 165.47c-2.1202 7.3447-36.402 181.33-29.267 189.98 6.1765 7.4828 15.826 4.2405 17.946-3.1042-2.1202 7.3447-6.3607 22.034-8.4809 29.379-17.946 3.1042-33.92-0.81668-37.444-17.946-4.0713-19.793 27.134-182.59 29.267-189.98-4.7411-8.958-29.531-15.826-33.772-1.1362l-7.9128-2.1202c18.514-34.603 53.838-9.3127 69.663-5.0722z" display="none"/>
 <path id="path4232-3" d="m381.06 183.26c-26.427 32.483-124.22 164.54-147.96 158.17l-15.826-4.2405 12.153-12.569 7.9128 2.1202c15.826 4.2405 123.65-133.04 140.05-160.3 12.573-20.906 3.6724 16.81 3.6724 16.81z" display="none"/>
 <path id="path4234-7" d="m318.18 253.45 47.477 12.721-4.2405 14.689-55.39-14.842z" display="none"/>
 <ellipse id="path3281-0-0-60" rx="266.61" transform="matrix(.96593 .25882 -.27735 .96077 0 0)" ry="248.8" cy="141.15" cx="351.81" display="none" fill="url(#radialGradient26869-3)"/>
 <path id="path4230-0-3" d="m403.25 165.47c-2.1202 7.3447-36.402 181.33-29.267 189.98 6.1765 7.4828 15.826 4.2405 17.946-3.1042-2.1202 7.3447-6.3607 22.034-8.4809 29.379-17.946 3.1042-33.92-0.81668-37.444-17.946-4.0713-19.793 27.134-182.59 29.267-189.98-4.7411-8.958-29.531-15.826-33.772-1.1362l-7.9128-2.1202c18.514-34.603 53.838-9.3127 69.663-5.0722z" display="none"/>
 <path id="path4232-1-8" d="m381.06 183.26c-26.427 32.483-124.22 164.54-147.96 158.17l-15.826-4.2405 12.153-12.569 7.9128 2.1202c15.826 4.2405 123.65-133.04 140.05-160.3 12.573-20.906 3.6724 16.81 3.6724 16.81z" display="none"/>
 <path id="path4234-6-3" d="m318.18 253.45 47.477 12.721-4.2405 14.689-55.39-14.842z" display="none"/>
 <ellipse id="path3281-0-0-1-3" rx="266.61" transform="matrix(.96593 .25882 -.27735 .96077 0 0)" ry="248.8" cy="141.15" cx="351.81" display="none" fill="url(#radialGradient26869-3)"/>
 <path id="path4230-8-1" d="m1810.2 423c-2.1203 7.3447-36.402 181.33-29.268 189.98 6.1765 7.4828 15.826 4.2405 17.946-3.1042-2.1203 7.3447-6.3608 22.034-8.4811 29.379-17.946 3.1042-33.92-0.81668-37.444-17.946-4.0713-19.793 27.134-182.59 29.268-189.98-4.7412-8.958-29.531-15.826-33.772-1.1362l-7.9128-2.1202c18.514-34.603 53.838-9.3127 69.663-5.0722z" display="none"/>
 <path id="path4232-9-5" d="m1788 440.8c-26.427 32.483-124.22 164.54-147.96 158.17l-15.826-4.2405 12.153-12.569 7.9129 2.1202c15.826 4.2405 123.65-133.04 140.05-160.3 12.574-20.906 3.6724 16.81 3.6724 16.81z" display="none"/>
 <path id="path4234-5-1" d="m1725.1 510.99 47.477 12.721-4.2405 14.689-55.39-14.842z" display="none"/>
 <ellipse id="path3281-0-0-6-99" rx="266.61" transform="matrix(.96593 .25882 -.27735 .96077 0 0)" ry="248.8" cy="25.745" cx="1775.2" display="none" fill="url(#radialGradient26875-7)"/>
 <path id="path4230-4" d="m349.75 114.66c-2.1202 7.3447-36.402 181.33-29.267 189.98 6.1765 7.4828 15.826 4.2405 17.946-3.1042-2.1202 7.3447-6.3607 22.034-8.4809 29.379-17.946 3.1042-33.92-0.81668-37.444-17.946-4.0713-19.793 27.134-182.59 29.267-189.98-4.7411-8.958-29.531-15.826-33.772-1.1362l-7.9128-2.1202c18.514-34.603 53.838-9.3127 69.663-5.0722z" display="none"/>
 <path id="path4232-19" d="m327.56 132.45c-26.427 32.483-124.22 164.54-147.96 158.17l-15.826-4.2405 12.153-12.569 7.9128 2.1202c15.826 4.2405 123.65-133.04 140.05-160.3 12.573-20.906 3.6724 16.81 3.6724 16.81z" display="none"/>
 <path id="path4234-56" d="m264.67 202.64 47.477 12.721-4.2405 14.689-55.39-14.842z" display="none"/>
 <ellipse id="path3281-0-0-16" rx="266.61" ry="248.8" transform="matrix(.96593 .25882 -.27735 .96077 0 0)" cy="105.91" cx="286.3" display="none" fill="url(#radialGradient21305-6-1)"/>
 <path id="path4230-0-5" d="m349.75 114.66c-2.1202 7.3447-36.402 181.33-29.267 189.98 6.1765 7.4828 15.826 4.2405 17.946-3.1042-2.1202 7.3447-6.3607 22.034-8.4809 29.379-17.946 3.1042-33.92-0.81668-37.444-17.946-4.0713-19.793 27.134-182.59 29.267-189.98-4.7411-8.958-29.531-15.826-33.772-1.1362l-7.9128-2.1202c18.514-34.603 53.838-9.3127 69.663-5.0722z" display="none"/>
 <path id="path4232-1-1" d="m327.56 132.45c-26.427 32.483-124.22 164.54-147.96 158.17l-15.826-4.2405 12.153-12.569 7.9128 2.1202c15.826 4.2405 123.65-133.04 140.05-160.3 12.573-20.906 3.6724 16.81 3.6724 16.81z" display="none"/>
 <path id="path4234-6-7" d="m264.67 202.64 47.477 12.721-4.2405 14.689-55.39-14.842z" display="none"/>
 <ellipse id="path3281-0-0-1-5" rx="266.61" transform="matrix(.96593 .25882 -.27735 .96077 0 0)" ry="248.8" cy="105.91" cx="286.3" display="none" fill="url(#radialGradient21305-6-1)"/>
 <path id="path4230-8-70" d="m1756.7 372.19c-2.1203 7.3447-36.402 181.33-29.268 189.98 6.1765 7.4828 15.826 4.2405 17.946-3.1042-2.1203 7.3447-6.3608 22.034-8.4811 29.379-17.946 3.1042-33.92-0.81668-37.444-17.946-4.0713-19.793 27.134-182.59 29.268-189.98-4.7412-8.958-29.531-15.826-33.772-1.1362l-7.9129-2.1202c18.514-34.603 53.838-9.3127 69.663-5.0722z" display="none"/>
 <path id="path4232-9-2" d="m1734.5 389.98c-26.427 32.483-124.22 164.54-147.96 158.17l-15.826-4.2405 12.153-12.569 7.9128 2.1202c15.826 4.2405 123.65-133.04 140.05-160.3 12.574-20.906 3.6724 16.81 3.6724 16.81z" display="none"/>
 <path id="path4234-5-2" d="m1671.6 460.17 47.477 12.721-4.2404 14.689-55.39-14.842z" display="none"/>
 <ellipse id="path3281-0-0-6-6" rx="266.61" ry="248.8" transform="matrix(.96593 .25882 -.27735 .96077 0 0)" cy="-9.4945" cx="1709.7" display="none" fill="url(#radialGradient21305-0-3)"/>
 <g id="layer2-2" display="none" transform="matrix(6.7274 0 0 6.7274 -2854.1 -860.15)">
  <rect id="rect3745-85" opacity=".9" rx="6" ry="6" height="85" filter="url(#filter3174-39)" width="86" y="7" x="5" fill="url(#linearGradient6148)"/>
 </g>
 <g id="layer2-3-2" display="none" transform="matrix(6.7274 0 0 6.7274 -2854.1 -860.15)">
  <rect id="rect3745-8-4" opacity=".9" rx="6" ry="6" height="85" filter="url(#filter3174-5-0)" width="86" y="7" x="5" fill="url(#linearGradient6148)"/>
 </g>
 <path id="path4230-61" d="m390.98 165.47c-2.1202 7.3447-36.402 181.33-29.267 189.98 6.1765 7.4828 15.826 4.2405 17.946-3.1042-2.1202 7.3447-6.3607 22.034-8.4809 29.379-17.946 3.1042-33.92-0.81668-37.444-17.946-4.0713-19.793 27.134-182.59 29.267-189.98-4.7411-8.958-29.531-15.826-33.772-1.1362l-7.9128-2.1202c18.514-34.603 53.838-9.3127 69.663-5.0722z" display="none"/>
 <path id="path4232-2" d="m368.79 183.26c-26.427 32.483-124.22 164.54-147.96 158.17l-15.826-4.2405 12.153-12.569 7.9128 2.1202c15.826 4.2405 123.65-133.04 140.05-160.3 12.573-20.906 3.6724 16.81 3.6724 16.81z" display="none"/>
 <path id="path4234-1" d="m305.9 253.45 47.477 12.721-4.2405 14.689-55.39-14.842z" display="none"/>
 <ellipse id="path3281-0-0-8" rx="266.61" ry="248.8" transform="matrix(.96593 .25882 -.27735 .96077 0 0)" cy="144.32" cx="340.02" display="none" fill="url(#radialGradient21305-72)"/>
 <path id="path4230-57" d="m298.62 169.81c-2.1202 7.3447-36.402 181.33-29.267 189.98 6.1765 7.4828 15.826 4.2405 17.946-3.1042-2.1202 7.3447-6.3607 22.034-8.4809 29.379-17.946 3.1042-33.92-0.81668-37.444-17.946-4.0713-19.793 27.134-182.59 29.267-189.98-4.7411-8.958-29.531-15.826-33.772-1.1362l-7.9128-2.1202c18.514-34.603 53.838-9.3127 69.663-5.0722z" display="none"/>
 <path id="path4232-33" d="m276.43 187.6c-26.427 32.483-124.22 164.54-147.96 158.17l-15.826-4.2405 12.153-12.569 7.9128 2.1202c15.826 4.2405 123.65-133.04 140.05-160.3 12.573-20.906 3.6724 16.81 3.6724 16.81z" display="none"/>
 <path id="path4234-629" d="m213.55 257.79 47.477 12.721-4.2405 14.689-55.39-14.842z" display="none"/>
 <ellipse id="path3281-0-0-5" rx="266.61" transform="matrix(.96593 .25882 -.27735 .96077 0 0)" ry="248.8" cy="172.42" cx="252.47" display="none" fill="url(#radialGradient21305-2)"/>
 <rect id="rect3745-55" opacity=".9" transform="matrix(2.1031 0 0 2.1031 -2154.3 147.54)" rx="6" ry="6" height="85" filter="url(#filter3174-7)" width="86" display="none" y="7" x="5" fill="url(#linearGradient3158)"/>
 <rect id="rect3745-65" opacity=".9" rx="6" ry="6" transform="matrix(4.5768 0 0 4.5768 -328.85 -56.078)" filter="url(#filter3174-61)" width="86" display="none" y="7" x="5" height="85" fill="url(#linearGradient3158)"/>
 <path id="path10" d="m26 0.00049c-14.397 0-26 11.603-26 26v460c0 14.397 11.603 26 26 26h460c14.397 0 26-11.603 26-26v-460c0-14.397-11.603-26-26-26h-460" fill="#cd1d31"/>
 <path id="path12" d="m407.63 0.00049v512h33.16v-512h-33.16" fill="#c7cbd1"/>
 <g id="g14" fill="#bb0b0d" transform="translate(-5e-4,4.9e-4)">
  <path id="path16" d="m177.09 0v512h33.19v-512h-33.19"/>
  <path id="path18" d="m506.72 10.281v491.44c3.311-4.363 5.281-9.799 5.281-15.719v-460c0-5.92-1.97-11.356-5.281-15.719"/>
  <path id="path20" d="m374.88 0v512h33.16v-512h-33.16"/>
  <path id="path22" d="m243.03 0v512h33.16v-512h-33.16"/>
  <path id="path24" d="m111.16 0v512h33.19v-512h-33.19"/>
 </g>
 <path id="path26" d="m143.97 0.00049v512h33.13v-512h-33.12" fill="#c7cbd1"/>
 <path id="path28" d="m12.53 3.7195c-7.525 4.547-12.531 12.818-12.531 22.281v460c0 9.463 5.01 17.734 12.531 22.281v-504.56" fill="#bb0b0d"/>
 <g id="g30" fill="#c7cbd1" transform="translate(-5e-4,4.9e-4)">
  <path id="path32" d="m26 0c-5.109 0-9.863 1.471-13.875 4v504c4.01 2.529 8.766 4 13.875 4h19.281v-512h-19.281"/>
  <path id="path34" d="m473.53 0v512h12.469c8.477 0 15.977-4.03 20.719-10.281v-491.44c-4.74-6.248-12.24-10.282-20.72-10.282h-12.469"/>
 </g>
 <path id="path36" d="m308.94 0.00049v512h33.19v-512h-33.19" fill="#bb0b0d"/>
 <g id="g38" fill="#c7cbd1" transform="translate(-5e-4,4.9e-4)">
  <path id="path40" d="m341.69 0v512h33.19v-512h-33.19"/>
  <path id="path42" d="m209.84 0v512h33.19v-512h-33.19"/>
  <path id="path44" d="m78.03 0v512h33.16v-512h-33.16"/>
 </g>
 <path id="path46" d="m45.28 0.00049v512h33.16v-512h-33.16" fill="#bb0b0d"/>
 <path id="path94" d="m440.78 0.00049v512h33.16v-512h-33.16" fill="#bb0b0d"/>
 <path id="path96" d="m275.78 0.00049v512h33.16v-512h-33.16" fill="#c7cbd1"/>
 <g id="g98" opacity=".25" transform="translate(-5e-4,4.9e-4)" clip-path="url(#1-1-8)">
  <path id="path100" d="m322.49 65.06c-25.18 0.221-48.752 7.371-70.96 18.08l353.55 353.55c22.21-10.709 45.775-17.859 70.96-18.08z"/>
  <path id="path102" d="m251.53 83.14c-3.719 1.238-7.44 3.079-12.11 5.877l353.55 353.55c4.673-2.797 8.395-4.639 12.11-5.877z"/>
  <path id="path104" d="m239.42 89.02c-27.837 16.659-42.731 32.855-59.58 64.862l353.55 353.55c16.846-32.01 31.739-48.2 59.58-64.862z"/>
  <path id="path106" d="m179.84 153.88-8.678 16.453 353.55 353.55 8.678-16.453z"/>
  <path id="path108" d="m171.16 170.34-1.627-7.504 353.55 353.55 1.627 7.504z"/>
  <path id="path110" d="m169.54 162.83c-4.04-9.237-8.695-16.831-14.438-22.574l353.55 353.55c5.743 5.743 10.396 13.337 14.438 22.574z"/>
  <path id="path112" d="m155.1 140.26c-6.589-6.589-14.612-10.74-24.788-12.139l353.55 353.55c10.177 1.399 18.199 5.55 24.788 12.139z"/>
  <path id="path114" d="m130.31 128.12c-10.08-1.354-20.772-0.44-28.02 0.949l353.55 353.55c7.252-1.389 17.94-2.303 28.02-0.949z"/>
  <path id="path116" d="m102.29 129.07c-13.09 2.619-30.361 13.515-40.817 27.345l353.55 353.55c10.456-13.83 27.727-24.726 40.817-27.345z"/>
  <path id="path118" d="m61.47 156.41c-18.779 24.846-19.893 49.11-4.101 64.9l353.55 353.55c-15.792-15.792-14.678-40.05 4.101-64.9z"/>
  <path id="path120" d="m57.37 221.31c3.088 3.088 6.822 5.852 11.197 8.233l353.55 353.55c-4.375-2.381-8.109-5.145-11.197-8.233z"/>
  <path id="path122" d="m68.57 229.55c6.389 3.477 13.619 6.425 16.04 6.554l353.55 353.55c-2.421-0.129-9.652-3.076-16.04-6.554z"/>
  <path id="path124" d="m84.61 236.1c0.479 0.025 0.772 0.102 0.892 0.222l353.55 353.55c-0.12-0.12-0.413-0.197-0.892-0.222z"/>
  <path id="path126" d="m85.5 236.32c0.487 0.487-1.872 1.686-6.135 3.03l353.55 353.55c4.263-1.346 6.622-2.545 6.135-3.03z"/>
  <path id="path128" d="m79.36 239.35c-31.495 9.945-44.709 30.17-35.481 54.33l353.55 353.55c-9.228-24.16 3.986-44.39 35.481-54.33z"/>
  <path id="path130" d="m43.883 293.68c2.199 5.753 8.174 13.666 14.01 19.5l353.55 353.55c-5.835-5.835-11.81-13.747-14.01-19.5z"/>
  <path id="path132" d="m57.892 313.18c1.574 1.574 3.137 2.996 4.614 4.184l353.55 353.55c-1.476-1.188-3.04-2.611-4.614-4.184z"/>
  <path id="path134" d="m62.51 317.37c-1.344 2.029-2.585 4.132-3.752 6.283l353.55 353.55c1.167-2.151 2.408-4.254 3.752-6.283z"/>
  <path id="path136" d="m58.753 323.65c-1.404 0.299-2.482 2.683-3.165 6.645l353.55 353.55c0.683-3.962 1.76-6.345 3.165-6.645z"/>
  <path id="path138" d="m55.59 330.3c-4.433 10.226-6.915 21.527-6.915 33.397l353.55 353.55c0-11.87 2.482-23.17 6.915-33.397z"/>
  <path id="path140" d="m48.673 363.69c0 23.15 9.342 44.08 24.427 59.16l353.55 353.55c-15.08-15.08-24.427-36.01-24.427-59.16z"/>
  <path id="path142" d="m73.1 422.86c14.896 14.896 35.39 24.09 58.02 24.09l353.55 353.55c-22.627 0-43.12-9.195-58.02-24.09z"/>
  <path id="path144" d="m131.12 446.95c21.09 0 40.06-8.175 54.646-21.334l353.55 353.55c-14.58 13.15-33.56 21.33-54.65 21.33z"/>
  <path id="path146" d="m185.76 425.61c42.937 19.227 93.38 16.976 134.51-6.781l353.55 353.55c-41.14 23.757-91.58 26.01-134.51 6.781z"/>
  <path id="path148" d="m320.28 418.83c12.2 7.204 26.567 11.481 41.72 11.481l353.55 353.55c-15.15 0-29.519-4.277-41.72-11.481z"/>
  <path id="path150" d="m362 430.31c43.637 0 79.36-34.3 82.26-77.65l353.55 353.55c-2.9 43.35-38.626 77.65-82.26 77.65z"/>
  <path id="path152" d="m444.26 352.66c0.046-10.168 0.495-9.662-0.317-14.464l353.55 353.55c0.811 4.802 0.363 4.296 0.317 14.464z"/>
  <path id="path154" d="m443.94 338.2c-0.205-1.973-0.474-3.902-0.814-5.829l353.55 353.55c0.34 1.927 0.609 3.856 0.814 5.829z"/>
  <path id="path156" d="m443.13 332.37c6.584-2.699 20.653-15.997 24.777-23.956l353.55 353.55c-4.124 7.959-18.19 21.258-24.777 23.956z"/>
  <path id="path158" d="m467.91 308.41c7.836-15.15 0.057-37.974-15.09-53.12l353.55 353.55c15.15 15.15 22.928 37.97 15.09 53.12z"/>
  <path id="path160" d="m452.81 255.29c-5.947-5.947-13.03-10.712-20.751-13.366l353.55 353.55c7.72 2.654 14.803 7.419 20.751 13.366z"/>
  <path id="path162" d="m432.06 241.92-8.272-2.848 353.55 353.55 8.272 2.848z"/>
  <path id="path164" d="m423.79 239.07 5.921-8 353.55 353.55-5.922 8z"/>
  <path id="path166" d="m429.71 231.07c15.925-21.583 20.855-55.778 11.978-83.48l353.55 353.55c8.878 27.706 3.947 61.901-11.978 83.48z"/>
  <path id="path168" d="m441.69 147.59c-1.202-3.752-2.379-6.734-3.571-9.131l353.55 353.55c1.192 2.397 2.369 5.379 3.571 9.131z"/>
  <path id="path170" d="m438.12 138.46c-6.02-13.2-15.32-28.7-25.24-38.62l353.55 353.55c9.922 9.922 19.22 25.416 25.24 38.62z"/>
  <path id="path172" d="m412.88 99.84c-0.968-0.968-1.942-1.883-2.919-2.738l353.55 353.55c0.977 0.855 1.951 1.77 2.919 2.738z"/>
  <path id="path174" d="m409.96 97.1c-17.03-13.08-32.04-21.266-45.74-26.08l353.55 353.55c13.705 4.812 28.709 13 45.742 26.08z"/>
  <path id="path176" d="m364.22 71.02c-14.392-4.304-28.3-6.083-41.72-5.966l353.55 353.55c13.415-0.117 27.328 1.662 41.72 5.966z"/>
  <path id="path178" d="m257.59 273.74c25.734 0 36.597 0.111 40.876 4.39l353.55 353.55c-4.279-4.279-15.14-4.39-40.876-4.39z"/>
  <path id="path180" d="m298.47 278.13c2.994 2.994 2.766 8.03 2.154 16.493l353.55 353.55c0.612-8.465 0.84-13.499-2.154-16.493z"/>
  <path id="path182" d="m300.62 294.62c-1.196 16.538-5.479 23.886-19.888 34.08l353.55 353.55c14.409-10.196 18.692-17.543 19.888-34.08z"/>
  <path id="path184" d="m280.73 328.71c-11.708 8.285-29.378 10.557-41.18 5.243l353.55 353.55c11.8 5.314 29.469 3.042 41.18-5.243z"/>
  <path id="path186" d="m239.56 333.95c-6.116-2.755-11.1-6.04-14.998-9.945l353.55 353.55c3.902 3.902 8.882 7.19 14.998 9.945z"/>
  <path id="path188" d="m224.56 324c-7.468-7.468-10.992-17.189-10.992-29.741l353.55 353.55c0 12.552 3.524 22.273 10.992 29.741z"/>
  <path id="path190" d="m213.57 294.26c0-19.81 1.608-20.521 44.03-20.521l353.55 353.55c-42.42 0-44.03 0.712-44.03 20.521z"/>
 </g>
 <path id="path154960" d="m26 0.00049c-14.397 0-26 11.603-26 26v460c0 14.397 11.603 26 26 26h460c14.397 0 26-11.603 26-26v-460c0-14.397-11.603-26-26-26h-460" fill="#cd1d31"/>
 <path id="path154962" d="m407.63 0.00049v512h33.16v-512h-33.16" fill="#c7cbd1"/>
 <g id="g154964" fill="#bb0b0d" transform="translate(-5e-4,4.9e-4)">
  <path id="path154966" d="m177.09 0v512h33.19v-512h-33.19"/>
  <path id="path154968" d="m506.72 10.281v491.44c3.311-4.363 5.281-9.799 5.281-15.719v-460c0-5.92-1.97-11.356-5.281-15.719"/>
  <path id="path154970" d="m374.88 0v512h33.16v-512h-33.16"/>
  <path id="path154972" d="m243.03 0v512h33.16v-512h-33.16"/>
  <path id="path154974" d="m111.16 0v512h33.19v-512h-33.19"/>
 </g>
 <path id="path154976" d="m143.97 0.00049v512h33.13v-512h-33.12" fill="#c7cbd1"/>
 <path id="path154978" d="m12.53 3.7195c-7.525 4.547-12.531 12.818-12.531 22.281v460c0 9.463 5.01 17.734 12.531 22.281v-504.56" fill="#bb0b0d"/>
 <g id="g154980" fill="#c7cbd1" transform="translate(-5e-4,4.9e-4)">
  <path id="path154982" d="m26 0c-5.109 0-9.863 1.471-13.875 4v504c4.01 2.529 8.766 4 13.875 4h19.281v-512h-19.281"/>
  <path id="path154984" d="m473.53 0v512h12.469c8.477 0 15.977-4.03 20.719-10.281v-491.44c-4.74-6.248-12.24-10.282-20.72-10.282h-12.469"/>
 </g>
 <path id="path154986" d="m308.94 0.00049v512h33.19v-512h-33.19" fill="#bb0b0d"/>
 <g id="g154988" fill="#c7cbd1" transform="translate(-5e-4,4.9e-4)">
  <path id="path154990" d="m341.69 0v512h33.19v-512h-33.19"/>
  <path id="path154992" d="m209.84 0v512h33.19v-512h-33.19"/>
  <path id="path154994" d="m78.03 0v512h33.16v-512h-33.16"/>
 </g>
 <path id="path154996" d="m45.28 0.00049v512h33.16v-512h-33.16" fill="#bb0b0d"/>
 <path id="path154998" d="m440.78 0.00049v512h33.16v-512h-33.16" fill="#bb0b0d"/>
 <path id="path155000" d="m275.78 0.00049v512h33.16v-512h-33.16" fill="#c7cbd1"/>
 <path id="path155162" opacity=".3" d="m26 0.00049c-14.397 0-26 11.603-26 26v460c0 14.397 11.603 26 26 26h460c14.397 0 26-11.603 26-26v-460c0-14.397-11.603-26-26-26h-460" fill="#fff"/>
 <path id="path155004" opacity=".25" d="m322.5 65.054 122.95 122.95c-0.0005 0.005-0.001 0.009-0.002 0.0137l-122.96-122.95c-25.18 0.221-48.753 7.3711-70.961 18.08-3.719 1.238-7.4394 3.079-12.109 5.877l224.83 224.83-0.002 0.002-224.83-224.83c-27.837 16.659-42.731 32.855-59.58 64.861l-3.8379 7.2754-20.9-20.9c0.0313 0.0313 0.0605 0.0662 0.0918 0.0977l-0.0937-0.0937c-6.589-6.589-14.613-10.742-24.789-12.141h-0.002c-10.08-1.354-20.772-0.43978-28.02 0.94922-13.09 2.6189-30.36 13.514-40.816 27.344l-0.004-0.004c-18.779 24.846-19.892 49.11-4.0996 64.9l19.025 19.025c-29.351 10.257-41.448 29.959-32.516 53.346l0.006 0.006c2.2007 5.7525 8.1737 13.662 14.008 19.494l0.041 0.041 4.4102 4.4121c-1.2784 1.9485-2.4687 3.9602-3.5859 6.0195l-0.006-0.004c-1.404 0.299-2.4811 2.6845-3.1641 6.6465l0.002 0.004c-4.4325 10.225-6.9155 21.524-6.916 33.393l-0.002-0.002c0 23.15 9.3427 44.08 24.428 59.16l0.21093 0.21094c-0.069-0.0685-0.1422-0.13244-0.21093-0.20117l89.141 89.141h323.76c14.397 0 26-11.603 26-26v-287.04l-99.121-99.121c-0.968-0.968-1.941-1.8833-2.918-2.7383l-0.002-0.002c-17.028-13.079-32.039-21.266-45.74-26.08h-0.002c-14.391-4.3036-28.297-6.0838-41.717-5.9668z"/>
 <g id="g155214" transform="translate(0,-5.1e-4)">
  <path id="path192" d="m322.49 65.061c-25.18 0.221-48.752 7.371-70.96 18.08-3.719 1.238-7.44 3.079-12.11 5.877-27.837 16.659-42.731 32.855-59.58 64.862l-8.678 16.453-1.627-7.504c-8.678-19.836-20.18-32.1-39.23-34.713-10.08-1.354-20.772-0.44-28.02 0.949-13.09 2.619-30.361 13.515-40.817 27.345-22.451 29.704-19.653 58.57 7.096 73.13 6.389 3.477 13.619 6.425 16.04 6.554 2.426 0.129 0.069 1.577-5.243 3.254-31.495 9.945-44.709 30.17-35.481 54.33 2.792 7.304 11.672 18.09 18.622 23.685-1.344 2.029-2.585 4.132-3.752 6.283-1.404 0.299-2.482 2.683-3.165 6.645-4.433 10.226-6.915 21.527-6.915 33.397 0 46.01 36.903 83.25 82.44 83.25 21.09 0 40.06-8.175 54.646-21.334 42.937 19.227 93.38 16.976 134.51-6.781 12.2 7.204 26.567 11.481 41.72 11.481 43.637 0 79.36-34.3 82.26-77.65 0.046-10.168 0.495-9.662-0.317-14.464-0.205-1.973-0.474-3.902-0.814-5.829 6.584-2.699 20.653-15.997 24.777-23.956 10.913-21.1-8.458-57.07-35.843-66.49l-8.272-2.848 5.921-8c15.925-21.583 20.855-55.778 11.978-83.48-1.202-3.752-2.379-6.734-3.571-9.131-6.607-14.493-17.16-31.744-28.16-41.36-17.03-13.08-32.04-21.266-45.742-26.08-14.392-4.304-28.3-6.083-41.72-5.966m-64.907 208.68c43.739 0 44.517 0.32 43.03 20.883-1.196 16.538-5.479 23.886-19.888 34.08-11.708 8.285-29.378 10.557-41.18 5.243-17.821-8.03-25.99-20.575-25.99-39.686 0-19.81 1.608-20.521 44.03-20.521" fill="#fff"/>
  <use id="use194" xlink:href="#0" transform="matrix(1.4464 0 0 1.4464 -107.42 -106.83)" height="1" width="1" y="0" x="0"/>
  <use id="use196" xlink:href="#0" transform="matrix(.52472 0 0 .52472 68.33 110.24)" height="1" width="1" y="0" x="0" fill="#ffffff"/>
  <use id="use198" xlink:href="#0" transform="matrix(1.4464 0 0 1.4464 82.07 -106.83)" height="1" width="1" y="0" x="0"/>
  <use id="use200" xlink:href="#0" transform="matrix(.52472 0 0 .52472 259.98 109.54)" height="1" width="1" y="0" x="0" fill="#ffffff"/>
  <path id="path155096" d="m322.49 65.061c-25.18 0.221-48.752 7.371-70.96 18.08-3.719 1.238-7.44 3.079-12.11 5.877-27.837 16.659-42.731 32.855-59.58 64.862l-8.678 16.453-1.627-7.504c-8.678-19.836-20.18-32.1-39.23-34.713-10.08-1.354-20.772-0.44-28.02 0.949-13.09 2.619-30.361 13.515-40.817 27.345-22.451 29.704-19.653 58.57 7.096 73.13 6.389 3.477 13.619 6.425 16.04 6.554 2.426 0.129 0.069 1.577-5.243 3.254-31.495 9.945-44.709 30.17-35.481 54.33 2.792 7.304 11.672 18.09 18.622 23.685-1.344 2.029-2.585 4.132-3.752 6.283-1.404 0.299-2.482 2.683-3.165 6.645-4.433 10.226-6.915 21.527-6.915 33.397 0 46.01 36.903 83.25 82.44 83.25 21.09 0 40.06-8.175 54.646-21.334 42.937 19.227 93.38 16.976 134.51-6.781 12.2 7.204 26.567 11.481 41.72 11.481 43.637 0 79.36-34.3 82.26-77.65 0.046-10.168 0.495-9.662-0.317-14.464-0.205-1.973-0.474-3.902-0.814-5.829 6.584-2.699 20.653-15.997 24.777-23.956 10.913-21.1-8.458-57.07-35.843-66.49l-8.272-2.848 5.921-8c15.925-21.583 20.855-55.778 11.978-83.48-1.202-3.752-2.379-6.734-3.571-9.131-6.607-14.493-17.16-31.744-28.16-41.36-17.03-13.08-32.04-21.266-45.742-26.08-14.392-4.304-28.3-6.083-41.72-5.966m-64.907 208.68c43.739 0 44.517 0.32 43.03 20.883-1.196 16.538-5.479 23.886-19.888 34.08-11.708 8.285-29.378 10.557-41.18 5.243-17.821-8.03-25.99-20.575-25.99-39.686 0-19.81 1.608-20.521 44.03-20.521" fill="#fff"/>
  <use id="use155098" xlink:href="#0" transform="matrix(1.4464 0 0 1.4464 -107.42 -106.83)" height="1" width="1" y="0" x="0"/>
  <use id="use155100" xlink:href="#0" transform="matrix(.52472 0 0 .52472 68.33 110.24)" height="1" width="1" y="0" x="0" fill="#ffffff"/>
  <use id="use155102" xlink:href="#0" transform="matrix(1.4464 0 0 1.4464 82.07 -106.83)" height="1" width="1" y="0" x="0"/>
  <use id="use155104" xlink:href="#0" transform="matrix(.52472 0 0 .52472 259.98 109.54)" height="1" width="1" y="0" x="0" fill="#ffffff"/>
 </g>
</svg>
