<?xml version="1.0" encoding="UTF-8" standalone="no"?>
<!-- Created with Inkscape (http://www.inkscape.org/) -->
<svg id="svg2" xmlns:rdf="http://www.w3.org/1999/02/22-rdf-syntax-ns#" xmlns="http://www.w3.org/2000/svg" height="100%" width="100%" version="1.1" xmlns:cc="http://creativecommons.org/ns#" viewBox="0 0 512 512" xmlns:dc="http://purl.org/dc/elements/1.1/">
 <metadata id="metadata60">
  <rdf:RDF>
   <cc:Work rdf:about="">
    <dc:format>image/svg+xml</dc:format>
    <dc:type rdf:resource="http://purl.org/dc/dcmitype/StillImage"/>
   </cc:Work>
  </rdf:RDF>
 </metadata>
 <path id="path4" d="m26 0c-14.397 0-26 11.603-26 26v460c0 14.397 11.603 26 26 26h460c14.397 0 26-11.603 26-26v-460c0-14.397-11.6-26-26-26h-460" fill="#ef6a47"/>
 <text id="text6" style="word-spacing:0;letter-spacing:0" font-size="129.23px" line-height="125%" y="218.46001" x="1372.37" font-family="Gentium Book Basic">
  <tspan id="tspan8" y="218.46001" x="1372.37"/>
 </text>
 <text id="text10" style="text-anchor:middle" transform="scale(4.0128 .2492)" font-size="46.954px" y="527.47998" x="539.08002" font-family="Arial"/>
 <text id="text12" style="word-spacing:0;letter-spacing:0" font-size="129.23px" line-height="125%" y="138.46001" x="1953.64" font-family="Gentium Book Basic">
  <tspan id="tspan14" y="138.46001" x="1953.64"/>
 </text>
 <text id="text16" style="text-anchor:middle" transform="scale(4.0128 .2492)" font-size="46.954px" y="206.45" x="683.92999" font-family="Arial"/>
 <text id="text18" style="word-spacing:0;letter-spacing:0" font-size="129.23px" line-height="125%" y="-42.800999" x="882.06" font-family="Gentium Book Basic">
  <tspan id="tspan20" y="-42.800999" x="882.06"/>
 </text>
 <text id="text22" style="text-anchor:middle" transform="scale(4.0128 .2492)" font-size="46.954px" y="-520.90002" x="416.89001" font-family="Arial"/>
 <text id="text24" style="word-spacing:0;letter-spacing:0" font-size="129.23px" line-height="125%" y="-259.26999" x="1980.11" font-family="Gentium Book Basic">
  <tspan id="tspan26" y="-259.26999" x="1980.11"/>
 </text>
 <text id="text28" style="text-anchor:middle" transform="scale(4.0128 .2492)" font-size="46.954px" y="-1389.5699" x="690.53003" font-family="Arial"/>
 <text id="text30" style="word-spacing:0;letter-spacing:0" font-size="129.23px" line-height="125%" y="-339.28" x="2561.3799" font-family="Gentium Book Basic">
  <tspan id="tspan32" y="-339.28" x="2561.3799"/>
 </text>
 <text id="text34" style="text-anchor:middle" transform="scale(4.0128 .2492)" font-size="46.954px" y="-1710.61" x="835.38" font-family="Arial"/>
 <text id="text36" style="word-spacing:0;letter-spacing:0" font-size="129.23px" line-height="125%" y="-811.67999" x="2172.26" font-family="Gentium Book Basic">
  <tspan id="tspan38" y="-811.67999" x="2172.26"/>
 </text>
 <text id="text40" style="text-anchor:middle" transform="scale(4.0128 .2492)" font-size="46.954px" y="-3606.26" x="738.40997" font-family="Arial"/>
 <text id="text42" style="word-spacing:0;letter-spacing:0" font-size="129.23px" line-height="125%" y="-891.67999" x="2753.52" font-family="Gentium Book Basic">
  <tspan id="tspan44" y="-891.67999" x="2753.52"/>
 </text>
 <text id="text46" style="text-anchor:middle" transform="scale(4.0128 .2492)" font-size="46.954px" y="-3927.29" x="883.26001" font-family="Arial"/>
 <text id="text48" style="word-spacing:0;letter-spacing:0" font-size="208.33px" line-height="125%" y="523.03998" x="920.71997" font-family="Gentium Book Basic">
  <tspan id="tspan50" y="523.03998" x="920.71997"/>
 </text>
 <path id="path52" opacity=".25" d="m66.844 66.813c-14.245 0-25.844 11.536-25.844 25.781v39.469l22.813 22.813h-22.781v264.47c0 6.949 2.741 13.291 7.219 17.938l0.906 0.875 73.844 73.844h363c14.397 0 26-11.603 26-26v-363.06l-47.69-47.684-0.87-0.906c-4.664-4.664-11.09-7.531-18.219-7.531h-378.37m391.53 300.22h12.625v12.625l-12.625-12.625"/>
 <path id="path54" d="m66.83 66.812c-14.245 0-25.83 11.533-25.83 25.778v39.473h430v-39.47c0-14.25-11.53-25.778-25.78-25.778h-378.38m266.55 17.17c9.481 0 17.22 7.735 17.22 17.22 0 9.486-7.739 17.17-17.22 17.17s-17.17-7.684-17.17-17.17 7.687-17.22 17.17-17.22m47.3 0c9.481 0 17.22 7.735 17.22 17.22 0 9.486-7.739 17.17-17.22 17.17s-17.17-7.684-17.17-17.17 7.687-17.22 17.17-17.22m47.3 0c9.481 0 17.17 7.735 17.17 17.22 0 9.486-7.687 17.17-17.17 17.17-9.481 0-17.22-7.684-17.22-17.17s7.739-17.22 17.22-17.22m-386.99 70.905v264.47c0 14.245 11.585 25.83 25.83 25.83h378.38c14.25 0 25.778-11.59 25.778-25.83v-264.47h-430m192.33 88.18h45.39c8.375 0 14.938 6.799 14.938 15.15v27.491c13.785 3.581 27.07 9.114 39.11 16.235l19.607-19.502c5.908-5.912 15.509-5.912 21.421 0l32.11 32.16c5.911 5.912 5.911 15.509 0 21.421l-19.502 19.502c7.116 12.05 12.653 25.337 16.235 39.11h27.491c8.363 0 15.09 6.583 15.09 14.938v9.752h-114.69c-6.157-35.612-37.11-62.71-74.48-62.71s-68.39 27.1-74.53 62.71h-114.68v-9.7c0-8.372 6.786-14.99 15.15-14.99h27.491c3.578-13.777 9.114-27.01 16.235-39.06l-19.502-19.607c-5.916-5.912-5.911-15.509 0-21.421l32.11-32.11c5.908-5.912 15.511-5.912 21.421 0l19.555 19.502c12.04-7.111 25.332-12.653 39.11-16.235v-27.491c0-8.36 6.579-15.15 14.938-15.15" fill="#fff"/>
</svg>
