<?xml version="1.0" encoding="UTF-8" standalone="no"?>
<svg
   xmlns:dc="http://purl.org/dc/elements/1.1/"
   xmlns:cc="http://creativecommons.org/ns#"
   xmlns:rdf="http://www.w3.org/1999/02/22-rdf-syntax-ns#"
   xmlns:svg="http://www.w3.org/2000/svg"
   xmlns="http://www.w3.org/2000/svg"
   xmlns:sodipodi="http://sodipodi.sourceforge.net/DTD/sodipodi-0.dtd"
   xmlns:inkscape="http://www.inkscape.org/namespaces/inkscape"
   viewBox="0 0 512 512"
   id="svg2"
   version="1.1"
   inkscape:version="0.91+devel r13804 custom"
   sodipodi:docname="preferences-plugin-script.svg">
  <metadata
     id="metadata77">
    <rdf:RDF>
      <cc:Work
         rdf:about="">
        <dc:format>image/svg+xml</dc:format>
        <dc:type
           rdf:resource="http://purl.org/dc/dcmitype/StillImage" />
        <dc:title></dc:title>
      </cc:Work>
    </rdf:RDF>
  </metadata>
  <sodipodi:namedview
     pagecolor="#ffffff"
     bordercolor="#666666"
     borderopacity="1"
     objecttolerance="10"
     gridtolerance="10"
     guidetolerance="10"
     inkscape:pageopacity="0"
     inkscape:pageshadow="2"
     inkscape:window-width="1366"
     inkscape:window-height="709"
     id="namedview75"
     showgrid="false"
     inkscape:zoom="0.32593203"
     inkscape:cx="-11.678728"
     inkscape:cy="95.710196"
     inkscape:window-x="-2"
     inkscape:window-y="-3"
     inkscape:window-maximized="1"
     inkscape:current-layer="svg2"
     showguides="true" />
  <defs
     id="defs4" />
  <g
     id="g125214"
     transform="translate(421.67871,-332.70311)">
    <path
       id="path124945"
       style="fill:#924565"
       d="m -395.68071,332.70011 c -14.397,0 -26,11.603 -26,26 l 0,460 c 0,14.397 11.603,26 26,26 l 459.999996,0 c 14.397,0 26,-11.603 26,-26 l 0,-460 c 0,-14.397 -11.603,-26 -26,-26 l -459.999996,0"
       inkscape:connector-curvature="0" />
    <path
       id="path124947"
       style="opacity:0.25"
       d="m -354.83671,399.51311 c -14.245,0 -25.844,11.537 -25.844,25.781 l 0,39.469 22.813,22.813 -22.813,0 0,264.47 c 0,7.122 2.913,13.57 7.594,18.25 l 74.41,74.41 362.999996,0 c 14.397,0 26,-11.603 26,-26 l 0,-363.06 -48.563,-48.563 c -4.664,-4.664 -11.09,-7.563 -18.219,-7.563 l -378.369996,0 m 186.28,300.19 217.879996,0 0,52.34 c 0,14.24 -11.532,25.844 -25.781,25.844 l -192.089996,0 0,-78.19"
       inkscape:connector-curvature="0" />
    <path
       id="path124949"
       style="fill:#ffffff"
       d="m -354.83671,399.51311 c -14.245,0 -25.844,11.537 -25.844,25.781 l 0,39.469 429.999996,0 0,-39.469 c 0,-14.249 -11.532,-25.781 -25.781,-25.781 l -378.369996,0 m 266.529996,17.16 c 9.481,0 17.25,7.765 17.25,17.25 0,9.485 -7.769,17.16 -17.25,17.16 -9.481,0 -17.159996,-7.671 -17.159996,-17.16 0,-9.485 7.673996,-17.25 17.159996,-17.25 m 47.34,0 c 9.481,0 17.188,7.765 17.188,17.25 0,9.485 -7.707,17.16 -17.188,17.16 -9.481,0 -17.16,-7.671 -17.16,-17.16 0,-9.485 7.674,-17.25 17.16,-17.25 m 47.2799998,0 c 9.4810002,0 17.1880002,7.765 17.1880002,17.25 0,9.485 -7.707,17.16 -17.1880002,17.16 -9.481,0 -17.2189998,-7.671 -17.2189998,-17.16 0,-9.485 7.7379998,-17.25 17.2189998,-17.25 m -386.9999958,70.906 0,264.47 c 0,14.245 11.599,25.844 25.844,25.844 l 378.379996,0 c 14.249,0 25.781,-11.604 25.781,-25.844 l 0,-264.47 -429.999996,0"
       inkscape:connector-curvature="0" />
    <g
       transform="translate(-421.68071,332.70011)"
       id="g125045"
       style="fill:#70354d;stroke:#70354d;stroke-width:15.54199982">
      <path
         id="path125047"
         d="m 181.13,343.74 -83.07,-38.22 0,-12.478 83.07,-43.28 0,20.942 -56.11,27.661 56.11,24.52 0,20.855"
         inkscape:connector-curvature="0" />
      <path
         id="path125049"
         d="m 280.72,207.45 -48.865,178.37 -22.862,0 48.865,-178.37 22.862,0"
         inkscape:connector-curvature="0" />
      <path
         id="path125051"
         d="m 330.87,322.89 56.11,-24.52 -56.11,-27.661 0,-20.942 83.07,43.28 0,12.478 -83.07,38.22 0,-20.855"
         inkscape:connector-curvature="0" />
    </g>
  </g>
</svg>
