<svg xmlns="http://www.w3.org/2000/svg" xmlns:xlink="http://www.w3.org/1999/xlink" viewBox="0 0 512 512"><defs><clipPath id="0"><path d="m26 0c-14.397 0-26 11.603-26 26v460c0 14.397 11.603 26 26 26h460c14.397 0 26-11.603 26-26v-460c0-14.397-11.603-26-26-26h-460"/></clipPath></defs><path d="m26 0c-14.397 0-26 11.603-26 26v460c0 14.397 11.603 26 26 26h460c14.397 0 26-11.603 26-26v-460c0-14.397-11.603-26-26-26h-460" style="fill:#eb1d23"/><text y="128.15" x="-437.11" line-height="125%" style="letter-spacing:0;word-spacing:0;font-size:129.23;font-family:Gentium Book Basic"><tspan y="128.15" x="-437.11"/></text><text transform="scale(4.0128.2492)" y="165.08" x="88.15" style="font-size:46.954;font-family:Arial;text-anchor:middle"/><text y="48.15" x="144.16" line-height="125%" style="letter-spacing:0;word-spacing:0;font-size:129.23;font-family:Gentium Book Basic"><tspan y="48.15" x="144.16"/></text><text transform="scale(4.0128.2492)" y="-155.95" x="233" style="font-size:46.954;font-family:Arial;text-anchor:middle"/><text y="-133.11" x="-927.42" line-height="125%" style="letter-spacing:0;word-spacing:0;font-size:129.23;font-family:Gentium Book Basic"><tspan y="-133.11" x="-927.42"/></text><text transform="scale(4.0128.2492)" y="-883.3" x="-34.04" style="font-size:46.954;font-family:Arial;text-anchor:middle"/><text y="-349.58" x="170.63" line-height="125%" style="letter-spacing:0;word-spacing:0;font-size:129.23;font-family:Gentium Book Basic"><tspan y="-349.58" x="170.63"/></text><text transform="scale(4.0128.2492)" y="-1751.97" x="239.6" style="font-size:46.954;font-family:Arial;text-anchor:middle"/><text y="-429.59" x="751.9" line-height="125%" style="letter-spacing:0;word-spacing:0;font-size:129.23;font-family:Gentium Book Basic"><tspan y="-429.59" x="751.9"/></text><text transform="scale(4.0128.2492)" y="-2073.01" x="384.45" style="font-size:46.954;font-family:Arial;text-anchor:middle"/><text y="-901.99" x="362.78" line-height="125%" style="letter-spacing:0;word-spacing:0;font-size:129.23;font-family:Gentium Book Basic"><tspan y="-901.99" x="362.78"/></text><text transform="scale(4.0128.2492)" y="-3968.66" x="287.48" style="font-size:46.954;font-family:Arial;text-anchor:middle"/><text y="-981.99" x="944.04" line-height="125%" style="letter-spacing:0;word-spacing:0;font-size:129.23;font-family:Gentium Book Basic"><tspan y="-981.99" x="944.04"/></text><text transform="scale(4.0128.2492)" y="-4289.68" x="432.33" style="font-size:46.954;font-family:Arial;text-anchor:middle"/><text y="432.73" x="-888.76" line-height="125%" style="letter-spacing:0;word-spacing:0;font-size:208.33;font-family:Gentium Book Basic"><tspan y="432.73" x="-888.76"/></text><g style="clip-path:url(#0);opacity:.25;fill-rule:evenodd"><path d="m464.44 41c-10.06.169-30.523 2.161-43.784 4.55l353.55 353.55c13.261-2.389 33.721-4.382 43.784-4.55z"/><path d="m420.66 45.555c-67.79 12.206-121.09 32.935-163.99 63.707l353.55 353.55c42.899-30.772 96.2-51.5 163.99-63.707z"/><path d="m256.67 109.26c-27.14 19.456-45.943 39.14-64.65 67.61l353.55 353.55c18.711-28.47 37.519-48.16 64.65-67.61z"/><path d="m192.01 176.88c-4.756 7.236-9.151 13.859-9.744 14.716l353.55 353.55c.593-.857 4.988-7.48 9.744-14.716z"/><path d="m182.27 191.59c-.601.857-7.834 1.741-16.07 2.01l353.55 353.55c8.241-.269 15.473-1.153 16.07-2.01z"/><path d="m166.2 193.6c-16.766.543-17.494.897-41.486 19.44l353.55 353.55c23.992-18.543 24.72-18.896 41.486-19.44z"/><path d="m124.71 213.04c-27.26 21.08-56.14 54.718-76.41 89.06l353.55 353.55c20.276-34.35 49.15-67.983 76.41-89.06z"/><path d="m48.3 302.1c-6.221 10.541-8.664 16.619-5.985 19.298l353.55 353.55c-2.679-2.679-.235-8.757 5.985-19.298z"/><path d="m42.31 321.4c2.874 2.874 11.644 1.834 27.971-1.805l353.55 353.55c-16.326 3.639-25.1 4.679-27.971 1.805z"/><path d="m70.28 319.6c10.181-2.27 21.475-4.798 25.12-5.615l353.55 353.55c-3.64.817-14.934 3.344-25.12 5.615z"/><path d="m95.4 313.98c24.483-5.486 38.04-7.936 38.944-7.03l353.55 353.55c-.903-.903-14.461 1.547-38.944 7.03z"/><path d="m134.34 306.95c0 0 0 0 0 0l353.55 353.55c0 0 0 0 0 0z"/><path d="m134.34 306.95c.576.576-.445 5.343-2.304 10.579l353.55 353.55c1.859-5.235 2.88-10 2.304-10.579z"/><path d="m132.04 317.53c-2.495 7.03-2.941 10.786-1.595 14.36l353.55 353.55c-1.346-3.574-.9-7.334 1.595-14.36z"/><path d="m130.44 331.89c1 2.664 12.04 15.13 24.526 27.717l353.55 353.55c-12.481-12.587-23.524-25.05-24.526-27.717z"/><path d="m154.97 359.6l22.688 22.931 353.55 353.55-22.688-22.931z"/><path d="m177.66 382.54l9.456-1.122 353.55 353.55-9.456 1.122z"/><path d="m187.11 381.41c5.2-.622 11.981-1.685 15.01-2.364l353.55 353.55c-3.03.679-9.812 1.741-15.01 2.364z"/><path d="m202.12 379.05c2.648-.593 4.03-.713 4.517-.227l353.55 353.55c-.486-.486-1.869-.366-4.517.227z"/><path d="m206.64 378.82c.295.295.259.814-.026 1.586l353.55 353.55c.285-.772.321-1.29.026-1.586z"/><path d="m206.61 380.41c-3.367 9.119-18.938 84.99-17.965 87.52l353.55 353.55c-.973-2.529 14.598-78.4 17.965-87.52z"/><path d="m188.65 467.93c.218.569.585 1.1 1.04 1.556l353.55 353.55c-.456-.456-.822-.987-1.04-1.556z"/><path d="m189.69 469.48c.909.909 2.175 1.517 3.333 1.517l353.55 353.55c-1.158 0-2.424-.607-3.333-1.517z"/><path d="m193.02 471c1.738 0 13.891-7.07 27.01-15.721l353.55 353.55c-13.12 8.651-25.27 15.721-27.01 15.721z"/><path d="m220.03 455.28c42.27-27.877 67.51-51.582 89.3-83.85l353.55 353.55c-21.791 32.27-47.03 55.977-89.3 83.85z"/><path d="m309.33 371.43c9.08-13.457 9.226-13.945 9.278-28.426l353.55 353.55c-.052 14.481-.198 14.97-9.278 28.426z"/><path d="m318.61 343l.06-14.775 353.55 353.55-.059 14.775z"/><path d="m318.67 328.22l18.498-11.76 353.55 353.55-18.498 11.76z"/><path d="m337.17 316.46c42.623-27.06 72.935-64.912 98.45-123.04l353.55 353.55c-25.518 58.13-55.83 95.98-98.45 123.04z"/><path d="m435.62 193.43c12.413-28.26 20.02-52.907 28.426-92.13l353.55 353.55c-8.408 39.23-16.01 63.87-28.426 92.13z"/><path d="m464.05 101.29c3.51-16.375 7.98-58.14 6.382-59.75l353.55 353.55c1.598 1.608-2.872 43.38-6.382 59.75z"/><path d="m470.43 41.542c0 0 0 0 0 0l353.55 353.55c0 0 0 0 0 0z"/><path d="m470.43 41.542c-.402-.402-2.614-.589-5.969-.532l353.55 353.55c3.354-.056 5.567.13 5.969.532z"/><path d="m353.42 125.87c10.287.009 17.841 2.632 23.553 8.345l353.55 353.55c-5.712-5.712-13.266-8.335-23.553-8.345z"/><path d="m376.97 134.22c2.066 2.066 3.892 4.537 5.518 7.434l353.55 353.55c-1.626-2.897-3.452-5.368-5.518-7.434z"/><path d="m382.49 141.65c9.832 17.496 1.442 37.982-18.97 46.509l353.55 353.55c20.413-8.527 28.803-29.01 18.97-46.509z"/><path d="m363.52 188.16c-7.03 2.938-9.792 3.205-18.321 1.595l353.55 353.55c8.528 1.61 11.289 1.343 18.321-1.595z"/><path d="m345.2 189.76c-2.502-.471-9.1-5.433-14.656-10.992l353.55 353.55c5.559 5.559 12.154 10.521 14.656 10.992z"/><path id="1" d="m330.54 178.77c0 0 0 0 0 0l353.55 353.55c0 0 0 0 0 0z"/><use xlink:href="#1" height="1" width="1"/><path d="m330.54 178.76c-9.679-9.679-10.112-10.522-10.11-20.15l353.55 353.55c-.006 9.63.426 10.472 10.11 20.15z"/><path d="m320.44 158.61c0-11.844 4.01-19.408 14.36-27.303l353.55 353.55c-10.35 7.895-14.36 15.459-14.36 27.303z"/><path d="m334.8 131.31c6.03-4.595 8.868-5.446 18.615-5.436l353.55 353.55c-9.747-.01-12.588.841-18.615 5.436z"/><path d="m112.53 346.01c-6.776-.067-21.273 6.322-28.959 14.01l353.55 353.55c7.686-7.684 22.18-14.07 28.959-14.01z"/><path d="m83.57 360.02c-9.213 9.213-12.64 20.999-14.01 47.75l353.55 353.55c1.367-26.751 4.793-38.537 14.01-47.75z"/><path d="m69.56 407.77c-.905 17.725-.265 26.85 3.901 31.02l353.55 353.55c-4.165-4.165-4.806-13.29-3.901-31.02z"/><path d="m73.47 438.79c2.881 2.881 7.45 3.39 14.36 2.73l353.55 353.55c-6.911.659-11.479.151-14.36-2.73z"/><path d="m87.83 441.52c3.64-.347 14.463-1.055 23.993-1.537l353.55 353.55c-9.53.482-20.353 1.19-23.993 1.537z"/><path d="m111.82 439.98c23.812-1.204 35.892-7.9 44.501-24.643l353.55 353.55c-8.609 16.743-20.689 23.439-44.501 24.643z"/><path d="m156.32 415.34c4.235-8.236 6.699-27.27 4-29.964l353.55 353.55c2.698 2.697.233 21.728-4 29.964z"/><path d="m160.32 385.37c-.07-.07-.143-.129-.22-.176l353.55 353.55c.077.048.15.106.22.176z"/><path d="m160.1 385.2c-3.697-2.285-10.759 2.176-17.197 10.815l353.55 353.55c6.438-8.639 13.5-13.1 17.197-10.815z"/><path d="m142.91 396.01c-7.552 10.133-16.208 14.19-33.863 15.838l353.55 353.55c17.655-1.648 26.31-5.705 33.863-15.838z"/><path d="m109.04 411.85l-12.352 1.122 353.55 353.55 12.352-1.122z"/><path d="m96.69 412.97l1.359-13.06 353.55 353.55-1.359 13.06z"/><path d="m98.05 399.91c.97-9.614 3.549-17.832 9.744-31.14l353.55 353.55c-6.195 13.312-8.774 21.53-9.744 31.14z"/><path d="m107.79 368.77c4.636-9.947 8.392-19.1 8.392-20.329l353.55 353.55c0 1.233-3.756 10.382-8.392 20.329z"/><path d="m116.18 348.44c0-.629-.204-1.126-.58-1.503l353.55 353.55c.377.377.58.875.58 1.503z"/><path d="m115.6 346.93c-.613-.613-1.685-.906-3.084-.92l353.55 353.55c1.399.014 2.471.307 3.084.92z"/></g><path d="m464.44 41c-10.06.169-30.523 2.161-43.784 4.55-67.79 12.206-121.09 32.935-163.99 63.707-27.14 19.456-45.943 39.14-64.65 67.61-4.756 7.236-9.151 13.859-9.744 14.716-.601.857-7.834 1.741-16.07 2.01-16.766.543-17.494.897-41.486 19.44-27.26 21.08-56.14 54.718-76.41 89.06-12.896 21.852-9.557 24.524 21.985 17.493 10.181-2.27 21.475-4.798 25.12-5.615 24.484-5.486 38.04-7.937 38.944-7.03.576.576-.445 5.343-2.304 10.579-2.495 7.03-2.941 10.786-1.595 14.36 1 2.664 12.04 15.13 24.526 27.717l22.688 22.931 9.456-1.122c5.2-.622 11.981-1.685 15.01-2.364 4.256-.953 5.245-.683 4.491 1.359-3.367 9.119-18.938 84.99-17.965 87.52.654 1.704 2.635 3.073 4.374 3.073 1.738 0 13.891-7.07 27.01-15.721 42.27-27.877 67.51-51.582 89.3-83.85 9.08-13.457 9.226-13.945 9.278-28.426l.06-14.775 18.498-11.76c42.623-27.06 72.935-64.912 98.45-123.04 12.413-28.26 20.02-52.907 28.426-92.13 3.51-16.375 7.98-58.14 6.382-59.75-.402-.402-2.614-.589-5.969-.532m-111.04 84.86c14.01.013 22.948 4.872 29.07 15.779 9.832 17.496 1.442 37.982-18.97 46.509-7.03 2.938-9.792 3.205-18.321 1.595-2.502-.471-9.1-5.433-14.656-10.992-9.68-9.68-10.112-10.522-10.11-20.15 0-11.844 4.01-19.408 14.36-27.303 6.03-4.595 8.868-5.446 18.615-5.436m-240.88 220.14c-6.776-.067-21.273 6.322-28.959 14.01-9.213 9.213-12.64 20.999-14.01 47.75-1.531 29.986 1.36 35.36 18.261 33.745 3.64-.347 14.463-1.055 23.993-1.537 23.812-1.204 35.892-7.9 44.501-24.643 4.345-8.45 6.826-28.26 3.782-30.14-3.697-2.285-10.759 2.176-17.197 10.815-7.552 10.133-16.208 14.19-33.863 15.838l-12.352 1.122 1.359-13.06c.97-9.614 3.549-17.832 9.744-31.14 4.636-9.947 8.392-19.1 8.392-20.329 0-1.651-1.405-2.401-3.664-2.423" style="fill:#fff;fill-rule:evenodd"/></svg>