<?xml version="1.0" encoding="UTF-8" standalone="no"?>
<svg
   xmlns:dc="http://purl.org/dc/elements/1.1/"
   xmlns:cc="http://creativecommons.org/ns#"
   xmlns:rdf="http://www.w3.org/1999/02/22-rdf-syntax-ns#"
   xmlns:svg="http://www.w3.org/2000/svg"
   xmlns="http://www.w3.org/2000/svg"
   xmlns:sodipodi="http://sodipodi.sourceforge.net/DTD/sodipodi-0.dtd"
   xmlns:inkscape="http://www.inkscape.org/namespaces/inkscape"
   viewBox="0 0 512 512"
   id="svg2"
   version="1.1"
   inkscape:version="0.91+devel r13804 custom"
   sodipodi:docname="preferences-color.svg">
  <metadata
     id="metadata77">
    <rdf:RDF>
      <cc:Work
         rdf:about="">
        <dc:format>image/svg+xml</dc:format>
        <dc:type
           rdf:resource="http://purl.org/dc/dcmitype/StillImage" />
        <dc:title></dc:title>
      </cc:Work>
    </rdf:RDF>
  </metadata>
  <sodipodi:namedview
     pagecolor="#ffffff"
     bordercolor="#666666"
     borderopacity="1"
     objecttolerance="10"
     gridtolerance="10"
     guidetolerance="10"
     inkscape:pageopacity="0"
     inkscape:pageshadow="2"
     inkscape:window-width="1366"
     inkscape:window-height="709"
     id="namedview75"
     showgrid="false"
     inkscape:zoom="0.4609375"
     inkscape:cx="-8.6779661"
     inkscape:cy="237.55932"
     inkscape:window-x="-2"
     inkscape:window-y="-3"
     inkscape:window-maximized="1"
     inkscape:current-layer="svg2" />
  <defs
     id="defs4" />
  <g
     id="g3818"
     transform="translate(323.25424,-347.11864)">
    <path
       id="path3417"
       style="fill:#924565"
       d="m -297.25424,347.11364 c -14.397,0 -26,11.603 -26,26 l 0,460 c 0,14.397 11.603,26 26,26 l 460,0 c 14.397,0 26,-11.603 26,-26 l 0,-460 c 0,-14.397 -11.603,-26 -26,-26 l -460,0"
       inkscape:connector-curvature="0" />
    <path
       id="path3560"
       style="fill:#79c943"
       d="m -297.25424,347.11364 c -14.397,0 -26,11.603 -26,26 l 0,460 c 0,14.397 11.603,26 26,26 l 76.41,0 0,-512 -76.41,0"
       inkscape:connector-curvature="0" />
    <path
       id="path3562"
       style="fill:#6ea6c1"
       d="m -220.84424,347.11364 0,512 102.41,0 0,-512 -102.41,0"
       inkscape:connector-curvature="0" />
    <path
       id="path3564"
       style="fill:#f3f284"
       d="m -118.44424,347.11364 0,512 102.410003,0 0,-512 -102.410003,0"
       inkscape:connector-curvature="0" />
    <path
       id="path3566"
       style="fill:#d23638"
       d="m -16.034237,347.11364 0,512 102.41,0 0,-512 -102.41,0"
       inkscape:connector-curvature="0" />
    <path
       inkscape:connector-curvature="0"
       d="m 45.125763,422.67364 c -2.595,0.009 -5.187,0.016 -7.781,0.031 -84.06,0.616 -168.190003,-0.799 -252.220003,0.719 -37.79,5.89 -64.47,42.817 -66.47,79.66 -2.092,39.3 0.315,78.69 -0.688,118.03 0.129,31.1 -1.365,62.43 1.969,93.38 3.487,17.577 12.312,34.655 25.09,47.44 l 97.19,97.19 320.53,0 c 14.397,0 26,-11.603 26,-26 l 0,-320.56 -67.969,-67.969 c -13.784,-13.784 -32.279997,-22.738 -52.309997,-21.625 -7.781,-0.277 -15.559,-0.309 -23.344,-0.281 m 46.688,212.16 c 18.601997,-0.004 37.209997,0.046 55.812997,0.094 0.042,20.06 0.011,40.13 -0.375,60.19 0.813,38.29 -23.918,78.04 -62.309997,86.88 -31.09,2.37 -62.5,1.295 -93.7200003,1.563 -20.3489997,-0.253 -40.7119997,-0.273 -61.0599997,-0.219 -0.269,-22.713 -0.583,-45.44 0.625,-68.12 1.994,-36.839 28.679,-73.74 66.4699997,-79.62 31.5100003,-0.569 63.0400003,-0.744 94.5600003,-0.75"
       style="color:#000000;opacity:0.25"
       id="path3570" />
    <path
       inkscape:connector-curvature="0"
       d="m 37.325763,422.71364 c -84.06,0.616 -168.170003,-0.798 -252.200003,0.72 -37.79,5.89 -64.47,42.815 -66.47,79.65 -2.092,39.3 0.313,78.68 -0.689,118.02 0.129,31.1 -1.366,62.42 1.968,93.36 6.433,32.427 31.07,63.21 65.11,68.31 68.7,1.723 137.440003,-0.1 206.1600027,0.756 31.2200003,-0.267 62.6300003,0.815 93.7200003,-1.555 38.389997,-8.839 63.129997,-48.601 62.319997,-86.89 1.017,-52.847 -0.296,-105.71 0.505,-158.55 -0.411,-22.947 1.097,-47.19 -10.06,-67.99 -12.374,-26.13 -39.039997,-47.28 -69.219997,-45.601 -10.375,-0.37 -20.756,-0.303 -31.14,-0.242"
       style="color:#000000;fill:#ffffff"
       id="path3572" />
    <path
       inkscape:connector-curvature="0"
       d="m -206.74424,457.98364 279.420003,0 c 22.755,0 40.939997,22.534 40.939997,50.917 l 0,188.72 c 0,28.38 -18.217997,51.15 -40.939997,51.15 l -279.420003,0 c -22.716,0 -40.94,-22.763 -40.94,-51.15 l 0,-188.72 c 0,-28.38 18.18,-50.917 40.94,-50.917"
       style="color:#000000;fill:#924565"
       id="path3574" />
    <path
       id="path3576"
       style="fill:#6ea6c1"
       d="m -206.75424,457.99364 c -4.968,0 -9.703,1.088 -14.09,3.063 l 0,284.63 c 4.395,1.999 9.125,3.094 14.09,3.094 l 88.31,0 0,-290.78 -88.31,0"
       inkscape:connector-curvature="0" />
    <path
       id="path3578"
       style="fill:#f3f284"
       d="m -118.44424,457.99364 0,290.78 102.410003,0 0,-290.78 -102.410003,0"
       inkscape:connector-curvature="0" />
    <path
       id="path3580"
       style="fill:#d23638"
       d="m -16.034237,457.99364 0,290.78 88.72,0 c 4.807,0 9.413,-1.031 13.688,-2.906 l 0,-285 c -4.276,-1.859 -8.874,-2.875 -13.688,-2.875 l -88.72,0"
       inkscape:connector-curvature="0" />
    <path
       id="path3582"
       style="fill:#79c943"
       d="m -220.87424,461.05364 c -15.707,7.079 -26.813,25.672 -26.813,47.844 l 0,188.75 c 0,22.17 11.146,40.892 26.844,48.03 l 0,-284.62 c -0.009,0.004 -0.022,-0.004 -0.031,0"
       inkscape:connector-curvature="0" />
    <path
       id="path3584"
       style="fill:#ffffff;fill-opacity:0.33000004"
       d="m -206.74424,458.00364 c -22.754,0 -40.952,22.537 -40.952,50.919 l 0,188.72 c 0,28.38 18.238,51.15 40.952,51.15 l 66.01,0 c 86.300003,-64.5 62.310003,-167.01 128.240003,-290.8 l -194.250003,0"
       inkscape:connector-curvature="0" />
  </g>
</svg>
