<svg xmlns="http://www.w3.org/2000/svg" xmlns:xlink="http://www.w3.org/1999/xlink" viewBox="0 0 512 512"><path d="m26 0c-14.397 0-26 11.603-26 26v460c0 14.397 11.603 26 26 26h460c14.397 0 26-11.603 26-26v-460c0-14.397-11.603-26-26-26h-460" style="fill:#68af4c"/><path d="m114.78 76.78c-40.878 0-73.78 32.903-73.78 73.78v210.88c0 20.439 8.225 38.882 21.563 52.22l98.34 98.34h325.09c14.397 0 26-11.603 26-26v-325.09l-62.56-62.56c-13.337-13.337-31.78-21.563-52.22-21.563h-282.44m282.84 282.84h73.38v1.813c0 40.878-32.903 73.78-73.78 73.78h-73.37v-1.813c0-40.878 32.903-73.78 73.78-73.78" style="opacity:.25"/><path d="m114.79 76.78h282.43c40.878 0 73.79 32.909 73.79 73.79v210.86c0 40.878-32.909 73.79-73.79 73.79h-282.43c-40.878 0-73.79-32.909-73.79-73.79v-210.86c0-40.878 32.909-73.79 73.79-73.79" style="fill:#fff"/><g transform="translate(-676.75-3.526)" line-height="125%" style="letter-spacing:0;word-spacing:0;font-family:Gentium Book Basic"><g style="font-size:208.33"><text y="89.28" x="459.78"><tspan y="89.28" x="459.78"/></text><text y="367.4" x="-1899.05"><tspan y="367.4" x="-1899.05"/></text><text y="140.11" x="-1610.84"><tspan y="140.11" x="-1610.84"/></text><text y="-116.79" x="2583.76"><tspan y="-116.79" x="2583.76"/></text><text y="28.25" x="455.83"><tspan y="28.25" x="455.83"/></text><text y="306.36" x="-1903"><tspan y="306.36" x="-1903"/></text><text y="79.08" x="-1614.79"><tspan y="79.08" x="-1614.79"/></text></g><text y="231.36" x="729.64" style="font-size:129.23"><tspan y="231.36" x="729.64"/></text></g><text transform="scale(4.0128.2492)" y="565.1" x="210.26" style="font-size:46.954;font-family:Arial;text-anchor:middle"/><text y="147.83" x="634.16" line-height="125%" style="letter-spacing:0;word-spacing:0;font-size:129.23;font-family:Gentium Book Basic"><tspan y="147.83" x="634.16"/></text><text transform="scale(4.0128.2492)" y="244.07" x="355.11" style="font-size:46.954;font-family:Arial;text-anchor:middle"/><text y="-33.427" x="-437.42" line-height="125%" style="letter-spacing:0;word-spacing:0;font-size:129.23;font-family:Gentium Book Basic"><tspan y="-33.427" x="-437.42"/></text><text transform="scale(4.0128.2492)" y="-483.29" x="88.07" style="font-size:46.954;font-family:Arial;text-anchor:middle"/><text y="-249.9" x="660.63" line-height="125%" style="letter-spacing:0;word-spacing:0;font-size:129.23;font-family:Gentium Book Basic"><tspan y="-249.9" x="660.63"/></text><text transform="scale(4.0128.2492)" y="-1351.95" x="361.71" style="font-size:46.954;font-family:Arial;text-anchor:middle"/><text y="-329.91" x="1241.9" line-height="125%" style="letter-spacing:0;word-spacing:0;font-size:129.23;font-family:Gentium Book Basic"><tspan y="-329.91" x="1241.9"/></text><text transform="scale(4.0128.2492)" y="-1672.99" x="506.56" style="font-size:46.954;font-family:Arial;text-anchor:middle"/><text y="-802.31" x="852.78" line-height="125%" style="letter-spacing:0;word-spacing:0;font-size:129.23;font-family:Gentium Book Basic"><tspan y="-802.31" x="852.78"/></text><text transform="scale(4.0128.2492)" y="-3568.64" x="409.59" style="font-size:46.954;font-family:Arial;text-anchor:middle"/><text y="-882.31" x="1434.04" line-height="125%" style="letter-spacing:0;word-spacing:0;font-size:129.23;font-family:Gentium Book Basic"><tspan y="-882.31" x="1434.04"/></text><text transform="scale(4.0128.2492)" y="-3889.67" x="554.44" style="font-size:46.954;font-family:Arial;text-anchor:middle"/><g transform="translate(-676.75-3.526)" line-height="125%" style="letter-spacing:0;word-spacing:0"><text y="535.94" x="277.99" style="font-size:208.33;font-family:Gentium Book Basic"><tspan y="535.94" x="277.99"/></text><g><flowRoot transform="matrix(10.29412 0 0 10.29412-234.54-10322.61)" style="opacity:.25"><flowRegion><path id="0" d="m-53.03 6.634h57.629v49.32h-57.629z"/></flowRegion><flowPara/></flowRoot><flowRoot transform="matrix(10.29412 0 0 10.29412-1650.15-10493.49)"><flowRegion><use xlink:href="#0" height="1" width="1"/></flowRegion><flowPara/></flowRoot></g></g><text y="19.564" x="-936.4" line-height="125%" style="letter-spacing:0;word-spacing:0;font-size:129.23;font-family:Gentium Book Basic"><tspan y="19.564" x="-936.4"/></text><text transform="scale(4.0128.2492)" y="-270.66" x="-36.27" style="font-size:46.954;font-family:Arial;text-anchor:middle"/><text y="-60.44" x="-355.13" line-height="125%" style="letter-spacing:0;word-spacing:0;font-size:129.23;font-family:Gentium Book Basic"><tspan y="-60.44" x="-355.13"/></text><text transform="scale(4.0128.2492)" y="-591.69" x="108.58" style="font-size:46.954;font-family:Arial;text-anchor:middle"/><text y="-241.7" x="-1426.71" line-height="125%" style="letter-spacing:0;word-spacing:0;font-size:129.23;font-family:Gentium Book Basic"><tspan y="-241.7" x="-1426.71"/></text><text transform="scale(4.0128.2492)" y="-1319.03" x="-158.46" style="font-size:46.954;font-family:Arial;text-anchor:middle"/><text y="-458.17" x="-328.66" line-height="125%" style="letter-spacing:0;word-spacing:0;font-size:129.23;font-family:Gentium Book Basic"><tspan y="-458.17" x="-328.66"/></text><text transform="scale(4.0128.2492)" y="-2187.7" x="115.18" style="font-size:46.954;font-family:Arial;text-anchor:middle"/><text y="-538.18" x="252.61" line-height="125%" style="letter-spacing:0;word-spacing:0;font-size:129.23;font-family:Gentium Book Basic"><tspan y="-538.18" x="252.61"/></text><text transform="scale(4.0128.2492)" y="-2508.74" x="260.02" style="font-size:46.954;font-family:Arial;text-anchor:middle"/><text y="-1010.58" x="-136.51" line-height="125%" style="letter-spacing:0;word-spacing:0;font-size:129.23;font-family:Gentium Book Basic"><tspan y="-1010.58" x="-136.51"/></text><text transform="scale(4.0128.2492)" y="-4404.38" x="163.06" style="font-size:46.954;font-family:Arial;text-anchor:middle"/><text y="-1090.58" x="444.75" line-height="125%" style="letter-spacing:0;word-spacing:0;font-size:129.23;font-family:Gentium Book Basic"><tspan y="-1090.58" x="444.75"/></text><text transform="scale(4.0128.2492)" y="-4725.4" x="307.9" style="font-size:46.954;font-family:Arial;text-anchor:middle"/><g line-height="125%" style="letter-spacing:0;word-spacing:0;font-family:Gentium Book Basic"><g style="font-size:208.33"><text y="324.14" x="-1388.05"><tspan y="324.14" x="-1388.05"/></text><g transform="translate(-676.75-3.526)"><text y="89.28" x="459.78"><tspan y="89.28" x="459.78"/></text><text y="367.4" x="-1899.05"><tspan y="367.4" x="-1899.05"/></text><text y="140.11" x="-1610.84"><tspan y="140.11" x="-1610.84"/></text><text y="-116.79" x="2583.76"><tspan y="-116.79" x="2583.76"/></text><text y="28.25" x="455.83"><tspan y="28.25" x="455.83"/></text><text y="306.36" x="-1903"><tspan y="306.36" x="-1903"/></text><text y="79.08" x="-1614.79"><tspan y="79.08" x="-1614.79"/></text></g></g><text y="227.83" x="52.893" style="font-size:129.23"><tspan y="227.83" x="52.893"/></text></g><text transform="scale(4.0128.2492)" y="565.1" x="210.26" style="font-size:46.954;font-family:Arial;text-anchor:middle"/><text y="147.83" x="634.16" line-height="125%" style="letter-spacing:0;word-spacing:0;font-size:129.23;font-family:Gentium Book Basic"><tspan y="147.83" x="634.16"/></text><text transform="scale(4.0128.2492)" y="244.07" x="355.11" style="font-size:46.954;font-family:Arial;text-anchor:middle"/><text y="-33.427" x="-437.42" line-height="125%" style="letter-spacing:0;word-spacing:0;font-size:129.23;font-family:Gentium Book Basic"><tspan y="-33.427" x="-437.42"/></text><text transform="scale(4.0128.2492)" y="-483.29" x="88.07" style="font-size:46.954;font-family:Arial;text-anchor:middle"/><text y="-249.9" x="660.63" line-height="125%" style="letter-spacing:0;word-spacing:0;font-size:129.23;font-family:Gentium Book Basic"><tspan y="-249.9" x="660.63"/></text><text transform="scale(4.0128.2492)" y="-1351.94" x="361.71" style="font-size:46.954;font-family:Arial;text-anchor:middle"/><text y="-329.91" x="1241.9" line-height="125%" style="letter-spacing:0;word-spacing:0;font-size:129.23;font-family:Gentium Book Basic"><tspan y="-329.91" x="1241.9"/></text><text transform="scale(4.0128.2492)" y="-1672.98" x="506.56" style="font-size:46.954;font-family:Arial;text-anchor:middle"/><text y="-802.31" x="852.78" line-height="125%" style="letter-spacing:0;word-spacing:0;font-size:129.23;font-family:Gentium Book Basic"><tspan y="-802.31" x="852.78"/></text><text transform="scale(4.0128.2492)" y="-3568.62" x="409.59" style="font-size:46.954;font-family:Arial;text-anchor:middle"/><text y="-882.31" x="1434.04" line-height="125%" style="letter-spacing:0;word-spacing:0;font-size:129.23;font-family:Gentium Book Basic"><tspan y="-882.31" x="1434.04"/></text><text transform="scale(4.0128.2492)" y="-3889.65" x="554.44" style="font-size:46.954;font-family:Arial;text-anchor:middle"/><g transform="translate(-676.75-3.526)" line-height="125%" style="letter-spacing:0;word-spacing:0"><text y="535.94" x="277.99" style="font-size:208.33;font-family:Gentium Book Basic"><tspan y="535.94" x="277.99"/></text><g><flowRoot transform="matrix(10.29412 0 0 10.29412-234.54-10322.61)" style="opacity:.25"><flowRegion><use xlink:href="#0" height="1" width="1" id="1"/></flowRegion><flowPara/></flowRoot><flowRoot transform="matrix(10.29412 0 0 10.29412-1650.15-10493.49)"><flowRegion><use xlink:href="#1" height="1" width="1"/></flowRegion><flowPara/></flowRoot></g></g><text y="19.564" x="-936.4" line-height="125%" style="letter-spacing:0;word-spacing:0;font-size:129.23;font-family:Gentium Book Basic"><tspan y="19.564" x="-936.4"/></text><text transform="scale(4.0128.2492)" y="-270.66" x="-36.27" style="font-size:46.954;font-family:Arial;text-anchor:middle"/><text y="-60.44" x="-355.13" line-height="125%" style="letter-spacing:0;word-spacing:0;font-size:129.23;font-family:Gentium Book Basic"><tspan y="-60.44" x="-355.13"/></text><text transform="scale(4.0128.2492)" y="-591.69" x="108.58" style="font-size:46.954;font-family:Arial;text-anchor:middle"/><text y="-241.7" x="-1426.71" line-height="125%" style="letter-spacing:0;word-spacing:0;font-size:129.23;font-family:Gentium Book Basic"><tspan y="-241.7" x="-1426.71"/></text><text transform="scale(4.0128.2492)" y="-1319.03" x="-158.46" style="font-size:46.954;font-family:Arial;text-anchor:middle"/><text y="-458.17" x="-328.66" line-height="125%" style="letter-spacing:0;word-spacing:0;font-size:129.23;font-family:Gentium Book Basic"><tspan y="-458.17" x="-328.66"/></text><text transform="scale(4.0128.2492)" y="-2187.7" x="115.18" style="font-size:46.954;font-family:Arial;text-anchor:middle"/><text y="-538.18" x="252.61" line-height="125%" style="letter-spacing:0;word-spacing:0;font-size:129.23;font-family:Gentium Book Basic"><tspan y="-538.18" x="252.61"/></text><text transform="scale(4.0128.2492)" y="-2508.74" x="260.02" style="font-size:46.954;font-family:Arial;text-anchor:middle"/><text y="-1010.58" x="-136.51" line-height="125%" style="letter-spacing:0;word-spacing:0;font-size:129.23;font-family:Gentium Book Basic"><tspan y="-1010.58" x="-136.51"/></text><text transform="scale(4.0128.2492)" y="-4404.38" x="163.06" style="font-size:46.954;font-family:Arial;text-anchor:middle"/><text y="-1090.58" x="444.75" line-height="125%" style="letter-spacing:0;word-spacing:0;font-size:129.23;font-family:Gentium Book Basic"><tspan y="-1090.58" x="444.75"/></text><text transform="scale(4.0128.2492)" y="-4725.4" x="307.9" style="font-size:46.954;font-family:Arial;text-anchor:middle"/><g line-height="125%" style="letter-spacing:0;word-spacing:0;font-family:Gentium Book Basic"><g style="font-size:208.33"><text y="324.14" x="-1388.05"><tspan y="324.14" x="-1388.05"/></text><g transform="translate(-676.75-3.526)"><text y="89.28" x="459.78"><tspan y="89.28" x="459.78"/></text><text y="367.4" x="-1899.05"><tspan y="367.4" x="-1899.05"/></text><text y="140.11" x="-1610.84"><tspan y="140.11" x="-1610.84"/></text><text y="-116.79" x="2583.76"><tspan y="-116.79" x="2583.76"/></text><text y="28.25" x="455.83"><tspan y="28.25" x="455.83"/></text><text y="306.36" x="-1903"><tspan y="306.36" x="-1903"/></text><text y="79.08" x="-1614.79"><tspan y="79.08" x="-1614.79"/></text></g></g><text y="227.83" x="52.893" style="font-size:129.23"><tspan y="227.83" x="52.893"/></text></g><text transform="scale(4.0128.2492)" y="565.1" x="210.26" style="font-size:46.954;font-family:Arial;text-anchor:middle"/><text y="147.83" x="634.16" line-height="125%" style="letter-spacing:0;word-spacing:0;font-size:129.23;font-family:Gentium Book Basic"><tspan y="147.83" x="634.16"/></text><text transform="scale(4.0128.2492)" y="244.07" x="355.11" style="font-size:46.954;font-family:Arial;text-anchor:middle"/><text y="-33.427" x="-437.42" line-height="125%" style="letter-spacing:0;word-spacing:0;font-size:129.23;font-family:Gentium Book Basic"><tspan y="-33.427" x="-437.42"/></text><text transform="scale(4.0128.2492)" y="-483.29" x="88.07" style="font-size:46.954;font-family:Arial;text-anchor:middle"/><text y="-249.9" x="660.63" line-height="125%" style="letter-spacing:0;word-spacing:0;font-size:129.23;font-family:Gentium Book Basic"><tspan y="-249.9" x="660.63"/></text><text transform="scale(4.0128.2492)" y="-1351.95" x="361.71" style="font-size:46.954;font-family:Arial;text-anchor:middle"/><text y="-329.91" x="1241.9" line-height="125%" style="letter-spacing:0;word-spacing:0;font-size:129.23;font-family:Gentium Book Basic"><tspan y="-329.91" x="1241.9"/></text><text transform="scale(4.0128.2492)" y="-1672.99" x="506.56" style="font-size:46.954;font-family:Arial;text-anchor:middle"/><text y="-802.31" x="852.78" line-height="125%" style="letter-spacing:0;word-spacing:0;font-size:129.23;font-family:Gentium Book Basic"><tspan y="-802.31" x="852.78"/></text><text transform="scale(4.0128.2492)" y="-3568.64" x="409.59" style="font-size:46.954;font-family:Arial;text-anchor:middle"/><text y="-882.31" x="1434.04" line-height="125%" style="letter-spacing:0;word-spacing:0;font-size:129.23;font-family:Gentium Book Basic"><tspan y="-882.31" x="1434.04"/></text><text transform="scale(4.0128.2492)" y="-3889.67" x="554.44" style="font-size:46.954;font-family:Arial;text-anchor:middle"/><g transform="translate(-676.75-3.526)" line-height="125%" style="letter-spacing:0;word-spacing:0"><text y="535.94" x="277.99" style="font-size:208.33;font-family:Gentium Book Basic"><tspan y="535.94" x="277.99"/></text><g><flowRoot transform="matrix(10.29412 0 0 10.29412-234.54-10322.61)" style="opacity:.25"><flowRegion><use xlink:href="#0" height="1" width="1" id="2"/></flowRegion><flowPara/></flowRoot><flowRoot transform="matrix(10.29412 0 0 10.29412-1650.15-10493.49)"><flowRegion><use xlink:href="#2" height="1" width="1"/></flowRegion><flowPara/></flowRoot></g></g><text y="19.564" x="-936.4" line-height="125%" style="letter-spacing:0;word-spacing:0;font-size:129.23;font-family:Gentium Book Basic"><tspan y="19.564" x="-936.4"/></text><text transform="scale(4.0128.2492)" y="-270.66" x="-36.27" style="font-size:46.954;font-family:Arial;text-anchor:middle"/><text y="-60.44" x="-355.13" line-height="125%" style="letter-spacing:0;word-spacing:0;font-size:129.23;font-family:Gentium Book Basic"><tspan y="-60.44" x="-355.13"/></text><text transform="scale(4.0128.2492)" y="-591.69" x="108.58" style="font-size:46.954;font-family:Arial;text-anchor:middle"/><text y="-241.7" x="-1426.71" line-height="125%" style="letter-spacing:0;word-spacing:0;font-size:129.23;font-family:Gentium Book Basic"><tspan y="-241.7" x="-1426.71"/></text><text transform="scale(4.0128.2492)" y="-1319.03" x="-158.46" style="font-size:46.954;font-family:Arial;text-anchor:middle"/><text y="-458.17" x="-328.66" line-height="125%" style="letter-spacing:0;word-spacing:0;font-size:129.23;font-family:Gentium Book Basic"><tspan y="-458.17" x="-328.66"/></text><text transform="scale(4.0128.2492)" y="-2187.7" x="115.18" style="font-size:46.954;font-family:Arial;text-anchor:middle"/><text y="-538.18" x="252.61" line-height="125%" style="letter-spacing:0;word-spacing:0;font-size:129.23;font-family:Gentium Book Basic"><tspan y="-538.18" x="252.61"/></text><text transform="scale(4.0128.2492)" y="-2508.74" x="260.02" style="font-size:46.954;font-family:Arial;text-anchor:middle"/><text y="-1010.58" x="-136.51" line-height="125%" style="letter-spacing:0;word-spacing:0;font-size:129.23;font-family:Gentium Book Basic"><tspan y="-1010.58" x="-136.51"/></text><text transform="scale(4.0128.2492)" y="-4404.38" x="163.06" style="font-size:46.954;font-family:Arial;text-anchor:middle"/><text y="-1090.58" x="444.75" line-height="125%" style="letter-spacing:0;word-spacing:0;font-size:129.23;font-family:Gentium Book Basic"><tspan y="-1090.58" x="444.75"/></text><text transform="scale(4.0128.2492)" y="-4725.4" x="307.9" style="font-size:46.954;font-family:Arial;text-anchor:middle"/><text y="324.14" x="-1388.05" line-height="125%" style="letter-spacing:0;word-spacing:0;font-size:208.33;font-family:Gentium Book Basic"><tspan y="324.14" x="-1388.05"/></text><rect y="110.39" x="74.19" rx="44.11" height="291.22" width="363.62" style="fill:#4e8439"/><g style="fill:#fff"><path d="m322.54 127.11v191.66c0 19.813-15.905 35.759-35.718 35.759h-191.74v.664c0 16.445 13.216 29.703 29.661 29.703h262.51c16.445 0 29.661-13.258 29.661-29.703v-198.38c0-16.445-13.216-29.703-29.661-29.703h-64.715"/><path d="m271.76 333.41c16.445 0 29.661-13.258 29.661-29.703v-176.6l-206.34 206.3h176.68"/></g></svg>