<?xml version="1.0" encoding="UTF-8" standalone="no"?>
<svg
   xmlns:dc="http://purl.org/dc/elements/1.1/"
   xmlns:cc="http://creativecommons.org/ns#"
   xmlns:rdf="http://www.w3.org/1999/02/22-rdf-syntax-ns#"
   xmlns:svg="http://www.w3.org/2000/svg"
   xmlns="http://www.w3.org/2000/svg"
   xmlns:sodipodi="http://sodipodi.sourceforge.net/DTD/sodipodi-0.dtd"
   xmlns:inkscape="http://www.inkscape.org/namespaces/inkscape"
   viewBox="0 0 512 512"
   id="svg2"
   version="1.1"
   inkscape:version="0.91+devel r13804 custom"
   sodipodi:docname="preferences-desktop-display.svg">
  <metadata
     id="metadata77">
    <rdf:RDF>
      <cc:Work
         rdf:about="">
        <dc:format>image/svg+xml</dc:format>
        <dc:type
           rdf:resource="http://purl.org/dc/dcmitype/StillImage" />
        <dc:title></dc:title>
      </cc:Work>
    </rdf:RDF>
  </metadata>
  <sodipodi:namedview
     pagecolor="#ffffff"
     bordercolor="#666666"
     borderopacity="1"
     objecttolerance="10"
     gridtolerance="10"
     guidetolerance="10"
     inkscape:pageopacity="0"
     inkscape:pageshadow="2"
     inkscape:window-width="1366"
     inkscape:window-height="709"
     id="namedview75"
     showgrid="false"
     inkscape:zoom="0.4609375"
     inkscape:cx="91.118644"
     inkscape:cy="157.28814"
     inkscape:window-x="-2"
     inkscape:window-y="-3"
     inkscape:window-maximized="1"
     inkscape:current-layer="svg2"
     showguides="false" />
  <defs
     id="defs4" />
  <g
     id="g6311"
     transform="translate(366.64407,-292.88136)">
    <path
       id="path5956"
       style="fill:#b93d48"
       d="m -340.64557,292.87636 c -14.397,0 -26,11.603 -26,26 l 0,460 c 0,14.397 11.603,26 26,26 l 460,0 c 14.397,0 26,-11.603 26,-26 l 0,-460 c 0,-14.397 -11.603,-26 -26,-26 l -460,0"
       inkscape:connector-curvature="0" />
    <path
       inkscape:connector-curvature="0"
       d="m -254.20557,369.65636 c -39.23,0 -71.44,38.578 -71.44,85.53 l 0,187.38 c 0,26.25 10.08,49.892 25.813,65.63 l 96.69,96.69 322.5,0 c 14.397,0 26,-11.603 26,-26 l 0,-322.47 -65.339998,-65.34 -1.469,-1.5 c -12.41,-12.41 -28.327,-19.906 -45.625,-19.906 l -287.120002,0 m 282.840002,282.84 75.219998,0 c -4.154998,42.34 -34.511998,75.59 -70.937998,75.59 l -75.22,0 c 4.156,-42.34 34.5120002,-75.59 70.938,-75.59"
       style="color:#000000;opacity:0.25"
       id="path5960" />
    <path
       inkscape:connector-curvature="0"
       d="m -254.20557,369.65636 c -39.23,0 -71.44,38.564 -71.44,85.52 l 0,187.4 c 0,46.954 32.22,85.52 71.44,85.52 l 287.110002,0 c 39.23,0 71.439998,-38.564 71.439998,-85.52 l 0,-187.4 c 0,-46.954 -32.219998,-85.52 -71.439998,-85.52 l -287.110002,0"
       style="color:#000000;fill:#ffffff"
       id="path5962" />
    <g
       transform="translate(-366.64557,292.87636)"
       id="g6107"
       style="color:#000000">
      <path
         id="path6109"
         style="fill:#8b2e36"
         d="m 399.95,110.69 c -97.85,0.232 -195.77,-0.473 -293.58,0.373 -22.267,4.262 -33.811,29.14 -32.32,49.989 0.35,67.69 -0.928,135.46 0.705,203.11 2.579,19.749 19.12,40 40.489,37.705 97.27,-0.389 194.63,0.8 291.84,-0.618 22.11,-5.04 32.869,-30.14 31.32,-51.19 -0.457,-67.31 0.945,-134.69 -0.742,-201.95 -2.75,-18.452 -17.216,-38.28 -37.709,-37.419"
         inkscape:connector-curvature="0" />
      <path
         id="path6111"
         style="fill:#ffffff"
         d="m 136.27,130.83 c -23.377,1.485 -38.13,26.414 -36.773,48.12 1.193,65.09 -1.114,127.06 0.556,183.52 77.76,-74.859 169.02,-162.44 238.45,-231.69 -67.4,0.011 -134.82,-0.03 -202.22,0.038"
         inkscape:connector-curvature="0" />
    </g>
  </g>
</svg>
