<?xml version="1.0" encoding="UTF-8" standalone="no"?>
<svg
   xmlns:dc="http://purl.org/dc/elements/1.1/"
   xmlns:cc="http://creativecommons.org/ns#"
   xmlns:rdf="http://www.w3.org/1999/02/22-rdf-syntax-ns#"
   xmlns:svg="http://www.w3.org/2000/svg"
   xmlns="http://www.w3.org/2000/svg"
   xmlns:xlink="http://www.w3.org/1999/xlink"
   xmlns:sodipodi="http://sodipodi.sourceforge.net/DTD/sodipodi-0.dtd"
   xmlns:inkscape="http://www.inkscape.org/namespaces/inkscape"
   viewBox="0 0 512 512"
   id="svg2"
   version="1.1"
   inkscape:version="0.91+devel r13804 custom"
   sodipodi:docname="preferences-desktop-display-color.svg">
  <metadata
     id="metadata77">
    <rdf:RDF>
      <cc:Work
         rdf:about="">
        <dc:format>image/svg+xml</dc:format>
        <dc:type
           rdf:resource="http://purl.org/dc/dcmitype/StillImage" />
        <dc:title></dc:title>
      </cc:Work>
    </rdf:RDF>
  </metadata>
  <sodipodi:namedview
     pagecolor="#ffffff"
     bordercolor="#666666"
     borderopacity="1"
     objecttolerance="10"
     gridtolerance="10"
     guidetolerance="10"
     inkscape:pageopacity="0"
     inkscape:pageshadow="2"
     inkscape:window-width="1366"
     inkscape:window-height="709"
     id="namedview75"
     showgrid="false"
     inkscape:zoom="0.4609375"
     inkscape:cx="91.118644"
     inkscape:cy="157.28814"
     inkscape:window-x="-2"
     inkscape:window-y="-3"
     inkscape:window-maximized="1"
     inkscape:current-layer="svg2"
     showguides="false" />
  <defs
     id="defs4" />
  <g
     id="g5420"
     transform="translate(-75.932201)">
    <path
       id="path5036"
       style="fill:#924565"
       d="M 101.9322,0 C 87.535203,0 75.932203,11.603 75.932203,26 l 0,460 c 0,14.397 11.603,26 25.999997,26 l 460,0 c 14.397,0 26,-11.603 26,-26 l 0,-460 c 0,-14.397 -11.603,-26 -26,-26 l -460,0"
       inkscape:connector-curvature="0" />
    <path
       id="path5040"
       d="m 188.37305,76.779297 c -39.23,0 -71.44141,38.565483 -71.44141,85.521483 l 0,187.39844 c 0,26.25 10.06978,49.87633 25.80078,65.61133 L 239.42188,512 l 312.83984,0 -76.7793,-76.7793 -146.41992,0 0,-60.79101 c 0,-46.954 32.21945,-85.51953 71.43945,-85.51953 L 188.37305,76.779297 Z m 0.01,0 212.12891,212.130863 146.41992,0 0,60.78906 c 0,46.956 -32.20945,85.52148 -71.43945,85.52148 L 552.27148,512 l 9.66016,0 c 14.397,0 26,-11.603 26,-26 l 0,-322.51172 -66.79883,-66.798827 C 508.72422,84.28086 492.78987,76.78295 475.49414,76.78125 l -0.002,-0.002 -287.10938,0 z"
       style="color:#000000;opacity:0.25"
       inkscape:connector-curvature="0" />
    <path
       id="path5060"
       style="color:#000000;fill:#ffffff"
       d="m 188.3722,76.78 c -39.23,0 -71.44,38.564 -71.44,85.52 l 0,187.4 c 0,46.954 32.22,85.52 71.44,85.52 l 287.11,0 c 39.23,0 71.44,-38.564 71.44,-85.52 l 0,-187.4 c 0,-46.954 -32.22,-85.52 -71.44,-85.52 l -287.11,0"
       inkscape:connector-curvature="0" />
    <g
       id="g5062"
       style="font-size:208.33000183px;line-height:125%;font-family:'Gentium Book Basic';letter-spacing:0;word-spacing:0"
       line-height="125%"
       transform="translate(927.5222,-1.429)">
      <text
         id="text5064"
         x="459.78"
         y="89.279999">
        <tspan
           id="tspan5066"
           x="459.78"
           y="89.279999" />
      </text>
      <text
         id="text5068"
         x="-1899.05"
         y="367.39999">
        <tspan
           id="tspan5070"
           x="-1899.05"
           y="367.39999" />
      </text>
      <text
         id="text5072"
         x="-1610.84"
         y="140.11">
        <tspan
           id="tspan5074"
           x="-1610.84"
           y="140.11" />
      </text>
      <text
         id="text5076"
         x="2583.76"
         y="-116.79">
        <tspan
           id="tspan5078"
           x="2583.76"
           y="-116.79" />
      </text>
      <text
         id="text5080"
         x="455.82999"
         y="28.25">
        <tspan
           id="tspan5082"
           x="455.82999"
           y="28.25" />
      </text>
      <text
         id="text5084"
         x="-1903"
         y="306.35999">
        <tspan
           id="tspan5086"
           x="-1903"
           y="306.35999" />
      </text>
      <text
         id="text5088"
         x="-1614.79"
         y="79.080002">
        <tspan
           id="tspan5090"
           x="-1614.79"
           y="79.080002" />
      </text>
    </g>
    <text
       id="text5092"
       style="font-size:129.22999573px;line-height:125%;font-family:'Gentium Book Basic';letter-spacing:0;word-spacing:0"
       line-height="125%"
       x="1657.1622"
       y="229.92999"
       sodipodi:linespacing="125%">
      <tspan
         id="tspan5094"
         x="1657.1622"
         y="229.92999" />
    </text>
    <text
       id="text5096"
       style="font-size:46.95399857px;font-family:Arial;text-anchor:middle"
       x="610.04938"
       y="573.50708"
       transform="scale(4.0128205,0.24920128)" />
    <text
       id="text5098"
       style="font-size:129.22999573px;line-height:125%;font-family:'Gentium Book Basic';letter-spacing:0;word-spacing:0"
       line-height="125%"
       x="2238.4321"
       y="149.92999"
       sodipodi:linespacing="125%">
      <tspan
         id="tspan5100"
         x="2238.4321"
         y="149.92999" />
    </text>
    <text
       id="text5102"
       style="font-size:46.95399857px;font-family:Arial;text-anchor:middle"
       x="754.89862"
       y="252.4787"
       transform="scale(4.0128205,0.24920128)" />
    <text
       id="text5104"
       style="font-size:129.22999573px;line-height:125%;font-family:'Gentium Book Basic';letter-spacing:0;word-spacing:0"
       line-height="125%"
       x="1166.8523"
       y="-31.33"
       sodipodi:linespacing="125%">
      <tspan
         id="tspan5106"
         x="1166.8523"
         y="-31.33" />
    </text>
    <text
       id="text5108"
       style="font-size:46.95399857px;font-family:Arial;text-anchor:middle"
       x="487.86002"
       y="-474.86755"
       transform="scale(4.0128205,0.24920128)" />
    <text
       id="text5110"
       style="font-size:129.22999573px;line-height:125%;font-family:'Gentium Book Basic';letter-spacing:0;word-spacing:0"
       line-height="125%"
       x="2264.9021"
       y="-247.8"
       sodipodi:linespacing="125%">
      <tspan
         id="tspan5112"
         x="2264.9021"
         y="-247.8" />
    </text>
    <text
       id="text5114"
       style="font-size:46.95399857px;font-family:Arial;text-anchor:middle"
       x="761.4986"
       y="-1343.5332"
       transform="scale(4.0128205,0.24920128)" />
    <text
       id="text5116"
       style="font-size:129.22999573px;line-height:125%;font-family:'Gentium Book Basic';letter-spacing:0;word-spacing:0"
       line-height="125%"
       x="2846.1721"
       y="-327.81"
       sodipodi:linespacing="125%">
      <tspan
         id="tspan5118"
         x="2846.1721"
         y="-327.81" />
    </text>
    <text
       id="text5120"
       style="font-size:46.95399857px;font-family:Arial;text-anchor:middle"
       x="906.33783"
       y="-1664.5714"
       transform="scale(4.0128205,0.24920128)" />
    <text
       id="text5122"
       style="font-size:129.22999573px;line-height:125%;font-family:'Gentium Book Basic';letter-spacing:0;word-spacing:0"
       line-height="125%"
       x="2457.0522"
       y="-800.21002"
       sodipodi:linespacing="125%">
      <tspan
         id="tspan5124"
         x="2457.0522"
         y="-800.21002" />
    </text>
    <text
       id="text5126"
       style="font-size:46.95399857px;font-family:Arial;text-anchor:middle"
       x="809.37836"
       y="-3560.2117"
       transform="scale(4.0128205,0.24920128)" />
    <text
       id="text5128"
       style="font-size:129.22999573px;line-height:125%;font-family:'Gentium Book Basic';letter-spacing:0;word-spacing:0"
       line-height="125%"
       x="3038.312"
       y="-880.21002"
       sodipodi:linespacing="125%">
      <tspan
         id="tspan5130"
         x="3038.312"
         y="-880.21002" />
    </text>
    <text
       id="text5132"
       style="font-size:46.95399857px;font-family:Arial;text-anchor:middle"
       x="954.21759"
       y="-3881.2302"
       transform="scale(4.0128205,0.24920128)" />
    <g
       id="g5134"
       style="line-height:125%;letter-spacing:0;word-spacing:0"
       line-height="125%"
       transform="translate(927.5222,-1.429)">
      <text
         id="text5136"
         style="font-size:208.33000183px;font-family:'Gentium Book Basic'"
         x="277.98999"
         y="535.94">
        <tspan
           id="tspan5138"
           x="277.98999"
           y="535.94" />
      </text>
      <g
         id="g5140">
        <flowRoot
           id="flowRoot5142"
           style="opacity:0.25"
           transform="matrix(10.29412,0,0,10.29412,-234.54,-10322.61)">
          <flowRegion
             id="flowRegion5144">
            <path
               d="m -53.03,6.634 57.629,0 0,49.32 -57.629,0 z"
               id="1"
               inkscape:connector-curvature="0" />
          </flowRegion>
          <flowPara
             id="flowPara5147" />
        </flowRoot>
        <flowRoot
           id="flowRoot5149"
           transform="matrix(10.29412,0,0,10.29412,-1650.15,-10493.49)">
          <flowRegion
             id="flowRegion5151">
            <use
               id="use5153"
               width="1"
               height="1"
               xlink:href="#1"
               x="0"
               y="0" />
          </flowRegion>
          <flowPara
             id="flowPara5155" />
        </flowRoot>
      </g>
    </g>
    <text
       id="text5157"
       style="font-size:129.22999573px;line-height:125%;font-family:'Gentium Book Basic';letter-spacing:0;word-spacing:0"
       line-height="125%"
       x="667.87219"
       y="21.660999"
       sodipodi:linespacing="125%">
      <tspan
         id="tspan5159"
         x="667.87219"
         y="21.660999" />
    </text>
    <text
       id="text5161"
       style="font-size:46.95399857px;font-family:Arial;text-anchor:middle"
       x="363.52063"
       y="-262.23865"
       transform="scale(4.0128205,0.24920128)" />
    <text
       id="text5163"
       style="font-size:129.22999573px;line-height:125%;font-family:'Gentium Book Basic';letter-spacing:0;word-spacing:0"
       line-height="125%"
       x="1249.1422"
       y="-58.34"
       sodipodi:linespacing="125%">
      <tspan
         id="tspan5165"
         x="1249.1422"
         y="-58.34" />
    </text>
    <text
       id="text5167"
       style="font-size:46.95399857px;font-family:Arial;text-anchor:middle"
       x="508.3699"
       y="-583.26703"
       transform="scale(4.0128205,0.24920128)" />
    <text
       id="text5169"
       style="font-size:129.22999573px;line-height:125%;font-family:'Gentium Book Basic';letter-spacing:0;word-spacing:0"
       line-height="125%"
       x="177.56219"
       y="-239.60001"
       sodipodi:linespacing="125%">
      <tspan
         id="tspan5171"
         x="177.56219"
         y="-239.60001" />
    </text>
    <text
       id="text5173"
       style="font-size:46.95399857px;font-family:Arial;text-anchor:middle"
       x="241.32126"
       y="-1310.6133"
       transform="scale(4.0128205,0.24920128)" />
    <text
       id="text5175"
       style="font-size:129.22999573px;line-height:125%;font-family:'Gentium Book Basic';letter-spacing:0;word-spacing:0"
       line-height="125%"
       x="1275.6123"
       y="-456.07001"
       sodipodi:linespacing="125%">
      <tspan
         id="tspan5177"
         x="1275.6123"
         y="-456.07001" />
    </text>
    <text
       id="text5179"
       style="font-size:46.95399857px;font-family:Arial;text-anchor:middle"
       x="514.96985"
       y="-2179.2688"
       transform="scale(4.0128205,0.24920128)" />
    <text
       id="text5181"
       style="font-size:129.22999573px;line-height:125%;font-family:'Gentium Book Basic';letter-spacing:0;word-spacing:0"
       line-height="125%"
       x="1856.8822"
       y="-536.08002"
       sodipodi:linespacing="125%">
      <tspan
         id="tspan5183"
         x="1856.8822"
         y="-536.08002" />
    </text>
    <text
       id="text5185"
       style="font-size:46.95399857px;font-family:Arial;text-anchor:middle"
       x="659.80914"
       y="-2500.3074"
       transform="scale(4.0128205,0.24920128)" />
    <text
       id="text5187"
       style="font-size:129.22999573px;line-height:125%;font-family:'Gentium Book Basic';letter-spacing:0;word-spacing:0"
       line-height="125%"
       x="1467.7622"
       y="-1008.48"
       sodipodi:linespacing="125%">
      <tspan
         id="tspan5189"
         x="1467.7622"
         y="-1008.48" />
    </text>
    <text
       id="text5191"
       style="font-size:46.95399857px;font-family:Arial;text-anchor:middle"
       x="562.84961"
       y="-4395.9375"
       transform="scale(4.0128205,0.24920128)" />
    <text
       id="text5193"
       style="font-size:129.22999573px;line-height:125%;font-family:'Gentium Book Basic';letter-spacing:0;word-spacing:0"
       line-height="125%"
       x="2049.0222"
       y="-1088.48"
       sodipodi:linespacing="125%">
      <tspan
         id="tspan5195"
         x="2049.0222"
         y="-1088.48" />
    </text>
    <text
       id="text5197"
       style="font-size:46.95399857px;font-family:Arial;text-anchor:middle"
       x="707.6889"
       y="-4716.9561"
       transform="scale(4.0128205,0.24920128)" />
    <text
       id="text5199"
       style="font-size:208.33000183px;line-height:125%;font-family:'Gentium Book Basic';letter-spacing:0;word-spacing:0"
       line-height="125%"
       x="216.2222"
       y="326.23999"
       sodipodi:linespacing="125%">
      <tspan
         id="tspan5201"
         x="216.2222"
         y="326.23999" />
    </text>
    <g
       id="g5203"
       style="color:#000000"
       transform="matrix(1.3275,0,0,1.3275,-7.907797,-83.83)">
      <path
         id="path5205"
         style="fill:#4ba077"
         d="m 146.92,142.52 218.47,0 c 17.792,0 32.01,17.619 32.01,39.811 l 0,147.56 c 0,22.19 -14.244,39.99 -32.01,39.99 l -218.47,0 c -17.761,0 -32.01,-17.798 -32.01,-39.99 l 0,-147.56 c 0,-22.19 14.216,-39.811 32.01,-39.811"
         inkscape:connector-curvature="0" />
      <path
         id="path5207"
         style="fill:#f38725"
         d="m 256.5,142.53 0,112.97 -140.87,0 0,-73.16 c 0,-22.19 14.208,-39.813 32,-39.813 l 108.88,0"
         inkscape:connector-curvature="0" />
      <path
         id="path5209"
         style="fill:#88687d"
         d="m 256.5,142.53 0,112.97 140.88,0 0,-73.16 c 0,-22.19 -14.208,-39.813 -32,-39.813 l -108.87,0"
         inkscape:connector-curvature="0" />
      <path
         id="path5211"
         style="fill:#68af4c"
         d="m 256.5,368.47 0,-112.97 140.88,0 0,73.16 c 0,22.19 -14.208,39.813 -32,39.813 l -108.87,0"
         inkscape:connector-curvature="0" />
      <path
         id="path5213"
         style="fill:#d23638"
         d="m 256.5,368.47 0,-112.97 -140.87,0 0,73.16 c 0,22.19 14.208,39.813 32,39.813 l 108.88,0"
         inkscape:connector-curvature="0" />
    </g>
    <path
       id="path5215"
       style="fill:#ffffff;fill-opacity:0.07900002"
       d="m 187.1322,105.38 c -23.617,0 -42.507,23.392 -42.507,52.852 l 0,195.89 c 0,29.457 18.93,53.09 42.507,53.09 l 68.52,0 c 89.58,-66.946 64.68,-173.34 133.11,-301.83 l -201.62,0"
       inkscape:connector-curvature="0" />
  </g>
</svg>
