<?xml version="1.0" encoding="UTF-8" standalone="no"?>
<svg
   xmlns:dc="http://purl.org/dc/elements/1.1/"
   xmlns:cc="http://creativecommons.org/ns#"
   xmlns:rdf="http://www.w3.org/1999/02/22-rdf-syntax-ns#"
   xmlns:svg="http://www.w3.org/2000/svg"
   xmlns="http://www.w3.org/2000/svg"
   xmlns:sodipodi="http://sodipodi.sourceforge.net/DTD/sodipodi-0.dtd"
   xmlns:inkscape="http://www.inkscape.org/namespaces/inkscape"
   viewBox="0 0 512 512"
   id="svg2"
   version="1.1"
   inkscape:version="0.91+devel r13804 custom"
   sodipodi:docname="pychess.svg">
  <metadata
     id="metadata77">
    <rdf:RDF>
      <cc:Work
         rdf:about="">
        <dc:format>image/svg+xml</dc:format>
        <dc:type
           rdf:resource="http://purl.org/dc/dcmitype/StillImage" />
        <dc:title></dc:title>
      </cc:Work>
    </rdf:RDF>
  </metadata>
  <sodipodi:namedview
     pagecolor="#ffffff"
     bordercolor="#666666"
     borderopacity="1"
     objecttolerance="10"
     gridtolerance="10"
     guidetolerance="10"
     inkscape:pageopacity="0"
     inkscape:pageshadow="2"
     inkscape:window-width="1366"
     inkscape:window-height="709"
     id="namedview75"
     showgrid="false"
     inkscape:zoom="0.32593203"
     inkscape:cx="-11.678728"
     inkscape:cy="95.710196"
     inkscape:window-x="-2"
     inkscape:window-y="-3"
     inkscape:window-maximized="1"
     inkscape:current-layer="svg2"
     showguides="true" />
  <defs
     id="defs4">
    <path
       style="fill:#fff"
       id="0"
       d="m350.45 319.42v-94.57h-3.967v53.54c0 5.293-.771 10.322-2.35 15.06-1.579 4.813-3.967 9.03-7.126 12.738-3.046 3.563-6.863 6.468-11.497 8.668-4.588 2.096-9.956 3.121-16.01 3.121-4.371 0-8.517-.62-12.485-1.73-3.817-1.25-7.239-3.01-10.285-5.547-2.905-2.538-5.218-5.688-6.9-9.551-1.73-3.93-1.871-8.781-1.871-14.318l-3.892.62c0 1.467 0 3.121 0 4.484.216 3.779.555 7.239 1.796 10.388 1.833 4.118 4.334 7.643 7.53 10.689 3.272 2.792 7.126 4.954 11.46 6.43 4.484 1.363 9.363 2.02 14.656 2.02 10.02 0 18.14-2.388 24.349-7.164 6.317-4.813 10.388-10.868 12.268-18.247h.367v23.39h3.93" />
    <path
       style="fill:#fff"
       id="1"
       d="m266.25 199.7h3.779c0-22.656 20.344-34.521 40.43-34.521 10.209 0 19.611 3.01 26.473 8.48 7.746 6.205 11.826 15.201 11.826 26.04h3.779c0-11.902-4.55-21.81-13.14-28.682-7.568-6.06-17.843-9.363-28.936-9.363-21.961 0-44.21 13.08-44.21 38.05" />
    <path
       style="fill:#fff"
       id="2"
       d="m306.11 197.69c0-2.313 2.059-4.221 4.55-4.221 2.501 0 4.512 1.908 4.512 4.221 0 2.35-2.02 4.221-4.512 4.221-2.538 0-4.55-1.871-4.55-4.221" />
    <clipPath
       id="3">
      <path
         id="path177367"
         d="m47 24c0 12.708-10.304 23-23 23-12.696 0-23-10.292-23-23 0-12.708 10.304-23 23-23 12.696 0 23 10.292 23 23" />
    </clipPath>
    <clipPath
       id="0-5">
      <path
         id="path215574"
         d="m26 0c-14.397 0-26 11.603-26 26v460c0 14.397 11.603 26 26 26h460c14.397 0 26-11.603 26-26v-460c0-14.397-11.603-26-26-26h-460" />
    </clipPath>
    <clipPath
       id="0-6">
      <path
         id="path216298"
         d="m26 0c-14.397 0-26 11.603-26 26v460c0 14.397 11.603 26 26 26h460c14.397 0 26-11.603 26-26v-460c0-14.397-11.603-26-26-26h-460" />
    </clipPath>
    <clipPath
       id="0-2">
      <path
         id="path216855"
         d="m26 0c-14.397 0-26 11.603-26 26v460c0 14.397 11.603 26 26 26h460c14.397 0 26-11.603 26-26v-460c0-14.397-11.603-26-26-26h-460" />
    </clipPath>
  </defs>
  <text
     sodipodi:linespacing="125%"
     y="75.424232"
     x="-668.5271"
     line-height="125%"
     style="font-size:129.22999573px;line-height:125%;font-family:'Gentium Book Basic';letter-spacing:0;word-spacing:0"
     id="text216859">
    <tspan
       y="75.424232"
       x="-668.5271"
       id="tspan216861" />
  </text>
  <text
     transform="scale(4.0128205,0.24920128)"
     y="-46.495205"
     x="30.482338"
     style="font-size:46.95399857px;font-family:Arial;text-anchor:middle"
     id="text216863" />
  <text
     sodipodi:linespacing="125%"
     y="-4.5757694"
     x="-87.257088"
     line-height="125%"
     style="font-size:129.22999573px;line-height:125%;font-family:'Gentium Book Basic';letter-spacing:0;word-spacing:0"
     id="text216865">
    <tspan
       y="-4.5757694"
       x="-87.257088"
       id="tspan216867" />
  </text>
  <text
     transform="scale(4.0128205,0.24920128)"
     y="-367.51855"
     x="175.3326"
     style="font-size:46.95399857px;font-family:Arial;text-anchor:middle"
     id="text216869" />
  <text
     sodipodi:linespacing="125%"
     y="-185.83577"
     x="-1158.837"
     line-height="125%"
     style="font-size:129.22999573px;line-height:125%;font-family:'Gentium Book Basic';letter-spacing:0;word-spacing:0"
     id="text216871">
    <tspan
       y="-185.83577"
       x="-1158.837"
       id="tspan216873" />
  </text>
  <text
     transform="scale(4.0128205,0.24920128)"
     y="-1094.8749"
     x="-91.706032"
     style="font-size:46.95399857px;font-family:Arial;text-anchor:middle"
     id="text216875" />
  <text
     sodipodi:linespacing="125%"
     y="-402.30576"
     x="-60.787094"
     line-height="125%"
     style="font-size:129.22999573px;line-height:125%;font-family:'Gentium Book Basic';letter-spacing:0;word-spacing:0"
     id="text216877">
    <tspan
       y="-402.30576"
       x="-60.787094"
       id="tspan216879" />
  </text>
  <text
     transform="scale(4.0128205,0.24920128)"
     y="-1963.5404"
     x="181.93257"
     style="font-size:46.95399857px;font-family:Arial;text-anchor:middle"
     id="text216881" />
  <text
     sodipodi:linespacing="125%"
     y="-482.31577"
     x="520.48291"
     line-height="125%"
     style="font-size:129.22999573px;line-height:125%;font-family:'Gentium Book Basic';letter-spacing:0;word-spacing:0"
     id="text216883">
    <tspan
       y="-482.31577"
       x="520.48291"
       id="tspan216885" />
  </text>
  <text
     transform="scale(4.0128205,0.24920128)"
     y="-2284.5688"
     x="326.78183"
     style="font-size:46.95399857px;font-family:Arial;text-anchor:middle"
     id="text216887" />
  <text
     sodipodi:linespacing="125%"
     y="-954.71582"
     x="131.36292"
     line-height="125%"
     style="font-size:129.22999573px;line-height:125%;font-family:'Gentium Book Basic';letter-spacing:0;word-spacing:0"
     id="text216889">
    <tspan
       y="-954.71582"
       x="131.36292"
       id="tspan216891" />
  </text>
  <text
     transform="scale(4.0128205,0.24920128)"
     y="-4180.209"
     x="229.81232"
     style="font-size:46.95399857px;font-family:Arial;text-anchor:middle"
     id="text216893" />
  <text
     sodipodi:linespacing="125%"
     y="-1034.7158"
     x="712.62286"
     line-height="125%"
     style="font-size:129.22999573px;line-height:125%;font-family:'Gentium Book Basic';letter-spacing:0;word-spacing:0"
     id="text216895">
    <tspan
       y="-1034.7158"
       x="712.62286"
       id="tspan216897" />
  </text>
  <text
     transform="scale(4.0128205,0.24920128)"
     y="-4501.2373"
     x="374.66159"
     style="font-size:46.95399857px;font-family:Arial;text-anchor:middle"
     id="text216899" />
  <text
     sodipodi:linespacing="125%"
     y="380.00424"
     x="-1120.1771"
     line-height="125%"
     style="font-size:208.33000183px;line-height:125%;font-family:'Gentium Book Basic';letter-spacing:0;word-spacing:0"
     id="text216901">
    <tspan
       y="380.00424"
       x="-1120.1771"
       id="tspan216903" />
  </text>
  <g
     id="g217433"
     transform="translate(182.16709,23.935483)">
    <path
       id="path216857"
       style="fill:#68af4c"
       d="m -156.16709,-23.93577 c -14.397,0 -26,11.603 -26,26 l 0,460 c 0,14.397 11.603,26 26,26 l 460,0 c 14.397,0 26,-11.603 26,-26 l 0,-460 c 0,-14.397 -11.603,-26 -26,-26 l -460,0"
       inkscape:connector-curvature="0" />
    <path
       style="opacity:0.25"
       id="path216907"
       d="M 73.873047,33.59375 C 66.394959,33.5813 58.912937,37.229406 54.34375,44.535156 l 0,0.002 c -2.426,3.879 -2.75,5.193969 -2.75,11.167969 L 78.732422,82.84375 c 7.43e-4,0.0044 0.0012,0.01119 0.002,0.01563 L 51.585938,55.710938 c -10e-7,5.790998 0.365578,7.379421 2.517578,10.982421 l 0.02148,0.02148 c 1.03059,1.720057 2.260959,3.292209 3.648438,4.679687 l 0.07227,0.07227 c -0.02361,-0.0234 -0.04875,-0.04485 -0.07227,-0.06836 l 11.205082,11.20508 C 67.778056,89.79466 64.539443,108.20596 60.59375,130.47461 L -11.736328,58.144531 c 0.02201,0.02201 0.04251,0.04624 0.06445,0.06836 l -0.06836,-0.06836 c -10.142,-10.142 -27.474657,-8.718468 -35.597657,4.269531 l 30.572266,30.572266 -0.002,0.002 -30.570313,-30.570312 c -2.426,3.879 -2.75,5.192015 -2.75,11.166015 l 0.0039,0.0039 c 1.76e-4,5.811492 0.360178,7.369775 2.55664,11.046875 l 0.002,0.002 c 0.941417,1.57378 2.123463,3.062915 3.46875,4.408203 0.0104,0.0104 0.02083,0.02087 0.03125,0.03125 L -29.847667,103.254 c -0.415173,8.33268 -1.750118,32.3856 -3.291016,59.77539 l -69.074217,-69.072272 -0.0332,-0.0332 c -1.45097,-1.45097 -3.19723,-2.74029 -5.32618,-3.974609 l -0.0156,-0.01563 c -3.584,-2.072 -5.2473,-2.439453 -11.0293,-2.439453 -5.786,0 -7.44929,0.368453 -11.02929,2.439453 l -0.002,0 c -5.474,3.167 -8.41389,6.691624 -10.33789,12.390621 l -0.002,-0.002 c -2.736,8.109 -0.55938,16.09101 4.89062,21.54101 l 21.38086,21.37891 7.01953,55.26172 -0.002,0 c 4.842,38.079 9.282047,73.10307 9.873047,77.83008 l 0.0039,0.006 1.074219,8.59375 0.02148,0.0215 16.289062,19.5293 c 8.96,10.75 17.075531,21.00129 18.019531,22.77929 l 101.203125,101.20313 -0.0039,0 -101.203125,-101.20313 c 2.841867,5.34987 17.222916,38.09253 17.234375,39.23828 l 0,0.002 c -0.0058,0.5864 -3.899224,9.86293 -8.658203,20.6289 l -0.002,-0.002 c -4.761,10.776 -8.419907,19.97159 -8.128906,20.43359 l 0.0078,0.008 c 0.045,0.072 0.112172,0.15318 0.201172,0.24218 l 78.25,78.25 286.349603,0 c 14.397,0 26,-11.603 26,-26 l 0,-320.97265 -47.16797,-47.167967 -0.002,0 c -1.4568,-1.456592 -3.2091,-2.751518 -5.34961,-3.990234 -3.584,-2.072 -5.2473,-2.439453 -11.02929,-2.439453 -5.7774,4.53e-4 -7.44174,0.369724 -11.01954,2.439453 l -0.002,0 c -5.47399,3.167 -8.41389,6.691624 -10.33788,12.390621 l -0.002,-0.002 c -0.8975,2.65706 -1.2204,5.39837 -1.04687,8.08398 L 191.61328,58.144531 c 0.022,0.02201 0.0425,0.04624 0.0644,0.06836 l -0.0684,-0.06836 c -10.142,-10.142 -27.47271,-8.718468 -35.59571,4.269531 L 186.59766,92.998047 186.5957,93 156.01367,62.417969 c -2.433,3.889 -2.75,5.186328 -2.75,11.236328 l 0,0.002 c 0,6.043 0.31828,7.353281 2.73828,11.238281 l 0.0293,0.0293 c 0.83286,1.329673 1.9972,2.747201 3.30078,4.050781 0.0137,0.01367 0.0273,0.02737 0.041,0.04102 l 7.92578,7.925781 -5.3711,15.31054 L 89.939453,40.263672 C 85.502328,35.826547 79.689338,33.603433 73.873047,33.59375 Z"
       inkscape:connector-curvature="0" />
    <path
       id="path217091"
       style="fill:#f9f9f9"
       d="m 9.30291,430.04423 c -18.796,-1.296 -36.27,-4.889 -50.28,-10.339 -8.481,-3.297 -19.07,-8.666 -19.993,-10.138 -0.291,-0.462 3.369,-9.657 8.13,-20.433 4.763,-10.775 8.66,-20.06 8.66,-20.634 0,-1.121 -14.392,-33.888 -17.235,-39.24 -0.944,-1.778 -9.06,-12.03 -18.02,-22.78 l -16.309,-19.552 -1.076,-8.594 c -0.591,-4.727 -5.03,-39.751 -9.872,-77.83 l -8.796,-69.23 -5.171,-0.636 c -14.93,-1.835 -23.847,-14.902 -19.321,-28.312 1.924,-5.699 4.865,-9.224 10.339,-12.391 3.58,-2.071 5.244,-2.44 11.03,-2.44 5.782,0 7.446,0.368 11.03,2.44 5.474,3.168 8.415,6.691 10.339,12.391 3.285,9.732 -0.992,20.617 -10.06,25.614 -1.049,0.578 5.666,14.86 33.3,70.825 19.04,38.553 34.677,70.17 34.737,70.26 0.186,0.248 9.716,-167.77 9.668,-170.48 -0.036,-2.01 -0.602,-2.489 -3.946,-3.318 -5.42,-1.343 -10.939,-5.531 -13.965,-10.594 -2.197,-3.678 -2.557,-5.235 -2.557,-11.05 0,-5.974 0.324,-7.288 2.75,-11.167 9.123,-14.587 29.861,-14.587 38.984,0 2.432,3.889 2.75,5.186 2.75,11.237 0,6.05 -0.32,7.353 -2.74,11.238 -1.636,2.624 -4.584,5.596 -7.315,7.371 l -4.575,2.973 28.645,81.67 c 15.756,44.922 28.852,81.67 29.1,81.67 0.315,0 30.09,-166.66 32.12,-179.85 0.061,-0.398 -1.421,-1.254 -3.295,-1.906 -5.01,-1.739 -9.386,-5.366 -12.234,-10.133 -2.152,-3.603 -2.516,-5.193 -2.516,-10.984 0,-5.974 0.324,-7.288 2.75,-11.167 9.123,-14.587 29.861,-14.587 38.984,0 2.426,3.879 2.75,5.193 2.75,11.167 0,5.791 -0.365,7.381 -2.516,10.984 -2.848,4.767 -7.225,8.394 -12.234,10.133 -1.873,0.651 -3.355,1.516 -3.295,1.906 2.039,13.179 31.811,179.85 32.12,179.85 0.252,0 13.349,-36.754 29.1,-81.67 l 28.645,-81.67 -4.575,-2.973 c -2.731,-1.775 -5.681,-4.746 -7.317,-7.371 -2.42,-3.885 -2.74,-5.195 -2.74,-11.238 0,-6.05 0.317,-7.348 2.75,-11.237 9.123,-14.587 29.861,-14.587 38.984,0 2.426,3.879 2.75,5.193 2.75,11.167 0,5.816 -0.36,7.374 -2.557,11.05 -3.03,5.067 -8.544,9.255 -13.965,10.594 -3.343,0.828 -3.91,1.305 -3.946,3.318 -0.048,2.693 9.482,170.72 9.668,170.48 0.067,-0.09 15.7,-31.706 34.737,-70.26 27.637,-55.955 34.35,-70.24 33.3,-70.825 -9.08,-4.997 -13.35,-15.882 -10.06,-25.614 1.924,-5.699 4.865,-9.224 10.339,-12.391 3.58,-2.071 5.244,-2.44 11.03,-2.44 5.782,0 7.446,0.368 11.03,2.44 5.474,3.168 8.415,6.691 10.339,12.391 4.532,13.41 -4.391,26.477 -19.321,28.312 l -5.171,0.636 -8.796,69.23 c -4.838,38.08 -9.281,73.1 -9.872,77.83 l -1.076,8.594 -16.309,19.552 c -8.97,10.751 -17.08,21 -18.02,22.78 -2.845,5.355 -17.235,38.12 -17.235,39.24 0,0.573 3.897,9.859 8.66,20.634 4.763,10.775 8.421,19.971 8.13,20.433 -2.083,3.316 -23.914,12.318 -37.946,15.645 -20.331,4.821 -24.397,5.06 -90.51,5.285 -33.704,0.117 -65.6,-0.089 -70.885,-0.452 z"
       inkscape:connector-curvature="0" />
  </g>
</svg>
