<svg xmlns="http://www.w3.org/2000/svg" xmlns:svg="http://www.w3.org/2000/svg" id="svg2" version="1.1" viewBox="0 0 512 512"><metadata id="metadata60"/><rect style="fill:#8db173" id="rect4" width="512" height="512" x="0" y="0" rx="25.988"/><path style="fill-opacity:.23500001;fill-rule:evenodd" id="path6" d="m 131.3395,102.28001 -3.813,0.969 c -62.3,-4.127 -86.48,63.26 -75.906,116.06 -4.751,49.34 -14.205,101.95 28.75,135.44 45.01,49.692 90.49,98.68 138.91,145.22 4.02,4 8.02,8.03 12.03,12.03 l 254.69,0 c 14.397,0 26,-11.603 26,-26 l 0,-305.72 c -17.209,-17.334 -34.382,-34.739 -51.41,-52.25 -14.593,36.813 -32.98,74.6 -61.28,101.94 -132.4,-120.46 -76.49,-69.2 -133.25,-120.56 -4.262,16.919 -24.16,10.86 -34.19,47.19 -33.551,-24.289 0.016,-0.014 -69.16,-51.03 -14.04,-10.353 -13.679,14.05 -27.469,-0.781 z"/><path style="fill:#fff;fill-rule:evenodd" id="path54" d="m 123.2995,95.58001 -0.042,0.042 c -81.919,0 -82.26,88.18 -82.26,88.18 l 0,100.31 c 0,18.87 12.946,44.06 25.546,56.634 22.278,22.23 37.714,19 37.714,19 0,0 0.2,6.222 6.501,25.09 6.301,18.87 24.811,31.588 43.715,31.588 18.904,0 25.587,-6.543 25.587,-6.543 l 0,-25.05 c 0,0 -6.443,0.203 -19.04,-6.084 -12.605,-6.289 -12.585,-19 -12.585,-19 0,0 18.763,-6.18 37.673,-25.05 18.904,-18.87 19.09,-50.591 19.09,-50.591 l 0,-94.26 c 0,0 0.026,-94.26 -81.89,-94.26 m 124.76999,13 -19.09,50.13 -12.54399,0 0,25.09 12.54399,0 0,132.31 c 0,0 0.124,31.13 31.63,31.13 31.506,0 37.714,-12.544 37.714,-12.544 l 0,-24.21 c -0.591,1.768 -3.091,5.626 -12.544,5.626 -12.603,0 -18.67,-12.544 -18.67,-12.544 l 0,-119.77 31.21,0 0,-25.09 -31.21,0 0,-50.13 -19.04,0 m 211.49001,17.294 c -38.595,141.45 -178.43001,135.12 -78.39001,260.29 80.16001,-31.622 97.63001,-71.26 87.01001,-167.65 l -8.626,-92.64 m -332.34,1.292 c 31.513,0 31.588,31.13 31.588,31.13 l 0,125.81 c 0,0 -0.082,44.09 -31.588,44.09 -31.513,0 -31.63,-44.09 -31.63,-44.09 l 0,-119.35 c 0,0 0.124,-37.589 31.63,-37.589"/></svg>