<?xml version="1.0" encoding="UTF-8" standalone="no"?>
<svg
   xmlns:dc="http://purl.org/dc/elements/1.1/"
   xmlns:cc="http://creativecommons.org/ns#"
   xmlns:rdf="http://www.w3.org/1999/02/22-rdf-syntax-ns#"
   xmlns:svg="http://www.w3.org/2000/svg"
   xmlns="http://www.w3.org/2000/svg"
   xmlns:xlink="http://www.w3.org/1999/xlink"
   xmlns:sodipodi="http://sodipodi.sourceforge.net/DTD/sodipodi-0.dtd"
   xmlns:inkscape="http://www.inkscape.org/namespaces/inkscape"
   viewBox="0 0 512 512"
   id="svg2"
   version="1.1"
   inkscape:version="0.91+devel r13804 custom"
   sodipodi:docname="rednotebook.svg">
  <metadata
     id="metadata472">
    <rdf:RDF>
      <cc:Work
         rdf:about="">
        <dc:format>image/svg+xml</dc:format>
        <dc:type
           rdf:resource="http://purl.org/dc/dcmitype/StillImage" />
      </cc:Work>
    </rdf:RDF>
  </metadata>
  <sodipodi:namedview
     pagecolor="#ffffff"
     bordercolor="#666666"
     borderopacity="1"
     objecttolerance="10"
     gridtolerance="10"
     guidetolerance="10"
     inkscape:pageopacity="0"
     inkscape:pageshadow="2"
     inkscape:window-width="1366"
     inkscape:window-height="709"
     id="namedview470"
     showgrid="false"
     inkscape:zoom="0.4609375"
     inkscape:cx="-8.6779661"
     inkscape:cy="237.55932"
     inkscape:window-x="-2"
     inkscape:window-y="-3"
     inkscape:window-maximized="1"
     inkscape:current-layer="svg2" />
  <defs
     id="defs4">
    <filter
       style="color-interpolation-filters:sRGB"
       id="filter9">
      <feGaussianBlur
         stdDeviation="1.71"
         id="feGaussianBlur11" />
    </filter>
    <linearGradient
       gradientTransform="scale(1.0059.99417)"
       gradientUnits="userSpaceOnUse"
       xlink:href="#0"
       y2="7.02"
       x2="0"
       y1="92.54"
       id="linearGradient13" />
    <linearGradient
       gradientTransform="scale(1.0059.99417)"
       gradientUnits="userSpaceOnUse"
       xlink:href="#0"
       y2="7.02"
       x2="0"
       y1="92.54"
       id="linearGradient15" />
    <linearGradient
       gradientTransform="scale(1.0059.99417)"
       gradientUnits="userSpaceOnUse"
       id="0"
       y2="7.02"
       x2="0"
       y1="92.54">
      <stop
         id="stop18" />
      <stop
         offset="1"
         style="stop-opacity:.588"
         id="stop20" />
    </linearGradient>
  </defs>
  <path
     d="m26 0c-14.397 0-26 11.603-26 26v460c0 14.397 11.603 26 26 26h460c14.397 0 26-11.603 26-26v-460c0-14.397-11.603-26-26-26h-460"
     style="fill:#d23638"
     id="path22" />
  <text
     y="94.64"
     x="-440.66"
     line-height="125%"
     style="letter-spacing:0;word-spacing:0;font-size:129.23;font-family:Gentium Book Basic"
     id="text24">
    <tspan
       y="94.64"
       x="-440.66"
       id="tspan26" />
  </text>
  <text
     transform="scale(4.0128.2492)"
     y="30.626"
     x="87.27"
     style="font-size:46.954;font-family:Arial;text-anchor:middle"
     id="text28" />
  <text
     y="14.64"
     x="140.61"
     line-height="125%"
     style="letter-spacing:0;word-spacing:0;font-size:129.23;font-family:Gentium Book Basic"
     id="text30">
    <tspan
       y="14.64"
       x="140.61"
       id="tspan32" />
  </text>
  <text
     transform="scale(4.0128.2492)"
     y="-290.41"
     x="232.12"
     style="font-size:46.954;font-family:Arial;text-anchor:middle"
     id="text34" />
  <text
     y="-166.62"
     x="-930.97"
     line-height="125%"
     style="letter-spacing:0;word-spacing:0;font-size:129.23;font-family:Gentium Book Basic"
     id="text36">
    <tspan
       y="-166.62"
       x="-930.97"
       id="tspan38" />
  </text>
  <text
     transform="scale(4.0128.2492)"
     y="-1017.76"
     x="-34.922"
     style="font-size:46.954;font-family:Arial;text-anchor:middle"
     id="text40" />
  <text
     y="-383.09"
     x="167.08"
     line-height="125%"
     style="letter-spacing:0;word-spacing:0;font-size:129.23;font-family:Gentium Book Basic"
     id="text42">
    <tspan
       y="-383.09"
       x="167.08"
       id="tspan44" />
  </text>
  <text
     transform="scale(4.0128.2492)"
     y="-1886.43"
     x="238.72"
     style="font-size:46.954;font-family:Arial;text-anchor:middle"
     id="text46" />
  <text
     y="-463.09"
     x="748.35"
     line-height="125%"
     style="letter-spacing:0;word-spacing:0;font-size:129.23;font-family:Gentium Book Basic"
     id="text48">
    <tspan
       y="-463.09"
       x="748.35"
       id="tspan50" />
  </text>
  <text
     transform="scale(4.0128.2492)"
     y="-2207.46"
     x="383.57"
     style="font-size:46.954;font-family:Arial;text-anchor:middle"
     id="text52" />
  <text
     y="-935.49"
     x="359.23"
     line-height="125%"
     style="letter-spacing:0;word-spacing:0;font-size:129.23;font-family:Gentium Book Basic"
     id="text54">
    <tspan
       y="-935.49"
       x="359.23"
       id="tspan56" />
  </text>
  <text
     transform="scale(4.0128.2492)"
     y="-4103.11"
     x="286.6"
     style="font-size:46.954;font-family:Arial;text-anchor:middle"
     id="text58" />
  <text
     y="-1015.5"
     x="940.49"
     line-height="125%"
     style="letter-spacing:0;word-spacing:0;font-size:129.23;font-family:Gentium Book Basic"
     id="text60">
    <tspan
       y="-1015.5"
       x="940.49"
       id="tspan62" />
  </text>
  <text
     transform="scale(4.0128.2492)"
     y="-4424.15"
     x="431.45"
     style="font-size:46.954;font-family:Arial;text-anchor:middle"
     id="text64" />
  <g
     line-height="125%"
     style="letter-spacing:0;word-spacing:0;font-family:Gentium Book Basic"
     id="g66">
    <text
       y="399.22"
       x="-892.31"
       style="font-size:208.33"
       id="text68">
      <tspan
         y="399.22"
         x="-892.31"
         id="tspan70" />
    </text>
    <text
       y="97.71"
       x="-259.64"
       style="font-size:129.23"
       id="text72">
      <tspan
         y="97.71"
         x="-259.64"
         id="tspan74" />
    </text>
  </g>
  <text
     transform="scale(4.0128.2492)"
     y="42.937"
     x="132.38"
     style="font-size:46.954;font-family:Arial;text-anchor:middle"
     id="text76" />
  <text
     y="17.708"
     x="321.63"
     line-height="125%"
     style="letter-spacing:0;word-spacing:0;font-size:129.23;font-family:Gentium Book Basic"
     id="text78">
    <tspan
       y="17.708"
       x="321.63"
       id="tspan80" />
  </text>
  <text
     transform="scale(4.0128.2492)"
     y="-278.1"
     x="277.23"
     style="font-size:46.954;font-family:Arial;text-anchor:middle"
     id="text82" />
  <text
     y="-163.55"
     x="-749.95"
     line-height="125%"
     style="letter-spacing:0;word-spacing:0;font-size:129.23;font-family:Gentium Book Basic"
     id="text84">
    <tspan
       y="-163.55"
       x="-749.95"
       id="tspan86" />
  </text>
  <text
     transform="scale(4.0128.2492)"
     y="-1005.45"
     x="10.188"
     style="font-size:46.954;font-family:Arial;text-anchor:middle"
     id="text88" />
  <text
     y="-380.02"
     x="348.1"
     line-height="125%"
     style="letter-spacing:0;word-spacing:0;font-size:129.23;font-family:Gentium Book Basic"
     id="text90">
    <tspan
       y="-380.02"
       x="348.1"
       id="tspan92" />
  </text>
  <text
     transform="scale(4.0128.2492)"
     y="-1874.12"
     x="283.83"
     style="font-size:46.954;font-family:Arial;text-anchor:middle"
     id="text94" />
  <text
     y="-460.02"
     x="929.37"
     line-height="125%"
     style="letter-spacing:0;word-spacing:0;font-size:129.23;font-family:Gentium Book Basic"
     id="text96">
    <tspan
       y="-460.02"
       x="929.37"
       id="tspan98" />
  </text>
  <text
     transform="scale(4.0128.2492)"
     y="-2195.15"
     x="428.68"
     style="font-size:46.954;font-family:Arial;text-anchor:middle"
     id="text100" />
  <text
     y="-932.42"
     x="540.25"
     line-height="125%"
     style="letter-spacing:0;word-spacing:0;font-size:129.23;font-family:Gentium Book Basic"
     id="text102">
    <tspan
       y="-932.42"
       x="540.25"
       id="tspan104" />
  </text>
  <text
     transform="scale(4.0128.2492)"
     y="-4090.8"
     x="331.71"
     style="font-size:46.954;font-family:Arial;text-anchor:middle"
     id="text106" />
  <text
     y="-1012.43"
     x="1121.51"
     line-height="125%"
     style="letter-spacing:0;word-spacing:0;font-size:129.23;font-family:Gentium Book Basic"
     id="text108">
    <tspan
       y="-1012.43"
       x="1121.51"
       id="tspan110" />
  </text>
  <text
     transform="scale(4.0128.2492)"
     y="-4411.84"
     x="476.56"
     style="font-size:46.954;font-family:Arial;text-anchor:middle"
     id="text112" />
  <g
     line-height="125%"
     style="letter-spacing:0;word-spacing:0;font-family:Gentium Book Basic"
     id="g114">
    <text
       y="402.29"
       x="-711.29"
       style="font-size:208.33"
       id="text116">
      <tspan
         y="402.29"
         x="-711.29"
         id="tspan118" />
    </text>
    <text
       y="63.959"
       x="-278.05"
       style="font-size:129.23"
       id="text120">
      <tspan
         y="63.959"
         x="-278.05"
         id="tspan122" />
    </text>
  </g>
  <text
     transform="scale(4.0128.2492)"
     y="-92.49"
     x="127.79"
     style="font-size:46.954;font-family:Arial;text-anchor:middle"
     id="text124" />
  <text
     y="-16.04"
     x="303.22"
     line-height="125%"
     style="letter-spacing:0;word-spacing:0;font-size:129.23;font-family:Gentium Book Basic"
     id="text126">
    <tspan
       y="-16.04"
       x="303.22"
       id="tspan128" />
  </text>
  <text
     transform="scale(4.0128.2492)"
     y="-413.53"
     x="272.64"
     style="font-size:46.954;font-family:Arial;text-anchor:middle"
     id="text130" />
  <text
     y="-197.3"
     x="-768.36"
     line-height="125%"
     style="letter-spacing:0;word-spacing:0;font-size:129.23;font-family:Gentium Book Basic"
     id="text132">
    <tspan
       y="-197.3"
       x="-768.36"
       id="tspan134" />
  </text>
  <text
     transform="scale(4.0128.2492)"
     y="-1140.88"
     x="5.601"
     style="font-size:46.954;font-family:Arial;text-anchor:middle"
     id="text136" />
  <text
     y="-413.77"
     x="329.69"
     line-height="125%"
     style="letter-spacing:0;word-spacing:0;font-size:129.23;font-family:Gentium Book Basic"
     id="text138">
    <tspan
       y="-413.77"
       x="329.69"
       id="tspan140" />
  </text>
  <text
     transform="scale(4.0128.2492)"
     y="-2009.55"
     x="279.24"
     style="font-size:46.954;font-family:Arial;text-anchor:middle"
     id="text142" />
  <text
     y="-493.77"
     x="910.96"
     line-height="125%"
     style="letter-spacing:0;word-spacing:0;font-size:129.23;font-family:Gentium Book Basic"
     id="text144">
    <tspan
       y="-493.77"
       x="910.96"
       id="tspan146" />
  </text>
  <text
     transform="scale(4.0128.2492)"
     y="-2330.58"
     x="424.09"
     style="font-size:46.954;font-family:Arial;text-anchor:middle"
     id="text148" />
  <text
     y="-966.17"
     x="521.84"
     line-height="125%"
     style="letter-spacing:0;word-spacing:0;font-size:129.23;font-family:Gentium Book Basic"
     id="text150">
    <tspan
       y="-966.17"
       x="521.84"
       id="tspan152" />
  </text>
  <text
     transform="scale(4.0128.2492)"
     y="-4226.23"
     x="327.12"
     style="font-size:46.954;font-family:Arial;text-anchor:middle"
     id="text154" />
  <text
     y="-1046.18"
     x="1103.1"
     line-height="125%"
     style="letter-spacing:0;word-spacing:0;font-size:129.23;font-family:Gentium Book Basic"
     id="text156">
    <tspan
       y="-1046.18"
       x="1103.1"
       id="tspan158" />
  </text>
  <text
     transform="scale(4.0128.2492)"
     y="-4547.27"
     x="471.97"
     style="font-size:46.954;font-family:Arial;text-anchor:middle"
     id="text160" />
  <text
     y="368.54"
     x="-729.7"
     line-height="125%"
     style="letter-spacing:0;word-spacing:0;font-size:208.33;font-family:Gentium Book Basic"
     id="text162">
    <tspan
       y="368.54"
       x="-729.7"
       id="tspan164" />
  </text>
  <path
     d="m26 0c-14.397 0-26 11.603-26 26v460c0 14.397 11.603 26 26 26h107.09v-512h-107.09"
     style="fill:#b23133;color:#000;fill-rule:evenodd"
     id="path166" />
  <text
     y="-52.869"
     x="1381.35"
     line-height="125%"
     style="letter-spacing:0;word-spacing:0;font-size:129.23;font-family:Gentium Book Basic"
     id="text168">
    <tspan
       y="-52.869"
       x="1381.35"
       id="tspan170" />
  </text>
  <text
     transform="scale(4.0128.2492)"
     y="-561.3"
     x="541.31"
     style="font-size:46.954;font-family:Arial;text-anchor:middle"
     id="text172" />
  <text
     y="-132.87"
     x="1962.62"
     line-height="125%"
     style="letter-spacing:0;word-spacing:0;font-size:129.23;font-family:Gentium Book Basic"
     id="text174">
    <tspan
       y="-132.87"
       x="1962.62"
       id="tspan176" />
  </text>
  <text
     transform="scale(4.0128.2492)"
     y="-882.34"
     x="686.16"
     style="font-size:46.954;font-family:Arial;text-anchor:middle"
     id="text178" />
  <text
     y="-314.13"
     x="891.04"
     line-height="125%"
     style="letter-spacing:0;word-spacing:0;font-size:129.23;font-family:Gentium Book Basic"
     id="text180">
    <tspan
       y="-314.13"
       x="891.04"
       id="tspan182" />
  </text>
  <text
     transform="scale(4.0128.2492)"
     y="-1609.69"
     x="419.13"
     style="font-size:46.954;font-family:Arial;text-anchor:middle"
     id="text184" />
  <text
     y="-530.6"
     x="1989.09"
     line-height="125%"
     style="letter-spacing:0;word-spacing:0;font-size:129.23;font-family:Gentium Book Basic"
     id="text186">
    <tspan
       y="-530.6"
       x="1989.09"
       id="tspan188" />
  </text>
  <text
     transform="scale(4.0128.2492)"
     y="-2478.36"
     x="692.76"
     style="font-size:46.954;font-family:Arial;text-anchor:middle"
     id="text190" />
  <text
     y="-610.6"
     x="2570.36"
     line-height="125%"
     style="letter-spacing:0;word-spacing:0;font-size:129.23;font-family:Gentium Book Basic"
     id="text192">
    <tspan
       y="-610.6"
       x="2570.36"
       id="tspan194" />
  </text>
  <text
     transform="scale(4.0128.2492)"
     y="-2799.39"
     x="837.61"
     style="font-size:46.954;font-family:Arial;text-anchor:middle"
     id="text196" />
  <text
     y="-1083"
     x="2181.24"
     line-height="125%"
     style="letter-spacing:0;word-spacing:0;font-size:129.23;font-family:Gentium Book Basic"
     id="text198">
    <tspan
       y="-1083"
       x="2181.24"
       id="tspan200" />
  </text>
  <text
     transform="scale(4.0128.2492)"
     y="-4695.04"
     x="740.64"
     style="font-size:46.954;font-family:Arial;text-anchor:middle"
     id="text202" />
  <text
     y="-1163.01"
     x="2762.5"
     line-height="125%"
     style="letter-spacing:0;word-spacing:0;font-size:129.23;font-family:Gentium Book Basic"
     id="text204">
    <tspan
       y="-1163.01"
       x="2762.5"
       id="tspan206" />
  </text>
  <text
     transform="scale(4.0128.2492)"
     y="-5016.08"
     x="885.49"
     style="font-size:46.954;font-family:Arial;text-anchor:middle"
     id="text208" />
  <g
     line-height="125%"
     style="letter-spacing:0;word-spacing:0;font-family:Gentium Book Basic"
     id="g210">
    <text
       y="251.71"
       x="929.7"
       style="font-size:208.33"
       id="text212">
      <tspan
         y="251.71"
         x="929.7"
         id="tspan214" />
    </text>
    <text
       y="-23.91"
       x="665.13"
       style="font-size:129.23"
       id="text216">
      <tspan
         y="-23.91"
         x="665.13"
         id="tspan218" />
    </text>
  </g>
  <text
     transform="scale(4.0128.2492)"
     y="-445.11"
     x="362.83"
     style="font-size:46.954;font-family:Arial;text-anchor:middle"
     id="text220" />
  <text
     y="-103.91"
     x="1246.4"
     line-height="125%"
     style="letter-spacing:0;word-spacing:0;font-size:129.23;font-family:Gentium Book Basic"
     id="text222">
    <tspan
       y="-103.91"
       x="1246.4"
       id="tspan224" />
  </text>
  <text
     transform="scale(4.0128.2492)"
     y="-766.13"
     x="507.68"
     style="font-size:46.954;font-family:Arial;text-anchor:middle"
     id="text226" />
  <text
     y="-285.17"
     x="174.82"
     line-height="125%"
     style="letter-spacing:0;word-spacing:0;font-size:129.23;font-family:Gentium Book Basic"
     id="text228">
    <tspan
       y="-285.17"
       x="174.82"
       id="tspan230" />
  </text>
  <text
     transform="scale(4.0128.2492)"
     y="-1493.49"
     x="240.64"
     style="font-size:46.954;font-family:Arial;text-anchor:middle"
     id="text232" />
  <text
     y="-501.64"
     x="1272.87"
     line-height="125%"
     style="letter-spacing:0;word-spacing:0;font-size:129.23;font-family:Gentium Book Basic"
     id="text234">
    <tspan
       y="-501.64"
       x="1272.87"
       id="tspan236" />
  </text>
  <text
     transform="scale(4.0128.2492)"
     y="-2362.16"
     x="514.28"
     style="font-size:46.954;font-family:Arial;text-anchor:middle"
     id="text238" />
  <text
     y="-581.65"
     x="1854.14"
     line-height="125%"
     style="letter-spacing:0;word-spacing:0;font-size:129.23;font-family:Gentium Book Basic"
     id="text240">
    <tspan
       y="-581.65"
       x="1854.14"
       id="tspan242" />
  </text>
  <text
     transform="scale(4.0128.2492)"
     y="-2683.19"
     x="659.13"
     style="font-size:46.954;font-family:Arial;text-anchor:middle"
     id="text244" />
  <text
     y="-1054.05"
     x="1465.02"
     line-height="125%"
     style="letter-spacing:0;word-spacing:0;font-size:129.23;font-family:Gentium Book Basic"
     id="text246">
    <tspan
       y="-1054.05"
       x="1465.02"
       id="tspan248" />
  </text>
  <text
     transform="scale(4.0128.2492)"
     y="-4578.84"
     x="562.16"
     style="font-size:46.954;font-family:Arial;text-anchor:middle"
     id="text250" />
  <text
     y="-1134.05"
     x="2046.28"
     line-height="125%"
     style="letter-spacing:0;word-spacing:0;font-size:129.23;font-family:Gentium Book Basic"
     id="text252">
    <tspan
       y="-1134.05"
       x="2046.28"
       id="tspan254" />
  </text>
  <text
     transform="scale(4.0128.2492)"
     y="-4899.87"
     x="707.01"
     style="font-size:46.954;font-family:Arial;text-anchor:middle"
     id="text256" />
  <g
     line-height="125%"
     style="letter-spacing:0;word-spacing:0;font-family:Gentium Book Basic"
     id="g258">
    <text
       y="280.67"
       x="213.48"
       style="font-size:208.33"
       id="text260">
      <tspan
         y="280.67"
         x="213.48"
         id="tspan262" />
    </text>
    <text
       y="-23.91"
       x="665.13"
       style="font-size:129.23"
       id="text264">
      <tspan
         y="-23.91"
         x="665.13"
         id="tspan266" />
    </text>
  </g>
  <text
     transform="scale(4.0128.2492)"
     y="-445.11"
     x="362.83"
     style="font-size:46.954;font-family:Arial;text-anchor:middle"
     id="text268" />
  <text
     y="-103.91"
     x="1246.4"
     line-height="125%"
     style="letter-spacing:0;word-spacing:0;font-size:129.23;font-family:Gentium Book Basic"
     id="text270">
    <tspan
       y="-103.91"
       x="1246.4"
       id="tspan272" />
  </text>
  <text
     transform="scale(4.0128.2492)"
     y="-766.13"
     x="507.68"
     style="font-size:46.954;font-family:Arial;text-anchor:middle"
     id="text274" />
  <text
     y="-285.17"
     x="174.82"
     line-height="125%"
     style="letter-spacing:0;word-spacing:0;font-size:129.23;font-family:Gentium Book Basic"
     id="text276">
    <tspan
       y="-285.17"
       x="174.82"
       id="tspan278" />
  </text>
  <text
     transform="scale(4.0128.2492)"
     y="-1493.49"
     x="240.64"
     style="font-size:46.954;font-family:Arial;text-anchor:middle"
     id="text280" />
  <text
     y="-501.64"
     x="1272.87"
     line-height="125%"
     style="letter-spacing:0;word-spacing:0;font-size:129.23;font-family:Gentium Book Basic"
     id="text282">
    <tspan
       y="-501.64"
       x="1272.87"
       id="tspan284" />
  </text>
  <text
     transform="scale(4.0128.2492)"
     y="-2362.15"
     x="514.28"
     style="font-size:46.954;font-family:Arial;text-anchor:middle"
     id="text286" />
  <text
     y="-581.65"
     x="1854.14"
     line-height="125%"
     style="letter-spacing:0;word-spacing:0;font-size:129.23;font-family:Gentium Book Basic"
     id="text288">
    <tspan
       y="-581.65"
       x="1854.14"
       id="tspan290" />
  </text>
  <text
     transform="scale(4.0128.2492)"
     y="-2683.18"
     x="659.13"
     style="font-size:46.954;font-family:Arial;text-anchor:middle"
     id="text292" />
  <text
     y="-1054.05"
     x="1465.02"
     line-height="125%"
     style="letter-spacing:0;word-spacing:0;font-size:129.23;font-family:Gentium Book Basic"
     id="text294">
    <tspan
       y="-1054.05"
       x="1465.02"
       id="tspan296" />
  </text>
  <text
     transform="scale(4.0128.2492)"
     y="-4578.82"
     x="562.16"
     style="font-size:46.954;font-family:Arial;text-anchor:middle"
     id="text298" />
  <text
     y="-1134.05"
     x="2046.28"
     line-height="125%"
     style="letter-spacing:0;word-spacing:0;font-size:129.23;font-family:Gentium Book Basic"
     id="text300">
    <tspan
       y="-1134.05"
       x="2046.28"
       id="tspan302" />
  </text>
  <text
     transform="scale(4.0128.2492)"
     y="-4899.85"
     x="707.01"
     style="font-size:46.954;font-family:Arial;text-anchor:middle"
     id="text304" />
  <text
     y="280.67"
     x="213.48"
     line-height="125%"
     style="letter-spacing:0;word-spacing:0;font-size:208.33;font-family:Gentium Book Basic"
     id="text306">
    <tspan
       y="280.67"
       x="213.48"
       id="tspan308" />
  </text>
  <path
     style="color:#000000;opacity:0.25"
     d="M 370.375 41.087891 C 369.97575 41.085016 369.57614 41.089375 369.18164 41.109375 L 470.94336 142.87109 C 470.94283 142.88091 470.94194 142.89058 470.94141 142.90039 L 369.16016 41.119141 C 363.79078 41.397005 359.10569 43.130125 355.66016 46.460938 C 355.65847 46.462563 355.65598 46.463218 355.6543 46.464844 L 355.46484 46.654297 L 465.42969 156.62109 L 465.42773 156.62305 L 355.46094 46.65625 L 330.00586 72.207031 L 330.00977 72.210938 L 329.47461 72.746094 L 330.00977 73.279297 L 512 255.26953 L 512 158.38281 L 420.53125 66.914062 L 423.61719 70.003906 L 420.51953 66.908203 C 404.40172 50.780394 385.79571 41.435689 371.56445 41.113281 L 371.56055 41.109375 C 371.17305 41.100875 370.77425 41.090766 370.375 41.087891 z M 316.48047 85.699219 L 315.94336 86.283203 L 425.84766 196.1875 L 425.8418 196.19141 L 315.93945 86.289062 L 289.02539 113.25195 L 288.49414 113.78516 L 288.51172 113.80273 L 289.02539 114.36328 L 289.0293 114.36914 L 293.38086 118.71875 L 512 337.33789 L 512 281.2168 L 426.40625 195.62305 L 426.4043 195.625 L 316.48047 85.699219 z M 272.91016 129.26953 L 272.32617 129.80664 L 272.32031 129.80078 L 108.13086 294.13086 L 161.19141 347.19141 C 161.18814 347.19143 161.1849 347.19138 161.18164 347.19141 L 108.13086 294.14062 L 87.841797 314.3418 L 87.839844 314.33984 L 82.738281 319.49023 L 82.595703 319.58789 L 106.74219 343.73438 L 106.74023 343.74023 L 82.589844 319.58984 L 82.542969 319.78516 L 106.6875 343.92969 L 106.68555 343.93555 L 82.539062 319.78906 L 41.490234 448.2793 L 41.492188 448.28125 L 41.445312 448.32812 L 41.449219 448.33203 C 40.008014 455.09454 42.131308 462.57371 46.796875 467.23828 L 46.994141 467.43555 C 46.927027 467.37059 46.859438 467.3067 46.792969 467.24023 L 91.552734 512 L 486 512 C 500.397 512 512 500.397 512 486 L 512 368.34961 L 382.80664 239.15625 L 382.80273 239.16211 L 272.91016 129.26953 z "
     id="path312" />
  <path
     d="m369.16 41.12c-5.372.278-10.06 2.01-13.506 5.344l-.195.195-25.454 25.552-.536.536.536.536 108.87 108.81.583.536.536-.536 25.12-25.16.341-.34c.125-.125.178-.261.195-.293 6.123-6.386 6.77-16.778 3.06-28.369-3.725-11.638-11.84-24.617-23.504-36.29l-24.678-24.726c-16.13-16.13-34.733-25.48-48.967-25.8-.775-.017-1.59-.04-2.379 0m-52.707 44.589l-.536.583-26.914 26.961-.536.536.536.583 108.81 108.76.536.583.583-.583 26.914-26.961.536-.536-.536-.536-108.81-108.81-.583-.583m-43.572 43.572l-.583.536-164.19 164.33-20.298 20.21-5.101 5.151-.145.097-.048.195-41.05 128.49-.048.048c-1.476 6.923.784 14.599 5.683 19.236l.048.048c4.542 3.397 10.572 4.245 15.74 2.186h.048l130.24-41.15.145-.048.145-.145 4.227-4.275 19.626-19.577 164.92-164.87.536-.583-.536-.536-108.81-108.81-.536-.536m-161.02 208.78h.048.048c.155-.005.283-.005.436 0 .017 0 .031-.002.048 0 .014 0 .035 0 .048 0 1.426.019 2.788.635 3.789 1.653l9.374 9.326 35.26-1.84c.014-.002.033 0 .048 0 1.395-.063 2.788.44 3.839 1.36 1.237 1.093 1.934 2.724 1.84 4.372l-1.748 38.522 6.849 6.849c1.356 1.364 1.912 3.39 1.408 5.247-.504 1.859-2.028 3.346-3.887 3.839l-61.4 16.468h-.048c-1.84.506-3.879-.026-5.247-1.36h-.048l-11.901-11.901c-1.397-1.378-1.945-3.456-1.408-5.344l17.974-63.16c.565-2.138 2.466-3.785 4.663-4.03"
     style="fill:#fff;color:#000"
     id="path468" />
</svg>
