<?xml version="1.0" encoding="UTF-8" standalone="no"?>
<svg
   xmlns:dc="http://purl.org/dc/elements/1.1/"
   xmlns:cc="http://creativecommons.org/ns#"
   xmlns:rdf="http://www.w3.org/1999/02/22-rdf-syntax-ns#"
   xmlns:svg="http://www.w3.org/2000/svg"
   xmlns="http://www.w3.org/2000/svg"
   xmlns:xlink="http://www.w3.org/1999/xlink"
   xmlns:sodipodi="http://sodipodi.sourceforge.net/DTD/sodipodi-0.dtd"
   xmlns:inkscape="http://www.inkscape.org/namespaces/inkscape"
   viewBox="0 0 512 512"
   id="svg2"
   version="1.1"
   inkscape:version="0.91+devel r13804 custom"
   sodipodi:docname="rss.svg">
  <metadata
     id="metadata472">
    <rdf:RDF>
      <cc:Work
         rdf:about="">
        <dc:format>image/svg+xml</dc:format>
        <dc:type
           rdf:resource="http://purl.org/dc/dcmitype/StillImage" />
        <dc:title></dc:title>
      </cc:Work>
    </rdf:RDF>
  </metadata>
  <sodipodi:namedview
     pagecolor="#ffffff"
     bordercolor="#666666"
     borderopacity="1"
     objecttolerance="10"
     gridtolerance="10"
     guidetolerance="10"
     inkscape:pageopacity="0"
     inkscape:pageshadow="2"
     inkscape:window-width="1366"
     inkscape:window-height="709"
     id="namedview470"
     showgrid="false"
     inkscape:zoom="0.4609375"
     inkscape:cx="-8.6779661"
     inkscape:cy="237.55932"
     inkscape:window-x="-2"
     inkscape:window-y="-3"
     inkscape:window-maximized="1"
     inkscape:current-layer="svg2" />
  <defs
     id="defs4">
    <filter
       style="color-interpolation-filters:sRGB"
       id="filter9">
      <feGaussianBlur
         stdDeviation="1.71"
         id="feGaussianBlur11" />
    </filter>
    <linearGradient
       gradientTransform="scale(1.0059.99417)"
       gradientUnits="userSpaceOnUse"
       xlink:href="#0"
       y2="7.02"
       x2="0"
       y1="92.54"
       id="linearGradient13" />
    <linearGradient
       gradientTransform="scale(1.0059.99417)"
       gradientUnits="userSpaceOnUse"
       xlink:href="#0"
       y2="7.02"
       x2="0"
       y1="92.54"
       id="linearGradient15" />
    <linearGradient
       gradientTransform="scale(1.0059.99417)"
       gradientUnits="userSpaceOnUse"
       id="0"
       y2="7.02"
       x2="0"
       y1="92.54">
      <stop
         id="stop18" />
      <stop
         offset="1"
         style="stop-opacity:.588"
         id="stop20" />
    </linearGradient>
    <clipPath
       id="0-2">
      <path
         id="path3886"
         d="m26 0c-14.397 0-26 11.603-26 26v460c0 14.397 11.603 26 26 26h460c14.397 0 26-11.603 26-26v-460c0-14.397-11.603-26-26-26h-460" />
    </clipPath>
    <filter
       id="filter4868"
       style="color-interpolation-filters:sRGB">
      <feGaussianBlur
         id="feGaussianBlur4870"
         stdDeviation="1.71" />
    </filter>
    <linearGradient
       id="linearGradient4872"
       y1="92.54"
       x2="0"
       y2="7.02"
       xlink:href="#0-7"
       gradientUnits="userSpaceOnUse"
       gradientTransform="scale(1.0059.99417)" />
    <linearGradient
       id="linearGradient4874"
       y1="92.54"
       x2="0"
       y2="7.02"
       xlink:href="#0-7"
       gradientUnits="userSpaceOnUse"
       gradientTransform="scale(1.0059.99417)" />
    <linearGradient
       y1="92.54"
       x2="0"
       y2="7.02"
       id="0-7"
       gradientUnits="userSpaceOnUse"
       gradientTransform="scale(1.0059.99417)">
      <stop
         id="stop4877" />
      <stop
         id="stop4879"
         style="stop-opacity:.588"
         offset="1" />
    </linearGradient>
    <clipPath
       id="0-9">
      <path
         id="path6328"
         d="m26 0c-14.397 0-26 11.603-26 26v460c0 14.397 11.603 26 26 26h460c14.397 0 26-11.603 26-26v-460c0-14.397-11.603-26-26-26h-460" />
    </clipPath>
    <filter
       id="filter6815"
       style="color-interpolation-filters:sRGB">
      <feGaussianBlur
         id="feGaussianBlur6817"
         stdDeviation="1.71" />
    </filter>
    <linearGradient
       y1="92.54"
       x2="0"
       y2="7.02"
       id="0-6"
       gradientUnits="userSpaceOnUse"
       gradientTransform="scale(1.0059.99417)">
      <stop
         id="stop6820" />
      <stop
         id="stop6822"
         style="stop-opacity:.588"
         offset="1" />
    </linearGradient>
    <linearGradient
       id="linearGradient6824"
       y1="92.54"
       x2="0"
       y2="7.02"
       xlink:href="#0-6"
       gradientUnits="userSpaceOnUse"
       gradientTransform="scale(1.0059.99417)" />
    <linearGradient
       id="linearGradient6826"
       y1="92.54"
       x2="0"
       y2="7.02"
       xlink:href="#0-6"
       gradientUnits="userSpaceOnUse"
       gradientTransform="scale(1.0059.99417)" />
    <linearGradient
       id="linearGradient6828"
       y1="92.54"
       x2="0"
       y2="7.02"
       xlink:href="#0-6"
       gradientUnits="userSpaceOnUse"
       gradientTransform="scale(1.0059.99417)" />
    <clipPath
       id="0-4">
      <path
         id="path9169"
         d="m26 0c-14.397 0-26 11.603-26 26v460c0 14.397 11.603 26 26 26h460c14.397 0 26-11.603 26-26v-460c0-14.397-11.603-26-26-26h-460" />
    </clipPath>
  </defs>
  <g
     id="g9402"
     transform="translate(99.86822,240.88485)">
    <path
       id="path9171"
       style="fill:#f38725"
       d="m -73.86822,-240.88517 c -14.397,0 -26,11.603 -26,26 l 0,460 c 0,14.397 11.603,26 26,26 l 460,0 c 14.397,0 26,-11.603 26,-26 l 0,-460 c 0,-14.397 -11.603,-26 -26,-26 l -460,0"
       inkscape:connector-curvature="0" />
    <text
       id="text9173"
       style="font-size:129.22999573px;line-height:125%;font-family:'Gentium Book Basic';letter-spacing:0;word-spacing:0"
       line-height="125%"
       x="-502.69821"
       y="-191.76517"
       sodipodi:linespacing="125%">
      <tspan
         id="tspan9175"
         x="-502.69821"
         y="-191.76517" />
    </text>
    <text
       id="text9177"
       style="font-size:46.95399857px;font-family:Arial;text-anchor:middle"
       x="71.802223"
       y="-1118.6682"
       transform="scale(4.0128205,0.24920128)" />
    <text
       id="text9179"
       style="font-size:129.22999573px;line-height:125%;font-family:'Gentium Book Basic';letter-spacing:0;word-spacing:0"
       line-height="125%"
       x="78.571785"
       y="-271.76218"
       sodipodi:linespacing="125%">
      <tspan
         id="tspan9181"
         x="78.571785"
         y="-271.76218" />
    </text>
    <text
       id="text9183"
       style="font-size:46.95399857px;font-family:Arial;text-anchor:middle"
       x="216.65147"
       y="-1439.6965"
       transform="scale(4.0128205,0.24920128)" />
    <text
       id="text9185"
       style="font-size:129.22999573px;line-height:125%;font-family:'Gentium Book Basic';letter-spacing:0;word-spacing:0"
       line-height="125%"
       x="-993.00824"
       y="-453.02518"
       sodipodi:linespacing="125%">
      <tspan
         id="tspan9187"
         x="-993.00824"
         y="-453.02518" />
    </text>
    <text
       id="text9189"
       style="font-size:46.95399857px;font-family:Arial;text-anchor:middle"
       x="-50.382156"
       y="-2167.043"
       transform="scale(4.0128205,0.24920128)" />
    <text
       id="text9191"
       style="font-size:129.22999573px;line-height:125%;font-family:'Gentium Book Basic';letter-spacing:0;word-spacing:0"
       line-height="125%"
       x="105.04179"
       y="-669.49518"
       sodipodi:linespacing="125%">
      <tspan
         id="tspan9193"
         x="105.04179"
         y="-669.49518" />
    </text>
    <text
       id="text9195"
       style="font-size:46.95399857px;font-family:Arial;text-anchor:middle"
       x="223.25143"
       y="-3035.7085"
       transform="scale(4.0128205,0.24920128)" />
    <text
       id="text9197"
       style="font-size:129.22999573px;line-height:125%;font-family:'Gentium Book Basic';letter-spacing:0;word-spacing:0"
       line-height="125%"
       x="686.31177"
       y="-749.50519"
       sodipodi:linespacing="125%">
      <tspan
         id="tspan9199"
         x="686.31177"
         y="-749.50519" />
    </text>
    <text
       id="text9201"
       style="font-size:46.95399857px;font-family:Arial;text-anchor:middle"
       x="368.10068"
       y="-3356.7466"
       transform="scale(4.0128205,0.24920128)" />
    <text
       id="text9203"
       style="font-size:129.22999573px;line-height:125%;font-family:'Gentium Book Basic';letter-spacing:0;word-spacing:0"
       line-height="125%"
       x="297.19177"
       y="-1221.9052"
       sodipodi:linespacing="125%">
      <tspan
         id="tspan9205"
         x="297.19177"
         y="-1221.9052" />
    </text>
    <text
       id="text9207"
       style="font-size:46.95399857px;font-family:Arial;text-anchor:middle"
       x="271.1312"
       y="-5252.3867"
       transform="scale(4.0128205,0.24920128)" />
    <text
       id="text9209"
       style="font-size:129.22999573px;line-height:125%;font-family:'Gentium Book Basic';letter-spacing:0;word-spacing:0"
       line-height="125%"
       x="878.45178"
       y="-1301.9052"
       sodipodi:linespacing="125%">
      <tspan
         id="tspan9211"
         x="878.45178"
         y="-1301.9052" />
    </text>
    <text
       id="text9213"
       style="font-size:46.95399857px;font-family:Arial;text-anchor:middle"
       x="415.98044"
       y="-5573.4155"
       transform="scale(4.0128205,0.24920128)" />
    <text
       id="text9215"
       style="font-size:208.33000183px;line-height:125%;font-family:'Gentium Book Basic';letter-spacing:0;word-spacing:0"
       line-height="125%"
       x="-954.34821"
       y="112.81484"
       sodipodi:linespacing="125%">
      <tspan
         id="tspan9217"
         x="-954.34821"
         y="112.81484" />
    </text>
    <path
       style="opacity:0.25"
       id="path9221"
       d="M -58.71875,-199.88477 42.939453,-98.226562 c -0.0045,-0.0014 -0.0091,-0.0025 -0.01367,-0.0039 L -58.71875,-199.875 l 0,86.30078 L 49.599609,-5.2578125 C 16.584097,-20.5153 -20.1599,-29.042682 -58.867188,-29.042969 l -0.002,0 0,78.06836 180.796868,180.796879 c 1.5e-4,0.0946 0.004,0.18854 0.004,0.2832 l 0.01,0.01 -0.0195,0 41,41 223.20898,0 c 14.397,0 26,-11.603 26,-26 l 0,-152.070308 L 245.18164,-73.904297 C 167.35164,-151.7343 59.86125,-199.88477 -58.71875,-199.88477 Z m 49.6953125,335.84961 c -13.1869995,0 -24.3380785,4.56246 -33.4550785,13.68946 l 0.002,0.002 c -9.111315,8.95932 -13.66856,20.03899 -13.669922,33.23242 l 0,0.002 0,0.004 c 0.0014,12.88242 4.451783,23.77405 13.357422,32.67969 l 55.541015,55.54101 132.419931,0 L 23.341797,149.28516 c 0.121,0.12 0.240375,0.24128 0.359375,0.36328 l -0.357422,-0.35742 c -8.883,-8.883 -19.6723281,-13.32618 -32.3613281,-13.32618 l 46.3828121,46.38282 c 1.9e-5,0.002 -1.8e-5,0.004 0,0.006 L -9.0234375,135.96484 Z M 354.62891,157.80078 c 3.59177,0.50097 7.16946,1.04738 10.73242,1.63672 0.58893,3.56149 1.13214,7.13811 1.63281,10.72852 l -12.36523,-12.36524 z"
       inkscape:connector-curvature="0" />
    <path
       id="path9267"
       style="fill:#fafafa"
       d="m -56.14722,182.89483 c 0,-13.197 4.559,-24.279 13.673,-33.24 9.117,-9.127 20.268,-13.69 33.455,-13.69 12.861,0 23.77,4.564 32.721,13.69 9.117,8.961 13.673,20.04 13.673,33.24 0,12.873 -4.558,23.872 -13.673,32.999 -8.954,8.963 -19.86,13.444 -32.721,13.444 -13.186,0 -24.338,-4.481 -33.455,-13.444 -9.117,-8.964 -13.673,-19.963 -13.673,-32.999 m -2.721,-211.94 0,78.07 c 99.76,0 180.79,81.16 180.79,181.08 l 78.36,0 c 0,-143.13 -116.24,-259.15 -259.15,-259.15 z m 0.149,-170.83 0,86.3 c 189.42,0 343.22,153.94 343.22,343.55 l 86.63,0 c 0,-237.35 -192.74,-429.85 -429.85,-429.85"
       inkscape:connector-curvature="0" />
  </g>
</svg>
