<?xml version="1.0" encoding="UTF-8" standalone="no"?>
<!-- Created with Inkscape (http://www.inkscape.org/) -->
<svg id="svg2" xmlns:rdf="http://www.w3.org/1999/02/22-rdf-syntax-ns#" xmlns="http://www.w3.org/2000/svg" height="100%" width="100%" version="1.1" xmlns:cc="http://creativecommons.org/ns#" viewBox="0 0 512 512" xmlns:dc="http://purl.org/dc/elements/1.1/">
 <metadata id="metadata64">
  <rdf:RDF>
   <cc:Work rdf:about="">
    <dc:format>image/svg+xml</dc:format>
    <dc:type rdf:resource="http://purl.org/dc/dcmitype/StillImage"/>
   </cc:Work>
  </rdf:RDF>
 </metadata>
 <path id="path10" d="m26 0c-14.397 0-26 11.603-26 26v460c0 14.397 11.603 26 26 26h460c14.397 0 26-11.603 26-26v-460c0-14.397-11.6-26-26-26h-460" fill="#999647"/>
 <text id="text12" style="word-spacing:0;letter-spacing:0" font-size="129.23px" line-height="125%" y="156" x="1501.46" font-family="Gentium Book Basic">
  <tspan id="tspan14" y="156" x="1501.46"/>
 </text>
 <text id="text16" style="text-anchor:middle" transform="scale(4.0128 .2492)" font-size="46.954px" y="276.85999" x="571.25" font-family="Arial"/>
 <text id="text18" style="word-spacing:0;letter-spacing:0" font-size="129.23px" line-height="125%" y="76" x="2082.73" font-family="Gentium Book Basic">
  <tspan id="tspan20" y="76" x="2082.73"/>
 </text>
 <text id="text22" style="text-anchor:middle" transform="scale(4.0128 .2492)" font-size="46.954px" y="-44.18" x="716.09998" font-family="Arial"/>
 <text id="text24" style="word-spacing:0;letter-spacing:0" font-size="129.23px" line-height="125%" y="-105.26" x="1011.15" font-family="Gentium Book Basic">
  <tspan id="tspan26" y="-105.26" x="1011.15"/>
 </text>
 <text id="text28" style="text-anchor:middle" transform="scale(4.0128 .2492)" font-size="46.954px" y="-771.52002" x="449.06" font-family="Arial"/>
 <text id="text30" style="word-spacing:0;letter-spacing:0" font-size="129.23px" line-height="125%" y="-321.73001" x="2109.2" font-family="Gentium Book Basic">
  <tspan id="tspan32" y="-321.73001" x="2109.2"/>
 </text>
 <text id="text34" style="text-anchor:middle" transform="scale(4.0128 .2492)" font-size="46.954px" y="-1640.1899" x="722.70001" font-family="Arial"/>
 <text id="text36" style="word-spacing:0;letter-spacing:0" font-size="129.23px" line-height="125%" y="-401.73001" x="2690.47" font-family="Gentium Book Basic">
  <tspan id="tspan38" y="-401.73001" x="2690.47"/>
 </text>
 <text id="text40" style="text-anchor:middle" transform="scale(4.0128 .2492)" font-size="46.954px" y="-1961.22" x="867.54999" font-family="Arial"/>
 <text id="text42" style="word-spacing:0;letter-spacing:0" font-size="129.23px" line-height="125%" y="-874.13" x="2301.3501" font-family="Gentium Book Basic">
  <tspan id="tspan44" y="-874.13" x="2301.3501"/>
 </text>
 <text id="text46" style="text-anchor:middle" transform="scale(4.0128 .2492)" font-size="46.954px" y="-3856.8601" x="770.58002" font-family="Arial"/>
 <text id="text48" style="word-spacing:0;letter-spacing:0" font-size="129.23px" line-height="125%" y="-954.14001" x="2882.6101" font-family="Gentium Book Basic">
  <tspan id="tspan50" y="-954.14001" x="2882.6101"/>
 </text>
 <text id="text52" style="text-anchor:middle" transform="scale(4.0128 .2492)" font-size="46.954px" y="-4177.8999" x="915.42999" font-family="Arial"/>
 <text id="text54" style="word-spacing:0;letter-spacing:0" font-size="208.33px" line-height="125%" y="460.57999" x="1049.8101" font-family="Gentium Book Basic">
  <tspan id="tspan56" y="460.57999" x="1049.8101"/>
 </text>
 <path id="path58" opacity=".25" d="m378.91 46.5c-3.781 0-7.494 0.213-11.156 0.656-0.625 0.076-1.254 0.256-1.875 0.344-0.327 0.046-0.643 0.044-0.969 0.094-0.872 0.132-1.761 0.279-2.625 0.438-1.215 0.221-2.426 0.513-3.625 0.781-2.396 0.537-4.772 1.124-7.094 1.844-1.442 0.448-2.87 0.92-4.281 1.438-0.512 0.186-1.023 0.335-1.531 0.531-3.038 1.174-5.971 2.585-8.844 4.063-0.144 0.074-0.293 0.144-0.438 0.219-0.65 0.338-1.329 0.616-1.969 0.969-0.997 0.55-1.994 1.165-2.969 1.75-1.111 0.668-2.201 1.379-3.281 2.094-0.219 0.144-0.439 0.292-0.656 0.438-1.294 0.87-2.565 1.692-3.813 2.625-0.123 0.092-0.221 0.221-0.344 0.313-1.407 1.063-2.814 2.14-4.156 3.281-0.259 0.221-0.523 0.432-0.781 0.656-0.683 0.593-1.303 1.262-1.969 1.875-0.366 0.338-0.733 0.626-1.094 0.969-0.562 0.535-1.077 1.108-1.625 1.656-1 1-2.01 2.01-2.969 3.063-0.035 0.038-0.059 0.056-0.094 0.094-0.851 0.937-1.72 1.871-2.531 2.844-1.079 1.288-2.147 2.59-3.156 3.938-0.049 0.063-0.078 0.155-0.125 0.219-3.394 4.563-6.36 9.467-8.875 14.625l-5-5c-3.887-1.395-7.88-2.621-12.03-3.5-6.161-1.305-12.312-1.928-18.375-1.969-42.44-0.285-80.66 29.26-89.78 72.41-2.211 10.444-2.544 20.61-1.219 30.625l-118.56 77.13c-4.722 3.071-15.03 41.809-7.313 53.688 0.448 0.688 1.01 1.35 1.656 2l188.28 188.31h252.28c14.397 0 26-11.603 26-26v-344.5l-66.44-66.44-1.531-1.563c-16.666-16.667-39.704-27-65.12-27"/>
 <path id="path60" d="m378.89 46.5c-3.781 0-7.494 0.213-11.156 0.656-0.625 0.076-1.238 0.24-1.86 0.328-0.327 0.046-0.659 0.059-0.984 0.109-0.872 0.132-1.761 0.28-2.625 0.438-1.215 0.221-2.411 0.497-3.61 0.766-2.396 0.537-4.787 1.14-7.109 1.86-1.442 0.448-2.855 0.905-4.266 1.422-0.512 0.186-1.024 0.351-1.531 0.547-3.038 1.174-5.986 2.57-8.859 4.047-0.144 0.074-0.293 0.144-0.438 0.219-0.65 0.338-1.329 0.632-1.969 0.984-0.997 0.55-1.978 1.165-2.953 1.75-1.111 0.668-2.2 1.364-3.28 2.078-0.219 0.144-0.439 0.292-0.656 0.438-1.294 0.87-2.581 1.692-3.828 2.625-0.123 0.092-0.205 0.236-0.328 0.328-1.407 1.063-2.814 2.14-4.157 3.282-0.259 0.221-0.508 0.432-0.766 0.656-0.683 0.593-1.303 1.246-1.969 1.86-0.366 0.338-0.733 0.641-1.094 0.984-0.562 0.535-1.093 1.093-1.641 1.641-1 1-1.997 2.01-2.953 3.063-0.035 0.038-0.074 0.072-0.109 0.109-0.851 0.937-1.704 1.872-2.516 2.844-1.079 1.288-2.163 2.59-3.172 3.938-0.049 0.063-0.062 0.155-0.109 0.219-11.404 15.331-18.16 34.34-18.16 54.906 0 6.679 0.713 13.201 2.078 19.468v0.109c0.381 1.739 0.833 3.44 1.313 5.141 0.582 2.09 1.35 4.1 2.078 6.126 0.117 0.328 0.207 0.658 0.328 0.984 0.308 0.833 0.544 1.695 0.875 2.516 0.035 0.005 0.074-0.005 0.109 0 1.892 4.644 4.192 9.113 6.779 13.344-2.523 0.471-5.113 0.639-7.765 0.438-0.184-0.013-0.363-0.093-0.547-0.109-1.161-0.103-2.328-0.189-3.5-0.438-16.421-3.475-26.884-19.442-23.406-35.874 1.87-8.835 7.39-15.874 14.656-20.01 1.18-12.953 5.191-25.489 11.265-36.968-3.887-1.395-7.88-2.621-12.03-3.5-6.161-1.305-12.312-1.928-18.375-1.969-42.44-0.285-80.67 29.26-89.79 72.4-2.211 10.444-2.528 20.61-1.203 30.625l-118.55 77.11c-4.722 3.071-15.05 41.824-7.327 53.703 7.723 11.854 47.33 18.17 52.06 15.09l7.765-5.03 25.375 5.36c5.04 1.065 10.09-1.862 11.156-6.89l5.359-25.375 25.05 5.25c5.04 1.065 10.09-1.972 11.156-6.999l5.359-25.27 25.05 5.25c5.04 1.065 10.09-1.972 11.156-6.999l2.625-12.469c4.862 1.955 10.117 3.58 15.422 4.704 49.31 10.435 97.73-21.03 108.17-70.33 7.352-34.739-6.189-69.02-32.05-89.9-3.426 7.128-5.738 14.82-6.779 22.64 10.613 6.535 16.51 19.259 13.781 32.16-0.88 4.162-2.633 7.901-4.921 11.156-0.587 0.605-0.982 1.182-1.313 1.75-0.024 0.043-0.085 0.066-0.109 0.109-0.995 1.201-2.123 2.255-3.282 3.282-2.646-4.158-4.975-8.581-6.779-13.234-2.348-6.073-3.874-12.539-4.594-19.249-0.058-0.543-0.173-1.095-0.219-1.641-0.036-0.438-0.08-0.872-0.109-1.313-0.116-1.715-0.219-3.395-0.219-5.141 0-18.883 6.957-36.14 18.375-49.44 1.23-1.437 2.496-2.816 3.828-4.157 0.146-0.146 0.29-0.292 0.438-0.438 1.336-1.322 2.728-2.606 4.157-3.828 0.296-0.253 0.575-0.519 0.875-0.766 2.571-2.13 5.255-4.01 8.093-5.797 0.832-0.521 1.662-1.041 2.516-1.531 0.072-0.041 0.149-0.069 0.219-0.109 0.837-0.477 1.658-0.976 2.516-1.422 0.423-0.221 0.885-0.443 1.313-0.656 1.248-0.618 2.542-1.199 3.828-1.75 0.107-0.046 0.221-0.063 0.328-0.109 0.182-0.077 0.365-0.143 0.547-0.219 3.214-1.333 6.535-2.505 9.953-3.391 0.463-0.119 0.955-0.217 1.422-0.328 3.202-0.763 6.498-1.299 9.843-1.641 1.095-0.111 2.171-0.263 3.28-0.328 1.494-0.088 2.97-0.109 4.485-0.109 41.945 0 75.908 34.06 75.908 76.02 0 1.384-0.036 2.791-0.109 4.157-0.028 0.542-0.069 1.102-0.109 1.641-0.018 0.221-0.091 0.435-0.109 0.656-0.139 1.672-0.301 3.283-0.547 4.922-0.039 0.258-0.067 0.508-0.109 0.766-0.077 0.477-0.243 0.948-0.328 1.422-0.39 2.15-0.744 4.37-1.313 6.452-0.069 0.257-0.147 0.51-0.219 0.766-0.288 1.01-0.656 1.962-0.984 2.953-0.412 1.259-0.837 2.49-1.313 3.719-0.945 2.431-1.989 4.808-3.172 7.109-0.467 0.916-0.918 1.841-1.422 2.735-3.945 6.964-9.02 13.215-14.868 18.594v0.109c-6.01 5.519-12.891 10.1-20.459 13.453 1.199 5.387 2.02 10.898 2.297 16.406 6.44-2.477 12.51-5.729 18.16-9.521 0.024-0.018 0.085 0.018 0.109 0 3.057-2.055 5.968-4.274 8.749-6.671 0.67-0.577 1.315-1.155 1.969-1.75 0.713-0.65 1.386-1.296 2.078-1.969 0.275-0.267 0.493-0.604 0.766-0.875 1.049-1.044 2.065-2.078 3.063-3.172 1.156-1.264 2.305-2.501 3.391-3.828 0.082-0.101 0.136-0.227 0.219-0.328 0.542-0.668 1.01-1.395 1.531-2.078 0.593-0.776 1.291-1.502 1.86-2.297 0.184-0.255 0.366-0.508 0.547-0.766 0.879-1.256 1.7-2.527 2.516-3.828 0.043-0.069 0.066-0.15 0.109-0.219 0.944-1.514 1.877-3.02 2.735-4.594 0.116-0.212 0.213-0.443 0.328-0.656 1.635-3.057 3.088-6.263 4.375-9.521 0.375-0.947 0.749-1.881 1.094-2.844 0.29-0.814 0.606-1.581 0.875-2.406 0.046-0.143 0.063-0.294 0.109-0.438 0.527-1.645 0.987-3.348 1.422-5.03 0.15-0.579 0.3-1.167 0.438-1.75 0.069-0.292 0.153-0.582 0.219-0.875 0.335-1.473 0.612-2.984 0.875-4.485 0.247-1.417 0.474-2.828 0.656-4.266 0.185-1.453 0.321-2.902 0.438-4.375 0.036-0.466 0.08-0.953 0.109-1.422 0.124-1.959 0.219-3.915 0.219-5.907 0-50.847-41.25-92.09-92.09-92.09m-14.656 114.84c0.61 3.539 0.993 7.097 1.203 10.718 7.157 67.22-62.53 126.24-127.54 110.03-1.155 1.8-2.598 3.46-4.155 5.03 0.139 0.186 0.294 0.362 0.438 0.547l-64.09 126.1c-2.554 5.02 7.941 43.66 20.562 50.09 12.616 6.404 50.05-7.87 52.609-12.906l4.266-8.312 24.609-7.984c4.897-1.596 7.826-6.82 6.235-11.703l-8.095-24.609 24.281-7.874c4.895-1.596 7.827-6.82 6.234-11.703l-7.984-24.609 24.281-7.874c4.898-1.596 7.718-6.708 6.126-11.593l-3.938-12.14c5.19-0.737 10.596-1.93 15.75-3.61 47.922-15.618 74.13-67.15 58.51-115.06-5.665-17.383-16.09-31.842-29.31-42.547m-188.12 53.27c2.679 6.331 6.06 12.262 10.06 17.828l-100.4 65.734c-4.72 3.072-11.256 1.658-14.328-3.063-3.08-4.736-1.66-11.244 3.063-14.328l101.61-66.17m75.69 90.34c5.485 4.143 11.36 7.577 17.61 10.39l-54.14 107.08c-2.552 5.02-8.87 7.147-13.891 4.594-5.04-2.562-7.14-8.858-4.594-13.891l55.02-108.17" fill="#fff"/>
</svg>
