<svg xmlns="http://www.w3.org/2000/svg" xmlns:svg="http://www.w3.org/2000/svg" id="svg2" version="1.1" viewBox="0 0 512 512"><metadata id="metadata472"/><defs id="defs4"><linearGradient id="1" x2="0" y1=".107" y2="512.54" gradientTransform="translate(429.55932,-80.271186)" gradientUnits="userSpaceOnUse"><stop style="stop-color:#6a6a6a" id="stop48218"/><stop id="stop48220" offset=".47"/><stop style="stop-color:#fff" id="stop48222" offset=".494"/><stop style="stop-color:#fff" id="stop48224" offset=".901"/><stop id="stop48226" offset=".955"/><stop id="stop48228" offset="1"/></linearGradient><linearGradient id="1-5" x2="0" y1=".107" y2="512.54" gradientTransform="translate(52.067797,180.0678)" gradientUnits="userSpaceOnUse"><stop style="stop-color:#6a6a6a" id="stop48218-4"/><stop id="stop48220-9" offset=".47"/><stop style="stop-color:#fff" id="stop48222-4" offset=".494"/><stop style="stop-color:#fff" id="stop48224-5" offset=".901"/><stop id="stop48226-7" offset=".955"/><stop id="stop48228-1" offset="1"/></linearGradient></defs><path id="path62391" d="M 26,0 C 11.603,0 0,11.603 0,26 l 0,460 c 0,14.397 11.603,26 26,26 l 460,0 c 14.397,0 26,-11.603 26,-26 L 512,26 C 512,11.603 500.397,0 486,0 L 26,0" style="fill:#0078ad"/><path id="path62441" d="M 307.08984 41 L 307.08789 41.003906 L 175.14062 76.359375 L 179.75195 189.54102 L 93.980469 103.76953 L 58.574219 235.76953 L 58.578125 235.77344 L 58.570312 235.76953 L 141.23047 318.42969 L 42.660156 318.42969 L 236.23047 512 L 486 512 C 500.397 512 512 500.397 512 486 L 512 236.24023 L 372.68945 96.929688 L 366.77539 100.67578 L 307.09961 41 L 307.0918 41.001953 L 307.08984 41 z" style="color:#000;opacity:.25"/><path id="path62493" d="m 307.1,41 -131.96,35.36 7.355,180.49 124.6,-215.86 m 65.59,55.931 -152.61,96.64 74.02,0 123.92,214.62 35.36,-131.96 -157.66,-82.66 173.61,0 -96.64,-96.64 m -278.71,6.842 -35.406,132 157.66,82.66 -173.57,0 96.6,96.6 152.66,-96.6 -74.06,0 -123.88,-214.66 m 160.82,110.07 c -22.906,0 -41.52,18.303 -41.52,40.879 0,22.576 18.614,40.879 41.52,40.879 22.906,0 41.478,-18.303 41.478,-40.879 0,-22.576 -18.572,-40.879 -41.478,-40.879 m 74.7,41.26 -124.65,215.9 132,-35.36 -7.355,-180.54" style="color:#000;fill:#fff"/></svg>