<?xml version="1.0" encoding="UTF-8" standalone="no"?>
<svg
   xmlns:dc="http://purl.org/dc/elements/1.1/"
   xmlns:cc="http://creativecommons.org/ns#"
   xmlns:rdf="http://www.w3.org/1999/02/22-rdf-syntax-ns#"
   xmlns:svg="http://www.w3.org/2000/svg"
   xmlns="http://www.w3.org/2000/svg"
   xmlns:sodipodi="http://sodipodi.sourceforge.net/DTD/sodipodi-0.dtd"
   xmlns:inkscape="http://www.inkscape.org/namespaces/inkscape"
   viewBox="0 0 512 512"
   id="svg2"
   version="1.1"
   inkscape:version="0.91+devel r13804 custom"
   sodipodi:docname="start-here-xfce.svg">
  <metadata
     id="metadata472">
    <rdf:RDF>
      <cc:Work
         rdf:about="">
        <dc:format>image/svg+xml</dc:format>
        <dc:type
           rdf:resource="http://purl.org/dc/dcmitype/StillImage" />
        <dc:title></dc:title>
      </cc:Work>
    </rdf:RDF>
  </metadata>
  <sodipodi:namedview
     pagecolor="#ffffff"
     bordercolor="#666666"
     borderopacity="1"
     objecttolerance="10"
     gridtolerance="10"
     guidetolerance="10"
     inkscape:pageopacity="0"
     inkscape:pageshadow="2"
     inkscape:window-width="1366"
     inkscape:window-height="709"
     id="namedview470"
     showgrid="false"
     inkscape:zoom="0.4609375"
     inkscape:cx="-8.6779661"
     inkscape:cy="237.55932"
     inkscape:window-x="-2"
     inkscape:window-y="-3"
     inkscape:window-maximized="1"
     inkscape:current-layer="svg2" />
  <defs
     id="defs4" />
  <path
     inkscape:connector-curvature="0"
     d="M 26,0 C 11.603,0 0,11.603 0,26 l 0,460 c 0,14.397 11.603,26 26,26 l 460,0 c 14.397,0 26,-11.603 26,-26 L 512,26 C 512,11.603 500.397,0 486,0 L 26,0"
     style="fill:#6ea6c1"
     id="path150602" />
  <text
     sodipodi:linespacing="125%"
     y="131.46001"
     x="28.761999"
     line-height="125%"
     style="font-size:129.22999573px;line-height:125%;font-family:'Gentium Book Basic';letter-spacing:0;word-spacing:0"
     id="text150604">
    <tspan
       y="131.46001"
       x="28.761999"
       id="tspan150606" />
  </text>
  <text
     transform="scale(4.0128205,0.24920128)"
     y="178.35909"
     x="204.24895"
     style="font-size:46.95399857px;font-family:Arial;text-anchor:middle"
     id="text150608" />
  <text
     sodipodi:linespacing="125%"
     y="51.459999"
     x="610.03003"
     line-height="125%"
     style="font-size:129.22999573px;line-height:125%;font-family:'Gentium Book Basic';letter-spacing:0;word-spacing:0"
     id="text150610">
    <tspan
       y="51.459999"
       x="610.03003"
       id="tspan150612" />
  </text>
  <text
     transform="scale(4.0128205,0.24920128)"
     y="-142.66927"
     x="349.09821"
     style="font-size:46.95399857px;font-family:Arial;text-anchor:middle"
     id="text150614" />
  <text
     sodipodi:linespacing="125%"
     y="-129.8"
     x="-461.54999"
     line-height="125%"
     style="font-size:129.22999573px;line-height:125%;font-family:'Gentium Book Basic';letter-spacing:0;word-spacing:0"
     id="text150616">
    <tspan
       y="-129.8"
       x="-461.54999"
       id="tspan150618" />
  </text>
  <text
     transform="scale(4.0128205,0.24920128)"
     y="-870.02557"
     x="82.059578"
     style="font-size:46.95399857px;font-family:Arial;text-anchor:middle"
     id="text150620" />
  <text
     sodipodi:linespacing="125%"
     y="-346.26999"
     x="636.5"
     line-height="125%"
     style="font-size:129.22999573px;line-height:125%;font-family:'Gentium Book Basic';letter-spacing:0;word-spacing:0"
     id="text150622">
    <tspan
       y="-346.26999"
       x="636.5"
       id="tspan150624" />
  </text>
  <text
     transform="scale(4.0128205,0.24920128)"
     y="-1738.681"
     x="355.69818"
     style="font-size:46.95399857px;font-family:Arial;text-anchor:middle"
     id="text150626" />
  <text
     sodipodi:linespacing="125%"
     y="-426.28"
     x="1217.77"
     line-height="125%"
     style="font-size:129.22999573px;line-height:125%;font-family:'Gentium Book Basic';letter-spacing:0;word-spacing:0"
     id="text150628">
    <tspan
       y="-426.28"
       x="1217.77"
       id="tspan150630" />
  </text>
  <text
     transform="scale(4.0128205,0.24920128)"
     y="-2059.7195"
     x="500.54742"
     style="font-size:46.95399857px;font-family:Arial;text-anchor:middle"
     id="text150632" />
  <text
     sodipodi:linespacing="125%"
     y="-898.67999"
     x="828.65002"
     line-height="125%"
     style="font-size:129.22999573px;line-height:125%;font-family:'Gentium Book Basic';letter-spacing:0;word-spacing:0"
     id="text150634">
    <tspan
       y="-898.67999"
       x="828.65002"
       id="tspan150636" />
  </text>
  <text
     transform="scale(4.0128205,0.24920128)"
     y="-3955.3596"
     x="403.57791"
     style="font-size:46.95399857px;font-family:Arial;text-anchor:middle"
     id="text150638" />
  <text
     sodipodi:linespacing="125%"
     y="-978.67999"
     x="1409.91"
     line-height="125%"
     style="font-size:129.22999573px;line-height:125%;font-family:'Gentium Book Basic';letter-spacing:0;word-spacing:0"
     id="text150640">
    <tspan
       y="-978.67999"
       x="1409.91"
       id="tspan150642" />
  </text>
  <text
     transform="scale(4.0128205,0.24920128)"
     y="-4276.3882"
     x="548.42719"
     style="font-size:46.95399857px;font-family:Arial;text-anchor:middle"
     id="text150644" />
  <text
     sodipodi:linespacing="125%"
     y="436.04001"
     x="-422.89001"
     line-height="125%"
     style="font-size:208.33000183px;line-height:125%;font-family:'Gentium Book Basic';letter-spacing:0;word-spacing:0"
     id="text150646">
    <tspan
       y="436.04001"
       x="-422.89001"
       id="tspan150648" />
  </text>
  <path
     style="fill-rule:evenodd;stroke:none;stroke-width:3.35599995;fill:#000000;opacity:0.25"
     d="M 357.33594 140.57227 L 370.35938 153.5957 C 370.36131 153.60219 370.3633 153.60874 370.36523 153.61523 L 357.33008 140.58008 C 355.70208 140.63508 353.92031 141.02269 351.94531 141.80469 L 351.93945 141.80078 C 339.06888 146.59139 345.47261 170.80705 348.66406 181.65234 L 324.7207 157.71094 L 324.67969 157.66992 C 321.54138 154.53162 318.13518 153.06463 314.58203 154.8418 L 314.58008 154.83984 C 296.54008 164.78584 313.49839 195.83784 309.90039 196.83984 C 303.21639 200.57484 303.63339 209.72139 298.27539 217.15039 L 394.47266 313.34766 C 394.4931 313.36963 394.51078 313.3901 394.53125 313.41211 L 298.26953 217.15039 C 289.43631 229.80984 223.32807 211.16878 201.94336 209.87305 L 201.93945 209.86914 C 186.35545 208.94914 171.45341 221.72684 169.94141 220.21484 L 295.70312 345.97656 C 295.70112 345.97675 295.69927 345.97637 295.69727 345.97656 L 169.93164 220.21094 L 169.81055 220.08984 C 150.72258 201.00188 111.40906 167.8983 68.314453 156.88477 L 68.310547 156.88086 C 61.064547 154.91386 52.728281 151.82928 44.613281 148.48828 L 55.097656 158.97266 C 55.094514 158.97128 55.091032 158.97013 55.087891 158.96875 L 44.609375 148.49023 C 43.946375 150.09123 43.308734 151.70036 42.677734 153.31836 L 42.677734 153.32031 C 42.679011 153.32092 42.680364 153.32166 42.681641 153.32227 L 147.95117 258.5918 C 143.78725 272.54102 142.53504 289.44412 145.66797 311.65039 L 145.66992 311.65234 C 146.62953 318.47213 125.44315 330.29003 126.98828 340.57227 L 129.14062 342.72461 C 129.13304 342.72324 129.1267 342.72016 129.11914 342.71875 L 126.98047 340.58008 C 127.08247 341.20108 127.31606 341.67348 127.66406 342.02148 L 146.61523 360.97266 C 145.32665 365.78006 144.71528 369.73275 146.03125 371.05078 L 286.98047 512 L 486 512 C 500.397 512 512 500.397 512 486 L 512 269.60938 L 505.74023 263.34961 L 458.05078 215.66016 C 448.60266 206.21203 432.99042 200.24344 417.72656 196.29688 L 365.11914 143.68945 C 363.07314 141.64345 360.51994 140.46627 357.33594 140.57227 z M 447.6582 166.41992 C 447.64956 166.41214 447.64011 166.4133 447.61523 166.42383 L 447.83594 166.64453 C 447.84307 166.65552 447.85045 166.66599 447.85742 166.67773 L 447.60938 166.42969 C 446.19538 167.03969 440.57009 195.86397 442.99609 198.29297 L 512 267.29688 L 512 213.3125 L 469.27344 170.58594 C 469.27557 170.58807 469.27534 170.59528 469.27734 170.59766 L 469.26953 170.58984 C 469.19607 170.52912 469.11746 170.51886 469.01562 170.51562 L 469.00977 170.50977 C 467.75676 170.48691 464.42253 174.57146 461.01172 179.77344 L 447.6582 166.41992 z "
     id="path150652" />
  <path
     inkscape:connector-curvature="0"
     d="m 357.33,140.58 c -1.628,0.055 -3.41,0.443 -5.385,1.225 -15.569,5.795 -2.864,40.33 -1.858,44.791 0.929,4.111 -6.951,3.662 -8.431,1.858 -3.303,-4.03 -14.212,-40.04 -27.07,-33.61 -18.04,9.946 -1.082,40.998 -4.68,42 -6.684,3.735 -6.267,12.882 -11.625,20.311 -8.835,12.662 -74.969,-5.99 -96.34,-7.279 -15.645,-0.923 -30.602,11.956 -32.02,10.326 -19.05,-19.08 -58.44,-52.29 -101.61,-63.32 -7.246,-1.967 -15.581,-5.05 -23.696,-8.391 -0.663,1.601 -1.3,3.211 -1.931,4.829 7.298,3.449 15.569,7.123 24.884,10.957 41.33,17.02 98.41,60.15 93.93,67.11 -13.425,18.909 -21.287,41.524 -15.822,80.26 0.985,6.818 -20.228,18.644 -18.682,28.932 1.29,7.829 23.697,-7.757 26.15,-4.68 1.499,5.524 -11.98,33.503 -6.537,35.506 3.985,1.184 39.04,-33.26 41.08,-32.683 57.774,17.466 132.92,4.305 134.37,3.751 -0.137,-0.303 54.12,25.479 58.83,22.396 11.885,-12.874 -22.563,-31.01 -16.824,-38.26 2.516,-3.795 41.918,14.211 43.862,9.286 2.825,-8.526 -18.289,-26.372 -21.464,-31.68 -2.763,-4.891 -3.336,-12.849 3.751,-17.79 7.089,-4.942 79.59,-32.619 76.55,-54.08 -5.255,-38.987 -91.98,-41.584 -93.37,-44.865 -0.606,-1.421 3.173,-47.551 -16.04,-46.908 z m 90.29,25.849 c -1.443,0.623 -7.271,30.609 -4.457,31.977 2.495,1.866 6.809,-30.28 4.532,-31.94 -0.037,-0.043 -0.027,-0.057 -0.075,-0.037 z m 21.393,4.086 c -3.272,-0.059 -20.732,27.813 -16.71,30.789 2.495,1.866 18.04,-29.66 16.973,-30.715 -0.075,-0.062 -0.155,-0.072 -0.26,-0.075 z"
     style="fill:#ffffff;fill-rule:evenodd;stroke:#ffffff;stroke-width:3.35599995"
     id="path150758" />
</svg>
