<svg xmlns="http://www.w3.org/2000/svg" viewBox="0 0 512 512"><defs><clipPath id="0"><path d="m26 0c-14.397 0-26 11.603-26 26v460c0 14.397 11.603 26 26 26h460c14.397 0 26-11.603 26-26v-460c0-14.397-11.603-26-26-26h-460"/></clipPath></defs><path d="m26 0c-14.397 0-26 11.603-26 26v460c0 14.397 11.603 26 26 26h460c14.397 0 26-11.603 26-26v-460c0-14.397-11.603-26-26-26h-460" style="fill:#4d4d4d"/><text y="-301.15" x="-133.85" line-height="125%" style="letter-spacing:0;word-spacing:0;font-size:129.23;font-family:Gentium Book Basic"><tspan y="-301.15" x="-133.85"/></text><text transform="scale(4.0128.2492)" y="-1557.61" x="163.73" style="font-size:46.954;font-family:Arial;text-anchor:middle"/><text y="-381.15" x="447.42" line-height="125%" style="letter-spacing:0;word-spacing:0;font-size:129.23;font-family:Gentium Book Basic"><tspan y="-381.15" x="447.42"/></text><text transform="scale(4.0128.2492)" y="-1878.64" x="308.57" style="font-size:46.954;font-family:Arial;text-anchor:middle"/><text y="-562.41" x="-624.16" line-height="125%" style="letter-spacing:0;word-spacing:0;font-size:129.23;font-family:Gentium Book Basic"><tspan y="-562.41" x="-624.16"/></text><text transform="scale(4.0128.2492)" y="-2606" x="41.536" style="font-size:46.954;font-family:Arial;text-anchor:middle"/><text y="-778.88" x="473.89" line-height="125%" style="letter-spacing:0;word-spacing:0;font-size:129.23;font-family:Gentium Book Basic"><tspan y="-778.88" x="473.89"/></text><text transform="scale(4.0128.2492)" y="-3474.66" x="315.17" style="font-size:46.954;font-family:Arial;text-anchor:middle"/><text y="-858.89" x="1055.16" line-height="125%" style="letter-spacing:0;word-spacing:0;font-size:129.23;font-family:Gentium Book Basic"><tspan y="-858.89" x="1055.16"/></text><text transform="scale(4.0128.2492)" y="-3795.7" x="460.02" style="font-size:46.954;font-family:Arial;text-anchor:middle"/><text y="-1331.29" x="666.04" line-height="125%" style="letter-spacing:0;word-spacing:0;font-size:129.23;font-family:Gentium Book Basic"><tspan y="-1331.29" x="666.04"/></text><text transform="scale(4.0128.2492)" y="-5691.35" x="363.05" style="font-size:46.954;font-family:Arial;text-anchor:middle"/><text y="-1411.29" x="1247.3" line-height="125%" style="letter-spacing:0;word-spacing:0;font-size:129.23;font-family:Gentium Book Basic"><tspan y="-1411.29" x="1247.3"/></text><text transform="scale(4.0128.2492)" y="-6012.38" x="507.9" style="font-size:46.954;font-family:Arial;text-anchor:middle"/><text y="3.432" x="-585.5" line-height="125%" style="letter-spacing:0;word-spacing:0;font-size:208.33;font-family:Gentium Book Basic"><tspan y="3.432" x="-585.5"/></text><g style="clip-path:url(#0);opacity:.25;stroke:#fff;fill-rule:evenodd;stroke-linecap:round;stroke-linejoin:round;stroke-width:11.155"><path d="m359.23 78.54c-14.498 3.634-34.847 12.715-47.13 18.233l353.55 353.55c12.286-5.518 32.635-14.599 47.13-18.233z"/><path d="m312.1 96.78c-10.33-8.235-191.11 106.57-265.52 154.99l353.55 353.55c74.42-48.42 255.19-163.22 265.52-154.99z"/><path d="m46.578 251.76c44.19-16.884 141.95-53.57 151.02-44.508l353.55 353.55c-9.07-9.07-106.82 27.624-151.02 44.508z" style="stroke:#000"/><path d="m197.59 207.25c.046.046.09.094.132.143l353.55 353.55c-.042-.049-.086-.096-.132-.143z"/><path d="m197.73 207.4c9.122 10.666-58.31 79.85-114.66 175.18l353.55 353.55c56.35-95.33 123.79-164.51 114.66-175.18z"/><path d="m83.06 382.57c46.51-50.07 134.81-164.68 151.09-156.32l353.55 353.55c-16.279-8.357-104.58 106.24-151.09 156.32z" style="stroke:#000"/><path d="m234.15 226.25c1.063 3.162-16.399 29.18-39.496 67.04l353.55 353.55c23.1-37.859 40.559-63.882 39.496-67.04z"/><path d="m194.66 293.3c-27.547 45.14-48.16 85.64-68.45 124.5l353.55 353.55c20.291-38.862 40.901-79.36 68.45-124.5z"/><path d="m126.21 417.8c.197-.15.328-.179.402-.105l353.55 353.55c-.074-.074-.205-.045-.402.105z"/><path d="m126.61 417.69c.724.724-4.061 11.351-6.608 15.763l353.55 353.55c2.547-4.412 7.332-15.04 6.608-15.763z"/><g style="stroke:#000"><path d="m120 433.46c25.14-28.22 87.83-117.46 113.55-154.18l353.55 353.55c-25.722 36.715-88.41 125.95-113.55 154.18z"/><path d="m233.55 279.28c23.518-33.572 54.803-88.55 77.915-88.86l353.55 353.55c-23.11.304-54.4 55.28-77.915 88.86z"/><path d="m311.46 190.43c11.706-.157 24.265 6.928 37.476 20.14l353.55 353.55c-13.211-13.211-25.77-20.295-37.476-20.14z"/></g><path d="m348.94 210.57c30.29 30.29 63.996 92.77 98.7 174.01l353.55 353.55c-34.701-81.24-68.41-143.72-98.7-174.01z"/><path d="m447.64 384.58c8.499 19.9 7.362 23.14 11.963 36.14l353.55 353.55c-4.601-12.996-3.464-16.239-11.963-36.14z"/><g style="stroke:#000"><path d="m459.6 420.71c3.58 2.808 4.703-4.959 5.822-6.237l353.55 353.55c-1.12 1.277-2.242 9.04-5.822 6.237z"/><path d="m465.42 414.48c-.532-11.487-6.848-35.762-17.607-74.24l353.55 353.55c10.76 38.479 17.08 62.755 17.607 74.24z"/><path d="m447.82 340.24c-21.21-75.86-43.17-157.84-89.61-204.28l353.55 353.55c46.44 46.44 68.4 128.42 89.61 204.28z"/><path d="m358.21 135.96c-5.384-5.384-11.1-10.291-17.18-14.655l353.55 353.55c6.079 4.364 11.793 9.271 17.18 14.655z"/><path d="m341.03 121.31l3.766-23.88 353.55 353.55-3.766 23.88z"/><path d="m344.8 97.43c4.18-5.425 10.681-13.03 14.433-18.857l353.55 353.55c-3.751 5.822-10.253 13.432-14.433 18.857z"/></g></g><path d="m359.23 78.54c-14.498 3.634-34.847 12.715-47.13 18.233-10.33-8.235-191.11 106.57-265.52 154.99 44.42-16.97 142.95-53.95 151.15-44.37 9.122 10.666-58.31 79.85-114.66 175.18 46.51-50.07 134.81-164.68 151.09-156.32 1.063 3.162-16.399 29.18-39.496 67.04-27.547 45.14-48.16 85.64-68.45 124.5 2.126-1.615-3.399 10.796-6.206 15.658 25.14-28.22 87.83-117.46 113.55-154.18 23.518-33.572 54.803-88.55 77.915-88.86 38.543-.516 86.34 77.47 136.17 194.15 8.499 19.9 7.362 23.14 11.963 36.14 3.58 2.808 4.703-4.959 5.822-6.237-.532-11.487-6.848-35.762-17.607-74.24-23.666-84.66-48.27-176.93-106.79-218.93l3.766-23.88c4.18-5.425 10.681-13.03 14.433-18.857z" style="fill:#fff;stroke:#fff;fill-rule:evenodd;stroke-linecap:round;stroke-linejoin:round;stroke-width:11.155"/></svg>