<svg xmlns="http://www.w3.org/2000/svg" xmlns:svg="http://www.w3.org/2000/svg" id="svg2" version="1.1" viewBox="0 0 512 512"><metadata id="metadata472"/><path style="fill:#0078ad" id="path151688" d="m 26.00001,0 c -14.397,0 -26,11.603 -26,26 l 0,460 c 0,14.397 11.603,26 26,26 L 486,512 c 14.397,0 26,-11.603 26,-26 L 512,26 C 512,11.603 500.397,0 486,0 L 26.00001,0"/><path style="color:#000;opacity:.25;fill-rule:evenodd" id="path155824" d="m 194.21068,40.99934 c -85.34,0 -154.57031,69.04086 -154.57031,154.38086 l 48.87891,48.87891 c 0.001,0.003 0.003,0.005 0.004,0.008 L 39.63656,195.38039 c 0,42.623 17.304,81.20039 45.25,109.15039 l 139.34766,139.34766 -6.20508,23.26172 c -0.275,1.058 0.0933,2.23776 0.86133,3.00976 l 41.84961,41.84961 225.25972,0 c 14.3971,0 26.0001,-11.603 26,-26 l 0,-258.25976 -73.3789,-73.37891 c -20.854,-20.854 -49.666,-33.74805 -81.49996,-33.74805 l 115.23826,115.23829 0,0.01 -115.24998,-115.25 c -6.03176,0 -11.92498,0.54269 -17.68945,1.48047 L 303.58764,86.2591 c 0.13738,0.13739 0.27133,0.27812 0.4082,0.41602 L 303.57982,86.2591 C 275.59882,58.2781 236.92068,40.99934 194.21068,40.99934 Z"/><path style="color:#000;fill:#fff;fill-rule:evenodd" id="path155908" d="m 194.21001,41 c -85.34,0 -154.57,69.04 -154.57,154.38 0,72.14 49.563,132.7 116.41,149.73 8.07,-23.725 8.225,-23.305 13.365,-35.835 -52.38,-11.411 -91.62,-58.09 -91.62,-113.9 0,-64.33 52.08,-116.41 116.41,-116.41 56.14,0 102.88,39.717 113.9,92.59 12.574,-8.396 27.716,-13.172 43.97,-13.172 43.75699,0 79.21999,35.467 79.21999,79.22 0,35.97 -23.917,66.46 -56.75499,76.12 -10.07,14.246 -19.827,26.933 -27.505,36.803 3.34,0.293 6.656,0.581 10.07,0.581 63.67999,0 115.24999,-51.577 115.24999,-115.25 -0.001,-63.67 -51.577,-115.25 -115.24999,-115.25 -8.946,0 -17.596,1.171 -25.956,3.099 -25.839,-49.23 -77.49,-82.71 -136.95,-82.71 m 38.74,170.84 c -1.01,0.288 -1.843,1.122 -2.131,2.131 l -50.556,135.59 c -0.761,1.883 0.875,4.282 2.906,4.261 l 65.08,0 -30.22,113.31 c -0.354,1.361 0.355,2.923 1.614,3.552 1.258,0.629 2.933,0.26 3.81,-0.84 l 0.581,-0.969 121.26,-156.51 c 0.716,-0.893 0.875,-2.198 0.395,-3.237 -0.48,-1.039 -1.576,-1.764 -2.72,-1.799 l -61.6,0 52.49,-90.85 c 1.086,-1.882 -0.539,-4.668 -2.712,-4.649 l -97.43,0 c -0.129,-0.008 -0.258,-0.008 -0.387,0 -0.129,-0.008 -0.258,-0.008 -0.387,0"/></svg>