<?xml version="1.0" encoding="UTF-8" standalone="no"?>
<!-- Created with Inkscape (http://www.inkscape.org/) -->
<svg id="svg2" xmlns:rdf="http://www.w3.org/1999/02/22-rdf-syntax-ns#" xmlns="http://www.w3.org/2000/svg" height="100%" width="100%" version="1.1" xmlns:cc="http://creativecommons.org/ns#" viewBox="0 0 512 512" xmlns:dc="http://purl.org/dc/elements/1.1/">
 <metadata id="metadata10">
  <rdf:RDF>
   <cc:Work rdf:about="">
    <dc:format>image/svg+xml</dc:format>
    <dc:type rdf:resource="http://purl.org/dc/dcmitype/StillImage"/>
    <dc:title/>
   </cc:Work>
  </rdf:RDF>
 </metadata>
 <defs id="defs8">
  <clipPath id="clipPath3310">
   <path id="path3312" fill="#369" d="m26 0c-14.397 0-26 11.603-26 26v460c0 14.397 11.603 26 26 26h460c14.397 0 26-11.603 26-26v-460c0-14.397-11.6-26-26-26h-460z"/>
  </clipPath>
 </defs>
 <path id="rect2986" fill="#369" d="m26 0c-14.397 0-26 11.603-26 26v460c0 14.397 11.603 26 26 26h460c14.397 0 26-11.603 26-26v-460c0-14.397-11.6-26-26-26h-460z"/>
 <text id="text20" style="word-spacing:0;letter-spacing:0" font-size="129.23px" line-height="125%" y="70.095062" x="-204.41547" font-family="Gentium Book Basic">
  <tspan id="tspan22" y="70.095062" x="-204.41547"/>
 </text>
 <text id="text24" style="text-anchor:middle" transform="scale(4.0128 .24920)" font-size="46.954px" y="-67.869019" x="146.14023" font-family="Arial"/>
 <text id="text26" style="word-spacing:0;letter-spacing:0" font-size="129.23px" line-height="125%" y="-9.9049397" x="376.85455" font-family="Gentium Book Basic">
  <tspan id="tspan28" y="-9.9049397" x="376.85455"/>
 </text>
 <text id="text30" style="text-anchor:middle" transform="scale(4.0128 .24920)" font-size="46.954px" y="-388.90717" x="290.9895" font-family="Arial"/>
 <text id="text32" style="word-spacing:0;letter-spacing:0" font-size="129.23px" line-height="125%" y="-191.16492" x="-694.72546" font-family="Gentium Book Basic">
  <tspan id="tspan34" y="-191.16492" x="-694.72546"/>
 </text>
 <text id="text36" style="text-anchor:middle" transform="scale(4.0128 .24920)" font-size="46.954px" y="-1116.2535" x="23.950869" font-family="Arial"/>
 <text id="text38" style="word-spacing:0;letter-spacing:0" font-size="129.23px" line-height="125%" y="-407.63492" x="403.32452" font-family="Gentium Book Basic">
  <tspan id="tspan40" y="-407.63492" x="403.32452"/>
 </text>
 <text id="text42" style="text-anchor:middle" transform="scale(4.0128 .24920)" font-size="46.954px" y="-1984.9292" x="297.58948" font-family="Arial"/>
 <text id="text44" style="word-spacing:0;letter-spacing:0" font-size="129.23px" line-height="125%" y="-487.63492" x="984.59454" font-family="Gentium Book Basic">
  <tspan id="tspan46" y="-487.63492" x="984.59454"/>
 </text>
 <text id="text48" style="text-anchor:middle" transform="scale(4.0128 .24920)" font-size="46.954px" y="-2305.9575" x="442.43872" font-family="Arial"/>
 <text id="text50" style="word-spacing:0;letter-spacing:0" font-size="129.23px" line-height="125%" y="-960.03491" x="595.47455" font-family="Gentium Book Basic">
  <tspan id="tspan52" y="-960.03491" x="595.47455"/>
 </text>
 <text id="text54" style="text-anchor:middle" transform="scale(4.0128 .24920)" font-size="46.954px" y="-4201.6079" x="345.46918" font-family="Arial"/>
 <text id="text56" style="word-spacing:0;letter-spacing:0" font-size="129.23px" line-height="125%" y="-1040.0449" x="1176.7346" font-family="Gentium Book Basic">
  <tspan id="tspan58" y="-1040.0449" x="1176.7346"/>
 </text>
 <text id="text60" style="text-anchor:middle" transform="scale(4.0128 .24920)" font-size="46.954px" y="-4522.646" x="490.31848" font-family="Arial"/>
 <text id="text62" style="word-spacing:0;letter-spacing:0" font-size="208.33px" line-height="125%" y="374.67514" x="-656.06549" font-family="Gentium Book Basic">
  <tspan id="tspan64" y="374.67514" x="-656.06549"/>
 </text>
 <g id="g3201" opacity=".25" clip-path="url(#clipPath3310)">
  <path id="path3203" d="m256.14 41c-101.22 0-183.23 256.49-183.23 370.15l388.91 388.91c0-113.67 82.013-370.15 183.23-370.15z"/>
  <path id="path3205" d="m72.908 411.15c0 6.3207 0.27861 12.781 0.74873 18.98l388.91 388.91c-0.47012-6.1988-0.74873-12.659-0.74873-18.98z"/>
  <path id="path3207" d="m73.657 430.13c20.547-12.102 43.932-19.119 68.762-19.119l388.91 388.91c-24.83 0-48.215 7.0172-68.762 19.119z"/>
  <path id="path3209" d="m142.42 411.01c37.702 0 72.076 15.923 98.185 42.032l388.91 388.91c-26.11-26.1-60.48-42.03-98.18-42.03z"/>
  <path id="path3211" d="m240.6 453.05c5.5437 5.5437 10.715 11.547 15.466 17.954l388.91 388.91c-4.7513-6.4073-9.9225-12.41-15.466-17.954z"/>
  <path id="path3213" d="m256.07 471c27.146-36.653 67.943-59.986 113.65-59.986l388.91 388.91c-45.708 0-86.505 23.333-113.65 59.986z"/>
  <path id="path3215" d="m369.72 411.01c24.83 0 48.163 6.9302 68.622 19.049l388.91 388.91c-20.46-12.12-43.79-19.05-68.62-19.05z"/>
  <path id="path3217" d="m438.34 430.06c0.47014-6.1814 0.74873-12.52 0.74873-18.84l388.91 388.91c0 6.3207-0.27859 12.659-0.74873 18.84z"/>
  <path id="path3219" d="m439.09 411.22c0-89.834-51.082-268.57-122.36-339.85l388.91 388.91c71.278 71.278 122.36 250.01 122.36 339.85z"/>
  <path id="path3221" d="m316.73 71.375c-19.01-19.009-39.45-30.375-60.75-30.375l388.91 388.91c21.295 0 41.74 11.366 60.748 30.375z"/>
 </g>
 <path id="path3060" d="m256.14 41c-101.22 0-183.23 256.49-183.23 370.15 0 6.3207 0.27861 12.781 0.74873 18.98 20.547-12.102 43.932-19.119 68.762-19.119 45.708 0 86.522 23.402 113.65 59.986 27.146-36.653 67.943-59.986 113.65-59.986 24.83 0 48.163 6.9302 68.622 19.049 0.47014-6.1814 0.74873-12.52 0.74873-18.84 0-113.79-81.96-370.22-183.11-370.22m0.13922 0" fill="#fff"/>
</svg>
