<svg xmlns="http://www.w3.org/2000/svg" xmlns:svg="http://www.w3.org/2000/svg" id="svg2" version="1.1" viewBox="0 0 512 512"><metadata id="metadata472"/><path style="fill:#d22828" id="path174407" d="m 26,-1e-4 c -14.397,0 -26,11.603 -26,26 l 0,460 c 0,14.397 11.603,26 26,26 l 460,0 c 14.397,0 26,-11.603 26,-26 l 0,-460 c 0,-14.397 -11.603,-26 -26,-26 l -460,0"/><path style="color:#000;opacity:.25;fill-rule:evenodd" id="path178657" d="m 92.20031,41.00009 c -28.357,0 -51.20117,22.84322 -51.20117,51.19922 l 0,327.59961 c 0,14.178 5.71275,26.97847 14.96875,36.23047 l 55.9707,55.97071 374.06055,0 c 14.397,0 26,-11.603 26,-26 l 0,-374.0625 -55.9668,-55.9668 -0.002,-0.004 C 446.77434,46.7108 433.96987,41 419.79987,41 L 92.20026,41 Z"/><path style="color:#000;fill:#fff;fill-rule:evenodd" id="path178725" d="m 92.2,40.9999 c -28.357,0 -51.2,22.844 -51.2,51.2 l 0,327.6 c 0,28.357 22.844,51.2 51.2,51.2 l 327.6,0 c 28.357,0 51.2,-22.844 51.2,-51.2 l 0,-327.6 c 0,-28.357 -22.844,-51.2 -51.2,-51.2 l -327.6,0 m 57.38,52.944 c 30.745,0 55.692,24.893 55.692,55.639 0,30.745 -24.945,55.692 -55.692,55.692 -30.745,0 -55.639,-24.945 -55.639,-55.692 0,-30.745 24.893,-55.639 55.639,-55.639 m 212.83,0 c 30.745,0 55.639,24.893 55.639,55.639 0,30.745 -24.893,55.692 -55.639,55.692 -30.745,0 -55.692,-24.945 -55.692,-55.692 0,-30.745 24.945,-55.639 55.692,-55.639 m -212.83,212.78 c 30.745,0 55.692,24.945 55.692,55.692 0,30.745 -24.945,55.639 -55.692,55.639 -30.745,0 -55.639,-24.893 -55.639,-55.639 0,-30.745 24.893,-55.692 55.639,-55.692 m 212.83,0 c 30.745,0 55.639,24.945 55.639,55.692 0,30.745 -24.893,55.639 -55.639,55.639 -30.745,0 -55.692,-24.893 -55.692,-55.639 0,-30.745 24.945,-55.692 55.692,-55.692"/></svg>