<svg xmlns="http://www.w3.org/2000/svg" xmlns:svg="http://www.w3.org/2000/svg" id="svg2" version="1.1" viewBox="0 0 512 512"><metadata id="metadata1044"/><path style="fill:#8a704d" id="path4" d="M 26,0 C 11.603,0 0,11.603 0,26 l 0,460 c 0,14.397 11.603,26 26,26 l 460,0 c 14.397,0 26,-11.603 26,-26 L 512,26 C 512,11.603 500.4,0 486,0 L 26,0"/><path style="opacity:.25" id="path1036" d="m 61.41,94.75 322.5,322.5 -11.38,0 L 256,300.72 l -52.11,-45.59 162.12,162.12 -0.01,0 -162.12,-162.12 -1.19,1.33 -19.03,-19.03 -8.42,9.42 L 41,112.61 l 0,284.5 19.02,19.01 -1.01,1.13 94.75,94.75 332.24,0 c 14.4,0 26,-11.6 26,-26 l 0,-332.4 -41,-41 0,2.56 -20.41,-20.41 -389.18,0"/><path style="fill:#fff" id="path1038" d="m 308.1,255.13 144.87,162.12 -393.95,0 L 203.89,255.13 256,300.72 M 450.59,94.75 61.41,94.75 256,265.03 m 72.33,-27.583 142.67,159.65 0,-284.5 m -430,0 0,284.5 142.66,-159.67"/></svg>