<svg xmlns="http://www.w3.org/2000/svg" xmlns:svg="http://www.w3.org/2000/svg" id="svg2" version="1.1" viewBox="0 0 512 512"><metadata id="metadata472"/><path style="fill:#0078ad" id="path306171" d="m 25.999423,-4.4e-4 c -14.397,0 -26,11.603 -26,26 l 0,460 c 0,14.397 11.603,26 26,26 l 460.000007,0 c 14.397,0 26,-11.603 26,-26 l 0,-460 c 0,-14.397 -11.603,-26 -26,-26 l -460.000007,0"/><path id="path306535" d="m 384.8402,41.00029 -68.7793,68.81054 -0.002,0.002 11.31836,11.31836 73.5625,73.5879 111.06054,111.06054 0,-137.6289 L 384.84996,41.00029 405.05699,61.21708 384.8402,41.00029 Z m -110.28125,65.68945 -223.189467,223.2207 0.006,0.006 c -12.12906,12.13441 -12.12845,31.82079 0.004,43.99414 l 138.089847,138.08985 296.53125,0 c 14.397,0 26,-11.603 26,-26 l 0,-141.86914 -237.4414,-237.44141 z" style="opacity:.25"/><path style="fill:#fff" id="path306571" d="m 384.83943,40.99956 -68.781,68.813 84.88,84.91 68.781,-68.813 -84.87,-84.91 m 4.531,36.38 17.281,17.281 -14.188,14.09 -17.219,-17.25 14.13,-14.12 m 26.313,26.313 17.281,17.313 -14.156,14.09 -17.281,-17.25 14.156,-14.156 m -141.12,3 -223.190007,223.22 c -12.134,12.134 -12.134,31.825 0,44 l 88.030007,88 c 12.161,12.161 31.875,12.11 43.969,0 l 223.19,-223.19 -132,-132.03"/></svg>