<?xml version="1.0" encoding="UTF-8" standalone="no"?>
<svg
   xmlns:dc="http://purl.org/dc/elements/1.1/"
   xmlns:cc="http://creativecommons.org/ns#"
   xmlns:rdf="http://www.w3.org/1999/02/22-rdf-syntax-ns#"
   xmlns:svg="http://www.w3.org/2000/svg"
   xmlns="http://www.w3.org/2000/svg"
   xmlns:sodipodi="http://sodipodi.sourceforge.net/DTD/sodipodi-0.dtd"
   xmlns:inkscape="http://www.inkscape.org/namespaces/inkscape"
   viewBox="0 0 512 512"
   id="svg2"
   version="1.1"
   inkscape:version="0.91+devel r13804 custom"
   sodipodi:docname="vim.svg">
  <metadata
     id="metadata472">
    <rdf:RDF>
      <cc:Work
         rdf:about="">
        <dc:format>image/svg+xml</dc:format>
        <dc:type
           rdf:resource="http://purl.org/dc/dcmitype/StillImage" />
        <dc:title></dc:title>
      </cc:Work>
    </rdf:RDF>
  </metadata>
  <sodipodi:namedview
     pagecolor="#ffffff"
     bordercolor="#666666"
     borderopacity="1"
     objecttolerance="10"
     gridtolerance="10"
     guidetolerance="10"
     inkscape:pageopacity="0"
     inkscape:pageshadow="2"
     inkscape:window-width="1366"
     inkscape:window-height="709"
     id="namedview470"
     showgrid="false"
     inkscape:zoom="0.4609375"
     inkscape:cx="683.38983"
     inkscape:cy="174.88241"
     inkscape:window-x="-2"
     inkscape:window-y="-3"
     inkscape:window-maximized="1"
     inkscape:current-layer="svg2" />
  <defs
     id="defs4" />
  <path
     style="fill:none;stroke:#ffffff;stroke-width:21.64500046;stroke-linecap:round;stroke-linejoin:round"
     d="m 291.41,155.27 c 34.72,2.704 58.758,18.671 61.31,61.31"
     id="1"
     inkscape:connector-curvature="0" />
  <path
     inkscape:connector-curvature="0"
     d="M 26,0 C 11.603,0 0,11.603 0,26 l 0,460 c 0,14.397 11.603,26 26,26 l 460,0 c 14.397,0 26,-11.603 26,-26 L 512,26 C 512,11.603 500.397,0 486,0 L 26,0"
     style="fill:#8db173"
     id="path328546" />
  <text
     sodipodi:linespacing="125%"
     y="-212.64"
     x="93.639999"
     line-height="125%"
     style="font-size:129.22999573px;line-height:125%;font-family:'Gentium Book Basic';letter-spacing:0;word-spacing:0"
     id="text328548">
    <tspan
       y="-212.64"
       x="93.639999"
       id="tspan328550" />
  </text>
  <text
     transform="scale(4.0128205,0.24920128)"
     y="-1202.424"
     x="220.41887"
     style="font-size:46.95399857px;font-family:Arial;text-anchor:middle"
     id="text328552" />
  <text
     sodipodi:linespacing="125%"
     y="-292.64001"
     x="674.90997"
     line-height="125%"
     style="font-size:129.22999573px;line-height:125%;font-family:'Gentium Book Basic';letter-spacing:0;word-spacing:0"
     id="text328554">
    <tspan
       y="-292.64001"
       x="674.90997"
       id="tspan328556" />
  </text>
  <text
     transform="scale(4.0128205,0.24920128)"
     y="-1523.4622"
     x="365.26813"
     style="font-size:46.95399857px;font-family:Arial;text-anchor:middle"
     id="text328558" />
  <text
     sodipodi:linespacing="125%"
     y="-473.89999"
     x="-396.67001"
     line-height="125%"
     style="font-size:129.22999573px;line-height:125%;font-family:'Gentium Book Basic';letter-spacing:0;word-spacing:0"
     id="text328560">
    <tspan
       y="-473.89999"
       x="-396.67001"
       id="tspan328562" />
  </text>
  <text
     transform="scale(4.0128205,0.24920128)"
     y="-2250.8086"
     x="98.2295"
     style="font-size:46.95399857px;font-family:Arial;text-anchor:middle"
     id="text328564" />
  <text
     sodipodi:linespacing="125%"
     y="-690.37"
     x="701.38"
     line-height="125%"
     style="font-size:129.22999573px;line-height:125%;font-family:'Gentium Book Basic';letter-spacing:0;word-spacing:0"
     id="text328566">
    <tspan
       y="-690.37"
       x="701.38"
       id="tspan328568" />
  </text>
  <text
     transform="scale(4.0128205,0.24920128)"
     y="-3119.4741"
     x="371.8681"
     style="font-size:46.95399857px;font-family:Arial;text-anchor:middle"
     id="text328570" />
  <text
     sodipodi:linespacing="125%"
     y="-770.37"
     x="1282.65"
     line-height="125%"
     style="font-size:129.22999573px;line-height:125%;font-family:'Gentium Book Basic';letter-spacing:0;word-spacing:0"
     id="text328572">
    <tspan
       y="-770.37"
       x="1282.65"
       id="tspan328574" />
  </text>
  <text
     transform="scale(4.0128205,0.24920128)"
     y="-3440.5024"
     x="516.7074"
     style="font-size:46.95399857px;font-family:Arial;text-anchor:middle"
     id="text328576" />
  <text
     sodipodi:linespacing="125%"
     y="-1242.77"
     x="893.53003"
     line-height="125%"
     style="font-size:129.22999573px;line-height:125%;font-family:'Gentium Book Basic';letter-spacing:0;word-spacing:0"
     id="text328578">
    <tspan
       y="-1242.77"
       x="893.53003"
       id="tspan328580" />
  </text>
  <text
     transform="scale(4.0128205,0.24920128)"
     y="-5336.1426"
     x="419.74786"
     style="font-size:46.95399857px;font-family:Arial;text-anchor:middle"
     id="text328582" />
  <text
     sodipodi:linespacing="125%"
     y="-1322.78"
     x="1474.79"
     line-height="125%"
     style="font-size:129.22999573px;line-height:125%;font-family:'Gentium Book Basic';letter-spacing:0;word-spacing:0"
     id="text328584">
    <tspan
       y="-1322.78"
       x="1474.79"
       id="tspan328586" />
  </text>
  <text
     transform="scale(4.0128205,0.24920128)"
     y="-5657.1812"
     x="564.58716"
     style="font-size:46.95399857px;font-family:Arial;text-anchor:middle"
     id="text328588" />
  <text
     sodipodi:linespacing="125%"
     y="91.940002"
     x="-358.01001"
     line-height="125%"
     style="font-size:208.33000183px;line-height:125%;font-family:'Gentium Book Basic';letter-spacing:0;word-spacing:0"
     id="text328590">
    <tspan
       y="91.940002"
       x="-358.01001"
       id="tspan328592" />
  </text>
  <path
     d="M 46.25 75.439453 L 41 82.128906 L 41 82.130859 L 41 100.59961 L 71 130.59961 L 71 429.68945 L 74.65625 435.62891 L 151.02734 512 L 486 512 C 500.397 512 512 500.397 512 486 L 512 119.43945 L 471 78.439453 C 467.416 75.696453 470.92675 78.645453 467.34375 75.564453 L 467.33984 75.560547 L 315.15039 75.560547 L 315.15625 75.566406 L 310.44141 81.123047 L 333.31836 104 L 333.30859 104 L 310.43945 81.130859 L 310.00195 99.880859 L 310.01172 99.890625 L 337.4043 127.28516 L 290.85547 170.23047 L 196.06641 75.441406 L 196.10938 75.488281 L 196.06055 75.439453 L 46.25 75.439453 z "
     id="path328596"
     style="opacity:0.25" />
  <path
     inkscape:connector-curvature="0"
     d="m 46.25,75.44 -5.25,6.688 0,18.469 6.375,5.156 23.625,0 0,323.94 3.656,5.938 33.5,0.938 362.84,-340.37 0,-17.75 c -3.584,-2.743 -0.073,0.206 -3.656,-2.875 l -152.19,0 -4.719,5.563 -0.438,18.75 5.03,4.125 25.25,0 0,20.625 -171.56,158.28 0,-178.47 27.813,0 6.344,-4.813 0,-16.75 -6.813,-7.438 -149.81,0 m 217.03,219.69 -3.938,19.531 26.03,0 3.906,-19.531 -26,0 m 102.72,40.813 c -6.117,0 -11.771,1.259 -16.938,3.813 -5.167,2.494 -9.74,6.086 -13.719,10.719 l 1.438,-12.75 -38.06,0 -3.094,15.688 13.344,2.656 -11.938,59.781 -13.09,2.688 -3.125,15.563 49.719,0 3.125,-15.563 -10.688,-2.688 10.406,-52.03 c 2.197,-2.435 4.746,-4.287 7.656,-5.594 2.91,-1.366 6.121,-2.062 9.625,-2.063 4.751,0 8.03,1.499 9.813,4.469 1.782,2.91 1.957,7.904 0.531,15.03 l -8.03,40.19 -11.03,2.688 -3.125,15.563 46.969,0 3.094,-15.563 -9.969,-2.688 9,-45.06 c 0.178,-0.831 0.284,-1.634 0.344,-2.406 0.119,-0.831 0.294,-1.84 0.531,-2.969 2.197,-2.91 4.815,-5.146 7.844,-6.75 3.03,-1.663 6.38,-2.5 10.06,-2.5 4.692,0 7.937,1.431 9.719,4.281 1.841,2.851 2.02,7.914 0.531,15.219 l -8,40.19 -11.781,2.688 -3.094,15.563 49.781,0 3.125,-15.563 -12.03,-2.688 8.03,-40.09 c 2.672,-13.422 1.904,-23.404 -2.313,-29.938 -4.157,-6.592 -10.998,-9.875 -20.5,-9.875 -6.414,0 -12.311,1.465 -17.656,4.375 -5.286,2.91 -9.93,6.927 -13.969,12.09 -1.129,-5.523 -3.64,-9.643 -7.5,-12.375 -3.86,-2.732 -8.855,-4.094 -15.03,-4.094 m -125.19,1.781 -3.094,15.688 13.344,2.656 -11.938,59.781 -13.09,2.688 -3.125,15.563 51.06,0 3.125,-15.563 -11.938,-2.688 15.594,-78.12 -39.938,0"
     style="fill:#ffffff"
     id="path328764" />
</svg>
