<?xml version="1.0" encoding="UTF-8" standalone="no"?>
<!-- Created with Inkscape (http://www.inkscape.org/) -->
<svg id="svg2" xmlns:rdf="http://www.w3.org/1999/02/22-rdf-syntax-ns#" xmlns="http://www.w3.org/2000/svg" height="100%" width="100%" version="1.1" xmlns:cc="http://creativecommons.org/ns#" viewBox="0 0 512 512" xmlns:dc="http://purl.org/dc/elements/1.1/">
 <metadata id="metadata1353">
  <rdf:RDF>
   <cc:Work rdf:about="">
    <dc:format>image/svg+xml</dc:format>
    <dc:type rdf:resource="http://purl.org/dc/dcmitype/StillImage"/>
   </cc:Work>
  </rdf:RDF>
 </metadata>
 <path id="path1155" d="m26 0c-14.397 0-26 11.603-26 26v460c0 14.397 11.603 26 26 26h460c14.397 0 26-11.603 26-26v-460c0-14.397-11.6-26-26-26h-460" fill="#19528d"/>
 <path id="path1157" opacity=".25" d="m251.28 40.969c-99.85 0.505-191.6 80.947-204.41 180.22-6.271 26.738 1.387 86.09 5.625 72.69 2.827 10.618 4.353 1.401 7.156 12.03 0.486-10.281 2.804 8.592 3.313-1.5 3.02 12.516 7.09-4.054 7.906 28.06 3.721 43.35 33.33 76.66 63.875 104.41 24.959 25.03 49.901 50.07 74.844 75.13h276.41c14.397 0 26-11.603 26-26v-276.72c-39.07-39.06-78.22-78.01-117.62-116.72-37.938-33.1-87.986-51.773-138.34-51.563-1.589-0.033-3.165-0.039-4.75-0.031"/>
 <text id="text1159" style="word-spacing:0;letter-spacing:0" font-size="129.23px" line-height="125%" y="327.82001" x="1685.55" font-family="Gentium Book Basic">
  <tspan id="tspan1161" y="327.82001" x="1685.55"/>
 </text>
 <text id="text1163" style="text-anchor:middle" transform="scale(4.0128 .2492)" font-size="46.954px" y="966.32001" x="617.12" font-family="Arial"/>
 <text id="text1165" style="word-spacing:0;letter-spacing:0" font-size="129.23px" line-height="125%" y="247.82001" x="2266.8201" font-family="Gentium Book Basic">
  <tspan id="tspan1167" y="247.82001" x="2266.8201"/>
 </text>
 <text id="text1169" style="text-anchor:middle" transform="scale(4.0128 .2492)" font-size="46.954px" y="645.28998" x="761.96997" font-family="Arial"/>
 <text id="text1171" style="word-spacing:0;letter-spacing:0" font-size="129.23px" line-height="125%" y="66.559998" x="1195.24" font-family="Gentium Book Basic">
  <tspan id="tspan1173" y="66.559998" x="1195.24"/>
 </text>
 <text id="text1175" style="text-anchor:middle" transform="scale(4.0128 .2492)" font-size="46.954px" y="-82.059998" x="494.92999" font-family="Arial"/>
 <text id="text1177" style="word-spacing:0;letter-spacing:0" font-size="129.23px" line-height="125%" y="-149.91" x="2293.29" font-family="Gentium Book Basic">
  <tspan id="tspan1179" y="-149.91" x="2293.29"/>
 </text>
 <text id="text1181" style="text-anchor:middle" transform="scale(4.0128 .2492)" font-size="46.954px" y="-950.73999" x="768.57001" font-family="Arial"/>
 <text id="text1183" style="word-spacing:0;letter-spacing:0" font-size="129.23px" line-height="125%" y="-229.91" x="2874.5601" font-family="Gentium Book Basic">
  <tspan id="tspan1185" y="-229.91" x="2874.5601"/>
 </text>
 <text id="text1187" style="text-anchor:middle" transform="scale(4.0128 .2492)" font-size="46.954px" y="-1271.76" x="913.41998" font-family="Arial"/>
 <text id="text1189" style="word-spacing:0;letter-spacing:0" font-size="129.23px" line-height="125%" y="-702.31" x="2485.4399" font-family="Gentium Book Basic">
  <tspan id="tspan1191" y="-702.31" x="2485.4399"/>
 </text>
 <text id="text1193" style="text-anchor:middle" transform="scale(4.0128 .2492)" font-size="46.954px" y="-3167.4099" x="816.45001" font-family="Arial"/>
 <text id="text1195" style="word-spacing:0;letter-spacing:0" font-size="129.23px" line-height="125%" y="-782.32001" x="3066.7" font-family="Gentium Book Basic">
  <tspan id="tspan1197" y="-782.32001" x="3066.7"/>
 </text>
 <text id="text1199" style="text-anchor:middle" transform="scale(4.0128 .2492)" font-size="46.954px" y="-3488.45" x="961.29999" font-family="Arial"/>
 <g id="g1201" style="word-spacing:0;letter-spacing:0" font-family="Gentium Book Basic" line-height="125%">
  <text id="text1203" y="632.40002" x="1233.9" font-size="208.33px">
   <tspan id="tspan1205" y="632.40002" x="1233.9"/>
  </text>
  <text id="text1207" y="248.05" x="1556.6899" font-size="129.23px">
   <tspan id="tspan1209" y="248.05" x="1556.6899"/>
  </text>
 </g>
 <text id="text1211" style="text-anchor:middle" transform="scale(4.0128 .2492)" font-size="46.954px" y="646.21997" x="585.01001" font-family="Arial"/>
 <text id="text1213" style="word-spacing:0;letter-spacing:0" font-size="129.23px" line-height="125%" y="168.05" x="2137.96" font-family="Gentium Book Basic">
  <tspan id="tspan1215" y="168.05" x="2137.96"/>
 </text>
 <text id="text1217" style="text-anchor:middle" transform="scale(4.0128 .2492)" font-size="46.954px" y="325.17999" x="729.85999" font-family="Arial"/>
 <text id="text1219" style="word-spacing:0;letter-spacing:0" font-size="129.23px" line-height="125%" y="-13.214" x="1066.38" font-family="Gentium Book Basic">
  <tspan id="tspan1221" y="-13.214" x="1066.38"/>
 </text>
 <text id="text1223" style="text-anchor:middle" transform="scale(4.0128 .2492)" font-size="46.954px" y="-402.17001" x="462.82001" font-family="Arial"/>
 <text id="text1225" style="word-spacing:0;letter-spacing:0" font-size="129.23px" line-height="125%" y="-229.67999" x="2164.4299" font-family="Gentium Book Basic">
  <tspan id="tspan1227" y="-229.67999" x="2164.4299"/>
 </text>
 <text id="text1229" style="text-anchor:middle" transform="scale(4.0128 .2492)" font-size="46.954px" y="-1270.84" x="736.46002" font-family="Arial"/>
 <text id="text1231" style="word-spacing:0;letter-spacing:0" font-size="129.23px" line-height="125%" y="-309.67999" x="2745.7" font-family="Gentium Book Basic">
  <tspan id="tspan1233" y="-309.67999" x="2745.7"/>
 </text>
 <text id="text1235" style="text-anchor:middle" transform="scale(4.0128 .2492)" font-size="46.954px" y="-1591.87" x="881.31" font-family="Arial"/>
 <text id="text1237" style="word-spacing:0;letter-spacing:0" font-size="129.23px" line-height="125%" y="-782.08002" x="2356.5801" font-family="Gentium Book Basic">
  <tspan id="tspan1239" y="-782.08002" x="2356.5801"/>
 </text>
 <text id="text1241" style="text-anchor:middle" transform="scale(4.0128 .2492)" font-size="46.954px" y="-3487.52" x="784.34003" font-family="Arial"/>
 <text id="text1243" style="word-spacing:0;letter-spacing:0" font-size="129.23px" line-height="125%" y="-862.09003" x="2937.8401" font-family="Gentium Book Basic">
  <tspan id="tspan1245" y="-862.09003" x="2937.8401"/>
 </text>
 <text id="text1247" style="text-anchor:middle" transform="scale(4.0128 .2492)" font-size="46.954px" y="-3808.5601" x="929.19" font-family="Arial"/>
 <g id="g1249" style="word-spacing:0;letter-spacing:0" font-family="Gentium Book Basic" line-height="125%">
  <text id="text1251" y="552.63" x="1105.04" font-size="208.33px">
   <tspan id="tspan1253" y="552.63" x="1105.04"/>
  </text>
  <text id="text1255" y="146.8" x="1522.9399" font-size="129.23px">
   <tspan id="tspan1257" y="146.8" x="1522.9399"/>
  </text>
 </g>
 <text id="text1259" style="text-anchor:middle" transform="scale(4.0128 .2492)" font-size="46.954px" y="239.92999" x="576.59998" font-family="Arial"/>
 <text id="text1261" style="word-spacing:0;letter-spacing:0" font-size="129.23px" line-height="125%" y="66.797997" x="2104.21" font-family="Gentium Book Basic">
  <tspan id="tspan1263" y="66.797997" x="2104.21"/>
 </text>
 <text id="text1265" style="text-anchor:middle" transform="scale(4.0128 .2492)" font-size="46.954px" y="-81.110001" x="721.45001" font-family="Arial"/>
 <text id="text1267" style="word-spacing:0;letter-spacing:0" font-size="129.23px" line-height="125%" y="-114.46" x="1032.63" font-family="Gentium Book Basic">
  <tspan id="tspan1269" y="-114.46" x="1032.63"/>
 </text>
 <text id="text1271" style="text-anchor:middle" transform="scale(4.0128 .2492)" font-size="46.954px" y="-808.46002" x="454.41" font-family="Arial"/>
 <text id="text1273" style="word-spacing:0;letter-spacing:0" font-size="129.23px" line-height="125%" y="-330.92999" x="2130.6799" font-family="Gentium Book Basic">
  <tspan id="tspan1275" y="-330.92999" x="2130.6799"/>
 </text>
 <text id="text1277" style="text-anchor:middle" transform="scale(4.0128 .2492)" font-size="46.954px" y="-1677.13" x="728.04999" font-family="Arial"/>
 <text id="text1279" style="word-spacing:0;letter-spacing:0" font-size="129.23px" line-height="125%" y="-410.92999" x="2711.95" font-family="Gentium Book Basic">
  <tspan id="tspan1281" y="-410.92999" x="2711.95"/>
 </text>
 <text id="text1283" style="text-anchor:middle" transform="scale(4.0128 .2492)" font-size="46.954px" y="-1998.16" x="872.90002" font-family="Arial"/>
 <text id="text1285" style="word-spacing:0;letter-spacing:0" font-size="129.23px" line-height="125%" y="-883.33002" x="2322.8301" font-family="Gentium Book Basic">
  <tspan id="tspan1287" y="-883.33002" x="2322.8301"/>
 </text>
 <text id="text1289" style="text-anchor:middle" transform="scale(4.0128 .2492)" font-size="46.954px" y="-3893.8101" x="775.92999" font-family="Arial"/>
 <text id="text1291" style="word-spacing:0;letter-spacing:0" font-size="129.23px" line-height="125%" y="-963.34003" x="2904.0901" font-family="Gentium Book Basic">
  <tspan id="tspan1293" y="-963.34003" x="2904.0901"/>
 </text>
 <text id="text1295" style="text-anchor:middle" transform="scale(4.0128 .2492)" font-size="46.954px" y="-4214.8501" x="920.78003" font-family="Arial"/>
 <g id="g1297" style="word-spacing:0;letter-spacing:0" font-family="Gentium Book Basic" line-height="125%">
  <text id="text1299" y="451.38" x="1071.29" font-size="208.33px">
   <tspan id="tspan1301" y="451.38" x="1071.29"/>
  </text>
  <text id="text1303" y="82.370003" x="1556.6899" font-size="129.23px">
   <tspan id="tspan1305" y="82.370003" x="1556.6899"/>
  </text>
 </g>
 <text id="text1307" style="text-anchor:middle" transform="scale(4.0128 .2492)" font-size="46.954px" y="-18.622" x="585.01001" font-family="Arial"/>
 <text id="text1309" style="word-spacing:0;letter-spacing:0" font-size="129.23px" line-height="125%" y="2.368" x="2137.96" font-family="Gentium Book Basic">
  <tspan id="tspan1311" y="2.368" x="2137.96"/>
 </text>
 <text id="text1313" style="text-anchor:middle" transform="scale(4.0128 .2492)" font-size="46.954px" y="-339.66" x="729.85999" font-family="Arial"/>
 <text id="text1315" style="word-spacing:0;letter-spacing:0" font-size="129.23px" line-height="125%" y="-178.89" x="1066.38" font-family="Gentium Book Basic">
  <tspan id="tspan1317" y="-178.89" x="1066.38"/>
 </text>
 <text id="text1319" style="text-anchor:middle" transform="scale(4.0128 .2492)" font-size="46.954px" y="-1067.01" x="462.82001" font-family="Arial"/>
 <text id="text1321" style="word-spacing:0;letter-spacing:0" font-size="129.23px" line-height="125%" y="-395.35999" x="2164.4299" font-family="Gentium Book Basic">
  <tspan id="tspan1323" y="-395.35999" x="2164.4299"/>
 </text>
 <text id="text1325" style="text-anchor:middle" transform="scale(4.0128 .2492)" font-size="46.954px" y="-1935.6801" x="736.46002" font-family="Arial"/>
 <text id="text1327" style="word-spacing:0;letter-spacing:0" font-size="129.23px" line-height="125%" y="-475.35999" x="2745.7" font-family="Gentium Book Basic">
  <tspan id="tspan1329" y="-475.35999" x="2745.7"/>
 </text>
 <text id="text1331" style="text-anchor:middle" transform="scale(4.0128 .2492)" font-size="46.954px" y="-2256.71" x="881.31" font-family="Arial"/>
 <text id="text1333" style="word-spacing:0;letter-spacing:0" font-size="129.23px" line-height="125%" y="-947.76001" x="2356.5801" font-family="Gentium Book Basic">
  <tspan id="tspan1335" y="-947.76001" x="2356.5801"/>
 </text>
 <text id="text1337" style="text-anchor:middle" transform="scale(4.0128 .2492)" font-size="46.954px" y="-4152.3599" x="784.34003" font-family="Arial"/>
 <text id="text1339" style="word-spacing:0;letter-spacing:0" font-size="129.23px" line-height="125%" y="-1027.77" x="2937.8401" font-family="Gentium Book Basic">
  <tspan id="tspan1341" y="-1027.77" x="2937.8401"/>
 </text>
 <text id="text1343" style="text-anchor:middle" transform="scale(4.0128 .2492)" font-size="46.954px" y="-4473.3999" x="929.19" font-family="Arial"/>
 <text id="text1345" style="word-spacing:0;letter-spacing:0" font-size="208.33px" line-height="125%" y="386.95001" x="1105.04" font-family="Gentium Book Basic">
  <tspan id="tspan1347" y="386.95001" x="1105.04"/>
 </text>
 <path id="path1349" d="m256.04 41a211.44 211.44 0 0 0 -211.48 211.39 211.44 211.44 0 0 0 4.6484 43.052 156.1 156.1 0 0 1 155.7 -148.01 156.1 156.1 0 0 1 156.13 156.05 156.1 156.1 0 0 1 -23.894 82.542c24.83 2.353 56.639 1.827 86.93-5.604a211.44 211.44 0 0 0 43.36 -128.03 211.44 211.44 0 0 0 -211.4 -211.39m-37.23 138.63c-2.01-0.022-4.02 0.003-5.995 0.043-47.37 0.969-84.56 19.901-113.73 55.04-18.837 24.518-29.06 53.589-29.11 82.72 0.001 40.2 19.815 80.18 53.87 108.61 34.05 28.427 81.909 44.964 130.07 44.964 29.378-0.014 58.739-6.01 84.8-17.334 26.06-11.32 48.81-27.931 65.69-48-29.429 3.487-60.06-0.726-86.71-11.947-26.657-11.219-49.23-29.414-63.948-51.48-18.967-23.22-28.546-51.918-26.761-80.2 1.785-28.28 14.931-55.95 36.71-77.29-15.87-3.273-30.814-4.971-44.877-5.126" fill="#fff"/>
</svg>
