<svg xmlns="http://www.w3.org/2000/svg" viewBox="0 0 512 512"><path d="m26 0c-14.397 0-26 11.603-26 26v460c0 14.397 11.603 26 26 26h460c14.397 0 26-11.603 26-26v-460c0-14.397-11.603-26-26-26h-460" style="fill:#0078ad"/><g style="fill:#fff"><path d="m26 0c-1.581 0-3.123.169-4.625.438v19.844h-20.75c-.411 1.841-.625 3.751-.625 5.719h21.375v45.781h-21.375v5.719h21.406v45.781h-21.406v5.719h21.406v45.781h-21.406v5.719h21.406v45.781h-21.406v5.719h21.406v45.781h-21.406v5.719h21.375v45.781h-21.375v5.719h21.375v45.781h-21.375v5.719h21.375v45.781h-21.375v5.719h21.375v45.781h-21.375v2.219c0 1.189.097 2.354.25 3.5h21.13v22.06c1.502.268 3.044.438 4.625.438h1.094v-22.5h45.781v22.5h5.719v-22.5h45.781v22.5h5.719v-22.5h45.781v22.5h5.719v-22.5h45.781v22.5h5.719v-22.5h45.781v22.5h5.719v-22.5h45.781v22.5h5.719v-22.5h45.781v22.5h5.719v-22.5h45.781v22.5h5.75v-22.5h45.781v22.5h1.094c1.581 0 3.123-.169 4.625-.438v-22.06h21.13c.153-1.146.25-2.311.25-3.5v-2.219h-21.375v-45.781h21.375v-5.719h-21.406v-45.781h21.406v-5.719h-21.406v-45.781h21.406v-5.719h-21.406v-45.781h21.406v-5.719h-21.375v-45.781h21.375v-5.719h-21.375v-45.781h21.375v-5.719h-21.375v-45.781h21.375v-5.719h-21.375v-45.781h21.375v-5.719h-21.375v-45.781h21.375c0-1.967-.214-3.878-.625-5.719h-20.75v-19.844c-1.502-.268-3.044-.438-4.625-.438h-1.094v20.281h-45.781v-20.281h-5.719v20.281h-45.781v-20.281h-5.719v20.281h-45.781v-20.281h-5.719v20.281h-45.781v-20.281h-5.719v20.281h-45.781v-20.281h-5.719v20.281h-45.781v-20.281h-5.719v20.281h-45.781v-20.281h-5.719v20.281h-45.781v-20.281h-5.75v20.281h-45.781v-20.281h-1.094m1.125 26h45.781v45.781h-45.781v-45.781m51.5 0h45.781v45.781h-45.781v-45.781m51.5 0h45.781v45.781h-45.781v-45.781m51.5 0h45.781v45.781h-45.781v-45.781m51.5 0h45.781v45.781h-45.781v-45.781m51.5 0h45.781v45.781h-45.781v-45.781m51.5 0h45.781v45.781h-45.781v-45.781m51.5 0h45.781v45.781h-45.781v-45.781m51.5 0h45.781v45.781h-45.781v-45.781m-412 51.5h45.781v45.781h-45.781v-45.781m51.5 0h45.781v45.781h-45.781v-45.781m51.5 0h45.781v45.781h-45.781v-45.781m51.5 0h45.781v45.781h-45.781v-45.781m51.5 0h45.781v45.781h-45.781v-45.781m51.5 0h45.781v45.781h-45.781v-45.781m51.5 0h45.781v45.781h-45.781v-45.781m51.5 0h45.781v45.781h-45.781v-45.781m51.5 0h45.781v45.781h-45.781v-45.781m-412 51.5h45.781v45.781h-45.781v-45.781m51.5 0h45.781v45.781h-45.781v-45.781m51.5 0h45.781v45.781h-45.781v-45.781m51.5 0h45.781v45.781h-45.781v-45.781m51.5 0h45.781v45.781h-45.781v-45.781m51.5 0h45.781v45.781h-45.781v-45.781m51.5 0h45.781v45.781h-45.781v-45.781m51.5 0h45.781v45.781h-45.781v-45.781m51.5 0h45.781v45.781h-45.781v-45.781m-412 51.5h45.781v45.781h-45.781v-45.781m51.5 0h45.781v45.781h-45.781v-45.781m51.5 0h45.781v45.781h-45.781v-45.781m51.5 0h45.781v45.781h-45.781v-45.781m51.5 0h45.781v45.781h-45.781v-45.781m51.5 0h45.781v45.781h-45.781v-45.781m51.5 0h45.781v45.781h-45.781v-45.781m51.5 0h45.781v45.781h-45.781v-45.781m51.5 0h45.781v45.781h-45.781v-45.781m-412 51.5h45.781v45.781h-45.781v-45.781m51.5 0h45.781v45.781h-45.781v-45.781m51.5 0h45.781v45.781h-45.781v-45.781m51.5 0h45.781v45.781h-45.781v-45.781m51.5 0h45.781v45.781h-45.781v-45.781m51.5 0h45.75v45.781h-45.75v-45.781m51.5 0h45.75v45.781h-45.75v-45.781m51.5 0h45.75v45.781h-45.75v-45.781m51.5 0h45.75v45.781h-45.75v-45.781m-412 51.5h45.75v45.781h-45.75v-45.781m51.5 0h45.75v45.781h-45.75v-45.781m51.47 0h45.781v45.781h-45.781v-45.781m51.5 0h45.781v45.781h-45.781v-45.781m51.5 0h45.781v45.781h-45.781v-45.781m51.5 0h45.781v45.781h-45.781v-45.781m51.5 0h45.781v45.781h-45.781v-45.781m51.5 0h45.781v45.781h-45.781v-45.781m51.5 0h45.781v45.781h-45.781v-45.781m-412 51.5h45.781v45.781h-45.781v-45.781m51.5 0h45.781v45.781h-45.781v-45.781m51.5 0h45.781v45.781h-45.781v-45.781m51.5 0h45.781v45.781h-45.781v-45.781m51.5 0h45.781v45.781h-45.781v-45.781m51.5 0h45.781v45.781h-45.781v-45.781m51.5 0h45.781v45.781h-45.781v-45.781m51.5 0h45.781v45.781h-45.781v-45.781m51.5 0h45.781v45.781h-45.781v-45.781m-412 51.5h45.781v45.781h-45.781v-45.781m51.5 0h45.781v45.781h-45.781v-45.781m51.5 0h45.781v45.781h-45.781v-45.781m51.5 0h45.781v45.781h-45.781v-45.781m51.5 0h45.781v45.781h-45.781v-45.781m51.5 0h45.781v45.781h-45.781v-45.781m51.5 0h45.781v45.781h-45.781v-45.781m51.5 0h45.781v45.781h-45.781v-45.781m51.5 0h45.781v45.781h-45.781v-45.781m-412 51.5h45.781v45.781h-45.781v-45.781m51.5 0h45.781v45.781h-45.781v-45.781m51.5 0h45.781v45.781h-45.781v-45.781m51.5 0h45.781v45.781h-45.781v-45.781m51.5 0h45.781v45.781h-45.781v-45.781m51.5 0h45.781v45.781h-45.781v-45.781m51.5 0h45.781v45.781h-45.781v-45.781m51.5 0h45.781v45.781h-45.781v-45.781m51.5 0h45.781v45.781h-45.781v-45.781" style="fill-opacity:.308;color:#000"/><path d="m189.68 71.33l-34.783 158.89-30.374-157.79h-83.53l74.971 368.15h72.35l32.821-156.54 31.953 156.64h28.747l12.727-13.635c22.716-27.558 46.781-47.46 59.42-74.78 4.929-12.649 6.167-23.53 3.827-33.11-2.079-8.504-6.952-15.969-14.592-22.726-17.675-17.238-33.957-31.05-43.15-50.14-7.924-19.657-12.561-39.24-15.214-56.17l-24.304-118.8h-70.861m159.89 1.34c-14.584 21.629-24.628 34.949-32.534 51.814-19.947 32.907-15.549 79.2.479 113.34 9.02 23.12 29.25 36.29 44.06 52.723 7.316 7.613 11.704 16.489 13.874 25.883 3.443 14.905 1.232 31.04-4.114 45.07-14.15 31.675-38.07 52.46-62.53 78.81h118.66c17.297-21.641 29.737-49.47 36.691-72.77 5.354-18.266 8.04-36.562 6.316-52.771-2.238-17.06-8.235-33.3-17.03-45.833-17.455-23.977-43.93-45.13-54.25-64.54-5.861-11.861-6.206-24.269-2.584-41.38 8.404-38.1 41.62-56.12 64.78-90.33h-111.81"/></g><text y="312.48" x="-100.1" line-height="125%" style="letter-spacing:0;word-spacing:0;font-size:129.23;font-family:Gentium Book Basic"><tspan y="312.48" x="-100.1"/></text><text transform="scale(4.0128.2492)" y="904.75" x="172.14" style="font-size:46.954;font-family:Arial;text-anchor:middle"/><text y="232.48" x="481.17" line-height="125%" style="letter-spacing:0;word-spacing:0;font-size:129.23;font-family:Gentium Book Basic"><tspan y="232.48" x="481.17"/></text><text transform="scale(4.0128.2492)" y="583.73" x="316.99" style="font-size:46.954;font-family:Arial;text-anchor:middle"/><text y="51.22" x="-590.41" line-height="125%" style="letter-spacing:0;word-spacing:0;font-size:129.23;font-family:Gentium Book Basic"><tspan y="51.22" x="-590.41"/></text><text transform="scale(4.0128.2492)" y="-143.63" x="49.947" style="font-size:46.954;font-family:Arial;text-anchor:middle"/><text y="-165.25" x="507.64" line-height="125%" style="letter-spacing:0;word-spacing:0;font-size:129.23;font-family:Gentium Book Basic"><tspan y="-165.25" x="507.64"/></text><text transform="scale(4.0128.2492)" y="-1012.3" x="323.59" style="font-size:46.954;font-family:Arial;text-anchor:middle"/><text y="-245.26" x="1088.91" line-height="125%" style="letter-spacing:0;word-spacing:0;font-size:129.23;font-family:Gentium Book Basic"><tspan y="-245.26" x="1088.91"/></text><text transform="scale(4.0128.2492)" y="-1333.33" x="468.43" style="font-size:46.954;font-family:Arial;text-anchor:middle"/><text y="-717.66" x="699.79" line-height="125%" style="letter-spacing:0;word-spacing:0;font-size:129.23;font-family:Gentium Book Basic"><tspan y="-717.66" x="699.79"/></text><text transform="scale(4.0128.2492)" y="-3228.98" x="371.46" style="font-size:46.954;font-family:Arial;text-anchor:middle"/><text y="-797.66" x="1281.05" line-height="125%" style="letter-spacing:0;word-spacing:0;font-size:129.23;font-family:Gentium Book Basic"><tspan y="-797.66" x="1281.05"/></text><text transform="scale(4.0128.2492)" y="-3550.01" x="516.31" style="font-size:46.954;font-family:Arial;text-anchor:middle"/><text y="617.06" x="-551.75" line-height="125%" style="letter-spacing:0;word-spacing:0;font-size:208.33;font-family:Gentium Book Basic"><tspan y="617.06" x="-551.75"/></text></svg>