<?xml version="1.0" encoding="UTF-8" standalone="no"?>
<svg
   xmlns:dc="http://purl.org/dc/elements/1.1/"
   xmlns:cc="http://creativecommons.org/ns#"
   xmlns:rdf="http://www.w3.org/1999/02/22-rdf-syntax-ns#"
   xmlns:svg="http://www.w3.org/2000/svg"
   xmlns="http://www.w3.org/2000/svg"
   xmlns:sodipodi="http://sodipodi.sourceforge.net/DTD/sodipodi-0.dtd"
   xmlns:inkscape="http://www.inkscape.org/namespaces/inkscape"
   viewBox="0 0 512 512"
   id="svg2"
   version="1.1"
   inkscape:version="0.91+devel r13804 custom"
   sodipodi:docname="workspace-switcher-right-top.svg">
  <metadata
     id="metadata472">
    <rdf:RDF>
      <cc:Work
         rdf:about="">
        <dc:format>image/svg+xml</dc:format>
        <dc:type
           rdf:resource="http://purl.org/dc/dcmitype/StillImage" />
        <dc:title></dc:title>
      </cc:Work>
    </rdf:RDF>
  </metadata>
  <sodipodi:namedview
     pagecolor="#ffffff"
     bordercolor="#666666"
     borderopacity="1"
     objecttolerance="10"
     gridtolerance="10"
     guidetolerance="10"
     inkscape:pageopacity="0"
     inkscape:pageshadow="2"
     inkscape:window-width="1366"
     inkscape:window-height="709"
     id="namedview470"
     showgrid="false"
     inkscape:zoom="0.4609375"
     inkscape:cx="683.38983"
     inkscape:cy="174.88241"
     inkscape:window-x="-2"
     inkscape:window-y="-3"
     inkscape:window-maximized="1"
     inkscape:current-layer="svg2" />
  <defs
     id="defs4" />
  <rect
     y="-4.211914e-05"
     x="-3.8867188e-06"
     rx="25.988001"
     height="512"
     width="512"
     style="fill:#0078ad"
     id="rect378455" />
  <path
     inkscape:connector-curvature="0"
     style="color:#000000;opacity:0.25;fill-rule:evenodd"
     d="m 41.87501,91.49996 0,7.125 142.06445,142.06445 -0.006,0 -142.05845,-142.05859 0,134.9082 0,7.14649 0.004,0.004 -0.004,0 30.62109,30.6211 -23.49609,0 -7.125,0 0,7.125 142.06445,142.06445 -0.004,0 -142.06045,-142.06065 0,134.91016 0,7.14648 0.004,0.004 -0.004,0 91.5,91.5 352.63672,0 c 14.39735,-9e-5 25.98828,-11.59102 25.98828,-25.98837 l 0,-352.64258 -41.86914,-41.86914 -7.15625,0 7.15625,7.15625 0,0.004 -7.16016,-7.16015 -186.5,0 -7.125,0 149.1875,149.18945 -0.004,0 -149.18936,-149.18945 0,7.125 142.06446,142.06445 -0.006,0 -142.0586,-142.05859 0,19.54883 -26.67954,-26.67969 -7.15625,0 7.15625,7.15625 0,0.004 -7.16016,-7.16015 -186.5,0 -7.125,0 z"
     id="path378459" />
  <path
     id="path378603"
     style="fill:#ffffff;stroke:#ffffff;stroke-width:15.68000031"
     d="m 48.72501,277.75996 187.08,0 0,136.29 -187.08,0 z"
     inkscape:connector-curvature="0" />
  <path
     style="fill:#ffffff;stroke:#ffffff;stroke-width:15.68000031"
     inkscape:connector-curvature="0"
     d="m 48.72501,97.94996 187.08,0 0,136.29 -187.08,0 z"
     id="path378607" />
  <path
     style="fill:none;stroke:#ffffff;stroke-width:15.68000031"
     inkscape:connector-curvature="0"
     d="m 276.19001,97.94996 187.08,0 0,136.29 -187.08,0 z"
     id="path378609" />
  <path
     style="fill:#ffffff;stroke:#ffffff;stroke-width:15.68000031"
     inkscape:connector-curvature="0"
     d="m 276.19001,277.75996 187.08,0 0,136.29 -187.08,0 z"
     id="path378611" />
</svg>
