<svg xmlns="http://www.w3.org/2000/svg" xmlns:svg="http://www.w3.org/2000/svg" id="svg2" version="1.1" viewBox="0 0 512 512"><metadata id="metadata472"/><rect style="fill:#0078ad" id="rect378455" width="512" height="512" x="0" y="0" rx="25.988"/><path style="color:#000;opacity:.25;fill-rule:evenodd" id="path378459" d="m 41.87501,91.49996 0,7.125 142.06444,142.06445 -0.006,0 -142.05844,-142.05859 0,134.9082 0,7.14649 0.004,0.004 -0.004,0 30.62109,30.6211 -23.49609,0 -7.125,0 0,7.125 142.06444,142.06445 -0.004,0 -142.06044,-142.06065 0,134.91016 0,7.14648 0.004,0.004 -0.004,0 91.49999,91.5 352.63672,0 C 500.40907,511.99996 512,500.40903 512,486.01168 l 0,-352.64258 -41.86914,-41.86914 -7.15625,0 7.15625,7.15625 0,0.004 -7.16016,-7.16015 -186.5,0 -7.125,0 149.1875,149.18945 -0.004,0 -149.18936,-149.18945 0,7.125 142.06446,142.06445 -0.006,0 -142.0586,-142.05859 0,19.54883 -26.67954,-26.67969 -7.15625,0 7.15625,7.15625 0,0.004 -7.16016,-7.16015 -186.49999,0 -7.125,0 z"/><path style="color:#000;font-style:normal;font-variant:normal;font-weight:400;font-stretch:normal;font-size:medium;line-height:normal;font-family:sans-serif;text-indent:0;text-align:start;text-decoration:none;text-decoration-line:none;text-decoration-style:solid;text-decoration-color:#000;letter-spacing:normal;word-spacing:normal;text-transform:none;direction:ltr;block-progression:tb;writing-mode:lr-tb;baseline-shift:baseline;text-anchor:start;white-space:normal;clip-rule:nonzero;display:inline;overflow:visible;visibility:visible;opacity:1;isolation:auto;mix-blend-mode:normal;color-interpolation:sRGB;color-interpolation-filters:linearRGB;solid-color:#000;solid-opacity:1;fill:#fff;fill-opacity:1;fill-rule:nonzero;stroke:none;stroke-width:15.68000031;stroke-linecap:butt;stroke-linejoin:miter;stroke-miterlimit:4;stroke-dasharray:none;stroke-dashoffset:0;stroke-opacity:1;color-rendering:auto;image-rendering:auto;shape-rendering:auto;text-rendering:auto;enable-background:accumulate" id="path3400" d="M 40.884766 90.109375 L 40.884766 97.949219 L 40.884766 242.08008 L 243.64453 242.08008 L 243.64453 90.109375 L 40.884766 90.109375 z M 268.34961 90.109375 L 268.34961 97.949219 L 268.34961 242.08008 L 471.10938 242.08008 L 471.10938 90.109375 L 268.34961 90.109375 z M 56.564453 105.78906 L 227.96484 105.78906 L 227.96484 226.40039 L 56.564453 226.40039 L 56.564453 105.78906 z M 40.884766 269.91992 L 40.884766 277.75977 L 40.884766 421.89062 L 243.64453 421.89062 L 243.64453 269.91992 L 40.884766 269.91992 z M 268.34961 269.91992 L 268.34961 277.75977 L 268.34961 421.89062 L 471.10938 421.89062 L 471.10938 269.91992 L 268.34961 269.91992 z"/></svg>