<?xml version="1.0" encoding="UTF-8" standalone="no"?>
<!-- Created with Inkscape (http://www.inkscape.org/) -->
<svg id="svg2" xmlns:rdf="http://www.w3.org/1999/02/22-rdf-syntax-ns#" xmlns="http://www.w3.org/2000/svg" height="100%" width="100%" version="1.1" xmlns:cc="http://creativecommons.org/ns#" viewBox="0 0 512 512" xmlns:dc="http://purl.org/dc/elements/1.1/">
 <metadata id="metadata60">
  <rdf:RDF>
   <cc:Work rdf:about="">
    <dc:format>image/svg+xml</dc:format>
    <dc:type rdf:resource="http://purl.org/dc/dcmitype/StillImage"/>
   </cc:Work>
  </rdf:RDF>
 </metadata>
 <path id="path4" d="m26 0c-14.397 0-26 11.603-26 26v460c0 14.397 11.603 26 26 26h460c14.397 0 26-11.603 26-26v-460c0-14.397-11.6-26-26-26h-460" fill="#006b65"/>
 <text id="text6" style="word-spacing:0;letter-spacing:0" font-size="129.23px" line-height="125%" y="179.44" x="7.2849998" font-family="Gentium Book Basic">
  <tspan id="tspan8" y="179.44" x="7.2849998"/>
 </text>
 <text id="text10" style="text-anchor:middle" transform="scale(4.0128 .2492)" font-size="46.954px" y="370.92001" x="198.89999" font-family="Arial"/>
 <text id="text12" style="word-spacing:0;letter-spacing:0" font-size="129.23px" line-height="125%" y="99.440002" x="588.56" font-family="Gentium Book Basic">
  <tspan id="tspan14" y="99.440002" x="588.56"/>
 </text>
 <text id="text16" style="text-anchor:middle" transform="scale(4.0128 .2492)" font-size="46.954px" y="49.877998" x="343.75" font-family="Arial"/>
 <text id="text18" style="word-spacing:0;letter-spacing:0" font-size="129.23px" line-height="125%" y="-81.82" x="-483.01999" font-family="Gentium Book Basic">
  <tspan id="tspan20" y="-81.82" x="-483.01999"/>
 </text>
 <text id="text22" style="text-anchor:middle" transform="scale(4.0128 .2492)" font-size="46.954px" y="-677.46997" x="76.709999" font-family="Arial"/>
 <text id="text24" style="word-spacing:0;letter-spacing:0" font-size="129.23px" line-height="125%" y="-298.29001" x="615.03003" font-family="Gentium Book Basic">
  <tspan id="tspan26" y="-298.29001" x="615.03003"/>
 </text>
 <text id="text28" style="text-anchor:middle" transform="scale(4.0128 .2492)" font-size="46.954px" y="-1546.14" x="350.35001" font-family="Arial"/>
 <text id="text30" style="word-spacing:0;letter-spacing:0" font-size="129.23px" line-height="125%" y="-378.29001" x="1196.3" font-family="Gentium Book Basic">
  <tspan id="tspan32" y="-378.29001" x="1196.3"/>
 </text>
 <text id="text34" style="text-anchor:middle" transform="scale(4.0128 .2492)" font-size="46.954px" y="-1867.17" x="495.19" font-family="Arial"/>
 <text id="text36" style="word-spacing:0;letter-spacing:0" font-size="129.23px" line-height="125%" y="-850.69" x="807.17999" font-family="Gentium Book Basic">
  <tspan id="tspan38" y="-850.69" x="807.17999"/>
 </text>
 <text id="text40" style="text-anchor:middle" transform="scale(4.0128 .2492)" font-size="46.954px" y="-3762.8201" x="398.23001" font-family="Arial"/>
 <text id="text42" style="word-spacing:0;letter-spacing:0" font-size="129.23px" line-height="125%" y="-930.70001" x="1388.4399" font-family="Gentium Book Basic">
  <tspan id="tspan44" y="-930.70001" x="1388.4399"/>
 </text>
 <text id="text46" style="text-anchor:middle" transform="scale(4.0128 .2492)" font-size="46.954px" y="-4083.8601" x="543.07001" font-family="Arial"/>
 <text id="text48" style="word-spacing:0;letter-spacing:0" font-size="208.33px" line-height="125%" y="484.01999" x="-444.35999" font-family="Gentium Book Basic">
  <tspan id="tspan50" y="484.01999" x="-444.35999"/>
 </text>
 <path id="path52" opacity=".25" d="m253.72 41c-9.03 0.016-17.963 1.582-25.844 4.875-16.375 6.842-23.93 13.916-32.875 30.719-6.785 12.746-7.37 19.83-8.5 100.94l-1.219 87.22-14.938 16.594c-42.886 47.699-36.33 115.95 4.5 156.78l73.875 73.875h237.28c14.397 0 26-11.603 26-26v-217.09l-210.69-210.69c-0.414-0.414-0.83-0.808-1.25-1.188-11.477-10.378-29.1-16.06-46.34-16.03"/>
 <path id="path54" d="m229.57 468.84c-84.94-21.34-117.09-123.13-59.22-187.5l14.925-16.6 1.215-87.22c1.13-81.11 1.727-88.18 8.512-100.92 8.945-16.803 16.508-23.866 32.883-30.708 22.927-9.579 54.692-4.679 72.18 11.136 10.03 9.07 18.406 28.06 21.09 47.84l2.442 17.989h19.552c20.84 0 27.776 3.85 27.776 15.419 0 11.605-6.95 15.419-28.1 15.419h-19.874v34.26l14.563 0.05c18.16 0.063 31.376 6.475 32.734 15.884 1.743 12.07-8.05 18.33-28.696 18.33h-18.601v20.912c0 19.922 0.721 21.714 15.235 37.857 51.01 56.735 32.993 148.23-35.22 178.84-22.641 10.161-53.667 13.968-73.41 9.01m-40.42-117.71c7.346-17.14 24.862-35.88 45.771-48.975 7.903-4.95 15.502-10.696 16.887-12.77s2.541-40.39 2.57-85.15l0.052-81.38h34.26l-0.05-12.849c-0.071-18.06-6.509-28.972-21.392-36.26-12.431-6.087-13.213-6.087-25.645 0-20.704 10.138-21.336 13.463-21.392 112.6l-0.05 89.19-18.889 17.78c-18.819 17.714-23.842 26.06-29.38 48.837-6.355 26.13 6.936 33.05 17.254 8.979" fill="#fff"/>
</svg>
