<svg xmlns="http://www.w3.org/2000/svg" xmlns:svg="http://www.w3.org/2000/svg" id="svg2" version="1.1" viewBox="0 0 512 512"><metadata id="metadata950"/><path style="fill:#4d4d4d" id="path4" d="m 25.9995,0 c -14.397,0 -26,11.603 -26,26 l 0,460 c 0,14.397 11.603,26 26,26 l 460,0 c 14.397,0 26,-11.603 26,-26 l 0,-460 c 0,-14.397 -11.6,-26 -26,-26 l -460,0"/><path style="color:#000;opacity:.25;fill-rule:evenodd" id="path8" d="m 67.4795,50.555 -26.482,309.28 0.006,0 -0.004,0 19.11,19.11 -19.11,0 0,82.5 50.551,50.55 394.45,0 c 14.4,0 26,-11.6 26,-26 l 0,-370.88 -64.57,-64.56 -379.95,0 z"/><path style="color:#000;fill:#fff;fill-rule:evenodd" id="path10" d="m 67.4795,50.554 -26.481,309.28 103.45,0 19.11,19.11 -122.56,0 0,82.5 430,0 0,-82.5 -138.95,0 19.11,-19.11 119.84,0 -23.571,-309.28 -379.95,0 m 68.14,60.62 247.06,0 21.679,196.38 -294.64,0 25.899,-196.38 m 41.71,18.14 61.06,82.21 -61.06,77.891 13.968,0 74.4,-93.56 -48.888,-66.54 -39.479,0 m 145.06,0 -74.4,94.09 49.28,66.01 39.43,0 -61.01,-82.89 61.01,-77.21 -14.308,0 m -263.69,269.8 394.6,0 0,42.15 -394.6,0 0,-42.15"/><path style="color:#000;fill:#19171c;fill-rule:evenodd" id="path944" d="m 99.5895,82.03 -33.61,254.67 382.13,0 -28.13,-254.67 -320.39,0 m 36.04,29.15 247.06,0 21.679,196.38 -294.64,0 25.899,-196.38"/></svg>