<?xml version="1.0" encoding="UTF-8" standalone="no"?>
<svg
   xmlns:dc="http://purl.org/dc/elements/1.1/"
   xmlns:cc="http://creativecommons.org/ns#"
   xmlns:rdf="http://www.w3.org/1999/02/22-rdf-syntax-ns#"
   xmlns:svg="http://www.w3.org/2000/svg"
   xmlns="http://www.w3.org/2000/svg"
   xmlns:xlink="http://www.w3.org/1999/xlink"
   xmlns:sodipodi="http://sodipodi.sourceforge.net/DTD/sodipodi-0.dtd"
   xmlns:inkscape="http://www.inkscape.org/namespaces/inkscape"
   viewBox="0 0 512 512"
   id="svg2"
   version="1.1"
   inkscape:version="0.91+devel r13804 custom"
   sodipodi:docname="xterm-color_48x48.svg">
  <metadata
     id="metadata1355">
    <rdf:RDF>
      <cc:Work
         rdf:about="">
        <dc:format>image/svg+xml</dc:format>
        <dc:type
           rdf:resource="http://purl.org/dc/dcmitype/StillImage" />
        <dc:title></dc:title>
      </cc:Work>
    </rdf:RDF>
  </metadata>
  <sodipodi:namedview
     pagecolor="#ffffff"
     bordercolor="#666666"
     borderopacity="1"
     objecttolerance="10"
     gridtolerance="10"
     guidetolerance="10"
     inkscape:pageopacity="0"
     inkscape:pageshadow="2"
     inkscape:window-width="1366"
     inkscape:window-height="709"
     id="namedview1353"
     showgrid="false"
     inkscape:zoom="0.4609375"
     inkscape:cx="349.28814"
     inkscape:cy="148.61017"
     inkscape:window-x="-2"
     inkscape:window-y="-3"
     inkscape:window-maximized="1"
     inkscape:current-layer="svg2" />
  <defs
     id="defs4">
    <radialGradient
       cx="432.68"
       cy="476.11"
       r="135.89"
       id="1"
       xlink:href="#2"
       gradientUnits="userSpaceOnUse"
       gradientTransform="matrix(2.02571,0,0,1.91372,-620.4855,-655.175)" />
    <radialGradient
       cx="432.68"
       cy="476.11"
       r="135.89"
       id="2"
       gradientUnits="userSpaceOnUse"
       gradientTransform="matrix(1.54384 0 0 1.45849-411.99-438.41)">
      <stop
         id="stop15147"
         style="stop-color:#fff;stop-opacity:.335" />
      <stop
         id="stop15149"
         style="stop-color:#fff;stop-opacity:0"
         offset="1" />
    </radialGradient>
  </defs>
  <path
     inkscape:connector-curvature="0"
     d="m 26.0045,-0.015 c -14.397,0 -26,11.603 -26,26 l 0,460 c 0,14.397 11.603,26 26,26 l 460,0 c 14.397,0 26,-11.603 26,-26 l 0,-460 c 0,-14.397 -11.603,-26 -26,-26 l -460,0"
     style="fill:#555753"
     id="path15151" />
  <path
     inkscape:connector-curvature="0"
     d="m -43.5875,556.955 c 0,0 229.41,-292.73 229.41,-292.73 0,0 -229.41,-309.2 -229.41,-309.2 l 148.37,0 c 0,0 183.75,250.2 183.75,250.2 l -279.69,351.74 -52.44,0 m 265.67,-248.16 279.61,-353.77 c 0,0 53.915,0 53.915,0 l -229.49,290.28 c 0,0 229.49,311.66 229.49,311.66 l -148.37,0 c 0,0 -185.14,-248.16 -185.14,-248.16"
     style="fill:url(#1)"
     id="path15153" />
  <path
     d="M 168.81445 51.171875 L 168.81445 51.175781 L 136.72461 51.175781 L 136.72461 95.234375 C 108.48461 98.336375 86.147064 106.83013 69.664062 120.70312 L 69.664062 120.70508 C 53.181076 134.58138 44.916082 152.2787 44.914062 173.82812 L 44.910156 173.82422 C 44.910156 196.18422 51.849656 214.54606 65.722656 228.91406 L 66.525391 229.7168 C 66.460661 229.65255 66.388544 229.58972 66.324219 229.52539 L 65.722656 228.92578 C 65.919656 229.12778 66.119312 229.3273 66.320312 229.5293 L 136.72461 299.93359 L 136.72461 370.92578 C 120.56518 370.59979 103.60563 368.4098 85.820312 364.33008 L 85.818359 364.33008 L 85.814453 364.32422 C 68.184453 360.07522 53.243953 355.09972 41.001953 349.38672 L 95.958984 404.34375 C 95.957057 404.34351 95.955052 404.34399 95.953125 404.34375 L 41.003906 349.39453 L 41.003906 390.52539 L 162.46289 511.98438 L 486.00391 511.98438 C 500.40091 511.98438 512.00391 500.38137 512.00391 485.98438 L 512.00391 92.205078 L 471.00391 51.205078 L 280.03516 51.205078 L 280.03516 136.20508 L 257.19531 113.36523 C 244.66715 108.16365 231.82439 104.05972 218.67383 101.03125 L 168.81445 51.171875 z "
     id="path15157"
     style="opacity:0.25" />
  <g
     transform="matrix(1.78086,0,0,1.78086,-193.8555,-199.905)"
     style="fill:#8db173"
     id="g15243">
    <path
       inkscape:connector-curvature="0"
       d="m 257.4,292.91 c 0,12.556 -4.674,22.959 -14.02,31.21 -9.257,8.249 -22.501,13.427 -39.731,15.535 l 0,31.345 -18.01,0 0,-30.11 c -10.448,-0.183 -20.484,-1.054 -30.11,-2.612 -9.532,-1.65 -17.414,-3.895 -23.646,-6.736 l 0,-23.1 c 6.874,3.208 15.26,6 25.16,8.386 9.99,2.291 19.522,3.529 28.595,3.712 l 0,-58.84 c -18.789,-5.957 -32.08,-12.923 -39.869,-20.897 -7.79,-8.07 -11.686,-18.376 -11.686,-30.932 0,-12.1 4.628,-22.04 13.885,-29.833 9.257,-7.79 21.813,-12.556 37.669,-14.298 l 0,-24.746 18.01,0 0,24.471 c 17.414,0.458 33.957,3.941 49.629,10.448 l -7.699,19.384 c -14.206,-5.591 -28.18,-8.89 -41.931,-9.898 l 0,58.02 c 14.664,4.949 25.571,9.624 32.72,14.02 7.24,4.399 12.556,9.44 15.947,15.12 3.391,5.591 5.087,12.373 5.087,20.347 m -25.02,1.787 c 0,-6.599 -2.154,-11.823 -6.461,-15.672 -4.308,-3.941 -11.732,-7.744 -22.271,-11.411 l 0,51.55 c 19.16,-2.933 28.733,-11.09 28.733,-24.471 m -73.14,-85.1 c 0,6.691 1.97,12.1 5.912,16.222 3.941,4.124 10.769,7.928 20.484,11.411 l 0,-51.28 c -8.615,1.467 -15.168,4.262 -19.659,8.386 -4.491,4.124 -6.736,9.211 -6.736,15.26"
       id="path15245" />
    <path
       inkscape:connector-curvature="0"
       d="m 266.1,141 107.24,0 0,230 -107.24,0 z"
       style="fill-opacity:0.547;fill-rule:evenodd"
       id="path15247" />
  </g>
  <g
     transform="translate(-986.2055,-53.896)"
     line-height="125%"
     style="font-size:208.33000183px;line-height:125%;font-family:'Gentium Book Basic';letter-spacing:0;word-spacing:0"
     id="g15249">
    <text
       y="-258.34"
       x="-888.5"
       id="text15251">
      <tspan
         y="-258.34"
         x="-888.5"
         id="tspan15253" />
    </text>
    <text
       y="19.771999"
       x="-3247.3301"
       id="text15255">
      <tspan
         y="19.771999"
         x="-3247.3301"
         id="tspan15257" />
    </text>
    <text
       y="-207.50999"
       x="-2959.1201"
       id="text15259">
      <tspan
         y="-207.50999"
         x="-2959.1201"
         id="tspan15261" />
    </text>
    <text
       y="-464.41"
       x="1235.48"
       id="text15263">
      <tspan
         y="-464.41"
         x="1235.48"
         id="tspan15265" />
    </text>
    <text
       y="-319.38"
       x="-892.45001"
       id="text15267">
      <tspan
         y="-319.38"
         x="-892.45001"
         id="tspan15269" />
    </text>
    <text
       y="-41.259998"
       x="-3251.28"
       id="text15271">
      <tspan
         y="-41.259998"
         x="-3251.28"
         id="tspan15273" />
    </text>
    <text
       y="-268.54999"
       x="-2963.0601"
       id="text15275">
      <tspan
         y="-268.54999"
         x="-2963.0601"
         id="tspan15277" />
    </text>
  </g>
</svg>
