<?xml version="1.0" encoding="UTF-8" standalone="no"?>
<svg
   xmlns:dc="http://purl.org/dc/elements/1.1/"
   xmlns:cc="http://creativecommons.org/ns#"
   xmlns:rdf="http://www.w3.org/1999/02/22-rdf-syntax-ns#"
   xmlns:svg="http://www.w3.org/2000/svg"
   xmlns="http://www.w3.org/2000/svg"
   xmlns:xlink="http://www.w3.org/1999/xlink"
   xmlns:sodipodi="http://sodipodi.sourceforge.net/DTD/sodipodi-0.dtd"
   xmlns:inkscape="http://www.inkscape.org/namespaces/inkscape"
   viewBox="0 0 512 512"
   id="svg2"
   version="1.1"
   inkscape:version="0.91+devel r13804 custom"
   sodipodi:docname="yakuake.svg">
  <metadata
     id="metadata1355">
    <rdf:RDF>
      <cc:Work
         rdf:about="">
        <dc:format>image/svg+xml</dc:format>
        <dc:type
           rdf:resource="http://purl.org/dc/dcmitype/StillImage" />
        <dc:title></dc:title>
      </cc:Work>
    </rdf:RDF>
  </metadata>
  <sodipodi:namedview
     pagecolor="#ffffff"
     bordercolor="#666666"
     borderopacity="1"
     objecttolerance="10"
     gridtolerance="10"
     guidetolerance="10"
     inkscape:pageopacity="0"
     inkscape:pageshadow="2"
     inkscape:window-width="1366"
     inkscape:window-height="709"
     id="namedview1353"
     showgrid="false"
     inkscape:zoom="0.4609375"
     inkscape:cx="349.28814"
     inkscape:cy="148.61017"
     inkscape:window-x="-2"
     inkscape:window-y="-3"
     inkscape:window-maximized="1"
     inkscape:current-layer="svg2" />
  <defs
     id="defs4" />
  <g
     id="g21940"
     transform="translate(-125.75934,20.476441)">
    <path
       id="path21741"
       style="fill:#484043"
       d="m 151.7589,-20.476441 c -14.397,0 -26,11.603 -26,26 l 0,460.000001 c 0,14.397 11.603,26 26,26 l 460,0 c 14.397,0 26,-11.603 26,-26 l 0,-460.000001 c 0,-14.397 -11.603,-26 -26,-26 l -460,0"
       inkscape:connector-curvature="0" />
    <text
       id="text21743"
       style="font-size:129.22999573px;line-height:125%;font-family:'Gentium Book Basic';letter-spacing:0;word-spacing:0"
       line-height="125%"
       x="275.3989"
       y="-505.11646"
       sodipodi:linespacing="125%">
      <tspan
         id="tspan21745"
         x="275.3989"
         y="-505.11646" />
    </text>
    <text
       id="text21747"
       style="font-size:46.95399857px;font-family:Arial;text-anchor:middle"
       x="265.70807"
       y="-2376.0864"
       transform="scale(4.0128205,0.24920128)" />
    <text
       id="text21749"
       style="font-size:129.22999573px;line-height:125%;font-family:'Gentium Book Basic';letter-spacing:0;word-spacing:0"
       line-height="125%"
       x="856.66888"
       y="-585.11646"
       sodipodi:linespacing="125%">
      <tspan
         id="tspan21751"
         x="856.66888"
         y="-585.11646" />
    </text>
    <text
       id="text21753"
       style="font-size:46.95399857px;font-family:Arial;text-anchor:middle"
       x="410.55734"
       y="-2697.1147"
       transform="scale(4.0128205,0.24920128)" />
    <text
       id="text21755"
       style="font-size:129.22999573px;line-height:125%;font-family:'Gentium Book Basic';letter-spacing:0;word-spacing:0"
       line-height="125%"
       x="-214.91112"
       y="-766.37646"
       sodipodi:linespacing="125%">
      <tspan
         id="tspan21757"
         x="-214.91112"
         y="-766.37646" />
    </text>
    <text
       id="text21759"
       style="font-size:46.95399857px;font-family:Arial;text-anchor:middle"
       x="143.51871"
       y="-3424.4712"
       transform="scale(4.0128205,0.24920128)" />
    <text
       id="text21761"
       style="font-size:129.22999573px;line-height:125%;font-family:'Gentium Book Basic';letter-spacing:0;word-spacing:0"
       line-height="125%"
       x="883.13892"
       y="-982.84644"
       sodipodi:linespacing="125%">
      <tspan
         id="tspan21763"
         x="883.13892"
         y="-982.84644" />
    </text>
    <text
       id="text21765"
       style="font-size:46.95399857px;font-family:Arial;text-anchor:middle"
       x="417.15732"
       y="-4293.1265"
       transform="scale(4.0128205,0.24920128)" />
    <text
       id="text21767"
       style="font-size:129.22999573px;line-height:125%;font-family:'Gentium Book Basic';letter-spacing:0;word-spacing:0"
       line-height="125%"
       x="1464.4089"
       y="-1062.8564"
       sodipodi:linespacing="125%">
      <tspan
         id="tspan21769"
         x="1464.4089"
         y="-1062.8564" />
    </text>
    <text
       id="text21771"
       style="font-size:46.95399857px;font-family:Arial;text-anchor:middle"
       x="562.00653"
       y="-4614.165"
       transform="scale(4.0128205,0.24920128)" />
    <text
       id="text21773"
       style="font-size:129.22999573px;line-height:125%;font-family:'Gentium Book Basic';letter-spacing:0;word-spacing:0"
       line-height="125%"
       x="1075.2889"
       y="-1535.2565"
       sodipodi:linespacing="125%">
      <tspan
         id="tspan21775"
         x="1075.2889"
         y="-1535.2565" />
    </text>
    <text
       id="text21777"
       style="font-size:46.95399857px;font-family:Arial;text-anchor:middle"
       x="465.03708"
       y="-6509.8052"
       transform="scale(4.0128205,0.24920128)" />
    <text
       id="text21779"
       style="font-size:129.22999573px;line-height:125%;font-family:'Gentium Book Basic';letter-spacing:0;word-spacing:0"
       line-height="125%"
       x="1656.549"
       y="-1615.2565"
       sodipodi:linespacing="125%">
      <tspan
         id="tspan21781"
         x="1656.549"
         y="-1615.2565" />
    </text>
    <text
       id="text21783"
       style="font-size:46.95399857px;font-family:Arial;text-anchor:middle"
       x="609.88629"
       y="-6830.834"
       transform="scale(4.0128205,0.24920128)" />
    <text
       id="text21785"
       style="font-size:208.33000183px;line-height:125%;font-family:'Gentium Book Basic';letter-spacing:0;word-spacing:0"
       line-height="125%"
       x="-176.25111"
       y="-200.53644"
       sodipodi:linespacing="125%">
      <tspan
         id="tspan21787"
         x="-176.25111"
         y="-200.53644" />
    </text>
    <path
       id="path21789"
       style="fill:#62c0dc"
       d="m 378.0289,66.495559 c -73.902,0 -140.99,24.14 -190.36,63.430001 l 0,261.07 388.17,0 0,-254.91 c -49.958,-42.910001 -120.12,-69.600001 -197.81,-69.600001"
       inkscape:connector-curvature="0" />
    <path
       style="fill:#62c0dc"
       d="m 385.8389,20.518559 c -73.902,0 -141.73,-1.107 -198.17,0 l 0,370.480001 388.17,0 4.95,-370.480001 c -58.44,-0.483 -117.26,0 -194.95,0"
       id="0"
       inkscape:connector-curvature="0" />
    <path
       id="path21796"
       d="m 255.6875,20.03125 c -24.08764,-0.03243 -46.85453,0.07316 -68.01953,0.488281 l 0.006,0.0059 0,363.968749 -20.91406,0 0,20.05859 86.9707,86.97071 358.0293,0 c 14.397,0 26,-11.603 26,-26 l 0,-388.033206 -56.97071,-56.970703 c -58.44,-0.483 -117.25922,0 -194.94922,0 -46.18875,0 -90.00627,-0.434228 -130.15234,-0.488281 z m 320.38477,353.63281 -0.14454,10.83008 -34.70312,0 0,-10.42578 c 11.14572,-0.21858 22.85457,-0.33282 34.84766,-0.4043 z"
       style="opacity:0.25"
       inkscape:connector-curvature="0" />
    <path
       id="path21816"
       style="fill:#dcc991;fill-rule:evenodd"
       d="m 166.7589,384.49356 0,20.06 430,0 0,-20.06 -430,0"
       inkscape:connector-curvature="0" />
    <use
       id="use21818"
       width="1"
       height="1"
       xlink:href="#0"
       x="0"
       y="0" />
    <text
       id="text21820"
       style="font-size:233.52999878px;line-height:125%;font-family:Sans;letter-spacing:0;word-spacing:0;fill:#ffffff"
       line-height="125%"
       x="210.7149"
       y="275.09357"
       sodipodi:linespacing="125%">
      <tspan
         id="tspan21822"
         x="210.7149"
         y="275.09357">$ _</tspan>
    </text>
  </g>
</svg>
