<svg xmlns="http://www.w3.org/2000/svg" xmlns:svg="http://www.w3.org/2000/svg" id="svg2" version="1.1" viewBox="0 0 512 512"><metadata id="metadata1355"/><path id="path22698" d="M 26,0 C 11.603,0 0,11.603 0,26 l 0,460 c 0,14.397 11.603,26 26,26 l 460,0 c 14.397,0 26,-11.603 26,-26 L 512,26 C 512,11.603 500.397,0 486,0 L 26,0" style="fill:#62c0dc"/><path id="path22700" d="M 26,0 C 11.603,0 0,11.603 0,26 l 0,460 c 0,14.397 11.603,26 26,26 l 230.5,0 0,-512 L 26,0" style="fill:#e75177"/><path id="path22750" d="M 192.43945 148.7793 C 157.23945 148.7793 128.57617 177.48769 128.57617 212.67969 L 247.50195 331.60547 C 247.50093 331.6072 247.50102 331.60959 247.5 331.61133 L 128.57031 212.67969 L 128.57031 235.44727 L 128.57031 235.44922 L 237.58398 344.46094 L 237.58203 344.46289 L 128.57031 235.44922 L 104.98047 235.44922 L 104.9043 235.44922 L 224.1875 354.73242 L 224.18555 354.73438 L 104.90039 235.44922 C 69.710392 235.44922 41 264.11645 41 299.31445 L 104.90625 363.2207 L 104.90039 363.2207 L 41 299.32031 C 41 316.92031 48.175 332.8957 59.75 344.4707 L 227.2793 512 L 486 512 C 500.397 512 512 500.397 512 486 L 512 313.92969 L 452.26953 254.19922 C 450.13664 252.06633 447.852 250.08613 445.4375 248.26953 L 364.67773 167.50977 C 364.79856 167.63063 364.91139 167.75904 365.03125 167.88086 L 364.66992 167.51953 C 353.10621 155.95582 337.15208 148.78676 319.56641 148.78516 L 319.56055 148.7793 C 292.38416 148.7793 269.12185 165.90345 259.92578 189.9082 L 237.5293 167.50977 C 225.97159 155.95206 210.02498 148.78676 192.44531 148.78516 L 192.43945 148.7793 z" style="fill-rule:evenodd;opacity:.25"/><path id="path22804" d="m 192.44,148.78 c -35.2,0 -63.864,28.708 -63.864,63.9 l 0,22.768 -23.597,0 c -0.038,0 -0.057,0 -0.076,0 -35.19,0 -63.9,28.666 -63.9,63.864 0,35.2 28.703,63.9 63.9,63.9 0.019,0 0.037,0 0.076,0 l 87.35,0 c 0.038,0 0.094,0 0.113,0 33.15,0 60.49,-25.435 63.56,-57.806 3.07,32.368 30.408,57.806 63.56,57.806 0.019,0 0.075,0 0.113,0 l 87.35,0 c 0.038,0 0.057,0 0.076,0 35.2,0 63.9,-28.703 63.9,-63.9 0,-35.2 -28.708,-63.864 -63.9,-63.864 -0.019,0 -0.037,0 -0.076,0 l -23.597,0 0,-22.768 c 0,-35.19 -28.666,-63.9 -63.864,-63.9 -33.15,0 -60.49,25.471 -63.56,57.842 -3.07,-32.371 -30.408,-57.842 -63.56,-57.842" style="fill:#fff;fill-rule:evenodd"/></svg>