<svg xmlns="http://www.w3.org/2000/svg" xmlns:svg="http://www.w3.org/2000/svg" id="svg2" version="1.1" viewBox="0 0 512 512"><metadata id="metadata1355"/><path id="path23855" d="M 26,0 C 11.603,0 0,11.603 0,26 l 0,460 c 0,14.397 11.603,26 26,26 l 460,0 c 14.397,0 26,-11.603 26,-26 L 512,26 C 512,11.603 500.397,0 486,0 L 26,0" style="fill:#db4437"/><path style="opacity:.25" id="path23905" d="M 92.640625 108.71094 C 64.028158 108.72591 41.003906 174.43683 41.003906 256.01953 L 188.27344 403.28906 L 188.25977 403.28906 L 41 256.0293 C 41 320.4193 55.340219 374.88023 75.449219 394.99023 L 192.45898 512 L 486 512 C 500.397 512 512 500.397 512 486 L 512 192.46094 L 436.53906 117 C 431.16806 111.629 425.38561 108.71094 419.34961 108.71094 L 92.650391 108.71094 L 92.640625 108.71094 z"/><path id="path23927" d="m 92.65,108.71 c -28.617,0 -51.646,65.718 -51.646,147.31 0,81.6 23.03,147.26 51.646,147.26 l 326.71,0 c 28.617,0 51.645,-65.66 51.645,-147.26 0,-81.6 -23.03,-147.31 -51.645,-147.31 l -326.71,0 m 115.69,55.627 c 46.965,30.07 93.67,60.716 140.72,90.66 -46.864,30.893 -93.79,62 -140.72,92.71 l 0,-183.38" style="fill:#fff"/></svg>