<svg xmlns="http://www.w3.org/2000/svg" viewBox="0 0 512 512"><defs><clipPath id="0"><path d="m26 0c-14.397 0-26 11.603-26 26v460c0 14.397 11.603 26 26 26h460c14.397 0 26-11.603 26-26v-460c0-14.397-11.603-26-26-26h-460"/></clipPath></defs><path d="m26 0c-14.397 0-26 11.603-26 26v460c0 14.397 11.603 26 26 26h460c14.397 0 26-11.603 26-26v-460c0-14.397-11.603-26-26-26h-460" style="fill:#db4437"/><text y="171.34" x="-93.96" line-height="125%" style="letter-spacing:0;word-spacing:0;font-size:129.23;font-family:Gentium Book Basic"><tspan y="171.34" x="-93.96"/></text><text transform="scale(4.0128.2492)" y="338.42" x="173.67" style="font-size:46.954;font-family:Arial;text-anchor:middle"/><text y="91.34" x="487.31" line-height="125%" style="letter-spacing:0;word-spacing:0;font-size:129.23;font-family:Gentium Book Basic"><tspan y="91.34" x="487.31"/></text><text transform="scale(4.0128.2492)" y="17.383" x="318.51" style="font-size:46.954;font-family:Arial;text-anchor:middle"/><text y="-89.92" x="-584.27" line-height="125%" style="letter-spacing:0;word-spacing:0;font-size:129.23;font-family:Gentium Book Basic"><tspan y="-89.92" x="-584.27"/></text><text transform="scale(4.0128.2492)" y="-709.96" x="51.48" style="font-size:46.954;font-family:Arial;text-anchor:middle"/><text y="-306.39" x="513.78" line-height="125%" style="letter-spacing:0;word-spacing:0;font-size:129.23;font-family:Gentium Book Basic"><tspan y="-306.39" x="513.78"/></text><text transform="scale(4.0128.2492)" y="-1578.64" x="325.11" style="font-size:46.954;font-family:Arial;text-anchor:middle"/><text y="-386.39" x="1095.05" line-height="125%" style="letter-spacing:0;word-spacing:0;font-size:129.23;font-family:Gentium Book Basic"><tspan y="-386.39" x="1095.05"/></text><text transform="scale(4.0128.2492)" y="-1899.67" x="469.96" style="font-size:46.954;font-family:Arial;text-anchor:middle"/><text y="-858.79" x="705.93" line-height="125%" style="letter-spacing:0;word-spacing:0;font-size:129.23;font-family:Gentium Book Basic"><tspan y="-858.79" x="705.93"/></text><text transform="scale(4.0128.2492)" y="-3795.32" x="372.99" style="font-size:46.954;font-family:Arial;text-anchor:middle"/><text y="-938.8" x="1287.19" line-height="125%" style="letter-spacing:0;word-spacing:0;font-size:129.23;font-family:Gentium Book Basic"><tspan y="-938.8" x="1287.19"/></text><text transform="scale(4.0128.2492)" y="-4116.36" x="517.84" style="font-size:46.954;font-family:Arial;text-anchor:middle"/><text y="475.92" x="-545.61" line-height="125%" style="letter-spacing:0;word-spacing:0;font-size:208.33;font-family:Gentium Book Basic"><tspan y="475.92" x="-545.61"/></text><g style="clip-path:url(#0);opacity:.25"><path d="m92.65 108.71c-28.617 0-51.646 65.718-51.646 147.31l388.91 388.91c0-81.6 23.03-147.31 51.645-147.31z"/><path d="m41 256.03c0 64.39 14.34 118.85 34.449 138.96l388.91 388.91c-20.11-20.11-34.449-74.57-34.449-138.96z"/><path d="m75.45 394.99c5.375 5.375 11.161 8.295 17.196 8.295l388.91 388.91c-6.04 0-11.822-2.92-17.196-8.295z"/><path d="m92.65 403.29h326.71l388.91 388.91h-326.71z"/><path d="m419.35 403.29c28.617 0 51.646-65.66 51.646-147.26l388.91 388.91c0 81.6-23.03 147.26-51.645 147.26z"/><path d="m471 256.03c0-64.4-14.345-118.91-34.46-139.02l388.91 388.91c20.12 20.12 34.46 74.62 34.46 139.02z"/><path d="m436.54 117c-5.371-5.371-11.154-8.29-17.19-8.29l388.91 388.91c6.03 0 11.814 2.919 17.19 8.29z"/><path d="m419.35 108.71h-326.71l388.91 388.91h326.71z"/><path d="m208.34 164.34c46.965 30.07 93.67 60.716 140.72 90.66l388.91 388.91c-47.04-29.948-93.75-60.59-140.72-90.66z"/><path d="m349.05 255c-46.864 30.893-93.79 62-140.72 92.71l388.91 388.91c46.93-30.709 93.85-61.819 140.72-92.71z"/><path d="m208.34 347.72v-183.38l388.91 388.91v183.38z"/></g><path d="m92.65 108.71c-28.617 0-51.646 65.718-51.646 147.31 0 81.6 23.03 147.26 51.646 147.26h326.71c28.617 0 51.645-65.66 51.645-147.26 0-81.6-23.03-147.31-51.645-147.31h-326.71m115.69 55.627c46.965 30.07 93.67 60.716 140.72 90.66-46.864 30.893-93.79 62-140.72 92.71v-183.38" style="fill:#fff"/></svg>