<?xml version="1.0" encoding="UTF-8" standalone="no"?>
<svg
   xmlns:dc="http://purl.org/dc/elements/1.1/"
   xmlns:cc="http://creativecommons.org/ns#"
   xmlns:rdf="http://www.w3.org/1999/02/22-rdf-syntax-ns#"
   xmlns:svg="http://www.w3.org/2000/svg"
   xmlns="http://www.w3.org/2000/svg"
   xmlns:xlink="http://www.w3.org/1999/xlink"
   id="svg2"
   viewBox="0 0 512 512"
   height="100%"
   width="100%"
   version="1.1">
  <metadata
     id="metadata106">
    <rdf:RDF>
      <cc:Work
         rdf:about="">
        <dc:format>image/svg+xml</dc:format>
        <dc:type
           rdf:resource="http://purl.org/dc/dcmitype/StillImage" />
        <dc:title />
      </cc:Work>
    </rdf:RDF>
  </metadata>
  <defs
     id="defs104">
    <filter
       id="filter3174"
       color-interpolation-filters="sRGB">
      <feGaussianBlur
         id="feGaussianBlur3176"
         stdDeviation="1.71" />
    </filter>
    <linearGradient
       id="ButtonShadow"
       y2="7.0165"
       gradientUnits="userSpaceOnUse"
       x2="45.448"
       gradientTransform="scale(1.0059,0.99417)"
       y1="92.54"
       x1="45.448">
      <stop
         id="stop3750-1"
         offset="0" />
      <stop
         id="stop3752-6"
         style="stop-opacity:.58824"
         offset="1" />
    </linearGradient>
    <filter
       id="filter3174-2"
       color-interpolation-filters="sRGB">
      <feGaussianBlur
         id="feGaussianBlur3176-6"
         stdDeviation="1.71" />
    </filter>
    <linearGradient
       y2="7.0165"
       x2="45.448"
       y1="92.54"
       x1="45.448"
       gradientTransform="scale(1.0059,0.99417)"
       gradientUnits="userSpaceOnUse"
       id="linearGradient62873"
       xlink:href="#ButtonShadow" />
    <filter
       color-interpolation-filters="sRGB"
       id="filter3174-6">
      <feGaussianBlur
         stdDeviation="1.71"
         id="feGaussianBlur3176-5" />
    </filter>
    <linearGradient
       y2="7.0165"
       x2="45.448"
       y1="92.54"
       x1="45.448"
       gradientTransform="scale(1.0059,0.99417)"
       gradientUnits="userSpaceOnUse"
       id="linearGradient83486"
       xlink:href="#ButtonShadow" />
    <filter
       id="filter3174-1"
       color-interpolation-filters="sRGB">
      <feGaussianBlur
         id="feGaussianBlur3176-4"
         stdDeviation="1.71" />
    </filter>
    <linearGradient
       y2="7.0165"
       x2="45.448"
       y1="92.54"
       x1="45.448"
       gradientTransform="scale(1.0059,0.99417)"
       gradientUnits="userSpaceOnUse"
       id="linearGradient90210"
       xlink:href="#ButtonShadow" />
    <filter
       color-interpolation-filters="sRGB"
       id="filter3174-7">
      <feGaussianBlur
         stdDeviation="1.71"
         id="feGaussianBlur3176-60" />
    </filter>
    <linearGradient
       y2="7.0165"
       x2="45.448"
       y1="92.54"
       x1="45.448"
       gradientTransform="scale(1.0059,0.99417)"
       gradientUnits="userSpaceOnUse"
       id="linearGradient96921"
       xlink:href="#ButtonShadow" />
  </defs>
  <g
     id="layer2"
     style="display:none"
     transform="matrix(6.7274189,0,0,6.7274189,-1328.8681,-712.41656)">
    <rect
       id="rect3745"
       style="opacity:0.9;fill:url(#ButtonShadow);filter:url(#filter3174)"
       rx="6"
       ry="6"
       height="85"
       width="86"
       y="7"
       x="5" />
  </g>
  <g
     id="layer2-1"
     style="display:none"
     transform="matrix(6.7274189,0,0,6.7274189,-1522.6492,-780.80988)">
    <rect
       id="rect3745-0"
       style="opacity:0.9;fill:url(#linearGradient62873);filter:url(#filter3174-2)"
       rx="6"
       ry="6"
       height="85"
       width="86"
       y="7"
       x="5" />
  </g>
  <g
     transform="matrix(6.7274189,0,0,6.7274189,-1470.2509,-672.7018)"
     style="display:none"
     id="layer2-4">
    <rect
       x="5"
       y="7"
       width="86"
       height="85"
       ry="6"
       rx="6"
       style="opacity:0.9;fill:url(#linearGradient83486);filter:url(#filter3174-6)"
       id="rect3745-4" />
  </g>
  <g
     id="layer2-9"
     style="display:none"
     transform="matrix(6.7274189,0,0,6.7274189,-1342.1668,-799.80803)">
    <rect
       id="rect3745-1"
       style="opacity:0.9;fill:url(#linearGradient90210);filter:url(#filter3174-1)"
       rx="6"
       ry="6"
       height="85"
       width="86"
       y="7"
       x="5" />
  </g>
  <g
     transform="matrix(6.7274189,0,0,6.7274189,-1429.5583,-733.31302)"
     style="display:none"
     id="layer2-5">
    <rect
       x="5"
       y="7"
       width="86"
       height="85"
       ry="6"
       rx="6"
       style="opacity:0.9;fill:url(#linearGradient96921);filter:url(#filter3174-7)"
       id="rect3745-14" />
  </g>
  <rect
     style="fill:#cd1d31"
     id="rect4"
     y="-4.2382812e-06"
     x="2.0507812e-07"
     rx="25.988001"
     height="512"
     width="512" />
  <path
     style="fill-opacity:0.23500001"
     id="path6"
     d="m 213.94,40.03001 c -29.706,1.239 -20.266,49.791 -51.969,39.25 -32.597,-12.92 -11.547,47.95 -28.344,25.813 -6.767,-5.23 -11.02,-18.479 -22.06,-14.09 -36.472,7.907 -56.715,46.711 -51.19,82.03 0.497,82.26 -0.789,164.91 1,247 10.11,32.76 40.778,51.28 63.06,75.34 5.676,5.559 11.392,11.1 17.09,16.625 l 344.47,0 c 14.397,0 26,-11.603 26,-26 l 0,-223.09 c -2.147,-2.26 -4.3,-4.512 -6.438,-6.781 -50.26,-50.981 -99.24,-103.31 -150.41,-153.34 -17.782,-17.01 -39.601,-15.04 -36.438,2.406 -12.799,-11.23 -23.06,-30.05 -43.09,-25.938 -16.946,-14.548 -30.16,-38.826 -55.16,-38.781 -2.351,-0.369 -4.52,-0.489 -6.5,-0.406 l -0.031,-0.031" />
  <path
     d="m 219.57508,40.02804 c -9.60562,0.12897 -19.11342,3.91934 -26.497,11.30292 -6.31481,6.3074 -11.34887,17.26345 -11.34887,24.69002 l 0,2.77941 -14.95692,0 c -16.76093,0.0252 -19.78789,0.79157 -24.04223,5.83749 -4.12093,4.90658 -4.42926,7.98394 -2.36287,25.39266 1.02134,8.58429 2.42513,17.49618 3.15,19.78048 2.21166,6.96704 8.98304,12.95425 16.72239,14.86797 1.38896,0.3439 29.08074,0.58256 61.56348,0.50993 58.00435,-0.13786 59.13242,-0.17196 62.86646,-1.89889 10.13334,-4.71091 12.73042,-9.67086 15.14813,-29.09112 2.63414,-21.16648 2.35546,-24.78341 -2.31691,-29.78041 -4.52561,-4.83988 -7.51551,-5.58105 -23.53231,-5.60477 l -14.49886,0 -0.50993,-3.14999 C 257.12301,64.13995 253.6469,57.13733 246.63687,50.64908 238.87825,43.46413 229.18961,39.91242 219.58398,40.04138 m 0.64927,18.85401 c 6.27775,0.0356 12.58811,2.91579 16.72239,8.8022 2.1583,3.06253 2.60597,4.56415 2.87279,9.82057 0.27868,5.54102 0.083,6.71059 -2.03823,10.60769 -2.7379,5.02665 -7.66523,8.79479 -13.1099,10.05182 -4.91251,1.13103 -5.49656,1.10731 -10.88638,-0.74118 -11.13097,-3.82594 -16.71794,-17.54509 -11.39631,-27.84001 3.69105,-7.13159 10.71888,-10.74111 17.83267,-10.70109 m 100.56856,29.88418 0.50992,3.24338 c 0.65965,3.89265 -3.14258,35.55417 -5.14227,42.7569 -3.71477,13.38562 -16.97587,25.72026 -30.94405,28.81392 -5.25197,1.16661 -13.89852,1.32374 -67.63222,1.11177 l -61.56348,-0.23125 -5.09632,-2.03823 c -12.65779,-5.07557 -22.33901,-14.77458 -26.08046,-26.08047 -1.66765,-5.03406 -5.55881,-34.18299 -5.55881,-41.68368 0,-6.56829 0.43284,-6.37855 -8.56947,-4.07646 -24.98353,6.39337 -43.78417,25.39265 -49.70468,50.30799 -1.6128,6.80547 -1.66023,10.34681 -1.4364,141.84607 l 0.23125,134.84938 1.99228,5.88345 c 8.51313,25.18957 27.25448,42.08392 52.44554,47.24991 4.42334,0.91164 33.2076,1.1503 151.02182,1.20515 161.60579,0.0726 150.79946,0.46842 162.36179,-5.60477 11.16062,-5.86269 19.47808,-16.12055 23.20767,-28.48928 1.75807,-5.87752 1.79958,-6.43192 1.57574,-98.29463 l -0.23124,-92.36523 -2.77941,-5.9294 c -2.55557,-5.43133 -5.21935,-8.32488 -32.93782,-36.13228 -16.56822,-16.62159 -31.14417,-30.72912 -32.4264,-31.411 l -2.31692,-1.2511 -0.046,-9.91396 c -0.0237,-12.13748 -0.99021,-19.46325 -3.79926,-27.88745 -7.74676,-23.25066 -28.89693,-41.17227 -53.40907,-45.25763 l -3.65993,-0.60183 m 44.75215,102.19024 0.32464,17.14042 c 0.29647,15.25041 0.54402,17.62366 2.22352,21.86466 3.68809,9.32695 10.92937,16.59046 20.15107,20.19702 4.2914,1.67357 6.89737,1.98042 22.55988,2.40882 l 17.74225,0.46397 0,178.01541 -2.08419,4.12242 c -2.33914,4.57601 -5.95904,8.05212 -11.25696,10.88638 l -3.56654,1.89889 -82.22595,0.18529 c -78.0057,0.18678 -82.52835,0.13045 -86.76195,-1.34301 -5.92791,-2.06046 -9.97028,-5.49803 -13.15585,-11.11762 l -2.59411,-4.63235 0,-222.72308 1.89889,-3.56654 c 2.57336,-4.81022 6.7773,-8.87483 11.71946,-11.30292 l 4.07646,-1.99227 60.45171,-0.23125 60.49915,-0.27868"
     id="path56"
     style="fill:#ffffff" />
  <text
     x="286.76999"
     y="417.04889"
     id="text58"
     style="font-size:233.12919617px;line-height:125%;font-family:Sesame;letter-spacing:0;word-spacing:0;fill:#ffffff">
    <tspan
       x="286.76999"
       y="417.04889"
       id="tspan60">!</tspan>
  </text>
</svg>
