<?xml version="1.0" encoding="UTF-8" standalone="no"?>
<svg
   xmlns:dc="http://purl.org/dc/elements/1.1/"
   xmlns:cc="http://creativecommons.org/ns#"
   xmlns:rdf="http://www.w3.org/1999/02/22-rdf-syntax-ns#"
   xmlns:svg="http://www.w3.org/2000/svg"
   xmlns="http://www.w3.org/2000/svg"
   xmlns:xlink="http://www.w3.org/1999/xlink"
   id="svg2"
   viewBox="0 0 512 512"
   height="100%"
   width="100%"
   version="1.1">
  <metadata
     id="metadata106">
    <rdf:RDF>
      <cc:Work
         rdf:about="">
        <dc:format>image/svg+xml</dc:format>
        <dc:type
           rdf:resource="http://purl.org/dc/dcmitype/StillImage" />
        <dc:title />
      </cc:Work>
    </rdf:RDF>
  </metadata>
  <defs
     id="defs104">
    <filter
       id="filter3174"
       color-interpolation-filters="sRGB">
      <feGaussianBlur
         id="feGaussianBlur3176"
         stdDeviation="1.71" />
    </filter>
    <linearGradient
       id="ButtonShadow"
       y2="7.0165"
       gradientUnits="userSpaceOnUse"
       x2="45.448"
       gradientTransform="scale(1.0059,0.99417)"
       y1="92.54"
       x1="45.448">
      <stop
         id="stop3750-1"
         offset="0" />
      <stop
         id="stop3752-6"
         style="stop-opacity:.58824"
         offset="1" />
    </linearGradient>
    <filter
       id="filter3174-2"
       color-interpolation-filters="sRGB">
      <feGaussianBlur
         id="feGaussianBlur3176-6"
         stdDeviation="1.71" />
    </filter>
    <linearGradient
       y2="7.0165"
       x2="45.448"
       y1="92.54"
       x1="45.448"
       gradientTransform="scale(1.0059,0.99417)"
       gradientUnits="userSpaceOnUse"
       id="linearGradient62873"
       xlink:href="#ButtonShadow" />
    <filter
       color-interpolation-filters="sRGB"
       id="filter3174-6">
      <feGaussianBlur
         stdDeviation="1.71"
         id="feGaussianBlur3176-5" />
    </filter>
    <linearGradient
       y2="7.0165"
       x2="45.448"
       y1="92.54"
       x1="45.448"
       gradientTransform="scale(1.0059,0.99417)"
       gradientUnits="userSpaceOnUse"
       id="linearGradient83486"
       xlink:href="#ButtonShadow" />
    <filter
       id="filter3174-1"
       color-interpolation-filters="sRGB">
      <feGaussianBlur
         id="feGaussianBlur3176-4"
         stdDeviation="1.71" />
    </filter>
    <linearGradient
       y2="7.0165"
       x2="45.448"
       y1="92.54"
       x1="45.448"
       gradientTransform="scale(1.0059,0.99417)"
       gradientUnits="userSpaceOnUse"
       id="linearGradient90210"
       xlink:href="#ButtonShadow" />
    <filter
       color-interpolation-filters="sRGB"
       id="filter3174-7">
      <feGaussianBlur
         stdDeviation="1.71"
         id="feGaussianBlur3176-60" />
    </filter>
    <linearGradient
       y2="7.0165"
       x2="45.448"
       y1="92.54"
       x1="45.448"
       gradientTransform="scale(1.0059,0.99417)"
       gradientUnits="userSpaceOnUse"
       id="linearGradient96921"
       xlink:href="#ButtonShadow" />
    <linearGradient
       id="ButtonShadow-4"
       gradientTransform="scale(1.0058652,0.994169)"
       x1="45.447727"
       y1="92.539597"
       x2="45.447727"
       y2="7.0165396"
       gradientUnits="userSpaceOnUse">
      <stop
         style="stop-color:#000000;stop-opacity:1;"
         offset="0"
         id="stop3750" />
      <stop
         style="stop-color:#000000;stop-opacity:0.58823532;"
         offset="1"
         id="stop3752" />
    </linearGradient>
    <filter
       id="filter3174-0">
      <feGaussianBlur
         stdDeviation="1.71"
         id="feGaussianBlur3176-41" />
    </filter>
    <linearGradient
       y2="7.0165396"
       x2="45.447727"
       y1="92.539597"
       x1="45.447727"
       gradientTransform="scale(1.0058652,0.994169)"
       gradientUnits="userSpaceOnUse"
       id="linearGradient6345"
       xlink:href="#ButtonShadow-4" />
    <filter
       id="filter3174-9">
      <feGaussianBlur
         stdDeviation="1.71"
         id="feGaussianBlur3176-1" />
    </filter>
    <linearGradient
       y2="7.0165396"
       x2="45.447727"
       y1="92.539597"
       x1="45.447727"
       gradientTransform="scale(1.0058652,0.994169)"
       gradientUnits="userSpaceOnUse"
       id="linearGradient6345-7"
       xlink:href="#ButtonShadow-4" />
    <filter
       id="filter3174-94">
      <feGaussianBlur
         stdDeviation="1.71"
         id="feGaussianBlur3176-8" />
    </filter>
    <linearGradient
       y2="7.0165396"
       x2="45.447727"
       y1="92.539597"
       x1="45.447727"
       gradientTransform="scale(1.0058652,0.994169)"
       gradientUnits="userSpaceOnUse"
       id="linearGradient6345-6"
       xlink:href="#ButtonShadow-4" />
    <filter
       color-interpolation-filters="sRGB"
       id="filter3174-4">
      <feGaussianBlur
         stdDeviation="1.71"
         id="feGaussianBlur3176-2" />
    </filter>
    <linearGradient
       y2="7.0165"
       x2="45.448"
       y1="92.54"
       x1="45.448"
       gradientTransform="scale(1.0059,0.99417)"
       gradientUnits="userSpaceOnUse"
       id="linearGradient107043"
       xlink:href="#ButtonShadow" />
  </defs>
  <g
     id="layer2"
     style="display:none"
     transform="matrix(6.7274189,0,0,6.7274189,-1328.8681,-712.41656)">
    <rect
       id="rect3745"
       style="opacity:0.9;fill:url(#ButtonShadow);filter:url(#filter3174)"
       rx="6"
       ry="6"
       height="85"
       width="86"
       y="7"
       x="5" />
  </g>
  <g
     id="layer2-1"
     style="display:none"
     transform="matrix(6.7274189,0,0,6.7274189,-1522.6492,-780.80988)">
    <rect
       id="rect3745-0"
       style="opacity:0.9;fill:url(#linearGradient62873);filter:url(#filter3174-2)"
       rx="6"
       ry="6"
       height="85"
       width="86"
       y="7"
       x="5" />
  </g>
  <g
     transform="matrix(6.7274189,0,0,6.7274189,-1470.2509,-672.7018)"
     style="display:none"
     id="layer2-4">
    <rect
       x="5"
       y="7"
       width="86"
       height="85"
       ry="6"
       rx="6"
       style="opacity:0.9;fill:url(#linearGradient83486);filter:url(#filter3174-6)"
       id="rect3745-4" />
  </g>
  <g
     id="layer2-9"
     style="display:none"
     transform="matrix(6.7274189,0,0,6.7274189,-1342.1668,-799.80803)">
    <rect
       id="rect3745-1"
       style="opacity:0.9;fill:url(#linearGradient90210);filter:url(#filter3174-1)"
       rx="6"
       ry="6"
       height="85"
       width="86"
       y="7"
       x="5" />
  </g>
  <g
     transform="matrix(6.7274189,0,0,6.7274189,-1429.5583,-733.31302)"
     style="display:none"
     id="layer2-5">
    <rect
       x="5"
       y="7"
       width="86"
       height="85"
       ry="6"
       rx="6"
       style="opacity:0.9;fill:url(#linearGradient96921);filter:url(#filter3174-7)"
       id="rect3745-14" />
  </g>
  <g
     transform="matrix(4.4306853,0,0,4.4306853,-1091.8904,5.309015)"
     style="display:none"
     id="layer2-0">
    <rect
       ry="6"
       rx="6"
       y="7"
       x="5"
       height="85"
       width="86"
       id="rect3745-11"
       style="opacity:0.9;fill:url(#linearGradient6345);fill-opacity:1;fill-rule:nonzero;stroke:none;filter:url(#filter3174-0)" />
  </g>
  <g
     transform="matrix(4.4306853,0,0,4.4306853,-1169.7828,28.106788)"
     style="display:none"
     id="layer2-8">
    <rect
       ry="6"
       rx="6"
       y="7"
       x="5"
       height="85"
       width="86"
       id="rect3745-09"
       style="opacity:0.9;fill:url(#linearGradient6345-7);fill-opacity:1;fill-rule:nonzero;stroke:none;filter:url(#filter3174-9)" />
  </g>
  <g
     transform="matrix(4.4306853,0,0,4.4306853,-1205.8793,73.702332)"
     style="display:none"
     id="layer2-96">
    <rect
       ry="6"
       rx="6"
       y="7"
       x="5"
       height="85"
       width="86"
       id="rect3745-5"
       style="opacity:0.9;fill:url(#linearGradient6345-6);fill-opacity:1;fill-rule:nonzero;stroke:none;filter:url(#filter3174-94)" />
  </g>
  <g
     transform="matrix(6.7274189,0,0,6.7274189,-1387.7624,-714.31638)"
     style="display:none"
     id="layer2-55">
    <rect
       x="5"
       y="7"
       width="86"
       height="85"
       ry="6"
       rx="6"
       style="opacity:0.9;fill:url(#linearGradient107043);filter:url(#filter3174-4)"
       id="rect3745-6" />
  </g>
  <rect
     style="fill:#cd1c30"
     id="rect4"
     y="4.4921876e-06"
     x="-0.0050059571"
     rx="25.988001"
     height="512"
     width="512" />
  <path
     style="fill-opacity:0.23500001"
     id="path148"
     d="m 383.685,50.34002 c -12.43199,0.167 -25.05,1.337 -37.21999,0.375 -93.99001,-0.094 -188.02,0.204 -282,-0.125 -27.692,4.079 -23.836,35.31 -23.625,56.03 0.423,85.41 -0.856,170.9 0.625,256.25 11.33,23.05 34.556,38.03 51.38,57.31 30.653,30.575 61.28,61.18 91.88,91.81 l 301.28,0 c 14.397,0 26,-11.603 26,-26 l 0,-338.25 c -30.704,-30.645 -61.46,-61.23 -92.31001,-91.72 -11.335,-5.02 -23.568,-5.854 -36,-5.688" />
  <path
     d="m 212.84501,266.94402 65.05,-64.31 64.27,64.3 64.28,-64.28 64.758,64.825 -64.13,64.4 64.37,64.4 -64.48,65.17 -64.53,-64.66 -64.62,64.899 -64.711,-65.71 64.33,-64.33"
     id="path360"
     style="fill:#ffffff" />
  <path
     d="m 64.18501,50.32402 c -0.502,0.017 -0.969,0.053 -1.422,0.142 -12.735,2.572 -22.21,14.07 -22.21,27.571 l 0,278.76 c 0,15.385 12.819,27.571 28.28,27.571 l 134.48,0 27.571,-27.571 -162.05,0 0,-236.32 333.93,0 0.873,58.05 c 4.462,4.462 9.04,8.897 13.526,13.381 l 13.878,13.878 0,-127.75 c 0,-15.436 -12.922,-27.571 -28.28,-27.571 l -333.93,0 c -1.452,0 -3.136,-0.192 -4.643,-0.142"
     id="path362"
     style="fill:#fff8eb;fill-rule:evenodd" />
</svg>
