<?xml version="1.0" encoding="UTF-8" standalone="no"?>
<svg
   xmlns:dc="http://purl.org/dc/elements/1.1/"
   xmlns:cc="http://creativecommons.org/ns#"
   xmlns:rdf="http://www.w3.org/1999/02/22-rdf-syntax-ns#"
   xmlns:svg="http://www.w3.org/2000/svg"
   xmlns="http://www.w3.org/2000/svg"
   id="svg2"
   viewBox="0 0 512 512"
   height="100%"
   width="100%"
   version="1.1">
  <metadata
     id="metadata2229">
    <rdf:RDF>
      <cc:Work
         rdf:about="">
        <dc:format>image/svg+xml</dc:format>
        <dc:type
           rdf:resource="http://purl.org/dc/dcmitype/StillImage" />
        <dc:title />
      </cc:Work>
    </rdf:RDF>
  </metadata>
  <defs
     id="defs4">
    <linearGradient
       gradientTransform="translate(-1240.9492,-2.1694915)"
       y1="0.107"
       x2="0"
       y2="512.53998"
       id="0-7-2-0"
       gradientUnits="userSpaceOnUse">
      <stop
         id="stop7-1-7-5"
         style="stop-color:#6a6a6a;stop-opacity:1"
         offset="0" />
      <stop
         id="stop9-1-8-1"
         style="stop-color:#000000;stop-opacity:1"
         offset="0.47" />
      <stop
         id="stop11-8-1-9"
         style="stop-color:#ffffff;stop-opacity:1"
         offset="0.49399999" />
      <stop
         id="stop13-1-8-0"
         style="stop-color:#ffffff;stop-opacity:1"
         offset="0.90100002" />
      <stop
         id="stop15-0-2-2"
         style="stop-color:#000000;stop-opacity:1"
         offset="0.95499998" />
      <stop
         id="stop17-9-3-1"
         style="stop-color:#000000;stop-opacity:1"
         offset="1" />
    </linearGradient>
  </defs>
  <g
     transform="translate(1240.9482,2.1694908)"
     id="g4442">
    <path
       style="fill:#6997c7;fill-rule:evenodd"
       id="path19"
       d="m -1190.6992,-2.1694915 c -27.823,0 -50.25,22.3949995 -50.25,50.2199995 l 0,411.560002 c 0,27.823 22.427,50.22 50.25,50.22 l 411.53004,0 c 27.823,0 50.22,-22.395 50.22,-50.22 l 0,-411.560002 c 0,-27.823 -22.395,-50.2199995 -50.22,-50.2199995 l -411.53004,0" />
    <path
       style="opacity:0.05;fill:url(#0-7-2-0);fill-rule:evenodd"
       id="path1333"
       d="m -1190.6992,-2.1694915 c -27.823,0 -50.25,22.3949995 -50.25,50.2199995 l 0,411.560002 c 0,27.823 22.427,50.22 50.25,50.22 l 411.53004,0 c 27.823,0 50.22,-22.395 50.22,-50.22 l 0,-411.560002 c 0,-27.823 -22.395,-50.2199995 -50.22,-50.2199995 l -411.53004,0" />
    <path
       style="color:#000000;opacity:0.25;fill:#000000"
       d="m -1169.0585,90.826602 59.498,59.496098 c -8e-4,0.002 -10e-4,0.004 0,0.006 l -59.4999,-59.498192 c -19.5865,32.402442 -30.8867,70.384792 -30.8867,111.011722 0,56.49041 21.7874,107.89531 57.416,146.25976 l 12.8437,12.84375 -31.3047,18.04493 130.8399,130.83984 250.98435,0 c 27.823,0 50.2207,-22.3957 50.2207,-50.2207 l 0,-296.7793 -71.61133,-71.61133 c 0.003,0.0045 0.005,0.0092 0.008,0.01367 l -0.0137,-0.01367 c -23.17254,13.31932 -46.35286,26.62858 -69.51758,39.96485 12.67904,20.55146 20.00196,44.74134 20.00196,70.65234 0,42.0418 -19.24611,79.57125 -49.39649,104.29297 l 49.12696,49.12695 -61.83008,-36.2793 -187.67199,-187.67382 c -23.05,-13.53448 -46.1108,-27.01119 -69.2051,-40.476568 z"
       id="path4267" />
    <path
       d="m -1169.062,90.830505 c -19.5865,32.402445 -30.8871,70.384815 -30.8871,111.011745 0,56.49041 21.7876,107.89511 57.4162,146.25956 24.1636,-13.88657 48.3272,-27.76793 72.4648,-41.69362 -30.3499,-24.72043 -49.7486,-62.37026 -49.7486,-104.56985 0,-25.86536 7.3338,-50.0094 19.9633,-70.53478 -23.05,-13.53448 -46.1104,-27.01159 -69.2047,-40.476967 m 368.49172,0.392512 c -23.17254,13.319325 -46.35291,26.628215 -69.51763,39.964485 12.67904,20.55146 20.00246,44.74114 20.00246,70.65214 0,42.0418 -19.24613,79.57167 -49.39651,104.29339 23.96669,14.0835 47.91904,28.16958 71.91704,42.20481 35.74726,-38.39053 57.61187,-89.90086 57.61187,-146.49429 0,-40.47697 -11.16898,-78.29373 -30.61201,-110.620535 M -983.88115,276.89938 -1160.994,378.99158 c 22.3902,12.92813 43.4632,25.20292 65.1544,37.72549 l 111.7159,-64.32762 109.51993,64.44497 c 21.64032,-12.60079 43.35887,-25.11424 65.037,-37.64593 L -983.88898,276.90068"
       style="color:#000000;fill:#ffffff"
       id="path2610" />
  </g>
</svg>
