<svg xmlns="http://www.w3.org/2000/svg" viewBox="0 0 512 512"><defs><linearGradient y1="121.76" x2="0" y2="453.26" id="0" gradientUnits="userSpaceOnUse"><stop style="stop-color:#6a6a6a"/><stop offset=".47"/><stop offset=".494" style="stop-color:#fff"/><stop offset=".901" style="stop-color:#fff"/><stop offset=".955"/><stop offset="1"/></linearGradient></defs><text x="729.64" y="233.74" line-height="125%" style="letter-spacing:0;word-spacing:0;font-size:129.23;font-family:Gentium Book Basic"><tspan x="729.64" y="233.74"/></text><text x="378.91" y="588.81" transform="scale(4.0128.2492)" style="font-size:46.954;font-family:Arial;text-anchor:middle"/><text x="1310.91" y="153.74" line-height="125%" style="letter-spacing:0;word-spacing:0;font-size:129.23;font-family:Gentium Book Basic"><tspan x="1310.91" y="153.74"/></text><text x="523.76" y="267.77" transform="scale(4.0128.2492)" style="font-size:46.954;font-family:Arial;text-anchor:middle"/><text x="239.33" y="-27.52" line-height="125%" style="letter-spacing:0;word-spacing:0;font-size:129.23;font-family:Gentium Book Basic"><tspan x="239.33" y="-27.52"/></text><text x="256.72" y="-459.58" transform="scale(4.0128.2492)" style="font-size:46.954;font-family:Arial;text-anchor:middle"/><text x="1337.38" y="-243.99" line-height="125%" style="letter-spacing:0;word-spacing:0;font-size:129.23;font-family:Gentium Book Basic"><tspan x="1337.38" y="-243.99"/></text><text x="530.36" y="-1328.26" transform="scale(4.0128.2492)" style="font-size:46.954;font-family:Arial;text-anchor:middle"/><text x="1918.65" y="-324" line-height="125%" style="letter-spacing:0;word-spacing:0;font-size:129.23;font-family:Gentium Book Basic"><tspan x="1918.65" y="-324"/></text><text x="675.21" y="-1649.29" transform="scale(4.0128.2492)" style="font-size:46.954;font-family:Arial;text-anchor:middle"/><text x="1529.53" y="-796.4" line-height="125%" style="letter-spacing:0;word-spacing:0;font-size:129.23;font-family:Gentium Book Basic"><tspan x="1529.53" y="-796.4"/></text><text x="578.24" y="-3544.95" transform="scale(4.0128.2492)" style="font-size:46.954;font-family:Arial;text-anchor:middle"/><text x="2110.8" y="-876.4" line-height="125%" style="letter-spacing:0;word-spacing:0;font-size:129.23;font-family:Gentium Book Basic"><tspan x="2110.8" y="-876.4"/></text><text x="723.09" y="-3865.99" transform="scale(4.0128.2492)" style="font-size:46.954;font-family:Arial;text-anchor:middle"/><g line-height="125%" style="letter-spacing:0;word-spacing:0;font-family:Gentium Book Basic"><text x="277.99" y="538.32" style="font-size:208.33"><tspan x="277.99" y="538.32"/></text><text x="3833.78" y="-509.14" style="font-size:129.23"><tspan x="3833.78" y="-509.14"/></text></g><text x="1152.46" y="-2392.23" transform="scale(4.0128.2492)" style="font-size:46.954;font-family:Arial;text-anchor:middle"/><text x="4415.05" y="-589.14" line-height="125%" style="letter-spacing:0;word-spacing:0;font-size:129.23;font-family:Gentium Book Basic"><tspan x="4415.05" y="-589.14"/></text><text x="1297.31" y="-2713.26" transform="scale(4.0128.2492)" style="font-size:46.954;font-family:Arial;text-anchor:middle"/><text x="3343.47" y="-770.39" line-height="125%" style="letter-spacing:0;word-spacing:0;font-size:129.23;font-family:Gentium Book Basic"><tspan x="3343.47" y="-770.39"/></text><text x="1030.27" y="-3440.62" transform="scale(4.0128.2492)" style="font-size:46.954;font-family:Arial;text-anchor:middle"/><text x="4441.52" y="-986.87" line-height="125%" style="letter-spacing:0;word-spacing:0;font-size:129.23;font-family:Gentium Book Basic"><tspan x="4441.52" y="-986.87"/></text><text x="1303.91" y="-4309.29" transform="scale(4.0128.2492)" style="font-size:46.954;font-family:Arial;text-anchor:middle"/><text x="5022.79" y="-1066.87" line-height="125%" style="letter-spacing:0;word-spacing:0;font-size:129.23;font-family:Gentium Book Basic"><tspan x="5022.79" y="-1066.87"/></text><text x="1448.76" y="-4630.32" transform="scale(4.0128.2492)" style="font-size:46.954;font-family:Arial;text-anchor:middle"/><text x="4633.67" y="-1539.27" line-height="125%" style="letter-spacing:0;word-spacing:0;font-size:129.23;font-family:Gentium Book Basic"><tspan x="4633.67" y="-1539.27"/></text><text x="1351.79" y="-6525.99" transform="scale(4.0128.2492)" style="font-size:46.954;font-family:Arial;text-anchor:middle"/><text x="5214.93" y="-1619.27" line-height="125%" style="letter-spacing:0;word-spacing:0;font-size:129.23;font-family:Gentium Book Basic"><tspan x="5214.93" y="-1619.27"/></text><text x="1496.64" y="-6847.02" transform="scale(4.0128.2492)" style="font-size:46.954;font-family:Arial;text-anchor:middle"/><text x="3382.13" y="-204.56" line-height="125%" style="letter-spacing:0;word-spacing:0;font-size:208.33;font-family:Gentium Book Basic"><tspan x="3382.13" y="-204.56"/></text><g style="fill-rule:evenodd"><path d="m108.63 57.39c-7.963 0-15.228 2.293-20.693 6.22-4.545 3.266-7.751 7.872-8.752 13.13h-11.909c-16.447 0-29.883 13.03-29.883 29.2v66.736c0 16.17 13.436 29.19 29.883 29.19h377.47c16.447 0 29.883-13.03 29.883-29.19v-66.736c0-16.17-13.436-29.2-29.883-29.2h-262.91c-1-5.256-4.208-9.862-8.753-13.13-5.465-3.927-12.73-6.22-20.693-6.22h-43.761" style="fill:#ccc"/><path d="m37.36 118.48c-19.928 0-38.06 15.818-36.23 35.853l24.26 265.41c1.733 18.966 16.271 34.947 36.2 34.947h383.41c19.933 0 34.1-16.05 36.2-34.853l29.632-265.41c1.123-10.05-3.137-19.263-9.971-25.663-6.833-6.399-16.258-10.284-26.22-10.284h-437.27" style="fill:#6997c7"/></g><path d="m37.36 118.47c-19.928 0-38.08 15.84-36.25 35.875l11.781 128.78 12.469 136.63c1.733 18.966 16.29 34.938 36.22 34.938h383.41c19.933 0 34.09-16.04 36.19-34.844l15.281-136.72 14.375-128.69c1.123-10.05-3.135-19.287-9.969-25.688-6.833-6.399-16.257-10.281-26.22-10.281h-437.28" style="fill:url(#0);opacity:.05"/><g style="fill:#fff;fill-rule:evenodd"><path d="m108.55 57.31c-7.963 0-15.11 2.403-20.572 6.33-4.545 3.266-7.702 7.931-8.703 13.187h-12.13c-17.677 0-29.802 12.771-29.802 30.661v3.956c0-16.17 13.355-29.27 29.802-29.27h14.286c1-5.256 2-9.657 6.549-12.923 5.465-3.927 12.609-6.33 20.572-6.33h43.78c7.963 0 15.371 2.403 20.835 6.33 4.545 3.266 5.766 7.668 6.769 12.923h264.88c16.447 0 29.802 11.455 29.802 27.625v-3.956c0-16.17-13.355-29.01-29.802-29.01h-262.95c-1-5.256-4.159-9.921-8.703-13.187-5.465-3.927-12.872-6.33-20.835-6.33z" style="opacity:.764"/><path d="m37.35 118.47c-19.928 0-38.05 15.84-36.22 35.875l.406 4.375c3-15.936 18.732-27.563 35.813-27.563h437.28c9.966 0 19.386 3.882 26.22 10.281 4.736 4.435 8.234 10.208 9.563 16.688l.406-3.688c1.123-10.05-3.134-19.288-9.969-25.688-6.833-6.399-16.252-10.281-26.22-10.281h-437.28" style="opacity:.4"/></g><text x="90.12" y="140.66" line-height="125%" style="letter-spacing:0;word-spacing:0;font-size:129.23;font-family:Gentium Book Basic"><tspan x="90.12" y="140.66"/></text><text x="219.54" y="215.29" transform="scale(4.0128.2492)" style="font-size:46.954;font-family:Arial;text-anchor:middle"/><text x="671.39" y="60.662" line-height="125%" style="letter-spacing:0;word-spacing:0;font-size:129.23;font-family:Gentium Book Basic"><tspan x="671.39" y="60.662"/></text><text x="364.39" y="-105.74" transform="scale(4.0128.2492)" style="font-size:46.954;font-family:Arial;text-anchor:middle"/><text x="-400.19" y="-120.6" line-height="125%" style="letter-spacing:0;word-spacing:0;font-size:129.23;font-family:Gentium Book Basic"><tspan x="-400.19" y="-120.6"/></text><text x="97.35" y="-833.09" transform="scale(4.0128.2492)" style="font-size:46.954;font-family:Arial;text-anchor:middle"/><text x="697.86" y="-337.07" line-height="125%" style="letter-spacing:0;word-spacing:0;font-size:129.23;font-family:Gentium Book Basic"><tspan x="697.86" y="-337.07"/></text><text x="370.99" y="-1701.76" transform="scale(4.0128.2492)" style="font-size:46.954;font-family:Arial;text-anchor:middle"/><text x="1279.13" y="-417.08" line-height="125%" style="letter-spacing:0;word-spacing:0;font-size:129.23;font-family:Gentium Book Basic"><tspan x="1279.13" y="-417.08"/></text><text x="515.84" y="-2022.8" transform="scale(4.0128.2492)" style="font-size:46.954;font-family:Arial;text-anchor:middle"/><text x="890.01" y="-889.48" line-height="125%" style="letter-spacing:0;word-spacing:0;font-size:129.23;font-family:Gentium Book Basic"><tspan x="890.01" y="-889.48"/></text><text x="418.87" y="-3918.45" transform="scale(4.0128.2492)" style="font-size:46.954;font-family:Arial;text-anchor:middle"/><text x="1471.27" y="-969.48" line-height="125%" style="letter-spacing:0;word-spacing:0;font-size:129.23;font-family:Gentium Book Basic"><tspan x="1471.27" y="-969.48"/></text><text x="563.72" y="-4239.48" transform="scale(4.0128.2492)" style="font-size:46.954;font-family:Arial;text-anchor:middle"/><g line-height="125%" style="letter-spacing:0;word-spacing:0;font-size:208.33;font-family:Gentium Book Basic"><text x="-361.53" y="445.24"><tspan x="-361.53" y="445.24"/></text><text x="-2585.36" y="426.28"><tspan x="-2585.36" y="426.28"/></text></g><text x="-326.55" y="1147.7" transform="scale(4.0128.2492)" style="font-size:75.7;font-family:Arial;text-anchor:middle"/><text x="-1879.02" y="270.65" line-height="125%" style="letter-spacing:0;word-spacing:0;font-size:208.33;font-family:Gentium Book Basic"><tspan x="-1879.02" y="270.65"/></text><text x="-150.53" y="523.17" transform="scale(4.0128.2492)" style="font-size:75.7;font-family:Arial;text-anchor:middle"/><text x="-1845.65" y="262.53" line-height="125%" style="letter-spacing:0;word-spacing:0;font-size:208.33;font-family:Gentium Book Basic"><tspan x="-1845.65" y="262.53"/></text><text x="-142.21" y="490.57" transform="scale(4.0128.2492)" style="font-size:75.7;font-family:Arial;text-anchor:middle"/><text x="-695.23" y="108.12" line-height="125%" style="letter-spacing:0;word-spacing:0;font-size:129.23;font-family:Gentium Book Basic"><tspan x="-695.23" y="108.12"/></text><text x="23.831" y="84.71" transform="scale(4.0128.2492)" style="font-size:46.954;font-family:Arial;text-anchor:middle"/><text x="-113.97" y="28.12" line-height="125%" style="letter-spacing:0;word-spacing:0;font-size:129.23;font-family:Gentium Book Basic"><tspan x="-113.97" y="28.12"/></text><text x="168.68" y="-236.33" transform="scale(4.0128.2492)" style="font-size:46.954;font-family:Arial;text-anchor:middle"/><text x="-1185.55" y="-153.14" line-height="125%" style="letter-spacing:0;word-spacing:0;font-size:129.23;font-family:Gentium Book Basic"><tspan x="-1185.55" y="-153.14"/></text><text x="-98.36" y="-963.66" transform="scale(4.0128.2492)" style="font-size:46.954;font-family:Arial;text-anchor:middle"/><text x="-87.5" y="-369.61" line-height="125%" style="letter-spacing:0;word-spacing:0;font-size:129.23;font-family:Gentium Book Basic"><tspan x="-87.5" y="-369.61"/></text><text x="175.28" y="-1832.34" transform="scale(4.0128.2492)" style="font-size:46.954;font-family:Arial;text-anchor:middle"/><text x="493.77" y="-449.61" line-height="125%" style="letter-spacing:0;word-spacing:0;font-size:129.23;font-family:Gentium Book Basic"><tspan x="493.77" y="-449.61"/></text><text x="320.12" y="-2153.37" transform="scale(4.0128.2492)" style="font-size:46.954;font-family:Arial;text-anchor:middle"/><text x="104.65" y="-922.01" line-height="125%" style="letter-spacing:0;word-spacing:0;font-size:129.23;font-family:Gentium Book Basic"><tspan x="104.65" y="-922.01"/></text><text x="223.16" y="-4049.01" transform="scale(4.0128.2492)" style="font-size:46.954;font-family:Arial;text-anchor:middle"/><text x="685.91" y="-1002.02" line-height="125%" style="letter-spacing:0;word-spacing:0;font-size:129.23;font-family:Gentium Book Basic"><tspan x="685.91" y="-1002.02"/></text><text x="368" y="-4370.04" transform="scale(4.0128.2492)" style="font-size:46.954;font-family:Arial;text-anchor:middle"/><g line-height="125%" style="letter-spacing:0;word-spacing:0;font-family:Gentium Book Basic"><text x="-1146.89" y="412.7" style="font-size:208.33"><tspan x="-1146.89" y="412.7"/></text><text x="-745.68" y="-630.89" style="font-size:129.23"><tspan x="-745.68" y="-630.89"/></text></g><text x="11.261" y="-2880.79" transform="scale(4.0128.2492)" style="font-size:46.954;font-family:Arial;text-anchor:middle"/><text x="-164.41" y="-710.89" line-height="125%" style="letter-spacing:0;word-spacing:0;font-size:129.23;font-family:Gentium Book Basic"><tspan x="-164.41" y="-710.89"/></text><text x="156.11" y="-3201.82" transform="scale(4.0128.2492)" style="font-size:46.954;font-family:Arial;text-anchor:middle"/><text x="-1235.99" y="-892.15" line-height="125%" style="letter-spacing:0;word-spacing:0;font-size:129.23;font-family:Gentium Book Basic"><tspan x="-1235.99" y="-892.15"/></text><text x="-110.93" y="-3929.18" transform="scale(4.0128.2492)" style="font-size:46.954;font-family:Arial;text-anchor:middle"/><text x="-137.94" y="-1108.62" line-height="125%" style="letter-spacing:0;word-spacing:0;font-size:129.23;font-family:Gentium Book Basic"><tspan x="-137.94" y="-1108.62"/></text><text x="162.71" y="-4797.83" transform="scale(4.0128.2492)" style="font-size:46.954;font-family:Arial;text-anchor:middle"/><text x="443.32" y="-1188.63" line-height="125%" style="letter-spacing:0;word-spacing:0;font-size:129.23;font-family:Gentium Book Basic"><tspan x="443.32" y="-1188.63"/></text><text x="307.55" y="-5118.87" transform="scale(4.0128.2492)" style="font-size:46.954;font-family:Arial;text-anchor:middle"/><text x="54.2" y="-1661.03" line-height="125%" style="letter-spacing:0;word-spacing:0;font-size:129.23;font-family:Gentium Book Basic"><tspan x="54.2" y="-1661.03"/></text><text x="210.59" y="-7014.51" transform="scale(4.0128.2492)" style="font-size:46.954;font-family:Arial;text-anchor:middle"/><text x="635.47" y="-1741.03" line-height="125%" style="letter-spacing:0;word-spacing:0;font-size:129.23;font-family:Gentium Book Basic"><tspan x="635.47" y="-1741.03"/></text><text x="355.43" y="-7335.54" transform="scale(4.0128.2492)" style="font-size:46.954;font-family:Arial;text-anchor:middle"/><g line-height="125%" style="letter-spacing:0;word-spacing:0;font-family:Gentium Book Basic"><text x="-1197.34" y="-326.31" style="font-size:208.33"><tspan x="-1197.34" y="-326.31"/></text><text x="2358.46" y="-1373.77" style="font-size:129.23"><tspan x="2358.46" y="-1373.77"/></text></g><text x="784.8" y="-5861.8" transform="scale(4.0128.2492)" style="font-size:46.954;font-family:Arial;text-anchor:middle"/><text x="2939.72" y="-1453.77" line-height="125%" style="letter-spacing:0;word-spacing:0;font-size:129.23;font-family:Gentium Book Basic"><tspan x="2939.72" y="-1453.77"/></text><text x="929.65" y="-6182.84" transform="scale(4.0128.2492)" style="font-size:46.954;font-family:Arial;text-anchor:middle"/><text x="1868.14" y="-1635.02" line-height="125%" style="letter-spacing:0;word-spacing:0;font-size:129.23;font-family:Gentium Book Basic"><tspan x="1868.14" y="-1635.02"/></text><text x="662.61" y="-6910.17" transform="scale(4.0128.2492)" style="font-size:46.954;font-family:Arial;text-anchor:middle"/><text x="2966.19" y="-1851.5" line-height="125%" style="letter-spacing:0;word-spacing:0;font-size:129.23;font-family:Gentium Book Basic"><tspan x="2966.19" y="-1851.5"/></text><text x="936.25" y="-7778.84" transform="scale(4.0128.2492)" style="font-size:46.954;font-family:Arial;text-anchor:middle"/><text x="3547.46" y="-1931.5" line-height="125%" style="letter-spacing:0;word-spacing:0;font-size:129.23;font-family:Gentium Book Basic"><tspan x="3547.46" y="-1931.5"/></text><text x="1081.1" y="-8099.88" transform="scale(4.0128.2492)" style="font-size:46.954;font-family:Arial;text-anchor:middle"/><text x="3158.34" y="-2403.9" line-height="125%" style="letter-spacing:0;word-spacing:0;font-size:129.23;font-family:Gentium Book Basic"><tspan x="3158.34" y="-2403.9"/></text><text x="984.13" y="-9995.52" transform="scale(4.0128.2492)" style="font-size:46.954;font-family:Arial;text-anchor:middle"/><text x="3739.61" y="-2483.9" line-height="125%" style="letter-spacing:0;word-spacing:0;font-size:129.23;font-family:Gentium Book Basic"><tspan x="3739.61" y="-2483.9"/></text><text x="1128.98" y="-10316.54" transform="scale(4.0128.2492)" style="font-size:46.954;font-family:Arial;text-anchor:middle"/><g line-height="125%" style="letter-spacing:0;word-spacing:0;font-size:208.33;font-family:Gentium Book Basic"><text x="1906.8" y="-1069.19"><tspan x="1906.8" y="-1069.19"/></text><text x="-2635.81" y="-315.11"><tspan x="-2635.81" y="-315.11"/></text></g><text x="-339.12" y="-1827.37" transform="scale(4.0128.2492)" style="font-size:75.7;font-family:Arial;text-anchor:middle"/><text x="-2635.81" y="-315.11" line-height="125%" style="letter-spacing:0;word-spacing:0;font-size:208.33;font-family:Gentium Book Basic"><tspan x="-2635.81" y="-315.11"/></text><text x="-339.12" y="-1827.37" transform="scale(4.0128.2492)" style="font-size:75.7;font-family:Arial;text-anchor:middle"/><text x="-2969.36" y="317.8" line-height="125%" style="letter-spacing:0;word-spacing:0;font-size:208.33;font-family:Gentium Book Basic"><tspan x="-2969.36" y="317.8"/></text><text x="-422.24" y="712.4" transform="scale(4.0128.2492)" style="font-size:75.7;font-family:Arial;text-anchor:middle"/><text x="-2263.02" y="162.17" line-height="125%" style="letter-spacing:0;word-spacing:0;font-size:208.33;font-family:Gentium Book Basic"><tspan x="-2263.02" y="162.17"/></text><text x="-246.22" y="87.88" transform="scale(4.0128.2492)" style="font-size:75.7;font-family:Arial;text-anchor:middle"/><text x="-79.58" y="253.05" line-height="125%" style="letter-spacing:0;word-spacing:0;font-size:129.23;font-family:Gentium Book Basic"><tspan x="-79.58" y="253.05"/></text><text x="177.25" y="666.3" transform="scale(4.0128.2492)" style="font-size:46.954;font-family:Arial;text-anchor:middle"/><text x="501.69" y="173.05" line-height="125%" style="letter-spacing:0;word-spacing:0;font-size:129.23;font-family:Gentium Book Basic"><tspan x="501.69" y="173.05"/></text><text x="322.1" y="345.28" transform="scale(4.0128.2492)" style="font-size:46.954;font-family:Arial;text-anchor:middle"/><text x="-569.89" y="-8.206" line-height="125%" style="letter-spacing:0;word-spacing:0;font-size:129.23;font-family:Gentium Book Basic"><tspan x="-569.89" y="-8.206"/></text><text x="55.06" y="-382.08" transform="scale(4.0128.2492)" style="font-size:46.954;font-family:Arial;text-anchor:middle"/><text x="528.16" y="-224.68" line-height="125%" style="letter-spacing:0;word-spacing:0;font-size:129.23;font-family:Gentium Book Basic"><tspan x="528.16" y="-224.68"/></text><text x="328.7" y="-1250.75" transform="scale(4.0128.2492)" style="font-size:46.954;font-family:Arial;text-anchor:middle"/><text x="1109.43" y="-304.69" line-height="125%" style="letter-spacing:0;word-spacing:0;font-size:129.23;font-family:Gentium Book Basic"><tspan x="1109.43" y="-304.69"/></text><text x="473.55" y="-1571.78" transform="scale(4.0128.2492)" style="font-size:46.954;font-family:Arial;text-anchor:middle"/><text x="720.31" y="-777.09" line-height="125%" style="letter-spacing:0;word-spacing:0;font-size:129.23;font-family:Gentium Book Basic"><tspan x="720.31" y="-777.09"/></text><text x="376.58" y="-3467.43" transform="scale(4.0128.2492)" style="font-size:46.954;font-family:Arial;text-anchor:middle"/><text x="1301.57" y="-857.09" line-height="125%" style="letter-spacing:0;word-spacing:0;font-size:129.23;font-family:Gentium Book Basic"><tspan x="1301.57" y="-857.09"/></text><text x="521.43" y="-3788.46" transform="scale(4.0128.2492)" style="font-size:46.954;font-family:Arial;text-anchor:middle"/><g transform="translate(-809.22 21.695)" line-height="125%" style="letter-spacing:0;word-spacing:0;font-size:208.33;font-family:Gentium Book Basic"><text x="277.99" y="535.94"><tspan x="277.99" y="535.94"/></text><text x="-1847.36" y="522.64"><tspan x="-1847.36" y="522.64"/></text></g><text x="-344.3" y="1621.42" transform="scale(4.0128.2492)" style="font-size:75.7;font-family:Arial;text-anchor:middle"/><path d="m253.49 161.6c-7.821 0-15.534 2.822-21.09 8.49l-93.4 95.68c-12.668 12.664-13.322 20.415-7.975 25.762l34.21 34.21c-4.924 2.825-8.105 5.747-5.15 8.701l.104.104 47.36 47.36c.237.809.712 1.616 1.492 2.418.065.068.131.135.197.201l70.17 70.17h165.58c19.933 0 34.09-16.04 36.19-34.844l4.404-39.4-210.36-210.36c-6-5.665-13.91-8.488-21.73-8.49l-.002-.002m-71.04 209.95c-.318-.008-.668-.009-1.045.004-5.278.178-15.909 2.184-17.463 7.416-.621 2.529.096 4.619 1.625 6.148l69.57 69.57h34.08l-80.12-80.12c-1.43-1.43-3.177-2.712-5.801-2.975-.246-.022-.531-.039-.85-.047" style="opacity:.25"/><path d="m253.49 161.6c-7.821 0-15.534 2.821-21.09 8.489l-93.4 95.68c-35.37 35.35 22.895 32.411 43.984 45.798 9.751 6.343-31.29 14.486-22.895 22.879 8.158 8.39 49.18 16.11 57.34 24.267 8.158 8.39-16.542 17.226-8.384 25.615 7.936 8.38 26.986.448 30.394 19.485 2.49 14.06 34.887 7.05 49.4-4.971 9.07-7.705-15.616-7.724-7.457-16.12 20.414-20.621 38.543-9.282 46.03-28.333 4.075-10.196-30.856-17.44-21.571-24.01 22.22-15.642 103.84-23.594 66.2-61.22l-96.82-99.07c-6-5.667-13.916-8.489-21.739-8.489m.358 11.986c5.128.042 10.258 1.979 13.987 5.709l33.914 34.525c3.121 3.121 3.115 9.587 1.243 11.46l-16.852-13.734-3.328 20.18-13.924-7.478-22.687 14.324-7.499-30.14-12.07 26.21-30.14-.211c-5.825 0-5-6.04 1.032-12.07 11.857-13.1 34.955-35.36 42.24-43.06 3.51-3.608 8.259-5.489 13.08-5.688.342-.014.669-.024 1.01-.021m-43.9 143.18c2.038 0 69.823 9.07 43.752 16.09-9.975 2.712-55.761-16.09-43.752-16.09m150.51 34.568c-8.239.006-16.78 4.248-22.35 16.262 15.846 8.824 36.32 10.08 46.03-1.622-1.683-6.72-12.387-14.648-23.676-14.64m-179.05 20.222c-5.278.178-15.908 2.183-17.463 7.415-2.526 10.286 17.09 13.34 23.445.717 2.08-3.803 1.872-2.894 2.317-4.487-1.545-1.666-3.4-3.301-6.404-3.602-.493-.045-1.142-.067-1.896-.042m127.13 18.14c-.794.008-1.687.073-2.696.211-3.533-.011-5.519 4.76-5.519 4.76-.67 2.99-1.244 6.607.717 10.175 2.618 4.653 8.618 6.807 16.62 4.213 4.691-5.536 4.145-7.647-.063-12.976-2.751-3.483-3.504-6.437-9.06-6.383" style="fill:#fff"/></svg>