<svg xmlns="http://www.w3.org/2000/svg" viewBox="0 0 512 512"><defs><linearGradient y1="121.74" x2="0" y2="453.24" id="0" gradientUnits="userSpaceOnUse"><stop style="stop-color:#6a6a6a"/><stop offset=".47"/><stop offset=".494" style="stop-color:#fff"/><stop offset=".901" style="stop-color:#fff"/><stop offset=".955"/><stop offset="1"/></linearGradient></defs><text x="729.64" y="233.72" line-height="125%" style="letter-spacing:0;word-spacing:0;font-size:129.23;font-family:Gentium Book Basic"><tspan x="729.64" y="233.72"/></text><text x="378.91" y="588.73" transform="scale(4.0128.2492)" style="font-size:46.954;font-family:Arial;text-anchor:middle"/><text x="1310.91" y="153.72" line-height="125%" style="letter-spacing:0;word-spacing:0;font-size:129.23;font-family:Gentium Book Basic"><tspan x="1310.91" y="153.72"/></text><text x="523.76" y="267.69" transform="scale(4.0128.2492)" style="font-size:46.954;font-family:Arial;text-anchor:middle"/><text x="239.33" y="-27.54" line-height="125%" style="letter-spacing:0;word-spacing:0;font-size:129.23;font-family:Gentium Book Basic"><tspan x="239.33" y="-27.54"/></text><text x="256.72" y="-459.66" transform="scale(4.0128.2492)" style="font-size:46.954;font-family:Arial;text-anchor:middle"/><text x="1337.38" y="-244.01" line-height="125%" style="letter-spacing:0;word-spacing:0;font-size:129.23;font-family:Gentium Book Basic"><tspan x="1337.38" y="-244.01"/></text><text x="530.36" y="-1328.33" transform="scale(4.0128.2492)" style="font-size:46.954;font-family:Arial;text-anchor:middle"/><text x="1918.65" y="-324.02" line-height="125%" style="letter-spacing:0;word-spacing:0;font-size:129.23;font-family:Gentium Book Basic"><tspan x="1918.65" y="-324.02"/></text><text x="675.21" y="-1649.36" transform="scale(4.0128.2492)" style="font-size:46.954;font-family:Arial;text-anchor:middle"/><text x="1529.53" y="-796.42" line-height="125%" style="letter-spacing:0;word-spacing:0;font-size:129.23;font-family:Gentium Book Basic"><tspan x="1529.53" y="-796.42"/></text><text x="578.24" y="-3545.01" transform="scale(4.0128.2492)" style="font-size:46.954;font-family:Arial;text-anchor:middle"/><text x="2110.8" y="-876.42" line-height="125%" style="letter-spacing:0;word-spacing:0;font-size:129.23;font-family:Gentium Book Basic"><tspan x="2110.8" y="-876.42"/></text><text x="723.09" y="-3866.05" transform="scale(4.0128.2492)" style="font-size:46.954;font-family:Arial;text-anchor:middle"/><g transform="translate(0-.02)" line-height="125%" style="letter-spacing:0;word-spacing:0;font-family:Gentium Book Basic"><text x="277.99" y="538.32" style="font-size:208.33"><tspan x="277.99" y="538.32"/></text><text x="3833.78" y="-509.14" style="font-size:129.23"><tspan x="3833.78" y="-509.14"/></text></g><text x="1152.45" y="-2392.3" transform="scale(4.0128.2492)" style="font-size:46.954;font-family:Arial;text-anchor:middle"/><text x="4415.05" y="-589.16" line-height="125%" style="letter-spacing:0;word-spacing:0;font-size:129.23;font-family:Gentium Book Basic"><tspan x="4415.05" y="-589.16"/></text><text x="1297.3" y="-2713.32" transform="scale(4.0128.2492)" style="font-size:46.954;font-family:Arial;text-anchor:middle"/><text x="3343.47" y="-770.41" line-height="125%" style="letter-spacing:0;word-spacing:0;font-size:129.23;font-family:Gentium Book Basic"><tspan x="3343.47" y="-770.41"/></text><text x="1030.26" y="-3440.68" transform="scale(4.0128.2492)" style="font-size:46.954;font-family:Arial;text-anchor:middle"/><text x="4441.52" y="-986.89" line-height="125%" style="letter-spacing:0;word-spacing:0;font-size:129.23;font-family:Gentium Book Basic"><tspan x="4441.52" y="-986.89"/></text><text x="1303.9" y="-4309.35" transform="scale(4.0128.2492)" style="font-size:46.954;font-family:Arial;text-anchor:middle"/><text x="5022.79" y="-1066.89" line-height="125%" style="letter-spacing:0;word-spacing:0;font-size:129.23;font-family:Gentium Book Basic"><tspan x="5022.79" y="-1066.89"/></text><text x="1448.75" y="-4630.37" transform="scale(4.0128.2492)" style="font-size:46.954;font-family:Arial;text-anchor:middle"/><text x="4633.67" y="-1539.29" line-height="125%" style="letter-spacing:0;word-spacing:0;font-size:129.23;font-family:Gentium Book Basic"><tspan x="4633.67" y="-1539.29"/></text><text x="1351.78" y="-6526.04" transform="scale(4.0128.2492)" style="font-size:46.954;font-family:Arial;text-anchor:middle"/><text x="5214.93" y="-1619.29" line-height="125%" style="letter-spacing:0;word-spacing:0;font-size:129.23;font-family:Gentium Book Basic"><tspan x="5214.93" y="-1619.29"/></text><text x="1496.63" y="-6847.06" transform="scale(4.0128.2492)" style="font-size:46.954;font-family:Arial;text-anchor:middle"/><text x="3382.13" y="-204.58" line-height="125%" style="letter-spacing:0;word-spacing:0;font-size:208.33;font-family:Gentium Book Basic"><tspan x="3382.13" y="-204.58"/></text><g style="fill-rule:evenodd"><path d="m108.63 57.37c-7.963 0-15.228 2.293-20.693 6.22-4.545 3.266-7.751 7.872-8.752 13.13h-11.909c-16.447 0-29.883 13.03-29.883 29.2v66.736c0 16.17 13.436 29.19 29.883 29.19h377.47c16.447 0 29.883-13.03 29.883-29.19v-66.736c0-16.17-13.436-29.2-29.883-29.2h-262.91c-1-5.256-4.208-9.862-8.753-13.13-5.465-3.927-12.73-6.22-20.693-6.22h-43.761" style="fill:#ccc"/><path d="m37.36 118.46c-19.928 0-38.06 15.818-36.23 35.853l24.26 265.41c1.733 18.966 16.271 34.947 36.2 34.947h383.41c19.933 0 34.1-16.05 36.2-34.853l29.632-265.41c1.123-10.05-3.137-19.263-9.971-25.663-6.833-6.399-16.258-10.284-26.22-10.284h-437.27" style="fill:#6997c7"/></g><path d="m37.36 118.45c-19.928 0-38.08 15.84-36.25 35.875l11.781 128.78 12.469 136.63c1.733 18.966 16.29 34.938 36.22 34.938h383.41c19.933 0 34.09-16.04 36.19-34.844l15.281-136.72 14.375-128.69c1.123-10.05-3.135-19.287-9.969-25.688-6.833-6.399-16.257-10.281-26.22-10.281h-437.28" style="fill:url(#0);opacity:.05"/><g style="fill:#fff;fill-rule:evenodd"><path d="m108.55 57.29c-7.963 0-15.11 2.403-20.572 6.33-4.545 3.266-7.702 7.931-8.703 13.187h-12.13c-17.677 0-29.802 12.771-29.802 30.661v3.956c0-16.17 13.355-29.27 29.802-29.27h14.286c1-5.256 2-9.657 6.549-12.923 5.465-3.927 12.609-6.33 20.572-6.33h43.78c7.963 0 15.371 2.403 20.835 6.33 4.545 3.266 5.766 7.668 6.769 12.923h264.88c16.447 0 29.802 11.455 29.802 27.625v-3.956c0-16.17-13.355-29.01-29.802-29.01h-262.95c-1-5.256-4.159-9.921-8.703-13.187-5.465-3.927-12.872-6.33-20.835-6.33z" style="opacity:.764"/><path d="m37.35 118.45c-19.928 0-38.05 15.84-36.22 35.875l.406 4.375c3-15.936 18.732-27.563 35.813-27.563h437.28c9.966 0 19.386 3.882 26.22 10.281 4.736 4.435 8.234 10.208 9.563 16.688l.406-3.688c1.123-10.05-3.134-19.288-9.969-25.688-6.833-6.399-16.252-10.281-26.22-10.281h-437.28" style="opacity:.4"/></g><text x="90.12" y="140.64" line-height="125%" style="letter-spacing:0;word-spacing:0;font-size:129.23;font-family:Gentium Book Basic"><tspan x="90.12" y="140.64"/></text><text x="219.54" y="215.21" transform="scale(4.0128.2492)" style="font-size:46.954;font-family:Arial;text-anchor:middle"/><text x="671.39" y="60.64" line-height="125%" style="letter-spacing:0;word-spacing:0;font-size:129.23;font-family:Gentium Book Basic"><tspan x="671.39" y="60.64"/></text><text x="364.39" y="-105.81" transform="scale(4.0128.2492)" style="font-size:46.954;font-family:Arial;text-anchor:middle"/><text x="-400.19" y="-120.62" line-height="125%" style="letter-spacing:0;word-spacing:0;font-size:129.23;font-family:Gentium Book Basic"><tspan x="-400.19" y="-120.62"/></text><text x="97.35" y="-833.17" transform="scale(4.0128.2492)" style="font-size:46.954;font-family:Arial;text-anchor:middle"/><text x="697.86" y="-337.09" line-height="125%" style="letter-spacing:0;word-spacing:0;font-size:129.23;font-family:Gentium Book Basic"><tspan x="697.86" y="-337.09"/></text><text x="370.99" y="-1701.84" transform="scale(4.0128.2492)" style="font-size:46.954;font-family:Arial;text-anchor:middle"/><text x="1279.13" y="-417.1" line-height="125%" style="letter-spacing:0;word-spacing:0;font-size:129.23;font-family:Gentium Book Basic"><tspan x="1279.13" y="-417.1"/></text><text x="515.84" y="-2022.87" transform="scale(4.0128.2492)" style="font-size:46.954;font-family:Arial;text-anchor:middle"/><text x="890.01" y="-889.5" line-height="125%" style="letter-spacing:0;word-spacing:0;font-size:129.23;font-family:Gentium Book Basic"><tspan x="890.01" y="-889.5"/></text><text x="418.87" y="-3918.53" transform="scale(4.0128.2492)" style="font-size:46.954;font-family:Arial;text-anchor:middle"/><text x="1471.27" y="-969.5" line-height="125%" style="letter-spacing:0;word-spacing:0;font-size:129.23;font-family:Gentium Book Basic"><tspan x="1471.27" y="-969.5"/></text><text x="563.72" y="-4239.55" transform="scale(4.0128.2492)" style="font-size:46.954;font-family:Arial;text-anchor:middle"/><g line-height="125%" style="letter-spacing:0;word-spacing:0;font-size:208.33;font-family:Gentium Book Basic"><text x="-361.53" y="445.22"><tspan x="-361.53" y="445.22"/></text><text x="-2585.36" y="426.26"><tspan x="-2585.36" y="426.26"/></text></g><text x="-326.55" y="1147.62" transform="scale(4.0128.2492)" style="font-size:75.7;font-family:Arial;text-anchor:middle"/><text x="-1879.02" y="270.63" line-height="125%" style="letter-spacing:0;word-spacing:0;font-size:208.33;font-family:Gentium Book Basic"><tspan x="-1879.02" y="270.63"/></text><text x="-150.53" y="523.09" transform="scale(4.0128.2492)" style="font-size:75.7;font-family:Arial;text-anchor:middle"/><text x="-1845.65" y="262.51" line-height="125%" style="letter-spacing:0;word-spacing:0;font-size:208.33;font-family:Gentium Book Basic"><tspan x="-1845.65" y="262.51"/></text><text x="-142.21" y="490.49" transform="scale(4.0128.2492)" style="font-size:75.7;font-family:Arial;text-anchor:middle"/><text x="-695.23" y="108.1" line-height="125%" style="letter-spacing:0;word-spacing:0;font-size:129.23;font-family:Gentium Book Basic"><tspan x="-695.23" y="108.1"/></text><text x="23.831" y="84.63" transform="scale(4.0128.2492)" style="font-size:46.954;font-family:Arial;text-anchor:middle"/><text x="-113.97" y="28.1" line-height="125%" style="letter-spacing:0;word-spacing:0;font-size:129.23;font-family:Gentium Book Basic"><tspan x="-113.97" y="28.1"/></text><text x="168.68" y="-236.4" transform="scale(4.0128.2492)" style="font-size:46.954;font-family:Arial;text-anchor:middle"/><text x="-1185.55" y="-153.16" line-height="125%" style="letter-spacing:0;word-spacing:0;font-size:129.23;font-family:Gentium Book Basic"><tspan x="-1185.55" y="-153.16"/></text><text x="-98.36" y="-963.74" transform="scale(4.0128.2492)" style="font-size:46.954;font-family:Arial;text-anchor:middle"/><text x="-87.5" y="-369.63" line-height="125%" style="letter-spacing:0;word-spacing:0;font-size:129.23;font-family:Gentium Book Basic"><tspan x="-87.5" y="-369.63"/></text><text x="175.28" y="-1832.42" transform="scale(4.0128.2492)" style="font-size:46.954;font-family:Arial;text-anchor:middle"/><text x="493.77" y="-449.63" line-height="125%" style="letter-spacing:0;word-spacing:0;font-size:129.23;font-family:Gentium Book Basic"><tspan x="493.77" y="-449.63"/></text><text x="320.12" y="-2153.44" transform="scale(4.0128.2492)" style="font-size:46.954;font-family:Arial;text-anchor:middle"/><text x="104.65" y="-922.03" line-height="125%" style="letter-spacing:0;word-spacing:0;font-size:129.23;font-family:Gentium Book Basic"><tspan x="104.65" y="-922.03"/></text><text x="223.16" y="-4049.08" transform="scale(4.0128.2492)" style="font-size:46.954;font-family:Arial;text-anchor:middle"/><text x="685.91" y="-1002.04" line-height="125%" style="letter-spacing:0;word-spacing:0;font-size:129.23;font-family:Gentium Book Basic"><tspan x="685.91" y="-1002.04"/></text><text x="368" y="-4370.12" transform="scale(4.0128.2492)" style="font-size:46.954;font-family:Arial;text-anchor:middle"/><g line-height="125%" style="letter-spacing:0;word-spacing:0;font-family:Gentium Book Basic"><text x="-1146.89" y="412.68" style="font-size:208.33"><tspan x="-1146.89" y="412.68"/></text><text x="-745.68" y="-630.91" style="font-size:129.23"><tspan x="-745.68" y="-630.91"/></text></g><text x="11.261" y="-2880.87" transform="scale(4.0128.2492)" style="font-size:46.954;font-family:Arial;text-anchor:middle"/><text x="-164.41" y="-710.91" line-height="125%" style="letter-spacing:0;word-spacing:0;font-size:129.23;font-family:Gentium Book Basic"><tspan x="-164.41" y="-710.91"/></text><text x="156.11" y="-3201.9" transform="scale(4.0128.2492)" style="font-size:46.954;font-family:Arial;text-anchor:middle"/><text x="-1235.99" y="-892.17" line-height="125%" style="letter-spacing:0;word-spacing:0;font-size:129.23;font-family:Gentium Book Basic"><tspan x="-1235.99" y="-892.17"/></text><text x="-110.93" y="-3929.26" transform="scale(4.0128.2492)" style="font-size:46.954;font-family:Arial;text-anchor:middle"/><text x="-137.94" y="-1108.64" line-height="125%" style="letter-spacing:0;word-spacing:0;font-size:129.23;font-family:Gentium Book Basic"><tspan x="-137.94" y="-1108.64"/></text><text x="162.71" y="-4797.91" transform="scale(4.0128.2492)" style="font-size:46.954;font-family:Arial;text-anchor:middle"/><text x="443.32" y="-1188.65" line-height="125%" style="letter-spacing:0;word-spacing:0;font-size:129.23;font-family:Gentium Book Basic"><tspan x="443.32" y="-1188.65"/></text><text x="307.55" y="-5118.95" transform="scale(4.0128.2492)" style="font-size:46.954;font-family:Arial;text-anchor:middle"/><text x="54.2" y="-1661.05" line-height="125%" style="letter-spacing:0;word-spacing:0;font-size:129.23;font-family:Gentium Book Basic"><tspan x="54.2" y="-1661.05"/></text><text x="210.59" y="-7014.59" transform="scale(4.0128.2492)" style="font-size:46.954;font-family:Arial;text-anchor:middle"/><text x="635.47" y="-1741.05" line-height="125%" style="letter-spacing:0;word-spacing:0;font-size:129.23;font-family:Gentium Book Basic"><tspan x="635.47" y="-1741.05"/></text><text x="355.43" y="-7335.62" transform="scale(4.0128.2492)" style="font-size:46.954;font-family:Arial;text-anchor:middle"/><g line-height="125%" style="letter-spacing:0;word-spacing:0;font-family:Gentium Book Basic"><text x="-1197.34" y="-326.33" style="font-size:208.33"><tspan x="-1197.34" y="-326.33"/></text><text x="2358.46" y="-1373.79" style="font-size:129.23"><tspan x="2358.46" y="-1373.79"/></text></g><text x="784.8" y="-5861.87" transform="scale(4.0128.2492)" style="font-size:46.954;font-family:Arial;text-anchor:middle"/><text x="2939.72" y="-1453.79" line-height="125%" style="letter-spacing:0;word-spacing:0;font-size:129.23;font-family:Gentium Book Basic"><tspan x="2939.72" y="-1453.79"/></text><text x="929.65" y="-6182.91" transform="scale(4.0128.2492)" style="font-size:46.954;font-family:Arial;text-anchor:middle"/><text x="1868.14" y="-1635.04" line-height="125%" style="letter-spacing:0;word-spacing:0;font-size:129.23;font-family:Gentium Book Basic"><tspan x="1868.14" y="-1635.04"/></text><text x="662.61" y="-6910.25" transform="scale(4.0128.2492)" style="font-size:46.954;font-family:Arial;text-anchor:middle"/><text x="2966.19" y="-1851.52" line-height="125%" style="letter-spacing:0;word-spacing:0;font-size:129.23;font-family:Gentium Book Basic"><tspan x="2966.19" y="-1851.52"/></text><text x="936.25" y="-7778.91" transform="scale(4.0128.2492)" style="font-size:46.954;font-family:Arial;text-anchor:middle"/><text x="3547.46" y="-1931.52" line-height="125%" style="letter-spacing:0;word-spacing:0;font-size:129.23;font-family:Gentium Book Basic"><tspan x="3547.46" y="-1931.52"/></text><text x="1081.1" y="-8099.95" transform="scale(4.0128.2492)" style="font-size:46.954;font-family:Arial;text-anchor:middle"/><text x="3158.34" y="-2403.92" line-height="125%" style="letter-spacing:0;word-spacing:0;font-size:129.23;font-family:Gentium Book Basic"><tspan x="3158.34" y="-2403.92"/></text><text x="984.13" y="-9995.59" transform="scale(4.0128.2492)" style="font-size:46.954;font-family:Arial;text-anchor:middle"/><text x="3739.61" y="-2483.92" line-height="125%" style="letter-spacing:0;word-spacing:0;font-size:129.23;font-family:Gentium Book Basic"><tspan x="3739.61" y="-2483.92"/></text><text x="1128.98" y="-10316.62" transform="scale(4.0128.2492)" style="font-size:46.954;font-family:Arial;text-anchor:middle"/><g line-height="125%" style="letter-spacing:0;word-spacing:0;font-size:208.33;font-family:Gentium Book Basic"><text x="1906.8" y="-1069.21"><tspan x="1906.8" y="-1069.21"/></text><text x="-2635.81" y="-315.13"><tspan x="-2635.81" y="-315.13"/></text></g><text x="-339.12" y="-1827.45" transform="scale(4.0128.2492)" style="font-size:75.7;font-family:Arial;text-anchor:middle"/><text x="-2635.81" y="-315.13" line-height="125%" style="letter-spacing:0;word-spacing:0;font-size:208.33;font-family:Gentium Book Basic"><tspan x="-2635.81" y="-315.13"/></text><text x="-339.12" y="-1827.45" transform="scale(4.0128.2492)" style="font-size:75.7;font-family:Arial;text-anchor:middle"/><text x="-2969.36" y="317.78" line-height="125%" style="letter-spacing:0;word-spacing:0;font-size:208.33;font-family:Gentium Book Basic"><tspan x="-2969.36" y="317.78"/></text><text x="-422.24" y="712.32" transform="scale(4.0128.2492)" style="font-size:75.7;font-family:Arial;text-anchor:middle"/><text x="-2263.02" y="162.15" line-height="125%" style="letter-spacing:0;word-spacing:0;font-size:208.33;font-family:Gentium Book Basic"><tspan x="-2263.02" y="162.15"/></text><text x="-246.22" y="87.8" transform="scale(4.0128.2492)" style="font-size:75.7;font-family:Arial;text-anchor:middle"/><text x="729.64" y="233.74" line-height="125%" style="letter-spacing:0;word-spacing:0;font-size:129.23;font-family:Gentium Book Basic"><tspan x="729.64" y="233.74"/></text><text x="378.91" y="588.81" transform="scale(4.0128.2492)" style="font-size:46.954;font-family:Arial;text-anchor:middle"/><text x="1310.91" y="153.74" line-height="125%" style="letter-spacing:0;word-spacing:0;font-size:129.23;font-family:Gentium Book Basic"><tspan x="1310.91" y="153.74"/></text><text x="523.76" y="267.77" transform="scale(4.0128.2492)" style="font-size:46.954;font-family:Arial;text-anchor:middle"/><text x="239.33" y="-27.52" line-height="125%" style="letter-spacing:0;word-spacing:0;font-size:129.23;font-family:Gentium Book Basic"><tspan x="239.33" y="-27.52"/></text><text x="256.72" y="-459.58" transform="scale(4.0128.2492)" style="font-size:46.954;font-family:Arial;text-anchor:middle"/><text x="1337.38" y="-243.99" line-height="125%" style="letter-spacing:0;word-spacing:0;font-size:129.23;font-family:Gentium Book Basic"><tspan x="1337.38" y="-243.99"/></text><text x="530.36" y="-1328.26" transform="scale(4.0128.2492)" style="font-size:46.954;font-family:Arial;text-anchor:middle"/><text x="1918.65" y="-324" line-height="125%" style="letter-spacing:0;word-spacing:0;font-size:129.23;font-family:Gentium Book Basic"><tspan x="1918.65" y="-324"/></text><text x="675.21" y="-1649.29" transform="scale(4.0128.2492)" style="font-size:46.954;font-family:Arial;text-anchor:middle"/><text x="1529.53" y="-796.4" line-height="125%" style="letter-spacing:0;word-spacing:0;font-size:129.23;font-family:Gentium Book Basic"><tspan x="1529.53" y="-796.4"/></text><text x="578.24" y="-3544.95" transform="scale(4.0128.2492)" style="font-size:46.954;font-family:Arial;text-anchor:middle"/><text x="2110.8" y="-876.4" line-height="125%" style="letter-spacing:0;word-spacing:0;font-size:129.23;font-family:Gentium Book Basic"><tspan x="2110.8" y="-876.4"/></text><text x="723.09" y="-3865.99" transform="scale(4.0128.2492)" style="font-size:46.954;font-family:Arial;text-anchor:middle"/><g line-height="125%" style="letter-spacing:0;word-spacing:0;font-family:Gentium Book Basic"><text x="277.99" y="538.32" style="font-size:208.33"><tspan x="277.99" y="538.32"/></text><text x="3833.78" y="-509.14" style="font-size:129.23"><tspan x="3833.78" y="-509.14"/></text></g><text x="1152.46" y="-2392.23" transform="scale(4.0128.2492)" style="font-size:46.954;font-family:Arial;text-anchor:middle"/><text x="4415.05" y="-589.14" line-height="125%" style="letter-spacing:0;word-spacing:0;font-size:129.23;font-family:Gentium Book Basic"><tspan x="4415.05" y="-589.14"/></text><text x="1297.31" y="-2713.26" transform="scale(4.0128.2492)" style="font-size:46.954;font-family:Arial;text-anchor:middle"/><text x="3343.47" y="-770.39" line-height="125%" style="letter-spacing:0;word-spacing:0;font-size:129.23;font-family:Gentium Book Basic"><tspan x="3343.47" y="-770.39"/></text><text x="1030.27" y="-3440.62" transform="scale(4.0128.2492)" style="font-size:46.954;font-family:Arial;text-anchor:middle"/><text x="4441.52" y="-986.87" line-height="125%" style="letter-spacing:0;word-spacing:0;font-size:129.23;font-family:Gentium Book Basic"><tspan x="4441.52" y="-986.87"/></text><text x="1303.91" y="-4309.29" transform="scale(4.0128.2492)" style="font-size:46.954;font-family:Arial;text-anchor:middle"/><text x="5022.79" y="-1066.87" line-height="125%" style="letter-spacing:0;word-spacing:0;font-size:129.23;font-family:Gentium Book Basic"><tspan x="5022.79" y="-1066.87"/></text><text x="1448.76" y="-4630.32" transform="scale(4.0128.2492)" style="font-size:46.954;font-family:Arial;text-anchor:middle"/><text x="4633.67" y="-1539.27" line-height="125%" style="letter-spacing:0;word-spacing:0;font-size:129.23;font-family:Gentium Book Basic"><tspan x="4633.67" y="-1539.27"/></text><text x="1351.79" y="-6525.99" transform="scale(4.0128.2492)" style="font-size:46.954;font-family:Arial;text-anchor:middle"/><text x="5214.93" y="-1619.27" line-height="125%" style="letter-spacing:0;word-spacing:0;font-size:129.23;font-family:Gentium Book Basic"><tspan x="5214.93" y="-1619.27"/></text><text x="1496.64" y="-6847.02" transform="scale(4.0128.2492)" style="font-size:46.954;font-family:Arial;text-anchor:middle"/><g line-height="125%" style="letter-spacing:0;word-spacing:0;font-size:208.33;font-family:Gentium Book Basic"><text x="3382.13" y="-204.56"><tspan x="3382.13" y="-204.56"/></text><text x="-1160.48" y="549.52"><tspan x="-1160.48" y="549.52"/></text></g><text x="28.534" y="1642.24" transform="scale(4.0128.2492)" style="font-size:75.7;font-family:Arial;text-anchor:middle"/><path d="m255.7 28.609c-78.54 0-147.4 41.505-186.06 103.81 39.37-60.683 107.99-100.87 186.06-100.87 78.07 0 146.69 40.19 186.06 100.88-38.664-62.31-107.52-103.81-186.06-103.81" style="fill:#fff8eb;fill-opacity:.271"/><text x="-1160.48" y="549.52" line-height="125%" style="letter-spacing:0;word-spacing:0;font-size:208.33;font-family:Gentium Book Basic"><tspan x="-1160.48" y="549.52"/></text><text x="28.534" y="1642.24" transform="scale(4.0128.2492)" style="font-size:75.7;font-family:Arial;text-anchor:middle"/><text x="-49.21" y="216.17" line-height="125%" style="letter-spacing:0;word-spacing:0;font-size:129.23;font-family:Gentium Book Basic"><tspan x="-49.21" y="216.17"/></text><text x="184.82" y="518.31" transform="scale(4.0128.2492)" style="font-size:46.954;font-family:Arial;text-anchor:middle"/><text x="532.06" y="136.17" line-height="125%" style="letter-spacing:0;word-spacing:0;font-size:129.23;font-family:Gentium Book Basic"><tspan x="532.06" y="136.17"/></text><text x="329.67" y="197.28" transform="scale(4.0128.2492)" style="font-size:46.954;font-family:Arial;text-anchor:middle"/><text x="-539.52" y="-45.09" line-height="125%" style="letter-spacing:0;word-spacing:0;font-size:129.23;font-family:Gentium Book Basic"><tspan x="-539.52" y="-45.09"/></text><text x="62.63" y="-530.08" transform="scale(4.0128.2492)" style="font-size:46.954;font-family:Arial;text-anchor:middle"/><text x="558.53" y="-261.56" line-height="125%" style="letter-spacing:0;word-spacing:0;font-size:129.23;font-family:Gentium Book Basic"><tspan x="558.53" y="-261.56"/></text><text x="336.27" y="-1398.74" transform="scale(4.0128.2492)" style="font-size:46.954;font-family:Arial;text-anchor:middle"/><text x="1139.8" y="-341.57" line-height="125%" style="letter-spacing:0;word-spacing:0;font-size:129.23;font-family:Gentium Book Basic"><tspan x="1139.8" y="-341.57"/></text><text x="481.12" y="-1719.78" transform="scale(4.0128.2492)" style="font-size:46.954;font-family:Arial;text-anchor:middle"/><text x="750.68" y="-813.97" line-height="125%" style="letter-spacing:0;word-spacing:0;font-size:129.23;font-family:Gentium Book Basic"><tspan x="750.68" y="-813.97"/></text><text x="384.15" y="-3615.43" transform="scale(4.0128.2492)" style="font-size:46.954;font-family:Arial;text-anchor:middle"/><text x="1331.94" y="-893.97" line-height="125%" style="letter-spacing:0;word-spacing:0;font-size:129.23;font-family:Gentium Book Basic"><tspan x="1331.94" y="-893.97"/></text><text x="529" y="-3936.46" transform="scale(4.0128.2492)" style="font-size:46.954;font-family:Arial;text-anchor:middle"/><text x="-500.86" y="520.75" line-height="125%" style="letter-spacing:0;word-spacing:0;font-size:208.33;font-family:Gentium Book Basic"><tspan x="-500.86" y="520.75"/></text><g style="color:#000"><path d="m216.08 171.58c-21.583.765-35.573 1.879-46.551 6.098-10.977 4.218-18.09 12.1-23.934 23.24l17.34 17.34c-.01.008-.021.015-.031.023l-17.336-17.336-17.783 34.383 9.687 9.688-4.504-.34 55.34 55.34c-5.627 19.502-14.186 40.722-28.479 65.781l32.33 32.33c-.254.144-.509.281-.766.416l-31.943-31.943c-3.02 7.591-3.33 14.78-1.156 20.732 1.097 3.01 2.821 5.624 4.951 7.754l59.59 59.59h222.15c19.933 0 34.09-16.04 36.19-34.846l14.635-130.94-110.88-110.88-6.42-6.42h-162.2l38.67 38.67h-.223l-38.682-38.682" style="opacity:.25"/><path d="m216.08 171.58c-21.583.765-35.575 1.879-46.552 6.097-10.977 4.218-18.09 12.1-23.934 23.24a6.417492 6.417492 0 0 0 -.0269 .0268l-17.783 34.384a6.417492 6.417492 0 0 0 5.18435 9.34793l6.071.457a6.417492 6.417492 0 0 0 6.12451 -3.30401c6.243-11.45 12.311-19.498 19.02-24.552 6.665-5.02 14.03-7.463 24.445-7.495h.188l15.419.403c-8.777 50.79-7.04 90.1-44.4 155.61a6.417492 6.417492 0 0 0 -.37607 .80587c-3.02 7.591-3.33 14.781-1.155 20.733 2.17 5.956 6.791 10.352 12.169 12.545 10.755 4.383 24.702.305 32.26-12.141a6.417492 6.417492 0 0 0 .29548 -.5641c15.704-32.924 23.966-95.43 29.06-176.91h52.33l-8.542 133.75a6.417492 6.417492 0 0 0 0 .26861c-.424 19.827 4.411 34.772 13.243 44.515 8.831 9.733 21.492 13.57 34.06 11.978 25.14-3.18 50.858-26.18 60.843-63.07a6.417492 6.417492 0 0 0 -6.20509 -8.11229h-6.04a6.417492 6.417492 0 0 0 -5.69471 3.43833c-8.853 16.81-17.435 26.511-24.2 30.811-6.771 4.298-10.975 3.959-15.365 1.263-4.39-2.697-8.926-9.02-11.873-18.11-2.946-9.07-4.34-20.679-3.492-33.09.001-.009-.001-.017 0-.027l7.495-103.23 59.953-.859a6.417492 6.417492 0 0 0 6.33941 -6.41999v-25.358a6.417492 6.417492 0 0 0 -6.42003 -6.41998h-162.2a6.417492 6.417492 0 0 0 -.24175 0" style="fill:#fff"/></g></svg>