<svg xmlns="http://www.w3.org/2000/svg" viewBox="0 0 512 512"><defs><linearGradient y1="121.76" x2="0" y2="453.26" id="0" gradientUnits="userSpaceOnUse"><stop style="stop-color:#6a6a6a"/><stop offset=".47"/><stop offset=".494" style="stop-color:#fff"/><stop offset=".901" style="stop-color:#fff"/><stop offset=".955"/><stop offset="1"/></linearGradient></defs><text x="729.64" y="233.74" line-height="125%" style="letter-spacing:0;word-spacing:0;font-size:129.23;font-family:Gentium Book Basic"><tspan x="729.64" y="233.74"/></text><text x="378.91" y="588.81" transform="scale(4.0128.2492)" style="font-size:46.954;font-family:Arial;text-anchor:middle"/><text x="1310.91" y="153.74" line-height="125%" style="letter-spacing:0;word-spacing:0;font-size:129.23;font-family:Gentium Book Basic"><tspan x="1310.91" y="153.74"/></text><text x="523.76" y="267.77" transform="scale(4.0128.2492)" style="font-size:46.954;font-family:Arial;text-anchor:middle"/><text x="239.33" y="-27.52" line-height="125%" style="letter-spacing:0;word-spacing:0;font-size:129.23;font-family:Gentium Book Basic"><tspan x="239.33" y="-27.52"/></text><text x="256.72" y="-459.58" transform="scale(4.0128.2492)" style="font-size:46.954;font-family:Arial;text-anchor:middle"/><text x="1337.38" y="-243.99" line-height="125%" style="letter-spacing:0;word-spacing:0;font-size:129.23;font-family:Gentium Book Basic"><tspan x="1337.38" y="-243.99"/></text><text x="530.36" y="-1328.26" transform="scale(4.0128.2492)" style="font-size:46.954;font-family:Arial;text-anchor:middle"/><text x="1918.65" y="-324" line-height="125%" style="letter-spacing:0;word-spacing:0;font-size:129.23;font-family:Gentium Book Basic"><tspan x="1918.65" y="-324"/></text><text x="675.21" y="-1649.29" transform="scale(4.0128.2492)" style="font-size:46.954;font-family:Arial;text-anchor:middle"/><text x="1529.53" y="-796.4" line-height="125%" style="letter-spacing:0;word-spacing:0;font-size:129.23;font-family:Gentium Book Basic"><tspan x="1529.53" y="-796.4"/></text><text x="578.24" y="-3544.95" transform="scale(4.0128.2492)" style="font-size:46.954;font-family:Arial;text-anchor:middle"/><text x="2110.8" y="-876.4" line-height="125%" style="letter-spacing:0;word-spacing:0;font-size:129.23;font-family:Gentium Book Basic"><tspan x="2110.8" y="-876.4"/></text><text x="723.09" y="-3865.99" transform="scale(4.0128.2492)" style="font-size:46.954;font-family:Arial;text-anchor:middle"/><g line-height="125%" style="letter-spacing:0;word-spacing:0;font-family:Gentium Book Basic"><text x="277.99" y="538.32" style="font-size:208.33"><tspan x="277.99" y="538.32"/></text><text x="3833.78" y="-509.14" style="font-size:129.23"><tspan x="3833.78" y="-509.14"/></text></g><text x="1152.46" y="-2392.23" transform="scale(4.0128.2492)" style="font-size:46.954;font-family:Arial;text-anchor:middle"/><text x="4415.05" y="-589.14" line-height="125%" style="letter-spacing:0;word-spacing:0;font-size:129.23;font-family:Gentium Book Basic"><tspan x="4415.05" y="-589.14"/></text><text x="1297.31" y="-2713.26" transform="scale(4.0128.2492)" style="font-size:46.954;font-family:Arial;text-anchor:middle"/><text x="3343.47" y="-770.39" line-height="125%" style="letter-spacing:0;word-spacing:0;font-size:129.23;font-family:Gentium Book Basic"><tspan x="3343.47" y="-770.39"/></text><text x="1030.27" y="-3440.62" transform="scale(4.0128.2492)" style="font-size:46.954;font-family:Arial;text-anchor:middle"/><text x="4441.52" y="-986.87" line-height="125%" style="letter-spacing:0;word-spacing:0;font-size:129.23;font-family:Gentium Book Basic"><tspan x="4441.52" y="-986.87"/></text><text x="1303.91" y="-4309.29" transform="scale(4.0128.2492)" style="font-size:46.954;font-family:Arial;text-anchor:middle"/><text x="5022.79" y="-1066.87" line-height="125%" style="letter-spacing:0;word-spacing:0;font-size:129.23;font-family:Gentium Book Basic"><tspan x="5022.79" y="-1066.87"/></text><text x="1448.76" y="-4630.32" transform="scale(4.0128.2492)" style="font-size:46.954;font-family:Arial;text-anchor:middle"/><text x="4633.67" y="-1539.27" line-height="125%" style="letter-spacing:0;word-spacing:0;font-size:129.23;font-family:Gentium Book Basic"><tspan x="4633.67" y="-1539.27"/></text><text x="1351.79" y="-6525.99" transform="scale(4.0128.2492)" style="font-size:46.954;font-family:Arial;text-anchor:middle"/><text x="5214.93" y="-1619.27" line-height="125%" style="letter-spacing:0;word-spacing:0;font-size:129.23;font-family:Gentium Book Basic"><tspan x="5214.93" y="-1619.27"/></text><text x="1496.64" y="-6847.02" transform="scale(4.0128.2492)" style="font-size:46.954;font-family:Arial;text-anchor:middle"/><text x="3382.13" y="-204.56" line-height="125%" style="letter-spacing:0;word-spacing:0;font-size:208.33;font-family:Gentium Book Basic"><tspan x="3382.13" y="-204.56"/></text><g style="fill-rule:evenodd"><path d="m108.63 57.39c-7.963 0-15.228 2.293-20.693 6.22-4.545 3.266-7.751 7.872-8.752 13.13h-11.909c-16.447 0-29.883 13.03-29.883 29.2v66.736c0 16.17 13.436 29.19 29.883 29.19h377.47c16.447 0 29.883-13.03 29.883-29.19v-66.736c0-16.17-13.436-29.2-29.883-29.2h-262.91c-1-5.256-4.208-9.862-8.753-13.13-5.465-3.927-12.73-6.22-20.693-6.22h-43.761" style="fill:#ccc"/><path d="m37.36 118.48c-19.928 0-38.06 15.818-36.23 35.853l24.26 265.41c1.733 18.966 16.271 34.947 36.2 34.947h383.41c19.933 0 34.1-16.05 36.2-34.853l29.632-265.41c1.123-10.05-3.137-19.263-9.971-25.663-6.833-6.399-16.258-10.284-26.22-10.284h-437.27" style="fill:#6997c7"/></g><path d="m37.36 118.47c-19.928 0-38.08 15.84-36.25 35.875l11.781 128.78 12.469 136.63c1.733 18.966 16.29 34.938 36.22 34.938h383.41c19.933 0 34.09-16.04 36.19-34.844l15.281-136.72 14.375-128.69c1.123-10.05-3.135-19.287-9.969-25.688-6.833-6.399-16.257-10.281-26.22-10.281h-437.28" style="fill:url(#0);opacity:.05"/><g style="fill:#fff;fill-rule:evenodd"><path d="m108.55 57.31c-7.963 0-15.11 2.403-20.572 6.33-4.545 3.266-7.702 7.931-8.703 13.187h-12.13c-17.677 0-29.802 12.771-29.802 30.661v3.956c0-16.17 13.355-29.27 29.802-29.27h14.286c1-5.256 2-9.657 6.549-12.923 5.465-3.927 12.609-6.33 20.572-6.33h43.78c7.963 0 15.371 2.403 20.835 6.33 4.545 3.266 5.766 7.668 6.769 12.923h264.88c16.447 0 29.802 11.455 29.802 27.625v-3.956c0-16.17-13.355-29.01-29.802-29.01h-262.95c-1-5.256-4.159-9.921-8.703-13.187-5.465-3.927-12.872-6.33-20.835-6.33z" style="opacity:.764"/><path d="m37.35 118.47c-19.928 0-38.05 15.84-36.22 35.875l.406 4.375c3-15.936 18.732-27.563 35.813-27.563h437.28c9.966 0 19.386 3.882 26.22 10.281 4.736 4.435 8.234 10.208 9.563 16.688l.406-3.688c1.123-10.05-3.134-19.288-9.969-25.688-6.833-6.399-16.252-10.281-26.22-10.281h-437.28" style="opacity:.4"/></g><text x="90.12" y="140.66" line-height="125%" style="letter-spacing:0;word-spacing:0;font-size:129.23;font-family:Gentium Book Basic"><tspan x="90.12" y="140.66"/></text><text x="219.54" y="215.29" transform="scale(4.0128.2492)" style="font-size:46.954;font-family:Arial;text-anchor:middle"/><text x="671.39" y="60.662" line-height="125%" style="letter-spacing:0;word-spacing:0;font-size:129.23;font-family:Gentium Book Basic"><tspan x="671.39" y="60.662"/></text><text x="364.39" y="-105.74" transform="scale(4.0128.2492)" style="font-size:46.954;font-family:Arial;text-anchor:middle"/><text x="-400.19" y="-120.6" line-height="125%" style="letter-spacing:0;word-spacing:0;font-size:129.23;font-family:Gentium Book Basic"><tspan x="-400.19" y="-120.6"/></text><text x="97.35" y="-833.09" transform="scale(4.0128.2492)" style="font-size:46.954;font-family:Arial;text-anchor:middle"/><text x="697.86" y="-337.07" line-height="125%" style="letter-spacing:0;word-spacing:0;font-size:129.23;font-family:Gentium Book Basic"><tspan x="697.86" y="-337.07"/></text><text x="370.99" y="-1701.76" transform="scale(4.0128.2492)" style="font-size:46.954;font-family:Arial;text-anchor:middle"/><text x="1279.13" y="-417.08" line-height="125%" style="letter-spacing:0;word-spacing:0;font-size:129.23;font-family:Gentium Book Basic"><tspan x="1279.13" y="-417.08"/></text><text x="515.84" y="-2022.8" transform="scale(4.0128.2492)" style="font-size:46.954;font-family:Arial;text-anchor:middle"/><text x="890.01" y="-889.48" line-height="125%" style="letter-spacing:0;word-spacing:0;font-size:129.23;font-family:Gentium Book Basic"><tspan x="890.01" y="-889.48"/></text><text x="418.87" y="-3918.45" transform="scale(4.0128.2492)" style="font-size:46.954;font-family:Arial;text-anchor:middle"/><text x="1471.27" y="-969.48" line-height="125%" style="letter-spacing:0;word-spacing:0;font-size:129.23;font-family:Gentium Book Basic"><tspan x="1471.27" y="-969.48"/></text><text x="563.72" y="-4239.48" transform="scale(4.0128.2492)" style="font-size:46.954;font-family:Arial;text-anchor:middle"/><g line-height="125%" style="letter-spacing:0;word-spacing:0;font-size:208.33;font-family:Gentium Book Basic"><text x="-361.53" y="445.24"><tspan x="-361.53" y="445.24"/></text><text x="-2585.36" y="426.28"><tspan x="-2585.36" y="426.28"/></text></g><text x="-326.55" y="1147.7" transform="scale(4.0128.2492)" style="font-size:75.7;font-family:Arial;text-anchor:middle"/><text x="-1879.02" y="270.65" line-height="125%" style="letter-spacing:0;word-spacing:0;font-size:208.33;font-family:Gentium Book Basic"><tspan x="-1879.02" y="270.65"/></text><text x="-150.53" y="523.17" transform="scale(4.0128.2492)" style="font-size:75.7;font-family:Arial;text-anchor:middle"/><text x="-1845.65" y="262.53" line-height="125%" style="letter-spacing:0;word-spacing:0;font-size:208.33;font-family:Gentium Book Basic"><tspan x="-1845.65" y="262.53"/></text><text x="-142.21" y="490.57" transform="scale(4.0128.2492)" style="font-size:75.7;font-family:Arial;text-anchor:middle"/><text x="-695.23" y="108.12" line-height="125%" style="letter-spacing:0;word-spacing:0;font-size:129.23;font-family:Gentium Book Basic"><tspan x="-695.23" y="108.12"/></text><text x="23.831" y="84.71" transform="scale(4.0128.2492)" style="font-size:46.954;font-family:Arial;text-anchor:middle"/><text x="-113.97" y="28.12" line-height="125%" style="letter-spacing:0;word-spacing:0;font-size:129.23;font-family:Gentium Book Basic"><tspan x="-113.97" y="28.12"/></text><text x="168.68" y="-236.33" transform="scale(4.0128.2492)" style="font-size:46.954;font-family:Arial;text-anchor:middle"/><text x="-1185.55" y="-153.14" line-height="125%" style="letter-spacing:0;word-spacing:0;font-size:129.23;font-family:Gentium Book Basic"><tspan x="-1185.55" y="-153.14"/></text><text x="-98.36" y="-963.66" transform="scale(4.0128.2492)" style="font-size:46.954;font-family:Arial;text-anchor:middle"/><text x="-87.5" y="-369.61" line-height="125%" style="letter-spacing:0;word-spacing:0;font-size:129.23;font-family:Gentium Book Basic"><tspan x="-87.5" y="-369.61"/></text><text x="175.28" y="-1832.34" transform="scale(4.0128.2492)" style="font-size:46.954;font-family:Arial;text-anchor:middle"/><text x="493.77" y="-449.61" line-height="125%" style="letter-spacing:0;word-spacing:0;font-size:129.23;font-family:Gentium Book Basic"><tspan x="493.77" y="-449.61"/></text><text x="320.12" y="-2153.37" transform="scale(4.0128.2492)" style="font-size:46.954;font-family:Arial;text-anchor:middle"/><text x="104.65" y="-922.01" line-height="125%" style="letter-spacing:0;word-spacing:0;font-size:129.23;font-family:Gentium Book Basic"><tspan x="104.65" y="-922.01"/></text><text x="223.16" y="-4049.01" transform="scale(4.0128.2492)" style="font-size:46.954;font-family:Arial;text-anchor:middle"/><text x="685.91" y="-1002.02" line-height="125%" style="letter-spacing:0;word-spacing:0;font-size:129.23;font-family:Gentium Book Basic"><tspan x="685.91" y="-1002.02"/></text><text x="368" y="-4370.04" transform="scale(4.0128.2492)" style="font-size:46.954;font-family:Arial;text-anchor:middle"/><g line-height="125%" style="letter-spacing:0;word-spacing:0;font-family:Gentium Book Basic"><text x="-1146.89" y="412.7" style="font-size:208.33"><tspan x="-1146.89" y="412.7"/></text><text x="-745.68" y="-630.89" style="font-size:129.23"><tspan x="-745.68" y="-630.89"/></text></g><text x="11.261" y="-2880.79" transform="scale(4.0128.2492)" style="font-size:46.954;font-family:Arial;text-anchor:middle"/><text x="-164.41" y="-710.89" line-height="125%" style="letter-spacing:0;word-spacing:0;font-size:129.23;font-family:Gentium Book Basic"><tspan x="-164.41" y="-710.89"/></text><text x="156.11" y="-3201.82" transform="scale(4.0128.2492)" style="font-size:46.954;font-family:Arial;text-anchor:middle"/><text x="-1235.99" y="-892.15" line-height="125%" style="letter-spacing:0;word-spacing:0;font-size:129.23;font-family:Gentium Book Basic"><tspan x="-1235.99" y="-892.15"/></text><text x="-110.93" y="-3929.18" transform="scale(4.0128.2492)" style="font-size:46.954;font-family:Arial;text-anchor:middle"/><text x="-137.94" y="-1108.62" line-height="125%" style="letter-spacing:0;word-spacing:0;font-size:129.23;font-family:Gentium Book Basic"><tspan x="-137.94" y="-1108.62"/></text><text x="162.71" y="-4797.83" transform="scale(4.0128.2492)" style="font-size:46.954;font-family:Arial;text-anchor:middle"/><text x="443.32" y="-1188.63" line-height="125%" style="letter-spacing:0;word-spacing:0;font-size:129.23;font-family:Gentium Book Basic"><tspan x="443.32" y="-1188.63"/></text><text x="307.55" y="-5118.87" transform="scale(4.0128.2492)" style="font-size:46.954;font-family:Arial;text-anchor:middle"/><text x="54.2" y="-1661.03" line-height="125%" style="letter-spacing:0;word-spacing:0;font-size:129.23;font-family:Gentium Book Basic"><tspan x="54.2" y="-1661.03"/></text><text x="210.59" y="-7014.51" transform="scale(4.0128.2492)" style="font-size:46.954;font-family:Arial;text-anchor:middle"/><text x="635.47" y="-1741.03" line-height="125%" style="letter-spacing:0;word-spacing:0;font-size:129.23;font-family:Gentium Book Basic"><tspan x="635.47" y="-1741.03"/></text><text x="355.43" y="-7335.54" transform="scale(4.0128.2492)" style="font-size:46.954;font-family:Arial;text-anchor:middle"/><g line-height="125%" style="letter-spacing:0;word-spacing:0;font-family:Gentium Book Basic"><text x="-1197.34" y="-326.31" style="font-size:208.33"><tspan x="-1197.34" y="-326.31"/></text><text x="2358.46" y="-1373.77" style="font-size:129.23"><tspan x="2358.46" y="-1373.77"/></text></g><text x="784.8" y="-5861.8" transform="scale(4.0128.2492)" style="font-size:46.954;font-family:Arial;text-anchor:middle"/><text x="2939.72" y="-1453.77" line-height="125%" style="letter-spacing:0;word-spacing:0;font-size:129.23;font-family:Gentium Book Basic"><tspan x="2939.72" y="-1453.77"/></text><text x="929.65" y="-6182.84" transform="scale(4.0128.2492)" style="font-size:46.954;font-family:Arial;text-anchor:middle"/><text x="1868.14" y="-1635.02" line-height="125%" style="letter-spacing:0;word-spacing:0;font-size:129.23;font-family:Gentium Book Basic"><tspan x="1868.14" y="-1635.02"/></text><text x="662.61" y="-6910.17" transform="scale(4.0128.2492)" style="font-size:46.954;font-family:Arial;text-anchor:middle"/><text x="2966.19" y="-1851.5" line-height="125%" style="letter-spacing:0;word-spacing:0;font-size:129.23;font-family:Gentium Book Basic"><tspan x="2966.19" y="-1851.5"/></text><text x="936.25" y="-7778.84" transform="scale(4.0128.2492)" style="font-size:46.954;font-family:Arial;text-anchor:middle"/><text x="3547.46" y="-1931.5" line-height="125%" style="letter-spacing:0;word-spacing:0;font-size:129.23;font-family:Gentium Book Basic"><tspan x="3547.46" y="-1931.5"/></text><text x="1081.1" y="-8099.88" transform="scale(4.0128.2492)" style="font-size:46.954;font-family:Arial;text-anchor:middle"/><text x="3158.34" y="-2403.9" line-height="125%" style="letter-spacing:0;word-spacing:0;font-size:129.23;font-family:Gentium Book Basic"><tspan x="3158.34" y="-2403.9"/></text><text x="984.13" y="-9995.52" transform="scale(4.0128.2492)" style="font-size:46.954;font-family:Arial;text-anchor:middle"/><text x="3739.61" y="-2483.9" line-height="125%" style="letter-spacing:0;word-spacing:0;font-size:129.23;font-family:Gentium Book Basic"><tspan x="3739.61" y="-2483.9"/></text><text x="1128.98" y="-10316.54" transform="scale(4.0128.2492)" style="font-size:46.954;font-family:Arial;text-anchor:middle"/><g line-height="125%" style="letter-spacing:0;word-spacing:0;font-size:208.33;font-family:Gentium Book Basic"><text x="1906.8" y="-1069.19"><tspan x="1906.8" y="-1069.19"/></text><text x="-2635.81" y="-315.11"><tspan x="-2635.81" y="-315.11"/></text></g><text x="-339.12" y="-1827.37" transform="scale(4.0128.2492)" style="font-size:75.7;font-family:Arial;text-anchor:middle"/><text x="-2635.81" y="-315.11" line-height="125%" style="letter-spacing:0;word-spacing:0;font-size:208.33;font-family:Gentium Book Basic"><tspan x="-2635.81" y="-315.11"/></text><text x="-339.12" y="-1827.37" transform="scale(4.0128.2492)" style="font-size:75.7;font-family:Arial;text-anchor:middle"/><text x="-2969.36" y="317.8" line-height="125%" style="letter-spacing:0;word-spacing:0;font-size:208.33;font-family:Gentium Book Basic"><tspan x="-2969.36" y="317.8"/></text><text x="-422.24" y="712.4" transform="scale(4.0128.2492)" style="font-size:75.7;font-family:Arial;text-anchor:middle"/><text x="-2263.02" y="162.17" line-height="125%" style="letter-spacing:0;word-spacing:0;font-size:208.33;font-family:Gentium Book Basic"><tspan x="-2263.02" y="162.17"/></text><text x="-246.22" y="87.88" transform="scale(4.0128.2492)" style="font-size:75.7;font-family:Arial;text-anchor:middle"/><path d="m196.84 150.75c0 0 2.316 5.426-11.281 25.25l.002.002c-13.592 19.814-6.439 48.31-6.439 48.31l.266.266c.152 1.294.336 2.594.609 3.895l.006.006c1.902 9.06 6.35 16.925 12.439 23.01.01.01.021.021.031.031l18.285 18.287c-.65-.181-1.302-.355-1.943-.561l17.818 17.818-.002.004-17.82-17.82 14.313 26.06 7.176 7.176-13.389 31.514c1.642 2.328 3.892 5.144 6.904 8.156l.273.273c-.09-.089-.188-.18-.277-.27l30.73 30.732c-19.14-6.676-33.1-16.07-43.07-25.23l-14.375 33.844-.006-.004c-1.16 2.723-.449 5.868 1.564 7.881l65.31 65.31h181.02c19.933 0 34.09-16.04 36.19-34.844l10.1-90.35-161.31-161.31-25.656 24.939.018.018c-.007-.005-.015-.011-.021-.016l20.06 20.06c-12.512-2.876-21.548-8.245-27.396-12.91v.002l-12.703 12.357-33.377-33.377c-25.846-25.846-54.04-28.504-54.04-28.504l66.39 66.39-.002.002-66.4-66.4" style="opacity:.25"/><path d="m196.84 150.75c0 0 2.316 5.426-11.281 25.25-13.593 19.814-6.438 48.31-6.438 48.31l.219-.094c.159 1.411.358 2.83.656 4.25 5.215 24.846 29.592 40.746 54.44 35.531.987-.207 1.948-.485 2.906-.75l14.5-34.09 18.219-19.19c-.029-.13-.034-.276-.063-.406-1.892-9.01-6.342-16.794-12.375-22.875l.031-.031c-27.417-32.757-60.812-35.906-60.812-35.906m133.13 17.438l-25.656 24.938c5.663 4.29 14.658 9.189 27.375 11.125l-1.719-36.06m-33 32.09l-36.625 35.625c4.512 3.563 11.333 7.342 19.875 6.875l2.469-.125 1.625 1.844c.376.414 9.978 10.75 28.969 10.75h2.5l1.531 1.938c.342.419 6.791 8.362 17.438 10.438l-2.531-53.03c-16.67-2.104-28.24-8.722-35.25-14.313m-42.06 44.28l-38 89.44c2.615 3.708 6.776 8.658 13.09 13.656l42.844-95.19c-7.43-1.218-13.484-4.541-17.938-7.906m27.5 11.5l-43.875 97.44c6.158 3.688 13.678 7.111 22.813 9.813l44.31-98.44c-10.728-1.401-18.473-5.452-23.25-8.813m32.531 12.969l-43.563 96.78c6.808 1.416 14.391 2.427 22.75 2.875l39.38-90.94c-8.07-1.425-14.412-5.329-18.563-8.719m-106.12.219l14.313 26.06 10.313-24.281c-8.494 1.377-16.882.699-24.625-1.781m2.656 78.41l-14.375 33.844c-1.469 3.448.062 7.572 3.438 9.219l63.41 31.06c3.361 1.647 7.293.183 8.781-3.25l16.344-37.813c-37.947-4.598-62.39-19.1-77.59-33.06m96.91.375l-7.875 18.219.156.031-14.719 33.969c6.207 4.131 12.9 5.686 18.25 3.563 9.712-3.857 14.16-19.455 9.938-34.844l-5.75-20.938" style="fill:#fff"/></svg>