<svg xmlns="http://www.w3.org/2000/svg" viewBox="0 0 512 512"><defs><linearGradient y1="121.76" x2="0" y2="453.26" id="0" gradientUnits="userSpaceOnUse"><stop style="stop-color:#6a6a6a"/><stop offset=".47"/><stop offset=".494" style="stop-color:#fff"/><stop offset=".901" style="stop-color:#fff"/><stop offset=".955"/><stop offset="1"/></linearGradient></defs><text x="729.64" y="233.74" line-height="125%" style="letter-spacing:0;word-spacing:0;font-size:129.23;font-family:Gentium Book Basic"><tspan x="729.64" y="233.74"/></text><text x="378.91" y="588.81" transform="scale(4.0128.2492)" style="font-size:46.954;font-family:Arial;text-anchor:middle"/><text x="1310.91" y="153.74" line-height="125%" style="letter-spacing:0;word-spacing:0;font-size:129.23;font-family:Gentium Book Basic"><tspan x="1310.91" y="153.74"/></text><text x="523.76" y="267.77" transform="scale(4.0128.2492)" style="font-size:46.954;font-family:Arial;text-anchor:middle"/><text x="239.33" y="-27.52" line-height="125%" style="letter-spacing:0;word-spacing:0;font-size:129.23;font-family:Gentium Book Basic"><tspan x="239.33" y="-27.52"/></text><text x="256.72" y="-459.58" transform="scale(4.0128.2492)" style="font-size:46.954;font-family:Arial;text-anchor:middle"/><text x="1337.38" y="-243.99" line-height="125%" style="letter-spacing:0;word-spacing:0;font-size:129.23;font-family:Gentium Book Basic"><tspan x="1337.38" y="-243.99"/></text><text x="530.36" y="-1328.26" transform="scale(4.0128.2492)" style="font-size:46.954;font-family:Arial;text-anchor:middle"/><text x="1918.65" y="-324" line-height="125%" style="letter-spacing:0;word-spacing:0;font-size:129.23;font-family:Gentium Book Basic"><tspan x="1918.65" y="-324"/></text><text x="675.21" y="-1649.29" transform="scale(4.0128.2492)" style="font-size:46.954;font-family:Arial;text-anchor:middle"/><text x="1529.53" y="-796.4" line-height="125%" style="letter-spacing:0;word-spacing:0;font-size:129.23;font-family:Gentium Book Basic"><tspan x="1529.53" y="-796.4"/></text><text x="578.24" y="-3544.95" transform="scale(4.0128.2492)" style="font-size:46.954;font-family:Arial;text-anchor:middle"/><text x="2110.8" y="-876.4" line-height="125%" style="letter-spacing:0;word-spacing:0;font-size:129.23;font-family:Gentium Book Basic"><tspan x="2110.8" y="-876.4"/></text><text x="723.09" y="-3865.99" transform="scale(4.0128.2492)" style="font-size:46.954;font-family:Arial;text-anchor:middle"/><g line-height="125%" style="letter-spacing:0;word-spacing:0;font-family:Gentium Book Basic"><text x="277.99" y="538.32" style="font-size:208.33"><tspan x="277.99" y="538.32"/></text><text x="3833.78" y="-509.14" style="font-size:129.23"><tspan x="3833.78" y="-509.14"/></text></g><text x="1152.46" y="-2392.23" transform="scale(4.0128.2492)" style="font-size:46.954;font-family:Arial;text-anchor:middle"/><text x="4415.05" y="-589.14" line-height="125%" style="letter-spacing:0;word-spacing:0;font-size:129.23;font-family:Gentium Book Basic"><tspan x="4415.05" y="-589.14"/></text><text x="1297.31" y="-2713.26" transform="scale(4.0128.2492)" style="font-size:46.954;font-family:Arial;text-anchor:middle"/><text x="3343.47" y="-770.39" line-height="125%" style="letter-spacing:0;word-spacing:0;font-size:129.23;font-family:Gentium Book Basic"><tspan x="3343.47" y="-770.39"/></text><text x="1030.27" y="-3440.62" transform="scale(4.0128.2492)" style="font-size:46.954;font-family:Arial;text-anchor:middle"/><text x="4441.52" y="-986.87" line-height="125%" style="letter-spacing:0;word-spacing:0;font-size:129.23;font-family:Gentium Book Basic"><tspan x="4441.52" y="-986.87"/></text><text x="1303.91" y="-4309.29" transform="scale(4.0128.2492)" style="font-size:46.954;font-family:Arial;text-anchor:middle"/><text x="5022.79" y="-1066.87" line-height="125%" style="letter-spacing:0;word-spacing:0;font-size:129.23;font-family:Gentium Book Basic"><tspan x="5022.79" y="-1066.87"/></text><text x="1448.76" y="-4630.32" transform="scale(4.0128.2492)" style="font-size:46.954;font-family:Arial;text-anchor:middle"/><text x="4633.67" y="-1539.27" line-height="125%" style="letter-spacing:0;word-spacing:0;font-size:129.23;font-family:Gentium Book Basic"><tspan x="4633.67" y="-1539.27"/></text><text x="1351.79" y="-6525.99" transform="scale(4.0128.2492)" style="font-size:46.954;font-family:Arial;text-anchor:middle"/><text x="5214.93" y="-1619.27" line-height="125%" style="letter-spacing:0;word-spacing:0;font-size:129.23;font-family:Gentium Book Basic"><tspan x="5214.93" y="-1619.27"/></text><text x="1496.64" y="-6847.02" transform="scale(4.0128.2492)" style="font-size:46.954;font-family:Arial;text-anchor:middle"/><text x="3382.13" y="-204.56" line-height="125%" style="letter-spacing:0;word-spacing:0;font-size:208.33;font-family:Gentium Book Basic"><tspan x="3382.13" y="-204.56"/></text><g style="fill-rule:evenodd"><path d="m108.63 57.39c-7.963 0-15.228 2.293-20.693 6.22-4.545 3.266-7.751 7.872-8.752 13.13h-11.909c-16.447 0-29.883 13.03-29.883 29.2v66.736c0 16.17 13.436 29.19 29.883 29.19h377.47c16.447 0 29.883-13.03 29.883-29.19v-66.736c0-16.17-13.436-29.2-29.883-29.2h-262.91c-1-5.256-4.208-9.862-8.753-13.13-5.465-3.927-12.73-6.22-20.693-6.22h-43.761" style="fill:#ccc"/><path d="m37.36 118.48c-19.928 0-38.06 15.818-36.23 35.853l24.26 265.41c1.733 18.966 16.271 34.947 36.2 34.947h383.41c19.933 0 34.1-16.05 36.2-34.853l29.632-265.41c1.123-10.05-3.137-19.263-9.971-25.663-6.833-6.399-16.258-10.284-26.22-10.284h-437.27" style="fill:#6997c7"/></g><path d="m37.36 118.47c-19.928 0-38.08 15.84-36.25 35.875l11.781 128.78 12.469 136.63c1.733 18.966 16.29 34.938 36.22 34.938h383.41c19.933 0 34.09-16.04 36.19-34.844l15.281-136.72 14.375-128.69c1.123-10.05-3.135-19.287-9.969-25.688-6.833-6.399-16.257-10.281-26.22-10.281h-437.28" style="fill:url(#0);opacity:.05"/><g style="fill:#fff;fill-rule:evenodd"><path d="m108.55 57.31c-7.963 0-15.11 2.403-20.572 6.33-4.545 3.266-7.702 7.931-8.703 13.187h-12.13c-17.677 0-29.802 12.771-29.802 30.661v3.956c0-16.17 13.355-29.27 29.802-29.27h14.286c1-5.256 2-9.657 6.549-12.923 5.465-3.927 12.609-6.33 20.572-6.33h43.78c7.963 0 15.371 2.403 20.835 6.33 4.545 3.266 5.766 7.668 6.769 12.923h264.88c16.447 0 29.802 11.455 29.802 27.625v-3.956c0-16.17-13.355-29.01-29.802-29.01h-262.95c-1-5.256-4.159-9.921-8.703-13.187-5.465-3.927-12.872-6.33-20.835-6.33z" style="opacity:.764"/><path d="m37.35 118.47c-19.928 0-38.05 15.84-36.22 35.875l.406 4.375c3-15.936 18.732-27.563 35.813-27.563h437.28c9.966 0 19.386 3.882 26.22 10.281 4.736 4.435 8.234 10.208 9.563 16.688l.406-3.688c1.123-10.05-3.134-19.288-9.969-25.688-6.833-6.399-16.252-10.281-26.22-10.281h-437.28" style="opacity:.4"/></g><text x="90.12" y="140.66" line-height="125%" style="letter-spacing:0;word-spacing:0;font-size:129.23;font-family:Gentium Book Basic"><tspan x="90.12" y="140.66"/></text><text x="219.54" y="215.29" transform="scale(4.0128.2492)" style="font-size:46.954;font-family:Arial;text-anchor:middle"/><text x="671.39" y="60.662" line-height="125%" style="letter-spacing:0;word-spacing:0;font-size:129.23;font-family:Gentium Book Basic"><tspan x="671.39" y="60.662"/></text><text x="364.39" y="-105.74" transform="scale(4.0128.2492)" style="font-size:46.954;font-family:Arial;text-anchor:middle"/><text x="-400.19" y="-120.6" line-height="125%" style="letter-spacing:0;word-spacing:0;font-size:129.23;font-family:Gentium Book Basic"><tspan x="-400.19" y="-120.6"/></text><text x="97.35" y="-833.09" transform="scale(4.0128.2492)" style="font-size:46.954;font-family:Arial;text-anchor:middle"/><text x="697.86" y="-337.07" line-height="125%" style="letter-spacing:0;word-spacing:0;font-size:129.23;font-family:Gentium Book Basic"><tspan x="697.86" y="-337.07"/></text><text x="370.99" y="-1701.76" transform="scale(4.0128.2492)" style="font-size:46.954;font-family:Arial;text-anchor:middle"/><text x="1279.13" y="-417.08" line-height="125%" style="letter-spacing:0;word-spacing:0;font-size:129.23;font-family:Gentium Book Basic"><tspan x="1279.13" y="-417.08"/></text><text x="515.84" y="-2022.8" transform="scale(4.0128.2492)" style="font-size:46.954;font-family:Arial;text-anchor:middle"/><text x="890.01" y="-889.48" line-height="125%" style="letter-spacing:0;word-spacing:0;font-size:129.23;font-family:Gentium Book Basic"><tspan x="890.01" y="-889.48"/></text><text x="418.87" y="-3918.45" transform="scale(4.0128.2492)" style="font-size:46.954;font-family:Arial;text-anchor:middle"/><text x="1471.27" y="-969.48" line-height="125%" style="letter-spacing:0;word-spacing:0;font-size:129.23;font-family:Gentium Book Basic"><tspan x="1471.27" y="-969.48"/></text><text x="563.72" y="-4239.48" transform="scale(4.0128.2492)" style="font-size:46.954;font-family:Arial;text-anchor:middle"/><g line-height="125%" style="letter-spacing:0;word-spacing:0;font-size:208.33;font-family:Gentium Book Basic"><text x="-361.53" y="445.24"><tspan x="-361.53" y="445.24"/></text><text x="-2585.36" y="426.28"><tspan x="-2585.36" y="426.28"/></text></g><text x="-326.55" y="1147.7" transform="scale(4.0128.2492)" style="font-size:75.7;font-family:Arial;text-anchor:middle"/><text x="-1879.02" y="270.65" line-height="125%" style="letter-spacing:0;word-spacing:0;font-size:208.33;font-family:Gentium Book Basic"><tspan x="-1879.02" y="270.65"/></text><text x="-150.53" y="523.17" transform="scale(4.0128.2492)" style="font-size:75.7;font-family:Arial;text-anchor:middle"/><text x="-1845.65" y="262.53" line-height="125%" style="letter-spacing:0;word-spacing:0;font-size:208.33;font-family:Gentium Book Basic"><tspan x="-1845.65" y="262.53"/></text><text x="-142.21" y="490.57" transform="scale(4.0128.2492)" style="font-size:75.7;font-family:Arial;text-anchor:middle"/><text x="-695.23" y="108.12" line-height="125%" style="letter-spacing:0;word-spacing:0;font-size:129.23;font-family:Gentium Book Basic"><tspan x="-695.23" y="108.12"/></text><text x="23.831" y="84.71" transform="scale(4.0128.2492)" style="font-size:46.954;font-family:Arial;text-anchor:middle"/><text x="-113.97" y="28.12" line-height="125%" style="letter-spacing:0;word-spacing:0;font-size:129.23;font-family:Gentium Book Basic"><tspan x="-113.97" y="28.12"/></text><text x="168.68" y="-236.33" transform="scale(4.0128.2492)" style="font-size:46.954;font-family:Arial;text-anchor:middle"/><text x="-1185.55" y="-153.14" line-height="125%" style="letter-spacing:0;word-spacing:0;font-size:129.23;font-family:Gentium Book Basic"><tspan x="-1185.55" y="-153.14"/></text><text x="-98.36" y="-963.66" transform="scale(4.0128.2492)" style="font-size:46.954;font-family:Arial;text-anchor:middle"/><text x="-87.5" y="-369.61" line-height="125%" style="letter-spacing:0;word-spacing:0;font-size:129.23;font-family:Gentium Book Basic"><tspan x="-87.5" y="-369.61"/></text><text x="175.28" y="-1832.34" transform="scale(4.0128.2492)" style="font-size:46.954;font-family:Arial;text-anchor:middle"/><text x="493.77" y="-449.61" line-height="125%" style="letter-spacing:0;word-spacing:0;font-size:129.23;font-family:Gentium Book Basic"><tspan x="493.77" y="-449.61"/></text><text x="320.12" y="-2153.37" transform="scale(4.0128.2492)" style="font-size:46.954;font-family:Arial;text-anchor:middle"/><text x="104.65" y="-922.01" line-height="125%" style="letter-spacing:0;word-spacing:0;font-size:129.23;font-family:Gentium Book Basic"><tspan x="104.65" y="-922.01"/></text><text x="223.16" y="-4049.01" transform="scale(4.0128.2492)" style="font-size:46.954;font-family:Arial;text-anchor:middle"/><text x="685.91" y="-1002.02" line-height="125%" style="letter-spacing:0;word-spacing:0;font-size:129.23;font-family:Gentium Book Basic"><tspan x="685.91" y="-1002.02"/></text><text x="368" y="-4370.04" transform="scale(4.0128.2492)" style="font-size:46.954;font-family:Arial;text-anchor:middle"/><g line-height="125%" style="letter-spacing:0;word-spacing:0;font-family:Gentium Book Basic"><text x="-1146.89" y="412.7" style="font-size:208.33"><tspan x="-1146.89" y="412.7"/></text><text x="-745.68" y="-630.89" style="font-size:129.23"><tspan x="-745.68" y="-630.89"/></text></g><text x="11.261" y="-2880.79" transform="scale(4.0128.2492)" style="font-size:46.954;font-family:Arial;text-anchor:middle"/><text x="-164.41" y="-710.89" line-height="125%" style="letter-spacing:0;word-spacing:0;font-size:129.23;font-family:Gentium Book Basic"><tspan x="-164.41" y="-710.89"/></text><text x="156.11" y="-3201.82" transform="scale(4.0128.2492)" style="font-size:46.954;font-family:Arial;text-anchor:middle"/><text x="-1235.99" y="-892.15" line-height="125%" style="letter-spacing:0;word-spacing:0;font-size:129.23;font-family:Gentium Book Basic"><tspan x="-1235.99" y="-892.15"/></text><text x="-110.93" y="-3929.18" transform="scale(4.0128.2492)" style="font-size:46.954;font-family:Arial;text-anchor:middle"/><text x="-137.94" y="-1108.62" line-height="125%" style="letter-spacing:0;word-spacing:0;font-size:129.23;font-family:Gentium Book Basic"><tspan x="-137.94" y="-1108.62"/></text><text x="162.71" y="-4797.83" transform="scale(4.0128.2492)" style="font-size:46.954;font-family:Arial;text-anchor:middle"/><text x="443.32" y="-1188.63" line-height="125%" style="letter-spacing:0;word-spacing:0;font-size:129.23;font-family:Gentium Book Basic"><tspan x="443.32" y="-1188.63"/></text><text x="307.55" y="-5118.87" transform="scale(4.0128.2492)" style="font-size:46.954;font-family:Arial;text-anchor:middle"/><text x="54.2" y="-1661.03" line-height="125%" style="letter-spacing:0;word-spacing:0;font-size:129.23;font-family:Gentium Book Basic"><tspan x="54.2" y="-1661.03"/></text><text x="210.59" y="-7014.51" transform="scale(4.0128.2492)" style="font-size:46.954;font-family:Arial;text-anchor:middle"/><text x="635.47" y="-1741.03" line-height="125%" style="letter-spacing:0;word-spacing:0;font-size:129.23;font-family:Gentium Book Basic"><tspan x="635.47" y="-1741.03"/></text><text x="355.43" y="-7335.54" transform="scale(4.0128.2492)" style="font-size:46.954;font-family:Arial;text-anchor:middle"/><g line-height="125%" style="letter-spacing:0;word-spacing:0;font-family:Gentium Book Basic"><text x="-1197.34" y="-326.31" style="font-size:208.33"><tspan x="-1197.34" y="-326.31"/></text><text x="2358.46" y="-1373.77" style="font-size:129.23"><tspan x="2358.46" y="-1373.77"/></text></g><text x="784.8" y="-5861.8" transform="scale(4.0128.2492)" style="font-size:46.954;font-family:Arial;text-anchor:middle"/><text x="2939.72" y="-1453.77" line-height="125%" style="letter-spacing:0;word-spacing:0;font-size:129.23;font-family:Gentium Book Basic"><tspan x="2939.72" y="-1453.77"/></text><text x="929.65" y="-6182.84" transform="scale(4.0128.2492)" style="font-size:46.954;font-family:Arial;text-anchor:middle"/><text x="1868.14" y="-1635.02" line-height="125%" style="letter-spacing:0;word-spacing:0;font-size:129.23;font-family:Gentium Book Basic"><tspan x="1868.14" y="-1635.02"/></text><text x="662.61" y="-6910.17" transform="scale(4.0128.2492)" style="font-size:46.954;font-family:Arial;text-anchor:middle"/><text x="2966.19" y="-1851.5" line-height="125%" style="letter-spacing:0;word-spacing:0;font-size:129.23;font-family:Gentium Book Basic"><tspan x="2966.19" y="-1851.5"/></text><text x="936.25" y="-7778.84" transform="scale(4.0128.2492)" style="font-size:46.954;font-family:Arial;text-anchor:middle"/><text x="3547.46" y="-1931.5" line-height="125%" style="letter-spacing:0;word-spacing:0;font-size:129.23;font-family:Gentium Book Basic"><tspan x="3547.46" y="-1931.5"/></text><text x="1081.1" y="-8099.88" transform="scale(4.0128.2492)" style="font-size:46.954;font-family:Arial;text-anchor:middle"/><text x="3158.34" y="-2403.9" line-height="125%" style="letter-spacing:0;word-spacing:0;font-size:129.23;font-family:Gentium Book Basic"><tspan x="3158.34" y="-2403.9"/></text><text x="984.13" y="-9995.52" transform="scale(4.0128.2492)" style="font-size:46.954;font-family:Arial;text-anchor:middle"/><text x="3739.61" y="-2483.9" line-height="125%" style="letter-spacing:0;word-spacing:0;font-size:129.23;font-family:Gentium Book Basic"><tspan x="3739.61" y="-2483.9"/></text><text x="1128.98" y="-10316.54" transform="scale(4.0128.2492)" style="font-size:46.954;font-family:Arial;text-anchor:middle"/><g line-height="125%" style="letter-spacing:0;word-spacing:0;font-size:208.33;font-family:Gentium Book Basic"><text x="1906.8" y="-1069.19"><tspan x="1906.8" y="-1069.19"/></text><text x="-2635.81" y="-315.11"><tspan x="-2635.81" y="-315.11"/></text></g><text x="-339.12" y="-1827.37" transform="scale(4.0128.2492)" style="font-size:75.7;font-family:Arial;text-anchor:middle"/><text x="-2635.81" y="-315.11" line-height="125%" style="letter-spacing:0;word-spacing:0;font-size:208.33;font-family:Gentium Book Basic"><tspan x="-2635.81" y="-315.11"/></text><text x="-339.12" y="-1827.37" transform="scale(4.0128.2492)" style="font-size:75.7;font-family:Arial;text-anchor:middle"/><text x="-2969.36" y="317.8" line-height="125%" style="letter-spacing:0;word-spacing:0;font-size:208.33;font-family:Gentium Book Basic"><tspan x="-2969.36" y="317.8"/></text><text x="-422.24" y="712.4" transform="scale(4.0128.2492)" style="font-size:75.7;font-family:Arial;text-anchor:middle"/><text x="-2263.02" y="162.17" line-height="125%" style="letter-spacing:0;word-spacing:0;font-size:208.33;font-family:Gentium Book Basic"><tspan x="-2263.02" y="162.17"/></text><text x="-246.22" y="87.88" transform="scale(4.0128.2492)" style="font-size:75.7;font-family:Arial;text-anchor:middle"/><path d="m316.17 161.6c-2.365.022-4.105.148-5.387.418-1.709.36-2.607.974-3.139 1.93-.953 1.713-.347 3.223 2.736 6.307l2.02 2.02c1.498 1.587 2.155 2.761 2.723 4.818.454 1.644 1 3.923 1.551 6.311l-16.764-16.764c-1.956-1.956-5.495-1.594-13.199-.055-.902.18-1.857.379-2.877.59-9.557 1.973-11.294 2.499-12.355 3.652-1.744 1.894-1.446 3.302 1.363 6.24 2.911 3.044 4.136 6.128 5.557 14.07.563 3.147 2.509 12.803 4.363 21.664l-24.984-24.984c-1.42-1.42-2.996-2.778-4.766-4.133-6.067-4.644-13.391-7.15-19.715-6.754-.279.017-.565.059-.836.125-1.896.463-3.503 2.023-3.396 3.484.041.565 1.476 2.578 3.174 4.477 2.485 2.778 3.291 4.201 4.174 7.258.426 1.474.831 3.197 1.068 4.492l-15.883-15.883c-.555-.555-1.388-.895-2.498-1.021-.484-.055-1.012-.018-1.578.09-5.474 1.044-14.314 9.305-17.859 17.11-.763 1.678-1.406 3.438-1.938 5.262l-12.955-12.955c-1.188-1.188-2.733-1.403-5.082-1.232-.753.055-1.461.167-2.123.32-4.637 1.074-6.908 4.388-4.826 7.682.408.646 2.04 2.546 3.641 4.209 2.042 2.121 3.397 4.2 4.516 6.977.932 2.314 2.183 4.4 3.301 5.518l12.508 12.508c.015.09.028.181.043.271l-31.916-31.916-.016-.016c-1.466-1.401-4.851-1.468-11.836-.246-.993.174-1.892.345-2.715.504-5.759 1.109-7.63 1.943-9.258 3.826-1.382 1.598-1.476 2.041-1.068 4.684.087.562.636 3.365 1.053 5.521l-7.889-7.889c-1.289-1.289-4.115-1.627-6.887-1.17-2.385.394-4.726 1.379-6.01 2.859-1.508 1.744-1.419 4.066.488 13.232 1.277 6.138 2.529 9.774 3.828 11.07l25.27 25.27c.009.035.05.229.057.25.201.649.943 4.01 1.652 7.457 1.421 6.904 1.295 10.239-.479 12.865-1.216 1.8-1.151 3.652.162 4.965l34.801 34.801c-2.157 3.848-3.587 8.108-4.373 12.951l-17.06-17.06c-.129-.129-.267-.257-.416-.389-1.802-1.594-2.688-1.79-8.393-.605-.815.169-1.725.358-2.754.584-9.13 2-9.943 2.465-9.723 5.51.054.74.276 1.327.783 1.834l41.764 41.764c.385.881.8 1.798 1.264 2.781.988 2.095 2.131 4.058 3.457 5.961l-31.27-31.26c-.364-.364-.742-.572-1.133-.615-.206-.023-.416-.025-.625.012-.62.11-1.239.481-1.789 1.016l-20.768-20.768c-.046-.046-.091-.09-.137-.133l-1.748-1.633-4.611.709c-2.764.419-5.978.972-8.998 1.553-5.03.97-9.57 1.997-10.805 2.494-3.061 1.231-3.205 4.633-.605 7.232l2.717 2.717c1.206 1.84 2.102 4.632 2.77 8.602.384 2.287 1.207 6.604 2.143 11.412l-24.414-24.414c-.336-.336-.725-.604-1.125-.764-1.294-.515-1.921-.404-4.299.738-3.207 1.541-4.895 1.734-9.82 1.191-1.908-.21-3.346-.204-4.406.008-1.364.272-2.079.907-2.26 1.939-.191 1.091.019 1.937.795 2.713l52.49 52.49c.448 2.254.706 3.914.734 5.193l-24.291-24.291c-2.462-2.462-5.456-4.462-9.273-6.127l-27.992-27.992c-.075-.075-.154-.15-.24-.225-1.11-.96-2.254-1.267-3.951-.887-1.018.228-2.241.711-3.771 1.443-3.398 1.626-4.552 2.622-8.941 7.705-5.892 6.823-6.598 8.731-6.406 17.428.103 4.721.299 5.715 1.5 7.791 2.01 3.473 4.184 6.401 6.654 8.871l85.53 85.53h312.8c19.933 0 34.09-16.04 36.19-34.844l13.648-122.11-46.42-46.42c-.5-.5-1.138-.753-2.078-1.154-2.489-1.064-4.215-1.106-12.09.395-1.124.217-2.383.468-3.779.746-3.974.792-5.104 1.245-6.17 2.479-.391.452-.679.869-.865 1.41l-86.46-86.46c-1.035-1.035-2.208-1.995-3.527-2.896-4.583-3.132-8.04-4.125-14.697-4.227-.934-.014-1.792-.019-2.58-.012m147.11 83.36c-.754.015-1.519.097-2.264.242-2.344.457-4.484 1.533-5.436 3.125-1.354 2.266-.819 3.632 2.979 7.648 2.362 2.498 4.11 5.01 5.04 7.182 1.453 3.404 2.691 5.565 3.881 6.754l27.398 27.398 1.586-14.184.895-8.01-28.334-28.334-.059-.061c-1.25-1.25-3.42-1.804-5.684-1.758m-413.18 138.76c-.734.105-1.498.637-2.326 1.594-1.572 1.817-1.501 3.658.494 13.268 1.713 8.248 2.364 10.491 3.645 11.771l44.34 44.34h27.506l-50.555-50.555c-.814-.814-2.089-1.592-3.857-2.379l-17.1-17.1c-.737-.737-1.435-1.048-2.152-.945" style="opacity:.25"/><path d="m286.71 166.58c-.902.18-1.858.38-2.878.59-9.557 1.973-11.294 2.498-12.356 3.652-1.744 1.894-1.446 3.302 1.363 6.24 2.911 3.044 4.137 6.129 5.558 14.07.576 3.218 2.591 13.226 4.482 22.246 1.891 9.02 3.763 18.832 4.164 21.805.688 5.094.646 5.569-.56 8.348-.704 1.622-1.246 3.412-1.205 3.976.119 1.641 1.526 2.885 3.651 3.238 2.149.357 3.03.248 11.703-1.645 3.208-.7 8.03-1.686 10.703-2.187 5.455-1.024 7.919-2.265 8.704-4.382.449-1.212.318-1.678-.807-2.89-4.513-4.859-5.36-6.767-6.866-15.463-.553-3.193-2.727-14.189-4.832-24.435-2.105-10.246-4.267-21.14-4.789-24.21-1.825-10.725-2.511-11.652-16.04-8.949m-54.25 10.467c-1.896.463-3.501 2.023-3.395 3.484.041.565 1.475 2.578 3.173 4.476 2.485 2.778 3.292 4.201 4.174 7.257.603 2.089 1.182 4.722 1.269 5.846.202 2.619 6.815 34.97 8.325 40.709 1.758 6.683 1.8 9.541.15 13.801-1.624 4.194-1.678 6.126-.204 6.847 4.03 1.971 11.762-3.275 19.396-13.14 4.699-6.073 5.359-7.379 6.02-11.89.722-4.911-1.211-22.484-3.101-28.19-3.556-10.737-7.576-16.691-15.257-22.571-6.067-4.644-13.392-7.15-19.716-6.754-.279.017-.565.059-.836.125m-14.938 2.895c-5.474 1.044-14.315 9.306-17.861 17.11-3.739 8.227-4.714 18.309-2.816 29.19 1.851 10.604 4.472 16.412 10.817 23.981 4.933 5.884 10.745 9.625 18.17 11.655 4.586 1.254 9.807 1.093 11.04-.335 1.53-1.769.808-3.96-2.371-7.103-3.394-3.355-4.07-4.993-5.531-13.463-2.567-14.88-6.735-36.01-8.117-41.21-1.507-5.67-1.448-8.356.219-11.883 2.319-4.908 1.645-7.61-1.975-8.02-.484-.055-1.01-.019-1.577.089m93.26-17.928c-1.709.36-2.608.974-3.139 1.93-1.042 1.873-.22 3.504 3.664 7.212 2.361 2.254 3.118 3.417 3.811 5.93 1.307 4.736 3.402 14.336 4.056 18.548.566 3.642.519 3.86-1.463 7.752-2.192 4.303-2.431 6.765-.77 7.905 1.94 1.333 9.421-.339 15.15-3.383 6.614-7.263 6.461-5.27 10.385-12.677.835-2.251 1.034-4.233.891-8.86-.305-9.902-3.227-15.961-9.921-20.535-4.583-3.132-8.04-4.126-14.697-4.227-3.736-.057-6.256.046-7.965.406m-133.22 26.43c-4.637 1.074-6.908 4.39-4.826 7.683.408.646 2.04 2.544 3.641 4.207 2.042 2.121 3.396 4.2 4.515 6.977.982 2.438 2.317 4.623 3.478 5.689 2.173 1.996 3.696 2.1 5.079.329 1.192-1.528.951-4.889-.993-13.71-2.272-10.311-3.471-11.88-8.771-11.495-.753.055-1.461.166-2.124.32m-27.3 5.491c-5.759 1.109-7.631 1.943-9.259 3.826-1.382 1.598-1.476 2.041-1.068 4.684.566 3.665 9.418 47.543 9.914 49.14.201.649.942 4.01 1.651 7.457 1.421 6.904 1.296 10.239-.478 12.865-1.282 1.898-1.14 3.853.387 5.174 1.652 1.428 4.658 1.129 18.11-1.841 10.895-2.405 11.04-2.432 12.192-1.435 1.084.937 1.283.937 2.78.02 2.32-1.421 2.037-4.435-.702-7.55-4.867-5.535-4.945-5.709-7-16.996-.809-4.442-3.605-18.55-6.218-31.352-3.66-17.934-4.98-23.506-5.765-24.26-1.466-1.401-4.849-1.468-11.835-.246-.993.174-1.892.347-2.715.505m-24.05 4.973c-2.385.394-4.726 1.378-6.01 2.859-1.508 1.744-1.418 4.067.489 13.234 1.457 7 2.881 10.747 4.379 11.481 1.463.717 2.279.534 3.4-.762 1.198-1.385 1.745-4.107 1.881-9.301.071-2.73.621-5.086 1.975-8.442 1.984-4.92 2.129-5.867 1.126-7.454-1.044-1.651-4.177-2.12-7.244-1.614m334.8 46.29c-2.344.457-4.484 1.533-5.435 3.125-1.354 2.266-.82 3.633 2.978 7.649 2.362 2.498 4.11 5.01 5.04 7.181 1.99 4.663 3.579 6.993 5.189 7.689 1.934.835 2.615.7 3.883-.766.985-1.139 1.044-1.714.51-5.257-1.06-7.04-3.423-17.281-4.156-18.04-1.647-1.716-4.992-2.161-8.01-1.575m-26.771 5.353c-1.124.217-2.384.468-3.779.746-3.974.792-5.102 1.245-6.169 2.478-1.635 1.891-1.565 3.106.908 15.876 5.54 28.603 7.359 37.582 8.772 43.31 2.171 8.798 2.219 10.664.406 14.755-1.696 3.825-1.465 5.973.711 6.67 1.681.539 7.372.133 10.514-.753 1.369-.386 5.945-1.36 10.172-2.156 7.995-1.506 9.998-2.166 11.543-3.782 1.519-1.589.918-3.537-2.03-6.631-1.508-1.583-3.066-3.811-3.46-4.941-.688-1.975-2.602-11.956-4.544-23.685-.508-3.067-1.701-9.341-2.647-13.929-.946-4.587-2.36-11.721-3.161-15.854-2.222-11.458-2.12-11.203-5.148-12.498-2.489-1.064-4.214-1.107-12.09.393m-25.04 5.055c-2.382.435-4.717 1.564-5.961 3.28-1.637 2.259-1.555 3.285.917 13.223 2.489 10.01 2.701 10.621 3.857 11.188 1.239.611 1.645.574 2.896-.217 1.541-.974 1.928-2.238 2.261-7.511.192-3.03.997-6.964 2.184-10.703 1.616-5.09 1.767-6.111 1.121-7.292-1.061-1.943-4.212-2.525-7.276-1.966m-30.01 6.05c-2.352.444-4.48.938-5.495 1.327-1.662.638-3.579 2.762-3.498 3.88.102 1.406 2.416 2.996 5.946 4.086 5.757 1.777 11.09 5.02 11.222 6.831.024.327 1.13 1.577 2.471 2.784 2.611 2.351 4.539 2.693 5.954 1.057 1.029-1.19.844-3.834-.849-12.04-1.474-7.139-2.435-8.554-6.107-9.106-1.17-.176-5.725.436-9.644 1.177m-35.429 7.093c-4.328.889-8 1.904-9.06 2.713-2.153 1.645-1.637 4.235 1.353 6.744 2.919 2.45 3.256 3.554 7.453 25.02 1.526 7.805 3.546 17.55 4.479 21.673.933 4.123 1.983 9.665 2.334 12.305.594 4.47.544 4.976-.666 7.24-1.387 2.597-1.52 5.884-.276 6.753.409.285 1.247.607 1.875.714.629.107 1.267.209 1.423.227.157.019 1.915-.32 3.9-.769 1.985-.449 6.246-1.273 9.466-1.823 7-1.197 9.227-2.01 11.131-4.061 1.948-2.102 2.059-4.224.58-10.663-1.497-6.519-8.255-39.16-11.04-53.32-2.048-10.413-3.206-13.806-4.998-14.604-1.709-.761-10.739.364-17.952 1.846m-77.02 15.373c-3.608.706-7.59 1.584-10.715 2.404-5.642 1.481-6.349 4.438-2.058 8.565 2.828 2.721 3.741 4.86 4.823 11.181.992 5.794 5.762 29.697 7.661 38.38 2.351 10.748 2.455 12.751.87 16.331-1.445 3.263-1.482 5.513-.106 6.702 1.131.978 6.978.707 11.557-.542 1.64-.447 6.119-1.401 9.947-2.113 8.593-1.599 10.869-2.408 11.912-4.283 1-1.8.474-2.942-2.966-6.379-2.728-2.726-2.17-.706-6.667-23.921-3.916-20.22-8.366-41.583-9.09-43.661-1.186-3.401-2.666-4.303-6.65-4.02-1.67.118-4.909.648-8.517 1.354m-62.31 12.06c-2.192.435-7.687 3.243-9.942 5.211-7.638 6.667-11.733 14.377-13.11 24.684-.624 4.681-.591 6.852.134 13.159.975 8.488 2.079 12.449 5.555 19.818 2.39 5.067 5.633 9.389 10.389 13.853 2.93 2.75 10.21 5.845 15.687 6.67 4.931.742 8.826.138 10.02-1.571 1.465-2.104.999-3.332-2.489-6.507-1.793-1.632-3.756-3.946-4.359-5.144-.603-1.198-1.738-5.82-2.532-10.261-.793-4.441-1.563-8.166-1.704-8.288-.141-.122.13-.705.592-1.296.777-.994.686-1.851-1.165-11.258-1.101-5.596-2.245-10.398-2.539-10.671-.294-.274-.585-1.196-.648-2.061-.065-.902-.419-1.554-.831-1.524-.463.034-1.07-1.481-1.715-4.256-1.644-7.07-1.575-8.336.674-12.311 2.724-4.814 2.329-7.276-1.307-8.275-.16-.044-.398-.033-.711.029m88.7-16.763c-3.589.659-5.09 1.819-5.17 3.755-.075 1.785.981 3.351 4.376 6.538 1.273 1.195 2.619 2.84 2.996 3.651 1.184 2.544 4.14 16.982 3.904 19.06-.124 1.087-1.09 3.492-2.16 5.342-1.07 1.85-1.911 3.899-1.864 4.551.095 1.332 2.859 4.605 5.617 6.657 2.043 1.52 2.612 3.01 4.534 12.01.687 3.216 1.723 7.145 2.311 8.745 1.886 5.127 7 8.703 13.33 9.309 5.05.484 11.49-1.388 14.807-4.321 2.54-2.246 5.768-7.772 5.633-9.63-.147-2.027-1.271-2.933-4.71-3.804-4.057-1.028-4.723-1.905-6.117-8.137-1.257-5.62-2.405-7.612-5.943-10.302-1.49-1.133-1.797-1.276-6.65-3.09-2.367-.885-2.777-1.266-2.879-2.67-.119-1.642.168-2.081 3.715-5.731 2.991-3.079 4.511-7.285 4.448-12.34-.17-13.695-9.895-21.255-25.869-20.1-1.685.123-3.113.288-4.309.508m-58.6 11.502c-.653.183-1.521.712-3.124 1.73l-3.365 2.153-4.726-.541c-3.226-.371-5.154-.351-6.076.077-3.132 1.458-1.904 4.4 2.778 6.612 5.566 2.63 10.962 7.699 14.15 13.307 1.527 2.683 3.209 5.296 3.733 5.802 1.354 1.305 3.903.968 4.859-.631 1.05-1.758.725-5.642-1.383-16.02-1.898-9.337-2.595-11.03-4.992-12.151-.763-.357-1.204-.524-1.857-.341m-78.8 15.66c-.815.169-1.725.359-2.754.584-9.13 2-9.944 2.465-9.723 5.509.144 1.98 1.493 2.856 6.284 4.074 1.963.499 4.281 1.47 5.146 2.162.864.692 2.096 1.494 2.744 1.782.648.289 2.144 1.826 3.326 3.408 1.181 1.582 2.741 3.235 3.465 3.668 1.716 1.026 2.955.895 3.918-.396 1.374-1.842 1.3-3.695-.5-11.243-1.572-6.591-1.953-7.562-3.514-8.943-1.802-1.594-2.688-1.789-8.393-.605m-84.13 16.526c-1.364.272-2.079.907-2.26 1.94-.375 2.139.791 3.338 4.743 4.908 5.904 2.346 14.12 9.566 14.338 12.591.033.46.656 1.379 1.379 2.045 2.352 2.165 5.781 1.032 6.166-2.029.207-1.649-2.465-15.189-3.776-19.14-.325-.98-1.164-1.895-2.064-2.254-1.294-.515-1.922-.404-4.3.739-3.207 1.541-4.895 1.736-9.82 1.193-1.908-.21-3.345-.205-4.406.007m47.846-9.216c-5.03.97-9.571 1.996-10.806 2.493-3.431 1.38-3.198 5.487.456 8.135 2.094 1.517 3.482 4.807 4.424 10.416 1.178 7.01 5.962 30.946 8.105 40.59 2.234 10.06 2.265 11.23.403 15.11-1.361 2.838-1.353 4.225.03 5.924.987 1.212 1.207 1.219 6.103.526 8.458-1.197 17.818-3.189 19.908-4.247 1.096-.554 2.292-1.733 2.679-2.648.85-2.01.615-3.419-5.962-36.721-2.599-13.159-4.994-25.551-5.341-27.544-1.14-6.552-2.751-10.914-4.643-12.666l-1.748-1.634-4.611.709c-2.764.419-5.978.973-8.998 1.554m-61.831 12.03c-1.018.228-2.24.711-3.771 1.443-3.398 1.626-4.552 2.622-8.942 7.705-5.892 6.823-6.598 8.731-6.406 17.428.103 4.721.3 5.714 1.5 7.79 6.503 11.242 14.747 16.777 29.11 19.544 11.314 2.179 15.363 4.122 17.686 8.488 1.599 3.01 1.364 4.47-1.379 8.649-3.896 5.936-4.164 7.414-1.648 9.113l1.528 1.049 3.652-1.689c9.98-4.594 16.387-13.425 17.57-24.2.734-6.682-1.993-14.358-6.964-19.6-4.948-5.218-12.1-8.421-23.997-10.748-7.402-1.447-14.03-3.999-15.558-5.996-.582-.762-1.241-2.681-1.484-4.264-.408-2.661-.275-3.203 1.844-6.983 2.47-4.407 2.677-5.572 1.208-6.843-1.11-.96-2.253-1.268-3.951-.887m326.77-38.486c-.924.224-1.742.684-1.919 1.104-3.856 9.165-5.68 14.628-5.277 15.849.251.76 2.129 2.896 4.172 4.732 2.043 1.837 4.575 4.203 5.617 5.26 2.043 2.073 3.199 2.316 4.42.904 1.33-1.538 1.331-4.202-.005-10.07-.709-3.114-1.711-7.789-2.234-10.39-.523-2.601-1.284-5.409-1.687-6.249-.635-1.324-.994-1.49-2.689-1.22-.135.02-.265.045-.397.077m-226.89 45.707c-1.467.26-2.954 1.925-3.444 3.977-.285 1.196-1.385 3.761-2.431 5.699-3.276 6.068-2.927 7.751 2.409 11.95 1.589 1.25 3.645 3.249 4.581 4.438.936 1.189 2.296 2.28 3.01 2.412 3.351.623 4.17-1.972 2.692-8.436-.559-2.446-1.424-7.03-1.928-10.198-.978-6.134-2.504-9.66-4.263-9.856-.206-.023-.415-.024-.625.013m-107.42 50.569c-.734.105-1.499.637-2.326 1.595-1.572 1.817-1.5 3.659.496 13.268 1.879 9.05 2.481 10.869 4.04 12.12 1.633 1.314 2.748 1.216 6.07-.505 1.955-1.014 3.319-1.346 5.101-1.233 1.336.085 4.142.199 6.229.251 3.732.093 3.795.067 4.371-1.487.861-2.322-.577-4.13-4.753-5.981-5.691-2.524-11.05-7.694-15.422-14.872-1.403-2.304-2.573-3.331-3.797-3.156m351.92-65.53c-1.904.34-3.199 2.166-4.22 5.9-.711 2.6-3.319 7.343-4.977 9.04-.589.602-2.335 2.068-3.87 3.253-4.188 3.234-4.934 6.263-1.861 7.542 1.766.736 2.946.681 7.755-.383 2.045-.453 5.413-1.105 7.479-1.441 4.516-.733 5.901-1.84 6.249-5.04.332-3.052-1.894-14.789-3.258-17.197-.884-1.561-1.341-1.828-2.91-1.715-.132.009-.26.016-.387.039m-227.74 45.39c-1.496.344-2.479 1.727-3.261 4.462-1.883 6.588-3.172 8.526-9.701 14.551-3.43 3.165-3.987 5.588-1.634 7.05 1.477.92 2.527.803 13.834-1.464 8.361-1.676 8.596-2.238 6.259-14.659-1.545-8.209-2.092-9.64-3.814-9.942-.624-.109-1.185-.113-1.684.002m73.32-12.726c-1.459.181-2.89 2.342-4.776 6.921-2.077 5.04-3.99 7.678-7.477 10.289-1.44 1.079-2.964 2.597-3.398 3.377-1.042 1.874-.835 4.075.439 4.698 1.613.789 2.473.557 6.146-1.667 4.269-2.586 8.231-7.407 10.318-12.557 2-4.938 2.306-8.7.807-10.133-.726-.694-1.397-1.011-2.06-.929" style="fill:#fff"/></svg>