<svg xmlns="http://www.w3.org/2000/svg" viewBox="0 0 512 512"><defs><linearGradient y1="121.76" x2="0" y2="453.26" id="0" gradientUnits="userSpaceOnUse"><stop style="stop-color:#6a6a6a"/><stop offset=".47"/><stop offset=".494" style="stop-color:#fff"/><stop offset=".901" style="stop-color:#fff"/><stop offset=".955"/><stop offset="1"/></linearGradient></defs><text x="729.64" y="233.74" line-height="125%" style="letter-spacing:0;word-spacing:0;font-size:129.23;font-family:Gentium Book Basic"><tspan x="729.64" y="233.74"/></text><text x="378.91" y="588.81" transform="scale(4.0128.2492)" style="font-size:46.954;font-family:Arial;text-anchor:middle"/><text x="1310.91" y="153.74" line-height="125%" style="letter-spacing:0;word-spacing:0;font-size:129.23;font-family:Gentium Book Basic"><tspan x="1310.91" y="153.74"/></text><text x="523.76" y="267.77" transform="scale(4.0128.2492)" style="font-size:46.954;font-family:Arial;text-anchor:middle"/><text x="239.33" y="-27.52" line-height="125%" style="letter-spacing:0;word-spacing:0;font-size:129.23;font-family:Gentium Book Basic"><tspan x="239.33" y="-27.52"/></text><text x="256.72" y="-459.58" transform="scale(4.0128.2492)" style="font-size:46.954;font-family:Arial;text-anchor:middle"/><text x="1337.38" y="-243.99" line-height="125%" style="letter-spacing:0;word-spacing:0;font-size:129.23;font-family:Gentium Book Basic"><tspan x="1337.38" y="-243.99"/></text><text x="530.36" y="-1328.26" transform="scale(4.0128.2492)" style="font-size:46.954;font-family:Arial;text-anchor:middle"/><text x="1918.65" y="-324" line-height="125%" style="letter-spacing:0;word-spacing:0;font-size:129.23;font-family:Gentium Book Basic"><tspan x="1918.65" y="-324"/></text><text x="675.21" y="-1649.29" transform="scale(4.0128.2492)" style="font-size:46.954;font-family:Arial;text-anchor:middle"/><text x="1529.53" y="-796.4" line-height="125%" style="letter-spacing:0;word-spacing:0;font-size:129.23;font-family:Gentium Book Basic"><tspan x="1529.53" y="-796.4"/></text><text x="578.24" y="-3544.95" transform="scale(4.0128.2492)" style="font-size:46.954;font-family:Arial;text-anchor:middle"/><text x="2110.8" y="-876.4" line-height="125%" style="letter-spacing:0;word-spacing:0;font-size:129.23;font-family:Gentium Book Basic"><tspan x="2110.8" y="-876.4"/></text><text x="723.09" y="-3865.99" transform="scale(4.0128.2492)" style="font-size:46.954;font-family:Arial;text-anchor:middle"/><g line-height="125%" style="letter-spacing:0;word-spacing:0;font-family:Gentium Book Basic"><text x="277.99" y="538.32" style="font-size:208.33"><tspan x="277.99" y="538.32"/></text><text x="3833.78" y="-509.14" style="font-size:129.23"><tspan x="3833.78" y="-509.14"/></text></g><text x="1152.46" y="-2392.23" transform="scale(4.0128.2492)" style="font-size:46.954;font-family:Arial;text-anchor:middle"/><text x="4415.05" y="-589.14" line-height="125%" style="letter-spacing:0;word-spacing:0;font-size:129.23;font-family:Gentium Book Basic"><tspan x="4415.05" y="-589.14"/></text><text x="1297.31" y="-2713.26" transform="scale(4.0128.2492)" style="font-size:46.954;font-family:Arial;text-anchor:middle"/><text x="3343.47" y="-770.39" line-height="125%" style="letter-spacing:0;word-spacing:0;font-size:129.23;font-family:Gentium Book Basic"><tspan x="3343.47" y="-770.39"/></text><text x="1030.27" y="-3440.62" transform="scale(4.0128.2492)" style="font-size:46.954;font-family:Arial;text-anchor:middle"/><text x="4441.52" y="-986.87" line-height="125%" style="letter-spacing:0;word-spacing:0;font-size:129.23;font-family:Gentium Book Basic"><tspan x="4441.52" y="-986.87"/></text><text x="1303.91" y="-4309.29" transform="scale(4.0128.2492)" style="font-size:46.954;font-family:Arial;text-anchor:middle"/><text x="5022.79" y="-1066.87" line-height="125%" style="letter-spacing:0;word-spacing:0;font-size:129.23;font-family:Gentium Book Basic"><tspan x="5022.79" y="-1066.87"/></text><text x="1448.76" y="-4630.32" transform="scale(4.0128.2492)" style="font-size:46.954;font-family:Arial;text-anchor:middle"/><text x="4633.67" y="-1539.27" line-height="125%" style="letter-spacing:0;word-spacing:0;font-size:129.23;font-family:Gentium Book Basic"><tspan x="4633.67" y="-1539.27"/></text><text x="1351.79" y="-6525.99" transform="scale(4.0128.2492)" style="font-size:46.954;font-family:Arial;text-anchor:middle"/><text x="5214.93" y="-1619.27" line-height="125%" style="letter-spacing:0;word-spacing:0;font-size:129.23;font-family:Gentium Book Basic"><tspan x="5214.93" y="-1619.27"/></text><text x="1496.64" y="-6847.02" transform="scale(4.0128.2492)" style="font-size:46.954;font-family:Arial;text-anchor:middle"/><text x="3382.13" y="-204.56" line-height="125%" style="letter-spacing:0;word-spacing:0;font-size:208.33;font-family:Gentium Book Basic"><tspan x="3382.13" y="-204.56"/></text><g style="fill-rule:evenodd"><path d="m108.63 57.39c-7.963 0-15.228 2.293-20.693 6.22-4.545 3.266-7.751 7.872-8.752 13.13h-11.909c-16.447 0-29.883 13.03-29.883 29.2v66.736c0 16.17 13.436 29.19 29.883 29.19h377.47c16.447 0 29.883-13.03 29.883-29.19v-66.736c0-16.17-13.436-29.2-29.883-29.2h-262.91c-1-5.256-4.208-9.862-8.753-13.13-5.465-3.927-12.73-6.22-20.693-6.22h-43.761" style="fill:#ccc"/><path d="m37.36 118.48c-19.928 0-38.06 15.818-36.23 35.853l24.26 265.41c1.733 18.966 16.271 34.947 36.2 34.947h383.41c19.933 0 34.1-16.05 36.2-34.853l29.632-265.41c1.123-10.05-3.137-19.263-9.971-25.663-6.833-6.399-16.258-10.284-26.22-10.284h-437.27" style="fill:#6997c7"/></g><path d="m37.36 118.47c-19.928 0-38.08 15.84-36.25 35.875l11.781 128.78 12.469 136.63c1.733 18.966 16.29 34.938 36.22 34.938h383.41c19.933 0 34.09-16.04 36.19-34.844l15.281-136.72 14.375-128.69c1.123-10.05-3.135-19.287-9.969-25.688-6.833-6.399-16.257-10.281-26.22-10.281h-437.28" style="fill:url(#0);opacity:.05"/><g style="fill:#fff;fill-rule:evenodd"><path d="m108.55 57.31c-7.963 0-15.11 2.403-20.572 6.33-4.545 3.266-7.702 7.931-8.703 13.187h-12.13c-17.677 0-29.802 12.771-29.802 30.661v3.956c0-16.17 13.355-29.27 29.802-29.27h14.286c1-5.256 2-9.657 6.549-12.923 5.465-3.927 12.609-6.33 20.572-6.33h43.78c7.963 0 15.371 2.403 20.835 6.33 4.545 3.266 5.766 7.668 6.769 12.923h264.88c16.447 0 29.802 11.455 29.802 27.625v-3.956c0-16.17-13.355-29.01-29.802-29.01h-262.95c-1-5.256-4.159-9.921-8.703-13.187-5.465-3.927-12.872-6.33-20.835-6.33z" style="opacity:.764"/><path d="m37.35 118.47c-19.928 0-38.05 15.84-36.22 35.875l.406 4.375c3-15.936 18.732-27.563 35.813-27.563h437.28c9.966 0 19.386 3.882 26.22 10.281 4.736 4.435 8.234 10.208 9.563 16.688l.406-3.688c1.123-10.05-3.134-19.288-9.969-25.688-6.833-6.399-16.252-10.281-26.22-10.281h-437.28" style="opacity:.4"/></g><text x="90.12" y="140.66" line-height="125%" style="letter-spacing:0;word-spacing:0;font-size:129.23;font-family:Gentium Book Basic"><tspan x="90.12" y="140.66"/></text><text x="219.54" y="215.29" transform="scale(4.0128.2492)" style="font-size:46.954;font-family:Arial;text-anchor:middle"/><text x="671.39" y="60.662" line-height="125%" style="letter-spacing:0;word-spacing:0;font-size:129.23;font-family:Gentium Book Basic"><tspan x="671.39" y="60.662"/></text><text x="364.39" y="-105.74" transform="scale(4.0128.2492)" style="font-size:46.954;font-family:Arial;text-anchor:middle"/><text x="-400.19" y="-120.6" line-height="125%" style="letter-spacing:0;word-spacing:0;font-size:129.23;font-family:Gentium Book Basic"><tspan x="-400.19" y="-120.6"/></text><text x="97.35" y="-833.09" transform="scale(4.0128.2492)" style="font-size:46.954;font-family:Arial;text-anchor:middle"/><text x="697.86" y="-337.07" line-height="125%" style="letter-spacing:0;word-spacing:0;font-size:129.23;font-family:Gentium Book Basic"><tspan x="697.86" y="-337.07"/></text><text x="370.99" y="-1701.76" transform="scale(4.0128.2492)" style="font-size:46.954;font-family:Arial;text-anchor:middle"/><text x="1279.13" y="-417.08" line-height="125%" style="letter-spacing:0;word-spacing:0;font-size:129.23;font-family:Gentium Book Basic"><tspan x="1279.13" y="-417.08"/></text><text x="515.84" y="-2022.8" transform="scale(4.0128.2492)" style="font-size:46.954;font-family:Arial;text-anchor:middle"/><text x="890.01" y="-889.48" line-height="125%" style="letter-spacing:0;word-spacing:0;font-size:129.23;font-family:Gentium Book Basic"><tspan x="890.01" y="-889.48"/></text><text x="418.87" y="-3918.45" transform="scale(4.0128.2492)" style="font-size:46.954;font-family:Arial;text-anchor:middle"/><text x="1471.27" y="-969.48" line-height="125%" style="letter-spacing:0;word-spacing:0;font-size:129.23;font-family:Gentium Book Basic"><tspan x="1471.27" y="-969.48"/></text><text x="563.72" y="-4239.48" transform="scale(4.0128.2492)" style="font-size:46.954;font-family:Arial;text-anchor:middle"/><g line-height="125%" style="letter-spacing:0;word-spacing:0;font-size:208.33;font-family:Gentium Book Basic"><text x="-361.53" y="445.24"><tspan x="-361.53" y="445.24"/></text><text x="-2585.36" y="426.28"><tspan x="-2585.36" y="426.28"/></text></g><text x="-326.55" y="1147.7" transform="scale(4.0128.2492)" style="font-size:75.7;font-family:Arial;text-anchor:middle"/><text x="-1879.02" y="270.65" line-height="125%" style="letter-spacing:0;word-spacing:0;font-size:208.33;font-family:Gentium Book Basic"><tspan x="-1879.02" y="270.65"/></text><text x="-150.53" y="523.17" transform="scale(4.0128.2492)" style="font-size:75.7;font-family:Arial;text-anchor:middle"/><text x="-1845.65" y="262.53" line-height="125%" style="letter-spacing:0;word-spacing:0;font-size:208.33;font-family:Gentium Book Basic"><tspan x="-1845.65" y="262.53"/></text><text x="-142.21" y="490.57" transform="scale(4.0128.2492)" style="font-size:75.7;font-family:Arial;text-anchor:middle"/><text x="-695.23" y="108.12" line-height="125%" style="letter-spacing:0;word-spacing:0;font-size:129.23;font-family:Gentium Book Basic"><tspan x="-695.23" y="108.12"/></text><text x="23.831" y="84.71" transform="scale(4.0128.2492)" style="font-size:46.954;font-family:Arial;text-anchor:middle"/><text x="-113.97" y="28.12" line-height="125%" style="letter-spacing:0;word-spacing:0;font-size:129.23;font-family:Gentium Book Basic"><tspan x="-113.97" y="28.12"/></text><text x="168.68" y="-236.33" transform="scale(4.0128.2492)" style="font-size:46.954;font-family:Arial;text-anchor:middle"/><text x="-1185.55" y="-153.14" line-height="125%" style="letter-spacing:0;word-spacing:0;font-size:129.23;font-family:Gentium Book Basic"><tspan x="-1185.55" y="-153.14"/></text><text x="-98.36" y="-963.66" transform="scale(4.0128.2492)" style="font-size:46.954;font-family:Arial;text-anchor:middle"/><text x="-87.5" y="-369.61" line-height="125%" style="letter-spacing:0;word-spacing:0;font-size:129.23;font-family:Gentium Book Basic"><tspan x="-87.5" y="-369.61"/></text><text x="175.28" y="-1832.34" transform="scale(4.0128.2492)" style="font-size:46.954;font-family:Arial;text-anchor:middle"/><text x="493.77" y="-449.61" line-height="125%" style="letter-spacing:0;word-spacing:0;font-size:129.23;font-family:Gentium Book Basic"><tspan x="493.77" y="-449.61"/></text><text x="320.12" y="-2153.37" transform="scale(4.0128.2492)" style="font-size:46.954;font-family:Arial;text-anchor:middle"/><text x="104.65" y="-922.01" line-height="125%" style="letter-spacing:0;word-spacing:0;font-size:129.23;font-family:Gentium Book Basic"><tspan x="104.65" y="-922.01"/></text><text x="223.16" y="-4049.01" transform="scale(4.0128.2492)" style="font-size:46.954;font-family:Arial;text-anchor:middle"/><text x="685.91" y="-1002.02" line-height="125%" style="letter-spacing:0;word-spacing:0;font-size:129.23;font-family:Gentium Book Basic"><tspan x="685.91" y="-1002.02"/></text><text x="368" y="-4370.04" transform="scale(4.0128.2492)" style="font-size:46.954;font-family:Arial;text-anchor:middle"/><g line-height="125%" style="letter-spacing:0;word-spacing:0;font-family:Gentium Book Basic"><text x="-1146.89" y="412.7" style="font-size:208.33"><tspan x="-1146.89" y="412.7"/></text><text x="-745.68" y="-630.89" style="font-size:129.23"><tspan x="-745.68" y="-630.89"/></text></g><text x="11.261" y="-2880.79" transform="scale(4.0128.2492)" style="font-size:46.954;font-family:Arial;text-anchor:middle"/><text x="-164.41" y="-710.89" line-height="125%" style="letter-spacing:0;word-spacing:0;font-size:129.23;font-family:Gentium Book Basic"><tspan x="-164.41" y="-710.89"/></text><text x="156.11" y="-3201.82" transform="scale(4.0128.2492)" style="font-size:46.954;font-family:Arial;text-anchor:middle"/><text x="-1235.99" y="-892.15" line-height="125%" style="letter-spacing:0;word-spacing:0;font-size:129.23;font-family:Gentium Book Basic"><tspan x="-1235.99" y="-892.15"/></text><text x="-110.93" y="-3929.18" transform="scale(4.0128.2492)" style="font-size:46.954;font-family:Arial;text-anchor:middle"/><text x="-137.94" y="-1108.62" line-height="125%" style="letter-spacing:0;word-spacing:0;font-size:129.23;font-family:Gentium Book Basic"><tspan x="-137.94" y="-1108.62"/></text><text x="162.71" y="-4797.83" transform="scale(4.0128.2492)" style="font-size:46.954;font-family:Arial;text-anchor:middle"/><text x="443.32" y="-1188.63" line-height="125%" style="letter-spacing:0;word-spacing:0;font-size:129.23;font-family:Gentium Book Basic"><tspan x="443.32" y="-1188.63"/></text><text x="307.55" y="-5118.87" transform="scale(4.0128.2492)" style="font-size:46.954;font-family:Arial;text-anchor:middle"/><text x="54.2" y="-1661.03" line-height="125%" style="letter-spacing:0;word-spacing:0;font-size:129.23;font-family:Gentium Book Basic"><tspan x="54.2" y="-1661.03"/></text><text x="210.59" y="-7014.51" transform="scale(4.0128.2492)" style="font-size:46.954;font-family:Arial;text-anchor:middle"/><text x="635.47" y="-1741.03" line-height="125%" style="letter-spacing:0;word-spacing:0;font-size:129.23;font-family:Gentium Book Basic"><tspan x="635.47" y="-1741.03"/></text><text x="355.43" y="-7335.54" transform="scale(4.0128.2492)" style="font-size:46.954;font-family:Arial;text-anchor:middle"/><g line-height="125%" style="letter-spacing:0;word-spacing:0;font-family:Gentium Book Basic"><text x="-1197.34" y="-326.31" style="font-size:208.33"><tspan x="-1197.34" y="-326.31"/></text><text x="2358.46" y="-1373.77" style="font-size:129.23"><tspan x="2358.46" y="-1373.77"/></text></g><text x="784.8" y="-5861.8" transform="scale(4.0128.2492)" style="font-size:46.954;font-family:Arial;text-anchor:middle"/><text x="2939.72" y="-1453.77" line-height="125%" style="letter-spacing:0;word-spacing:0;font-size:129.23;font-family:Gentium Book Basic"><tspan x="2939.72" y="-1453.77"/></text><text x="929.65" y="-6182.84" transform="scale(4.0128.2492)" style="font-size:46.954;font-family:Arial;text-anchor:middle"/><text x="1868.14" y="-1635.02" line-height="125%" style="letter-spacing:0;word-spacing:0;font-size:129.23;font-family:Gentium Book Basic"><tspan x="1868.14" y="-1635.02"/></text><text x="662.61" y="-6910.17" transform="scale(4.0128.2492)" style="font-size:46.954;font-family:Arial;text-anchor:middle"/><text x="2966.19" y="-1851.5" line-height="125%" style="letter-spacing:0;word-spacing:0;font-size:129.23;font-family:Gentium Book Basic"><tspan x="2966.19" y="-1851.5"/></text><text x="936.25" y="-7778.84" transform="scale(4.0128.2492)" style="font-size:46.954;font-family:Arial;text-anchor:middle"/><text x="3547.46" y="-1931.5" line-height="125%" style="letter-spacing:0;word-spacing:0;font-size:129.23;font-family:Gentium Book Basic"><tspan x="3547.46" y="-1931.5"/></text><text x="1081.1" y="-8099.88" transform="scale(4.0128.2492)" style="font-size:46.954;font-family:Arial;text-anchor:middle"/><text x="3158.34" y="-2403.9" line-height="125%" style="letter-spacing:0;word-spacing:0;font-size:129.23;font-family:Gentium Book Basic"><tspan x="3158.34" y="-2403.9"/></text><text x="984.13" y="-9995.52" transform="scale(4.0128.2492)" style="font-size:46.954;font-family:Arial;text-anchor:middle"/><text x="3739.61" y="-2483.9" line-height="125%" style="letter-spacing:0;word-spacing:0;font-size:129.23;font-family:Gentium Book Basic"><tspan x="3739.61" y="-2483.9"/></text><text x="1128.98" y="-10316.54" transform="scale(4.0128.2492)" style="font-size:46.954;font-family:Arial;text-anchor:middle"/><g line-height="125%" style="letter-spacing:0;word-spacing:0;font-size:208.33;font-family:Gentium Book Basic"><text x="1906.8" y="-1069.19"><tspan x="1906.8" y="-1069.19"/></text><text x="-2635.81" y="-315.11"><tspan x="-2635.81" y="-315.11"/></text></g><text x="-339.12" y="-1827.37" transform="scale(4.0128.2492)" style="font-size:75.7;font-family:Arial;text-anchor:middle"/><text x="-2635.81" y="-315.11" line-height="125%" style="letter-spacing:0;word-spacing:0;font-size:208.33;font-family:Gentium Book Basic"><tspan x="-2635.81" y="-315.11"/></text><text x="-339.12" y="-1827.37" transform="scale(4.0128.2492)" style="font-size:75.7;font-family:Arial;text-anchor:middle"/><text x="-2969.36" y="317.8" line-height="125%" style="letter-spacing:0;word-spacing:0;font-size:208.33;font-family:Gentium Book Basic"><tspan x="-2969.36" y="317.8"/></text><text x="-422.24" y="712.4" transform="scale(4.0128.2492)" style="font-size:75.7;font-family:Arial;text-anchor:middle"/><text x="-2263.02" y="162.17" line-height="125%" style="letter-spacing:0;word-spacing:0;font-size:208.33;font-family:Gentium Book Basic"><tspan x="-2263.02" y="162.17"/></text><text x="-246.22" y="87.88" transform="scale(4.0128.2492)" style="font-size:75.7;font-family:Arial;text-anchor:middle"/><text x="72.28" y="276.92" line-height="125%" style="letter-spacing:0;word-spacing:0;font-size:129.23;font-family:Gentium Book Basic"><tspan x="72.28" y="276.92"/></text><text x="215.09" y="762.07" transform="scale(4.0128.2492)" style="font-size:46.954;font-family:Arial;text-anchor:middle"/><text x="653.55" y="196.92" line-height="125%" style="letter-spacing:0;word-spacing:0;font-size:129.23;font-family:Gentium Book Basic"><tspan x="653.55" y="196.92"/></text><text x="359.94" y="441.04" transform="scale(4.0128.2492)" style="font-size:46.954;font-family:Arial;text-anchor:middle"/><text x="-418.03" y="15.658" line-height="125%" style="letter-spacing:0;word-spacing:0;font-size:129.23;font-family:Gentium Book Basic"><tspan x="-418.03" y="15.658"/></text><text x="92.9" y="-286.32" transform="scale(4.0128.2492)" style="font-size:46.954;font-family:Arial;text-anchor:middle"/><text x="680.02" y="-200.81" line-height="125%" style="letter-spacing:0;word-spacing:0;font-size:129.23;font-family:Gentium Book Basic"><tspan x="680.02" y="-200.81"/></text><text x="366.54" y="-1154.98" transform="scale(4.0128.2492)" style="font-size:46.954;font-family:Arial;text-anchor:middle"/><text x="1261.29" y="-280.82" line-height="125%" style="letter-spacing:0;word-spacing:0;font-size:129.23;font-family:Gentium Book Basic"><tspan x="1261.29" y="-280.82"/></text><text x="511.39" y="-1476.02" transform="scale(4.0128.2492)" style="font-size:46.954;font-family:Arial;text-anchor:middle"/><text x="872.17" y="-753.22" line-height="125%" style="letter-spacing:0;word-spacing:0;font-size:129.23;font-family:Gentium Book Basic"><tspan x="872.17" y="-753.22"/></text><text x="414.42" y="-3371.67" transform="scale(4.0128.2492)" style="font-size:46.954;font-family:Arial;text-anchor:middle"/><text x="1453.43" y="-833.22" line-height="125%" style="letter-spacing:0;word-spacing:0;font-size:129.23;font-family:Gentium Book Basic"><tspan x="1453.43" y="-833.22"/></text><text x="559.27" y="-3692.7" transform="scale(4.0128.2492)" style="font-size:46.954;font-family:Arial;text-anchor:middle"/><g line-height="125%" style="letter-spacing:0;word-spacing:0;font-family:Gentium Book Basic"><text x="-379.37" y="581.5" style="font-size:208.33"><tspan x="-379.37" y="581.5"/></text><text x="48.42" y="211.83" style="font-size:129.23"><tspan x="48.42" y="211.83"/></text></g><text x="209.15" y="500.9" transform="scale(4.0128.2492)" style="font-size:46.954;font-family:Arial;text-anchor:middle"/><text x="629.69" y="131.83" line-height="125%" style="letter-spacing:0;word-spacing:0;font-size:129.23;font-family:Gentium Book Basic"><tspan x="629.69" y="131.83"/></text><text x="354" y="179.87" transform="scale(4.0128.2492)" style="font-size:46.954;font-family:Arial;text-anchor:middle"/><text x="-441.89" y="-49.43" line-height="125%" style="letter-spacing:0;word-spacing:0;font-size:129.23;font-family:Gentium Book Basic"><tspan x="-441.89" y="-49.43"/></text><text x="86.958" y="-547.49" transform="scale(4.0128.2492)" style="font-size:46.954;font-family:Arial;text-anchor:middle"/><text x="656.16" y="-265.9" line-height="125%" style="letter-spacing:0;word-spacing:0;font-size:129.23;font-family:Gentium Book Basic"><tspan x="656.16" y="-265.9"/></text><text x="360.6" y="-1416.16" transform="scale(4.0128.2492)" style="font-size:46.954;font-family:Arial;text-anchor:middle"/><text x="1237.43" y="-345.91" line-height="125%" style="letter-spacing:0;word-spacing:0;font-size:129.23;font-family:Gentium Book Basic"><tspan x="1237.43" y="-345.91"/></text><text x="505.45" y="-1737.19" transform="scale(4.0128.2492)" style="font-size:46.954;font-family:Arial;text-anchor:middle"/><text x="848.31" y="-818.31" line-height="125%" style="letter-spacing:0;word-spacing:0;font-size:129.23;font-family:Gentium Book Basic"><tspan x="848.31" y="-818.31"/></text><text x="408.48" y="-3632.84" transform="scale(4.0128.2492)" style="font-size:46.954;font-family:Arial;text-anchor:middle"/><text x="1429.57" y="-898.31" line-height="125%" style="letter-spacing:0;word-spacing:0;font-size:129.23;font-family:Gentium Book Basic"><tspan x="1429.57" y="-898.31"/></text><text x="553.33" y="-3953.87" transform="scale(4.0128.2492)" style="font-size:46.954;font-family:Arial;text-anchor:middle"/><text x="-403.23" y="516.41" line-height="125%" style="letter-spacing:0;word-spacing:0;font-size:208.33;font-family:Gentium Book Basic"><tspan x="-403.23" y="516.41"/></text><path d="m179.83 185.82c-11.853-.16-23.991 5.614-36.623 17.477-30.465 28.61-49.744 75.67-49.963 121.87-.051 10.672.657 15.666 3.434 24.13 3.734 11.386 9.902 21.539 16.838 28.475l76.922 76.922h254.55c19.933 0 34.09-16.04 36.19-34.844l10.469-93.65-119.99-119.99c-.987-.987-1.989-1.957-3-2.91-12.633-11.863-24.736-17.637-36.59-17.477-12.904.175-21.52 4.349-36.592 17.779-13.07 11.651-18.933 15.543-27.23 18.14-6.914 2.167-17.703 2.167-24.617 0-8.3-2.601-14.12-6.494-27.2-18.14-15.07-13.431-23.687-17.605-36.592-17.779" style="opacity:.25"/><path d="m179.83 185.82c-11.853-.16-23.989 5.612-36.622 17.475-30.465 28.61-49.745 75.67-49.964 121.87-.051 10.672.658 15.664 3.434 24.13 6.25 19.06 19.323 34.67 31.395 37.503 8.367 1.964 19.402-1.113 29.328-8.175 2.354-1.675 9.668-8.312 16.26-14.74 22.02-21.468 29.392-27.04 44.07-33.28 11.489-4.888 23.794-7.203 38.2-7.203 14.409 0 26.744 2.315 38.23 7.203 14.676 6.243 22.05 11.811 44.07 33.28 6.592 6.428 13.906 13.07 16.26 14.74 8.624 6.136 18.468 9.381 26.17 8.631 15.611-1.521 31.504-21.74 36.987-47.05 2.598-11.994.452-38.915-4.65-58.29-8.544-32.449-23.623-59.17-44.34-78.62-12.633-11.863-24.738-17.636-36.592-17.475-12.904.175-21.52 4.349-36.592 17.779-13.07 11.651-18.931 15.543-27.23 18.14-6.914 2.167-17.703 2.167-24.617 0-8.3-2.601-14.13-6.493-27.2-18.14-15.07-13.431-23.687-17.604-36.592-17.779m152.75 46.13c3.543.001 7.147 1.197 10.151 3.769 8.676 7.427 7.438 20.933-2.401 26.26-3.092 1.674-7.794 2.594-10.212 2.01-10.357-2.518-15.78-10.992-13.04-20.362 2.148-7.34 8.736-11.672 15.5-11.67m-166.03 3.313h12.947 12.947v12.643 12.613h12.643 12.643v12.977 12.947h-12.643-12.643v12.643 12.613h-12.947-12.947v-12.613-12.643h-12.643-12.643v-12.947-12.977h12.643 12.643v-12.613-12.643m140.87 22.03c3.187.008 8.415 2.371 10.941 4.923 8.302 8.389 5.04 22.568-6.109 26.502-10.386 3.665-21.28-4.104-21.305-15.226-.02-8.88 7.45-16.22 16.472-16.199m50.54.274c2.662-.004 5.323.489 7.142 1.459 5.698 3.038 8.874 8.226 8.874 14.466 0 6.563-3.349 11.73-9.513 14.649-2.063.977-4.41 1.52-6.473 1.52-5.992 0-12.575-4.364-14.862-9.847-1.244-2.983-1.312-9.551-.122-12.4 1.276-3.054 4.701-6.732 7.78-8.358 1.846-.974 4.51-1.486 7.172-1.489m-25.499 25.499c13.914 0 21.18 16.05 12 26.471-1.453 1.651-3.819 3.54-5.258 4.194-3.148 1.43-10.08 1.572-13.07.274-6.088-2.649-10.372-9.86-9.725-16.32.848-8.474 7.597-14.618 16.05-14.618" style="fill:#fff"/></svg>