<svg xmlns="http://www.w3.org/2000/svg" viewBox="0 0 512 512"><defs><linearGradient y1="33.753" x2="0" y2="471.66" id="0" gradientUnits="userSpaceOnUse"><stop style="stop-color:#6a6a6a"/><stop offset=".47"/><stop offset=".494" style="stop-color:#fff"/><stop offset=".901" style="stop-color:#fff"/><stop offset=".955"/><stop offset="1"/></linearGradient></defs><text x="729.64" y="233.74" line-height="125%" style="letter-spacing:0;word-spacing:0;font-size:129.23;font-family:Gentium Book Basic"><tspan x="729.64" y="233.74"/></text><text x="378.91" y="588.81" transform="scale(4.0128.2492)" style="font-size:46.954;font-family:Arial;text-anchor:middle"/><text x="1310.91" y="153.74" line-height="125%" style="letter-spacing:0;word-spacing:0;font-size:129.23;font-family:Gentium Book Basic"><tspan x="1310.91" y="153.74"/></text><text x="523.76" y="267.77" transform="scale(4.0128.2492)" style="font-size:46.954;font-family:Arial;text-anchor:middle"/><text x="239.33" y="-27.52" line-height="125%" style="letter-spacing:0;word-spacing:0;font-size:129.23;font-family:Gentium Book Basic"><tspan x="239.33" y="-27.52"/></text><text x="256.72" y="-459.58" transform="scale(4.0128.2492)" style="font-size:46.954;font-family:Arial;text-anchor:middle"/><text x="1337.38" y="-243.99" line-height="125%" style="letter-spacing:0;word-spacing:0;font-size:129.23;font-family:Gentium Book Basic"><tspan x="1337.38" y="-243.99"/></text><text x="530.36" y="-1328.26" transform="scale(4.0128.2492)" style="font-size:46.954;font-family:Arial;text-anchor:middle"/><text x="1918.65" y="-324" line-height="125%" style="letter-spacing:0;word-spacing:0;font-size:129.23;font-family:Gentium Book Basic"><tspan x="1918.65" y="-324"/></text><text x="675.21" y="-1649.29" transform="scale(4.0128.2492)" style="font-size:46.954;font-family:Arial;text-anchor:middle"/><text x="1529.53" y="-796.4" line-height="125%" style="letter-spacing:0;word-spacing:0;font-size:129.23;font-family:Gentium Book Basic"><tspan x="1529.53" y="-796.4"/></text><text x="578.24" y="-3544.95" transform="scale(4.0128.2492)" style="font-size:46.954;font-family:Arial;text-anchor:middle"/><text x="2110.8" y="-876.4" line-height="125%" style="letter-spacing:0;word-spacing:0;font-size:129.23;font-family:Gentium Book Basic"><tspan x="2110.8" y="-876.4"/></text><text x="723.09" y="-3865.99" transform="scale(4.0128.2492)" style="font-size:46.954;font-family:Arial;text-anchor:middle"/><g line-height="125%" style="letter-spacing:0;word-spacing:0;font-family:Gentium Book Basic"><text x="277.99" y="538.32" style="font-size:208.33"><tspan x="277.99" y="538.32"/></text><text x="3833.78" y="-509.14" style="font-size:129.23"><tspan x="3833.78" y="-509.14"/></text></g><text x="1152.46" y="-2392.23" transform="scale(4.0128.2492)" style="font-size:46.954;font-family:Arial;text-anchor:middle"/><text x="4415.05" y="-589.14" line-height="125%" style="letter-spacing:0;word-spacing:0;font-size:129.23;font-family:Gentium Book Basic"><tspan x="4415.05" y="-589.14"/></text><text x="1297.31" y="-2713.26" transform="scale(4.0128.2492)" style="font-size:46.954;font-family:Arial;text-anchor:middle"/><text x="3343.47" y="-770.39" line-height="125%" style="letter-spacing:0;word-spacing:0;font-size:129.23;font-family:Gentium Book Basic"><tspan x="3343.47" y="-770.39"/></text><text x="1030.27" y="-3440.62" transform="scale(4.0128.2492)" style="font-size:46.954;font-family:Arial;text-anchor:middle"/><text x="4441.52" y="-986.87" line-height="125%" style="letter-spacing:0;word-spacing:0;font-size:129.23;font-family:Gentium Book Basic"><tspan x="4441.52" y="-986.87"/></text><text x="1303.91" y="-4309.29" transform="scale(4.0128.2492)" style="font-size:46.954;font-family:Arial;text-anchor:middle"/><text x="5022.79" y="-1066.87" line-height="125%" style="letter-spacing:0;word-spacing:0;font-size:129.23;font-family:Gentium Book Basic"><tspan x="5022.79" y="-1066.87"/></text><text x="1448.76" y="-4630.32" transform="scale(4.0128.2492)" style="font-size:46.954;font-family:Arial;text-anchor:middle"/><text x="4633.67" y="-1539.27" line-height="125%" style="letter-spacing:0;word-spacing:0;font-size:129.23;font-family:Gentium Book Basic"><tspan x="4633.67" y="-1539.27"/></text><text x="1351.79" y="-6525.99" transform="scale(4.0128.2492)" style="font-size:46.954;font-family:Arial;text-anchor:middle"/><text x="5214.93" y="-1619.27" line-height="125%" style="letter-spacing:0;word-spacing:0;font-size:129.23;font-family:Gentium Book Basic"><tspan x="5214.93" y="-1619.27"/></text><text x="1496.64" y="-6847.02" transform="scale(4.0128.2492)" style="font-size:46.954;font-family:Arial;text-anchor:middle"/><g line-height="125%" style="letter-spacing:0;word-spacing:0;font-family:Gentium Book Basic"><text x="3382.13" y="-204.56" style="font-size:208.33"><tspan x="3382.13" y="-204.56"/></text><text x="-205.86" y="187.35" style="font-size:129.23"><tspan x="-205.86" y="187.35"/></text></g><text x="145.78" y="402.66" transform="scale(4.0128.2492)" style="font-size:46.954;font-family:Arial;text-anchor:middle"/><text x="375.41" y="107.35" line-height="125%" style="letter-spacing:0;word-spacing:0;font-size:129.23;font-family:Gentium Book Basic"><tspan x="375.41" y="107.35"/></text><text x="290.63" y="81.62" transform="scale(4.0128.2492)" style="font-size:46.954;font-family:Arial;text-anchor:middle"/><text x="-696.17" y="-73.908" line-height="125%" style="letter-spacing:0;word-spacing:0;font-size:129.23;font-family:Gentium Book Basic"><tspan x="-696.17" y="-73.908"/></text><text x="23.594" y="-645.73" transform="scale(4.0128.2492)" style="font-size:46.954;font-family:Arial;text-anchor:middle"/><text x="401.88" y="-290.38" line-height="125%" style="letter-spacing:0;word-spacing:0;font-size:129.23;font-family:Gentium Book Basic"><tspan x="401.88" y="-290.38"/></text><text x="297.23" y="-1514.4" transform="scale(4.0128.2492)" style="font-size:46.954;font-family:Arial;text-anchor:middle"/><text x="983.14" y="-370.38" line-height="125%" style="letter-spacing:0;word-spacing:0;font-size:129.23;font-family:Gentium Book Basic"><tspan x="983.14" y="-370.38"/></text><text x="442.08" y="-1835.44" transform="scale(4.0128.2492)" style="font-size:46.954;font-family:Arial;text-anchor:middle"/><text x="594.02" y="-842.78" line-height="125%" style="letter-spacing:0;word-spacing:0;font-size:129.23;font-family:Gentium Book Basic"><tspan x="594.02" y="-842.78"/></text><text x="345.11" y="-3731.1" transform="scale(4.0128.2492)" style="font-size:46.954;font-family:Arial;text-anchor:middle"/><text x="1175.29" y="-922.79" line-height="125%" style="letter-spacing:0;word-spacing:0;font-size:129.23;font-family:Gentium Book Basic"><tspan x="1175.29" y="-922.79"/></text><text x="489.96" y="-4052.14" transform="scale(4.0128.2492)" style="font-size:46.954;font-family:Arial;text-anchor:middle"/><g line-height="125%" style="letter-spacing:0;word-spacing:0;font-family:Gentium Book Basic"><text x="-657.52" y="491.93" style="font-size:208.33"><tspan x="-657.52" y="491.93"/></text><text x="-914.24" y="36.401" style="font-size:129.23"><tspan x="-914.24" y="36.401"/></text></g><text x="-30.748" y="-203.08" transform="scale(4.0128.2492)" style="font-size:46.954;font-family:Arial;text-anchor:middle"/><text x="-332.97" y="-43.601" line-height="125%" style="letter-spacing:0;word-spacing:0;font-size:129.23;font-family:Gentium Book Basic"><tspan x="-332.97" y="-43.601"/></text><text x="114.1" y="-524.11" transform="scale(4.0128.2492)" style="font-size:46.954;font-family:Arial;text-anchor:middle"/><text x="-1404.55" y="-224.86" line-height="125%" style="letter-spacing:0;word-spacing:0;font-size:129.23;font-family:Gentium Book Basic"><tspan x="-1404.55" y="-224.86"/></text><text x="-152.93" y="-1251.47" transform="scale(4.0128.2492)" style="font-size:46.954;font-family:Arial;text-anchor:middle"/><text x="-306.5" y="-441.33" line-height="125%" style="letter-spacing:0;word-spacing:0;font-size:129.23;font-family:Gentium Book Basic"><tspan x="-306.5" y="-441.33"/></text><text x="120.7" y="-2120.14" transform="scale(4.0128.2492)" style="font-size:46.954;font-family:Arial;text-anchor:middle"/><text x="274.77" y="-521.33" line-height="125%" style="letter-spacing:0;word-spacing:0;font-size:129.23;font-family:Gentium Book Basic"><tspan x="274.77" y="-521.33"/></text><text x="265.55" y="-2441.18" transform="scale(4.0128.2492)" style="font-size:46.954;font-family:Arial;text-anchor:middle"/><text x="-114.35" y="-993.73" line-height="125%" style="letter-spacing:0;word-spacing:0;font-size:129.23;font-family:Gentium Book Basic"><tspan x="-114.35" y="-993.73"/></text><text x="168.58" y="-4336.84" transform="scale(4.0128.2492)" style="font-size:46.954;font-family:Arial;text-anchor:middle"/><text x="466.91" y="-1073.74" line-height="125%" style="letter-spacing:0;word-spacing:0;font-size:129.23;font-family:Gentium Book Basic"><tspan x="466.91" y="-1073.74"/></text><text x="313.44" y="-4657.87" transform="scale(4.0128.2492)" style="font-size:46.954;font-family:Arial;text-anchor:middle"/><text x="-1365.89" y="340.98" line-height="125%" style="letter-spacing:0;word-spacing:0;font-size:208.33;font-family:Gentium Book Basic"><tspan x="-1365.89" y="340.98"/></text><g style="fill-rule:evenodd"><path d="m471.95 253.05c0 120.9-98.01 218.91-218.91 218.91-120.9 0-218.91-98.01-218.91-218.91 0-120.9 98.01-218.91 218.91-218.91 120.9 0 218.91 98.01 218.91 218.91" style="fill:#6997c7"/><path d="m471.95 253.05c0 120.9-98.01 218.91-218.91 218.91-120.9 0-218.91-98.01-218.91-218.91 0-120.9 98.01-218.91 218.91-218.91 120.9 0 218.91 98.01 218.91 218.91" style="fill:url(#0);opacity:.05"/><path d="m256 1c-140.83 0-255 114.17-255 255 0 140.83 114.17 255 255 255 140.83 0 255-114.17 255-255 0-140.83-114.17-255-255-255m8.827 44.931c120.9 0 218.9 98 218.9 218.9 0 120.9-98 218.9-218.9 218.9-120.9 0-218.93-98-218.93-218.9 0-120.9 98.03-218.9 218.93-218.9" style="fill-opacity:.067"/><g style="fill-opacity:.129"><path d="m256 4.43c-138.94 0-251.57 112.63-251.57 251.57 0 138.94 112.63 251.57 251.57 251.57 138.94 0 251.57-112.63 251.57-251.57 0-138.94-112.63-251.57-251.57-251.57m5.885 38.556c120.9 0 218.9 98 218.9 218.9 0 120.9-98 218.9-218.9 218.9-120.9 0-218.93-98-218.93-218.9 0-120.9 98.03-218.9 218.93-218.9"/><path d="m256 8.36c-136.77 0-247.64 110.87-247.64 247.64 0 136.77 110.87 247.64 247.64 247.64 136.77 0 247.64-110.87 247.64-247.64 0-136.77-110.87-247.64-247.64-247.64m2.942 31.691c120.9 0 218.9 98 218.9 218.9 0 120.9-98 218.9-218.9 218.9-120.9 0-218.93-98-218.93-218.9 0-120.9 98.03-218.9 218.93-218.9"/></g><path d="m253.04 7.86c-135.42 0-245.19 109.78-245.19 245.19 0 135.42 109.78 245.19 245.19 245.19 135.42 0 245.19-109.78 245.19-245.19 0-135.42-109.78-245.19-245.19-245.19zm0 26.297c120.9 0 218.9 98 218.9 218.9 0 120.9-98 218.9-218.9 218.9-120.9 0-218.93-98-218.93-218.9 0-120.9 98.03-218.9 218.93-218.9z" style="stroke-opacity:.31;fill:#fff;stroke:#000;stroke-width:4.904"/></g><text x="729.64" y="231.36" line-height="125%" style="letter-spacing:0;word-spacing:0;font-size:129.23;font-family:Gentium Book Basic"><tspan x="729.64" y="231.36"/></text><text x="378.91" y="579.26" transform="scale(4.0128.2492)" style="font-size:46.954;font-family:Arial;text-anchor:middle"/><text x="1310.91" y="151.36" line-height="125%" style="letter-spacing:0;word-spacing:0;font-size:129.23;font-family:Gentium Book Basic"><tspan x="1310.91" y="151.36"/></text><text x="523.76" y="258.22" transform="scale(4.0128.2492)" style="font-size:46.954;font-family:Arial;text-anchor:middle"/><text x="239.33" y="-29.9" line-height="125%" style="letter-spacing:0;word-spacing:0;font-size:129.23;font-family:Gentium Book Basic"><tspan x="239.33" y="-29.9"/></text><text x="256.72" y="-469.13" transform="scale(4.0128.2492)" style="font-size:46.954;font-family:Arial;text-anchor:middle"/><text x="1337.38" y="-246.37" line-height="125%" style="letter-spacing:0;word-spacing:0;font-size:129.23;font-family:Gentium Book Basic"><tspan x="1337.38" y="-246.37"/></text><text x="530.36" y="-1337.79" transform="scale(4.0128.2492)" style="font-size:46.954;font-family:Arial;text-anchor:middle"/><text x="1918.65" y="-326.37" line-height="125%" style="letter-spacing:0;word-spacing:0;font-size:129.23;font-family:Gentium Book Basic"><tspan x="1918.65" y="-326.37"/></text><text x="675.21" y="-1658.82" transform="scale(4.0128.2492)" style="font-size:46.954;font-family:Arial;text-anchor:middle"/><text x="1529.53" y="-798.77" line-height="125%" style="letter-spacing:0;word-spacing:0;font-size:129.23;font-family:Gentium Book Basic"><tspan x="1529.53" y="-798.77"/></text><text x="578.24" y="-3554.46" transform="scale(4.0128.2492)" style="font-size:46.954;font-family:Arial;text-anchor:middle"/><text x="2110.79" y="-878.78" line-height="125%" style="letter-spacing:0;word-spacing:0;font-size:129.23;font-family:Gentium Book Basic"><tspan x="2110.79" y="-878.78"/></text><text x="723.09" y="-3875.5" transform="scale(4.0128.2492)" style="font-size:46.954;font-family:Arial;text-anchor:middle"/><g line-height="125%" style="letter-spacing:0;word-spacing:0;font-family:Gentium Book Basic"><text x="277.99" y="535.94" style="font-size:208.33"><tspan x="277.99" y="535.94"/></text><text x="89.64" y="159.96" style="font-size:129.23"><tspan x="89.64" y="159.96"/></text></g><text x="219.42" y="292.73" transform="scale(4.0128.2492)" style="font-size:46.954;font-family:Arial;text-anchor:middle"/><text x="670.91" y="79.958" line-height="125%" style="letter-spacing:0;word-spacing:0;font-size:129.23;font-family:Gentium Book Basic"><tspan x="670.91" y="79.958"/></text><text x="364.27" y="-28.31" transform="scale(4.0128.2492)" style="font-size:46.954;font-family:Arial;text-anchor:middle"/><text x="-400.67" y="-101.3" line-height="125%" style="letter-spacing:0;word-spacing:0;font-size:129.23;font-family:Gentium Book Basic"><tspan x="-400.67" y="-101.3"/></text><text x="97.23" y="-755.65" transform="scale(4.0128.2492)" style="font-size:46.954;font-family:Arial;text-anchor:middle"/><text x="697.38" y="-317.77" line-height="125%" style="letter-spacing:0;word-spacing:0;font-size:129.23;font-family:Gentium Book Basic"><tspan x="697.38" y="-317.77"/></text><text x="370.87" y="-1624.32" transform="scale(4.0128.2492)" style="font-size:46.954;font-family:Arial;text-anchor:middle"/><text x="1278.65" y="-397.78" line-height="125%" style="letter-spacing:0;word-spacing:0;font-size:129.23;font-family:Gentium Book Basic"><tspan x="1278.65" y="-397.78"/></text><text x="515.72" y="-1945.35" transform="scale(4.0128.2492)" style="font-size:46.954;font-family:Arial;text-anchor:middle"/><text x="889.53" y="-870.18" line-height="125%" style="letter-spacing:0;word-spacing:0;font-size:129.23;font-family:Gentium Book Basic"><tspan x="889.53" y="-870.18"/></text><text x="418.75" y="-3840.99" transform="scale(4.0128.2492)" style="font-size:46.954;font-family:Arial;text-anchor:middle"/><text x="1470.8" y="-950.18" line-height="125%" style="letter-spacing:0;word-spacing:0;font-size:129.23;font-family:Gentium Book Basic"><tspan x="1470.8" y="-950.18"/></text><text x="563.6" y="-4162.02" transform="scale(4.0128.2492)" style="font-size:46.954;font-family:Arial;text-anchor:middle"/><g transform="translate(-640-73.78)" line-height="125%" style="letter-spacing:0;word-spacing:0;font-family:Gentium Book Basic"><text x="277.99" y="538.32" style="font-size:208.33"><tspan x="277.99" y="538.32"/></text><text x="3833.78" y="-509.14" style="font-size:129.23"><tspan x="3833.78" y="-509.14"/></text></g><text x="992.96" y="-2688.28" transform="scale(4.0128.2492)" style="font-size:46.954;font-family:Arial;text-anchor:middle"/><text x="3775.05" y="-662.92" line-height="125%" style="letter-spacing:0;word-spacing:0;font-size:129.23;font-family:Gentium Book Basic"><tspan x="3775.05" y="-662.92"/></text><text x="1137.8" y="-3009.3" transform="scale(4.0128.2492)" style="font-size:46.954;font-family:Arial;text-anchor:middle"/><text x="2703.47" y="-844.17" line-height="125%" style="letter-spacing:0;word-spacing:0;font-size:129.23;font-family:Gentium Book Basic"><tspan x="2703.47" y="-844.17"/></text><text x="870.78" y="-3736.66" transform="scale(4.0128.2492)" style="font-size:46.954;font-family:Arial;text-anchor:middle"/><text x="3801.52" y="-1060.65" line-height="125%" style="letter-spacing:0;word-spacing:0;font-size:129.23;font-family:Gentium Book Basic"><tspan x="3801.52" y="-1060.65"/></text><text x="1144.4" y="-4605.32" transform="scale(4.0128.2492)" style="font-size:46.954;font-family:Arial;text-anchor:middle"/><text x="4382.79" y="-1140.65" line-height="125%" style="letter-spacing:0;word-spacing:0;font-size:129.23;font-family:Gentium Book Basic"><tspan x="4382.79" y="-1140.65"/></text><text x="1289.25" y="-4926.34" transform="scale(4.0128.2492)" style="font-size:46.954;font-family:Arial;text-anchor:middle"/><text x="3993.67" y="-1613.05" line-height="125%" style="letter-spacing:0;word-spacing:0;font-size:129.23;font-family:Gentium Book Basic"><tspan x="3993.67" y="-1613.05"/></text><text x="1192.28" y="-6821.99" transform="scale(4.0128.2492)" style="font-size:46.954;font-family:Arial;text-anchor:middle"/><text x="4574.93" y="-1693.05" line-height="125%" style="letter-spacing:0;word-spacing:0;font-size:129.23;font-family:Gentium Book Basic"><tspan x="4574.93" y="-1693.05"/></text><text x="1337.13" y="-7143.02" transform="scale(4.0128.2492)" style="font-size:46.954;font-family:Arial;text-anchor:middle"/><g line-height="125%" style="letter-spacing:0;word-spacing:0;font-family:Gentium Book Basic"><text x="2742.13" y="-278.34" style="font-size:208.33"><tspan x="2742.13" y="-278.34"/></text><text x="-549.88" y="66.88" style="font-size:129.23"><tspan x="-549.88" y="66.88"/></text></g><text x="60.05" y="-80.78" transform="scale(4.0128.2492)" style="font-size:46.954;font-family:Arial;text-anchor:middle"/><text x="31.394" y="-13.12" line-height="125%" style="letter-spacing:0;word-spacing:0;font-size:129.23;font-family:Gentium Book Basic"><tspan x="31.394" y="-13.12"/></text><text x="204.9" y="-401.81" transform="scale(4.0128.2492)" style="font-size:46.954;font-family:Arial;text-anchor:middle"/><text x="-1040.19" y="-194.38" line-height="125%" style="letter-spacing:0;word-spacing:0;font-size:129.23;font-family:Gentium Book Basic"><tspan x="-1040.19" y="-194.38"/></text><text x="-62.14" y="-1129.16" transform="scale(4.0128.2492)" style="font-size:46.954;font-family:Arial;text-anchor:middle"/><text x="57.864" y="-410.85" line-height="125%" style="letter-spacing:0;word-spacing:0;font-size:129.23;font-family:Gentium Book Basic"><tspan x="57.864" y="-410.85"/></text><text x="211.5" y="-1997.82" transform="scale(4.0128.2492)" style="font-size:46.954;font-family:Arial;text-anchor:middle"/><text x="639.13" y="-490.86" line-height="125%" style="letter-spacing:0;word-spacing:0;font-size:129.23;font-family:Gentium Book Basic"><tspan x="639.13" y="-490.86"/></text><text x="356.35" y="-2318.86" transform="scale(4.0128.2492)" style="font-size:46.954;font-family:Arial;text-anchor:middle"/><text x="250.01" y="-963.26" line-height="125%" style="letter-spacing:0;word-spacing:0;font-size:129.23;font-family:Gentium Book Basic"><tspan x="250.01" y="-963.26"/></text><text x="259.38" y="-4214.5" transform="scale(4.0128.2492)" style="font-size:46.954;font-family:Arial;text-anchor:middle"/><text x="831.27" y="-1043.26" line-height="125%" style="letter-spacing:0;word-spacing:0;font-size:129.23;font-family:Gentium Book Basic"><tspan x="831.27" y="-1043.26"/></text><text x="404.23" y="-4535.53" transform="scale(4.0128.2492)" style="font-size:46.954;font-family:Arial;text-anchor:middle"/><g line-height="125%" style="letter-spacing:0;word-spacing:0;font-size:208.33;font-family:Gentium Book Basic"><text x="-1001.53" y="371.46"><tspan x="-1001.53" y="371.46"/></text><text x="-3225.36" y="352.5"><tspan x="-3225.36" y="352.5"/></text></g><text x="-486.04" y="851.62" transform="scale(4.0128.2492)" style="font-size:75.7;font-family:Arial;text-anchor:middle"/><text x="-2519.02" y="196.87" line-height="125%" style="letter-spacing:0;word-spacing:0;font-size:208.33;font-family:Gentium Book Basic"><tspan x="-2519.02" y="196.87"/></text><text x="-310.02" y="227.1" transform="scale(4.0128.2492)" style="font-size:75.7;font-family:Arial;text-anchor:middle"/><text x="-2485.65" y="188.75" line-height="125%" style="letter-spacing:0;word-spacing:0;font-size:208.33;font-family:Gentium Book Basic"><tspan x="-2485.65" y="188.75"/></text><text x="-301.7" y="194.5" transform="scale(4.0128.2492)" style="font-size:75.7;font-family:Arial;text-anchor:middle"/><text x="-1335.23" y="34.34" line-height="125%" style="letter-spacing:0;word-spacing:0;font-size:129.23;font-family:Gentium Book Basic"><tspan x="-1335.23" y="34.34"/></text><text x="-135.66" y="-211.36" transform="scale(4.0128.2492)" style="font-size:46.954;font-family:Arial;text-anchor:middle"/><text x="-753.97" y="-45.66" line-height="125%" style="letter-spacing:0;word-spacing:0;font-size:129.23;font-family:Gentium Book Basic"><tspan x="-753.97" y="-45.66"/></text><text x="9.191" y="-532.4" transform="scale(4.0128.2492)" style="font-size:46.954;font-family:Arial;text-anchor:middle"/><text x="-1825.55" y="-226.92" line-height="125%" style="letter-spacing:0;word-spacing:0;font-size:129.23;font-family:Gentium Book Basic"><tspan x="-1825.55" y="-226.92"/></text><text x="-257.85" y="-1259.73" transform="scale(4.0128.2492)" style="font-size:46.954;font-family:Arial;text-anchor:middle"/><text x="-727.5" y="-443.39" line-height="125%" style="letter-spacing:0;word-spacing:0;font-size:129.23;font-family:Gentium Book Basic"><tspan x="-727.5" y="-443.39"/></text><text x="15.791" y="-2128.4" transform="scale(4.0128.2492)" style="font-size:46.954;font-family:Arial;text-anchor:middle"/><text x="-146.23" y="-523.39" line-height="125%" style="letter-spacing:0;word-spacing:0;font-size:129.23;font-family:Gentium Book Basic"><tspan x="-146.23" y="-523.39"/></text><text x="160.63" y="-2449.43" transform="scale(4.0128.2492)" style="font-size:46.954;font-family:Arial;text-anchor:middle"/><text x="-535.35" y="-995.79" line-height="125%" style="letter-spacing:0;word-spacing:0;font-size:129.23;font-family:Gentium Book Basic"><tspan x="-535.35" y="-995.79"/></text><text x="63.67" y="-4345.06" transform="scale(4.0128.2492)" style="font-size:46.954;font-family:Arial;text-anchor:middle"/><text x="45.914" y="-1075.8" line-height="125%" style="letter-spacing:0;word-spacing:0;font-size:129.23;font-family:Gentium Book Basic"><tspan x="45.914" y="-1075.8"/></text><text x="208.51" y="-4666.1" transform="scale(4.0128.2492)" style="font-size:46.954;font-family:Arial;text-anchor:middle"/><g line-height="125%" style="letter-spacing:0;word-spacing:0;font-family:Gentium Book Basic"><text x="-1786.89" y="338.92" style="font-size:208.33"><tspan x="-1786.89" y="338.92"/></text><text x="-1385.68" y="-704.67" style="font-size:129.23"><tspan x="-1385.68" y="-704.67"/></text></g><text x="-148.23" y="-3176.85" transform="scale(4.0128.2492)" style="font-size:46.954;font-family:Arial;text-anchor:middle"/><text x="-804.41" y="-784.67" line-height="125%" style="letter-spacing:0;word-spacing:0;font-size:129.23;font-family:Gentium Book Basic"><tspan x="-804.41" y="-784.67"/></text><text x="-3.379" y="-3497.87" transform="scale(4.0128.2492)" style="font-size:46.954;font-family:Arial;text-anchor:middle"/><text x="-1875.99" y="-965.93" line-height="125%" style="letter-spacing:0;word-spacing:0;font-size:129.23;font-family:Gentium Book Basic"><tspan x="-1875.99" y="-965.93"/></text><text x="-270.42" y="-4225.23" transform="scale(4.0128.2492)" style="font-size:46.954;font-family:Arial;text-anchor:middle"/><text x="-777.94" y="-1182.4" line-height="125%" style="letter-spacing:0;word-spacing:0;font-size:129.23;font-family:Gentium Book Basic"><tspan x="-777.94" y="-1182.4"/></text><text x="3.221" y="-5093.88" transform="scale(4.0128.2492)" style="font-size:46.954;font-family:Arial;text-anchor:middle"/><text x="-196.68" y="-1262.41" line-height="125%" style="letter-spacing:0;word-spacing:0;font-size:129.23;font-family:Gentium Book Basic"><tspan x="-196.68" y="-1262.41"/></text><text x="148.06" y="-5414.92" transform="scale(4.0128.2492)" style="font-size:46.954;font-family:Arial;text-anchor:middle"/><text x="-585.8" y="-1734.81" line-height="125%" style="letter-spacing:0;word-spacing:0;font-size:129.23;font-family:Gentium Book Basic"><tspan x="-585.8" y="-1734.81"/></text><text x="51.1" y="-7310.55" transform="scale(4.0128.2492)" style="font-size:46.954;font-family:Arial;text-anchor:middle"/><text x="-4.526" y="-1814.81" line-height="125%" style="letter-spacing:0;word-spacing:0;font-size:129.23;font-family:Gentium Book Basic"><tspan x="-4.526" y="-1814.81"/></text><text x="195.94" y="-7631.57" transform="scale(4.0128.2492)" style="font-size:46.954;font-family:Arial;text-anchor:middle"/><g line-height="125%" style="letter-spacing:0;word-spacing:0;font-family:Gentium Book Basic"><text x="-1837.34" y="-400.09" style="font-size:208.33"><tspan x="-1837.34" y="-400.09"/></text><text x="1718.46" y="-1447.55" style="font-size:129.23"><tspan x="1718.46" y="-1447.55"/></text></g><text x="625.31" y="-6157.84" transform="scale(4.0128.2492)" style="font-size:46.954;font-family:Arial;text-anchor:middle"/><text x="2299.72" y="-1527.55" line-height="125%" style="letter-spacing:0;word-spacing:0;font-size:129.23;font-family:Gentium Book Basic"><tspan x="2299.72" y="-1527.55"/></text><text x="770.16" y="-6478.88" transform="scale(4.0128.2492)" style="font-size:46.954;font-family:Arial;text-anchor:middle"/><text x="1228.14" y="-1708.8" line-height="125%" style="letter-spacing:0;word-spacing:0;font-size:129.23;font-family:Gentium Book Basic"><tspan x="1228.14" y="-1708.8"/></text><text x="503.12" y="-7206.21" transform="scale(4.0128.2492)" style="font-size:46.954;font-family:Arial;text-anchor:middle"/><text x="2326.19" y="-1925.28" line-height="125%" style="letter-spacing:0;word-spacing:0;font-size:129.23;font-family:Gentium Book Basic"><tspan x="2326.19" y="-1925.28"/></text><text x="776.76" y="-8074.87" transform="scale(4.0128.2492)" style="font-size:46.954;font-family:Arial;text-anchor:middle"/><text x="2907.46" y="-2005.28" line-height="125%" style="letter-spacing:0;word-spacing:0;font-size:129.23;font-family:Gentium Book Basic"><tspan x="2907.46" y="-2005.28"/></text><text x="921.61" y="-8395.91" transform="scale(4.0128.2492)" style="font-size:46.954;font-family:Arial;text-anchor:middle"/><text x="2518.34" y="-2477.68" line-height="125%" style="letter-spacing:0;word-spacing:0;font-size:129.23;font-family:Gentium Book Basic"><tspan x="2518.34" y="-2477.68"/></text><text x="824.64" y="-10291.54" transform="scale(4.0128.2492)" style="font-size:46.954;font-family:Arial;text-anchor:middle"/><text x="3099.61" y="-2557.68" line-height="125%" style="letter-spacing:0;word-spacing:0;font-size:129.23;font-family:Gentium Book Basic"><tspan x="3099.61" y="-2557.68"/></text><text x="969.49" y="-10612.57" transform="scale(4.0128.2492)" style="font-size:46.954;font-family:Arial;text-anchor:middle"/><g line-height="125%" style="letter-spacing:0;word-spacing:0;font-size:208.33;font-family:Gentium Book Basic"><text x="1266.8" y="-1142.97"><tspan x="1266.8" y="-1142.97"/></text><text x="-3275.81" y="-388.89"><tspan x="-3275.81" y="-388.89"/></text></g><text x="-498.61" y="-2123.43" transform="scale(4.0128.2492)" style="font-size:75.7;font-family:Arial;text-anchor:middle"/><text x="-3275.81" y="-388.89" line-height="125%" style="letter-spacing:0;word-spacing:0;font-size:208.33;font-family:Gentium Book Basic"><tspan x="-3275.81" y="-388.89"/></text><text x="-498.61" y="-2123.43" transform="scale(4.0128.2492)" style="font-size:75.7;font-family:Arial;text-anchor:middle"/><text x="-3609.36" y="244.02" line-height="125%" style="letter-spacing:0;word-spacing:0;font-size:208.33;font-family:Gentium Book Basic"><tspan x="-3609.36" y="244.02"/></text><text x="-581.73" y="416.32" transform="scale(4.0128.2492)" style="font-size:75.7;font-family:Arial;text-anchor:middle"/><text x="-2903.02" y="88.39" line-height="125%" style="letter-spacing:0;word-spacing:0;font-size:208.33;font-family:Gentium Book Basic"><tspan x="-2903.02" y="88.39"/></text><text x="-405.71" y="-208.19" transform="scale(4.0128.2492)" style="font-size:75.7;font-family:Arial;text-anchor:middle"/><text x="-1160.48" y="549.52" line-height="125%" style="letter-spacing:0;word-spacing:0;font-size:208.33;font-family:Gentium Book Basic"><tspan x="-1160.48" y="549.52"/></text><text x="28.534" y="1642.23" transform="scale(4.0128.2492)" style="font-size:75.7;font-family:Arial;text-anchor:middle"/><text x="-454.14" y="393.89" line-height="125%" style="letter-spacing:0;word-spacing:0;font-size:208.33;font-family:Gentium Book Basic"><tspan x="-454.14" y="393.89"/></text><text x="204.55" y="1017.71" transform="scale(4.0128.2492)" style="font-size:75.7;font-family:Arial;text-anchor:middle"/><text x="-420.77" y="385.77" line-height="125%" style="letter-spacing:0;word-spacing:0;font-size:208.33;font-family:Gentium Book Basic"><tspan x="-420.77" y="385.77"/></text><text x="212.87" y="985.11" transform="scale(4.0128.2492)" style="font-size:75.7;font-family:Arial;text-anchor:middle"/><text x="729.64" y="231.36" line-height="125%" style="letter-spacing:0;word-spacing:0;font-size:129.23;font-family:Gentium Book Basic"><tspan x="729.64" y="231.36"/></text><text x="378.91" y="579.26" transform="scale(4.0128.2492)" style="font-size:46.954;font-family:Arial;text-anchor:middle"/><text x="1310.91" y="151.36" line-height="125%" style="letter-spacing:0;word-spacing:0;font-size:129.23;font-family:Gentium Book Basic"><tspan x="1310.91" y="151.36"/></text><text x="523.76" y="258.22" transform="scale(4.0128.2492)" style="font-size:46.954;font-family:Arial;text-anchor:middle"/><text x="239.33" y="-29.9" line-height="125%" style="letter-spacing:0;word-spacing:0;font-size:129.23;font-family:Gentium Book Basic"><tspan x="239.33" y="-29.9"/></text><text x="256.72" y="-469.13" transform="scale(4.0128.2492)" style="font-size:46.954;font-family:Arial;text-anchor:middle"/><text x="1337.38" y="-246.37" line-height="125%" style="letter-spacing:0;word-spacing:0;font-size:129.23;font-family:Gentium Book Basic"><tspan x="1337.38" y="-246.37"/></text><text x="530.36" y="-1337.79" transform="scale(4.0128.2492)" style="font-size:46.954;font-family:Arial;text-anchor:middle"/><text x="1918.65" y="-326.37" line-height="125%" style="letter-spacing:0;word-spacing:0;font-size:129.23;font-family:Gentium Book Basic"><tspan x="1918.65" y="-326.37"/></text><text x="675.21" y="-1658.82" transform="scale(4.0128.2492)" style="font-size:46.954;font-family:Arial;text-anchor:middle"/><text x="1529.53" y="-798.77" line-height="125%" style="letter-spacing:0;word-spacing:0;font-size:129.23;font-family:Gentium Book Basic"><tspan x="1529.53" y="-798.77"/></text><text x="578.24" y="-3554.46" transform="scale(4.0128.2492)" style="font-size:46.954;font-family:Arial;text-anchor:middle"/><text x="2110.79" y="-878.78" line-height="125%" style="letter-spacing:0;word-spacing:0;font-size:129.23;font-family:Gentium Book Basic"><tspan x="2110.79" y="-878.78"/></text><text x="723.09" y="-3875.5" transform="scale(4.0128.2492)" style="font-size:46.954;font-family:Arial;text-anchor:middle"/><g transform="translate(0-540.36)" line-height="125%" style="letter-spacing:0;word-spacing:0;font-family:Gentium Book Basic"><text x="277.99" y="1076.3" style="font-size:208.33"><tspan x="277.99" y="1076.3"/></text><text x="679.2" y="32.708" style="font-size:129.23"><tspan x="679.2" y="32.708"/></text></g><text x="366.34" y="-2386.26" transform="scale(4.0128.2492)" style="font-size:46.954;font-family:Arial;text-anchor:middle"/><text x="1260.47" y="-587.65" line-height="125%" style="letter-spacing:0;word-spacing:0;font-size:129.23;font-family:Gentium Book Basic"><tspan x="1260.47" y="-587.65"/></text><text x="511.19" y="-2707.28" transform="scale(4.0128.2492)" style="font-size:46.954;font-family:Arial;text-anchor:middle"/><text x="188.89" y="-768.91" line-height="125%" style="letter-spacing:0;word-spacing:0;font-size:129.23;font-family:Gentium Book Basic"><tspan x="188.89" y="-768.91"/></text><text x="244.15" y="-3434.63" transform="scale(4.0128.2492)" style="font-size:46.954;font-family:Arial;text-anchor:middle"/><text x="1286.94" y="-985.38" line-height="125%" style="letter-spacing:0;word-spacing:0;font-size:129.23;font-family:Gentium Book Basic"><tspan x="1286.94" y="-985.38"/></text><text x="517.79" y="-4303.3" transform="scale(4.0128.2492)" style="font-size:46.954;font-family:Arial;text-anchor:middle"/><text x="1868.2" y="-1065.39" line-height="125%" style="letter-spacing:0;word-spacing:0;font-size:129.23;font-family:Gentium Book Basic"><tspan x="1868.2" y="-1065.39"/></text><text x="662.64" y="-4624.33" transform="scale(4.0128.2492)" style="font-size:46.954;font-family:Arial;text-anchor:middle"/><text x="1479.08" y="-1537.79" line-height="125%" style="letter-spacing:0;word-spacing:0;font-size:129.23;font-family:Gentium Book Basic"><tspan x="1479.08" y="-1537.79"/></text><text x="565.67" y="-6519.98" transform="scale(4.0128.2492)" style="font-size:46.954;font-family:Arial;text-anchor:middle"/><text x="2060.35" y="-1617.79" line-height="125%" style="letter-spacing:0;word-spacing:0;font-size:129.23;font-family:Gentium Book Basic"><tspan x="2060.35" y="-1617.79"/></text><text x="710.52" y="-6840.99" transform="scale(4.0128.2492)" style="font-size:46.954;font-family:Arial;text-anchor:middle"/><g transform="translate(0-540.36)" line-height="125%" style="letter-spacing:0;word-spacing:0;font-family:Gentium Book Basic"><text x="227.54" y="337.29" style="font-size:208.33"><tspan x="227.54" y="337.29"/></text><text x="3783.34" y="-710.17" style="font-size:129.23"><tspan x="3783.34" y="-710.17"/></text></g><text x="1139.87" y="-5367.25" transform="scale(4.0128.2492)" style="font-size:46.954;font-family:Arial;text-anchor:middle"/><text x="4364.6" y="-1330.53" line-height="125%" style="letter-spacing:0;word-spacing:0;font-size:129.23;font-family:Gentium Book Basic"><tspan x="4364.6" y="-1330.53"/></text><text x="1284.72" y="-5688.29" transform="scale(4.0128.2492)" style="font-size:46.954;font-family:Arial;text-anchor:middle"/><text x="3293.02" y="-1511.78" line-height="125%" style="letter-spacing:0;word-spacing:0;font-size:129.23;font-family:Gentium Book Basic"><tspan x="3293.02" y="-1511.78"/></text><text x="1017.68" y="-6415.64" transform="scale(4.0128.2492)" style="font-size:46.954;font-family:Arial;text-anchor:middle"/><text x="4391.07" y="-1728.26" line-height="125%" style="letter-spacing:0;word-spacing:0;font-size:129.23;font-family:Gentium Book Basic"><tspan x="4391.07" y="-1728.26"/></text><text x="1291.32" y="-7284.29" transform="scale(4.0128.2492)" style="font-size:46.954;font-family:Arial;text-anchor:middle"/><text x="4972.34" y="-1808.26" line-height="125%" style="letter-spacing:0;word-spacing:0;font-size:129.23;font-family:Gentium Book Basic"><tspan x="4972.34" y="-1808.26"/></text><text x="1436.17" y="-7605.33" transform="scale(4.0128.2492)" style="font-size:46.954;font-family:Arial;text-anchor:middle"/><text x="4583.22" y="-2280.66" line-height="125%" style="letter-spacing:0;word-spacing:0;font-size:129.23;font-family:Gentium Book Basic"><tspan x="4583.22" y="-2280.66"/></text><text x="1339.2" y="-9500.97" transform="scale(4.0128.2492)" style="font-size:46.954;font-family:Arial;text-anchor:middle"/><text x="5164.49" y="-2360.66" line-height="125%" style="letter-spacing:0;word-spacing:0;font-size:129.23;font-family:Gentium Book Basic"><tspan x="5164.49" y="-2360.66"/></text><text x="1484.05" y="-9822" transform="scale(4.0128.2492)" style="font-size:46.954;font-family:Arial;text-anchor:middle"/><g transform="translate(0-540.36)" line-height="125%" style="letter-spacing:0;word-spacing:0;font-size:208.33;font-family:Gentium Book Basic"><text x="3331.68" y="-405.59"><tspan x="3331.68" y="-405.59"/></text><text x="-1210.93" y="348.49"><tspan x="-1210.93" y="348.49"/></text></g><text x="15.963" y="-1332.82" transform="scale(4.0128.2492)" style="font-size:75.7;font-family:Arial;text-anchor:middle"/><text x="-1210.93" y="-191.87" line-height="125%" style="letter-spacing:0;word-spacing:0;font-size:208.33;font-family:Gentium Book Basic"><tspan x="-1210.93" y="-191.87"/></text><text x="15.963" y="-1332.82" transform="scale(4.0128.2492)" style="font-size:75.7;font-family:Arial;text-anchor:middle"/><g style="fill-rule:evenodd"><path d="m204.62 151.75c-5.302 0-9.592 4.262-9.592 9.564v54.5c0 2.651 1.074 5.05 2.809 6.783l32.23 32.23h-111.06v15.09 6.932 19.547l15.09 15.09h-32c-5.302 0-9.564 4.262-9.564 9.564v29.633c0 2.651 1.065 5.04 2.793 6.77l109.07 109.07c15.646 3.551 31.926 5.436 48.646 5.436 102.67 0 188.83-70.69 212.47-166.06l-151.36-151.36c-1.728-1.728-4.12-2.795-6.771-2.795h-102.76" style="opacity:.25"/><path d="m204.62 151.75c-5.302 0-9.591 4.262-9.591 9.565v54.5c0 5.302 4.288 9.591 9.591 9.591h102.76c5.302 0 9.565-4.288 9.565-9.591v-54.5c0-5.302-4.262-9.565-9.565-9.565h-102.76m39.484 86.84v16.237h-125.1v15.09 6.932 19.546h23.12v-19.546h102.01v20.954h23.09v-20.954h101.62v21.371h23.12v-21.371-5.082-16.94h-124.73v-16.237h-23.09-.026m-142.01 72.895c-5.302 0-9.565 4.262-9.565 9.565v29.632c0 5.302 4.262 9.565 9.565 9.565h60.985c5.302 0 9.565-4.262 9.565-9.565v-29.632c0-5.302-4.262-9.565-9.565-9.565h-60.985m122.26 0c-5.302 0-9.565 4.262-9.565 9.565v29.632c0 5.302 4.262 9.565 9.565 9.565h60.985c5.302 0 9.565-4.262 9.565-9.565v-29.632c0-5.302-4.262-9.565-9.565-9.565h-60.985m124.58 0c-5.302 0-9.565 4.262-9.565 9.565v29.632c0 5.302 4.262 9.565 9.565 9.565h60.959c5.302 0 9.591-4.262 9.591-9.565v-29.632c0-5.302-4.288-9.565-9.591-9.565h-60.959" style="fill:#fff"/></g></svg>