<svg xmlns="http://www.w3.org/2000/svg" viewBox="0 0 512 512"><defs><linearGradient gradientUnits="userSpaceOnUse" y2="41.526" x2="418.79" y1="570.88" x1="-83.02" id="0"><stop style="stop-color:#0078ad"/><stop offset="1" style="stop-color:#904ab5"/></linearGradient></defs><text y="231.36" x="729.64" line-height="125%" style="letter-spacing:0;word-spacing:0;font-size:129.23;font-family:Gentium Book Basic"><tspan y="231.36" x="729.64"/></text><text transform="scale(4.0128.2492)" y="579.25" x="378.91" style="font-size:46.954;font-family:Arial;text-anchor:middle"/><text y="151.36" x="1310.91" line-height="125%" style="letter-spacing:0;word-spacing:0;font-size:129.23;font-family:Gentium Book Basic"><tspan y="151.36" x="1310.91"/></text><text transform="scale(4.0128.2492)" y="258.22" x="523.76" style="font-size:46.954;font-family:Arial;text-anchor:middle"/><text y="-29.901" x="239.33" line-height="125%" style="letter-spacing:0;word-spacing:0;font-size:129.23;font-family:Gentium Book Basic"><tspan y="-29.901" x="239.33"/></text><text transform="scale(4.0128.2492)" y="-469.14" x="256.72" style="font-size:46.954;font-family:Arial;text-anchor:middle"/><text y="-246.37" x="1337.38" line-height="125%" style="letter-spacing:0;word-spacing:0;font-size:129.23;font-family:Gentium Book Basic"><tspan y="-246.37" x="1337.38"/></text><text transform="scale(4.0128.2492)" y="-1337.81" x="530.36" style="font-size:46.954;font-family:Arial;text-anchor:middle"/><text y="-326.38" x="1918.65" line-height="125%" style="letter-spacing:0;word-spacing:0;font-size:129.23;font-family:Gentium Book Basic"><tspan y="-326.38" x="1918.65"/></text><text transform="scale(4.0128.2492)" y="-1658.85" x="675.21" style="font-size:46.954;font-family:Arial;text-anchor:middle"/><text y="-798.78" x="1529.53" line-height="125%" style="letter-spacing:0;word-spacing:0;font-size:129.23;font-family:Gentium Book Basic"><tspan y="-798.78" x="1529.53"/></text><text transform="scale(4.0128.2492)" y="-3554.51" x="578.24" style="font-size:46.954;font-family:Arial;text-anchor:middle"/><text y="-878.78" x="2110.79" line-height="125%" style="letter-spacing:0;word-spacing:0;font-size:129.23;font-family:Gentium Book Basic"><tspan y="-878.78" x="2110.79"/></text><text transform="scale(4.0128.2492)" y="-3875.54" x="723.09" style="font-size:46.954;font-family:Arial;text-anchor:middle"/><g line-height="125%" style="letter-spacing:0;word-spacing:0"><text y="535.94" x="277.99" style="font-size:208.33;font-family:Gentium Book Basic"><tspan y="535.94" x="277.99"/></text><text x="729.64" y="231.36" style="font-size:129.23;font-family:&apos;Gentium Book Basic&apos;"><tspan x="729.64" y="231.36"/></text></g><text x="378.91" y="579.25" transform="scale(4.0128.2492)" style="font-size:46.954;font-family:Arial;text-anchor:middle"/><text x="1310.91" y="151.36" line-height="125%" style="letter-spacing:0;word-spacing:0;font-size:129.23;font-family:&apos;Gentium Book Basic&apos;"><tspan x="1310.91" y="151.36"/></text><text x="523.76" y="258.22" transform="scale(4.0128.2492)" style="font-size:46.954;font-family:Arial;text-anchor:middle"/><text x="239.33" y="-29.901" line-height="125%" style="letter-spacing:0;word-spacing:0;font-size:129.23;font-family:&apos;Gentium Book Basic&apos;"><tspan x="239.33" y="-29.901"/></text><text x="256.72" y="-469.14" transform="scale(4.0128.2492)" style="font-size:46.954;font-family:Arial;text-anchor:middle"/><text x="1337.38" y="-246.37" line-height="125%" style="letter-spacing:0;word-spacing:0;font-size:129.23;font-family:&apos;Gentium Book Basic&apos;"><tspan x="1337.38" y="-246.37"/></text><text x="530.36" y="-1337.8" transform="scale(4.0128.2492)" style="font-size:46.954;font-family:Arial;text-anchor:middle"/><text x="1918.65" y="-326.38" line-height="125%" style="letter-spacing:0;word-spacing:0;font-size:129.23;font-family:&apos;Gentium Book Basic&apos;"><tspan x="1918.65" y="-326.38"/></text><text x="675.21" y="-1658.84" transform="scale(4.0128.2492)" style="font-size:46.954;font-family:Arial;text-anchor:middle"/><text x="1529.53" y="-798.78" line-height="125%" style="letter-spacing:0;word-spacing:0;font-size:129.23;font-family:&apos;Gentium Book Basic&apos;"><tspan x="1529.53" y="-798.78"/></text><text x="578.24" y="-3554.49" transform="scale(4.0128.2492)" style="font-size:46.954;font-family:Arial;text-anchor:middle"/><text x="2110.79" y="-878.78" line-height="125%" style="letter-spacing:0;word-spacing:0;font-size:129.23;font-family:&apos;Gentium Book Basic&apos;"><tspan x="2110.79" y="-878.78"/></text><text x="723.09" y="-3875.52" transform="scale(4.0128.2492)" style="font-size:46.954;font-family:Arial;text-anchor:middle"/><text x="277.99" y="535.94" line-height="125%" style="letter-spacing:0;word-spacing:0;font-size:208.33;font-family:&apos;Gentium Book Basic&apos;"><tspan x="277.99" y="535.94"/></text><g style="fill-rule:evenodd"><path d="m471.95 253.05c0 120.9-98.01 218.91-218.91 218.91-120.9 0-218.91-98.01-218.91-218.91 0-120.9 98.01-218.91 218.91-218.91 120.9 0 218.91 98.01 218.91 218.91" style="fill:url(#0)"/><path d="m256 1c-140.83 0-255 114.17-255 255 0 140.83 114.17 255 255 255 140.83 0 255-114.17 255-255 0-140.83-114.17-255-255-255m8.827 44.931c120.9 0 218.9 98 218.9 218.9 0 120.9-98 218.9-218.9 218.9-120.9 0-218.93-98-218.93-218.9 0-120.9 98.03-218.9 218.93-218.9" style="fill-opacity:.067"/><g style="fill-opacity:.129"><path d="m256 4.43c-138.94 0-251.57 112.63-251.57 251.57 0 138.94 112.63 251.57 251.57 251.57 138.94 0 251.57-112.63 251.57-251.57 0-138.94-112.63-251.57-251.57-251.57m5.885 38.556c120.9 0 218.9 98 218.9 218.9 0 120.9-98 218.9-218.9 218.9-120.9 0-218.93-98-218.93-218.9 0-120.9 98.03-218.9 218.93-218.9"/><path d="m256 8.36c-136.77 0-247.64 110.87-247.64 247.64 0 136.77 110.87 247.64 247.64 247.64 136.77 0 247.64-110.87 247.64-247.64 0-136.77-110.87-247.64-247.64-247.64m2.942 31.691c120.9 0 218.9 98 218.9 218.9 0 120.9-98 218.9-218.9 218.9-120.9 0-218.93-98-218.93-218.9 0-120.9 98.03-218.9 218.93-218.9"/></g><path d="m253.04 7.86c-135.42 0-245.19 109.78-245.19 245.19 0 135.42 109.78 245.19 245.19 245.19 135.42 0 245.19-109.78 245.19-245.19 0-135.42-109.78-245.19-245.19-245.19m0 26.297c120.9 0 218.9 98 218.9 218.9 0 120.9-98 218.9-218.9 218.9-120.9 0-218.93-98-218.93-218.9 0-120.9 98.03-218.9 218.93-218.9z" style="stroke-opacity:.31;fill:#fff;stroke:#000;stroke-width:4.904"/></g><text y="231.36" x="729.64" line-height="125%" style="letter-spacing:0;word-spacing:0;font-size:129.23;font-family:&apos;Gentium Book Basic&apos;"><tspan y="231.36" x="729.64"/></text><text transform="scale(4.0128.2492)" y="579.26" x="378.91" style="font-size:46.954;font-family:Arial;text-anchor:middle"/><text y="151.36" x="1310.91" line-height="125%" style="letter-spacing:0;word-spacing:0;font-size:129.23;font-family:&apos;Gentium Book Basic&apos;"><tspan y="151.36" x="1310.91"/></text><text transform="scale(4.0128.2492)" y="258.22" x="523.76" style="font-size:46.954;font-family:Arial;text-anchor:middle"/><text y="-29.9" x="239.33" line-height="125%" style="letter-spacing:0;word-spacing:0;font-size:129.23;font-family:&apos;Gentium Book Basic&apos;"><tspan y="-29.9" x="239.33"/></text><text transform="scale(4.0128.2492)" y="-469.13" x="256.72" style="font-size:46.954;font-family:Arial;text-anchor:middle"/><text y="-246.37" x="1337.38" line-height="125%" style="letter-spacing:0;word-spacing:0;font-size:129.23;font-family:&apos;Gentium Book Basic&apos;"><tspan y="-246.37" x="1337.38"/></text><text transform="scale(4.0128.2492)" y="-1337.8" x="530.36" style="font-size:46.954;font-family:Arial;text-anchor:middle"/><text y="-326.37" x="1918.65" line-height="125%" style="letter-spacing:0;word-spacing:0;font-size:129.23;font-family:&apos;Gentium Book Basic&apos;"><tspan y="-326.37" x="1918.65"/></text><text transform="scale(4.0128.2492)" y="-1658.83" x="675.21" style="font-size:46.954;font-family:Arial;text-anchor:middle"/><text y="-798.77" x="1529.53" line-height="125%" style="letter-spacing:0;word-spacing:0;font-size:129.23;font-family:&apos;Gentium Book Basic&apos;"><tspan y="-798.77" x="1529.53"/></text><text transform="scale(4.0128.2492)" y="-3554.48" x="578.24" style="font-size:46.954;font-family:Arial;text-anchor:middle"/><text y="-878.78" x="2110.79" line-height="125%" style="letter-spacing:0;word-spacing:0;font-size:129.23;font-family:&apos;Gentium Book Basic&apos;"><tspan y="-878.78" x="2110.79"/></text><text transform="scale(4.0128.2492)" y="-3875.52" x="723.09" style="font-size:46.954;font-family:Arial;text-anchor:middle"/><g line-height="125%" style="letter-spacing:0;word-spacing:0;font-family:&apos;Gentium Book Basic&apos;"><text y="535.94" x="277.99" style="font-size:208.33"><tspan y="535.94" x="277.99"/></text><text y="254.18" x="1400.21" style="font-size:129.23"><tspan y="254.18" x="1400.21"/></text></g><text transform="scale(4.0128.2492)" y="670.84" x="546.02" style="font-size:46.954;font-family:Arial;text-anchor:middle"/><text y="174.18" x="1981.48" line-height="125%" style="letter-spacing:0;word-spacing:0;font-size:129.23;font-family:&apos;Gentium Book Basic&apos;"><tspan y="174.18" x="1981.48"/></text><text transform="scale(4.0128.2492)" y="349.8" x="690.87" style="font-size:46.954;font-family:Arial;text-anchor:middle"/><text y="-7.077" x="909.9" line-height="125%" style="letter-spacing:0;word-spacing:0;font-size:129.23;font-family:&apos;Gentium Book Basic&apos;"><tspan y="-7.077" x="909.9"/></text><text transform="scale(4.0128.2492)" y="-377.54" x="423.83" style="font-size:46.954;font-family:Arial;text-anchor:middle"/><text y="-223.55" x="2007.95" line-height="125%" style="letter-spacing:0;word-spacing:0;font-size:129.23;font-family:&apos;Gentium Book Basic&apos;"><tspan y="-223.55" x="2007.95"/></text><text transform="scale(4.0128.2492)" y="-1246.22" x="697.47" style="font-size:46.954;font-family:Arial;text-anchor:middle"/><text y="-303.55" x="2589.22" line-height="125%" style="letter-spacing:0;word-spacing:0;font-size:129.23;font-family:&apos;Gentium Book Basic&apos;"><tspan y="-303.55" x="2589.22"/></text><text transform="scale(4.0128.2492)" y="-1567.25" x="842.31" style="font-size:46.954;font-family:Arial;text-anchor:middle"/><text y="-775.95" x="2200.1" line-height="125%" style="letter-spacing:0;word-spacing:0;font-size:129.23;font-family:&apos;Gentium Book Basic&apos;"><tspan y="-775.95" x="2200.1"/></text><text transform="scale(4.0128.2492)" y="-3462.9" x="745.34" style="font-size:46.954;font-family:Arial;text-anchor:middle"/><text y="-855.96" x="2781.36" line-height="125%" style="letter-spacing:0;word-spacing:0;font-size:129.23;font-family:&apos;Gentium Book Basic&apos;"><tspan y="-855.96" x="2781.36"/></text><text transform="scale(4.0128.2492)" y="-3783.94" x="890.19" style="font-size:46.954;font-family:Arial;text-anchor:middle"/><g line-height="125%" style="letter-spacing:0;word-spacing:0;font-family:&apos;Gentium Book Basic&apos;"><text y="558.76" x="948.56" style="font-size:208.33"><tspan y="558.76" x="948.56"/></text><text y="1355.95" x="-25832.7" style="font-size:4848.41"><tspan y="1355.95" x="-25832.7"/></text></g><text transform="scale(4.0128.2492)" y="-7658.9" x="956.76" style="font-size:1761.74;font-family:Arial;text-anchor:middle"/><text y="2268" x="-25967.45" line-height="125%" style="letter-spacing:0;word-spacing:0;font-size:4848.41;font-family:&apos;Gentium Book Basic&apos;"><tspan y="2268" x="-25967.45"/></text><text transform="scale(4.0128.2492)" y="-3999.05" x="923.22" style="font-size:1761.74;font-family:Arial;text-anchor:middle"/><g style="fill:#555753"><text transform="scale(1.05082.95163)" y="-4779.66" x="-11566.28" line-height="125%" style="letter-spacing:0;word-spacing:0;font-size:2976.1;font-family:&apos;Gentium Book Basic&apos;"><tspan y="-4779.66" x="-11566.28"/></text><text transform="scale(4.21677.23715)" y="-27220.93" x="1656.58" style="font-size:1081.49;font-family:Arial;text-anchor:middle"/><text transform="scale(1.05082.95163)" y="-5604.67" x="-2163.44" line-height="125%" style="letter-spacing:0;word-spacing:0;font-size:1593.24;font-family:&apos;Gentium Book Basic&apos;"><tspan y="-5604.67" x="-2163.44"/></text><text transform="scale(4.21677.23715)" y="-26795.03" x="1890.69" style="font-size:578.89;font-family:Arial;text-anchor:middle"/><text y="-1757.71" x="-38167.25" line-height="125%" style="letter-spacing:0;word-spacing:0;font-size:4654.55;font-family:&apos;Gentium Book Basic&apos;"><tspan y="-1757.71" x="-38167.25"/></text><text transform="scale(4.0128.2492)" y="-19628.94" x="-2412.65" style="font-size:1691.22;font-family:Arial;text-anchor:middle"/></g><g style="fill:#000"><text y="-13984.27" x="-23984.15" line-height="125%" style="letter-spacing:0;word-spacing:0;font-size:4848.41;font-family:&apos;Gentium Book Basic&apos;;stroke:#cd1d31;stroke-width:23.273"><tspan y="-13984.27" x="-23984.15" style="stroke-width:23.273"/></text><text transform="scale(4.0128.2492)" y="-69216.59" x="1417.56" style="font-size:1761.74;font-family:Arial;stroke:none;text-anchor:middle"/><text y="-13072.22" x="-24119.13" line-height="125%" style="letter-spacing:0;word-spacing:0;font-size:4848.41;font-family:&apos;Gentium Book Basic&apos;;stroke:#cd1d31;stroke-width:23.273"><tspan y="-13072.22" x="-24119.13" style="stroke-width:23.273"/></text><text transform="scale(4.0128.2492)" y="-65556.5" x="1383.88" style="font-size:1761.74;font-family:Arial;stroke:none;text-anchor:middle"/></g><g style="fill:#555753"><g style="stroke:#cd1d31;stroke-width:23.273"><text transform="scale(1.05082.95163)" y="-20899.68" x="-9807.11" line-height="125%" style="letter-spacing:0;word-spacing:0;font-size:2976.1;font-family:&apos;Gentium Book Basic&apos;"><tspan y="-20899.68" x="-9807.11" style="stroke-width:23.273"/></text><text transform="scale(4.21677.23715)" y="-91907.86" x="2095.02" style="font-size:1081.49;font-family:Arial;text-anchor:middle"/><text transform="scale(1.05082.95163)" y="-21724.46" x="-404.5" line-height="125%" style="letter-spacing:0;word-spacing:0;font-size:1593.24;font-family:&apos;Gentium Book Basic&apos;"><tspan y="-21724.46" x="-404.5" style="stroke-width:23.273"/></text><text transform="scale(4.21677.23715)" y="-91481.97" x="2328.91" style="font-size:578.89;font-family:Arial;text-anchor:middle"/><text y="-17097.93" x="-36318.69" line-height="125%" style="letter-spacing:0;word-spacing:0;font-size:4654.55;font-family:&apos;Gentium Book Basic&apos;"><tspan y="-17097.93" x="-36318.69" style="stroke-width:23.273"/></text></g><text transform="scale(4.0128.2492)" y="-81186.62" x="-1952.09" style="font-size:1691.22;font-family:Arial;stroke:none;text-anchor:middle"/></g><g style="fill:#000"><text y="-20673.79" x="-7008.32" line-height="125%" style="letter-spacing:0;word-spacing:0;font-size:4654.55;font-family:&apos;Gentium Book Basic&apos;;stroke:#cd1d31;stroke-width:23.273"><tspan y="-20673.79" x="-7008.32" style="stroke-width:23.273"/></text><text transform="scale(4.0128.2492)" y="-95535.81" x="5352.02" style="font-size:1691.22;font-family:Arial;stroke:none;text-anchor:middle"/><text y="-23555.42" x="13928.29" line-height="125%" style="letter-spacing:0;word-spacing:0;font-size:4654.55;font-family:&apos;Gentium Book Basic&apos;;stroke:#cd1d31;stroke-width:23.273"><tspan y="-23555.42" x="13928.29" style="stroke-width:23.273"/></text><text transform="scale(4.0128.2492)" y="-107099.05" x="10569.51" style="font-size:1691.22;font-family:Arial;stroke:none;text-anchor:middle"/></g><text y="6656.54" x="-38471.66" line-height="125%" style="letter-spacing:0;word-spacing:0;font-size:4848.41;font-family:&apos;Gentium Book Basic&apos;"><tspan y="6656.54" x="-38471.66"/></text><text transform="scale(4.0128.2492)" y="13611.8" x="-2192.72" style="font-size:1761.74;font-family:Arial;text-anchor:middle"/><text y="-747.91" x="5516.6" line-height="125%" style="letter-spacing:0;word-spacing:0;font-size:3007.53;font-family:&apos;Gentium Book Basic&apos;"><tspan y="-747.91" x="5516.6"/></text><text transform="scale(4.0128.2492)" y="-11126.76" x="5961.3" style="font-size:1092.74;font-family:Arial;text-anchor:middle"/><text y="-2609.73" x="19044.34" line-height="125%" style="letter-spacing:0;word-spacing:0;font-size:3007.53;font-family:&apos;Gentium Book Basic&apos;"><tspan y="-2609.73" x="19044.34"/></text><text transform="scale(4.0128.2492)" y="-18598.2" x="9332.34" style="font-size:1092.74;font-family:Arial;text-anchor:middle"/><text y="-6828.14" x="-5894.26" line-height="125%" style="letter-spacing:0;word-spacing:0;font-size:3007.53;font-family:&apos;Gentium Book Basic&apos;"><tspan y="-6828.14" x="-5894.26"/></text><text transform="scale(4.0128.2492)" y="-35525.53" x="3117.62" style="font-size:1092.74;font-family:Arial;text-anchor:middle"/><text y="-11866.04" x="19660.37" line-height="125%" style="letter-spacing:0;word-spacing:0;font-size:3007.53;font-family:&apos;Gentium Book Basic&apos;"><tspan y="-11866.04" x="19660.37"/></text><text transform="scale(4.0128.2492)" y="-55741.98" x="9485.94" style="font-size:1092.74;font-family:Arial;text-anchor:middle"/><text y="-13727.81" x="33187.87" line-height="125%" style="letter-spacing:0;word-spacing:0;font-size:3007.53;font-family:&apos;Gentium Book Basic&apos;"><tspan y="-13727.81" x="33187.87"/></text><text transform="scale(4.0128.2492)" y="-63213.19" x="12856.98" style="font-size:1092.74;font-family:Arial;text-anchor:middle"/><text y="-24721.85" x="24131.99" line-height="125%" style="letter-spacing:0;word-spacing:0;font-size:3007.53;font-family:&apos;Gentium Book Basic&apos;"><tspan y="-24721.85" x="24131.99"/></text><text transform="scale(4.0128.2492)" y="-107330.14" x="10600.23" style="font-size:1092.74;font-family:Arial;text-anchor:middle"/><text y="-26583.9" x="37659.73" line-height="125%" style="letter-spacing:0;word-spacing:0;font-size:3007.53;font-family:&apos;Gentium Book Basic&apos;"><tspan y="-26583.9" x="37659.73"/></text><text transform="scale(4.0128.2492)" y="-114801.57" x="13971.27" style="font-size:1092.74;font-family:Arial;text-anchor:middle"/><g line-height="125%" style="letter-spacing:0;word-spacing:0;font-size:4848.41;font-family:&apos;Gentium Book Basic&apos;"><text y="6340.5" x="-4994.77"><tspan y="6340.5" x="-4994.77"/></text><text y="1355.01" x="-26707.06"><tspan y="1355.01" x="-26707.06"/></text></g><text transform="scale(4.0128.2492)" y="-7662.86" x="738.93" style="font-size:1761.74;font-family:Arial;text-anchor:middle"/><text y="2267.07" x="-26841.81" line-height="125%" style="letter-spacing:0;word-spacing:0;font-size:4848.41;font-family:&apos;Gentium Book Basic&apos;"><tspan y="2267.07" x="-26841.81"/></text><text transform="scale(4.0128.2492)" y="-4002.78" x="705.34" style="font-size:1761.74;font-family:Arial;text-anchor:middle"/><g style="fill:#555753"><text transform="scale(1.05082.95163)" y="-4780.82" x="-12398.28" line-height="125%" style="letter-spacing:0;word-spacing:0;font-size:2976.1;font-family:&apos;Gentium Book Basic&apos;"><tspan y="-4780.82" x="-12398.28"/></text><text transform="scale(4.21677.23715)" y="-27225.12" x="1449.2" style="font-size:1081.49;font-family:Arial;text-anchor:middle"/><text transform="scale(1.05082.95163)" y="-5605.83" x="-2995.67" line-height="125%" style="letter-spacing:0;word-spacing:0;font-size:1593.24;font-family:&apos;Gentium Book Basic&apos;"><tspan y="-5605.83" x="-2995.67"/></text><text transform="scale(4.21677.23715)" y="-26798.99" x="1683.32" style="font-size:578.89;font-family:Arial;text-anchor:middle"/><text y="-1758.64" x="-39041.61" line-height="125%" style="letter-spacing:0;word-spacing:0;font-size:4654.55;font-family:&apos;Gentium Book Basic&apos;"><tspan y="-1758.64" x="-39041.61"/></text><text transform="scale(4.0128.2492)" y="-19632.9" x="-2630.48" style="font-size:1691.22;font-family:Arial;text-anchor:middle"/></g><g style="fill:#000"><text y="-13985.2" x="-24858.51" line-height="125%" style="letter-spacing:0;word-spacing:0;font-size:4848.41;font-family:&apos;Gentium Book Basic&apos;;stroke:#cd1d31;stroke-width:23.273"><tspan y="-13985.2" x="-24858.51" style="stroke-width:23.273"/></text><text transform="scale(4.0128.2492)" y="-69220.3" x="1199.58" style="font-size:1761.74;font-family:Arial;stroke:none;text-anchor:middle"/><text y="-13073.15" x="-24993.25" line-height="125%" style="letter-spacing:0;word-spacing:0;font-size:4848.41;font-family:&apos;Gentium Book Basic&apos;;stroke:#cd1d31;stroke-width:23.273"><tspan y="-13073.15" x="-24993.25" style="stroke-width:23.273"/></text><text transform="scale(4.0128.2492)" y="-65560.46" x="1165.98" style="font-size:1761.74;font-family:Arial;stroke:none;text-anchor:middle"/></g><g style="fill:#555753"><g style="stroke:#cd1d31;stroke-width:23.273"><text transform="scale(1.05082.95163)" y="-20900.61" x="-10639.1" line-height="125%" style="letter-spacing:0;word-spacing:0;font-size:2976.1;font-family:&apos;Gentium Book Basic&apos;"><tspan y="-20900.61" x="-10639.1" style="stroke-width:23.273"/></text><text transform="scale(4.21677.23715)" y="-91912.05" x="1887.61" style="font-size:1081.49;font-family:Arial;text-anchor:middle"/><text transform="scale(1.05082.95163)" y="-21725.62" x="-1236.49" line-height="125%" style="letter-spacing:0;word-spacing:0;font-size:1593.24;font-family:&apos;Gentium Book Basic&apos;"><tspan y="-21725.62" x="-1236.49" style="stroke-width:23.273"/></text><text transform="scale(4.21677.23715)" y="-91485.92" x="2121.67" style="font-size:578.89;font-family:Arial;text-anchor:middle"/><text y="-17098.87" x="-37193.06" line-height="125%" style="letter-spacing:0;word-spacing:0;font-size:4654.55;font-family:&apos;Gentium Book Basic&apos;"><tspan y="-17098.87" x="-37193.06" style="stroke-width:23.273"/></text></g><text transform="scale(4.0128.2492)" y="-81190.58" x="-2169.92" style="font-size:1691.22;font-family:Arial;stroke:none;text-anchor:middle"/></g><g style="fill:#000"><text y="-20674.72" x="-7882.68" line-height="125%" style="letter-spacing:0;word-spacing:0;font-size:4654.55;font-family:&apos;Gentium Book Basic&apos;;stroke:#cd1d31;stroke-width:23.273"><tspan y="-20674.72" x="-7882.68" style="stroke-width:23.273"/></text><text transform="scale(4.0128.2492)" y="-95539.77" x="5134.19" style="font-size:1691.22;font-family:Arial;stroke:none;text-anchor:middle"/><text y="-23556.35" x="13053.93" line-height="125%" style="letter-spacing:0;word-spacing:0;font-size:4654.55;font-family:&apos;Gentium Book Basic&apos;;stroke:#cd1d31;stroke-width:23.273"><tspan y="-23556.35" x="13053.93" style="stroke-width:23.273"/></text><text transform="scale(4.0128.2492)" y="-107103.01" x="10351.44" style="font-size:1691.22;font-family:Arial;stroke:none;text-anchor:middle"/></g><text y="555.36" x="-397.47" line-height="125%" style="letter-spacing:0;word-spacing:0;font-size:152.11;font-family:&apos;Gentium Book Basic&apos;"><tspan y="555.36" x="-397.47"/></text><text transform="scale(4.0128.2492)" y="1817" x="132.91" style="font-size:55.27;font-family:Arial;text-anchor:middle"/><text y="322.87" x="982.46" line-height="125%" style="letter-spacing:0;word-spacing:0;font-size:94.35;font-family:&apos;Gentium Book Basic&apos;"><tspan y="322.87" x="982.46"/></text><text transform="scale(4.0128.2492)" y="1041.09" x="388.72" style="font-size:34.28;font-family:Arial;text-anchor:middle"/><text y="264.45" x="1406.86" line-height="125%" style="letter-spacing:0;word-spacing:0;font-size:94.35;font-family:&apos;Gentium Book Basic&apos;"><tspan y="264.45" x="1406.86"/></text><text transform="scale(4.0128.2492)" y="806.51" x="494.49" style="font-size:34.28;font-family:Arial;text-anchor:middle"/><text y="132.27" x="624.48" line-height="125%" style="letter-spacing:0;word-spacing:0;font-size:94.35;font-family:&apos;Gentium Book Basic&apos;"><tspan y="132.27" x="624.48"/></text><text transform="scale(4.0128.2492)" y="275.43" x="299.54" style="font-size:34.28;font-family:Arial;text-anchor:middle"/><text y="-25.757" x="1426.2" line-height="125%" style="letter-spacing:0;word-spacing:0;font-size:94.35;font-family:&apos;Gentium Book Basic&apos;"><tspan y="-25.757" x="1426.2"/></text><text transform="scale(4.0128.2492)" y="-358.75" x="499.31" style="font-size:34.28;font-family:Arial;text-anchor:middle"/><text y="-84.17" x="1850.58" line-height="125%" style="letter-spacing:0;word-spacing:0;font-size:94.35;font-family:&apos;Gentium Book Basic&apos;"><tspan y="-84.17" x="1850.58"/></text><text transform="scale(4.0128.2492)" y="-593.11" x="605.11" style="font-size:34.28;font-family:Arial;text-anchor:middle"/><text y="-429.07" x="1566.49" line-height="125%" style="letter-spacing:0;word-spacing:0;font-size:94.35;font-family:&apos;Gentium Book Basic&apos;"><tspan y="-429.07" x="1566.49"/></text><text transform="scale(4.0128.2492)" y="-1977.13" x="534.36" style="font-size:34.28;font-family:Arial;text-anchor:middle"/><text y="-487.49" x="1990.89" line-height="125%" style="letter-spacing:0;word-spacing:0;font-size:94.35;font-family:&apos;Gentium Book Basic&apos;"><tspan y="-487.49" x="1990.89"/></text><text transform="scale(4.0128.2492)" y="-2211.48" x="640.02" style="font-size:34.28;font-family:Arial;text-anchor:middle"/><g line-height="125%" style="letter-spacing:0;word-spacing:0;font-family:&apos;Gentium Book Basic&apos;"><text y="545.36" x="652.71" style="font-size:152.11"><tspan y="545.36" x="652.71"/></text><text y="1367.3" x="-25857.25" style="font-size:4848.41"><tspan y="1367.3" x="-25857.25"/></text></g><text transform="scale(4.0128.2492)" y="-7613.32" x="950.64" style="font-size:1761.74;font-family:Arial;text-anchor:middle"/><text y="2279.36" x="-25991.99" line-height="125%" style="letter-spacing:0;word-spacing:0;font-size:4848.41;font-family:&apos;Gentium Book Basic&apos;"><tspan y="2279.36" x="-25991.99"/></text><text transform="scale(4.0128.2492)" y="-3953.47" x="917.11" style="font-size:1761.74;font-family:Arial;text-anchor:middle"/><g style="fill:#555753"><text transform="scale(1.05082.95163)" y="-4767.72" x="-11589.64" line-height="125%" style="letter-spacing:0;word-spacing:0;font-size:2976.1;font-family:&apos;Gentium Book Basic&apos;"><tspan y="-4767.72" x="-11589.64"/></text><text transform="scale(4.21677.23715)" y="-27173.03" x="1650.76" style="font-size:1081.49;font-family:Arial;text-anchor:middle"/><text transform="scale(1.05082.95163)" y="-5592.73" x="-2186.8" line-height="125%" style="letter-spacing:0;word-spacing:0;font-size:1593.24;font-family:&apos;Gentium Book Basic&apos;"><tspan y="-5592.73" x="-2186.8"/></text><text transform="scale(4.21677.23715)" y="-26747.14" x="1884.86" style="font-size:578.89;font-family:Arial;text-anchor:middle"/><text y="-1746.35" x="-38191.79" line-height="125%" style="letter-spacing:0;word-spacing:0;font-size:4654.55;font-family:&apos;Gentium Book Basic&apos;"><tspan y="-1746.35" x="-38191.79"/></text><text transform="scale(4.0128.2492)" y="-19583.36" x="-2418.77" style="font-size:1691.22;font-family:Arial;text-anchor:middle"/></g><g style="fill:#000"><text y="-13972.92" x="-24008.69" line-height="125%" style="letter-spacing:0;word-spacing:0;font-size:4848.41;font-family:&apos;Gentium Book Basic&apos;;stroke:#cd1d31;stroke-width:23.273"><tspan y="-13972.92" x="-24008.69" style="stroke-width:23.273"/></text><text transform="scale(4.0128.2492)" y="-69171.01" x="1411.44" style="font-size:1761.74;font-family:Arial;stroke:none;text-anchor:middle"/><text y="-13060.86" x="-24143.68" line-height="125%" style="letter-spacing:0;word-spacing:0;font-size:4848.41;font-family:&apos;Gentium Book Basic&apos;;stroke:#cd1d31;stroke-width:23.273"><tspan y="-13060.86" x="-24143.68" style="stroke-width:23.273"/></text><text transform="scale(4.0128.2492)" y="-65510.93" x="1377.76" style="font-size:1761.74;font-family:Arial;stroke:none;text-anchor:middle"/></g><g transform="matrix(23.27273 0 0 23.27273 1270.84-11421.53)" style="fill:#555753;stroke:#cd1d31"><text transform="scale(1.05082.95163)" y="-381.81" x="-474.37" line-height="125%" style="letter-spacing:0;word-spacing:0;font-size:127.88;font-family:&apos;Gentium Book Basic&apos;"><tspan y="-381.81" x="-474.37"/></text><text transform="scale(4.21679.23715)" y="-1877.64" x="76.82" style="font-size:46.47;font-family:Arial;text-anchor:middle"/><text transform="scale(1.05082.95163)" y="-417.25" x="-70.35" line-height="125%" style="letter-spacing:0;word-spacing:0;font-size:68.46;font-family:&apos;Gentium Book Basic&apos;"><tspan y="-417.25" x="-70.35"/></text><text transform="scale(4.21679.23715)" y="-1859.34" x="86.87" style="font-size:24.874;font-family:Arial;text-anchor:middle"/><text y="-243.42" x="-1616.23" line-height="125%" style="letter-spacing:0;word-spacing:0;font-size:200;font-family:&apos;Gentium Book Basic&apos;"><tspan y="-243.42" x="-1616.23"/></text></g><text transform="scale(4.0128.2492)" y="-81141.05" x="-1958.2" style="font-size:1691.22;font-family:Arial;fill:#555753;stroke:none;text-anchor:middle"/><g style="fill:#000"><text y="-20662.43" x="-7032.87" line-height="125%" style="letter-spacing:0;word-spacing:0;font-size:4654.55;font-family:&apos;Gentium Book Basic&apos;;stroke:#cd1d31;stroke-width:23.273"><tspan y="-20662.43" x="-7032.87" style="stroke-width:23.273"/></text><text transform="scale(4.0128.2492)" y="-95490.23" x="5345.91" style="font-size:1691.22;font-family:Arial;stroke:none;text-anchor:middle"/><text y="-23544.06" x="13903.75" line-height="125%" style="letter-spacing:0;word-spacing:0;font-size:4654.55;font-family:&apos;Gentium Book Basic&apos;;stroke:#cd1d31;stroke-width:23.273"><tspan y="-23544.06" x="13903.75" style="stroke-width:23.273"/></text><text transform="scale(4.0128.2492)" y="-107053.46" x="10563.4" style="font-size:1691.22;font-family:Arial;stroke:none;text-anchor:middle"/></g><text y="1829.69" x="-25391.16" line-height="125%" style="letter-spacing:0;word-spacing:0;font-size:4848.41;font-family:&apos;Gentium Book Basic&apos;"><tspan y="1829.69" x="-25391.16"/></text><text transform="scale(4.0128.2492)" y="-5757.79" x="1066.79" style="font-size:1761.74;font-family:Arial;text-anchor:middle"/><text y="2741.75" x="-25525.9" line-height="125%" style="letter-spacing:0;word-spacing:0;font-size:4848.41;font-family:&apos;Gentium Book Basic&apos;"><tspan y="2741.75" x="-25525.9"/></text><text transform="scale(4.0128.2492)" y="-2097.94" x="1033.26" style="font-size:1761.74;font-family:Arial;text-anchor:middle"/><g style="fill:#555753"><text transform="scale(1.05082.95163)" y="-4281.92" x="-11146.09" line-height="125%" style="letter-spacing:0;word-spacing:0;font-size:2976.1;font-family:&apos;Gentium Book Basic&apos;"><tspan y="-4281.92" x="-11146.09"/></text><text transform="scale(4.21677.23715)" y="-25223.87" x="1761.3" style="font-size:1081.49;font-family:Arial;text-anchor:middle"/><text transform="scale(1.05082.95163)" y="-5106.94" x="-1743.25" line-height="125%" style="letter-spacing:0;word-spacing:0;font-size:1593.24;font-family:&apos;Gentium Book Basic&apos;"><tspan y="-5106.94" x="-1743.25"/></text><text transform="scale(4.21677.23715)" y="-24797.75" x="1995.4" style="font-size:578.89;font-family:Arial;text-anchor:middle"/><text y="-1283.96" x="-37725.7" line-height="125%" style="letter-spacing:0;word-spacing:0;font-size:4654.55;font-family:&apos;Gentium Book Basic&apos;"><tspan y="-1283.96" x="-37725.7"/></text><text transform="scale(4.0128.2492)" y="-17727.82" x="-2302.62" style="font-size:1691.22;font-family:Arial;text-anchor:middle"/></g><g style="fill:#000"><text y="-13510.53" x="-23542.6" line-height="125%" style="letter-spacing:0;word-spacing:0;font-size:4848.41;font-family:&apos;Gentium Book Basic&apos;;stroke:#cd1d31;stroke-width:23.273"><tspan y="-13510.53" x="-23542.6" style="stroke-width:23.273"/></text><text transform="scale(4.0128.2492)" y="-67315.48" x="1527.59" style="font-size:1761.74;font-family:Arial;stroke:none;text-anchor:middle"/><text y="-12598.47" x="-23677.58" line-height="125%" style="letter-spacing:0;word-spacing:0;font-size:4848.41;font-family:&apos;Gentium Book Basic&apos;;stroke:#cd1d31;stroke-width:23.273"><tspan y="-12598.47" x="-23677.58" style="stroke-width:23.273"/></text><text transform="scale(4.0128.2492)" y="-63655.39" x="1493.91" style="font-size:1761.74;font-family:Arial;stroke:none;text-anchor:middle"/></g><g style="fill:#555753"><g style="stroke:#cd1d31;stroke-width:23.273"><text transform="scale(1.05082.95163)" y="-20401.71" x="-9386.91" line-height="125%" style="letter-spacing:0;word-spacing:0;font-size:2976.1;font-family:&apos;Gentium Book Basic&apos;"><tspan y="-20401.71" x="-9386.91" style="stroke-width:23.273"/></text><text transform="scale(4.21677.23715)" y="-89910.81" x="2199.73" style="font-size:1081.49;font-family:Arial;text-anchor:middle"/><text transform="scale(1.05082.95163)" y="-21226.73" x="15.696" line-height="125%" style="letter-spacing:0;word-spacing:0;font-size:1593.24;font-family:&apos;Gentium Book Basic&apos;"><tspan y="-21226.73" x="15.696" style="stroke-width:23.273"/></text><text transform="scale(4.21677.23715)" y="-89484.69" x="2433.63" style="font-size:578.89;font-family:Arial;text-anchor:middle"/><text y="-16624.19" x="-35877.14" line-height="125%" style="letter-spacing:0;word-spacing:0;font-size:4654.55;font-family:&apos;Gentium Book Basic&apos;"><tspan y="-16624.19" x="-35877.14" style="stroke-width:23.273"/></text></g><text transform="scale(4.0128.2492)" y="-79285.51" x="-1842.05" style="font-size:1691.22;font-family:Arial;stroke:none;text-anchor:middle"/></g><g style="fill:#000"><text y="-20200.04" x="-6566.77" line-height="125%" style="letter-spacing:0;word-spacing:0;font-size:4654.55;font-family:&apos;Gentium Book Basic&apos;;stroke:#cd1d31;stroke-width:23.273"><tspan y="-20200.04" x="-6566.77" style="stroke-width:23.273"/></text><text transform="scale(4.0128.2492)" y="-93634.7" x="5462.06" style="font-size:1691.22;font-family:Arial;stroke:none;text-anchor:middle"/><text y="-23081.67" x="14369.84" line-height="125%" style="letter-spacing:0;word-spacing:0;font-size:4654.55;font-family:&apos;Gentium Book Basic&apos;;stroke:#cd1d31;stroke-width:23.273"><tspan y="-23081.67" x="14369.84" style="stroke-width:23.273"/></text><text transform="scale(4.0128.2492)" y="-105197.94" x="10679.55" style="font-size:1691.22;font-family:Arial;stroke:none;text-anchor:middle"/></g><g line-height="125%" style="letter-spacing:0;word-spacing:0;font-family:&apos;Gentium Book Basic&apos;"><g style="fill:#fff"><text y="795.2" x="556.67" style="font-size:155.15"><tspan y="795.2" x="556.67"/></text><text y="795.22" x="556.66" style="font-size:155.16"><tspan y="795.22" x="556.66"/></text></g><text y="254.18" x="1400.21" style="font-size:129.23"><tspan y="254.18" x="1400.21"/></text></g><text transform="scale(4.0128.2492)" y="670.83" x="546.02" style="font-size:46.954;font-family:Arial;text-anchor:middle"/><text y="174.18" x="1981.48" line-height="125%" style="letter-spacing:0;word-spacing:0;font-size:129.23;font-family:&apos;Gentium Book Basic&apos;"><tspan y="174.18" x="1981.48"/></text><text transform="scale(4.0128.2492)" y="349.8" x="690.87" style="font-size:46.954;font-family:Arial;text-anchor:middle"/><text y="-7.078" x="909.9" line-height="125%" style="letter-spacing:0;word-spacing:0;font-size:129.23;font-family:&apos;Gentium Book Basic&apos;"><tspan y="-7.078" x="909.9"/></text><text transform="scale(4.0128.2492)" y="-377.55" x="423.83" style="font-size:46.954;font-family:Arial;text-anchor:middle"/><text y="-223.55" x="2007.95" line-height="125%" style="letter-spacing:0;word-spacing:0;font-size:129.23;font-family:&apos;Gentium Book Basic&apos;"><tspan y="-223.55" x="2007.95"/></text><text transform="scale(4.0128.2492)" y="-1246.22" x="697.47" style="font-size:46.954;font-family:Arial;text-anchor:middle"/><text y="-303.56" x="2589.22" line-height="125%" style="letter-spacing:0;word-spacing:0;font-size:129.23;font-family:&apos;Gentium Book Basic&apos;"><tspan y="-303.56" x="2589.22"/></text><text transform="scale(4.0128.2492)" y="-1567.26" x="842.31" style="font-size:46.954;font-family:Arial;text-anchor:middle"/><text y="-775.96" x="2200.1" line-height="125%" style="letter-spacing:0;word-spacing:0;font-size:129.23;font-family:&apos;Gentium Book Basic&apos;"><tspan y="-775.96" x="2200.1"/></text><text transform="scale(4.0128.2492)" y="-3462.91" x="745.34" style="font-size:46.954;font-family:Arial;text-anchor:middle"/><text y="-855.96" x="2781.36" line-height="125%" style="letter-spacing:0;word-spacing:0;font-size:129.23;font-family:&apos;Gentium Book Basic&apos;"><tspan y="-855.96" x="2781.36"/></text><text transform="scale(4.0128.2492)" y="-3783.94" x="890.19" style="font-size:46.954;font-family:Arial;text-anchor:middle"/><g line-height="125%" style="letter-spacing:0;word-spacing:0;font-family:&apos;Gentium Book Basic&apos;"><text y="558.76" x="948.56" style="font-size:208.33"><tspan y="558.76" x="948.56"/></text><text y="406.05" x="2294.04" style="font-size:129.23"><tspan y="406.05" x="2294.04"/></text></g><text transform="scale(4.0128.2492)" y="1280.23" x="768.76" style="font-size:46.954;font-family:Arial;text-anchor:middle"/><text y="326.05" x="2875.31" line-height="125%" style="letter-spacing:0;word-spacing:0;font-size:129.23;font-family:&apos;Gentium Book Basic&apos;"><tspan y="326.05" x="2875.31"/></text><text transform="scale(4.0128.2492)" y="959.21" x="913.61" style="font-size:46.954;font-family:Arial;text-anchor:middle"/><text y="144.79" x="1803.73" line-height="125%" style="letter-spacing:0;word-spacing:0;font-size:129.23;font-family:&apos;Gentium Book Basic&apos;"><tspan y="144.79" x="1803.73"/></text><text transform="scale(4.0128.2492)" y="231.85" x="646.57" style="font-size:46.954;font-family:Arial;text-anchor:middle"/><text y="-71.68" x="2901.78" line-height="125%" style="letter-spacing:0;word-spacing:0;font-size:129.23;font-family:&apos;Gentium Book Basic&apos;"><tspan y="-71.68" x="2901.78"/></text><text transform="scale(4.0128.2492)" y="-636.82" x="920.21" style="font-size:46.954;font-family:Arial;text-anchor:middle"/><text y="-151.69" x="3483.05" line-height="125%" style="letter-spacing:0;word-spacing:0;font-size:129.23;font-family:&apos;Gentium Book Basic&apos;"><tspan y="-151.69" x="3483.05"/></text><text transform="scale(4.0128.2492)" y="-957.85" x="1065.06" style="font-size:46.954;font-family:Arial;text-anchor:middle"/><text y="-624.09" x="3093.93" line-height="125%" style="letter-spacing:0;word-spacing:0;font-size:129.23;font-family:&apos;Gentium Book Basic&apos;"><tspan y="-624.09" x="3093.93"/></text><text transform="scale(4.0128.2492)" y="-2853.5" x="968.09" style="font-size:46.954;font-family:Arial;text-anchor:middle"/><text y="-704.09" x="3675.19" line-height="125%" style="letter-spacing:0;word-spacing:0;font-size:129.23;font-family:&apos;Gentium Book Basic&apos;"><tspan y="-704.09" x="3675.19"/></text><text transform="scale(4.0128.2492)" y="-3174.53" x="1112.94" style="font-size:46.954;font-family:Arial;text-anchor:middle"/><g line-height="125%" style="letter-spacing:0;word-spacing:0;font-family:&apos;Gentium Book Basic&apos;"><text y="710.63" x="1842.39" style="font-size:208.33;fill:#fff"><tspan y="710.63" x="1842.39" style="fill:#fff"/></text><text y="195" x="874.56" style="font-size:129.23"><tspan y="195" x="874.56"/></text></g><text transform="scale(4.0128.2492)" y="433.32" x="415.03" style="font-size:46.954;font-family:Arial;text-anchor:middle"/><text y="115" x="1455.83" line-height="125%" style="letter-spacing:0;word-spacing:0;font-size:129.23;font-family:&apos;Gentium Book Basic&apos;"><tspan y="115" x="1455.83"/></text><text transform="scale(4.0128.2492)" y="112.3" x="559.87" style="font-size:46.954;font-family:Arial;text-anchor:middle"/><text y="-66.26" x="384.25" line-height="125%" style="letter-spacing:0;word-spacing:0;font-size:129.23;font-family:&apos;Gentium Book Basic&apos;"><tspan y="-66.26" x="384.25"/></text><text transform="scale(4.0128.2492)" y="-615.05" x="292.84" style="font-size:46.954;font-family:Arial;text-anchor:middle"/><text y="-282.73" x="1482.3" line-height="125%" style="letter-spacing:0;word-spacing:0;font-size:129.23;font-family:&apos;Gentium Book Basic&apos;"><tspan y="-282.73" x="1482.3"/></text><text transform="scale(4.0128.2492)" y="-1483.72" x="566.47" style="font-size:46.954;font-family:Arial;text-anchor:middle"/><text y="-362.74" x="2063.57" line-height="125%" style="letter-spacing:0;word-spacing:0;font-size:129.23;font-family:&apos;Gentium Book Basic&apos;"><tspan y="-362.74" x="2063.57"/></text><text transform="scale(4.0128.2492)" y="-1804.75" x="711.32" style="font-size:46.954;font-family:Arial;text-anchor:middle"/><text y="-835.14" x="1674.45" line-height="125%" style="letter-spacing:0;word-spacing:0;font-size:129.23;font-family:&apos;Gentium Book Basic&apos;"><tspan y="-835.14" x="1674.45"/></text><text transform="scale(4.0128.2492)" y="-3700.4" x="614.35" style="font-size:46.954;font-family:Arial;text-anchor:middle"/><text y="-915.14" x="2255.71" line-height="125%" style="letter-spacing:0;word-spacing:0;font-size:129.23;font-family:&apos;Gentium Book Basic&apos;"><tspan y="-915.14" x="2255.71"/></text><text transform="scale(4.0128.2492)" y="-4021.42" x="759.2" style="font-size:46.954;font-family:Arial;text-anchor:middle"/><text y="499.58" x="422.91" line-height="125%" style="letter-spacing:0;word-spacing:0;font-size:208.33;font-family:&apos;Gentium Book Basic&apos;"><tspan y="499.58" x="422.91"/></text><g style="color:#000"><path d="m256.09 101c-15.935 0-31.386 2.403-45.855 6.869l20.715 20.715c-12.503-5.51-25.506-10.146-39.09-13.672-16.296 7.437-31.11 17.554-43.795 29.883 3.533 10.421 7.312 20.433 11.328 30.05l-20.432-20.432c-23.596 27.2-37.955 62.67-37.955 101.5 0 2.964.005 6.01.172 8.932l8.541 8.541c-2.234 2.28-4.454 4.583-6.652 6.916 3.466 22 11.489 42.38 23.19 60.28l11.924 11.924c-1.056.031-2.111.062-3.164.098 3.509 4.386 7.274 8.573 11.248 12.547l106.81 106.81c120.89-.012 218.88-98.02 218.88-218.91 0-.091-.004-.182-.004-.273l-106.12-106.12c-4.643-4.643-9.576-8.998-14.766-13.03.028 1.038.137 2.102.172 2.92.028.645.044 1.164.068 1.785l-15.01-15.01c-18.19-11.03-38.883-18.377-60.971-21.12l-6.67 7.584-8.615-8.615c-1.33-.034-2.611-.172-3.949-.172" style="opacity:.25"/><g style="fill:#fff"><path d="m256 101c-85.6 0-155 69.4-155 155 0 85.6 69.4 155 155 155 85.6 0 155-69.4 155-155 0-85.6-69.4-155-155-155m0 22.781c73.02 0 132.22 59.2 132.22 132.22 0 73.02-59.2 132.22-132.22 132.22-73.02 0-132.22-59.2-132.22-132.22 0-73.02 59.2-132.22 132.22-132.22"/><path d="m256.07 137.51c-12.182 0-23.994 1.837-35.05 5.252 8.565 2.788 16.812 6.072 24.814 9.847l13.26-14.967c-1.017-.025-1.997-.131-3.02-.131m14.705.919l-16.28 18.512c3.412 1.796 6.8 3.685 10.11 5.646 2.575-1.783 5.689-2.888 9.06-2.888 5.139 0 9.687 2.528 12.604 6.302 10.315-4.151 20.691-7.928 31.12-11.422-13.909-8.433-29.724-14.05-46.609-16.15m-63.808 9.716c-12.458 5.685-23.786 13.42-33.479 22.845 5.562 16.407 11.907 31.514 19.04 45.3 6.263-4.394 12.591-8.582 19.04-12.604-1.036-2.115-1.707-4.445-1.707-6.958 0-8.809 7.208-15.886 16.02-15.886.046 0 .086 0 .131 0 4.294-6.806 9.138-13.77 14.179-20.744-10.573-4.876-21.62-8.937-33.22-11.948m121.71 14.311c.021.793.104 1.607.131 2.232.169 3.915.253 7.29.394 9.716.071 1.213.206 2.197.263 2.888.029.346.115.748.131.919v.394.656c-.265 12.154-1.184 23.453-2.626 34.27 6.591 6.987 12.781 14.327 18.906 21.794 6.251-5.119 11.934-9.656 18.775-15.361 1.158-.966 2.256-1.921 3.414-2.888-7.589-21.841-21.491-40.702-39.39-54.617m-9.06 1.182c-10.07 3.384-20.12 7.02-30.07 11.03.017.317.131.597.131.919 0 1.246-.255 2.512-.525 3.676 10.338 7.913 20.21 16.603 29.541 25.864.875-8.294 1.504-16.876 1.707-25.996-.003-.035.002-.097 0-.131-.017-.244-.102-.581-.131-.919-.067-.819-.19-1.896-.263-3.151-.145-2.509-.223-5.907-.394-9.847-.017-.404.017-1.028 0-1.444m-71.16.656c-4.789 6.572-9.292 13.05-13.392 19.431 1.6 1.135 2.982 2.566 4.07 4.201 6.233-3.301 12.567-6.446 18.906-9.453-.166-.922-.263-1.919-.263-2.888 0-2.01.369-3.871 1.05-5.646-3.389-1.987-6.875-3.841-10.372-5.646m-81.926 14.05c-18.04 20.791-29.02 47.907-29.02 77.59 0 2.266.004 4.593.131 6.827 14.951-15.253 30.938-28.94 47.659-41.23-7-13.26-13.211-27.659-18.775-43.19m95.71 8.271c-6.886 3.261-13.73 6.76-20.482 10.372-.14 8.689-7.164 15.755-15.886 15.755-2.41 0-4.648-.619-6.696-1.575-4.89 9.589-8.996 19.19-12.604 28.884 14.704 22.383 32.11 41.01 52.25 56.718 10.11-5.172 20.388-11.187 30.985-18.25-.846-2.212-1.313-4.711-1.313-7.221 0-11.01 8.945-19.825 19.956-19.825.356 0 .699.113 1.05.131 3.332-10.909 5.907-22.492 7.746-34.792-10.296-10.674-21.282-20.617-32.823-29.541-2.842 2.62-6.596 4.333-10.766 4.333-4.511 0-8.521-1.979-11.422-4.989m-56.46 31.773c-2.943 1.962-5.897 3.864-8.797 5.908 1.172 2.092 2.334 4.138 3.545 6.171 1.619-4.052 3.42-8.05 5.252-12.08m119.34 7.09c-1.79 9.98-4.048 19.52-6.827 28.622.888.506 1.699 1.075 2.495 1.707 2.964-2.378 8.485-6.831 17.987-14.573-4.416-5.391-9.01-10.623-13.654-15.755m45.821 1.313c-.122.102-.272.161-.394.263-6.883 5.741-12.48 10.332-18.775 15.492 7.545 9.571 14.746 19.419 21.663 29.409.702-5.217 1.05-10.609 1.05-16.02 0-10.08-1.176-19.804-3.545-29.15m-181.18 2.888c-17.927 13.25-34.922 28.18-50.679 44.902 2.65 16.821 8.783 32.4 17.724 46.08 4.683-.062 9.305-.144 13.786-.394.056-6.984 4.606-12.865 10.897-14.967 3.108-22.763 7.925-43.73 15.1-64.07-2.36-3.703-4.604-7.658-6.827-11.554m154.79 18.775c-9.49 7.743-15 12.174-17.987 14.573 1.163 2.531 1.838 5.304 1.838 8.271 0 11.01-8.945 19.956-19.956 19.956-1.614 0-3.224-.163-4.726-.525-2.686 5.491-5.613 10.924-8.665 16.28 4.9 2.722 8.271 7.914 8.271 13.917 0 1.334-.217 2.569-.525 3.807 11.372 5.812 23.4 11.03 36.11 15.886 15.396-15.06 26.64-34.23 32.04-55.799-8.351-12.412-17.14-24.618-26.39-36.37m-141.66 1.969c-5.658 17.343-9.537 35.27-12.21 54.617 5.65 1.517 9.962 5.961 11.291 11.685 16.672-3.19 32.358-8.381 48.05-15.624-17.821-14.431-33.493-31.17-47.13-50.679m92.04 35.58c-9.549 6.331-18.872 12.06-28.1 16.937 3.14 2.249 6.317 4.438 9.584 6.565 2.5-2.413 5.671-3.96 9.322-4.333 3.588-6.125 6.772-12.363 9.847-18.643-.218-.186-.446-.33-.656-.525m-36.893 21.269c-18.531 8.935-36.924 15.15-56.718 18.775-2.178 5.675-7.448 9.697-13.786 10.11-.377 5.144-.635 10.519-.919 15.886 14.723 10.666 31.944 17.903 50.679 20.875l.525-.394c12.814-16.315 24.355-31.474 34.53-46.48-.559-1.626-.919-3.304-.919-5.12 0-1.354.208-2.683.525-3.939-4.773-3.119-9.398-6.34-13.917-9.716m-84.55 22.19c-3.251.221-6.632.28-9.978.394 4.278 5.347 9.05 10.305 14.179 14.836.213-3.643.381-7.225.656-10.766-1.921-1.167-3.581-2.621-4.858-4.464m124.86 3.02c-2.863 2.735-6.756 4.333-11.03 4.333-3.472 0-6.572-1-9.19-2.888-9 13.143-19.11 26.431-29.934 40.31 2.592.169 5.242.263 7.877.263 28.631 0 54.879-10.143 75.36-27.05-11.553-4.592-22.574-9.526-33.09-14.967"/></g></g></svg>