<?xml version="1.0" encoding="UTF-8" standalone="no"?>
<!-- Created with Inkscape (http://www.inkscape.org/) -->

<svg
   xmlns:dc="http://purl.org/dc/elements/1.1/"
   xmlns:cc="http://creativecommons.org/ns#"
   xmlns:rdf="http://www.w3.org/1999/02/22-rdf-syntax-ns#"
   xmlns:svg="http://www.w3.org/2000/svg"
   xmlns="http://www.w3.org/2000/svg"
   xmlns:sodipodi="http://sodipodi.sourceforge.net/DTD/sodipodi-0.dtd"
   xmlns:inkscape="http://www.inkscape.org/namespaces/inkscape"
   version="1.1"
   width="100%"
   height="100%"
   viewBox="0 0 512 512"
   id="svg2"
   inkscape:version="0.48.5 r10040"
   sodipodi:docname="4kvideodownloader.svg">
  <sodipodi:namedview
     pagecolor="#ffffff"
     bordercolor="#666666"
     borderopacity="1"
     objecttolerance="10"
     gridtolerance="10"
     guidetolerance="10"
     inkscape:pageopacity="0"
     inkscape:pageshadow="2"
     inkscape:window-width="1366"
     inkscape:window-height="709"
     id="namedview70"
     showgrid="false"
     inkscape:zoom="0.921875"
     inkscape:cx="256.19702"
     inkscape:cy="284.04654"
     inkscape:window-x="-2"
     inkscape:window-y="-3"
     inkscape:window-maximized="1"
     inkscape:current-layer="svg2" />
  <metadata
     id="metadata70">
    <rdf:RDF>
      <cc:Work
         rdf:about="">
        <dc:format>image/svg+xml</dc:format>
        <dc:type
           rdf:resource="http://purl.org/dc/dcmitype/StillImage" />
        <dc:title />
      </cc:Work>
    </rdf:RDF>
  </metadata>
  <defs
     id="defs68" />
  <path
     style="fill:#68ba37;fill-opacity:1;fill-rule:evenodd"
     id="path8"
     inkscape:connector-curvature="0"
     d="m 471.9456,253.05189 c 0,120.89699 -98.00565,218.90724 -218.90724,218.90724 -120.89698,0 -218.90723,-98.00566 -218.90723,-218.90724 0,-120.89698 98.00565,-218.907232 218.90723,-218.907232 120.89699,0 218.90724,98.005652 218.90724,218.907232" />
  <path
     style="opacity:0.25;fill:#000000;fill-opacity:1;stroke:none"
     d="m 271.46875,138.21186 c -36.59089,-0.14384 -50.01347,39.57273 -75.45127,53.88613 -29.73697,9.03869 -38.82642,43.71309 -73.57998,41.33951 -40.729255,21.68898 -42.61771,85.0642 -4.1875,110.15625 47.96768,42.64189 95.89901,85.38772 143.8125,128.15625 108.1937,-4.38685 196.13713,-87.273 208.40625,-193.25 -47.67115,-42.435 -95.41268,-84.80518 -143.28125,-127 -13.93241,-9.99804 -31.00368,-15.49119 -48.15625,-15.4375 -2.60438,-0.37809 -5.12311,2.15895 -7.5625,2.14936 z"
     id="path3090"
     inkscape:connector-curvature="0"
     sodipodi:nodetypes="scccccccs" />
  <path
     style="fill-opacity:0.06700003;fill-rule:evenodd"
     id="path10"
     inkscape:connector-curvature="0"
     d="M 256,1 C 115.17,1 1,115.17 1,256 1,396.83 115.17,511 256,511 396.83,511 511,396.83 511,256 511,115.17 396.83,1 256,1 m 8.827,44.931 c 120.9,0 218.9,98 218.9,218.9 0,120.9 -98,218.9 -218.9,218.9 -120.9,0 -218.93,-98 -218.93,-218.9 0,-120.9 98.03,-218.9 218.93,-218.9" />
  <path
     style="fill-opacity:0.12900002;fill-rule:evenodd"
     id="path14"
     inkscape:connector-curvature="0"
     d="M 256,4.43 C 117.06,4.43 4.43,117.06 4.43,256 4.43,394.94 117.06,507.57 256,507.57 394.94,507.57 507.57,394.94 507.57,256 507.57,117.06 394.94,4.43 256,4.43 m 5.885,38.556 c 120.9,0 218.9,98 218.9,218.9 0,120.9 -98,218.9 -218.9,218.9 -120.9,0 -218.93,-98 -218.93,-218.9 0,-120.9 98.03,-218.9 218.93,-218.9" />
  <path
     style="fill-opacity:0.12900002;fill-rule:evenodd"
     id="path16"
     inkscape:connector-curvature="0"
     d="M 256,8.36 C 119.23,8.36 8.36,119.23 8.36,256 8.36,392.77 119.23,503.64 256,503.64 392.77,503.64 503.64,392.77 503.64,256 503.64,119.23 392.77,8.36 256,8.36 m 2.942,31.691 c 120.9,0 218.9,98 218.9,218.9 0,120.9 -98,218.9 -218.9,218.9 -120.9,0 -218.93,-98 -218.93,-218.9 0,-120.9 98.03,-218.9 218.93,-218.9" />
  <path
     style="fill:#ffffff;fill-rule:evenodd;stroke:#000000;stroke-width:4.90399981;stroke-opacity:0.31000001"
     id="path18"
     inkscape:connector-curvature="0"
     d="M 253.04,7.86 C 117.62,7.86 7.85,117.64 7.85,253.05 c 0,135.42 109.78,245.19 245.19,245.19 135.42,0 245.19,-109.78 245.19,-245.19 C 498.23,117.63 388.45,7.86 253.04,7.86 z m 0,26.297 c 120.9,0 218.9,98 218.9,218.9 0,120.9 -98,218.9 -218.9,218.9 -120.9,0 -218.93,-98 -218.93,-218.9 0,-120.9 98.03,-218.9 218.93,-218.9 z" />
  <text
     style="font-size:129.22999573px;line-height:125%;letter-spacing:0;word-spacing:0;font-family:Gentium Book Basic"
     id="text20"
     y="231.35997"
     x="729.64001">
    <tspan
       id="tspan22"
       y="231.35997"
       x="729.64001" />
  </text>
  <text
     style="font-size:46.95375824px;text-anchor:middle;font-family:Arial"
     id="text24"
     transform="scale(4.0128205,0.24920128)"
     y="579.25812"
     x="378.90805" />
  <text
     style="font-size:129.22999573px;line-height:125%;letter-spacing:0;word-spacing:0;font-family:Gentium Book Basic"
     id="text26"
     y="151.35997"
     x="1310.91">
    <tspan
       id="tspan28"
       y="151.35997"
       x="1310.91" />
  </text>
  <text
     style="font-size:46.95375824px;text-anchor:middle;font-family:Arial"
     id="text30"
     transform="scale(4.0128205,0.24920128)"
     y="258.21997"
     x="523.75732" />
  <text
     style="font-size:129.22999573px;line-height:125%;letter-spacing:0;word-spacing:0;font-family:Gentium Book Basic"
     id="text32"
     y="-29.900009"
     x="239.33">
    <tspan
       id="tspan34"
       y="-29.900009"
       x="239.33" />
  </text>
  <text
     style="font-size:46.95375824px;text-anchor:middle;font-family:Arial"
     id="text36"
     transform="scale(4.0128205,0.24920128)"
     y="-469.1264"
     x="256.71869" />
  <text
     style="font-size:129.22999573px;line-height:125%;letter-spacing:0;word-spacing:0;font-family:Gentium Book Basic"
     id="text38"
     y="-246.37001"
     x="1337.38">
    <tspan
       id="tspan40"
       y="-246.37001"
       x="1337.38" />
  </text>
  <text
     style="font-size:46.95375824px;text-anchor:middle;font-family:Arial"
     id="text42"
     transform="scale(4.0128205,0.24920128)"
     y="-1337.802"
     x="530.3573" />
  <text
     style="font-size:129.22999573px;line-height:125%;letter-spacing:0;word-spacing:0;font-family:Gentium Book Basic"
     id="text44"
     y="-326.37"
     x="1918.65">
    <tspan
       id="tspan46"
       y="-326.37"
       x="1918.65" />
  </text>
  <text
     style="font-size:46.95375824px;text-anchor:middle;font-family:Arial"
     id="text48"
     transform="scale(4.0128205,0.24920128)"
     y="-1658.8303"
     x="675.20654" />
  <text
     style="font-size:129.22999573px;line-height:125%;letter-spacing:0;word-spacing:0;font-family:Gentium Book Basic"
     id="text50"
     y="-798.77002"
     x="1529.53">
    <tspan
       id="tspan52"
       y="-798.77002"
       x="1529.53" />
  </text>
  <text
     style="font-size:46.95375824px;text-anchor:middle;font-family:Arial"
     id="text54"
     transform="scale(4.0128205,0.24920128)"
     y="-3554.4807"
     x="578.237" />
  <text
     style="font-size:129.22999573px;line-height:125%;letter-spacing:0;word-spacing:0;font-family:Gentium Book Basic"
     id="text56"
     y="-878.78003"
     x="2110.79">
    <tspan
       id="tspan58"
       y="-878.78003"
       x="2110.79" />
  </text>
  <text
     style="font-size:46.95375824px;text-anchor:middle;font-family:Arial"
     id="text60"
     transform="scale(4.0128205,0.24920128)"
     y="-3875.519"
     x="723.0863" />
  <text
     style="font-size:208.33000183px;line-height:125%;letter-spacing:0;word-spacing:0;font-family:Gentium Book Basic"
     id="text62"
     y="535.94006"
     x="277.98999">
    <tspan
       id="tspan64"
       y="535.94006"
       x="277.98999" />
  </text>
  <path
     style="fill:#ffffff;fill-opacity:1;stroke:none"
     id="path510"
     inkscape:connector-curvature="0"
     d="m 279.01937,136.05685 c -33.16377,0 -62.745,19.5344 -76.02323,49.93633 -22.77307,2.91443 -42.08798,17.45115 -51.07787,38.7498 -34.22061,1.41826 -61.731722,30.17939 -61.731722,64.76047 0,35.7001 28.689582,64.74534 64.227842,64.74534 l 198.83224,0 c 35.5409,0 64.22784,-29.04524 64.22784,-64.74534 0,-32.59866 -23.54166,-59.68601 -55.38507,-64.07558 0.14417,-1.9645 0.22833,-3.96617 0.22833,-5.92056 -7e-5,-46.0798 -37.44158,-83.45046 -83.29836,-83.45046 z m -25.18886,77.92569 c 25.90251,0 46.75541,20.85291 46.75541,46.75542 0,25.9025 -20.8529,46.75542 -46.75541,46.75542 -25.90251,0 -46.75542,-20.85292 -46.75542,-46.75542 0,-25.90251 20.85291,-46.75542 46.75542,-46.75542 z m 0,9.34501 c -20.72201,0 -37.41041,16.68841 -37.41041,37.41041 0,20.722 16.6884,37.41041 37.41041,37.41041 20.722,0 37.41041,-16.68841 37.41041,-37.41041 0,-20.722 -16.68841,-37.41041 -37.41041,-37.41041 z m -10.91264,9.3602 21.82527,0 0,28.05021 15.58515,0 -13.25649,14.0327 -13.24129,14.01752 -13.24129,-14.01752 -13.25649,-14.0327 15.58514,0 0,-28.05021 z" />
</svg>
