<?xml version="1.0" encoding="UTF-8" standalone="no"?>
<!-- Created with Inkscape (http://www.inkscape.org/) -->

<svg
   xmlns:dc="http://purl.org/dc/elements/1.1/"
   xmlns:cc="http://creativecommons.org/ns#"
   xmlns:rdf="http://www.w3.org/1999/02/22-rdf-syntax-ns#"
   xmlns:svg="http://www.w3.org/2000/svg"
   xmlns="http://www.w3.org/2000/svg"
   xmlns:sodipodi="http://sodipodi.sourceforge.net/DTD/sodipodi-0.dtd"
   xmlns:inkscape="http://www.inkscape.org/namespaces/inkscape"
   version="1.1"
   width="100%"
   height="100%"
   viewBox="0 0 512 512"
   id="svg2"
   inkscape:version="0.48.5 r10040"
   sodipodi:docname="9gag.svg">
  <sodipodi:namedview
     pagecolor="#ffffff"
     bordercolor="#666666"
     borderopacity="1"
     objecttolerance="10"
     gridtolerance="10"
     guidetolerance="10"
     inkscape:pageopacity="0"
     inkscape:pageshadow="2"
     inkscape:window-width="1366"
     inkscape:window-height="709"
     id="namedview70"
     showgrid="false"
     inkscape:zoom="0.921875"
     inkscape:cx="367.50726"
     inkscape:cy="242.64322"
     inkscape:window-x="-2"
     inkscape:window-y="-3"
     inkscape:window-maximized="1"
     inkscape:current-layer="svg2" />
  <metadata
     id="metadata70">
    <rdf:RDF>
      <cc:Work
         rdf:about="">
        <dc:format>image/svg+xml</dc:format>
        <dc:type
           rdf:resource="http://purl.org/dc/dcmitype/StillImage" />
        <dc:title />
      </cc:Work>
    </rdf:RDF>
  </metadata>
  <defs
     id="defs68" />
  <text
     x="729.64001"
     y="231.35997"
     id="text20"
     style="font-size:129.22999573px;line-height:125%;letter-spacing:0;word-spacing:0;font-family:Gentium Book Basic">
    <tspan
       x="729.64001"
       y="231.35997"
       id="tspan22" />
  </text>
  <text
     x="378.90805"
     y="579.25812"
     transform="scale(4.0128205,0.24920128)"
     id="text24"
     style="font-size:46.95375824px;text-anchor:middle;font-family:Arial" />
  <text
     x="1310.91"
     y="151.35997"
     id="text26"
     style="font-size:129.22999573px;line-height:125%;letter-spacing:0;word-spacing:0;font-family:Gentium Book Basic">
    <tspan
       x="1310.91"
       y="151.35997"
       id="tspan28" />
  </text>
  <text
     x="523.75732"
     y="258.21997"
     transform="scale(4.0128205,0.24920128)"
     id="text30"
     style="font-size:46.95375824px;text-anchor:middle;font-family:Arial" />
  <text
     x="239.33"
     y="-29.900009"
     id="text32"
     style="font-size:129.22999573px;line-height:125%;letter-spacing:0;word-spacing:0;font-family:Gentium Book Basic">
    <tspan
       x="239.33"
       y="-29.900009"
       id="tspan34" />
  </text>
  <text
     x="256.71869"
     y="-469.1264"
     transform="scale(4.0128205,0.24920128)"
     id="text36"
     style="font-size:46.95375824px;text-anchor:middle;font-family:Arial" />
  <text
     x="1337.38"
     y="-246.37001"
     id="text38"
     style="font-size:129.22999573px;line-height:125%;letter-spacing:0;word-spacing:0;font-family:Gentium Book Basic">
    <tspan
       x="1337.38"
       y="-246.37001"
       id="tspan40" />
  </text>
  <text
     x="530.3573"
     y="-1337.802"
     transform="scale(4.0128205,0.24920128)"
     id="text42"
     style="font-size:46.95375824px;text-anchor:middle;font-family:Arial" />
  <text
     x="1918.65"
     y="-326.37"
     id="text44"
     style="font-size:129.22999573px;line-height:125%;letter-spacing:0;word-spacing:0;font-family:Gentium Book Basic">
    <tspan
       x="1918.65"
       y="-326.37"
       id="tspan46" />
  </text>
  <text
     x="675.20654"
     y="-1658.8303"
     transform="scale(4.0128205,0.24920128)"
     id="text48"
     style="font-size:46.95375824px;text-anchor:middle;font-family:Arial" />
  <text
     x="1529.53"
     y="-798.77002"
     id="text50"
     style="font-size:129.22999573px;line-height:125%;letter-spacing:0;word-spacing:0;font-family:Gentium Book Basic">
    <tspan
       x="1529.53"
       y="-798.77002"
       id="tspan52" />
  </text>
  <text
     x="578.237"
     y="-3554.4807"
     transform="scale(4.0128205,0.24920128)"
     id="text54"
     style="font-size:46.95375824px;text-anchor:middle;font-family:Arial" />
  <text
     x="2110.79"
     y="-878.78003"
     id="text56"
     style="font-size:129.22999573px;line-height:125%;letter-spacing:0;word-spacing:0;font-family:Gentium Book Basic">
    <tspan
       x="2110.79"
       y="-878.78003"
       id="tspan58" />
  </text>
  <text
     x="723.0863"
     y="-3875.519"
     transform="scale(4.0128205,0.24920128)"
     id="text60"
     style="font-size:46.95375824px;text-anchor:middle;font-family:Arial" />
  <text
     x="277.98999"
     y="535.94006"
     id="text62"
     style="font-size:208.33000183px;line-height:125%;letter-spacing:0;word-spacing:0;font-family:Gentium Book Basic">
    <tspan
       x="277.98999"
       y="535.94006"
       id="tspan64" />
  </text>
  <path
     style="fill:#707175;fill-opacity:1;fill-rule:evenodd"
     id="path8-9"
     inkscape:connector-curvature="0"
     d="m 471.9456,253.05189 c 0,120.89699 -98.00565,218.90724 -218.90724,218.90724 -120.89698,0 -218.90723,-98.00566 -218.90723,-218.90724 0,-120.89698 98.00565,-218.907232 218.90723,-218.907232 120.89699,0 218.90724,98.005652 218.90724,218.907232" />
  <path
     style="opacity:0.25;fill:#000000"
     d="m 256.21875,107.875 c -42.97452,24.65162 -85.91486,49.36276 -128.84375,74.09375 0.66939,16.49024 -0.80597,25.2107 5.24856,34.0677 5.88743,8.61257 14.36188,15.72238 21.09519,23.83855 11.7878,10.80745 22.49932,22.29508 32.53125,34.125 12.61722,10.77983 21.69945,23.6206 34.3125,34.40625 8.56743,11.47985 20.62495,20.89666 29.25,32.3125 -10.91316,0.44245 -54.77532,-40.4833 -77.9375,-36.5625 -19.23205,12.64002 -31.15843,19.35869 -44.78549,25.76589 45.73866,47.04028 96.78409,97.67651 136.12924,141.79661 109.51792,-5.01135 198.0239,-90.4848 207.8125,-198.6875 C 357.51403,150.94988 656.83021,472.87767 392.6875,189.875 c -17.53013,-17.20858 -45.54421,-28.3825 -68,-42.71875 C 301.86486,134.06322 279.03491,120.9774 256.21875,107.875 z"
     id="path4226"
     inkscape:connector-curvature="0"
     sodipodi:nodetypes="ccsccccccccccc" />
  <path
     style="fill-opacity:0.06700003;fill-rule:evenodd"
     id="path10-4"
     inkscape:connector-curvature="0"
     d="M 256,1 C 115.17,1 1,115.17 1,256 1,396.83 115.17,511 256,511 396.83,511 511,396.83 511,256 511,115.17 396.83,1 256,1 m 8.827,44.931 c 120.9,0 218.9,98 218.9,218.9 0,120.9 -98,218.9 -218.9,218.9 -120.9,0 -218.93,-98 -218.93,-218.9 0,-120.9 98.03,-218.9 218.93,-218.9" />
  <path
     style="fill-opacity:0.12900002;fill-rule:evenodd"
     id="path14-1"
     inkscape:connector-curvature="0"
     d="M 256,4.43 C 117.06,4.43 4.43,117.06 4.43,256 4.43,394.94 117.06,507.57 256,507.57 394.94,507.57 507.57,394.94 507.57,256 507.57,117.06 394.94,4.43 256,4.43 m 5.885,38.556 c 120.9,0 218.9,98 218.9,218.9 0,120.9 -98,218.9 -218.9,218.9 -120.9,0 -218.93,-98 -218.93,-218.9 0,-120.9 98.03,-218.9 218.93,-218.9" />
  <path
     style="fill-opacity:0.12900002;fill-rule:evenodd"
     id="path16-1"
     inkscape:connector-curvature="0"
     d="M 256,8.36 C 119.23,8.36 8.36,119.23 8.36,256 8.36,392.77 119.23,503.64 256,503.64 392.77,503.64 503.64,392.77 503.64,256 503.64,119.23 392.77,8.36 256,8.36 m 2.942,31.691 c 120.9,0 218.9,98 218.9,218.9 0,120.9 -98,218.9 -218.9,218.9 -120.9,0 -218.93,-98 -218.93,-218.9 0,-120.9 98.03,-218.9 218.93,-218.9" />
  <path
     style="fill:#ffffff;fill-rule:evenodd;stroke:#000000;stroke-width:4.90399981;stroke-opacity:0.31000001"
     id="path18-0"
     inkscape:connector-curvature="0"
     d="M 253.04,7.86 C 117.62,7.86 7.85,117.64 7.85,253.05 c 0,135.42 109.78,245.19 245.19,245.19 135.42,0 245.19,-109.78 245.19,-245.19 C 498.23,117.63 388.45,7.86 253.04,7.86 z m 0,26.297 c 120.9,0 218.9,98 218.9,218.9 0,120.9 -98,218.9 -218.9,218.9 -120.9,0 -218.93,-98 -218.93,-218.9 0,-120.9 98.03,-218.9 218.93,-218.9 z" />
  <text
     style="font-size:129.22999573px;line-height:125%;letter-spacing:0;word-spacing:0;font-family:Gentium Book Basic"
     id="text20-3"
     y="231.35997"
     x="729.64001"
     sodipodi:linespacing="125%">
    <tspan
       id="tspan22-6"
       y="231.35997"
       x="729.64001" />
  </text>
  <text
     style="font-size:46.95375824px;text-anchor:middle;font-family:Arial"
     id="text24-5"
     transform="scale(4.0128205,0.24920128)"
     y="579.25812"
     x="378.90805" />
  <text
     style="font-size:129.22999573px;line-height:125%;letter-spacing:0;word-spacing:0;font-family:Gentium Book Basic"
     id="text26-3"
     y="151.35997"
     x="1310.91"
     sodipodi:linespacing="125%">
    <tspan
       id="tspan28-9"
       y="151.35997"
       x="1310.91" />
  </text>
  <text
     style="font-size:46.95375824px;text-anchor:middle;font-family:Arial"
     id="text30-9"
     transform="scale(4.0128205,0.24920128)"
     y="258.21997"
     x="523.75732" />
  <text
     style="font-size:129.22999573px;line-height:125%;letter-spacing:0;word-spacing:0;font-family:Gentium Book Basic"
     id="text32-8"
     y="-29.900009"
     x="239.33"
     sodipodi:linespacing="125%">
    <tspan
       id="tspan34-1"
       y="-29.900009"
       x="239.33" />
  </text>
  <text
     style="font-size:46.95375824px;text-anchor:middle;font-family:Arial"
     id="text36-3"
     transform="scale(4.0128205,0.24920128)"
     y="-469.1264"
     x="256.71869" />
  <text
     style="font-size:129.22999573px;line-height:125%;letter-spacing:0;word-spacing:0;font-family:Gentium Book Basic"
     id="text38-5"
     y="-246.37001"
     x="1337.38"
     sodipodi:linespacing="125%">
    <tspan
       id="tspan40-7"
       y="-246.37001"
       x="1337.38" />
  </text>
  <text
     style="font-size:46.95375824px;text-anchor:middle;font-family:Arial"
     id="text42-3"
     transform="scale(4.0128205,0.24920128)"
     y="-1337.802"
     x="530.3573" />
  <text
     style="font-size:129.22999573px;line-height:125%;letter-spacing:0;word-spacing:0;font-family:Gentium Book Basic"
     id="text44-6"
     y="-326.37"
     x="1918.65"
     sodipodi:linespacing="125%">
    <tspan
       id="tspan46-4"
       y="-326.37"
       x="1918.65" />
  </text>
  <text
     style="font-size:46.95375824px;text-anchor:middle;font-family:Arial"
     id="text48-2"
     transform="scale(4.0128205,0.24920128)"
     y="-1658.8303"
     x="675.20654" />
  <text
     style="font-size:129.22999573px;line-height:125%;letter-spacing:0;word-spacing:0;font-family:Gentium Book Basic"
     id="text50-4"
     y="-798.77002"
     x="1529.53"
     sodipodi:linespacing="125%">
    <tspan
       id="tspan52-0"
       y="-798.77002"
       x="1529.53" />
  </text>
  <text
     style="font-size:46.95375824px;text-anchor:middle;font-family:Arial"
     id="text54-6"
     transform="scale(4.0128205,0.24920128)"
     y="-3554.4807"
     x="578.237" />
  <text
     style="font-size:129.22999573px;line-height:125%;letter-spacing:0;word-spacing:0;font-family:Gentium Book Basic"
     id="text56-5"
     y="-878.78003"
     x="2110.79"
     sodipodi:linespacing="125%">
    <tspan
       id="tspan58-3"
       y="-878.78003"
       x="2110.79" />
  </text>
  <text
     style="font-size:46.95375824px;text-anchor:middle;font-family:Arial"
     id="text60-8"
     transform="scale(4.0128205,0.24920128)"
     y="-3875.519"
     x="723.0863" />
  <text
     style="font-size:208.33000183px;line-height:125%;letter-spacing:0;word-spacing:0;font-family:Gentium Book Basic"
     id="text62-4"
     y="535.94006"
     x="277.98999"
     sodipodi:linespacing="125%">
    <tspan
       id="tspan64-1"
       y="535.94006"
       x="277.98999" />
  </text>
  <path
     style="fill:#ffffff"
     id="path3086"
     inkscape:connector-curvature="0"
     d="m 127.3598,181.9568 c 42.94637,-24.74106 85.89276,-49.44421 128.85808,-74.09055 42.94637,24.66528 85.94959,49.25478 128.83913,74.01477 -0.0569,49.46317 -0.0758,98.92633 0.0189,148.3895 -42.87061,24.79789 -85.93065,49.21689 -128.87703,73.86322 -43.06004,-24.85472 -86.34741,-49.31161 -129.27485,-74.37471 17.12551,-9.75624 34.23208,-19.53142 51.39547,-29.23082 25.95348,14.96588 51.98274,29.83703 77.87938,44.89762 25.83982,-15.17426 52.02063,-29.76125 77.76572,-45.08706 -0.22733,-19.79664 -0.0189,-39.57432 -0.11366,-59.37095 -25.85876,15.00376 -51.75541,29.96964 -77.65206,44.91657 -42.98427,-24.4569 -85.83592,-49.16006 -128.82019,-73.65484 0,-10.09723 0.0189,-20.19447 -0.0189,-30.27275 m 76.30702,14.85222 c 17.42861,10.22983 35.04666,20.19445 52.53211,30.34852 17.59911,-10.09724 35.17929,-20.21341 52.81628,-30.29169 -17.63699,-10.02146 -35.19823,-20.19447 -52.81628,-30.25381 -17.52333,10.0404 -34.97089,20.23235 -52.53211,30.19698 z" />
</svg>
