<?xml version="1.0" encoding="UTF-8" standalone="no"?>
<!-- Created with Inkscape (http://www.inkscape.org/) -->

<svg
   xmlns:dc="http://purl.org/dc/elements/1.1/"
   xmlns:cc="http://creativecommons.org/ns#"
   xmlns:rdf="http://www.w3.org/1999/02/22-rdf-syntax-ns#"
   xmlns:svg="http://www.w3.org/2000/svg"
   xmlns="http://www.w3.org/2000/svg"
   xmlns:sodipodi="http://sodipodi.sourceforge.net/DTD/sodipodi-0.dtd"
   xmlns:inkscape="http://www.inkscape.org/namespaces/inkscape"
   version="1.1"
   width="100%"
   height="100%"
   viewBox="0 0 512 512"
   id="svg2"
   inkscape:version="0.48.5 r10040"
   sodipodi:docname="agave.svg">
  <sodipodi:namedview
     pagecolor="#ffffff"
     bordercolor="#666666"
     borderopacity="1"
     objecttolerance="10"
     gridtolerance="10"
     guidetolerance="10"
     inkscape:pageopacity="0"
     inkscape:pageshadow="2"
     inkscape:window-width="1366"
     inkscape:window-height="709"
     id="namedview70"
     showgrid="false"
     inkscape:zoom="0.65186406"
     inkscape:cx="313.53431"
     inkscape:cy="214.14396"
     inkscape:window-x="-2"
     inkscape:window-y="-3"
     inkscape:window-maximized="1"
     inkscape:current-layer="svg2" />
  <metadata
     id="metadata70">
    <rdf:RDF>
      <cc:Work
         rdf:about="">
        <dc:format>image/svg+xml</dc:format>
        <dc:type
           rdf:resource="http://purl.org/dc/dcmitype/StillImage" />
        <dc:title />
      </cc:Work>
    </rdf:RDF>
  </metadata>
  <defs
     id="defs68">
    <style
       type="text/css"
       id="style2464" />
    <style
       type="text/css"
       id="style2464-7" />
    <clipPath
       id="clipPath4603">
      <path
         style="fill:#73b547;fill-opacity:1;fill-rule:evenodd"
         id="path4605"
         inkscape:connector-curvature="0"
         d="m 471.9456,253.05189 c 0,120.89699 -98.00565,218.90724 -218.90724,218.90724 -120.89698,0 -218.90723,-98.00566 -218.90723,-218.90724 0,-120.89698 98.00565,-218.907232 218.90723,-218.907232 120.89699,0 218.90724,98.005652 218.90724,218.907232" />
    </clipPath>
    <mask
       id="XMLID_23_">
      <g
         style="filter:url(#Adobe_OpacityMaskFilter)"
         id="g31">
        <radialGradient
           gradientUnits="userSpaceOnUse"
           id="XMLID_24_"
           fy="-20.899401"
           fx="88.977501"
           r="673.11609"
           cy="-20.899401"
           cx="88.977501">
          <stop
             offset="0.30899999"
             style="stop-color:#ffffff;stop-opacity:1"
             id="stop34" />
          <stop
             offset="1"
             style="stop-color:#000000;stop-opacity:1"
             id="stop3816" />
        </radialGradient>
        <ellipse
           style="fill:url(#XMLID_24_)"
           id="ellipse38"
           ry="349.10599"
           rx="512.93402"
           cy="286.172"
           cx="295.89499" />
      </g>
    </mask>
  </defs>
  <text
     x="729.64001"
     y="231.35997"
     id="text20"
     style="font-size:129.22999573px;line-height:125%;letter-spacing:0;word-spacing:0;font-family:Gentium Book Basic">
    <tspan
       x="729.64001"
       y="231.35997"
       id="tspan22" />
  </text>
  <text
     x="378.90805"
     y="579.25812"
     transform="scale(4.0128205,0.24920128)"
     id="text24"
     style="font-size:46.95375824px;text-anchor:middle;font-family:Arial" />
  <text
     x="1310.91"
     y="151.35997"
     id="text26"
     style="font-size:129.22999573px;line-height:125%;letter-spacing:0;word-spacing:0;font-family:Gentium Book Basic">
    <tspan
       x="1310.91"
       y="151.35997"
       id="tspan28" />
  </text>
  <text
     x="523.75732"
     y="258.21997"
     transform="scale(4.0128205,0.24920128)"
     id="text30"
     style="font-size:46.95375824px;text-anchor:middle;font-family:Arial" />
  <text
     x="239.33"
     y="-29.900009"
     id="text32"
     style="font-size:129.22999573px;line-height:125%;letter-spacing:0;word-spacing:0;font-family:Gentium Book Basic">
    <tspan
       x="239.33"
       y="-29.900009"
       id="tspan34" />
  </text>
  <text
     x="256.71869"
     y="-469.1264"
     transform="scale(4.0128205,0.24920128)"
     id="text36"
     style="font-size:46.95375824px;text-anchor:middle;font-family:Arial" />
  <text
     x="1337.38"
     y="-246.37001"
     id="text38"
     style="font-size:129.22999573px;line-height:125%;letter-spacing:0;word-spacing:0;font-family:Gentium Book Basic">
    <tspan
       x="1337.38"
       y="-246.37001"
       id="tspan40" />
  </text>
  <text
     x="530.3573"
     y="-1337.802"
     transform="scale(4.0128205,0.24920128)"
     id="text42"
     style="font-size:46.95375824px;text-anchor:middle;font-family:Arial" />
  <text
     x="1918.65"
     y="-326.37"
     id="text44"
     style="font-size:129.22999573px;line-height:125%;letter-spacing:0;word-spacing:0;font-family:Gentium Book Basic">
    <tspan
       x="1918.65"
       y="-326.37"
       id="tspan46" />
  </text>
  <text
     x="675.20654"
     y="-1658.8303"
     transform="scale(4.0128205,0.24920128)"
     id="text48"
     style="font-size:46.95375824px;text-anchor:middle;font-family:Arial" />
  <text
     x="1529.53"
     y="-798.77002"
     id="text50"
     style="font-size:129.22999573px;line-height:125%;letter-spacing:0;word-spacing:0;font-family:Gentium Book Basic">
    <tspan
       x="1529.53"
       y="-798.77002"
       id="tspan52" />
  </text>
  <text
     x="578.237"
     y="-3554.4807"
     transform="scale(4.0128205,0.24920128)"
     id="text54"
     style="font-size:46.95375824px;text-anchor:middle;font-family:Arial" />
  <text
     x="2110.79"
     y="-878.78003"
     id="text56"
     style="font-size:129.22999573px;line-height:125%;letter-spacing:0;word-spacing:0;font-family:Gentium Book Basic">
    <tspan
       x="2110.79"
       y="-878.78003"
       id="tspan58" />
  </text>
  <text
     x="723.0863"
     y="-3875.519"
     transform="scale(4.0128205,0.24920128)"
     id="text60"
     style="font-size:46.95375824px;text-anchor:middle;font-family:Arial" />
  <text
     x="277.98999"
     y="535.94006"
     id="text62"
     style="font-size:208.33000183px;line-height:125%;letter-spacing:0;word-spacing:0;font-family:Gentium Book Basic">
    <tspan
       x="277.98999"
       y="535.94006"
       id="tspan64" />
  </text>
  <text
     style="font-size:129.22999573px;line-height:125%;letter-spacing:0;word-spacing:0;font-family:Gentium Book Basic"
     id="text20-3"
     y="231.35997"
     x="729.64001"
     sodipodi:linespacing="125%">
    <tspan
       id="tspan22-6"
       y="231.35997"
       x="729.64001" />
  </text>
  <text
     style="font-size:46.95375824px;text-anchor:middle;font-family:Arial"
     id="text24-5"
     transform="scale(4.0128205,0.24920128)"
     y="579.25812"
     x="378.90805" />
  <text
     style="font-size:129.22999573px;line-height:125%;letter-spacing:0;word-spacing:0;font-family:Gentium Book Basic"
     id="text26-3"
     y="151.35997"
     x="1310.91"
     sodipodi:linespacing="125%">
    <tspan
       id="tspan28-9"
       y="151.35997"
       x="1310.91" />
  </text>
  <text
     style="font-size:46.95375824px;text-anchor:middle;font-family:Arial"
     id="text30-9"
     transform="scale(4.0128205,0.24920128)"
     y="258.21997"
     x="523.75732" />
  <text
     style="font-size:129.22999573px;line-height:125%;letter-spacing:0;word-spacing:0;font-family:Gentium Book Basic"
     id="text32-8"
     y="-29.900009"
     x="239.33"
     sodipodi:linespacing="125%">
    <tspan
       id="tspan34-1"
       y="-29.900009"
       x="239.33" />
  </text>
  <text
     style="font-size:46.95375824px;text-anchor:middle;font-family:Arial"
     id="text36-3"
     transform="scale(4.0128205,0.24920128)"
     y="-469.1264"
     x="256.71869" />
  <text
     style="font-size:129.22999573px;line-height:125%;letter-spacing:0;word-spacing:0;font-family:Gentium Book Basic"
     id="text38-5"
     y="-246.37001"
     x="1337.38"
     sodipodi:linespacing="125%">
    <tspan
       id="tspan40-7"
       y="-246.37001"
       x="1337.38" />
  </text>
  <text
     style="font-size:46.95375824px;text-anchor:middle;font-family:Arial"
     id="text42-3"
     transform="scale(4.0128205,0.24920128)"
     y="-1337.802"
     x="530.3573" />
  <text
     style="font-size:129.22999573px;line-height:125%;letter-spacing:0;word-spacing:0;font-family:Gentium Book Basic"
     id="text44-6"
     y="-326.37"
     x="1918.65"
     sodipodi:linespacing="125%">
    <tspan
       id="tspan46-4"
       y="-326.37"
       x="1918.65" />
  </text>
  <text
     style="font-size:46.95375824px;text-anchor:middle;font-family:Arial"
     id="text48-2"
     transform="scale(4.0128205,0.24920128)"
     y="-1658.8303"
     x="675.20654" />
  <text
     style="font-size:129.22999573px;line-height:125%;letter-spacing:0;word-spacing:0;font-family:Gentium Book Basic"
     id="text50-4"
     y="-798.77002"
     x="1529.53"
     sodipodi:linespacing="125%">
    <tspan
       id="tspan52-0"
       y="-798.77002"
       x="1529.53" />
  </text>
  <text
     style="font-size:46.95375824px;text-anchor:middle;font-family:Arial"
     id="text54-6"
     transform="scale(4.0128205,0.24920128)"
     y="-3554.4807"
     x="578.237" />
  <text
     style="font-size:129.22999573px;line-height:125%;letter-spacing:0;word-spacing:0;font-family:Gentium Book Basic"
     id="text56-5"
     y="-878.78003"
     x="2110.79"
     sodipodi:linespacing="125%">
    <tspan
       id="tspan58-3"
       y="-878.78003"
       x="2110.79" />
  </text>
  <text
     style="font-size:46.95375824px;text-anchor:middle;font-family:Arial"
     id="text60-8"
     transform="scale(4.0128205,0.24920128)"
     y="-3875.519"
     x="723.0863" />
  <text
     style="font-size:208.33000183px;line-height:125%;letter-spacing:0;word-spacing:0;font-family:Gentium Book Basic"
     id="text62-4"
     y="535.94006"
     x="277.98999"
     sodipodi:linespacing="125%">
    <tspan
       id="tspan64-1"
       y="535.94006"
       x="277.98999" />
  </text>
  <text
     sodipodi:linespacing="125%"
     x="729.64001"
     y="231.35997"
     id="text20-8"
     style="font-size:129.22999573px;line-height:125%;letter-spacing:0;word-spacing:0;font-family:Gentium Book Basic">
    <tspan
       x="729.64001"
       y="231.35997"
       id="tspan22-7" />
  </text>
  <text
     x="378.90805"
     y="579.25812"
     transform="scale(4.0128205,0.24920128)"
     id="text24-2"
     style="font-size:46.95375824px;text-anchor:middle;font-family:Arial" />
  <text
     sodipodi:linespacing="125%"
     x="1310.91"
     y="151.35997"
     id="text26-0"
     style="font-size:129.22999573px;line-height:125%;letter-spacing:0;word-spacing:0;font-family:Gentium Book Basic">
    <tspan
       x="1310.91"
       y="151.35997"
       id="tspan28-7" />
  </text>
  <text
     x="523.75732"
     y="258.21997"
     transform="scale(4.0128205,0.24920128)"
     id="text30-5"
     style="font-size:46.95375824px;text-anchor:middle;font-family:Arial" />
  <text
     sodipodi:linespacing="125%"
     x="239.33"
     y="-29.900009"
     id="text32-84"
     style="font-size:129.22999573px;line-height:125%;letter-spacing:0;word-spacing:0;font-family:Gentium Book Basic">
    <tspan
       x="239.33"
       y="-29.900009"
       id="tspan34-9" />
  </text>
  <text
     x="256.71869"
     y="-469.1264"
     transform="scale(4.0128205,0.24920128)"
     id="text36-0"
     style="font-size:46.95375824px;text-anchor:middle;font-family:Arial" />
  <text
     sodipodi:linespacing="125%"
     x="1337.38"
     y="-246.37001"
     id="text38-4"
     style="font-size:129.22999573px;line-height:125%;letter-spacing:0;word-spacing:0;font-family:Gentium Book Basic">
    <tspan
       x="1337.38"
       y="-246.37001"
       id="tspan40-9" />
  </text>
  <text
     x="530.3573"
     y="-1337.802"
     transform="scale(4.0128205,0.24920128)"
     id="text42-1"
     style="font-size:46.95375824px;text-anchor:middle;font-family:Arial" />
  <text
     sodipodi:linespacing="125%"
     x="1918.65"
     y="-326.37"
     id="text44-7"
     style="font-size:129.22999573px;line-height:125%;letter-spacing:0;word-spacing:0;font-family:Gentium Book Basic">
    <tspan
       x="1918.65"
       y="-326.37"
       id="tspan46-40" />
  </text>
  <text
     x="675.20654"
     y="-1658.8303"
     transform="scale(4.0128205,0.24920128)"
     id="text48-0"
     style="font-size:46.95375824px;text-anchor:middle;font-family:Arial" />
  <text
     sodipodi:linespacing="125%"
     x="1529.53"
     y="-798.77002"
     id="text50-3"
     style="font-size:129.22999573px;line-height:125%;letter-spacing:0;word-spacing:0;font-family:Gentium Book Basic">
    <tspan
       x="1529.53"
       y="-798.77002"
       id="tspan52-4" />
  </text>
  <text
     x="578.237"
     y="-3554.4807"
     transform="scale(4.0128205,0.24920128)"
     id="text54-4"
     style="font-size:46.95375824px;text-anchor:middle;font-family:Arial" />
  <text
     sodipodi:linespacing="125%"
     x="2110.79"
     y="-878.78003"
     id="text56-9"
     style="font-size:129.22999573px;line-height:125%;letter-spacing:0;word-spacing:0;font-family:Gentium Book Basic">
    <tspan
       x="2110.79"
       y="-878.78003"
       id="tspan58-5" />
  </text>
  <text
     x="723.0863"
     y="-3875.519"
     transform="scale(4.0128205,0.24920128)"
     id="text60-2"
     style="font-size:46.95375824px;text-anchor:middle;font-family:Arial" />
  <text
     sodipodi:linespacing="125%"
     x="277.98999"
     y="535.94006"
     id="text62-48"
     style="font-size:208.33000183px;line-height:125%;letter-spacing:0;word-spacing:0;font-family:Gentium Book Basic">
    <tspan
       x="277.98999"
       y="535.94006"
       id="tspan64-10" />
  </text>
  <text
     style="font-size:129.22999573px;line-height:125%;letter-spacing:0;word-spacing:0;font-family:Gentium Book Basic"
     id="text20-2"
     y="231.35997"
     x="729.64001"
     sodipodi:linespacing="125%">
    <tspan
       id="tspan22-0"
       y="231.35997"
       x="729.64001" />
  </text>
  <text
     style="font-size:46.95375824px;text-anchor:middle;font-family:Arial"
     id="text24-1"
     transform="scale(4.0128205,0.24920128)"
     y="579.25812"
     x="378.90805" />
  <text
     style="font-size:129.22999573px;line-height:125%;letter-spacing:0;word-spacing:0;font-family:Gentium Book Basic"
     id="text26-6"
     y="151.35997"
     x="1310.91"
     sodipodi:linespacing="125%">
    <tspan
       id="tspan28-1"
       y="151.35997"
       x="1310.91" />
  </text>
  <text
     style="font-size:46.95375824px;text-anchor:middle;font-family:Arial"
     id="text30-1"
     transform="scale(4.0128205,0.24920128)"
     y="258.21997"
     x="523.75732" />
  <text
     style="font-size:129.22999573px;line-height:125%;letter-spacing:0;word-spacing:0;font-family:Gentium Book Basic"
     id="text32-0"
     y="-29.900009"
     x="239.33"
     sodipodi:linespacing="125%">
    <tspan
       id="tspan34-0"
       y="-29.900009"
       x="239.33" />
  </text>
  <text
     style="font-size:46.95375824px;text-anchor:middle;font-family:Arial"
     id="text36-4"
     transform="scale(4.0128205,0.24920128)"
     y="-469.1264"
     x="256.71869" />
  <text
     style="font-size:129.22999573px;line-height:125%;letter-spacing:0;word-spacing:0;font-family:Gentium Book Basic"
     id="text38-0"
     y="-246.37001"
     x="1337.38"
     sodipodi:linespacing="125%">
    <tspan
       id="tspan40-74"
       y="-246.37001"
       x="1337.38" />
  </text>
  <text
     style="font-size:46.95375824px;text-anchor:middle;font-family:Arial"
     id="text42-2"
     transform="scale(4.0128205,0.24920128)"
     y="-1337.802"
     x="530.3573" />
  <text
     style="font-size:129.22999573px;line-height:125%;letter-spacing:0;word-spacing:0;font-family:Gentium Book Basic"
     id="text44-2"
     y="-326.37"
     x="1918.65"
     sodipodi:linespacing="125%">
    <tspan
       id="tspan46-8"
       y="-326.37"
       x="1918.65" />
  </text>
  <text
     style="font-size:46.95375824px;text-anchor:middle;font-family:Arial"
     id="text48-7"
     transform="scale(4.0128205,0.24920128)"
     y="-1658.8303"
     x="675.20654" />
  <text
     style="font-size:129.22999573px;line-height:125%;letter-spacing:0;word-spacing:0;font-family:Gentium Book Basic"
     id="text50-33"
     y="-798.77002"
     x="1529.53"
     sodipodi:linespacing="125%">
    <tspan
       id="tspan52-9"
       y="-798.77002"
       x="1529.53" />
  </text>
  <text
     style="font-size:46.95375824px;text-anchor:middle;font-family:Arial"
     id="text54-7"
     transform="scale(4.0128205,0.24920128)"
     y="-3554.4807"
     x="578.237" />
  <text
     style="font-size:129.22999573px;line-height:125%;letter-spacing:0;word-spacing:0;font-family:Gentium Book Basic"
     id="text56-2"
     y="-878.78003"
     x="2110.79"
     sodipodi:linespacing="125%">
    <tspan
       id="tspan58-2"
       y="-878.78003"
       x="2110.79" />
  </text>
  <text
     style="font-size:46.95375824px;text-anchor:middle;font-family:Arial"
     id="text60-9"
     transform="scale(4.0128205,0.24920128)"
     y="-3875.519"
     x="723.0863" />
  <text
     style="font-size:208.33000183px;line-height:125%;letter-spacing:0;word-spacing:0;font-family:Gentium Book Basic"
     id="text62-5"
     y="535.94006"
     x="277.98999"
     sodipodi:linespacing="125%">
    <tspan
       id="tspan64-4"
       y="535.94006"
       x="277.98999" />
  </text>
  <path
     d="m 471.9456,253.05189 c 0,120.89699 -98.00565,218.90724 -218.90724,218.90724 -120.89698,0 -218.90723,-98.00566 -218.90723,-218.90724 0,-120.89698 98.00565,-218.907232 218.90723,-218.907232 120.89699,0 218.90724,98.005652 218.90724,218.907232"
     inkscape:connector-curvature="0"
     id="path8"
     style="fill:#73b547;fill-opacity:1;fill-rule:evenodd" />
  <path
     style="opacity:0.25;fill:#000000;fill-opacity:1;fill-rule:nonzero;stroke:none"
     d="M 256.21875 97.125 C 247.51261 157.96929 237.82338 218.79441 234.25 280.21875 C 204.20187 250.82564 173.91654 221.6666 143.78125 192.34375 C 155.05527 246.61144 161.51872 303.28937 188.125 352.84375 C 163.81256 322.57072 123.55909 316.04906 88.6875 303.96875 C 91.101693 317.40906 133.66301 351.67647 152.71875 371.90625 C 187.19297 405.18838 221.60201 438.53775 256 471.90625 C 375.53251 470.31677 471.9375 372.96794 471.9375 253.0625 C 471.9375 252.14405 471.91753 251.22828 471.90625 250.3125 C 452.50512 231.36944 433.18258 213.06211 416.75 196.6875 C 398.67222 203.98433 402.04583 230.48428 372.8125 212.09375 C 332.28395 172.81655 293.33134 133.81972 256.21875 97.125 z "
     id="path9071" />
  <path
     d="M 256,1 C 115.17,1 1,115.17 1,256 1,396.83 115.17,511 256,511 396.83,511 511,396.83 511,256 511,115.17 396.83,1 256,1 m 8.827,44.931 c 120.9,0 218.9,98 218.9,218.9 0,120.9 -98,218.9 -218.9,218.9 -120.9,0 -218.93,-98 -218.93,-218.9 0,-120.9 98.03,-218.9 218.93,-218.9"
     inkscape:connector-curvature="0"
     id="path10"
     style="fill-opacity:0.06700003;fill-rule:evenodd" />
  <path
     d="M 256,4.43 C 117.06,4.43 4.43,117.06 4.43,256 4.43,394.94 117.06,507.57 256,507.57 394.94,507.57 507.57,394.94 507.57,256 507.57,117.06 394.94,4.43 256,4.43 m 5.885,38.556 c 120.9,0 218.9,98 218.9,218.9 0,120.9 -98,218.9 -218.9,218.9 -120.9,0 -218.93,-98 -218.93,-218.9 0,-120.9 98.03,-218.9 218.93,-218.9"
     inkscape:connector-curvature="0"
     id="path14"
     style="fill-opacity:0.12900002;fill-rule:evenodd" />
  <path
     d="M 256,8.36 C 119.23,8.36 8.36,119.23 8.36,256 8.36,392.77 119.23,503.64 256,503.64 392.77,503.64 503.64,392.77 503.64,256 503.64,119.23 392.77,8.36 256,8.36 m 2.942,31.691 c 120.9,0 218.9,98 218.9,218.9 0,120.9 -98,218.9 -218.9,218.9 -120.9,0 -218.93,-98 -218.93,-218.9 0,-120.9 98.03,-218.9 218.93,-218.9"
     inkscape:connector-curvature="0"
     id="path16"
     style="fill-opacity:0.12900002;fill-rule:evenodd" />
  <path
     d="M 253.04,7.86 C 117.62,7.86 7.85,117.64 7.85,253.05 c 0,135.42 109.78,245.19 245.19,245.19 135.42,0 245.19,-109.78 245.19,-245.19 C 498.23,117.63 388.45,7.86 253.04,7.86 z m 0,26.297 c 120.9,0 218.9,98 218.9,218.9 0,120.9 -98,218.9 -218.9,218.9 -120.9,0 -218.93,-98 -218.93,-218.9 0,-120.9 98.03,-218.9 218.93,-218.9 z"
     inkscape:connector-curvature="0"
     id="path18"
     style="fill:#ffffff;fill-rule:evenodd;stroke:#000000;stroke-width:4.90399981;stroke-opacity:0.31000001" />
  <text
     sodipodi:linespacing="125%"
     x="729.64001"
     y="231.35997"
     id="text20-6"
     style="font-size:129.22999573px;line-height:125%;letter-spacing:0;word-spacing:0;font-family:Gentium Book Basic">
    <tspan
       x="729.64001"
       y="231.35997"
       id="tspan22-3" />
  </text>
  <text
     x="378.90805"
     y="579.25812"
     transform="scale(4.0128205,0.24920128)"
     id="text24-9"
     style="font-size:46.95375824px;text-anchor:middle;font-family:Arial" />
  <text
     sodipodi:linespacing="125%"
     x="1310.91"
     y="151.35997"
     id="text26-8"
     style="font-size:129.22999573px;line-height:125%;letter-spacing:0;word-spacing:0;font-family:Gentium Book Basic">
    <tspan
       x="1310.91"
       y="151.35997"
       id="tspan28-3" />
  </text>
  <text
     x="523.75732"
     y="258.21997"
     transform="scale(4.0128205,0.24920128)"
     id="text30-2"
     style="font-size:46.95375824px;text-anchor:middle;font-family:Arial" />
  <text
     sodipodi:linespacing="125%"
     x="239.33"
     y="-29.900009"
     id="text32-7"
     style="font-size:129.22999573px;line-height:125%;letter-spacing:0;word-spacing:0;font-family:Gentium Book Basic">
    <tspan
       x="239.33"
       y="-29.900009"
       id="tspan34-5" />
  </text>
  <text
     x="256.71869"
     y="-469.1264"
     transform="scale(4.0128205,0.24920128)"
     id="text36-39"
     style="font-size:46.95375824px;text-anchor:middle;font-family:Arial" />
  <text
     sodipodi:linespacing="125%"
     x="1337.38"
     y="-246.37001"
     id="text38-7"
     style="font-size:129.22999573px;line-height:125%;letter-spacing:0;word-spacing:0;font-family:Gentium Book Basic">
    <tspan
       x="1337.38"
       y="-246.37001"
       id="tspan40-99" />
  </text>
  <text
     x="530.3573"
     y="-1337.802"
     transform="scale(4.0128205,0.24920128)"
     id="text42-4"
     style="font-size:46.95375824px;text-anchor:middle;font-family:Arial" />
  <text
     sodipodi:linespacing="125%"
     x="1918.65"
     y="-326.37"
     id="text44-3"
     style="font-size:129.22999573px;line-height:125%;letter-spacing:0;word-spacing:0;font-family:Gentium Book Basic">
    <tspan
       x="1918.65"
       y="-326.37"
       id="tspan46-46" />
  </text>
  <text
     x="675.20654"
     y="-1658.8303"
     transform="scale(4.0128205,0.24920128)"
     id="text48-21"
     style="font-size:46.95375824px;text-anchor:middle;font-family:Arial" />
  <text
     sodipodi:linespacing="125%"
     x="1529.53"
     y="-798.77002"
     id="text50-1"
     style="font-size:129.22999573px;line-height:125%;letter-spacing:0;word-spacing:0;font-family:Gentium Book Basic">
    <tspan
       x="1529.53"
       y="-798.77002"
       id="tspan52-7" />
  </text>
  <text
     x="578.237"
     y="-3554.4807"
     transform="scale(4.0128205,0.24920128)"
     id="text54-2"
     style="font-size:46.95375824px;text-anchor:middle;font-family:Arial" />
  <text
     sodipodi:linespacing="125%"
     x="2110.79"
     y="-878.78003"
     id="text56-8"
     style="font-size:129.22999573px;line-height:125%;letter-spacing:0;word-spacing:0;font-family:Gentium Book Basic">
    <tspan
       x="2110.79"
       y="-878.78003"
       id="tspan58-9" />
  </text>
  <text
     x="723.0863"
     y="-3875.519"
     transform="scale(4.0128205,0.24920128)"
     id="text60-7"
     style="font-size:46.95375824px;text-anchor:middle;font-family:Arial" />
  <text
     sodipodi:linespacing="125%"
     x="277.98999"
     y="535.94006"
     id="text62-9"
     style="font-size:208.33000183px;line-height:125%;letter-spacing:0;word-spacing:0;font-family:Gentium Book Basic">
    <tspan
       x="277.98999"
       y="535.94006"
       id="tspan64-7" />
  </text>
  <path
     d="m 256.21875,97.125724 c -5.66178,37.502476 -19.54418,132.623906 -21.8125,179.218746 -0.51573,10.59393 -0.0591,21.12699 1.0625,31.25 1.30408,9.82459 0.99381,10.68204 5.53125,31.21875 3.79678,15.88867 8.43459,29.26619 11.96875,38.40625 0.88876,-2.65839 1.89652,-5.6763 3.03125,-9 5.3946,-15.99421 2.51604,-7.48841 6.625,-18.96875 8.24073,-23.1474 18.06787,-49.03384 25.75,-61.96875 2.13871,-3.60109 4.56521,-7.36754 7.1875,-11.21875 C 295.28859,211.5724 268.45399,130.77267 256.21875,97.125724 z M 143.75,192.28197 c 2.13334,12.18431 5.20399,28.85415 9.09375,47.5625 5.91129,28.43119 13.67089,60.83773 22.15625,85.84375 10.97254,23.63113 21.00729,52.29937 56.09375,62.90625 4.85772,1.41573 10.75144,2.32066 16.625,2.875 l 0,-0.53125 c -4.05225,-11.66155 -0.46144,-0.68867 -4.6875,-12.84375 -5.84651,-15.76084 -13.48546,-40.17757 -16.78125,-67.4375 -4.02261,-7.51229 -7.59162,-14.02391 -10.25,-18.5 -6.80987,-11.46623 -28.05168,-40.74088 -47.3125,-66.6875 -13.07948,-17.61962 -18.41983,-24.58643 -24.9375,-33.1875 z m 273.15625,4.21875 c -14.78667,3.59518 -38.46481,10.5124 -54.5,22.15625 -20.29663,14.73828 -42.32774,39.10736 -57.28125,60.40625 -6.43378,10.31666 -0.18565,0.48459 -10.34375,16.40625 -6.53968,12.40986 -15.66238,36.03824 -23.125,57 -1.9661,5.52257 -3.67156,10.45122 -5.25,15.03125 -3.22232,16.74659 8.01835,8.35495 18.3125,-2.21875 7.65682,-8.71845 15.47183,-16.96946 21.5625,-21.09375 9.92617,-6.72148 22.06993,-13.13944 34.96875,-19.09375 5.75792,-17.46032 11.38003,-37.6402 30.4375,-69.75 6.39816,-10.78022 19.82535,-27.92596 31.8125,-42.71875 7.15135,-8.82516 9.23483,-11.17282 13.40625,-16.125 z m -333.625,105.75 c 7.88401,8.90411 18.76961,20.78379 33.09375,34.65625 24.60425,23.82841 55.45985,48.23677 75.5,51.6875 7.13937,1.22933 13.8583,2.05805 20.15625,2.625 -19.19033,-9.9791 -30.86788,-25.50102 -38.21875,-41.90625 -2.26314,-5.05074 -4.48185,-10.67719 -6.625,-16.71875 -11.47156,-5.39049 -24.24881,-10.50722 -36.71875,-15.03125 -19.36479,-7.02545 -35.38212,-11.8985 -47.1875,-15.3125 z m 345.4375,0.375 c -9.0709,2.8238 -21.16343,6.70744 -34.75,11.5625 -14.34618,5.1265 -30.12122,11.25185 -44.90625,17.90625 -7.84894,3.29846 -2.27498,0.73313 -12.4375,5.875 -9.28768,4.58918 -17.8576,9.34095 -24.96875,14.15625 -5.20711,3.52598 -16.70416,15.80503 -26.0625,26.78125 -4.09027,4.7974 -6.39322,7.63337 -8.375,10.125 0.0833,0.16674 0.20565,0.41114 0.28125,0.5625 14.05976,2.38817 11.52778,2.61378 23.09375,1.9375 5.73412,-0.69755 12.25282,-1.63041 19.84375,-2.9375 20.04015,-3.45073 50.89575,-27.85909 75.5,-51.6875 14.01043,-13.56864 24.8765,-25.37499 32.78125,-34.28125 z"
     inkscape:connector-curvature="0"
     id="path2276"
     style="fill:#ffffff;fill-opacity:1;fill-rule:nonzero;stroke:none" />
</svg>
