<svg xmlns="http://www.w3.org/2000/svg" xmlns:xlink="http://www.w3.org/1999/xlink" viewBox="0 0 512 512"><g fill-rule="evenodd"><path fill="#f38725" d="m471.95 253.05c0 120.9-98.01 218.9-218.9 218.9-120.9 0-218.9-98.01-218.9-218.9 0-120.9 98.01-218.9 218.9-218.9 120.9 0 218.9 98.01 218.9 218.9"/><g><path fill-opacity=".067" d="m256 541.36c-140.83 0-255 114.17-255 255s114.17 255 255 255 255-114.17 255-255-114.17-255-255-255m8.827 44.931c120.9 0 218.9 98 218.9 218.9s-98 218.9-218.9 218.9-218.93-98-218.93-218.9 98.03-218.9 218.93-218.9" transform="translate(0-540.36)"/><g fill-opacity=".129"><path d="m256 544.79c-138.94 0-251.57 112.63-251.57 251.57s112.63 251.57 251.57 251.57 251.57-112.63 251.57-251.57-112.63-251.57-251.57-251.57m5.885 38.556c120.9 0 218.9 98 218.9 218.9s-98 218.9-218.9 218.9-218.93-98-218.93-218.9 98.03-218.9 218.93-218.9" transform="translate(0-540.36)"/><path d="m256 548.72c-136.77 0-247.64 110.87-247.64 247.64s110.87 247.64 247.64 247.64 247.64-110.87 247.64-247.64-110.87-247.64-247.64-247.64m2.942 31.691c120.9 0 218.9 98 218.9 218.9s-98 218.9-218.9 218.9-218.93-98-218.93-218.9 98.03-218.9 218.93-218.9" transform="translate(0-540.36)"/></g><path fill="#fff" stroke="#000" stroke-opacity=".31" stroke-width="4.904" d="m253.04 548.22c-135.42 0-245.19 109.78-245.19 245.19 0 135.42 109.78 245.19 245.19 245.19 135.42 0 245.19-109.78 245.19-245.19 0-135.42-109.78-245.19-245.19-245.19zm0 26.297c120.9 0 218.9 98 218.9 218.9s-98 218.9-218.9 218.9-218.93-98-218.93-218.9 98.03-218.9 218.93-218.9z" transform="translate(0-540.36)"/></g></g><path d="m244.48 117.77c-5.759 0-11.52 3.688-11.52 11.52 0 17.638-3.986 26.954-10.619 31.496-3.248 1.149-6.273 2.678-9.359 4.141-0.097 0.046-0.262-0.047-0.359 0-7.937 1.641-17.237-2.118-29.875-14.756l-0.002-0.004c-5.538-5.538-12.306-4.073-16.379 0l-8.1 8.1-8.1 8.098c-4.073 4.073-5.538 10.84 0 16.379 12.64 12.64 16.401 21.94 14.76 29.877-0.024 0.118 0.027 0.243 0 0.361-1.463 3.086-2.991 6.111-4.141 9.359-4.543 6.633-13.858 10.619-31.496 10.619-7.832 0-11.52 5.758-11.52 11.518v23.04c0 3.095 1.066 6.191 3.268 8.393l40.02 40.02c-2.434 4.01-5.989 8.413-10.895 13.318-5.538 5.538-4.073 12.306 0 16.379l125.19 125.19c103.07-10.436 185.03-92.38 195.46-195.46l-125.2-125.19c-4.073-4.073-10.839-5.538-16.377 0-4.905 4.905-9.304 8.459-13.318 10.893l-40.02-40.02c-2.201-2.201-5.297-3.266-8.393-3.266h-23.038" opacity=".25"/><path fill="#fff" d="m244.48 117.77c-5.759 0-11.519 3.687-11.519 11.519 0 17.638-3.986 26.955-10.619 31.497-3.248 1.149-6.273 2.677-9.359 4.14-0.097 0.046-0.263-0.047-0.36 0-7.938 1.641-17.237-2.118-29.877-14.759-5.538-5.538-12.306-4.073-16.379 0l-8.099 8.099-8.099 8.099c-4.073 4.073-5.538 10.84 0 16.379 12.64 12.64 16.4 21.94 14.759 29.877-0.024 0.118 0.027 0.242 0 0.36-1.463 3.086-2.99 6.111-4.14 9.359-4.543 6.633-13.859 10.619-31.497 10.619-7.832 0-11.519 5.759-11.519 11.519v23.038c0 5.759 3.687 11.519 11.519 11.519 17.638 0 26.955 3.986 31.497 10.619 1.149 3.248 2.677 6.273 4.14 9.359 0.046 0.097-0.047 0.263 0 0.36 1.641 7.938-2.118 17.237-14.759 29.877-5.538 5.538-4.073 12.306 0 16.379l8.099 8.099 8.099 8.099c4.073 4.073 10.84 5.538 16.379 0 12.64-12.64 21.94-16.4 29.877-14.759 0.118 0.024 0.242-0.027 0.36 0 3.086 1.463 6.111 2.99 9.359 4.14 6.633 4.543 10.619 13.859 10.619 31.497 0 7.832 5.76 11.519 11.519 11.519h23.038c5.759 0 11.519-3.687 11.519-11.519 0-17.638 3.986-26.955 10.619-31.497 3.248-1.149 6.273-2.677 9.359-4.14 0.097-0.046 0.263 0.047 0.36 0 7.938-1.641 17.237 2.118 29.877 14.759 5.538 5.538 12.306 4.073 16.378 0l8.099-8.099 8.099-8.099c4.073-4.073 5.538-10.84 0-16.379-12.64-12.64-16.4-21.94-14.759-29.877 0.024-0.118-0.027-0.242 0-0.36 1.463-3.086 2.99-6.111 4.14-9.359 4.543-6.633 13.859-10.619 31.497-10.619 7.832 0 11.519-5.759 11.519-11.519v-23.038c0-5.759-3.687-11.519-11.519-11.519-17.638 0-26.955-3.986-31.497-10.619-1.149-3.248-2.677-6.273-4.14-9.359-0.027-0.118 0.024-0.242 0-0.36-1.641-7.938 2.118-17.237 14.759-29.877 5.538-5.538 4.073-12.306 0-16.379l-8.099-8.099-8.099-8.099c-4.073-4.073-10.84-5.538-16.378 0-12.64 12.64-21.94 16.4-29.877 14.759-0.097-0.047-0.263 0.046-0.36 0-3.086-1.463-6.111-2.99-9.359-4.14-6.633-4.543-10.619-13.859-10.619-31.497 0-7.832-5.759-11.519-11.519-11.519h-23.038m11.519 80.63c31.809 0 57.59 25.786 57.59 57.59 0 31.809-25.786 57.59-57.59 57.59-31.809 0-57.59-25.786-57.59-57.59 0-31.809 25.786-57.59 57.59-57.59"/></svg>