<svg xmlns="http://www.w3.org/2000/svg" viewBox="0 0 512 512"><text line-height="125%" x="729.64" y="231.36" style="letter-spacing:0;word-spacing:0;font-size:129.23;font-family:Gentium Book Basic"><tspan x="729.64" y="231.36"/></text><text x="378.91" y="579.26" transform="scale(4.0128.2492)" style="font-size:46.954;font-family:Arial;text-anchor:middle"/><text line-height="125%" x="1310.91" y="151.36" style="letter-spacing:0;word-spacing:0;font-size:129.23;font-family:Gentium Book Basic"><tspan x="1310.91" y="151.36"/></text><text x="523.76" y="258.22" transform="scale(4.0128.2492)" style="font-size:46.954;font-family:Arial;text-anchor:middle"/><text line-height="125%" x="239.33" y="-29.9" style="letter-spacing:0;word-spacing:0;font-size:129.23;font-family:Gentium Book Basic"><tspan x="239.33" y="-29.9"/></text><text x="256.72" y="-469.13" transform="scale(4.0128.2492)" style="font-size:46.954;font-family:Arial;text-anchor:middle"/><text line-height="125%" x="1337.38" y="-246.37" style="letter-spacing:0;word-spacing:0;font-size:129.23;font-family:Gentium Book Basic"><tspan x="1337.38" y="-246.37"/></text><text x="530.36" y="-1337.8" transform="scale(4.0128.2492)" style="font-size:46.954;font-family:Arial;text-anchor:middle"/><text line-height="125%" x="1918.65" y="-326.37" style="letter-spacing:0;word-spacing:0;font-size:129.23;font-family:Gentium Book Basic"><tspan x="1918.65" y="-326.37"/></text><text x="675.21" y="-1658.83" transform="scale(4.0128.2492)" style="font-size:46.954;font-family:Arial;text-anchor:middle"/><text line-height="125%" x="1529.53" y="-798.77" style="letter-spacing:0;word-spacing:0;font-size:129.23;font-family:Gentium Book Basic"><tspan x="1529.53" y="-798.77"/></text><text x="578.24" y="-3554.48" transform="scale(4.0128.2492)" style="font-size:46.954;font-family:Arial;text-anchor:middle"/><text line-height="125%" x="2110.79" y="-878.78" style="letter-spacing:0;word-spacing:0;font-size:129.23;font-family:Gentium Book Basic"><tspan x="2110.79" y="-878.78"/></text><text x="723.09" y="-3875.52" transform="scale(4.0128.2492)" style="font-size:46.954;font-family:Arial;text-anchor:middle"/><g line-height="125%" style="letter-spacing:0;word-spacing:0"><text x="277.99" y="535.94" style="font-size:208.33;font-family:Gentium Book Basic"><tspan x="277.99" y="535.94"/></text><text x="729.64" y="231.36" style="font-size:129.23;font-family:&apos;Gentium Book Basic&apos;"><tspan x="729.64" y="231.36"/></text></g><text x="378.91" y="579.26" transform="scale(4.0128.2492)" style="font-size:46.954;font-family:Arial;text-anchor:middle"/><text x="1310.91" y="151.36" line-height="125%" style="letter-spacing:0;word-spacing:0;font-size:129.23;font-family:&apos;Gentium Book Basic&apos;"><tspan x="1310.91" y="151.36"/></text><text x="523.76" y="258.22" transform="scale(4.0128.2492)" style="font-size:46.954;font-family:Arial;text-anchor:middle"/><text x="239.33" y="-29.9" line-height="125%" style="letter-spacing:0;word-spacing:0;font-size:129.23;font-family:&apos;Gentium Book Basic&apos;"><tspan x="239.33" y="-29.9"/></text><text x="256.72" y="-469.13" transform="scale(4.0128.2492)" style="font-size:46.954;font-family:Arial;text-anchor:middle"/><text x="1337.38" y="-246.37" line-height="125%" style="letter-spacing:0;word-spacing:0;font-size:129.23;font-family:&apos;Gentium Book Basic&apos;"><tspan x="1337.38" y="-246.37"/></text><text x="530.36" y="-1337.8" transform="scale(4.0128.2492)" style="font-size:46.954;font-family:Arial;text-anchor:middle"/><text x="1918.65" y="-326.37" line-height="125%" style="letter-spacing:0;word-spacing:0;font-size:129.23;font-family:&apos;Gentium Book Basic&apos;"><tspan x="1918.65" y="-326.37"/></text><text x="675.21" y="-1658.83" transform="scale(4.0128.2492)" style="font-size:46.954;font-family:Arial;text-anchor:middle"/><text x="1529.53" y="-798.77" line-height="125%" style="letter-spacing:0;word-spacing:0;font-size:129.23;font-family:&apos;Gentium Book Basic&apos;"><tspan x="1529.53" y="-798.77"/></text><text x="578.24" y="-3554.48" transform="scale(4.0128.2492)" style="font-size:46.954;font-family:Arial;text-anchor:middle"/><text x="2110.79" y="-878.78" line-height="125%" style="letter-spacing:0;word-spacing:0;font-size:129.23;font-family:&apos;Gentium Book Basic&apos;"><tspan x="2110.79" y="-878.78"/></text><text x="723.09" y="-3875.52" transform="scale(4.0128.2492)" style="font-size:46.954;font-family:Arial;text-anchor:middle"/><text x="277.99" y="535.94" line-height="125%" style="letter-spacing:0;word-spacing:0;font-size:208.33;font-family:&apos;Gentium Book Basic&apos;"><tspan x="277.99" y="535.94"/></text><g style="fill-rule:evenodd"><path d="m471.95 253.05c0 120.9-98.01 218.91-218.91 218.91-120.9 0-218.91-98.01-218.91-218.91 0-120.9 98.01-218.91 218.91-218.91 120.9 0 218.91 98.01 218.91 218.91" style="fill:#ef6a47"/><path d="m130.22 71.844c-57.98 39.38-96.09 105.85-96.09 181.22 0 75.37 38.11 141.81 96.09 181.19v-362.41m251.56 4.156v354.09c54.637-39.803 90.16-104.26 90.16-177.03 0-72.77-35.519-137.26-90.16-177.06" style="fill:#282629"/><path d="m81.41 117.19c-9.698 12.234-18.1 25.534-25.03 39.688.021 0 .042 0 .063 0h22.75c6.754 0 12.188-5.538 12.188-12.406v-15.09c0-6.097-4.282-11.131-9.969-12.188m344.72 1.844c-3.315 2.215-5.531 6-5.531 10.344v15.09c0 6.868 5.465 12.406 12.219 12.406h16.906c-6.587-13.444-14.504-26.12-23.594-37.844m-369.69 72.844c-6.754 0-12.25 5.507-12.25 12.375v15.09c0 6.868 5.496 12.406 12.25 12.406h22.75c6.754 0 12.188-5.538 12.188-12.406v-15.09c0-6.868-5.434-12.375-12.188-12.375h-22.75zm376.38 0c-6.754 0-12.219 5.507-12.219 12.375v15.09c0 6.868 5.465 12.406 12.219 12.406h22.781c6.754 0 12.188-5.538 12.188-12.406v-8.938c-.99-5.01-2.143-9.962-3.469-14.844-2.207-2.273-5.31-3.688-8.719-3.688h-22.781m-376.37 74.875c-6.754 0-12.25 5.538-12.25 12.406v15.09c0 6.868 5.496 12.375 12.25 12.375h22.75c6.754 0 12.188-5.507 12.188-12.375v-15.09c0-6.868-5.434-12.406-12.188-12.406h-22.75m376.38 0c-6.754 0-12.219 5.538-12.219 12.406v15.09c0 6.868 5.465 12.375 12.219 12.375h22.781c5.909 0 10.836-4.22 11.969-9.875.162-.808.219-1.642.219-2.5v-15.09c0-6.868-5.434-12.406-12.188-12.406h-22.781m-376.37 74.875c-1.178 0-2.329.185-3.406.5 6.232 13.973 13.891 27.16 22.781 39.41h3.375c6.754 0 12.188-5.538 12.188-12.406v-15.09c0-6.868-5.434-12.406-12.188-12.406h-22.75m376.38 0c-6.754 0-12.219 5.538-12.219 12.406v15.09c0 6.04 4.259 11.04 9.875 12.156 8.912-12.31 16.555-25.604 22.781-39.656h-20.438" style="fill:#b7b7b7;color:#000"/><path d="m256 1c-140.83 0-255 114.17-255 255 0 140.83 114.17 255 255 255 140.83 0 255-114.17 255-255 0-140.83-114.17-255-255-255m8.827 44.931c120.9 0 218.9 98 218.9 218.9 0 120.9-98 218.9-218.9 218.9-120.9 0-218.93-98-218.93-218.9 0-120.9 98.03-218.9 218.93-218.9" style="fill-opacity:.067"/><g style="fill-opacity:.129"><path d="m256 4.43c-138.94 0-251.57 112.63-251.57 251.57 0 138.94 112.63 251.57 251.57 251.57 138.94 0 251.57-112.63 251.57-251.57 0-138.94-112.63-251.57-251.57-251.57m5.885 38.556c120.9 0 218.9 98 218.9 218.9 0 120.9-98 218.9-218.9 218.9-120.9 0-218.93-98-218.93-218.9 0-120.9 98.03-218.9 218.93-218.9"/><path d="m256 8.36c-136.77 0-247.64 110.87-247.64 247.64 0 136.77 110.87 247.64 247.64 247.64 136.77 0 247.64-110.87 247.64-247.64 0-136.77-110.87-247.64-247.64-247.64m2.942 31.691c120.9 0 218.9 98 218.9 218.9 0 120.9-98 218.9-218.9 218.9-120.9 0-218.93-98-218.93-218.9 0-120.9 98.03-218.9 218.93-218.9"/></g><path d="m253.04 7.86c-135.42 0-245.19 109.78-245.19 245.19 0 135.42 109.78 245.19 245.19 245.19 135.42 0 245.19-109.78 245.19-245.19 0-135.42-109.78-245.19-245.19-245.19m0 26.297c120.9 0 218.9 98 218.9 218.9 0 120.9-98 218.9-218.9 218.9-120.9 0-218.93-98-218.93-218.9 0-120.9 98.03-218.9 218.93-218.9z" style="stroke-opacity:.31;fill:#fff;stroke:#000;stroke-width:4.904"/></g><text x="729.64" y="231.36" line-height="125%" style="letter-spacing:0;word-spacing:0;font-size:129.23;font-family:&apos;Gentium Book Basic&apos;"><tspan x="729.64" y="231.36"/></text><text x="378.91" y="579.26" transform="scale(4.0128.2492)" style="font-size:46.954;font-family:Arial;text-anchor:middle"/><text x="1310.91" y="151.36" line-height="125%" style="letter-spacing:0;word-spacing:0;font-size:129.23;font-family:&apos;Gentium Book Basic&apos;"><tspan x="1310.91" y="151.36"/></text><text x="523.76" y="258.22" transform="scale(4.0128.2492)" style="font-size:46.954;font-family:Arial;text-anchor:middle"/><text x="239.33" y="-29.9" line-height="125%" style="letter-spacing:0;word-spacing:0;font-size:129.23;font-family:&apos;Gentium Book Basic&apos;"><tspan x="239.33" y="-29.9"/></text><text x="256.72" y="-469.13" transform="scale(4.0128.2492)" style="font-size:46.954;font-family:Arial;text-anchor:middle"/><text x="1337.38" y="-246.37" line-height="125%" style="letter-spacing:0;word-spacing:0;font-size:129.23;font-family:&apos;Gentium Book Basic&apos;"><tspan x="1337.38" y="-246.37"/></text><text x="530.36" y="-1337.8" transform="scale(4.0128.2492)" style="font-size:46.954;font-family:Arial;text-anchor:middle"/><text x="1918.65" y="-326.37" line-height="125%" style="letter-spacing:0;word-spacing:0;font-size:129.23;font-family:&apos;Gentium Book Basic&apos;"><tspan x="1918.65" y="-326.37"/></text><text x="675.21" y="-1658.83" transform="scale(4.0128.2492)" style="font-size:46.954;font-family:Arial;text-anchor:middle"/><text x="1529.53" y="-798.77" line-height="125%" style="letter-spacing:0;word-spacing:0;font-size:129.23;font-family:&apos;Gentium Book Basic&apos;"><tspan x="1529.53" y="-798.77"/></text><text x="578.24" y="-3554.48" transform="scale(4.0128.2492)" style="font-size:46.954;font-family:Arial;text-anchor:middle"/><text x="2110.79" y="-878.78" line-height="125%" style="letter-spacing:0;word-spacing:0;font-size:129.23;font-family:&apos;Gentium Book Basic&apos;"><tspan x="2110.79" y="-878.78"/></text><text x="723.09" y="-3875.52" transform="scale(4.0128.2492)" style="font-size:46.954;font-family:Arial;text-anchor:middle"/><text x="277.99" y="535.94" line-height="125%" style="letter-spacing:0;word-spacing:0;font-size:208.33;font-family:&apos;Gentium Book Basic&apos;"><tspan x="277.99" y="535.94"/></text><rect width="311.41" height="35.28" x="100.29" y="238.36" rx="17.642" style="fill:#282629;color:#000;fill-rule:evenodd"/><text x="968.53" y="-503.34" line-height="125%" style="letter-spacing:0;word-spacing:0;font-size:129.23;font-family:&apos;Gentium Book Basic&apos;"><tspan x="968.53" y="-503.34"/></text><text x="438.44" y="-2368.97" transform="scale(4.0128.2492)" style="font-size:46.954;font-family:Arial;text-anchor:middle"/><text x="1549.8" y="-583.34" line-height="125%" style="letter-spacing:0;word-spacing:0;font-size:129.23;font-family:&apos;Gentium Book Basic&apos;"><tspan x="1549.8" y="-583.34"/></text><text x="583.29" y="-2690.01" transform="scale(4.0128.2492)" style="font-size:46.954;font-family:Arial;text-anchor:middle"/><text x="478.22" y="-764.6" line-height="125%" style="letter-spacing:0;word-spacing:0;font-size:129.23;font-family:&apos;Gentium Book Basic&apos;"><tspan x="478.22" y="-764.6"/></text><text x="316.25" y="-3417.36" transform="scale(4.0128.2492)" style="font-size:46.954;font-family:Arial;text-anchor:middle"/><text x="1576.27" y="-981.07" line-height="125%" style="letter-spacing:0;word-spacing:0;font-size:129.23;font-family:&apos;Gentium Book Basic&apos;"><tspan x="1576.27" y="-981.07"/></text><text x="589.89" y="-4286.02" transform="scale(4.0128.2492)" style="font-size:46.954;font-family:Arial;text-anchor:middle"/><text x="2157.54" y="-1061.07" line-height="125%" style="letter-spacing:0;word-spacing:0;font-size:129.23;font-family:&apos;Gentium Book Basic&apos;"><tspan x="2157.54" y="-1061.07"/></text><text x="734.74" y="-4607.05" transform="scale(4.0128.2492)" style="font-size:46.954;font-family:Arial;text-anchor:middle"/><text x="1768.42" y="-1533.47" line-height="125%" style="letter-spacing:0;word-spacing:0;font-size:129.23;font-family:&apos;Gentium Book Basic&apos;"><tspan x="1768.42" y="-1533.47"/></text><text x="637.77" y="-6502.69" transform="scale(4.0128.2492)" style="font-size:46.954;font-family:Arial;text-anchor:middle"/><text x="2349.68" y="-1613.48" line-height="125%" style="letter-spacing:0;word-spacing:0;font-size:129.23;font-family:&apos;Gentium Book Basic&apos;"><tspan x="2349.68" y="-1613.48"/></text><text x="782.62" y="-6823.73" transform="scale(4.0128.2492)" style="font-size:46.954;font-family:Arial;text-anchor:middle"/><text x="516.88" y="-198.76" line-height="125%" style="letter-spacing:0;word-spacing:0;font-size:208.33;font-family:&apos;Gentium Book Basic&apos;"><tspan x="516.88" y="-198.76"/></text><g style="color:#000"><path d="m223.48 138.75l-112.22 36.873 31.11 31.11c-1.332 6.196-2.029 12.605-2.029 19.273 0 25.565 10.365 48.743 27.13 65.51l165.42 165.42c56.672-22.21 101.82-67.37 124.03-124.05l-112.39-112.39c-16.687-16.687-39.714-27.02-65.17-27.02-.379 0-.753.022-1.131.027l-54.754-54.754" style="opacity:.25"/><path d="m288.52 373.25l112.22-36.873-34.35-19.696c3.437-9.671 5.27-19.84 5.27-30.69 0-51.02-41.27-92.52-92.3-92.52-9.981 0-19.623 1.881-28.627 4.809 37.02 12.04 63.893 46.676 63.893 87.71 0 .266.002.419 0 .685l-50.15-28.855 24.05 115.43m-55.884-54.735c9.981 0 19.623-1.881 28.627-4.81-37.02-12.04-63.893-46.676-63.893-87.71 0-.266-.002-.419 0-.685l50.15 28.855-24.05-115.42-112.22 36.873 34.35 19.695c-3.437 9.67-5.27 19.84-5.27 30.69 0 51.02 41.27 92.52 92.3 92.52" style="fill:#fff"/></g></svg>