<svg xmlns="http://www.w3.org/2000/svg" id="svg2" width="100%" height="100%" version="1.1" viewBox="0 0 512 512"><metadata id="metadata70"/><defs id="defs68"><style id="style2464" type="text/css"/><style id="style2464-7" type="text/css"/><style id="style2464-7-7" type="text/css"/><style id="style2464-4" type="text/css"/></defs><path id="path8" fill="#d23638" fill-rule="evenodd" d="m471.95 255.22c0 120.9-98.006 218.91-218.91 218.91s-218.91-98.006-218.91-218.91 98.006-218.91 218.91-218.91 218.91 98.006 218.91 218.91"/><path id="path45833" d="m255.97 96.188l-136.88 79.032c9.25 5.29 9.03 10.56 17.6 15.84-1.56 2.47 18.7 16.71 5.72 9.63-8.18-2.07-25.61-20.14-27.97-12.13v152.85c107.54 111.57 114.51 119.79 126.78 132.4 3.91 0.21 7.84 0.31 11.81 0.31 119.46 0 216.55-95.68 218.85-214.59-12.95-13.78-34.85-37.24-78.69-84.25-10.35-3.38-13.23-7.84-24.38-13.94l-112.84-65.152z" opacity=".25"/><path id="path10" fill-opacity=".067" fill-rule="evenodd" d="m256 3.1695c-140.83 0-255 114.17-255 255s114.17 255 255 255 255-114.17 255-255-114.17-255-255-255m8.827 44.931c120.9 0 218.9 98 218.9 218.9s-98 218.9-218.9 218.9-218.93-98-218.93-218.9 98.03-218.9 218.93-218.9"/><path id="path14" fill-opacity=".129" fill-rule="evenodd" d="m256 6.5995c-138.94 0-251.57 112.63-251.57 251.57s112.63 251.57 251.57 251.57 251.57-112.63 251.57-251.57-112.63-251.57-251.57-251.57m5.885 38.556c120.9 0 218.9 98 218.9 218.9s-98 218.9-218.9 218.9-218.93-98-218.93-218.9 98.03-218.9 218.93-218.9"/><path id="path16" fill-opacity=".129" fill-rule="evenodd" d="m256 10.529c-136.77 0-247.64 110.87-247.64 247.64s110.87 247.64 247.64 247.64 247.64-110.87 247.64-247.64-110.87-247.64-247.64-247.64m2.942 31.691c120.9 0 218.9 98 218.9 218.9s-98 218.9-218.9 218.9-218.93-98-218.93-218.9 98.03-218.9 218.93-218.9"/><path id="path18" fill="#fff" fill-rule="evenodd" stroke="#000" stroke-opacity=".31" stroke-width="4.904" d="m253.04 10.029c-135.42 0-245.19 109.78-245.19 245.19 0 135.42 109.78 245.19 245.19 245.19 135.42 0 245.19-109.78 245.19-245.19 0-135.42-109.78-245.19-245.19-245.19zm0 26.297c120.9 0 218.9 98 218.9 218.9s-98 218.9-218.9 218.9-218.93-98-218.93-218.9 98.03-218.9 218.93-218.9z"/><path id="path4045" fill="#fff" d="m255.98 96.198-136.9 79.032 137.22 79.2 136.9-79.03-137.22-79.202zm-141.55 88.339v156.86l136.37 78.747v-156.86l-136.37-78.747zm283.14 0.35265-136.37 78.711v156.54l136.37-78.747v-156.51z"/></svg>