<svg xmlns="http://www.w3.org/2000/svg" viewBox="0 0 512 512"><text line-height="125%" x="729.64" y="231.36" style="letter-spacing:0;word-spacing:0;font-size:129.23;font-family:Gentium Book Basic"><tspan x="729.64" y="231.36"/></text><text x="378.91" y="579.26" transform="scale(4.0128.2492)" style="font-size:46.954;font-family:Arial;text-anchor:middle"/><text line-height="125%" x="1310.91" y="151.36" style="letter-spacing:0;word-spacing:0;font-size:129.23;font-family:Gentium Book Basic"><tspan x="1310.91" y="151.36"/></text><text x="523.76" y="258.22" transform="scale(4.0128.2492)" style="font-size:46.954;font-family:Arial;text-anchor:middle"/><text line-height="125%" x="239.33" y="-29.9" style="letter-spacing:0;word-spacing:0;font-size:129.23;font-family:Gentium Book Basic"><tspan x="239.33" y="-29.9"/></text><text x="256.72" y="-469.13" transform="scale(4.0128.2492)" style="font-size:46.954;font-family:Arial;text-anchor:middle"/><text line-height="125%" x="1337.38" y="-246.37" style="letter-spacing:0;word-spacing:0;font-size:129.23;font-family:Gentium Book Basic"><tspan x="1337.38" y="-246.37"/></text><text x="530.36" y="-1337.8" transform="scale(4.0128.2492)" style="font-size:46.954;font-family:Arial;text-anchor:middle"/><text line-height="125%" x="1918.65" y="-326.37" style="letter-spacing:0;word-spacing:0;font-size:129.23;font-family:Gentium Book Basic"><tspan x="1918.65" y="-326.37"/></text><text x="675.21" y="-1658.83" transform="scale(4.0128.2492)" style="font-size:46.954;font-family:Arial;text-anchor:middle"/><text line-height="125%" x="1529.53" y="-798.77" style="letter-spacing:0;word-spacing:0;font-size:129.23;font-family:Gentium Book Basic"><tspan x="1529.53" y="-798.77"/></text><text x="578.24" y="-3554.48" transform="scale(4.0128.2492)" style="font-size:46.954;font-family:Arial;text-anchor:middle"/><text line-height="125%" x="2110.79" y="-878.78" style="letter-spacing:0;word-spacing:0;font-size:129.23;font-family:Gentium Book Basic"><tspan x="2110.79" y="-878.78"/></text><text x="723.09" y="-3875.52" transform="scale(4.0128.2492)" style="font-size:46.954;font-family:Arial;text-anchor:middle"/><g line-height="125%" style="letter-spacing:0;word-spacing:0"><text x="277.99" y="535.94" style="font-size:208.33;font-family:Gentium Book Basic"><tspan x="277.99" y="535.94"/></text><text x="729.64" y="231.36" style="font-size:129.23;font-family:&apos;Gentium Book Basic&apos;"><tspan x="729.64" y="231.36"/></text></g><text x="378.91" y="579.26" transform="scale(4.0128.2492)" style="font-size:46.954;font-family:Arial;text-anchor:middle"/><text x="1310.91" y="151.36" line-height="125%" style="letter-spacing:0;word-spacing:0;font-size:129.23;font-family:&apos;Gentium Book Basic&apos;"><tspan x="1310.91" y="151.36"/></text><text x="523.76" y="258.22" transform="scale(4.0128.2492)" style="font-size:46.954;font-family:Arial;text-anchor:middle"/><text x="239.33" y="-29.9" line-height="125%" style="letter-spacing:0;word-spacing:0;font-size:129.23;font-family:&apos;Gentium Book Basic&apos;"><tspan x="239.33" y="-29.9"/></text><text x="256.72" y="-469.13" transform="scale(4.0128.2492)" style="font-size:46.954;font-family:Arial;text-anchor:middle"/><text x="1337.38" y="-246.37" line-height="125%" style="letter-spacing:0;word-spacing:0;font-size:129.23;font-family:&apos;Gentium Book Basic&apos;"><tspan x="1337.38" y="-246.37"/></text><text x="530.36" y="-1337.8" transform="scale(4.0128.2492)" style="font-size:46.954;font-family:Arial;text-anchor:middle"/><text x="1918.65" y="-326.37" line-height="125%" style="letter-spacing:0;word-spacing:0;font-size:129.23;font-family:&apos;Gentium Book Basic&apos;"><tspan x="1918.65" y="-326.37"/></text><text x="675.21" y="-1658.83" transform="scale(4.0128.2492)" style="font-size:46.954;font-family:Arial;text-anchor:middle"/><text x="1529.53" y="-798.77" line-height="125%" style="letter-spacing:0;word-spacing:0;font-size:129.23;font-family:&apos;Gentium Book Basic&apos;"><tspan x="1529.53" y="-798.77"/></text><text x="578.24" y="-3554.48" transform="scale(4.0128.2492)" style="font-size:46.954;font-family:Arial;text-anchor:middle"/><text x="2110.79" y="-878.78" line-height="125%" style="letter-spacing:0;word-spacing:0;font-size:129.23;font-family:&apos;Gentium Book Basic&apos;"><tspan x="2110.79" y="-878.78"/></text><text x="723.09" y="-3875.52" transform="scale(4.0128.2492)" style="font-size:46.954;font-family:Arial;text-anchor:middle"/><g line-height="125%" style="letter-spacing:0;word-spacing:0;font-family:&apos;Gentium Book Basic&apos;"><text x="277.99" y="535.94" style="font-size:208.33"><tspan x="277.99" y="535.94"/></text><text x="729.64" y="231.36" style="font-size:129.23"><tspan x="729.64" y="231.36"/></text></g><text x="378.91" y="579.26" transform="scale(4.0128.2492)" style="font-size:46.954;font-family:Arial;text-anchor:middle"/><text x="1310.91" y="151.36" line-height="125%" style="letter-spacing:0;word-spacing:0;font-size:129.23;font-family:&apos;Gentium Book Basic&apos;"><tspan x="1310.91" y="151.36"/></text><text x="523.76" y="258.22" transform="scale(4.0128.2492)" style="font-size:46.954;font-family:Arial;text-anchor:middle"/><text x="239.33" y="-29.9" line-height="125%" style="letter-spacing:0;word-spacing:0;font-size:129.23;font-family:&apos;Gentium Book Basic&apos;"><tspan x="239.33" y="-29.9"/></text><text x="256.72" y="-469.13" transform="scale(4.0128.2492)" style="font-size:46.954;font-family:Arial;text-anchor:middle"/><text x="1337.38" y="-246.37" line-height="125%" style="letter-spacing:0;word-spacing:0;font-size:129.23;font-family:&apos;Gentium Book Basic&apos;"><tspan x="1337.38" y="-246.37"/></text><text x="530.36" y="-1337.8" transform="scale(4.0128.2492)" style="font-size:46.954;font-family:Arial;text-anchor:middle"/><text x="1918.65" y="-326.37" line-height="125%" style="letter-spacing:0;word-spacing:0;font-size:129.23;font-family:&apos;Gentium Book Basic&apos;"><tspan x="1918.65" y="-326.37"/></text><text x="675.21" y="-1658.83" transform="scale(4.0128.2492)" style="font-size:46.954;font-family:Arial;text-anchor:middle"/><text x="1529.53" y="-798.77" line-height="125%" style="letter-spacing:0;word-spacing:0;font-size:129.23;font-family:&apos;Gentium Book Basic&apos;"><tspan x="1529.53" y="-798.77"/></text><text x="578.24" y="-3554.48" transform="scale(4.0128.2492)" style="font-size:46.954;font-family:Arial;text-anchor:middle"/><text x="2110.79" y="-878.78" line-height="125%" style="letter-spacing:0;word-spacing:0;font-size:129.23;font-family:&apos;Gentium Book Basic&apos;"><tspan x="2110.79" y="-878.78"/></text><text x="723.09" y="-3875.52" transform="scale(4.0128.2492)" style="font-size:46.954;font-family:Arial;text-anchor:middle"/><g line-height="125%" style="letter-spacing:0;word-spacing:0;font-family:&apos;Gentium Book Basic&apos;"><text x="277.99" y="535.94" style="font-size:208.33"><tspan x="277.99" y="535.94"/></text><text x="968.53" y="-503.34" style="font-size:129.23"><tspan x="968.53" y="-503.34"/></text></g><text x="438.44" y="-2368.97" transform="scale(4.0128.2492)" style="font-size:46.954;font-family:Arial;text-anchor:middle"/><text x="1549.8" y="-583.34" line-height="125%" style="letter-spacing:0;word-spacing:0;font-size:129.23;font-family:&apos;Gentium Book Basic&apos;"><tspan x="1549.8" y="-583.34"/></text><text x="583.29" y="-2690.01" transform="scale(4.0128.2492)" style="font-size:46.954;font-family:Arial;text-anchor:middle"/><text x="478.22" y="-764.6" line-height="125%" style="letter-spacing:0;word-spacing:0;font-size:129.23;font-family:&apos;Gentium Book Basic&apos;"><tspan x="478.22" y="-764.6"/></text><text x="316.25" y="-3417.36" transform="scale(4.0128.2492)" style="font-size:46.954;font-family:Arial;text-anchor:middle"/><text x="1576.27" y="-981.07" line-height="125%" style="letter-spacing:0;word-spacing:0;font-size:129.23;font-family:&apos;Gentium Book Basic&apos;"><tspan x="1576.27" y="-981.07"/></text><text x="589.89" y="-4286.02" transform="scale(4.0128.2492)" style="font-size:46.954;font-family:Arial;text-anchor:middle"/><text x="2157.54" y="-1061.07" line-height="125%" style="letter-spacing:0;word-spacing:0;font-size:129.23;font-family:&apos;Gentium Book Basic&apos;"><tspan x="2157.54" y="-1061.07"/></text><text x="734.74" y="-4607.05" transform="scale(4.0128.2492)" style="font-size:46.954;font-family:Arial;text-anchor:middle"/><text x="1768.42" y="-1533.47" line-height="125%" style="letter-spacing:0;word-spacing:0;font-size:129.23;font-family:&apos;Gentium Book Basic&apos;"><tspan x="1768.42" y="-1533.47"/></text><text x="637.77" y="-6502.69" transform="scale(4.0128.2492)" style="font-size:46.954;font-family:Arial;text-anchor:middle"/><text x="2349.68" y="-1613.48" line-height="125%" style="letter-spacing:0;word-spacing:0;font-size:129.23;font-family:&apos;Gentium Book Basic&apos;"><tspan x="2349.68" y="-1613.48"/></text><text x="782.62" y="-6823.73" transform="scale(4.0128.2492)" style="font-size:46.954;font-family:Arial;text-anchor:middle"/><text x="516.88" y="-198.76" line-height="125%" style="letter-spacing:0;word-spacing:0;font-size:208.33;font-family:&apos;Gentium Book Basic&apos;"><tspan x="516.88" y="-198.76"/></text><g style="fill-rule:evenodd"><path d="m471.95 253.05c0 120.9-98.01 218.91-218.91 218.91-120.9 0-218.91-98.01-218.91-218.91 0-120.9 98.01-218.91 218.91-218.91 120.9 0 218.91 98.01 218.91 218.91" style="fill:#c84f42"/><path d="m256 1c-140.83 0-255 114.17-255 255 0 140.83 114.17 255 255 255 140.83 0 255-114.17 255-255 0-140.83-114.17-255-255-255m8.827 44.931c120.9 0 218.9 98 218.9 218.9 0 120.9-98 218.9-218.9 218.9-120.9 0-218.93-98-218.93-218.9 0-120.9 98.03-218.9 218.93-218.9" style="fill-opacity:.067"/><g style="fill-opacity:.129"><path d="m256 4.43c-138.94 0-251.57 112.63-251.57 251.57 0 138.94 112.63 251.57 251.57 251.57 138.94 0 251.57-112.63 251.57-251.57 0-138.94-112.63-251.57-251.57-251.57m5.885 38.556c120.9 0 218.9 98 218.9 218.9 0 120.9-98 218.9-218.9 218.9-120.9 0-218.93-98-218.93-218.9 0-120.9 98.03-218.9 218.93-218.9"/><path d="m256 8.36c-136.77 0-247.64 110.87-247.64 247.64 0 136.77 110.87 247.64 247.64 247.64 136.77 0 247.64-110.87 247.64-247.64 0-136.77-110.87-247.64-247.64-247.64m2.942 31.691c120.9 0 218.9 98 218.9 218.9 0 120.9-98 218.9-218.9 218.9-120.9 0-218.93-98-218.93-218.9 0-120.9 98.03-218.9 218.93-218.9"/></g><path d="m253.04 7.86c-135.42 0-245.19 109.78-245.19 245.19 0 135.42 109.78 245.19 245.19 245.19 135.42 0 245.19-109.78 245.19-245.19 0-135.42-109.78-245.19-245.19-245.19m0 26.297c120.9 0 218.9 98 218.9 218.9 0 120.9-98 218.9-218.9 218.9-120.9 0-218.93-98-218.93-218.9 0-120.9 98.03-218.9 218.93-218.9z" style="stroke-opacity:.31;fill:#fff;stroke:#000;stroke-width:4.904"/></g><text x="729.64" y="231.36" line-height="125%" style="letter-spacing:0;word-spacing:0;font-size:129.23;font-family:&apos;Gentium Book Basic&apos;"><tspan x="729.64" y="231.36"/></text><text x="378.91" y="579.26" transform="scale(4.0128.2492)" style="font-size:46.954;font-family:Arial;text-anchor:middle"/><text x="1310.91" y="151.36" line-height="125%" style="letter-spacing:0;word-spacing:0;font-size:129.23;font-family:&apos;Gentium Book Basic&apos;"><tspan x="1310.91" y="151.36"/></text><text x="523.76" y="258.22" transform="scale(4.0128.2492)" style="font-size:46.954;font-family:Arial;text-anchor:middle"/><text x="239.33" y="-29.9" line-height="125%" style="letter-spacing:0;word-spacing:0;font-size:129.23;font-family:&apos;Gentium Book Basic&apos;"><tspan x="239.33" y="-29.9"/></text><text x="256.72" y="-469.13" transform="scale(4.0128.2492)" style="font-size:46.954;font-family:Arial;text-anchor:middle"/><text x="1337.38" y="-246.37" line-height="125%" style="letter-spacing:0;word-spacing:0;font-size:129.23;font-family:&apos;Gentium Book Basic&apos;"><tspan x="1337.38" y="-246.37"/></text><text x="530.36" y="-1337.8" transform="scale(4.0128.2492)" style="font-size:46.954;font-family:Arial;text-anchor:middle"/><text x="1918.65" y="-326.37" line-height="125%" style="letter-spacing:0;word-spacing:0;font-size:129.23;font-family:&apos;Gentium Book Basic&apos;"><tspan x="1918.65" y="-326.37"/></text><text x="675.21" y="-1658.83" transform="scale(4.0128.2492)" style="font-size:46.954;font-family:Arial;text-anchor:middle"/><text x="1529.53" y="-798.77" line-height="125%" style="letter-spacing:0;word-spacing:0;font-size:129.23;font-family:&apos;Gentium Book Basic&apos;"><tspan x="1529.53" y="-798.77"/></text><text x="578.24" y="-3554.48" transform="scale(4.0128.2492)" style="font-size:46.954;font-family:Arial;text-anchor:middle"/><text x="2110.79" y="-878.78" line-height="125%" style="letter-spacing:0;word-spacing:0;font-size:129.23;font-family:&apos;Gentium Book Basic&apos;"><tspan x="2110.79" y="-878.78"/></text><text x="723.09" y="-3875.52" transform="scale(4.0128.2492)" style="font-size:46.954;font-family:Arial;text-anchor:middle"/><text x="277.99" y="535.94" line-height="125%" style="letter-spacing:0;word-spacing:0;font-size:208.33;font-family:&apos;Gentium Book Basic&apos;"><tspan x="277.99" y="535.94"/></text><path d="m155.82 109.19l19.2 19.2c.001.005.001.009.002.014l-19.21-19.21c-10.823 0-19.539 10.507-19.539 23.572v141.12c0 1.066.095 2.074.207 3.102.004.033-.004.07 0 .104-.1 2.01-.207 3.964-.207 5.996 0 33.06 13.4 62.994 35.07 84.66l103.16 103.16c88.25-8.59 161.14-69.58 187.18-151.46l-121.02-121.02c-21.665-21.665-51.595-35.06-84.66-35.06-11.825 0-23.24 1.721-34.01 4.92l-53.688-53.688c-3.381-3.381-7.73-5.41-12.484-5.41" style="opacity:.25"/><path d="m155.81 109.19c-10.823 0-19.54 10.506-19.54 23.572v141.12c0 1.066.095 2.075.207 3.102.004.033-.004.07 0 .103-.1 2.01-.207 3.965-.207 5.997 0 66.12 53.596 119.73 119.73 119.73 66.12 0 119.73-53.596 119.73-119.73 0-66.12-53.596-119.73-119.73-119.73-31.1 0-59.35 11.887-80.64 31.33v-61.931c0-13.07-8.717-23.572-19.54-23.572m100.18 93.15c44.616 0 80.85 36.13 80.85 80.75 0 44.616-36.23 80.85-80.85 80.85-44.616 0-80.74-36.23-80.74-80.85 0-44.616 36.13-80.74 80.75-80.74m-40.633 57.689c-12.585 0-22.745 10.16-22.745 22.745 0 12.585 10.16 22.849 22.745 22.849 12.585 0 22.849-10.263 22.849-22.849 0-12.585-10.263-22.745-22.849-22.745" style="fill:#fff"/></svg>