<svg xmlns="http://www.w3.org/2000/svg" viewBox="0 0 512 512"><path fill="#ed5a48" fill-rule="evenodd" d="m471.95 253.05c0 120.9-98.01 218.91-218.91 218.91s-218.91-98.01-218.91-218.91 98.01-218.91 218.91-218.91 218.91 98.01 218.91 218.91"/><path d="m253.56 113.09c-6.37 15.58-14.16 34.32-20 47.97-28.72-28.2 0.15-0.08-35.53-35.03-9.83 7.81-49.59 32.63-61.19 51.28-44.506 63.19-23.77 159.3 42.28 199.07 37.4 38.06 66.09 67.27 93.07 94.74 106.73-9.25 191.55-95.09 199.19-202.28-43.05-42.19-84.11-86.58-128.88-126.87-14.91-7.29-7.51 20.43-18.34 9.69-8.92-11.8 0.07-0.04-21.47-27.38-0.98 1.56-0.63 0.49-1.38-0.44-3.55 4.84-17.05 38.75-14.93 25.97-32.8-36.83-0.11-0.02-32.82-36.72" opacity=".25"/><g fill-rule="evenodd"><path fill-opacity=".067" d="m256 1c-140.83 0-255 114.17-255 255s114.17 255 255 255 255-114.17 255-255-114.17-255-255-255m8.827 44.931c120.9 0 218.9 98 218.9 218.9s-98 218.9-218.9 218.9-218.93-98-218.93-218.9 98.03-218.9 218.93-218.9"/><g fill-opacity=".129"><path d="m256 4.43c-138.94 0-251.57 112.63-251.57 251.57s112.63 251.57 251.57 251.57 251.57-112.63 251.57-251.57-112.63-251.57-251.57-251.57m5.885 38.556c120.9 0 218.9 98 218.9 218.9s-98 218.9-218.9 218.9-218.93-98-218.93-218.9 98.03-218.9 218.93-218.9"/><path d="m256 8.36c-136.77 0-247.64 110.87-247.64 247.64s110.87 247.64 247.64 247.64 247.64-110.87 247.64-247.64-110.87-247.64-247.64-247.64m2.942 31.691c120.9 0 218.9 98 218.9 218.9s-98 218.9-218.9 218.9-218.93-98-218.93-218.9 98.03-218.9 218.93-218.9"/></g><path fill="#fff" stroke="#000" stroke-opacity=".31" stroke-width="4.904" d="m253.04 7.86c-135.42 0-245.19 109.78-245.19 245.19 0 135.42 109.78 245.19 245.19 245.19 135.42 0 245.19-109.78 245.19-245.19 0-135.42-109.78-245.19-245.19-245.19zm0 26.297c120.9 0 218.9 98 218.9 218.9s-98 218.9-218.9 218.9-218.93-98-218.93-218.9 98.03-218.9 218.93-218.9z"/></g><path fill="#fff" d="m253.02 113.11l-63.54 157.78 204.05 25.602c0.141-0.481 0.161-1.01 0.299-1.488l-156.62-72.34 16.4-109.55c-0.199 0.001-0.396-0.005-0.597 0zm48.33 10.717c-1.041 0.182-2.024 1.311-2.387 1.191l-43.554 85.14 128.98 68.99c3.346-0.148 3.235-2.155 1.976-4.093l-88-80.08 5.37-66.981c-0.248-3.512-1.346-4.35-2.387-4.168zm-103.22 1.786c-50.08 22.257-85.02 72.15-85.02 130.39 0 78.918 64.11 142.89 143.19 142.89 58.741 0 109.18-35.24 131.26-85.74h-223.74zm129.77 14.587l-15.811 48.52 71.12 68.841c2.034 2.971 13.309 4.766 15.687-3.944 0-46.659-21.731-85.6-56.38-111.64-8.08-4.169-13.299-5.154-14.618-1.786z"/></svg>