<svg xmlns="http://www.w3.org/2000/svg" viewBox="0 0 512 512"><path fill="#8255af" fill-rule="evenodd" d="m471.95 253.05c0 120.9-98.01 218.91-218.91 218.91s-218.91-98.01-218.91-218.91 98.01-218.91 218.91-218.91 218.91 98.01 218.91 218.91"/><path d="m234.41 113.56c-79.49 0.48-139.27 83.35-128.29 161.75 2.12 34.59 14 59.34 36.54 83.97 9.79 10.7 20.47 20.66 31.12 30.06 28.41 27.43 56.95 54.97 85.47 82.5 101.26-2.82 185.31-74.37 207.16-169.68-6.8-3.86-22.48-0.66-32.82-1.69-105.49-101.99 0.44-0.35-195.37-186.88-1.27-0.03-2.55-0.04-3.81-0.03" opacity=".25"/><path fill="#fff" d="m238.22 113.59c-76.72 0-138.88 63.761-138.88 142.41 0 78.65 62.18 142.41 138.91 142.41h178.47c7.425-8.355 14.222-17.294 20.312-26.719h-198.78c-62.33 0-112.88-51.792-112.88-115.69s50.54-115.72 112.88-115.72v-26.688h-0.031zm0.031 35.594c-57.54 0-104.16 47.829-104.16 106.81 0 58.984 46.615 106.78 104.16 106.78h204.22c4.962-8.548 9.368-17.457 13.156-26.688h-217.38c-43.16 0-78.16-35.852-78.16-80.09s34.994-80.12 78.16-80.12c10.486 0 20.461 2.162 29.594 6l9.875-24.75c-12.535-5.265-25.92-7.938-39.469-7.938zm0 35.594c-38.36 0-69.44 31.897-69.44 71.22 0 39.32 31.07 71.19 69.44 71.19h220.82c3.12-8.667 5.701-17.583 7.719-26.719h-228.53c-23.974 0-43.37-19.894-43.37-44.47 0-24.577 19.401-44.5 43.38-44.5 11.987 0 22.835 5.01 30.688 13.06l18.438-18.906c-13.03-13.352-30.701-20.875-49.12-20.875z"/><g fill-rule="evenodd"><path fill-opacity=".067" d="m256 1c-140.83 0-255 114.17-255 255s114.17 255 255 255 255-114.17 255-255-114.17-255-255-255m8.827 44.931c120.9 0 218.9 98 218.9 218.9s-98 218.9-218.9 218.9-218.93-98-218.93-218.9 98.03-218.9 218.93-218.9"/><g fill-opacity=".129"><path d="m256 4.43c-138.94 0-251.57 112.63-251.57 251.57s112.63 251.57 251.57 251.57 251.57-112.63 251.57-251.57-112.63-251.57-251.57-251.57m5.885 38.556c120.9 0 218.9 98 218.9 218.9s-98 218.9-218.9 218.9-218.93-98-218.93-218.9 98.03-218.9 218.93-218.9"/><path d="m256 8.36c-136.77 0-247.64 110.87-247.64 247.64s110.87 247.64 247.64 247.64 247.64-110.87 247.64-247.64-110.87-247.64-247.64-247.64m2.942 31.691c120.9 0 218.9 98 218.9 218.9s-98 218.9-218.9 218.9-218.93-98-218.93-218.9 98.03-218.9 218.93-218.9"/></g><path fill="#fff" stroke="#000" stroke-opacity=".31" stroke-width="4.904" d="m253.04 7.86c-135.42 0-245.19 109.78-245.19 245.19 0 135.42 109.78 245.19 245.19 245.19 135.42 0 245.19-109.78 245.19-245.19 0-135.42-109.78-245.19-245.19-245.19zm0 26.297c120.9 0 218.9 98 218.9 218.9s-98 218.9-218.9 218.9-218.93-98-218.93-218.9 98.03-218.9 218.93-218.9z"/></g></svg>