<svg xmlns="http://www.w3.org/2000/svg" xmlns:svg="http://www.w3.org/2000/svg" xmlns:xlink="http://www.w3.org/1999/xlink" id="svg7319" width="512mm" height="512mm" version="1.1" viewBox="0 0 512 512"><metadata id="metadata7324"/><g id="layer1" transform="translate(0,215.00001)"><g id="g7353" transform="matrix(3.7795274,0,0,3.7795274,236.00002,-752.94827)"><g id="g7868" transform="matrix(0.26458334,0,0,0.26458334,-62.441676,142.33215)" style="fill-rule:evenodd"><path id="path7870" d="m 471.95,253.05 c 0,120.9 -98.01,218.91 -218.91,218.91 -120.9,0 -218.91,-98.01 -218.91,-218.91 0,-120.9 98.01,-218.91 218.91,-218.91 120.9,0 218.91,98.01 218.91,218.91" style="fill:#26a6a6"/><path id="path7872" d="m 159.56,125.34 c -31.53,0 -57.09,25.564 -57.09,57.09 0,31.53 25.564,57.09 57.09,57.09 l 45.563,45.563 c 5.883,45.41 48.589,70.924 53.719,101.56 l 71.31,71.31 c 43.483,-16.372 80.38,-46.18 105.63,-84.37 l -126.94,-126.94 c -16.257,-6.432 -29.29,-10.183 -40.03,-12.06 l -52.16,-52.16 c 0,-31.53 -25.564,-57.09 -57.09,-57.09 m 192.88,2.875 c -31.53,0 -57.09,25.564 -57.09,57.09 0,15.757 6.396,30.02 16.719,40.34 l 132.84,132.84 c 17.226,-31.28 27.03,-67.21 27.03,-105.44 0,-10.574 -0.738,-20.983 -2.188,-31.16 l -77.84,-77.84 c -10.254,-9.816 -24.15,-15.844 -39.469,-15.844" style="opacity:.25"/><path id="path7874" d="m 159.56,125.34 c -31.53,0 -57.09,25.564 -57.09,57.09 0,31.53 25.564,57.09 57.09,57.09 31.53,0 57.09,-25.564 57.09,-57.09 0,-31.53 -25.564,-57.09 -57.09,-57.09 m 192.88,2.875 c -31.53,0 -57.09,25.564 -57.09,57.09 0,31.53 25.564,57.06 57.09,57.06 31.53,0 57.09,-25.533 57.09,-57.06 0,-31.53 -25.564,-57.09 -57.09,-57.09 m -100.66,104.84 c -19.533,0.213 -29.775,8.117 -42.938,13.594 -21.719,71.35 43.58,101.66 50,140 9.39,-36.28 62.58,-78.46 50,-140 -25.986,-10.28 -43.698,-13.74 -57.06,-13.594" style="fill:#fff"/><path id="path7876" d="M 256,1 C 115.17,1 1,115.17 1,256 1,396.83 115.17,511 256,511 396.83,511 511,396.83 511,256 511,115.17 396.83,1 256,1 m 8.827,44.931 c 120.9,0 218.9,98 218.9,218.9 0,120.9 -98,218.9 -218.9,218.9 -120.9,0 -218.93,-98 -218.93,-218.9 0,-120.9 98.03,-218.9 218.93,-218.9" style="fill-opacity:.06700003"/><g id="g7878" style="fill-opacity:.12900002"><path id="path7880" d="M 256,4.43 C 117.06,4.43 4.43,117.06 4.43,256 4.43,394.94 117.06,507.57 256,507.57 394.94,507.57 507.57,394.94 507.57,256 507.57,117.06 394.94,4.43 256,4.43 m 5.885,38.556 c 120.9,0 218.9,98 218.9,218.9 0,120.9 -98,218.9 -218.9,218.9 -120.9,0 -218.93,-98 -218.93,-218.9 0,-120.9 98.03,-218.9 218.93,-218.9"/><path id="path7882" d="M 256,8.36 C 119.23,8.36 8.36,119.23 8.36,256 8.36,392.77 119.23,503.64 256,503.64 392.77,503.64 503.64,392.77 503.64,256 503.64,119.23 392.77,8.36 256,8.36 m 2.942,31.691 c 120.9,0 218.9,98 218.9,218.9 0,120.9 -98,218.9 -218.9,218.9 -120.9,0 -218.93,-98 -218.93,-218.9 0,-120.9 98.03,-218.9 218.93,-218.9"/></g><path id="path7884" d="M 253.04,7.86 C 117.62,7.86 7.85,117.64 7.85,253.05 c 0,135.42 109.78,245.19 245.19,245.19 135.42,0 245.19,-109.78 245.19,-245.19 C 498.23,117.63 388.45,7.86 253.04,7.86 Z m 0,26.297 c 120.9,0 218.9,98 218.9,218.9 0,120.9 -98,218.9 -218.9,218.9 -120.9,0 -218.93,-98 -218.93,-218.9 0,-120.9 98.03,-218.9 218.93,-218.9 z" style="fill:#fff;stroke:#000;stroke-width:4.90399981;stroke-opacity:.31000001"/></g><path id="0" d="m 30.102436,187.20217 a 5.721549,5.721549 0 0 1 -11.443098,0 5.721549,5.721549 0 1 1 11.443098,0" style="fill:#282629;fill-rule:evenodd"/><use id="use7933" width="100%" height="100%" x="0" y="0" transform="translate(-38.176731,-0.7559181)" xlink:href="#0"/></g></g></svg>