<svg xmlns="http://www.w3.org/2000/svg" xmlns:xlink="http://www.w3.org/1999/xlink" id="svg2" width="100%" height="100%" version="1.1" viewBox="0 0 512 512"><metadata id="metadata70"/><defs id="defs68"><linearGradient id="ButtonShadow" x1="45.448" x2="45.448" y1="92.54" y2="7.016" gradientTransform="scale(1.0059 .99417)" gradientUnits="userSpaceOnUse"><stop id="stop3750-1" offset="0"/><stop id="stop3752-6" offset="1" stop-opacity=".588"/></linearGradient><filter id="filter3174" color-interpolation-filters="sRGB"><feGaussianBlur id="feGaussianBlur3176" stdDeviation="1.71"/></filter><radialGradient id="radialGradient21305" cx="64" cy="64" r="64" gradientUnits="userSpaceOnUse"><stop id="stop4218-0" offset="0" stop-color="#fff"/><stop id="stop4220-2" offset=".688" stop-color="#e8e8e8"/><stop id="stop4222-6" offset=".875" stop-color="#686868"/><stop id="stop4224-6" offset="1"/></radialGradient></defs><g id="layer2" display="none" transform="matrix(6.7274 0 0 6.7274 -2202.3 -809.34)"><rect id="rect3745" width="86" height="85" x="5" y="7" fill="url(#ButtonShadow)" filter="url(#filter3174)" opacity=".9" rx="6" ry="6"/></g><path id="path4230" d="m1001.5 165.47c-2.1202 7.3447-36.402 181.33-29.267 189.98 6.1765 7.4828 15.826 4.2405 17.946-3.1042-2.1202 7.3447-6.3607 22.034-8.4809 29.379-17.946 3.1042-33.92-0.81668-37.444-17.946-4.0713-19.793 27.134-182.59 29.267-189.98-4.7411-8.958-29.531-15.826-33.772-1.1362l-7.9128-2.1202c18.514-34.603 53.838-9.3127 69.663-5.0722z" display="none"/><path id="path4232" d="m979.35 183.26c-26.427 32.483-124.22 164.54-147.96 158.17l-15.826-4.2405 12.153-12.569 7.9128 2.1202c15.826 4.2405 123.65-133.04 140.05-160.3 12.573-20.906 3.6724 16.81 3.6724 16.81z" display="none"/><path id="path4234" d="m916.46 253.45 47.477 12.721-4.2405 14.689-55.39-14.842z" display="none"/><path id="path4230-5" d="m1001.5 165.47c-2.1202 7.3447-36.402 181.33-29.267 189.98 6.1765 7.4828 15.826 4.2405 17.946-3.1042-2.1202 7.3447-6.3607 22.034-8.4809 29.379-17.946 3.1042-33.92-0.81668-37.444-17.946-4.0713-19.793 27.134-182.59 29.267-189.98-4.7411-8.958-29.531-15.826-33.772-1.1362l-7.9128-2.1202c18.514-34.603 53.838-9.3127 69.663-5.0722z" display="none"/><path id="path4232-3" d="m979.35 183.26c-26.427 32.483-124.22 164.54-147.96 158.17l-15.826-4.2405 12.153-12.569 7.9128 2.1202c15.826 4.2405 123.65-133.04 140.05-160.3 12.573-20.906 3.6724 16.81 3.6724 16.81z" display="none"/><path id="path4234-4" d="m916.46 253.45 47.477 12.721-4.2405 14.689-55.39-14.842z" display="none"/><style id="style1470" type="text/css"/><g id="g22564"><path id="path8" fill="#e24a4a" fill-rule="evenodd" d="m471.95 253.05c0 120.9-98.006 218.91-218.91 218.91s-218.91-98.006-218.91-218.91 98.006-218.91 218.91-218.91 218.91 98.006 218.91 218.91"/><path style="color:#000" id="rect22559" fill="#34e364" d="m37.625 213.91c-2.2939 12.704-3.5 25.791-3.5 39.156 0 25.55 4.3925 50.048 12.438 72.844h412.94c8.0448-22.796 12.438-47.295 12.438-72.844 0-13.365-1.1747-26.452-3.4688-39.156h-430.84z"/><path style="color:#000" id="rect22554" fill="#499de7" d="m253.03 34.156c-120.9 0-218.91 98.009-218.91 218.91 0 1.4379 0.0349 2.85 0.0625 4.2812h437.69c0.0276-1.4312 0.0625-2.8434 0.0625-4.2812 0-120.9-98.009-218.91-218.91-218.91z"/></g><path id="path21886" d="m103.38 133.09l11.74 44.03 89.22 89.22-7.03-0.12c-6.5-0.12-11.75 4.48-11.75 10.31v0.85c0 2.74 1.16 5.28 3.06 7.18l48.1 48.1-133.34-2.41 11.74 44.03 93.1 93.1c14.47 3.01 29.45 4.59 44.81 4.59 95.35 0 176.45-60.99 206.47-146.06 0.48-1.37 0.95-2.75 1.41-4.13 0.05-0.17 0.1-0.33 0.15-0.5 0.44-1.33 0.87-2.66 1.28-4 0.89-2.9 1.73-5.83 2.5-8.78 0.78-2.96 1.48-5.93 2.13-8.94 0.17-0.81 0.33-1.62 0.5-2.44l-82.31-82.31-4.13-0.06-78.06-78.06-199.59-3.6z" opacity=".25"/><path id="path10" fill-opacity=".067" fill-rule="evenodd" d="m256 1c-140.83 0-255 114.17-255 255s114.17 255 255 255 255-114.17 255-255-114.17-255-255-255m8.827 44.931c120.9 0 218.9 98 218.9 218.9s-98 218.9-218.9 218.9-218.93-98-218.93-218.9 98.03-218.9 218.93-218.9"/><path id="path14" fill-opacity=".129" fill-rule="evenodd" d="m256 4.43c-138.94 0-251.57 112.63-251.57 251.57s112.63 251.57 251.57 251.57 251.57-112.63 251.57-251.57-112.63-251.57-251.57-251.57m5.885 38.556c120.9 0 218.9 98 218.9 218.9s-98 218.9-218.9 218.9-218.93-98-218.93-218.9 98.03-218.9 218.93-218.9"/><path id="path16" fill-opacity=".129" fill-rule="evenodd" d="m256 8.36c-136.77 0-247.64 110.87-247.64 247.64s110.87 247.64 247.64 247.64 247.64-110.87 247.64-247.64-110.87-247.64-247.64-247.64m2.942 31.691c120.9 0 218.9 98 218.9 218.9s-98 218.9-218.9 218.9-218.93-98-218.93-218.9 98.03-218.9 218.93-218.9"/><path id="path18" fill="#fff" fill-rule="evenodd" stroke="#000" stroke-opacity=".31" stroke-width="4.904" d="m253.04 7.86c-135.42 0-245.19 109.78-245.19 245.19 0 135.42 109.78 245.19 245.19 245.19 135.42 0 245.19-109.78 245.19-245.19 0-135.42-109.78-245.19-245.19-245.19zm0 26.297c120.9 0 218.9 98 218.9 218.9s-98 218.9-218.9 218.9-218.93-98-218.93-218.9 98.03-218.9 218.93-218.9z"/><path id="path4230-0" d="m1001.5 165.47c-2.1202 7.3447-36.402 181.33-29.267 189.98 6.1765 7.4828 15.826 4.2405 17.946-3.1042-2.1202 7.3447-6.3607 22.034-8.4809 29.379-17.946 3.1042-33.92-0.81668-37.444-17.946-4.0713-19.793 27.134-182.59 29.267-189.98-4.7411-8.958-29.531-15.826-33.772-1.1362l-7.9128-2.1202c18.514-34.603 53.838-9.3127 69.663-5.0722z" display="none"/><path id="path4232-7" d="m979.35 183.26c-26.427 32.483-124.22 164.54-147.96 158.17l-15.826-4.2405 12.153-12.569 7.9128 2.1202c15.826 4.2405 123.65-133.04 140.05-160.3 12.573-20.906 3.6724 16.81 3.6724 16.81z" display="none"/><path id="path4234-0" d="m916.46 253.45 47.477 12.721-4.2405 14.689-55.39-14.842z" display="none"/><path id="path3281-0-0" fill="url(#radialGradient21305)" d="m128 64a64 64 0 1 1 -128 0 64 64 0 1 1 128 0z" display="none" transform="matrix(4.0239 1.0782 -1.0782 3.735 710.44 -81.379)"/><path id="path21377" fill="#fff" d="m103.38 133.09 11.757 44.035v-21.907l176.1 3.1485v21.907l11.735-43.595-199.59-3.5888zm82.191 78.162 11.735 44.013v-21.907l176.12 3.1705v21.907l11.735-43.617-199.59-3.5668zm11.735 54.978c-6.5041-0.11674-11.735 4.4762-11.735 10.304v0.85868c0 5.828 5.2312 10.628 11.735 10.745l82.191 1.4752c6.5041 0.11675 11.735-4.4982 11.735-10.326v-0.85868c0-5.828-5.2312-10.606-11.735-10.722l-82.191-1.4752zm176.12 3.1485c-6.5041-0.11675-11.757 3.447-11.757 7.9923v5.5044c0 4.5454 5.2532 8.2939 11.757 8.4107l23.471 0.41833c6.5041 0.11675 11.735-3.447 11.735-7.9923v-5.4823c0-4.5453-5.2311-8.3159-11.735-8.4327l-23.471-0.41833zm-270.04 60.878 11.757 44.035v-21.907l176.1 3.1485v21.907l11.735-43.595-199.59-3.5888zm270.04 4.8438-23.493 21.489 23.493 22.326 23.471-21.489-23.471-22.326z"/></svg>