<svg xmlns="http://www.w3.org/2000/svg" xmlns:xlink="http://www.w3.org/1999/xlink" id="svg2" width="100%" height="100%" version="1.1" viewBox="0 0 512 512"><metadata id="metadata70"/><defs id="defs68"><linearGradient id="ButtonShadow" x1="45.448" x2="45.448" y1="92.54" y2="7.016" gradientTransform="scale(1.0059 .99417)" gradientUnits="userSpaceOnUse"><stop id="stop3750-1" offset="0"/><stop id="stop3752-6" offset="1" stop-opacity=".588"/></linearGradient><filter id="filter3174" color-interpolation-filters="sRGB"><feGaussianBlur id="feGaussianBlur3176" stdDeviation="1.71"/></filter><radialGradient id="radialGradient21305" cx="64" cy="64" r="64" gradientUnits="userSpaceOnUse"><stop id="stop4218-0" offset="0" stop-color="#fff"/><stop id="stop4220-2" offset=".688" stop-color="#e8e8e8"/><stop id="stop4222-6" offset=".875" stop-color="#686868"/><stop id="stop4224-6" offset="1"/></radialGradient></defs><g id="layer2" display="none" transform="matrix(6.7274 0 0 6.7274 -2202.3 -809.34)"><rect id="rect3745" width="86" height="85" x="5" y="7" fill="url(#ButtonShadow)" filter="url(#filter3174)" opacity=".9" rx="6" ry="6"/></g><path id="path4230" d="m1001.5 165.47c-2.1202 7.3447-36.402 181.33-29.267 189.98 6.1765 7.4828 15.826 4.2405 17.946-3.1042-2.1202 7.3447-6.3607 22.034-8.4809 29.379-17.946 3.1042-33.92-0.81668-37.444-17.946-4.0713-19.793 27.134-182.59 29.267-189.98-4.7411-8.958-29.531-15.826-33.772-1.1362l-7.9128-2.1202c18.514-34.603 53.838-9.3127 69.663-5.0722z" display="none"/><path id="path4232" d="m979.35 183.26c-26.427 32.483-124.22 164.54-147.96 158.17l-15.826-4.2405 12.153-12.569 7.9128 2.1202c15.826 4.2405 123.65-133.04 140.05-160.3 12.573-20.906 3.6724 16.81 3.6724 16.81z" display="none"/><path id="path4234" d="m916.46 253.45 47.477 12.721-4.2405 14.689-55.39-14.842z" display="none"/><path id="path4230-5" d="m1001.5 165.47c-2.1202 7.3447-36.402 181.33-29.267 189.98 6.1765 7.4828 15.826 4.2405 17.946-3.1042-2.1202 7.3447-6.3607 22.034-8.4809 29.379-17.946 3.1042-33.92-0.81668-37.444-17.946-4.0713-19.793 27.134-182.59 29.267-189.98-4.7411-8.958-29.531-15.826-33.772-1.1362l-7.9128-2.1202c18.514-34.603 53.838-9.3127 69.663-5.0722z" display="none"/><path id="path4232-3" d="m979.35 183.26c-26.427 32.483-124.22 164.54-147.96 158.17l-15.826-4.2405 12.153-12.569 7.9128 2.1202c15.826 4.2405 123.65-133.04 140.05-160.3 12.573-20.906 3.6724 16.81 3.6724 16.81z" display="none"/><path id="path4234-4" d="m916.46 253.45 47.477 12.721-4.2405 14.689-55.39-14.842z" display="none"/><style id="style1470" type="text/css"/><path id="path4230-0" d="m1001.5 165.47c-2.1202 7.3447-36.402 181.33-29.267 189.98 6.1765 7.4828 15.826 4.2405 17.946-3.1042-2.1202 7.3447-6.3607 22.034-8.4809 29.379-17.946 3.1042-33.92-0.81668-37.444-17.946-4.0713-19.793 27.134-182.59 29.267-189.98-4.7411-8.958-29.531-15.826-33.772-1.1362l-7.9128-2.1202c18.514-34.603 53.838-9.3127 69.663-5.0722z" display="none"/><path id="path4232-7" d="m979.35 183.26c-26.427 32.483-124.22 164.54-147.96 158.17l-15.826-4.2405 12.153-12.569 7.9128 2.1202c15.826 4.2405 123.65-133.04 140.05-160.3 12.573-20.906 3.6724 16.81 3.6724 16.81z" display="none"/><path id="path4234-0" d="m916.46 253.45 47.477 12.721-4.2405 14.689-55.39-14.842z" display="none"/><path id="path3281-0-0" fill="url(#radialGradient21305)" d="m128 64a64 64 0 1 1 -128 0 64 64 0 1 1 128 0z" display="none" transform="matrix(4.0239 1.0782 -1.0782 3.735 710.44 -81.379)"/><path id="path8" fill="#1ce4cf" fill-rule="evenodd" d="m471.95 253.05c0 120.9-98.006 218.91-218.91 218.91s-218.91-98.006-218.91-218.91 98.006-218.91 218.91-218.91 218.91 98.006 218.91 218.91"/><path style="color:#000" id="path17238" fill="#ffd459" d="m253.03 34.156c-26.412 0-51.713 4.6781-75.156 13.25v411.31c23.444 8.5717 48.745 13.25 75.156 13.25 23.199 0 45.549-3.6257 66.531-10.312 11.489-63.957 17.844-134.5 17.844-208.59 0-74.127-6.3741-144.65-17.875-208.62-20.971-6.6789-43.315-10.281-66.5-10.281z"/><path style="color:#000" id="path17231" fill="#da8626" d="m253.03 34.156c-2.6385 0-5.2591 0.06367-7.875 0.15625v437.5c2.6156 0.0926 5.2368 0.15625 7.875 0.15625 47.461 0 91.389-15.119 127.25-40.781 15.593-53.332 24.406-113.92 24.406-178.12 0-64.237-8.8333-124.8-24.438-178.16-35.857-25.653-79.769-40.75-127.22-40.75z"/><path style="color:#000" id="rect17216" fill="#1ce41c" d="m312.41 42.281v421.53c92.05-25.87 159.53-110.43 159.53-210.75s-67.48-184.9-159.53-210.78z"/><path id="path17243" fill="#fff" fill-rule="evenodd" d="m471.95 253.05c0 120.9-98.006 218.91-218.91 218.91s-218.91-98.006-218.91-218.91 98.006-218.91 218.91-218.91 218.91 98.006 218.91 218.91" opacity=".24"/><path id="path10" fill-opacity=".067" fill-rule="evenodd" d="m256 1c-140.83 0-255 114.17-255 255s114.17 255 255 255 255-114.17 255-255-114.17-255-255-255m8.827 44.931c120.9 0 218.9 98 218.9 218.9s-98 218.9-218.9 218.9-218.93-98-218.93-218.9 98.03-218.9 218.93-218.9"/><path id="path14" fill-opacity=".129" fill-rule="evenodd" d="m256 4.43c-138.94 0-251.57 112.63-251.57 251.57s112.63 251.57 251.57 251.57 251.57-112.63 251.57-251.57-112.63-251.57-251.57-251.57m5.885 38.556c120.9 0 218.9 98 218.9 218.9s-98 218.9-218.9 218.9-218.93-98-218.93-218.9 98.03-218.9 218.93-218.9"/><path id="path16" fill-opacity=".129" fill-rule="evenodd" d="m256 8.36c-136.77 0-247.64 110.87-247.64 247.64s110.87 247.64 247.64 247.64 247.64-110.87 247.64-247.64-110.87-247.64-247.64-247.64m2.942 31.691c120.9 0 218.9 98 218.9 218.9s-98 218.9-218.9 218.9-218.93-98-218.93-218.9 98.03-218.9 218.93-218.9"/><path id="path18" fill="#fff" fill-rule="evenodd" stroke="#000" stroke-opacity=".31" stroke-width="4.904" d="m253.04 7.86c-135.42 0-245.19 109.78-245.19 245.19 0 135.42 109.78 245.19 245.19 245.19 135.42 0 245.19-109.78 245.19-245.19 0-135.42-109.78-245.19-245.19-245.19zm0 26.297c120.9 0 218.9 98 218.9 218.9s-98 218.9-218.9 218.9-218.93-98-218.93-218.9 98.03-218.9 218.93-218.9z"/><path id="path4230-51" d="m1001.5 165.47c-2.1202 7.3447-36.402 181.33-29.267 189.98 6.1765 7.4828 15.826 4.2405 17.946-3.1042-2.1202 7.3447-6.3607 22.034-8.4809 29.379-17.946 3.1042-33.92-0.81668-37.444-17.946-4.0713-19.793 27.134-182.59 29.267-189.98-4.7411-8.958-29.531-15.826-33.772-1.1362l-7.9128-2.1202c18.514-34.603 53.838-9.3127 69.663-5.0722z" display="none"/><path id="path4232-33" d="m979.35 183.26c-26.427 32.483-124.22 164.54-147.96 158.17l-15.826-4.2405 12.153-12.569 7.9128 2.1202c15.826 4.2405 123.65-133.04 140.05-160.3 12.573-20.906 3.6724 16.81 3.6724 16.81z" display="none"/><path id="path4234-6" d="m916.46 253.45 47.477 12.721-4.2405 14.689-55.39-14.842z" display="none"/><path style="color:#000" id="path18807" d="m132.62 125.41v260.87l82.38 82.38c12.35 2.16 25.06 3.31 38.03 3.31 118.27 0 214.61-93.81 218.75-211.06l-92.09-92.1h-45.28v113.13l-156.53-156.53h-45.26z" opacity=".25"/><path style="color:#000" id="rect17206" fill="#fff" d="m132.62 125.41v260.88h45.25v-260.88h-45.25zm201.78 43.406v217.47h45.281v-217.47h-45.281zm-134.52 74.3v143.16h45.281v-143.16h-45.281zm67.281 47.719v95.438h45.25v-95.438h-45.25z"/></svg>