<svg xmlns="http://www.w3.org/2000/svg" xmlns:xlink="http://www.w3.org/1999/xlink" id="svg2" width="100%" height="100%" version="1.1" viewBox="0 0 512 512"><metadata id="metadata70"/><defs id="defs68"><linearGradient id="ButtonShadow" x1="45.448" x2="45.448" y1="92.54" y2="7.016" gradientTransform="scale(1.0059 .99417)" gradientUnits="userSpaceOnUse"><stop id="stop3750-1" offset="0"/><stop id="stop3752-6" offset="1" stop-opacity=".588"/></linearGradient><filter id="filter3174" color-interpolation-filters="sRGB"><feGaussianBlur id="feGaussianBlur3176" stdDeviation="1.71"/></filter></defs><g id="layer2" display="none" transform="matrix(6.7274 0 0 6.7274 -2202.3 -809.34)"><rect id="rect3745" width="86" height="85" x="5" y="7" fill="url(#ButtonShadow)" filter="url(#filter3174)" opacity=".9" rx="6" ry="6"/></g><path id="path4230" d="m1001.5 165.47c-2.1202 7.3447-36.402 181.33-29.267 189.98 6.1765 7.4828 15.826 4.2405 17.946-3.1042-2.1202 7.3447-6.3607 22.034-8.4809 29.379-17.946 3.1042-33.92-0.81668-37.444-17.946-4.0713-19.793 27.134-182.59 29.267-189.98-4.7411-8.958-29.531-15.826-33.772-1.1362l-7.9128-2.1202c18.514-34.603 53.838-9.3127 69.663-5.0722z" display="none"/><path id="path4232" d="m979.35 183.26c-26.427 32.483-124.22 164.54-147.96 158.17l-15.826-4.2405 12.153-12.569 7.9128 2.1202c15.826 4.2405 123.65-133.04 140.05-160.3 12.573-20.906 3.6724 16.81 3.6724 16.81z" display="none"/><path id="path4234" d="m916.46 253.45 47.477 12.721-4.2405 14.689-55.39-14.842z" display="none"/><path id="path4230-5" d="m1001.5 165.47c-2.1202 7.3447-36.402 181.33-29.267 189.98 6.1765 7.4828 15.826 4.2405 17.946-3.1042-2.1202 7.3447-6.3607 22.034-8.4809 29.379-17.946 3.1042-33.92-0.81668-37.444-17.946-4.0713-19.793 27.134-182.59 29.267-189.98-4.7411-8.958-29.531-15.826-33.772-1.1362l-7.9128-2.1202c18.514-34.603 53.838-9.3127 69.663-5.0722z" display="none"/><path id="path4232-3" d="m979.35 183.26c-26.427 32.483-124.22 164.54-147.96 158.17l-15.826-4.2405 12.153-12.569 7.9128 2.1202c15.826 4.2405 123.65-133.04 140.05-160.3 12.573-20.906 3.6724 16.81 3.6724 16.81z" display="none"/><path id="path4234-4" d="m916.46 253.45 47.477 12.721-4.2405 14.689-55.39-14.842z" display="none"/><style id="style1470" type="text/css"/><path id="path4" fill="#b3346a" fill-rule="evenodd" d="m471.93 253.06c0 120.9-98.008 218.9-218.9 218.9-120.9 0-218.9-98.008-218.9-218.9 0-120.9 98.008-218.9 218.9-218.9 120.9 0 218.9 98.008 218.9 218.9"/><g id="g8" fill-rule="evenodd" transform="matrix(3.5433 0 0 3.5433 -.0039308 -.00038744)"><path id="path10-7" fill-opacity=".067" d="m72.25 0.282c-39.746 0-71.967 32.22-71.967 71.967 0 39.746 32.22 71.967 71.967 71.967 39.746 0 71.967-32.22 71.967-71.967 0-39.746-32.22-71.967-71.967-71.967m2.491 12.681c34.12 0 61.777 27.657 61.777 61.777s-27.657 61.777-61.777 61.777-61.786-27.657-61.786-61.777 27.666-61.777 61.786-61.777"/><g id="g12" fill-opacity=".129"><path id="path14-2" d="m72.25 1.251c-39.21 0-70.998 31.787-70.998 70.998 0 39.21 31.787 70.998 70.998 70.998 39.21 0 70.998-31.787 70.998-70.998 0-39.21-31.787-70.998-70.998-70.998m1.661 10.881c34.12 0 61.777 27.657 61.777 61.777s-27.657 61.777-61.777 61.777-61.786-27.657-61.786-61.777 27.666-61.777 61.786-61.777"/><path id="path16-9" d="m72.25 2.358c-38.6 0-69.891 31.29-69.891 69.891 0 38.6 31.29 69.891 69.891 69.891 38.6 0 69.891-31.29 69.891-69.891 0-38.6-31.29-69.891-69.891-69.891m0.83 8.944c34.12 0 61.777 27.657 61.777 61.777s-27.657 61.777-61.777 61.777-61.786-27.657-61.786-61.777 27.666-61.777 61.786-61.777"/></g><path id="path18-2" fill="#fff" stroke="#000" stroke-opacity=".31" stroke-width="1.384" d="m71.41 2.218c-38.22 0-69.2 30.981-69.2 69.2 0 38.22 30.981 69.2 69.2 69.2 38.22 0 69.2-30.981 69.2-69.2 0-38.22-30.981-69.2-69.2-69.2zm0 7.422c34.12 0 61.777 27.657 61.777 61.777s-27.657 61.777-61.777 61.777-61.786-27.65-61.786-61.773c0-34.12 27.666-61.777 61.786-61.777z"/></g><path id="path31080" d="m360 91.906c-4.35 0.008-8.74 1.039-12.88 3.282-21.14 11.092-30.71 35.822-30.28 58.692-0.11 6.61 1.1 15.22 3.13 17.24l24.47 24.47c-1.41 3.42-2.9 6.81-4.28 10.1-3.48 6.35-7.21 13.11-11.57 19.34l-33.78-33.78c-0.64-0.64-1.41-1.31-2.28-2-14.43-13.95-36.67-2.19-43.81 13.66-14.72 29.21-15.66 62.25-22.13 93.81l-4.97-4.97c-10.06-10.06-27.02-11.42-40.56-9-33.19 7.13-57.9 38.83-62.09 71.72-2.58 17.97 4.36 36.57 17 49.22l61.03 61.03c17.88 4.72 36.67 7.25 56.03 7.25 120.9 0 218.91-98.01 218.91-218.91 0-26.44-4.69-51.78-13.28-75.25-0.01-0.02-0.03-0.04-0.04-0.06l-76.21-76.22c-5.96-5.953-14.11-9.638-22.41-9.624z" opacity=".25" style="block-progression:tb;color:#000;text-transform:none;text-indent:0"/><path id="path30234" fill="#fff" d="m279.87 368c39.703-42.356 70.827-92.421 94.425-145.32 13.43-33.12 24.445-69.723 16.719-105.59-4.029-18.868-26.276-31.467-43.885-21.912-21.142 11.091-30.73 35.825-30.296 58.687-0.19353 11.249 3.4909 28.304 8.3878 8.8903 5.0356-11.423 23.43-10.268 25.038 2.8427 1.9835 13.945-4.8135 27.518-10.114 40.077-8.7332 15.968-18.874 34.617-37.335 40.422-14.124 2.9324-26.291-9.2462-23.068-23.699-0.20985-15.116 30.384-19.246 12.806-33.157-14.434-13.952-36.679-2.1978-43.817 13.653-19.218 38.146-14.943 82.837-30.149 122.2-4.088 17.221-30.112 34.776-40.867 13.323-4.1073-10.765 3.23-22.287 11.999-29.126 9.1308-9.5255 22.437-12.052 34.916-13.969-9.3577-13.298-28.577-15.238-43.576-12.559-33.189 7.133-57.893 38.81-62.082 71.701-4.2495 29.559 17.294 60.85 47.55 64.469 38.483 6.4054 75.658-14.499 102.54-40.379 3.6515-3.4684 7.1679-7.075 10.814-10.549zm-31.908-10.574c-1.3376 1.3376-2.6747 2.6747-4.0275 3.9908-15.669 11.462-33.477 26.997-54.477 22.059-6.5218-0.34154-23.065-13.953-7.8425-7.9357 25.66 6.1092 49.088-13.671 60.564-34.966 12.242-20.861 17.831-44.721 23.057-68.109 10.169 9.0033 25.814 8.5938 36.994 10.606-4.7992 10.738-12.467 21.658-19.041 32.156-10.166 15.296-22.332 29.235-35.228 42.198z" style="block-progression:tb;color:#000;text-transform:none;text-indent:0"/></svg>