<svg xmlns="http://www.w3.org/2000/svg" xmlns:xlink="http://www.w3.org/1999/xlink" viewBox="0 0 512 512"><g fill-rule="evenodd"><path fill="#924565" d="m471.95 253.05c0 120.9-98.01 218.9-218.9 218.9-120.9 0-218.9-98.01-218.9-218.9 0-120.9 98.01-218.9 218.9-218.9 120.9 0 218.9 98.01 218.9 218.9"/><path fill-opacity=".067" d="m256 1c-140.83 0-255 114.17-255 255s114.17 255 255 255 255-114.17 255-255-114.17-255-255-255m8.827 44.931c120.9 0 218.9 98 218.9 218.9s-98 218.9-218.9 218.9-218.93-98-218.93-218.9 98.03-218.9 218.93-218.9"/><g fill-opacity=".129"><path d="m256 4.433c-138.94 0-251.57 112.63-251.57 251.57s112.63 251.57 251.57 251.57 251.57-112.63 251.57-251.57-112.63-251.57-251.57-251.57m5.885 38.556c120.9 0 218.9 98 218.9 218.9s-98 218.9-218.9 218.9-218.93-98-218.93-218.9 98.03-218.9 218.93-218.9"/><path d="m256 8.356c-136.77 0-247.64 110.87-247.64 247.64s110.87 247.64 247.64 247.64 247.64-110.87 247.64-247.64-110.87-247.64-247.64-247.64m2.942 31.691c120.9 0 218.9 98 218.9 218.9s-98 218.9-218.9 218.9-218.93-98-218.93-218.9 98.03-218.9 218.93-218.9"/></g><path fill="#fff" stroke="#000" stroke-opacity=".31" stroke-width="4.904" d="m253.04 7.859c-135.42 0-245.19 109.78-245.19 245.19 0 135.42 109.78 245.19 245.19 245.19 135.42 0 245.19-109.78 245.19-245.19 0-135.42-109.78-245.19-245.19-245.19zm0 26.297c120.9 0 218.9 98 218.9 218.9s-98 218.9-218.9 218.9-218.93-98-218.93-218.9 98.03-218.9 218.93-218.9z"/></g><path d="m332.59 124.44l-18.781 36.688-40.75 6.281 29.09 29.19-5.188 31.906-85.37-85.37c-9.695-9.695-23.11-15.688-37.906-15.688-29.575 0-53.53 23.925-53.53 53.5 0 14.788 5.994 28.18 15.688 37.875l143.06 143.06v21.03c0 2.587 2.069 4.656 4.656 4.656l63.31 63.31c73.939-35.14 125.06-110.5 125.06-197.81 0-1.764-0.021-3.528-0.063-5.281l-80.03-80.03-18.969-3.063-40.28-40.25m-158.91 162.94l-27.25 46.09-26.28 46.656 86.969 86.969c14.814 3.164 30.18 4.844 45.938 4.844 30.983 0 60.44-6.421 87.16-18.03l-166.53-166.53" opacity=".25"/><path fill="#fff" d="m332.61 124.42l-18.781 36.719-40.75 6.281 29.09 29.19-6.594 40.688 36.75-18.656 36.656 18.844-6.375-40.719 29.25-29-40.688-6.531-18.563-36.812m-158.91 3c-29.575 0-53.56 23.956-53.56 53.53 0 29.575 23.987 53.56 53.56 53.56 29.575 0 53.56-23.987 53.56-53.56 0-29.575-23.987-53.53-53.56-53.53m109.88 153.06c-2.587 0-4.656 2.069-4.656 4.656v97.78c0 2.587 2.069 4.656 4.656 4.656h97.78c2.587 0 4.656-2.069 4.656-4.656v-97.78c0-2.587-2.069-4.656-4.656-4.656h-97.78m-109.87 6.906l-27.25 46.09-26.312 46.656 53.56 0.531 53.56-0.531-26.313-46.656-27.25-46.09"/></svg>