<svg xmlns="http://www.w3.org/2000/svg" xmlns:xlink="http://www.w3.org/1999/xlink" id="svg2" width="100%" height="100%" version="1.1" viewBox="0 0 512 512"><metadata id="metadata70"/><defs id="defs68"><linearGradient id="ButtonShadow" x1="45.448" x2="45.448" y1="92.54" y2="7.016" gradientTransform="scale(1.0059 .99417)" gradientUnits="userSpaceOnUse"><stop id="stop3750-1" offset="0"/><stop id="stop3752-6" offset="1" stop-opacity=".588"/></linearGradient><filter id="filter3174" color-interpolation-filters="sRGB"><feGaussianBlur id="feGaussianBlur3176" stdDeviation="1.71"/></filter><radialGradient id="radialGradient21305" cx="64" cy="64" r="64" gradientUnits="userSpaceOnUse"><stop id="stop4218-0" offset="0" stop-color="#fff"/><stop id="stop4220-2" offset=".688" stop-color="#e8e8e8"/><stop id="stop4222-6" offset=".875" stop-color="#686868"/><stop id="stop4224-6" offset="1"/></radialGradient><filter id="filter3657" color-interpolation-filters="sRGB"><feGaussianBlur id="feGaussianBlur3659" stdDeviation="1.14"/></filter><clipPath id="clipPath3649"><rect id="rect3651" width="76" height="76" x="10" y="10" fill="#fff" rx="4" ry="4"/></clipPath><clipPath id="clipPath3625"><path id="path3627" fill="#fff" d="m0 0v96h96v-96h-96zm12 6h72c3.324 0 6 2.676 6 6v72c0 3.324-2.676 6-6 6h-72c-3.324 0-6-2.676-6-6v-72c0-3.324 2.676-6 6-6z"/></clipPath><filter id="filter3174-2" color-interpolation-filters="sRGB"><feGaussianBlur id="feGaussianBlur3176-8" stdDeviation="1.71"/></filter><linearGradient id="linearGradient3737"><stop id="stop3739" offset="0" stop-color="#fff"/><stop id="stop3741" offset="1" stop-color="#fff" stop-opacity="0"/></linearGradient><filter id="filter3174-0" color-interpolation-filters="sRGB"><feGaussianBlur id="feGaussianBlur3176-9" stdDeviation="1.71"/></filter><filter id="filter3174-6" color-interpolation-filters="sRGB"><feGaussianBlur id="feGaussianBlur3176-7" stdDeviation="1.71"/></filter><linearGradient id="linearGradient31361" x1="48" x2="48" y1="90" y2="5.988" gradientTransform="matrix(5.5614 0 0 5.5614 -68.443 384.26)" gradientUnits="userSpaceOnUse"><stop id="stop3702" offset="0" stop-color="#2276c5"/><stop id="stop3704" offset="1" stop-color="#68baf4"/></linearGradient><radialGradient id="radialGradient31364" cx="48" cy="90.172" r="42" gradientTransform="matrix(6.4363 0 0 5.5387 -110.44 -170.79)" gradientUnits="userSpaceOnUse" xlink:href="#linearGradient3737"/><linearGradient id="linearGradient31367" x1="36.357" x2="36.357" y1="6" y2="63.893" gradientTransform="matrix(5.5614 0 0 5.5614 -68.443 -171.89)" gradientUnits="userSpaceOnUse" xlink:href="#linearGradient3737"/><linearGradient id="linearGradient31370" x1="44.512" x2="44.512" y1="6" y2="90.015" gradientTransform="matrix(5.5614 0 0 5.5614 -68.443 -171.89)" gradientUnits="userSpaceOnUse"><stop id="stop3639" offset="0" stop-color="#f0f0f0"/><stop id="stop3641" offset="1" stop-color="#dcdcdc"/></linearGradient><filter id="filter3174-1" color-interpolation-filters="sRGB"><feGaussianBlur id="feGaussianBlur3176-4" stdDeviation="1.71"/></filter><filter id="filter3794" width="1.384" height="1.384" x="-.192" y="-.192" color-interpolation-filters="sRGB"><feGaussianBlur id="feGaussianBlur3796" stdDeviation="5.28"/></filter><linearGradient id="linearGradient3613" x1="48" x2="48" y1="20.221" y2="138.66" gradientUnits="userSpaceOnUse"><stop id="stop3739-0" offset="0" stop-color="#fff"/><stop id="stop3741-6" offset="1" stop-color="#fff" stop-opacity="0"/></linearGradient><clipPath id="clipPath3613"><rect id="rect3615" width="84" height="84" x="6" y="6" fill="#fff" rx="6" ry="6"/></clipPath></defs><g id="layer2" display="none" transform="matrix(6.7274 0 0 6.7274 -2202.3 -809.34)"><rect id="rect3745" width="86" height="85" x="5" y="7" fill="url(#ButtonShadow)" filter="url(#filter3174)" opacity=".9" rx="6" ry="6"/></g><path id="path4230" d="m1001.5 165.47c-2.1202 7.3447-36.402 181.33-29.267 189.98 6.1765 7.4828 15.826 4.2405 17.946-3.1042-2.1202 7.3447-6.3607 22.034-8.4809 29.379-17.946 3.1042-33.92-0.81668-37.444-17.946-4.0713-19.793 27.134-182.59 29.267-189.98-4.7411-8.958-29.531-15.826-33.772-1.1362l-7.9128-2.1202c18.514-34.603 53.838-9.3127 69.663-5.0722z" display="none"/><path id="path4232" d="m979.35 183.26c-26.427 32.483-124.22 164.54-147.96 158.17l-15.826-4.2405 12.153-12.569 7.9128 2.1202c15.826 4.2405 123.65-133.04 140.05-160.3 12.573-20.906 3.6724 16.81 3.6724 16.81z" display="none"/><path id="path4234" d="m916.46 253.45 47.477 12.721-4.2405 14.689-55.39-14.842z" display="none"/><path id="path4230-5" d="m1001.5 165.47c-2.1202 7.3447-36.402 181.33-29.267 189.98 6.1765 7.4828 15.826 4.2405 17.946-3.1042-2.1202 7.3447-6.3607 22.034-8.4809 29.379-17.946 3.1042-33.92-0.81668-37.444-17.946-4.0713-19.793 27.134-182.59 29.267-189.98-4.7411-8.958-29.531-15.826-33.772-1.1362l-7.9128-2.1202c18.514-34.603 53.838-9.3127 69.663-5.0722z" display="none"/><path id="path4232-3" d="m979.35 183.26c-26.427 32.483-124.22 164.54-147.96 158.17l-15.826-4.2405 12.153-12.569 7.9128 2.1202c15.826 4.2405 123.65-133.04 140.05-160.3 12.573-20.906 3.6724 16.81 3.6724 16.81z" display="none"/><path id="path4234-4" d="m916.46 253.45 47.477 12.721-4.2405 14.689-55.39-14.842z" display="none"/><style id="style1470" type="text/css"/><path id="path4230-0" d="m1001.5 165.47c-2.1202 7.3447-36.402 181.33-29.267 189.98 6.1765 7.4828 15.826 4.2405 17.946-3.1042-2.1202 7.3447-6.3607 22.034-8.4809 29.379-17.946 3.1042-33.92-0.81668-37.444-17.946-4.0713-19.793 27.134-182.59 29.267-189.98-4.7411-8.958-29.531-15.826-33.772-1.1362l-7.9128-2.1202c18.514-34.603 53.838-9.3127 69.663-5.0722z" display="none"/><path id="path4232-7" d="m979.35 183.26c-26.427 32.483-124.22 164.54-147.96 158.17l-15.826-4.2405 12.153-12.569 7.9128 2.1202c15.826 4.2405 123.65-133.04 140.05-160.3 12.573-20.906 3.6724 16.81 3.6724 16.81z" display="none"/><path id="path4234-0" d="m916.46 253.45 47.477 12.721-4.2405 14.689-55.39-14.842z" display="none"/><path id="path3281-0-0" fill="url(#radialGradient21305)" d="m128 64a64 64 0 1 1 -128 0 64 64 0 1 1 128 0z" display="none" transform="matrix(4.0239 1.0782 -1.0782 3.735 710.44 -81.379)"/><path id="path4230-51" d="m1001.5 165.47c-2.1202 7.3447-36.402 181.33-29.267 189.98 6.1765 7.4828 15.826 4.2405 17.946-3.1042-2.1202 7.3447-6.3607 22.034-8.4809 29.379-17.946 3.1042-33.92-0.81668-37.444-17.946-4.0713-19.793 27.134-182.59 29.267-189.98-4.7411-8.958-29.531-15.826-33.772-1.1362l-7.9128-2.1202c18.514-34.603 53.838-9.3127 69.663-5.0722z" display="none"/><path id="path4232-33" d="m979.35 183.26c-26.427 32.483-124.22 164.54-147.96 158.17l-15.826-4.2405 12.153-12.569 7.9128 2.1202c15.826 4.2405 123.65-133.04 140.05-160.3 12.573-20.906 3.6724 16.81 3.6724 16.81z" display="none"/><path id="path4234-6" d="m916.46 253.45 47.477 12.721-4.2405 14.689-55.39-14.842z" display="none"/><g id="layer2-1" display="none" transform="matrix(2.7684 0 0 2.7684 -483.03 69.811)"><rect id="rect3745-73" width="86" height="85" x="5" y="7" fill="url(#ButtonShadow)" filter="url(#filter3174-6)" opacity=".9" rx="6" ry="6"/></g><g id="layer2-0" display="none" transform="matrix(4.232 0 0 4.232 -560.8 84.678)"><rect id="rect3745-1" width="86" height="85" x="5" y="7" fill="url(#ButtonShadow)" filter="url(#filter3174-0)" opacity=".9" rx="6" ry="6"/></g><rect id="rect3745-7" width="86" height="85" x="5" y="7" fill="url(#ButtonShadow)" clip-path="url(#clipPath3625)" display="none" filter="url(#filter3174-2)" opacity=".9" rx="6" ry="6" transform="matrix(5.5614 0 0 5.5614 -68.443 -171.89)"/><rect id="rect2419" width="467.16" height="467.16" x="-35.075" y="-138.52" display="none" opacity=".7" rx="33.369" ry="33.369"/><path id="rect3726" d="m9.417-116.27c-12.324 0-22.246 9.9216-22.246 22.246v378.18c0 12.324 9.9216 22.246 22.246 22.246h378.18c12.324 0 22.246-9.9216 22.246-22.246v-378.18c0-12.324-9.9216-22.246-22.246-22.246h-378.18zm0 17.032h378.18c3.2188 0 5.2139 1.9951 5.2139 5.2138v378.18c0 3.2188-1.9951 5.2139-5.2139 5.2139h-378.18c-3.2188 0-5.2139-1.9951-5.2139-5.2139v-378.18c0-3.2188 1.9951-5.2138 5.2139-5.2138z" display="none" opacity=".08"/><path id="rect3629" fill="url(#linearGradient31370)" d="m-1.7059-138.52c-18.486 0-33.369 14.882-33.369 33.369v400.42c0 18.486 14.882 33.369 33.369 33.369h400.42c18.486 0 33.369-14.882 33.369-33.369v-400.42c0-18.486-14.882-33.369-33.369-33.369h-400.42zm11.123 22.246h378.18c12.324 0 22.246 9.9216 22.246 22.246v378.18c0 12.324-9.9216 22.246-22.246 22.246h-378.18c-12.324 0-22.246-9.9216-22.246-22.246v-378.18c0-12.324 9.9216-22.246 22.246-22.246z" display="none"/><path id="rect3728" fill="url(#linearGradient31367)" d="m-1.7059-138.52c-18.486 0-33.369 14.882-33.369 33.369v400.42c0 1.8615 0.22996 3.6188 0.52139 5.3877 0.27084 1.6439 0.53968 3.3197 1.0428 4.8662 0.05493 0.16896 0.11613 0.35371 0.1738 0.52139 0.54983 1.6004 1.3063 3.0446 2.0855 4.5187 0.80415 1.5211 1.7553 2.9788 2.7807 4.3449s2.0787 2.6332 3.3021 3.8235c2.4467 2.3806 5.2439 4.53 8.3422 6.0828 1.5491 0.77644 3.1893 1.3734 4.8663 1.9118-1.4249-0.55738-2.7068-1.314-3.9973-2.0855-0.0412-0.0245-0.13267 0.0251-0.17379 0-0.1776-0.10733-0.34644-0.23642-0.52139-0.3476-0.66957-0.42656-1.2848-0.90936-1.9117-1.3904-0.59048-0.44936-1.1861-0.89601-1.7379-1.3904-0.98955-0.8978-1.9324-1.9208-2.7807-2.9545-0.59829-0.72442-1.2146-1.4754-1.738-2.2593-0.13952-0.21345-0.21381-0.47756-0.34759-0.69518-0.36017-0.573-0.72425-1.1374-1.0428-1.738-0.56175-1.0828-1.1438-2.3119-1.5641-3.4759-0.04427-0.12133-0.1312-0.2255-0.1738-0.34758-0.17699-0.51138-0.19912-1.039-0.34759-1.5642-0.16869-0.59296-0.39147-1.1292-0.52139-1.738-0.40531-1.8993-0.69517-3.883-0.69517-5.909v-400.42c0-15.471 12.336-27.807 27.807-27.807h400.42c15.471 0 27.807 12.336 27.807 27.807v400.42c0 2.026-0.28986 4.0097-0.69518 5.909-0.24554 1.1506-0.49152 2.2116-0.86898 3.3021-0.0428 0.12213-0.1296 0.22629-0.1738 0.34758-0.34892 0.96624-0.7696 2.0436-1.2166 2.9545-0.23124 0.4605-0.43957 0.94519-0.69517 1.3904-0.30367 0.54063-0.70505 1.0475-1.0428 1.5642-0.52339 0.78396-1.1397 1.5349-1.738 2.2593-0.79625 0.97018-1.6859 1.9298-2.6069 2.7807-0.0621 0.0567-0.11107 0.1176-0.17379 0.17378-0.76963 0.69828-1.5855 1.3038-2.4331 1.9118-0.57044 0.40683-1.1363 0.85293-1.738 1.2166-0.0412 0.0251-0.13253-0.0245-0.1738 0-1.2905 0.77152-2.5724 1.5282-3.9973 2.0855 1.6769-0.53835 3.3172-1.1353 4.8662-1.9118 3.0982-1.5529 5.8954-3.7022 8.3422-6.0828 1.2234-1.1903 2.2767-2.4574 3.3021-3.8235s1.9766-2.8238 2.7807-4.3449c0.77927-1.474 1.5357-2.9182 2.0855-4.5187 0.0579-0.17119 0.11867-0.34892 0.1738-0.52139 0.5031-1.5466 0.77194-3.2223 1.0428-4.8662 0.29141-1.7688 0.52138-3.5261 0.52138-5.3877v-400.42c0-18.486-14.882-33.369-33.369-33.369h-400.42z" display="none"/><path id="path3615" fill="url(#radialGradient31364)" d="m-1.7059 328.64c-18.486 0-33.369-14.882-33.369-33.369v-400.42c0-1.8615 0.22996-3.6188 0.52139-5.3876 0.27084-1.6439 0.53968-3.3197 1.0428-4.8663 0.05493-0.16896 0.11613-0.35371 0.1738-0.52139 0.54983-1.6004 1.3063-3.0446 2.0855-4.5187 0.80415-1.5211 1.7553-2.9788 2.7807-4.3449s2.0787-2.6332 3.3021-3.8235c2.4467-2.3806 5.2439-4.5299 8.3422-6.0828 1.5491-0.77644 3.1893-1.3734 4.8663-1.9118-1.4249 0.55738-2.7068 1.314-3.9973 2.0855-0.0412 0.0245-0.13267-0.025-0.17379 0-0.1776 0.10734-0.34644 0.23642-0.52139 0.34759-0.66957 0.42657-1.2848 0.90937-1.9117 1.3904-0.59048 0.44937-1.1861 0.89602-1.7379 1.3904-0.98955 0.8978-1.9324 1.9209-2.7807 2.9545-0.59829 0.7244-1.2146 1.4754-1.738 2.2593-0.13952 0.21345-0.21381 0.47756-0.34759 0.69518-0.36017 0.57301-0.72425 1.1374-1.0428 1.738-0.56175 1.0828-1.1438 2.3119-1.5641 3.4759-0.04427 0.12129-0.1312 0.22552-0.1738 0.34759-0.17699 0.51138-0.19912 1.039-0.34759 1.5642-0.16869 0.59294-0.39147 1.1291-0.52139 1.738-0.40531 1.8993-0.69517 3.883-0.69517 5.909v400.42c0 15.471 12.336 27.807 27.807 27.807h400.42c15.471 0 27.807-12.336 27.807-27.807v-400.42c0-2.026-0.28986-4.0097-0.69518-5.909-0.24554-1.1506-0.49152-2.2116-0.86898-3.3021-0.0428-0.12208-0.1296-0.22629-0.1738-0.34759-0.34892-0.96624-0.7696-2.0435-1.2166-2.9545-0.23124-0.46049-0.43957-0.94519-0.69517-1.3904-0.30367-0.54063-0.70505-1.0475-1.0428-1.5642-0.52339-0.78397-1.1397-1.5349-1.738-2.2593-0.79625-0.9702-1.6859-1.9298-2.6069-2.7807-0.0621-0.0567-0.11107-0.11763-0.17379-0.1738-0.76963-0.69827-1.5855-1.3038-2.4331-1.9117-0.57044-0.40682-1.1363-0.85293-1.738-1.2166-0.0412-0.025-0.13253 0.0245-0.1738 0-1.2905-0.77152-2.5724-1.5282-3.9973-2.0855 1.6769 0.53835 3.3172 1.1353 4.8662 1.9118 3.0982 1.5529 5.8954 3.7022 8.3422 6.0828 1.2234 1.1903 2.2767 2.4574 3.3021 3.8235s1.9766 2.8238 2.7807 4.3449c0.77927 1.474 1.5357 2.9182 2.0855 4.5187 0.0579 0.17119 0.11867 0.34893 0.1738 0.52139 0.5031 1.5466 0.77194 3.2223 1.0428 4.8663 0.29141 1.7688 0.52138 3.5261 0.52138 5.3876v400.42c0 18.486-14.882 33.369-33.369 33.369h-400.42z" display="none" opacity=".6"/><rect id="rect2841" width="467.16" height="467.16" x="-35.075" y="417.63" fill="url(#linearGradient31361)" display="none" rx="33.369" ry="33.369"/><rect id="rect3634" width="422.67" height="422.67" x="-12.829" y="439.87" fill="red" display="none" rx="22.246" ry="22.246"/><path style="block-progression:tb;color:#000;text-transform:none;text-indent:0" id="rect3647" d="m14 9c-2.7527 0-5 2.2473-5 5v68c0 2.7527 2.2473 5 5 5h68c2.7527 0 5-2.2473 5-5v-68c0-2.753-2.247-5-5-5h-68zm0 2h68c1.6793 0 3 1.3207 3 3v68c0 1.6793-1.3207 3-3 3h-68c-1.6793 0-3-1.3207-3-3v-68c0-1.6793 1.3207-3 3-3z" clip-path="url(#clipPath3649)" display="none" filter="url(#filter3657)" transform="matrix(5.5614 0 0 5.5614 -680.2 -171.89)"/><path id="path3709" d="m9.9135-116.27c-12.324 0-22.246 9.9216-22.246 22.246v378.18c0 12.324 9.9216 22.246 22.246 22.246h378.18c12.324 0 22.246-9.9216 22.246-22.246v-378.18c0-12.324-9.9216-22.246-22.246-22.246h-378.18zm0 11.123h378.18c6.3417 0 11.123 4.7812 11.123 11.123v378.18c0 6.3417-4.7812 11.123-11.123 11.123h-378.18c-6.3417 0-11.123-4.7812-11.123-11.123v-378.18c0-6.3417 4.7812-11.123 11.123-11.123z" display="none" opacity=".16"/><path id="path3707" d="m9.417-116.27c-12.324 0-22.246 9.9216-22.246 22.246v378.18c0 12.324 9.9216 22.246 22.246 22.246h378.18c12.324 0 22.246-9.9216 22.246-22.246v-378.18c0-12.324-9.9216-22.246-22.246-22.246h-378.18zm0 5.5614h378.18c9.309 0 16.684 7.3753 16.684 16.684v378.18c0 9.309-7.3753 16.684-16.684 16.684h-378.18c-9.309 0-16.684-7.3753-16.684-16.684v-378.18c0-9.309 7.3753-16.684 16.684-16.684z" display="none" opacity=".36"/><path id="path4230-98" d="m1001.5 165.47c-2.1202 7.3447-36.402 181.33-29.267 189.98 6.1765 7.4828 15.826 4.2405 17.946-3.1042-2.1202 7.3447-6.3607 22.034-8.4809 29.379-17.946 3.1042-33.92-0.81668-37.444-17.946-4.0713-19.793 27.134-182.59 29.267-189.98-4.7411-8.958-29.531-15.826-33.772-1.1362l-7.9128-2.1202c18.514-34.603 53.838-9.3127 69.663-5.0722z" display="none"/><path id="path4232-90" d="m979.35 183.26c-26.427 32.483-124.22 164.54-147.96 158.17l-15.826-4.2405 12.153-12.569 7.9128 2.1202c15.826 4.2405 123.65-133.04 140.05-160.3 12.573-20.906 3.6724 16.81 3.6724 16.81z" display="none"/><path id="path4234-56" d="m916.46 253.45 47.477 12.721-4.2405 14.689-55.39-14.842z" display="none"/><path id="path3281-0-0-20" fill="url(#radialGradient21305)" d="m128 64a64 64 0 1 1 -128 0 64 64 0 1 1 128 0z" display="none" transform="matrix(4.0239 1.0782 -1.0782 3.735 710.44 -81.379)"/><path id="path4230-0-96" d="m1001.5 165.47c-2.1202 7.3447-36.402 181.33-29.267 189.98 6.1765 7.4828 15.826 4.2405 17.946-3.1042-2.1202 7.3447-6.3607 22.034-8.4809 29.379-17.946 3.1042-33.92-0.81668-37.444-17.946-4.0713-19.793 27.134-182.59 29.267-189.98-4.7411-8.958-29.531-15.826-33.772-1.1362l-7.9128-2.1202c18.514-34.603 53.838-9.3127 69.663-5.0722z" display="none"/><path id="path4232-1" d="m979.35 183.26c-26.427 32.483-124.22 164.54-147.96 158.17l-15.826-4.2405 12.153-12.569 7.9128 2.1202c15.826 4.2405 123.65-133.04 140.05-160.3 12.573-20.906 3.6724 16.81 3.6724 16.81z" display="none"/><path id="path4234-6-5" d="m916.46 253.45 47.477 12.721-4.2405 14.689-55.39-14.842z" display="none"/><path id="path3281-0-0-1" fill="url(#radialGradient21305)" d="m128 64a64 64 0 1 1 -128 0 64 64 0 1 1 128 0z" display="none" transform="matrix(4.0239 1.0782 -1.0782 3.735 710.44 -81.379)"/><path id="path4230-8" d="m2408.5 423c-2.1203 7.3447-36.402 181.33-29.267 189.98 6.1765 7.4828 15.826 4.2405 17.946-3.1042-2.1203 7.3447-6.3607 22.034-8.481 29.379-17.946 3.1042-33.92-0.81668-37.444-17.946-4.0713-19.793 27.134-182.59 29.267-189.98-4.7412-8.958-29.531-15.826-33.772-1.1362l-7.9128-2.1202c18.514-34.603 53.838-9.3127 69.663-5.0722z" display="none"/><path id="path4232-9" d="m2386.3 440.8c-26.427 32.483-124.22 164.54-147.96 158.17l-15.826-4.2405 12.153-12.569 7.9128 2.1202c15.826 4.2405 123.65-133.04 140.05-160.3 12.573-20.906 3.6723 16.81 3.6723 16.81z" display="none"/><path id="path4234-5" d="m2323.4 510.99 47.477 12.721-4.2405 14.689-55.39-14.842z" display="none"/><path id="path3281-0-0-6" fill="url(#radialGradient21305)" d="m128 64a64 64 0 1 1 -128 0 64 64 0 1 1 128 0z" display="none" transform="matrix(4.0239 1.0782 -1.0782 3.735 2117.4 176.15)"/><path id="path4230-9" d="m1001.5 165.47c-2.1202 7.3447-36.402 181.33-29.267 189.98 6.1765 7.4828 15.826 4.2405 17.946-3.1042-2.1202 7.3447-6.3607 22.034-8.4809 29.379-17.946 3.1042-33.92-0.81668-37.444-17.946-4.0713-19.793 27.134-182.59 29.267-189.98-4.7411-8.958-29.531-15.826-33.772-1.1362l-7.9128-2.1202c18.514-34.603 53.838-9.3127 69.663-5.0722z" display="none"/><path id="path4232-0" d="m979.35 183.26c-26.427 32.483-124.22 164.54-147.96 158.17l-15.826-4.2405 12.153-12.569 7.9128 2.1202c15.826 4.2405 123.65-133.04 140.05-160.3 12.573-20.906 3.6724 16.81 3.6724 16.81z" display="none"/><path id="path4234-3" d="m916.46 253.45 47.477 12.721-4.2405 14.689-55.39-14.842z" display="none"/><path id="path3281-0-0-0" fill="url(#radialGradient21305)" d="m128 64a64 64 0 1 1 -128 0 64 64 0 1 1 128 0z" display="none" transform="matrix(4.0239 1.0782 -1.0782 3.735 710.44 -81.379)"/><path id="path4230-0-9" d="m1001.5 165.47c-2.1202 7.3447-36.402 181.33-29.267 189.98 6.1765 7.4828 15.826 4.2405 17.946-3.1042-2.1202 7.3447-6.3607 22.034-8.4809 29.379-17.946 3.1042-33.92-0.81668-37.444-17.946-4.0713-19.793 27.134-182.59 29.267-189.98-4.7411-8.958-29.531-15.826-33.772-1.1362l-7.9128-2.1202c18.514-34.603 53.838-9.3127 69.663-5.0722z" display="none"/><path id="path4232-1-3" d="m979.35 183.26c-26.427 32.483-124.22 164.54-147.96 158.17l-15.826-4.2405 12.153-12.569 7.9128 2.1202c15.826 4.2405 123.65-133.04 140.05-160.3 12.573-20.906 3.6724 16.81 3.6724 16.81z" display="none"/><path id="path4234-6-4" d="m916.46 253.45 47.477 12.721-4.2405 14.689-55.39-14.842z" display="none"/><path id="path3281-0-0-1-2" fill="url(#radialGradient21305)" d="m128 64a64 64 0 1 1 -128 0 64 64 0 1 1 128 0z" display="none" transform="matrix(4.0239 1.0782 -1.0782 3.735 710.44 -81.379)"/><path id="path4230-8-5" d="m2408.5 423c-2.1203 7.3447-36.402 181.33-29.267 189.98 6.1765 7.4828 15.826 4.2405 17.946-3.1042-2.1203 7.3447-6.3607 22.034-8.481 29.379-17.946 3.1042-33.92-0.81668-37.444-17.946-4.0713-19.793 27.134-182.59 29.267-189.98-4.7412-8.958-29.531-15.826-33.772-1.1362l-7.9128-2.1202c18.514-34.603 53.838-9.3127 69.663-5.0722z" display="none"/><path id="path4232-9-9" d="m2386.3 440.8c-26.427 32.483-124.22 164.54-147.96 158.17l-15.826-4.2405 12.153-12.569 7.9128 2.1202c15.826 4.2405 123.65-133.04 140.05-160.3 12.573-20.906 3.6723 16.81 3.6723 16.81z" display="none"/><path id="path4234-5-2" d="m2323.4 510.99 47.477 12.721-4.2405 14.689-55.39-14.842z" display="none"/><path id="path3281-0-0-6-9" fill="url(#radialGradient21305)" d="m128 64a64 64 0 1 1 -128 0 64 64 0 1 1 128 0z" display="none" transform="matrix(4.0239 1.0782 -1.0782 3.735 2117.4 176.15)"/><path id="path4230-5-3" d="m1001.5 165.47c-2.1202 7.3447-36.402 181.33-29.267 189.98 6.1765 7.4828 15.826 4.2405 17.946-3.1042-2.1202 7.3447-6.3607 22.034-8.4809 29.379-17.946 3.1042-33.92-0.81668-37.444-17.946-4.0713-19.793 27.134-182.59 29.267-189.98-4.7411-8.958-29.531-15.826-33.772-1.1362l-7.9128-2.1202c18.514-34.603 53.838-9.3127 69.663-5.0722z" display="none"/><path id="path4232-15" d="m979.35 183.26c-26.427 32.483-124.22 164.54-147.96 158.17l-15.826-4.2405 12.153-12.569 7.9128 2.1202c15.826 4.2405 123.65-133.04 140.05-160.3 12.573-20.906 3.6724 16.81 3.6724 16.81z" display="none"/><path id="path4234-7" d="m916.46 253.45 47.477 12.721-4.2405 14.689-55.39-14.842z" display="none"/><path id="path3281-0-0-9" fill="url(#radialGradient21305)" d="m128 64a64 64 0 1 1 -128 0 64 64 0 1 1 128 0z" display="none" transform="matrix(4.0239 1.0782 -1.0782 3.735 710.44 -81.379)"/><path id="path4230-0-7" d="m1001.5 165.47c-2.1202 7.3447-36.402 181.33-29.267 189.98 6.1765 7.4828 15.826 4.2405 17.946-3.1042-2.1202 7.3447-6.3607 22.034-8.4809 29.379-17.946 3.1042-33.92-0.81668-37.444-17.946-4.0713-19.793 27.134-182.59 29.267-189.98-4.7411-8.958-29.531-15.826-33.772-1.1362l-7.9128-2.1202c18.514-34.603 53.838-9.3127 69.663-5.0722z" display="none"/><path id="path4232-1-2" d="m979.35 183.26c-26.427 32.483-124.22 164.54-147.96 158.17l-15.826-4.2405 12.153-12.569 7.9128 2.1202c15.826 4.2405 123.65-133.04 140.05-160.3 12.573-20.906 3.6724 16.81 3.6724 16.81z" display="none"/><path id="path4234-6-8" d="m916.46 253.45 47.477 12.721-4.2405 14.689-55.39-14.842z" display="none"/><path id="path3281-0-0-1-7" fill="url(#radialGradient21305)" d="m128 64a64 64 0 1 1 -128 0 64 64 0 1 1 128 0z" display="none" transform="matrix(4.0239 1.0782 -1.0782 3.735 710.44 -81.379)"/><path id="path4230-8-6" d="m2408.5 423c-2.1203 7.3447-36.402 181.33-29.267 189.98 6.1765 7.4828 15.826 4.2405 17.946-3.1042-2.1203 7.3447-6.3607 22.034-8.481 29.379-17.946 3.1042-33.92-0.81668-37.444-17.946-4.0713-19.793 27.134-182.59 29.267-189.98-4.7412-8.958-29.531-15.826-33.772-1.1362l-7.9128-2.1202c18.514-34.603 53.838-9.3127 69.663-5.0722z" display="none"/><path id="path4232-9-5" d="m2386.3 440.8c-26.427 32.483-124.22 164.54-147.96 158.17l-15.826-4.2405 12.153-12.569 7.9128 2.1202c15.826 4.2405 123.65-133.04 140.05-160.3 12.573-20.906 3.6723 16.81 3.6723 16.81z" display="none"/><path id="path4234-5-7" d="m2323.4 510.99 47.477 12.721-4.2405 14.689-55.39-14.842z" display="none"/><path id="path3281-0-0-6-1" fill="url(#radialGradient21305)" d="m128 64a64 64 0 1 1 -128 0 64 64 0 1 1 128 0z" display="none" transform="matrix(4.0239 1.0782 -1.0782 3.735 2117.4 176.15)"/><path id="path4230-2" d="m1001.5 165.47c-2.1202 7.3447-36.402 181.33-29.267 189.98 6.1765 7.4828 15.826 4.2405 17.946-3.1042-2.1202 7.3447-6.3607 22.034-8.4809 29.379-17.946 3.1042-33.92-0.81668-37.444-17.946-4.0713-19.793 27.134-182.59 29.267-189.98-4.7411-8.958-29.531-15.826-33.772-1.1362l-7.9128-2.1202c18.514-34.603 53.838-9.3127 69.663-5.0722z" display="none"/><path id="path4232-16" d="m979.35 183.26c-26.427 32.483-124.22 164.54-147.96 158.17l-15.826-4.2405 12.153-12.569 7.9128 2.1202c15.826 4.2405 123.65-133.04 140.05-160.3 12.573-20.906 3.6724 16.81 3.6724 16.81z" display="none"/><path id="path4234-33" d="m916.46 253.45 47.477 12.721-4.2405 14.689-55.39-14.842z" display="none"/><path id="path3281-0-0-12" fill="url(#radialGradient21305)" d="m128 64a64 64 0 1 1 -128 0 64 64 0 1 1 128 0z" display="none" transform="matrix(4.0239 1.0782 -1.0782 3.735 710.44 -81.379)"/><path id="path4230-0-1" d="m1001.5 165.47c-2.1202 7.3447-36.402 181.33-29.267 189.98 6.1765 7.4828 15.826 4.2405 17.946-3.1042-2.1202 7.3447-6.3607 22.034-8.4809 29.379-17.946 3.1042-33.92-0.81668-37.444-17.946-4.0713-19.793 27.134-182.59 29.267-189.98-4.7411-8.958-29.531-15.826-33.772-1.1362l-7.9128-2.1202c18.514-34.603 53.838-9.3127 69.663-5.0722z" display="none"/><path id="path4232-1-1" d="m979.35 183.26c-26.427 32.483-124.22 164.54-147.96 158.17l-15.826-4.2405 12.153-12.569 7.9128 2.1202c15.826 4.2405 123.65-133.04 140.05-160.3 12.573-20.906 3.6724 16.81 3.6724 16.81z" display="none"/><path id="path4234-6-2" d="m916.46 253.45 47.477 12.721-4.2405 14.689-55.39-14.842z" display="none"/><path id="path3281-0-0-1-20" fill="url(#radialGradient21305)" d="m128 64a64 64 0 1 1 -128 0 64 64 0 1 1 128 0z" display="none" transform="matrix(4.0239 1.0782 -1.0782 3.735 710.44 -81.379)"/><path id="path4230-8-8" d="m2408.5 423c-2.1203 7.3447-36.402 181.33-29.267 189.98 6.1765 7.4828 15.826 4.2405 17.946-3.1042-2.1203 7.3447-6.3607 22.034-8.481 29.379-17.946 3.1042-33.92-0.81668-37.444-17.946-4.0713-19.793 27.134-182.59 29.267-189.98-4.7412-8.958-29.531-15.826-33.772-1.1362l-7.9128-2.1202c18.514-34.603 53.838-9.3127 69.663-5.0722z" display="none"/><path id="path4232-9-4" d="m2386.3 440.8c-26.427 32.483-124.22 164.54-147.96 158.17l-15.826-4.2405 12.153-12.569 7.9128 2.1202c15.826 4.2405 123.65-133.04 140.05-160.3 12.573-20.906 3.6723 16.81 3.6723 16.81z" display="none"/><path id="path4234-5-6" d="m2323.4 510.99 47.477 12.721-4.2405 14.689-55.39-14.842z" display="none"/><path id="path3281-0-0-6-7" fill="url(#radialGradient21305)" d="m128 64a64 64 0 1 1 -128 0 64 64 0 1 1 128 0z" display="none" transform="matrix(4.0239 1.0782 -1.0782 3.735 2117.4 176.15)"/><path id="path4230-3" d="m1001.5 165.47c-2.1202 7.3447-36.402 181.33-29.267 189.98 6.1765 7.4828 15.826 4.2405 17.946-3.1042-2.1202 7.3447-6.3607 22.034-8.4809 29.379-17.946 3.1042-33.92-0.81668-37.444-17.946-4.0713-19.793 27.134-182.59 29.267-189.98-4.7411-8.958-29.531-15.826-33.772-1.1362l-7.9128-2.1202c18.514-34.603 53.838-9.3127 69.663-5.0722z" display="none"/><path id="path4232-4" d="m979.35 183.26c-26.427 32.483-124.22 164.54-147.96 158.17l-15.826-4.2405 12.153-12.569 7.9128 2.1202c15.826 4.2405 123.65-133.04 140.05-160.3 12.573-20.906 3.6724 16.81 3.6724 16.81z" display="none"/><path id="path4234-35" d="m916.46 253.45 47.477 12.721-4.2405 14.689-55.39-14.842z" display="none"/><path id="path3281-0-0-4" fill="url(#radialGradient21305)" d="m128 64a64 64 0 1 1 -128 0 64 64 0 1 1 128 0z" display="none" transform="matrix(4.0239 1.0782 -1.0782 3.735 710.44 -81.379)"/><path id="path4230-0-8" d="m1001.5 165.47c-2.1202 7.3447-36.402 181.33-29.267 189.98 6.1765 7.4828 15.826 4.2405 17.946-3.1042-2.1202 7.3447-6.3607 22.034-8.4809 29.379-17.946 3.1042-33.92-0.81668-37.444-17.946-4.0713-19.793 27.134-182.59 29.267-189.98-4.7411-8.958-29.531-15.826-33.772-1.1362l-7.9128-2.1202c18.514-34.603 53.838-9.3127 69.663-5.0722z" display="none"/><path id="path4232-1-34" d="m979.35 183.26c-26.427 32.483-124.22 164.54-147.96 158.17l-15.826-4.2405 12.153-12.569 7.9128 2.1202c15.826 4.2405 123.65-133.04 140.05-160.3 12.573-20.906 3.6724 16.81 3.6724 16.81z" display="none"/><path id="path4234-6-42" d="m916.46 253.45 47.477 12.721-4.2405 14.689-55.39-14.842z" display="none"/><path id="path3281-0-0-1-17" fill="url(#radialGradient21305)" d="m128 64a64 64 0 1 1 -128 0 64 64 0 1 1 128 0z" display="none" transform="matrix(4.0239 1.0782 -1.0782 3.735 710.44 -81.379)"/><path id="path4230-8-64" d="m2408.5 423c-2.1203 7.3447-36.402 181.33-29.267 189.98 6.1765 7.4828 15.826 4.2405 17.946-3.1042-2.1203 7.3447-6.3607 22.034-8.481 29.379-17.946 3.1042-33.92-0.81668-37.444-17.946-4.0713-19.793 27.134-182.59 29.267-189.98-4.7412-8.958-29.531-15.826-33.772-1.1362l-7.9128-2.1202c18.514-34.603 53.838-9.3127 69.663-5.0722z" display="none"/><path id="path4232-9-71" d="m2386.3 440.8c-26.427 32.483-124.22 164.54-147.96 158.17l-15.826-4.2405 12.153-12.569 7.9128 2.1202c15.826 4.2405 123.65-133.04 140.05-160.3 12.573-20.906 3.6723 16.81 3.6723 16.81z" display="none"/><path id="path4234-5-72" d="m2323.4 510.99 47.477 12.721-4.2405 14.689-55.39-14.842z" display="none"/><path id="path3281-0-0-6-98" fill="url(#radialGradient21305)" d="m128 64a64 64 0 1 1 -128 0 64 64 0 1 1 128 0z" display="none" transform="matrix(4.0239 1.0782 -1.0782 3.735 2117.4 176.15)"/><path id="path4230-9-6" d="m1001.5 165.47c-2.1202 7.3447-36.402 181.33-29.267 189.98 6.1765 7.4828 15.826 4.2405 17.946-3.1042-2.1202 7.3447-6.3607 22.034-8.4809 29.379-17.946 3.1042-33.92-0.81668-37.444-17.946-4.0713-19.793 27.134-182.59 29.267-189.98-4.7411-8.958-29.531-15.826-33.772-1.1362l-7.9128-2.1202c18.514-34.603 53.838-9.3127 69.663-5.0722z" display="none"/><path id="path4232-0-04" d="m979.35 183.26c-26.427 32.483-124.22 164.54-147.96 158.17l-15.826-4.2405 12.153-12.569 7.9128 2.1202c15.826 4.2405 123.65-133.04 140.05-160.3 12.573-20.906 3.6724 16.81 3.6724 16.81z" display="none"/><path id="path4234-3-9" d="m916.46 253.45 47.477 12.721-4.2405 14.689-55.39-14.842z" display="none"/><path id="path3281-0-0-0-8" fill="url(#radialGradient21305)" d="m128 64a64 64 0 1 1 -128 0 64 64 0 1 1 128 0z" display="none" transform="matrix(4.0239 1.0782 -1.0782 3.735 710.44 -81.379)"/><path id="path4230-0-9-4" d="m1001.5 165.47c-2.1202 7.3447-36.402 181.33-29.267 189.98 6.1765 7.4828 15.826 4.2405 17.946-3.1042-2.1202 7.3447-6.3607 22.034-8.4809 29.379-17.946 3.1042-33.92-0.81668-37.444-17.946-4.0713-19.793 27.134-182.59 29.267-189.98-4.7411-8.958-29.531-15.826-33.772-1.1362l-7.9128-2.1202c18.514-34.603 53.838-9.3127 69.663-5.0722z" display="none"/><path id="path4232-1-3-3" d="m979.35 183.26c-26.427 32.483-124.22 164.54-147.96 158.17l-15.826-4.2405 12.153-12.569 7.9128 2.1202c15.826 4.2405 123.65-133.04 140.05-160.3 12.573-20.906 3.6724 16.81 3.6724 16.81z" display="none"/><path id="path4234-6-4-6" d="m916.46 253.45 47.477 12.721-4.2405 14.689-55.39-14.842z" display="none"/><path id="path3281-0-0-1-2-50" fill="url(#radialGradient21305)" d="m128 64a64 64 0 1 1 -128 0 64 64 0 1 1 128 0z" display="none" transform="matrix(4.0239 1.0782 -1.0782 3.735 710.44 -81.379)"/><path id="path4230-8-5-4" d="m2408.5 423c-2.1203 7.3447-36.402 181.33-29.267 189.98 6.1765 7.4828 15.826 4.2405 17.946-3.1042-2.1203 7.3447-6.3607 22.034-8.481 29.379-17.946 3.1042-33.92-0.81668-37.444-17.946-4.0713-19.793 27.134-182.59 29.267-189.98-4.7412-8.958-29.531-15.826-33.772-1.1362l-7.9128-2.1202c18.514-34.603 53.838-9.3127 69.663-5.0722z" display="none"/><path id="path4232-9-9-4" d="m2386.3 440.8c-26.427 32.483-124.22 164.54-147.96 158.17l-15.826-4.2405 12.153-12.569 7.9128 2.1202c15.826 4.2405 123.65-133.04 140.05-160.3 12.573-20.906 3.6723 16.81 3.6723 16.81z" display="none"/><path id="path4234-5-2-0" d="m2323.4 510.99 47.477 12.721-4.2405 14.689-55.39-14.842z" display="none"/><path id="path3281-0-0-6-9-8" fill="url(#radialGradient21305)" d="m128 64a64 64 0 1 1 -128 0 64 64 0 1 1 128 0z" display="none" transform="matrix(4.0239 1.0782 -1.0782 3.735 2117.4 176.15)"/><path id="path4230-5-13" d="m1001.5 165.47c-2.1202 7.3447-36.402 181.33-29.267 189.98 6.1765 7.4828 15.826 4.2405 17.946-3.1042-2.1202 7.3447-6.3607 22.034-8.4809 29.379-17.946 3.1042-33.92-0.81668-37.444-17.946-4.0713-19.793 27.134-182.59 29.267-189.98-4.7411-8.958-29.531-15.826-33.772-1.1362l-7.9128-2.1202c18.514-34.603 53.838-9.3127 69.663-5.0722z" display="none"/><path id="path4232-15-3" d="m979.35 183.26c-26.427 32.483-124.22 164.54-147.96 158.17l-15.826-4.2405 12.153-12.569 7.9128 2.1202c15.826 4.2405 123.65-133.04 140.05-160.3 12.573-20.906 3.6724 16.81 3.6724 16.81z" display="none"/><path id="path4234-7-6" d="m916.46 253.45 47.477 12.721-4.2405 14.689-55.39-14.842z" display="none"/><path id="path3281-0-0-9-0" fill="url(#radialGradient21305)" d="m128 64a64 64 0 1 1 -128 0 64 64 0 1 1 128 0z" display="none" transform="matrix(4.0239 1.0782 -1.0782 3.735 710.44 -81.379)"/><path id="path4230-0-7-5" d="m1001.5 165.47c-2.1202 7.3447-36.402 181.33-29.267 189.98 6.1765 7.4828 15.826 4.2405 17.946-3.1042-2.1202 7.3447-6.3607 22.034-8.4809 29.379-17.946 3.1042-33.92-0.81668-37.444-17.946-4.0713-19.793 27.134-182.59 29.267-189.98-4.7411-8.958-29.531-15.826-33.772-1.1362l-7.9128-2.1202c18.514-34.603 53.838-9.3127 69.663-5.0722z" display="none"/><path id="path4232-1-2-8" d="m979.35 183.26c-26.427 32.483-124.22 164.54-147.96 158.17l-15.826-4.2405 12.153-12.569 7.9128 2.1202c15.826 4.2405 123.65-133.04 140.05-160.3 12.573-20.906 3.6724 16.81 3.6724 16.81z" display="none"/><path id="path4234-6-8-54" d="m916.46 253.45 47.477 12.721-4.2405 14.689-55.39-14.842z" display="none"/><path id="path3281-0-0-1-7-49" fill="url(#radialGradient21305)" d="m128 64a64 64 0 1 1 -128 0 64 64 0 1 1 128 0z" display="none" transform="matrix(4.0239 1.0782 -1.0782 3.735 710.44 -81.379)"/><path id="path4230-8-6-8" d="m2408.5 423c-2.1203 7.3447-36.402 181.33-29.267 189.98 6.1765 7.4828 15.826 4.2405 17.946-3.1042-2.1203 7.3447-6.3607 22.034-8.481 29.379-17.946 3.1042-33.92-0.81668-37.444-17.946-4.0713-19.793 27.134-182.59 29.267-189.98-4.7412-8.958-29.531-15.826-33.772-1.1362l-7.9128-2.1202c18.514-34.603 53.838-9.3127 69.663-5.0722z" display="none"/><path id="path4232-9-5-18" d="m2386.3 440.8c-26.427 32.483-124.22 164.54-147.96 158.17l-15.826-4.2405 12.153-12.569 7.9128 2.1202c15.826 4.2405 123.65-133.04 140.05-160.3 12.573-20.906 3.6723 16.81 3.6723 16.81z" display="none"/><path id="path4234-5-7-1" d="m2323.4 510.99 47.477 12.721-4.2405 14.689-55.39-14.842z" display="none"/><path id="path3281-0-0-6-1-1" fill="url(#radialGradient21305)" d="m128 64a64 64 0 1 1 -128 0 64 64 0 1 1 128 0z" display="none" transform="matrix(4.0239 1.0782 -1.0782 3.735 2117.4 176.15)"/><path id="path4230-2-0" d="m1001.5 165.47c-2.1202 7.3447-36.402 181.33-29.267 189.98 6.1765 7.4828 15.826 4.2405 17.946-3.1042-2.1202 7.3447-6.3607 22.034-8.4809 29.379-17.946 3.1042-33.92-0.81668-37.444-17.946-4.0713-19.793 27.134-182.59 29.267-189.98-4.7411-8.958-29.531-15.826-33.772-1.1362l-7.9128-2.1202c18.514-34.603 53.838-9.3127 69.663-5.0722z" display="none"/><path id="path4232-16-73" d="m979.35 183.26c-26.427 32.483-124.22 164.54-147.96 158.17l-15.826-4.2405 12.153-12.569 7.9128 2.1202c15.826 4.2405 123.65-133.04 140.05-160.3 12.573-20.906 3.6724 16.81 3.6724 16.81z" display="none"/><path id="path4234-33-2" d="m916.46 253.45 47.477 12.721-4.2405 14.689-55.39-14.842z" display="none"/><path id="path3281-0-0-12-6" fill="url(#radialGradient21305)" d="m128 64a64 64 0 1 1 -128 0 64 64 0 1 1 128 0z" display="none" transform="matrix(4.0239 1.0782 -1.0782 3.735 710.44 -81.379)"/><path id="path4230-0-1-3" d="m1001.5 165.47c-2.1202 7.3447-36.402 181.33-29.267 189.98 6.1765 7.4828 15.826 4.2405 17.946-3.1042-2.1202 7.3447-6.3607 22.034-8.4809 29.379-17.946 3.1042-33.92-0.81668-37.444-17.946-4.0713-19.793 27.134-182.59 29.267-189.98-4.7411-8.958-29.531-15.826-33.772-1.1362l-7.9128-2.1202c18.514-34.603 53.838-9.3127 69.663-5.0722z" display="none"/><path id="path4232-1-1-50" d="m979.35 183.26c-26.427 32.483-124.22 164.54-147.96 158.17l-15.826-4.2405 12.153-12.569 7.9128 2.1202c15.826 4.2405 123.65-133.04 140.05-160.3 12.573-20.906 3.6724 16.81 3.6724 16.81z" display="none"/><path id="path4234-6-2-8" d="m916.46 253.45 47.477 12.721-4.2405 14.689-55.39-14.842z" display="none"/><path id="path3281-0-0-1-20-11" fill="url(#radialGradient21305)" d="m128 64a64 64 0 1 1 -128 0 64 64 0 1 1 128 0z" display="none" transform="matrix(4.0239 1.0782 -1.0782 3.735 710.44 -81.379)"/><path id="path4230-8-8-0" d="m2408.5 423c-2.1203 7.3447-36.402 181.33-29.267 189.98 6.1765 7.4828 15.826 4.2405 17.946-3.1042-2.1203 7.3447-6.3607 22.034-8.481 29.379-17.946 3.1042-33.92-0.81668-37.444-17.946-4.0713-19.793 27.134-182.59 29.267-189.98-4.7412-8.958-29.531-15.826-33.772-1.1362l-7.9128-2.1202c18.514-34.603 53.838-9.3127 69.663-5.0722z" display="none"/><path id="path4232-9-4-4" d="m2386.3 440.8c-26.427 32.483-124.22 164.54-147.96 158.17l-15.826-4.2405 12.153-12.569 7.9128 2.1202c15.826 4.2405 123.65-133.04 140.05-160.3 12.573-20.906 3.6723 16.81 3.6723 16.81z" display="none"/><path id="path4234-5-6-9" d="m2323.4 510.99 47.477 12.721-4.2405 14.689-55.39-14.842z" display="none"/><path id="path3281-0-0-6-7-9" fill="url(#radialGradient21305)" d="m128 64a64 64 0 1 1 -128 0 64 64 0 1 1 128 0z" display="none" transform="matrix(4.0239 1.0782 -1.0782 3.735 2117.4 176.15)"/><path id="path4230-6" d="m1001.5 165.47c-2.1202 7.3447-36.402 181.33-29.267 189.98 6.1765 7.4828 15.826 4.2405 17.946-3.1042-2.1202 7.3447-6.3607 22.034-8.4809 29.379-17.946 3.1042-33.92-0.81668-37.444-17.946-4.0713-19.793 27.134-182.59 29.267-189.98-4.7411-8.958-29.531-15.826-33.772-1.1362l-7.9128-2.1202c18.514-34.603 53.838-9.3127 69.663-5.0722z" display="none"/><path id="path4232-7-7" d="m979.35 183.26c-26.427 32.483-124.22 164.54-147.96 158.17l-15.826-4.2405 12.153-12.569 7.9128 2.1202c15.826 4.2405 123.65-133.04 140.05-160.3 12.573-20.906 3.6724 16.81 3.6724 16.81z" display="none"/><path id="path4234-4-7" d="m916.46 253.45 47.477 12.721-4.2405 14.689-55.39-14.842z" display="none"/><path id="path3281-0-0-2" fill="url(#radialGradient21305)" d="m128 64a64 64 0 1 1 -128 0 64 64 0 1 1 128 0z" display="none" transform="matrix(4.0239 1.0782 -1.0782 3.735 710.44 -81.379)"/><path id="path4230-0-5" d="m1001.5 165.47c-2.1202 7.3447-36.402 181.33-29.267 189.98 6.1765 7.4828 15.826 4.2405 17.946-3.1042-2.1202 7.3447-6.3607 22.034-8.4809 29.379-17.946 3.1042-33.92-0.81668-37.444-17.946-4.0713-19.793 27.134-182.59 29.267-189.98-4.7411-8.958-29.531-15.826-33.772-1.1362l-7.9128-2.1202c18.514-34.603 53.838-9.3127 69.663-5.0722z" display="none"/><path id="path4232-1-33" d="m979.35 183.26c-26.427 32.483-124.22 164.54-147.96 158.17l-15.826-4.2405 12.153-12.569 7.9128 2.1202c15.826 4.2405 123.65-133.04 140.05-160.3 12.573-20.906 3.6724 16.81 3.6724 16.81z" display="none"/><path id="path4234-6-49" d="m916.46 253.45 47.477 12.721-4.2405 14.689-55.39-14.842z" display="none"/><path id="path3281-0-0-1-1" fill="url(#radialGradient21305)" d="m128 64a64 64 0 1 1 -128 0 64 64 0 1 1 128 0z" display="none" transform="matrix(4.0239 1.0782 -1.0782 3.735 710.44 -81.379)"/><path id="path4230-8-61" d="m2408.5 423c-2.1203 7.3447-36.402 181.33-29.267 189.98 6.1765 7.4828 15.826 4.2405 17.946-3.1042-2.1203 7.3447-6.3607 22.034-8.481 29.379-17.946 3.1042-33.92-0.81668-37.444-17.946-4.0713-19.793 27.134-182.59 29.267-189.98-4.7412-8.958-29.531-15.826-33.772-1.1362l-7.9128-2.1202c18.514-34.603 53.838-9.3127 69.663-5.0722z" display="none"/><path id="path4232-9-74" d="m2386.3 440.8c-26.427 32.483-124.22 164.54-147.96 158.17l-15.826-4.2405 12.153-12.569 7.9128 2.1202c15.826 4.2405 123.65-133.04 140.05-160.3 12.573-20.906 3.6723 16.81 3.6723 16.81z" display="none"/><path id="path4234-5-67" d="m2323.4 510.99 47.477 12.721-4.2405 14.689-55.39-14.842z" display="none"/><path id="path3281-0-0-6-4" fill="url(#radialGradient21305)" d="m128 64a64 64 0 1 1 -128 0 64 64 0 1 1 128 0z" display="none" transform="matrix(4.0239 1.0782 -1.0782 3.735 2117.4 176.15)"/><path id="path4230-9-5" d="m1001.5 165.47c-2.1202 7.3447-36.402 181.33-29.267 189.98 6.1765 7.4828 15.826 4.2405 17.946-3.1042-2.1202 7.3447-6.3607 22.034-8.4809 29.379-17.946 3.1042-33.92-0.81668-37.444-17.946-4.0713-19.793 27.134-182.59 29.267-189.98-4.7411-8.958-29.531-15.826-33.772-1.1362l-7.9128-2.1202c18.514-34.603 53.838-9.3127 69.663-5.0722z" display="none"/><path id="path4232-0-0" d="m979.35 183.26c-26.427 32.483-124.22 164.54-147.96 158.17l-15.826-4.2405 12.153-12.569 7.9128 2.1202c15.826 4.2405 123.65-133.04 140.05-160.3 12.573-20.906 3.6724 16.81 3.6724 16.81z" display="none"/><path id="path4234-3-6" d="m916.46 253.45 47.477 12.721-4.2405 14.689-55.39-14.842z" display="none"/><path id="path3281-0-0-0-6" fill="url(#radialGradient21305)" d="m128 64a64 64 0 1 1 -128 0 64 64 0 1 1 128 0z" display="none" transform="matrix(4.0239 1.0782 -1.0782 3.735 710.44 -81.379)"/><path id="path4230-0-9-85" d="m1001.5 165.47c-2.1202 7.3447-36.402 181.33-29.267 189.98 6.1765 7.4828 15.826 4.2405 17.946-3.1042-2.1202 7.3447-6.3607 22.034-8.4809 29.379-17.946 3.1042-33.92-0.81668-37.444-17.946-4.0713-19.793 27.134-182.59 29.267-189.98-4.7411-8.958-29.531-15.826-33.772-1.1362l-7.9128-2.1202c18.514-34.603 53.838-9.3127 69.663-5.0722z" display="none"/><path id="path4232-1-3-5" d="m979.35 183.26c-26.427 32.483-124.22 164.54-147.96 158.17l-15.826-4.2405 12.153-12.569 7.9128 2.1202c15.826 4.2405 123.65-133.04 140.05-160.3 12.573-20.906 3.6724 16.81 3.6724 16.81z" display="none"/><path id="path4234-6-4-48" d="m916.46 253.45 47.477 12.721-4.2405 14.689-55.39-14.842z" display="none"/><path id="path3281-0-0-1-2-5" fill="url(#radialGradient21305)" d="m128 64a64 64 0 1 1 -128 0 64 64 0 1 1 128 0z" display="none" transform="matrix(4.0239 1.0782 -1.0782 3.735 710.44 -81.379)"/><path id="path4230-8-5-6" d="m2408.5 423c-2.1203 7.3447-36.402 181.33-29.267 189.98 6.1765 7.4828 15.826 4.2405 17.946-3.1042-2.1203 7.3447-6.3607 22.034-8.481 29.379-17.946 3.1042-33.92-0.81668-37.444-17.946-4.0713-19.793 27.134-182.59 29.267-189.98-4.7412-8.958-29.531-15.826-33.772-1.1362l-7.9128-2.1202c18.514-34.603 53.838-9.3127 69.663-5.0722z" display="none"/><path id="path4232-9-9-3" d="m2386.3 440.8c-26.427 32.483-124.22 164.54-147.96 158.17l-15.826-4.2405 12.153-12.569 7.9128 2.1202c15.826 4.2405 123.65-133.04 140.05-160.3 12.573-20.906 3.6723 16.81 3.6723 16.81z" display="none"/><path id="path4234-5-2-87" d="m2323.4 510.99 47.477 12.721-4.2405 14.689-55.39-14.842z" display="none"/><path id="path3281-0-0-6-9-2" fill="url(#radialGradient21305)" d="m128 64a64 64 0 1 1 -128 0 64 64 0 1 1 128 0z" display="none" transform="matrix(4.0239 1.0782 -1.0782 3.735 2117.4 176.15)"/><path id="path4230-5-1" d="m1001.5 165.47c-2.1202 7.3447-36.402 181.33-29.267 189.98 6.1765 7.4828 15.826 4.2405 17.946-3.1042-2.1202 7.3447-6.3607 22.034-8.4809 29.379-17.946 3.1042-33.92-0.81668-37.444-17.946-4.0713-19.793 27.134-182.59 29.267-189.98-4.7411-8.958-29.531-15.826-33.772-1.1362l-7.9128-2.1202c18.514-34.603 53.838-9.3127 69.663-5.0722z" display="none"/><path id="path4232-15-7" d="m979.35 183.26c-26.427 32.483-124.22 164.54-147.96 158.17l-15.826-4.2405 12.153-12.569 7.9128 2.1202c15.826 4.2405 123.65-133.04 140.05-160.3 12.573-20.906 3.6724 16.81 3.6724 16.81z" display="none"/><path id="path4234-7-70" d="m916.46 253.45 47.477 12.721-4.2405 14.689-55.39-14.842z" display="none"/><path id="path3281-0-0-9-1" fill="url(#radialGradient21305)" d="m128 64a64 64 0 1 1 -128 0 64 64 0 1 1 128 0z" display="none" transform="matrix(4.0239 1.0782 -1.0782 3.735 710.44 -81.379)"/><path id="path4230-0-7-1" d="m1001.5 165.47c-2.1202 7.3447-36.402 181.33-29.267 189.98 6.1765 7.4828 15.826 4.2405 17.946-3.1042-2.1202 7.3447-6.3607 22.034-8.4809 29.379-17.946 3.1042-33.92-0.81668-37.444-17.946-4.0713-19.793 27.134-182.59 29.267-189.98-4.7411-8.958-29.531-15.826-33.772-1.1362l-7.9128-2.1202c18.514-34.603 53.838-9.3127 69.663-5.0722z" display="none"/><path id="path4232-1-2-5" d="m979.35 183.26c-26.427 32.483-124.22 164.54-147.96 158.17l-15.826-4.2405 12.153-12.569 7.9128 2.1202c15.826 4.2405 123.65-133.04 140.05-160.3 12.573-20.906 3.6724 16.81 3.6724 16.81z" display="none"/><path id="path4234-6-8-5" d="m916.46 253.45 47.477 12.721-4.2405 14.689-55.39-14.842z" display="none"/><path id="path3281-0-0-1-7-4" fill="url(#radialGradient21305)" d="m128 64a64 64 0 1 1 -128 0 64 64 0 1 1 128 0z" display="none" transform="matrix(4.0239 1.0782 -1.0782 3.735 710.44 -81.379)"/><path id="path4230-8-6-3" d="m2408.5 423c-2.1203 7.3447-36.402 181.33-29.267 189.98 6.1765 7.4828 15.826 4.2405 17.946-3.1042-2.1203 7.3447-6.3607 22.034-8.481 29.379-17.946 3.1042-33.92-0.81668-37.444-17.946-4.0713-19.793 27.134-182.59 29.267-189.98-4.7412-8.958-29.531-15.826-33.772-1.1362l-7.9128-2.1202c18.514-34.603 53.838-9.3127 69.663-5.0722z" display="none"/><path id="path4232-9-5-1" d="m2386.3 440.8c-26.427 32.483-124.22 164.54-147.96 158.17l-15.826-4.2405 12.153-12.569 7.9128 2.1202c15.826 4.2405 123.65-133.04 140.05-160.3 12.573-20.906 3.6723 16.81 3.6723 16.81z" display="none"/><path id="path4234-5-7-8" d="m2323.4 510.99 47.477 12.721-4.2405 14.689-55.39-14.842z" display="none"/><path id="path3281-0-0-6-1-3" fill="url(#radialGradient21305)" d="m128 64a64 64 0 1 1 -128 0 64 64 0 1 1 128 0z" display="none" transform="matrix(4.0239 1.0782 -1.0782 3.735 2117.4 176.15)"/><path id="path4230-2-3" d="m1001.5 165.47c-2.1202 7.3447-36.402 181.33-29.267 189.98 6.1765 7.4828 15.826 4.2405 17.946-3.1042-2.1202 7.3447-6.3607 22.034-8.4809 29.379-17.946 3.1042-33.92-0.81668-37.444-17.946-4.0713-19.793 27.134-182.59 29.267-189.98-4.7411-8.958-29.531-15.826-33.772-1.1362l-7.9128-2.1202c18.514-34.603 53.838-9.3127 69.663-5.0722z" display="none"/><path id="path4232-16-7" d="m979.35 183.26c-26.427 32.483-124.22 164.54-147.96 158.17l-15.826-4.2405 12.153-12.569 7.9128 2.1202c15.826 4.2405 123.65-133.04 140.05-160.3 12.573-20.906 3.6724 16.81 3.6724 16.81z" display="none"/><path id="path4234-33-3" d="m916.46 253.45 47.477 12.721-4.2405 14.689-55.39-14.842z" display="none"/><path id="path3281-0-0-12-0" fill="url(#radialGradient21305)" d="m128 64a64 64 0 1 1 -128 0 64 64 0 1 1 128 0z" display="none" transform="matrix(4.0239 1.0782 -1.0782 3.735 710.44 -81.379)"/><path id="path4230-0-1-4" d="m1001.5 165.47c-2.1202 7.3447-36.402 181.33-29.267 189.98 6.1765 7.4828 15.826 4.2405 17.946-3.1042-2.1202 7.3447-6.3607 22.034-8.4809 29.379-17.946 3.1042-33.92-0.81668-37.444-17.946-4.0713-19.793 27.134-182.59 29.267-189.98-4.7411-8.958-29.531-15.826-33.772-1.1362l-7.9128-2.1202c18.514-34.603 53.838-9.3127 69.663-5.0722z" display="none"/><path id="path4232-1-1-0" d="m979.35 183.26c-26.427 32.483-124.22 164.54-147.96 158.17l-15.826-4.2405 12.153-12.569 7.9128 2.1202c15.826 4.2405 123.65-133.04 140.05-160.3 12.573-20.906 3.6724 16.81 3.6724 16.81z" display="none"/><path id="path4234-6-2-5" d="m916.46 253.45 47.477 12.721-4.2405 14.689-55.39-14.842z" display="none"/><path id="path3281-0-0-1-20-9" fill="url(#radialGradient21305)" d="m128 64a64 64 0 1 1 -128 0 64 64 0 1 1 128 0z" display="none" transform="matrix(4.0239 1.0782 -1.0782 3.735 710.44 -81.379)"/><path id="path4230-8-8-6" d="m2408.5 423c-2.1203 7.3447-36.402 181.33-29.267 189.98 6.1765 7.4828 15.826 4.2405 17.946-3.1042-2.1203 7.3447-6.3607 22.034-8.481 29.379-17.946 3.1042-33.92-0.81668-37.444-17.946-4.0713-19.793 27.134-182.59 29.267-189.98-4.7412-8.958-29.531-15.826-33.772-1.1362l-7.9128-2.1202c18.514-34.603 53.838-9.3127 69.663-5.0722z" display="none"/><path id="path4232-9-4-5" d="m2386.3 440.8c-26.427 32.483-124.22 164.54-147.96 158.17l-15.826-4.2405 12.153-12.569 7.9128 2.1202c15.826 4.2405 123.65-133.04 140.05-160.3 12.573-20.906 3.6723 16.81 3.6723 16.81z" display="none"/><path id="path4234-5-6-0" d="m2323.4 510.99 47.477 12.721-4.2405 14.689-55.39-14.842z" display="none"/><path id="path3281-0-0-6-7-5" fill="url(#radialGradient21305)" d="m128 64a64 64 0 1 1 -128 0 64 64 0 1 1 128 0z" display="none" transform="matrix(4.0239 1.0782 -1.0782 3.735 2117.4 176.15)"/><path id="path4230-07" d="m1001.5 165.47c-2.1202 7.3447-36.402 181.33-29.267 189.98 6.1765 7.4828 15.826 4.2405 17.946-3.1042-2.1202 7.3447-6.3607 22.034-8.4809 29.379-17.946 3.1042-33.92-0.81668-37.444-17.946-4.0713-19.793 27.134-182.59 29.267-189.98-4.7411-8.958-29.531-15.826-33.772-1.1362l-7.9128-2.1202c18.514-34.603 53.838-9.3127 69.663-5.0722z" display="none"/><path id="path4232-3-8" d="m979.35 183.26c-26.427 32.483-124.22 164.54-147.96 158.17l-15.826-4.2405 12.153-12.569 7.9128 2.1202c15.826 4.2405 123.65-133.04 140.05-160.3 12.573-20.906 3.6724 16.81 3.6724 16.81z" display="none"/><path id="path4234-9" d="m916.46 253.45 47.477 12.721-4.2405 14.689-55.39-14.842z" display="none"/><path id="path3281-0-0-08" fill="url(#radialGradient21305)" d="m128 64a64 64 0 1 1 -128 0 64 64 0 1 1 128 0z" display="none" transform="matrix(4.0239 1.0782 -1.0782 3.735 710.44 -81.379)"/><path id="path4230-0-2" d="m1001.5 165.47c-2.1202 7.3447-36.402 181.33-29.267 189.98 6.1765 7.4828 15.826 4.2405 17.946-3.1042-2.1202 7.3447-6.3607 22.034-8.4809 29.379-17.946 3.1042-33.92-0.81668-37.444-17.946-4.0713-19.793 27.134-182.59 29.267-189.98-4.7411-8.958-29.531-15.826-33.772-1.1362l-7.9128-2.1202c18.514-34.603 53.838-9.3127 69.663-5.0722z" display="none"/><path id="path4232-1-6" d="m979.35 183.26c-26.427 32.483-124.22 164.54-147.96 158.17l-15.826-4.2405 12.153-12.569 7.9128 2.1202c15.826 4.2405 123.65-133.04 140.05-160.3 12.573-20.906 3.6724 16.81 3.6724 16.81z" display="none"/><path id="path4234-6-83" d="m916.46 253.45 47.477 12.721-4.2405 14.689-55.39-14.842z" display="none"/><path id="path3281-0-0-1-6" fill="url(#radialGradient21305)" d="m128 64a64 64 0 1 1 -128 0 64 64 0 1 1 128 0z" display="none" transform="matrix(4.0239 1.0782 -1.0782 3.735 710.44 -81.379)"/><path id="path4230-8-68" d="m2408.5 423c-2.1203 7.3447-36.402 181.33-29.267 189.98 6.1765 7.4828 15.826 4.2405 17.946-3.1042-2.1203 7.3447-6.3607 22.034-8.481 29.379-17.946 3.1042-33.92-0.81668-37.444-17.946-4.0713-19.793 27.134-182.59 29.267-189.98-4.7412-8.958-29.531-15.826-33.772-1.1362l-7.9128-2.1202c18.514-34.603 53.838-9.3127 69.663-5.0722z" display="none"/><path id="path4232-9-7" d="m2386.3 440.8c-26.427 32.483-124.22 164.54-147.96 158.17l-15.826-4.2405 12.153-12.569 7.9128 2.1202c15.826 4.2405 123.65-133.04 140.05-160.3 12.573-20.906 3.6723 16.81 3.6723 16.81z" display="none"/><path id="path4234-5-29" d="m2323.4 510.99 47.477 12.721-4.2405 14.689-55.39-14.842z" display="none"/><path id="path3281-0-0-6-6" fill="url(#radialGradient21305)" d="m128 64a64 64 0 1 1 -128 0 64 64 0 1 1 128 0z" display="none" transform="matrix(4.0239 1.0782 -1.0782 3.735 2117.4 176.15)"/><path id="path4230-9-4" d="m1001.5 165.47c-2.1202 7.3447-36.402 181.33-29.267 189.98 6.1765 7.4828 15.826 4.2405 17.946-3.1042-2.1202 7.3447-6.3607 22.034-8.4809 29.379-17.946 3.1042-33.92-0.81668-37.444-17.946-4.0713-19.793 27.134-182.59 29.267-189.98-4.7411-8.958-29.531-15.826-33.772-1.1362l-7.9128-2.1202c18.514-34.603 53.838-9.3127 69.663-5.0722z" display="none"/><path id="path4232-0-6" d="m979.35 183.26c-26.427 32.483-124.22 164.54-147.96 158.17l-15.826-4.2405 12.153-12.569 7.9128 2.1202c15.826 4.2405 123.65-133.04 140.05-160.3 12.573-20.906 3.6724 16.81 3.6724 16.81z" display="none"/><path id="path4234-3-2" d="m916.46 253.45 47.477 12.721-4.2405 14.689-55.39-14.842z" display="none"/><path id="path3281-0-0-0-2" fill="url(#radialGradient21305)" d="m128 64a64 64 0 1 1 -128 0 64 64 0 1 1 128 0z" display="none" transform="matrix(4.0239 1.0782 -1.0782 3.735 710.44 -81.379)"/><path id="path4230-0-9-8" d="m1001.5 165.47c-2.1202 7.3447-36.402 181.33-29.267 189.98 6.1765 7.4828 15.826 4.2405 17.946-3.1042-2.1202 7.3447-6.3607 22.034-8.4809 29.379-17.946 3.1042-33.92-0.81668-37.444-17.946-4.0713-19.793 27.134-182.59 29.267-189.98-4.7411-8.958-29.531-15.826-33.772-1.1362l-7.9128-2.1202c18.514-34.603 53.838-9.3127 69.663-5.0722z" display="none"/><path id="path4232-1-3-9" d="m979.35 183.26c-26.427 32.483-124.22 164.54-147.96 158.17l-15.826-4.2405 12.153-12.569 7.9128 2.1202c15.826 4.2405 123.65-133.04 140.05-160.3 12.573-20.906 3.6724 16.81 3.6724 16.81z" display="none"/><path id="path4234-6-4-4" d="m916.46 253.45 47.477 12.721-4.2405 14.689-55.39-14.842z" display="none"/><path id="path3281-0-0-1-2-7" fill="url(#radialGradient21305)" d="m128 64a64 64 0 1 1 -128 0 64 64 0 1 1 128 0z" display="none" transform="matrix(4.0239 1.0782 -1.0782 3.735 710.44 -81.379)"/><path id="path4230-8-5-9" d="m2408.5 423c-2.1203 7.3447-36.402 181.33-29.267 189.98 6.1765 7.4828 15.826 4.2405 17.946-3.1042-2.1203 7.3447-6.3607 22.034-8.481 29.379-17.946 3.1042-33.92-0.81668-37.444-17.946-4.0713-19.793 27.134-182.59 29.267-189.98-4.7412-8.958-29.531-15.826-33.772-1.1362l-7.9128-2.1202c18.514-34.603 53.838-9.3127 69.663-5.0722z" display="none"/><path id="path4232-9-9-8" d="m2386.3 440.8c-26.427 32.483-124.22 164.54-147.96 158.17l-15.826-4.2405 12.153-12.569 7.9128 2.1202c15.826 4.2405 123.65-133.04 140.05-160.3 12.573-20.906 3.6723 16.81 3.6723 16.81z" display="none"/><path id="path4234-5-2-8" d="m2323.4 510.99 47.477 12.721-4.2405 14.689-55.39-14.842z" display="none"/><path id="path3281-0-0-6-9-6" fill="url(#radialGradient21305)" d="m128 64a64 64 0 1 1 -128 0 64 64 0 1 1 128 0z" display="none" transform="matrix(4.0239 1.0782 -1.0782 3.735 2117.4 176.15)"/><path id="path4230-5-6" d="m1001.5 165.47c-2.1202 7.3447-36.402 181.33-29.267 189.98 6.1765 7.4828 15.826 4.2405 17.946-3.1042-2.1202 7.3447-6.3607 22.034-8.4809 29.379-17.946 3.1042-33.92-0.81668-37.444-17.946-4.0713-19.793 27.134-182.59 29.267-189.98-4.7411-8.958-29.531-15.826-33.772-1.1362l-7.9128-2.1202c18.514-34.603 53.838-9.3127 69.663-5.0722z" display="none"/><path id="path4232-15-9" d="m979.35 183.26c-26.427 32.483-124.22 164.54-147.96 158.17l-15.826-4.2405 12.153-12.569 7.9128 2.1202c15.826 4.2405 123.65-133.04 140.05-160.3 12.573-20.906 3.6724 16.81 3.6724 16.81z" display="none"/><path id="path4234-7-7" d="m916.46 253.45 47.477 12.721-4.2405 14.689-55.39-14.842z" display="none"/><path id="path3281-0-0-9-6" fill="url(#radialGradient21305)" d="m128 64a64 64 0 1 1 -128 0 64 64 0 1 1 128 0z" display="none" transform="matrix(4.0239 1.0782 -1.0782 3.735 710.44 -81.379)"/><path id="path4230-0-7-4" d="m1001.5 165.47c-2.1202 7.3447-36.402 181.33-29.267 189.98 6.1765 7.4828 15.826 4.2405 17.946-3.1042-2.1202 7.3447-6.3607 22.034-8.4809 29.379-17.946 3.1042-33.92-0.81668-37.444-17.946-4.0713-19.793 27.134-182.59 29.267-189.98-4.7411-8.958-29.531-15.826-33.772-1.1362l-7.9128-2.1202c18.514-34.603 53.838-9.3127 69.663-5.0722z" display="none"/><path id="path4232-1-2-9" d="m979.35 183.26c-26.427 32.483-124.22 164.54-147.96 158.17l-15.826-4.2405 12.153-12.569 7.9128 2.1202c15.826 4.2405 123.65-133.04 140.05-160.3 12.573-20.906 3.6724 16.81 3.6724 16.81z" display="none"/><path id="path4234-6-8-7" d="m916.46 253.45 47.477 12.721-4.2405 14.689-55.39-14.842z" display="none"/><path id="path3281-0-0-1-7-3" fill="url(#radialGradient21305)" d="m128 64a64 64 0 1 1 -128 0 64 64 0 1 1 128 0z" display="none" transform="matrix(4.0239 1.0782 -1.0782 3.735 710.44 -81.379)"/><path id="path4230-8-6-7" d="m2408.5 423c-2.1203 7.3447-36.402 181.33-29.267 189.98 6.1765 7.4828 15.826 4.2405 17.946-3.1042-2.1203 7.3447-6.3607 22.034-8.481 29.379-17.946 3.1042-33.92-0.81668-37.444-17.946-4.0713-19.793 27.134-182.59 29.267-189.98-4.7412-8.958-29.531-15.826-33.772-1.1362l-7.9128-2.1202c18.514-34.603 53.838-9.3127 69.663-5.0722z" display="none"/><path id="path4232-9-5-4" d="m2386.3 440.8c-26.427 32.483-124.22 164.54-147.96 158.17l-15.826-4.2405 12.153-12.569 7.9128 2.1202c15.826 4.2405 123.65-133.04 140.05-160.3 12.573-20.906 3.6723 16.81 3.6723 16.81z" display="none"/><path id="path4234-5-7-7" d="m2323.4 510.99 47.477 12.721-4.2405 14.689-55.39-14.842z" display="none"/><path id="path3281-0-0-6-1-2" fill="url(#radialGradient21305)" d="m128 64a64 64 0 1 1 -128 0 64 64 0 1 1 128 0z" display="none" transform="matrix(4.0239 1.0782 -1.0782 3.735 2117.4 176.15)"/><path id="path4230-2-5" d="m1001.5 165.47c-2.1202 7.3447-36.402 181.33-29.267 189.98 6.1765 7.4828 15.826 4.2405 17.946-3.1042-2.1202 7.3447-6.3607 22.034-8.4809 29.379-17.946 3.1042-33.92-0.81668-37.444-17.946-4.0713-19.793 27.134-182.59 29.267-189.98-4.7411-8.958-29.531-15.826-33.772-1.1362l-7.9128-2.1202c18.514-34.603 53.838-9.3127 69.663-5.0722z" display="none"/><path id="path4232-16-0" d="m979.35 183.26c-26.427 32.483-124.22 164.54-147.96 158.17l-15.826-4.2405 12.153-12.569 7.9128 2.1202c15.826 4.2405 123.65-133.04 140.05-160.3 12.573-20.906 3.6724 16.81 3.6724 16.81z" display="none"/><path id="path4234-33-0" d="m916.46 253.45 47.477 12.721-4.2405 14.689-55.39-14.842z" display="none"/><path id="path3281-0-0-12-5" fill="url(#radialGradient21305)" d="m128 64a64 64 0 1 1 -128 0 64 64 0 1 1 128 0z" display="none" transform="matrix(4.0239 1.0782 -1.0782 3.735 710.44 -81.379)"/><path id="path4230-0-1-6" d="m1001.5 165.47c-2.1202 7.3447-36.402 181.33-29.267 189.98 6.1765 7.4828 15.826 4.2405 17.946-3.1042-2.1202 7.3447-6.3607 22.034-8.4809 29.379-17.946 3.1042-33.92-0.81668-37.444-17.946-4.0713-19.793 27.134-182.59 29.267-189.98-4.7411-8.958-29.531-15.826-33.772-1.1362l-7.9128-2.1202c18.514-34.603 53.838-9.3127 69.663-5.0722z" display="none"/><path id="path4232-1-1-5" d="m979.35 183.26c-26.427 32.483-124.22 164.54-147.96 158.17l-15.826-4.2405 12.153-12.569 7.9128 2.1202c15.826 4.2405 123.65-133.04 140.05-160.3 12.573-20.906 3.6724 16.81 3.6724 16.81z" display="none"/><path id="path4234-6-2-6" d="m916.46 253.45 47.477 12.721-4.2405 14.689-55.39-14.842z" display="none"/><path id="path3281-0-0-1-20-1" fill="url(#radialGradient21305)" d="m128 64a64 64 0 1 1 -128 0 64 64 0 1 1 128 0z" display="none" transform="matrix(4.0239 1.0782 -1.0782 3.735 710.44 -81.379)"/><path id="path4230-8-8-7" d="m2408.5 423c-2.1203 7.3447-36.402 181.33-29.267 189.98 6.1765 7.4828 15.826 4.2405 17.946-3.1042-2.1203 7.3447-6.3607 22.034-8.481 29.379-17.946 3.1042-33.92-0.81668-37.444-17.946-4.0713-19.793 27.134-182.59 29.267-189.98-4.7412-8.958-29.531-15.826-33.772-1.1362l-7.9128-2.1202c18.514-34.603 53.838-9.3127 69.663-5.0722z" display="none"/><path id="path4232-9-4-8" d="m2386.3 440.8c-26.427 32.483-124.22 164.54-147.96 158.17l-15.826-4.2405 12.153-12.569 7.9128 2.1202c15.826 4.2405 123.65-133.04 140.05-160.3 12.573-20.906 3.6723 16.81 3.6723 16.81z" display="none"/><path id="path4234-5-6-4" d="m2323.4 510.99 47.477 12.721-4.2405 14.689-55.39-14.842z" display="none"/><path id="path3281-0-0-6-7-2" fill="url(#radialGradient21305)" d="m128 64a64 64 0 1 1 -128 0 64 64 0 1 1 128 0z" display="none" transform="matrix(4.0239 1.0782 -1.0782 3.735 2117.4 176.15)"/><g id="layer2-2" display="none" transform="matrix(13.4 0 0 13.4 -857.64 -806.8)"><rect id="rect3745-0" width="86" height="85" x="5" y="7" fill="url(#ButtonShadow)" filter="url(#filter3174-1)" opacity=".9" rx="6" ry="6"/></g><g id="layer5" display="none" transform="matrix(13.4 0 0 13.4 -857.64 -806.8)"><rect id="rect3171" width="66" height="66" x="15" y="15" fill="url(#linearGradient3613)" stroke="#fff" stroke-linecap="round" stroke-width=".5" clip-path="url(#clipPath3613)" filter="url(#filter3794)" opacity=".1" rx="12" ry="12"/></g><path id="path11-7" fill="#a4a4a4" fill-rule="evenodd" stroke="#00b2de" d="m471.95 253.05c0 120.9-98.01 218.9-218.9 218.9-120.9 0-218.9-98.01-218.9-218.9 0-120.9 98.01-218.9 218.9-218.9 120.9 0 218.9 98.01 218.9 218.9"/><path id="path10190" fill="#d23638" d="m72.531 129.22c-24.207 35.219-38.375 77.877-38.375 123.84 0 120.89 98.006 218.88 218.91 218.88 9.1336 0 18.129-0.56981 26.969-1.6562l-24.094-89.875c-27.45-100.88-8.97-53.58-19.37-56.03-38.7-9.11-52.44-36.22-44.18-82.91 2.87-16.26-5.83-13.98-30.9-24.21l-17.156-34.312z"/><path id="path10185" fill="#1086bc" d="m450.94 159.34-100.5 58.031c-35.29 20.375-64.057-24.17-90.046-25.225-65.572-2.6613-97.354 32.249-58.882 99.368 6.9853 12.187 28.511 21.078 38.231 35.78 4.5191 6.8354 11.149 45.739 16.227 53.108l24.094 89.875c108.15-13.307 191.88-105.46 191.88-217.22 0-33.533-7.5221-65.31-21-93.719z"/><path id="path10176" fill="#68af4c" d="m253.06 34.156c-86.28 0-160.9 49.931-196.56 122.46l106.12 61.281c32.277 18.635 24.088 10.664 36.349 14.266 45.64-60.787 75.143-40.182 76.271-42.804 1.8047-4.9424 39.869 46.451 39.869 46.451l35.64-18.34 100.28-57.91c-35.07-74.121-110.52-125.4-197.97-125.4z"/><path id="path15-5" fill-opacity=".067" fill-rule="evenodd" d="m256 1c-140.83 0-255 114.17-255 255s114.17 255 255 255 255-114.17 255-255-114.17-255-255-255m8.827 44.931c120.9 0 218.9 98 218.9 218.9s-98 218.9-218.9 218.9-218.93-98-218.93-218.9 98.03-218.9 218.93-218.9"/><path id="path19-4" fill-opacity=".129" fill-rule="evenodd" d="m256 4.43c-138.94 0-251.57 112.63-251.57 251.57s112.63 251.57 251.57 251.57 251.57-112.63 251.57-251.57-112.63-251.57-251.57-251.57m5.885 38.556c120.9 0 218.9 98 218.9 218.9s-98 218.9-218.9 218.9-218.93-98-218.93-218.9 98.03-218.9 218.93-218.9"/><path id="path21-5" fill-opacity=".129" fill-rule="evenodd" d="m256 8.36c-136.77 0-247.64 110.87-247.64 247.64s110.87 247.64 247.64 247.64 247.64-110.87 247.64-247.64-110.87-247.64-247.64-247.64m2.942 31.691c120.9 0 218.9 98 218.9 218.9s-98 218.9-218.9 218.9-218.93-98-218.93-218.9 98.03-218.9 218.93-218.9"/><path id="path23-9" fill="#fff" fill-rule="evenodd" stroke="#000" stroke-opacity=".31" stroke-width="4.904" d="m253.04 7.86c-135.42 0-245.19 109.78-245.19 245.19 0 135.42 109.78 245.19 245.19 245.19 135.42 0 245.19-109.78 245.19-245.19 0-135.42-109.78-245.19-245.19-245.19zm0 26.297c120.9 0 218.9 98 218.9 218.9s-98 218.9-218.9 218.9-218.93-98-218.93-218.9 98.03-218.9 218.93-218.9z"/><path id="path11084" d="m256 68.969c-52.39 0-94.84 42.321-94.84 94.531 0 2.92 0.11 5.77 0.37 8.62l31.78 31.79c-14.67 17.23-22.73 40.19-19.4 62.56l-35.63-35.63c-32.56 14.98-55.155 47.8-55.155 85.88 0 26.05 10.558 49.62 27.655 66.72l79.28 79.28c19.96 5.99 41.1 9.22 63 9.22 120.89 0 218.88-97.98 218.88-218.88 0-2.55-0.04-5.09-0.13-7.62l-147.06-147.06-1.56-1.599c-17.17-17.171-40.94-27.812-67.19-27.812z" opacity=".25"/><path id="path10884" fill="#fff" d="m256 68.969c-52.388 0-94.844 42.324-94.844 94.531 0 2.9191 0.11516 5.7734 0.375 8.625 12.075-5.5513 25.517-8.625 39.688-8.625 6.6357 0 13.156 0.67702 19.406 1.9688-0.0367-0.65509-0.0937-1.3046-0.0937-1.9688 0-19.519 15.883-35.375 35.469-35.375s35.469 15.856 35.469 35.375c0 0.66419-0.0571 1.3136-0.0937 1.9688 6.2511-1.2917 12.739-1.9688 19.375-1.9688 14.171 0 27.644 3.0737 39.719 8.625 0.25984-2.8516 0.375-5.7059 0.375-8.625 0-52.207-42.456-94.531-94.844-94.531zm-4.84 106.78c-49.283-0.38262-89.909 54.119-74.812 101.25 11.602 45.531 67.82 73.445 110.56 52 7.5808-3.5743 16.261-8.7228 20.938-15.094-15.456-14.282 0.0294 0.0942-15.719-14.219-30.517 28.07-88.108 10.402-94.75-31.375-6.8344-30.688 14.371-65.305 46.406-69.281 17.582-3.1229 36.51 2.0825 49.438 14.469-6.2992 6.354-12.64 12.606-19.031 18.875 21.334 4.3946 40.467 8.0142 64.156 12.406-12.985-63.067-9.659-45.469-13.469-63.469-6.0132 5.1783-5.1633 3.8195-17.438 16.094-14.29-15.4-35.76-22.14-56.28-21.66zm121.34 47.75c-1.8922 20.784-10.558 39.641-23.75 54.344 11.561 5.8234 19.5 17.74 19.5 31.531 0 19.519-15.851 35.344-35.438 35.344-7.1661 0-13.86-2.1077-19.438-5.75-6.4082 19.41-18.916 36.051-35.312 47.625 15.467 10.913 34.356 17.312 54.75 17.312 52.388 0 94.844-42.324 94.844-94.531 0-38.08-22.599-70.901-55.156-85.875zm-234.22 7.3438c-32.558 14.974-55.156 47.795-55.156 85.875 0 52.207 42.456 94.531 94.844 94.531 20.394 0 39.283-6.399 54.75-17.312-16.396-11.574-28.904-28.215-35.312-47.625-5.5772 3.6423-12.271 5.75-19.438 5.75-19.586 0-35.438-15.825-35.438-35.344 0-13.791 7.9394-25.708 19.5-31.531-13.192-14.702-21.858-33.56-23.75-54.344z"/></svg>