<svg xmlns="http://www.w3.org/2000/svg" id="svg2" width="100%" height="100%" version="1.1" viewBox="0 0 512 512"><metadata id="metadata581"/><defs id="defs4"><linearGradient id="0" x2="0" y1="33.753" y2="471.66" gradientUnits="userSpaceOnUse"><stop id="stop7" offset="0" stop-color="#6a6a6a"/><stop id="stop9" offset=".47"/><stop id="stop11" offset=".494" stop-color="#fff"/><stop id="stop13" offset=".901" stop-color="#fff"/><stop id="stop15" offset=".955"/><stop id="stop17" offset="1"/></linearGradient></defs><g id="g19" fill-rule="evenodd"><path id="path21" fill="#6997c7" d="m471.95 253.05c0 120.9-98.01 218.91-218.91 218.91s-218.91-98.01-218.91-218.91 98.01-218.91 218.91-218.91 218.91 98.01 218.91 218.91"/><path id="path23" fill="url(#0)" d="m471.95 253.05c0 120.9-98.01 218.91-218.91 218.91s-218.91-98.01-218.91-218.91 98.01-218.91 218.91-218.91 218.91 98.01 218.91 218.91" opacity=".05"/><path id="path25" d="m249.59 34.19c-8.912 0.137-17.689 0.797-26.313 1.969l246.66 246.66c1.172-8.62 1.831-17.404 1.969-26.313l-222.31-222.31m29.844 1.563 190.94 190.94c-1.466-12.221-3.949-24.11-7.344-35.625l-148-148c-11.5-3.395-23.4-5.851-35.6-7.319m-79.875 4.969c-7.363 1.849-14.579 4.083-21.625 6.656l280.78 280.78c2.574-7.05 4.807-14.262 6.656-21.625l-265.81-265.81m-41.531 15.03c-6.281 3.03-12.383 6.374-18.313 9.969l300.66 300.66c3.595-5.93 6.939-12.03 9.969-18.313l-292.32-292.31m207.41 9.438 75.5 75.5c-18.556-30.965-44.539-56.939-75.5-75.5m-242.62 11.906c-5.39 3.996-10.6 8.224-15.594 12.688l309.09 309.09c4.463-4.994 8.692-10.204 12.688-15.594l-306.19-306.2m-29.875 26.688c-4.564 4.892-8.895 9.986-13 15.281l307.09 307.09c5.29-4.101 10.393-8.441 15.281-13l-309.37-309.37m-24.688 31.875c-3.702 5.815-7.13 11.829-10.281 18l294.47 294.47c6.171-3.151 12.185-6.579 18-10.281l-302.19-302.18m-19.06 37.5c-2.706 6.9-5.088 13.967-7.094 21.19l269.66 269.66c7.221-2.01 14.288-4.387 21.19-7.094l-283.75-283.76m-12.156 44.41c-1.368 8.386-2.301 16.917-2.688 25.594l228.56 228.56c8.688-0.385 17.229-1.287 25.625-2.656l-251.5-251.5m-2.063 54.5c0.997 11.588 2.894 22.905 5.625 33.906l159.53 159.53c11 2.731 22.319 4.628 33.906 5.625l-199.07-199.06m22.16 78.72c21.2 42.43 55.76 76.985 98.19 98.19l-98.19-98.19" opacity="0"/><path id="path27" fill-opacity=".067" d="m256 1c-140.83 0-255 114.17-255 255s114.17 255 255 255 255-114.17 255-255-114.17-255-255-255m8.827 44.931c120.9 0 218.9 98 218.9 218.9s-98 218.9-218.9 218.9-218.93-98-218.93-218.9 98.03-218.9 218.93-218.9"/><g id="g29" fill-opacity=".129"><path id="path31" d="m256 4.43c-138.94 0-251.57 112.63-251.57 251.57s112.63 251.57 251.57 251.57 251.57-112.63 251.57-251.57-112.63-251.57-251.57-251.57m5.885 38.556c120.9 0 218.9 98 218.9 218.9s-98 218.9-218.9 218.9-218.93-98-218.93-218.9 98.03-218.9 218.93-218.9"/><path id="path33" d="m256 8.36c-136.77 0-247.64 110.87-247.64 247.64s110.87 247.64 247.64 247.64 247.64-110.87 247.64-247.64-110.87-247.64-247.64-247.64m2.942 31.691c120.9 0 218.9 98 218.9 218.9s-98 218.9-218.9 218.9-218.93-98-218.93-218.9 98.03-218.9 218.93-218.9"/></g><path id="path35" fill="#fff" stroke="#000" stroke-opacity=".31" stroke-width="4.904" d="m253.04 7.86c-135.42 0-245.19 109.78-245.19 245.19 0 135.42 109.78 245.19 245.19 245.19 135.42 0 245.19-109.78 245.19-245.19 0-135.42-109.78-245.19-245.19-245.19zm0 26.297c120.9 0 218.9 98 218.9 218.9s-98 218.9-218.9 218.9-218.93-98-218.93-218.9 98.03-218.9 218.93-218.9z"/></g><path id="path415" fill-opacity=".235" d="m157.47 133.19v17.313h1v1h1v1h1v1h0.969v0.969h1v1h1v1h1v1h1v1h1v1h0.969v0.969h1v1h1v1h1v1h1v0.188h-13.94v125.22h1v1h1v1h1v1h0.969v0.969h1v1h1v1h1v1h1v1h1v1h0.969v0.969h1v1h1v1h1v1h1v1h1v1h0.969v0.969h1v1h1v1h1v1h1v1h1v1h0.969v0.969h1v1h1v1h1v1h1v1h1v1h1v1h0.969v0.969h1v1h1v1h1v1h1v1h1v1h0.969v0.969h1v1h1v1h1v0.5h-70.62v52.656h1v1h1v1h1v1h0.969v0.969h1v1h1v1h1v1h1v1h1v1h0.969v0.969h1v1h1v1h1v1h1v1h1v1h0.969v0.969h1v1h1v1h1v1h1v1h1v1h0.969v0.969h1v1h1v1h1v1h1v1h1v1h1v1h0.969v0.969h1v1h1v1h1v1h1v1h1v1h0.969v0.969h1v1h1v1h1v1h1v1h1v1h0.969v0.969h1v1h1v1h1v1h1v1h1v1h1v1h0.969v0.969h1v1h1v1h1v1h1v1h1v1h0.969v0.969h1v1h1v1h1v1h1v1h1v1h0.969v0.969h1v1h1v1h1v1h1v1h1v1h0.969v0.969h1v1h1v1h1v1h1v1h1v1h1v1h0.969v0.969h1v1h1v1h1v1h1v1h1v1h0.969v0.969h1v1h1v1h1v1h1v1h1v1h0.969v0.969h1v1h1v1h1v1h1v1h1v1h1v0.313c12.285 2.14 24.915 3.281 37.813 3.281 120.9 0 218.91-98.01 218.91-218.91 0-4.16-0.115-8.304-0.344-12.406h-0.125v-1h-1v-1h-1v-1h-1v-1h-0.969v-0.969h-1v-1h-1v-1h-1v-1h-1v-1h-1v-1h-0.969v-0.969h-1v-1h-1v-1h-1v-1h-1v-1h-1v-1h-0.969v-0.969h-1v-1h-1v-1h-1v-1h-1v-1h-1v-1h-1v-1h-0.969v-0.969h-1v-1h-1v-1h-1v-1h-1v-1h-1v-1h-0.969v-0.969h-1v-1h-1v-1h-1v-1h-1v-1h-1v-1h-0.969v-0.969h-1v-1h-1v-1h-1v-1h-1v-1h-1v-1h-1v-1h-0.969v-0.969h-1v-1h-1v-1h-1v-1h-1v-1h-1v-1h-0.969v-0.969h-1v-1h-1v-1h-1v-1h-1v-1h-1v-1h-0.969v-0.969h-1v-1h-1v-1h-1v-1h-1v-1h-1v-1h-0.969v-0.969h-1v-1h-1v-1h-1v-1h-1v-1h-1v-1h-1v-1h-0.969v-0.969h-1v-1h-1v-1h-1v-1h-1v-1h-1v-1h-0.969v-0.969h-1v-1h-1v-1h-1v-1h-1v-1h-1v-1h-0.969v-0.969h-1v-1h-1v-1h-1v-1h-1v-1h-1v-1h-1v-1h-0.969v-0.969h-1v-1h-1v-1h-1v-1h-1v-1h-1v-1h-0.969v-0.969h-1v-1h-1v-1h-1v-1h-1v-1h-1v-1h-0.969v-0.969h-1v-1h-1v-1h-1v-1h-1v-1h-1v-1h-0.969v-0.969h-1v-1h-1v-1h-1v-1h-207.53" style="color:#000"/><g id="g463" fill="#fff" transform="translate(.281 12.29)" style="color:#000"><path id="path465" d="m124.37 313.87v52.64h262.7v-52.64h-262.7m49.38 11.753c8.532 0 15.449 6.917 15.449 15.449s-6.917 15.449-15.449 15.449-15.449-6.917-15.449-15.449 6.917-15.449 15.449-15.449m54.671 0c8.532 0 15.449 6.917 15.449 15.449s-6.917 15.449-15.449 15.449-15.449-6.917-15.449-15.449 6.917-15.449 15.449-15.449m54.638 0c8.532 0 15.449 6.917 15.449 15.449s-6.917 15.449-15.449 15.449-15.449-6.917-15.449-15.449 6.917-15.449 15.449-15.449m54.638 0c8.532 0 15.449 6.917 15.449 15.449s-6.917 15.449-15.449 15.449-15.449-6.917-15.449-15.449 6.917-15.449 15.449-15.449"/><path id="path467" d="m157.2 151.34v125.2h207.5v-125.2h-207.5"/><path id="path469" d="m157.19 120.91h207.51v17.293h-207.51z"/></g></svg>