<svg xmlns="http://www.w3.org/2000/svg" viewBox="0 0 512 512"><g fill-rule="evenodd"><path fill="#4a789c" d="m471.95 253.05c0 120.9-98.01 218.91-218.91 218.91s-218.91-98.01-218.91-218.91 98.01-218.91 218.91-218.91 218.91 98.01 218.91 218.91"/><path fill-opacity=".067" d="m256 1c-140.83 0-255 114.17-255 255s114.17 255 255 255 255-114.17 255-255-114.17-255-255-255m8.827 44.931c120.9 0 218.9 98 218.9 218.9s-98 218.9-218.9 218.9-218.93-98-218.93-218.9 98.03-218.9 218.93-218.9"/><g fill-opacity=".129"><path d="m256 4.43c-138.94 0-251.57 112.63-251.57 251.57s112.63 251.57 251.57 251.57 251.57-112.63 251.57-251.57-112.63-251.57-251.57-251.57m5.885 38.556c120.9 0 218.9 98 218.9 218.9s-98 218.9-218.9 218.9-218.93-98-218.93-218.9 98.03-218.9 218.93-218.9"/><path d="m256 8.36c-136.77 0-247.64 110.87-247.64 247.64s110.87 247.64 247.64 247.64 247.64-110.87 247.64-247.64-110.87-247.64-247.64-247.64m2.942 31.691c120.9 0 218.9 98 218.9 218.9s-98 218.9-218.9 218.9-218.93-98-218.93-218.9 98.03-218.9 218.93-218.9"/></g><path fill="#fff" stroke="#000" stroke-opacity=".31" stroke-width="4.904" d="m253.04 7.86c-135.42 0-245.19 109.78-245.19 245.19 0 135.42 109.78 245.19 245.19 245.19 135.42 0 245.19-109.78 245.19-245.19 0-135.42-109.78-245.19-245.19-245.19m0 26.297c120.9 0 218.9 98 218.9 218.9s-98 218.9-218.9 218.9-218.93-98-218.93-218.9 98.03-218.9 218.93-218.9z"/></g><path d="m249.49 130.38c-72.37 0-131.05 58.674-131.05 131.05 0 36.19 14.669 68.951 38.38 92.67l116.89 116.89c111.2-10.421 198.23-104.01 198.23-217.93 0-6.486-0.299-12.902-0.852-19.244l-96.99-96.99c-3.983-3.983-9.493-6.439-15.598-6.439h-104.07c-0.569 0-1.104 0.126-1.662 0.16-1.099 0-2.168-0.16-3.273-0.16" opacity=".25"/><path fill="#fff" d="m249.49 130.37c-72.37 0-131.05 58.674-131.05 131.05 0 72.38 58.675 131.05 131.05 131.05 72.37 0 131.05-58.674 131.05-131.05 0-1.105-0.139-2.175-0.166-3.275 0.042-0.562 0.166-1.093 0.166-1.662v-104.07c0-12.209-9.829-22.04-22.04-22.04h-104.07c-0.569 0-1.104 0.128-1.662 0.162-1.099 0-2.169-0.162-3.274-0.162"/></svg>