<?xml version="1.0" encoding="UTF-8" standalone="no"?>
<!-- Created with Inkscape (http://www.inkscape.org/) -->

<svg
   xmlns:dc="http://purl.org/dc/elements/1.1/"
   xmlns:cc="http://creativecommons.org/ns#"
   xmlns:rdf="http://www.w3.org/1999/02/22-rdf-syntax-ns#"
   xmlns:svg="http://www.w3.org/2000/svg"
   xmlns="http://www.w3.org/2000/svg"
   xmlns:sodipodi="http://sodipodi.sourceforge.net/DTD/sodipodi-0.dtd"
   xmlns:inkscape="http://www.inkscape.org/namespaces/inkscape"
   version="1.1"
   width="100%"
   height="100%"
   viewBox="0 0 512 512"
   id="svg2"
   inkscape:version="0.91+devel r13804 custom"
   sodipodi:docname="dukto.svg">
  <sodipodi:namedview
     pagecolor="#ffffff"
     bordercolor="#666666"
     borderopacity="1"
     objecttolerance="10"
     gridtolerance="10"
     guidetolerance="10"
     inkscape:pageopacity="0"
     inkscape:pageshadow="2"
     inkscape:window-width="1366"
     inkscape:window-height="709"
     id="namedview79"
     showgrid="false"
     inkscape:zoom="0.4609375"
     inkscape:cx="340.61017"
     inkscape:cy="139.9322"
     inkscape:window-x="-2"
     inkscape:window-y="-3"
     inkscape:window-maximized="1"
     inkscape:current-layer="svg2" />
  <metadata
     id="metadata70">
    <rdf:RDF>
      <cc:Work
         rdf:about="">
        <dc:format>image/svg+xml</dc:format>
        <dc:type
           rdf:resource="http://purl.org/dc/dcmitype/StillImage" />
        <dc:title></dc:title>
      </cc:Work>
    </rdf:RDF>
  </metadata>
  <defs
     id="defs68" />
  <text
     x="729.64001"
     y="231.35997"
     id="text20"
     style="font-size:129.22999573px;line-height:125%;letter-spacing:0;word-spacing:0;font-family:Gentium Book Basic">
    <tspan
       x="729.64001"
       y="231.35997"
       id="tspan22" />
  </text>
  <text
     x="378.90805"
     y="579.25812"
     transform="scale(4.0128205,0.24920128)"
     id="text24"
     style="font-size:46.95375824px;text-anchor:middle;font-family:Arial" />
  <text
     x="1310.91"
     y="151.35997"
     id="text26"
     style="font-size:129.22999573px;line-height:125%;letter-spacing:0;word-spacing:0;font-family:Gentium Book Basic">
    <tspan
       x="1310.91"
       y="151.35997"
       id="tspan28" />
  </text>
  <text
     x="523.75732"
     y="258.21997"
     transform="scale(4.0128205,0.24920128)"
     id="text30"
     style="font-size:46.95375824px;text-anchor:middle;font-family:Arial" />
  <text
     x="239.33"
     y="-29.900009"
     id="text32"
     style="font-size:129.22999573px;line-height:125%;letter-spacing:0;word-spacing:0;font-family:Gentium Book Basic">
    <tspan
       x="239.33"
       y="-29.900009"
       id="tspan34" />
  </text>
  <text
     x="256.71869"
     y="-469.1264"
     transform="scale(4.0128205,0.24920128)"
     id="text36"
     style="font-size:46.95375824px;text-anchor:middle;font-family:Arial" />
  <text
     x="1337.38"
     y="-246.37001"
     id="text38"
     style="font-size:129.22999573px;line-height:125%;letter-spacing:0;word-spacing:0;font-family:Gentium Book Basic">
    <tspan
       x="1337.38"
       y="-246.37001"
       id="tspan40" />
  </text>
  <text
     x="530.3573"
     y="-1337.802"
     transform="scale(4.0128205,0.24920128)"
     id="text42"
     style="font-size:46.95375824px;text-anchor:middle;font-family:Arial" />
  <text
     x="1918.65"
     y="-326.37"
     id="text44"
     style="font-size:129.22999573px;line-height:125%;letter-spacing:0;word-spacing:0;font-family:Gentium Book Basic">
    <tspan
       x="1918.65"
       y="-326.37"
       id="tspan46" />
  </text>
  <text
     x="675.20654"
     y="-1658.8303"
     transform="scale(4.0128205,0.24920128)"
     id="text48"
     style="font-size:46.95375824px;text-anchor:middle;font-family:Arial" />
  <text
     x="1529.53"
     y="-798.77002"
     id="text50"
     style="font-size:129.22999573px;line-height:125%;letter-spacing:0;word-spacing:0;font-family:Gentium Book Basic">
    <tspan
       x="1529.53"
       y="-798.77002"
       id="tspan52" />
  </text>
  <text
     x="578.237"
     y="-3554.4807"
     transform="scale(4.0128205,0.24920128)"
     id="text54"
     style="font-size:46.95375824px;text-anchor:middle;font-family:Arial" />
  <text
     x="2110.79"
     y="-878.78003"
     id="text56"
     style="font-size:129.22999573px;line-height:125%;letter-spacing:0;word-spacing:0;font-family:Gentium Book Basic">
    <tspan
       x="2110.79"
       y="-878.78003"
       id="tspan58" />
  </text>
  <text
     x="723.0863"
     y="-3875.519"
     transform="scale(4.0128205,0.24920128)"
     id="text60"
     style="font-size:46.95375824px;text-anchor:middle;font-family:Arial" />
  <text
     x="277.98999"
     y="535.94006"
     id="text62"
     style="font-size:208.33000183px;line-height:125%;letter-spacing:0;word-spacing:0;font-family:Gentium Book Basic">
    <tspan
       x="277.98999"
       y="535.94006"
       id="tspan64" />
  </text>
  <path
     style="fill:#4ca039;fill-opacity:1;fill-rule:evenodd"
     inkscape:connector-curvature="0"
     id="path8-4"
     d="m 471.9456,253.05189 c 0,120.89699 -98.00565,218.90724 -218.90724,218.90724 -120.89698,0 -218.90723,-98.00566 -218.90723,-218.90724 0,-120.89698 98.00565,-218.907232 218.90723,-218.907232 120.89699,0 218.90724,98.005652 218.90724,218.907232" />
  <path
     style="fill-opacity:0.06700003;fill-rule:evenodd"
     inkscape:connector-curvature="0"
     id="path10-6"
     d="M 256,1 C 115.17,1 1,115.17 1,256 1,396.83 115.17,511 256,511 396.83,511 511,396.83 511,256 511,115.17 396.83,1 256,1 m 8.827,44.931 c 120.9,0 218.9,98 218.9,218.9 0,120.9 -98,218.9 -218.9,218.9 -120.9,0 -218.93,-98 -218.93,-218.9 0,-120.9 98.03,-218.9 218.93,-218.9" />
  <path
     d="M 256,4.43 C 117.06,4.43 4.43,117.06 4.43,256 4.43,394.94 117.06,507.57 256,507.57 394.94,507.57 507.57,394.94 507.57,256 507.57,117.06 394.94,4.43 256,4.43 m 5.885,38.556 c 120.9,0 218.9,98 218.9,218.9 0,120.9 -98,218.9 -218.9,218.9 -120.9,0 -218.93,-98 -218.93,-218.9 0,-120.9 98.03,-218.9 218.93,-218.9"
     id="path14-0"
     inkscape:connector-curvature="0"
     style="fill-opacity:0.12900002;fill-rule:evenodd" />
  <path
     d="M 256,8.36 C 119.23,8.36 8.36,119.23 8.36,256 8.36,392.77 119.23,503.64 256,503.64 392.77,503.64 503.64,392.77 503.64,256 503.64,119.23 392.77,8.36 256,8.36 m 2.942,31.691 c 120.9,0 218.9,98 218.9,218.9 0,120.9 -98,218.9 -218.9,218.9 -120.9,0 -218.93,-98 -218.93,-218.9 0,-120.9 98.03,-218.9 218.93,-218.9"
     id="path16-9"
     inkscape:connector-curvature="0"
     style="fill-opacity:0.12900002;fill-rule:evenodd" />
  <path
     style="fill:#ffffff;fill-rule:evenodd;stroke:#000000;stroke-width:4.90399981;stroke-opacity:0.31000001"
     inkscape:connector-curvature="0"
     id="path18-9"
     d="M 253.04,7.86 C 117.62,7.86 7.85,117.64 7.85,253.05 c 0,135.42 109.78,245.19 245.19,245.19 135.42,0 245.19,-109.78 245.19,-245.19 C 498.23,117.63 388.45,7.86 253.04,7.86 Z m 0,26.297 c 120.9,0 218.9,98 218.9,218.9 0,120.9 -98,218.9 -218.9,218.9 -120.9,0 -218.93,-98 -218.93,-218.9 0,-120.9 98.03,-218.9 218.93,-218.9 z" />
  <text
     font-size="129.23"
     letter-spacing="0"
     line-height="125%"
     word-spacing="0"
     x="729.64001"
     y="231.35997"
     id="text20-9"
     sodipodi:linespacing="125%"
     style="font-size:129.22999573px;line-height:125%;font-family:'Gentium Book Basic';letter-spacing:0;word-spacing:0">
    <tspan
       x="729.64001"
       y="231.35997"
       id="tspan22-8" />
  </text>
  <text
     x="378.90805"
     y="579.25812"
     font-size="46.954"
     transform="scale(4.0128205,0.24920128)"
     id="text24-3"
     style="font-size:46.95375824px;font-family:Arial;text-anchor:middle" />
  <text
     font-size="129.23"
     letter-spacing="0"
     line-height="125%"
     word-spacing="0"
     x="1310.91"
     y="151.35997"
     id="text26-28"
     sodipodi:linespacing="125%"
     style="font-size:129.22999573px;line-height:125%;font-family:'Gentium Book Basic';letter-spacing:0;word-spacing:0">
    <tspan
       x="1310.91"
       y="151.35997"
       id="tspan28-5" />
  </text>
  <text
     x="523.75732"
     y="258.21997"
     font-size="46.954"
     transform="scale(4.0128205,0.24920128)"
     id="text30-3"
     style="font-size:46.95375824px;font-family:Arial;text-anchor:middle" />
  <text
     font-size="129.23"
     letter-spacing="0"
     line-height="125%"
     word-spacing="0"
     x="239.33"
     y="-29.900009"
     id="text32-0"
     sodipodi:linespacing="125%"
     style="font-size:129.22999573px;line-height:125%;font-family:'Gentium Book Basic';letter-spacing:0;word-spacing:0">
    <tspan
       x="239.33"
       y="-29.900009"
       id="tspan34-0" />
  </text>
  <text
     x="256.71869"
     y="-469.1264"
     font-size="46.954"
     transform="scale(4.0128205,0.24920128)"
     id="text36-89"
     style="font-size:46.95375824px;font-family:Arial;text-anchor:middle" />
  <text
     font-size="129.23"
     letter-spacing="0"
     line-height="125%"
     word-spacing="0"
     x="1337.38"
     y="-246.37001"
     id="text38-77"
     sodipodi:linespacing="125%"
     style="font-size:129.22999573px;line-height:125%;font-family:'Gentium Book Basic';letter-spacing:0;word-spacing:0">
    <tspan
       x="1337.38"
       y="-246.37001"
       id="tspan40-9" />
  </text>
  <text
     x="530.3573"
     y="-1337.802"
     font-size="46.954"
     transform="scale(4.0128205,0.24920128)"
     id="text42-3"
     style="font-size:46.95375824px;font-family:Arial;text-anchor:middle" />
  <text
     font-size="129.23"
     letter-spacing="0"
     line-height="125%"
     word-spacing="0"
     x="1918.65"
     y="-326.37"
     id="text44-6"
     sodipodi:linespacing="125%"
     style="font-size:129.22999573px;line-height:125%;font-family:'Gentium Book Basic';letter-spacing:0;word-spacing:0">
    <tspan
       x="1918.65"
       y="-326.37"
       id="tspan46-5" />
  </text>
  <text
     x="675.20654"
     y="-1658.8303"
     font-size="46.954"
     transform="scale(4.0128205,0.24920128)"
     id="text48-9"
     style="font-size:46.95375824px;font-family:Arial;text-anchor:middle" />
  <text
     font-size="129.23"
     letter-spacing="0"
     line-height="125%"
     word-spacing="0"
     x="1529.53"
     y="-798.77002"
     id="text50-0"
     sodipodi:linespacing="125%"
     style="font-size:129.22999573px;line-height:125%;font-family:'Gentium Book Basic';letter-spacing:0;word-spacing:0">
    <tspan
       x="1529.53"
       y="-798.77002"
       id="tspan52-56" />
  </text>
  <text
     x="578.237"
     y="-3554.4807"
     font-size="46.954"
     transform="scale(4.0128205,0.24920128)"
     id="text54-9"
     style="font-size:46.95375824px;font-family:Arial;text-anchor:middle" />
  <text
     font-size="129.23"
     letter-spacing="0"
     line-height="125%"
     word-spacing="0"
     x="2110.79"
     y="-878.78003"
     id="text56-7"
     sodipodi:linespacing="125%"
     style="font-size:129.22999573px;line-height:125%;font-family:'Gentium Book Basic';letter-spacing:0;word-spacing:0">
    <tspan
       x="2110.79"
       y="-878.78003"
       id="tspan58-7" />
  </text>
  <text
     x="723.0863"
     y="-3875.519"
     font-size="46.954"
     transform="scale(4.0128205,0.24920128)"
     id="text60-3"
     style="font-size:46.95375824px;font-family:Arial;text-anchor:middle" />
  <text
     font-size="208.33"
     letter-spacing="0"
     line-height="125%"
     word-spacing="0"
     x="277.98999"
     y="535.94006"
     id="text62-9"
     sodipodi:linespacing="125%"
     style="font-size:208.33000183px;line-height:125%;font-family:'Gentium Book Basic';letter-spacing:0;word-spacing:0">
    <tspan
       x="277.98999"
       y="535.94006"
       id="tspan64-1" />
  </text>
  <g
     style="font-style:normal;font-variant:normal;font-weight:bold;font-stretch:normal;font-size:15.97661114px;line-height:125%;font-family:Vemana2000;-inkscape-font-specification:'Vemana2000 Bold';letter-spacing:0px;word-spacing:0px;fill:#000000;fill-opacity:1;stroke:none"
     id="text966"
     transform="matrix(5.4104271,0,0,5.4104271,-407.80716,-5353.2086)" />
  <text
     style="font-size:129.22999573px;line-height:125%;font-family:'Gentium Book Basic';letter-spacing:0;word-spacing:0"
     id="text20-7"
     y="272.59131"
     x="1722.3666"
     sodipodi:linespacing="125%">
    <tspan
       id="tspan22-5"
       y="272.59131"
       x="1722.3666" />
  </text>
  <text
     style="font-size:46.95375824px;font-family:Arial;text-anchor:middle"
     id="text24-7"
     transform="scale(4.0128205,0.24920128)"
     y="744.70081"
     x="626.29681" />
  <text
     style="font-size:129.22999573px;line-height:125%;font-family:'Gentium Book Basic';letter-spacing:0;word-spacing:0"
     id="text26-2"
     y="192.59129"
     x="2303.6367"
     sodipodi:linespacing="125%">
    <tspan
       id="tspan28-2"
       y="192.59129"
       x="2303.6367" />
  </text>
  <text
     style="font-size:46.95375824px;font-family:Arial;text-anchor:middle"
     id="text30-0"
     transform="scale(4.0128205,0.24920128)"
     y="423.67249"
     x="771.14606" />
  <text
     style="font-size:129.22999573px;line-height:125%;font-family:'Gentium Book Basic';letter-spacing:0;word-spacing:0"
     id="text32-4"
     y="11.330297"
     x="1232.0566"
     sodipodi:linespacing="125%">
    <tspan
       id="tspan34-2"
       y="11.330297"
       x="1232.0566" />
  </text>
  <text
     style="font-size:46.95375824px;font-family:Arial;text-anchor:middle"
     id="text36-8"
     transform="scale(4.0128205,0.24920128)"
     y="-303.68381"
     x="504.10742" />
  <text
     style="font-size:129.22999573px;line-height:125%;font-family:'Gentium Book Basic';letter-spacing:0;word-spacing:0"
     id="text38-7"
     y="-205.1387"
     x="2330.1067"
     sodipodi:linespacing="125%">
    <tspan
       id="tspan40-4"
       y="-205.1387"
       x="2330.1067" />
  </text>
  <text
     style="font-size:46.95375824px;font-family:Arial;text-anchor:middle"
     id="text42-4"
     transform="scale(4.0128205,0.24920128)"
     y="-1172.3494"
     x="777.74603" />
  <text
     style="font-size:129.22999573px;line-height:125%;font-family:'Gentium Book Basic';letter-spacing:0;word-spacing:0"
     id="text44-3"
     y="-285.14871"
     x="2911.3767"
     sodipodi:linespacing="125%">
    <tspan
       id="tspan46-8"
       y="-285.14871"
       x="2911.3767" />
  </text>
  <text
     style="font-size:46.95375824px;font-family:Arial;text-anchor:middle"
     id="text48-7"
     transform="scale(4.0128205,0.24920128)"
     y="-1493.3877"
     x="922.59528" />
  <text
     style="font-size:129.22999573px;line-height:125%;font-family:'Gentium Book Basic';letter-spacing:0;word-spacing:0"
     id="text50-1"
     y="-757.54871"
     x="2522.2566"
     sodipodi:linespacing="125%">
    <tspan
       id="tspan52-5"
       y="-757.54871"
       x="2522.2566" />
  </text>
  <text
     style="font-size:46.95375824px;font-family:Arial;text-anchor:middle"
     id="text54-3"
     transform="scale(4.0128205,0.24920128)"
     y="-3389.0381"
     x="825.62579" />
  <text
     style="font-size:129.22999573px;line-height:125%;font-family:'Gentium Book Basic';letter-spacing:0;word-spacing:0"
     id="text56-4"
     y="-837.54871"
     x="3103.5166"
     sodipodi:linespacing="125%">
    <tspan
       id="tspan58-5"
       y="-837.54871"
       x="3103.5166" />
  </text>
  <text
     style="font-size:46.95375824px;font-family:Arial;text-anchor:middle"
     id="text60-5"
     transform="scale(4.0128205,0.24920128)"
     y="-3710.0664"
     x="970.47504" />
  <text
     style="font-size:208.33000183px;line-height:125%;font-family:'Gentium Book Basic';letter-spacing:0;word-spacing:0"
     id="text62-3"
     y="577.17133"
     x="1270.7166"
     sodipodi:linespacing="125%">
    <tspan
       id="tspan64-7"
       y="577.17133"
       x="1270.7166" />
  </text>
  <path
     inkscape:connector-curvature="0"
     id="path7463"
     d=""
     style="fill:#000000" />
  <path
     style="color:#000000;visibility:visible;fill:#000000;fill-opacity:1;fill-rule:evenodd;stroke:none;stroke-width:1px;marker:none;opacity:0.25"
     d="M 223.21289 104.10938 C 175.48991 104.10938 137.10742 113.92997 137.10742 126.10742 L 137.10742 208.02344 L 137.10742 225.83203 C 137.10742 227.71456 138.03648 229.54234 139.78125 231.28711 L 184.66406 276.16992 L 184.66406 387.98633 C 184.66406 390.9678 186.07029 393.78708 188.59766 396.31445 L 263.9707 471.68555 C 379.7923 465.98832 471.94531 370.28342 471.94531 253.05273 C 471.94531 240.93112 470.94549 229.0446 469.05078 217.45898 L 372.20508 120.61328 C 362.6994 111.1076 329.07061 104.10937 288.78711 104.10938 L 223.21289 104.10938 z "
     id="path7577" />
  <path
     style="color:#000000;display:inline;overflow:visible;visibility:visible;fill:#ffffff;fill-opacity:1;fill-rule:evenodd;stroke:none;stroke-width:1px;marker:none;enable-background:accumulate"
     d="m 223.21277,104.11031 c -47.72298,0 -86.10574,9.82036 -86.10574,21.99781 l 0,81.91569 0,17.80775 c 0,8.61249 19.43329,16.07911 47.55718,19.69329 l 0,142.46206 c 0,11.0749 19.4081,19.90278 43.57663,19.90278 l 55.51831,0 c 24.1686,0 43.57663,-8.82788 43.57663,-19.90278 l 0,-142.46206 c 28.12395,-3.61418 47.55718,-11.0808 47.55718,-19.69329 l 0,-19.06477 0,-80.65867 c 0,-12.17745 -38.38269,-21.99781 -86.10574,-21.99781 l -65.57445,0 z"
     id="rect7471"
     inkscape:connector-curvature="0" />
</svg>
