<svg xmlns="http://www.w3.org/2000/svg" id="svg2" width="100%" height="100%" version="1.1" viewBox="0 0 512 512"><metadata id="metadata156"/><path id="path4" fill="#ef6a47" fill-rule="evenodd" d="m471.95 253.05c0 120.9-98.01 218.9-218.9 218.9-120.9 0-218.9-98.01-218.9-218.9 0-120.9 98.01-218.9 218.9-218.9 120.9 0 218.9 98.01 218.9 218.9"/><path id="path6" fill-opacity=".235" d="m199.06 95.94c-15.493 4.978-6.941 25.03-9.156 37.38v221.88c40.497 40.497 76.16 76.52 110.44 111.63 66.53-14.657 121.7-59.55 150.34-119.56-84.3-85.87-167.37-170.7-247.34-250.69l-4.25-0.625h-0.031" style="color:#000"/><g id="g8" fill-rule="evenodd"><path id="path10" fill-opacity=".067" d="m256 1c-140.83 0-255 114.17-255 255s114.17 255 255 255 255-114.17 255-255-114.17-255-255-255m8.827 44.931c120.9 0 218.9 98 218.9 218.9s-98 218.9-218.9 218.9-218.93-98-218.93-218.9 98.03-218.9 218.93-218.9"/><g id="g12" fill-opacity=".129"><path id="path14" d="m256 4.433c-138.94 0-251.57 112.63-251.57 251.57s112.63 251.57 251.57 251.57 251.57-112.63 251.57-251.57-112.63-251.57-251.57-251.57m5.885 38.556c120.9 0 218.9 98 218.9 218.9s-98 218.9-218.9 218.9-218.93-98-218.93-218.9 98.03-218.9 218.93-218.9"/><path id="path16" d="m256 8.356c-136.77 0-247.64 110.87-247.64 247.64s110.87 247.64 247.64 247.64 247.64-110.87 247.64-247.64-110.87-247.64-247.64-247.64m2.942 31.691c120.9 0 218.9 98 218.9 218.9s-98 218.9-218.9 218.9-218.93-98-218.93-218.9 98.03-218.9 218.93-218.9"/></g><path id="path18" fill="#fff" stroke="#000" stroke-opacity=".31" stroke-width="4.904" d="m253.04 7.859c-135.42 0-245.19 109.78-245.19 245.19 0 135.42 109.78 245.19 245.19 245.19 135.42 0 245.19-109.78 245.19-245.19 0-135.42-109.78-245.19-245.19-245.19zm0 26.297c120.9 0 218.9 98 218.9 218.9s-98 218.9-218.9 218.9-218.93-98-218.93-218.9 98.03-218.9 218.93-218.9z"/></g><path id="path150" fill="#fff" d="m199.03 95.979a9.9895 9.9895 0 0 0 -9.1301 9.9494v249.43a9.9895 9.9895 0 0 0 10.066 9.9494h58.29l40.97 41.44a9.9895 9.9895 0 0 0 10.652 2.341l19.808-7.374a9.9895 9.9895 0 0 0 6.4378 -8.3107l5.393-53.6 38.636-47.991a9.9895 9.9895 0 0 0 -0.58523 -13.227l-172.47-179.57a9.9895 9.9895 0 0 0 -8.0686 -3.0419" style="color:#000"/></svg>