<?xml version="1.0" encoding="UTF-8" standalone="no"?>
<!-- Created with Inkscape (http://www.inkscape.org/) -->

<svg
   xmlns:dc="http://purl.org/dc/elements/1.1/"
   xmlns:cc="http://creativecommons.org/ns#"
   xmlns:rdf="http://www.w3.org/1999/02/22-rdf-syntax-ns#"
   xmlns:svg="http://www.w3.org/2000/svg"
   xmlns="http://www.w3.org/2000/svg"
   xmlns:sodipodi="http://sodipodi.sourceforge.net/DTD/sodipodi-0.dtd"
   xmlns:inkscape="http://www.inkscape.org/namespaces/inkscape"
   version="1.1"
   width="100%"
   height="100%"
   viewBox="0 0 512 512"
   id="svg2"
   inkscape:version="0.91+devel r13804 custom"
   sodipodi:docname="equaliser.svg">
  <sodipodi:namedview
     pagecolor="#ffffff"
     bordercolor="#666666"
     borderopacity="1"
     objecttolerance="10"
     gridtolerance="10"
     guidetolerance="10"
     inkscape:pageopacity="0"
     inkscape:pageshadow="2"
     inkscape:window-width="1366"
     inkscape:window-height="709"
     id="namedview79"
     showgrid="false"
     inkscape:zoom="0.4609375"
     inkscape:cx="340.61017"
     inkscape:cy="139.9322"
     inkscape:window-x="-2"
     inkscape:window-y="-3"
     inkscape:window-maximized="1"
     inkscape:current-layer="svg2" />
  <metadata
     id="metadata70">
    <rdf:RDF>
      <cc:Work
         rdf:about="">
        <dc:format>image/svg+xml</dc:format>
        <dc:type
           rdf:resource="http://purl.org/dc/dcmitype/StillImage" />
        <dc:title></dc:title>
      </cc:Work>
    </rdf:RDF>
  </metadata>
  <defs
     id="defs68">
    <style
       id="style5970"
       type="text/css" />
  </defs>
  <text
     x="729.64001"
     y="231.35997"
     id="text20"
     style="font-size:129.22999573px;line-height:125%;letter-spacing:0;word-spacing:0;font-family:Gentium Book Basic">
    <tspan
       x="729.64001"
       y="231.35997"
       id="tspan22" />
  </text>
  <text
     x="378.90805"
     y="579.25812"
     transform="scale(4.0128205,0.24920128)"
     id="text24"
     style="font-size:46.95375824px;text-anchor:middle;font-family:Arial" />
  <text
     x="1310.91"
     y="151.35997"
     id="text26"
     style="font-size:129.22999573px;line-height:125%;letter-spacing:0;word-spacing:0;font-family:Gentium Book Basic">
    <tspan
       x="1310.91"
       y="151.35997"
       id="tspan28" />
  </text>
  <text
     x="523.75732"
     y="258.21997"
     transform="scale(4.0128205,0.24920128)"
     id="text30"
     style="font-size:46.95375824px;text-anchor:middle;font-family:Arial" />
  <text
     x="239.33"
     y="-29.900009"
     id="text32"
     style="font-size:129.22999573px;line-height:125%;letter-spacing:0;word-spacing:0;font-family:Gentium Book Basic">
    <tspan
       x="239.33"
       y="-29.900009"
       id="tspan34" />
  </text>
  <text
     x="256.71869"
     y="-469.1264"
     transform="scale(4.0128205,0.24920128)"
     id="text36"
     style="font-size:46.95375824px;text-anchor:middle;font-family:Arial" />
  <text
     x="1337.38"
     y="-246.37001"
     id="text38"
     style="font-size:129.22999573px;line-height:125%;letter-spacing:0;word-spacing:0;font-family:Gentium Book Basic">
    <tspan
       x="1337.38"
       y="-246.37001"
       id="tspan40" />
  </text>
  <text
     x="530.3573"
     y="-1337.802"
     transform="scale(4.0128205,0.24920128)"
     id="text42"
     style="font-size:46.95375824px;text-anchor:middle;font-family:Arial" />
  <text
     x="1918.65"
     y="-326.37"
     id="text44"
     style="font-size:129.22999573px;line-height:125%;letter-spacing:0;word-spacing:0;font-family:Gentium Book Basic">
    <tspan
       x="1918.65"
       y="-326.37"
       id="tspan46" />
  </text>
  <text
     x="675.20654"
     y="-1658.8303"
     transform="scale(4.0128205,0.24920128)"
     id="text48"
     style="font-size:46.95375824px;text-anchor:middle;font-family:Arial" />
  <text
     x="1529.53"
     y="-798.77002"
     id="text50"
     style="font-size:129.22999573px;line-height:125%;letter-spacing:0;word-spacing:0;font-family:Gentium Book Basic">
    <tspan
       x="1529.53"
       y="-798.77002"
       id="tspan52" />
  </text>
  <text
     x="578.237"
     y="-3554.4807"
     transform="scale(4.0128205,0.24920128)"
     id="text54"
     style="font-size:46.95375824px;text-anchor:middle;font-family:Arial" />
  <text
     x="2110.79"
     y="-878.78003"
     id="text56"
     style="font-size:129.22999573px;line-height:125%;letter-spacing:0;word-spacing:0;font-family:Gentium Book Basic">
    <tspan
       x="2110.79"
       y="-878.78003"
       id="tspan58" />
  </text>
  <text
     x="723.0863"
     y="-3875.519"
     transform="scale(4.0128205,0.24920128)"
     id="text60"
     style="font-size:46.95375824px;text-anchor:middle;font-family:Arial" />
  <text
     x="277.98999"
     y="535.94006"
     id="text62"
     style="font-size:208.33000183px;line-height:125%;letter-spacing:0;word-spacing:0;font-family:Gentium Book Basic">
    <tspan
       x="277.98999"
       y="535.94006"
       id="tspan64" />
  </text>
  <text
     font-size="129.23"
     letter-spacing="0"
     line-height="125%"
     word-spacing="0"
     x="729.64001"
     y="231.35997"
     id="text20-9"
     sodipodi:linespacing="125%"
     style="font-size:129.22999573px;line-height:125%;font-family:'Gentium Book Basic';letter-spacing:0;word-spacing:0">
    <tspan
       x="729.64001"
       y="231.35997"
       id="tspan22-8" />
  </text>
  <text
     x="378.90805"
     y="579.25812"
     font-size="46.954"
     transform="scale(4.0128205,0.24920128)"
     id="text24-3"
     style="font-size:46.95375824px;font-family:Arial;text-anchor:middle" />
  <text
     font-size="129.23"
     letter-spacing="0"
     line-height="125%"
     word-spacing="0"
     x="1310.91"
     y="151.35997"
     id="text26-28"
     sodipodi:linespacing="125%"
     style="font-size:129.22999573px;line-height:125%;font-family:'Gentium Book Basic';letter-spacing:0;word-spacing:0">
    <tspan
       x="1310.91"
       y="151.35997"
       id="tspan28-5" />
  </text>
  <text
     x="523.75732"
     y="258.21997"
     font-size="46.954"
     transform="scale(4.0128205,0.24920128)"
     id="text30-3"
     style="font-size:46.95375824px;font-family:Arial;text-anchor:middle" />
  <text
     font-size="129.23"
     letter-spacing="0"
     line-height="125%"
     word-spacing="0"
     x="239.33"
     y="-29.900009"
     id="text32-0"
     sodipodi:linespacing="125%"
     style="font-size:129.22999573px;line-height:125%;font-family:'Gentium Book Basic';letter-spacing:0;word-spacing:0">
    <tspan
       x="239.33"
       y="-29.900009"
       id="tspan34-0" />
  </text>
  <text
     x="256.71869"
     y="-469.1264"
     font-size="46.954"
     transform="scale(4.0128205,0.24920128)"
     id="text36-89"
     style="font-size:46.95375824px;font-family:Arial;text-anchor:middle" />
  <text
     font-size="129.23"
     letter-spacing="0"
     line-height="125%"
     word-spacing="0"
     x="1337.38"
     y="-246.37001"
     id="text38-77"
     sodipodi:linespacing="125%"
     style="font-size:129.22999573px;line-height:125%;font-family:'Gentium Book Basic';letter-spacing:0;word-spacing:0">
    <tspan
       x="1337.38"
       y="-246.37001"
       id="tspan40-9" />
  </text>
  <text
     x="530.3573"
     y="-1337.802"
     font-size="46.954"
     transform="scale(4.0128205,0.24920128)"
     id="text42-3"
     style="font-size:46.95375824px;font-family:Arial;text-anchor:middle" />
  <text
     font-size="129.23"
     letter-spacing="0"
     line-height="125%"
     word-spacing="0"
     x="1918.65"
     y="-326.37"
     id="text44-6"
     sodipodi:linespacing="125%"
     style="font-size:129.22999573px;line-height:125%;font-family:'Gentium Book Basic';letter-spacing:0;word-spacing:0">
    <tspan
       x="1918.65"
       y="-326.37"
       id="tspan46-5" />
  </text>
  <text
     x="675.20654"
     y="-1658.8303"
     font-size="46.954"
     transform="scale(4.0128205,0.24920128)"
     id="text48-9"
     style="font-size:46.95375824px;font-family:Arial;text-anchor:middle" />
  <text
     font-size="129.23"
     letter-spacing="0"
     line-height="125%"
     word-spacing="0"
     x="1529.53"
     y="-798.77002"
     id="text50-0"
     sodipodi:linespacing="125%"
     style="font-size:129.22999573px;line-height:125%;font-family:'Gentium Book Basic';letter-spacing:0;word-spacing:0">
    <tspan
       x="1529.53"
       y="-798.77002"
       id="tspan52-56" />
  </text>
  <text
     x="578.237"
     y="-3554.4807"
     font-size="46.954"
     transform="scale(4.0128205,0.24920128)"
     id="text54-9"
     style="font-size:46.95375824px;font-family:Arial;text-anchor:middle" />
  <text
     font-size="129.23"
     letter-spacing="0"
     line-height="125%"
     word-spacing="0"
     x="2110.79"
     y="-878.78003"
     id="text56-7"
     sodipodi:linespacing="125%"
     style="font-size:129.22999573px;line-height:125%;font-family:'Gentium Book Basic';letter-spacing:0;word-spacing:0">
    <tspan
       x="2110.79"
       y="-878.78003"
       id="tspan58-7" />
  </text>
  <text
     x="723.0863"
     y="-3875.519"
     font-size="46.954"
     transform="scale(4.0128205,0.24920128)"
     id="text60-3"
     style="font-size:46.95375824px;font-family:Arial;text-anchor:middle" />
  <text
     font-size="208.33"
     letter-spacing="0"
     line-height="125%"
     word-spacing="0"
     x="277.98999"
     y="535.94006"
     id="text62-9"
     sodipodi:linespacing="125%"
     style="font-size:208.33000183px;line-height:125%;font-family:'Gentium Book Basic';letter-spacing:0;word-spacing:0">
    <tspan
       x="277.98999"
       y="535.94006"
       id="tspan64-1" />
  </text>
  <text
     style="font-size:129.22999573px;line-height:125%;font-family:'Gentium Book Basic';letter-spacing:0;word-spacing:0"
     id="text20-7"
     y="272.59131"
     x="1722.3666"
     sodipodi:linespacing="125%">
    <tspan
       id="tspan22-5"
       y="272.59131"
       x="1722.3666" />
  </text>
  <text
     style="font-size:46.95375824px;font-family:Arial;text-anchor:middle"
     id="text24-7"
     transform="scale(4.0128205,0.24920128)"
     y="744.70081"
     x="626.29681" />
  <text
     style="font-size:129.22999573px;line-height:125%;font-family:'Gentium Book Basic';letter-spacing:0;word-spacing:0"
     id="text26-2"
     y="192.59129"
     x="2303.6367"
     sodipodi:linespacing="125%">
    <tspan
       id="tspan28-2"
       y="192.59129"
       x="2303.6367" />
  </text>
  <text
     style="font-size:46.95375824px;font-family:Arial;text-anchor:middle"
     id="text30-0"
     transform="scale(4.0128205,0.24920128)"
     y="423.67249"
     x="771.14606" />
  <text
     style="font-size:129.22999573px;line-height:125%;font-family:'Gentium Book Basic';letter-spacing:0;word-spacing:0"
     id="text32-4"
     y="11.330297"
     x="1232.0566"
     sodipodi:linespacing="125%">
    <tspan
       id="tspan34-2"
       y="11.330297"
       x="1232.0566" />
  </text>
  <text
     style="font-size:46.95375824px;font-family:Arial;text-anchor:middle"
     id="text36-8"
     transform="scale(4.0128205,0.24920128)"
     y="-303.68381"
     x="504.10742" />
  <text
     style="font-size:129.22999573px;line-height:125%;font-family:'Gentium Book Basic';letter-spacing:0;word-spacing:0"
     id="text38-7"
     y="-205.1387"
     x="2330.1067"
     sodipodi:linespacing="125%">
    <tspan
       id="tspan40-4"
       y="-205.1387"
       x="2330.1067" />
  </text>
  <text
     style="font-size:46.95375824px;font-family:Arial;text-anchor:middle"
     id="text42-4"
     transform="scale(4.0128205,0.24920128)"
     y="-1172.3494"
     x="777.74603" />
  <text
     style="font-size:129.22999573px;line-height:125%;font-family:'Gentium Book Basic';letter-spacing:0;word-spacing:0"
     id="text44-3"
     y="-285.14871"
     x="2911.3767"
     sodipodi:linespacing="125%">
    <tspan
       id="tspan46-8"
       y="-285.14871"
       x="2911.3767" />
  </text>
  <text
     style="font-size:46.95375824px;font-family:Arial;text-anchor:middle"
     id="text48-7"
     transform="scale(4.0128205,0.24920128)"
     y="-1493.3877"
     x="922.59528" />
  <text
     style="font-size:129.22999573px;line-height:125%;font-family:'Gentium Book Basic';letter-spacing:0;word-spacing:0"
     id="text50-1"
     y="-757.54871"
     x="2522.2566"
     sodipodi:linespacing="125%">
    <tspan
       id="tspan52-5"
       y="-757.54871"
       x="2522.2566" />
  </text>
  <text
     style="font-size:46.95375824px;font-family:Arial;text-anchor:middle"
     id="text54-3"
     transform="scale(4.0128205,0.24920128)"
     y="-3389.0381"
     x="825.62579" />
  <text
     style="font-size:129.22999573px;line-height:125%;font-family:'Gentium Book Basic';letter-spacing:0;word-spacing:0"
     id="text56-4"
     y="-837.54871"
     x="3103.5166"
     sodipodi:linespacing="125%">
    <tspan
       id="tspan58-5"
       y="-837.54871"
       x="3103.5166" />
  </text>
  <text
     style="font-size:46.95375824px;font-family:Arial;text-anchor:middle"
     id="text60-5"
     transform="scale(4.0128205,0.24920128)"
     y="-3710.0664"
     x="970.47504" />
  <text
     style="font-size:208.33000183px;line-height:125%;font-family:'Gentium Book Basic';letter-spacing:0;word-spacing:0"
     id="text62-3"
     y="577.17133"
     x="1270.7166"
     sodipodi:linespacing="125%">
    <tspan
       id="tspan64-7"
       y="577.17133"
       x="1270.7166" />
  </text>
  <path
     inkscape:connector-curvature="0"
     id="path7463"
     d=""
     style="fill:#000000" />
  <text
     sodipodi:linespacing="125%"
     x="729.64001"
     y="231.36"
     id="text20-7-1"
     style="font-size:129.22999573px;line-height:125%;font-family:'Gentium Book Basic';letter-spacing:0;word-spacing:0">
    <tspan
       x="729.64001"
       y="231.36"
       id="tspan22-1" />
  </text>
  <text
     x="378.90805"
     y="579.24701"
     transform="scale(4.0128205,0.24920128)"
     id="text24-1"
     style="font-size:46.95375824px;font-family:Arial;text-anchor:middle" />
  <text
     sodipodi:linespacing="125%"
     x="1310.91"
     y="151.36"
     id="text26-3"
     style="font-size:129.22999573px;line-height:125%;font-family:'Gentium Book Basic';letter-spacing:0;word-spacing:0">
    <tspan
       x="1310.91"
       y="151.36"
       id="tspan28-5-0" />
  </text>
  <text
     x="523.75732"
     y="258.21869"
     transform="scale(4.0128205,0.24920128)"
     id="text30-9"
     style="font-size:46.95375824px;font-family:Arial;text-anchor:middle" />
  <text
     sodipodi:linespacing="125%"
     x="239.33"
     y="-29.900999"
     id="text32-7"
     style="font-size:129.22999573px;line-height:125%;font-family:'Gentium Book Basic';letter-spacing:0;word-spacing:0">
    <tspan
       x="239.33"
       y="-29.900999"
       id="tspan34-8" />
  </text>
  <text
     x="256.71869"
     y="-469.1376"
     transform="scale(4.0128205,0.24920128)"
     id="text36-2"
     style="font-size:46.95375824px;font-family:Arial;text-anchor:middle" />
  <text
     sodipodi:linespacing="125%"
     x="1337.38"
     y="-246.37"
     id="text38-9"
     style="font-size:129.22999573px;line-height:125%;font-family:'Gentium Book Basic';letter-spacing:0;word-spacing:0">
    <tspan
       x="1337.38"
       y="-246.37"
       id="tspan40-8" />
  </text>
  <text
     x="530.3573"
     y="-1337.8032"
     transform="scale(4.0128205,0.24920128)"
     id="text42-6"
     style="font-size:46.95375824px;font-family:Arial;text-anchor:middle" />
  <text
     sodipodi:linespacing="125%"
     x="1918.65"
     y="-326.38"
     id="text44-1"
     style="font-size:129.22999573px;line-height:125%;font-family:'Gentium Book Basic';letter-spacing:0;word-spacing:0">
    <tspan
       x="1918.65"
       y="-326.38"
       id="tspan46-7" />
  </text>
  <text
     x="675.20654"
     y="-1658.8414"
     transform="scale(4.0128205,0.24920128)"
     id="text48-1"
     style="font-size:46.95375824px;font-family:Arial;text-anchor:middle" />
  <text
     sodipodi:linespacing="125%"
     x="1529.53"
     y="-798.78003"
     id="text50-5"
     style="font-size:129.22999573px;line-height:125%;font-family:'Gentium Book Basic';letter-spacing:0;word-spacing:0">
    <tspan
       x="1529.53"
       y="-798.78003"
       id="tspan52-9" />
  </text>
  <text
     x="578.237"
     y="-3554.4917"
     transform="scale(4.0128205,0.24920128)"
     id="text54-2"
     style="font-size:46.95375824px;font-family:Arial;text-anchor:middle" />
  <text
     sodipodi:linespacing="125%"
     x="2110.79"
     y="-878.78003"
     id="text56-1"
     style="font-size:129.22999573px;line-height:125%;font-family:'Gentium Book Basic';letter-spacing:0;word-spacing:0">
    <tspan
       x="2110.79"
       y="-878.78003"
       id="tspan58-2" />
  </text>
  <text
     x="723.0863"
     y="-3875.5203"
     transform="scale(4.0128205,0.24920128)"
     id="text60-9"
     style="font-size:46.95375824px;font-family:Arial;text-anchor:middle" />
  <text
     sodipodi:linespacing="125%"
     x="277.98999"
     y="535.94"
     id="text62-5"
     style="font-size:208.33000183px;line-height:125%;font-family:'Gentium Book Basic';letter-spacing:0;word-spacing:0">
    <tspan
       x="277.98999"
       y="535.94"
       id="tspan64-9" />
  </text>
  <g
     style="opacity:0.4"
     id="g3712"
     transform="matrix(1.15786,0,0,0.57141651,907.47077,64.627945)" />
  <g
     id="g4038"
     transform="translate(-718.40767,144.61994)" />
  <text
     sodipodi:linespacing="125%"
     x="-1745.9596"
     y="270.86887"
     id="text3006"
     style="font-size:129.22999573px;line-height:125%;font-family:'Gentium Book Basic';letter-spacing:0;word-spacing:0">
    <tspan
       x="-1745.9596"
       y="270.86887"
       id="tspan3008" />
  </text>
  <text
     x="-238.01451"
     y="737.789"
     transform="scale(4.0128205,0.24920128)"
     id="text3010"
     style="font-size:46.95375824px;font-family:Arial;text-anchor:middle" />
  <text
     sodipodi:linespacing="125%"
     x="-1164.6896"
     y="190.86885"
     id="text3012"
     style="font-size:129.22999573px;line-height:125%;font-family:'Gentium Book Basic';letter-spacing:0;word-spacing:0">
    <tspan
       x="-1164.6896"
       y="190.86885"
       id="tspan3014" />
  </text>
  <text
     x="-93.165253"
     y="416.76062"
     transform="scale(4.0128205,0.24920128)"
     id="text3016"
     style="font-size:46.95375824px;font-family:Arial;text-anchor:middle" />
  <text
     sodipodi:linespacing="125%"
     x="-2236.2695"
     y="9.607852"
     id="text3018"
     style="font-size:129.22999573px;line-height:125%;font-family:'Gentium Book Basic';letter-spacing:0;word-spacing:0">
    <tspan
       x="-2236.2695"
       y="9.607852"
       id="tspan3020" />
  </text>
  <text
     x="-360.20389"
     y="-310.59567"
     transform="scale(4.0128205,0.24920128)"
     id="text3022"
     style="font-size:46.95375824px;font-family:Arial;text-anchor:middle" />
  <text
     sodipodi:linespacing="125%"
     x="-1138.2196"
     y="-206.86115"
     id="text3024"
     style="font-size:129.22999573px;line-height:125%;font-family:'Gentium Book Basic';letter-spacing:0;word-spacing:0">
    <tspan
       x="-1138.2196"
       y="-206.86115"
       id="tspan3026" />
  </text>
  <text
     x="-86.565308"
     y="-1179.2612"
     transform="scale(4.0128205,0.24920128)"
     id="text3028"
     style="font-size:46.95375824px;font-family:Arial;text-anchor:middle" />
  <text
     sodipodi:linespacing="125%"
     x="-556.94958"
     y="-286.87115"
     id="text3030"
     style="font-size:129.22999573px;line-height:125%;font-family:'Gentium Book Basic';letter-spacing:0;word-spacing:0">
    <tspan
       x="-556.94958"
       y="-286.87115"
       id="tspan3032" />
  </text>
  <text
     x="58.283993"
     y="-1500.2996"
     transform="scale(4.0128205,0.24920128)"
     id="text3034"
     style="font-size:46.95375824px;font-family:Arial;text-anchor:middle" />
  <text
     sodipodi:linespacing="125%"
     x="-946.06958"
     y="-759.27118"
     id="text3036"
     style="font-size:129.22999573px;line-height:125%;font-family:'Gentium Book Basic';letter-spacing:0;word-spacing:0">
    <tspan
       x="-946.06958"
       y="-759.27118"
       id="tspan3038" />
  </text>
  <text
     x="-38.685551"
     y="-3395.95"
     transform="scale(4.0128205,0.24920128)"
     id="text3040"
     style="font-size:46.95375824px;font-family:Arial;text-anchor:middle" />
  <text
     sodipodi:linespacing="125%"
     x="-364.80954"
     y="-839.27118"
     id="text3042"
     style="font-size:129.22999573px;line-height:125%;font-family:'Gentium Book Basic';letter-spacing:0;word-spacing:0">
    <tspan
       x="-364.80954"
       y="-839.27118"
       id="tspan3044" />
  </text>
  <text
     x="106.16375"
     y="-3716.9783"
     transform="scale(4.0128205,0.24920128)"
     id="text3046"
     style="font-size:46.95375824px;font-family:Arial;text-anchor:middle" />
  <text
     sodipodi:linespacing="125%"
     x="-2197.6096"
     y="575.44885"
     id="text3048"
     style="font-size:208.33000183px;line-height:125%;font-family:'Gentium Book Basic';letter-spacing:0;word-spacing:0">
    <tspan
       x="-2197.6096"
       y="575.44885"
       id="tspan3050" />
  </text>
  <text
     sodipodi:linespacing="125%"
     x="-1144.6073"
     y="525.09741"
     id="text3113"
     style="font-size:129.22999573px;line-height:125%;font-family:'Gentium Book Basic';letter-spacing:0;word-spacing:0">
    <tspan
       x="-1144.6073"
       y="525.09741"
       id="tspan3115" />
  </text>
  <text
     x="-88.156754"
     y="1757.9624"
     transform="scale(4.0128205,0.24920128)"
     id="text3117"
     style="font-size:46.95375824px;font-family:Arial;text-anchor:middle" />
  <text
     sodipodi:linespacing="125%"
     x="-563.33722"
     y="445.09738"
     id="text3119"
     style="font-size:129.22999573px;line-height:125%;font-family:'Gentium Book Basic';letter-spacing:0;word-spacing:0">
    <tspan
       x="-563.33722"
       y="445.09738"
       id="tspan3121" />
  </text>
  <text
     x="56.692501"
     y="1436.9341"
     transform="scale(4.0128205,0.24920128)"
     id="text3123"
     style="font-size:46.95375824px;font-family:Arial;text-anchor:middle" />
  <text
     sodipodi:linespacing="125%"
     x="-1634.9172"
     y="263.8364"
     id="text3125"
     style="font-size:129.22999573px;line-height:125%;font-family:'Gentium Book Basic';letter-spacing:0;word-spacing:0">
    <tspan
       x="-1634.9172"
       y="263.8364"
       id="tspan3127" />
  </text>
  <text
     x="-210.34613"
     y="709.57782"
     transform="scale(4.0128205,0.24920128)"
     id="text3129"
     style="font-size:46.95375824px;font-family:Arial;text-anchor:middle" />
  <text
     sodipodi:linespacing="125%"
     x="-536.86725"
     y="47.367382"
     id="text3131"
     style="font-size:129.22999573px;line-height:125%;font-family:'Gentium Book Basic';letter-spacing:0;word-spacing:0">
    <tspan
       x="-536.86725"
       y="47.367382"
       id="tspan3133" />
  </text>
  <text
     x="63.292446"
     y="-159.08783"
     transform="scale(4.0128205,0.24920128)"
     id="text3135"
     style="font-size:46.95375824px;font-family:Arial;text-anchor:middle" />
  <text
     sodipodi:linespacing="125%"
     x="44.402721"
     y="-32.642632"
     id="text3137"
     style="font-size:129.22999573px;line-height:125%;font-family:'Gentium Book Basic';letter-spacing:0;word-spacing:0">
    <tspan
       x="44.402721"
       y="-32.642632"
       id="tspan3139" />
  </text>
  <text
     x="208.14175"
     y="-480.12613"
     transform="scale(4.0128205,0.24920128)"
     id="text3141"
     style="font-size:46.95375824px;font-family:Arial;text-anchor:middle" />
  <text
     sodipodi:linespacing="125%"
     x="-344.71725"
     y="-505.04263"
     id="text3143"
     style="font-size:129.22999573px;line-height:125%;font-family:'Gentium Book Basic';letter-spacing:0;word-spacing:0">
    <tspan
       x="-344.71725"
       y="-505.04263"
       id="tspan3145" />
  </text>
  <text
     x="111.1722"
     y="-2375.7764"
     transform="scale(4.0128205,0.24920128)"
     id="text3147"
     style="font-size:46.95375824px;font-family:Arial;text-anchor:middle" />
  <text
     sodipodi:linespacing="125%"
     x="236.5428"
     y="-585.0426"
     id="text3149"
     style="font-size:129.22999573px;line-height:125%;font-family:'Gentium Book Basic';letter-spacing:0;word-spacing:0">
    <tspan
       x="236.5428"
       y="-585.0426"
       id="tspan3151" />
  </text>
  <text
     x="256.02151"
     y="-2696.8047"
     transform="scale(4.0128205,0.24920128)"
     id="text3153"
     style="font-size:46.95375824px;font-family:Arial;text-anchor:middle" />
  <text
     sodipodi:linespacing="125%"
     x="-1596.2573"
     y="829.67743"
     id="text3155"
     style="font-size:208.33000183px;line-height:125%;font-family:'Gentium Book Basic';letter-spacing:0;word-spacing:0">
    <tspan
       x="-1596.2573"
       y="829.67743"
       id="tspan3157" />
  </text>
  <g
     id="g9"
     style="fill-rule:evenodd">
    <path
       d="m 471.95,253.05 c 0,120.9 -98.01,218.9 -218.9,218.9 -120.9,0 -218.9,-98.01 -218.9,-218.9 0,-120.9 98.01,-218.9 218.9,-218.9 120.9,0 218.9,98.01 218.9,218.9"
       inkscape:connector-curvature="0"
       id="path11"
       style="fill:#b93d48" />
    <path
       d="M 256,1 C 115.17,1 1,115.17 1,256 1,396.83 115.17,511 256,511 396.83,511 511,396.83 511,256 511,115.17 396.83,1 256,1 m 8.827,44.931 c 120.9,0 218.9,98 218.9,218.9 0,120.9 -98,218.9 -218.9,218.9 -120.9,0 -218.93,-98 -218.93,-218.9 0,-120.9 98.03,-218.9 218.93,-218.9"
       inkscape:connector-curvature="0"
       id="path13"
       style="fill-opacity:0.06700003" />
    <g
       id="g15"
       style="fill-opacity:0.12900002">
      <path
         d="m 256,4.433 c -138.94,0 -251.57,112.63 -251.57,251.57 0,138.94 112.63,251.57 251.57,251.57 138.94,0 251.57,-112.63 251.57,-251.57 C 507.57,117.063 394.94,4.433 256,4.433 m 5.885,38.556 c 120.9,0 218.9,98 218.9,218.9 0,120.9 -98,218.9 -218.9,218.9 -120.9,0 -218.93,-98 -218.93,-218.9 0,-120.9 98.03,-218.9 218.93,-218.9"
         inkscape:connector-curvature="0"
         id="path17" />
      <path
         d="m 256,8.356 c -136.77,0 -247.64,110.87 -247.64,247.64 0,136.77 110.87,247.64 247.64,247.64 136.77,0 247.64,-110.87 247.64,-247.64 C 503.64,119.226 392.77,8.356 256,8.356 m 2.942,31.691 c 120.9,0 218.9,98 218.9,218.9 0,120.9 -98,218.9 -218.9,218.9 -120.9,0 -218.93,-98 -218.93,-218.9 0,-120.9 98.03,-218.9 218.93,-218.9"
         inkscape:connector-curvature="0"
         id="path19" />
    </g>
    <path
       d="m 253.04,7.859 c -135.42,0 -245.19,109.78 -245.19,245.19 0,135.42 109.78,245.19 245.19,245.19 135.42,0 245.19,-109.78 245.19,-245.19 0,-135.42 -109.78,-245.19 -245.19,-245.19 z m 0,26.297 c 120.9,0 218.9,98 218.9,218.9 0,120.9 -98,218.9 -218.9,218.9 -120.9,0 -218.93,-98 -218.93,-218.9 0,-120.9 98.03,-218.9 218.93,-218.9 z"
       inkscape:connector-curvature="0"
       id="path21"
       style="fill:#ffffff;stroke:#000000;stroke-width:4.90399981;stroke-opacity:0.31000001" />
  </g>
  <text
     sodipodi:linespacing="125%"
     x="729.64001"
     y="231.36"
     id="text23"
     style="font-size:129.22999573px;line-height:125%;font-family:'Gentium Book Basic';letter-spacing:0;word-spacing:0">
    <tspan
       x="729.64001"
       y="231.36"
       id="tspan25" />
  </text>
  <text
     x="378.90805"
     y="579.24701"
     transform="scale(4.0128205,0.24920128)"
     id="text27"
     style="font-size:46.95399857px;font-family:Arial;text-anchor:middle" />
  <text
     sodipodi:linespacing="125%"
     x="1310.91"
     y="151.36"
     id="text29"
     style="font-size:129.22999573px;line-height:125%;font-family:'Gentium Book Basic';letter-spacing:0;word-spacing:0">
    <tspan
       x="1310.91"
       y="151.36"
       id="tspan31" />
  </text>
  <text
     x="523.75732"
     y="258.21869"
     transform="scale(4.0128205,0.24920128)"
     id="text33"
     style="font-size:46.95399857px;font-family:Arial;text-anchor:middle" />
  <text
     sodipodi:linespacing="125%"
     x="239.33"
     y="-29.900999"
     id="text35"
     style="font-size:129.22999573px;line-height:125%;font-family:'Gentium Book Basic';letter-spacing:0;word-spacing:0">
    <tspan
       x="239.33"
       y="-29.900999"
       id="tspan37" />
  </text>
  <text
     x="256.71869"
     y="-469.1376"
     transform="scale(4.0128205,0.24920128)"
     id="text39"
     style="font-size:46.95399857px;font-family:Arial;text-anchor:middle" />
  <text
     sodipodi:linespacing="125%"
     x="1337.38"
     y="-246.37"
     id="text41"
     style="font-size:129.22999573px;line-height:125%;font-family:'Gentium Book Basic';letter-spacing:0;word-spacing:0">
    <tspan
       x="1337.38"
       y="-246.37"
       id="tspan43" />
  </text>
  <text
     x="530.3573"
     y="-1337.8032"
     transform="scale(4.0128205,0.24920128)"
     id="text45"
     style="font-size:46.95399857px;font-family:Arial;text-anchor:middle" />
  <text
     sodipodi:linespacing="125%"
     x="1918.65"
     y="-326.38"
     id="text47"
     style="font-size:129.22999573px;line-height:125%;font-family:'Gentium Book Basic';letter-spacing:0;word-spacing:0">
    <tspan
       x="1918.65"
       y="-326.38"
       id="tspan49" />
  </text>
  <text
     x="675.20654"
     y="-1658.8414"
     transform="scale(4.0128205,0.24920128)"
     id="text51"
     style="font-size:46.95399857px;font-family:Arial;text-anchor:middle" />
  <text
     sodipodi:linespacing="125%"
     x="1529.53"
     y="-798.78003"
     id="text53"
     style="font-size:129.22999573px;line-height:125%;font-family:'Gentium Book Basic';letter-spacing:0;word-spacing:0">
    <tspan
       x="1529.53"
       y="-798.78003"
       id="tspan55" />
  </text>
  <text
     x="578.237"
     y="-3554.4917"
     transform="scale(4.0128205,0.24920128)"
     id="text57"
     style="font-size:46.95399857px;font-family:Arial;text-anchor:middle" />
  <text
     sodipodi:linespacing="125%"
     x="2110.79"
     y="-878.78003"
     id="text59"
     style="font-size:129.22999573px;line-height:125%;font-family:'Gentium Book Basic';letter-spacing:0;word-spacing:0">
    <tspan
       x="2110.79"
       y="-878.78003"
       id="tspan61" />
  </text>
  <text
     x="723.0863"
     y="-3875.5203"
     transform="scale(4.0128205,0.24920128)"
     id="text63"
     style="font-size:46.95399857px;font-family:Arial;text-anchor:middle" />
  <text
     sodipodi:linespacing="125%"
     x="277.98999"
     y="535.94"
     id="text65"
     style="font-size:208.33000183px;line-height:125%;font-family:'Gentium Book Basic';letter-spacing:0;word-spacing:0">
    <tspan
       x="277.98999"
       y="535.94"
       id="tspan67" />
  </text>
  <path
     d="M 193.36914 124.08984 L 193.38086 124.10156 L 193.38086 155.58984 L 208.35156 170.56055 L 193.36914 170.56055 L 193.38086 170.57227 L 193.38086 202.06055 L 208.34961 217.0293 L 193.36914 217.0293 L 193.38086 217.04102 L 193.38086 231.9707 L 178.43945 217.0293 L 123.2793 217.0293 L 123.2793 248.5293 L 138.2207 263.4707 L 123.2793 263.4707 L 123.2793 294.9707 L 138.24805 309.93945 L 123.2793 309.93945 L 123.2793 341.43945 L 138.25 356.41016 L 123.2793 356.41016 L 123.2793 387.91016 L 201.09961 465.73047 C 217.75393 469.78457 235.14839 471.94922 253.05078 471.94922 C 359.2303 471.94922 447.74764 396.34589 467.7207 296.0293 L 388.7207 217.0293 L 341.46875 217.0293 L 248.5293 124.08984 L 193.38086 124.08984 L 193.36914 124.08984 z M 339.62891 261.66016 L 346.69141 261.66016 L 348.50195 263.4707 L 341.43945 263.4707 L 339.62891 261.66016 z "
     id="path71"
     style="opacity:0.25" />
  <path
     d="m 193.38,124.09 0,31.5 55.16,0 0,-31.5 -55.16,0 m 0,46.47 0,31.5 55.16,0 0,-31.5 -55.16,0 m -70.09,46.47 0,31.5 55.16,0 0,-31.5 -55.16,0 m 70.09,0 0,31.5 55.16,0 0,-31.5 -55.16,0 m 140.19,0 0,31.5 55.16,0 0,-31.5 -55.16,0 m -210.28,46.44 0,31.5 55.16,0 0,-31.5 -55.16,0 m 70.09,0 0,31.5 55.16,0 0,-31.5 -55.16,0 m 70.09,0 0,31.5 55.16,0 0,-31.5 -55.16,0 m 70.09,0 0,31.5 55.16,0 0,-31.5 -55.16,0 m -210.28,46.47 0,31.5 55.16,0 0,-31.5 -55.16,0 m 70.09,0 0,31.5 55.16,0 0,-31.5 -55.16,0 m 70.09,0 0,31.5 55.16,0 0,-31.5 -55.16,0 m 70.09,0 0,31.5 55.16,0 0,-31.5 -55.16,0 m -210.28,46.47 0,31.5 55.16,0 0,-31.5 -55.16,0 m 70.09,0 0,31.5 55.16,0 0,-31.5 -55.16,0 m 70.09,0 0,31.5 55.16,0 0,-31.5 -55.16,0 m 70.09,0 0,31.5 55.16,0 0,-31.5 -55.16,0"
     inkscape:connector-curvature="0"
     id="path207"
     style="fill:#ffffff" />
</svg>
