<svg xmlns="http://www.w3.org/2000/svg" xmlns:xlink="http://www.w3.org/1999/xlink" id="svg2" width="100%" height="100%" version="1.1" viewBox="0 0 512 512"><metadata id="metadata70"/><defs id="defs68"><style id="style5970" type="text/css"/><linearGradient id="linearGradient12387" x1="453.95" x2="18.526" y1="408.17" y2="39.355" gradientUnits="userSpaceOnUse"><stop id="stop12383" offset="0" stop-color="#d22828" stop-opacity=".979"/><stop id="stop12385" offset="1" stop-color="#d64545"/></linearGradient></defs><path id="path6" fill="url(#linearGradient12387)" fill-rule="evenodd" d="m471.95 253.05c0 120.9-98.01 218.9-218.9 218.9-120.9 0-218.9-98.01-218.9-218.9 0-120.9 98.01-218.9 218.9-218.9 120.9 0 218.9 98.01 218.9 218.9"/><path id="path10-7" fill-opacity=".067" fill-rule="evenodd" d="m256 1c-140.83 0-255 114.17-255 255s114.17 255 255 255 255-114.17 255-255-114.17-255-255-255m8.827 44.931c120.9 0 218.9 98 218.9 218.9s-98 218.9-218.9 218.9-218.93-98-218.93-218.9 98.03-218.9 218.93-218.9"/><g id="g12" fill-opacity=".129" fill-rule="evenodd"><path id="path14-5" d="m256 4.433c-138.94 0-251.57 112.63-251.57 251.57s112.63 251.57 251.57 251.57 251.57-112.63 251.57-251.57-112.63-251.57-251.57-251.57m5.885 38.556c120.9 0 218.9 98 218.9 218.9s-98 218.9-218.9 218.9-218.93-98-218.93-218.9 98.03-218.9 218.93-218.9"/><path id="path16-2" d="m256 8.356c-136.77 0-247.64 110.87-247.64 247.64s110.87 247.64 247.64 247.64 247.64-110.87 247.64-247.64-110.87-247.64-247.64-247.64m2.942 31.691c120.9 0 218.9 98 218.9 218.9s-98 218.9-218.9 218.9-218.93-98-218.93-218.9 98.03-218.9 218.93-218.9"/></g><path id="path18-5" fill="#fff" fill-rule="evenodd" stroke="#000" stroke-opacity=".31" stroke-width="4.904" d="m253.04 7.859c-135.42 0-245.19 109.78-245.19 245.19 0 135.42 109.78 245.19 245.19 245.19 135.42 0 245.19-109.78 245.19-245.19 0-135.42-109.78-245.19-245.19-245.19zm0 26.297c120.9 0 218.9 98 218.9 218.9s-98 218.9-218.9 218.9-218.93-98-218.93-218.9 98.03-218.9 218.93-218.9z"/><path style="color:#000" id="path11902" d="m389.14 122.19c-0.3-0.01-0.6 0.01-0.91 0.03-10.95 2.46-18.69 11.58-28.5 16.56-20.86 14.46-40.11 30.84-58.12 48.54l-8.47-8.47c-19.33-13.43-42.68-20.7-66.28-20.57-0.86 0.01-1.72 0.01-2.57 0.03-44.93 0.55-87.69 30.15-104.22 71.94-16.49 39.3-8.73 87.53 19.66 119.5 1.92 2.28 3.94 4.47 6.04 6.57l115.46 115.46c117.1-4.3 210.72-100.57 210.72-218.73 0-21.08-2.99-41.47-8.55-60.77l-66.83-66.82c-1.93-1.93-4.48-3.2-7.43-3.27z" opacity=".25"/><path style="color:#000" id="path158" fill="#fff" d="m389.14 122.19c-0.29811-0.007-0.60021 0.0134-0.90625 0.0312-10.949 2.4544-18.694 11.574-28.5 16.562-50.386 34.924-91.449 81.043-128.06 130-19.224-8.8037-35.876-23.416-56.219-29.438-9.3961 0.63625-15.534 14.036-7.9688 20.625 20.14 23.832 40.746 47.449 60.969 71.156 5.3549 4.4582 9.7234 13.592 17.938 11.344 8.0488-1.4227 10.83-9.732 13.656-16.219 34.192-69.245 80.692-132.88 138.31-184.5 5.3445-7.3884 0.0226-19.342-9.2188-19.562zm-162.28 36.094c-0.85094 0.005-1.7111 0.007-2.5625 0.0312-44.931 0.54853-87.695 30.143-104.22 71.938-16.494 39.3-8.7294 87.529 19.656 119.5 27.343 32.38 73.415 47.116 114.62 36.812 42.648-9.761 77.978-46.141 86.281-89.25 4.8944-22.691 2.2051-46.55-6.6562-67.844-4.6919 6.1245-9.2601 12.329-13.719 18.625 9.6833 34.191-1.2645 73.513-27.938 97.125-29.102 27.46-75.826 33.218-110.81 13.781-34.218-17.875-55.084-57.644-50.156-96.062 4.0232-39.678 35.239-74.5 74.094-82.969 7.1717-1.599 14.428-2.4825 21.781-2.4688 18.538-0.2385 36.7 5.4713 52.125 15.406 4.5136-4.7668 9.1108-9.4583 13.781-14.062-19.325-13.428-42.681-20.693-66.281-20.562z"/></svg>