<svg xmlns="http://www.w3.org/2000/svg" viewBox="0 0 512 512"><defs><linearGradient id="0" x1="34.15" x2="471.95" gradientUnits="userSpaceOnUse"><stop offset="0" stop-color="#7c9ede"/><stop offset="1" stop-color="#c7cee3"/></linearGradient></defs><g fill-rule="evenodd"><path fill="url(#0)" d="m471.95 253.05c0 120.9-98.01 218.9-218.9 218.9-120.9 0-218.9-98.01-218.9-218.9 0-120.9 98.01-218.9 218.9-218.9 120.9 0 218.9 98.01 218.9 218.9"/><path fill-opacity=".067" d="m256 1c-140.83 0-255 114.17-255 255s114.17 255 255 255 255-114.17 255-255-114.17-255-255-255m8.827 44.931c120.9 0 218.9 98 218.9 218.9s-98 218.9-218.9 218.9-218.93-98-218.93-218.9 98.03-218.9 218.93-218.9"/><g fill-opacity=".129"><path d="m256 4.433c-138.94 0-251.57 112.63-251.57 251.57s112.63 251.57 251.57 251.57 251.57-112.63 251.57-251.57-112.63-251.57-251.57-251.57m5.885 38.556c120.9 0 218.9 98 218.9 218.9s-98 218.9-218.9 218.9-218.93-98-218.93-218.9 98.03-218.9 218.93-218.9"/><path d="m256 8.356c-136.77 0-247.64 110.87-247.64 247.64s110.87 247.64 247.64 247.64 247.64-110.87 247.64-247.64-110.87-247.64-247.64-247.64m2.942 31.691c120.9 0 218.9 98 218.9 218.9s-98 218.9-218.9 218.9-218.93-98-218.93-218.9 98.03-218.9 218.93-218.9"/></g><path fill="#fff" stroke="#000" stroke-opacity=".31" stroke-width="4.904" d="m253.04 7.859c-135.42 0-245.19 109.78-245.19 245.19 0 135.42 109.78 245.19 245.19 245.19 135.42 0 245.19-109.78 245.19-245.19 0-135.42-109.78-245.19-245.19-245.19zm0 26.297c120.9 0 218.9 98 218.9 218.9s-98 218.9-218.9 218.9-218.93-98-218.93-218.9 98.03-218.9 218.93-218.9z"/></g><path d="m254.37 88.85c-10.181 0.081-20.584 0.751-27.557 1.984-52.33 9.254-96.57 42.04-120.45 89.26-12.846 25.398-17.258 42.943-18.03 71.6-0.505 18.66 0.65 29.783 4.777 46.4 5.822 23.434 19.221 49.21 34.959 67.19 2.904 3.318 5.873 6.494 8.91 9.531l96.23 96.23c6.539 0.588 13.157 0.904 19.85 0.904 120.89 0 218.9-98 218.9-218.9 0-5.897-0.24-11.738-0.697-17.518l-97.29-97.29c-1.077-1.077-2.171-2.145-3.283-3.203-14.658-13.937-29.441-23.707-49.39-32.568-9.992-4.438-17.1-6.86-19.414-6.729-0.534 0.03-0.809 0.192-0.809 0.504 0 0.678-0.422 1.244-0.908 1.244s-0.875 0.402-0.875 0.908c0 0.469-0.661 1.578-1.516 2.555l-9.385-9.385c-0.114-0.114-5.185-0.883-11.238-1.682-5.02-0.662-11.551-0.983-18.438-1.043-1.435-0.013-2.885-0.012-4.34 0" opacity=".25"/><path fill="#fff" d="m254.37 88.85c-10.181 0.081-20.583 0.752-27.556 1.985-52.33 9.254-96.57 42.04-120.45 89.26-12.846 25.398-17.259 42.944-18.03 71.6-0.505 18.66 0.65 29.782 4.778 46.4 5.822 23.434 19.22 49.21 34.958 67.19 30.13 34.425 67.39 53.701 112.48 58.24 11.874 1.196 42.56-0.267 44.41-2.12 0.192-0.192-0.706-3.461-1.985-7.268-5.652-16.821-9.928-39.623-11.541-61.47l-0.572-7.739-13.829-0.034c-32.07-0.022-63.51-5.79-97.37-17.866-10.651-3.798-21.21-8.704-21.2-9.858 0.005-0.54 1.227-3.065 2.692-5.619l2.658-4.643 3.297 1.447c35.21 15.576 74.937 24.19 111.7 24.19h12.08l0.471-4.643c0.263-2.552 0.723-7.432 1.01-10.834 0.529-6.271 2.713-21.261 3.634-24.932l0.505-2.02h-56.996l0.606-7.739c4.7-61.04 27.521-127.02 63.09-182.29 2.948-4.582 5.295-8.399 5.181-8.512-0.114-0.114-5.185-0.884-11.238-1.682-5.02-0.662-11.552-0.983-18.438-1.043-1.435-0.013-2.886-0.012-4.34 0m47.51 6.897c-0.534 0.03-0.808 0.193-0.808 0.505 0 0.678-0.422 1.245-0.908 1.245s-0.875 0.402-0.875 0.908-0.761 1.767-1.716 2.793c-0.955 1.025-1.569 2.162-1.346 2.523s-0.247 0.906-1.043 1.211-1.225 0.76-0.942 1.043-0.218 1.328-1.144 2.322-1.5 2.145-1.245 2.557 0.044 0.774-0.471 0.774-0.908 0.583-0.908 1.312-0.427 1.346-0.942 1.346-0.704 0.389-0.404 0.875 0.145 0.875-0.37 0.875-0.942 0.583-0.942 1.312-0.427 1.346-0.942 1.346-0.704 0.389-0.404 0.875 0.135 0.875-0.37 0.875-1.175 1.01-1.48 2.221c-0.305 1.215-0.917 2.221-1.379 2.221s-0.603 0.389-0.303 0.875 0.172 0.875-0.303 0.875c-0.474 0-1.554 1.783-2.389 3.97s-1.873 4-2.322 4-0.57 0.389-0.269 0.875c0.3 0.486 0.106 0.875-0.437 0.875s-0.771 0.389-0.471 0.875 0.196 0.908-0.236 0.908c-0.882 0-5.188 8.79-4.845 9.892 0.122 0.39-0.241 0.707-0.808 0.707s-0.769 0.241-0.471 0.538c0.297 0.297-0.675 2.697-2.153 5.316s-2.415 4.744-2.086 4.744-0.261 1.394-1.312 3.095-1.668 3.095-1.346 3.095-0.261 1.394-1.312 3.095-1.673 3.095-1.379 3.095-0.096 0.964-0.875 2.153-1.352 2.275-1.279 2.423c0.073 0.147-0.34 1.469-0.908 2.927s-1.091 3.047-1.178 3.533-0.42 1.297-0.707 1.783c-0.64 1.083-2.481 6.726-2.591 7.94-0.044 0.486-0.471 1.378-0.976 1.985-0.504 0.608-0.631 1.11-0.269 1.11s0.254 0.503-0.236 1.11c-0.92 1.143-2.45 6.772-2.153 7.94 0.093 0.365-0.274 0.673-0.841 0.673s-0.791 0.252-0.471 0.572 0.138 1.131-0.404 1.783c-0.541 0.652-0.665 1.178-0.303 1.178s0.212 0.491-0.303 1.11c-0.514 0.62-1.079 2.128-1.279 3.331s-0.63 2.77-0.942 3.499-0.666 2.123-0.808 3.095c-0.141 0.972-0.563 2.286-0.942 2.894s-0.482 1.465-0.202 1.918c0.28 0.452 0.09 1.087-0.437 1.413s-0.76 1.119-0.505 1.783 0.061 1.475-0.437 1.783-0.692 1.085-0.437 1.75c0.255 0.664 0.097 1.448-0.336 1.716-0.434 0.268-0.787 1.178-0.808 2.02-0.056 2.351-0.551 4.994-1.11 5.955-0.533 0.916-1.523 5.861-2.221 11.04-0.229 1.701-0.631 4.295-0.875 5.753-0.674 4.03-1.285 8.479-1.649 11.911-0.18 1.701-0.587 4.181-0.908 5.518l-0.606 2.456h29.608c24.344 0 29.695 0.21 30.08 1.211 0.257 0.67 0.103 1.612-0.37 2.086-0.474 0.474-0.984 1.809-1.11 2.994-0.126 1.186-0.526 2.678-0.908 3.297-0.383 0.619-0.456 1.361-0.168 1.649 0.287 0.287 0.065 1.036-0.471 1.682s-0.747 1.77-0.471 2.49 0.121 1.534-0.336 1.817-0.841 1.387-0.841 2.456c-0.002 1.07-0.207 3.346-0.471 5.05-0.691 4.451-1.322 9.564-1.75 14.13-0.204 2.187-0.641 6.514-0.976 9.623l-0.606 5.653 2.557-0.606c1.411-0.336 3.951-0.764 5.653-0.942 4.402-0.461 10.432-1.439 16.352-2.658 1.458-0.3 3.331-0.528 4.172-0.538s1.751-0.374 2.02-0.808c0.268-0.434 1.052-0.591 1.716-0.336s1.442 0.06 1.75-0.437c0.308-0.498 1.119-0.692 1.783-0.437s1.442 0.06 1.75-0.437c0.308-0.498 1.119-0.726 1.783-0.471s1.457 0.056 1.783-0.471 0.934-0.759 1.346-0.505 1.886-0.002 3.264-0.572c1.377-0.57 2.798-1.11 3.163-1.211s0.867-0.282 1.11-0.404 0.826-0.35 1.312-0.471c0.486-0.122 1.069-0.316 1.312-0.437 0.243-0.122 0.86-0.316 1.346-0.437 0.486-0.122 0.989-0.307 1.11-0.404 0.122-0.097 1.124-0.329 2.254-0.538s2.913-0.866 3.97-1.447 2.716-1.188 3.667-1.346 2.044-0.784 2.423-1.379c0.378-0.595 0.698-0.752 0.707-0.37 0.007 0.382 0.892 0.203 1.985-0.404 1.094-0.606 2.294-1.012 2.658-0.908 0.365 0.103 0.673-0.221 0.673-0.707s0.275-0.805 0.639-0.707c1.15 0.311 7.301-2.268 7.301-3.062 0-0.417 0.389-0.502 0.875-0.202s0.908 0.106 0.908-0.437 0.389-0.771 0.875-0.471 0.875 0.061 0.875-0.538c0-0.647 0.666-0.404 1.649 0.606 0.91 0.936 1.488 2.024 1.279 2.389-0.21 0.365 0.062 0.639 0.606 0.639 0.543 0 0.738 0.422 0.437 0.908-0.3 0.486-0.106 0.875 0.437 0.875s0.771 0.389 0.471 0.875-0.106 0.875 0.437 0.875 0.738 0.422 0.437 0.908c-0.3 0.486-0.198 0.875 0.236 0.875 2.06 0 0.455 2.758-2.153 3.701-1.62 0.586-2.961 1.4-2.961 1.817s-0.389 0.536-0.875 0.236-0.875-0.106-0.875 0.437-0.389 0.738-0.875 0.437c-0.486-0.3-0.908-0.111-0.908 0.404s-0.275 0.854-0.639 0.774c-1.445-0.316-5.552 1.274-5.552 2.153 0 0.514-0.231 0.677-0.538 0.37s-1.393-0.096-2.423 0.471-2.649 1.155-3.6 1.312c-0.951 0.158-2.044 0.784-2.423 1.379-0.378 0.595-0.698 0.763-0.707 0.37-0.007-0.393-0.503-0.413-1.11-0.034-0.608 0.38-1.598 0.785-2.187 0.875-2.132 0.324-13.09 4.105-14.03 4.845-0.531 0.417-1.161 0.555-1.413 0.303s-1.624 0.027-3.03 0.606c-1.404 0.578-2.882 0.97-3.297 0.875-0.416-0.096-1.249 0.208-1.851 0.707-0.601 0.499-1.284 0.735-1.514 0.505s-1.797-0.002-3.466 0.505-4.03 1.097-5.249 1.312c-1.215 0.215-3.193 0.598-4.408 0.841-2.518 0.505-6.111 1.073-10.598 1.682-1.701 0.231-4.684 0.641-6.628 0.908-1.944 0.268-4.361 0.514-5.383 0.572-1.751 0.1-1.854 0.531-1.615 7.301 0.255 7.229 0.721 13.04 1.615 19.582 0.266 1.944 0.506 4.259 0.538 5.181 0.031 0.922 0.68 3.905 1.413 6.628s1.52 6.337 1.75 8.01c0.23 1.67 0.834 3.522 1.346 4.138 0.512 0.617 0.684 1.545 0.37 2.052s-0.182 0.942 0.303 0.942c0.484 0 0.895 0.697 0.908 1.548 0.03 1.868 0.665 5.85 0.976 6.157 0.123 0.122 0.316 0.624 0.437 1.11 0.122 0.486 0.306 0.989 0.404 1.11 0.098 0.122 0.303 0.962 0.471 1.851s0.616 2.283 0.976 3.095c0.832 1.879 0.974 2.472 1.11 4.105 0.143 1.71 1.192 1.662 7.671-0.37 14.719-4.615 35.468-15.11 48.11-24.326 37.12-27.06 60.686-65.859 68.17-112.28 1.471-9.118 1.467-37.675 0-46.835-6.329-39.531-22.981-71.75-50.671-98.08-14.658-13.937-29.441-23.708-49.39-32.569-9.992-4.438-17.1-6.86-19.414-6.729m20.15 62.952c0.664 0.031 1.332 0.416 2.523 1.178 4.873 3.116 4.918 3.336 4.811 23.451-0.054 10.247-0.165 19.07-0.269 19.616-0.104 0.543-1.042 1.658-2.052 2.49-3.739 3.08-7.997 2.762-11.238-0.841-1.462-1.626-1.602-3.568-1.514-20.894 0.087-17.212 0.857-24.714 2.389-23.18 0.298 0.298 1.612-0.098 2.927-0.875 1.11-0.656 1.759-0.973 2.423-0.942m-142.32 0.908c1.019 0.037 2.047 0.266 3.03 0.673 4.712 1.952 5.215 4.183 5.215 23.754v17.698l-2.423 2.591c-1.337 1.419-3.428 2.769-4.643 3.03-2.814 0.6-7.544-1.389-8.782-3.701-0.595-1.111-0.942-8.747-0.942-20.289 0-17.196 0.13-18.624 1.783-20.726 1.384-1.759 3.504-2.811 5.753-2.994 0.337-0.028 0.67-0.046 1.01-0.034"/></svg>