<svg xmlns="http://www.w3.org/2000/svg" xmlns:xlink="http://www.w3.org/1999/xlink" viewBox="0 0 512 512"><defs><clipPath><path d="m471.95 253.05c0 120.9-98.01 218.9-218.9 218.9-120.9 0-218.9-98.01-218.9-218.9 0-120.9 98.01-218.9 218.9-218.9 120.9 0 218.9 98.01 218.9 218.9"/></clipPath><clipPath><path d="m471.95 253.05c0 120.9-98.01 218.91-218.91 218.91-120.9 0-218.91-98.01-218.91-218.91 0-120.9 98.01-218.91 218.91-218.91 120.9 0 218.91 98.01 218.91 218.91"/></clipPath><clipPath><path d="m471.95 253.05c0 120.9-98.01 218.91-218.91 218.91-120.9 0-218.91-98.01-218.91-218.91 0-120.9 98.01-218.91 218.91-218.91 120.9 0 218.91 98.01 218.91 218.91"/></clipPath><linearGradient id="0"><stop style="stop-color:#fff"/><stop offset=".688" style="stop-color:#e8e8e8"/><stop offset=".875" style="stop-color:#686868"/><stop offset="1"/></linearGradient><radialGradient xlink:href="#0" gradientUnits="userSpaceOnUse" cx="64" cy="64" r="64" gradientTransform="matrix(4.16583 0 0 3.88749 2083.54-377.93)"/><radialGradient r="64" cy="64" cx="64" gradientUnits="userSpaceOnUse" xlink:href="#0" gradientTransform="matrix(4.16583 0 0 3.88749 660.12-262.53)"/><radialGradient gradientTransform="matrix(.96036.84734-.66161.74985 107.09-145.91)" gradientUnits="userSpaceOnUse" r="218.91" cy="148.91" cx="216.16" id="1"><stop style="stop-color:#51a5cb"/><stop offset="1" style="stop-color:#0078ad"/></radialGradient></defs><text x="729.64" y="231.36" line-height="125%" style="letter-spacing:0;word-spacing:0;font-size:129.23;font-family:&apos;Gentium Book Basic&apos;"><tspan x="729.64" y="231.36"/></text><text x="378.91" y="579.26" transform="scale(4.0128.2492)" style="font-size:46.954;font-family:Arial;text-anchor:middle"/><text x="1310.91" y="151.36" line-height="125%" style="letter-spacing:0;word-spacing:0;font-size:129.23;font-family:&apos;Gentium Book Basic&apos;"><tspan x="1310.91" y="151.36"/></text><text x="523.76" y="258.22" transform="scale(4.0128.2492)" style="font-size:46.954;font-family:Arial;text-anchor:middle"/><text x="239.33" y="-29.9" line-height="125%" style="letter-spacing:0;word-spacing:0;font-size:129.23;font-family:&apos;Gentium Book Basic&apos;"><tspan x="239.33" y="-29.9"/></text><text x="256.72" y="-469.13" transform="scale(4.0128.2492)" style="font-size:46.954;font-family:Arial;text-anchor:middle"/><text x="1337.38" y="-246.37" line-height="125%" style="letter-spacing:0;word-spacing:0;font-size:129.23;font-family:&apos;Gentium Book Basic&apos;"><tspan x="1337.38" y="-246.37"/></text><text x="530.36" y="-1337.8" transform="scale(4.0128.2492)" style="font-size:46.954;font-family:Arial;text-anchor:middle"/><text x="1918.65" y="-326.37" line-height="125%" style="letter-spacing:0;word-spacing:0;font-size:129.23;font-family:&apos;Gentium Book Basic&apos;"><tspan x="1918.65" y="-326.37"/></text><text x="675.21" y="-1658.83" transform="scale(4.0128.2492)" style="font-size:46.954;font-family:Arial;text-anchor:middle"/><text x="1529.53" y="-798.77" line-height="125%" style="letter-spacing:0;word-spacing:0;font-size:129.23;font-family:&apos;Gentium Book Basic&apos;"><tspan x="1529.53" y="-798.77"/></text><text x="578.24" y="-3554.48" transform="scale(4.0128.2492)" style="font-size:46.954;font-family:Arial;text-anchor:middle"/><text x="2110.79" y="-878.78" line-height="125%" style="letter-spacing:0;word-spacing:0;font-size:129.23;font-family:&apos;Gentium Book Basic&apos;"><tspan x="2110.79" y="-878.78"/></text><text x="723.09" y="-3875.52" transform="scale(4.0128.2492)" style="font-size:46.954;font-family:Arial;text-anchor:middle"/><g line-height="125%" style="letter-spacing:0;word-spacing:0;font-family:&apos;Gentium Book Basic&apos;"><text x="277.99" y="535.94" style="font-size:208.33"><tspan x="277.99" y="535.94"/></text><text x="729.64" y="231.36" style="font-size:129.23"><tspan x="729.64" y="231.36"/></text></g><text x="378.91" y="579.26" transform="scale(4.0128.2492)" style="font-size:46.954;font-family:Arial;text-anchor:middle"/><text line-height="125%" x="1310.91" y="151.36" style="letter-spacing:0;word-spacing:0;font-size:129.23;font-family:&apos;Gentium Book Basic&apos;"><tspan x="1310.91" y="151.36"/></text><text x="523.76" y="258.22" transform="scale(4.0128.2492)" style="font-size:46.954;font-family:Arial;text-anchor:middle"/><text line-height="125%" x="239.33" y="-29.9" style="letter-spacing:0;word-spacing:0;font-size:129.23;font-family:&apos;Gentium Book Basic&apos;"><tspan x="239.33" y="-29.9"/></text><text x="256.72" y="-469.13" transform="scale(4.0128.2492)" style="font-size:46.954;font-family:Arial;text-anchor:middle"/><text line-height="125%" x="1337.38" y="-246.37" style="letter-spacing:0;word-spacing:0;font-size:129.23;font-family:&apos;Gentium Book Basic&apos;"><tspan x="1337.38" y="-246.37"/></text><text x="530.36" y="-1337.8" transform="scale(4.0128.2492)" style="font-size:46.954;font-family:Arial;text-anchor:middle"/><text line-height="125%" x="1918.65" y="-326.37" style="letter-spacing:0;word-spacing:0;font-size:129.23;font-family:&apos;Gentium Book Basic&apos;"><tspan x="1918.65" y="-326.37"/></text><text x="675.21" y="-1658.83" transform="scale(4.0128.2492)" style="font-size:46.954;font-family:Arial;text-anchor:middle"/><text line-height="125%" x="1529.53" y="-798.77" style="letter-spacing:0;word-spacing:0;font-size:129.23;font-family:&apos;Gentium Book Basic&apos;"><tspan x="1529.53" y="-798.77"/></text><text x="578.24" y="-3554.48" transform="scale(4.0128.2492)" style="font-size:46.954;font-family:Arial;text-anchor:middle"/><text line-height="125%" x="2110.79" y="-878.78" style="letter-spacing:0;word-spacing:0;font-size:129.23;font-family:&apos;Gentium Book Basic&apos;"><tspan x="2110.79" y="-878.78"/></text><text x="723.09" y="-3875.52" transform="scale(4.0128.2492)" style="font-size:46.954;font-family:Arial;text-anchor:middle"/><g line-height="125%" style="letter-spacing:0;word-spacing:0;font-family:&apos;Gentium Book Basic&apos;"><text x="277.99" y="535.94" style="font-size:208.33"><tspan x="277.99" y="535.94"/></text><text y="272.59" x="1722.37" style="font-size:129.23"><tspan y="272.59" x="1722.37"/></text></g><text transform="scale(4.0128.2492)" y="744.7" x="626.3" style="font-size:46.954;font-family:Arial;text-anchor:middle"/><text y="192.59" x="2303.64" line-height="125%" style="letter-spacing:0;word-spacing:0;font-size:129.23;font-family:&apos;Gentium Book Basic&apos;"><tspan y="192.59" x="2303.64"/></text><text transform="scale(4.0128.2492)" y="423.67" x="771.15" style="font-size:46.954;font-family:Arial;text-anchor:middle"/><text y="11.33" x="1232.06" line-height="125%" style="letter-spacing:0;word-spacing:0;font-size:129.23;font-family:&apos;Gentium Book Basic&apos;"><tspan y="11.33" x="1232.06"/></text><text transform="scale(4.0128.2492)" y="-303.68" x="504.11" style="font-size:46.954;font-family:Arial;text-anchor:middle"/><text y="-205.14" x="2330.11" line-height="125%" style="letter-spacing:0;word-spacing:0;font-size:129.23;font-family:&apos;Gentium Book Basic&apos;"><tspan y="-205.14" x="2330.11"/></text><text transform="scale(4.0128.2492)" y="-1172.35" x="777.75" style="font-size:46.954;font-family:Arial;text-anchor:middle"/><text y="-285.15" x="2911.38" line-height="125%" style="letter-spacing:0;word-spacing:0;font-size:129.23;font-family:&apos;Gentium Book Basic&apos;"><tspan y="-285.15" x="2911.38"/></text><text transform="scale(4.0128.2492)" y="-1493.39" x="922.6" style="font-size:46.954;font-family:Arial;text-anchor:middle"/><text y="-757.55" x="2522.26" line-height="125%" style="letter-spacing:0;word-spacing:0;font-size:129.23;font-family:&apos;Gentium Book Basic&apos;"><tspan y="-757.55" x="2522.26"/></text><text transform="scale(4.0128.2492)" y="-3389.04" x="825.63" style="font-size:46.954;font-family:Arial;text-anchor:middle"/><text y="-837.55" x="3103.52" line-height="125%" style="letter-spacing:0;word-spacing:0;font-size:129.23;font-family:&apos;Gentium Book Basic&apos;"><tspan y="-837.55" x="3103.52"/></text><text transform="scale(4.0128.2492)" y="-3710.07" x="970.48" style="font-size:46.954;font-family:Arial;text-anchor:middle"/><g line-height="125%" style="letter-spacing:0;word-spacing:0;font-family:&apos;Gentium Book Basic&apos;"><text y="577.17" x="1270.72" style="font-size:208.33"><tspan y="577.17" x="1270.72"/></text><text y="231.36" x="729.64" style="font-size:129.23"><tspan y="231.36" x="729.64"/></text></g><text transform="scale(4.0128.2492)" y="579.25" x="378.91" style="font-size:46.954;font-family:Arial;text-anchor:middle"/><text y="151.36" x="1310.91" line-height="125%" style="letter-spacing:0;word-spacing:0;font-size:129.23;font-family:&apos;Gentium Book Basic&apos;"><tspan y="151.36" x="1310.91"/></text><text transform="scale(4.0128.2492)" y="258.22" x="523.76" style="font-size:46.954;font-family:Arial;text-anchor:middle"/><text y="-29.901" x="239.33" line-height="125%" style="letter-spacing:0;word-spacing:0;font-size:129.23;font-family:&apos;Gentium Book Basic&apos;"><tspan y="-29.901" x="239.33"/></text><text transform="scale(4.0128.2492)" y="-469.14" x="256.72" style="font-size:46.954;font-family:Arial;text-anchor:middle"/><text y="-246.37" x="1337.38" line-height="125%" style="letter-spacing:0;word-spacing:0;font-size:129.23;font-family:&apos;Gentium Book Basic&apos;"><tspan y="-246.37" x="1337.38"/></text><text transform="scale(4.0128.2492)" y="-1337.8" x="530.36" style="font-size:46.954;font-family:Arial;text-anchor:middle"/><text y="-326.38" x="1918.65" line-height="125%" style="letter-spacing:0;word-spacing:0;font-size:129.23;font-family:&apos;Gentium Book Basic&apos;"><tspan y="-326.38" x="1918.65"/></text><text transform="scale(4.0128.2492)" y="-1658.84" x="675.21" style="font-size:46.954;font-family:Arial;text-anchor:middle"/><text y="-798.78" x="1529.53" line-height="125%" style="letter-spacing:0;word-spacing:0;font-size:129.23;font-family:&apos;Gentium Book Basic&apos;"><tspan y="-798.78" x="1529.53"/></text><text transform="scale(4.0128.2492)" y="-3554.49" x="578.24" style="font-size:46.954;font-family:Arial;text-anchor:middle"/><text y="-878.78" x="2110.79" line-height="125%" style="letter-spacing:0;word-spacing:0;font-size:129.23;font-family:&apos;Gentium Book Basic&apos;"><tspan y="-878.78" x="2110.79"/></text><text transform="scale(4.0128.2492)" y="-3875.52" x="723.09" style="font-size:46.954;font-family:Arial;text-anchor:middle"/><g line-height="125%" style="letter-spacing:0;word-spacing:0;font-family:&apos;Gentium Book Basic&apos;"><text y="535.94" x="277.99" style="font-size:208.33"><tspan y="535.94" x="277.99"/></text><text y="1377.33" x="-26569.5" style="font-size:4848.41"><tspan y="1377.33" x="-26569.5"/></text></g><text transform="scale(4.0128.2492)" y="-7573.02" x="773.15" style="font-size:1761.74;font-family:Arial;text-anchor:middle"/><text line-height="125%" y="2289.39" x="-26704.25" style="letter-spacing:0;word-spacing:0;font-size:4848.41;font-family:&apos;Gentium Book Basic&apos;"><tspan y="2289.39" x="-26704.25"/></text><text transform="scale(4.0128.2492)" y="-3913.17" x="739.61" style="font-size:1761.74;font-family:Arial;text-anchor:middle"/><g style="fill:#555753"><text transform="scale(1.05082.95163)" x="-12267.45" y="-4757.27" line-height="125%" style="letter-spacing:0;word-spacing:0;font-size:2976.1;font-family:&apos;Gentium Book Basic&apos;"><tspan x="-12267.45" y="-4757.27"/></text><text x="1481.85" y="-27131.37" transform="scale(4.21677.23715)" style="font-size:1081.49;font-family:Arial;text-anchor:middle"/><text transform="scale(1.05082.95163)" x="-2864.61" y="-5582.29" line-height="125%" style="letter-spacing:0;word-spacing:0;font-size:1593.24;font-family:&apos;Gentium Book Basic&apos;"><tspan x="-2864.61" y="-5582.29"/></text><text x="1715.95" y="-26705.24" transform="scale(4.21677.23715)" style="font-size:578.89;font-family:Arial;text-anchor:middle"/><text x="-38904.05" y="-1736.32" line-height="125%" style="letter-spacing:0;word-spacing:0;font-size:4654.55;font-family:&apos;Gentium Book Basic&apos;"><tspan x="-38904.05" y="-1736.32"/></text><text x="-2596.26" y="-19543.06" transform="scale(4.0128.2492)" style="font-size:1691.22;font-family:Arial;text-anchor:middle"/></g><g style="fill:#000"><text x="-24720.95" y="-13962.89" line-height="125%" style="letter-spacing:0;word-spacing:0;font-size:4848.41;font-family:&apos;Gentium Book Basic&apos;;stroke:#cd1d31;stroke-width:23.273"><tspan x="-24720.95" y="-13962.89" style="stroke-width:23.273"/></text><text x="1233.94" y="-69130.72" transform="scale(4.0128.2492)" style="font-size:1761.74;font-family:Arial;stroke:none;text-anchor:middle"/><text x="-24855.93" y="-13050.83" line-height="125%" style="letter-spacing:0;word-spacing:0;font-size:4848.41;font-family:&apos;Gentium Book Basic&apos;;stroke:#cd1d31;stroke-width:23.273"><tspan x="-24855.93" y="-13050.83" style="stroke-width:23.273"/></text><text x="1200.27" y="-65470.63" transform="scale(4.0128.2492)" style="font-size:1761.74;font-family:Arial;stroke:none;text-anchor:middle"/></g><g style="fill:#555753"><g style="stroke:#cd1d31;stroke-width:23.273"><text line-height="125%" y="-20877.06" x="-10508.27" transform="scale(1.05082.95163)" style="letter-spacing:0;word-spacing:0;font-size:2976.1;font-family:&apos;Gentium Book Basic&apos;"><tspan y="-20877.06" x="-10508.27" style="stroke-width:23.273"/></text><text transform="scale(4.21677.23715)" y="-91818.3" x="1920.29" style="font-size:1081.49;font-family:Arial;text-anchor:middle"/><text line-height="125%" y="-21702.08" x="-1105.66" transform="scale(1.05082.95163)" style="letter-spacing:0;word-spacing:0;font-size:1593.24;font-family:&apos;Gentium Book Basic&apos;"><tspan y="-21702.08" x="-1105.66" style="stroke-width:23.273"/></text><text transform="scale(4.21677.23715)" y="-91392.18" x="2154.18" style="font-size:578.89;font-family:Arial;text-anchor:middle"/><text line-height="125%" y="-17076.54" x="-37055.5" style="letter-spacing:0;word-spacing:0;font-size:4654.55;font-family:&apos;Gentium Book Basic&apos;"><tspan y="-17076.54" x="-37055.5" style="stroke-width:23.273"/></text></g><text x="-2135.7" y="-81100.75" transform="scale(4.0128.2492)" style="font-size:1691.22;font-family:Arial;stroke:none;text-anchor:middle"/></g><g style="fill:#000"><text x="-7745.12" y="-20652.4" line-height="125%" style="letter-spacing:0;word-spacing:0;font-size:4654.55;font-family:&apos;Gentium Book Basic&apos;;stroke:#cd1d31;stroke-width:23.273"><tspan x="-7745.12" y="-20652.4" style="stroke-width:23.273"/></text><text x="5168.41" y="-95449.94" transform="scale(4.0128.2492)" style="font-size:1691.22;font-family:Arial;stroke:none;text-anchor:middle"/><text x="13191.49" y="-23534.03" line-height="125%" style="letter-spacing:0;word-spacing:0;font-size:4654.55;font-family:&apos;Gentium Book Basic&apos;;stroke:#cd1d31;stroke-width:23.273"><tspan x="13191.49" y="-23534.03" style="stroke-width:23.273"/></text><text x="10385.9" y="-107013.17" transform="scale(4.0128.2492)" style="font-size:1691.22;font-family:Arial;stroke:none;text-anchor:middle"/></g><g style="fill:#555753"><text line-height="125%" y="-506.69" x="2674.54" style="letter-spacing:0;word-spacing:0;font-size:4654.55;font-family:&apos;Gentium Book Basic&apos;;stroke:#555753;stroke-width:23.273"><tspan y="-506.69" x="2674.54" style="stroke-width:23.273"/></text><text transform="scale(4.0128.2492)" y="-14609.03" x="7764.94" style="font-size:1691.22;font-family:Arial;stroke:none;text-anchor:middle"/><text line-height="125%" y="730.1" x="20021.57" style="letter-spacing:0;word-spacing:0;font-size:4654.55;font-family:&apos;Gentium Book Basic&apos;;stroke:#555753;stroke-width:23.273"><tspan y="730.1" x="20021.57" style="stroke-width:23.273"/></text><text transform="scale(4.0128.2492)" y="-9646.15" x="12087.82" style="font-size:1691.22;font-family:Arial;stroke:none;text-anchor:middle"/><text line-height="125%" y="-2151.51" x="40957.95" style="letter-spacing:0;word-spacing:0;font-size:4654.55;font-family:&apos;Gentium Book Basic&apos;;stroke:#555753;stroke-width:23.273"><tspan y="-2151.51" x="40957.95" style="stroke-width:23.273"/></text><text transform="scale(4.0128.2492)" y="-21209.38" x="17305.31" style="font-size:1691.22;font-family:Arial;stroke:none;text-anchor:middle"/><text line-height="125%" y="-3376.59" x="20660.64" style="letter-spacing:0;word-spacing:0;font-size:4654.55;font-family:&apos;Gentium Book Basic&apos;;stroke:#555753;stroke-width:23.273"><tspan y="-3376.59" x="20660.64" style="stroke-width:23.273"/></text><text transform="scale(4.0128.2492)" y="-26125.02" x="12247.24" style="font-size:1691.22;font-family:Arial;stroke:none;text-anchor:middle"/><text line-height="125%" y="-6257.98" x="41597.25" style="letter-spacing:0;word-spacing:0;font-size:4654.55;font-family:&apos;Gentium Book Basic&apos;;stroke:#555753;stroke-width:23.273"><tspan y="-6257.98" x="41597.25" style="stroke-width:23.273"/></text><text transform="scale(4.0128.2492)" y="-37688.25" x="17464.5" style="font-size:1691.22;font-family:Arial;stroke:none;text-anchor:middle"/><text line-height="125%" y="7140.13" x="-49389.81" style="letter-spacing:0;word-spacing:0;font-size:4654.55;font-family:&apos;Gentium Book Basic&apos;;stroke:#555753;stroke-width:23.273"><tspan y="7140.13" x="-49389.81" style="stroke-width:23.273"/></text><text transform="scale(4.0128.2492)" y="16075.9" x="-5209.31" style="font-size:1691.22;font-family:Arial;stroke:none;text-anchor:middle"/></g><text y="231.36" x="729.64" line-height="125%" style="letter-spacing:0;word-spacing:0;font-size:129.23;font-family:&apos;Gentium Book Basic&apos;"><tspan y="231.36" x="729.64"/></text><text transform="scale(4.0128.2492)" y="579.26" x="378.91" style="font-size:46.954;font-family:Arial;text-anchor:middle"/><text y="151.36" x="1310.91" line-height="125%" style="letter-spacing:0;word-spacing:0;font-size:129.23;font-family:&apos;Gentium Book Basic&apos;"><tspan y="151.36" x="1310.91"/></text><text transform="scale(4.0128.2492)" y="258.22" x="523.76" style="font-size:46.954;font-family:Arial;text-anchor:middle"/><text y="-29.9" x="239.33" line-height="125%" style="letter-spacing:0;word-spacing:0;font-size:129.23;font-family:&apos;Gentium Book Basic&apos;"><tspan y="-29.9" x="239.33"/></text><text transform="scale(4.0128.2492)" y="-469.13" x="256.72" style="font-size:46.954;font-family:Arial;text-anchor:middle"/><text y="-246.37" x="1337.38" line-height="125%" style="letter-spacing:0;word-spacing:0;font-size:129.23;font-family:&apos;Gentium Book Basic&apos;"><tspan y="-246.37" x="1337.38"/></text><text transform="scale(4.0128.2492)" y="-1337.79" x="530.36" style="font-size:46.954;font-family:Arial;text-anchor:middle"/><text y="-326.37" x="1918.65" line-height="125%" style="letter-spacing:0;word-spacing:0;font-size:129.23;font-family:&apos;Gentium Book Basic&apos;"><tspan y="-326.37" x="1918.65"/></text><text transform="scale(4.0128.2492)" y="-1658.82" x="675.21" style="font-size:46.954;font-family:Arial;text-anchor:middle"/><text y="-798.77" x="1529.53" line-height="125%" style="letter-spacing:0;word-spacing:0;font-size:129.23;font-family:&apos;Gentium Book Basic&apos;"><tspan y="-798.77" x="1529.53"/></text><text transform="scale(4.0128.2492)" y="-3554.46" x="578.24" style="font-size:46.954;font-family:Arial;text-anchor:middle"/><text y="-878.78" x="2110.79" line-height="125%" style="letter-spacing:0;word-spacing:0;font-size:129.23;font-family:&apos;Gentium Book Basic&apos;"><tspan y="-878.78" x="2110.79"/></text><text transform="scale(4.0128.2492)" y="-3875.5" x="723.09" style="font-size:46.954;font-family:Arial;text-anchor:middle"/><text y="535.94" x="277.99" line-height="125%" style="letter-spacing:0;word-spacing:0;font-size:208.33;font-family:&apos;Gentium Book Basic&apos;"><tspan y="535.94" x="277.99"/></text><g style="fill-rule:evenodd"><path d="m471.95 253.05c0 120.9-98.01 218.91-218.91 218.91-120.9 0-218.91-98.01-218.91-218.91 0-120.9 98.01-218.91 218.91-218.91 120.9 0 218.91 98.01 218.91 218.91" style="fill:url(#1)"/><path d="m256 1c-140.83 0-255 114.17-255 255 0 140.83 114.17 255 255 255 140.83 0 255-114.17 255-255 0-140.83-114.17-255-255-255m8.827 44.931c120.9 0 218.9 98 218.9 218.9 0 120.9-98 218.9-218.9 218.9-120.9 0-218.93-98-218.93-218.9 0-120.9 98.03-218.9 218.93-218.9" style="fill-opacity:.067"/><g style="fill-opacity:.129"><path d="m256 4.43c-138.94 0-251.57 112.63-251.57 251.57 0 138.94 112.63 251.57 251.57 251.57 138.94 0 251.57-112.63 251.57-251.57 0-138.94-112.63-251.57-251.57-251.57m5.885 38.556c120.9 0 218.9 98 218.9 218.9 0 120.9-98 218.9-218.9 218.9-120.9 0-218.93-98-218.93-218.9 0-120.9 98.03-218.9 218.93-218.9"/><path d="m256 8.36c-136.77 0-247.64 110.87-247.64 247.64 0 136.77 110.87 247.64 247.64 247.64 136.77 0 247.64-110.87 247.64-247.64 0-136.77-110.87-247.64-247.64-247.64m2.942 31.691c120.9 0 218.9 98 218.9 218.9 0 120.9-98 218.9-218.9 218.9-120.9 0-218.93-98-218.93-218.9 0-120.9 98.03-218.9 218.93-218.9"/></g><path d="m253.04 7.86c-135.42 0-245.19 109.78-245.19 245.19 0 135.42 109.78 245.19 245.19 245.19 135.42 0 245.19-109.78 245.19-245.19 0-135.42-109.78-245.19-245.19-245.19m0 26.297c120.9 0 218.9 98 218.9 218.9 0 120.9-98 218.9-218.9 218.9-120.9 0-218.93-98-218.93-218.9 0-120.9 98.03-218.9 218.93-218.9z" style="stroke-opacity:.31;fill:#fff;stroke:#000;stroke-width:4.904"/></g><g style="fill:#f4d27a;color:#000"><path d="m251.18 138.99l-4.58-35.908-35.908-4.58 35.908-4.58 4.58-35.908 4.58 35.908 35.908 4.58-35.908 4.58z"/><path d="m166.57 145.5l-2.617-20.516-20.516-2.617 20.516-2.617 2.617-20.516 2.617 20.516 20.516 2.617-20.516 2.617z"/></g><text y="177.12" x="1532.35" line-height="125%" style="letter-spacing:0;word-spacing:0;font-size:129.23;font-family:&apos;Gentium Book Basic&apos;"><tspan y="177.12" x="1532.35"/></text><text transform="scale(4.0128.2492)" y="361.61" x="578.94" style="font-size:46.954;font-family:Arial;text-anchor:middle"/><text y="97.12" x="2113.62" line-height="125%" style="letter-spacing:0;word-spacing:0;font-size:129.23;font-family:&apos;Gentium Book Basic&apos;"><tspan y="97.12" x="2113.62"/></text><text transform="scale(4.0128.2492)" y="40.575" x="723.79" style="font-size:46.954;font-family:Arial;text-anchor:middle"/><text y="-84.14" x="1042.04" line-height="125%" style="letter-spacing:0;word-spacing:0;font-size:129.23;font-family:&apos;Gentium Book Basic&apos;"><tspan y="-84.14" x="1042.04"/></text><text transform="scale(4.0128.2492)" y="-686.77" x="456.76" style="font-size:46.954;font-family:Arial;text-anchor:middle"/><text y="-300.61" x="2140.09" line-height="125%" style="letter-spacing:0;word-spacing:0;font-size:129.23;font-family:&apos;Gentium Book Basic&apos;"><tspan y="-300.61" x="2140.09"/></text><text transform="scale(4.0128.2492)" y="-1555.45" x="730.39" style="font-size:46.954;font-family:Arial;text-anchor:middle"/><text y="-380.61" x="2721.36" line-height="125%" style="letter-spacing:0;word-spacing:0;font-size:129.23;font-family:&apos;Gentium Book Basic&apos;"><tspan y="-380.61" x="2721.36"/></text><text transform="scale(4.0128.2492)" y="-1876.47" x="875.24" style="font-size:46.954;font-family:Arial;text-anchor:middle"/><text y="-853.01" x="2332.24" line-height="125%" style="letter-spacing:0;word-spacing:0;font-size:129.23;font-family:&apos;Gentium Book Basic&apos;"><tspan y="-853.01" x="2332.24"/></text><text transform="scale(4.0128.2492)" y="-3772.13" x="778.27" style="font-size:46.954;font-family:Arial;text-anchor:middle"/><text y="-933.02" x="2913.5" line-height="125%" style="letter-spacing:0;word-spacing:0;font-size:129.23;font-family:&apos;Gentium Book Basic&apos;"><tspan y="-933.02" x="2913.5"/></text><text transform="scale(4.0128.2492)" y="-4093.16" x="923.12" style="font-size:46.954;font-family:Arial;text-anchor:middle"/><text y="481.7" x="1080.7" line-height="125%" style="letter-spacing:0;word-spacing:0;font-size:208.33;font-family:&apos;Gentium Book Basic&apos;"><tspan y="481.7" x="1080.7"/></text><g style="fill:#f4d27a;color:#000"><path d="m260.94 239.87l-4.212-33.02-33.02-4.212 33.02-4.212 4.212-33.02 4.212 33.02 33.02 4.212-33.02 4.212z"/><path d="m368.33 156.35l-3.108-24.364-24.364-3.108 24.364-3.108 3.108-24.364 3.108 24.364 24.364 3.108-24.364 3.108z"/><path d="m408.47 247.47l-4.335-33.984-33.984-4.335 33.984-4.335 4.335-33.984 4.335 33.984 33.984 4.335-33.984 4.335z"/></g><g style="fill-rule:evenodd"><path d="m298.97 100.59c-.614.075-1.206.186-1.813.406l-18.469 6.688c-2.203.8-3.821 2.451-4.625 4.438.043.636.196 1.276.438 1.906l18.25 47.5 7.123 7.123c-1.291.471-2.583.936-3.873 1.408l58.13 151.31 7.1 7.1c-1.282.468-2.569.931-3.85 1.4l18.19 47.38c.155.404.35.779.57 1.135l-136.71-136.71c-17.16-17.16-43.08-40.508-71.51-49.891-7.744-2.438-15.844-3.856-23.563-3.813-7.719.043-15.06 1.559-21.313 4.938-6.555 3.539-11.911 9.138-15.25 17.313-15.338 86.37-10.952 135.94 15.475 162.37l96.92 96.92c10.721 1.614 21.693 2.457 32.863 2.457 114.4 0 208.29-87.76 218.06-199.63l-170.57-170.57c-.466-.466-.994-.86-1.559-1.172" style="opacity:.25"/><path d="m298.97 100.59c-.614.075-1.206.186-1.813.406l-18.469 6.688c-2.203.8-3.821 2.451-4.625 4.438.043.636.196 1.276.438 1.906l18.25 47.5c9.164-3.339 18.344-6.626 27.5-10l-18.219-47.47c-.592-1.531-1.726-2.731-3.063-3.469m24.531 59.47c-9.17 3.329-18.338 6.649-27.5 10l58.13 151.31c9.164-3.329 18.304-6.673 27.469-10l-58.09-151.31m-179.16 27.906c-7.719.043-15.06 1.559-21.313 4.938-6.555 3.539-11.911 9.138-15.25 17.313-31.466 177.18 20.08 199.49 174.63 184.84 16.415-6.693 33.05-31.568 20.313-64.875-9.259-23.24-28.04-51.55-53.594-78.59-15.942-16.508-46.737-48.43-81.22-59.813-7.744-2.438-15.844-3.856-23.563-3.813zm-2.813 21.16c1.194-.04 2.331.02 3.219.094 6.558.539 14.859 3.185 24.03 7.625 20.521 9.933 43.38 27.626 64.38 49.844 20.988 22.22 37.34 46.04 46.09 67.09 3.914 9.409 6.083 17.893 6.25 24.469.07 2.714-.157 7.569-2.531 9.813-2.374 2.243-7.262 2.223-9.969 2-6.557-.539-14.89-3.216-24.06-7.656-20.521-9.933-43.38-27.625-64.37-49.844-20.99-22.22-37.34-46.04-46.09-67.09-3.913-9.409-6.084-17.861-6.25-24.438-.07-2.717.158-7.601 2.531-9.844.297-.28.634-.537 1-.75 1.603-.932 3.792-1.245 5.781-1.313m41.813 49.47c-.87-.007-1.915.1-2.656.531-.141.082-.261.142-.375.25-.916.865-1.026 2.765-1 3.813.065 2.534.898 5.811 2.406 9.438 3.374 8.114 9.691 17.281 17.781 25.844 8.09 8.563 16.904 15.39 24.813 19.219 3.535 1.711 6.722 2.73 9.25 2.938 1.044.085 2.959.084 3.875-.781.915-.865.996-2.735.969-3.781-.065-2.534-.898-5.812-2.406-9.438-3.373-8.114-9.692-17.281-17.781-25.844-8.09-8.563-16.872-15.391-24.781-19.219-3.535-1.712-6.753-2.731-9.281-2.938-.228-.019-.523-.029-.813-.031m201.53 61.28c-9.163 3.338-18.355 6.647-27.5 10l18.19 47.38c.596 1.552 1.706 2.766 3.063 3.5.6-.074 1.19-.192 1.781-.406l18.469-6.719c2.188-.795 3.783-2.438 4.594-4.406.003-.008-.004-.022 0-.031-.043-.644-.192-1.299-.438-1.938l-18.16-47.38" style="fill:#fff"/></g></svg>