<svg xmlns="http://www.w3.org/2000/svg" xmlns:xlink="http://www.w3.org/1999/xlink" viewBox="0 0 512 512"><defs><linearGradient id="0"><stop style="stop-color:#fff"/><stop offset=".688" style="stop-color:#e8e8e8"/><stop offset=".875" style="stop-color:#686868"/><stop offset="1"/></linearGradient><radialGradient r="64" cy="64" cx="64" gradientUnits="userSpaceOnUse" xlink:href="#0" gradientTransform="matrix(4.16583 0 0 3.88749 660.12-262.53)"/><radialGradient xlink:href="#0" gradientUnits="userSpaceOnUse" cx="64" cy="64" r="64" gradientTransform="matrix(4.16583 0 0 3.88749 2083.54-377.93)"/></defs><text x="729.64" y="231.36" line-height="125%" style="letter-spacing:0;word-spacing:0;font-size:129.23;font-family:&apos;Gentium Book Basic&apos;"><tspan x="729.64" y="231.36"/></text><text x="378.91" y="579.26" transform="scale(4.0128.2492)" style="font-size:46.954;font-family:Arial;text-anchor:middle"/><text x="1310.91" y="151.36" line-height="125%" style="letter-spacing:0;word-spacing:0;font-size:129.23;font-family:&apos;Gentium Book Basic&apos;"><tspan x="1310.91" y="151.36"/></text><text x="523.76" y="258.22" transform="scale(4.0128.2492)" style="font-size:46.954;font-family:Arial;text-anchor:middle"/><text x="239.33" y="-29.9" line-height="125%" style="letter-spacing:0;word-spacing:0;font-size:129.23;font-family:&apos;Gentium Book Basic&apos;"><tspan x="239.33" y="-29.9"/></text><text x="256.72" y="-469.13" transform="scale(4.0128.2492)" style="font-size:46.954;font-family:Arial;text-anchor:middle"/><text x="1337.38" y="-246.37" line-height="125%" style="letter-spacing:0;word-spacing:0;font-size:129.23;font-family:&apos;Gentium Book Basic&apos;"><tspan x="1337.38" y="-246.37"/></text><text x="530.36" y="-1337.8" transform="scale(4.0128.2492)" style="font-size:46.954;font-family:Arial;text-anchor:middle"/><text x="1918.65" y="-326.37" line-height="125%" style="letter-spacing:0;word-spacing:0;font-size:129.23;font-family:&apos;Gentium Book Basic&apos;"><tspan x="1918.65" y="-326.37"/></text><text x="675.21" y="-1658.83" transform="scale(4.0128.2492)" style="font-size:46.954;font-family:Arial;text-anchor:middle"/><text x="1529.53" y="-798.77" line-height="125%" style="letter-spacing:0;word-spacing:0;font-size:129.23;font-family:&apos;Gentium Book Basic&apos;"><tspan x="1529.53" y="-798.77"/></text><text x="578.24" y="-3554.48" transform="scale(4.0128.2492)" style="font-size:46.954;font-family:Arial;text-anchor:middle"/><text x="2110.79" y="-878.78" line-height="125%" style="letter-spacing:0;word-spacing:0;font-size:129.23;font-family:&apos;Gentium Book Basic&apos;"><tspan x="2110.79" y="-878.78"/></text><text x="723.09" y="-3875.52" transform="scale(4.0128.2492)" style="font-size:46.954;font-family:Arial;text-anchor:middle"/><g line-height="125%" style="letter-spacing:0;word-spacing:0;font-family:&apos;Gentium Book Basic&apos;"><text x="277.99" y="535.94" style="font-size:208.33"><tspan x="277.99" y="535.94"/></text><text x="729.64" y="231.36" style="font-size:129.23"><tspan x="729.64" y="231.36"/></text></g><text x="378.91" y="579.26" transform="scale(4.0128.2492)" style="font-size:46.954;font-family:Arial;text-anchor:middle"/><text line-height="125%" x="1310.91" y="151.36" style="letter-spacing:0;word-spacing:0;font-size:129.23;font-family:&apos;Gentium Book Basic&apos;"><tspan x="1310.91" y="151.36"/></text><text x="523.76" y="258.22" transform="scale(4.0128.2492)" style="font-size:46.954;font-family:Arial;text-anchor:middle"/><text line-height="125%" x="239.33" y="-29.9" style="letter-spacing:0;word-spacing:0;font-size:129.23;font-family:&apos;Gentium Book Basic&apos;"><tspan x="239.33" y="-29.9"/></text><text x="256.72" y="-469.13" transform="scale(4.0128.2492)" style="font-size:46.954;font-family:Arial;text-anchor:middle"/><text line-height="125%" x="1337.38" y="-246.37" style="letter-spacing:0;word-spacing:0;font-size:129.23;font-family:&apos;Gentium Book Basic&apos;"><tspan x="1337.38" y="-246.37"/></text><text x="530.36" y="-1337.8" transform="scale(4.0128.2492)" style="font-size:46.954;font-family:Arial;text-anchor:middle"/><text line-height="125%" x="1918.65" y="-326.37" style="letter-spacing:0;word-spacing:0;font-size:129.23;font-family:&apos;Gentium Book Basic&apos;"><tspan x="1918.65" y="-326.37"/></text><text x="675.21" y="-1658.83" transform="scale(4.0128.2492)" style="font-size:46.954;font-family:Arial;text-anchor:middle"/><text line-height="125%" x="1529.53" y="-798.77" style="letter-spacing:0;word-spacing:0;font-size:129.23;font-family:&apos;Gentium Book Basic&apos;"><tspan x="1529.53" y="-798.77"/></text><text x="578.24" y="-3554.48" transform="scale(4.0128.2492)" style="font-size:46.954;font-family:Arial;text-anchor:middle"/><text line-height="125%" x="2110.79" y="-878.78" style="letter-spacing:0;word-spacing:0;font-size:129.23;font-family:&apos;Gentium Book Basic&apos;"><tspan x="2110.79" y="-878.78"/></text><text x="723.09" y="-3875.52" transform="scale(4.0128.2492)" style="font-size:46.954;font-family:Arial;text-anchor:middle"/><g line-height="125%" style="letter-spacing:0;word-spacing:0;font-family:&apos;Gentium Book Basic&apos;"><text x="277.99" y="535.94" style="font-size:208.33"><tspan x="277.99" y="535.94"/></text><text y="272.59" x="1722.37" style="font-size:129.23"><tspan y="272.59" x="1722.37"/></text></g><text transform="scale(4.0128.2492)" y="744.7" x="626.3" style="font-size:46.954;font-family:Arial;text-anchor:middle"/><text y="192.59" x="2303.64" line-height="125%" style="letter-spacing:0;word-spacing:0;font-size:129.23;font-family:&apos;Gentium Book Basic&apos;"><tspan y="192.59" x="2303.64"/></text><text transform="scale(4.0128.2492)" y="423.67" x="771.15" style="font-size:46.954;font-family:Arial;text-anchor:middle"/><text y="11.33" x="1232.06" line-height="125%" style="letter-spacing:0;word-spacing:0;font-size:129.23;font-family:&apos;Gentium Book Basic&apos;"><tspan y="11.33" x="1232.06"/></text><text transform="scale(4.0128.2492)" y="-303.68" x="504.11" style="font-size:46.954;font-family:Arial;text-anchor:middle"/><text y="-205.14" x="2330.11" line-height="125%" style="letter-spacing:0;word-spacing:0;font-size:129.23;font-family:&apos;Gentium Book Basic&apos;"><tspan y="-205.14" x="2330.11"/></text><text transform="scale(4.0128.2492)" y="-1172.35" x="777.75" style="font-size:46.954;font-family:Arial;text-anchor:middle"/><text y="-285.15" x="2911.38" line-height="125%" style="letter-spacing:0;word-spacing:0;font-size:129.23;font-family:&apos;Gentium Book Basic&apos;"><tspan y="-285.15" x="2911.38"/></text><text transform="scale(4.0128.2492)" y="-1493.39" x="922.6" style="font-size:46.954;font-family:Arial;text-anchor:middle"/><text y="-757.55" x="2522.26" line-height="125%" style="letter-spacing:0;word-spacing:0;font-size:129.23;font-family:&apos;Gentium Book Basic&apos;"><tspan y="-757.55" x="2522.26"/></text><text transform="scale(4.0128.2492)" y="-3389.04" x="825.63" style="font-size:46.954;font-family:Arial;text-anchor:middle"/><text y="-837.55" x="3103.52" line-height="125%" style="letter-spacing:0;word-spacing:0;font-size:129.23;font-family:&apos;Gentium Book Basic&apos;"><tspan y="-837.55" x="3103.52"/></text><text transform="scale(4.0128.2492)" y="-3710.07" x="970.48" style="font-size:46.954;font-family:Arial;text-anchor:middle"/><g line-height="125%" style="letter-spacing:0;word-spacing:0;font-family:&apos;Gentium Book Basic&apos;"><text y="577.17" x="1270.72" style="font-size:208.33"><tspan y="577.17" x="1270.72"/></text><text y="231.36" x="729.64" style="font-size:129.23"><tspan y="231.36" x="729.64"/></text></g><text transform="scale(4.0128.2492)" y="579.25" x="378.91" style="font-size:46.954;font-family:Arial;text-anchor:middle"/><text y="151.36" x="1310.91" line-height="125%" style="letter-spacing:0;word-spacing:0;font-size:129.23;font-family:&apos;Gentium Book Basic&apos;"><tspan y="151.36" x="1310.91"/></text><text transform="scale(4.0128.2492)" y="258.22" x="523.76" style="font-size:46.954;font-family:Arial;text-anchor:middle"/><text y="-29.901" x="239.33" line-height="125%" style="letter-spacing:0;word-spacing:0;font-size:129.23;font-family:&apos;Gentium Book Basic&apos;"><tspan y="-29.901" x="239.33"/></text><text transform="scale(4.0128.2492)" y="-469.14" x="256.72" style="font-size:46.954;font-family:Arial;text-anchor:middle"/><text y="-246.37" x="1337.38" line-height="125%" style="letter-spacing:0;word-spacing:0;font-size:129.23;font-family:&apos;Gentium Book Basic&apos;"><tspan y="-246.37" x="1337.38"/></text><text transform="scale(4.0128.2492)" y="-1337.8" x="530.36" style="font-size:46.954;font-family:Arial;text-anchor:middle"/><text y="-326.38" x="1918.65" line-height="125%" style="letter-spacing:0;word-spacing:0;font-size:129.23;font-family:&apos;Gentium Book Basic&apos;"><tspan y="-326.38" x="1918.65"/></text><text transform="scale(4.0128.2492)" y="-1658.84" x="675.21" style="font-size:46.954;font-family:Arial;text-anchor:middle"/><text y="-798.78" x="1529.53" line-height="125%" style="letter-spacing:0;word-spacing:0;font-size:129.23;font-family:&apos;Gentium Book Basic&apos;"><tspan y="-798.78" x="1529.53"/></text><text transform="scale(4.0128.2492)" y="-3554.49" x="578.24" style="font-size:46.954;font-family:Arial;text-anchor:middle"/><text y="-878.78" x="2110.79" line-height="125%" style="letter-spacing:0;word-spacing:0;font-size:129.23;font-family:&apos;Gentium Book Basic&apos;"><tspan y="-878.78" x="2110.79"/></text><text transform="scale(4.0128.2492)" y="-3875.52" x="723.09" style="font-size:46.954;font-family:Arial;text-anchor:middle"/><g line-height="125%" style="letter-spacing:0;word-spacing:0;font-family:&apos;Gentium Book Basic&apos;"><text y="535.94" x="277.99" style="font-size:208.33"><tspan y="535.94" x="277.99"/></text><text y="1377.33" x="-26569.5" style="font-size:4848.41"><tspan y="1377.33" x="-26569.5"/></text></g><text transform="scale(4.0128.2492)" y="-7573.02" x="773.15" style="font-size:1761.74;font-family:Arial;text-anchor:middle"/><text line-height="125%" y="2289.39" x="-26704.25" style="letter-spacing:0;word-spacing:0;font-size:4848.41;font-family:&apos;Gentium Book Basic&apos;"><tspan y="2289.39" x="-26704.25"/></text><text transform="scale(4.0128.2492)" y="-3913.17" x="739.61" style="font-size:1761.74;font-family:Arial;text-anchor:middle"/><g style="fill:#555753"><text transform="scale(1.05082.95163)" x="-12267.45" y="-4757.27" line-height="125%" style="letter-spacing:0;word-spacing:0;font-size:2976.1;font-family:&apos;Gentium Book Basic&apos;"><tspan x="-12267.45" y="-4757.27"/></text><text x="1481.85" y="-27131.37" transform="scale(4.21677.23715)" style="font-size:1081.49;font-family:Arial;text-anchor:middle"/><text transform="scale(1.05082.95163)" x="-2864.61" y="-5582.29" line-height="125%" style="letter-spacing:0;word-spacing:0;font-size:1593.24;font-family:&apos;Gentium Book Basic&apos;"><tspan x="-2864.61" y="-5582.29"/></text><text x="1715.95" y="-26705.24" transform="scale(4.21677.23715)" style="font-size:578.89;font-family:Arial;text-anchor:middle"/><text x="-38904.05" y="-1736.32" line-height="125%" style="letter-spacing:0;word-spacing:0;font-size:4654.55;font-family:&apos;Gentium Book Basic&apos;"><tspan x="-38904.05" y="-1736.32"/></text><text x="-2596.26" y="-19543.06" transform="scale(4.0128.2492)" style="font-size:1691.22;font-family:Arial;text-anchor:middle"/></g><g style="fill:#000"><text x="-24720.95" y="-13962.89" line-height="125%" style="letter-spacing:0;word-spacing:0;font-size:4848.41;font-family:&apos;Gentium Book Basic&apos;;stroke:#cd1d31;stroke-width:23.273"><tspan x="-24720.95" y="-13962.89" style="stroke-width:23.273"/></text><text x="1233.94" y="-69130.72" transform="scale(4.0128.2492)" style="font-size:1761.74;font-family:Arial;stroke:none;text-anchor:middle"/><text x="-24855.93" y="-13050.83" line-height="125%" style="letter-spacing:0;word-spacing:0;font-size:4848.41;font-family:&apos;Gentium Book Basic&apos;;stroke:#cd1d31;stroke-width:23.273"><tspan x="-24855.93" y="-13050.83" style="stroke-width:23.273"/></text><text x="1200.27" y="-65470.63" transform="scale(4.0128.2492)" style="font-size:1761.74;font-family:Arial;stroke:none;text-anchor:middle"/></g><g style="fill:#555753"><g style="stroke:#cd1d31;stroke-width:23.273"><text line-height="125%" y="-20877.06" x="-10508.27" transform="scale(1.05082.95163)" style="letter-spacing:0;word-spacing:0;font-size:2976.1;font-family:&apos;Gentium Book Basic&apos;"><tspan y="-20877.06" x="-10508.27" style="stroke-width:23.273"/></text><text transform="scale(4.21677.23715)" y="-91818.3" x="1920.29" style="font-size:1081.49;font-family:Arial;text-anchor:middle"/><text line-height="125%" y="-21702.08" x="-1105.66" transform="scale(1.05082.95163)" style="letter-spacing:0;word-spacing:0;font-size:1593.24;font-family:&apos;Gentium Book Basic&apos;"><tspan y="-21702.08" x="-1105.66" style="stroke-width:23.273"/></text><text transform="scale(4.21677.23715)" y="-91392.18" x="2154.18" style="font-size:578.89;font-family:Arial;text-anchor:middle"/><text line-height="125%" y="-17076.54" x="-37055.5" style="letter-spacing:0;word-spacing:0;font-size:4654.55;font-family:&apos;Gentium Book Basic&apos;"><tspan y="-17076.54" x="-37055.5" style="stroke-width:23.273"/></text></g><text x="-2135.7" y="-81100.75" transform="scale(4.0128.2492)" style="font-size:1691.22;font-family:Arial;stroke:none;text-anchor:middle"/></g><g style="fill:#000"><text x="-7745.12" y="-20652.4" line-height="125%" style="letter-spacing:0;word-spacing:0;font-size:4654.55;font-family:&apos;Gentium Book Basic&apos;;stroke:#cd1d31;stroke-width:23.273"><tspan x="-7745.12" y="-20652.4" style="stroke-width:23.273"/></text><text x="5168.41" y="-95449.94" transform="scale(4.0128.2492)" style="font-size:1691.22;font-family:Arial;stroke:none;text-anchor:middle"/><text x="13191.49" y="-23534.03" line-height="125%" style="letter-spacing:0;word-spacing:0;font-size:4654.55;font-family:&apos;Gentium Book Basic&apos;;stroke:#cd1d31;stroke-width:23.273"><tspan x="13191.49" y="-23534.03" style="stroke-width:23.273"/></text><text x="10385.9" y="-107013.17" transform="scale(4.0128.2492)" style="font-size:1691.22;font-family:Arial;stroke:none;text-anchor:middle"/></g><g style="fill:#555753"><text line-height="125%" y="-506.69" x="2674.54" style="letter-spacing:0;word-spacing:0;font-size:4654.55;font-family:&apos;Gentium Book Basic&apos;;stroke:#555753;stroke-width:23.273"><tspan y="-506.69" x="2674.54" style="stroke-width:23.273"/></text><text transform="scale(4.0128.2492)" y="-14609.03" x="7764.94" style="font-size:1691.22;font-family:Arial;stroke:none;text-anchor:middle"/><text line-height="125%" y="730.1" x="20021.57" style="letter-spacing:0;word-spacing:0;font-size:4654.55;font-family:&apos;Gentium Book Basic&apos;;stroke:#555753;stroke-width:23.273"><tspan y="730.1" x="20021.57" style="stroke-width:23.273"/></text><text transform="scale(4.0128.2492)" y="-9646.15" x="12087.82" style="font-size:1691.22;font-family:Arial;stroke:none;text-anchor:middle"/><text line-height="125%" y="-2151.51" x="40957.95" style="letter-spacing:0;word-spacing:0;font-size:4654.55;font-family:&apos;Gentium Book Basic&apos;;stroke:#555753;stroke-width:23.273"><tspan y="-2151.51" x="40957.95" style="stroke-width:23.273"/></text><text transform="scale(4.0128.2492)" y="-21209.38" x="17305.31" style="font-size:1691.22;font-family:Arial;stroke:none;text-anchor:middle"/><text line-height="125%" y="-3376.59" x="20660.64" style="letter-spacing:0;word-spacing:0;font-size:4654.55;font-family:&apos;Gentium Book Basic&apos;;stroke:#555753;stroke-width:23.273"><tspan y="-3376.59" x="20660.64" style="stroke-width:23.273"/></text><text transform="scale(4.0128.2492)" y="-26125.02" x="12247.24" style="font-size:1691.22;font-family:Arial;stroke:none;text-anchor:middle"/><text line-height="125%" y="-6257.98" x="41597.25" style="letter-spacing:0;word-spacing:0;font-size:4654.55;font-family:&apos;Gentium Book Basic&apos;;stroke:#555753;stroke-width:23.273"><tspan y="-6257.98" x="41597.25" style="stroke-width:23.273"/></text><text transform="scale(4.0128.2492)" y="-37688.25" x="17464.5" style="font-size:1691.22;font-family:Arial;stroke:none;text-anchor:middle"/><text line-height="125%" y="7140.13" x="-49389.81" style="letter-spacing:0;word-spacing:0;font-size:4654.55;font-family:&apos;Gentium Book Basic&apos;;stroke:#555753;stroke-width:23.273"><tspan y="7140.13" x="-49389.81" style="stroke-width:23.273"/></text><text transform="scale(4.0128.2492)" y="16075.9" x="-5209.31" style="font-size:1691.22;font-family:Arial;stroke:none;text-anchor:middle"/></g><text y="231.36" x="729.64" line-height="125%" style="letter-spacing:0;word-spacing:0;font-size:129.23;font-family:&apos;Gentium Book Basic&apos;"><tspan y="231.36" x="729.64"/></text><text transform="scale(4.0128.2492)" y="579.26" x="378.91" style="font-size:46.954;font-family:Arial;text-anchor:middle"/><text y="151.36" x="1310.91" line-height="125%" style="letter-spacing:0;word-spacing:0;font-size:129.23;font-family:&apos;Gentium Book Basic&apos;"><tspan y="151.36" x="1310.91"/></text><text transform="scale(4.0128.2492)" y="258.22" x="523.76" style="font-size:46.954;font-family:Arial;text-anchor:middle"/><text y="-29.9" x="239.33" line-height="125%" style="letter-spacing:0;word-spacing:0;font-size:129.23;font-family:&apos;Gentium Book Basic&apos;"><tspan y="-29.9" x="239.33"/></text><text transform="scale(4.0128.2492)" y="-469.13" x="256.72" style="font-size:46.954;font-family:Arial;text-anchor:middle"/><text y="-246.37" x="1337.38" line-height="125%" style="letter-spacing:0;word-spacing:0;font-size:129.23;font-family:&apos;Gentium Book Basic&apos;"><tspan y="-246.37" x="1337.38"/></text><text transform="scale(4.0128.2492)" y="-1337.79" x="530.36" style="font-size:46.954;font-family:Arial;text-anchor:middle"/><text y="-326.37" x="1918.65" line-height="125%" style="letter-spacing:0;word-spacing:0;font-size:129.23;font-family:&apos;Gentium Book Basic&apos;"><tspan y="-326.37" x="1918.65"/></text><text transform="scale(4.0128.2492)" y="-1658.82" x="675.21" style="font-size:46.954;font-family:Arial;text-anchor:middle"/><text y="-798.77" x="1529.53" line-height="125%" style="letter-spacing:0;word-spacing:0;font-size:129.23;font-family:&apos;Gentium Book Basic&apos;"><tspan y="-798.77" x="1529.53"/></text><text transform="scale(4.0128.2492)" y="-3554.46" x="578.24" style="font-size:46.954;font-family:Arial;text-anchor:middle"/><text y="-878.78" x="2110.79" line-height="125%" style="letter-spacing:0;word-spacing:0;font-size:129.23;font-family:&apos;Gentium Book Basic&apos;"><tspan y="-878.78" x="2110.79"/></text><text transform="scale(4.0128.2492)" y="-3875.5" x="723.09" style="font-size:46.954;font-family:Arial;text-anchor:middle"/><g line-height="125%" style="letter-spacing:0;word-spacing:0;font-family:&apos;Gentium Book Basic&apos;"><text y="535.94" x="277.99" style="font-size:208.33"><tspan y="535.94" x="277.99"/></text><text y="177.12" x="1532.35" style="font-size:129.23"><tspan y="177.12" x="1532.35"/></text></g><text transform="scale(4.0128.2492)" y="361.61" x="578.94" style="font-size:46.954;font-family:Arial;text-anchor:middle"/><text y="97.12" x="2113.62" line-height="125%" style="letter-spacing:0;word-spacing:0;font-size:129.23;font-family:&apos;Gentium Book Basic&apos;"><tspan y="97.12" x="2113.62"/></text><text transform="scale(4.0128.2492)" y="40.575" x="723.79" style="font-size:46.954;font-family:Arial;text-anchor:middle"/><text y="-84.14" x="1042.04" line-height="125%" style="letter-spacing:0;word-spacing:0;font-size:129.23;font-family:&apos;Gentium Book Basic&apos;"><tspan y="-84.14" x="1042.04"/></text><text transform="scale(4.0128.2492)" y="-686.77" x="456.76" style="font-size:46.954;font-family:Arial;text-anchor:middle"/><text y="-300.61" x="2140.09" line-height="125%" style="letter-spacing:0;word-spacing:0;font-size:129.23;font-family:&apos;Gentium Book Basic&apos;"><tspan y="-300.61" x="2140.09"/></text><text transform="scale(4.0128.2492)" y="-1555.45" x="730.39" style="font-size:46.954;font-family:Arial;text-anchor:middle"/><text y="-380.61" x="2721.36" line-height="125%" style="letter-spacing:0;word-spacing:0;font-size:129.23;font-family:&apos;Gentium Book Basic&apos;"><tspan y="-380.61" x="2721.36"/></text><text transform="scale(4.0128.2492)" y="-1876.47" x="875.24" style="font-size:46.954;font-family:Arial;text-anchor:middle"/><text y="-853.01" x="2332.24" line-height="125%" style="letter-spacing:0;word-spacing:0;font-size:129.23;font-family:&apos;Gentium Book Basic&apos;"><tspan y="-853.01" x="2332.24"/></text><text transform="scale(4.0128.2492)" y="-3772.13" x="778.27" style="font-size:46.954;font-family:Arial;text-anchor:middle"/><text y="-933.02" x="2913.5" line-height="125%" style="letter-spacing:0;word-spacing:0;font-size:129.23;font-family:&apos;Gentium Book Basic&apos;"><tspan y="-933.02" x="2913.5"/></text><text transform="scale(4.0128.2492)" y="-4093.16" x="923.12" style="font-size:46.954;font-family:Arial;text-anchor:middle"/><text y="481.7" x="1080.7" line-height="125%" style="letter-spacing:0;word-spacing:0;font-size:208.33;font-family:&apos;Gentium Book Basic&apos;"><tspan y="481.7" x="1080.7"/></text><g style="fill-rule:evenodd"><path d="m471.95 253.05c0 120.9-98.01 218.91-218.91 218.91-120.9 0-218.91-98.01-218.91-218.91 0-120.9 98.01-218.91 218.91-218.91 120.9 0 218.91 98.01 218.91 218.91" style="fill:#d23638"/><path d="m256 1c-140.83 0-255 114.17-255 255 0 140.83 114.17 255 255 255 140.83 0 255-114.17 255-255 0-140.83-114.17-255-255-255m8.827 44.931c120.9 0 218.9 98 218.9 218.9 0 120.9-98 218.9-218.9 218.9-120.9 0-218.93-98-218.93-218.9 0-120.9 98.03-218.9 218.93-218.9" style="fill-opacity:.067"/><g style="fill-opacity:.129"><path d="m256 4.43c-138.94 0-251.57 112.63-251.57 251.57 0 138.94 112.63 251.57 251.57 251.57 138.94 0 251.57-112.63 251.57-251.57 0-138.94-112.63-251.57-251.57-251.57m5.885 38.556c120.9 0 218.9 98 218.9 218.9 0 120.9-98 218.9-218.9 218.9-120.9 0-218.93-98-218.93-218.9 0-120.9 98.03-218.9 218.93-218.9"/><path d="m256 8.36c-136.77 0-247.64 110.87-247.64 247.64 0 136.77 110.87 247.64 247.64 247.64 136.77 0 247.64-110.87 247.64-247.64 0-136.77-110.87-247.64-247.64-247.64m2.942 31.691c120.9 0 218.9 98 218.9 218.9 0 120.9-98 218.9-218.9 218.9-120.9 0-218.93-98-218.93-218.9 0-120.9 98.03-218.9 218.93-218.9"/></g><path d="m253.04 7.86c-135.42 0-245.19 109.78-245.19 245.19 0 135.42 109.78 245.19 245.19 245.19 135.42 0 245.19-109.78 245.19-245.19 0-135.42-109.78-245.19-245.19-245.19m0 26.297c120.9 0 218.9 98 218.9 218.9 0 120.9-98 218.9-218.9 218.9-120.9 0-218.93-98-218.93-218.9 0-120.9 98.03-218.9 218.93-218.9z" style="stroke-opacity:.31;fill:#fff;stroke:#000;stroke-width:4.904"/></g><text x="729.64" y="231.36" line-height="125%" style="letter-spacing:0;word-spacing:0;font-size:129.23;font-family:&apos;Gentium Book Basic&apos;"><tspan x="729.64" y="231.36"/></text><text x="378.91" y="579.26" transform="scale(4.0128.2492)" style="font-size:46.954;font-family:Arial;text-anchor:middle"/><text x="1310.91" y="151.36" line-height="125%" style="letter-spacing:0;word-spacing:0;font-size:129.23;font-family:&apos;Gentium Book Basic&apos;"><tspan x="1310.91" y="151.36"/></text><text x="523.76" y="258.22" transform="scale(4.0128.2492)" style="font-size:46.954;font-family:Arial;text-anchor:middle"/><text x="239.33" y="-29.9" line-height="125%" style="letter-spacing:0;word-spacing:0;font-size:129.23;font-family:&apos;Gentium Book Basic&apos;"><tspan x="239.33" y="-29.9"/></text><text x="256.72" y="-469.13" transform="scale(4.0128.2492)" style="font-size:46.954;font-family:Arial;text-anchor:middle"/><text x="1337.38" y="-246.37" line-height="125%" style="letter-spacing:0;word-spacing:0;font-size:129.23;font-family:&apos;Gentium Book Basic&apos;"><tspan x="1337.38" y="-246.37"/></text><text x="530.36" y="-1337.79" transform="scale(4.0128.2492)" style="font-size:46.954;font-family:Arial;text-anchor:middle"/><text x="1918.65" y="-326.37" line-height="125%" style="letter-spacing:0;word-spacing:0;font-size:129.23;font-family:&apos;Gentium Book Basic&apos;"><tspan x="1918.65" y="-326.37"/></text><text x="675.21" y="-1658.82" transform="scale(4.0128.2492)" style="font-size:46.954;font-family:Arial;text-anchor:middle"/><text x="1529.53" y="-798.77" line-height="125%" style="letter-spacing:0;word-spacing:0;font-size:129.23;font-family:&apos;Gentium Book Basic&apos;"><tspan x="1529.53" y="-798.77"/></text><text x="578.24" y="-3554.46" transform="scale(4.0128.2492)" style="font-size:46.954;font-family:Arial;text-anchor:middle"/><text x="2110.79" y="-878.78" line-height="125%" style="letter-spacing:0;word-spacing:0;font-size:129.23;font-family:&apos;Gentium Book Basic&apos;"><tspan x="2110.79" y="-878.78"/></text><text x="723.09" y="-3875.5" transform="scale(4.0128.2492)" style="font-size:46.954;font-family:Arial;text-anchor:middle"/><text x="277.99" y="535.94" line-height="125%" style="letter-spacing:0;word-spacing:0;font-size:208.33;font-family:&apos;Gentium Book Basic&apos;"><tspan x="277.99" y="535.94"/></text><path d="m240.01 92.01l46.596 46.598c.004.006.009.012.014.018l-46.607-46.607c7.302 62.28-51.725 67.44-78.69 125.87-10.34 22.404-3.193 39.639 9.547 52.38l31.16 31.16-7.229 12.932 78.52 78.52-.004.004-78.53-78.53h-47.25l102.79 102.79-.002.002-102.79-102.79 100.09 105.63 47.844 47.844c83.91-16.484 150.61-80.897 170.43-163.56l-137.75-137.75c-.418-.418-.645-.635-.645-.635l-.006-.004c.639 3.921.996 7.531 1.129 10.867l-63.07-63.07c-13.814-13.814-25.563-21.678-25.563-21.678" style="opacity:.25"/><path d="m240.01 92.02c7.302 62.28-51.726 67.44-78.69 125.87-16.399 35.532 11.187 58.07 35.31 70.28 16.18-28.909 32.38-57.811 48.563-86.72l2.406-4.313c18.315 32.717 36.656 65.41 54.969 98.13 40.24-10.781 61.46-39.34 61.875-60.5.635-32.707-36.938-68.875-36.938-68.875 6.997 42.933-19.06 49.41-19.06 49.41 9.118-71.37-68.44-123.28-68.44-123.28m7.625 127.78l-52.844 94.56h-47.25l100.09 105.63 100.09-105.62h-47.28l-52.813-94.56" style="fill:#fff"/></svg>