<svg xmlns="http://www.w3.org/2000/svg" xmlns:xlink="http://www.w3.org/1999/xlink" viewBox="0 0 512 512"><defs><radialGradient id="1" cx="180.94" cy="150.27" r="218.91" gradientTransform="matrix(1.23095 1.82619-.59868.40354 48.18-240.8)" gradientUnits="userSpaceOnUse"><stop offset="0" stop-color="#494949"/><stop offset="1" stop-color="#19171c"/></radialGradient></defs><g fill-rule="evenodd"><path fill="url(#1)" d="m471.95 253.05c0 120.9-98.01 218.91-218.91 218.91s-218.91-98.01-218.91-218.91 98.01-218.91 218.91-218.91 218.91 98.01 218.91 218.91"/><path fill="#878787" d="m130.22 71.844c-18.482 12.552-34.927 27.874-48.781 45.34 5.672 1.069 9.938 6.101 9.938 12.188v15.09c0 6.868-5.434 12.406-12.188 12.406h-22.813c-14.233 29.04-22.25 61.674-22.25 96.19 0 31.727 6.76 61.853 18.906 89.06 1.077-0.315 2.229-0.5 3.406-0.5h22.75c6.754 0 12.188 5.538 12.188 12.406v15.09c0 6.868-5.434 12.406-12.188 12.406h-3.344c14.937 20.555 33.33 38.427 54.38 52.719v-160.59h251.56v156.44c18.679-13.608 35.13-30.09 48.688-48.813-5.616-1.118-9.875-6.114-9.875-12.156v-15.09c0-6.868 5.465-12.406 12.219-12.406h20.438c6.266-14.14 11.08-29.07 14.25-44.594-1.239 5.51-6.097 9.594-11.906 9.594h-22.781c-6.754 0-12.219-5.507-12.219-12.375v-15.09c0-6.868 5.465-12.406 12.219-12.406h22.781c6.754 0 12.188 5.538 12.188 12.406v15.09c0 0.803-0.049 1.585-0.188 2.344 2.84-14.07 4.344-28.624 4.344-43.531 0-14.568-1.441-28.79-4.156-42.563v8.844c0 6.868-5.434 12.406-12.188 12.406h-22.781c-6.754 0-12.219-5.538-12.219-12.406v-15.09c0-6.868 5.465-12.375 12.219-12.375h22.781c3.393 0 6.482 1.402 8.688 3.656-3.653-13.441-8.545-26.375-14.563-38.656h-16.906c-6.754 0-12.219-5.538-12.219-12.406v-15.09c0-4.343 2.216-8.128 5.531-10.344-12.675-16.348-27.611-30.842-44.34-43.03v162.34h-251.56v-166.5m323.03 269.78c-0.778 1.757-1.584 3.486-2.406 5.219 0.824-1.734 1.627-3.46 2.406-5.219m-2.406 5.219c-0.709 1.493-1.446 2.994-2.188 4.469 0.745-1.48 1.475-2.97 2.188-4.469m-397.81-4.719c1.557 3.488 3.206 6.955 4.938 10.344-1.733-3.393-3.38-6.851-4.938-10.344m4.938 10.344c0.805 1.576 1.627 3.134 2.469 4.688-0.844-1.557-1.662-3.108-2.469-4.688m-1.594-195.59c0.82-1.673 1.64-3.351 2.5-5-0.863 1.652-1.678 3.324-2.5 5m369.97-37.563c0.815 1.055 1.61 2.118 2.406 3.188-0.794-1.067-1.594-2.136-2.406-3.188m3.438 4.594c0.695 0.95 1.382 1.913 2.063 2.875-0.682-0.964-1.366-1.923-2.063-2.875m3.594 5.063c0.726 1.054 1.448 2.12 2.156 3.188-0.709-1.069-1.429-2.132-2.156-3.188m2.875 4.281c0.738 1.128 1.469 2.264 2.188 3.406-0.718-1.141-1.449-2.279-2.188-3.406m3.281 5.156c0.753 1.223 1.49 2.449 2.219 3.688-0.729-1.237-1.467-2.467-2.219-3.688m-375.22 3.688c-0.687 1.165-1.335 2.353-2 3.531 0.662-1.175 1.317-2.37 2-3.531m-2.875 5.094c-0.811 1.465-1.628 2.921-2.406 4.406 0.78-1.489 1.594-2.938 2.406-4.406m-5 44.688h22.75c6.754 0 12.188 5.507 12.188 12.375v15.09c0 6.868-5.434 12.406-12.188 12.406h-22.75c-6.754 0-12.25-5.538-12.25-12.406v-15.09c0-6.868 5.496-12.375 12.25-12.375m0 74.875h22.75c6.754 0 12.188 5.538 12.188 12.406v15.09c0 6.868-5.434 12.375-12.188 12.375h-22.75c-6.754 0-12.25-5.507-12.25-12.375v-15.09c0-6.868 5.496-12.406 12.25-12.406m391.63 85.75c-0.627 1.23-1.257 2.44-1.906 3.656 0.647-1.209 1.282-2.434 1.906-3.656m-2.844 5.375c-0.618 1.132-1.238 2.255-1.875 3.375 0.637-1.118 1.257-2.244 1.875-3.375m-384.16 0.406c1.429 2.599 2.908 5.154 4.438 7.688-1.526-2.527-3.01-5.096-4.438-7.688m381.38 4.531c-0.817 1.409-1.653 2.83-2.5 4.219 0.854-1.397 1.677-2.802 2.5-4.219m-2.5 4.219c-0.866 1.42-1.759 2.821-2.656 4.219 0.898-1.396 1.79-2.801 2.656-4.219m-366.34 11.375c0.522 0.746 1.062 1.48 1.594 2.219-0.532-0.74-1.071-1.472-1.594-2.219"/><path fill-opacity=".067" d="m256 1c-140.83 0-255 114.17-255 255s114.17 255 255 255 255-114.17 255-255-114.17-255-255-255m8.827 44.931c120.9 0 218.9 98 218.9 218.9s-98 218.9-218.9 218.9-218.93-98-218.93-218.9 98.03-218.9 218.93-218.9"/><g fill-opacity=".129"><path d="m256 4.43c-138.94 0-251.57 112.63-251.57 251.57s112.63 251.57 251.57 251.57 251.57-112.63 251.57-251.57-112.63-251.57-251.57-251.57m5.885 38.556c120.9 0 218.9 98 218.9 218.9s-98 218.9-218.9 218.9-218.93-98-218.93-218.9 98.03-218.9 218.93-218.9"/><path d="m256 8.36c-136.77 0-247.64 110.87-247.64 247.64s110.87 247.64 247.64 247.64 247.64-110.87 247.64-247.64-110.87-247.64-247.64-247.64m2.942 31.691c120.9 0 218.9 98 218.9 218.9s-98 218.9-218.9 218.9-218.93-98-218.93-218.9 98.03-218.9 218.93-218.9"/></g><path fill="#fff" stroke="#000" stroke-opacity=".31" stroke-width="4.904" d="m253.04 7.86c-135.42 0-245.19 109.78-245.19 245.19 0 135.42 109.78 245.19 245.19 245.19 135.42 0 245.19-109.78 245.19-245.19 0-135.42-109.78-245.19-245.19-245.19zm0 26.297c120.9 0 218.9 98 218.9 218.9s-98 218.9-218.9 218.9-218.93-98-218.93-218.9 98.03-218.9 218.93-218.9z"/></g><path d="m351.53 98.58c-2.164 0.001-4.33 0.023-6.494 0.074-25.841 0.64-51.688 1.01-77.53 1.563-38.835 100.05-78.53 199.8-116.47 300.19-0.31 2.406 0.464 4.24 1.84 5.615l62.738 62.738c12.164 2.096 24.667 3.199 37.43 3.199 120.9 0 218.91-98.01 218.91-218.91 0-21.551-3.129-42.37-8.932-62.04l-92.01-92.01c-6.489-0.225-12.981-0.42-19.475-0.418" opacity=".25"/><path fill="#fff" d="m345.03 98.66c-25.841 0.64-51.688 1.01-77.53 1.563-38.835 100.05-78.53 199.8-116.47 300.19-0.936 7.26 8.01 9.313 13.53 9.278 39.47 2.356 79.1 2.091 118.56 3.628 5.605-1.515 4.318-9.109 0.469-11.875-9.937-12.862-25.07-22.508-30.25-38.438-0.825-12.01 10.691-19.58 17.75-27.594 8.56-8.759 20.11-15.198 26.563-25.813 4.301-11.465-4.556-22.24-9.375-31.906-5.836-10.125-15.209-21.18-12.12-33.656 5.423-12.774 19.05-18.836 28.476-28.28 36.965-21.562 9.471-40.39 0.274-69.28 0.604-12.07 13.178-18.243 22.08-24.17 14.381-8.175 29.987-14.508 44.02-23.301-8.653-0.3-17.311-0.547-25.969-0.344"/></svg>