<svg xmlns="http://www.w3.org/2000/svg" id="svg2" width="100%" height="100%" version="1.1" viewBox="0 0 512 512"><metadata id="metadata72"/><g id="g4" fill-rule="evenodd"><path id="path6" fill="#99c1c3" d="m471.95 253.05c0 120.9-98.01 218.9-218.9 218.9-120.9 0-218.9-98.01-218.9-218.9 0-120.9 98.01-218.9 218.9-218.9 120.9 0 218.9 98.01 218.9 218.9"/><path id="path8" fill-opacity=".235" d="m273.09 113.44c-57.21 0.654-111.07 34.33-135.06 86.88-24.676 54.04-12.365 118.25 27.594 158.91 0.16 0.164 0.308 0.336 0.469 0.5 0.125 0.126 0.249 0.249 0.375 0.375 0.041 0.042 0.084 0.083 0.125 0.125 0.115 0.115 0.228 0.229 0.344 0.344 0.052 0.053 0.104 0.103 0.156 0.156 0.106 0.104 0.207 0.209 0.313 0.313 0.062 0.063 0.125 0.124 0.188 0.188 0.143 0.14 0.293 0.267 0.438 0.406 0.026 0.027 0.036 0.067 0.063 0.094 0.142 0.139 0.294 0.268 0.438 0.406 0.026 0.027 0.036 0.067 0.063 0.094 0.142 0.139 0.294 0.268 0.438 0.406 0.026 0.027 0.036 0.067 0.063 0.094 0.142 0.139 0.294 0.268 0.438 0.406 0.026 0.027 0.036 0.067 0.063 0.094 0.142 0.139 0.294 0.268 0.438 0.406 0.01 0.011 0.021 0.021 0.031 0.031 0.016 0.016 0.015 0.046 0.031 0.063 0.142 0.139 0.294 0.268 0.438 0.406 0.01 0.011 0.021 0.021 0.031 0.031 0.016 0.016 0.015 0.046 0.031 0.063 0.142 0.139 0.294 0.268 0.438 0.406 0.01 0.011 0.021 0.021 0.031 0.031 0.016 0.016 0.015 0.046 0.031 0.063 0.142 0.139 0.294 0.268 0.438 0.406 0.01 0.011 0.021 0.021 0.031 0.031 0.016 0.016 0.015 0.046 0.031 0.063 0.142 0.139 0.294 0.268 0.438 0.406 0.026 0.026 0.037 0.067 0.063 0.094 0.142 0.139 0.294 0.268 0.438 0.406 0.021 0.021 0.042 0.041 0.063 0.063 0.148 0.144 0.289 0.294 0.438 0.438l0.063 0.063c0.148 0.144 0.289 0.294 0.438 0.438l0.063 0.063c0.148 0.144 0.289 0.294 0.438 0.438l0.063 0.063c0.148 0.144 0.289 0.294 0.438 0.438l0.063 0.063c0.147 0.143 0.29 0.295 0.438 0.438l0.063 0.063c0.147 0.143 0.29 0.295 0.438 0.438l0.063 0.063c0.147 0.143 0.29 0.295 0.438 0.438l0.063 0.063c0.142 0.139 0.294 0.268 0.438 0.406 0.01 0.011 0.021 0.021 0.031 0.031 0.016 0.016 0.015 0.046 0.031 0.063 0.142 0.139 0.294 0.268 0.438 0.406 0.01 0.011 0.021 0.021 0.031 0.031 0.016 0.016 0.015 0.046 0.031 0.063 0.142 0.139 0.294 0.268 0.438 0.406 0.01 0.011 0.021 0.021 0.031 0.031 0.016 0.016 0.015 0.046 0.031 0.063 0.142 0.139 0.294 0.268 0.438 0.406 0.01 0.011 0.021 0.021 0.031 0.031 0.005 0.005-0.005 0.026 0 0.031l0.031 0.031c0.138 0.134 0.268 0.272 0.406 0.406 0.031 0.031 0.063 0.062 0.094 0.094 0.138 0.135 0.268 0.272 0.406 0.406 0.026 0.027 0.036 0.067 0.063 0.094 0.143 0.14 0.294 0.267 0.438 0.406 0.026 0.027 0.036 0.067 0.063 0.094 0.143 0.14 0.294 0.267 0.438 0.406 0.026 0.027 0.036 0.067 0.063 0.094 0.143 0.14 0.294 0.267 0.438 0.406 0.026 0.027 0.036 0.067 0.063 0.094 0.143 0.14 0.294 0.267 0.438 0.406 0.026 0.027 0.036 0.067 0.063 0.094 0.142 0.139 0.294 0.268 0.438 0.406 0.026 0.027 0.036 0.067 0.063 0.094 0.142 0.139 0.294 0.268 0.438 0.406 0.026 0.027 0.036 0.067 0.063 0.094 0.142 0.139 0.294 0.268 0.438 0.406 0.01 0.011 0.021 0.021 0.031 0.031 0.016 0.016 0.015 0.046 0.031 0.063 0.142 0.139 0.294 0.268 0.438 0.406 0.01 0.011 0.021 0.021 0.031 0.031 0.016 0.016 0.015 0.046 0.031 0.063 0.142 0.139 0.294 0.268 0.438 0.406 0.01 0.011 0.021 0.021 0.031 0.031 0.016 0.016 0.015 0.046 0.031 0.063 0.142 0.139 0.294 0.268 0.438 0.406 0.01 0.011 0.021 0.021 0.031 0.031 0.016 0.016 0.015 0.046 0.031 0.063 0.142 0.139 0.294 0.268 0.438 0.406 0.026 0.026 0.037 0.067 0.063 0.094 0.142 0.139 0.294 0.268 0.438 0.406 0.021 0.021 0.042 0.041 0.063 0.063 0.148 0.144 0.289 0.294 0.438 0.438l0.063 0.063c0.148 0.144 0.289 0.294 0.438 0.438l0.063 0.063c0.148 0.144 0.289 0.294 0.438 0.438l0.063 0.063c0.148 0.144 0.289 0.294 0.438 0.438l0.063 0.063c0.147 0.143 0.29 0.295 0.438 0.438l0.063 0.063c0.147 0.143 0.29 0.295 0.438 0.438l0.063 0.063c0.147 0.143 0.29 0.295 0.438 0.438l0.063 0.063c0.142 0.139 0.294 0.268 0.438 0.406 0.01 0.011 0.021 0.021 0.031 0.031 0.016 0.016 0.015 0.046 0.031 0.063 0.142 0.139 0.294 0.268 0.438 0.406 0.01 0.011 0.021 0.021 0.031 0.031 0.016 0.016 0.015 0.046 0.031 0.063 0.142 0.139 0.294 0.268 0.438 0.406 0.01 0.011 0.021 0.021 0.031 0.031 0.016 0.016 0.015 0.046 0.031 0.063 0.142 0.139 0.294 0.268 0.438 0.406 0.01 0.011 0.021 0.021 0.031 0.031 0.005 0.005-0.005 0.026 0 0.031l0.031 0.031c0.138 0.134 0.268 0.272 0.406 0.406 0.031 0.031 0.063 0.062 0.094 0.094 0.138 0.135 0.268 0.272 0.406 0.406 0.026 0.027 0.036 0.067 0.063 0.094 0.143 0.14 0.294 0.267 0.438 0.406 0.026 0.027 0.036 0.067 0.063 0.094 0.143 0.14 0.294 0.267 0.438 0.406 0.026 0.027 0.036 0.067 0.063 0.094 0.143 0.14 0.294 0.267 0.438 0.406 0.026 0.027 0.036 0.067 0.063 0.094 0.143 0.14 0.294 0.267 0.438 0.406 0.026 0.027 0.036 0.067 0.063 0.094 0.142 0.139 0.294 0.268 0.438 0.406 0.026 0.027 0.036 0.067 0.063 0.094 0.142 0.139 0.294 0.268 0.438 0.406 0.026 0.027 0.036 0.067 0.063 0.094 0.142 0.139 0.294 0.268 0.438 0.406 0.01 0.011 0.021 0.021 0.031 0.031 0.016 0.016 0.015 0.046 0.031 0.063 0.142 0.139 0.294 0.268 0.438 0.406 0.01 0.011 0.021 0.021 0.031 0.031 0.016 0.016 0.015 0.046 0.031 0.063 0.142 0.139 0.294 0.268 0.438 0.406 0.01 0.011 0.021 0.021 0.031 0.031 0.016 0.016 0.015 0.046 0.031 0.063 0.142 0.139 0.294 0.268 0.438 0.406 0.01 0.011 0.021 0.021 0.031 0.031 0.016 0.016 0.015 0.046 0.031 0.063 0.142 0.139 0.294 0.268 0.438 0.406 0.026 0.026 0.037 0.067 0.063 0.094 0.142 0.139 0.294 0.268 0.438 0.406 0.021 0.021 0.042 0.041 0.063 0.063 0.148 0.144 0.289 0.294 0.438 0.438l0.063 0.063c0.148 0.144 0.289 0.294 0.438 0.438l0.063 0.063c0.148 0.144 0.289 0.294 0.438 0.438l0.063 0.063c0.148 0.144 0.289 0.294 0.438 0.438l0.063 0.063c0.147 0.143 0.29 0.295 0.438 0.438l0.063 0.063c0.147 0.143 0.29 0.295 0.438 0.438l0.063 0.063c0.147 0.143 0.29 0.295 0.438 0.438l0.063 0.063c0.142 0.139 0.294 0.268 0.438 0.406 0.01 0.011 0.021 0.021 0.031 0.031 0.016 0.016 0.015 0.046 0.031 0.063 0.142 0.139 0.294 0.268 0.438 0.406 0.01 0.011 0.021 0.021 0.031 0.031 0.016 0.016 0.015 0.046 0.031 0.063 0.142 0.139 0.294 0.268 0.438 0.406 0.01 0.011 0.021 0.021 0.031 0.031 0.016 0.016 0.015 0.046 0.031 0.063 0.142 0.139 0.294 0.268 0.438 0.406 0.01 0.011 0.021 0.021 0.031 0.031 0.005 0.005-0.005 0.026 0 0.031l0.031 0.031c0.138 0.134 0.268 0.272 0.406 0.406 0.031 0.031 0.063 0.062 0.094 0.094 0.138 0.135 0.268 0.272 0.406 0.406 0.026 0.027 0.036 0.067 0.063 0.094 0.143 0.14 0.294 0.267 0.438 0.406 0.026 0.027 0.036 0.067 0.063 0.094 0.143 0.14 0.294 0.267 0.438 0.406 0.026 0.027 0.036 0.067 0.063 0.094 0.143 0.14 0.294 0.267 0.438 0.406 0.026 0.027 0.036 0.067 0.063 0.094 0.143 0.14 0.294 0.267 0.438 0.406 0.026 0.027 0.036 0.067 0.063 0.094 0.142 0.139 0.294 0.268 0.438 0.406 0.026 0.027 0.036 0.067 0.063 0.094 0.142 0.139 0.294 0.268 0.438 0.406 0.026 0.027 0.036 0.067 0.063 0.094 0.142 0.139 0.294 0.268 0.438 0.406 0.01 0.011 0.021 0.021 0.031 0.031 0.016 0.016 0.015 0.046 0.031 0.063 0.142 0.139 0.294 0.268 0.438 0.406 0.01 0.011 0.021 0.021 0.031 0.031 0.016 0.016 0.015 0.046 0.031 0.063 0.142 0.139 0.294 0.268 0.438 0.406 0.01 0.011 0.021 0.021 0.031 0.031 0.016 0.016 0.015 0.046 0.031 0.063 0.142 0.139 0.294 0.268 0.438 0.406 0.01 0.011 0.021 0.021 0.031 0.031 0.016 0.016 0.015 0.046 0.031 0.063 0.142 0.139 0.294 0.268 0.438 0.406 0.026 0.026 0.037 0.067 0.063 0.094 0.142 0.139 0.294 0.268 0.438 0.406 0.021 0.021 0.042 0.041 0.063 0.063 0.148 0.144 0.289 0.294 0.438 0.438l0.063 0.063c0.148 0.144 0.289 0.294 0.438 0.438l0.063 0.063c0.148 0.144 0.289 0.294 0.438 0.438l0.063 0.063c0.148 0.144 0.289 0.294 0.438 0.438l0.063 0.063c0.147 0.143 0.29 0.295 0.438 0.438l0.063 0.063c0.147 0.143 0.29 0.295 0.438 0.438l0.063 0.063c0.147 0.143 0.29 0.295 0.438 0.438l0.063 0.063c0.142 0.139 0.294 0.268 0.438 0.406 0.01 0.011 0.021 0.021 0.031 0.031 0.016 0.016 0.015 0.046 0.031 0.063 0.142 0.139 0.294 0.268 0.438 0.406 0.01 0.011 0.021 0.021 0.031 0.031 0.016 0.016 0.015 0.046 0.031 0.063 0.142 0.139 0.294 0.268 0.438 0.406 0.01 0.011 0.021 0.021 0.031 0.031 0.016 0.016 0.015 0.046 0.031 0.063 0.142 0.139 0.294 0.268 0.438 0.406 0.01 0.011 0.021 0.021 0.031 0.031 0.005 0.005-0.005 0.026 0 0.031l0.031 0.031c0.138 0.134 0.268 0.272 0.406 0.406 0.031 0.031 0.063 0.062 0.094 0.094 0.138 0.135 0.268 0.272 0.406 0.406 0.026 0.027 0.036 0.067 0.063 0.094 0.143 0.14 0.294 0.267 0.438 0.406 0.026 0.027 0.036 0.067 0.063 0.094 0.143 0.14 0.294 0.267 0.438 0.406 0.026 0.027 0.036 0.067 0.063 0.094 0.143 0.14 0.294 0.267 0.438 0.406 0.026 0.027 0.036 0.067 0.063 0.094 0.143 0.14 0.294 0.267 0.438 0.406 0.026 0.027 0.036 0.067 0.063 0.094 0.142 0.139 0.294 0.268 0.438 0.406 0.026 0.027 0.036 0.067 0.063 0.094 0.142 0.139 0.294 0.268 0.438 0.406 0.026 0.027 0.036 0.067 0.063 0.094 0.142 0.139 0.294 0.268 0.438 0.406 0.01 0.011 0.021 0.021 0.031 0.031 0.016 0.016 0.015 0.046 0.031 0.063 0.142 0.139 0.294 0.268 0.438 0.406 0.01 0.011 0.021 0.021 0.031 0.031 0.016 0.016 0.015 0.046 0.031 0.063 0.142 0.139 0.294 0.268 0.438 0.406 0.01 0.011 0.021 0.021 0.031 0.031 0.016 0.016 0.015 0.046 0.031 0.063 0.142 0.139 0.294 0.268 0.438 0.406 0.01 0.011 0.021 0.021 0.031 0.031 0.016 0.016 0.015 0.046 0.031 0.063 0.142 0.139 0.294 0.268 0.438 0.406 0.026 0.026 0.037 0.067 0.063 0.094 0.142 0.139 0.294 0.268 0.438 0.406 0.021 0.021 0.042 0.041 0.063 0.063 0.148 0.144 0.289 0.294 0.438 0.438l0.063 0.063c0.148 0.144 0.289 0.294 0.438 0.438l0.063 0.063c0.148 0.144 0.289 0.294 0.438 0.438l0.063 0.063c0.148 0.144 0.289 0.294 0.438 0.438l0.063 0.063c0.147 0.143 0.29 0.295 0.438 0.438l0.063 0.063c0.147 0.143 0.29 0.295 0.438 0.438l0.063 0.063c0.147 0.143 0.29 0.295 0.438 0.438l0.063 0.063c0.142 0.139 0.294 0.268 0.438 0.406 0.01 0.011 0.021 0.021 0.031 0.031 0.016 0.016 0.015 0.046 0.031 0.063 0.142 0.139 0.294 0.268 0.438 0.406 0.01 0.011 0.021 0.021 0.031 0.031 0.016 0.016 0.015 0.046 0.031 0.063 0.142 0.139 0.294 0.268 0.438 0.406 0.01 0.011 0.021 0.021 0.031 0.031 0.016 0.016 0.015 0.046 0.031 0.063 0.142 0.139 0.294 0.268 0.438 0.406 0.01 0.011 0.021 0.021 0.031 0.031 0.005 0.005-0.005 0.026 0 0.031l0.031 0.031c0.138 0.134 0.268 0.272 0.406 0.406 0.031 0.031 0.063 0.062 0.094 0.094 0.138 0.135 0.268 0.272 0.406 0.406 0.026 0.027 0.036 0.067 0.063 0.094 0.143 0.14 0.294 0.267 0.438 0.406 0.026 0.027 0.036 0.067 0.063 0.094 0.143 0.14 0.294 0.267 0.438 0.406 0.026 0.027 0.036 0.067 0.063 0.094 0.143 0.14 0.294 0.267 0.438 0.406 0.026 0.027 0.036 0.067 0.063 0.094 0.143 0.14 0.294 0.267 0.438 0.406 0.026 0.027 0.036 0.067 0.063 0.094 0.142 0.139 0.294 0.268 0.438 0.406 0.026 0.027 0.036 0.067 0.063 0.094 0.142 0.139 0.294 0.268 0.438 0.406 0.026 0.027 0.036 0.067 0.063 0.094 0.142 0.139 0.294 0.268 0.438 0.406 0.026 0.027 0.036 0.067 0.063 0.094 0.142 0.139 0.294 0.268 0.438 0.406 0.01 0.011 0.021 0.021 0.031 0.031 0.016 0.016 0.015 0.046 0.031 0.063 0.142 0.139 0.294 0.268 0.438 0.406 0.01 0.011 0.021 0.021 0.031 0.031 0.016 0.016 0.015 0.046 0.031 0.063 0.142 0.139 0.294 0.268 0.438 0.406 0.01 0.011 0.021 0.021 0.031 0.031 0.016 0.016 0.015 0.046 0.031 0.063 0.142 0.139 0.294 0.268 0.438 0.406 0.026 0.026 0.037 0.067 0.063 0.094 0.142 0.139 0.294 0.268 0.438 0.406 0.021 0.021 0.042 0.041 0.063 0.063 0.148 0.144 0.289 0.294 0.438 0.438l0.063 0.063c0.148 0.144 0.289 0.294 0.438 0.438l0.063 0.063c0.148 0.144 0.289 0.294 0.438 0.438l0.063 0.063c0.148 0.144 0.289 0.294 0.438 0.438l0.063 0.063c0.147 0.143 0.29 0.295 0.438 0.438l0.063 0.063c0.147 0.143 0.29 0.295 0.438 0.438l0.063 0.063c0.147 0.143 0.29 0.295 0.438 0.438l0.063 0.063c0.142 0.139 0.294 0.268 0.438 0.406 0.01 0.011 0.021 0.021 0.031 0.031 0.016 0.016 0.015 0.046 0.031 0.063 0.142 0.139 0.294 0.268 0.438 0.406 0.01 0.011 0.021 0.021 0.031 0.031 0.016 0.016 0.015 0.046 0.031 0.063 0.142 0.139 0.294 0.268 0.438 0.406 0.01 0.011 0.021 0.021 0.031 0.031 0.016 0.016 0.015 0.046 0.031 0.063 0.142 0.139 0.294 0.268 0.438 0.406 0.01 0.011 0.021 0.021 0.031 0.031 0.005 0.005-0.005 0.026 0 0.031l0.031 0.031c0.058 0.057 0.129 0.1 0.188 0.156 0.108 0.112 0.204 0.232 0.313 0.344 0.138 0.134 0.268 0.272 0.406 0.406 0.026 0.027 0.036 0.067 0.063 0.094 0.143 0.14 0.294 0.267 0.438 0.406 0.026 0.027 0.036 0.067 0.063 0.094 0.143 0.14 0.294 0.267 0.438 0.406 0.026 0.027 0.036 0.067 0.063 0.094 0.143 0.14 0.294 0.267 0.438 0.406 0.026 0.027 0.036 0.067 0.063 0.094 0.143 0.14 0.294 0.267 0.438 0.406 0.026 0.027 0.036 0.067 0.063 0.094 0.142 0.139 0.294 0.268 0.438 0.406 0.026 0.027 0.036 0.067 0.063 0.094 0.142 0.139 0.294 0.268 0.438 0.406 0.026 0.027 0.036 0.067 0.063 0.094 0.142 0.139 0.294 0.268 0.438 0.406 0.026 0.027 0.036 0.067 0.063 0.094 0.142 0.139 0.294 0.268 0.438 0.406 0.01 0.011 0.021 0.021 0.031 0.031 0.016 0.016 0.015 0.046 0.031 0.063 0.142 0.139 0.294 0.268 0.438 0.406 0.01 0.011 0.021 0.021 0.031 0.031 0.016 0.016 0.015 0.046 0.031 0.063 0.142 0.139 0.294 0.268 0.438 0.406 0.01 0.011 0.021 0.021 0.031 0.031 0.016 0.016 0.015 0.046 0.031 0.063 0.142 0.139 0.294 0.268 0.438 0.406 0.026 0.026 0.037 0.067 0.063 0.094 0.142 0.139 0.294 0.268 0.438 0.406 0.021 0.021 0.042 0.041 0.063 0.063 0.148 0.144 0.289 0.294 0.438 0.438l0.063 0.063c0.148 0.144 0.289 0.294 0.438 0.438l0.063 0.063c0.148 0.144 0.289 0.294 0.438 0.438l0.063 0.063c0.148 0.144 0.289 0.294 0.438 0.438l0.063 0.063c0.147 0.143 0.29 0.295 0.438 0.438l0.063 0.063c0.147 0.143 0.29 0.295 0.438 0.438l0.063 0.063c0.147 0.143 0.29 0.295 0.438 0.438l0.063 0.063c0.147 0.143 0.29 0.295 0.438 0.438l0.063 0.063c0.142 0.139 0.294 0.268 0.438 0.406 0.01 0.011 0.021 0.021 0.031 0.031 0.016 0.016 0.015 0.046 0.031 0.063 0.142 0.139 0.294 0.268 0.438 0.406 0.01 0.011 0.021 0.021 0.031 0.031 0.016 0.016 0.015 0.046 0.031 0.063 0.142 0.139 0.294 0.268 0.438 0.406 0.01 0.011 0.021 0.021 0.031 0.031 0.005 0.005-0.005 0.026 0 0.031l0.031 0.031c0.058 0.057 0.129 0.1 0.188 0.156 0.108 0.112 0.204 0.232 0.313 0.344 0.138 0.134 0.268 0.272 0.406 0.406 0.026 0.027 0.036 0.067 0.063 0.094 0.143 0.14 0.294 0.267 0.438 0.406 0.026 0.027 0.036 0.067 0.063 0.094 0.143 0.14 0.294 0.267 0.438 0.406 0.026 0.027 0.036 0.067 0.063 0.094 0.143 0.14 0.294 0.267 0.438 0.406 0.026 0.027 0.036 0.067 0.063 0.094 0.143 0.14 0.294 0.267 0.438 0.406 0.026 0.027 0.036 0.067 0.063 0.094 0.142 0.139 0.294 0.268 0.438 0.406 0.026 0.027 0.036 0.067 0.063 0.094 0.142 0.139 0.294 0.268 0.438 0.406 0.026 0.027 0.036 0.067 0.063 0.094 0.142 0.139 0.294 0.268 0.438 0.406 0.026 0.027 0.036 0.067 0.063 0.094 0.142 0.139 0.294 0.268 0.438 0.406 0.01 0.011 0.021 0.021 0.031 0.031 0.016 0.016 0.015 0.046 0.031 0.063 0.142 0.139 0.294 0.268 0.438 0.406 0.01 0.011 0.021 0.021 0.031 0.031 0.016 0.016 0.015 0.046 0.031 0.063 0.142 0.139 0.294 0.268 0.438 0.406 0.01 0.011 0.021 0.021 0.031 0.031 0.016 0.016 0.015 0.046 0.031 0.063 0.142 0.139 0.294 0.268 0.438 0.406 0.026 0.026 0.037 0.067 0.063 0.094 0.142 0.139 0.294 0.268 0.438 0.406 0.021 0.021 0.042 0.041 0.063 0.063 0.148 0.144 0.289 0.294 0.438 0.438l0.063 0.063c0.148 0.144 0.289 0.294 0.438 0.438l0.063 0.063c0.148 0.144 0.289 0.294 0.438 0.438l0.063 0.063c0.148 0.144 0.289 0.294 0.438 0.438l0.063 0.063c0.147 0.143 0.29 0.295 0.438 0.438l0.063 0.063c0.147 0.143 0.29 0.295 0.438 0.438l0.063 0.063c0.147 0.143 0.29 0.295 0.438 0.438l0.063 0.063c0.147 0.143 0.29 0.295 0.438 0.438l0.063 0.063c0.142 0.139 0.294 0.268 0.438 0.406 0.01 0.011 0.021 0.021 0.031 0.031 0.016 0.016 0.015 0.046 0.031 0.063 0.142 0.139 0.294 0.268 0.438 0.406 0.01 0.011 0.021 0.021 0.031 0.031 0.016 0.016 0.015 0.046 0.031 0.063 0.142 0.139 0.294 0.268 0.438 0.406 0.01 0.011 0.021 0.021 0.031 0.031 0.005 0.005-0.005 0.026 0 0.031l0.031 0.031c0.058 0.057 0.129 0.1 0.188 0.156 0.108 0.112 0.204 0.232 0.313 0.344 0.138 0.134 0.268 0.272 0.406 0.406 0.026 0.027 0.036 0.067 0.063 0.094 0.143 0.14 0.294 0.267 0.438 0.406 0.026 0.027 0.036 0.067 0.063 0.094 0.143 0.14 0.294 0.267 0.438 0.406 0.026 0.027 0.036 0.067 0.063 0.094 0.143 0.14 0.294 0.267 0.438 0.406 0.026 0.027 0.036 0.067 0.063 0.094 0.143 0.14 0.294 0.267 0.438 0.406 0.026 0.027 0.036 0.067 0.063 0.094 0.142 0.139 0.294 0.268 0.438 0.406 0.026 0.027 0.036 0.067 0.063 0.094 0.142 0.139 0.294 0.268 0.438 0.406 0.026 0.027 0.036 0.067 0.063 0.094 0.142 0.139 0.294 0.268 0.438 0.406 0.026 0.027 0.036 0.067 0.063 0.094 0.142 0.139 0.294 0.268 0.438 0.406 0.01 0.011 0.021 0.021 0.031 0.031 0.016 0.016 0.015 0.046 0.031 0.063 0.142 0.139 0.294 0.268 0.438 0.406 0.01 0.011 0.021 0.021 0.031 0.031 0.016 0.016 0.015 0.046 0.031 0.063 0.142 0.139 0.294 0.268 0.438 0.406 0.01 0.011 0.021 0.021 0.031 0.031 0.016 0.016 0.015 0.046 0.031 0.063 0.142 0.139 0.294 0.268 0.438 0.406 0.026 0.026 0.037 0.067 0.063 0.094 0.142 0.139 0.294 0.268 0.438 0.406 0.021 0.021 0.042 0.041 0.063 0.063 0.148 0.144 0.289 0.294 0.438 0.438l0.063 0.063c0.148 0.144 0.289 0.294 0.438 0.438l0.063 0.063c0.148 0.144 0.289 0.294 0.438 0.438l0.063 0.063c0.148 0.144 0.289 0.294 0.438 0.438l0.063 0.063c0.147 0.143 0.29 0.295 0.438 0.438l0.063 0.063c0.147 0.143 0.29 0.295 0.438 0.438l0.063 0.063c0.147 0.143 0.29 0.295 0.438 0.438l0.063 0.063c0.147 0.143 0.29 0.295 0.438 0.438l0.063 0.063c0.142 0.139 0.294 0.268 0.438 0.406 0.01 0.011 0.021 0.021 0.031 0.031 0.016 0.016 0.015 0.046 0.031 0.063 0.069 0.067 0.148 0.123 0.219 0.188 93.42-10.192 169.17-79.14 189.5-169.12-0.146 0-0.292 0.003-0.438 0l0.063-0.5c-0.187-0.005-0.375 0.004-0.563 0l0.063-0.5c-0.187-0.005-0.375 0.004-0.563 0l0.063-0.5c-0.187-0.005-0.375 0.004-0.563 0l0.063-0.5c-0.187-0.005-0.375 0.004-0.563 0l0.063-0.5c-0.187-0.005-0.375 0.004-0.563 0l0.063-0.5c-0.187-0.005-0.375 0.004-0.563 0l0.063-0.5c-0.187-0.005-0.375 0.004-0.563 0l0.063-0.5c-0.187-0.005-0.375 0.004-0.563 0l0.063-0.5c-0.187-0.005-0.375 0.004-0.563 0l0.063-0.5c-0.187-0.005-0.375 0.004-0.563 0l0.063-0.5c-0.187-0.005-0.375 0.004-0.563 0l0.063-0.5c-0.187-0.005-0.375 0.004-0.563 0l0.063-0.5c-0.189-0.005-0.373 0.004-0.563 0l0.063-0.469c-0.189-0.005-0.373 0.004-0.563 0l0.063-0.5c-0.189-0.005-0.373 0.004-0.563 0l0.063-0.5c-0.189-0.005-0.373 0.004-0.563 0l0.063-0.5c-0.179-0.005-0.353 0.004-0.531 0l0.063-0.5c-0.187-0.005-0.375 0.004-0.563 0l0.063-0.5c-0.187-0.005-0.375 0.004-0.563 0l0.063-0.5c-0.187-0.005-0.375 0.004-0.563 0l0.063-0.5c-0.187-0.005-0.375 0.004-0.563 0l0.063-0.5c-0.187-0.005-0.375 0.004-0.563 0l0.063-0.5c-0.187-0.005-0.375 0.004-0.563 0l0.063-0.5c-0.187-0.005-0.375 0.004-0.563 0l0.063-0.5c-0.187-0.005-0.375 0.004-0.563 0l0.063-0.5c-0.187-0.005-0.375 0.004-0.563 0l0.063-0.5c-0.187-0.005-0.375 0.004-0.563 0l0.063-0.5c-0.187-0.005-0.375 0.004-0.563 0l0.063-0.5c-0.187-0.005-0.375 0.004-0.563 0l0.063-0.5c-0.187-0.005-0.375 0.004-0.563 0l0.063-0.5c-0.187-0.005-0.375 0.004-0.563 0l0.063-0.5c-0.187-0.005-0.375 0.004-0.563 0l0.063-0.5c-0.187-0.005-0.375 0.004-0.563 0l0.063-0.5c-0.187-0.005-0.375 0.004-0.563 0l0.063-0.5c-0.187-0.005-0.375 0.004-0.563 0l0.063-0.5c-0.187-0.005-0.375 0.004-0.563 0l0.063-0.5c-0.187-0.005-0.375 0.004-0.563 0l0.063-0.5c-0.189-0.005-0.373 0.004-0.563 0l0.063-0.469c-0.189-0.005-0.373 0.004-0.563 0l0.063-0.5c-0.189-0.005-0.373 0.004-0.563 0l0.063-0.5c-0.189-0.005-0.373 0.004-0.563 0l0.063-0.5c-0.179-0.005-0.353 0.004-0.531 0l0.063-0.5c-0.187-0.005-0.375 0.004-0.563 0l0.063-0.5c-0.187-0.005-0.375 0.004-0.563 0l0.063-0.5c-0.187-0.005-0.375 0.004-0.563 0l0.063-0.5c-0.187-0.005-0.375 0.004-0.563 0l0.063-0.5c-0.187-0.005-0.375 0.004-0.563 0l0.063-0.5c-0.187-0.005-0.375 0.004-0.563 0l0.063-0.5c-0.187-0.005-0.375 0.004-0.563 0l0.063-0.5c-0.187-0.005-0.375 0.004-0.563 0l0.063-0.5c-0.187-0.005-0.375 0.004-0.563 0l0.063-0.5c-0.187-0.005-0.375 0.004-0.563 0l0.063-0.5c-0.187-0.005-0.375 0.004-0.563 0l0.063-0.5c-0.187-0.005-0.375 0.004-0.563 0l0.063-0.5c-0.187-0.005-0.375 0.004-0.563 0l0.063-0.5c-0.187-0.005-0.375 0.004-0.563 0l0.063-0.5c-0.187-0.005-0.375 0.004-0.563 0l0.063-0.5c-0.187-0.005-0.375 0.004-0.563 0l0.063-0.5c-0.187-0.005-0.375 0.004-0.563 0l0.063-0.5c-0.187-0.005-0.375 0.004-0.563 0l0.063-0.5c-0.187-0.005-0.375 0.004-0.563 0l0.063-0.5c-0.187-0.005-0.375 0.004-0.563 0l0.063-0.5c-0.189-0.005-0.373 0.004-0.563 0l0.063-0.469c-0.189-0.005-0.373 0.004-0.563 0l0.063-0.5c-0.189-0.005-0.373 0.004-0.563 0l0.063-0.5c-0.189-0.005-0.373 0.004-0.563 0l0.063-0.5c-0.179-0.005-0.353 0.004-0.531 0l0.063-0.5c-0.187-0.005-0.375 0.004-0.563 0l0.063-0.5c-0.187-0.005-0.375 0.004-0.563 0l0.063-0.5c-0.187-0.005-0.375 0.004-0.563 0l0.063-0.5c-0.187-0.005-0.375 0.004-0.563 0l0.063-0.5c-0.187-0.005-0.375 0.004-0.563 0l0.063-0.5c-0.187-0.005-0.375 0.004-0.563 0l0.063-0.5c-0.187-0.005-0.375 0.004-0.563 0l0.063-0.5c-0.187-0.005-0.375 0.004-0.563 0l0.063-0.5c-0.187-0.005-0.375 0.004-0.563 0l0.063-0.5c-0.187-0.005-0.375 0.004-0.563 0l0.063-0.5c-0.187-0.005-0.375 0.004-0.563 0l0.063-0.5c-0.187-0.005-0.375 0.004-0.563 0l0.063-0.5c-0.187-0.005-0.375 0.004-0.563 0l0.063-0.5c-0.187-0.005-0.375 0.004-0.563 0l0.063-0.5c-0.187-0.005-0.375 0.004-0.563 0l0.063-0.5c-0.187-0.005-0.375 0.004-0.563 0l0.063-0.5c-0.187-0.005-0.375 0.004-0.563 0l0.063-0.5c-0.187-0.005-0.375 0.004-0.563 0l0.063-0.5c-0.187-0.005-0.375 0.004-0.563 0l0.063-0.5c-0.187-0.005-0.375 0.004-0.563 0l0.063-0.5c-0.189-0.005-0.373 0.004-0.563 0l0.063-0.469c-0.189-0.005-0.373 0.004-0.563 0l0.063-0.5c-0.189-0.005-0.373 0.004-0.563 0l0.063-0.5c-0.189-0.005-0.373 0.004-0.563 0l0.063-0.5c-0.179-0.005-0.353 0.004-0.531 0l0.063-0.5c-0.187-0.005-0.375 0.004-0.563 0l0.063-0.5c-0.187-0.005-0.375 0.004-0.563 0l0.063-0.5c-0.187-0.005-0.375 0.004-0.563 0l0.063-0.5c-0.187-0.005-0.375 0.004-0.563 0l0.063-0.5c-0.187-0.005-0.375 0.004-0.563 0l0.063-0.5c-0.187-0.005-0.375 0.004-0.563 0l0.063-0.5c-0.187-0.005-0.375 0.004-0.563 0l0.063-0.5c-0.187-0.005-0.375 0.004-0.563 0l0.063-0.5c-0.187-0.005-0.375 0.004-0.563 0l0.063-0.5c-0.187-0.005-0.375 0.004-0.563 0l0.063-0.5c-0.187-0.005-0.375 0.004-0.563 0l0.063-0.5c-0.187-0.005-0.375 0.004-0.563 0l0.063-0.5c-0.187-0.005-0.375 0.004-0.563 0l0.063-0.5c-0.187-0.005-0.375 0.004-0.563 0l0.063-0.5c-0.187-0.005-0.375 0.004-0.563 0l0.063-0.5c-0.187-0.005-0.375 0.004-0.563 0l0.063-0.5c-0.187-0.005-0.375 0.004-0.563 0l0.063-0.5c-0.187-0.005-0.375 0.004-0.563 0l0.063-0.5c-0.187-0.005-0.375 0.004-0.563 0l0.063-0.5c-0.187-0.005-0.375 0.004-0.563 0l0.063-0.5c-0.189-0.005-0.373 0.004-0.563 0l0.063-0.469c-0.189-0.005-0.373 0.004-0.563 0l0.063-0.5c-0.189-0.005-0.373 0.004-0.563 0l0.063-0.5c-0.189-0.005-0.373 0.004-0.563 0l0.063-0.5c-0.179-0.005-0.353 0.004-0.531 0l0.063-0.5c-0.187-0.005-0.375 0.004-0.563 0l0.063-0.5c-0.187-0.005-0.375 0.004-0.563 0l0.063-0.5c-0.187-0.005-0.375 0.004-0.563 0l0.063-0.5c-0.187-0.005-0.375 0.004-0.563 0l0.063-0.5c-0.187-0.005-0.375 0.004-0.563 0l0.063-0.5c-0.187-0.005-0.375 0.004-0.563 0l0.063-0.5c-0.187-0.005-0.375 0.004-0.563 0l0.063-0.5c-0.187-0.005-0.375 0.004-0.563 0l0.063-0.5c-0.187-0.005-0.375 0.004-0.563 0l0.063-0.5c-0.187-0.005-0.375 0.004-0.563 0l0.063-0.5c-0.187-0.005-0.375 0.004-0.563 0l0.063-0.5c-0.187-0.005-0.375 0.004-0.563 0l0.063-0.5c-0.187-0.005-0.375 0.004-0.563 0l0.063-0.5c-0.187-0.005-0.375 0.004-0.563 0l0.063-0.5c-0.187-0.005-0.375 0.004-0.563 0l0.063-0.5c-0.187-0.005-0.375 0.004-0.563 0l0.063-0.5c-0.187-0.005-0.375 0.004-0.563 0l0.063-0.5c-0.187-0.005-0.375 0.004-0.563 0l0.063-0.5c-0.187-0.005-0.375 0.004-0.563 0l0.063-0.5c-0.187-0.005-0.375 0.004-0.563 0l0.063-0.5c-0.189-0.005-0.373 0.004-0.563 0l0.063-0.469c-0.189-0.005-0.373 0.004-0.563 0l0.063-0.5c-0.189-0.005-0.373 0.004-0.563 0l0.063-0.5c-0.189-0.005-0.373 0.004-0.563 0l0.063-0.5c-0.179-0.005-0.353 0.004-0.531 0l0.063-0.5c-0.187-0.005-0.375 0.004-0.563 0l0.063-0.5c-0.187-0.005-0.375 0.004-0.563 0l0.063-0.5c-0.187-0.005-0.375 0.004-0.563 0l0.063-0.5c-0.187-0.005-0.375 0.004-0.563 0l0.063-0.5c-0.187-0.005-0.375 0.004-0.563 0l0.063-0.5c-0.187-0.005-0.375 0.004-0.563 0l0.063-0.5c-0.187-0.005-0.375 0.004-0.563 0l0.063-0.5c-0.187-0.005-0.375 0.004-0.563 0l0.063-0.5c-0.187-0.005-0.375 0.004-0.563 0l0.063-0.5c-0.187-0.005-0.375 0.004-0.563 0l0.063-0.5c-0.187-0.005-0.375 0.004-0.563 0l0.063-0.5c-0.187-0.005-0.375 0.004-0.563 0l0.063-0.5c-0.187-0.005-0.375 0.004-0.563 0l0.063-0.5c-0.187-0.005-0.375 0.004-0.563 0l0.063-0.5c-0.187-0.005-0.375 0.004-0.563 0l0.063-0.5c-0.187-0.005-0.375 0.004-0.563 0l0.063-0.5c-0.187-0.005-0.375 0.004-0.563 0l0.063-0.5c-0.187-0.005-0.375 0.004-0.563 0l0.063-0.5c-0.187-0.005-0.375 0.004-0.563 0l0.063-0.5c-0.187-0.005-0.375 0.004-0.563 0l0.063-0.5c-0.187-0.005-0.375 0.004-0.563 0l0.063-0.469c-0.189-0.005-0.373 0.004-0.563 0l0.063-0.5c-0.189-0.005-0.373 0.004-0.563 0l0.063-0.5c-0.189-0.005-0.373 0.004-0.563 0l0.063-0.5c-0.179-0.005-0.353 0.004-0.531 0l0.063-0.5c-0.187-0.005-0.375 0.004-0.563 0l0.063-0.5c-0.187-0.005-0.375 0.004-0.563 0l0.063-0.5c-0.187-0.005-0.375 0.004-0.563 0l0.063-0.5c-0.187-0.005-0.375 0.004-0.563 0l0.063-0.5c-0.187-0.005-0.375 0.004-0.563 0l0.063-0.5c-0.187-0.005-0.375 0.004-0.563 0l0.063-0.5c-0.187-0.005-0.375 0.004-0.563 0l0.063-0.5c-0.187-0.005-0.375 0.004-0.563 0l0.063-0.5c-0.187-0.005-0.375 0.004-0.563 0l0.063-0.5c-0.187-0.005-0.375 0.004-0.563 0l0.063-0.5c-0.187-0.005-0.375 0.004-0.563 0l0.063-0.5c-0.187-0.005-0.375 0.004-0.563 0l0.063-0.5c-0.187-0.005-0.375 0.004-0.563 0l0.063-0.5c-0.187-0.005-0.375 0.004-0.563 0l0.063-0.5c-0.187-0.005-0.375 0.004-0.563 0l0.063-0.5c-0.187-0.005-0.375 0.004-0.563 0l0.063-0.5c-0.187-0.005-0.375 0.004-0.563 0l0.063-0.5c-0.187-0.005-0.375 0.004-0.563 0l0.063-0.5c-0.187-0.005-0.375 0.004-0.563 0l0.063-0.5c-0.187-0.005-0.375 0.004-0.563 0l0.063-0.5c-0.187-0.005-0.375 0.004-0.563 0l0.063-0.469c-0.189-0.005-0.373 0.004-0.563 0l0.063-0.5c-0.189-0.005-0.373 0.004-0.563 0l0.063-0.5c-0.189-0.005-0.373 0.004-0.563 0l0.063-0.5c-0.179-0.005-0.353 0.004-0.531 0l0.063-0.5c-0.187-0.005-0.375 0.004-0.563 0l0.063-0.5c-0.187-0.005-0.375 0.004-0.563 0l0.063-0.5c-0.187-0.005-0.375 0.004-0.563 0l0.063-0.5c-0.187-0.005-0.375 0.004-0.563 0l0.063-0.5c-0.187-0.005-0.375 0.004-0.563 0l0.063-0.5c-0.187-0.005-0.375 0.004-0.563 0l0.063-0.5c-0.187-0.005-0.375 0.004-0.563 0l0.063-0.5c-0.187-0.005-0.375 0.004-0.563 0l0.063-0.5c-0.187-0.005-0.375 0.004-0.563 0l0.063-0.5c-0.187-0.005-0.375 0.004-0.563 0l0.063-0.5c-0.187-0.005-0.375 0.004-0.563 0l0.063-0.5c-0.187-0.005-0.375 0.004-0.563 0l0.063-0.5c-0.187-0.005-0.375 0.004-0.563 0l0.063-0.5c-0.187-0.005-0.375 0.004-0.563 0l0.063-0.5c-0.187-0.005-0.375 0.004-0.563 0l0.063-0.5c-0.187-0.005-0.375 0.004-0.563 0l0.063-0.5c-0.187-0.005-0.375 0.004-0.563 0l0.063-0.5c-0.187-0.005-0.375 0.004-0.563 0l0.063-0.5c-0.187-0.005-0.375 0.004-0.563 0l0.063-0.5c-0.187-0.005-0.375 0.004-0.563 0l0.063-0.5c-0.187-0.005-0.375 0.004-0.563 0l0.063-0.469c-0.189-0.005-0.373 0.004-0.563 0l0.063-0.5c-0.189-0.005-0.373 0.004-0.563 0l0.063-0.5c-0.189-0.005-0.373 0.004-0.563 0l0.063-0.5c-0.179-0.005-0.353 0.004-0.531 0l0.063-0.5c-0.187-0.005-0.375 0.004-0.563 0l0.063-0.5c-0.187-0.005-0.375 0.004-0.563 0l0.063-0.5c-0.187-0.005-0.375 0.004-0.563 0l0.063-0.5c-0.187-0.005-0.375 0.004-0.563 0l0.063-0.5c-0.187-0.005-0.375 0.004-0.563 0l0.063-0.5c-0.187-0.005-0.375 0.004-0.563 0l0.063-0.5c-0.187-0.005-0.375 0.004-0.563 0l0.063-0.5c-0.187-0.005-0.375 0.004-0.563 0l0.063-0.5c-0.187-0.005-0.375 0.004-0.563 0l0.063-0.5c-0.187-0.005-0.375 0.004-0.563 0l0.063-0.5c-0.187-0.005-0.375 0.004-0.563 0l0.063-0.5c-0.187-0.005-0.375 0.004-0.563 0l0.063-0.5c-0.187-0.005-0.375 0.004-0.563 0l0.063-0.5c-0.187-0.005-0.375 0.004-0.563 0l0.063-0.5c-0.187-0.005-0.375 0.004-0.563 0l0.063-0.5c-0.187-0.005-0.375 0.004-0.563 0l0.063-0.5c-0.187-0.005-0.375 0.004-0.563 0l0.063-0.5c-0.187-0.005-0.375 0.004-0.563 0l0.063-0.5c-0.187-0.005-0.375 0.004-0.563 0l0.063-0.5c-0.187-0.005-0.375 0.004-0.563 0l0.063-0.5c-0.187-0.005-0.375 0.004-0.563 0l0.063-0.469c-0.189-0.005-0.373 0.004-0.563 0l0.063-0.5c-0.189-0.005-0.373 0.004-0.563 0l0.063-0.5c-0.189-0.005-0.373 0.004-0.563 0l0.063-0.5c-0.189-0.005-0.373 0.004-0.563 0l0.063-0.5c-0.179-0.005-0.353 0.004-0.531 0l0.063-0.5c-0.187-0.005-0.375 0.004-0.563 0l0.063-0.5c-0.187-0.005-0.375 0.004-0.563 0l0.063-0.5c-0.187-0.005-0.375 0.004-0.563 0l0.063-0.5c-0.187-0.005-0.375 0.004-0.563 0l0.063-0.5c-0.187-0.005-0.375 0.004-0.563 0l0.063-0.5c-0.187-0.005-0.375 0.004-0.563 0l0.063-0.5c-0.187-0.005-0.375 0.004-0.563 0l0.063-0.5c-0.187-0.005-0.375 0.004-0.563 0l0.063-0.5c-0.187-0.005-0.375 0.004-0.563 0l0.063-0.5c-0.187-0.005-0.375 0.004-0.563 0l0.063-0.5c-0.187-0.005-0.375 0.004-0.563 0l0.063-0.5c-0.187-0.005-0.375 0.004-0.563 0l0.063-0.5c-0.187-0.005-0.375 0.004-0.563 0l0.063-0.5c-0.187-0.005-0.375 0.004-0.563 0l0.063-0.5c-0.187-0.005-0.375 0.004-0.563 0l0.063-0.5c-0.187-0.005-0.375 0.004-0.563 0l0.063-0.5c-0.187-0.005-0.375 0.004-0.563 0l0.063-0.5c-0.187-0.005-0.375 0.004-0.563 0l0.063-0.5c-0.187-0.005-0.375 0.004-0.563 0l0.063-0.5c-0.187-0.005-0.375 0.004-0.563 0l0.063-0.469c-0.189-0.005-0.373 0.004-0.563 0l0.063-0.5c-0.189-0.005-0.373 0.004-0.563 0l0.063-0.5c-0.189-0.005-0.373 0.004-0.563 0l0.063-0.5c-0.189-0.005-0.373 0.004-0.563 0l0.063-0.5c-0.179-0.005-0.353 0.004-0.531 0l0.063-0.5c-0.187-0.005-0.375 0.004-0.563 0l0.063-0.5c-0.187-0.005-0.375 0.004-0.563 0l0.063-0.5c-0.187-0.005-0.375 0.004-0.563 0l0.063-0.5c-0.187-0.005-0.375 0.004-0.563 0l0.063-0.5c-0.187-0.005-0.375 0.004-0.563 0l0.063-0.5c-0.187-0.005-0.375 0.004-0.563 0l0.063-0.5c-0.187-0.005-0.375 0.004-0.563 0l0.063-0.5c-0.187-0.005-0.375 0.004-0.563 0l0.063-0.5c-0.187-0.005-0.375 0.004-0.563 0l0.063-0.5c-0.187-0.005-0.375 0.004-0.563 0l0.063-0.5c-0.187-0.005-0.375 0.004-0.563 0l0.063-0.5c-0.187-0.005-0.375 0.004-0.563 0l0.063-0.5c-0.187-0.005-0.375 0.004-0.563 0l0.063-0.5c-0.187-0.005-0.375 0.004-0.563 0l0.063-0.5c-0.187-0.005-0.375 0.004-0.563 0l0.063-0.5c-0.187-0.005-0.375 0.004-0.563 0l0.063-0.5c-0.187-0.005-0.375 0.004-0.563 0l0.063-0.5c-0.187-0.005-0.375 0.004-0.563 0l0.063-0.5c-0.187-0.005-0.375 0.004-0.563 0l0.063-0.5c-0.187-0.005-0.375 0.004-0.563 0l0.063-0.469c-0.189-0.005-0.373 0.004-0.563 0l0.063-0.5c-0.189-0.005-0.373 0.004-0.563 0l0.063-0.5c-0.189-0.005-0.373 0.004-0.563 0l0.063-0.5c-0.189-0.005-0.373 0.004-0.563 0l0.063-0.5c-0.179-0.005-0.353 0.004-0.531 0l0.063-0.5c-0.187-0.005-0.375 0.004-0.563 0l0.063-0.5c-0.187-0.005-0.375 0.004-0.563 0l0.063-0.5c-0.187-0.005-0.375 0.004-0.563 0l0.063-0.5c-0.187-0.005-0.375 0.004-0.563 0l0.063-0.5c-0.187-0.005-0.375 0.004-0.563 0l0.063-0.5c-0.187-0.005-0.375 0.004-0.563 0l0.063-0.5c-0.187-0.005-0.375 0.004-0.563 0l0.063-0.5c-0.187-0.005-0.375 0.004-0.563 0l0.063-0.5c-0.187-0.005-0.375 0.004-0.563 0l0.063-0.5c-0.187-0.005-0.375 0.004-0.563 0l0.063-0.5c-0.187-0.005-0.375 0.004-0.563 0l0.063-0.5c-0.187-0.005-0.375 0.004-0.563 0l0.063-0.5c-0.187-0.005-0.375 0.004-0.563 0l0.063-0.5c-0.187-0.005-0.375 0.004-0.563 0l0.063-0.5c-0.187-0.005-0.375 0.004-0.563 0l0.063-0.5c-0.187-0.005-0.375 0.004-0.563 0l0.063-0.5c-0.187-0.005-0.375 0.004-0.563 0l0.063-0.5c-0.187-0.005-0.375 0.004-0.563 0l0.063-0.5c-0.187-0.005-0.375 0.004-0.563 0l0.063-0.5c-0.187-0.005-0.375 0.004-0.563 0l0.063-0.469c-0.189-0.005-0.373 0.004-0.563 0l0.063-0.5c-0.189-0.005-0.373 0.004-0.563 0l0.063-0.5c-0.189-0.005-0.373 0.004-0.563 0l0.063-0.5c-0.189-0.005-0.373 0.004-0.563 0l0.063-0.5c-0.179-0.005-0.353 0.004-0.531 0l0.063-0.5c-0.187-0.005-0.375 0.004-0.563 0l0.063-0.5c-0.187-0.005-0.375 0.004-0.563 0l0.063-0.5c-0.187-0.005-0.375 0.004-0.563 0l0.063-0.5c-0.187-0.005-0.375 0.004-0.563 0l0.063-0.5c-0.187-0.005-0.375 0.004-0.563 0l0.063-0.5c-0.187-0.005-0.375 0.004-0.563 0l0.063-0.5c-0.187-0.005-0.375 0.004-0.563 0l0.063-0.5c-0.187-0.005-0.375 0.004-0.563 0l0.063-0.5c-0.187-0.005-0.375 0.004-0.563 0l0.063-0.5c-0.187-0.005-0.375 0.004-0.563 0l0.063-0.5c-0.187-0.005-0.375 0.004-0.563 0l0.063-0.5c-0.187-0.005-0.375 0.004-0.563 0l0.063-0.5c-0.187-0.005-0.375 0.004-0.563 0l0.063-0.5c-0.187-0.005-0.375 0.004-0.563 0l0.063-0.5c-0.187-0.005-0.375 0.004-0.563 0l0.063-0.5c-0.187-0.005-0.375 0.004-0.563 0l0.063-0.5c-0.187-0.005-0.375 0.004-0.563 0l0.063-0.5c-0.187-0.005-0.375 0.004-0.563 0l0.063-0.5c-0.187-0.005-0.375 0.004-0.563 0l0.063-0.5c-0.187-0.005-0.375 0.004-0.563 0l0.063-0.469c-0.189-0.005-0.373 0.004-0.563 0l0.063-0.5c-0.189-0.005-0.373 0.004-0.563 0l0.063-0.5c-0.189-0.005-0.373 0.004-0.563 0l0.063-0.5c-0.189-0.005-0.373 0.004-0.563 0l0.063-0.5c-0.179-0.005-0.353 0.004-0.531 0l0.063-0.5c-0.187-0.005-0.375 0.004-0.563 0l0.063-0.5c-0.187-0.005-0.375 0.004-0.563 0l0.063-0.5c-0.187-0.005-0.375 0.004-0.563 0l0.063-0.5c-0.187-0.005-0.375 0.004-0.563 0l0.063-0.5c-0.187-0.005-0.375 0.004-0.563 0l0.063-0.5c-0.187-0.005-0.375 0.004-0.563 0l0.063-0.5c-0.187-0.005-0.375 0.004-0.563 0l0.063-0.5c-0.187-0.005-0.375 0.004-0.563 0l0.063-0.5c-0.187-0.005-0.375 0.004-0.563 0l0.063-0.5c-0.187-0.005-0.375 0.004-0.563 0l0.063-0.5c-0.187-0.005-0.375 0.004-0.563 0l0.063-0.5c-0.187-0.005-0.375 0.004-0.563 0l0.063-0.5c-0.187-0.005-0.375 0.004-0.563 0l0.063-0.5c-0.187-0.005-0.375 0.004-0.563 0l0.063-0.5c-0.187-0.005-0.375 0.004-0.563 0l0.063-0.5c-0.187-0.005-0.375 0.004-0.563 0l0.063-0.5c-0.187-0.005-0.375 0.004-0.563 0l0.063-0.5c-0.187-0.005-0.375 0.004-0.563 0l0.063-0.5c-0.187-0.005-0.375 0.004-0.563 0l0.063-0.5c-0.187-0.005-0.375 0.004-0.563 0l0.063-0.469c-0.189-0.005-0.373 0.004-0.563 0l0.063-0.5c-0.189-0.005-0.373 0.004-0.563 0l0.063-0.5c-0.189-0.005-0.373 0.004-0.563 0l0.063-0.5c-0.189-0.005-0.373 0.004-0.563 0l0.063-0.5c-0.179-0.005-0.353 0.004-0.531 0l0.063-0.5c-0.187-0.005-0.375 0.004-0.563 0l0.063-0.5c-0.187-0.005-0.375 0.004-0.563 0l0.063-0.5c-0.187-0.005-0.375 0.004-0.563 0l0.063-0.5c-0.187-0.005-0.375 0.004-0.563 0l0.063-0.5c-0.187-0.005-0.375 0.004-0.563 0l0.063-0.5c-0.187-0.005-0.375 0.004-0.563 0l0.063-0.5c-0.187-0.005-0.375 0.004-0.563 0l0.063-0.5c-0.187-0.005-0.375 0.004-0.563 0l0.063-0.5c-1.852-0.048-3.717-0.052-5.563-0.031"/><path id="path10" fill-opacity=".067" d="m256 1c-140.83 0-255 114.17-255 255s114.17 255 255 255 255-114.17 255-255-114.17-255-255-255m8.827 44.931c120.9 0 218.9 98 218.9 218.9s-98 218.9-218.9 218.9-218.93-98-218.93-218.9 98.03-218.9 218.93-218.9"/><g id="g12" fill-opacity=".129"><path id="path14" d="m256 4.433c-138.94 0-251.57 112.63-251.57 251.57s112.63 251.57 251.57 251.57 251.57-112.63 251.57-251.57-112.63-251.57-251.57-251.57m5.885 38.556c120.9 0 218.9 98 218.9 218.9s-98 218.9-218.9 218.9-218.93-98-218.93-218.9 98.03-218.9 218.93-218.9"/><path id="path16" d="m256 8.356c-136.77 0-247.64 110.87-247.64 247.64s110.87 247.64 247.64 247.64 247.64-110.87 247.64-247.64-110.87-247.64-247.64-247.64m2.942 31.691c120.9 0 218.9 98 218.9 218.9s-98 218.9-218.9 218.9-218.93-98-218.93-218.9 98.03-218.9 218.93-218.9"/></g><path id="path18" fill="#fff" stroke="#000" stroke-opacity=".31" stroke-width="4.904" d="m253.04 7.859c-135.42 0-245.19 109.78-245.19 245.19 0 135.42 109.78 245.19 245.19 245.19 135.42 0 245.19-109.78 245.19-245.19 0-135.42-109.78-245.19-245.19-245.19zm0 26.297c120.9 0 218.9 98 218.9 218.9s-98 218.9-218.9 218.9-218.93-98-218.93-218.9 98.03-218.9 218.93-218.9z"/></g><path id="path66" fill="#fff" fill-rule="evenodd" d="m259.8 263.66c-2.153-9.39 9.128-14.83 16.809-13.826 15.01 1.966 22.13 18.8 18.677 32.29-5.257 20.513-28.55 29.746-47.647 23.601-25.946-8.35-37.32-38.458-28.434-63.19 11.325-31.499 48.24-45.08 78.48-33.377 36.939 14.3 52.694 58.22 38.19 94.08-17.197 42.531-67.971 60.52-109.32 43.15-47.96-20.15-68.12-78-47.946-124.98 23.01-53.58 87.73-75.994 140.16-52.925 58.992 25.955 83.56 97.8 57.692 155.88-28.785 64.65-107.48 91.49-170.98 62.709-70.03-31.753-99.04-117.61-67.46-186.78 24.764-54.24 81.38-88.37 140.63-86.83"/></svg>