<svg xmlns="http://www.w3.org/2000/svg" id="svg2" width="100%" height="100%" version="1.1" viewBox="0 0 512 512"><metadata id="metadata116"/><path id="path4" fill="#62c0dc" fill-rule="evenodd" d="m471.95 253.05c0 120.9-98.01 218.9-218.9 218.9-120.9 0-218.9-98.01-218.9-218.9 0-120.9 98.01-218.9 218.9-218.9 120.9 0 218.9 98.01 218.9 218.9"/><path id="path6" fill-opacity=".235" d="m153.19 113.81c-8.733 8.633 10.804 17.287 15.688 25.22 13.527 13.586 27.18 27.05 40.625 40.719-20.725 1.386-42.81-3.894-62.12 5.438-21.581 11.175-23.751 36.662-22.5 58.16 0.164 38.29-0.331 76.62 0.25 114.91 2.805 24.23 24.814 37.481 39.781 54.31 19.1 19.05 38.18 38.13 57.25 57.22 10.09 1.426 20.388 2.188 30.875 2.188 109.14 0 199.62-79.898 216.19-184.37-32.756-32.783-65.55-65.51-98.47-98.12-14.219-10.07-32.444-11.881-48.37-18.656-56.43-18.862-112.61-38.836-169.19-57"/><g id="g8" fill-rule="evenodd"><path id="path10" fill-opacity=".067" d="m256 1c-140.83 0-255 114.17-255 255s114.17 255 255 255 255-114.17 255-255-114.17-255-255-255m8.827 44.931c120.9 0 218.9 98 218.9 218.9s-98 218.9-218.9 218.9-218.93-98-218.93-218.9 98.03-218.9 218.93-218.9"/><g id="g12" fill-opacity=".129"><path id="path14" d="m256 4.433c-138.94 0-251.57 112.63-251.57 251.57s112.63 251.57 251.57 251.57 251.57-112.63 251.57-251.57-112.63-251.57-251.57-251.57m5.885 38.556c120.9 0 218.9 98 218.9 218.9s-98 218.9-218.9 218.9-218.93-98-218.93-218.9 98.03-218.9 218.93-218.9"/><path id="path16" d="m256 8.356c-136.77 0-247.64 110.87-247.64 247.64s110.87 247.64 247.64 247.64 247.64-110.87 247.64-247.64-110.87-247.64-247.64-247.64m2.942 31.691c120.9 0 218.9 98 218.9 218.9s-98 218.9-218.9 218.9-218.93-98-218.93-218.9 98.03-218.9 218.93-218.9"/></g><path id="path18" fill="#fff" stroke="#000" stroke-opacity=".31" stroke-width="4.904" d="m253.04 7.859c-135.42 0-245.19 109.78-245.19 245.19 0 135.42 109.78 245.19 245.19 245.19 135.42 0 245.19-109.78 245.19-245.19 0-135.42-109.78-245.19-245.19-245.19zm0 26.297c120.9 0 218.9 98 218.9 218.9s-98 218.9-218.9 218.9-218.93-98-218.93-218.9 98.03-218.9 218.93-218.9z"/></g><path id="path110" fill="#fff" d="m153.19 113.8c-1.734 0.105-3.105 1.407-3.511 3.173-0.542 2.353 1.064 4.836 3.511 5.665l168.75 57.11h-154.04c-23.841 0-43.01 20.239-43.01 45.1v128.49c0 24.857 19.17 44.87 43.01 44.87h176.21c23.841 0 43.01-20.01 43.01-44.87v-128.49c0-16.01-7.929-30.13-19.969-38.07-0.599-0.696-1.496-1.275-2.414-1.586l-0.658-0.226c-4.101-2.221-8.634-3.784-13.386-4.532l-195.52-66.4c-0.612-0.207-1.397-0.263-1.975-0.226m101.38 104.24c40.34 0 72.853 32.13 72.853 72.06 0 39.936-32.51 72.06-72.853 72.06-40.34 0-72.853-32.13-72.853-72.06 0-39.933 32.51-72.06 72.853-72.06"/></svg>