<svg xmlns="http://www.w3.org/2000/svg" viewBox="0 0 512 512"><path d="m471.95 253.05c0 120.9-98.01 218.9-218.9 218.9-120.9 0-218.9-98.01-218.9-218.9 0-120.9 98.01-218.9 218.9-218.9 120.9 0 218.9 98.01 218.9 218.9" style="fill:#dd4b38;fill-rule:evenodd"/><path d="m209.78 105.84c-41.815.563-86.21 32.3-84.44 77.16 1.893 36.885 37.443 56.647 59.19 81.906 46.26 46.26 12.804 24.274-9.5 21.22-32.697 5.363-70.11 28.833-69.09 65.781 2.133 12.468 8.04 22.717 15.688 31.875 27.586 26.825 55.721 54.861 83.72 82.938 15.355 3.412 31.3 5.25 47.688 5.25 114.32 0 208.16-87.65 218.03-199.41-38.02-38.13-73.833-74.11-89.44-89.72-2.064.147-1.445.854-2.5-.188-23.763-23.447-49.18-48.77-77-76.59-7.06-.018-79.13-.047-86.19-.063-2.038-.125-4.1-.184-6.156-.156" style="fill-opacity:.235"/><g style="fill-rule:evenodd"><path d="m256 1c-140.83 0-255 114.17-255 255 0 140.83 114.17 255 255 255 140.83 0 255-114.17 255-255 0-140.83-114.17-255-255-255m8.827 44.931c120.9 0 218.9 98 218.9 218.9 0 120.9-98 218.9-218.9 218.9-120.9 0-218.93-98-218.93-218.9 0-120.9 98.03-218.9 218.93-218.9" style="fill-opacity:.067"/><g style="fill-opacity:.129"><path d="m256 4.433c-138.94 0-251.57 112.63-251.57 251.57 0 138.94 112.63 251.57 251.57 251.57 138.94 0 251.57-112.63 251.57-251.57 0-138.94-112.63-251.57-251.57-251.57m5.885 38.556c120.9 0 218.9 98 218.9 218.9 0 120.9-98 218.9-218.9 218.9-120.9 0-218.93-98-218.93-218.9 0-120.9 98.03-218.9 218.93-218.9"/><path d="m256 8.356c-136.77 0-247.64 110.87-247.64 247.64 0 136.77 110.87 247.64 247.64 247.64 136.77 0 247.64-110.87 247.64-247.64 0-136.77-110.87-247.64-247.64-247.64m2.942 31.691c120.9 0 218.9 98 218.9 218.9 0 120.9-98 218.9-218.9 218.9-120.9 0-218.93-98-218.93-218.9 0-120.9 98.03-218.9 218.93-218.9"/></g><path d="m253.04 7.859c-135.42 0-245.19 109.78-245.19 245.19 0 135.42 109.78 245.19 245.19 245.19 135.42 0 245.19-109.78 245.19-245.19 0-135.42-109.78-245.19-245.19-245.19zm0 26.297c120.9 0 218.9 98 218.9 218.9 0 120.9-98 218.9-218.9 218.9-120.9 0-218.93-98-218.93-218.9 0-120.9 98.03-218.9 218.93-218.9z" style="stroke-opacity:.31;fill:#fff;stroke:#000;stroke-width:4.904"/></g><text x="729.64" y="231.36" line-height="125%" style="letter-spacing:0;word-spacing:0;font-size:129.23;font-family:Gentium Book Basic"><tspan x="729.64" y="231.36"/></text><text x="378.91" y="579.25" transform="scale(4.0128.2492)" style="font-size:46.954;font-family:Arial;text-anchor:middle"/><text x="1310.91" y="151.36" line-height="125%" style="letter-spacing:0;word-spacing:0;font-size:129.23;font-family:Gentium Book Basic"><tspan x="1310.91" y="151.36"/></text><text x="523.76" y="258.22" transform="scale(4.0128.2492)" style="font-size:46.954;font-family:Arial;text-anchor:middle"/><text x="239.33" y="-29.901" line-height="125%" style="letter-spacing:0;word-spacing:0;font-size:129.23;font-family:Gentium Book Basic"><tspan x="239.33" y="-29.901"/></text><text x="256.72" y="-469.14" transform="scale(4.0128.2492)" style="font-size:46.954;font-family:Arial;text-anchor:middle"/><text x="1337.38" y="-246.37" line-height="125%" style="letter-spacing:0;word-spacing:0;font-size:129.23;font-family:Gentium Book Basic"><tspan x="1337.38" y="-246.37"/></text><text x="530.36" y="-1337.81" transform="scale(4.0128.2492)" style="font-size:46.954;font-family:Arial;text-anchor:middle"/><text x="1918.65" y="-326.38" line-height="125%" style="letter-spacing:0;word-spacing:0;font-size:129.23;font-family:Gentium Book Basic"><tspan x="1918.65" y="-326.38"/></text><text x="675.21" y="-1658.85" transform="scale(4.0128.2492)" style="font-size:46.954;font-family:Arial;text-anchor:middle"/><text x="1529.53" y="-798.78" line-height="125%" style="letter-spacing:0;word-spacing:0;font-size:129.23;font-family:Gentium Book Basic"><tspan x="1529.53" y="-798.78"/></text><text x="578.24" y="-3554.51" transform="scale(4.0128.2492)" style="font-size:46.954;font-family:Arial;text-anchor:middle"/><text x="2110.79" y="-878.78" line-height="125%" style="letter-spacing:0;word-spacing:0;font-size:129.23;font-family:Gentium Book Basic"><tspan x="2110.79" y="-878.78"/></text><text x="723.09" y="-3875.54" transform="scale(4.0128.2492)" style="font-size:46.954;font-family:Arial;text-anchor:middle"/><text x="277.99" y="535.94" line-height="125%" style="letter-spacing:0;word-spacing:0;font-size:208.33;font-family:Gentium Book Basic"><tspan x="277.99" y="535.94"/></text><path d="m215.94 106c-3.55-.001-11.879.196-21.813 2-23.478 4.247-55.941 19.746-65.12 52.03-14.205 49.93 22.375 69.75 22.375 69.75 0 0 12.804 7.523 18.09 9 15.9 4.438 32.813 2.375 32.813 2.375 0 0-6.74 22.35 6.781 38.13 3.228 3.766.875 3.875.875 3.875 0 0-59.08-1.511-87.06 28.19-27.978 29.7-12.813 57.03-12.813 57.03 0 0 14.666 35.756 77.938 37.563 63.55 1.813 102.85-35.838 106.28-64.25 1.727-14.281-.219-27.643-7.375-39.34-6.958-11.38-18.921-21.17-30.594-30.719-7.253-5.934-12.311-8.994-15.563-12.406-3.071-3.223-3.578-7.385-3.469-10.5.16-4.35 2.433-9.664 10.06-18.5 13.917-16.12 17.467-14.12 25.875-26.19 2.519-3.617 4.35-8.889 6.938-16.75 1.56-4.736 1.313-9.654 1.313-14.219 0-9.869-2.369-19.26-6.313-27.19-7.327-14.732-19.915-24.309-20.16-25.03h22.06l24.969-14.625-84.25-.219c0 0-.659 0-1.844 0m-18.09 13.688c12.85.096 32.15 6.765 43.719 41.469 19.851 59.55-21.719 68.63-21.719 68.63 0 0-47.649 7.337-56.41-45.625-8.92-53.951 12.812-56.861 21.313-62.19 0 0 5.384-2.333 13.09-2.281m150.16 63v56.844h-56.53v33.719h56.53v56.06h33.719v-56.06h56.38v-33.719h-56.37v-56.844h-33.719m-123.84 112.47c0 0 37.933 23.24 41.5 40.28 3.996 19.09 4.239 32.991-24.719 48.22-8.549 4.496-23.551 5.02-33 5.063-23.22.096-40.738-8.832-49.41-13.313-4.505-2.33-29.525-30.429-11-55.56 4.66-6.322 9.796-9.123 14.594-12.344 10.21-6.855 20.23-10.07 39.13-11.719 6.285-.549 14.683-.07 22.906-.625" style="fill:#fff"/></svg>