<svg xmlns="http://www.w3.org/2000/svg" viewBox="0 0 512 512"><text x="729.64" y="231.36" line-height="125%" style="letter-spacing:0;word-spacing:0;font-size:129.23;font-family:Gentium Book Basic"><tspan x="729.64" y="231.36"/></text><text x="378.91" y="579.26" transform="scale(4.0128.2492)" style="font-size:46.954;font-family:Arial;text-anchor:middle"/><text x="1310.91" y="151.36" line-height="125%" style="letter-spacing:0;word-spacing:0;font-size:129.23;font-family:Gentium Book Basic"><tspan x="1310.91" y="151.36"/></text><text x="523.76" y="258.22" transform="scale(4.0128.2492)" style="font-size:46.954;font-family:Arial;text-anchor:middle"/><text x="239.33" y="-29.9" line-height="125%" style="letter-spacing:0;word-spacing:0;font-size:129.23;font-family:Gentium Book Basic"><tspan x="239.33" y="-29.9"/></text><text x="256.72" y="-469.13" transform="scale(4.0128.2492)" style="font-size:46.954;font-family:Arial;text-anchor:middle"/><text x="1337.38" y="-246.37" line-height="125%" style="letter-spacing:0;word-spacing:0;font-size:129.23;font-family:Gentium Book Basic"><tspan x="1337.38" y="-246.37"/></text><text x="530.36" y="-1337.8" transform="scale(4.0128.2492)" style="font-size:46.954;font-family:Arial;text-anchor:middle"/><text x="1918.65" y="-326.37" line-height="125%" style="letter-spacing:0;word-spacing:0;font-size:129.23;font-family:Gentium Book Basic"><tspan x="1918.65" y="-326.37"/></text><text x="675.21" y="-1658.83" transform="scale(4.0128.2492)" style="font-size:46.954;font-family:Arial;text-anchor:middle"/><text x="1529.53" y="-798.77" line-height="125%" style="letter-spacing:0;word-spacing:0;font-size:129.23;font-family:Gentium Book Basic"><tspan x="1529.53" y="-798.77"/></text><text x="578.24" y="-3554.48" transform="scale(4.0128.2492)" style="font-size:46.954;font-family:Arial;text-anchor:middle"/><text x="2110.79" y="-878.78" line-height="125%" style="letter-spacing:0;word-spacing:0;font-size:129.23;font-family:Gentium Book Basic"><tspan x="2110.79" y="-878.78"/></text><text x="723.09" y="-3875.52" transform="scale(4.0128.2492)" style="font-size:46.954;font-family:Arial;text-anchor:middle"/><text x="277.99" y="535.94" line-height="125%" style="letter-spacing:0;word-spacing:0;font-size:208.33;font-family:Gentium Book Basic"><tspan x="277.99" y="535.94"/></text><g style="fill-rule:evenodd"><path d="m471.95 253.05c0 120.9-98.01 218.91-218.91 218.91-120.9 0-218.91-98.01-218.91-218.91 0-120.9 98.01-218.91 218.91-218.91 120.9 0 218.91 98.01 218.91 218.91" style="fill:#3981f0"/><path d="m256 1c-140.83 0-255 114.17-255 255 0 140.83 114.17 255 255 255 140.83 0 255-114.17 255-255 0-140.83-114.17-255-255-255m8.827 44.931c120.9 0 218.9 98 218.9 218.9 0 120.9-98 218.9-218.9 218.9-120.9 0-218.93-98-218.93-218.9 0-120.9 98.03-218.9 218.93-218.9" style="fill-opacity:.067"/><g style="fill-opacity:.129"><path d="m256 4.43c-138.94 0-251.57 112.63-251.57 251.57 0 138.94 112.63 251.57 251.57 251.57 138.94 0 251.57-112.63 251.57-251.57 0-138.94-112.63-251.57-251.57-251.57m5.885 38.556c120.9 0 218.9 98 218.9 218.9 0 120.9-98 218.9-218.9 218.9-120.9 0-218.93-98-218.93-218.9 0-120.9 98.03-218.9 218.93-218.9"/><path d="m256 8.36c-136.77 0-247.64 110.87-247.64 247.64 0 136.77 110.87 247.64 247.64 247.64 136.77 0 247.64-110.87 247.64-247.64 0-136.77-110.87-247.64-247.64-247.64m2.942 31.691c120.9 0 218.9 98 218.9 218.9 0 120.9-98 218.9-218.9 218.9-120.9 0-218.93-98-218.93-218.9 0-120.9 98.03-218.9 218.93-218.9"/></g><path d="m253.04 7.86c-135.42 0-245.19 109.78-245.19 245.19 0 135.42 109.78 245.19 245.19 245.19 135.42 0 245.19-109.78 245.19-245.19 0-135.42-109.78-245.19-245.19-245.19m0 26.297c120.9 0 218.9 98 218.9 218.9 0 120.9-98 218.9-218.9 218.9-120.9 0-218.93-98-218.93-218.9 0-120.9 98.03-218.9 218.93-218.9z" style="stroke-opacity:.31;fill:#fff;stroke:#000;stroke-width:4.904"/></g><text x="729.64" y="231.36" line-height="125%" style="letter-spacing:0;word-spacing:0;font-size:129.23;font-family:&apos;Gentium Book Basic&apos;"><tspan x="729.64" y="231.36"/></text><text x="378.91" y="579.26" transform="scale(4.0128.2492)" style="font-size:46.954;font-family:Arial;text-anchor:middle"/><text x="1310.91" y="151.36" line-height="125%" style="letter-spacing:0;word-spacing:0;font-size:129.23;font-family:&apos;Gentium Book Basic&apos;"><tspan x="1310.91" y="151.36"/></text><text x="523.76" y="258.22" transform="scale(4.0128.2492)" style="font-size:46.954;font-family:Arial;text-anchor:middle"/><text x="239.33" y="-29.9" line-height="125%" style="letter-spacing:0;word-spacing:0;font-size:129.23;font-family:&apos;Gentium Book Basic&apos;"><tspan x="239.33" y="-29.9"/></text><text x="256.72" y="-469.13" transform="scale(4.0128.2492)" style="font-size:46.954;font-family:Arial;text-anchor:middle"/><text x="1337.38" y="-246.37" line-height="125%" style="letter-spacing:0;word-spacing:0;font-size:129.23;font-family:&apos;Gentium Book Basic&apos;"><tspan x="1337.38" y="-246.37"/></text><text x="530.36" y="-1337.8" transform="scale(4.0128.2492)" style="font-size:46.954;font-family:Arial;text-anchor:middle"/><text x="1918.65" y="-326.37" line-height="125%" style="letter-spacing:0;word-spacing:0;font-size:129.23;font-family:&apos;Gentium Book Basic&apos;"><tspan x="1918.65" y="-326.37"/></text><text x="675.21" y="-1658.83" transform="scale(4.0128.2492)" style="font-size:46.954;font-family:Arial;text-anchor:middle"/><text x="1529.53" y="-798.77" line-height="125%" style="letter-spacing:0;word-spacing:0;font-size:129.23;font-family:&apos;Gentium Book Basic&apos;"><tspan x="1529.53" y="-798.77"/></text><text x="578.24" y="-3554.48" transform="scale(4.0128.2492)" style="font-size:46.954;font-family:Arial;text-anchor:middle"/><text x="2110.79" y="-878.78" line-height="125%" style="letter-spacing:0;word-spacing:0;font-size:129.23;font-family:&apos;Gentium Book Basic&apos;"><tspan x="2110.79" y="-878.78"/></text><text x="723.09" y="-3875.52" transform="scale(4.0128.2492)" style="font-size:46.954;font-family:Arial;text-anchor:middle"/><text x="277.99" y="535.94" line-height="125%" style="letter-spacing:0;word-spacing:0;font-size:208.33;font-family:&apos;Gentium Book Basic&apos;"><tspan x="277.99" y="535.94"/></text><path d="m121.16 143.32v27.564l38.38 38.38h-38.38v27.564l38.38 38.38h-38.38v27.564l38.38 38.38h-38.38v27.535l101.12 101.12c10.05 1.414 20.322 2.162 30.766 2.162 120.9 0 218.91-98.01 218.91-218.91 0-10.455-.749-20.733-2.166-30.797l-78.936-78.936h-269.69" style="opacity:.25"/><path d="m121.16 143.32v27.564h269.69v-27.564h-269.69m0 65.941v27.564h269.69v-27.564h-269.69m0 65.941v27.564h269.69v-27.564h-269.69m0 65.941v27.535h183.25v-27.535h-183.25" style="fill:#fff"/></svg>