<svg xmlns="http://www.w3.org/2000/svg" id="svg2" version="1.1" viewBox="0 0 512 512"><metadata id="metadata4064"/><path id="path3622" fill="#5e9e2b" fill-rule="evenodd" d="m471.95 253.05c0 120.9-98.01 218.9-218.9 218.9-120.9 0-218.9-98.01-218.9-218.9 0-120.9 98.01-218.9 218.9-218.9 120.9 0 218.9 98.01 218.9 218.9"/><path id="path3624" fill="#282629" d="m253.06 34.16c-18.11 0-35.704 2.199-52.53 6.344l58.875 213.66 0.531 1.844 0.438-1.844 52.41-211.75c-18.989-5.375-39.01-8.25-59.719-8.25m6.875 221.84l-0.531 1.844-0.031 0.125-0.125 0.219-0.906 1.688 0.594-0.375-0.156 0.563-0.656 0.188 0.219-0.375-1.188 0.625-1.156 0.344 0.375 0.094-0.594 0.344-0.469-0.281 0.688-0.156-1.844-0.531-0.125-0.031-0.219-0.125-1.688-0.938 0.406 0.656-212.25-58.47c-4.01 16.563-6.125 33.862-6.125 51.656 0 21.02 2.971 41.32 8.5 60.56l210.84-52.19 0.5 0.844-186.97 106.19c19.685 31.659 47.23 57.916 79.906 76.06l108.5-179.91 1.438 2.375-54.813 198.97c16.364 3.905 33.44 5.969 51 5.969 20.21 0 39.761-2.746 58.34-7.875l-44.75-180.84 96.09 159.28c31.889-18.505 58.657-44.824 77.72-76.34l-178.34-101.31-0.688-2.656 202.41 50.09c5.285-18.842 8.094-38.688 8.094-59.22 0-17.245-1.979-34.03-5.75-50.12l-205.41 56.59-0.25-1.031 184.25-111.12c-18.245-33.03-44.765-60.863-76.78-80.66l-107.91 189.97-0.156-0.688m-7.813 3.219l-0.906-1.656-109.59-192.94c-32.789 19.43-60.07 47.16-78.938 80.31l187.84 113.31 1.594 0.969zm5.375 1.969l0.344 0.094 0.563 0.156-0.313 1.125-1.063-0.594 0.313-0.5 0.156-0.281" opacity=".2"/><g id="g3626" fill-rule="evenodd"><path id="path3628" fill-opacity=".067" d="m256 1c-140.83 0-255 114.17-255 255s114.17 255 255 255 255-114.17 255-255-114.17-255-255-255m8.827 44.931c120.9 0 218.9 98 218.9 218.9s-98 218.9-218.9 218.9-218.93-98-218.93-218.9 98.03-218.9 218.93-218.9"/><g id="g3630" fill-opacity=".129"><path id="path3632" d="m256 4.433c-138.94 0-251.57 112.63-251.57 251.57s112.63 251.57 251.57 251.57 251.57-112.63 251.57-251.57-112.63-251.57-251.57-251.57m5.885 38.556c120.9 0 218.9 98 218.9 218.9s-98 218.9-218.9 218.9-218.93-98-218.93-218.9 98.03-218.9 218.93-218.9"/><path id="path3634" d="m256 8.356c-136.77 0-247.64 110.87-247.64 247.64s110.87 247.64 247.64 247.64 247.64-110.87 247.64-247.64-110.87-247.64-247.64-247.64m2.942 31.691c120.9 0 218.9 98 218.9 218.9s-98 218.9-218.9 218.9-218.93-98-218.93-218.9 98.03-218.9 218.93-218.9"/></g><path id="path3636" fill="#fff" stroke="#000" stroke-opacity=".31" stroke-width="4.904" d="m253.04 7.859c-135.42 0-245.19 109.78-245.19 245.19 0 135.42 109.78 245.19 245.19 245.19 135.42 0 245.19-109.78 245.19-245.19 0-135.42-109.78-245.19-245.19-245.19zm0 26.297c120.9 0 218.9 98 218.9 218.9s-98 218.9-218.9 218.9-218.93-98-218.93-218.9 98.03-218.9 218.93-218.9z"/></g><path id="path4056" d="m257.03 103.92c-41.64 0-77.5 14.537-106.6 43.21-29.06 28.662-44.43 65.23-44.43 105.77 0 42.893 13.985 79.46 41.563 108.67 1.084 1.146 2.179 2.271 3.283 3.375l106.95 106.95c117.16-2.492 211.67-97.03 214.1-214.22l-111.03-111.03c-27.2-27.2-63.6-42.721-103.84-42.721" opacity=".25"/><path id="path4058" fill="#fff" d="m256.2 408.08c-42.901 0-79.46-15.647-108.64-46.509-27.578-29.22-41.563-65.779-41.563-108.67 0-40.532 15.37-77.1 44.43-105.76 29.09-28.67 64.956-43.21 106.6-43.21 63.05 0 116.66 38.1 140.26 99.54h-80.61c-18.14-19.393-37.578-28.562-60.47-28.562-43 0-77.994 35.17-77.994 78.39 0 45.42 35.716 83.8 77.994 83.8 28.21 0 52.671-14.67 67.11-40.24l0.808-1.438h-84.76v-56.894h165.87c0.4 6.439 0.769 12.716 0.769 18.508 0 32.885-8.208 60.894-25.09 85.61-28.15 40.97-74.76 65.43-124.7 65.43"/></svg>