<svg xmlns="http://www.w3.org/2000/svg" xmlns:svg="http://www.w3.org/2000/svg" xmlns:xlink="http://www.w3.org/1999/xlink" id="svg2" width="100%" height="100%" version="1.1" viewBox="0 0 512 512"><metadata id="metadata10"/><defs id="defs8"><linearGradient id="ButtonShadow-5" x1="45.448" x2="45.448" y1="92.54" y2="7.016" gradientTransform="scale(1.0059 .99417)" gradientUnits="userSpaceOnUse"><stop id="stop3750-0" offset="0"/><stop id="stop3752-8" offset="1" stop-opacity=".588"/></linearGradient><filter id="filter3174-8" color-interpolation-filters="sRGB"><feGaussianBlur id="feGaussianBlur3176-5" stdDeviation="1.71"/></filter><linearGradient id="linearGradient3737"><stop id="stop3739" offset="0" stop-color="#fff"/><stop id="stop3741" offset="1" stop-color="#fff" stop-opacity="0"/></linearGradient><filter id="filter3174" color-interpolation-filters="sRGB"><feGaussianBlur id="feGaussianBlur3176" stdDeviation="1.71"/></filter><filter id="filter3794" width="1.384" height="1.384" x="-.192" y="-.192" color-interpolation-filters="sRGB"><feGaussianBlur id="feGaussianBlur3796" stdDeviation="5.28"/></filter><linearGradient id="linearGradient3613" x1="48" x2="48" y1="20.221" y2="138.66" gradientUnits="userSpaceOnUse" xlink:href="#linearGradient3737"/><clipPath id="clipPath3613"><rect id="rect3615" width="84" height="84" x="6" y="6" fill="#fff" rx="6" ry="6"/></clipPath><filter id="filter3174-3" color-interpolation-filters="sRGB"><feGaussianBlur id="feGaussianBlur3176-2" stdDeviation="1.71"/></filter><filter id="filter3794-0" width="1.384" height="1.384" x="-.192" y="-.192" color-interpolation-filters="sRGB"><feGaussianBlur id="feGaussianBlur3796-3" stdDeviation="5.28"/></filter><clipPath id="clipPath3613-1"><rect id="rect3615-9" width="84" height="84" x="6" y="6" fill="#fff" rx="6" ry="6"/></clipPath><filter id="filter3174-8-3" color-interpolation-filters="sRGB"><feGaussianBlur id="feGaussianBlur3176-5-8" stdDeviation="1.71"/></filter><filter id="filter3174-0" color-interpolation-filters="sRGB"><feGaussianBlur id="feGaussianBlur3176-6" stdDeviation="1.71"/></filter><filter id="filter3794-9" width="1.384" height="1.384" x="-.192" y="-.192" color-interpolation-filters="sRGB"><feGaussianBlur id="feGaussianBlur3796-2" stdDeviation="5.28"/></filter><clipPath id="clipPath3613-2"><rect id="rect3615-3" width="84" height="84" x="6" y="6" fill="#fff" rx="6" ry="6"/></clipPath><filter id="filter3174-35" color-interpolation-filters="sRGB"><feGaussianBlur id="feGaussianBlur3176-3" stdDeviation="1.71"/></filter><filter id="filter3794-91" width="1.384" height="1.384" x="-.192" y="-.192" color-interpolation-filters="sRGB"><feGaussianBlur id="feGaussianBlur3796-7" stdDeviation="5.28"/></filter><clipPath id="clipPath3613-8"><rect id="rect3615-8" width="84" height="84" x="6" y="6" fill="#fff" rx="6" ry="6"/></clipPath><filter id="filter3174-4" color-interpolation-filters="sRGB"><feGaussianBlur id="feGaussianBlur3176-37" stdDeviation="1.71"/></filter><filter id="filter3794-4" width="1.384" height="1.384" x="-.192" y="-.192" color-interpolation-filters="sRGB"><feGaussianBlur id="feGaussianBlur3796-9" stdDeviation="5.28"/></filter><clipPath id="clipPath3613-9"><rect id="rect3615-1" width="84" height="84" x="6" y="6" fill="#fff" rx="6" ry="6"/></clipPath><style id="style5970" type="text/css"/><style id="style5970-0" type="text/css"/><style id="style5970-7" type="text/css"/><linearGradient id="linearGradient9267" x1="45.448" x2="45.448" y1="92.54" y2="7.016" gradientTransform="scale(1.0059 .99417)" gradientUnits="userSpaceOnUse" xlink:href="#ButtonShadow-5"/><filter id="filter3174-8-2" color-interpolation-filters="sRGB"><feGaussianBlur id="feGaussianBlur3176-5-7" stdDeviation="1.71"/></filter><filter id="filter3174-5" color-interpolation-filters="sRGB"><feGaussianBlur id="feGaussianBlur3176-0" stdDeviation="1.71"/></filter><filter id="filter3794-6" width="1.384" height="1.384" x="-.192" y="-.192" color-interpolation-filters="sRGB"><feGaussianBlur id="feGaussianBlur3796-8" stdDeviation="5.28"/></filter><clipPath id="clipPath3613-7"><rect id="rect3615-95" width="84" height="84" x="6" y="6" fill="#fff" rx="6" ry="6"/></clipPath><filter id="filter3174-3-7" color-interpolation-filters="sRGB"><feGaussianBlur id="feGaussianBlur3176-2-3" stdDeviation="1.71"/></filter><filter id="filter3794-0-5" width="1.384" height="1.384" x="-.192" y="-.192" color-interpolation-filters="sRGB"><feGaussianBlur id="feGaussianBlur3796-3-2" stdDeviation="5.28"/></filter><clipPath id="clipPath3613-1-4"><rect id="rect3615-9-9" width="84" height="84" x="6" y="6" fill="#fff" rx="6" ry="6"/></clipPath><filter id="filter3174-8-3-0" color-interpolation-filters="sRGB"><feGaussianBlur id="feGaussianBlur3176-5-8-2" stdDeviation="1.71"/></filter><filter id="filter3174-0-2" color-interpolation-filters="sRGB"><feGaussianBlur id="feGaussianBlur3176-6-7" stdDeviation="1.71"/></filter><filter id="filter3794-9-3" width="1.384" height="1.384" x="-.192" y="-.192" color-interpolation-filters="sRGB"><feGaussianBlur id="feGaussianBlur3796-2-6" stdDeviation="5.28"/></filter><clipPath id="clipPath3613-2-8"><rect id="rect3615-3-4" width="84" height="84" x="6" y="6" fill="#fff" rx="6" ry="6"/></clipPath><filter id="filter3174-35-4" color-interpolation-filters="sRGB"><feGaussianBlur id="feGaussianBlur3176-3-8" stdDeviation="1.71"/></filter><filter id="filter3794-91-9" width="1.384" height="1.384" x="-.192" y="-.192" color-interpolation-filters="sRGB"><feGaussianBlur id="feGaussianBlur3796-7-5" stdDeviation="5.28"/></filter><clipPath id="clipPath3613-8-6"><rect id="rect3615-8-4" width="84" height="84" x="6" y="6" fill="#fff" rx="6" ry="6"/></clipPath><filter id="filter3174-4-4" color-interpolation-filters="sRGB"><feGaussianBlur id="feGaussianBlur3176-37-4" stdDeviation="1.71"/></filter><filter id="filter3794-4-8" width="1.384" height="1.384" x="-.192" y="-.192" color-interpolation-filters="sRGB"><feGaussianBlur id="feGaussianBlur3796-9-9" stdDeviation="5.28"/></filter><clipPath id="clipPath3613-9-6"><rect id="rect3615-1-6" width="84" height="84" x="6" y="6" fill="#fff" rx="6" ry="6"/></clipPath><style id="style5970-06" type="text/css"/><style id="style5970-0-5" type="text/css"/><style id="style5970-7-9" type="text/css"/></defs><g id="layer2" display="none" transform="matrix(13.4 0 0 13.4 -1705.8 -834.03)"><rect id="rect3745" width="86" height="85" x="5" y="7" fill="url(#linearGradient9267)" filter="url(#filter3174)" opacity=".9" rx="6" ry="6"/></g><g id="layer5" display="none" transform="matrix(13.4 0 0 13.4 -1705.8 -834.03)"><rect id="rect3171" width="66" height="66" x="15" y="15" fill="url(#linearGradient3613)" stroke="#fff" stroke-linecap="round" stroke-width=".5" clip-path="url(#clipPath3613)" filter="url(#filter3794)" opacity=".1" rx="12" ry="12"/></g><g id="layer2-5" display="none" transform="translate(-118.36 -21.072)"><rect id="rect3745-0" width="86" height="85" x="5" y="7" fill="url(#linearGradient9267)" filter="url(#filter3174-8)" opacity=".9" rx="6" ry="6"/></g><g id="layer2-8" display="none" transform="matrix(13.4 0 0 13.4 -1708.9 -839.43)"><rect id="rect3745-3" width="86" height="85" x="5" y="7" fill="url(#linearGradient9267)" filter="url(#filter3174-3)" opacity=".9" rx="6" ry="6"/></g><g id="layer5-5" display="none" transform="matrix(13.4 0 0 13.4 -1708.9 -839.43)"><rect id="rect3171-2" width="66" height="66" x="15" y="15" fill="url(#linearGradient3613)" stroke="#fff" stroke-linecap="round" stroke-width=".5" clip-path="url(#clipPath3613-1)" filter="url(#filter3794-0)" opacity=".1" rx="12" ry="12"/></g><g id="layer2-3" display="none" transform="matrix(13.4 0 0 13.4 -1693.5 -882.16)"><rect id="rect3745-6" width="86" height="85" x="5" y="7" fill="url(#linearGradient9267)" filter="url(#filter3174-0)" opacity=".9" rx="6" ry="6"/></g><g id="layer5-3" display="none" transform="matrix(13.4 0 0 13.4 -1693.5 -882.16)"><rect id="rect3171-7" width="66" height="66" x="15" y="15" fill="url(#linearGradient3613)" stroke="#fff" stroke-linecap="round" stroke-width=".5" clip-path="url(#clipPath3613-2)" filter="url(#filter3794-9)" opacity=".1" rx="12" ry="12"/></g><g id="layer2-5-4" display="none" transform="translate(-106.08 -69.206)"><rect id="rect3745-0-9" width="86" height="85" x="5" y="7" fill="url(#linearGradient9267)" filter="url(#filter3174-8-3)" opacity=".9" rx="6" ry="6"/></g><g id="layer2-33" display="none" transform="matrix(13.4 0 0 13.4 -1500.2 -968.07)"><rect id="rect3745-1" width="86" height="85" x="5" y="7" fill="url(#linearGradient9267)" filter="url(#filter3174-35)" opacity=".9" rx="6" ry="6"/></g><g id="layer5-6" display="none" transform="matrix(13.4 0 0 13.4 -1500.2 -968.07)"><rect id="rect3171-4" width="66" height="66" x="15" y="15" fill="url(#linearGradient3613)" stroke="#fff" stroke-linecap="round" stroke-width=".5" clip-path="url(#clipPath3613-8)" filter="url(#filter3794-91)" opacity=".1" rx="12" ry="12"/></g><g id="layer2-58" display="none" transform="matrix(13.4 0 0 13.4 -1659.8 -887.77)"><rect id="rect3745-7" width="86" height="85" x="5" y="7" fill="url(#linearGradient9267)" filter="url(#filter3174-4)" opacity=".9" rx="6" ry="6"/></g><g id="layer5-0" display="none" transform="matrix(13.4 0 0 13.4 -1659.8 -887.77)"><rect id="rect3171-9" width="66" height="66" x="15" y="15" fill="url(#linearGradient3613)" stroke="#fff" stroke-linecap="round" stroke-width=".5" clip-path="url(#clipPath3613-9)" filter="url(#filter3794-4)" opacity=".1" rx="12" ry="12"/></g><g id="layer2-85" display="none" transform="matrix(13.4 0 0 13.4 -1705.8 -834.03)"><rect id="rect3745-9" width="86" height="85" x="5" y="7" fill="url(#linearGradient9267)" filter="url(#filter3174-5)" opacity=".9" rx="6" ry="6"/></g><g id="layer5-07" display="none" transform="matrix(13.4 0 0 13.4 -1705.8 -834.03)"><rect id="rect3171-95" width="66" height="66" x="15" y="15" fill="url(#linearGradient3613)" stroke="#fff" stroke-linecap="round" stroke-width=".5" clip-path="url(#clipPath3613-7)" filter="url(#filter3794-6)" opacity=".1" rx="12" ry="12"/></g><g id="layer2-5-9" display="none" transform="translate(-118.36 -21.072)"><rect id="rect3745-0-2" width="86" height="85" x="5" y="7" fill="url(#linearGradient9267)" filter="url(#filter3174-8-2)" opacity=".9" rx="6" ry="6"/></g><g id="layer2-8-5" display="none" transform="matrix(13.4 0 0 13.4 -1708.9 -839.43)"><rect id="rect3745-3-5" width="86" height="85" x="5" y="7" fill="url(#linearGradient9267)" filter="url(#filter3174-3-7)" opacity=".9" rx="6" ry="6"/></g><g id="layer5-5-9" display="none" transform="matrix(13.4 0 0 13.4 -1708.9 -839.43)"><rect id="rect3171-2-9" width="66" height="66" x="15" y="15" fill="url(#linearGradient3613)" stroke="#fff" stroke-linecap="round" stroke-width=".5" clip-path="url(#clipPath3613-1-4)" filter="url(#filter3794-0-5)" opacity=".1" rx="12" ry="12"/></g><g id="layer2-3-9" display="none" transform="matrix(13.4 0 0 13.4 -1693.5 -882.16)"><rect id="rect3745-6-4" width="86" height="85" x="5" y="7" fill="url(#linearGradient9267)" filter="url(#filter3174-0-2)" opacity=".9" rx="6" ry="6"/></g><g id="layer5-3-6" display="none" transform="matrix(13.4 0 0 13.4 -1693.5 -882.16)"><rect id="rect3171-7-9" width="66" height="66" x="15" y="15" fill="url(#linearGradient3613)" stroke="#fff" stroke-linecap="round" stroke-width=".5" clip-path="url(#clipPath3613-2-8)" filter="url(#filter3794-9-3)" opacity=".1" rx="12" ry="12"/></g><g id="layer2-5-4-8" display="none" transform="translate(-106.08 -69.206)"><rect id="rect3745-0-9-3" width="86" height="85" x="5" y="7" fill="url(#linearGradient9267)" filter="url(#filter3174-8-3-0)" opacity=".9" rx="6" ry="6"/></g><g id="layer2-33-9" display="none" transform="matrix(13.4 0 0 13.4 -1500.2 -968.07)"><rect id="rect3745-1-8" width="86" height="85" x="5" y="7" fill="url(#linearGradient9267)" filter="url(#filter3174-35-4)" opacity=".9" rx="6" ry="6"/></g><g id="layer5-6-7" display="none" transform="matrix(13.4 0 0 13.4 -1500.2 -968.07)"><rect id="rect3171-4-3" width="66" height="66" x="15" y="15" fill="url(#linearGradient3613)" stroke="#fff" stroke-linecap="round" stroke-width=".5" clip-path="url(#clipPath3613-8-6)" filter="url(#filter3794-91-9)" opacity=".1" rx="12" ry="12"/></g><g id="layer2-58-0" display="none" transform="matrix(13.4 0 0 13.4 -1659.8 -887.77)"><rect id="rect3745-7-7" width="86" height="85" x="5" y="7" fill="url(#linearGradient9267)" filter="url(#filter3174-4-4)" opacity=".9" rx="6" ry="6"/></g><g id="layer5-0-0" display="none" transform="matrix(13.4 0 0 13.4 -1659.8 -887.77)"><rect id="rect3171-9-0" width="66" height="66" x="15" y="15" fill="url(#linearGradient3613)" stroke="#fff" stroke-linecap="round" stroke-width=".5" clip-path="url(#clipPath3613-9-6)" filter="url(#filter3794-4-8)" opacity=".1" rx="12" ry="12"/></g><path style="fill:#0096bb;fill-opacity:1;fill-rule:evenodd" id="path3472" d="m 471.9456,253.05189 c 0,120.89699 -98.00565,218.90724 -218.90724,218.90724 -120.89698,0 -218.90723,-98.00566 -218.90723,-218.90724 0,-120.89698 98.00565,-218.90723 218.90723,-218.90723 120.89699,0 218.90724,98.00565 218.90724,218.90723"/><path style="fill-opacity:.06700003;fill-rule:evenodd" id="path3474" d="M 256,1 C 115.17,1 1,115.17 1,256 1,396.83 115.17,511 256,511 396.83,511 511,396.83 511,256 511,115.17 396.83,1 256,1 m 8.827,44.931 c 120.9,0 218.9,98 218.9,218.9 0,120.9 -98,218.9 -218.9,218.9 -120.9,0 -218.93,-98 -218.93,-218.9 0,-120.9 98.03,-218.9 218.93,-218.9"/><path id="path3478" d="M 256,4.43 C 117.06,4.43 4.43,117.06 4.43,256 4.43,394.94 117.06,507.57 256,507.57 394.94,507.57 507.57,394.94 507.57,256 507.57,117.06 394.94,4.43 256,4.43 m 5.885,38.556 c 120.9,0 218.9,98 218.9,218.9 0,120.9 -98,218.9 -218.9,218.9 -120.9,0 -218.93,-98 -218.93,-218.9 0,-120.9 98.03,-218.9 218.93,-218.9" style="fill-opacity:.12900002;fill-rule:evenodd"/><path id="path3480" d="M 256,8.36 C 119.23,8.36 8.36,119.23 8.36,256 8.36,392.77 119.23,503.64 256,503.64 392.77,503.64 503.64,392.77 503.64,256 503.64,119.23 392.77,8.36 256,8.36 m 2.942,31.691 c 120.9,0 218.9,98 218.9,218.9 0,120.9 -98,218.9 -218.9,218.9 -120.9,0 -218.93,-98 -218.93,-218.9 0,-120.9 98.03,-218.9 218.93,-218.9" style="fill-opacity:.12900002;fill-rule:evenodd"/><path style="fill:#fff;fill-rule:evenodd;stroke:#000;stroke-width:4.90399981;stroke-opacity:.31000001" id="path3482" d="M 253.04,7.86 C 117.62,7.86 7.85,117.64 7.85,253.05 c 0,135.42 109.78,245.19 245.19,245.19 135.42,0 245.19,-109.78 245.19,-245.19 C 498.23,117.63 388.45,7.86 253.04,7.86 Z m 0,26.297 c 120.9,0 218.9,98 218.9,218.9 0,120.9 -98,218.9 -218.9,218.9 -120.9,0 -218.93,-98 -218.93,-218.9 0,-120.9 98.03,-218.9 218.93,-218.9 z"/><path style="opacity:.25;fill:#000;fill-rule:evenodd" id="path3776" d="m 198.94141,95.54688 c -5.43908,0 -9.83399,4.39565 -9.83399,9.83398 l 0,42.98047 c 0,2.70599 1.08839,5.13917 2.85156,6.90234 l 17.01563,17.01563 -10.95117,0 c -14.95484,0 -26.97852,12.08422 -26.97852,27.03906 l 0,10.27734 -16.06054,-16.06054 c -1.76491,-1.76491 -4.20931,-2.84961 -6.92969,-2.84961 l -42.98047,0 c -5.43908,0 -9.83399,4.33797 -9.83399,9.77929 0,2.71945 1.09828,5.17836 2.87696,6.95704 l 37.85742,37.85742 -30.91016,0 c -5.43907,0 -9.83398,4.39565 -9.83398,9.83398 0,2.70598 1.08839,5.13917 2.85156,6.90234 l 37.85547,37.85547 -30.87305,0 c -5.43907,0 -9.83398,4.39566 -9.83398,9.83399 0,2.71945 1.09827,5.17835 2.87695,6.95703 l 91.05078,91.05078 c 0.2401,2.28678 1.26103,4.32938 2.79492,5.86328 l 58.34766,58.34766 c 0.9128,0.0112 1.82283,0.0351 2.73828,0.0351 120.90159,0 218.90625,-98.00926 218.90625,-218.90625 0,-0.50541 -0.0161,-1.00711 -0.0195,-1.51171 l -58.00586,-58.00586 c -1.68352,-1.68353 -3.98872,-2.73739 -6.55859,-2.83204 L 315.05469,98.39649 c -1.76286,-1.76287 -4.19738,-2.84961 -6.9043,-2.84961 -5.43908,0 -9.83398,4.39565 -9.83398,9.83398 l 0,30.86719 -37.82422,-37.82422 c -1.7788,-1.7788 -4.23777,-2.87695 -6.95703,-2.87695 -5.43908,0 -9.78125,4.39565 -9.78125,9.83398 l 0,30.89844 -37.85547,-37.85547 c -1.7788,-1.7788 -4.23778,-2.87695 -6.95703,-2.87695 z"/><path style="fill:#fff;fill-rule:evenodd" id="path351" d="m 198.94223,95.54655 c -5.43908,0 -9.83431,4.39598 -9.83431,9.83431 l 0,42.98021 c 0,5.43908 4.39598,9.78047 9.83431,9.78047 5.43907,0 9.8343,-4.33915 9.8343,-9.78047 l 0,-42.98021 c 0,-5.43908 -4.39598,-9.83431 -9.8343,-9.83431 m 54.59265,0 c -5.43908,0 -9.78047,4.39598 -9.78047,9.83431 l 0,42.98021 c 0,5.43908 4.33915,9.78047 9.78047,9.78047 5.43908,0 9.83431,-4.33915 9.83431,-9.78047 l 0,-42.98021 c 0,-5.43908 -4.39598,-9.83431 -9.83431,-9.83431 m 54.61509,0 c -5.43908,0 -9.83431,4.39598 -9.83431,9.83431 l 0,42.98021 c 0,5.43908 4.39598,9.78047 9.83431,9.78047 5.43908,0 9.78047,-4.33915 9.78047,-9.78047 l 0,-42.98021 c 0,-5.43908 -4.33915,-9.83431 -9.78047,-9.83431 m -110.12747,76.7333 c -14.95484,0 -26.97853,12.08351 -26.97853,27.03835 l 0,111.65286 c 0,14.95485 12.03117,27.00845 26.97853,27.00845 l 111.04719,0 c 14.95485,0 26.97854,-12.0536 26.97854,-27.00845 l 0,-111.65286 c 0,-14.95484 -12.03117,-27.03835 -26.97854,-27.03835 l -111.04719,0 m 73.8874,16.14226 a 2.4491547,2.4491547 0 0 1 2.29377,1.54827 c 0.37238,0.93019 0.7612,1.69438 1.17545,2.52288 a 2.4491547,2.4491547 0 0 1 0.0573,0.14336 c 1.64055,3.89574 1.7729,3.91742 3.03958,6.45002 0.51444,0.78364 1.46856,2.3352 2.69561,4.78854 a 2.4491547,2.4491547 0 0 1 -0.7168,3.01056 c -6.89194,5.27159 -7.3675,5.74565 -13.04585,10.83853 a 2.4491547,2.4491547 0 0 1 -0.57344,0.51608 2.4491547,2.4491547 0 0 1 -0.086,0.0573 2.4491547,2.4491547 0 0 1 -0.14336,0.0574 2.4491547,2.4491547 0 0 1 -0.086,0.0574 2.4491547,2.4491547 0 0 1 -0.11469,0.0286 2.4491547,2.4491547 0 0 1 -0.25805,0.086 2.4491547,2.4491547 0 0 1 -0.71679,0.086 2.4491547,2.4491547 0 0 1 -0.086,0 2.4491547,2.4491547 0 0 1 -0.17202,-0.0286 2.4491547,2.4491547 0 0 1 -0.28672,-0.0574 2.4491547,2.4491547 0 0 1 -0.0286,0 2.4491547,2.4491547 0 0 1 -0.14336,-0.0573 2.4491547,2.4491547 0 0 1 -0.086,-0.0286 2.4491547,2.4491547 0 0 1 -0.43008,-0.2007 2.4491547,2.4491547 0 0 1 -0.11468,-0.086 2.4491547,2.4491547 0 0 1 -0.086,-0.086 2.4491547,2.4491547 0 0 1 -0.2007,-0.14336 2.4491547,2.4491547 0 0 1 -0.086,-0.086 2.4491547,2.4491547 0 0 1 -0.0573,-0.11469 2.4491547,2.4491547 0 0 1 -0.37273,-0.5161 2.4491547,2.4491547 0 0 1 -0.0286,-0.086 c -0.0314,-0.0456 -0.0269,-0.0695 -0.0576,-0.11441 -4.30325,-6.29973 -6.37375,-9.93525 -7.85653,-14.59368 a 2.4491547,2.4491547 0 0 1 1.20424,-2.95321 c 0.53613,-0.26769 1.2936,-0.81205 2.1221,-1.43417 a 2.4491547,2.4491547 0 0 1 0.11468,-0.0573 c 1.82823,-1.21957 3.21604,-2.25818 4.15745,-3.0134 2.1019,-1.68167 3.84713,-3.0134 4.38626,-3.55552 1.00571,-1.00571 2.18565,-1.70859 3.0964,-2.43689 a 2.4491547,2.4491547 0 0 1 1.26159,-0.51609 2.4491547,2.4491547 0 0 1 0.22937,-0.0286 m -166.8361,2.26557 c -5.43908,0 -9.83431,4.33915 -9.83431,9.78047 0,5.43908 4.39598,9.8343 9.83431,9.8343 l 42.98022,0 c 5.43908,0 9.78047,-4.39597 9.78047,-9.8343 0,-5.43908 -4.33915,-9.78047 -9.78047,-9.78047 l -42.98022,0 m 258.93564,0 c -5.43908,0 -9.83431,4.33915 -9.83431,9.78047 0,5.43908 4.39598,9.8343 9.83431,9.8343 l 42.98025,0 c 5.43908,0 9.78047,-4.39597 9.78047,-9.8343 0,-5.43908 -4.33915,-9.78047 -9.78047,-9.78047 l -42.98025,0 m -98.68701,40.16871 c 1.19115,0 2.39501,0.35667 3.35437,1.14704 0.95935,0.78961 1.6054,2.08171 1.6054,3.38353 0,0.92645 -0.20563,1.70934 -0.57352,3.44036 -0.36789,1.73103 -0.97132,4.30774 -1.89253,8.17133 -1.84394,7.72791 -4.98445,20.6646 -10.26501,42.4067 a 2.4491547,2.4491547 0 0 1 -0.0286,0.0573 c -1.20311,4.41019 -1.77813,8.34032 -1.77813,9.92104 0,1.42371 0.33424,2.43316 0.6311,2.89526 0.2961,0.46136 0.33648,0.45912 0.65951,0.45912 1.28387,0 1.21732,0.13384 3.98546,-1.17545 2.70832,-1.28163 7.83335,-4.02884 17.25789,-9.08881 a 2.4491547,2.4491547 0 0 1 0.22938,-0.17203 2.4491547,2.4491547 0 0 1 0.63078,-0.25805 2.4491547,2.4491547 0 0 1 0.11468,-0.0286 2.4491547,2.4491547 0 0 1 0.14336,-0.0286 2.4491547,2.4491547 0 0 1 0.48742,-0.0574 2.4491547,2.4491547 0 0 1 0.11469,0 2.4491547,2.4491547 0 0 1 0.11469,0 2.4491547,2.4491547 0 0 1 0.25804,0.086 2.4491547,2.4491547 0 0 1 0.22937,0.0573 2.4491547,2.4491547 0 0 1 0.0286,0 2.4491547,2.4491547 0 0 1 0.2007,0.086 2.4491547,2.4491547 0 0 1 0.34407,0.17203 2.4491547,2.4491547 0 0 1 1.06082,1.69162 2.4491547,2.4491547 0 0 1 0.0286,0.11469 2.4491547,2.4491547 0 0 1 0,0.14336 2.4491547,2.4491547 0 0 1 -0.0286,0.6021 2.4491547,2.4491547 0 0 1 -0.0286,0.2007 l -0.0284,0.086 -0.77466,5.36206 a 2.4491547,2.4491547 0 0 1 -1.14689,1.77768 c -1.93665,1.16274 -3.76862,2.36735 -5.67761,3.44036 -0.0703,0.0404 -0.12936,0.0755 -0.20114,0.11441 -3.91219,2.67019 -7.80344,5.15643 -11.66926,7.59781 -11.05612,7.09158 -16.62231,10.09227 -21.38992,10.09227 -2.38305,0 -4.48121,-1.47081 -5.6776,-3.44036 -1.19564,-1.96955 -1.77813,-4.42888 -1.77813,-7.25384 0,-2.58794 0.0531,-4.36831 1.28985,-9.63392 1.23602,-5.2641 3.68861,-14.31178 8.54445,-32.39966 0.004,-0.0135 -0.004,-0.015 0,-0.0284 3.09117,-11.74852 3.64151,-14.43217 3.64151,-16.74419 0,-0.82551 -0.15703,-1.11638 -0.20115,-1.23302 -0.63333,-0.003 -0.7268,-0.071 -2.49446,0.74624 -1.87908,0.86738 -5.19457,2.62607 -11.29839,5.93558 a 2.4491547,2.4491547 0 0 1 -3.61264,-2.32241 l 0.42995,-5.79201 a 2.4491547,2.4491547 0 0 1 1.06082,-1.86368 c 8.52726,-5.71948 15.87906,-10.29117 21.58956,-13.47431 2.85488,-1.59194 5.28654,-2.85638 7.31143,-3.72749 2.02862,-0.87187 3.51738,-1.46259 5.18933,-1.46259 m -160.24863,14.42245 c -5.43908,0 -9.8343,4.39598 -9.8343,9.83431 0,5.43907 4.39597,9.78046 9.8343,9.78046 l 42.98022,0 c 5.43908,0 9.78047,-4.33914 9.78047,-9.78047 0,-5.43908 -4.33915,-9.8343 -9.78047,-9.8343 l -42.98022,0 m 258.93564,0 c -5.43908,0 -9.83431,4.39598 -9.83431,9.8343 0,5.43908 4.39598,9.78047 9.83431,9.78047 l 42.98022,0 c 5.43907,0 9.78047,-4.33914 9.78047,-9.78047 0,-5.43908 -4.33915,-9.8343 -9.78047,-9.8343 l -42.98022,0 m -258.93564,54.59266 c -5.43908,0 -9.8343,4.39597 -9.8343,9.8343 0,5.43908 4.39597,9.83431 9.8343,9.83431 l 42.98022,0 c 5.43908,0 9.78047,-4.39599 9.78047,-9.83431 0,-5.43907 -4.33915,-9.8343 -9.78047,-9.8343 l -42.98022,0 m 258.93564,0 c -5.43908,0 -9.83431,4.39597 -9.83431,9.8343 0,5.43908 4.39598,9.83431 9.83431,9.83431 l 42.98022,0 c 5.43907,0 9.78047,-4.39599 9.78047,-9.83431 0,-5.43907 -4.33915,-9.8343 -9.78047,-9.8343 l -42.98022,0 m -165.06409,53.98698 c -5.43907,0 -9.8343,4.39598 -9.8343,9.83431 l 0,42.98022 c 0,5.43907 4.39598,9.78046 9.8343,9.78046 5.43908,0 9.83431,-4.33914 9.83431,-9.78046 l 0,-42.98022 c 0,-5.43908 -4.39598,-9.83431 -9.83431,-9.83431 m 54.59266,0 c -5.43908,0 -9.78047,4.39598 -9.78047,9.83431 l 0,42.98022 c 0,5.43907 4.33915,9.78046 9.78047,9.78046 5.43908,0 9.83431,-4.33914 9.83431,-9.78046 l 0,-42.98022 c 0,-5.43908 -4.39598,-9.83431 -9.83431,-9.83431 m 54.61509,0 c -5.43908,0 -9.83431,4.39598 -9.83431,9.83431 l 0,42.98022 c 0,5.43907 4.39598,9.78046 9.83431,9.78046 5.43907,0 9.78047,-4.33914 9.78047,-9.78046 l 0,-42.98022 c 0,-5.43908 -4.33915,-9.83431 -9.78047,-9.83431"/></svg>