<svg xmlns="http://www.w3.org/2000/svg" xmlns:xlink="http://www.w3.org/1999/xlink" id="svg2" width="100%" height="100%" version="1.1" viewBox="0 0 512 512"><metadata id="metadata162"/><g id="g4" transform="translate(0,-540.36)"><g id="g12" fill-rule="evenodd"><path id="path14" fill="#282629" d="m471.95 793.41c0 120.9-98.01 218.9-218.9 218.9-120.9 0-218.9-98.01-218.9-218.9 0-120.9 98.01-218.9 218.9-218.9 120.9 0 218.9 98.01 218.9 218.9"/><path id="path16" fill-opacity=".235" d="m132.81 116.41v63.31h1v1h1v1h1v1h0.969v0.969h1v1h1v1h1v1h1v1h1v0.281h-8.969v63.28h1v1.001h1v1h1v1h0.969v0.969h1v1h1v1h1v1h1v1h1v1h0.969v0.531h-9.938v63.28h1v1.001h1v1h1v1h0.969v0.969h1v1h1v1h1v1h1v1h1v0.281h-8.969v63.31h1v1h1v1h1v1h0.969v0.969h1v1h1.001v1h1v1h1v1h1.001v1h0.969v0.969h1v1h1.001v1h1v1h1v1h1v1h0.969v0.969h1v1h1v1h1v1h1v1h1v1h0.969v0.969h1v1h1v1h1v1h1v1h1v1h1v1h0.969v0.969h1v1h1v1h1v1h1v1h1v1h0.969v0.969h1v1h1v1h1v1h1v1h1v1h0.969v0.969h1v1h1v1h1v1h1v1h1v1h1v1h0.969v0.969h1v1h1v1h1v1h1v1h1v1h0.969v0.969h1v1h1v1h1v1h1v1h1v1h0.969v0.969h1v1h1v1h1v1h1v1h1v1h0.969v0.969h1v1h1v1h1v1h1v1h1v1h1v0.281c15.622 3.539 31.871 5.438 48.563 5.438 120.9 0 218.91-98.01 218.91-218.91 0-16.88-1.915-33.31-5.531-49.09h-0.656v-1h-1v-1h-1v-1h-0.969v-0.969h-1v-1h-1v-1h-1v-1h-1v-1h-1v-1h-0.969v-0.969h-1v-1h-1v-1h-1v-1h-1v-1h-1v-1h-0.969v-0.969h-1v-1h-1v-1h-1v-1h-1v-1h-1v-1h-1v-1h-0.969v-0.969h-1v-1h-1v-1h-1v-1h-1v-1h-1v-1h-0.969v-0.969h-1v-1h-1v-1h-1v-1h-1v-1h-1v-1h-0.969v-0.969h-1v-1h-1v-1h-1v-1h-1v-1h-1v-1h-0.969v-0.969h-1v-1h-1v-1h-1v-1h-1v-1h-1v-1h-1v-1h-0.969v-0.969h-1v-1h-1v-1h-1v-1h-1v-1h-1v-1h-0.969v-0.969h-1v-1h-1v-1h-1v-1h-1v-1h-1v-1h-0.969v-0.969h-1v-1h-1v-1h-1v-1h-1v-1h-1v-1h-1v-1h-0.969v-0.969h-1v-1h-1v-1h-1v-1h-1v-1h-1v-1h-0.969v-0.969h-1v-1h-1v-1h-1v-1h-1v-1h-1v-1h-0.969v-0.969h-1v-1h-1v-1h-1v-1h-1v-1h-1v-1h-0.969v-0.969h-1v-1h-1v-1.001h-1v-1h-17.12v6.969h-0.594v-1h-1v-1h-1v-1h-0.969v-0.969h-1v-1h-1v-1.001h-1v-1h-18v7.969h-0.906v-1h-1v-1h-1v-1h-1v-1h-0.969v-0.969h-1v-1h-1v-1.001h-1v-1h-17.969v63.53h1v1.001h1v1h1v1h0.969v0.969h1v1h1v1h1v1h1v0.906h-7.969v40.03h-0.875v-1h-1v-1h-0.969v-0.969h-1v-1h-1v-1h-1v-1h-1v-1h-1v-1h-0.969v-0.969h-1v-1h-1v-1h-1v-1h-1v-1h-1v-1h-0.969v-0.969h-1v-1h-1v-1h-1v-1h-1v-1h-1v-1h-0.969v-0.969h-1v-1h-1v-1h-1v-1h-1v-1h-1v-1h-1v-1h-0.969v-0.969h-1v-1h-1v-1h-1v-1h-1v-1h-1v-1h-0.969v-0.969h-1v-1h-1v-1h-1v-1h-1v-1h-1v-1h-0.969v-0.969h-1v-1h-1v-1h-1v-1h-1v-1h-1v-1h-1v-1h-0.969v-0.969h-1v-1h-1v-1h-1v-1h-1v-1h-1v-1h-0.969v-0.969h-1v-1h-1v-1h-1v-1h-1v-1h-1v-1h-0.95v-0.969h-1v-1h-1v-1h-1v-1h-1v-1h-1v-1h-0.969v-0.969h-1v-1h-1v-1h-1v-1h-1v-1h-1v-1h-1v-1h-0.969v-0.969h-1v-1h-1v-1h-1v-1h-1v-1h-1v-1h-0.969v-0.969h-1v-1h-1v-1h-1v-1h-1v-1h-1v-1h-0.969v-0.969h-1v-1h-1v-1h-1v-1h-1v-1h-1v-1h-1v-1h-0.969v-0.969h-1v-1h-1v-1h-1v-1h-1v-1h-1v-1h-0.969v-0.969h-1v-1h-1v-1h-1v-1h-1v-1h-1v-1h-0.969v-0.969h-1v-1h-1v-1h-1v-1h-1v-1h-1v-1h-0.969v-0.969h-1v-1h-1v-1.001h-1v-1h-17.969v7.969h-0.906v-1h-1v-1h-1v-1h-1v-1h-0.969v-0.969h-1v-1h-1v-1.001h-1v-1h-18v6.969h-0.594v-1h-1v-1h-1v-1h-0.969v-0.969h-1v-1h-1v-1h-1v-1h-17.12m229.66 7.5h0.594v0.469h-0.594v-0.469m1 1h0.594v0.469h-0.594v-0.469m1 1h0.594v0.438h-0.594v-0.438m0.969 1h0.594v0.438h-0.594v-0.438m1 0.969h0.594v0.469h-0.594v-0.469m1 1h0.594v0.469h-0.594v-0.469m1 1h0.594v0.469h-0.594v-0.469m1 1h0.5v0.469h-0.5v-0.469" transform="translate(0,540.36)"/><path id="path18" fill-opacity=".067" d="m256 541.36c-140.83 0-255 114.17-255 255s114.17 255 255 255 255-114.17 255-255-114.17-255-255-255m8.827 44.931c120.9 0 218.9 98 218.9 218.9s-98 218.9-218.9 218.9-218.93-98-218.93-218.9 98.03-218.9 218.93-218.9"/><g id="g20" fill-opacity=".129"><path id="path22" d="m256 544.79c-138.94 0-251.57 112.63-251.57 251.57s112.63 251.54 251.57 251.54 251.57-112.6 251.57-251.54-112.63-251.57-251.57-251.57m5.885 38.556c120.9 0 218.9 98 218.9 218.9s-98 218.9-218.9 218.9-218.93-98-218.93-218.9 98.03-218.9 218.93-218.9"/><path id="path24" d="m256 548.72c-136.77 0-247.64 110.87-247.64 247.64s110.87 247.64 247.64 247.64 247.64-110.87 247.64-247.64-110.87-247.64-247.64-247.64m2.942 31.691c120.9 0 218.9 98 218.9 218.9s-98 218.9-218.9 218.9-218.93-98-218.93-218.9 98.03-218.9 218.93-218.9"/></g><path id="path26" fill="#fff" stroke="#000" stroke-opacity=".31" stroke-width="4.904" d="m253.04 548.22c-135.42 0-245.19 109.78-245.19 245.19 0 135.42 109.78 245.19 245.19 245.19 135.42 0 245.19-109.78 245.19-245.19 0-135.42-109.78-245.19-245.19-245.19zm0 26.297c120.9 0 218.9 98 218.9 218.9s-98 218.9-218.9 218.9-218.93-98-218.93-218.9 98.03-218.9 218.93-218.9z"/></g><g id="g74" transform="matrix(.81875 0 0 .81875 44.68 143.61)"><g id="g76" transform="matrix(1.2002 0 0 1.2002 -1.786 -164.81)"><g id="g78" transform="translate(-48.19)"><path id="0" fill="#5c805a" fill-rule="evenodd" d="m321.36 659.56h18.314v64.65h-18.31z"/><path id="1" fill="#5c805a" fill-rule="evenodd" d="m347.67 659.56h18.314v64.65h-18.31z"/><path id="2" fill="#5c805a" fill-rule="evenodd" d="m321.36 732.21h18.314v64.65h-18.31z"/><path id="3" fill="#5c805a" fill-rule="evenodd" d="m347.67 732.21h18.314v64.65h-18.31z"/><path id="4" fill="#5c805a" fill-rule="evenodd" d="m321.36 804.86h18.314v64.65h-18.31z"/><path id="5" fill="#5c805a" fill-rule="evenodd" d="m347.67 804.86h18.314v64.65h-18.31z"/><path id="6" fill="#5c805a" fill-rule="evenodd" d="m321.36 877.51h18.314v64.65h-18.31z"/><path id="7" fill="#5c805a" fill-rule="evenodd" d="m347.67 877.51h18.314v64.65h-18.31z"/></g><g id="g88" transform="translate(-206.07)"><use id="use90" width="1" height="1" x="0" y="0" xlink:href="#0"/><use id="use92" width="1" height="1" x="0" y="0" xlink:href="#1"/><use id="use94" width="1" height="1" x="0" y="0" xlink:href="#2"/><use id="use96" width="1" height="1" x="0" y="0" xlink:href="#3"/><use id="use98" width="1" height="1" x="0" y="0" xlink:href="#4"/><use id="use100" width="1" height="1" x="0" y="0" xlink:href="#5"/><use id="use102" width="1" height="1" x="0" y="0" xlink:href="#6"/><use id="use104" width="1" height="1" x="0" y="0" xlink:href="#7"/></g><g id="g106" fill="#5c805a" fill-rule="evenodd" transform="translate(0,27.27)"><path id="path108" d="m167.91 738.35h18.314v64.65h-18.31z"/><path id="path110" d="m194.23 738.35h18.314v64.65h-18.31z"/><g id="g112" transform="translate(52.628,-72.65)"><path id="path114" d="m167.91 811h18.314v64.65h-18.31z"/><path id="path116" d="m194.23 811h18.314v64.65h-18.31z"/></g></g></g><g style="word-spacing:0;letter-spacing:0" id="g118" fill="#fff" font-family="Sans" font-size="88.65" font-weight="bold" line-height="125%" transform="translate(7.258 -.039)"><text id="text120" x="378.16" y="690.1"><tspan id="tspan122" x="378.16" y="690.1">]</tspan></text><text id="text124" x="378.16" y="777.48"><tspan id="tspan126" x="378.16" y="777.48">]</tspan></text><g id="g128" transform="translate(0,176.27)"><text id="text130" x="378.16" y="690.1"><tspan id="tspan132" x="378.16" y="690.1">]</tspan></text><text id="text134" x="378.16" y="777.48"><tspan id="tspan136" x="378.16" y="777.48">]</tspan></text></g></g><g style="word-spacing:0;letter-spacing:0" id="g138" fill="#fff" font-family="Sans" font-size="88.65" font-weight="bold" line-height="125%" transform="matrix(-1 0 0 1 508.95 -.039)"><text id="text140" x="378.16" y="690.1"><tspan id="tspan142" x="378.16" y="690.1">]</tspan></text><text id="text144" x="378.16" y="777.48"><tspan id="tspan146" x="378.16" y="777.48">]</tspan></text><g id="g148" transform="translate(0,176.27)"><text id="text150" x="378.16" y="690.1"><tspan id="tspan152" x="378.16" y="690.1">]</tspan></text><text id="text154" x="378.16" y="777.48"><tspan id="tspan156" x="378.16" y="777.48">]</tspan></text></g></g></g></g></svg>