<svg xmlns="http://www.w3.org/2000/svg" id="svg2" version="1.1" viewBox="0 0 512 512"><metadata id="metadata4218"/><defs id="defs4"><linearGradient id="0" x2="0" y1="571.97" y2="44.43" gradientUnits="userSpaceOnUse"><stop id="stop7" offset="0" stop-color="#0756a6"/><stop id="stop9" offset="1" stop-color="#4c99e9"/></linearGradient><radialGradient id="1" cx="253.03" cy="253.06" r="218.88" gradientUnits="userSpaceOnUse"><stop id="stop12" offset="0" stop-color="#fff" stop-opacity=".628"/><stop id="stop14" offset="1" stop-color="#fff" stop-opacity="0"/></radialGradient></defs><path id="path4150" fill="url(#0)" fill-rule="evenodd" d="m471.95 253.05c0 120.9-98.01 218.91-218.91 218.91s-218.91-98.01-218.91-218.91 98.01-218.91 218.91-218.91 218.91 98.01 218.91 218.91"/><path id="path4152" fill="url(#1)" d="m254.63 34.19v64.47h-49.25v-59.28c-0.908 0.202-1.815 0.381-2.719 0.594v58.688h-49.28v-40.563c-0.913 0.468-1.813 0.957-2.719 1.438v39.13h-49.28v-3.469c-0.916 0.88-1.818 1.76-2.719 2.656v0.813h-0.813c-0.889 0.893-1.783 1.81-2.656 2.719h3.469v49.25h-39.09c-0.48 0.906-0.969 1.806-1.438 2.719h40.531v49.28h-58.656c-0.213 0.904-0.423 1.81-0.625 2.719h59.28v49.28h-64.5c0.006 0.912 0.014 1.81 0.031 2.719h64.47v49.28h-57.906c0.229 0.912 0.478 1.812 0.719 2.719h57.19v49.28h-37.41c0.503 0.912 0.984 1.815 1.5 2.719h35.906v46.906c1.741 1.732 3.514 3.421 5.313 5.094h46.688v33.22c0.906 0.48 1.805 0.97 2.719 1.438v-34.656h49.28v52.781c0.904 0.213 1.811 0.392 2.719 0.594v-53.37h49.25v58.59c0.917-0.007 1.836-0.014 2.75-0.031v-58.56h49.25v52c0.91-0.229 1.814-0.478 2.719-0.719v-51.28h49.28v31.5c0.907-0.501 1.82-0.987 2.719-1.5v-30h40.75c0.964-0.897 1.927-1.805 2.875-2.719h-43.625v-49.28h49.28v43.656c0.915-0.949 1.821-1.91 2.719-2.875v-40.781h29.969c0.517-0.906 1.027-1.805 1.531-2.719h-31.5v-49.28h51.28c0.241-0.907 0.489-1.807 0.719-2.719h-52v-49.28h58.53c0.017-0.909 0.025-1.807 0.031-2.719h-58.56v-49.28h53.38c-0.202-0.909-0.412-1.814-0.625-2.719h-52.75v-49.28h34.625c-0.468-0.913-0.957-1.813-1.438-2.719h-33.19v-46.594c-1.681-1.808-3.353-3.625-5.094-5.375h-46.906v-35.875c-0.901-0.514-1.81-1.03-2.719-1.531v37.41h-49.28v-57.19c-0.905-0.24-1.809-0.49-2.719-0.719v57.906h-49.25v-64.44c-0.914-0.018-1.833-0.025-2.75-0.031m-153.25 67.19h49.28v49.25h-49.28v-49.25m52 0h49.28v49.25h-49.28v-49.25m52 0h49.25v49.25h-49.25v-49.25m52 0h49.25v49.25h-49.25v-49.25m51.969 0h49.28v49.25h-49.28v-49.25m52 0h49.28v49.25h-49.28v-49.25m-259.97 51.969h49.28v49.28h-49.28v-49.28m52 0h49.28v49.28h-49.28v-49.28m52 0h49.25v49.28h-49.25v-49.28m52 0h49.25v49.28h-49.25v-49.28m51.969 0h49.28v49.28h-49.28v-49.28m52 0h49.28v49.28h-49.28v-49.28m-259.97 52h49.28v49.28h-49.28v-49.28m52 0h49.28v49.28h-49.28v-49.28m52 0h49.25v49.28h-49.25v-49.28m52 0h49.25v49.28h-49.25v-49.28m51.969 0h49.28v49.28h-49.28v-49.28m52 0h49.28v49.28h-49.28v-49.28m-259.97 52h49.28v49.28h-49.28v-49.28m52 0h49.28v49.28h-49.28v-49.28m52 0h49.25v49.28h-49.25v-49.28m52 0h49.25v49.28h-49.25v-49.28m51.969 0h49.28v49.28h-49.28v-49.28m52 0h49.28v49.28h-49.28v-49.28m-259.97 52h49.28v49.28h-49.28v-49.28m52 0h49.28v49.28h-49.28v-49.28m52 0h49.25v49.28h-49.25v-49.28m52 0h49.25v49.28h-49.25v-49.28m51.969 0h49.28v49.28h-49.28v-49.28m52 0h49.28v49.28h-49.28v-49.28m-259.97 52h49.28v49.28h-49.28v-49.28m52 0h49.28v49.28h-49.28v-49.28m52 0h49.25v49.28h-49.25v-49.28m52 0h49.25v49.28h-49.25v-49.28m51.969 0h49.28v49.28h-49.28v-49.28"/><g id="g4154" fill-rule="evenodd"><path id="path4156" fill-opacity=".067" d="m256 1c-140.83 0-255 114.17-255 255s114.17 255 255 255 255-114.17 255-255-114.17-255-255-255m8.827 44.931c120.9 0 218.9 98 218.9 218.9s-98 218.9-218.9 218.9-218.93-98-218.93-218.9 98.03-218.9 218.93-218.9"/><g id="g4158" fill-opacity=".129"><path id="path4160" d="m256 4.43c-138.94 0-251.57 112.63-251.57 251.57s112.63 251.57 251.57 251.57 251.57-112.63 251.57-251.57-112.63-251.57-251.57-251.57m5.885 38.556c120.9 0 218.9 98 218.9 218.9s-98 218.9-218.9 218.9-218.93-98-218.93-218.9 98.03-218.9 218.93-218.9"/><path id="path4162" d="m256 8.36c-136.77 0-247.64 110.87-247.64 247.64s110.87 247.64 247.64 247.64 247.64-110.87 247.64-247.64-110.87-247.64-247.64-247.64m2.942 31.691c120.9 0 218.9 98 218.9 218.9s-98 218.9-218.9 218.9-218.93-98-218.93-218.9 98.03-218.9 218.93-218.9"/></g><path id="path4164" fill="#fff" stroke="#000" stroke-opacity=".31" stroke-width="4.904" d="m253.04 7.86c-135.42 0-245.19 109.78-245.19 245.19 0 135.42 109.78 245.19 245.19 245.19 135.42 0 245.19-109.78 245.19-245.19 0-135.42-109.78-245.19-245.19-245.19m0 26.297c120.9 0 218.9 98 218.9 218.9s-98 218.9-218.9 218.9-218.93-98-218.93-218.9 98.03-218.9 218.93-218.9z"/></g><path id="path4212" d="m252.94 124.01l-43.777 149.11-39.16-39.16-0.404 0.74-19.953 38.865-84.08 0.371v0.57l-0.033 0.605 196.64 196.64c99.4-4.078 181.69-74.42 203.88-168.04l-47.47-47.47c-4.246-4.455-10.238-7.232-16.881-7.232-6.303 0-12 2.516-16.197 6.58l-131.51-131.51-1.041-0.068" opacity=".25"/><path id="path4214" fill="#fff" d="m252.94 124.01l-45.988 156.64-36.448-46.02-0.504-0.672-0.403 0.739-19.954 38.867-84.08 0.37v0.571l-0.034 0.605h0.034l87.21 10.414 0.37 0.034 0.168-0.302 17.334-27.613 43.1 62.45 0.638 0.941 0.336-1.075 33.16-103.43 34.399 169.84 0.336 1.612 0.705-1.444 49.28-105.68 47.43 0.134c3.44 8.588 11.85 14.646 21.667 14.646 12.88 0 23.313-10.433 23.313-23.313s-10.433-23.313-23.313-23.313c-10.565 0-19.472 7.03-22.339 16.662l-54.22 0.638h-0.302l-0.202 0.302-31.745 59.09-38.9-201.62-1.041-0.067"/></svg>