<svg xmlns="http://www.w3.org/2000/svg" xmlns:svg="http://www.w3.org/2000/svg" id="svg7181" width="512mm" height="512mm" version="1.1" viewBox="0 0 512 512"><metadata id="metadata7186"/><g id="layer1" transform="translate(0,215.00001)"><g id="g7211" transform="matrix(3.7943493,0,0,3.7943493,92.504217,-558.14586)"><g id="g7600" transform="matrix(0.26458334,0,0,0.26458334,-24.644056,90.171432)" style="fill-rule:evenodd"><path id="path7602" d="m 471.95,253.05 c 0,120.9 -98.01,218.91 -218.91,218.91 -120.9,0 -218.91,-98.01 -218.91,-218.91 0,-120.9 98.01,-218.91 218.91,-218.91 120.9,0 218.91,98.01 218.91,218.91" style="fill:#34a8f0"/><path id="path7604" d="M 256,1 C 115.17,1 1,115.17 1,256 1,396.83 115.17,511 256,511 396.83,511 511,396.83 511,256 511,115.17 396.83,1 256,1 m 8.827,44.931 c 120.9,0 218.9,98 218.9,218.9 0,120.9 -98,218.9 -218.9,218.9 -120.9,0 -218.93,-98 -218.93,-218.9 0,-120.9 98.03,-218.9 218.93,-218.9" style="fill-opacity:.06700003"/><g id="g7606" style="fill-opacity:.12900002"><path id="path7608" d="M 256,4.43 C 117.06,4.43 4.43,117.06 4.43,256 4.43,394.94 117.06,507.57 256,507.57 394.94,507.57 507.57,394.94 507.57,256 507.57,117.06 394.94,4.43 256,4.43 m 5.885,38.556 c 120.9,0 218.9,98 218.9,218.9 0,120.9 -98,218.9 -218.9,218.9 -120.9,0 -218.93,-98 -218.93,-218.9 0,-120.9 98.03,-218.9 218.93,-218.9"/><path id="path7610" d="M 256,8.36 C 119.23,8.36 8.36,119.23 8.36,256 8.36,392.77 119.23,503.64 256,503.64 392.77,503.64 503.64,392.77 503.64,256 503.64,119.23 392.77,8.36 256,8.36 m 2.942,31.691 c 120.9,0 218.9,98 218.9,218.9 0,120.9 -98,218.9 -218.9,218.9 -120.9,0 -218.93,-98 -218.93,-218.9 0,-120.9 98.03,-218.9 218.93,-218.9"/></g><path id="path7612" d="M 253.04,7.86 C 117.62,7.86 7.85,117.64 7.85,253.05 c 0,135.42 109.78,245.19 245.19,245.19 135.42,0 245.19,-109.78 245.19,-245.19 C 498.23,117.63 388.45,7.86 253.04,7.86 m 0,26.297 c 120.9,0 218.9,98 218.9,218.9 0,120.9 -98,218.9 -218.9,218.9 -120.9,0 -218.93,-98 -218.93,-218.9 0,-120.9 98.03,-218.9 218.93,-218.9 z" style="fill:#fff;stroke:#000;stroke-width:4.90399981;stroke-opacity:.31000001"/></g><path id="path7660" d="m 52.384093,110.70045 c -25.175105,0 -53.4961065,28.321 -53.4961065,53.49611 l 50.4242945,50.4243 c 28.231045,-3.4044 50.207335,-27.11451 50.895259,-56.09432 L 52.384093,110.7031" style="opacity:.25"/><path id="path7662" d="m 52.384093,110.70045 c -25.175105,0 -53.4961065,28.321 -53.4961065,53.49611 l 6.292057,0 0.01667,-0.008 c 0,-22.01598 25.1592305,-47.19373 47.1857945,-47.19373 l 0,-6.29206 m 0,12.58412 c -18.880668,0 -40.909877,22.04243 -40.909877,40.91252 l 6.300523,0 0.0082,-0.008 c 0,-15.73477 18.867439,-34.60221 34.60221,-34.60221 l 0,-6.30053 m 0,12.59258 c -12.587288,0 -28.318355,15.73213 -28.318355,28.31836 l 6.292056,0 c 0,-9.4406 12.585965,-22.02656 22.026564,-22.02656 l 0,-6.29206 m -6.292057,12.58438 c -3.476625,0 -6.292056,2.8149 -6.292056,6.29205 0,3.47663 2.814902,6.30053 6.292056,6.30053 3.476625,0 6.292057,-2.82311 6.292057,-6.30053 0,-3.47662 -2.814903,-6.29205 -6.292057,-6.29205 m -0.7112,18.88596 c -3.083983,0 -5.580063,2.49713 -5.580063,5.58006 l 0,26.6065 c 0,3.07446 2.497138,5.57213 5.580063,5.57213 l 1.438804,0 c 3.074459,0 5.564188,-2.4982 5.564188,-5.57213 l 0,-26.6065 c 0,-3.08398 -2.489994,-5.58006 -5.564188,-5.58006 l -1.438804,0" style="fill:#f9f9f9"/></g></g></svg>