<svg xmlns="http://www.w3.org/2000/svg" xmlns:xlink="http://www.w3.org/1999/xlink" id="svg2" width="100%" height="100%" version="1.1" viewBox="0 0 512 512"><metadata id="metadata448"/><defs id="defs4"><path id="u" d="m13.895-8.388c0.075-0.29 0.112-0.574 0.112-0.854 0-0.858-0.334-1.59-1-2.193-0.669-0.604-1.507-0.904-2.514-0.904h-20.838c-1.057 0.016-1.924 0.291-2.602 0.824-0.678 0.536-1.01 1.222-0.99 2.061 0 0.296 0.045 0.608 0.135 0.936s0.244 0.666 0.459 1.01l10.977 18.382c0.313 0.512 0.685 0.897 1.114 1.153s0.876 0.384 1.339 0.384c0.461 0 0.908-0.128 1.336-0.384 0.431-0.256 0.794-0.642 1.091-1.153l11-18.407c0.181-0.282 0.31-0.567 0.384-0.856m-2.738-0.854v0.086c0 0.026-0.008 0.045-0.025 0.062 0 0.017-0.004 0.037-0.012 0.063-0.009 0.024-0.021 0.046-0.037 0.063l-11 18.382v0.051l-0.027-0.027v-0.026l-10.975-18.407c-0.051-0.066-0.09-0.135-0.124-0.21-0.032-0.076-0.049-0.145-0.049-0.212 0.065-0.032 0.161-0.053 0.284-0.062 0.125-0.009 0.277-0.013 0.459-0.013h20.838c0.131 0 0.242 0.009 0.334 0.025 0.091 0.017 0.168 0.042 0.234 0.074 0.017 0.018 0.029 0.029 0.037 0.037 0.009 0.01 0.021 0.021 0.037 0.037 0 0.018 0.009 0.035 0.025 0.05v0.051-0.024m-8.82 12.45v-0.089c-0.032-0.363-0.148-0.733-0.347-1.113-0.199-0.381-0.405-0.81-0.617-1.289-0.25-0.513-0.476-1.112-0.682-1.796-0.209-0.687-0.31-1.499-0.31-2.441h-0.719c0 0.941-0.104 1.754-0.311 2.44-0.205 0.685-0.424 1.283-0.656 1.796-0.23 0.479-0.445 0.908-0.643 1.289-0.199 0.38-0.314 0.75-0.348 1.113v0.152c0 0.644 0.227 1.19 0.682 1.646 0.453 0.452 1 0.681 1.646 0.681 0.629 0 1.169-0.229 1.623-0.681 0.453-0.456 0.681-1 0.681-1.646 0.001-0.017 0.001-0.038 0.001-0.062m-0.817-10.927c-0.413-0.405-0.909-0.606-1.487-0.606s-1.073 0.201-1.486 0.606c-0.414 0.404-0.619 0.895-0.619 1.474 0 0.578 0.205 1.07 0.619 1.475 0.413 0.404 0.908 0.607 1.486 0.607s1.074-0.203 1.486-0.607c0.414-0.404 0.619-0.896 0.619-1.475 0.001-0.579-0.204-1.069-0.618-1.474"/><path id="v" d="m-9.02-7.64v20.015h18.092v-24.75h-13.822"/><path id="w" d="m-9.02-7.64h4.27v-4.735"/><path id="x" d="m14.427 8.58c-16.194 0-15.562 0-15.785 0.179 0 0.176-0.22 0.354-0.22 0.707s-0.223 0.706-0.445 1.237c-0.221 0.353-0.665 0.707-1.108 1.06-0.665 0.354-1.331 0.53-1.331 0.53s-9.317 0-9.763-0.176c-0.665-0.178-1.108-0.354-1.331-0.707-0.22-0.354-0.443-0.707-0.665-1.06-0.22-0.532-0.442-0.709-0.442-0.885-0.223-0.178-0.223-0.354-0.443-0.531 0-0.176-0.223-0.354-0.445-0.354l-0.442-0.176v-20.861h35.743v19.269c-0.223 0.531-0.443 0.887-0.888 1.238-0.443 0.176-1.108 0.354-1.774 0.529h-0.666"/><path id="y" d="m12.401 0c0-6.834-5.539-12.375-12.375-12.375-6.834 0-12.375 5.541-12.375 12.375 0 6.837 5.541 12.375 12.375 12.375 6.836 0 12.375-5.538 12.375-12.375"/><path id="z" d="m8.648 2.993c0-0.33-0.182-1.371-0.543-3.122-0.408-1.948-0.736-3.112-0.98-3.492-0.494-0.711-1.523-1.99-3.096-3.841-0.297-0.346-0.492-0.623-0.59-0.829-0.1-0.207-0.195-0.4-0.295-0.583-0.181-0.346-0.271-0.57-0.271-0.668v-3.049h-8.943v2.95c0 0.196-0.189 0.496-0.57 0.891-0.346 0.347-0.734 0.867-1.164 1.561-0.494 0.811-0.744 1.387-0.744 1.733v12.464c0 0.114 0.102 0.268 0.299 0.459 0.199 0.188 0.33 0.293 0.396 0.31 0.148 0.032 0.246 0.05 0.297 0.05 0.131 0 0.33-0.084 0.596-0.249 0.264-0.165 0.395-0.339 0.395-0.521v-5.524c0-0.233 0.166-0.349 0.496-0.349 0.348 0 0.521 0.107 0.521 0.323v8.694c0 0.216 0.117 0.423 0.359 0.621 0.238 0.198 0.459 0.297 0.656 0.297 0.229 0 0.453-0.107 0.67-0.323 0.213-0.214 0.32-0.437 0.32-0.668v-8.348c0-0.23 0.184-0.347 0.547-0.347 0.08 0 0.189 0.044 0.32 0.137 0.133 0.089 0.199 0.193 0.199 0.309v9.514c0 0.214 0.139 0.396 0.422 0.545 0.279 0.149 0.527 0.223 0.742 0.223 0.248 0 0.498-0.096 0.756-0.284 0.256-0.191 0.383-0.395 0.383-0.608v-9.243c0-0.181 0.174-0.279 0.52-0.296 0.365 0 0.547 0.115 0.547 0.347v8c0 0.199 0.111 0.379 0.334 0.545 0.223 0.164 0.443 0.247 0.656 0.247 0.148 0 0.352-0.078 0.607-0.236 0.256-0.155 0.383-0.342 0.383-0.556v-9.217c0-0.463 0.133-0.983 0.396-1.562 0.316-0.676 0.678-1.015 1.092-1.015 0.098 0 0.189 0.073 0.271 0.223 0.23 0.445 0.547 1.163 0.943 2.155 0.395 0.99 0.719 1.718 0.965 2.178 0.116 0.218 0.472 0.423 1.067 0.622 0.18 0.083 0.346 0.125 0.496 0.125 0.362 0 0.545-0.199 0.545-0.596"/><path id="10" d="m13.189-8.282c-0.073-0.29-0.178-0.582-0.31-0.881-0.298-0.659-0.711-1.28-1.239-1.858-0.527-0.576-1.073-0.941-1.634-1.089-0.085-0.017-0.162-0.028-0.236-0.037-0.075-0.009-0.146-0.013-0.212-0.013h-15.483c-0.381 0.066-0.734 0.211-1.067 0.434-0.329 0.224-0.586 0.524-0.766 0.904l-5.378 11.149c-0.065 0.166-0.12 0.335-0.162 0.509-0.041 0.172-0.062 0.342-0.062 0.508 0 0.429 0.115 0.837 0.348 1.226 0.23 0.388 0.553 0.682 0.967 0.88 0.114 0.065 0.23 0.116 0.346 0.149s0.232 0.058 0.347 0.073c0.05 0 0.108 0.005 0.174 0.013 0.065 0.007 0.126 0.011 0.174 0.011 0.43-0.015 0.838-0.135 1.227-0.359 0.389-0.222 0.681-0.549 0.88-0.977l2.08-4.336v12.213c0 0.646 0.229 1.199 0.683 1.662 0.453 0.462 1 0.692 1.647 0.692 0.645 0 1.197-0.23 1.659-0.692 0.462-0.463 0.694-1.017 0.694-1.662v-11.124h0.444v3.469c0 0.643 0.232 1.192 0.694 1.646 0.463 0.456 1.018 0.683 1.661 0.683 0.645 0 1.197-0.227 1.659-0.683 0.464-0.454 0.694-1 0.694-1.646v-3.469h0.446v3.469c0 0.643 0.23 1.192 0.694 1.646 0.462 0.456 1.014 0.683 1.659 0.683 0.644 0 1.193-0.227 1.647-0.683 0.456-0.454 0.682-1 0.682-1.646v-3.469h0.472v1.71c0 0.645 0.227 1.192 0.681 1.647 0.455 0.453 1 0.681 1.647 0.681 0.646 0 1.197-0.228 1.659-0.681 0.464-0.454 0.695-1 0.695-1.647v-8.325c0-0.232-0.037-0.491-0.111-0.78"/><path id="11" d="m-10.645-1.826v-10.549h20.932v10.676l1.126 1.276-3.1 3.443v9.355h-3.38v-5.356l-4.347 5.272-11.994-12.714 0.763-1.403"/><path id="12" d="m12.416-0.007c0-3.415-1.21-6.332-3.627-8.746-2.421-2.414-5.337-3.621-8.754-3.621-3.419 0-6.337 1.207-8.756 3.621s-3.628 5.331-3.628 8.746c0 3.419 1.209 6.336 3.628 8.757 2.419 2.418 5.337 3.626 8.756 3.626 3.417 0 6.333-1.208 8.754-3.626 2.417-2.421 3.627-5.338 3.627-8.757m-2.024 0c0 2.864-1.01 5.309-3.03 7.335-2.02 2.025-4.464 3.039-7.325 3.039-2.864 0-5.308-1.014-7.335-3.039-2.026-2.026-3.037-4.471-3.037-7.335 0-2.861 1.01-5.305 3.037-7.325s4.471-3.03 7.335-3.03c2.861 0 5.304 1.01 7.325 3.03 2.02 2.02 3.03 4.464 3.03 7.325m-7.818 6.382c0-0.655-0.25-1.216-0.749-1.679-0.498-0.463-1.096-0.695-1.79-0.695-0.708 0-1.308 0.232-1.801 0.695s-0.74 1.023-0.74 1.679c0 0.654 0.247 1.213 0.74 1.677 0.494 0.465 1.093 0.698 1.801 0.698 0.694 0 1.292-0.233 1.79-0.698 0.499-0.464 0.749-1.023 0.749-1.677m-0.468-15.633h-4.16v11.792h4.16v-11.792"/><path id="13" d="m4.239-3.868h-1.585v-8.499h-2.106v8.499h-1.14v-8.499h-2.057v8.499h-1.61v8.522c0 0.562 0.265 1.153 0.792 1.771 0.529 0.62 1.123 1.012 1.784 1.178 0.843 0.213 1.404 0.321 1.685 0.321 0.793 0 1.545-0.19 2.254-0.57 0.86-0.446 1.453-1.073 1.784-1.884 0.133-0.313 0.199-0.567 0.199-0.767v-8.571m-2.378 14.393c0-0.529-0.188-0.967-0.558-1.313s-0.806-0.521-1.301-0.521c-0.529 0-0.971 0.184-1.324 0.546-0.356 0.365-0.533 0.784-0.533 1.264 0 0.495 0.189 0.933 0.568 1.314 0.381 0.379 0.811 0.568 1.289 0.568 0.512 0 0.95-0.193 1.314-0.583 0.364-0.388 0.545-0.812 0.545-1.275"/><path id="14" d="m4.36-10.3c0-0.691-0.639-1.215-1.911-1.57-0.908-0.262-1.831-0.39-2.772-0.39-0.938 0-1.86 0.128-2.769 0.39-1.264 0.355-1.896 0.879-1.896 1.57 0 0.526 0.4 0.988 1.201 1.376 0.667 0.313 1.305 0.472 1.91 0.472 0.085 0 0.239-0.351 0.46-1.046 0.221-0.696 0.538-1.046 0.947-1.046 0.25 0 0.412 0.361 0.487 1.079 0.076 0.717 0.19 1.076 0.341 1.076 0.657 0 1.442-0.168 2.348-0.502 1.105-0.409 1.654-0.882 1.654-1.409m0.584 20.33-7.29-5.265 2.121-14.417c-0.15-0.218-0.319-0.325-0.501-0.325-0.174 0-0.282 0.15-0.325 0.453l-2.916 21.383c-0.054 0.423 0.055 0.633 0.325 0.633 0.14 0 0.313-0.821 0.517-2.462 1.945-0.033 4.635-0.033 8.07 0"/><path id="15" d="m4.581-12.375-5.769 10.02-4.01-3.984-2.476 18.71l14.976-11.484-5.446-1.484 5.769-10.03-3.046-1.757"/><path id="16" d="m4.721-5.92 1.935-4.188c-2.087-1.438-4.336-2.181-6.742-2.225-2.316-0.059-4.407 0.529-6.278 1.762-1.434 0.947-2.552 2.2-3.352 3.759-0.83 1.625-1.213 3.382-1.148 5.263l-2.354-1.01 2.522 6.582 4.392-3.662-2.12-0.912c0.125-2.47 1.272-4.418 3.445-5.854 2.789-1.84 6.02-1.676 9.7 0.484m1.658 16.553c1.434-0.945 2.555-2.193 3.359-3.742 0.833-1.626 1.213-3.387 1.141-5.279l2.341 1.018-2.509-6.59-4.392 3.66 2.116 0.914c-0.122 2.469-1.27 4.418-3.445 5.853-2.787 1.84-6.02 1.677-9.696-0.485l-1.936 4.188c2.095 1.451 4.346 2.199 6.752 2.242 2.31 0.05 4.398-0.544 6.269-1.779"/><path id="17" d="m11.979 4.782c0-4.531-1.119-8.348-3.364-11.449-2.148-2.979-5.02-4.894-8.613-5.743-3.589 0.85-6.458 2.765-8.612 5.743-2.239 3.102-3.362 6.918-3.362 11.449 0 1.653 0.352 3.233 1.054 4.74 0.543 1.178 1.189 2.118 1.936 2.819 1.665-1.031 3.313-1.546 4.944-1.546 1.63 0 2.978 0.503 4.04 1.512 1.065-1.01 2.414-1.512 4.046-1.512s3.277 0.515 4.942 1.546c0.746-0.701 1.393-1.642 1.938-2.819 0.698-1.506 1.05-3.086 1.05-4.74"/><path id="18" d="m9.806 0.011c0 1.799-0.125 1.447-1.974 1.447-0.247 0-0.128 3.181-0.13 3.572-0.01 2.108-0.768 3.914-2.368 5.351-2.458 2.204-6.337 2.471-9.293 1.164-1.816-0.804-3.59-2.496-3.957-4.543-0.236-1.321 0-2.895 0-4.234 0-1.623-0.119-1.31-1.771-1.31 0-4.03-1.228-9.409 2.647-12.07 3.194-2.189 8.525-2.18 12.11-1.089 5.418 1.649 4.737 7.213 4.737 11.708m-5.76 1.464h-8.292v4.952l0.086 0.354 0.105 0.304 0.189 0.305 0.147 0.32 0.189 0.238 0.381 0.404 0.485 0.272 0.507 0.302 0.568 0.203 0.57 0.151 0.758 0.085 0.57-0.033 0.781-0.152 0.486-0.118 0.442-0.153 0.251-0.186 0.381-0.203 0.149-0.152 0.168-0.149 0.215-0.169 0.128-0.187 0.168-0.17 0.189-0.236 0.085-0.253 0.104-0.271 0.125-0.288 0.064-0.219v-4.951"/><path id="19" d="m-11.939 7.452-2.048-4.965h-0.789c-1.419 0-2.129-0.557-2.129-1.663v-10.704h2.026v1.743c0 1.339 0.449 2.483 1.348 3.437 0.899 0.952 1.984 1.43 3.255 1.43 1.675 0 2.945-0.812 3.81-2.434v14.17h-3.951c-0.731 0-1.236-0.337-1.522-1.014m1.663-11.797c-1.054 0-1.953-0.392-2.695-1.176-0.745-0.784-1.116-1.731-1.116-2.838s0.371-2.055 1.116-2.841c0.742-0.78 1.642-1.174 2.695-1.174s1.951 0.394 2.695 1.174c0.742 0.786 1.114 1.733 1.114 2.841 0 1.106-0.372 2.054-1.114 2.838-0.744 0.785-1.642 1.176-2.695 1.176m4.518 16.724v-22.259h12.589l0.021 1.743c0 1.339 0.449 2.483 1.349 3.437 0.896 0.952 1.983 1.43 3.254 1.43 1.269 0 2.355-0.478 3.262-1.43 0.907-0.953 1.359-2.098 1.359-3.437v-1.743h0.95v22.259h-22.784m17.272-16.724c-1.056 0-1.954-0.392-2.697-1.176s-1.114-1.731-1.114-2.837c0-1.107 0.371-2.055 1.113-2.841 0.743-0.78 1.642-1.174 2.697-1.174 1.039 0 1.935 0.394 2.687 1.174 0.75 0.786 1.125 1.733 1.125 2.841 0 1.106-0.375 2.054-1.125 2.838-0.752 0.784-1.647 1.175-2.686 1.175"/><path id="1A" d="m2.363-1.698v-10.661h-4.727v10.661h-2.029v3.646c0 1.221 0.429 2.259 1.287 3.118 0.857 0.857 1.889 1.286 3.094 1.286 1.221 0 2.26-0.429 3.119-1.286 0.857-0.859 1.285-1.897 1.285-3.118v-3.646h-2.029m-0.431 9.413c-0.536-0.528-1.184-0.792-1.944-0.792-0.758 0-1.402 0.264-1.931 0.792-0.528 0.526-0.792 1.171-0.792 1.93s0.264 1.407 0.792 1.943 1.173 0.804 1.931 0.804c0.76 0 1.407-0.268 1.943-0.804s0.804-1.185 0.804-1.943-0.267-1.403-0.803-1.93"/><path id="1B" d="m9.577-1.609-2 4.332v1.436c-0.066 2.309-0.937 4.271-2.61 5.889-1.676 1.616-3.668 2.426-5.979 2.426-2.359 0-4.376-0.842-6.05-2.524-1.674-1.684-2.512-3.705-2.512-6.06 0-1.535 0.371-2.942 1.114-4.221 0.742-1.278 1.724-2.297 2.945-3.058v-8.885h9.08v5.199h3.291l0.718 0.715v1.314l0.792 0.792-0.593 0.618 0.594 0.595-0.322 0.791h1.534v0.644"/><path id="1C" d="m1.367-0.479v-0.022c0-0.463-0.167-0.711-0.497-0.742-0.197-0.037-0.379-0.053-0.544-0.053-0.199 0-0.454 0.033-0.768 0.1-0.313 0-0.47-0.297-0.47-0.893 0-0.063 0.033-0.368 0.099-0.914h-1.237c-0.677 0-1.016-0.116-1.016-0.348 0-0.13 0.059-0.226 0.174-0.284 0.116-0.058 0.223-0.111 0.321-0.161 1.04-0.693 1.559-1.146 1.559-1.36 0-0.183-0.062-0.309-0.184-0.383-0.124-0.075-0.261-0.154-0.408-0.236-0.315-0.215-0.471-0.429-0.471-0.643 0-0.101 0.008-0.238 0.025-0.421v-0.421c0-0.216-0.018-0.404-0.051-0.57-0.032-0.163-0.139-0.3-0.32-0.408-0.182-0.105-0.331-0.16-0.445-0.16h-0.05l-3.243 0.842v-3.12h-5.741v22.646c0.445 0.103 0.89 0.199 1.335 0.299 0.446 0.098 0.926 0.147 1.437 0.147 2.358 0 4.447-0.717 6.263-2.152 1.882-1.5 2.821-3.3 2.821-5.395 0-0.396-0.025-0.743-0.075-1.041 0-0.1-0.037-0.263-0.112-0.495-0.073-0.23-0.11-0.363-0.11-0.396 0-0.181 0.286-0.692 0.854-1.534 0.568-0.841 0.854-1.467 0.854-1.882m3.935-0.519c0-2.708-0.849-5.074-2.551-7.104l-0.891 0.743c1.52 1.765 2.278 3.879 2.278 6.336 0 1.551-0.389 3.102-1.164 4.654 0.348 0.23 0.702 0.421 1.065 0.57 0.841-1.849 1.263-3.582 1.263-5.199m3.316-0.074c0-3.333-1.114-6.378-3.342-9.134-0.065 0.05-0.38 0.306-0.939 0.768 2.077 2.458 3.117 5.273 3.117 8.44 0 2.243-0.536 4.324-1.609 6.237 0.248 0.15 0.595 0.314 1.041 0.494 0.545-0.84 0.975-1.914 1.286-3.217 0.298-1.221 0.446-2.417 0.446-3.588m3.291 0.174c0-4.291-1.361-8.103-4.084-11.437-0.23 0.183-0.551 0.446-0.965 0.792 2.559 3.087 3.836 6.592 3.836 10.52 0 2.706-0.661 5.313-1.981 7.822 0.464 0.263 0.811 0.445 1.042 0.545 1.434-2.411 2.152-5.158 2.152-8.242"/><path id="1D" d="m5.35-2.246c0.313 0.131 0.553 0.247 0.717 0.347l-3.716 8.868h-4.755l-3.669-8.868 0.793-0.271 3.27 6.316 0.495-2.849-3.368-6.071h3.368l1.142-8.3h0.991l0.917 8.3h3.295l-3.323 6.071 0.497 2.849 3.346-6.392m-5.477 11.227c0.511 0 0.975 0.195 1.389 0.583 0.412 0.388 0.618 0.871 0.618 1.45 0 0.546-0.189 1.024-0.57 1.437-0.379 0.413-0.858 0.62-1.437 0.62-0.596 0-1.083-0.207-1.462-0.62-0.379-0.412-0.57-0.891-0.57-1.437 0-0.529 0.191-1 0.57-1.413 0.379-0.412 0.866-0.62 1.462-0.62"/><linearGradient id="L" x2="0" y1="-12.373" y2="12.379" gradientUnits="userSpaceOnUse" xlink:href="#0"/><linearGradient id="V" x2="0" y1="12.16" y2="-12.591" gradientUnits="userSpaceOnUse" xlink:href="#5"/><linearGradient id="Z" x2="0" y1="12.376" y2="-12.374" gradientUnits="userSpaceOnUse" xlink:href="#5"/><linearGradient id="X" x2="0" y1="12.591" y2="-12.16" gradientUnits="userSpaceOnUse" xlink:href="#5"/><linearGradient id="1F" x2="0" y1="12.375" y2="-12.375" gradientUnits="userSpaceOnUse" xlink:href="#5"/><linearGradient id="M" x2="0" y1="-12.373" y2="12.379" gradientUnits="userSpaceOnUse" xlink:href="#1"/><linearGradient id="R" x2="0" y1="-12.335" y2="12.416" gradientUnits="userSpaceOnUse" xlink:href="#1"/><linearGradient id="N" x2="0" y1="-12.359" y2="12.392" gradientUnits="userSpaceOnUse" xlink:href="#1"/><linearGradient id="Q" x2="0" y1="12.474" y2="-12.277" gradientUnits="userSpaceOnUse" xlink:href="#5"/><linearGradient id="O" x2="0" y1="-12.277" y2="12.474" gradientUnits="userSpaceOnUse" xlink:href="#1"/><linearGradient id="b" x2="0" y1="12.384" y2="-12.367" gradientUnits="userSpaceOnUse" xlink:href="#5"/><linearGradient id="d" x2="0" y1="12.492" y2="-12.26" gradientUnits="userSpaceOnUse" xlink:href="#5"/><linearGradient id="r" x2="0" y1="-13.07" y2="13.07" gradientUnits="userSpaceOnUse" xlink:href="#1"/><linearGradient id="1E" x2="0" y1="-12.375" y2="12.375" gradientUnits="userSpaceOnUse" xlink:href="#1"/><linearGradient id="t" x2="0" y1="13.07" y2="-13.07" gradientUnits="userSpaceOnUse" xlink:href="#5"/><linearGradient id="q" x2="0" y1="12.416" y2="-12.335" gradientUnits="userSpaceOnUse" xlink:href="#5"/><linearGradient id="g" x2="0" y1="12.414" y2="-12.336" gradientUnits="userSpaceOnUse" xlink:href="#5"/><linearGradient id="o" x2="0" y1="12.392" y2="-12.359" gradientUnits="userSpaceOnUse" xlink:href="#5"/><linearGradient id="i" x2="0" y1="12.342" y2="-12.41" gradientUnits="userSpaceOnUse" xlink:href="#5"/><linearGradient id="m" x2="0" y1="12.379" y2="-12.373" gradientUnits="userSpaceOnUse" xlink:href="#5"/><linearGradient id="k" x2="0" y1="12.335" y2="-12.417" gradientUnits="userSpaceOnUse" xlink:href="#5"/><linearGradient id="T" x2="0" y1="12.412" y2="-12.34" gradientUnits="userSpaceOnUse" xlink:href="#5"/><linearGradient id="C" x2="0" y1="-12.16" y2="12.591" gradientUnits="userSpaceOnUse" xlink:href="#1"/><linearGradient id="8" x2="0" y1="12.293" y2="-12.457" gradientUnits="userSpaceOnUse" xlink:href="#5"/><linearGradient id="B" x2="0" y1="-12.591" y2="12.16" gradientUnits="userSpaceOnUse" xlink:href="#1"/><linearGradient id="A" x2="0" y1="-12.591" y2="12.16" gradientUnits="userSpaceOnUse" xlink:href="#0"/><linearGradient id="6" x2="0" y1="-12.457" y2="12.293" gradientUnits="userSpaceOnUse" xlink:href="#1"/><linearGradient id="5" x2="0" y1="-7.64" y2="-12.375" gradientUnits="userSpaceOnUse"><stop id="stop54" offset="0" stop-color="#fff" stop-opacity=".77"/><stop id="stop56" offset=".45" stop-color="#fff" stop-opacity="0"/><stop id="stop58" offset=".467" stop-color="#dedee5" stop-opacity=".005"/><stop id="stop60" offset=".491" stop-color="#b5b5c5" stop-opacity=".012"/><stop id="stop62" offset=".519" stop-color="#908fa8" stop-opacity=".02"/><stop id="stop64" offset=".548" stop-color="#6f6f8f" stop-opacity=".029"/><stop id="stop66" offset=".581" stop-color="#54537a" stop-opacity=".038"/><stop id="stop68" offset=".619" stop-color="#3e3d69" stop-opacity=".049"/><stop id="stop70" offset=".662" stop-color="#2d2c5c" stop-opacity=".062"/><stop id="stop72" offset=".716" stop-color="#222153" stop-opacity=".077"/><stop id="stop74" offset=".791" stop-color="#1b1a4d" stop-opacity=".099"/><stop id="stop76" offset="1" stop-color="#19184c" stop-opacity=".16"/></linearGradient><linearGradient id="0" x2="0" y1="-12.34" y2="12.412" gradientUnits="userSpaceOnUse"><stop id="stop79" offset="0" stop-color="#2d3f99"/><stop id="stop81" offset=".618" stop-color="#2a3182"/><stop id="stop83" offset=".629" stop-color="#2a3491"/><stop id="stop85" offset=".983" stop-color="#00629f"/></linearGradient><linearGradient id="3" x2="0" y1="-12.375" y2="-7.64" gradientUnits="userSpaceOnUse" xlink:href="#1"/><linearGradient id="1" x2="0" y1="-12.34" y2="12.412" gradientUnits="userSpaceOnUse"><stop id="stop89" offset="0" stop-color="#292e78" stop-opacity=".22"/><stop id="stop91" offset=".5" stop-color="#20215b"/><stop id="stop93" offset=".531" stop-color="#243864" stop-opacity=".946"/><stop id="stop95" offset=".577" stop-color="#2c5371" stop-opacity=".866"/><stop id="stop97" offset=".626" stop-color="#366b7c" stop-opacity=".781"/><stop id="stop99" offset=".676" stop-color="#3e8286" stop-opacity=".693"/><stop id="stop101" offset=".729" stop-color="#47968e" stop-opacity=".602"/><stop id="stop103" offset=".784" stop-color="#4da694" stop-opacity=".506"/><stop id="stop105" offset=".844" stop-color="#53b298" stop-opacity=".402"/><stop id="stop107" offset=".911" stop-color="#56bc9c" stop-opacity=".285"/><stop id="stop109" offset="1" stop-color="#56c09d" stop-opacity=".13"/></linearGradient><linearGradient id="K" x2="0" y1="-12.417" y2="12.334" gradientUnits="userSpaceOnUse" xlink:href="#1"/><linearGradient id="F" x2="0" y1="-12.374" y2="12.376" gradientUnits="userSpaceOnUse" xlink:href="#1"/><linearGradient id="H" x2="0" y1="-12.26" y2="12.492" gradientUnits="userSpaceOnUse" xlink:href="#1"/><linearGradient id="E" x2="0" y1="-12.374" y2="12.376" gradientUnits="userSpaceOnUse" xlink:href="#0"/><linearGradient id="G" x2="0" y1="-12.367" y2="12.384" gradientUnits="userSpaceOnUse" xlink:href="#1"/><linearGradient id="J" x2="0" y1="-12.41" y2="12.342" gradientUnits="userSpaceOnUse" xlink:href="#1"/><linearGradient id="I" x2="0" y1="-12.336" y2="12.414" gradientUnits="userSpaceOnUse" xlink:href="#1"/><radialGradient id="l" cx="-1.697" cy="8.323" r="23.407" gradientTransform="matrix(.9996 -.0276 .0138 .4998 -.115 4.117)" gradientUnits="userSpaceOnUse" xlink:href="#2"/><radialGradient id="P" cx="-.993" cy="8.418" r="19.49" gradientTransform="matrix(.9996 -.0276 .0138 .4998 -.116 4.183)" gradientUnits="userSpaceOnUse" xlink:href="#2"/><radialGradient id="n" cx="-.455" cy="8.336" r="17.827" gradientTransform="matrix(.9996 -.0276 .0138 .4998 -.115 4.157)" gradientUnits="userSpaceOnUse" xlink:href="#2"/><radialGradient id="s" cx="-.632" cy="8.787" r="19.18" gradientTransform="matrix(.9996 -.0276 .0138 .4998 -.122 4.377)" gradientUnits="userSpaceOnUse" xlink:href="#2"/><radialGradient id="2" cx="-.914" cy="8.319" r="19.271" gradientTransform="matrix(.9996 -.0276 .0138 .4998 -.115 4.136)" gradientUnits="userSpaceOnUse"><stop id="stop123" offset="0" stop-color="#638a98"/><stop id="stop125" offset=".186" stop-color="#5d899f" stop-opacity=".933"/><stop id="stop127" offset=".525" stop-color="#4b88b1" stop-opacity=".811"/><stop id="stop129" offset=".744" stop-color="#3887bf" stop-opacity=".732"/><stop id="stop131" offset="1" stop-color="#406eb5" stop-opacity=".64"/></radialGradient><radialGradient id="4" cx="-7.109" cy="-8.416" r="3.864" gradientTransform="matrix(.9996 -.0276 .0138 .4998 .113 -4.405)" gradientUnits="userSpaceOnUse" xlink:href="#2"/><radialGradient id="p" cx="-1.229" cy="8.36" r="20.56" gradientTransform="matrix(.9996 -.0276 .0138 .4998 -.116 4.148)" gradientUnits="userSpaceOnUse" xlink:href="#2"/><radialGradient id="j" cx="-1.04" cy="8.279" r="19.608" gradientTransform="matrix(.9996 -.0276 .0138 .4998 -.115 4.112)" gradientUnits="userSpaceOnUse" xlink:href="#2"/><radialGradient id="a" cx="-.45" cy="8.328" r="17.797" gradientTransform="matrix(.9996 -.0276 .0138 .4998 -.115 4.153)" gradientUnits="userSpaceOnUse" xlink:href="#2"/><radialGradient id="D" cx="-1.179" cy="8.319" r="20.317" gradientTransform="matrix(.9996 -.0276 .0138 .4998 -.115 4.129)" gradientUnits="userSpaceOnUse" xlink:href="#2"/><radialGradient id="Y" cx="-1.249" cy="8.32" r="20.799" gradientTransform="matrix(.9996 -.0276 .0138 .4998 -.115 4.127)" gradientUnits="userSpaceOnUse" xlink:href="#2"/><radialGradient id="W" cx="-1.41" cy="8.535" r="21.295" gradientTransform="matrix(.9996 -.0276 .0138 .4998 -.118 4.231)" gradientUnits="userSpaceOnUse" xlink:href="#2"/><radialGradient id="U" cx="-.841" cy="8.105" r="19.1" gradientTransform="matrix(.9996 -.0276 .0138 .4998 -.112 4.03)" gradientUnits="userSpaceOnUse" xlink:href="#2"/><radialGradient id="S" cx="-1.415" cy="8.356" r="21.647" gradientTransform="matrix(.9996 -.0276 .0138 .4998 -.116 4.141)" gradientUnits="userSpaceOnUse" xlink:href="#2"/><radialGradient id="7" cx="-1.971" cy="8.237" r="23.979" gradientTransform="matrix(.9996 -.0276 .0138 .4998 -.114 4.066)" gradientUnits="userSpaceOnUse" xlink:href="#2"/><radialGradient id="c" cx="-.536" cy="8.437" r="17.956" gradientTransform="matrix(.9996 -.0276 .0138 .4998 -.117 4.205)" gradientUnits="userSpaceOnUse" xlink:href="#2"/><radialGradient id="h" cx="-1.238" cy="8.286" r="20.596" gradientTransform="matrix(.9996 -.0276 .0138 .4998 -.115 4.11)" gradientUnits="userSpaceOnUse" xlink:href="#2"/><radialGradient id="e" cx="-.814" cy="8.319" r="18.745" gradientTransform="matrix(.9996 -.0276 .0138 .4998 -.115 4.139)" gradientUnits="userSpaceOnUse" xlink:href="#2"/><radialGradient id="9" cx="-1.256" cy="8.319" r="20.795" gradientTransform="matrix(.9996 -.0276 .0138 .4998 -.115 4.127)" gradientUnits="userSpaceOnUse" xlink:href="#2"/><radialGradient id="f" cx="-1.369" cy="8.358" r="21.236" gradientTransform="matrix(.9996 -.0276 .0138 .4998 -.116 4.143)" gradientUnits="userSpaceOnUse" xlink:href="#2"/></defs><path id="path148" fill="#6ea6c1" fill-rule="evenodd" d="m471.95 253.05c0 120.9-98.01 218.9-218.9 218.9-120.9 0-218.9-98.01-218.9-218.9 0-120.9 98.01-218.9 218.9-218.9 120.9 0 218.9 98.01 218.9 218.9"/><path id="path150" fill-opacity=".235" d="m261.34 101.34-2.156 3.03c-24.17 33.922-43.24 69.23-58.25 105.63-4.337 10.513-8.293 21.12-11.969 31.813l-2.25 1.625c-19.257 14-42.915 28.374-58.688 46.06-0.023 0.026-1.5 1.688-1.5 1.688 0.022 0.026 1.438 1.719 1.438 1.719 1.755 2.168 3.675 4.271 5.75 6.313 0.396 0.404 0.81 0.789 1.219 1.188 0.252 0.255 0.493 0.528 0.75 0.781 0.384 0.392 0.792 0.769 1.188 1.156 0.109 0.11 0.203 0.234 0.313 0.344 0.302 0.292 0.597 0.585 0.906 0.875 0.01 0.011 0.021 0.021 0.031 0.031 0.026 0.026 0.036 0.067 0.063 0.094 0.074 0.072 0.144 0.147 0.219 0.219 0.39 0.401 0.786 0.791 1.188 1.188 0.426 0.436 0.872 0.851 1.313 1.281 0.031 0.032 0.063 0.062 0.094 0.094 0.17 0.171 0.328 0.361 0.5 0.531 0.411 0.421 0.826 0.834 1.25 1.25 0.134 0.136 0.271 0.27 0.406 0.406 0.122 0.118 0.252 0.226 0.375 0.344 0.005 0.005-0.005 0.026 0 0.031-0.018 0.189-0.048 0.374-0.063 0.563-0.058 0.755-0.123 1.477-0.156 2.063-0.034 0.585-0.113 1.218-0.063 0.938v0.031c-2.898 18.04-6.315 20.65-18.281 31l-2.125 1.844 1.969 2.031 1 1 1 1c0.292 0.288 0.591 0.599 0.875 0.875l0.125 0.125c0.061 0.059 0.127 0.098 0.188 0.156 0.163 0.16 0.34 0.344 0.5 0.5l0.281 0.313c0.231 0.228 0.494 0.468 0.719 0.688l0.281 0.313c0.231 0.228 0.494 0.468 0.719 0.688l0.281 0.313c0.228 0.225 0.496 0.47 0.719 0.688 0.074 0.076 0.281 0.313 0.281 0.313 0.176 0.178 0.327 0.327 0.5 0.5 0.06 0.059 0.128 0.129 0.188 0.188 0.081 0.084 0.313 0.313 0.313 0.313 0.292 0.288 0.591 0.599 0.875 0.875 0.014 0.015 0.125 0.125 0.125 0.125 0.061 0.059 0.127 0.098 0.188 0.156 0.163 0.16 0.34 0.344 0.5 0.5 0.074 0.076 0.281 0.313 0.281 0.313 0.231 0.228 0.494 0.468 0.719 0.688 0.074 0.076 0.281 0.313 0.281 0.313 0.231 0.228 0.494 0.468 0.719 0.688 0.074 0.076 0.281 0.313 0.281 0.313 0.228 0.225 0.496 0.47 0.719 0.688 0.074 0.076 0.281 0.313 0.281 0.313 0.224 0.221 0.469 0.474 0.688 0.688 0.081 0.084 0.313 0.313 0.313 0.313 0.224 0.221 0.469 0.474 0.688 0.688 0.081 0.084 0.313 0.313 0.313 0.313 0.292 0.288 0.591 0.599 0.875 0.875 0.008 0.009 0.094 0.094 0.094 0.094 0.072 0.07 0.148 0.119 0.219 0.188 0.163 0.16 0.34 0.344 0.5 0.5 0.074 0.076 0.281 0.313 0.281 0.313 0.231 0.228 0.494 0.468 0.719 0.688 0.074 0.076 0.281 0.313 0.281 0.313 0.228 0.225 0.496 0.47 0.719 0.688 0.074 0.076 0.281 0.313 0.281 0.313 0.224 0.221 0.469 0.474 0.688 0.688 0.081 0.084 0.313 0.313 0.313 0.313 0.224 0.221 0.469 0.474 0.688 0.688 0.081 0.084 0.313 0.313 0.313 0.313 0.292 0.288 0.591 0.599 0.875 0.875l0.094 0.094c0.072 0.07 0.148 0.119 0.219 0.188 0.163 0.16 0.34 0.344 0.5 0.5 0.074 0.076 0.281 0.313 0.281 0.313 0.231 0.228 0.494 0.468 0.719 0.688 0.074 0.076 0.281 0.313 0.281 0.313 0.228 0.225 0.496 0.47 0.719 0.688 0.074 0.076 0.281 0.313 0.281 0.313 0.228 0.225 0.496 0.47 0.719 0.688 0.074 0.076 0.281 0.313 0.281 0.313 0.176 0.178 0.327 0.327 0.5 0.5 0.06 0.059 0.128 0.129 0.188 0.188 0.081 0.084 0.313 0.313 0.313 0.313 0.292 0.288 0.591 0.599 0.875 0.875 0.014 0.015 0.125 0.125 0.125 0.125 0.061 0.059 0.127 0.098 0.188 0.156 0.163 0.16 0.34 0.344 0.5 0.5 0.074 0.076 0.281 0.313 0.281 0.313 0.231 0.228 0.494 0.468 0.719 0.688 0.074 0.076 0.281 0.313 0.281 0.313 0.231 0.228 0.494 0.468 0.719 0.688 0.074 0.076 0.281 0.313 0.281 0.313 0.228 0.225 0.496 0.47 0.719 0.688 0.074 0.076 0.281 0.313 0.281 0.313 0.176 0.178 0.327 0.327 0.5 0.5 0.138 0.135 0.27 0.274 0.406 0.406l0.094 0.094c0.093 0.091 0.189 0.161 0.281 0.25 0.005 0.005-0.005 0.026 0 0.031-0.342 2.724-0.722 5.454-1.031 8.188l-0.469 4 1.156-0.344-0.156 1.344 1.156-0.344-0.156 1.344 1.156-0.344-0.156 1.344 1.125-0.344c-0.068 0.579-0.156 1.313-0.156 1.313s0.671-0.198 1.156-0.344c-0.07 0.599-0.156 1.344-0.156 1.344s0.671-0.198 1.156-0.344c-0.07 0.599-0.156 1.344-0.156 1.344 0.001 0 0.671-0.198 1.156-0.344-0.07 0.599-0.156 1.344-0.156 1.344 0.001 0 0.671-0.198 1.156-0.344-0.07 0.599-0.156 1.344-0.156 1.344 0.001 0 0.671-0.198 1.156-0.344-0.07 0.599-0.156 1.344-0.156 1.344 0.001 0 0.658-0.203 1.125-0.344l-0.156 1.313c0.001 0 0.671-0.198 1.156-0.344-0.07 0.599-0.156 1.344-0.156 1.344 0.001 0 0.671-0.198 1.156-0.344-0.07 0.599-0.156 1.344-0.156 1.344 0.001 0 0.671-0.198 1.156-0.344l-0.156 1.344c0.001 0 0.671-0.198 1.156-0.344-0.07 0.599-0.156 1.344-0.156 1.344 0.001 0 0.671-0.198 1.156-0.344-0.07 0.599-0.156 1.344-0.156 1.344 0.001 0 0.658-0.203 1.125-0.344-0.068 0.578-0.156 1.313-0.156 1.313 0.001 0 0.671-0.198 1.156-0.344-0.07 0.599-0.156 1.344-0.156 1.344 0.001 0 0.671-0.198 1.156-0.344-0.07 0.599-0.156 1.344-0.156 1.344 0.001-0.001 0.671-0.198 1.156-0.344-0.07 0.599-0.156 1.344-0.156 1.344 0.002-0.001 0.671-0.198 1.156-0.344-0.07 0.599-0.156 1.344-0.156 1.344 0.002-0.001 0.671-0.198 1.156-0.344-0.07 0.599-0.156 1.344-0.156 1.344 0.002-0.001 0.658-0.203 1.125-0.344-0.068 0.578-0.156 1.313-0.156 1.313 0.002-0.001 0.671-0.198 1.156-0.344l-0.156 1.344c0.002-0.001 0.67-0.198 1.156-0.344-0.07 0.599-0.156 1.344-0.156 1.344 0.002-0.001 0.67-0.198 1.156-0.344-0.07 0.599-0.156 1.344-0.156 1.344 0.002-0.001 0.67-0.198 1.156-0.344l-0.156 1.344c0.002-0.001 0.67-0.198 1.156-0.344-0.07 0.599-0.156 1.344-0.156 1.344 0.002-0.001 0.67-0.198 1.156-0.344-0.07 0.598-0.156 1.344-0.156 1.344 0.002-0.001 0.658-0.203 1.125-0.344-0.068 0.578-0.156 1.313-0.156 1.313 0.003-0.001 0.67-0.198 1.156-0.344-0.07 0.598-0.156 1.344-0.156 1.344 0.003-0.001 0.67-0.198 1.156-0.344-0.07 0.598-0.156 1.344-0.156 1.344 0.003-0.001 0.67-0.198 1.156-0.344-0.07 0.598-0.156 1.344-0.156 1.344 0.003-0.001 0.67-0.198 1.156-0.344-0.07 0.598-0.156 1.344-0.156 1.344l1.156-0.344c-0.07 0.598-0.156 1.344-0.156 1.344l1.125-0.344c-0.068 0.578-0.156 1.313-0.156 1.313 0.003-0.001 0.67-0.198 1.156-0.344-0.07 0.598-0.156 1.344-0.156 1.344 0.003-0.001 0.67-0.198 1.156-0.344-0.07 0.598-0.156 1.344-0.156 1.344 0.003-0.001 0.67-0.198 1.156-0.344-0.07 0.598-0.156 1.344-0.156 1.344 0.003-0.001 0.67-0.198 1.156-0.344-0.07 0.598-0.156 1.344-0.156 1.344 0.003-0.001 0.67-0.198 1.156-0.344-0.07 0.598-0.156 1.344-0.156 1.344 0.003-0.001 0.658-0.203 1.125-0.344-0.068 0.577-0.156 1.313-0.156 1.313 0.004-0.001 0.67-0.198 1.156-0.344-0.07 0.598-0.156 1.344-0.156 1.344 0.004-0.001 0.67-0.198 1.156-0.344-0.07 0.598-0.156 1.344-0.156 1.344 0.004-0.001 0.67-0.198 1.156-0.344-0.07 0.598-0.156 1.344-0.156 1.344 0.004-0.001 0.67-0.198 1.156-0.344-0.07 0.598-0.156 1.344-0.156 1.344 0.004-0.001 0.67-0.198 1.156-0.344-0.07 0.598-0.156 1.344-0.156 1.344 0.004-0.001 0.67-0.198 1.156-0.344-0.07 0.598-0.156 1.344-0.156 1.344 0.004-0.001 0.658-0.203 1.125-0.344-0.068 0.577-0.156 1.313-0.156 1.313 0.004-0.001 0.67-0.198 1.156-0.344-0.07 0.598-0.156 1.344-0.156 1.344 0.004-0.001 0.67-0.198 1.156-0.344-0.07 0.598-0.156 1.344-0.156 1.344 0.004-0.001 0.67-0.198 1.156-0.344-0.07 0.598-0.156 1.344-0.156 1.344 0.005-0.002 0.67-0.198 1.156-0.344-0.07 0.598-0.156 1.344-0.156 1.344 0.005-0.002 0.67-0.198 1.156-0.344-0.07 0.598-0.156 1.344-0.156 1.344 0.005-0.001 0.658-0.203 1.125-0.344-0.068 0.577-0.156 1.313-0.156 1.313 0.005-0.002 0.67-0.198 1.156-0.344-0.07 0.598-0.156 1.344-0.156 1.344 0.005-0.002 0.67-0.198 1.156-0.344l-0.156 1.344c0.005-0.002 0.67-0.198 1.156-0.344-0.07 0.597-0.156 1.344-0.156 1.344 0.005-0.002 0.67-0.198 1.156-0.344-0.07 0.597-0.156 1.344-0.156 1.344 0.005-0.002 0.67-0.198 1.156-0.344-0.07 0.597-0.156 1.344-0.156 1.344 0.005-0.001 0.658-0.203 1.125-0.344-0.068 0.577-0.156 1.313-0.156 1.313 0.005-0.002 0.67-0.198 1.156-0.344-0.07 0.597-0.156 1.344-0.156 1.344 0.005-0.002 0.67-0.198 1.156-0.344-0.07 0.597-0.156 1.344-0.156 1.344 0.005-0.002 0.67-0.198 1.156-0.344-0.07 0.597-0.156 1.344-0.156 1.344 0.006-0.002 0.67-0.198 1.156-0.344-0.07 0.597-0.156 1.344-0.156 1.344 0.006-0.002 0.67-0.198 1.156-0.344-0.07 0.597-0.156 1.344-0.156 1.344 0.006-0.002 0.658-0.203 1.125-0.344-0.068 0.577-0.156 1.313-0.156 1.313 0.006-0.002 0.67-0.198 1.156-0.344-0.07 0.597-0.156 1.344-0.156 1.344 0.006-0.002 0.67-0.198 1.156-0.344-0.07 0.597-0.156 1.344-0.156 1.344 0.006-0.002 0.67-0.198 1.156-0.344-0.07 0.597-0.156 1.344-0.156 1.344 0.006-0.002 0.67-0.198 1.156-0.344-0.07 0.597-0.156 1.344-0.156 1.344 0.006-0.002 0.67-0.198 1.156-0.344-0.07 0.597-0.156 1.344-0.156 1.344 0.006-0.002 0.67-0.198 1.156-0.344-0.07 0.597-0.156 1.344-0.156 1.344 0.006-0.002 0.658-0.203 1.125-0.344-0.068 0.576-0.156 1.313-0.156 1.313 0.006-0.002 0.67-0.198 1.156-0.344-0.07 0.597-0.156 1.344-0.156 1.344 0.007-0.002 0.67-0.198 1.156-0.344-0.07 0.597-0.156 1.344-0.156 1.344 0.007-0.002 0.67-0.198 1.156-0.344-0.07 0.597-0.156 1.344-0.156 1.344 0.007-0.002 0.67-0.198 1.156-0.344-0.07 0.597-0.156 1.344-0.156 1.344 0.007-0.002 0.67-0.198 1.156-0.344-0.07 0.597-0.156 1.344-0.156 1.344 0.007-0.002 0.658-0.203 1.125-0.344-0.058 0.493-0.105 0.96-0.125 1.125 0.156 0.013 0.312 0.019 0.469 0.031 0.237-0.07 0.381-0.105 0.656-0.188-0.013 0.111-0.018 0.134-0.031 0.25 5.569 0.425 11.197 0.656 16.875 0.656 102.31 0 188.25-70.21 212.25-165.06-0.593-0.847-1.181-1.684-1.781-2.531-0.033-0.047-2.156-3.03-2.156-3.03l-0.156 0.188-0.844-1.188-0.156 0.188c-0.398-0.56-0.844-1.188-0.844-1.188l-0.156 0.188c-0.398-0.56-0.844-1.188-0.844-1.188l-0.125 0.188-0.844-1.156-0.156 0.188c-0.398-0.56-0.844-1.188-0.844-1.188l-0.156 0.188c-0.398-0.56-0.844-1.188-0.844-1.188l-0.156 0.188-0.844-1.188-0.156 0.188c-0.398-0.56-0.844-1.188-0.844-1.188l-0.156 0.188c-0.398-0.56-0.844-1.188-0.844-1.188l-0.125 0.188c-0.389-0.547-0.844-1.156-0.844-1.156l-0.156 0.188c-0.398-0.56-0.844-1.188-0.844-1.188l-0.156 0.188c-0.398-0.56-0.844-1.188-0.844-1.188l-0.156 0.188c-0.398-0.56-0.844-1.188-0.844-1.188l-0.156 0.188c-0.398-0.56-0.844-1.188-0.844-1.188l-0.156 0.188c-0.398-0.56-0.844-1.188-0.844-1.188l-0.125 0.188c-0.389-0.547-0.844-1.156-0.844-1.156l-0.156 0.188c-0.398-0.56-0.844-1.188-0.844-1.188l-0.156 0.188c-0.398-0.56-0.844-1.188-0.844-1.188l-0.156 0.188c-0.398-0.56-0.844-1.188-0.844-1.188l-0.156 0.188c-0.399-0.56-0.844-1.188-0.844-1.188l-0.156 0.188c-0.399-0.56-0.844-1.188-0.844-1.188l-0.156 0.188c-0.389-0.546-0.813-1.156-0.813-1.156l-0.156 0.188c-0.399-0.56-0.844-1.188-0.844-1.188l-0.156 0.188c-0.399-0.56-0.844-1.188-0.844-1.188l-0.156 0.188c-0.399-0.56-0.844-1.188-0.844-1.188l-0.156 0.188c-0.399-0.56-0.844-1.188-0.844-1.188l-0.156 0.188c-0.399-0.56-0.844-1.188-0.844-1.188l-0.156 0.188c-0.399-0.56-0.844-1.188-0.844-1.188l-0.125 0.188c-0.389-0.547-0.844-1.156-0.844-1.156l-0.156 0.188c-0.399-0.561-0.844-1.188-0.844-1.188l-0.156 0.188c-0.399-0.561-0.844-1.188-0.844-1.188l-0.156 0.188c-0.399-0.561-0.844-1.188-0.844-1.188l-0.156 0.188c-0.399-0.561-0.844-1.188-0.844-1.188l-0.156 0.188c-0.399-0.561-0.844-1.188-0.844-1.188l-0.125 0.188c-0.389-0.547-0.844-1.156-0.844-1.156l-0.156 0.188c-0.399-0.561-0.844-1.188-0.844-1.188l-0.156 0.188c-0.399-0.561-0.844-1.188-0.844-1.188l-0.156 0.188-0.844-1.188-0.156 0.188c-0.399-0.561-0.844-1.188-0.844-1.188l-0.156 0.188c-0.399-0.561-0.844-1.188-0.844-1.188l-0.125 0.188-0.844-1.156-0.156 0.188c-0.399-0.561-0.844-1.188-0.844-1.188l-0.156 0.188-0.844-1.188-0.156 0.188-0.844-1.188-0.156 0.188c-0.399-0.561-0.844-1.188-0.844-1.188l-0.156 0.188-0.844-1.188-0.156 0.188-0.844-1.188-0.125 0.188c-0.39-0.548-0.844-1.156-0.844-1.156l-0.156 0.188-0.844-1.188-0.156 0.188-0.844-1.188-0.156 0.188c-0.399-0.561-0.844-1.188-0.844-1.188l-0.156 0.188c-0.399-0.561-0.844-1.188-0.844-1.188l-0.156 0.188-0.844-1.188-0.125 0.188c-0.39-0.548-0.844-1.156-0.844-1.156l-0.156 0.188c-0.399-0.561-0.844-1.188-0.844-1.188l-0.156 0.188-0.844-1.188-0.156 0.188c-0.399-0.561-0.844-1.188-0.844-1.188l-0.156 0.188c-0.399-0.561-0.844-1.188-0.844-1.188l-0.156 0.188-0.844-1.188-0.125 0.188c-0.39-0.548-0.844-1.156-0.844-1.156l-0.156 0.188c-0.399-0.561-0.844-1.188-0.844-1.188l-0.156 0.188-0.844-1.188-0.156 0.188c-0.399-0.562-0.844-1.188-0.844-1.188l-0.156 0.188c-0.399-0.562-0.844-1.188-0.844-1.188l-0.156 0.188c-0.399-0.562-0.844-1.188-0.844-1.188l-0.156 0.188c-0.389-0.547-0.813-1.156-0.813-1.156l-0.156 0.188c-0.4-0.562-0.844-1.188-0.844-1.188l-0.156 0.188c-0.4-0.562-0.844-1.188-0.844-1.188l-0.156 0.188c-0.4-0.562-0.844-1.188-0.844-1.188l-0.156 0.188c-0.4-0.562-0.844-1.188-0.844-1.188l-0.156 0.188c-0.4-0.562-0.844-1.188-0.844-1.188l-0.156 0.188c-0.4-0.562-0.844-1.188-0.844-1.188l-0.125 0.188c-0.39-0.548-0.844-1.156-0.844-1.156l-0.156 0.188c-0.4-0.562-0.844-1.188-0.844-1.188l-0.156 0.188c-0.4-0.562-0.844-1.188-0.844-1.188l-0.156 0.188c-0.4-0.562-0.844-1.188-0.844-1.188l-0.156 0.188c-0.4-0.562-0.844-1.188-0.844-1.188l-0.156 0.188c-0.4-0.562-0.844-1.188-0.844-1.188l-0.125 0.188c-0.39-0.549-0.844-1.156-0.844-1.156l-0.156 0.188-0.844-1.188-0.156 0.188c-0.4-0.562-0.844-1.188-0.844-1.188l-0.156 0.188c-0.4-0.562-0.844-1.188-0.844-1.188l-0.156 0.188-0.844-1.188-0.156 0.188c-0.4-0.562-0.844-1.188-0.844-1.188l-0.125 0.188c-0.39-0.549-0.844-1.156-0.844-1.156l-0.156 0.188-0.844-1.188-0.156 0.188c-0.4-0.562-0.844-1.188-0.844-1.188l-0.156 0.188c-0.4-0.562-0.844-1.188-0.844-1.188l-0.156 0.188-0.844-1.188-0.156 0.188c-0.4-0.562-0.844-1.188-0.844-1.188l-0.156 0.188c-0.4-0.562-0.844-1.188-0.844-1.188l-0.125 0.188-0.844-1.156-0.156 0.188c-0.4-0.562-0.844-1.188-0.844-1.188l-0.156 0.188c-0.4-0.562-0.844-1.188-0.844-1.188l-0.156 0.188-0.844-1.188-0.156 0.188c-0.4-0.563-0.844-1.188-0.844-1.188l-0.156 0.188c-0.4-0.563-0.844-1.188-0.844-1.188l-0.125 0.188-0.844-1.156-0.156 0.188c-0.4-0.563-0.844-1.188-0.844-1.188l-0.156 0.188c-0.4-0.563-0.844-1.188-0.844-1.188l-0.156 0.188-0.844-1.188-0.156 0.188c-0.4-0.563-0.844-1.188-0.844-1.188l-0.156 0.188c-0.4-0.563-0.844-1.188-0.844-1.188l-0.125 0.188-0.844-1.156-0.156 0.188c-0.4-0.563-0.844-1.188-0.844-1.188l-0.156 0.188c-0.4-0.563-0.844-1.188-0.844-1.188l-0.156 0.188-0.844-1.188-0.156 0.188c-0.4-0.563-0.844-1.188-0.844-1.188l-0.156 0.188c-0.4-0.563-0.844-1.188-0.844-1.188l-0.125 0.188-0.844-1.156-0.156 0.188c-0.4-0.563-0.844-1.188-0.844-1.188l-0.156 0.188c-0.4-0.563-0.844-1.188-0.844-1.188l-0.156 0.188-0.844-1.188-0.156 0.188c-0.401-0.563-0.844-1.188-0.844-1.188l-0.156 0.188c-0.401-0.563-0.844-1.188-0.844-1.188l-0.156 0.188c-0.401-0.563-0.844-1.188-0.844-1.188l-0.125 0.188c-0.391-0.55-0.844-1.156-0.844-1.156l-0.156 0.188c-0.401-0.563-0.844-1.188-0.844-1.188l-0.156 0.188c-0.401-0.563-0.844-1.188-0.844-1.188l-0.156 0.188c-0.401-0.563-0.844-1.188-0.844-1.188l-0.156 0.188c-0.401-0.563-0.844-1.188-0.844-1.188l-0.156 0.188c-0.401-0.563-0.844-1.188-0.844-1.188l-0.125 0.188c-0.391-0.55-0.844-1.156-0.844-1.156l-0.156 0.188c-0.401-0.563-0.844-1.188-0.844-1.188l-0.156 0.188c-0.401-0.563-0.844-1.188-0.844-1.188l-0.156 0.188c-0.401-0.563-0.844-1.188-0.844-1.188l-0.156 0.188c-0.401-0.563-0.844-1.188-0.844-1.188l-0.156 0.188c-0.401-0.563-0.844-1.188-0.844-1.188l-0.125 0.188c-0.391-0.55-0.844-1.156-0.844-1.156l-0.156 0.188c-0.401-0.564-0.844-1.188-0.844-1.188l-0.156 0.188c-0.401-0.564-0.844-1.188-0.844-1.188l-0.156 0.188c-0.401-0.564-0.844-1.188-0.844-1.188l-0.156 0.188c-0.401-0.564-0.844-1.188-0.844-1.188l-0.156 0.188c-0.401-0.564-0.844-1.188-0.844-1.188l-0.156 0.188c-0.401-0.564-0.844-1.188-0.844-1.188l-0.125 0.188c-0.391-0.55-0.844-1.156-0.844-1.156l-0.156 0.188c-0.401-0.564-0.844-1.188-0.844-1.188l-0.156 0.188c-0.401-0.564-0.844-1.188-0.844-1.188l-0.156 0.188c-0.401-0.564-0.844-1.188-0.844-1.188l-0.156 0.188-0.844-1.188-0.156 0.188c-0.401-0.564-0.844-1.188-0.844-1.188l-0.125 0.188c-0.392-0.55-0.844-1.156-0.844-1.156l-0.156 0.188c-0.401-0.564-0.844-1.188-0.844-1.188l-0.156 0.188c-0.401-0.564-0.844-1.188-0.844-1.188l-0.156 0.188c-0.401-0.564-0.844-1.188-0.844-1.188l-0.156 0.188c-0.401-0.564-0.844-1.188-0.844-1.188l-0.156 0.188c-0.401-0.564-0.844-1.188-0.844-1.188l-0.125 0.188c-0.392-0.551-0.844-1.156-0.844-1.156l-0.156 0.188c-0.401-0.564-0.844-1.188-0.844-1.188l-0.156 0.188c-0.401-0.564-0.844-1.188-0.844-1.188l-0.156 0.188c-0.401-0.564-0.844-1.188-0.844-1.188l-0.156 0.188c-0.401-0.564-0.844-1.188-0.844-1.188l-0.156 0.188c-0.401-0.564-0.844-1.188-0.844-1.188l-0.125 0.188c-0.392-0.551-0.844-1.156-0.844-1.156l-0.156 0.188c-0.401-0.564-0.844-1.188-0.844-1.188l-0.156 0.188c-0.401-0.564-0.844-1.188-0.844-1.188l-0.156 0.188c-0.401-0.564-0.844-1.188-0.844-1.188l-0.156 0.188c-0.401-0.564-0.844-1.188-0.844-1.188l-0.156 0.188c-0.401-0.564-0.844-1.188-0.844-1.188l-0.156 0.188c-0.401-0.564-0.844-1.188-0.844-1.188l-0.125 0.188c-0.392-0.551-0.844-1.156-0.844-1.156l-0.156 0.188c-0.402-0.564-0.844-1.188-0.844-1.188l-0.156 0.188c-0.402-0.564-0.844-1.188-0.844-1.188l-0.156 0.188c-0.402-0.564-0.844-1.188-0.844-1.188l-0.156 0.188c-0.402-0.565-0.844-1.188-0.844-1.188l-0.156 0.188c-0.402-0.565-0.844-1.188-0.844-1.188l-0.125 0.188c-0.392-0.551-0.844-1.156-0.844-1.156l-0.156 0.188c-0.402-0.565-0.844-1.188-0.844-1.188l-0.156 0.188c-0.402-0.565-0.844-1.188-0.844-1.188l-0.156 0.188c-0.402-0.565-0.844-1.188-0.844-1.188l-0.156 0.188c-0.402-0.565-0.844-1.188-0.844-1.188l-0.156 0.188c-0.402-0.565-0.844-1.188-0.844-1.188l-0.125 0.188c-0.392-0.551-0.844-1.156-0.844-1.156l-0.156 0.188c-0.402-0.565-0.844-1.188-0.844-1.188l-0.156 0.188c-0.402-0.565-0.844-1.188-0.844-1.188l-0.156 0.188c-0.402-0.565-0.844-1.188-0.844-1.188l-0.156 0.188c-0.402-0.565-0.844-1.188-0.844-1.188l-0.156 0.188c-0.402-0.565-0.844-1.188-0.844-1.188l-0.156 0.188c-0.402-0.565-0.844-1.188-0.844-1.188l-0.125 0.188c-0.392-0.552-0.844-1.156-0.844-1.156l-0.156 0.188c-0.402-0.565-0.844-1.188-0.844-1.188l-0.156 0.188c-0.402-0.565-0.844-1.188-0.844-1.188l-0.156 0.188c-0.402-0.565-0.844-1.188-0.844-1.188l-0.156 0.188c-0.402-0.565-0.844-1.188-0.844-1.188l-0.156 0.188c-0.402-0.565-0.844-1.188-0.844-1.188l-0.125 0.188c-0.393-0.552-0.844-1.156-0.844-1.156l-0.156 0.188c-0.402-0.565-0.844-1.188-0.844-1.188l-0.156 0.188c-0.402-0.565-0.844-1.188-0.844-1.188l-0.156 0.188c-0.402-0.565-0.844-1.188-0.844-1.188l-0.156 0.188c-0.402-0.565-0.844-1.188-0.844-1.188l-0.156 0.188c-0.402-0.565-0.844-1.188-0.844-1.188l-0.125 0.188c-0.393-0.552-0.844-1.156-0.844-1.156l-0.156 0.188c-0.402-0.565-0.844-1.188-0.844-1.188l-0.156 0.188c-0.402-0.565-0.844-1.188-0.844-1.188l-0.156 0.188c-0.402-0.566-0.844-1.188-0.844-1.188l-0.156 0.188c-0.402-0.566-0.844-1.188-0.844-1.188l-0.156 0.188-0.844-1.188-0.125 0.188-0.844-1.156-0.156 0.188-0.844-1.188-0.156 0.188-0.844-1.188-0.156 0.188-0.844-1.188"/><g id="g152" transform="translate(2106,-33.418)"><symbol id="symbol154" viewBox="-14.006 -13.196 28.013 26.392"><use id="use156" width="512" height="512" x="0" y="0" fill="url(#0)" xlink:href="#u"/><use id="use158" width="512" height="512" x="0" y="0" fill="url(#1)" xlink:href="#u"/><g id="g160" opacity=".81"><use id="use162" width="512" height="512" x="0" y="0" fill="url(#S)" xlink:href="#u"/></g><g id="g164" opacity=".7"><use id="use166" width="512" height="512" x="0" y="0" fill="url(#T)" xlink:href="#u"/></g></symbol><symbol id="symbol168" viewBox="-9.085 -13 18.17 26"><use id="use170" width="512" height="512" x="0" y="0" fill="url(#1E)" xlink:href="#v"/><use id="use172" width="512" height="512" x="0" y="0" fill="url(#2)" opacity=".81" xlink:href="#v"/><use id="use174" width="512" height="512" x="0" y="0" fill="url(#1F)" opacity=".7" xlink:href="#v"/><use id="use176" width="512" height="512" x="0" y="0" fill="url(#3)" xlink:href="#w"/><use id="use178" width="512" height="512" x="0" y="0" fill="url(#4)" opacity=".81" xlink:href="#w"/><use id="use180" width="512" height="512" x="0" y="0" fill="url(#5)" opacity=".7" xlink:href="#w"/></symbol><symbol id="symbol182" viewBox="-18.023 -13.082 36.047 26.164"><use id="use184" width="512" height="512" x="0" y="0" fill="url(#6)" xlink:href="#x"/><use id="use186" width="512" height="512" x="0" y="0" fill="url(#7)" opacity=".81" xlink:href="#x"/><use id="use188" width="512" height="512" x="0" y="0" fill="url(#8)" opacity=".7" xlink:href="#x"/></symbol><symbol id="symbol190" viewBox="-12.408 -12.557 24.817 25.114"><use id="use192" width="512" height="512" x="0" y="0" fill="url(#1E)" xlink:href="#y"/><use id="use194" width="512" height="512" x="0" y="0" fill="url(#9)" opacity=".81" xlink:href="#y"/><use id="use196" width="512" height="512" x="0" y="0" fill="url(#1F)" opacity=".7" xlink:href="#y"/></symbol><symbol id="symbol198" viewBox="-8.71 -13.216 17.421 26.431"><use id="use200" width="512" height="512" x="0" y="0" fill="url(#A)" xlink:href="#z"/><use id="use202" width="512" height="512" x="0" y="0" fill="url(#B)" xlink:href="#z"/><g id="g204" opacity=".81"><use id="use206" width="512" height="512" x="0" y="0" fill="url(#U)" xlink:href="#z"/></g><g id="g208" opacity=".7"><use id="use210" width="512" height="512" x="0" y="0" fill="url(#V)" xlink:href="#z"/></g></symbol><symbol id="symbol212" viewBox="-13.473 -13.109 26.945 26.218"><use id="use214" width="512" height="512" x="0" y="0" fill="url(#C)" xlink:href="#10"/><g id="g216" opacity=".81"><use id="use218" width="512" height="512" x="0" y="0" fill="url(#W)" xlink:href="#10"/></g><g id="g220" opacity=".7"><use id="use222" width="512" height="512" x="0" y="0" fill="url(#X)" xlink:href="#10"/></g></symbol><symbol id="symbol224" viewBox="-11.468 -13 22.936 26"><use id="use226" width="512" height="512" x="0" y="0" fill="url(#1E)" xlink:href="#11"/><use id="use228" width="512" height="512" x="0" y="0" fill="url(#D)" opacity=".81" xlink:href="#11"/><use id="use230" width="512" height="512" x="0" y="0" fill="url(#1F)" opacity=".7" xlink:href="#11"/></symbol><symbol id="symbol232" viewBox="-12.423 -12.58 24.846 25.16"><use id="use234" width="512" height="512" x="0" y="0" fill="url(#E)" xlink:href="#12"/><use id="use236" width="512" height="512" x="0" y="0" fill="url(#F)" xlink:href="#12"/><g id="g238" opacity=".81"><use id="use240" width="512" height="512" x="0" y="0" fill="url(#Y)" xlink:href="#12"/></g><g id="g242" opacity=".7"><use id="use244" width="512" height="512" x="0" y="0" fill="url(#Z)" xlink:href="#12"/></g></symbol><symbol id="symbol246" viewBox="-4.515 -12.992 9.029 25.984"><use id="use248" width="512" height="512" x="0" y="0" fill="url(#G)" xlink:href="#13"/><g id="g250" opacity=".81"><use id="use252" width="512" height="512" x="0" y="0" fill="url(#a)" xlink:href="#13"/></g><g id="g254" opacity=".7"><use id="use256" width="512" height="512" x="0" y="0" fill="url(#b)" xlink:href="#13"/></g></symbol><symbol id="symbol258" viewBox="-5.005 -12.966 10.01 25.934"><use id="use260" width="512" height="512" x="0" y="0" fill="url(#H)" xlink:href="#14"/><g id="g262" opacity=".81"><use id="use264" width="512" height="512" x="0" y="0" fill="url(#c)" xlink:href="#14"/></g><g id="g266" opacity=".7"><use id="use268" width="512" height="512" x="0" y="0" fill="url(#d)" xlink:href="#14"/></g></symbol><symbol id="symbol270" viewBox="-7.674 -13 15.346 26"><use id="use272" width="512" height="512" x="0" y="0" fill="url(#1E)" xlink:href="#15"/><g id="g274" opacity=".81"><use id="use276" width="512" height="512" x="0" y="0" fill="url(#e)" xlink:href="#15"/></g><g id="g278" opacity=".7"><use id="use280" width="512" height="512" x="0" y="0" fill="url(#1F)" xlink:href="#15"/></g></symbol><symbol id="symbol282" viewBox="-13.234 -12.959 26.468 25.918"><use id="use284" width="512" height="512" x="0" y="0" fill="url(#I)" xlink:href="#16"/><g id="g286" opacity=".81"><use id="use288" width="512" height="512" x="0" y="0" fill="url(#f)" xlink:href="#16"/></g><g id="g290" opacity=".7"><use id="use292" width="512" height="512" x="0" y="0" fill="url(#g)" xlink:href="#16"/></g></symbol><symbol id="symbol294" viewBox="-11.989 -12.933 23.978 25.865"><use id="use296" width="512" height="512" x="0" y="0" fill="url(#J)" xlink:href="#17"/><g id="g298" opacity=".81"><use id="use300" width="512" height="512" x="0" y="0" fill="url(#h)" xlink:href="#17"/></g><g id="g302" opacity=".7"><use id="use304" width="512" height="512" x="0" y="0" fill="url(#i)" xlink:href="#17"/></g></symbol><symbol id="symbol306" viewBox="-9.887 -13.095 19.774 26.191"><use id="use308" width="512" height="512" x="0" y="0" fill="url(#K)" xlink:href="#18"/><g id="g310" opacity=".81"><use id="use312" width="512" height="512" x="0" y="0" fill="url(#j)" xlink:href="#18"/></g><g id="g314" opacity=".7"><use id="use316" width="512" height="512" x="0" y="0" fill="url(#k)" xlink:href="#18"/></g></symbol><symbol id="symbol318" viewBox="-17.032 -13.004 34.063 26.008"><use id="use320" width="512" height="512" x="0" y="0" fill="url(#L)" xlink:href="#19"/><use id="use322" width="512" height="512" x="0" y="0" fill="url(#M)" xlink:href="#19"/><g id="g324" opacity=".81"><use id="use326" width="512" height="512" x="0" y="0" fill="url(#l)" xlink:href="#19"/></g><g id="g328" opacity=".7"><use id="use330" width="512" height="512" x="0" y="0" fill="url(#m)" xlink:href="#19"/></g></symbol><symbol id="symbol332" viewBox="-4.418 -12.984 8.836 25.968"><use id="use334" width="512" height="512" x="0" y="0" fill="url(#N)" xlink:href="#1A"/><g id="g336" opacity=".81"><use id="use338" width="512" height="512" x="0" y="0" fill="url(#n)" xlink:href="#1A"/></g><g id="g340" opacity=".7"><use id="use342" width="512" height="512" x="0" y="0" fill="url(#o)" xlink:href="#1A"/></g></symbol><symbol id="symbol344" viewBox="-9.623 -12.902 19.247 25.805"><use id="use346" width="512" height="512" x="0" y="0" fill="url(#O)" xlink:href="#1B"/><use id="use348" width="512" height="512" x="0" y="0" fill="url(#P)" opacity=".81" xlink:href="#1B"/><use id="use350" width="512" height="512" x="0" y="0" fill="url(#Q)" opacity=".7" xlink:href="#1B"/></symbol><symbol id="symbol352" viewBox="-11.915 -12.868 23.829 25.735"><use id="use354" width="512" height="512" x="0" y="0" fill="url(#R)" xlink:href="#1C"/><g id="g356" opacity=".81"><use id="use358" width="512" height="512" x="0" y="0" fill="url(#p)" xlink:href="#1C"/></g><g id="g360" opacity=".7"><use id="use362" width="512" height="512" x="0" y="0" fill="url(#q)" xlink:href="#1C"/></g></symbol><symbol id="symbol364" viewBox="-6.073 -13.074 12.14 26.145"><use id="use366" width="512" height="512" x="0" y="0" fill="url(#r)" xlink:href="#1D"/><g id="g368" opacity=".81"><use id="use370" width="512" height="512" x="0" y="0" fill="url(#s)" xlink:href="#1D"/></g><g id="g372" opacity=".7"><use id="use374" width="512" height="512" x="0" y="0" fill="url(#t)" xlink:href="#1D"/></g></symbol></g><path id="path376" fill="#fff" d="m261.34 101.34-2.156 3.03c-24.17 33.922-43.24 69.23-58.25 105.63-4.337 10.513-8.293 21.12-11.969 31.813l-2.25 1.625c-19.257 14-42.915 28.374-58.688 46.06l-1.5 1.688 1.438 1.719c4.289 5.3 9.547 10.229 15.719 14.75-0.096 0.627-0.169 1.287-0.219 1.938-0.058 0.755-0.123 1.477-0.156 2.063-0.034 0.586-0.113 1.218-0.063 0.938v0.031c-2.898 18.04-6.315 20.65-18.281 31l-2.125 1.844 1.969 2.031c7.537 7.59 12.07 11.447 17.5 13.375 4.781 1.697 10.199 1.757 18 1.938-1.254 8.638-2.422 17.292-3.406 26l-0.469 4 3.844-1.156 81.56-24.719c0.085-0.021 0.074-0.011 0.156-0.031 6.352-1.549 5.776-1.632 10.563-1.719 6.109-0.111 6.02 0.097 10.813 1.406v-0.031l82.09 23.469 3.188 0.906 0.156-3.281c0.452-8.247 0.622-16.499 0.625-24.75 8.975-0.229 14.717-0.184 19.813-1.875 5.6-1.858 10.169-5.708 17.938-13.531l1.969-2.031-2.125-1.844c-11.965-10.349-15.351-12.954-18.25-31h-0.031v-0.031c0.05 0.281-0.029-0.352-0.063-0.938-0.034-0.585-0.067-1.307-0.125-2.063-0.045-0.587-0.107-1.18-0.188-1.75 6.272-3.988 10.96-9.67 15.594-14.813l1.563-1.75-1.563-1.781c-13.407-14.996-29.35-28.634-51-44.03-3.225-11.12-6.911-22.23-11.156-33.34-13.724-35.935-32.908-71.866-58.31-107.75l-2.156-3.03m-76.875 154.81c-5.984 18.967-11.1 38.15-15.281 57.59-0.228-0.087-0.48-0.226-0.688-0.281-0.754-0.199-1.519-0.305-2.281-0.406-0.763-0.101-1.534-0.171-2.094-0.25-0.28-0.039-0.581-0.143-0.719-0.188l-3.063-1.656c-6.394-6.284-10.316-13.747-18.844-20.03 14.775-10.32 29.698-22.599 42.969-34.781m152.38 4.03c11.284 10.711 22.04 21.22 34.844 30.813-8.06 6.107-13.343 13.492-19.969 19.969l-3.25 1.75c-0.066 0.024-0.234 0.088-0.406 0.125-0.345 0.073-0.831 0.14-1.344 0.25-0.049 0.01-0.107 0.052-0.156 0.063-2.056-17.655-5.289-35.31-9.719-52.969"/><g id="g388" fill-rule="evenodd"><path id="path390" fill-opacity=".067" d="m256 1c-140.83 0-255 114.17-255 255s114.17 255 255 255 255-114.17 255-255-114.17-255-255-255m8.827 44.931c120.9 0 218.9 98 218.9 218.9s-98 218.9-218.9 218.9-218.93-98-218.93-218.9 98.03-218.9 218.93-218.9"/><g id="g392" fill-opacity=".129"><path id="path394" d="m256 4.433c-138.94 0-251.57 112.63-251.57 251.57s112.63 251.57 251.57 251.57 251.57-112.63 251.57-251.57-112.63-251.57-251.57-251.57m5.885 38.556c120.9 0 218.9 98 218.9 218.9s-98 218.9-218.9 218.9-218.93-98-218.93-218.9 98.03-218.9 218.93-218.9"/><path id="path396" d="m256 8.356c-136.77 0-247.64 110.87-247.64 247.64s110.87 247.64 247.64 247.64 247.64-110.87 247.64-247.64-110.87-247.64-247.64-247.64m2.942 31.691c120.9 0 218.9 98 218.9 218.9s-98 218.9-218.9 218.9-218.93-98-218.93-218.9 98.03-218.9 218.93-218.9"/></g><path id="path398" fill="#fff" stroke="#000" stroke-opacity=".31" stroke-width="4.904" d="m253.04 7.859c-135.42 0-245.19 109.78-245.19 245.19 0 135.42 109.78 245.19 245.19 245.19 135.42 0 245.19-109.78 245.19-245.19 0-135.42-109.78-245.19-245.19-245.19zm0 26.297c120.9 0 218.9 98 218.9 218.9s-98 218.9-218.9 218.9-218.93-98-218.93-218.9 98.03-218.9 218.93-218.9z"/></g></svg>