<svg xmlns="http://www.w3.org/2000/svg" viewBox="0 0 512 512"><defs><clipPath><rect y="6" x="6" rx="6" height="84" width="84" style="fill:#fff"/></clipPath><clipPath><path d="m470.41 253.05c0 120.9-98.01 218.91-218.91 218.91-120.9 0-218.91-98.01-218.91-218.91 0-120.9 98.01-218.91 218.91-218.91 120.9 0 218.91 98.01 218.91 218.91"/></clipPath><filter style="color-interpolation-filters:sRGB"><feGaussianBlur stdDeviation="1.71"/></filter><filter height="1.384" width="1.384" y="-.192" x="-.192" style="color-interpolation-filters:sRGB"><feGaussianBlur stdDeviation="5.28"/></filter><linearGradient gradientTransform="scale(1.0059.99417)" gradientUnits="userSpaceOnUse" y2="7.02" x2="0" y1="92.54"><stop/><stop offset="1" style="stop-opacity:.588"/></linearGradient><linearGradient gradientUnits="userSpaceOnUse" y2="138.66" x2="0" y1="20.221"><stop style="stop-color:#fff"/><stop offset="1" style="stop-color:#fff;stop-opacity:0"/></linearGradient><radialGradient gradientUnits="userSpaceOnUse" cx="64" cy="64" r="64"><stop style="stop-color:#fff"/><stop offset=".688" style="stop-color:#e8e8e8"/><stop offset=".875" style="stop-color:#686868"/><stop offset="1"/></radialGradient></defs><text y="231.36" x="729.64" line-height="125%" style="letter-spacing:0;word-spacing:0;font-size:129.23;font-family:Gentium Book Basic"><tspan y="231.36" x="729.64"/></text><text transform="scale(4.0128.2492)" y="579.26" x="378.91" style="font-size:46.954;font-family:Arial;text-anchor:middle"/><text y="151.36" x="1310.91" line-height="125%" style="letter-spacing:0;word-spacing:0;font-size:129.23;font-family:Gentium Book Basic"><tspan y="151.36" x="1310.91"/></text><text transform="scale(4.0128.2492)" y="258.22" x="523.76" style="font-size:46.954;font-family:Arial;text-anchor:middle"/><text y="-29.9" x="239.33" line-height="125%" style="letter-spacing:0;word-spacing:0;font-size:129.23;font-family:Gentium Book Basic"><tspan y="-29.9" x="239.33"/></text><text transform="scale(4.0128.2492)" y="-469.13" x="256.72" style="font-size:46.954;font-family:Arial;text-anchor:middle"/><text y="-246.37" x="1337.38" line-height="125%" style="letter-spacing:0;word-spacing:0;font-size:129.23;font-family:Gentium Book Basic"><tspan y="-246.37" x="1337.38"/></text><text transform="scale(4.0128.2492)" y="-1337.8" x="530.36" style="font-size:46.954;font-family:Arial;text-anchor:middle"/><text y="-326.37" x="1918.65" line-height="125%" style="letter-spacing:0;word-spacing:0;font-size:129.23;font-family:Gentium Book Basic"><tspan y="-326.37" x="1918.65"/></text><text transform="scale(4.0128.2492)" y="-1658.83" x="675.21" style="font-size:46.954;font-family:Arial;text-anchor:middle"/><text y="-798.77" x="1529.53" line-height="125%" style="letter-spacing:0;word-spacing:0;font-size:129.23;font-family:Gentium Book Basic"><tspan y="-798.77" x="1529.53"/></text><text transform="scale(4.0128.2492)" y="-3554.48" x="578.24" style="font-size:46.954;font-family:Arial;text-anchor:middle"/><text y="-878.78" x="2110.79" line-height="125%" style="letter-spacing:0;word-spacing:0;font-size:129.23;font-family:Gentium Book Basic"><tspan y="-878.78" x="2110.79"/></text><text transform="scale(4.0128.2492)" y="-3875.52" x="723.09" style="font-size:46.954;font-family:Arial;text-anchor:middle"/><text y="535.94" x="277.99" line-height="125%" style="letter-spacing:0;word-spacing:0;font-size:208.33;font-family:Gentium Book Basic"><tspan y="535.94" x="277.99"/></text><g style="fill-rule:evenodd"><path d="m471.95 253.05c0 120.9-98.01 218.9-218.9 218.9-120.9 0-218.9-98.01-218.9-218.9 0-120.9 98.01-218.9 218.9-218.9 120.9 0 218.9 98.01 218.9 218.9" style="fill:#18222d"/><path d="m447.66 152.78c5.31 10.284 9.821 21.03 13.469 32.19v13.594c0 2.223 1.777 4.03 4 4.03h.969c3.824 16.202 5.844 33.1 5.844 50.47 0 19.659-2.609 38.687-7.469 56.813-1.906.31-3.344 1.938-3.344 3.938v7.313c-4.348 13.3-9.934 26.02-16.625 38.06h-229.75c-4.396 0-7.938-3.541-7.938-7.938v-190.53c0-4.396 3.541-7.938 7.938-7.938h232.91m-271.22 0c4.396 0 7.938 3.541 7.938 7.938v190.53c0 4.396-3.541 7.938-7.938 7.938h-114.87c-17.462-31.438-27.406-67.61-27.406-106.12 0-36.14 8.768-70.24 24.281-100.28h118m259.31 20.75h-11.03c-2.223 0-4.03 1.808-4.03 4.03v21c0 2.223 1.808 4.03 4.03 4.03h11.03c2.223 0 4.03-1.808 4.03-4.03v-21c0-2.223-1.808-4.03-4.03-4.03m-40.41 0h-11.06c-2.223 0-4 1.808-4 4.03v21c0 2.223 1.777 4.03 4 4.03h11.06c2.223 0 4-1.808 4-4.03v-21c0-2.223-1.777-4.03-4-4.03m-40.41 0h-11.06c-2.223 0-4.03 1.808-4.03 4.03v21c0 2.223 1.808 4.03 4.03 4.03h11.06c2.223 0 4-1.808 4-4.03v-21c0-2.223-1.777-4.03-4-4.03m-40.44 0h-11.03c-2.223 0-4.03 1.808-4.03 4.03v21c0 2.223 1.808 4.03 4.03 4.03h11.03c2.223 0 4.03-1.808 4.03-4.03v-21c0-2.223-1.808-4.03-4.03-4.03m-40.41 0h-11.06c-2.223 0-4 1.808-4 4.03v21c0 2.223 1.777 4.03 4 4.03h11.06c2.223 0 4-1.808 4-4.03v-21c0-2.223-1.777-4.03-4-4.03m-40.41 0h-11.06c-2.223 0-4.03 1.808-4.03 4.03v21c0 2.223 1.808 4.03 4.03 4.03h11.06c2.223 0 4-1.808 4-4.03v-21c0-2.223-1.777-4.03-4-4.03m-77.22 0h-11.06c-2.223 0-4 1.808-4 4.03v21c0 2.223 1.777 4.03 4 4.03h11.06c2.223 0 4-1.808 4-4.03v-21c0-2.223-1.777-4.03-4-4.03m-40.41 0h-11.06c-2.223 0-4.03 1.808-4.03 4.03v21c0 2.223 1.808 4.03 4.03 4.03h11.06c2.223 0 4-1.808 4-4.03v-21c0-2.223-1.777-4.03-4-4.03m-40.44 0h-11.06c-2.223 0-4 1.808-4 4.03v21c0 2.223 1.777 4.03 4 4.03h11.06c2.223 0 4.03-1.808 4.03-4.03v-21c0-2.223-1.808-4.03-4.03-4.03m80.84 132.34h-11.06c-2.223 0-4 1.777-4 4v21.03c0 2.223 1.777 4 4 4h11.06c2.223 0 4-1.777 4-4v-21.03c0-2.223-1.777-4-4-4m-40.41 0h-11.06c-2.223 0-4.03 1.777-4.03 4v21.03c0 2.223 1.808 4 4.03 4h11.06c2.223 0 4-1.777 4-4v-21.03c0-2.223-1.777-4-4-4m-40.44 0h-11.06c-2.223 0-4 1.777-4 4v21.03c0 2.223 1.777 4 4 4h11.06c2.223 0 4.03-1.777 4.03-4v-21.03c0-2.223-1.808-4-4.03-4m360.13 3.938h-11.03c-2.223 0-4.03 1.777-4.03 4v21.03c0 2.223 1.808 4 4.03 4h11.03c2.223 0 4.03-1.777 4.03-4v-21.03c0-2.223-1.808-4-4.03-4m-40.41 0h-11.06c-2.223 0-4 1.777-4 4v21.03c0 2.223 1.777 4 4 4h11.06c2.223 0 4-1.777 4-4v-21.03c0-2.223-1.777-4-4-4m-40.41 0h-11.06c-2.223 0-4.03 1.777-4.03 4v21.03c0 2.223 1.808 4 4.03 4h11.06c2.223 0 4-1.777 4-4v-21.03c0-2.223-1.777-4-4-4m-40.44 0h-11.03c-2.223 0-4.03 1.777-4.03 4v21.03c0 2.223 1.808 4 4.03 4h11.03c2.223 0 4.03-1.777 4.03-4v-21.03c0-2.223-1.808-4-4.03-4m-40.41 0h-11.06c-2.223 0-4 1.777-4 4v21.03c0 2.223 1.777 4 4 4h11.06c2.223 0 4-1.777 4-4v-21.03c0-2.223-1.777-4-4-4m-40.41 0h-11.06c-2.223 0-4.03 1.777-4.03 4v21.03c0 2.223 1.808 4 4.03 4h11.06c2.223 0 4-1.777 4-4v-21.03c0-2.223-1.777-4-4-4" style="fill:#fff;opacity:.25;color:#000"/><path d="m256 1c-140.83 0-255 114.17-255 255 0 140.83 114.17 255 255 255 140.83 0 255-114.17 255-255 0-140.83-114.17-255-255-255m8.827 44.931c120.9 0 218.9 98 218.9 218.9 0 120.9-98 218.9-218.9 218.9-120.9 0-218.93-98-218.93-218.9 0-120.9 98.03-218.9 218.93-218.9" style="fill-opacity:.067"/><g style="fill-opacity:.129"><path d="m256 4.433c-138.94 0-251.57 112.63-251.57 251.57 0 138.94 112.63 251.57 251.57 251.57 138.94 0 251.57-112.63 251.57-251.57 0-138.94-112.63-251.57-251.57-251.57m5.885 38.556c120.9 0 218.9 98 218.9 218.9 0 120.9-98 218.9-218.9 218.9-120.9 0-218.93-98-218.93-218.9 0-120.9 98.03-218.9 218.93-218.9"/><path d="m256 8.356c-136.77 0-247.64 110.87-247.64 247.64 0 136.77 110.87 247.64 247.64 247.64 136.77 0 247.64-110.87 247.64-247.64 0-136.77-110.87-247.64-247.64-247.64m2.942 31.691c120.9 0 218.9 98 218.9 218.9 0 120.9-98 218.9-218.9 218.9-120.9 0-218.93-98-218.93-218.9 0-120.9 98.03-218.9 218.93-218.9"/></g><path d="m253.04 7.859c-135.42 0-245.19 109.78-245.19 245.19 0 135.42 109.78 245.19 245.19 245.19 135.42 0 245.19-109.78 245.19-245.19 0-135.42-109.78-245.19-245.19-245.19zm0 26.297c120.9 0 218.9 98 218.9 218.9 0 120.9-98 218.9-218.9 218.9-120.9 0-218.93-98-218.93-218.9 0-120.9 98.03-218.9 218.93-218.9z" style="stroke-opacity:.31;fill:#fff;stroke:#000;stroke-width:4.904"/></g><text x="729.64" y="231.36" line-height="125%" style="letter-spacing:0;word-spacing:0;font-size:129.23;font-family:&apos;Gentium Book Basic&apos;"><tspan x="729.64" y="231.36"/></text><text x="378.91" y="579.25" transform="scale(4.0128.2492)" style="font-size:46.954;font-family:Arial;text-anchor:middle"/><text x="1310.91" y="151.36" line-height="125%" style="letter-spacing:0;word-spacing:0;font-size:129.23;font-family:&apos;Gentium Book Basic&apos;"><tspan x="1310.91" y="151.36"/></text><text x="523.76" y="258.22" transform="scale(4.0128.2492)" style="font-size:46.954;font-family:Arial;text-anchor:middle"/><text x="239.33" y="-29.901" line-height="125%" style="letter-spacing:0;word-spacing:0;font-size:129.23;font-family:&apos;Gentium Book Basic&apos;"><tspan x="239.33" y="-29.901"/></text><text x="256.72" y="-469.14" transform="scale(4.0128.2492)" style="font-size:46.954;font-family:Arial;text-anchor:middle"/><text x="1337.38" y="-246.37" line-height="125%" style="letter-spacing:0;word-spacing:0;font-size:129.23;font-family:&apos;Gentium Book Basic&apos;"><tspan x="1337.38" y="-246.37"/></text><text x="530.36" y="-1337.8" transform="scale(4.0128.2492)" style="font-size:46.954;font-family:Arial;text-anchor:middle"/><text x="1918.65" y="-326.38" line-height="125%" style="letter-spacing:0;word-spacing:0;font-size:129.23;font-family:&apos;Gentium Book Basic&apos;"><tspan x="1918.65" y="-326.38"/></text><text x="675.21" y="-1658.84" transform="scale(4.0128.2492)" style="font-size:46.954;font-family:Arial;text-anchor:middle"/><text x="1529.53" y="-798.78" line-height="125%" style="letter-spacing:0;word-spacing:0;font-size:129.23;font-family:&apos;Gentium Book Basic&apos;"><tspan x="1529.53" y="-798.78"/></text><text x="578.24" y="-3554.49" transform="scale(4.0128.2492)" style="font-size:46.954;font-family:Arial;text-anchor:middle"/><text x="2110.79" y="-878.78" line-height="125%" style="letter-spacing:0;word-spacing:0;font-size:129.23;font-family:&apos;Gentium Book Basic&apos;"><tspan x="2110.79" y="-878.78"/></text><text x="723.09" y="-3875.52" transform="scale(4.0128.2492)" style="font-size:46.954;font-family:Arial;text-anchor:middle"/><g line-height="125%" style="letter-spacing:0;word-spacing:0;font-family:&apos;Gentium Book Basic&apos;"><text x="277.99" y="535.94" style="font-size:208.33"><tspan x="277.99" y="535.94"/></text><text x="-1745.96" y="270.87" style="font-size:129.23"><tspan x="-1745.96" y="270.87"/></text></g><text x="-238.01" y="737.79" transform="scale(4.0128.2492)" style="font-size:46.954;font-family:Arial;text-anchor:middle"/><text x="-1164.69" y="190.87" line-height="125%" style="letter-spacing:0;word-spacing:0;font-size:129.23;font-family:&apos;Gentium Book Basic&apos;"><tspan x="-1164.69" y="190.87"/></text><text x="-93.17" y="416.76" transform="scale(4.0128.2492)" style="font-size:46.954;font-family:Arial;text-anchor:middle"/><text x="-2236.27" y="9.608" line-height="125%" style="letter-spacing:0;word-spacing:0;font-size:129.23;font-family:&apos;Gentium Book Basic&apos;"><tspan x="-2236.27" y="9.608"/></text><text x="-360.2" y="-310.6" transform="scale(4.0128.2492)" style="font-size:46.954;font-family:Arial;text-anchor:middle"/><text x="-1138.22" y="-206.86" line-height="125%" style="letter-spacing:0;word-spacing:0;font-size:129.23;font-family:&apos;Gentium Book Basic&apos;"><tspan x="-1138.22" y="-206.86"/></text><text x="-86.57" y="-1179.26" transform="scale(4.0128.2492)" style="font-size:46.954;font-family:Arial;text-anchor:middle"/><text x="-556.95" y="-286.87" line-height="125%" style="letter-spacing:0;word-spacing:0;font-size:129.23;font-family:&apos;Gentium Book Basic&apos;"><tspan x="-556.95" y="-286.87"/></text><text x="58.28" y="-1500.3" transform="scale(4.0128.2492)" style="font-size:46.954;font-family:Arial;text-anchor:middle"/><text x="-946.07" y="-759.27" line-height="125%" style="letter-spacing:0;word-spacing:0;font-size:129.23;font-family:&apos;Gentium Book Basic&apos;"><tspan x="-946.07" y="-759.27"/></text><text x="-38.686" y="-3395.95" transform="scale(4.0128.2492)" style="font-size:46.954;font-family:Arial;text-anchor:middle"/><text x="-364.81" y="-839.27" line-height="125%" style="letter-spacing:0;word-spacing:0;font-size:129.23;font-family:&apos;Gentium Book Basic&apos;"><tspan x="-364.81" y="-839.27"/></text><text x="106.16" y="-3716.98" transform="scale(4.0128.2492)" style="font-size:46.954;font-family:Arial;text-anchor:middle"/><g line-height="125%" style="letter-spacing:0;word-spacing:0;font-family:&apos;Gentium Book Basic&apos;"><text x="-2197.61" y="575.45" style="font-size:208.33"><tspan x="-2197.61" y="575.45"/></text><text x="-1144.61" y="525.1" style="font-size:129.23"><tspan x="-1144.61" y="525.1"/></text></g><text x="-88.16" y="1757.96" transform="scale(4.0128.2492)" style="font-size:46.954;font-family:Arial;text-anchor:middle"/><text x="-563.34" y="445.1" line-height="125%" style="letter-spacing:0;word-spacing:0;font-size:129.23;font-family:&apos;Gentium Book Basic&apos;"><tspan x="-563.34" y="445.1"/></text><text x="56.693" y="1436.93" transform="scale(4.0128.2492)" style="font-size:46.954;font-family:Arial;text-anchor:middle"/><text x="-1634.92" y="263.84" line-height="125%" style="letter-spacing:0;word-spacing:0;font-size:129.23;font-family:&apos;Gentium Book Basic&apos;"><tspan x="-1634.92" y="263.84"/></text><text x="-210.35" y="709.58" transform="scale(4.0128.2492)" style="font-size:46.954;font-family:Arial;text-anchor:middle"/><text x="-536.87" y="47.37" line-height="125%" style="letter-spacing:0;word-spacing:0;font-size:129.23;font-family:&apos;Gentium Book Basic&apos;"><tspan x="-536.87" y="47.37"/></text><text x="63.29" y="-159.09" transform="scale(4.0128.2492)" style="font-size:46.954;font-family:Arial;text-anchor:middle"/><text x="44.4" y="-32.643" line-height="125%" style="letter-spacing:0;word-spacing:0;font-size:129.23;font-family:&apos;Gentium Book Basic&apos;"><tspan x="44.4" y="-32.643"/></text><text x="208.14" y="-480.13" transform="scale(4.0128.2492)" style="font-size:46.954;font-family:Arial;text-anchor:middle"/><text x="-344.72" y="-505.04" line-height="125%" style="letter-spacing:0;word-spacing:0;font-size:129.23;font-family:&apos;Gentium Book Basic&apos;"><tspan x="-344.72" y="-505.04"/></text><text x="111.17" y="-2375.78" transform="scale(4.0128.2492)" style="font-size:46.954;font-family:Arial;text-anchor:middle"/><text x="236.54" y="-585.04" line-height="125%" style="letter-spacing:0;word-spacing:0;font-size:129.23;font-family:&apos;Gentium Book Basic&apos;"><tspan x="236.54" y="-585.04"/></text><text x="256.02" y="-2696.8" transform="scale(4.0128.2492)" style="font-size:46.954;font-family:Arial;text-anchor:middle"/><g line-height="125%" style="letter-spacing:0;word-spacing:0;font-family:&apos;Gentium Book Basic&apos;"><text x="-1596.26" y="829.68" style="font-size:208.33"><tspan x="-1596.26" y="829.68"/></text><text x="1403.27" y="246.55" style="font-size:129.23"><tspan x="1403.27" y="246.55"/></text></g><text x="546.78" y="640.19" transform="scale(4.0128.2492)" style="font-size:46.954;font-family:Arial;text-anchor:middle"/><text x="1984.54" y="166.55" line-height="125%" style="letter-spacing:0;word-spacing:0;font-size:129.23;font-family:&apos;Gentium Book Basic&apos;"><tspan x="1984.54" y="166.55"/></text><text x="691.63" y="319.16" transform="scale(4.0128.2492)" style="font-size:46.954;font-family:Arial;text-anchor:middle"/><text x="912.96" y="-14.715" line-height="125%" style="letter-spacing:0;word-spacing:0;font-size:129.23;font-family:&apos;Gentium Book Basic&apos;"><tspan x="912.96" y="-14.715"/></text><text x="424.59" y="-408.2" transform="scale(4.0128.2492)" style="font-size:46.954;font-family:Arial;text-anchor:middle"/><text x="2011.01" y="-231.18" line-height="125%" style="letter-spacing:0;word-spacing:0;font-size:129.23;font-family:&apos;Gentium Book Basic&apos;"><tspan x="2011.01" y="-231.18"/></text><text x="698.23" y="-1276.86" transform="scale(4.0128.2492)" style="font-size:46.954;font-family:Arial;text-anchor:middle"/><text x="2592.28" y="-311.19" line-height="125%" style="letter-spacing:0;word-spacing:0;font-size:129.23;font-family:&apos;Gentium Book Basic&apos;"><tspan x="2592.28" y="-311.19"/></text><text x="843.08" y="-1597.9" transform="scale(4.0128.2492)" style="font-size:46.954;font-family:Arial;text-anchor:middle"/><text x="2203.16" y="-783.59" line-height="125%" style="letter-spacing:0;word-spacing:0;font-size:129.23;font-family:&apos;Gentium Book Basic&apos;"><tspan x="2203.16" y="-783.59"/></text><text x="746.11" y="-3493.55" transform="scale(4.0128.2492)" style="font-size:46.954;font-family:Arial;text-anchor:middle"/><text x="2784.42" y="-863.59" line-height="125%" style="letter-spacing:0;word-spacing:0;font-size:129.23;font-family:&apos;Gentium Book Basic&apos;"><tspan x="2784.42" y="-863.59"/></text><text x="890.96" y="-3814.58" transform="scale(4.0128.2492)" style="font-size:46.954;font-family:Arial;text-anchor:middle"/><g line-height="125%" style="letter-spacing:0;word-spacing:0;font-family:&apos;Gentium Book Basic&apos;"><text x="951.62" y="551.13" style="font-size:208.33"><tspan x="951.62" y="551.13"/></text><text x="1403.27" y="246.55" style="font-size:129.23"><tspan x="1403.27" y="246.55"/></text></g><text x="546.78" y="640.19" transform="scale(4.0128.2492)" style="font-size:46.954;font-family:Arial;text-anchor:middle"/><text x="1984.54" y="166.55" line-height="125%" style="letter-spacing:0;word-spacing:0;font-size:129.23;font-family:&apos;Gentium Book Basic&apos;"><tspan x="1984.54" y="166.55"/></text><text x="691.63" y="319.16" transform="scale(4.0128.2492)" style="font-size:46.954;font-family:Arial;text-anchor:middle"/><text x="912.96" y="-14.715" line-height="125%" style="letter-spacing:0;word-spacing:0;font-size:129.23;font-family:&apos;Gentium Book Basic&apos;"><tspan x="912.96" y="-14.715"/></text><text x="424.59" y="-408.2" transform="scale(4.0128.2492)" style="font-size:46.954;font-family:Arial;text-anchor:middle"/><text x="2011.01" y="-231.18" line-height="125%" style="letter-spacing:0;word-spacing:0;font-size:129.23;font-family:&apos;Gentium Book Basic&apos;"><tspan x="2011.01" y="-231.18"/></text><text x="698.23" y="-1276.85" transform="scale(4.0128.2492)" style="font-size:46.954;font-family:Arial;text-anchor:middle"/><text x="2592.28" y="-311.19" line-height="125%" style="letter-spacing:0;word-spacing:0;font-size:129.23;font-family:&apos;Gentium Book Basic&apos;"><tspan x="2592.28" y="-311.19"/></text><text x="843.08" y="-1597.89" transform="scale(4.0128.2492)" style="font-size:46.954;font-family:Arial;text-anchor:middle"/><text x="2203.16" y="-783.59" line-height="125%" style="letter-spacing:0;word-spacing:0;font-size:129.23;font-family:&apos;Gentium Book Basic&apos;"><tspan x="2203.16" y="-783.59"/></text><text x="746.11" y="-3493.53" transform="scale(4.0128.2492)" style="font-size:46.954;font-family:Arial;text-anchor:middle"/><text x="2784.42" y="-863.59" line-height="125%" style="letter-spacing:0;word-spacing:0;font-size:129.23;font-family:&apos;Gentium Book Basic&apos;"><tspan x="2784.42" y="-863.59"/></text><text x="890.96" y="-3814.56" transform="scale(4.0128.2492)" style="font-size:46.954;font-family:Arial;text-anchor:middle"/><g line-height="125%" style="letter-spacing:0;word-spacing:0;font-size:208.33;font-family:&apos;Gentium Book Basic&apos;"><text x="951.62" y="551.13"><tspan x="951.62" y="551.13"/></text><text x="-1154.36" y="46.35"><tspan x="-1154.36" y="46.35"/></text></g><text x="30.06" y="-376.91" transform="scale(4.0128.2492)" style="font-size:75.7;font-family:Arial;text-anchor:middle"/><g style="color:#000;fill-rule:evenodd"><path d="m144.53 98.17v315.66l50.27 50.27c18.547 5.107 38.08 7.848 58.25 7.848 100.91 0 185.87-68.29 211.2-161.19l-212.59-212.59h-107.12" style="opacity:.25"/><path d="m144.53 98.17v315.66h107.13v-315.66h-107.12" style="fill:#fff;opacity:.75"/></g></svg>