<svg xmlns="http://www.w3.org/2000/svg" viewBox="0 0 512 512"><text y="231.36" x="729.64" line-height="125%" style="letter-spacing:0;word-spacing:0;font-size:129.23;font-family:Gentium Book Basic"><tspan y="231.36" x="729.64"/></text><text transform="scale(4.0128.2492)" y="579.26" x="378.91" style="font-size:46.954;font-family:Arial;text-anchor:middle"/><text y="151.36" x="1310.91" line-height="125%" style="letter-spacing:0;word-spacing:0;font-size:129.23;font-family:Gentium Book Basic"><tspan y="151.36" x="1310.91"/></text><text transform="scale(4.0128.2492)" y="258.22" x="523.76" style="font-size:46.954;font-family:Arial;text-anchor:middle"/><text y="-29.9" x="239.33" line-height="125%" style="letter-spacing:0;word-spacing:0;font-size:129.23;font-family:Gentium Book Basic"><tspan y="-29.9" x="239.33"/></text><text transform="scale(4.0128.2492)" y="-469.13" x="256.72" style="font-size:46.954;font-family:Arial;text-anchor:middle"/><text y="-246.37" x="1337.38" line-height="125%" style="letter-spacing:0;word-spacing:0;font-size:129.23;font-family:Gentium Book Basic"><tspan y="-246.37" x="1337.38"/></text><text transform="scale(4.0128.2492)" y="-1337.8" x="530.36" style="font-size:46.954;font-family:Arial;text-anchor:middle"/><text y="-326.37" x="1918.65" line-height="125%" style="letter-spacing:0;word-spacing:0;font-size:129.23;font-family:Gentium Book Basic"><tspan y="-326.37" x="1918.65"/></text><text transform="scale(4.0128.2492)" y="-1658.83" x="675.21" style="font-size:46.954;font-family:Arial;text-anchor:middle"/><text y="-798.77" x="1529.53" line-height="125%" style="letter-spacing:0;word-spacing:0;font-size:129.23;font-family:Gentium Book Basic"><tspan y="-798.77" x="1529.53"/></text><text transform="scale(4.0128.2492)" y="-3554.48" x="578.24" style="font-size:46.954;font-family:Arial;text-anchor:middle"/><text y="-878.78" x="2110.79" line-height="125%" style="letter-spacing:0;word-spacing:0;font-size:129.23;font-family:Gentium Book Basic"><tspan y="-878.78" x="2110.79"/></text><text transform="scale(4.0128.2492)" y="-3875.52" x="723.09" style="font-size:46.954;font-family:Arial;text-anchor:middle"/><g line-height="125%" style="letter-spacing:0;word-spacing:0"><text y="535.94" x="277.99" style="font-size:208.33;font-family:Gentium Book Basic"><tspan y="535.94" x="277.99"/></text><text y="231.36" x="729.64" style="font-size:129.23;font-family:&apos;Gentium Book Basic&apos;"><tspan y="231.36" x="729.64"/></text></g><text transform="scale(4.0128.2492)" y="579.26" x="378.91" style="font-size:46.954;font-family:Arial;text-anchor:middle"/><text y="151.36" x="1310.91" line-height="125%" style="letter-spacing:0;word-spacing:0;font-size:129.23;font-family:&apos;Gentium Book Basic&apos;"><tspan y="151.36" x="1310.91"/></text><text transform="scale(4.0128.2492)" y="258.22" x="523.76" style="font-size:46.954;font-family:Arial;text-anchor:middle"/><text y="-29.9" x="239.33" line-height="125%" style="letter-spacing:0;word-spacing:0;font-size:129.23;font-family:&apos;Gentium Book Basic&apos;"><tspan y="-29.9" x="239.33"/></text><text transform="scale(4.0128.2492)" y="-469.13" x="256.72" style="font-size:46.954;font-family:Arial;text-anchor:middle"/><text y="-246.37" x="1337.38" line-height="125%" style="letter-spacing:0;word-spacing:0;font-size:129.23;font-family:&apos;Gentium Book Basic&apos;"><tspan y="-246.37" x="1337.38"/></text><text transform="scale(4.0128.2492)" y="-1337.79" x="530.36" style="font-size:46.954;font-family:Arial;text-anchor:middle"/><text y="-326.37" x="1918.65" line-height="125%" style="letter-spacing:0;word-spacing:0;font-size:129.23;font-family:&apos;Gentium Book Basic&apos;"><tspan y="-326.37" x="1918.65"/></text><text transform="scale(4.0128.2492)" y="-1658.82" x="675.21" style="font-size:46.954;font-family:Arial;text-anchor:middle"/><text y="-798.77" x="1529.53" line-height="125%" style="letter-spacing:0;word-spacing:0;font-size:129.23;font-family:&apos;Gentium Book Basic&apos;"><tspan y="-798.77" x="1529.53"/></text><text transform="scale(4.0128.2492)" y="-3554.46" x="578.24" style="font-size:46.954;font-family:Arial;text-anchor:middle"/><text y="-878.78" x="2110.79" line-height="125%" style="letter-spacing:0;word-spacing:0;font-size:129.23;font-family:&apos;Gentium Book Basic&apos;"><tspan y="-878.78" x="2110.79"/></text><text transform="scale(4.0128.2492)" y="-3875.5" x="723.09" style="font-size:46.954;font-family:Arial;text-anchor:middle"/><g line-height="125%" style="letter-spacing:0;word-spacing:0;font-family:&apos;Gentium Book Basic&apos;"><text y="535.94" x="277.99" style="font-size:208.33"><tspan y="535.94" x="277.99"/></text><text x="729.64" y="231.36" style="font-size:129.23"><tspan x="729.64" y="231.36"/></text></g><text x="378.91" y="579.26" transform="scale(4.0128.2492)" style="font-size:46.954;font-family:Arial;text-anchor:middle"/><text line-height="125%" x="1310.91" y="151.36" style="letter-spacing:0;word-spacing:0;font-size:129.23;font-family:&apos;Gentium Book Basic&apos;"><tspan x="1310.91" y="151.36"/></text><text x="523.76" y="258.22" transform="scale(4.0128.2492)" style="font-size:46.954;font-family:Arial;text-anchor:middle"/><text line-height="125%" x="239.33" y="-29.9" style="letter-spacing:0;word-spacing:0;font-size:129.23;font-family:&apos;Gentium Book Basic&apos;"><tspan x="239.33" y="-29.9"/></text><text x="256.72" y="-469.13" transform="scale(4.0128.2492)" style="font-size:46.954;font-family:Arial;text-anchor:middle"/><text line-height="125%" x="1337.38" y="-246.37" style="letter-spacing:0;word-spacing:0;font-size:129.23;font-family:&apos;Gentium Book Basic&apos;"><tspan x="1337.38" y="-246.37"/></text><text x="530.36" y="-1337.8" transform="scale(4.0128.2492)" style="font-size:46.954;font-family:Arial;text-anchor:middle"/><text line-height="125%" x="1918.65" y="-326.37" style="letter-spacing:0;word-spacing:0;font-size:129.23;font-family:&apos;Gentium Book Basic&apos;"><tspan x="1918.65" y="-326.37"/></text><text x="675.21" y="-1658.83" transform="scale(4.0128.2492)" style="font-size:46.954;font-family:Arial;text-anchor:middle"/><text line-height="125%" x="1529.53" y="-798.77" style="letter-spacing:0;word-spacing:0;font-size:129.23;font-family:&apos;Gentium Book Basic&apos;"><tspan x="1529.53" y="-798.77"/></text><text x="578.24" y="-3554.48" transform="scale(4.0128.2492)" style="font-size:46.954;font-family:Arial;text-anchor:middle"/><text line-height="125%" x="2110.79" y="-878.78" style="letter-spacing:0;word-spacing:0;font-size:129.23;font-family:&apos;Gentium Book Basic&apos;"><tspan x="2110.79" y="-878.78"/></text><text x="723.09" y="-3875.52" transform="scale(4.0128.2492)" style="font-size:46.954;font-family:Arial;text-anchor:middle"/><g line-height="125%" style="letter-spacing:0;word-spacing:0;font-family:&apos;Gentium Book Basic&apos;"><text x="277.99" y="535.94" style="font-size:208.33"><tspan x="277.99" y="535.94"/></text><text y="231.36" x="729.64" style="font-size:129.23"><tspan y="231.36" x="729.64"/></text></g><text transform="scale(4.0128.2492)" y="579.25" x="378.91" style="font-size:46.954;font-family:Arial;text-anchor:middle"/><text y="151.36" x="1310.91" line-height="125%" style="letter-spacing:0;word-spacing:0;font-size:129.23;font-family:&apos;Gentium Book Basic&apos;"><tspan y="151.36" x="1310.91"/></text><text transform="scale(4.0128.2492)" y="258.22" x="523.76" style="font-size:46.954;font-family:Arial;text-anchor:middle"/><text y="-29.901" x="239.33" line-height="125%" style="letter-spacing:0;word-spacing:0;font-size:129.23;font-family:&apos;Gentium Book Basic&apos;"><tspan y="-29.901" x="239.33"/></text><text transform="scale(4.0128.2492)" y="-469.14" x="256.72" style="font-size:46.954;font-family:Arial;text-anchor:middle"/><text y="-246.37" x="1337.38" line-height="125%" style="letter-spacing:0;word-spacing:0;font-size:129.23;font-family:&apos;Gentium Book Basic&apos;"><tspan y="-246.37" x="1337.38"/></text><text transform="scale(4.0128.2492)" y="-1337.8" x="530.36" style="font-size:46.954;font-family:Arial;text-anchor:middle"/><text y="-326.38" x="1918.65" line-height="125%" style="letter-spacing:0;word-spacing:0;font-size:129.23;font-family:&apos;Gentium Book Basic&apos;"><tspan y="-326.38" x="1918.65"/></text><text transform="scale(4.0128.2492)" y="-1658.84" x="675.21" style="font-size:46.954;font-family:Arial;text-anchor:middle"/><text y="-798.78" x="1529.53" line-height="125%" style="letter-spacing:0;word-spacing:0;font-size:129.23;font-family:&apos;Gentium Book Basic&apos;"><tspan y="-798.78" x="1529.53"/></text><text transform="scale(4.0128.2492)" y="-3554.49" x="578.24" style="font-size:46.954;font-family:Arial;text-anchor:middle"/><text y="-878.78" x="2110.79" line-height="125%" style="letter-spacing:0;word-spacing:0;font-size:129.23;font-family:&apos;Gentium Book Basic&apos;"><tspan y="-878.78" x="2110.79"/></text><text transform="scale(4.0128.2492)" y="-3875.52" x="723.09" style="font-size:46.954;font-family:Arial;text-anchor:middle"/><g line-height="125%" style="letter-spacing:0;word-spacing:0;font-family:&apos;Gentium Book Basic&apos;"><text y="535.94" x="277.99" style="font-size:208.33"><tspan y="535.94" x="277.99"/></text><text y="-7.284" x="-715.24" style="font-size:129.23"><tspan y="-7.284" x="-715.24"/></text></g><text transform="scale(4.0128.2492)" y="-378.39" x="18.842" style="font-size:46.954;font-family:Arial;text-anchor:middle"/><text y="-87.28" x="-133.97" line-height="125%" style="letter-spacing:0;word-spacing:0;font-size:129.23;font-family:&apos;Gentium Book Basic&apos;"><tspan y="-87.28" x="-133.97"/></text><text transform="scale(4.0128.2492)" y="-699.42" x="163.69" style="font-size:46.954;font-family:Arial;text-anchor:middle"/><text y="-268.55" x="-1205.55" line-height="125%" style="letter-spacing:0;word-spacing:0;font-size:129.23;font-family:&apos;Gentium Book Basic&apos;"><tspan y="-268.55" x="-1205.55"/></text><text transform="scale(4.0128.2492)" y="-1426.77" x="-103.35" style="font-size:46.954;font-family:Arial;text-anchor:middle"/><text y="-485.01" x="-107.5" line-height="125%" style="letter-spacing:0;word-spacing:0;font-size:129.23;font-family:&apos;Gentium Book Basic&apos;"><tspan y="-485.01" x="-107.5"/></text><text transform="scale(4.0128.2492)" y="-2295.44" x="170.29" style="font-size:46.954;font-family:Arial;text-anchor:middle"/><text y="-565.02" x="473.77" line-height="125%" style="letter-spacing:0;word-spacing:0;font-size:129.23;font-family:&apos;Gentium Book Basic&apos;"><tspan y="-565.02" x="473.77"/></text><text transform="scale(4.0128.2492)" y="-2616.48" x="315.14" style="font-size:46.954;font-family:Arial;text-anchor:middle"/><text y="-1037.42" x="84.65" line-height="125%" style="letter-spacing:0;word-spacing:0;font-size:129.23;font-family:&apos;Gentium Book Basic&apos;"><tspan y="-1037.42" x="84.65"/></text><text transform="scale(4.0128.2492)" y="-4512.13" x="218.17" style="font-size:46.954;font-family:Arial;text-anchor:middle"/><text y="-1117.42" x="665.91" line-height="125%" style="letter-spacing:0;word-spacing:0;font-size:129.23;font-family:&apos;Gentium Book Basic&apos;"><tspan y="-1117.42" x="665.91"/></text><text transform="scale(4.0128.2492)" y="-4833.16" x="363.02" style="font-size:46.954;font-family:Arial;text-anchor:middle"/><g line-height="125%" style="letter-spacing:0;word-spacing:0;font-size:208.33;font-family:&apos;Gentium Book Basic&apos;"><text y="297.3" x="-1166.89"><tspan y="297.3" x="-1166.89"/></text><text y="-199.78" x="-1595.8"><tspan y="-199.78" x="-1595.8"/></text></g><text transform="scale(4.0128.2492)" y="-1364.57" x="-79.947" style="font-size:75.7;font-family:Arial;text-anchor:middle"/><text y="-967.73" x="-2243.56" line-height="125%" style="letter-spacing:0;word-spacing:0;font-size:208.33;font-family:&apos;Gentium Book Basic&apos;"><tspan y="-967.73" x="-2243.56"/></text><text transform="scale(4.0128.2492)" y="-4446.23" x="-241.37" style="font-size:75.7;font-family:Arial;text-anchor:middle"/><text y="-1123.36" x="-1537.22" line-height="125%" style="letter-spacing:0;word-spacing:0;font-size:208.33;font-family:&apos;Gentium Book Basic&apos;"><tspan y="-1123.36" x="-1537.22"/></text><text transform="scale(4.0128.2492)" y="-5070.76" x="-65.35" style="font-size:75.7;font-family:Arial;text-anchor:middle"/><text y="88.17" x="-639.31" line-height="125%" style="letter-spacing:0;word-spacing:0;font-size:129.23;font-family:&apos;Gentium Book Basic&apos;"><tspan y="88.17" x="-639.31"/></text><text transform="scale(4.0128.2492)" y="4.666" x="37.764" style="font-size:46.954;font-family:Arial;text-anchor:middle"/><text y="8.174" x="-58.04" line-height="125%" style="letter-spacing:0;word-spacing:0;font-size:129.23;font-family:&apos;Gentium Book Basic&apos;"><tspan y="8.174" x="-58.04"/></text><text transform="scale(4.0128.2492)" y="-316.36" x="182.61" style="font-size:46.954;font-family:Arial;text-anchor:middle"/><text y="-173.09" x="-1129.62" line-height="125%" style="letter-spacing:0;word-spacing:0;font-size:129.23;font-family:&apos;Gentium Book Basic&apos;"><tspan y="-173.09" x="-1129.62"/></text><text transform="scale(4.0128.2492)" y="-1043.72" x="-84.43" style="font-size:46.954;font-family:Arial;text-anchor:middle"/><text y="-389.56" x="-31.569" line-height="125%" style="letter-spacing:0;word-spacing:0;font-size:129.23;font-family:&apos;Gentium Book Basic&apos;"><tspan y="-389.56" x="-31.569"/></text><text transform="scale(4.0128.2492)" y="-1912.38" x="189.21" style="font-size:46.954;font-family:Arial;text-anchor:middle"/><text y="-469.57" x="549.7" line-height="125%" style="letter-spacing:0;word-spacing:0;font-size:129.23;font-family:&apos;Gentium Book Basic&apos;"><tspan y="-469.57" x="549.7"/></text><text transform="scale(4.0128.2492)" y="-2233.42" x="334.06" style="font-size:46.954;font-family:Arial;text-anchor:middle"/><text y="-941.97" x="160.58" line-height="125%" style="letter-spacing:0;word-spacing:0;font-size:129.23;font-family:&apos;Gentium Book Basic&apos;"><tspan y="-941.97" x="160.58"/></text><text transform="scale(4.0128.2492)" y="-4129.07" x="237.09" style="font-size:46.954;font-family:Arial;text-anchor:middle"/><text y="-1021.97" x="741.84" line-height="125%" style="letter-spacing:0;word-spacing:0;font-size:129.23;font-family:&apos;Gentium Book Basic&apos;"><tspan y="-1021.97" x="741.84"/></text><text transform="scale(4.0128.2492)" y="-4450.1" x="381.94" style="font-size:46.954;font-family:Arial;text-anchor:middle"/><g line-height="125%" style="letter-spacing:0;word-spacing:0;font-family:&apos;Gentium Book Basic&apos;"><text y="392.75" x="-1090.96" style="font-size:208.33"><tspan y="392.75" x="-1090.96"/></text><text y="61.54" x="-643.54" style="font-size:129.23"><tspan y="61.54" x="-643.54"/></text></g><text transform="scale(4.0128.2492)" y="-102.19" x="36.711" style="font-size:46.954;font-family:Arial;text-anchor:middle"/><text y="-18.456" x="-62.27" line-height="125%" style="letter-spacing:0;word-spacing:0;font-size:129.23;font-family:&apos;Gentium Book Basic&apos;"><tspan y="-18.456" x="-62.27"/></text><text transform="scale(4.0128.2492)" y="-423.22" x="181.56" style="font-size:46.954;font-family:Arial;text-anchor:middle"/><text y="-199.72" x="-1133.85" line-height="125%" style="letter-spacing:0;word-spacing:0;font-size:129.23;font-family:&apos;Gentium Book Basic&apos;"><tspan y="-199.72" x="-1133.85"/></text><text transform="scale(4.0128.2492)" y="-1150.58" x="-85.48" style="font-size:46.954;font-family:Arial;text-anchor:middle"/><text y="-416.19" x="-35.796" line-height="125%" style="letter-spacing:0;word-spacing:0;font-size:129.23;font-family:&apos;Gentium Book Basic&apos;"><tspan y="-416.19" x="-35.796"/></text><text transform="scale(4.0128.2492)" y="-2019.24" x="188.16" style="font-size:46.954;font-family:Arial;text-anchor:middle"/><text y="-496.2" x="545.47" line-height="125%" style="letter-spacing:0;word-spacing:0;font-size:129.23;font-family:&apos;Gentium Book Basic&apos;"><tspan y="-496.2" x="545.47"/></text><text transform="scale(4.0128.2492)" y="-2340.28" x="333.01" style="font-size:46.954;font-family:Arial;text-anchor:middle"/><text y="-968.6" x="156.35" line-height="125%" style="letter-spacing:0;word-spacing:0;font-size:129.23;font-family:&apos;Gentium Book Basic&apos;"><tspan y="-968.6" x="156.35"/></text><text transform="scale(4.0128.2492)" y="-4235.93" x="236.04" style="font-size:46.954;font-family:Arial;text-anchor:middle"/><text y="-1048.6" x="737.61" line-height="125%" style="letter-spacing:0;word-spacing:0;font-size:129.23;font-family:&apos;Gentium Book Basic&apos;"><tspan y="-1048.6" x="737.61"/></text><text transform="scale(4.0128.2492)" y="-4556.96" x="380.89" style="font-size:46.954;font-family:Arial;text-anchor:middle"/><g line-height="125%" style="letter-spacing:0;word-spacing:0;font-family:&apos;Gentium Book Basic&apos;"><text y="366.12" x="-1095.19" style="font-size:208.33"><tspan y="366.12" x="-1095.19"/></text><text y="-235.08" x="-695.72" style="font-size:129.23"><tspan y="-235.08" x="-695.72"/></text></g><text transform="scale(4.0128.2492)" y="-1292.5" x="23.708" style="font-size:46.954;font-family:Arial;text-anchor:middle"/><text y="-315.08" x="-114.45" line-height="125%" style="letter-spacing:0;word-spacing:0;font-size:129.23;font-family:&apos;Gentium Book Basic&apos;"><tspan y="-315.08" x="-114.45"/></text><text transform="scale(4.0128.2492)" y="-1613.52" x="168.56" style="font-size:46.954;font-family:Arial;text-anchor:middle"/><text y="-496.34" x="-1186.03" line-height="125%" style="letter-spacing:0;word-spacing:0;font-size:129.23;font-family:&apos;Gentium Book Basic&apos;"><tspan y="-496.34" x="-1186.03"/></text><text transform="scale(4.0128.2492)" y="-2340.88" x="-98.48" style="font-size:46.954;font-family:Arial;text-anchor:middle"/><text y="-712.81" x="-87.976" line-height="125%" style="letter-spacing:0;word-spacing:0;font-size:129.23;font-family:&apos;Gentium Book Basic&apos;"><tspan y="-712.81" x="-87.976"/></text><text transform="scale(4.0128.2492)" y="-3209.55" x="175.16" style="font-size:46.954;font-family:Arial;text-anchor:middle"/><text y="-792.82" x="493.29" line-height="125%" style="letter-spacing:0;word-spacing:0;font-size:129.23;font-family:&apos;Gentium Book Basic&apos;"><tspan y="-792.82" x="493.29"/></text><text transform="scale(4.0128.2492)" y="-3530.58" x="320.01" style="font-size:46.954;font-family:Arial;text-anchor:middle"/><text y="-1265.22" x="104.17" line-height="125%" style="letter-spacing:0;word-spacing:0;font-size:129.23;font-family:&apos;Gentium Book Basic&apos;"><tspan y="-1265.22" x="104.17"/></text><text transform="scale(4.0128.2492)" y="-5426.23" x="223.04" style="font-size:46.954;font-family:Arial;text-anchor:middle"/><text y="-1345.22" x="685.43" line-height="125%" style="letter-spacing:0;word-spacing:0;font-size:129.23;font-family:&apos;Gentium Book Basic&apos;"><tspan y="-1345.22" x="685.43"/></text><text transform="scale(4.0128.2492)" y="-5747.26" x="367.89" style="font-size:46.954;font-family:Arial;text-anchor:middle"/><text y="69.5" x="-1147.37" line-height="125%" style="letter-spacing:0;word-spacing:0;font-size:208.33;font-family:&apos;Gentium Book Basic&apos;"><tspan y="69.5" x="-1147.37"/></text><g style="fill-rule:evenodd"><path d="m471.95 253.05c0 120.9-98.01 218.9-218.9 218.9-120.9 0-218.9-98.01-218.9-218.9 0-120.9 98.01-218.9 218.9-218.9 120.9 0 218.9 98.01 218.9 218.9" style="fill:#9bbe22"/><path d="m256 1c-140.83 0-255 114.17-255 255 0 140.83 114.17 255 255 255 140.83 0 255-114.17 255-255 0-140.83-114.17-255-255-255m8.827 44.931c120.9 0 218.9 98 218.9 218.9 0 120.9-98 218.9-218.9 218.9-120.9 0-218.93-98-218.93-218.9 0-120.9 98.03-218.9 218.93-218.9" style="fill-opacity:.067"/><g style="fill-opacity:.129"><path d="m256 4.433c-138.94 0-251.57 112.63-251.57 251.57 0 138.94 112.63 251.57 251.57 251.57 138.94 0 251.57-112.63 251.57-251.57 0-138.94-112.63-251.57-251.57-251.57m5.885 38.556c120.9 0 218.9 98 218.9 218.9 0 120.9-98 218.9-218.9 218.9-120.9 0-218.93-98-218.93-218.9 0-120.9 98.03-218.9 218.93-218.9"/><path d="m256 8.356c-136.77 0-247.64 110.87-247.64 247.64 0 136.77 110.87 247.64 247.64 247.64 136.77 0 247.64-110.87 247.64-247.64 0-136.77-110.87-247.64-247.64-247.64m2.942 31.691c120.9 0 218.9 98 218.9 218.9 0 120.9-98 218.9-218.9 218.9-120.9 0-218.93-98-218.93-218.9 0-120.9 98.03-218.9 218.93-218.9"/></g><path d="m253.04 7.859c-135.42 0-245.19 109.78-245.19 245.19 0 135.42 109.78 245.19 245.19 245.19 135.42 0 245.19-109.78 245.19-245.19 0-135.42-109.78-245.19-245.19-245.19zm0 26.297c120.9 0 218.9 98 218.9 218.9 0 120.9-98 218.9-218.9 218.9-120.9 0-218.93-98-218.93-218.9 0-120.9 98.03-218.9 218.93-218.9z" style="stroke-opacity:.31;fill:#fff;stroke:#000;stroke-width:4.904"/></g><text y="231.36" x="729.64" line-height="125%" style="letter-spacing:0;word-spacing:0;font-size:129.23;font-family:&apos;Gentium Book Basic&apos;"><tspan y="231.36" x="729.64"/></text><text transform="scale(4.0128.2492)" y="579.25" x="378.91" style="font-size:46.954;font-family:Arial;text-anchor:middle"/><text y="151.36" x="1310.91" line-height="125%" style="letter-spacing:0;word-spacing:0;font-size:129.23;font-family:&apos;Gentium Book Basic&apos;"><tspan y="151.36" x="1310.91"/></text><text transform="scale(4.0128.2492)" y="258.22" x="523.76" style="font-size:46.954;font-family:Arial;text-anchor:middle"/><text y="-29.901" x="239.33" line-height="125%" style="letter-spacing:0;word-spacing:0;font-size:129.23;font-family:&apos;Gentium Book Basic&apos;"><tspan y="-29.901" x="239.33"/></text><text transform="scale(4.0128.2492)" y="-469.14" x="256.72" style="font-size:46.954;font-family:Arial;text-anchor:middle"/><text y="-246.37" x="1337.38" line-height="125%" style="letter-spacing:0;word-spacing:0;font-size:129.23;font-family:&apos;Gentium Book Basic&apos;"><tspan y="-246.37" x="1337.38"/></text><text transform="scale(4.0128.2492)" y="-1337.8" x="530.36" style="font-size:46.954;font-family:Arial;text-anchor:middle"/><text y="-326.38" x="1918.65" line-height="125%" style="letter-spacing:0;word-spacing:0;font-size:129.23;font-family:&apos;Gentium Book Basic&apos;"><tspan y="-326.38" x="1918.65"/></text><text transform="scale(4.0128.2492)" y="-1658.84" x="675.21" style="font-size:46.954;font-family:Arial;text-anchor:middle"/><text y="-798.78" x="1529.53" line-height="125%" style="letter-spacing:0;word-spacing:0;font-size:129.23;font-family:&apos;Gentium Book Basic&apos;"><tspan y="-798.78" x="1529.53"/></text><text transform="scale(4.0128.2492)" y="-3554.49" x="578.24" style="font-size:46.954;font-family:Arial;text-anchor:middle"/><text y="-878.78" x="2110.79" line-height="125%" style="letter-spacing:0;word-spacing:0;font-size:129.23;font-family:&apos;Gentium Book Basic&apos;"><tspan y="-878.78" x="2110.79"/></text><text transform="scale(4.0128.2492)" y="-3875.52" x="723.09" style="font-size:46.954;font-family:Arial;text-anchor:middle"/><g line-height="125%" style="letter-spacing:0;word-spacing:0;font-family:&apos;Gentium Book Basic&apos;"><text y="535.94" x="277.99" style="font-size:208.33"><tspan y="535.94" x="277.99"/></text><text y="88.17" x="-877.95" style="font-size:129.23"><tspan y="88.17" x="-877.95"/></text></g><text transform="scale(4.0128.2492)" y="4.666" x="-21.706" style="font-size:46.954;font-family:Arial;text-anchor:middle"/><text y="8.174" x="-296.68" line-height="125%" style="letter-spacing:0;word-spacing:0;font-size:129.23;font-family:&apos;Gentium Book Basic&apos;"><tspan y="8.174" x="-296.68"/></text><text transform="scale(4.0128.2492)" y="-316.36" x="123.14" style="font-size:46.954;font-family:Arial;text-anchor:middle"/><text y="-173.09" x="-1368.26" line-height="125%" style="letter-spacing:0;word-spacing:0;font-size:129.23;font-family:&apos;Gentium Book Basic&apos;"><tspan y="-173.09" x="-1368.26"/></text><text transform="scale(4.0128.2492)" y="-1043.72" x="-143.9" style="font-size:46.954;font-family:Arial;text-anchor:middle"/><text y="-389.56" x="-270.21" line-height="125%" style="letter-spacing:0;word-spacing:0;font-size:129.23;font-family:&apos;Gentium Book Basic&apos;"><tspan y="-389.56" x="-270.21"/></text><text transform="scale(4.0128.2492)" y="-1912.38" x="129.74" style="font-size:46.954;font-family:Arial;text-anchor:middle"/><text y="-469.57" x="311.06" line-height="125%" style="letter-spacing:0;word-spacing:0;font-size:129.23;font-family:&apos;Gentium Book Basic&apos;"><tspan y="-469.57" x="311.06"/></text><text transform="scale(4.0128.2492)" y="-2233.42" x="274.59" style="font-size:46.954;font-family:Arial;text-anchor:middle"/><text y="-941.97" x="-78.06" line-height="125%" style="letter-spacing:0;word-spacing:0;font-size:129.23;font-family:&apos;Gentium Book Basic&apos;"><tspan y="-941.97" x="-78.06"/></text><text transform="scale(4.0128.2492)" y="-4129.07" x="177.62" style="font-size:46.954;font-family:Arial;text-anchor:middle"/><text y="-1021.97" x="503.2" line-height="125%" style="letter-spacing:0;word-spacing:0;font-size:129.23;font-family:&apos;Gentium Book Basic&apos;"><tspan y="-1021.97" x="503.2"/></text><text transform="scale(4.0128.2492)" y="-4450.1" x="322.47" style="font-size:46.954;font-family:Arial;text-anchor:middle"/><g line-height="125%" style="letter-spacing:0;word-spacing:0;font-size:208.33;font-family:&apos;Gentium Book Basic&apos;"><text y="392.75" x="-1329.6"><tspan y="392.75" x="-1329.6"/></text><text y="-104.32" x="-1758.51"><tspan y="-104.32" x="-1758.51"/></text></g><text transform="scale(4.0128.2492)" y="-981.51" x="-120.49" style="font-size:75.7;font-family:Arial;text-anchor:middle"/><text y="-872.27" x="-2406.27" line-height="125%" style="letter-spacing:0;word-spacing:0;font-size:208.33;font-family:&apos;Gentium Book Basic&apos;"><tspan y="-872.27" x="-2406.27"/></text><text transform="scale(4.0128.2492)" y="-4063.17" x="-281.92" style="font-size:75.7;font-family:Arial;text-anchor:middle"/><text y="-1027.9" x="-1699.93" line-height="125%" style="letter-spacing:0;word-spacing:0;font-size:208.33;font-family:&apos;Gentium Book Basic&apos;"><tspan y="-1027.9" x="-1699.93"/></text><text transform="scale(4.0128.2492)" y="-4687.7" x="-105.9" style="font-size:75.7;font-family:Arial;text-anchor:middle"/><text y="183.63" x="-802.02" line-height="125%" style="letter-spacing:0;word-spacing:0;font-size:129.23;font-family:&apos;Gentium Book Basic&apos;"><tspan y="183.63" x="-802.02"/></text><text transform="scale(4.0128.2492)" y="387.72" x="-2.784" style="font-size:46.954;font-family:Arial;text-anchor:middle"/><text y="103.63" x="-220.75" line-height="125%" style="letter-spacing:0;word-spacing:0;font-size:129.23;font-family:&apos;Gentium Book Basic&apos;"><tspan y="103.63" x="-220.75"/></text><text transform="scale(4.0128.2492)" y="66.69" x="142.07" style="font-size:46.954;font-family:Arial;text-anchor:middle"/><text y="-77.63" x="-1292.33" line-height="125%" style="letter-spacing:0;word-spacing:0;font-size:129.23;font-family:&apos;Gentium Book Basic&apos;"><tspan y="-77.63" x="-1292.33"/></text><text transform="scale(4.0128.2492)" y="-660.66" x="-124.97" style="font-size:46.954;font-family:Arial;text-anchor:middle"/><text y="-294.1" x="-194.28" line-height="125%" style="letter-spacing:0;word-spacing:0;font-size:129.23;font-family:&apos;Gentium Book Basic&apos;"><tspan y="-294.1" x="-194.28"/></text><text transform="scale(4.0128.2492)" y="-1529.33" x="148.67" style="font-size:46.954;font-family:Arial;text-anchor:middle"/><text y="-374.11" x="386.99" line-height="125%" style="letter-spacing:0;word-spacing:0;font-size:129.23;font-family:&apos;Gentium Book Basic&apos;"><tspan y="-374.11" x="386.99"/></text><text transform="scale(4.0128.2492)" y="-1850.37" x="293.51" style="font-size:46.954;font-family:Arial;text-anchor:middle"/><text y="-846.51" x="-2.131" line-height="125%" style="letter-spacing:0;word-spacing:0;font-size:129.23;font-family:&apos;Gentium Book Basic&apos;"><tspan y="-846.51" x="-2.131"/></text><text transform="scale(4.0128.2492)" y="-3746.02" x="196.55" style="font-size:46.954;font-family:Arial;text-anchor:middle"/><text y="-926.51" x="579.13" line-height="125%" style="letter-spacing:0;word-spacing:0;font-size:129.23;font-family:&apos;Gentium Book Basic&apos;"><tspan y="-926.51" x="579.13"/></text><text transform="scale(4.0128.2492)" y="-4067.05" x="341.39" style="font-size:46.954;font-family:Arial;text-anchor:middle"/><g line-height="125%" style="letter-spacing:0;word-spacing:0;font-family:&apos;Gentium Book Basic&apos;"><text y="488.21" x="-1253.67" style="font-size:208.33"><tspan y="488.21" x="-1253.67"/></text><text y="686.33" x="-596.63" style="font-size:129.23"><tspan y="686.33" x="-596.63"/></text></g><text transform="scale(4.0128.2492)" y="2404.96" x="48.4" style="font-size:46.954;font-family:Arial;text-anchor:middle"/><text y="606.33" x="-15.356" line-height="125%" style="letter-spacing:0;word-spacing:0;font-size:129.23;font-family:&apos;Gentium Book Basic&apos;"><tspan y="606.33" x="-15.356"/></text><text transform="scale(4.0128.2492)" y="2083.93" x="193.25" style="font-size:46.954;font-family:Arial;text-anchor:middle"/><text y="425.07" x="-1086.94" line-height="125%" style="letter-spacing:0;word-spacing:0;font-size:129.23;font-family:&apos;Gentium Book Basic&apos;"><tspan y="425.07" x="-1086.94"/></text><text transform="scale(4.0128.2492)" y="1356.58" x="-73.79" style="font-size:46.954;font-family:Arial;text-anchor:middle"/><text y="208.6" x="11.11" line-height="125%" style="letter-spacing:0;word-spacing:0;font-size:129.23;font-family:&apos;Gentium Book Basic&apos;"><tspan y="208.6" x="11.11"/></text><text transform="scale(4.0128.2492)" y="487.91" x="199.85" style="font-size:46.954;font-family:Arial;text-anchor:middle"/><text y="128.59" x="592.38" line-height="125%" style="letter-spacing:0;word-spacing:0;font-size:129.23;font-family:&apos;Gentium Book Basic&apos;"><tspan y="128.59" x="592.38"/></text><text transform="scale(4.0128.2492)" y="166.87" x="344.7" style="font-size:46.954;font-family:Arial;text-anchor:middle"/><text y="-343.81" x="203.26" line-height="125%" style="letter-spacing:0;word-spacing:0;font-size:129.23;font-family:&apos;Gentium Book Basic&apos;"><tspan y="-343.81" x="203.26"/></text><text transform="scale(4.0128.2492)" y="-1728.78" x="247.73" style="font-size:46.954;font-family:Arial;text-anchor:middle"/><text y="-423.81" x="784.52" line-height="125%" style="letter-spacing:0;word-spacing:0;font-size:129.23;font-family:&apos;Gentium Book Basic&apos;"><tspan y="-423.81" x="784.52"/></text><text transform="scale(4.0128.2492)" y="-2049.81" x="392.58" style="font-size:46.954;font-family:Arial;text-anchor:middle"/><g line-height="125%" style="letter-spacing:0;word-spacing:0;font-family:&apos;Gentium Book Basic&apos;"><text y="990.91" x="-1048.28" style="font-size:208.33"><tspan y="990.91" x="-1048.28"/></text><text y="608.23" x="-1540.36" style="font-size:129.23"><tspan y="608.23" x="-1540.36"/></text></g><text transform="scale(4.0128.2492)" y="2091.55" x="-186.78" style="font-size:46.954;font-family:Arial;text-anchor:middle"/><text y="528.23" x="-959.09" line-height="125%" style="letter-spacing:0;word-spacing:0;font-size:129.23;font-family:&apos;Gentium Book Basic&apos;"><tspan y="528.23" x="-959.09"/></text><text transform="scale(4.0128.2492)" y="1770.52" x="-41.928" style="font-size:46.954;font-family:Arial;text-anchor:middle"/><text y="346.97" x="-2030.67" line-height="125%" style="letter-spacing:0;word-spacing:0;font-size:129.23;font-family:&apos;Gentium Book Basic&apos;"><tspan y="346.97" x="-2030.67"/></text><text transform="scale(4.0128.2492)" y="1043.17" x="-308.97" style="font-size:46.954;font-family:Arial;text-anchor:middle"/><text y="130.5" x="-932.62" line-height="125%" style="letter-spacing:0;word-spacing:0;font-size:129.23;font-family:&apos;Gentium Book Basic&apos;"><tspan y="130.5" x="-932.62"/></text><text transform="scale(4.0128.2492)" y="174.5" x="-35.33" style="font-size:46.954;font-family:Arial;text-anchor:middle"/><text y="50.49" x="-351.35" line-height="125%" style="letter-spacing:0;word-spacing:0;font-size:129.23;font-family:&apos;Gentium Book Basic&apos;"><tspan y="50.49" x="-351.35"/></text><text transform="scale(4.0128.2492)" y="-146.54" x="109.52" style="font-size:46.954;font-family:Arial;text-anchor:middle"/><text y="-421.91" x="-740.47" line-height="125%" style="letter-spacing:0;word-spacing:0;font-size:129.23;font-family:&apos;Gentium Book Basic&apos;"><tspan y="-421.91" x="-740.47"/></text><text transform="scale(4.0128.2492)" y="-2042.19" x="12.551" style="font-size:46.954;font-family:Arial;text-anchor:middle"/><text y="-501.91" x="-159.21" line-height="125%" style="letter-spacing:0;word-spacing:0;font-size:129.23;font-family:&apos;Gentium Book Basic&apos;"><tspan y="-501.91" x="-159.21"/></text><text transform="scale(4.0128.2492)" y="-2363.22" x="157.4" style="font-size:46.954;font-family:Arial;text-anchor:middle"/><g line-height="125%" style="letter-spacing:0;word-spacing:0;font-family:&apos;Gentium Book Basic&apos;"><text y="912.81" x="-1992.01" style="font-size:208.33"><tspan y="912.81" x="-1992.01"/></text><text y="683.07" x="-1292.9" style="font-size:129.23"><tspan y="683.07" x="-1292.9"/></text></g><text transform="scale(4.0128.2492)" y="2391.89" x="-125.11" style="font-size:46.954;font-family:Arial;text-anchor:middle"/><text y="603.07" x="-711.63" line-height="125%" style="letter-spacing:0;word-spacing:0;font-size:129.23;font-family:&apos;Gentium Book Basic&apos;"><tspan y="603.07" x="-711.63"/></text><text transform="scale(4.0128.2492)" y="2070.86" x="19.737" style="font-size:46.954;font-family:Arial;text-anchor:middle"/><text y="421.81" x="-1783.21" line-height="125%" style="letter-spacing:0;word-spacing:0;font-size:129.23;font-family:&apos;Gentium Book Basic&apos;"><tspan y="421.81" x="-1783.21"/></text><text transform="scale(4.0128.2492)" y="1343.51" x="-247.3" style="font-size:46.954;font-family:Arial;text-anchor:middle"/><text y="205.34" x="-685.16" line-height="125%" style="letter-spacing:0;word-spacing:0;font-size:129.23;font-family:&apos;Gentium Book Basic&apos;"><tspan y="205.34" x="-685.16"/></text><text transform="scale(4.0128.2492)" y="474.84" x="26.337" style="font-size:46.954;font-family:Arial;text-anchor:middle"/><text y="125.33" x="-103.89" line-height="125%" style="letter-spacing:0;word-spacing:0;font-size:129.23;font-family:&apos;Gentium Book Basic&apos;"><tspan y="125.33" x="-103.89"/></text><text transform="scale(4.0128.2492)" y="153.8" x="171.19" style="font-size:46.954;font-family:Arial;text-anchor:middle"/><text y="-347.07" x="-493.01" line-height="125%" style="letter-spacing:0;word-spacing:0;font-size:129.23;font-family:&apos;Gentium Book Basic&apos;"><tspan y="-347.07" x="-493.01"/></text><text transform="scale(4.0128.2492)" y="-1741.85" x="74.22" style="font-size:46.954;font-family:Arial;text-anchor:middle"/><text y="-427.07" x="88.25" line-height="125%" style="letter-spacing:0;word-spacing:0;font-size:129.23;font-family:&apos;Gentium Book Basic&apos;"><tspan y="-427.07" x="88.25"/></text><text transform="scale(4.0128.2492)" y="-2062.87" x="219.07" style="font-size:46.954;font-family:Arial;text-anchor:middle"/><g line-height="125%" style="letter-spacing:0;word-spacing:0;font-family:&apos;Gentium Book Basic&apos;"><text y="987.65" x="-1744.55" style="font-size:208.33"><tspan y="987.65" x="-1744.55"/></text><text y=".817" x="-2158.94" style="font-size:129.23"><tspan y=".817" x="-2158.94"/></text></g><text transform="scale(4.0128.2492)" y="-345.88" x="-340.93" style="font-size:46.954;font-family:Arial;text-anchor:middle"/><text y="-79.18" x="-1577.67" line-height="125%" style="letter-spacing:0;word-spacing:0;font-size:129.23;font-family:&apos;Gentium Book Basic&apos;"><tspan y="-79.18" x="-1577.67"/></text><text transform="scale(4.0128.2492)" y="-666.91" x="-196.08" style="font-size:46.954;font-family:Arial;text-anchor:middle"/><text y="-260.44" x="-2649.25" line-height="125%" style="letter-spacing:0;word-spacing:0;font-size:129.23;font-family:&apos;Gentium Book Basic&apos;"><tspan y="-260.44" x="-2649.25"/></text><text transform="scale(4.0128.2492)" y="-1394.26" x="-463.12" style="font-size:46.954;font-family:Arial;text-anchor:middle"/><text y="-476.91" x="-1551.2" line-height="125%" style="letter-spacing:0;word-spacing:0;font-size:129.23;font-family:&apos;Gentium Book Basic&apos;"><tspan y="-476.91" x="-1551.2"/></text><text transform="scale(4.0128.2492)" y="-2262.93" x="-189.48" style="font-size:46.954;font-family:Arial;text-anchor:middle"/><text y="-556.92" x="-969.93" line-height="125%" style="letter-spacing:0;word-spacing:0;font-size:129.23;font-family:&apos;Gentium Book Basic&apos;"><tspan y="-556.92" x="-969.93"/></text><text transform="scale(4.0128.2492)" y="-2583.97" x="-44.632" style="font-size:46.954;font-family:Arial;text-anchor:middle"/><text y="-1029.32" x="-1359.05" line-height="125%" style="letter-spacing:0;word-spacing:0;font-size:129.23;font-family:&apos;Gentium Book Basic&apos;"><tspan y="-1029.32" x="-1359.05"/></text><text transform="scale(4.0128.2492)" y="-4479.62" x="-141.6" style="font-size:46.954;font-family:Arial;text-anchor:middle"/><text y="-1109.32" x="-777.79" line-height="125%" style="letter-spacing:0;word-spacing:0;font-size:129.23;font-family:&apos;Gentium Book Basic&apos;"><tspan y="-1109.32" x="-777.79"/></text><text transform="scale(4.0128.2492)" y="-4800.65" x="3.248" style="font-size:46.954;font-family:Arial;text-anchor:middle"/><g line-height="125%" style="letter-spacing:0;word-spacing:0;font-size:208.33;font-family:&apos;Gentium Book Basic&apos;"><text y="305.4" x="-2610.59"><tspan y="305.4" x="-2610.59"/></text><text y="-191.68" x="-3039.5"><tspan y="-191.68" x="-3039.5"/></text></g><text transform="scale(4.0128.2492)" y="-1332.06" x="-439.72" style="font-size:75.7;font-family:Arial;text-anchor:middle"/><text y="-959.63" x="-3687.26" line-height="125%" style="letter-spacing:0;word-spacing:0;font-size:208.33;font-family:&apos;Gentium Book Basic&apos;"><tspan y="-959.63" x="-3687.26"/></text><text transform="scale(4.0128.2492)" y="-4413.72" x="-601.14" style="font-size:75.7;font-family:Arial;text-anchor:middle"/><text y="-1115.26" x="-2980.92" line-height="125%" style="letter-spacing:0;word-spacing:0;font-size:208.33;font-family:&apos;Gentium Book Basic&apos;"><tspan y="-1115.26" x="-2980.92"/></text><text transform="scale(4.0128.2492)" y="-5038.25" x="-425.12" style="font-size:75.7;font-family:Arial;text-anchor:middle"/><text y="170.04" x="-2508.23" line-height="125%" style="letter-spacing:0;word-spacing:0;font-size:129.23;font-family:&apos;Gentium Book Basic&apos;"><tspan y="170.04" x="-2508.23"/></text><text transform="scale(4.0128.2492)" y="333.17" x="-427.97" style="font-size:46.954;font-family:Arial;text-anchor:middle"/><text y="90.04" x="-1926.96" line-height="125%" style="letter-spacing:0;word-spacing:0;font-size:129.23;font-family:&apos;Gentium Book Basic&apos;"><tspan y="90.04" x="-1926.96"/></text><text transform="scale(4.0128.2492)" y="12.143" x="-283.12" style="font-size:46.954;font-family:Arial;text-anchor:middle"/><text y="-91.22" x="-2998.54" line-height="125%" style="letter-spacing:0;word-spacing:0;font-size:129.23;font-family:&apos;Gentium Book Basic&apos;"><tspan y="-91.22" x="-2998.54"/></text><text transform="scale(4.0128.2492)" y="-715.21" x="-550.16" style="font-size:46.954;font-family:Arial;text-anchor:middle"/><text y="-307.69" x="-1900.49" line-height="125%" style="letter-spacing:0;word-spacing:0;font-size:129.23;font-family:&apos;Gentium Book Basic&apos;"><tspan y="-307.69" x="-1900.49"/></text><text transform="scale(4.0128.2492)" y="-1583.88" x="-276.52" style="font-size:46.954;font-family:Arial;text-anchor:middle"/><text y="-387.7" x="-1319.22" line-height="125%" style="letter-spacing:0;word-spacing:0;font-size:129.23;font-family:&apos;Gentium Book Basic&apos;"><tspan y="-387.7" x="-1319.22"/></text><text transform="scale(4.0128.2492)" y="-1904.92" x="-131.68" style="font-size:46.954;font-family:Arial;text-anchor:middle"/><text y="-860.1" x="-1708.34" line-height="125%" style="letter-spacing:0;word-spacing:0;font-size:129.23;font-family:&apos;Gentium Book Basic&apos;"><tspan y="-860.1" x="-1708.34"/></text><text transform="scale(4.0128.2492)" y="-3800.57" x="-228.64" style="font-size:46.954;font-family:Arial;text-anchor:middle"/><text y="-940.1" x="-1127.08" line-height="125%" style="letter-spacing:0;word-spacing:0;font-size:129.23;font-family:&apos;Gentium Book Basic&apos;"><tspan y="-940.1" x="-1127.08"/></text><text transform="scale(4.0128.2492)" y="-4121.6" x="-83.8" style="font-size:46.954;font-family:Arial;text-anchor:middle"/><text y="474.62" x="-2959.88" line-height="125%" style="letter-spacing:0;word-spacing:0;font-size:208.33;font-family:&apos;Gentium Book Basic&apos;"><tspan y="474.62" x="-2959.88"/></text><path d="m124.6 141.28v25.434 76.57 25.434 76.57 21.02 4.418l99.29 99.29c9.539 1.27 19.269 1.936 29.16 1.936 120.89 0 218.9-98 218.9-218.9 0-9.887-.667-19.618-1.938-29.16l-82.62-82.62h-262.79" style="opacity:.25"/><path d="m124.6 141.28v25.433 76.57 25.433 76.57 21.01 4.418h262.79v-4.418-21.01-199.59-4.418h-262.79m25.433 25.433h58.903v76.57h-58.903v-76.57m84.34 0h127.59v76.57h-127.59v-76.57m-84.34 102.01h58.903v76.57h-58.903v-76.57m84.34 0h127.59v76.57h-127.59v-76.57" style="fill:#f9f9f9"/></svg>