<svg xmlns="http://www.w3.org/2000/svg" viewBox="0 0 512 512"><text y="231.36" x="729.64" line-height="125%" style="letter-spacing:0;word-spacing:0;font-size:129.23;font-family:Gentium Book Basic"><tspan y="231.36" x="729.64"/></text><text transform="scale(4.0128.2492)" y="579.26" x="378.91" style="font-size:46.954;font-family:Arial;text-anchor:middle"/><text y="151.36" x="1310.91" line-height="125%" style="letter-spacing:0;word-spacing:0;font-size:129.23;font-family:Gentium Book Basic"><tspan y="151.36" x="1310.91"/></text><text transform="scale(4.0128.2492)" y="258.22" x="523.76" style="font-size:46.954;font-family:Arial;text-anchor:middle"/><text y="-29.9" x="239.33" line-height="125%" style="letter-spacing:0;word-spacing:0;font-size:129.23;font-family:Gentium Book Basic"><tspan y="-29.9" x="239.33"/></text><text transform="scale(4.0128.2492)" y="-469.13" x="256.72" style="font-size:46.954;font-family:Arial;text-anchor:middle"/><text y="-246.37" x="1337.38" line-height="125%" style="letter-spacing:0;word-spacing:0;font-size:129.23;font-family:Gentium Book Basic"><tspan y="-246.37" x="1337.38"/></text><text transform="scale(4.0128.2492)" y="-1337.8" x="530.36" style="font-size:46.954;font-family:Arial;text-anchor:middle"/><text y="-326.37" x="1918.65" line-height="125%" style="letter-spacing:0;word-spacing:0;font-size:129.23;font-family:Gentium Book Basic"><tspan y="-326.37" x="1918.65"/></text><text transform="scale(4.0128.2492)" y="-1658.83" x="675.21" style="font-size:46.954;font-family:Arial;text-anchor:middle"/><text y="-798.77" x="1529.53" line-height="125%" style="letter-spacing:0;word-spacing:0;font-size:129.23;font-family:Gentium Book Basic"><tspan y="-798.77" x="1529.53"/></text><text transform="scale(4.0128.2492)" y="-3554.48" x="578.24" style="font-size:46.954;font-family:Arial;text-anchor:middle"/><text y="-878.78" x="2110.79" line-height="125%" style="letter-spacing:0;word-spacing:0;font-size:129.23;font-family:Gentium Book Basic"><tspan y="-878.78" x="2110.79"/></text><text transform="scale(4.0128.2492)" y="-3875.52" x="723.09" style="font-size:46.954;font-family:Arial;text-anchor:middle"/><g line-height="125%" style="letter-spacing:0;word-spacing:0"><text y="535.94" x="277.99" style="font-size:208.33;font-family:Gentium Book Basic"><tspan y="535.94" x="277.99"/></text><text y="231.36" x="729.64" style="font-size:129.23;font-family:&apos;Gentium Book Basic&apos;"><tspan y="231.36" x="729.64"/></text></g><text transform="scale(4.0128.2492)" y="579.26" x="378.91" style="font-size:46.954;font-family:Arial;text-anchor:middle"/><text y="151.36" x="1310.91" line-height="125%" style="letter-spacing:0;word-spacing:0;font-size:129.23;font-family:&apos;Gentium Book Basic&apos;"><tspan y="151.36" x="1310.91"/></text><text transform="scale(4.0128.2492)" y="258.22" x="523.76" style="font-size:46.954;font-family:Arial;text-anchor:middle"/><text y="-29.9" x="239.33" line-height="125%" style="letter-spacing:0;word-spacing:0;font-size:129.23;font-family:&apos;Gentium Book Basic&apos;"><tspan y="-29.9" x="239.33"/></text><text transform="scale(4.0128.2492)" y="-469.13" x="256.72" style="font-size:46.954;font-family:Arial;text-anchor:middle"/><text y="-246.37" x="1337.38" line-height="125%" style="letter-spacing:0;word-spacing:0;font-size:129.23;font-family:&apos;Gentium Book Basic&apos;"><tspan y="-246.37" x="1337.38"/></text><text transform="scale(4.0128.2492)" y="-1337.79" x="530.36" style="font-size:46.954;font-family:Arial;text-anchor:middle"/><text y="-326.37" x="1918.65" line-height="125%" style="letter-spacing:0;word-spacing:0;font-size:129.23;font-family:&apos;Gentium Book Basic&apos;"><tspan y="-326.37" x="1918.65"/></text><text transform="scale(4.0128.2492)" y="-1658.82" x="675.21" style="font-size:46.954;font-family:Arial;text-anchor:middle"/><text y="-798.77" x="1529.53" line-height="125%" style="letter-spacing:0;word-spacing:0;font-size:129.23;font-family:&apos;Gentium Book Basic&apos;"><tspan y="-798.77" x="1529.53"/></text><text transform="scale(4.0128.2492)" y="-3554.46" x="578.24" style="font-size:46.954;font-family:Arial;text-anchor:middle"/><text y="-878.78" x="2110.79" line-height="125%" style="letter-spacing:0;word-spacing:0;font-size:129.23;font-family:&apos;Gentium Book Basic&apos;"><tspan y="-878.78" x="2110.79"/></text><text transform="scale(4.0128.2492)" y="-3875.5" x="723.09" style="font-size:46.954;font-family:Arial;text-anchor:middle"/><g line-height="125%" style="letter-spacing:0;word-spacing:0;font-family:&apos;Gentium Book Basic&apos;"><text y="535.94" x="277.99" style="font-size:208.33"><tspan y="535.94" x="277.99"/></text><text x="729.64" y="231.36" style="font-size:129.23"><tspan x="729.64" y="231.36"/></text></g><text x="378.91" y="579.26" transform="scale(4.0128.2492)" style="font-size:46.954;font-family:Arial;text-anchor:middle"/><text line-height="125%" x="1310.91" y="151.36" style="letter-spacing:0;word-spacing:0;font-size:129.23;font-family:&apos;Gentium Book Basic&apos;"><tspan x="1310.91" y="151.36"/></text><text x="523.76" y="258.22" transform="scale(4.0128.2492)" style="font-size:46.954;font-family:Arial;text-anchor:middle"/><text line-height="125%" x="239.33" y="-29.9" style="letter-spacing:0;word-spacing:0;font-size:129.23;font-family:&apos;Gentium Book Basic&apos;"><tspan x="239.33" y="-29.9"/></text><text x="256.72" y="-469.13" transform="scale(4.0128.2492)" style="font-size:46.954;font-family:Arial;text-anchor:middle"/><text line-height="125%" x="1337.38" y="-246.37" style="letter-spacing:0;word-spacing:0;font-size:129.23;font-family:&apos;Gentium Book Basic&apos;"><tspan x="1337.38" y="-246.37"/></text><text x="530.36" y="-1337.8" transform="scale(4.0128.2492)" style="font-size:46.954;font-family:Arial;text-anchor:middle"/><text line-height="125%" x="1918.65" y="-326.37" style="letter-spacing:0;word-spacing:0;font-size:129.23;font-family:&apos;Gentium Book Basic&apos;"><tspan x="1918.65" y="-326.37"/></text><text x="675.21" y="-1658.83" transform="scale(4.0128.2492)" style="font-size:46.954;font-family:Arial;text-anchor:middle"/><text line-height="125%" x="1529.53" y="-798.77" style="letter-spacing:0;word-spacing:0;font-size:129.23;font-family:&apos;Gentium Book Basic&apos;"><tspan x="1529.53" y="-798.77"/></text><text x="578.24" y="-3554.48" transform="scale(4.0128.2492)" style="font-size:46.954;font-family:Arial;text-anchor:middle"/><text line-height="125%" x="2110.79" y="-878.78" style="letter-spacing:0;word-spacing:0;font-size:129.23;font-family:&apos;Gentium Book Basic&apos;"><tspan x="2110.79" y="-878.78"/></text><text x="723.09" y="-3875.52" transform="scale(4.0128.2492)" style="font-size:46.954;font-family:Arial;text-anchor:middle"/><text line-height="125%" x="277.99" y="535.94" style="letter-spacing:0;word-spacing:0;font-size:208.33;font-family:&apos;Gentium Book Basic&apos;"><tspan x="277.99" y="535.94"/></text><g style="fill-rule:evenodd"><path d="m471.95 253.05c0 120.9-98.01 218.9-218.9 218.9-120.9 0-218.9-98.01-218.9-218.9 0-120.9 98.01-218.9 218.9-218.9 120.9 0 218.9 98.01 218.9 218.9" style="fill:#e02b2b"/><path d="m256 1c-140.83 0-255 114.17-255 255 0 140.83 114.17 255 255 255 140.83 0 255-114.17 255-255 0-140.83-114.17-255-255-255m8.827 44.931c120.9 0 218.9 98 218.9 218.9 0 120.9-98 218.9-218.9 218.9-120.9 0-218.93-98-218.93-218.9 0-120.9 98.03-218.9 218.93-218.9" style="fill-opacity:.067"/><g style="fill-opacity:.129"><path d="m256 4.433c-138.94 0-251.57 112.63-251.57 251.57 0 138.94 112.63 251.57 251.57 251.57 138.94 0 251.57-112.63 251.57-251.57 0-138.94-112.63-251.57-251.57-251.57m5.885 38.556c120.9 0 218.9 98 218.9 218.9 0 120.9-98 218.9-218.9 218.9-120.9 0-218.93-98-218.93-218.9 0-120.9 98.03-218.9 218.93-218.9"/><path d="m256 8.356c-136.77 0-247.64 110.87-247.64 247.64 0 136.77 110.87 247.64 247.64 247.64 136.77 0 247.64-110.87 247.64-247.64 0-136.77-110.87-247.64-247.64-247.64m2.942 31.691c120.9 0 218.9 98 218.9 218.9 0 120.9-98 218.9-218.9 218.9-120.9 0-218.93-98-218.93-218.9 0-120.9 98.03-218.9 218.93-218.9"/></g><path d="m253.04 7.859c-135.42 0-245.19 109.78-245.19 245.19 0 135.42 109.78 245.19 245.19 245.19 135.42 0 245.19-109.78 245.19-245.19 0-135.42-109.78-245.19-245.19-245.19zm0 26.297c120.9 0 218.9 98 218.9 218.9 0 120.9-98 218.9-218.9 218.9-120.9 0-218.93-98-218.93-218.9 0-120.9 98.03-218.9 218.93-218.9z" style="stroke-opacity:.31;fill:#fff;stroke:#000;stroke-width:4.904"/></g><text y="231.36" x="729.64" line-height="125%" style="letter-spacing:0;word-spacing:0;font-size:129.23;font-family:&apos;Gentium Book Basic&apos;"><tspan y="231.36" x="729.64"/></text><text transform="scale(4.0128.2492)" y="579.25" x="378.91" style="font-size:46.954;font-family:Arial;text-anchor:middle"/><text y="151.36" x="1310.91" line-height="125%" style="letter-spacing:0;word-spacing:0;font-size:129.23;font-family:&apos;Gentium Book Basic&apos;"><tspan y="151.36" x="1310.91"/></text><text transform="scale(4.0128.2492)" y="258.22" x="523.76" style="font-size:46.954;font-family:Arial;text-anchor:middle"/><text y="-29.901" x="239.33" line-height="125%" style="letter-spacing:0;word-spacing:0;font-size:129.23;font-family:&apos;Gentium Book Basic&apos;"><tspan y="-29.901" x="239.33"/></text><text transform="scale(4.0128.2492)" y="-469.14" x="256.72" style="font-size:46.954;font-family:Arial;text-anchor:middle"/><text y="-246.37" x="1337.38" line-height="125%" style="letter-spacing:0;word-spacing:0;font-size:129.23;font-family:&apos;Gentium Book Basic&apos;"><tspan y="-246.37" x="1337.38"/></text><text transform="scale(4.0128.2492)" y="-1337.8" x="530.36" style="font-size:46.954;font-family:Arial;text-anchor:middle"/><text y="-326.38" x="1918.65" line-height="125%" style="letter-spacing:0;word-spacing:0;font-size:129.23;font-family:&apos;Gentium Book Basic&apos;"><tspan y="-326.38" x="1918.65"/></text><text transform="scale(4.0128.2492)" y="-1658.84" x="675.21" style="font-size:46.954;font-family:Arial;text-anchor:middle"/><text y="-798.78" x="1529.53" line-height="125%" style="letter-spacing:0;word-spacing:0;font-size:129.23;font-family:&apos;Gentium Book Basic&apos;"><tspan y="-798.78" x="1529.53"/></text><text transform="scale(4.0128.2492)" y="-3554.49" x="578.24" style="font-size:46.954;font-family:Arial;text-anchor:middle"/><text y="-878.78" x="2110.79" line-height="125%" style="letter-spacing:0;word-spacing:0;font-size:129.23;font-family:&apos;Gentium Book Basic&apos;"><tspan y="-878.78" x="2110.79"/></text><text transform="scale(4.0128.2492)" y="-3875.52" x="723.09" style="font-size:46.954;font-family:Arial;text-anchor:middle"/><g line-height="125%" style="letter-spacing:0;word-spacing:0;font-family:&apos;Gentium Book Basic&apos;"><text y="535.94" x="277.99" style="font-size:208.33"><tspan y="535.94" x="277.99"/></text><text y="-7.284" x="-715.24" style="font-size:129.23"><tspan y="-7.284" x="-715.24"/></text></g><text transform="scale(4.0128.2492)" y="-378.39" x="18.842" style="font-size:46.954;font-family:Arial;text-anchor:middle"/><text y="-87.28" x="-133.97" line-height="125%" style="letter-spacing:0;word-spacing:0;font-size:129.23;font-family:&apos;Gentium Book Basic&apos;"><tspan y="-87.28" x="-133.97"/></text><text transform="scale(4.0128.2492)" y="-699.42" x="163.69" style="font-size:46.954;font-family:Arial;text-anchor:middle"/><text y="-268.55" x="-1205.55" line-height="125%" style="letter-spacing:0;word-spacing:0;font-size:129.23;font-family:&apos;Gentium Book Basic&apos;"><tspan y="-268.55" x="-1205.55"/></text><text transform="scale(4.0128.2492)" y="-1426.77" x="-103.35" style="font-size:46.954;font-family:Arial;text-anchor:middle"/><text y="-485.01" x="-107.5" line-height="125%" style="letter-spacing:0;word-spacing:0;font-size:129.23;font-family:&apos;Gentium Book Basic&apos;"><tspan y="-485.01" x="-107.5"/></text><text transform="scale(4.0128.2492)" y="-2295.44" x="170.29" style="font-size:46.954;font-family:Arial;text-anchor:middle"/><text y="-565.02" x="473.77" line-height="125%" style="letter-spacing:0;word-spacing:0;font-size:129.23;font-family:&apos;Gentium Book Basic&apos;"><tspan y="-565.02" x="473.77"/></text><text transform="scale(4.0128.2492)" y="-2616.48" x="315.14" style="font-size:46.954;font-family:Arial;text-anchor:middle"/><text y="-1037.42" x="84.65" line-height="125%" style="letter-spacing:0;word-spacing:0;font-size:129.23;font-family:&apos;Gentium Book Basic&apos;"><tspan y="-1037.42" x="84.65"/></text><text transform="scale(4.0128.2492)" y="-4512.13" x="218.17" style="font-size:46.954;font-family:Arial;text-anchor:middle"/><text y="-1117.42" x="665.91" line-height="125%" style="letter-spacing:0;word-spacing:0;font-size:129.23;font-family:&apos;Gentium Book Basic&apos;"><tspan y="-1117.42" x="665.91"/></text><text transform="scale(4.0128.2492)" y="-4833.16" x="363.02" style="font-size:46.954;font-family:Arial;text-anchor:middle"/><g line-height="125%" style="letter-spacing:0;word-spacing:0;font-size:208.33;font-family:&apos;Gentium Book Basic&apos;"><text y="297.3" x="-1166.89"><tspan y="297.3" x="-1166.89"/></text><text y="-199.78" x="-1595.8"><tspan y="-199.78" x="-1595.8"/></text></g><text transform="scale(4.0128.2492)" y="-1364.57" x="-79.947" style="font-size:75.7;font-family:Arial;text-anchor:middle"/><text y="-967.73" x="-2243.56" line-height="125%" style="letter-spacing:0;word-spacing:0;font-size:208.33;font-family:&apos;Gentium Book Basic&apos;"><tspan y="-967.73" x="-2243.56"/></text><text transform="scale(4.0128.2492)" y="-4446.23" x="-241.37" style="font-size:75.7;font-family:Arial;text-anchor:middle"/><text y="-1123.36" x="-1537.22" line-height="125%" style="letter-spacing:0;word-spacing:0;font-size:208.33;font-family:&apos;Gentium Book Basic&apos;"><tspan y="-1123.36" x="-1537.22"/></text><text transform="scale(4.0128.2492)" y="-5070.76" x="-65.35" style="font-size:75.7;font-family:Arial;text-anchor:middle"/><text y="88.17" x="-639.31" line-height="125%" style="letter-spacing:0;word-spacing:0;font-size:129.23;font-family:&apos;Gentium Book Basic&apos;"><tspan y="88.17" x="-639.31"/></text><text transform="scale(4.0128.2492)" y="4.666" x="37.764" style="font-size:46.954;font-family:Arial;text-anchor:middle"/><text y="8.174" x="-58.04" line-height="125%" style="letter-spacing:0;word-spacing:0;font-size:129.23;font-family:&apos;Gentium Book Basic&apos;"><tspan y="8.174" x="-58.04"/></text><text transform="scale(4.0128.2492)" y="-316.36" x="182.61" style="font-size:46.954;font-family:Arial;text-anchor:middle"/><text y="-173.09" x="-1129.62" line-height="125%" style="letter-spacing:0;word-spacing:0;font-size:129.23;font-family:&apos;Gentium Book Basic&apos;"><tspan y="-173.09" x="-1129.62"/></text><text transform="scale(4.0128.2492)" y="-1043.72" x="-84.43" style="font-size:46.954;font-family:Arial;text-anchor:middle"/><text y="-389.56" x="-31.569" line-height="125%" style="letter-spacing:0;word-spacing:0;font-size:129.23;font-family:&apos;Gentium Book Basic&apos;"><tspan y="-389.56" x="-31.569"/></text><text transform="scale(4.0128.2492)" y="-1912.38" x="189.21" style="font-size:46.954;font-family:Arial;text-anchor:middle"/><text y="-469.57" x="549.7" line-height="125%" style="letter-spacing:0;word-spacing:0;font-size:129.23;font-family:&apos;Gentium Book Basic&apos;"><tspan y="-469.57" x="549.7"/></text><text transform="scale(4.0128.2492)" y="-2233.42" x="334.06" style="font-size:46.954;font-family:Arial;text-anchor:middle"/><text y="-941.97" x="160.58" line-height="125%" style="letter-spacing:0;word-spacing:0;font-size:129.23;font-family:&apos;Gentium Book Basic&apos;"><tspan y="-941.97" x="160.58"/></text><text transform="scale(4.0128.2492)" y="-4129.07" x="237.09" style="font-size:46.954;font-family:Arial;text-anchor:middle"/><text y="-1021.97" x="741.84" line-height="125%" style="letter-spacing:0;word-spacing:0;font-size:129.23;font-family:&apos;Gentium Book Basic&apos;"><tspan y="-1021.97" x="741.84"/></text><text transform="scale(4.0128.2492)" y="-4450.1" x="381.94" style="font-size:46.954;font-family:Arial;text-anchor:middle"/><g line-height="125%" style="letter-spacing:0;word-spacing:0;font-family:&apos;Gentium Book Basic&apos;"><text y="392.75" x="-1090.96" style="font-size:208.33"><tspan y="392.75" x="-1090.96"/></text><text y="61.54" x="-643.54" style="font-size:129.23"><tspan y="61.54" x="-643.54"/></text></g><text transform="scale(4.0128.2492)" y="-102.19" x="36.711" style="font-size:46.954;font-family:Arial;text-anchor:middle"/><text y="-18.456" x="-62.27" line-height="125%" style="letter-spacing:0;word-spacing:0;font-size:129.23;font-family:&apos;Gentium Book Basic&apos;"><tspan y="-18.456" x="-62.27"/></text><text transform="scale(4.0128.2492)" y="-423.22" x="181.56" style="font-size:46.954;font-family:Arial;text-anchor:middle"/><text y="-199.72" x="-1133.85" line-height="125%" style="letter-spacing:0;word-spacing:0;font-size:129.23;font-family:&apos;Gentium Book Basic&apos;"><tspan y="-199.72" x="-1133.85"/></text><text transform="scale(4.0128.2492)" y="-1150.58" x="-85.48" style="font-size:46.954;font-family:Arial;text-anchor:middle"/><text y="-416.19" x="-35.796" line-height="125%" style="letter-spacing:0;word-spacing:0;font-size:129.23;font-family:&apos;Gentium Book Basic&apos;"><tspan y="-416.19" x="-35.796"/></text><text transform="scale(4.0128.2492)" y="-2019.24" x="188.16" style="font-size:46.954;font-family:Arial;text-anchor:middle"/><text y="-496.2" x="545.47" line-height="125%" style="letter-spacing:0;word-spacing:0;font-size:129.23;font-family:&apos;Gentium Book Basic&apos;"><tspan y="-496.2" x="545.47"/></text><text transform="scale(4.0128.2492)" y="-2340.28" x="333.01" style="font-size:46.954;font-family:Arial;text-anchor:middle"/><text y="-968.6" x="156.35" line-height="125%" style="letter-spacing:0;word-spacing:0;font-size:129.23;font-family:&apos;Gentium Book Basic&apos;"><tspan y="-968.6" x="156.35"/></text><text transform="scale(4.0128.2492)" y="-4235.93" x="236.04" style="font-size:46.954;font-family:Arial;text-anchor:middle"/><text y="-1048.6" x="737.61" line-height="125%" style="letter-spacing:0;word-spacing:0;font-size:129.23;font-family:&apos;Gentium Book Basic&apos;"><tspan y="-1048.6" x="737.61"/></text><text transform="scale(4.0128.2492)" y="-4556.96" x="380.89" style="font-size:46.954;font-family:Arial;text-anchor:middle"/><g line-height="125%" style="letter-spacing:0;word-spacing:0;font-family:&apos;Gentium Book Basic&apos;"><text y="366.12" x="-1095.19" style="font-size:208.33"><tspan y="366.12" x="-1095.19"/></text><text y="-235.08" x="-695.72" style="font-size:129.23"><tspan y="-235.08" x="-695.72"/></text></g><text transform="scale(4.0128.2492)" y="-1292.5" x="23.708" style="font-size:46.954;font-family:Arial;text-anchor:middle"/><text y="-315.08" x="-114.45" line-height="125%" style="letter-spacing:0;word-spacing:0;font-size:129.23;font-family:&apos;Gentium Book Basic&apos;"><tspan y="-315.08" x="-114.45"/></text><text transform="scale(4.0128.2492)" y="-1613.52" x="168.56" style="font-size:46.954;font-family:Arial;text-anchor:middle"/><text y="-496.34" x="-1186.03" line-height="125%" style="letter-spacing:0;word-spacing:0;font-size:129.23;font-family:&apos;Gentium Book Basic&apos;"><tspan y="-496.34" x="-1186.03"/></text><text transform="scale(4.0128.2492)" y="-2340.88" x="-98.48" style="font-size:46.954;font-family:Arial;text-anchor:middle"/><text y="-712.81" x="-87.976" line-height="125%" style="letter-spacing:0;word-spacing:0;font-size:129.23;font-family:&apos;Gentium Book Basic&apos;"><tspan y="-712.81" x="-87.976"/></text><text transform="scale(4.0128.2492)" y="-3209.55" x="175.16" style="font-size:46.954;font-family:Arial;text-anchor:middle"/><text y="-792.82" x="493.29" line-height="125%" style="letter-spacing:0;word-spacing:0;font-size:129.23;font-family:&apos;Gentium Book Basic&apos;"><tspan y="-792.82" x="493.29"/></text><text transform="scale(4.0128.2492)" y="-3530.58" x="320.01" style="font-size:46.954;font-family:Arial;text-anchor:middle"/><text y="-1265.22" x="104.17" line-height="125%" style="letter-spacing:0;word-spacing:0;font-size:129.23;font-family:&apos;Gentium Book Basic&apos;"><tspan y="-1265.22" x="104.17"/></text><text transform="scale(4.0128.2492)" y="-5426.23" x="223.04" style="font-size:46.954;font-family:Arial;text-anchor:middle"/><text y="-1345.22" x="685.43" line-height="125%" style="letter-spacing:0;word-spacing:0;font-size:129.23;font-family:&apos;Gentium Book Basic&apos;"><tspan y="-1345.22" x="685.43"/></text><text transform="scale(4.0128.2492)" y="-5747.26" x="367.89" style="font-size:46.954;font-family:Arial;text-anchor:middle"/><text y="69.5" x="-1147.37" line-height="125%" style="letter-spacing:0;word-spacing:0;font-size:208.33;font-family:&apos;Gentium Book Basic&apos;"><tspan y="69.5" x="-1147.37"/></text><g style="color:#000"><path d="m255.77 121.27c-2.267-.012-4.528.001-6.785.037-.001 0-.003 0-.004 0-39.3 1.411-81.27 10.231-110.26 36.881-13.317 12.643-19.382 33.23-9.283 49.26 2.805 4.838 6.23 9.176 10.129 13.07l42.576 42.576c-5.288-1.8-10.504-3.799-15.619-6.03-4.128-1.887-8.212-3.977-12.154-6.291l-30.01-30.01c.756 14.281-1.552 28.837 1.199 42.957 2.437 8.71 7.324 16.09 13.617 22.387l45.838 45.838c-5.988-1.938-11.884-4.137-17.658-6.613-4.362-1.979-8.7-4.18-12.883-6.631l-30.12-30.12v34.447l54.881 54.881c-.005-.002-.01-.004-.016-.006l-54.873-54.873c.391 12.1 6.479 22.563 15.05 31.14l117.73 117.73c117.69-2.153 212.68-97.18 214.77-214.89l-99.22-99.22c-5.523-5.523-12.07-10.202-18.725-13.781-29.33-16.871-64.16-22.557-98.18-22.73" style="opacity:.25"/><path d="m248.99 121.31c-39.3 1.411-81.28 10.23-110.27 36.881-13.317 12.643-19.382 33.23-9.284 49.26 13.333 22.999 40.689 34.685 66.26 41.691 48.2 12.475 101.55 10.298 147.22-9.367 20.09-8.904 40.41-23.942 44.27-45.672 3.047-21.605-14.693-40.11-33.24-50.09-31.29-17.995-68.827-23.266-104.97-22.694m138.07 100.4c-13.165 24.624-41.534 37.31-68.3 44.886-49.769 13.196-105.05 11.02-152.23-9.531-17.327-7.92-33.922-19.371-42.17-36.3.756 14.281-1.552 28.836 1.199 42.956 6.154 21.997 27.943 35.532 48.51 44.41 41.26 16.218 88.37 18.203 131.95 9.68 26.783-6.284 54.9-16.453 72.11-37.863 9.529-11.264 10.274-25.98 9.328-39.819.167-6.46.014-12.928.067-19.394l-.44.922-.028.058m-262.71 101.31c.704 21.764 19.833 38.22 38.717 47.951 37.41 18.374 81.29 22.603 122.9 18.09 30.926-4.227 63.21-13.229 86.05-34.35 12.21-10.932 17.401-27.24 15.412-42.988.185-7.704.07-15.415.101-23.12-12.38 24.587-40.38 37.562-66.6 45.27-50.08 13.827-105.89 11.906-153.57-8.545-17.575-7.973-34.761-19.509-43-36.752 0 11.482 0 22.965 0 34.447" style="fill:#fff"/></g></svg>