<svg xmlns="http://www.w3.org/2000/svg" viewBox="0 0 512 512"><defs><linearGradient id="0" x2="0" y1="473.05" y2="38.752" gradientUnits="userSpaceOnUse"><stop offset="0" stop-color="#b08632"/><stop offset=".5" stop-color="#cba963"/><stop offset="1" stop-color="#e6d3ac"/></linearGradient></defs><g fill-rule="evenodd"><path fill="url(#0)" d="m471.95 253.05c0 120.9-98.01 218.91-218.91 218.91s-218.91-98.01-218.91-218.91 98.01-218.91 218.91-218.91 218.91 98.01 218.91 218.91"/><path fill-opacity=".067" d="m256 1c-140.83 0-255 114.17-255 255s114.17 255 255 255 255-114.17 255-255-114.17-255-255-255m8.827 44.931c120.9 0 218.9 98 218.9 218.9s-98 218.9-218.9 218.9-218.93-98-218.93-218.9 98.03-218.9 218.93-218.9"/><g fill-opacity=".129"><path d="m256 4.43c-138.94 0-251.57 112.63-251.57 251.57s112.63 251.57 251.57 251.57 251.57-112.63 251.57-251.57-112.63-251.57-251.57-251.57m5.885 38.556c120.9 0 218.9 98 218.9 218.9s-98 218.9-218.9 218.9-218.93-98-218.93-218.9 98.03-218.9 218.93-218.9"/><path d="m256 8.36c-136.77 0-247.64 110.87-247.64 247.64s110.87 247.64 247.64 247.64 247.64-110.87 247.64-247.64-110.87-247.64-247.64-247.64m2.942 31.691c120.9 0 218.9 98 218.9 218.9s-98 218.9-218.9 218.9-218.93-98-218.93-218.9 98.03-218.9 218.93-218.9"/></g><path fill="#fff" stroke="#000" stroke-opacity=".31" stroke-width="4.904" d="m253.04 7.86c-135.42 0-245.19 109.78-245.19 245.19 0 135.42 109.78 245.19 245.19 245.19 135.42 0 245.19-109.78 245.19-245.19 0-135.42-109.78-245.19-245.19-245.19zm0 26.297c120.9 0 218.9 98 218.9 218.9s-98 218.9-218.9 218.9-218.93-98-218.93-218.9 98.03-218.9 218.93-218.9z"/></g><path d="m190.13 117.24c-50.868 0-90.33 70.44-90.33 131.02 0 36.33 13.468 68.751 34.416 89.7l133.5 133.5c106.87-7.078 192.76-90.83 203.16-196.75l-77.24-77.24c-11.929-11.865-29.27-18.13-50.14-18.13-17.1 0-35.885 4.144-53.947 11.732l-50.998-50.998c-14.544-14.544-31.404-22.824-48.42-22.824" opacity=".25"/><path fill="#fff" d="m190.13 117.24c31.12 0 61.731 27.705 78.59 70.779-15.358 8.164-29.575 18.502-41.18 30.16-42.816 43.09-53.22 103.55-25.659 143.26-3.916 0.659-7.842 1.103-11.747 1.103-49.802 0-90.33-51.27-90.33-114.29 0-60.58 39.458-131.02 90.33-131.02m23.746 248.7c-29.51-36.806-19.236-96.41 22.782-138.68 11.785-11.86 26.366-22.386 42.18-30.421l1.42-0.723-0.337-0.67c20.897-10.381 43.41-16.12 63.57-16.12 20.87 0 38.22 6.267 50.14 18.13 16.627 16.526 22.348 43.07 16.09 74.74-6 30.389-22.17 60.64-44.38 82.976-25.01 25.16-57.27 39.581-88.5 39.581-22.841 0-42.634-7.676-57.25-22.21-1.5-1.473-2.952-3.182-4.419-4.939l-1.296-1.671"/></svg>