<svg xmlns="http://www.w3.org/2000/svg" xmlns:svg="http://www.w3.org/2000/svg" id="svg2" version="1.1" viewBox="0 0 512 512"><metadata id="metadata4534"/><g style="fill-rule:evenodd" id="g4274"><path style="fill:#b37047" id="path4276" d="m 471.95,253.05 c 0,120.9 -98.01,218.9 -218.9,218.9 -120.9,0 -218.9,-98.01 -218.9,-218.9 0,-120.9 98.01,-218.9 218.9,-218.9 120.9,0 218.9,98.01 218.9,218.9"/><path style="fill-opacity:.06700003" id="path4278" d="M 256,1 C 115.17,1 1,115.17 1,256 1,396.83 115.17,511 256,511 396.83,511 511,396.83 511,256 511,115.17 396.83,1 256,1 m 8.827,44.931 c 120.9,0 218.9,98 218.9,218.9 0,120.9 -98,218.9 -218.9,218.9 -120.9,0 -218.93,-98 -218.93,-218.9 0,-120.9 98.03,-218.9 218.93,-218.9"/><g style="fill-opacity:.12900002" id="g4280"><path id="path4282" d="m 256,4.433 c -138.94,0 -251.57,112.63 -251.57,251.57 0,138.94 112.63,251.57 251.57,251.57 138.94,0 251.57,-112.63 251.57,-251.57 C 507.57,117.063 394.94,4.433 256,4.433 m 5.885,38.556 c 120.9,0 218.9,98 218.9,218.9 0,120.9 -98,218.9 -218.9,218.9 -120.9,0 -218.93,-98 -218.93,-218.9 0,-120.9 98.03,-218.9 218.93,-218.9"/><path id="path4284" d="m 256,8.356 c -136.77,0 -247.64,110.87 -247.64,247.64 0,136.77 110.87,247.64 247.64,247.64 136.77,0 247.64,-110.87 247.64,-247.64 C 503.64,119.226 392.77,8.356 256,8.356 m 2.942,31.691 c 120.9,0 218.9,98 218.9,218.9 0,120.9 -98,218.9 -218.9,218.9 -120.9,0 -218.93,-98 -218.93,-218.9 0,-120.9 98.03,-218.9 218.93,-218.9"/></g><path style="fill:#fff;stroke:#000;stroke-width:4.90399981;stroke-opacity:.31000001" id="path4286" d="m 253.04,7.859 c -135.42,0 -245.19,109.78 -245.19,245.19 0,135.42 109.78,245.19 245.19,245.19 135.42,0 245.19,-109.78 245.19,-245.19 0,-135.42 -109.78,-245.19 -245.19,-245.19 z m 0,26.297 c 120.9,0 218.9,98 218.9,218.9 0,120.9 -98,218.9 -218.9,218.9 -120.9,0 -218.93,-98 -218.93,-218.9 0,-120.9 98.03,-218.9 218.93,-218.9 z"/></g><path style="opacity:.25" id="path4526" d="m 255.82,118 -71.08,79.53 22.13,22.13 -56.31,53.926 22.359,22.359 -54.916,50.32 125.47,125.47 c 3.18,0.137 6.374,0.219 9.588,0.219 96.61,0 178.6,-62.59 207.64,-149.44 l -204.51,-204.51 -0.363,0"/><path style="fill:#fff" id="path4528" d="m 255.82,118 -71.08,79.53 35.631,9.2 -69.815,66.855 36.716,9.2 -69.27,63.48 115.21,24.02 0,23.716 45.579,0 0,-23.614 115.21,-24.12 -69.27,-63.48 36.716,-9.2 -69.815,-66.855 35.631,-9.2 -71.08,-79.53 -0.362,0"/></svg>