<svg xmlns="http://www.w3.org/2000/svg" xmlns:xlink="http://www.w3.org/1999/xlink" viewBox="0 0 512 512"><g style="color:#000"><path d="m253.06 33.656c-121.16 0-219.41 98.24-219.41 219.41 0 121.16 98.24 219.38 219.41 219.38 121.16 0 219.38-98.2 219.38-219.37 0-121.16-98.2-219.41-219.37-219.41" style="fill:#e75177;fill-rule:evenodd"/><path d="m147.86 120.99c-29.551 0-53.818 29.05-53.818 64.42h-.002v141.17l64.43 64.43h-.01l-64.42-64.42c0 19.774 7.585 37.572 19.437 49.42l91.04 91.04c15.618 3.528 31.864 5.4 48.549 5.4 121.16 0 219.38-98.2 219.38-219.37 0-16.693-1.873-32.948-5.404-48.574l-68.51-68.51c.025.025.048.051.072.076l-.076-.076c-9.348-9.348-21.348-14.996-34.377-14.998l-.002-.002h-216.28" style="opacity:.25"/><path d="m147.86 120.99c-29.551 0-53.819 29.05-53.819 64.42v141.17c0 35.37 24.268 64.42 53.819 64.42h216.28c29.551 0 53.819-29.05 53.819-64.42v-141.17c0-35.37-24.268-64.42-53.819-64.42h-216.28" style="fill:#fff"/></g><g line-height="125%" style="letter-spacing:0;word-spacing:0;font-size:0;font-family:&apos;Gentium Book Basic&apos;"><text y="89.28" x="459.78"><tspan y="89.28" x="459.78"/></text><text y="367.4" x="-1899.05"><tspan y="367.4" x="-1899.05"/></text><text y="140.11" x="-1610.84"><tspan y="140.11" x="-1610.84"/></text><text y="-116.79" x="2583.76"><tspan y="-116.79" x="2583.76"/></text><text y="28.25" x="455.83"><tspan y="28.25" x="455.83"/></text><text y="306.36" x="-1903"><tspan y="306.36" x="-1903"/></text><text y="79.08" x="-1614.79"><tspan y="79.08" x="-1614.79"/></text></g><g style="fill-rule:evenodd"><path d="m256 1c-140.83 0-255 114.17-255 255 0 140.83 114.17 255 255 255 140.83 0 255-114.17 255-255 0-140.83-114.17-255-255-255m8.827 44.931c120.9 0 218.9 98 218.9 218.9 0 120.9-98 218.9-218.9 218.9-120.9 0-218.93-98-218.93-218.9 0-120.9 98.03-218.9 218.93-218.9" style="fill-opacity:.067"/><g style="fill-opacity:.129"><path d="m256 4.433c-138.94 0-251.57 112.63-251.57 251.57 0 138.94 112.63 251.57 251.57 251.57 138.94 0 251.57-112.63 251.57-251.57 0-138.94-112.63-251.57-251.57-251.57m5.885 38.556c120.9 0 218.9 98 218.9 218.9 0 120.9-98 218.9-218.9 218.9-120.9 0-218.93-98-218.93-218.9 0-120.9 98.03-218.9 218.93-218.9"/><path d="m256 8.356c-136.77 0-247.64 110.87-247.64 247.64 0 136.77 110.87 247.64 247.64 247.64 136.77 0 247.64-110.87 247.64-247.64 0-136.77-110.87-247.64-247.64-247.64m2.942 31.691c120.9 0 218.9 98 218.9 218.9 0 120.9-98 218.9-218.9 218.9-120.9 0-218.93-98-218.93-218.9 0-120.9 98.03-218.9 218.93-218.9"/></g><path d="m253.04 7.859c-135.42 0-245.19 109.78-245.19 245.19 0 135.42 109.78 245.19 245.19 245.19 135.42 0 245.19-109.78 245.19-245.19 0-135.42-109.78-245.19-245.19-245.19zm0 26.297c120.9 0 218.9 98 218.9 218.9 0 120.9-98 218.9-218.9 218.9-120.9 0-218.93-98-218.93-218.9 0-120.9 98.03-218.9 218.93-218.9z" style="stroke-opacity:.31;fill:#fff;stroke:#000;stroke-width:4.904"/></g><text x="729.64" y="231.36" line-height="125%" style="letter-spacing:0;word-spacing:0;font-size:129.23;font-family:Gentium Book Basic"><tspan x="729.64" y="231.36"/></text><text x="378.91" y="579.25" transform="scale(4.0128.2492)" style="font-size:46.954;font-family:Arial;text-anchor:middle"/><text x="1310.91" y="151.36" line-height="125%" style="letter-spacing:0;word-spacing:0;font-size:129.23;font-family:Gentium Book Basic"><tspan x="1310.91" y="151.36"/></text><text x="523.76" y="258.22" transform="scale(4.0128.2492)" style="font-size:46.954;font-family:Arial;text-anchor:middle"/><text x="239.33" y="-29.901" line-height="125%" style="letter-spacing:0;word-spacing:0;font-size:129.23;font-family:Gentium Book Basic"><tspan x="239.33" y="-29.901"/></text><text x="256.72" y="-469.14" transform="scale(4.0128.2492)" style="font-size:46.954;font-family:Arial;text-anchor:middle"/><text x="1337.38" y="-246.37" line-height="125%" style="letter-spacing:0;word-spacing:0;font-size:129.23;font-family:Gentium Book Basic"><tspan x="1337.38" y="-246.37"/></text><text x="530.36" y="-1337.81" transform="scale(4.0128.2492)" style="font-size:46.954;font-family:Arial;text-anchor:middle"/><text x="1918.65" y="-326.38" line-height="125%" style="letter-spacing:0;word-spacing:0;font-size:129.23;font-family:Gentium Book Basic"><tspan x="1918.65" y="-326.38"/></text><text x="675.21" y="-1658.85" transform="scale(4.0128.2492)" style="font-size:46.954;font-family:Arial;text-anchor:middle"/><text x="1529.53" y="-798.78" line-height="125%" style="letter-spacing:0;word-spacing:0;font-size:129.23;font-family:Gentium Book Basic"><tspan x="1529.53" y="-798.78"/></text><text x="578.24" y="-3554.51" transform="scale(4.0128.2492)" style="font-size:46.954;font-family:Arial;text-anchor:middle"/><text x="2110.79" y="-878.78" line-height="125%" style="letter-spacing:0;word-spacing:0;font-size:129.23;font-family:Gentium Book Basic"><tspan x="2110.79" y="-878.78"/></text><text x="723.09" y="-3875.54" transform="scale(4.0128.2492)" style="font-size:46.954;font-family:Arial;text-anchor:middle"/><text y="535.94" x="277.99" line-height="125%" style="letter-spacing:0;word-spacing:0;font-size:208.33;font-family:&apos;Gentium Book Basic&apos;"><tspan y="535.94" x="277.99"/></text><flowRoot transform="matrix(10.29412 0 0 10.29412-234.54-10322.61)" style="opacity:.25"><flowRegion><path id="0" d="m-53.03 6.634h57.629v49.32h-57.629z"/></flowRegion><flowPara/></flowRoot><flowRoot transform="matrix(10.29412 0 0 10.29412-1650.15-10493.49)"><flowRegion><use xlink:href="#0" height="1" width="1"/></flowRegion><flowPara/></flowRoot><text x="-259.65" y="23.09" line-height="125%" style="letter-spacing:0;word-spacing:0;font-size:129.23;font-family:Gentium Book Basic"><tspan x="-259.65" y="23.09"/></text><text x="132.38" y="-256.51" transform="scale(4.0128.2492)" style="font-size:46.954;font-family:Arial;text-anchor:middle"/><text x="321.62" y="-56.911" line-height="125%" style="letter-spacing:0;word-spacing:0;font-size:129.23;font-family:Gentium Book Basic"><tspan x="321.62" y="-56.911"/></text><text x="277.23" y="-577.54" transform="scale(4.0128.2492)" style="font-size:46.954;font-family:Arial;text-anchor:middle"/><text x="-749.96" y="-238.17" line-height="125%" style="letter-spacing:0;word-spacing:0;font-size:129.23;font-family:Gentium Book Basic"><tspan x="-749.96" y="-238.17"/></text><text x="10.187" y="-1304.89" transform="scale(4.0128.2492)" style="font-size:46.954;font-family:Arial;text-anchor:middle"/><text x="348.09" y="-454.64" line-height="125%" style="letter-spacing:0;word-spacing:0;font-size:129.23;font-family:Gentium Book Basic"><tspan x="348.09" y="-454.64"/></text><text x="283.83" y="-2173.56" transform="scale(4.0128.2492)" style="font-size:46.954;font-family:Arial;text-anchor:middle"/><text x="929.36" y="-534.65" line-height="125%" style="letter-spacing:0;word-spacing:0;font-size:129.23;font-family:Gentium Book Basic"><tspan x="929.36" y="-534.65"/></text><text x="428.67" y="-2494.6" transform="scale(4.0128.2492)" style="font-size:46.954;font-family:Arial;text-anchor:middle"/><text x="540.24" y="-1007.05" line-height="125%" style="letter-spacing:0;word-spacing:0;font-size:129.23;font-family:Gentium Book Basic"><tspan x="540.24" y="-1007.05"/></text><text x="331.71" y="-4390.25" transform="scale(4.0128.2492)" style="font-size:46.954;font-family:Arial;text-anchor:middle"/><text x="1121.5" y="-1087.05" line-height="125%" style="letter-spacing:0;word-spacing:0;font-size:129.23;font-family:Gentium Book Basic"><tspan x="1121.5" y="-1087.05"/></text><text x="476.55" y="-4711.27" transform="scale(4.0128.2492)" style="font-size:46.954;font-family:Arial;text-anchor:middle"/><text x="-711.3" y="327.67" line-height="125%" style="letter-spacing:0;word-spacing:0;font-size:208.33;font-family:Gentium Book Basic"><tspan x="-711.3" y="327.67"/></text><g style="color:#000"><path d="m364.44 146.53c-73.71.175-147.47-.357-221.16.281-16.773 3.211-25.47 21.951-24.344 37.656.264 50.993-.699 102.04.531 153 1.943 14.877 14.405 30.14 30.5 28.403 73.27-.293 146.62.603 219.84-.465 16.655-3.796 24.76-22.708 23.59-38.563-.344-50.701.712-101.46-.559-152.12-2.071-13.9-12.969-28.838-28.406-28.19" style="fill:#ae3d5a"/><path d="m254.28 201.63c-29.654 42.91-70.61 78.04-117.66 100.56.087 8.281.206 16.567.406 24.844 1.693 12.966 12.566 26.26 26.594 24.75 63.861-.256 127.77.525 191.59-.406 14.516-3.309 21.582-19.776 20.563-33.594-.028-4.131-.053-8.274-.063-12.406-48.714-23.04-91.32-59.06-121.44-103.75" style="fill:#fff"/></g><g style="fill:#fff"><path d="m285.53 160.63c21.339 37.672 52.641 68.973 90.31 90.31.052-21.925-.013-43.848-.563-65.75-1.805-12.11-11.296-25.13-24.75-24.563-21.665.051-43.33.026-65 0"/><path d="m205.97 160.63c-16.06.037-32.13.111-48.19.25-14.619 2.798-22.2 19.12-21.22 32.813.093 17.89.028 35.791-.031 53.688 36-20.753 66.03-50.743 86.78-86.75-5.781.005-11.563-.013-17.344 0"/><path d="m241.88 160.59c-23.842 44.47-61.03 81.49-105.41 105.44-.006 6.07.01 12.12.031 18.19 52.835-26.778 96.95-70.66 123.47-123.59-6.03-.009-12.06-.029-18.09-.031"/></g><path d="m272.84 170.94c-2.841 5.428-5.854 10.764-9.03 16 27.337 42.754 66.45 77.956 111.94 100.47.012-6.03.01-12.07.031-18.09-42.563-22.421-78.57-56.921-102.94-98.37"/><path d="m272.84 170.94c-2.841 5.428-5.854 10.764-9.03 16 27.337 42.754 66.45 77.956 111.94 100.47.012-6.03.01-12.07.031-18.09-42.563-22.421-78.57-56.921-102.94-98.37" style="fill:#fff"/></svg>