<svg xmlns="http://www.w3.org/2000/svg" viewBox="0 0 512 512"><defs><filter style="color-interpolation-filters:sRGB"><feGaussianBlur stdDeviation="1.71"/></filter><linearGradient y1="92.54" x2="0" y2="7.02" id="0" gradientUnits="userSpaceOnUse" gradientTransform="scale(1.0059.99417)"><stop/><stop offset="1" style="stop-opacity:.588"/></linearGradient></defs><text x="-1160.48" y="549.52" line-height="125%" style="letter-spacing:0;word-spacing:0;font-size:208.33;font-family:Gentium Book Basic"><tspan x="-1160.48" y="549.52"/></text><text x="28.534" y="1642.24" transform="scale(4.0128.2492)" style="font-size:75.7;font-family:Arial;text-anchor:middle"/><g style="fill-rule:evenodd"><path d="m471.95 253.05c0 120.9-98.01 218.9-218.9 218.9-120.9 0-218.9-98.01-218.9-218.9 0-120.9 98.01-218.9 218.9-218.9 120.9 0 218.9 98.01 218.9 218.9" style="fill:#0078ad"/><path d="m256 1c-140.83 0-255 114.17-255 255 0 140.83 114.17 255 255 255 140.83 0 255-114.17 255-255 0-140.83-114.17-255-255-255m8.827 44.931c120.9 0 218.9 98 218.9 218.9 0 120.9-98 218.9-218.9 218.9-120.9 0-218.93-98-218.93-218.9 0-120.9 98.03-218.9 218.93-218.9" style="fill-opacity:.067"/><g style="fill-opacity:.129"><path d="m256 4.43c-138.94 0-251.57 112.63-251.57 251.57 0 138.94 112.63 251.57 251.57 251.57 138.94 0 251.57-112.63 251.57-251.57 0-138.94-112.63-251.57-251.57-251.57m5.885 38.556c120.9 0 218.9 98 218.9 218.9 0 120.9-98 218.9-218.9 218.9-120.9 0-218.93-98-218.93-218.9 0-120.9 98.03-218.9 218.93-218.9"/><path d="m256 8.36c-136.77 0-247.64 110.87-247.64 247.64 0 136.77 110.87 247.64 247.64 247.64 136.77 0 247.64-110.87 247.64-247.64 0-136.77-110.87-247.64-247.64-247.64m2.942 31.691c120.9 0 218.9 98 218.9 218.9 0 120.9-98 218.9-218.9 218.9-120.9 0-218.93-98-218.93-218.9 0-120.9 98.03-218.9 218.93-218.9"/></g><path d="m253.04 7.86c-135.42 0-245.19 109.78-245.19 245.19 0 135.42 109.78 245.19 245.19 245.19 135.42 0 245.19-109.78 245.19-245.19 0-135.42-109.78-245.19-245.19-245.19zm0 26.297c120.9 0 218.9 98 218.9 218.9 0 120.9-98 218.9-218.9 218.9-120.9 0-218.93-98-218.93-218.9 0-120.9 98.03-218.9 218.93-218.9z" style="stroke-opacity:.31;fill:#fff;stroke:#000;stroke-width:4.904"/></g><text x="729.64" y="231.36" line-height="125%" style="letter-spacing:0;word-spacing:0;font-size:129.23;font-family:Gentium Book Basic"><tspan x="729.64" y="231.36"/></text><text x="378.91" y="579.26" transform="scale(4.0128.2492)" style="font-size:46.954;font-family:Arial;text-anchor:middle"/><text x="1310.91" y="151.36" line-height="125%" style="letter-spacing:0;word-spacing:0;font-size:129.23;font-family:Gentium Book Basic"><tspan x="1310.91" y="151.36"/></text><text x="523.76" y="258.22" transform="scale(4.0128.2492)" style="font-size:46.954;font-family:Arial;text-anchor:middle"/><text x="239.33" y="-29.9" line-height="125%" style="letter-spacing:0;word-spacing:0;font-size:129.23;font-family:Gentium Book Basic"><tspan x="239.33" y="-29.9"/></text><text x="256.72" y="-469.13" transform="scale(4.0128.2492)" style="font-size:46.954;font-family:Arial;text-anchor:middle"/><text x="1337.38" y="-246.37" line-height="125%" style="letter-spacing:0;word-spacing:0;font-size:129.23;font-family:Gentium Book Basic"><tspan x="1337.38" y="-246.37"/></text><text x="530.36" y="-1337.8" transform="scale(4.0128.2492)" style="font-size:46.954;font-family:Arial;text-anchor:middle"/><text x="1918.65" y="-326.37" line-height="125%" style="letter-spacing:0;word-spacing:0;font-size:129.23;font-family:Gentium Book Basic"><tspan x="1918.65" y="-326.37"/></text><text x="675.21" y="-1658.83" transform="scale(4.0128.2492)" style="font-size:46.954;font-family:Arial;text-anchor:middle"/><text x="1529.53" y="-798.77" line-height="125%" style="letter-spacing:0;word-spacing:0;font-size:129.23;font-family:Gentium Book Basic"><tspan x="1529.53" y="-798.77"/></text><text x="578.24" y="-3554.48" transform="scale(4.0128.2492)" style="font-size:46.954;font-family:Arial;text-anchor:middle"/><text x="2110.79" y="-878.78" line-height="125%" style="letter-spacing:0;word-spacing:0;font-size:129.23;font-family:Gentium Book Basic"><tspan x="2110.79" y="-878.78"/></text><text x="723.09" y="-3875.52" transform="scale(4.0128.2492)" style="font-size:46.954;font-family:Arial;text-anchor:middle"/><g line-height="125%" style="letter-spacing:0;word-spacing:0;font-family:Gentium Book Basic"><text x="277.99" y="535.94" style="font-size:208.33"><tspan x="277.99" y="535.94"/></text><g style="fill:#fff"><g style="font-size:179.16"><text x="-924.62" y="69.31"><tspan x="-924.62" y="69.31" style="fill:#fff"/></text><text x="-2953.21" y="308.49"><tspan x="-2953.21" y="308.49" style="fill:#fff"/></text><text x="-2705.35" y="113.03"><tspan x="-2705.35" y="113.03" style="fill:#fff"/></text><text x="902" y="-107.9"><tspan x="902" y="-107.9" style="fill:#fff"/></text><text x="-928.02" y="16.823"><tspan x="-928.02" y="16.823" style="fill:#fff"/></text><text x="-2956.61" y="256.01"><tspan x="-2956.61" y="256.01" style="fill:#fff"/></text><text x="-2708.74" y="60.54"><tspan x="-2708.74" y="60.54" style="fill:#fff"/></text></g><g style="font-size:185.33"><text x="-940.73" y="63.49"><tspan x="-940.73" y="63.49" style="fill:#fff"/></text><text x="-3039.14" y="310.9"><tspan x="-3039.14" y="310.9" style="fill:#fff"/></text><text x="-2782.75" y="108.71"><tspan x="-2782.75" y="108.71" style="fill:#fff"/></text><text x="948.77" y="-119.83"><tspan x="948.77" y="-119.83" style="fill:#fff"/></text><text x="-944.24" y="9.193"><tspan x="-944.24" y="9.193" style="fill:#fff"/></text><text x="-3042.66" y="256.61"><tspan x="-3042.66" y="256.61" style="fill:#fff"/></text><text x="-2786.26" y="54.41"><tspan x="-2786.26" y="54.41" style="fill:#fff"/></text></g><g style="font-size:179.16"><text x="-924.62" y="69.31" style="opacity:.408"><tspan x="-924.62" y="69.31" style="fill:#fff"/></text><text x="-2953.21" y="308.49" style="opacity:.408"><tspan x="-2953.21" y="308.49" style="fill:#fff"/></text><text x="-2705.35" y="113.03" style="opacity:.408"><tspan x="-2705.35" y="113.03" style="fill:#fff"/></text><text x="902" y="-107.9" style="opacity:.408"><tspan x="902" y="-107.9" style="fill:#fff"/></text><text x="-928.02" y="16.823" style="opacity:.408"><tspan x="-928.02" y="16.823" style="fill:#fff"/></text><text x="-2956.61" y="256.01" style="opacity:.408"><tspan x="-2956.61" y="256.01" style="fill:#fff"/></text><text x="-2708.74" y="60.54" style="opacity:.408"><tspan x="-2708.74" y="60.54" style="fill:#fff"/></text></g><g style="font-size:185.33"><text x="-940.73" y="63.49" style="opacity:.408"><tspan x="-940.73" y="63.49" style="fill:#fff"/></text><text x="-3039.14" y="310.9" style="opacity:.408"><tspan x="-3039.14" y="310.9" style="fill:#fff"/></text><text x="-2782.75" y="108.71" style="opacity:.408"><tspan x="-2782.75" y="108.71" style="fill:#fff"/></text><text x="948.77" y="-119.83" style="opacity:.408"><tspan x="948.77" y="-119.83" style="fill:#fff"/></text><text x="-944.24" y="9.193" style="opacity:.408"><tspan x="-944.24" y="9.193" style="fill:#fff"/></text><text x="-3042.66" y="256.61" style="opacity:.408"><tspan x="-3042.66" y="256.61" style="fill:#fff"/></text><text x="-2786.26" y="54.41" style="opacity:.408"><tspan x="-2786.26" y="54.41" style="fill:#fff"/></text></g></g><text x="655.88" y="168.44" style="font-size:129.23"><tspan x="655.88" y="168.44"/></text></g><text x="360.53" y="326.78" transform="scale(4.0128.2492)" style="font-size:46.954;font-family:Arial;text-anchor:middle"/><text x="1237.15" y="88.44" line-height="125%" style="letter-spacing:0;word-spacing:0;font-size:129.23;font-family:Gentium Book Basic"><tspan x="1237.15" y="88.44"/></text><text x="505.38" y="5.751" transform="scale(4.0128.2492)" style="font-size:46.954;font-family:Arial;text-anchor:middle"/><text x="165.57" y="-92.82" line-height="125%" style="letter-spacing:0;word-spacing:0;font-size:129.23;font-family:Gentium Book Basic"><tspan x="165.57" y="-92.82"/></text><text x="238.34" y="-721.61" transform="scale(4.0128.2492)" style="font-size:46.954;font-family:Arial;text-anchor:middle"/><text x="1263.62" y="-309.29" line-height="125%" style="letter-spacing:0;word-spacing:0;font-size:129.23;font-family:Gentium Book Basic"><tspan x="1263.62" y="-309.29"/></text><text x="511.98" y="-1590.27" transform="scale(4.0128.2492)" style="font-size:46.954;font-family:Arial;text-anchor:middle"/><text x="1844.89" y="-389.3" line-height="125%" style="letter-spacing:0;word-spacing:0;font-size:129.23;font-family:Gentium Book Basic"><tspan x="1844.89" y="-389.3"/></text><text x="656.82" y="-1911.31" transform="scale(4.0128.2492)" style="font-size:46.954;font-family:Arial;text-anchor:middle"/><text x="1455.77" y="-861.7" line-height="125%" style="letter-spacing:0;word-spacing:0;font-size:129.23;font-family:Gentium Book Basic"><tspan x="1455.77" y="-861.7"/></text><text x="559.86" y="-3806.96" transform="scale(4.0128.2492)" style="font-size:46.954;font-family:Arial;text-anchor:middle"/><text x="2037.03" y="-941.7" line-height="125%" style="letter-spacing:0;word-spacing:0;font-size:129.23;font-family:Gentium Book Basic"><tspan x="2037.03" y="-941.7"/></text><text x="704.7" y="-4127.99" transform="scale(4.0128.2492)" style="font-size:46.954;font-family:Arial;text-anchor:middle"/><g line-height="125%" style="letter-spacing:0;word-spacing:0;font-family:Gentium Book Basic"><text x="204.23" y="473.02" style="font-size:208.33"><tspan x="204.23" y="473.02"/></text><text x="833.78" y="233.21" style="font-size:129.23"><tspan x="833.78" y="233.21"/></text></g><text x="404.86" y="586.69" transform="scale(4.0128.2492)" style="font-size:46.954;font-family:Arial;text-anchor:middle"/><text x="1415.05" y="153.21" line-height="125%" style="letter-spacing:0;word-spacing:0;font-size:129.23;font-family:Gentium Book Basic"><tspan x="1415.05" y="153.21"/></text><text x="549.71" y="265.65" transform="scale(4.0128.2492)" style="font-size:46.954;font-family:Arial;text-anchor:middle"/><text x="343.47" y="-28.05" line-height="125%" style="letter-spacing:0;word-spacing:0;font-size:129.23;font-family:Gentium Book Basic"><tspan x="343.47" y="-28.05"/></text><text x="282.67" y="-461.69" transform="scale(4.0128.2492)" style="font-size:46.954;font-family:Arial;text-anchor:middle"/><text x="1441.52" y="-244.52" line-height="125%" style="letter-spacing:0;word-spacing:0;font-size:129.23;font-family:Gentium Book Basic"><tspan x="1441.52" y="-244.52"/></text><text x="556.31" y="-1330.36" transform="scale(4.0128.2492)" style="font-size:46.954;font-family:Arial;text-anchor:middle"/><text x="2022.79" y="-324.52" line-height="125%" style="letter-spacing:0;word-spacing:0;font-size:129.23;font-family:Gentium Book Basic"><tspan x="2022.79" y="-324.52"/></text><text x="701.16" y="-1651.39" transform="scale(4.0128.2492)" style="font-size:46.954;font-family:Arial;text-anchor:middle"/><text x="1633.67" y="-796.92" line-height="125%" style="letter-spacing:0;word-spacing:0;font-size:129.23;font-family:Gentium Book Basic"><tspan x="1633.67" y="-796.92"/></text><text x="604.19" y="-3547.03" transform="scale(4.0128.2492)" style="font-size:46.954;font-family:Arial;text-anchor:middle"/><text x="2214.93" y="-876.93" line-height="125%" style="letter-spacing:0;word-spacing:0;font-size:129.23;font-family:Gentium Book Basic"><tspan x="2214.93" y="-876.93"/></text><text x="749.04" y="-3868.06" transform="scale(4.0128.2492)" style="font-size:46.954;font-family:Arial;text-anchor:middle"/><g line-height="125%" style="letter-spacing:0;word-spacing:0;font-family:Gentium Book Basic"><text x="382.13" y="537.79" style="font-size:208.33"><tspan x="382.13" y="537.79"/></text><text x="655.88" y="169.43" style="font-size:129.23"><tspan x="655.88" y="169.43"/></text></g><text x="360.53" y="330.72" transform="scale(4.0128.2492)" style="font-size:46.954;font-family:Arial;text-anchor:middle"/><text x="1237.15" y="89.43" line-height="125%" style="letter-spacing:0;word-spacing:0;font-size:129.23;font-family:Gentium Book Basic"><tspan x="1237.15" y="89.43"/></text><text x="505.38" y="9.685" transform="scale(4.0128.2492)" style="font-size:46.954;font-family:Arial;text-anchor:middle"/><text x="165.57" y="-91.83" line-height="125%" style="letter-spacing:0;word-spacing:0;font-size:129.23;font-family:Gentium Book Basic"><tspan x="165.57" y="-91.83"/></text><text x="238.34" y="-717.66" transform="scale(4.0128.2492)" style="font-size:46.954;font-family:Arial;text-anchor:middle"/><text x="1263.62" y="-308.3" line-height="125%" style="letter-spacing:0;word-spacing:0;font-size:129.23;font-family:Gentium Book Basic"><tspan x="1263.62" y="-308.3"/></text><text x="511.98" y="-1586.33" transform="scale(4.0128.2492)" style="font-size:46.954;font-family:Arial;text-anchor:middle"/><text x="1844.89" y="-388.3" line-height="125%" style="letter-spacing:0;word-spacing:0;font-size:129.23;font-family:Gentium Book Basic"><tspan x="1844.89" y="-388.3"/></text><text x="656.82" y="-1907.36" transform="scale(4.0128.2492)" style="font-size:46.954;font-family:Arial;text-anchor:middle"/><text x="1455.77" y="-860.7" line-height="125%" style="letter-spacing:0;word-spacing:0;font-size:129.23;font-family:Gentium Book Basic"><tspan x="1455.77" y="-860.7"/></text><text x="559.86" y="-3803" transform="scale(4.0128.2492)" style="font-size:46.954;font-family:Arial;text-anchor:middle"/><text x="2037.03" y="-940.71" line-height="125%" style="letter-spacing:0;word-spacing:0;font-size:129.23;font-family:Gentium Book Basic"><tspan x="2037.03" y="-940.71"/></text><text x="704.7" y="-4124.03" transform="scale(4.0128.2492)" style="font-size:46.954;font-family:Arial;text-anchor:middle"/><g line-height="125%" style="letter-spacing:0;word-spacing:0;font-family:Gentium Book Basic"><text x="204.23" y="474.01" style="font-size:208.33"><tspan x="204.23" y="474.01"/></text><text x="-632.8" y="174.67" style="font-size:129.23"><tspan x="-632.8" y="174.67"/></text></g><text x="39.39" y="351.75" transform="scale(4.0128.2492)" style="font-size:46.954;font-family:Arial;text-anchor:middle"/><text x="-51.53" y="94.67" line-height="125%" style="letter-spacing:0;word-spacing:0;font-size:129.23;font-family:Gentium Book Basic"><tspan x="-51.53" y="94.67"/></text><text x="184.24" y="30.712" transform="scale(4.0128.2492)" style="font-size:46.954;font-family:Arial;text-anchor:middle"/><text x="-1123.11" y="-86.59" line-height="125%" style="letter-spacing:0;word-spacing:0;font-size:129.23;font-family:Gentium Book Basic"><tspan x="-1123.11" y="-86.59"/></text><text x="-82.8" y="-696.63" transform="scale(4.0128.2492)" style="font-size:46.954;font-family:Arial;text-anchor:middle"/><text x="-25.06" y="-303.06" line-height="125%" style="letter-spacing:0;word-spacing:0;font-size:129.23;font-family:Gentium Book Basic"><tspan x="-25.06" y="-303.06"/></text><text x="190.84" y="-1565.3" transform="scale(4.0128.2492)" style="font-size:46.954;font-family:Arial;text-anchor:middle"/><text x="556.21" y="-383.06" line-height="125%" style="letter-spacing:0;word-spacing:0;font-size:129.23;font-family:Gentium Book Basic"><tspan x="556.21" y="-383.06"/></text><text x="335.68" y="-1886.33" transform="scale(4.0128.2492)" style="font-size:46.954;font-family:Arial;text-anchor:middle"/><text x="167.09" y="-855.46" line-height="125%" style="letter-spacing:0;word-spacing:0;font-size:129.23;font-family:Gentium Book Basic"><tspan x="167.09" y="-855.46"/></text><text x="238.72" y="-3781.97" transform="scale(4.0128.2492)" style="font-size:46.954;font-family:Arial;text-anchor:middle"/><text x="748.35" y="-935.47" line-height="125%" style="letter-spacing:0;word-spacing:0;font-size:129.23;font-family:Gentium Book Basic"><tspan x="748.35" y="-935.47"/></text><text x="383.56" y="-4103.01" transform="scale(4.0128.2492)" style="font-size:46.954;font-family:Arial;text-anchor:middle"/><g line-height="125%" style="letter-spacing:0;word-spacing:0;font-family:Gentium Book Basic"><text x="-1084.45" y="479.25" style="font-size:208.33"><tspan x="-1084.45" y="479.25"/></text><text x="718.78" y="158.11" style="font-size:129.23"><tspan x="718.78" y="158.11"/></text></g><text x="376.2" y="285.3" transform="scale(4.0128.2492)" style="font-size:46.954;font-family:Arial;text-anchor:middle"/><text x="1300.05" y="78.11" line-height="125%" style="letter-spacing:0;word-spacing:0;font-size:129.23;font-family:Gentium Book Basic"><tspan x="1300.05" y="78.11"/></text><text x="521.05" y="-35.728" transform="scale(4.0128.2492)" style="font-size:46.954;font-family:Arial;text-anchor:middle"/><text x="228.47" y="-103.15" line-height="125%" style="letter-spacing:0;word-spacing:0;font-size:129.23;font-family:Gentium Book Basic"><tspan x="228.47" y="-103.15"/></text><text x="254.01" y="-763.08" transform="scale(4.0128.2492)" style="font-size:46.954;font-family:Arial;text-anchor:middle"/><text x="1326.52" y="-319.62" line-height="125%" style="letter-spacing:0;word-spacing:0;font-size:129.23;font-family:Gentium Book Basic"><tspan x="1326.52" y="-319.62"/></text><text x="527.65" y="-1631.75" transform="scale(4.0128.2492)" style="font-size:46.954;font-family:Arial;text-anchor:middle"/><text x="1907.79" y="-399.63" line-height="125%" style="letter-spacing:0;word-spacing:0;font-size:129.23;font-family:Gentium Book Basic"><tspan x="1907.79" y="-399.63"/></text><text x="672.5" y="-1952.79" transform="scale(4.0128.2492)" style="font-size:46.954;font-family:Arial;text-anchor:middle"/><text x="1518.67" y="-872.03" line-height="125%" style="letter-spacing:0;word-spacing:0;font-size:129.23;font-family:Gentium Book Basic"><tspan x="1518.67" y="-872.03"/></text><text x="575.53" y="-3848.44" transform="scale(4.0128.2492)" style="font-size:46.954;font-family:Arial;text-anchor:middle"/><text x="2099.93" y="-952.03" line-height="125%" style="letter-spacing:0;word-spacing:0;font-size:129.23;font-family:Gentium Book Basic"><tspan x="2099.93" y="-952.03"/></text><text x="720.38" y="-4169.47" transform="scale(4.0128.2492)" style="font-size:46.954;font-family:Arial;text-anchor:middle"/><g line-height="125%" style="letter-spacing:0;word-spacing:0;font-family:Gentium Book Basic"><text x="267.13" y="462.69" style="font-size:208.33"><tspan x="267.13" y="462.69"/></text><text x="857.64" y="66.48" style="font-size:129.23"><tspan x="857.64" y="66.48"/></text></g><text x="410.81" y="-82.38" transform="scale(4.0128.2492)" style="font-size:46.954;font-family:Arial;text-anchor:middle"/><text x="1438.91" y="-13.521" line-height="125%" style="letter-spacing:0;word-spacing:0;font-size:129.23;font-family:Gentium Book Basic"><tspan x="1438.91" y="-13.521"/></text><text x="555.66" y="-403.42" transform="scale(4.0128.2492)" style="font-size:46.954;font-family:Arial;text-anchor:middle"/><text x="367.33" y="-194.78" line-height="125%" style="letter-spacing:0;word-spacing:0;font-size:129.23;font-family:Gentium Book Basic"><tspan x="367.33" y="-194.78"/></text><text x="288.62" y="-1130.77" transform="scale(4.0128.2492)" style="font-size:46.954;font-family:Arial;text-anchor:middle"/><text x="1465.38" y="-411.25" line-height="125%" style="letter-spacing:0;word-spacing:0;font-size:129.23;font-family:Gentium Book Basic"><tspan x="1465.38" y="-411.25"/></text><text x="562.26" y="-1999.43" transform="scale(4.0128.2492)" style="font-size:46.954;font-family:Arial;text-anchor:middle"/><text x="2046.65" y="-491.25" line-height="125%" style="letter-spacing:0;word-spacing:0;font-size:129.23;font-family:Gentium Book Basic"><tspan x="2046.65" y="-491.25"/></text><text x="707.1" y="-2320.46" transform="scale(4.0128.2492)" style="font-size:46.954;font-family:Arial;text-anchor:middle"/><text x="1657.53" y="-963.65" line-height="125%" style="letter-spacing:0;word-spacing:0;font-size:129.23;font-family:Gentium Book Basic"><tspan x="1657.53" y="-963.65"/></text><text x="610.13" y="-4216.1" transform="scale(4.0128.2492)" style="font-size:46.954;font-family:Arial;text-anchor:middle"/><text x="2238.79" y="-1043.66" line-height="125%" style="letter-spacing:0;word-spacing:0;font-size:129.23;font-family:Gentium Book Basic"><tspan x="2238.79" y="-1043.66"/></text><text x="754.98" y="-4537.14" transform="scale(4.0128.2492)" style="font-size:46.954;font-family:Arial;text-anchor:middle"/><g line-height="125%" style="letter-spacing:0;word-spacing:0;font-family:Gentium Book Basic"><text x="405.99" y="371.06" style="font-size:208.33"><tspan x="405.99" y="371.06"/></text><text x="777.37" y="108.55" style="font-size:129.23"><tspan x="777.37" y="108.55"/></text></g><text x="390.8" y="86.45" transform="scale(4.0128.2492)" style="font-size:46.954;font-family:Arial;text-anchor:middle"/><text x="1358.64" y="28.553" line-height="125%" style="letter-spacing:0;word-spacing:0;font-size:129.23;font-family:Gentium Book Basic"><tspan x="1358.64" y="28.553"/></text><text x="535.65" y="-234.58" transform="scale(4.0128.2492)" style="font-size:46.954;font-family:Arial;text-anchor:middle"/><text x="287.06" y="-152.71" line-height="125%" style="letter-spacing:0;word-spacing:0;font-size:129.23;font-family:Gentium Book Basic"><tspan x="287.06" y="-152.71"/></text><text x="268.61" y="-961.94" transform="scale(4.0128.2492)" style="font-size:46.954;font-family:Arial;text-anchor:middle"/><text x="1385.11" y="-369.18" line-height="125%" style="letter-spacing:0;word-spacing:0;font-size:129.23;font-family:Gentium Book Basic"><tspan x="1385.11" y="-369.18"/></text><text x="542.25" y="-1830.61" transform="scale(4.0128.2492)" style="font-size:46.954;font-family:Arial;text-anchor:middle"/><text x="1966.38" y="-449.19" line-height="125%" style="letter-spacing:0;word-spacing:0;font-size:129.23;font-family:Gentium Book Basic"><tspan x="1966.38" y="-449.19"/></text><text x="687.1" y="-2151.64" transform="scale(4.0128.2492)" style="font-size:46.954;font-family:Arial;text-anchor:middle"/><text x="1577.26" y="-921.59" line-height="125%" style="letter-spacing:0;word-spacing:0;font-size:129.23;font-family:Gentium Book Basic"><tspan x="1577.26" y="-921.59"/></text><text x="590.13" y="-4047.29" transform="scale(4.0128.2492)" style="font-size:46.954;font-family:Arial;text-anchor:middle"/><text x="2158.52" y="-1001.59" line-height="125%" style="letter-spacing:0;word-spacing:0;font-size:129.23;font-family:Gentium Book Basic"><tspan x="2158.52" y="-1001.59"/></text><text x="734.98" y="-4368.32" transform="scale(4.0128.2492)" style="font-size:46.954;font-family:Arial;text-anchor:middle"/><g line-height="125%" style="letter-spacing:0;word-spacing:0;font-family:Gentium Book Basic"><text x="325.72" y="413.13" style="font-size:208.33"><tspan x="325.72" y="413.13"/></text><text x="797.01" y="156.57" style="font-size:129.23"><tspan x="797.01" y="156.57"/></text></g><text x="395.7" y="279.16" transform="scale(4.0128.2492)" style="font-size:46.954;font-family:Arial;text-anchor:middle"/><text x="1378.28" y="76.57" line-height="125%" style="letter-spacing:0;word-spacing:0;font-size:129.23;font-family:Gentium Book Basic"><tspan x="1378.28" y="76.57"/></text><text x="540.55" y="-41.882" transform="scale(4.0128.2492)" style="font-size:46.954;font-family:Arial;text-anchor:middle"/><text x="306.7" y="-104.69" line-height="125%" style="letter-spacing:0;word-spacing:0;font-size:129.23;font-family:Gentium Book Basic"><tspan x="306.7" y="-104.69"/></text><text x="273.51" y="-769.23" transform="scale(4.0128.2492)" style="font-size:46.954;font-family:Arial;text-anchor:middle"/><text x="1404.75" y="-321.16" line-height="125%" style="letter-spacing:0;word-spacing:0;font-size:129.23;font-family:Gentium Book Basic"><tspan x="1404.75" y="-321.16"/></text><text x="547.15" y="-1637.9" transform="scale(4.0128.2492)" style="font-size:46.954;font-family:Arial;text-anchor:middle"/><text x="1986.02" y="-401.16" line-height="125%" style="letter-spacing:0;word-spacing:0;font-size:129.23;font-family:Gentium Book Basic"><tspan x="1986.02" y="-401.16"/></text><text x="692" y="-1958.93" transform="scale(4.0128.2492)" style="font-size:46.954;font-family:Arial;text-anchor:middle"/><text x="1596.9" y="-873.56" line-height="125%" style="letter-spacing:0;word-spacing:0;font-size:129.23;font-family:Gentium Book Basic"><tspan x="1596.9" y="-873.56"/></text><text x="595.03" y="-3854.58" transform="scale(4.0128.2492)" style="font-size:46.954;font-family:Arial;text-anchor:middle"/><text x="2178.16" y="-953.57" line-height="125%" style="letter-spacing:0;word-spacing:0;font-size:129.23;font-family:Gentium Book Basic"><tspan x="2178.16" y="-953.57"/></text><text x="739.88" y="-4175.62" transform="scale(4.0128.2492)" style="font-size:46.954;font-family:Arial;text-anchor:middle"/><g line-height="125%" style="letter-spacing:0;word-spacing:0;font-family:Gentium Book Basic"><text x="345.36" y="461.15" style="font-size:208.33"><tspan x="345.36" y="461.15"/></text><text x="746.39" y="132.64" style="font-size:129.23"><tspan x="746.39" y="132.64"/></text></g><text x="383.08" y="183.12" transform="scale(4.0128.2492)" style="font-size:46.954;font-family:Arial;text-anchor:middle"/><text x="1327.66" y="52.643" line-height="125%" style="letter-spacing:0;word-spacing:0;font-size:129.23;font-family:Gentium Book Basic"><tspan x="1327.66" y="52.643"/></text><text x="527.93" y="-137.91" transform="scale(4.0128.2492)" style="font-size:46.954;font-family:Arial;text-anchor:middle"/><text x="256.08" y="-128.62" line-height="125%" style="letter-spacing:0;word-spacing:0;font-size:129.23;font-family:Gentium Book Basic"><tspan x="256.08" y="-128.62"/></text><text x="260.89" y="-865.26" transform="scale(4.0128.2492)" style="font-size:46.954;font-family:Arial;text-anchor:middle"/><text x="1354.13" y="-345.09" line-height="125%" style="letter-spacing:0;word-spacing:0;font-size:129.23;font-family:Gentium Book Basic"><tspan x="1354.13" y="-345.09"/></text><text x="534.53" y="-1733.94" transform="scale(4.0128.2492)" style="font-size:46.954;font-family:Arial;text-anchor:middle"/><text x="1935.4" y="-425.09" line-height="125%" style="letter-spacing:0;word-spacing:0;font-size:129.23;font-family:Gentium Book Basic"><tspan x="1935.4" y="-425.09"/></text><text x="679.38" y="-2054.96" transform="scale(4.0128.2492)" style="font-size:46.954;font-family:Arial;text-anchor:middle"/><text x="1546.28" y="-897.49" line-height="125%" style="letter-spacing:0;word-spacing:0;font-size:129.23;font-family:Gentium Book Basic"><tspan x="1546.28" y="-897.49"/></text><text x="582.41" y="-3950.61" transform="scale(4.0128.2492)" style="font-size:46.954;font-family:Arial;text-anchor:middle"/><text x="2127.54" y="-977.5" line-height="125%" style="letter-spacing:0;word-spacing:0;font-size:129.23;font-family:Gentium Book Basic"><tspan x="2127.54" y="-977.5"/></text><text x="727.26" y="-4271.65" transform="scale(4.0128.2492)" style="font-size:46.954;font-family:Arial;text-anchor:middle"/><g line-height="125%" style="letter-spacing:0;word-spacing:0;font-family:Gentium Book Basic"><text x="294.74" y="437.22" style="font-size:208.33"><tspan x="294.74" y="437.22"/></text><text x="750.46" y="-86.991" style="font-size:129.23"><tspan x="750.46" y="-86.991"/></text></g><text x="384.1" y="-698.23" transform="scale(4.0128.2492)" style="font-size:46.954;font-family:Arial;text-anchor:middle"/><text x="1331.73" y="-166.99" line-height="125%" style="letter-spacing:0;word-spacing:0;font-size:129.23;font-family:Gentium Book Basic"><tspan x="1331.73" y="-166.99"/></text><text x="528.94" y="-1019.27" transform="scale(4.0128.2492)" style="font-size:46.954;font-family:Arial;text-anchor:middle"/><text x="260.15" y="-348.25" line-height="125%" style="letter-spacing:0;word-spacing:0;font-size:129.23;font-family:Gentium Book Basic"><tspan x="260.15" y="-348.25"/></text><text x="261.91" y="-1746.61" transform="scale(4.0128.2492)" style="font-size:46.954;font-family:Arial;text-anchor:middle"/><text x="1358.2" y="-564.72" line-height="125%" style="letter-spacing:0;word-spacing:0;font-size:129.23;font-family:Gentium Book Basic"><tspan x="1358.2" y="-564.72"/></text><text x="535.54" y="-2615.29" transform="scale(4.0128.2492)" style="font-size:46.954;font-family:Arial;text-anchor:middle"/><text x="1939.47" y="-644.72" line-height="125%" style="letter-spacing:0;word-spacing:0;font-size:129.23;font-family:Gentium Book Basic"><tspan x="1939.47" y="-644.72"/></text><text x="680.39" y="-2936.32" transform="scale(4.0128.2492)" style="font-size:46.954;font-family:Arial;text-anchor:middle"/><text x="1550.35" y="-1117.12" line-height="125%" style="letter-spacing:0;word-spacing:0;font-size:129.23;font-family:Gentium Book Basic"><tspan x="1550.35" y="-1117.12"/></text><text x="583.42" y="-4831.97" transform="scale(4.0128.2492)" style="font-size:46.954;font-family:Arial;text-anchor:middle"/><text x="2131.61" y="-1197.13" line-height="125%" style="letter-spacing:0;word-spacing:0;font-size:129.23;font-family:Gentium Book Basic"><tspan x="2131.61" y="-1197.13"/></text><text x="728.27" y="-5153.01" transform="scale(4.0128.2492)" style="font-size:46.954;font-family:Arial;text-anchor:middle"/><g transform="translate(20.816-858.71)" line-height="125%" style="letter-spacing:0;word-spacing:0;font-size:208.33;font-family:Gentium Book Basic"><text x="277.99" y="1076.3"><tspan x="277.99" y="1076.3"/></text><text x="-1666.79" y="907.01"><tspan x="-1666.79" y="907.01"/></text></g><text x="-92.45" y="-369.07" transform="scale(4.0128.2492)" style="font-size:75.7;font-family:Arial;text-anchor:middle"/><text x="692.76" y="183.93" line-height="125%" style="letter-spacing:0;word-spacing:0;font-size:129.23;font-family:Gentium Book Basic"><tspan x="692.76" y="183.93"/></text><text x="369.72" y="388.95" transform="scale(4.0128.2492)" style="font-size:46.954;font-family:Arial;text-anchor:middle"/><text x="1274.03" y="103.93" line-height="125%" style="letter-spacing:0;word-spacing:0;font-size:129.23;font-family:Gentium Book Basic"><tspan x="1274.03" y="103.93"/></text><text x="514.57" y="67.907" transform="scale(4.0128.2492)" style="font-size:46.954;font-family:Arial;text-anchor:middle"/><text x="202.45" y="-77.33" line-height="125%" style="letter-spacing:0;word-spacing:0;font-size:129.23;font-family:Gentium Book Basic"><tspan x="202.45" y="-77.33"/></text><text x="247.53" y="-659.44" transform="scale(4.0128.2492)" style="font-size:46.954;font-family:Arial;text-anchor:middle"/><text x="1300.5" y="-293.8" line-height="125%" style="letter-spacing:0;word-spacing:0;font-size:129.23;font-family:Gentium Book Basic"><tspan x="1300.5" y="-293.8"/></text><text x="521.17" y="-1528.1" transform="scale(4.0128.2492)" style="font-size:46.954;font-family:Arial;text-anchor:middle"/><text x="1881.77" y="-373.8" line-height="125%" style="letter-spacing:0;word-spacing:0;font-size:129.23;font-family:Gentium Book Basic"><tspan x="1881.77" y="-373.8"/></text><text x="666.02" y="-1849.13" transform="scale(4.0128.2492)" style="font-size:46.954;font-family:Arial;text-anchor:middle"/><text x="1492.65" y="-846.2" line-height="125%" style="letter-spacing:0;word-spacing:0;font-size:129.23;font-family:Gentium Book Basic"><tspan x="1492.65" y="-846.2"/></text><text x="569.05" y="-3744.77" transform="scale(4.0128.2492)" style="font-size:46.954;font-family:Arial;text-anchor:middle"/><text x="2073.91" y="-926.21" line-height="125%" style="letter-spacing:0;word-spacing:0;font-size:129.23;font-family:Gentium Book Basic"><tspan x="2073.91" y="-926.21"/></text><text x="713.9" y="-4065.81" transform="scale(4.0128.2492)" style="font-size:46.954;font-family:Arial;text-anchor:middle"/><g line-height="125%" style="letter-spacing:0;word-spacing:0;font-size:208.33;font-family:Gentium Book Basic"><text x="241.11" y="488.51"><tspan x="241.11" y="488.51"/></text><text x="-1162.65" y="513.83"><tspan x="-1162.65" y="513.83"/></text></g><text x="27.993" y="1499.04" transform="scale(4.0128.2492)" style="font-size:75.7;font-family:Arial;text-anchor:middle"/><text x="727.47" y="195.67" line-height="125%" style="letter-spacing:0;word-spacing:0;font-size:129.23;font-family:Gentium Book Basic"><tspan x="727.47" y="195.67"/></text><text x="378.37" y="436.05" transform="scale(4.0128.2492)" style="font-size:46.954;font-family:Arial;text-anchor:middle"/><text x="1308.74" y="115.67" line-height="125%" style="letter-spacing:0;word-spacing:0;font-size:129.23;font-family:Gentium Book Basic"><tspan x="1308.74" y="115.67"/></text><text x="523.22" y="115.01" transform="scale(4.0128.2492)" style="font-size:46.954;font-family:Arial;text-anchor:middle"/><text x="237.16" y="-65.59" line-height="125%" style="letter-spacing:0;word-spacing:0;font-size:129.23;font-family:Gentium Book Basic"><tspan x="237.16" y="-65.59"/></text><text x="256.18" y="-612.33" transform="scale(4.0128.2492)" style="font-size:46.954;font-family:Arial;text-anchor:middle"/><text x="1335.21" y="-282.06" line-height="125%" style="letter-spacing:0;word-spacing:0;font-size:129.23;font-family:Gentium Book Basic"><tspan x="1335.21" y="-282.06"/></text><text x="529.82" y="-1481.01" transform="scale(4.0128.2492)" style="font-size:46.954;font-family:Arial;text-anchor:middle"/><text x="1916.48" y="-362.06" line-height="125%" style="letter-spacing:0;word-spacing:0;font-size:129.23;font-family:Gentium Book Basic"><tspan x="1916.48" y="-362.06"/></text><text x="674.67" y="-1802.04" transform="scale(4.0128.2492)" style="font-size:46.954;font-family:Arial;text-anchor:middle"/><text x="1527.36" y="-834.46" line-height="125%" style="letter-spacing:0;word-spacing:0;font-size:129.23;font-family:Gentium Book Basic"><tspan x="1527.36" y="-834.46"/></text><text x="577.7" y="-3697.69" transform="scale(4.0128.2492)" style="font-size:46.954;font-family:Arial;text-anchor:middle"/><text x="2108.62" y="-914.47" line-height="125%" style="letter-spacing:0;word-spacing:0;font-size:129.23;font-family:Gentium Book Basic"><tspan x="2108.62" y="-914.47"/></text><text x="722.55" y="-4018.72" transform="scale(4.0128.2492)" style="font-size:46.954;font-family:Arial;text-anchor:middle"/><text x="275.82" y="500.25" line-height="125%" style="letter-spacing:0;word-spacing:0;font-size:208.33;font-family:Gentium Book Basic"><tspan x="275.82" y="500.25"/></text><g style="color:#000;fill-rule:evenodd"><path d="m255.81 101.07c-43.743 0-79.31 36.882-79.31 82.79 0 23.68 9.467 45.08 24.639 60.25l69.05 69.05c-4.717.573-9.512.873-14.373.873-27.687 0-53.28-9.554-73.951-25.689-31.956 7.963-58.45 48.731-57.24 98.73l79.36 79.36c15.776 3.614 32.2 5.525 49.07 5.525 110.65 0 202.12-82.11 216.82-188.73l-159.16-159.16c-14.259-14.259-33.612-22.994-54.9-22.994" style="opacity:.25"/><path d="m255.82 101.07c-43.743 0-79.31 36.883-79.31 82.79 0 45.902 35.572 83.24 79.31 83.24 43.743 0 79.31-37.34 79.31-83.24 0-45.902-35.572-82.79-79.31-82.79m-73.952 187.27c-31.956 7.963-58.45 48.733-57.24 98.73h262.76c1.144-50-25.59-90.79-57.62-98.73-20.669 16.14-46.26 25.69-73.952 25.69-27.687 0-53.28-9.555-73.952-25.69" style="fill:#fff"/></g></svg>