<svg xmlns="http://www.w3.org/2000/svg" viewBox="0 0 512 512"><g line-height="125%" style="letter-spacing:0;word-spacing:0"><g style="font-size:0;font-family:&apos;Gentium Book Basic&apos;"><text y="383.17" x="-1672.58"><tspan y="383.17" x="-1672.58"/></text><text y="80.12" x="1476.07"><tspan y="80.12" x="1476.07"/></text></g><text x="729.64" y="231.36" style="font-size:129.23;font-family:Gentium Book Basic"><tspan x="729.64" y="231.36"/></text></g><text x="378.91" y="579.25" transform="scale(4.0128.2492)" style="font-size:46.954;font-family:Arial;text-anchor:middle"/><text x="1310.91" y="151.36" line-height="125%" style="letter-spacing:0;word-spacing:0;font-size:129.23;font-family:Gentium Book Basic"><tspan x="1310.91" y="151.36"/></text><text x="523.76" y="258.22" transform="scale(4.0128.2492)" style="font-size:46.954;font-family:Arial;text-anchor:middle"/><text x="239.33" y="-29.901" line-height="125%" style="letter-spacing:0;word-spacing:0;font-size:129.23;font-family:Gentium Book Basic"><tspan x="239.33" y="-29.901"/></text><text x="256.72" y="-469.14" transform="scale(4.0128.2492)" style="font-size:46.954;font-family:Arial;text-anchor:middle"/><text x="1337.38" y="-246.37" line-height="125%" style="letter-spacing:0;word-spacing:0;font-size:129.23;font-family:Gentium Book Basic"><tspan x="1337.38" y="-246.37"/></text><text x="530.36" y="-1337.81" transform="scale(4.0128.2492)" style="font-size:46.954;font-family:Arial;text-anchor:middle"/><text x="1918.65" y="-326.38" line-height="125%" style="letter-spacing:0;word-spacing:0;font-size:129.23;font-family:Gentium Book Basic"><tspan x="1918.65" y="-326.38"/></text><text x="675.21" y="-1658.85" transform="scale(4.0128.2492)" style="font-size:46.954;font-family:Arial;text-anchor:middle"/><text x="1529.53" y="-798.78" line-height="125%" style="letter-spacing:0;word-spacing:0;font-size:129.23;font-family:Gentium Book Basic"><tspan x="1529.53" y="-798.78"/></text><text x="578.24" y="-3554.51" transform="scale(4.0128.2492)" style="font-size:46.954;font-family:Arial;text-anchor:middle"/><text x="2110.79" y="-878.78" line-height="125%" style="letter-spacing:0;word-spacing:0;font-size:129.23;font-family:Gentium Book Basic"><tspan x="2110.79" y="-878.78"/></text><text x="723.09" y="-3875.54" transform="scale(4.0128.2492)" style="font-size:46.954;font-family:Arial;text-anchor:middle"/><g line-height="125%" style="letter-spacing:0;word-spacing:0"><text x="286.53" y="553.99" style="font-size:148.94;font-family:Gentium Book Basic"><tspan x="286.53" y="553.99"/></text><text x="729.64" y="231.36" style="font-size:129.23;font-family:&apos;Gentium Book Basic&apos;"><tspan x="729.64" y="231.36"/></text></g><text x="378.91" y="579.25" transform="scale(4.0128.2492)" style="font-size:46.954;font-family:Arial;text-anchor:middle"/><text x="1310.91" y="151.36" line-height="125%" style="letter-spacing:0;word-spacing:0;font-size:129.23;font-family:&apos;Gentium Book Basic&apos;"><tspan x="1310.91" y="151.36"/></text><text x="523.76" y="258.22" transform="scale(4.0128.2492)" style="font-size:46.954;font-family:Arial;text-anchor:middle"/><text x="239.33" y="-29.901" line-height="125%" style="letter-spacing:0;word-spacing:0;font-size:129.23;font-family:&apos;Gentium Book Basic&apos;"><tspan x="239.33" y="-29.901"/></text><text x="256.72" y="-469.14" transform="scale(4.0128.2492)" style="font-size:46.954;font-family:Arial;text-anchor:middle"/><text x="1337.38" y="-246.37" line-height="125%" style="letter-spacing:0;word-spacing:0;font-size:129.23;font-family:&apos;Gentium Book Basic&apos;"><tspan x="1337.38" y="-246.37"/></text><text x="530.36" y="-1337.8" transform="scale(4.0128.2492)" style="font-size:46.954;font-family:Arial;text-anchor:middle"/><text x="1918.65" y="-326.38" line-height="125%" style="letter-spacing:0;word-spacing:0;font-size:129.23;font-family:&apos;Gentium Book Basic&apos;"><tspan x="1918.65" y="-326.38"/></text><text x="675.21" y="-1658.84" transform="scale(4.0128.2492)" style="font-size:46.954;font-family:Arial;text-anchor:middle"/><text x="1529.53" y="-798.78" line-height="125%" style="letter-spacing:0;word-spacing:0;font-size:129.23;font-family:&apos;Gentium Book Basic&apos;"><tspan x="1529.53" y="-798.78"/></text><text x="578.24" y="-3554.49" transform="scale(4.0128.2492)" style="font-size:46.954;font-family:Arial;text-anchor:middle"/><text x="2110.79" y="-878.78" line-height="125%" style="letter-spacing:0;word-spacing:0;font-size:129.23;font-family:&apos;Gentium Book Basic&apos;"><tspan x="2110.79" y="-878.78"/></text><text x="723.09" y="-3875.52" transform="scale(4.0128.2492)" style="font-size:46.954;font-family:Arial;text-anchor:middle"/><g line-height="125%" style="letter-spacing:0;word-spacing:0;font-family:&apos;Gentium Book Basic&apos;"><g style="font-size:0"><text y="535.94" x="277.99"><tspan y="535.94" x="277.99"/></text><text y="11.553" x="-860.84"><tspan y="11.553" x="-860.84"/></text><text y="289.67" x="-3219.67"><tspan y="289.67" x="-3219.67"/></text><text y="62.38" x="-2931.46"><tspan y="62.38" x="-2931.46"/></text><text y="-194.52" x="1263.14"><tspan y="-194.52" x="1263.14"/></text><text y="-49.48" x="-864.79"><tspan y="-49.48" x="-864.79"/></text><text y="228.64" x="-3223.62"><tspan y="228.64" x="-3223.62"/></text><text y="1.35" x="-2935.41"><tspan y="1.35" x="-2935.41"/></text></g><g style="fill:#fff"><g style="font-size:179.16"><text x="409.62" y="86.66"><tspan x="409.62" y="86.66" style="fill:#fff"/></text><text x="-1618.98" y="325.85"><tspan x="-1618.98" y="325.85" style="fill:#fff"/></text><text x="-1371.12" y="130.39"><tspan x="-1371.12" y="130.39" style="fill:#fff"/></text><text x="2236.24" y="-90.55"><tspan x="2236.24" y="-90.55" style="fill:#fff"/></text><text x="406.22" y="34.18"><tspan x="406.22" y="34.18" style="fill:#fff"/></text><text x="-1622.37" y="273.36"><tspan x="-1622.37" y="273.36" style="fill:#fff"/></text><text x="-1374.5" y="77.893"><tspan x="-1374.5" y="77.893" style="fill:#fff"/></text></g><g style="font-size:185.33"><text x="393.51" y="80.84"><tspan x="393.51" y="80.84" style="fill:#fff"/></text><text x="-1704.91" y="328.26"><tspan x="-1704.91" y="328.26" style="fill:#fff"/></text><text x="-1448.51" y="126.07"><tspan x="-1448.51" y="126.07" style="fill:#fff"/></text><text x="2283.01" y="-102.47"><tspan x="2283.01" y="-102.47" style="fill:#fff"/></text><text x="390" y="26.549"><tspan x="390" y="26.549" style="fill:#fff"/></text><text x="-1708.42" y="273.96"><tspan x="-1708.42" y="273.96" style="fill:#fff"/></text><text x="-1452.02" y="71.77"><tspan x="-1452.02" y="71.77" style="fill:#fff"/></text></g><g style="font-size:179.16"><text x="409.62" y="86.66" style="opacity:.408"><tspan x="409.62" y="86.66" style="fill:#fff"/></text><text x="-1618.98" y="325.85" style="opacity:.408"><tspan x="-1618.98" y="325.85" style="fill:#fff"/></text><text x="-1371.12" y="130.39" style="opacity:.408"><tspan x="-1371.12" y="130.39" style="fill:#fff"/></text><text x="2236.24" y="-90.55" style="opacity:.408"><tspan x="2236.24" y="-90.55" style="fill:#fff"/></text><text x="406.22" y="34.18" style="opacity:.408"><tspan x="406.22" y="34.18" style="fill:#fff"/></text><text x="-1622.37" y="273.36" style="opacity:.408"><tspan x="-1622.37" y="273.36" style="fill:#fff"/></text><text x="-1374.5" y="77.893" style="opacity:.408"><tspan x="-1374.5" y="77.893" style="fill:#fff"/></text></g><g style="font-size:185.33"><text x="393.51" y="80.84" style="opacity:.408"><tspan x="393.51" y="80.84" style="fill:#fff"/></text><text x="-1704.91" y="328.26" style="opacity:.408"><tspan x="-1704.91" y="328.26" style="fill:#fff"/></text><text x="-1448.51" y="126.07" style="opacity:.408"><tspan x="-1448.51" y="126.07" style="fill:#fff"/></text><text x="2283.01" y="-102.47" style="opacity:.408"><tspan x="2283.01" y="-102.47" style="fill:#fff"/></text><text x="390" y="26.549" style="opacity:.408"><tspan x="390" y="26.549" style="fill:#fff"/></text><text x="-1708.42" y="273.96" style="opacity:.408"><tspan x="-1708.42" y="273.96" style="fill:#fff"/></text><text x="-1452.02" y="71.77" style="opacity:.408"><tspan x="-1452.02" y="71.77" style="fill:#fff"/></text></g></g><text x="1990.11" y="185.8" style="font-size:129.23"><tspan x="1990.11" y="185.8"/></text></g><text x="693.02" y="396.43" transform="scale(4.0128.2492)" style="font-size:46.954;font-family:Arial;text-anchor:middle"/><text x="2571.38" y="105.8" line-height="125%" style="letter-spacing:0;word-spacing:0;font-size:129.23;font-family:&apos;Gentium Book Basic&apos;"><tspan x="2571.38" y="105.8"/></text><text x="837.87" y="75.4" transform="scale(4.0128.2492)" style="font-size:46.954;font-family:Arial;text-anchor:middle"/><text x="1499.8" y="-75.46" line-height="125%" style="letter-spacing:0;word-spacing:0;font-size:129.23;font-family:&apos;Gentium Book Basic&apos;"><tspan x="1499.8" y="-75.46"/></text><text x="570.83" y="-651.96" transform="scale(4.0128.2492)" style="font-size:46.954;font-family:Arial;text-anchor:middle"/><text x="2597.85" y="-291.93" line-height="125%" style="letter-spacing:0;word-spacing:0;font-size:129.23;font-family:&apos;Gentium Book Basic&apos;"><tspan x="2597.85" y="-291.93"/></text><text x="844.47" y="-1520.62" transform="scale(4.0128.2492)" style="font-size:46.954;font-family:Arial;text-anchor:middle"/><text x="3179.12" y="-371.94" line-height="125%" style="letter-spacing:0;word-spacing:0;font-size:129.23;font-family:&apos;Gentium Book Basic&apos;"><tspan x="3179.12" y="-371.94"/></text><text x="989.32" y="-1841.66" transform="scale(4.0128.2492)" style="font-size:46.954;font-family:Arial;text-anchor:middle"/><text x="2790" y="-844.34" line-height="125%" style="letter-spacing:0;word-spacing:0;font-size:129.23;font-family:&apos;Gentium Book Basic&apos;"><tspan x="2790" y="-844.34"/></text><text x="892.35" y="-3737.31" transform="scale(4.0128.2492)" style="font-size:46.954;font-family:Arial;text-anchor:middle"/><text x="3371.26" y="-924.34" line-height="125%" style="letter-spacing:0;word-spacing:0;font-size:129.23;font-family:&apos;Gentium Book Basic&apos;"><tspan x="3371.26" y="-924.34"/></text><text x="1037.2" y="-4058.34" transform="scale(4.0128.2492)" style="font-size:46.954;font-family:Arial;text-anchor:middle"/><g line-height="125%" style="letter-spacing:0;word-spacing:0;font-family:&apos;Gentium Book Basic&apos;"><text x="1538.46" y="490.38" style="font-size:208.33"><tspan x="1538.46" y="490.38"/></text><text x="2168.01" y="250.57" style="font-size:129.23"><tspan x="2168.01" y="250.57"/></text></g><text x="737.35" y="656.34" transform="scale(4.0128.2492)" style="font-size:46.954;font-family:Arial;text-anchor:middle"/><text x="2749.28" y="170.57" line-height="125%" style="letter-spacing:0;word-spacing:0;font-size:129.23;font-family:&apos;Gentium Book Basic&apos;"><tspan x="2749.28" y="170.57"/></text><text x="882.2" y="335.3" transform="scale(4.0128.2492)" style="font-size:46.954;font-family:Arial;text-anchor:middle"/><text x="1677.7" y="-10.691" line-height="125%" style="letter-spacing:0;word-spacing:0;font-size:129.23;font-family:&apos;Gentium Book Basic&apos;"><tspan x="1677.7" y="-10.691"/></text><text x="615.16" y="-392.05" transform="scale(4.0128.2492)" style="font-size:46.954;font-family:Arial;text-anchor:middle"/><text x="2775.75" y="-227.16" line-height="125%" style="letter-spacing:0;word-spacing:0;font-size:129.23;font-family:&apos;Gentium Book Basic&apos;"><tspan x="2775.75" y="-227.16"/></text><text x="888.8" y="-1260.71" transform="scale(4.0128.2492)" style="font-size:46.954;font-family:Arial;text-anchor:middle"/><text x="3357.02" y="-307.16" line-height="125%" style="letter-spacing:0;word-spacing:0;font-size:129.23;font-family:&apos;Gentium Book Basic&apos;"><tspan x="3357.02" y="-307.16"/></text><text x="1033.65" y="-1581.74" transform="scale(4.0128.2492)" style="font-size:46.954;font-family:Arial;text-anchor:middle"/><text x="2967.9" y="-779.56" line-height="125%" style="letter-spacing:0;word-spacing:0;font-size:129.23;font-family:&apos;Gentium Book Basic&apos;"><tspan x="2967.9" y="-779.56"/></text><text x="936.68" y="-3477.38" transform="scale(4.0128.2492)" style="font-size:46.954;font-family:Arial;text-anchor:middle"/><text x="3549.16" y="-859.57" line-height="125%" style="letter-spacing:0;word-spacing:0;font-size:129.23;font-family:&apos;Gentium Book Basic&apos;"><tspan x="3549.16" y="-859.57"/></text><text x="1081.53" y="-3798.42" transform="scale(4.0128.2492)" style="font-size:46.954;font-family:Arial;text-anchor:middle"/><g line-height="125%" style="letter-spacing:0;word-spacing:0;font-family:&apos;Gentium Book Basic&apos;"><text x="1716.36" y="555.15" style="font-size:208.33"><tspan x="1716.36" y="555.15"/></text><text x="1990.11" y="186.78" style="font-size:129.23"><tspan x="1990.11" y="186.78"/></text></g><text x="693.02" y="400.37" transform="scale(4.0128.2492)" style="font-size:46.954;font-family:Arial;text-anchor:middle"/><text x="2571.38" y="106.78" line-height="125%" style="letter-spacing:0;word-spacing:0;font-size:129.23;font-family:&apos;Gentium Book Basic&apos;"><tspan x="2571.38" y="106.78"/></text><text x="837.87" y="79.33" transform="scale(4.0128.2492)" style="font-size:46.954;font-family:Arial;text-anchor:middle"/><text x="1499.8" y="-74.48" line-height="125%" style="letter-spacing:0;word-spacing:0;font-size:129.23;font-family:&apos;Gentium Book Basic&apos;"><tspan x="1499.8" y="-74.48"/></text><text x="570.83" y="-648.02" transform="scale(4.0128.2492)" style="font-size:46.954;font-family:Arial;text-anchor:middle"/><text x="2597.85" y="-290.95" line-height="125%" style="letter-spacing:0;word-spacing:0;font-size:129.23;font-family:&apos;Gentium Book Basic&apos;"><tspan x="2597.85" y="-290.95"/></text><text x="844.47" y="-1516.68" transform="scale(4.0128.2492)" style="font-size:46.954;font-family:Arial;text-anchor:middle"/><text x="3179.12" y="-370.95" line-height="125%" style="letter-spacing:0;word-spacing:0;font-size:129.23;font-family:&apos;Gentium Book Basic&apos;"><tspan x="3179.12" y="-370.95"/></text><text x="989.32" y="-1837.71" transform="scale(4.0128.2492)" style="font-size:46.954;font-family:Arial;text-anchor:middle"/><text x="2790" y="-843.35" line-height="125%" style="letter-spacing:0;word-spacing:0;font-size:129.23;font-family:&apos;Gentium Book Basic&apos;"><tspan x="2790" y="-843.35"/></text><text x="892.35" y="-3733.35" transform="scale(4.0128.2492)" style="font-size:46.954;font-family:Arial;text-anchor:middle"/><text x="3371.26" y="-923.36" line-height="125%" style="letter-spacing:0;word-spacing:0;font-size:129.23;font-family:&apos;Gentium Book Basic&apos;"><tspan x="3371.26" y="-923.36"/></text><text x="1037.2" y="-4054.39" transform="scale(4.0128.2492)" style="font-size:46.954;font-family:Arial;text-anchor:middle"/><g line-height="125%" style="letter-spacing:0;word-spacing:0;font-family:&apos;Gentium Book Basic&apos;"><text x="1538.46" y="491.36" style="font-size:208.33"><tspan x="1538.46" y="491.36"/></text><text x="701.44" y="192.02" style="font-size:129.23"><tspan x="701.44" y="192.02"/></text></g><text x="371.88" y="421.4" transform="scale(4.0128.2492)" style="font-size:46.954;font-family:Arial;text-anchor:middle"/><text x="1282.71" y="112.02" line-height="125%" style="letter-spacing:0;word-spacing:0;font-size:129.23;font-family:&apos;Gentium Book Basic&apos;"><tspan x="1282.71" y="112.02"/></text><text x="516.73" y="100.36" transform="scale(4.0128.2492)" style="font-size:46.954;font-family:Arial;text-anchor:middle"/><text x="211.13" y="-69.24" line-height="125%" style="letter-spacing:0;word-spacing:0;font-size:129.23;font-family:&apos;Gentium Book Basic&apos;"><tspan x="211.13" y="-69.24"/></text><text x="249.69" y="-626.99" transform="scale(4.0128.2492)" style="font-size:46.954;font-family:Arial;text-anchor:middle"/><text x="1309.18" y="-285.71" line-height="125%" style="letter-spacing:0;word-spacing:0;font-size:129.23;font-family:&apos;Gentium Book Basic&apos;"><tspan x="1309.18" y="-285.71"/></text><text x="523.33" y="-1495.65" transform="scale(4.0128.2492)" style="font-size:46.954;font-family:Arial;text-anchor:middle"/><text x="1890.45" y="-365.71" line-height="125%" style="letter-spacing:0;word-spacing:0;font-size:129.23;font-family:&apos;Gentium Book Basic&apos;"><tspan x="1890.45" y="-365.71"/></text><text x="668.18" y="-1816.68" transform="scale(4.0128.2492)" style="font-size:46.954;font-family:Arial;text-anchor:middle"/><text x="1501.33" y="-838.11" line-height="125%" style="letter-spacing:0;word-spacing:0;font-size:129.23;font-family:&apos;Gentium Book Basic&apos;"><tspan x="1501.33" y="-838.11"/></text><text x="571.21" y="-3712.32" transform="scale(4.0128.2492)" style="font-size:46.954;font-family:Arial;text-anchor:middle"/><text x="2082.59" y="-918.12" line-height="125%" style="letter-spacing:0;word-spacing:0;font-size:129.23;font-family:&apos;Gentium Book Basic&apos;"><tspan x="2082.59" y="-918.12"/></text><text x="716.06" y="-4033.36" transform="scale(4.0128.2492)" style="font-size:46.954;font-family:Arial;text-anchor:middle"/><g line-height="125%" style="letter-spacing:0;word-spacing:0;font-family:&apos;Gentium Book Basic&apos;"><text x="249.79" y="496.6" style="font-size:208.33"><tspan x="249.79" y="496.6"/></text><text x="2053.01" y="175.46" style="font-size:129.23"><tspan x="2053.01" y="175.46"/></text></g><text x="708.69" y="354.95" transform="scale(4.0128.2492)" style="font-size:46.954;font-family:Arial;text-anchor:middle"/><text x="2634.28" y="95.46" line-height="125%" style="letter-spacing:0;word-spacing:0;font-size:129.23;font-family:&apos;Gentium Book Basic&apos;"><tspan x="2634.28" y="95.46"/></text><text x="853.54" y="33.919" transform="scale(4.0128.2492)" style="font-size:46.954;font-family:Arial;text-anchor:middle"/><text x="1562.7" y="-85.8" line-height="125%" style="letter-spacing:0;word-spacing:0;font-size:129.23;font-family:&apos;Gentium Book Basic&apos;"><tspan x="1562.7" y="-85.8"/></text><text x="586.5" y="-693.44" transform="scale(4.0128.2492)" style="font-size:46.954;font-family:Arial;text-anchor:middle"/><text x="2660.75" y="-302.27" line-height="125%" style="letter-spacing:0;word-spacing:0;font-size:129.23;font-family:&apos;Gentium Book Basic&apos;"><tspan x="2660.75" y="-302.27"/></text><text x="860.14" y="-1562.1" transform="scale(4.0128.2492)" style="font-size:46.954;font-family:Arial;text-anchor:middle"/><text x="3242.02" y="-382.28" line-height="125%" style="letter-spacing:0;word-spacing:0;font-size:129.23;font-family:&apos;Gentium Book Basic&apos;"><tspan x="3242.02" y="-382.28"/></text><text x="1004.99" y="-1883.14" transform="scale(4.0128.2492)" style="font-size:46.954;font-family:Arial;text-anchor:middle"/><text x="2852.9" y="-854.68" line-height="125%" style="letter-spacing:0;word-spacing:0;font-size:129.23;font-family:&apos;Gentium Book Basic&apos;"><tspan x="2852.9" y="-854.68"/></text><text x="908.02" y="-3778.79" transform="scale(4.0128.2492)" style="font-size:46.954;font-family:Arial;text-anchor:middle"/><text x="3434.16" y="-934.68" line-height="125%" style="letter-spacing:0;word-spacing:0;font-size:129.23;font-family:&apos;Gentium Book Basic&apos;"><tspan x="3434.16" y="-934.68"/></text><text x="1052.87" y="-4099.82" transform="scale(4.0128.2492)" style="font-size:46.954;font-family:Arial;text-anchor:middle"/><g line-height="125%" style="letter-spacing:0;word-spacing:0;font-family:&apos;Gentium Book Basic&apos;"><text x="1601.36" y="480.04" style="font-size:208.33"><tspan x="1601.36" y="480.04"/></text><text x="2191.88" y="83.83" style="font-size:129.23"><tspan x="2191.88" y="83.83"/></text></g><text x="743.3" y="-12.736" transform="scale(4.0128.2492)" style="font-size:46.954;font-family:Arial;text-anchor:middle"/><text x="2773.15" y="3.835" line-height="125%" style="letter-spacing:0;word-spacing:0;font-size:129.23;font-family:&apos;Gentium Book Basic&apos;"><tspan x="2773.15" y="3.835"/></text><text x="888.15" y="-333.77" transform="scale(4.0128.2492)" style="font-size:46.954;font-family:Arial;text-anchor:middle"/><text x="1701.57" y="-177.43" line-height="125%" style="letter-spacing:0;word-spacing:0;font-size:129.23;font-family:&apos;Gentium Book Basic&apos;"><tspan x="1701.57" y="-177.43"/></text><text x="621.11" y="-1061.12" transform="scale(4.0128.2492)" style="font-size:46.954;font-family:Arial;text-anchor:middle"/><text x="2799.62" y="-393.9" line-height="125%" style="letter-spacing:0;word-spacing:0;font-size:129.23;font-family:&apos;Gentium Book Basic&apos;"><tspan x="2799.62" y="-393.9"/></text><text x="894.75" y="-1929.79" transform="scale(4.0128.2492)" style="font-size:46.954;font-family:Arial;text-anchor:middle"/><text x="3380.89" y="-473.9" line-height="125%" style="letter-spacing:0;word-spacing:0;font-size:129.23;font-family:&apos;Gentium Book Basic&apos;"><tspan x="3380.89" y="-473.9"/></text><text x="1039.6" y="-2250.81" transform="scale(4.0128.2492)" style="font-size:46.954;font-family:Arial;text-anchor:middle"/><text x="2991.77" y="-946.3" line-height="125%" style="letter-spacing:0;word-spacing:0;font-size:129.23;font-family:&apos;Gentium Book Basic&apos;"><tspan x="2991.77" y="-946.3"/></text><text x="942.63" y="-4146.46" transform="scale(4.0128.2492)" style="font-size:46.954;font-family:Arial;text-anchor:middle"/><text x="3573.03" y="-1026.31" line-height="125%" style="letter-spacing:0;word-spacing:0;font-size:129.23;font-family:&apos;Gentium Book Basic&apos;"><tspan x="3573.03" y="-1026.31"/></text><text x="1087.48" y="-4467.49" transform="scale(4.0128.2492)" style="font-size:46.954;font-family:Arial;text-anchor:middle"/><g line-height="125%" style="letter-spacing:0;word-spacing:0;font-family:&apos;Gentium Book Basic&apos;"><text x="1740.23" y="388.41" style="font-size:208.33"><tspan x="1740.23" y="388.41"/></text><text x="2111.61" y="125.91" style="font-size:129.23"><tspan x="2111.61" y="125.91"/></text></g><text x="723.3" y="156.09" transform="scale(4.0128.2492)" style="font-size:46.954;font-family:Arial;text-anchor:middle"/><text x="2692.88" y="45.909" line-height="125%" style="letter-spacing:0;word-spacing:0;font-size:129.23;font-family:&apos;Gentium Book Basic&apos;"><tspan x="2692.88" y="45.909"/></text><text x="868.15" y="-164.94" transform="scale(4.0128.2492)" style="font-size:46.954;font-family:Arial;text-anchor:middle"/><text x="1621.3" y="-135.35" line-height="125%" style="letter-spacing:0;word-spacing:0;font-size:129.23;font-family:&apos;Gentium Book Basic&apos;"><tspan x="1621.3" y="-135.35"/></text><text x="601.11" y="-892.29" transform="scale(4.0128.2492)" style="font-size:46.954;font-family:Arial;text-anchor:middle"/><text x="2719.35" y="-351.82" line-height="125%" style="letter-spacing:0;word-spacing:0;font-size:129.23;font-family:&apos;Gentium Book Basic&apos;"><tspan x="2719.35" y="-351.82"/></text><text x="874.74" y="-1760.96" transform="scale(4.0128.2492)" style="font-size:46.954;font-family:Arial;text-anchor:middle"/><text x="3300.62" y="-431.83" line-height="125%" style="letter-spacing:0;word-spacing:0;font-size:129.23;font-family:&apos;Gentium Book Basic&apos;"><tspan x="3300.62" y="-431.83"/></text><text x="1019.59" y="-2082" transform="scale(4.0128.2492)" style="font-size:46.954;font-family:Arial;text-anchor:middle"/><text x="2911.5" y="-904.23" line-height="125%" style="letter-spacing:0;word-spacing:0;font-size:129.23;font-family:&apos;Gentium Book Basic&apos;"><tspan x="2911.5" y="-904.23"/></text><text x="922.62" y="-3977.65" transform="scale(4.0128.2492)" style="font-size:46.954;font-family:Arial;text-anchor:middle"/><text x="3492.76" y="-984.23" line-height="125%" style="letter-spacing:0;word-spacing:0;font-size:129.23;font-family:&apos;Gentium Book Basic&apos;"><tspan x="3492.76" y="-984.23"/></text><text x="1067.47" y="-4298.68" transform="scale(4.0128.2492)" style="font-size:46.954;font-family:Arial;text-anchor:middle"/><g line-height="125%" style="letter-spacing:0;word-spacing:0;font-family:&apos;Gentium Book Basic&apos;"><text x="1659.96" y="430.49" style="font-size:208.33"><tspan x="1659.96" y="430.49"/></text><text x="2131.25" y="173.93" style="font-size:129.23"><tspan x="2131.25" y="173.93"/></text></g><text x="728.19" y="348.8" transform="scale(4.0128.2492)" style="font-size:46.954;font-family:Arial;text-anchor:middle"/><text x="2712.52" y="93.93" line-height="125%" style="letter-spacing:0;word-spacing:0;font-size:129.23;font-family:&apos;Gentium Book Basic&apos;"><tspan x="2712.52" y="93.93"/></text><text x="873.04" y="27.764" transform="scale(4.0128.2492)" style="font-size:46.954;font-family:Arial;text-anchor:middle"/><text x="1640.94" y="-87.33" line-height="125%" style="letter-spacing:0;word-spacing:0;font-size:129.23;font-family:&apos;Gentium Book Basic&apos;"><tspan x="1640.94" y="-87.33"/></text><text x="606" y="-699.58" transform="scale(4.0128.2492)" style="font-size:46.954;font-family:Arial;text-anchor:middle"/><text x="2738.99" y="-303.8" line-height="125%" style="letter-spacing:0;word-spacing:0;font-size:129.23;font-family:&apos;Gentium Book Basic&apos;"><tspan x="2738.99" y="-303.8"/></text><text x="879.64" y="-1568.26" transform="scale(4.0128.2492)" style="font-size:46.954;font-family:Arial;text-anchor:middle"/><text x="3320.26" y="-383.8" line-height="125%" style="letter-spacing:0;word-spacing:0;font-size:129.23;font-family:&apos;Gentium Book Basic&apos;"><tspan x="3320.26" y="-383.8"/></text><text x="1024.49" y="-1889.29" transform="scale(4.0128.2492)" style="font-size:46.954;font-family:Arial;text-anchor:middle"/><text x="2931.14" y="-856.2" line-height="125%" style="letter-spacing:0;word-spacing:0;font-size:129.23;font-family:&apos;Gentium Book Basic&apos;"><tspan x="2931.14" y="-856.2"/></text><text x="927.52" y="-3784.94" transform="scale(4.0128.2492)" style="font-size:46.954;font-family:Arial;text-anchor:middle"/><text x="3512.4" y="-936.21" line-height="125%" style="letter-spacing:0;word-spacing:0;font-size:129.23;font-family:&apos;Gentium Book Basic&apos;"><tspan x="3512.4" y="-936.21"/></text><text x="1072.37" y="-4105.98" transform="scale(4.0128.2492)" style="font-size:46.954;font-family:Arial;text-anchor:middle"/><g line-height="125%" style="letter-spacing:0;word-spacing:0;font-family:&apos;Gentium Book Basic&apos;"><text x="1679.6" y="478.51" style="font-size:208.33"><tspan x="1679.6" y="478.51"/></text><text x="2080.63" y="150" style="font-size:129.23"><tspan x="2080.63" y="150"/></text></g><text x="715.58" y="252.77" transform="scale(4.0128.2492)" style="font-size:46.954;font-family:Arial;text-anchor:middle"/><text x="2661.9" y="69.999" line-height="125%" style="letter-spacing:0;word-spacing:0;font-size:129.23;font-family:&apos;Gentium Book Basic&apos;"><tspan x="2661.9" y="69.999"/></text><text x="860.42" y="-68.27" transform="scale(4.0128.2492)" style="font-size:46.954;font-family:Arial;text-anchor:middle"/><text x="1590.32" y="-111.26" line-height="125%" style="letter-spacing:0;word-spacing:0;font-size:129.23;font-family:&apos;Gentium Book Basic&apos;"><tspan x="1590.32" y="-111.26"/></text><text x="593.39" y="-795.61" transform="scale(4.0128.2492)" style="font-size:46.954;font-family:Arial;text-anchor:middle"/><text x="2688.37" y="-327.73" line-height="125%" style="letter-spacing:0;word-spacing:0;font-size:129.23;font-family:&apos;Gentium Book Basic&apos;"><tspan x="2688.37" y="-327.73"/></text><text x="867.02" y="-1664.29" transform="scale(4.0128.2492)" style="font-size:46.954;font-family:Arial;text-anchor:middle"/><text x="3269.64" y="-407.73" line-height="125%" style="letter-spacing:0;word-spacing:0;font-size:129.23;font-family:&apos;Gentium Book Basic&apos;"><tspan x="3269.64" y="-407.73"/></text><text x="1011.87" y="-1985.32" transform="scale(4.0128.2492)" style="font-size:46.954;font-family:Arial;text-anchor:middle"/><text x="2880.52" y="-880.13" line-height="125%" style="letter-spacing:0;word-spacing:0;font-size:129.23;font-family:&apos;Gentium Book Basic&apos;"><tspan x="2880.52" y="-880.13"/></text><text x="914.9" y="-3880.97" transform="scale(4.0128.2492)" style="font-size:46.954;font-family:Arial;text-anchor:middle"/><text x="3461.78" y="-960.14" line-height="125%" style="letter-spacing:0;word-spacing:0;font-size:129.23;font-family:&apos;Gentium Book Basic&apos;"><tspan x="3461.78" y="-960.14"/></text><text x="1059.75" y="-4202.01" transform="scale(4.0128.2492)" style="font-size:46.954;font-family:Arial;text-anchor:middle"/><text x="1628.98" y="454.58" line-height="125%" style="letter-spacing:0;word-spacing:0;font-size:208.33;font-family:&apos;Gentium Book Basic&apos;"><tspan x="1628.98" y="454.58"/></text><g style="fill-rule:evenodd"><path d="m471.95 253.05c0 120.9-98.01 218.9-218.9 218.9-120.9 0-218.9-98.01-218.9-218.9 0-120.9 98.01-218.9 218.9-218.9 120.9 0 218.9 98.01 218.9 218.9" style="fill:#0078ad"/><path d="m256 1c-140.83 0-255 114.17-255 255 0 140.83 114.17 255 255 255 140.83 0 255-114.17 255-255 0-140.83-114.17-255-255-255m8.827 44.931c120.9 0 218.9 98 218.9 218.9 0 120.9-98 218.9-218.9 218.9-120.9 0-218.93-98-218.93-218.9 0-120.9 98.03-218.9 218.93-218.9" style="fill-opacity:.067"/><g style="fill-opacity:.129"><path d="m256 4.433c-138.94 0-251.57 112.63-251.57 251.57 0 138.94 112.63 251.57 251.57 251.57 138.94 0 251.57-112.63 251.57-251.57 0-138.94-112.63-251.57-251.57-251.57m5.885 38.556c120.9 0 218.9 98 218.9 218.9 0 120.9-98 218.9-218.9 218.9-120.9 0-218.93-98-218.93-218.9 0-120.9 98.03-218.9 218.93-218.9"/><path d="m256 8.356c-136.77 0-247.64 110.87-247.64 247.64 0 136.77 110.87 247.64 247.64 247.64 136.77 0 247.64-110.87 247.64-247.64 0-136.77-110.87-247.64-247.64-247.64m2.942 31.691c120.9 0 218.9 98 218.9 218.9 0 120.9-98 218.9-218.9 218.9-120.9 0-218.93-98-218.93-218.9 0-120.9 98.03-218.9 218.93-218.9"/></g><path d="m253.04 7.859c-135.42 0-245.19 109.78-245.19 245.19 0 135.42 109.78 245.19 245.19 245.19 135.42 0 245.19-109.78 245.19-245.19 0-135.42-109.78-245.19-245.19-245.19zm0 26.297c120.9 0 218.9 98 218.9 218.9 0 120.9-98 218.9-218.9 218.9-120.9 0-218.93-98-218.93-218.9 0-120.9 98.03-218.9 218.93-218.9z" style="stroke-opacity:.31;fill:#fff;stroke:#000;stroke-width:4.904"/></g><text x="729.64" y="231.36" line-height="125%" style="letter-spacing:0;word-spacing:0;font-size:129.23;font-family:&apos;Gentium Book Basic&apos;"><tspan x="729.64" y="231.36"/></text><text x="378.91" y="579.25" transform="scale(4.0128.2492)" style="font-size:46.954;font-family:Arial;text-anchor:middle"/><text x="1310.91" y="151.36" line-height="125%" style="letter-spacing:0;word-spacing:0;font-size:129.23;font-family:&apos;Gentium Book Basic&apos;"><tspan x="1310.91" y="151.36"/></text><text x="523.76" y="258.22" transform="scale(4.0128.2492)" style="font-size:46.954;font-family:Arial;text-anchor:middle"/><text x="239.33" y="-29.901" line-height="125%" style="letter-spacing:0;word-spacing:0;font-size:129.23;font-family:&apos;Gentium Book Basic&apos;"><tspan x="239.33" y="-29.901"/></text><text x="256.72" y="-469.14" transform="scale(4.0128.2492)" style="font-size:46.954;font-family:Arial;text-anchor:middle"/><text x="1337.38" y="-246.37" line-height="125%" style="letter-spacing:0;word-spacing:0;font-size:129.23;font-family:&apos;Gentium Book Basic&apos;"><tspan x="1337.38" y="-246.37"/></text><text x="530.36" y="-1337.8" transform="scale(4.0128.2492)" style="font-size:46.954;font-family:Arial;text-anchor:middle"/><text x="1918.65" y="-326.38" line-height="125%" style="letter-spacing:0;word-spacing:0;font-size:129.23;font-family:&apos;Gentium Book Basic&apos;"><tspan x="1918.65" y="-326.38"/></text><text x="675.21" y="-1658.84" transform="scale(4.0128.2492)" style="font-size:46.954;font-family:Arial;text-anchor:middle"/><text x="1529.53" y="-798.78" line-height="125%" style="letter-spacing:0;word-spacing:0;font-size:129.23;font-family:&apos;Gentium Book Basic&apos;"><tspan x="1529.53" y="-798.78"/></text><text x="578.24" y="-3554.49" transform="scale(4.0128.2492)" style="font-size:46.954;font-family:Arial;text-anchor:middle"/><text x="2110.79" y="-878.78" line-height="125%" style="letter-spacing:0;word-spacing:0;font-size:129.23;font-family:&apos;Gentium Book Basic&apos;"><tspan x="2110.79" y="-878.78"/></text><text x="723.09" y="-3875.52" transform="scale(4.0128.2492)" style="font-size:46.954;font-family:Arial;text-anchor:middle"/><g line-height="125%" style="letter-spacing:0;word-spacing:0;font-family:&apos;Gentium Book Basic&apos;"><text x="277.99" y="535.94" style="font-size:208.33"><tspan x="277.99" y="535.94"/></text><text x="-1745.96" y="270.87" style="font-size:129.23"><tspan x="-1745.96" y="270.87"/></text></g><text x="-238.01" y="737.79" transform="scale(4.0128.2492)" style="font-size:46.954;font-family:Arial;text-anchor:middle"/><text x="-1164.69" y="190.87" line-height="125%" style="letter-spacing:0;word-spacing:0;font-size:129.23;font-family:&apos;Gentium Book Basic&apos;"><tspan x="-1164.69" y="190.87"/></text><text x="-93.17" y="416.76" transform="scale(4.0128.2492)" style="font-size:46.954;font-family:Arial;text-anchor:middle"/><text x="-2236.27" y="9.608" line-height="125%" style="letter-spacing:0;word-spacing:0;font-size:129.23;font-family:&apos;Gentium Book Basic&apos;"><tspan x="-2236.27" y="9.608"/></text><text x="-360.2" y="-310.6" transform="scale(4.0128.2492)" style="font-size:46.954;font-family:Arial;text-anchor:middle"/><text x="-1138.22" y="-206.86" line-height="125%" style="letter-spacing:0;word-spacing:0;font-size:129.23;font-family:&apos;Gentium Book Basic&apos;"><tspan x="-1138.22" y="-206.86"/></text><text x="-86.57" y="-1179.26" transform="scale(4.0128.2492)" style="font-size:46.954;font-family:Arial;text-anchor:middle"/><text x="-556.95" y="-286.87" line-height="125%" style="letter-spacing:0;word-spacing:0;font-size:129.23;font-family:&apos;Gentium Book Basic&apos;"><tspan x="-556.95" y="-286.87"/></text><text x="58.28" y="-1500.3" transform="scale(4.0128.2492)" style="font-size:46.954;font-family:Arial;text-anchor:middle"/><text x="-946.07" y="-759.27" line-height="125%" style="letter-spacing:0;word-spacing:0;font-size:129.23;font-family:&apos;Gentium Book Basic&apos;"><tspan x="-946.07" y="-759.27"/></text><text x="-38.686" y="-3395.95" transform="scale(4.0128.2492)" style="font-size:46.954;font-family:Arial;text-anchor:middle"/><text x="-364.81" y="-839.27" line-height="125%" style="letter-spacing:0;word-spacing:0;font-size:129.23;font-family:&apos;Gentium Book Basic&apos;"><tspan x="-364.81" y="-839.27"/></text><text x="106.16" y="-3716.98" transform="scale(4.0128.2492)" style="font-size:46.954;font-family:Arial;text-anchor:middle"/><g line-height="125%" style="letter-spacing:0;word-spacing:0;font-family:&apos;Gentium Book Basic&apos;"><text x="-2197.61" y="575.45" style="font-size:208.33"><tspan x="-2197.61" y="575.45"/></text><text x="-1144.61" y="525.1" style="font-size:129.23"><tspan x="-1144.61" y="525.1"/></text></g><text x="-88.16" y="1757.96" transform="scale(4.0128.2492)" style="font-size:46.954;font-family:Arial;text-anchor:middle"/><text x="-563.34" y="445.1" line-height="125%" style="letter-spacing:0;word-spacing:0;font-size:129.23;font-family:&apos;Gentium Book Basic&apos;"><tspan x="-563.34" y="445.1"/></text><text x="56.693" y="1436.93" transform="scale(4.0128.2492)" style="font-size:46.954;font-family:Arial;text-anchor:middle"/><text x="-1634.92" y="263.84" line-height="125%" style="letter-spacing:0;word-spacing:0;font-size:129.23;font-family:&apos;Gentium Book Basic&apos;"><tspan x="-1634.92" y="263.84"/></text><text x="-210.35" y="709.58" transform="scale(4.0128.2492)" style="font-size:46.954;font-family:Arial;text-anchor:middle"/><text x="-536.87" y="47.37" line-height="125%" style="letter-spacing:0;word-spacing:0;font-size:129.23;font-family:&apos;Gentium Book Basic&apos;"><tspan x="-536.87" y="47.37"/></text><text x="63.29" y="-159.09" transform="scale(4.0128.2492)" style="font-size:46.954;font-family:Arial;text-anchor:middle"/><text x="44.4" y="-32.643" line-height="125%" style="letter-spacing:0;word-spacing:0;font-size:129.23;font-family:&apos;Gentium Book Basic&apos;"><tspan x="44.4" y="-32.643"/></text><text x="208.14" y="-480.13" transform="scale(4.0128.2492)" style="font-size:46.954;font-family:Arial;text-anchor:middle"/><text x="-344.72" y="-505.04" line-height="125%" style="letter-spacing:0;word-spacing:0;font-size:129.23;font-family:&apos;Gentium Book Basic&apos;"><tspan x="-344.72" y="-505.04"/></text><text x="111.17" y="-2375.78" transform="scale(4.0128.2492)" style="font-size:46.954;font-family:Arial;text-anchor:middle"/><text x="236.54" y="-585.04" line-height="125%" style="letter-spacing:0;word-spacing:0;font-size:129.23;font-family:&apos;Gentium Book Basic&apos;"><tspan x="236.54" y="-585.04"/></text><text x="256.02" y="-2696.8" transform="scale(4.0128.2492)" style="font-size:46.954;font-family:Arial;text-anchor:middle"/><text x="-1596.26" y="829.68" line-height="125%" style="letter-spacing:0;word-spacing:0;font-size:208.33;font-family:&apos;Gentium Book Basic&apos;"><tspan x="-1596.26" y="829.68"/></text><g style="color:#000"><path d="m257.72 80.938c-1.23-.005-2.488.006-3.719.031-54.42.357-107.23 31.393-133.56 79.03-15.09 26.22-22.13 56.976-20.344 87.16l96.84 96.84c-11.811 29.438 7.564 59.17 42.35 95.76l31.484 31.484c112.6-9.02 201.18-103.25 201.18-218.18 0-7.504-.378-14.92-1.115-22.23l-103.08-103.08c-2.05-2.05-4.167-4.04-6.35-5.961-27.887-25.757-65.57-40.681-103.69-40.844" style="opacity:.25"/><path d="m257.72 80.938c-1.23-.005-2.488.006-3.719.031-54.42.357-107.23 31.393-133.56 79.03-15.09 26.22-22.13 56.976-20.344 87.16h311.84c2.593-46.587-15.482-94.51-50.53-125.37-27.887-25.757-65.57-40.681-103.69-40.844m-11.406 19.969v68.13h-58.938c3.666-19.492 8.684-38.702 15.188-57.47 13.842-5.927 28.811-9.641 43.75-10.656zm19.531.063l.938.063.5.031c14.578 1.08 28.754 4.544 42.22 10.219 6.583 18.85 11.591 38.16 15.313 57.75h-58.969v-68.06m-88.09 24.09c-4.219 14.361-7.721 29.17-10.375 44-4.892-.136-9.804.011-14.719.031-4.915.02-9.844-.101-14.688-.719 9.953-17.08 24.2-31.93 39.781-43.31m156.91.063c16.11 11.552 29.914 26.695 40 43.906h-29.875c-2.605-14.798-6.449-29.398-10.125-43.906m-206.19 63.47h35.906c-1.822 12.9-2.766 26.01-3.406 39.06h-41.12c.982-13.328 3.879-26.59 8.625-39.06m55.656 0h62.19v39.06h-65.66c.524-13.06 1.678-26.21 3.469-39.06m81.72 0h62.19c1.719 12.908 2.935 25.996 3.438 39.06h-65.62v-39.06m81.906 0h36.03c4.642 12.556 7.538 25.705 8.5 39.06h-41.12c-.641-13.05-1.584-26.16-3.406-39.06m-151.47 85.5l.938.75 32.06 31.875c-57.684 43.04-39.34 81.13 10 133.03-13.437-53.31-3.521-77.62 30.344-92.47 48.886 48.23 40.766 39.582 48.906 48.13v-121.31h-122.25z" style="fill:#fff"/></g></svg>