<svg xmlns="http://www.w3.org/2000/svg" viewBox="0 0 512 512"><g line-height="125%" style="letter-spacing:0;word-spacing:0"><g style="font-size:0;font-family:&apos;Gentium Book Basic&apos;"><text y="383.17" x="-1672.58"><tspan y="383.17" x="-1672.58"/></text><text y="80.12" x="1476.07"><tspan y="80.12" x="1476.07"/></text></g><text x="729.64" y="231.36" style="font-size:129.23;font-family:Gentium Book Basic"><tspan x="729.64" y="231.36"/></text></g><text x="378.91" y="579.25" transform="scale(4.0128.2492)" style="font-size:46.954;font-family:Arial;text-anchor:middle"/><text x="1310.91" y="151.36" line-height="125%" style="letter-spacing:0;word-spacing:0;font-size:129.23;font-family:Gentium Book Basic"><tspan x="1310.91" y="151.36"/></text><text x="523.76" y="258.22" transform="scale(4.0128.2492)" style="font-size:46.954;font-family:Arial;text-anchor:middle"/><text x="239.33" y="-29.901" line-height="125%" style="letter-spacing:0;word-spacing:0;font-size:129.23;font-family:Gentium Book Basic"><tspan x="239.33" y="-29.901"/></text><text x="256.72" y="-469.14" transform="scale(4.0128.2492)" style="font-size:46.954;font-family:Arial;text-anchor:middle"/><text x="1337.38" y="-246.37" line-height="125%" style="letter-spacing:0;word-spacing:0;font-size:129.23;font-family:Gentium Book Basic"><tspan x="1337.38" y="-246.37"/></text><text x="530.36" y="-1337.81" transform="scale(4.0128.2492)" style="font-size:46.954;font-family:Arial;text-anchor:middle"/><text x="1918.65" y="-326.38" line-height="125%" style="letter-spacing:0;word-spacing:0;font-size:129.23;font-family:Gentium Book Basic"><tspan x="1918.65" y="-326.38"/></text><text x="675.21" y="-1658.85" transform="scale(4.0128.2492)" style="font-size:46.954;font-family:Arial;text-anchor:middle"/><text x="1529.53" y="-798.78" line-height="125%" style="letter-spacing:0;word-spacing:0;font-size:129.23;font-family:Gentium Book Basic"><tspan x="1529.53" y="-798.78"/></text><text x="578.24" y="-3554.51" transform="scale(4.0128.2492)" style="font-size:46.954;font-family:Arial;text-anchor:middle"/><text x="2110.79" y="-878.78" line-height="125%" style="letter-spacing:0;word-spacing:0;font-size:129.23;font-family:Gentium Book Basic"><tspan x="2110.79" y="-878.78"/></text><text x="723.09" y="-3875.54" transform="scale(4.0128.2492)" style="font-size:46.954;font-family:Arial;text-anchor:middle"/><text x="286.53" y="553.99" line-height="125%" style="letter-spacing:0;word-spacing:0;font-size:148.94;font-family:Gentium Book Basic"><tspan x="286.53" y="553.99"/></text><g style="fill-rule:evenodd"><path d="m471.95 253.05c0 120.9-98.01 218.9-218.9 218.9-120.9 0-218.9-98.01-218.9-218.9 0-120.9 98.01-218.9 218.9-218.9 120.9 0 218.9 98.01 218.9 218.9" style="fill:#68af4c"/><path d="m256 1c-140.83 0-255 114.17-255 255 0 140.83 114.17 255 255 255 140.83 0 255-114.17 255-255 0-140.83-114.17-255-255-255m8.827 44.931c120.9 0 218.9 98 218.9 218.9 0 120.9-98 218.9-218.9 218.9-120.9 0-218.93-98-218.93-218.9 0-120.9 98.03-218.9 218.93-218.9" style="fill-opacity:.067"/><g style="fill-opacity:.129"><path d="m256 4.433c-138.94 0-251.57 112.63-251.57 251.57 0 138.94 112.63 251.57 251.57 251.57 138.94 0 251.57-112.63 251.57-251.57 0-138.94-112.63-251.57-251.57-251.57m5.885 38.556c120.9 0 218.9 98 218.9 218.9 0 120.9-98 218.9-218.9 218.9-120.9 0-218.93-98-218.93-218.9 0-120.9 98.03-218.9 218.93-218.9"/><path d="m256 8.356c-136.77 0-247.64 110.87-247.64 247.64 0 136.77 110.87 247.64 247.64 247.64 136.77 0 247.64-110.87 247.64-247.64 0-136.77-110.87-247.64-247.64-247.64m2.942 31.691c120.9 0 218.9 98 218.9 218.9 0 120.9-98 218.9-218.9 218.9-120.9 0-218.93-98-218.93-218.9 0-120.9 98.03-218.9 218.93-218.9"/></g><path d="m253.04 7.859c-135.42 0-245.19 109.78-245.19 245.19 0 135.42 109.78 245.19 245.19 245.19 135.42 0 245.19-109.78 245.19-245.19 0-135.42-109.78-245.19-245.19-245.19zm0 26.297c120.9 0 218.9 98 218.9 218.9 0 120.9-98 218.9-218.9 218.9-120.9 0-218.93-98-218.93-218.9 0-120.9 98.03-218.9 218.93-218.9z" style="stroke-opacity:.31;fill:#fff;stroke:#000;stroke-width:4.904"/></g><text x="729.64" y="231.36" line-height="125%" style="letter-spacing:0;word-spacing:0;font-size:129.23;font-family:&apos;Gentium Book Basic&apos;"><tspan x="729.64" y="231.36"/></text><text x="378.91" y="579.25" transform="scale(4.0128.2492)" style="font-size:46.954;font-family:Arial;text-anchor:middle"/><text x="1310.91" y="151.36" line-height="125%" style="letter-spacing:0;word-spacing:0;font-size:129.23;font-family:&apos;Gentium Book Basic&apos;"><tspan x="1310.91" y="151.36"/></text><text x="523.76" y="258.22" transform="scale(4.0128.2492)" style="font-size:46.954;font-family:Arial;text-anchor:middle"/><text x="239.33" y="-29.901" line-height="125%" style="letter-spacing:0;word-spacing:0;font-size:129.23;font-family:&apos;Gentium Book Basic&apos;"><tspan x="239.33" y="-29.901"/></text><text x="256.72" y="-469.14" transform="scale(4.0128.2492)" style="font-size:46.954;font-family:Arial;text-anchor:middle"/><text x="1337.38" y="-246.37" line-height="125%" style="letter-spacing:0;word-spacing:0;font-size:129.23;font-family:&apos;Gentium Book Basic&apos;"><tspan x="1337.38" y="-246.37"/></text><text x="530.36" y="-1337.8" transform="scale(4.0128.2492)" style="font-size:46.954;font-family:Arial;text-anchor:middle"/><text x="1918.65" y="-326.38" line-height="125%" style="letter-spacing:0;word-spacing:0;font-size:129.23;font-family:&apos;Gentium Book Basic&apos;"><tspan x="1918.65" y="-326.38"/></text><text x="675.21" y="-1658.84" transform="scale(4.0128.2492)" style="font-size:46.954;font-family:Arial;text-anchor:middle"/><text x="1529.53" y="-798.78" line-height="125%" style="letter-spacing:0;word-spacing:0;font-size:129.23;font-family:&apos;Gentium Book Basic&apos;"><tspan x="1529.53" y="-798.78"/></text><text x="578.24" y="-3554.49" transform="scale(4.0128.2492)" style="font-size:46.954;font-family:Arial;text-anchor:middle"/><text x="2110.79" y="-878.78" line-height="125%" style="letter-spacing:0;word-spacing:0;font-size:129.23;font-family:&apos;Gentium Book Basic&apos;"><tspan x="2110.79" y="-878.78"/></text><text x="723.09" y="-3875.52" transform="scale(4.0128.2492)" style="font-size:46.954;font-family:Arial;text-anchor:middle"/><g line-height="125%" style="letter-spacing:0;word-spacing:0;font-size:208.33;font-family:&apos;Gentium Book Basic&apos;"><text x="277.99" y="535.94"><tspan x="277.99" y="535.94"/></text><text x="-860.84" y="11.553"><tspan x="-860.84" y="11.553"/></text><text x="-3219.67" y="289.67"><tspan x="-3219.67" y="289.67"/></text><text x="-2931.46" y="62.38"><tspan x="-2931.46" y="62.38"/></text><text x="1263.14" y="-194.52"><tspan x="1263.14" y="-194.52"/></text><text x="-864.79" y="-49.48"><tspan x="-864.79" y="-49.48"/></text><text x="-3223.62" y="228.64"><tspan x="-3223.62" y="228.64"/></text><text x="-2935.41" y="1.35"><tspan x="-2935.41" y="1.35"/></text></g><g line-height="125%" style="letter-spacing:0;word-spacing:0;font-family:&apos;Gentium Book Basic&apos;"><g style="fill:#fff"><g style="font-size:179.16"><text x="409.62" y="86.66"><tspan x="409.62" y="86.66" style="fill:#fff"/></text><text x="-1618.98" y="325.85"><tspan x="-1618.98" y="325.85" style="fill:#fff"/></text><text x="-1371.12" y="130.39"><tspan x="-1371.12" y="130.39" style="fill:#fff"/></text><text x="2236.24" y="-90.55"><tspan x="2236.24" y="-90.55" style="fill:#fff"/></text><text x="406.22" y="34.18"><tspan x="406.22" y="34.18" style="fill:#fff"/></text><text x="-1622.37" y="273.36"><tspan x="-1622.37" y="273.36" style="fill:#fff"/></text><text x="-1374.5" y="77.893"><tspan x="-1374.5" y="77.893" style="fill:#fff"/></text></g><g style="font-size:185.33"><text x="393.51" y="80.84"><tspan x="393.51" y="80.84" style="fill:#fff"/></text><text x="-1704.91" y="328.26"><tspan x="-1704.91" y="328.26" style="fill:#fff"/></text><text x="-1448.51" y="126.07"><tspan x="-1448.51" y="126.07" style="fill:#fff"/></text><text x="2283.01" y="-102.47"><tspan x="2283.01" y="-102.47" style="fill:#fff"/></text><text x="390" y="26.549"><tspan x="390" y="26.549" style="fill:#fff"/></text><text x="-1708.42" y="273.96"><tspan x="-1708.42" y="273.96" style="fill:#fff"/></text><text x="-1452.02" y="71.77"><tspan x="-1452.02" y="71.77" style="fill:#fff"/></text></g><g style="font-size:179.16"><text x="409.62" y="86.66" style="opacity:.408"><tspan x="409.62" y="86.66" style="fill:#fff"/></text><text x="-1618.98" y="325.85" style="opacity:.408"><tspan x="-1618.98" y="325.85" style="fill:#fff"/></text><text x="-1371.12" y="130.39" style="opacity:.408"><tspan x="-1371.12" y="130.39" style="fill:#fff"/></text><text x="2236.24" y="-90.55" style="opacity:.408"><tspan x="2236.24" y="-90.55" style="fill:#fff"/></text><text x="406.22" y="34.18" style="opacity:.408"><tspan x="406.22" y="34.18" style="fill:#fff"/></text><text x="-1622.37" y="273.36" style="opacity:.408"><tspan x="-1622.37" y="273.36" style="fill:#fff"/></text><text x="-1374.5" y="77.893" style="opacity:.408"><tspan x="-1374.5" y="77.893" style="fill:#fff"/></text></g><g style="font-size:185.33"><text x="393.51" y="80.84" style="opacity:.408"><tspan x="393.51" y="80.84" style="fill:#fff"/></text><text x="-1704.91" y="328.26" style="opacity:.408"><tspan x="-1704.91" y="328.26" style="fill:#fff"/></text><text x="-1448.51" y="126.07" style="opacity:.408"><tspan x="-1448.51" y="126.07" style="fill:#fff"/></text><text x="2283.01" y="-102.47" style="opacity:.408"><tspan x="2283.01" y="-102.47" style="fill:#fff"/></text><text x="390" y="26.549" style="opacity:.408"><tspan x="390" y="26.549" style="fill:#fff"/></text><text x="-1708.42" y="273.96" style="opacity:.408"><tspan x="-1708.42" y="273.96" style="fill:#fff"/></text><text x="-1452.02" y="71.77" style="opacity:.408"><tspan x="-1452.02" y="71.77" style="fill:#fff"/></text></g></g><text x="1990.11" y="185.8" style="font-size:129.23"><tspan x="1990.11" y="185.8"/></text></g><text x="693.02" y="396.43" transform="scale(4.0128.2492)" style="font-size:46.954;font-family:Arial;text-anchor:middle"/><text x="2571.38" y="105.8" line-height="125%" style="letter-spacing:0;word-spacing:0;font-size:129.23;font-family:&apos;Gentium Book Basic&apos;"><tspan x="2571.38" y="105.8"/></text><text x="837.87" y="75.4" transform="scale(4.0128.2492)" style="font-size:46.954;font-family:Arial;text-anchor:middle"/><text x="1499.8" y="-75.46" line-height="125%" style="letter-spacing:0;word-spacing:0;font-size:129.23;font-family:&apos;Gentium Book Basic&apos;"><tspan x="1499.8" y="-75.46"/></text><text x="570.83" y="-651.96" transform="scale(4.0128.2492)" style="font-size:46.954;font-family:Arial;text-anchor:middle"/><text x="2597.85" y="-291.93" line-height="125%" style="letter-spacing:0;word-spacing:0;font-size:129.23;font-family:&apos;Gentium Book Basic&apos;"><tspan x="2597.85" y="-291.93"/></text><text x="844.47" y="-1520.62" transform="scale(4.0128.2492)" style="font-size:46.954;font-family:Arial;text-anchor:middle"/><text x="3179.12" y="-371.94" line-height="125%" style="letter-spacing:0;word-spacing:0;font-size:129.23;font-family:&apos;Gentium Book Basic&apos;"><tspan x="3179.12" y="-371.94"/></text><text x="989.32" y="-1841.66" transform="scale(4.0128.2492)" style="font-size:46.954;font-family:Arial;text-anchor:middle"/><text x="2790" y="-844.34" line-height="125%" style="letter-spacing:0;word-spacing:0;font-size:129.23;font-family:&apos;Gentium Book Basic&apos;"><tspan x="2790" y="-844.34"/></text><text x="892.35" y="-3737.31" transform="scale(4.0128.2492)" style="font-size:46.954;font-family:Arial;text-anchor:middle"/><text x="3371.26" y="-924.34" line-height="125%" style="letter-spacing:0;word-spacing:0;font-size:129.23;font-family:&apos;Gentium Book Basic&apos;"><tspan x="3371.26" y="-924.34"/></text><text x="1037.2" y="-4058.34" transform="scale(4.0128.2492)" style="font-size:46.954;font-family:Arial;text-anchor:middle"/><g line-height="125%" style="letter-spacing:0;word-spacing:0;font-family:&apos;Gentium Book Basic&apos;"><text x="1538.46" y="490.38" style="font-size:208.33"><tspan x="1538.46" y="490.38"/></text><text x="2168.01" y="250.57" style="font-size:129.23"><tspan x="2168.01" y="250.57"/></text></g><text x="737.35" y="656.34" transform="scale(4.0128.2492)" style="font-size:46.954;font-family:Arial;text-anchor:middle"/><text x="2749.28" y="170.57" line-height="125%" style="letter-spacing:0;word-spacing:0;font-size:129.23;font-family:&apos;Gentium Book Basic&apos;"><tspan x="2749.28" y="170.57"/></text><text x="882.2" y="335.3" transform="scale(4.0128.2492)" style="font-size:46.954;font-family:Arial;text-anchor:middle"/><text x="1677.7" y="-10.691" line-height="125%" style="letter-spacing:0;word-spacing:0;font-size:129.23;font-family:&apos;Gentium Book Basic&apos;"><tspan x="1677.7" y="-10.691"/></text><text x="615.16" y="-392.05" transform="scale(4.0128.2492)" style="font-size:46.954;font-family:Arial;text-anchor:middle"/><text x="2775.75" y="-227.16" line-height="125%" style="letter-spacing:0;word-spacing:0;font-size:129.23;font-family:&apos;Gentium Book Basic&apos;"><tspan x="2775.75" y="-227.16"/></text><text x="888.8" y="-1260.71" transform="scale(4.0128.2492)" style="font-size:46.954;font-family:Arial;text-anchor:middle"/><text x="3357.02" y="-307.16" line-height="125%" style="letter-spacing:0;word-spacing:0;font-size:129.23;font-family:&apos;Gentium Book Basic&apos;"><tspan x="3357.02" y="-307.16"/></text><text x="1033.65" y="-1581.74" transform="scale(4.0128.2492)" style="font-size:46.954;font-family:Arial;text-anchor:middle"/><text x="2967.9" y="-779.56" line-height="125%" style="letter-spacing:0;word-spacing:0;font-size:129.23;font-family:&apos;Gentium Book Basic&apos;"><tspan x="2967.9" y="-779.56"/></text><text x="936.68" y="-3477.38" transform="scale(4.0128.2492)" style="font-size:46.954;font-family:Arial;text-anchor:middle"/><text x="3549.16" y="-859.57" line-height="125%" style="letter-spacing:0;word-spacing:0;font-size:129.23;font-family:&apos;Gentium Book Basic&apos;"><tspan x="3549.16" y="-859.57"/></text><text x="1081.53" y="-3798.42" transform="scale(4.0128.2492)" style="font-size:46.954;font-family:Arial;text-anchor:middle"/><g line-height="125%" style="letter-spacing:0;word-spacing:0;font-family:&apos;Gentium Book Basic&apos;"><text x="1716.36" y="555.15" style="font-size:208.33"><tspan x="1716.36" y="555.15"/></text><text x="1990.11" y="186.78" style="font-size:129.23"><tspan x="1990.11" y="186.78"/></text></g><text x="693.02" y="400.37" transform="scale(4.0128.2492)" style="font-size:46.954;font-family:Arial;text-anchor:middle"/><text x="2571.38" y="106.78" line-height="125%" style="letter-spacing:0;word-spacing:0;font-size:129.23;font-family:&apos;Gentium Book Basic&apos;"><tspan x="2571.38" y="106.78"/></text><text x="837.87" y="79.33" transform="scale(4.0128.2492)" style="font-size:46.954;font-family:Arial;text-anchor:middle"/><text x="1499.8" y="-74.48" line-height="125%" style="letter-spacing:0;word-spacing:0;font-size:129.23;font-family:&apos;Gentium Book Basic&apos;"><tspan x="1499.8" y="-74.48"/></text><text x="570.83" y="-648.02" transform="scale(4.0128.2492)" style="font-size:46.954;font-family:Arial;text-anchor:middle"/><text x="2597.85" y="-290.95" line-height="125%" style="letter-spacing:0;word-spacing:0;font-size:129.23;font-family:&apos;Gentium Book Basic&apos;"><tspan x="2597.85" y="-290.95"/></text><text x="844.47" y="-1516.68" transform="scale(4.0128.2492)" style="font-size:46.954;font-family:Arial;text-anchor:middle"/><text x="3179.12" y="-370.95" line-height="125%" style="letter-spacing:0;word-spacing:0;font-size:129.23;font-family:&apos;Gentium Book Basic&apos;"><tspan x="3179.12" y="-370.95"/></text><text x="989.32" y="-1837.71" transform="scale(4.0128.2492)" style="font-size:46.954;font-family:Arial;text-anchor:middle"/><text x="2790" y="-843.35" line-height="125%" style="letter-spacing:0;word-spacing:0;font-size:129.23;font-family:&apos;Gentium Book Basic&apos;"><tspan x="2790" y="-843.35"/></text><text x="892.35" y="-3733.35" transform="scale(4.0128.2492)" style="font-size:46.954;font-family:Arial;text-anchor:middle"/><text x="3371.26" y="-923.36" line-height="125%" style="letter-spacing:0;word-spacing:0;font-size:129.23;font-family:&apos;Gentium Book Basic&apos;"><tspan x="3371.26" y="-923.36"/></text><text x="1037.2" y="-4054.39" transform="scale(4.0128.2492)" style="font-size:46.954;font-family:Arial;text-anchor:middle"/><g line-height="125%" style="letter-spacing:0;word-spacing:0;font-family:&apos;Gentium Book Basic&apos;"><text x="1538.46" y="491.36" style="font-size:208.33"><tspan x="1538.46" y="491.36"/></text><text x="701.44" y="192.02" style="font-size:129.23"><tspan x="701.44" y="192.02"/></text></g><text x="371.88" y="421.4" transform="scale(4.0128.2492)" style="font-size:46.954;font-family:Arial;text-anchor:middle"/><text x="1282.71" y="112.02" line-height="125%" style="letter-spacing:0;word-spacing:0;font-size:129.23;font-family:&apos;Gentium Book Basic&apos;"><tspan x="1282.71" y="112.02"/></text><text x="516.73" y="100.36" transform="scale(4.0128.2492)" style="font-size:46.954;font-family:Arial;text-anchor:middle"/><text x="211.13" y="-69.24" line-height="125%" style="letter-spacing:0;word-spacing:0;font-size:129.23;font-family:&apos;Gentium Book Basic&apos;"><tspan x="211.13" y="-69.24"/></text><text x="249.69" y="-626.99" transform="scale(4.0128.2492)" style="font-size:46.954;font-family:Arial;text-anchor:middle"/><text x="1309.18" y="-285.71" line-height="125%" style="letter-spacing:0;word-spacing:0;font-size:129.23;font-family:&apos;Gentium Book Basic&apos;"><tspan x="1309.18" y="-285.71"/></text><text x="523.33" y="-1495.65" transform="scale(4.0128.2492)" style="font-size:46.954;font-family:Arial;text-anchor:middle"/><text x="1890.45" y="-365.71" line-height="125%" style="letter-spacing:0;word-spacing:0;font-size:129.23;font-family:&apos;Gentium Book Basic&apos;"><tspan x="1890.45" y="-365.71"/></text><text x="668.18" y="-1816.68" transform="scale(4.0128.2492)" style="font-size:46.954;font-family:Arial;text-anchor:middle"/><text x="1501.33" y="-838.11" line-height="125%" style="letter-spacing:0;word-spacing:0;font-size:129.23;font-family:&apos;Gentium Book Basic&apos;"><tspan x="1501.33" y="-838.11"/></text><text x="571.21" y="-3712.32" transform="scale(4.0128.2492)" style="font-size:46.954;font-family:Arial;text-anchor:middle"/><text x="2082.59" y="-918.12" line-height="125%" style="letter-spacing:0;word-spacing:0;font-size:129.23;font-family:&apos;Gentium Book Basic&apos;"><tspan x="2082.59" y="-918.12"/></text><text x="716.06" y="-4033.36" transform="scale(4.0128.2492)" style="font-size:46.954;font-family:Arial;text-anchor:middle"/><g line-height="125%" style="letter-spacing:0;word-spacing:0;font-family:&apos;Gentium Book Basic&apos;"><text x="249.79" y="496.6" style="font-size:208.33"><tspan x="249.79" y="496.6"/></text><text x="2053.01" y="175.46" style="font-size:129.23"><tspan x="2053.01" y="175.46"/></text></g><text x="708.69" y="354.95" transform="scale(4.0128.2492)" style="font-size:46.954;font-family:Arial;text-anchor:middle"/><text x="2634.28" y="95.46" line-height="125%" style="letter-spacing:0;word-spacing:0;font-size:129.23;font-family:&apos;Gentium Book Basic&apos;"><tspan x="2634.28" y="95.46"/></text><text x="853.54" y="33.919" transform="scale(4.0128.2492)" style="font-size:46.954;font-family:Arial;text-anchor:middle"/><text x="1562.7" y="-85.8" line-height="125%" style="letter-spacing:0;word-spacing:0;font-size:129.23;font-family:&apos;Gentium Book Basic&apos;"><tspan x="1562.7" y="-85.8"/></text><text x="586.5" y="-693.44" transform="scale(4.0128.2492)" style="font-size:46.954;font-family:Arial;text-anchor:middle"/><text x="2660.75" y="-302.27" line-height="125%" style="letter-spacing:0;word-spacing:0;font-size:129.23;font-family:&apos;Gentium Book Basic&apos;"><tspan x="2660.75" y="-302.27"/></text><text x="860.14" y="-1562.1" transform="scale(4.0128.2492)" style="font-size:46.954;font-family:Arial;text-anchor:middle"/><text x="3242.02" y="-382.28" line-height="125%" style="letter-spacing:0;word-spacing:0;font-size:129.23;font-family:&apos;Gentium Book Basic&apos;"><tspan x="3242.02" y="-382.28"/></text><text x="1004.99" y="-1883.14" transform="scale(4.0128.2492)" style="font-size:46.954;font-family:Arial;text-anchor:middle"/><text x="2852.9" y="-854.68" line-height="125%" style="letter-spacing:0;word-spacing:0;font-size:129.23;font-family:&apos;Gentium Book Basic&apos;"><tspan x="2852.9" y="-854.68"/></text><text x="908.02" y="-3778.79" transform="scale(4.0128.2492)" style="font-size:46.954;font-family:Arial;text-anchor:middle"/><text x="3434.16" y="-934.68" line-height="125%" style="letter-spacing:0;word-spacing:0;font-size:129.23;font-family:&apos;Gentium Book Basic&apos;"><tspan x="3434.16" y="-934.68"/></text><text x="1052.87" y="-4099.82" transform="scale(4.0128.2492)" style="font-size:46.954;font-family:Arial;text-anchor:middle"/><g line-height="125%" style="letter-spacing:0;word-spacing:0;font-family:&apos;Gentium Book Basic&apos;"><text x="1601.36" y="480.04" style="font-size:208.33"><tspan x="1601.36" y="480.04"/></text><text x="2191.88" y="83.83" style="font-size:129.23"><tspan x="2191.88" y="83.83"/></text></g><text x="743.3" y="-12.736" transform="scale(4.0128.2492)" style="font-size:46.954;font-family:Arial;text-anchor:middle"/><text x="2773.15" y="3.835" line-height="125%" style="letter-spacing:0;word-spacing:0;font-size:129.23;font-family:&apos;Gentium Book Basic&apos;"><tspan x="2773.15" y="3.835"/></text><text x="888.15" y="-333.77" transform="scale(4.0128.2492)" style="font-size:46.954;font-family:Arial;text-anchor:middle"/><text x="1701.57" y="-177.43" line-height="125%" style="letter-spacing:0;word-spacing:0;font-size:129.23;font-family:&apos;Gentium Book Basic&apos;"><tspan x="1701.57" y="-177.43"/></text><text x="621.11" y="-1061.12" transform="scale(4.0128.2492)" style="font-size:46.954;font-family:Arial;text-anchor:middle"/><text x="2799.62" y="-393.9" line-height="125%" style="letter-spacing:0;word-spacing:0;font-size:129.23;font-family:&apos;Gentium Book Basic&apos;"><tspan x="2799.62" y="-393.9"/></text><text x="894.75" y="-1929.79" transform="scale(4.0128.2492)" style="font-size:46.954;font-family:Arial;text-anchor:middle"/><text x="3380.89" y="-473.9" line-height="125%" style="letter-spacing:0;word-spacing:0;font-size:129.23;font-family:&apos;Gentium Book Basic&apos;"><tspan x="3380.89" y="-473.9"/></text><text x="1039.6" y="-2250.81" transform="scale(4.0128.2492)" style="font-size:46.954;font-family:Arial;text-anchor:middle"/><text x="2991.77" y="-946.3" line-height="125%" style="letter-spacing:0;word-spacing:0;font-size:129.23;font-family:&apos;Gentium Book Basic&apos;"><tspan x="2991.77" y="-946.3"/></text><text x="942.63" y="-4146.46" transform="scale(4.0128.2492)" style="font-size:46.954;font-family:Arial;text-anchor:middle"/><text x="3573.03" y="-1026.31" line-height="125%" style="letter-spacing:0;word-spacing:0;font-size:129.23;font-family:&apos;Gentium Book Basic&apos;"><tspan x="3573.03" y="-1026.31"/></text><text x="1087.48" y="-4467.49" transform="scale(4.0128.2492)" style="font-size:46.954;font-family:Arial;text-anchor:middle"/><g line-height="125%" style="letter-spacing:0;word-spacing:0;font-family:&apos;Gentium Book Basic&apos;"><text x="1740.23" y="388.41" style="font-size:208.33"><tspan x="1740.23" y="388.41"/></text><text x="2111.61" y="125.91" style="font-size:129.23"><tspan x="2111.61" y="125.91"/></text></g><text x="723.3" y="156.09" transform="scale(4.0128.2492)" style="font-size:46.954;font-family:Arial;text-anchor:middle"/><text x="2692.88" y="45.909" line-height="125%" style="letter-spacing:0;word-spacing:0;font-size:129.23;font-family:&apos;Gentium Book Basic&apos;"><tspan x="2692.88" y="45.909"/></text><text x="868.15" y="-164.94" transform="scale(4.0128.2492)" style="font-size:46.954;font-family:Arial;text-anchor:middle"/><text x="1621.3" y="-135.35" line-height="125%" style="letter-spacing:0;word-spacing:0;font-size:129.23;font-family:&apos;Gentium Book Basic&apos;"><tspan x="1621.3" y="-135.35"/></text><text x="601.11" y="-892.29" transform="scale(4.0128.2492)" style="font-size:46.954;font-family:Arial;text-anchor:middle"/><text x="2719.35" y="-351.82" line-height="125%" style="letter-spacing:0;word-spacing:0;font-size:129.23;font-family:&apos;Gentium Book Basic&apos;"><tspan x="2719.35" y="-351.82"/></text><text x="874.74" y="-1760.96" transform="scale(4.0128.2492)" style="font-size:46.954;font-family:Arial;text-anchor:middle"/><text x="3300.62" y="-431.83" line-height="125%" style="letter-spacing:0;word-spacing:0;font-size:129.23;font-family:&apos;Gentium Book Basic&apos;"><tspan x="3300.62" y="-431.83"/></text><text x="1019.59" y="-2082" transform="scale(4.0128.2492)" style="font-size:46.954;font-family:Arial;text-anchor:middle"/><text x="2911.5" y="-904.23" line-height="125%" style="letter-spacing:0;word-spacing:0;font-size:129.23;font-family:&apos;Gentium Book Basic&apos;"><tspan x="2911.5" y="-904.23"/></text><text x="922.62" y="-3977.65" transform="scale(4.0128.2492)" style="font-size:46.954;font-family:Arial;text-anchor:middle"/><text x="3492.76" y="-984.23" line-height="125%" style="letter-spacing:0;word-spacing:0;font-size:129.23;font-family:&apos;Gentium Book Basic&apos;"><tspan x="3492.76" y="-984.23"/></text><text x="1067.47" y="-4298.68" transform="scale(4.0128.2492)" style="font-size:46.954;font-family:Arial;text-anchor:middle"/><g line-height="125%" style="letter-spacing:0;word-spacing:0;font-family:&apos;Gentium Book Basic&apos;"><text x="1659.96" y="430.49" style="font-size:208.33"><tspan x="1659.96" y="430.49"/></text><text x="2131.25" y="173.93" style="font-size:129.23"><tspan x="2131.25" y="173.93"/></text></g><text x="728.19" y="348.8" transform="scale(4.0128.2492)" style="font-size:46.954;font-family:Arial;text-anchor:middle"/><text x="2712.52" y="93.93" line-height="125%" style="letter-spacing:0;word-spacing:0;font-size:129.23;font-family:&apos;Gentium Book Basic&apos;"><tspan x="2712.52" y="93.93"/></text><text x="873.04" y="27.764" transform="scale(4.0128.2492)" style="font-size:46.954;font-family:Arial;text-anchor:middle"/><text x="1640.94" y="-87.33" line-height="125%" style="letter-spacing:0;word-spacing:0;font-size:129.23;font-family:&apos;Gentium Book Basic&apos;"><tspan x="1640.94" y="-87.33"/></text><text x="606" y="-699.58" transform="scale(4.0128.2492)" style="font-size:46.954;font-family:Arial;text-anchor:middle"/><text x="2738.99" y="-303.8" line-height="125%" style="letter-spacing:0;word-spacing:0;font-size:129.23;font-family:&apos;Gentium Book Basic&apos;"><tspan x="2738.99" y="-303.8"/></text><text x="879.64" y="-1568.26" transform="scale(4.0128.2492)" style="font-size:46.954;font-family:Arial;text-anchor:middle"/><text x="3320.26" y="-383.8" line-height="125%" style="letter-spacing:0;word-spacing:0;font-size:129.23;font-family:&apos;Gentium Book Basic&apos;"><tspan x="3320.26" y="-383.8"/></text><text x="1024.49" y="-1889.29" transform="scale(4.0128.2492)" style="font-size:46.954;font-family:Arial;text-anchor:middle"/><text x="2931.14" y="-856.2" line-height="125%" style="letter-spacing:0;word-spacing:0;font-size:129.23;font-family:&apos;Gentium Book Basic&apos;"><tspan x="2931.14" y="-856.2"/></text><text x="927.52" y="-3784.94" transform="scale(4.0128.2492)" style="font-size:46.954;font-family:Arial;text-anchor:middle"/><text x="3512.4" y="-936.21" line-height="125%" style="letter-spacing:0;word-spacing:0;font-size:129.23;font-family:&apos;Gentium Book Basic&apos;"><tspan x="3512.4" y="-936.21"/></text><text x="1072.37" y="-4105.98" transform="scale(4.0128.2492)" style="font-size:46.954;font-family:Arial;text-anchor:middle"/><g line-height="125%" style="letter-spacing:0;word-spacing:0;font-family:&apos;Gentium Book Basic&apos;"><text x="1679.6" y="478.51" style="font-size:208.33"><tspan x="1679.6" y="478.51"/></text><text x="2080.63" y="150" style="font-size:129.23"><tspan x="2080.63" y="150"/></text></g><text x="715.58" y="252.77" transform="scale(4.0128.2492)" style="font-size:46.954;font-family:Arial;text-anchor:middle"/><text x="2661.9" y="69.999" line-height="125%" style="letter-spacing:0;word-spacing:0;font-size:129.23;font-family:&apos;Gentium Book Basic&apos;"><tspan x="2661.9" y="69.999"/></text><text x="860.42" y="-68.27" transform="scale(4.0128.2492)" style="font-size:46.954;font-family:Arial;text-anchor:middle"/><text x="1590.32" y="-111.26" line-height="125%" style="letter-spacing:0;word-spacing:0;font-size:129.23;font-family:&apos;Gentium Book Basic&apos;"><tspan x="1590.32" y="-111.26"/></text><text x="593.39" y="-795.61" transform="scale(4.0128.2492)" style="font-size:46.954;font-family:Arial;text-anchor:middle"/><text x="2688.37" y="-327.73" line-height="125%" style="letter-spacing:0;word-spacing:0;font-size:129.23;font-family:&apos;Gentium Book Basic&apos;"><tspan x="2688.37" y="-327.73"/></text><text x="867.02" y="-1664.29" transform="scale(4.0128.2492)" style="font-size:46.954;font-family:Arial;text-anchor:middle"/><text x="3269.64" y="-407.73" line-height="125%" style="letter-spacing:0;word-spacing:0;font-size:129.23;font-family:&apos;Gentium Book Basic&apos;"><tspan x="3269.64" y="-407.73"/></text><text x="1011.87" y="-1985.32" transform="scale(4.0128.2492)" style="font-size:46.954;font-family:Arial;text-anchor:middle"/><text x="2880.52" y="-880.13" line-height="125%" style="letter-spacing:0;word-spacing:0;font-size:129.23;font-family:&apos;Gentium Book Basic&apos;"><tspan x="2880.52" y="-880.13"/></text><text x="914.9" y="-3880.97" transform="scale(4.0128.2492)" style="font-size:46.954;font-family:Arial;text-anchor:middle"/><text x="3461.78" y="-960.14" line-height="125%" style="letter-spacing:0;word-spacing:0;font-size:129.23;font-family:&apos;Gentium Book Basic&apos;"><tspan x="3461.78" y="-960.14"/></text><text x="1059.75" y="-4202.01" transform="scale(4.0128.2492)" style="font-size:46.954;font-family:Arial;text-anchor:middle"/><text x="1628.98" y="454.58" line-height="125%" style="letter-spacing:0;word-spacing:0;font-size:208.33;font-family:&apos;Gentium Book Basic&apos;"><tspan x="1628.98" y="454.58"/></text><path d="m255.99 77.61c-47.686 0-86.06 38.37-86.06 86.06v33.73c0 5.191.446 10.274 1.318 15.207.002.008-.002.016 0 .023-.816.731-1.621 1.469-2.418 2.221-.794.749-1.567 1.501-2.342 2.27-.767.762-1.547 1.54-2.295 2.32-.063.066-.132.129-.195.195-3.699 3.88-7.135 8-10.324 12.324-.648.878-1.279 1.765-1.904 2.66-.61.873-1.216 1.748-1.805 2.637-.059.088-.114.179-.172.268-.511.776-1.019 1.556-1.514 2.344-.066.105-.129.211-.195.316-1.716 2.753-3.326 5.582-4.832 8.471-.506.97-1.01 1.943-1.488 2.928-.971 1.987-1.889 3.986-2.758 6.03-.196.462-.395.926-.586 1.391-.23.559-.461 1.12-.684 1.684-.002.007.003.018 0 .025-.103.26-.215.52-.316.781-.697 1.802-1.337 3.626-1.953 5.467-.292.874-.58 1.753-.854 2.635-.149.48-.296.959-.439 1.441-.229.769-.446 1.544-.66 2.318-.3 1.086-.581 2.172-.854 3.27-.259 1.047-.524 2.092-.758 3.148-.021.096-.028.196-.049.293-.22 1.01-.437 2.01-.633 3.03-.02.105-.029.211-.049.316-.187.982-.35 1.964-.514 2.953-.026.155-.047.31-.072.465-.061.375-.138.747-.195 1.123-.103.673-.201 1.349-.293 2.025-.284 2.085-.527 4.181-.709 6.297-.028.325-.047.651-.072.977-.007.09-.018.177-.025.268-.246 3.227-.365 6.497-.365 9.787 0 3.29.12 6.56.365 9.787.245 3.227.617 6.413 1.1 9.568.161 1.052.326 2.105.512 3.148.373 2.086.797 4.15 1.27 6.199.473 2.05.992 4.066 1.563 6.076.571 2.01 1.188 4.01 1.854 5.98.666 1.968 1.39 3.91 2.148 5.834.379.962.77 1.929 1.172 2.879.804 1.9 1.645 3.761 2.537 5.613.892 1.852 1.831 3.691 2.809 5.492 1.467 2.701 3.03 5.33 4.686 7.908 2.203 3.438 4.563 6.782 7.078 9.982.972 1.237 1.96 2.438 2.977 3.637.299.353.602.7.904 1.049 1.989 2.297 4.058 4.521 6.205 6.668l74.46 74.46c4.133.232 8.293.361 12.484.361 119.32 0 216.34-95.48 218.84-214.21l-154.97-154.97c-15.56-15.56-37.09-25.16-60.934-25.16h-.002v-.002" style="opacity:.25"/><path d="m255.99 77.61c-47.686 0-86.06 38.37-86.06 86.06v33.73c0 5.191.446 10.272 1.318 15.205.002.008-.002.017 0 .024-.816.731-1.619 1.469-2.416 2.221-.794.749-1.569 1.501-2.343 2.27-.767.762-1.547 1.538-2.294 2.319-.063.066-.132.129-.195.195-3.699 3.88-7.135 8-10.324 12.325-.648.878-1.278 1.765-1.904 2.66-.61.873-1.218 1.747-1.806 2.636-.059.088-.113.18-.171.268-.511.776-1.019 1.555-1.513 2.343-.066.105-.129.212-.195.317-1.716 2.753-3.326 5.58-4.832 8.469-.506.97-1.01 1.944-1.489 2.929-.971 1.987-1.889 3.985-2.758 6.03-.196.462-.395.927-.586 1.391-.23.559-.461 1.121-.683 1.684-.002.007.003.017 0 .024-.103.26-.216.52-.317.781-.697 1.802-1.337 3.626-1.953 5.467-.292.874-.58 1.754-.854 2.636-.149.48-.296.958-.439 1.44-.229.769-.445 1.544-.659 2.319-.3 1.086-.582 2.173-.854 3.271-.259 1.047-.523 2.092-.757 3.148-.021.096-.028.196-.049.293-.22 1.01-.439 2.01-.635 3.03-.02.105-.029.212-.049.317-.187.982-.349 1.964-.513 2.953-.026.155-.048.309-.073.464-.061.375-.138.747-.195 1.123-.103.673-.201 1.35-.293 2.026-.284 2.085-.526 4.181-.708 6.297-.028.325-.048.651-.073.976-.007.09-.018.178-.024.268-.246 3.227-.366 6.497-.366 9.787 0 3.29.121 6.56.366 9.787.245 3.227.616 6.412 1.098 9.567.161 1.052.326 2.105.512 3.148.373 2.086.796 4.15 1.269 6.199.473 2.05.991 4.067 1.562 6.077.571 2.01 1.189 4.01 1.855 5.98.666 1.968 1.389 3.909 2.148 5.833.379.962.77 1.93 1.172 2.88.804 1.9 1.646 3.762 2.538 5.614.892 1.852 1.829 3.691 2.807 5.492 1.467 2.701 3.033 5.33 4.686 7.908 2.203 3.438 4.563 6.782 7.078 9.982.972 1.237 1.961 2.437 2.978 3.637.299.353.601.7.903 1.05 5.328 6.154 11.241 11.782 17.646 16.816 1.6 1.258 3.221 2.48 4.881 3.661 2.491 1.772 5.04 3.46 7.664 5.05.873.531 1.749 1.052 2.636 1.562.007.003.018-.003.024 0 1.768 1.016 3.574 1.996 5.394 2.929 1.826.936 3.664 1.836 5.54 2.685.007.003.018-.003.024 0 .931.421 1.863.846 2.807 1.245.007.003.018-.003.024 0 5.694 2.408 11.612 4.414 17.695 5.98 2.03.522 4.083.992 6.151 1.416 2.068.423 4.145.801 6.248 1.123 3.155.482 6.341.853 9.567 1.098.008.001.016-.001.024 0 3.219.244 6.481.366 9.763.366 5.483 0 10.881-.351 16.182-1.025 1.06-.135 2.121-.279 3.173-.439 1.937-.296 3.852-.642 5.76-1.025.351-.07.7-.146 1.049-.22 1.679-.352 3.349-.73 5-1.147 5.28-1.332 10.431-2.985 15.425-4.955 2.875-1.134 5.725-2.377 8.494-3.71.01-.005.014-.02.024-.024.46-.221.91-.457 1.367-.683.775-.385 1.553-.771 2.319-1.172 1.502-.785 3-1.598 4.466-2.441 1.764-1.015 3.513-2.077 5.223-3.173.009-.007.015-.018.024-.024 1.709-1.096 3.4-2.242 5.05-3.417.821-.584 1.658-1.179 2.465-1.782.009-.007.015-.018.024-.024.815-.61 1.616-1.226 2.416-1.855 4-3.144 7.805-6.511 11.398-10.1 2.875-2.875 5.611-5.892 8.201-9.03 1.295-1.569 2.563-3.177 3.783-4.808 8.539-11.417 15.193-24.318 19.526-38.25.619-1.99 1.186-3.998 1.708-6.03 2.612-10.151 4-20.787 4-31.753 0-1.833-.045-3.653-.122-5.467-.015-.358-.031-.717-.049-1.074-.026-.513-.065-1.026-.098-1.538-.04-.636-.073-1.27-.122-1.904-.059-.759-.123-1.515-.195-2.27-.023-.244-.048-.489-.073-.732-.074-.725-.158-1.45-.244-2.172-.041-.342-.079-.684-.122-1.025-.09-.709-.191-1.418-.293-2.123-.105-.723-.201-1.453-.317-2.172-.025-.156-.072-.308-.098-.464-.135-.816-.264-1.63-.415-2.441-.139-.746-.288-1.48-.439-2.221-.17-.831-.351-1.665-.537-2.49-.177-.785-.37-1.563-.561-2.343-.034-.138-.063-.277-.098-.415-.075-.3-.143-.604-.22-.903-.189-.737-.383-1.465-.586-2.197-.214-.775-.43-1.549-.659-2.319-.148-.497-.31-.994-.464-1.489-.008-.025-.017-.049-.025-.073-.305-.979-.624-1.96-.952-2.929-.313-.925-.618-1.842-.952-2.758-.022-.058-.051-.113-.073-.171-.117-.32-.247-.633-.366-.952-.249-.662-.497-1.32-.757-1.977-.376-.952-.749-1.915-1.147-2.856-.4-.946-.822-1.898-1.245-2.831-.066-.147-.128-.293-.195-.439-.36-.788-.723-1.564-1.098-2.343-.581-1.205-1.189-2.404-1.806-3.588-.128-.245-.261-.488-.391-.732-.368-.694-.743-1.388-1.123-2.075-.017-.032-.031-.066-.049-.098-.313-.564-.63-1.125-.952-1.684-.226-.393-.454-.782-.683-1.172-.29-.491-.583-.978-.879-1.464-.275-.452-.55-.894-.83-1.342-.052-.084-.118-.16-.171-.244-.53-.844-1.061-1.683-1.611-2.514-.477-.721-.973-1.437-1.464-2.148-.127-.183-.239-.379-.366-.561-.2-.286-.408-.57-.61-.854-.434-.61-.873-1.204-1.318-1.806-1.239-1.679-2.513-3.34-3.832-4.955-.058-.072-.112-.148-.171-.22-.08-.098-.164-.195-.244-.293-.614-.745-1.248-1.491-1.879-2.221-.034-.039-.064-.083-.098-.122-.681-.786-1.375-1.55-2.075-2.319-.179-.196-.357-.391-.537-.586-.559-.607-1.113-1.21-1.684-1.806-.243-.254-.487-.505-.732-.757-.513-.527-1.04-1.044-1.562-1.562-.774-.768-1.55-1.522-2.343-2.27-.563-.531-1.135-1.066-1.708-1.586-.235-.214-.471-.423-.708-.635.872-4.933 1.342-10.01 1.342-15.205v-33.73c0-47.686-38.4-86.06-86.08-86.06m0 40.833c28.769 0 51.938 23.14 51.938 51.913v20.355c0 .188-.022.374-.024.561-15.849-7.102-33.422-11.06-51.913-11.06-18.492 0-36.04 3.955-51.889 11.06-.002-.188-.024-.373-.024-.561v-20.355c0-28.769 23.14-51.913 51.913-51.913m0 100.41c48.851 0 88.45 39.599 88.45 88.45 0 48.851-39.599 88.45-88.45 88.45-48.851 0-88.45-39.599-88.45-88.45 0-48.851 39.599-88.45 88.45-88.45m0 25.749c-34.625 0-62.68 28.08-62.68 62.701 0 34.625 28.05 62.701 62.68 62.701 34.625 0 62.701-28.08 62.701-62.701 0-34.625-28.08-62.701-62.701-62.701m0 27.824c9.8 0 17.768 7.943 17.768 17.744 0 5.557-2.566 10.536-6.565 13.79.005.131.024.258.024.391v30.07c0 6.219-5.01 11.227-11.227 11.227-6.219 0-11.203-5.01-11.203-11.227v-30.07c0-.132.017-.259.024-.391-3.999-3.254-6.565-8.232-6.565-13.79 0-9.8 7.943-17.744 17.744-17.744" style="fill:#fff"/></svg>