<svg xmlns="http://www.w3.org/2000/svg" viewBox="0 0 512 512"><g fill-rule="evenodd"><path fill="#d23638" d="m471.95 253.05c0 120.9-98.01 218.91-218.91 218.91s-218.91-98.01-218.91-218.91 98.01-218.91 218.91-218.91 218.91 98.01 218.91 218.91"/><path fill="#b23133" d="m167.22 51.625c-78.23 33.381-133.09 111.01-133.09 201.44s54.86 168.03 133.09 201.41v-402.84"/><path fill-opacity=".067" d="m256 1c-140.83 0-255 114.17-255 255s114.17 255 255 255 255-114.17 255-255-114.17-255-255-255m8.827 44.931c120.9 0 218.9 98 218.9 218.9s-98 218.9-218.9 218.9-218.93-98-218.93-218.9 98.03-218.9 218.93-218.9"/><g fill-opacity=".129"><path d="m256 4.43c-138.94 0-251.57 112.63-251.57 251.57s112.63 251.57 251.57 251.57 251.57-112.63 251.57-251.57-112.63-251.57-251.57-251.57m5.885 38.556c120.9 0 218.9 98 218.9 218.9s-98 218.9-218.9 218.9-218.93-98-218.93-218.9 98.03-218.9 218.93-218.9"/><path d="m256 8.36c-136.77 0-247.64 110.87-247.64 247.64s110.87 247.64 247.64 247.64 247.64-110.87 247.64-247.64-110.87-247.64-247.64-247.64m2.942 31.691c120.9 0 218.9 98 218.9 218.9s-98 218.9-218.9 218.9-218.93-98-218.93-218.9 98.03-218.9 218.93-218.9"/></g><path fill="#fff" stroke="#000" stroke-opacity=".31" stroke-width="4.904" d="m253.04 7.86c-135.42 0-245.19 109.78-245.19 245.19 0 135.42 109.78 245.19 245.19 245.19 135.42 0 245.19-109.78 245.19-245.19 0-135.42-109.78-245.19-245.19-245.19m0 26.297c120.9 0 218.9 98 218.9 218.9s-98 218.9-218.9 218.9-218.93-98-218.93-218.9 98.03-218.9 218.93-218.9z"/></g><path d="m320.93 132.72l58.38 58.38v0.014l-58.39-58.39c-3.082 0.159-5.772 1.15-7.748 3.064l-0.113 0.113-14.602 14.658-0.309 0.307 0.309 0.309 0.004 0.004 164.4 164.4c4.485-15.07 7.393-30.818 8.527-47.06l-121-121-0.002-0.004c-9.251-9.251-19.925-14.613-28.09-14.797-0.444-0.01-0.912-0.023-1.365 0m-30.24 25.58l-0.309 0.334-15.439 15.467-0.307 0.309 0.307 0.334 174.68 174.68c3.596-7.322 6.794-14.873 9.568-22.627l-105.44-105.44-0.002 0.002-63.06-63.06m-24.996 24.992l-0.336 0.307-94.19 94.28-11.645 11.592-2.928 2.955-0.082 0.057-0.029 0.111-23.549 73.72-0.027 0.027c-0.827 3.88 0.392 8.171 3.068 10.848l93.51 93.51c7.737 0.828 15.592 1.264 23.549 1.264 81.62 0 152.79-44.673 190.43-110.89l-114.73-114.73-0.002 0.002-63.04-63.04" opacity=".25"/><path fill="#fff" d="m320.92 132.72c-3.082 0.159-5.772 1.152-7.748 3.066l-0.112 0.112-14.603 14.659-0.307 0.307 0.307 0.307 62.46 62.43 0.335 0.307 0.307-0.307 14.412-14.436 0.195-0.195c0.072-0.072 0.102-0.15 0.112-0.168 3.512-3.663 3.884-9.625 1.756-16.275-2.137-6.676-6.793-14.12-13.484-20.818l-14.157-14.185c-9.251-9.252-19.926-14.618-28.09-14.801-0.444-0.01-0.912-0.023-1.365 0m-30.24 25.58l-0.307 0.335-15.44 15.468-0.307 0.307 0.307 0.335 62.43 62.39 0.307 0.335 0.335-0.335 15.44-15.468 0.307-0.307-0.307-0.307-62.43-62.43-0.335-0.335m-24.997 24.997l-0.335 0.307-94.19 94.28-11.645 11.593-2.926 2.955-0.083 0.056-0.027 0.112-23.549 73.72-0.028 0.027c-0.847 3.972 0.45 8.375 3.26 11.04l0.028 0.027c2.606 1.949 6.07 2.436 9.03 1.254h0.028l74.72-23.605 0.083-0.027 0.083-0.083 2.425-2.452 11.259-11.231 94.61-94.58 0.307-0.335-0.307-0.307-62.43-62.43-0.307-0.307m-92.38 119.77h0.055c0.089-0.003 0.163-0.003 0.25 0 0.01 0 0.018-0.001 0.028 0h0.027c0.818 0.011 1.599 0.364 2.174 0.948l5.378 5.35 20.228-1.056c0.008-0.001 0.019 0 0.028 0 0.8-0.036 1.599 0.252 2.202 0.78 0.709 0.627 1.11 1.562 1.056 2.508l-1 22.1 3.929 3.929c0.778 0.782 1.097 1.945 0.808 3.01-0.289 1.066-1.163 1.919-2.23 2.202l-35.23 9.448h-0.027c-1.056 0.29-2.225-0.015-3.01-0.78h-0.027l-6.827-6.827c-0.801-0.791-1.116-1.983-0.808-3.066l10.311-36.23c0.324-1.227 1.415-2.172 2.675-2.313"/></svg>