<svg xmlns="http://www.w3.org/2000/svg" viewBox="0 0 512 512"><g fill-rule="evenodd"><path fill="#3976c4" d="m471.95 253.05c0 120.9-98.01 218.91-218.91 218.91s-218.91-98.01-218.91-218.91 98.01-218.91 218.91-218.91 218.91 98.01 218.91 218.91"/><path fill-opacity=".067" d="m256 1c-140.83 0-255 114.17-255 255s114.17 255 255 255 255-114.17 255-255-114.17-255-255-255m8.827 44.931c120.9 0 218.9 98 218.9 218.9s-98 218.9-218.9 218.9-218.93-98-218.93-218.9 98.03-218.9 218.93-218.9"/><g fill-opacity=".129"><path d="m256 4.43c-138.94 0-251.57 112.63-251.57 251.57s112.63 251.57 251.57 251.57 251.57-112.63 251.57-251.57-112.63-251.57-251.57-251.57m5.885 38.556c120.9 0 218.9 98 218.9 218.9s-98 218.9-218.9 218.9-218.93-98-218.93-218.9 98.03-218.9 218.93-218.9"/><path d="m256 8.36c-136.77 0-247.64 110.87-247.64 247.64s110.87 247.64 247.64 247.64 247.64-110.87 247.64-247.64-110.87-247.64-247.64-247.64m2.942 31.691c120.9 0 218.9 98 218.9 218.9s-98 218.9-218.9 218.9-218.93-98-218.93-218.9 98.03-218.9 218.93-218.9"/></g><path fill="#fff" stroke="#000" stroke-opacity=".31" stroke-width="4.904" d="m253.04 7.86c-135.42 0-245.19 109.78-245.19 245.19 0 135.42 109.78 245.19 245.19 245.19 135.42 0 245.19-109.78 245.19-245.19 0-135.42-109.78-245.19-245.19-245.19m0 26.297c120.9 0 218.9 98 218.9 218.9s-98 218.9-218.9 218.9-218.93-98-218.93-218.9 98.03-218.9 218.93-218.9z"/></g><g fill-rule="evenodd"><path d="m130.8 114.88c-0.307 8.335-0.131 16.683-0.178 25.02l38.432 38.432v191.7c-12.705 0.105-25.412 0.209-38.12 0.314-0.052 8.662-0.451 17.334-0.039 25.988l69.14 69.14c16.973 4.221 34.725 6.475 53 6.475 108.05 0 197.81-78.29 215.67-181.24l-151.77-151.77c-1.034-1.034-2.111-2.036-3.232-3-21.13-17.823-50-22.13-76.81-20.594-30.06 1.22-60.25 8.844-90.29 2.668-5.317-0.81-10.553-2.039-15.813-3.143" opacity=".25"/><path fill="#fff" d="m130.8 114.89c-0.307 8.335-0.131 16.683-0.177 25.02 12.814 1.559 25.649 2.957 38.431 4.765v225.37c-12.705 0.105-25.411 0.21-38.12 0.315-0.052 8.662-0.452 17.333-0.039 25.988 32.28 1.476 64.68 0.339 97.02 0.521l15.165-0.048c0.101-8.919 0.213-17.837 0.335-26.756h-44.751v-101.43h45.32c28.468 42.684 56.634 85.57 85.47 128.01 17.309 0.375 34.626-0.171 51.937-0.295-0.122-8.663-0.234-17.325-0.335-25.988-11.34-0.114-22.681-0.239-34.02-0.374-23.578-35.25-47.772-70.08-71.25-105.39 8.592-4.823 19.07-7.394 27.28-13.543 38.454-23.4 45.05-85.38 10.644-115.1-21.13-17.823-50-22.13-76.81-20.593-30.06 1.22-60.25 8.844-90.29 2.668-5.316-0.81-10.553-2.039-15.812-3.142m113.56 26.48c21.335-0.543 46.893 5.677 56.47 26.973 9.975 21.886 3.645 52-18.938 63.4-25.11 14.86-54.971 10.675-82.85 11.808-0.891-6.271-0.126-14.219-0.381-21.13 0.083-25.97-0.268-51.953 0.473-77.911 15.02-1.67 30.11-2.891 45.22-3.13"/></g></svg>