<svg xmlns="http://www.w3.org/2000/svg" viewBox="0 0 512 512"><g style="fill-rule:evenodd"><path d="m471.95 253.05c0 120.9-98.01 218.9-218.9 218.9-120.9 0-218.9-98.01-218.9-218.9 0-120.9 98.01-218.9 218.9-218.9 120.9 0 218.9 98.01 218.9 218.9" style="fill:#f38725"/><path d="m123.78 163.34c-10.367.522-18.563 9.06-18.563 19.563 0 5.675 2.415 10.744 6.25 14.313.323.347.653.677 1 1 .321.345.655.679 1 1 .356.383.708.772 1.094 1.125.243.256.494.507.75.75.353.386.742.737 1.125 1.094.323.347.653.677 1 1 .343.369.692.721 1.063 1.063.304.324.612.635.938.938.356.383.708.772 1.094 1.125.243.256.494.507.75.75.353.386.742.737 1.125 1.094.323.347.653.677 1 1 .321.345.655.679 1 1 .323.347.653.677 1 1 .356.383.708.772 1.094 1.125.243.256.494.507.75.75.353.386.742.737 1.125 1.094.303.326.613.633.938.938.341.37.694.719 1.063 1.063.323.347.653.677 1 1 .356.383.708.772 1.094 1.125.283.299.605.563.906.844.281.302.545.623.844.906.353.386.742.737 1.125 1.094.323.347.653.677 1 1 .343.369.692.721 1.063 1.063.304.324.612.635.938.938.356.383.708.772 1.094 1.125.243.256.494.507.75.75.353.386.742.737 1.125 1.094.323.347.653.677 1 1 .321.345.655.679 1 1 .323.347.653.677 1 1 .356.383.708.772 1.094 1.125.243.256.494.507.75.75.353.386.742.737 1.125 1.094.303.326.613.633.938.938.341.37.694.719 1.063 1.063.323.347.653.677 1 1 .356.383.708.772 1.094 1.125.243.256.494.507.75.75.353.386.742.737 1.125 1.094.321.345.655.679 1 1 .323.347.653.677 1 1 .323.347.653.677 1 1 .321.345.655.679 1 1 .356.383.708.772 1.094 1.125.243.256.494.507.75.75.353.386.742.737 1.125 1.094.323.347.653.677 1 1 .343.369.692.721 1.063 1.063.304.324.612.635.938.938.356.383.708.772 1.094 1.125.243.256.494.507.75.75.353.386.742.737 1.125 1.094.323.347.653.677 1 1 .321.345.655.679 1 1 .373.401.75.788 1.156 1.156.005.006-.005.026 0 .031-.013.288-.031.584-.031.875 0 5.61 2.488 10.658 6.5 14.25.36.367.736.722 1.125 1.063.277.277.55.551.844.813.351.358.715.699 1.094 1.031.276.276.551.552.844.813.283.288.574.572.875.844.375.387.749.768 1.156 1.125.276.276.551.552.844.813.299.306.617.588.938.875.361.371.734.719 1.125 1.063.274.275.553.553.844.813.344.352.691.705 1.063 1.031.232.234.474.465.719.688.341.356.693.701 1.063 1.031.353.363.711.727 1.094 1.063.28.283.577.547.875.813.363.372.73.751 1.125 1.094.271.271.556.526.844.781.278.284.547.577.844.844.383.398.768.792 1.188 1.156.261.262.535.503.813.75.362.373.73.719 1.125 1.063.275.276.55.553.844.813.302.31.612.617.938.906.352.363.71.728 1.094 1.063.223.225.452.443.688.656.34.359.692.7 1.063 1.031.368.382.753.744 1.156 1.094.258.26.507.537.781.781.355.368.737.725 1.125 1.063.278.282.577.549.875.813.298.307.585.621.906.906.321.334.651.66 1 .969.295.304.588.592.906.875.379.395.769.766 1.188 1.125.255.256.51.51.781.75.31.321.632.64.969.938.337.349.694.68 1.063 1 .232.237.472.464.719.688.379.404.767.79 1.188 1.156.285.292.568.573.875.844.308.321.633.641.969.938.289.3.593.596.906.875h-13.06c-.191-.196-.391-.378-.594-.563-.219-.248-.451-.487-.688-.719-.385-.467-.807-.901-1.25-1.313-.248-.287-.511-.547-.781-.813-.314-.381-.679-.717-1.031-1.063-.306-.372-.657-.693-1-1.031-.392-.476-.83-.924-1.281-1.344-.325-.374-.669-.725-1.031-1.063-.239-.275-.491-.526-.75-.781-.314-.382-.68-.716-1.031-1.063-.316-.384-.646-.714-1-1.063-.413-.502-.868-.965-1.344-1.406-.314-.357-.652-.706-1-1.031-.303-.346-.635-.684-.969-1-.319-.368-.646-.728-1-1.063-.322-.372-.674-.724-1.031-1.063-.236-.273-.495-.526-.75-.781-.422-.513-.889-.985-1.375-1.438-.326-.369-.672-.727-1.031-1.063-.298-.338-.61-.659-.938-.969-.322-.371-.675-.724-1.031-1.063-.322-.37-.645-.725-1-1.063-.354-.407-.731-.788-1.125-1.156-.298-.336-.612-.66-.938-.969-.333-.381-.695-.746-1.063-1.094-.328-.373-.639-.753-1-1.094-.351-.399-.736-.763-1.125-1.125-.183-.205-.369-.398-.563-.594-.014-.017-.017-.045-.031-.063-.068-.068-.149-.12-.219-.188-.361-.419-.755-.807-1.156-1.188-.361-.41-.725-.817-1.125-1.188-.293-.326-.588-.636-.906-.938-.347-.394-.71-.766-1.094-1.125-.183-.206-.369-.398-.563-.594-.024-.029-.039-.065-.063-.094-.041-.042-.083-.084-.125-.125-.402-.472-.829-.92-1.281-1.344-.326-.366-.674-.696-1.031-1.031-.328-.367-.673-.725-1.031-1.063-.293-.329-.588-.664-.906-.969-.355-.404-.734-.788-1.125-1.156-.33-.37-.67-.723-1.031-1.063-.327-.366-.643-.726-1-1.063-.326-.365-.675-.726-1.031-1.063-.33-.369-.671-.723-1.031-1.063-.329-.368-.672-.724-1.031-1.063-.296-.331-.586-.661-.906-.969-.32-.364-.651-.726-1-1.063-.358-.407-.732-.784-1.125-1.156-.328-.366-.675-.725-1.031-1.063-.3-.335-.613-.657-.938-.969-.315-.357-.658-.701-1-1.031-.367-.417-.753-.806-1.156-1.188-.298-.332-.584-.659-.906-.969-.358-.405-.733-.784-1.125-1.156-.29-.323-.594-.636-.906-.938-.361-.409-.73-.812-1.125-1.188-.283-.315-.572-.612-.875-.906-.368-.42-.753-.834-1.156-1.219-.29-.323-.595-.635-.906-.938-.396-.45-.813-.871-1.25-1.281-.308-.338-.606-.685-.938-1-.33-.366-.674-.723-1.031-1.063-.32-.355-.654-.701-1-1.031-.338-.375-.665-.746-1.031-1.094-.352-.39-.711-.765-1.094-1.125-3.566-3.911-8.699-6.375-14.438-6.375-10.839 0-19.563 8.723-19.563 19.563 0 5.707 2.439 10.812 6.313 14.375.387.409.798.783 1.219 1.156.047.047.078.109.125.156.134.117.269.231.406.344.053.05.102.106.156.156.341.362.694.728 1.063 1.063.354.369.743.691 1.125 1.031.057.058.099.13.156.188.124.108.248.208.375.313.059.056.127.101.188.156.39.415.793.809 1.219 1.188.057.059.098.13.156.188.123.107.249.209.375.313.032.03.062.064.094.094.398.429.814.829 1.25 1.219.242.25.494.482.75.719.34.362.694.729 1.063 1.063.306.32.641.609.969.906.359.377.735.748 1.125 1.094.052.053.103.103.156.156.111.096.23.188.344.281.069.065.149.123.219.188.323.346.65.68 1 1 .376.399.776.762 1.188 1.125.263.269.533.529.813.781.349.366.715.727 1.094 1.063.288.296.598.568.906.844.311.323.634.639.969.938.332.346.672.682 1.031 1 .286.294.569.57.875.844.328.343.676.654 1.031.969.32.332.654.632 1 .938.245.253.49.513.75.75.329.35.674.679 1.031 1 .344.363.719.7 1.094 1.031.25.258.515.508.781.75.358.381.733.747 1.125 1.094.324.337.649.66 1 .969.267.275.558.525.844.781.338.357.694.706 1.063 1.031.288.298.597.568.906.844.309.325.634.639.969.938.316.332.657.634 1 .938.346.362.684.734 1.063 1.063.052.053.104.104.156.156.051.043.105.083.156.125.176.171.348.337.531.5.328.345.674.655 1.031.969.249.26.515.508.781.75.328.353.672.679 1.031 1 .338.359.692.705 1.063 1.031.259.27.534.53.813.781.383.41.794.79 1.219 1.156.047.048.077.109.125.156.04.033.085.061.125.094.183.179.37.361.563.531.317.334.654.664 1 .969.314.33.657.637 1 .938.292.305.589.595.906.875.309.326.632.64.969.938.305.322.636.612.969.906.335.354.663.712 1.031 1.031.071.074.146.146.219.219.017.014.045.017.063.031.175.173.348.336.531.5.379.408.795.794 1.219 1.156.046.048.078.109.125.156.017.014.045.017.063.031.175.173.347.336.531.5.339.364.688.704 1.063 1.031.298.313.613.621.938.906.273.289.578.547.875.813.371.402.741.8 1.156 1.156.062.064.124.124.188.188.006.005.025-.005.031 0 .182.181.371.361.563.531.342.369.714.733 1.094 1.063.39.411.781.796 1.219 1.156.207.207.405.432.625.625-.171 1.014-.25 2.034-.25 3.094 0 5.61 2.488 10.658 6.5 14.25.348.355.718.7 1.094 1.031.327.329.649.661 1 .969.266.266.531.529.813.781.324.332.652.659 1 .969.299.305.618.589.938.875.347.355.688.701 1.063 1.031.326.329.65.662 1 .969.274.275.552.553.844.813.309.315.637.611.969.906.329.337.677.655 1.031.969.269.273.527.555.813.813.337.349.698.676 1.063 1 .303.309.613.617.938.906.313.321.633.638.969.938.322.33.653.661 1 .969.314.32.631.639.969.938.331.338.673.655 1.031.969.265.268.53.528.813.781.344.355.69.703 1.063 1.031.325.331.649.661 1 .969.291.295.595.568.906.844.304.312.61.615.938.906.332.342.671.683 1.031 1 .3.306.614.59.938.875.296.303.588.623.906.906.307.316.638.612.969.906.307.317.606.643.938.938.335.347.698.68 1.063 1 .263.269.532.529.813.781.394.413.814.812 1.25 1.188.26.26.536.506.813.75.287.296.566.599.875.875.361.377.729.749 1.125 1.094.276.28.548.551.844.813.312.323.63.638.969.938.347.36.714.702 1.094 1.031.273.277.55.554.844.813.309.32.633.641.969.938.303.313.609.616.938.906.31.323.631.639.969.938.315.328.657.635 1 .938.303.314.609.616.938.906.333.346.698.683 1.063 1 .251.257.512.509.781.75.325.344.675.685 1.031 1 .346.363.712.7 1.094 1.031.276.283.546.55.844.813.331.348.667.682 1.031 1 .289.299.592.567.906.844.323.34.645.689 1 1 .315.327.655.637 1 .938.255.264.507.535.781.781.332.356.695.676 1.063 1 .309.326.63.639.969.938.32.337.647.661 1 .969.313.327.656.639 1 .938.274.285.546.58.844.844.274.292.576.574.875.844.338.366.717.7 1.094 1.031.318.337.648.662 1 .969.337.355.688.679 1.063 1 .302.312.606.621.938.906.286.297.593.571.906.844.308.325.628.641.969.938.263.278.525.556.813.813.341.37.711.698 1.094 1.031.326.346.668.657 1.031.969.289.303.589.599.906.875.306.325.629.643.969.938.277.294.57.575.875.844.278.3.569.6.875.875.345.379.735.724 1.125 1.063.304.323.631.613.969.906.347.37.733.733 1.125 1.063.283.293.563.577.875.844.29.306.585.597.906.875.315.338.647.665 1 .969.259.275.528.529.813.781.377.415.785.792 1.219 1.156.276.287.539.583.844.844.287.306.587.599.906.875.317.343.674.662 1.031.969.257.275.529.53.813.781.308.342.651.663 1 .969.298.328.633.611.969.906.311.342.648.664 1 .969.309.338.65.668 1 .969.264.286.55.553.844.813.34.38.734.729 1.125 1.063.295.319.605.621.938.906.302.329.626.613.969.906.332.362.682.714 1.063 1.031.279.297.562.578.875.844.303.33.624.645.969.938.283.308.587.6.906.875.282.312.587.596.906.875.336.378.703.733 1.094 1.063.258.28.554.529.844.781.325.366.685.712 1.063 1.031.28.307.588.602.906.875.289.322.607.621.938.906.286.322.61.621.938.906.32.364.689.684 1.063 1 .32.354.691.693 1.063 1 .273.296.565.581.875.844.321.358.657.691 1.031 1 .274.3.562.579.875.844.301.339.619.643.969.938.324.365.681.687 1.063 1 .27.296.566.583.875.844.296.333.624.648.969.938.293.33.627.62.969.906.282.319.579.628.906.906.295.339.622.645.969.938.221.254.467.49.719.719.245.278.507.529.781.781.286.337.61.667.938.969.286.337.578.667.906.969.313.369.638.705 1 1.031.267.307.543.629.844.906.285.333.582.67.906.969.288.336.61.667.938.969.303.354.621.684.969 1 .266.305.545.598.844.875.289.338.578.664.906.969.319.374.633.73 1 1.063.267.305.544.597.844.875.291.339.577.663.906.969.293.341.606.661.938.969.287.332.582.668.906.969.289.334.611.666.938.969.305.353.623.682.969 1 .2.228.409.464.625.688 97.01-22.468 169.31-109.41 169.31-213.25 0-1.566-.03-3.13-.063-4.688-.188-.196-.365-.402-.563-.594-.333-.39-.683-.765-1.063-1.125-.252-.289-.504-.571-.781-.844-.332-.394-.684-.761-1.063-1.125-.318-.371-.641-.719-1-1.063-.335-.388-.682-.768-1.063-1.125-.34-.386-.678-.77-1.063-1.125-.168-.187-.353-.352-.531-.531-.322-.391-.665-.763-1.031-1.125-.328-.392-.69-.763-1.063-1.125-.286-.335-.588-.655-.906-.969-.326-.386-.662-.768-1.031-1.125-.239-.278-.489-.55-.75-.813-.317-.383-.673-.77-1.031-1.125-.327-.388-.693-.766-1.063-1.125-.326-.381-.664-.773-1.031-1.125-.197-.225-.414-.441-.625-.656-.341-.418-.705-.802-1.094-1.188-.279-.333-.565-.657-.875-.969-.307-.37-.655-.718-1-1.063-.293-.351-.611-.673-.938-1-.325-.39-.665-.763-1.031-1.125-.216-.255-.423-.507-.656-.75-.005-.006.005-.025 0-.031-.067-.069-.151-.119-.219-.188-.259-.309-.528-.615-.813-.906-.005-.006.005-.025 0-.031-.067-.068-.151-.121-.219-.188-.217-.254-.453-.508-.688-.75-.32-.396-.67-.757-1.031-1.125-.304-.369-.598-.75-.938-1.094-.321-.387-.671-.766-1.031-1.125-.273-.324-.574-.633-.875-.938-.293-.354-.612-.7-.938-1.031-.277-.335-.569-.654-.875-.969-.318-.387-.645-.765-1-1.125-.314-.378-.649-.742-1-1.094-.193-.23-.387-.436-.594-.656-.014-.018-.017-.045-.031-.063-.061-.064-.126-.124-.188-.188-.246-.3-.512-.591-.781-.875-.023-.029-.039-.065-.063-.094-.056-.058-.131-.099-.188-.156-.247-.296-.512-.595-.781-.875-.023-.029-.039-.065-.063-.094-.041-.042-.084-.083-.125-.125-.267-.318-.52-.638-.813-.938-.269-.327-.548-.629-.844-.938-.303-.373-.632-.745-.969-1.094-.313-.382-.683-.737-1.031-1.094-.258-.312-.531-.612-.813-.906-.292-.36-.583-.724-.906-1.063-.321-.396-.674-.757-1.031-1.125-.266-.323-.553-.632-.844-.938-.348-.429-.703-.853-1.094-1.25-.284-.339-.564-.681-.875-1-.178-.214-.374-.418-.563-.625-.041-.052-.084-.104-.125-.156-.03-.032-.063-.062-.094-.094-.245-.303-.515-.587-.781-.875-.041-.052-.084-.105-.125-.156-.02-.021-.043-.042-.063-.063-.259-.317-.531-.638-.813-.938-.042-.052-.082-.104-.125-.156-.031-.032-.063-.062-.094-.094-.252-.303-.508-.588-.781-.875-.042-.052-.082-.105-.125-.156-.031-.031-.063-.063-.094-.094-.252-.3-.508-.591-.781-.875-.228-.277-.474-.548-.719-.813-.334-.422-.689-.826-1.063-1.219-.273-.335-.577-.652-.875-.969-.306-.38-.631-.737-.969-1.094-.306-.376-.632-.741-.969-1.094-.279-.342-.57-.677-.875-1-.289-.357-.59-.695-.906-1.031-.27-.333-.55-.654-.844-.969-.387-.485-.782-.96-1.219-1.406-.246-.292-.485-.597-.75-.875-.178-.217-.374-.415-.563-.625-.063-.082-.123-.169-.188-.25-.055-.059-.132-.098-.188-.156-.341-.416-.685-.831-1.063-1.219-.174-.207-.348-.425-.531-.625-.073-.092-.144-.19-.219-.281-.04-.043-.084-.083-.125-.125-.141-.169-.29-.336-.438-.5-.369-.478-.741-.932-1.156-1.375-.313-.387-.656-.761-1-1.125-.219-.268-.454-.525-.688-.781-.329-.418-.699-.796-1.063-1.188-.282-.351-.568-.699-.875-1.031-.285-.356-.596-.694-.906-1.031-.319-.399-.649-.781-1-1.156-.307-.379-.602-.768-.938-1.125-.275-.336-.578-.65-.875-.969-.304-.376-.606-.739-.938-1.094-3.889-4.791-10.05-7.875-17.03-7.875h-194.81c-11.806 0-21.313 8.819-21.313 19.781 0 5.915 2.786 11.187 7.188 14.813.011.01.02.021.031.031.176.144.35.298.531.438.1.088.211.164.313.25.571.555 1.143 1.104 1.781 1.594.277.244.553.489.844.719.349.318.69.612 1.063.906.338.308.671.62 1.031.906.287.262.572.535.875.781.425.398.882.763 1.344 1.125.305.277.614.554.938.813.299.276.589.554.906.813.415.39.83.769 1.281 1.125.225.205.452.398.688.594.43.413.874.812 1.344 1.188.299.276.62.523.938.781.294.277.594.553.906.813.399.384.816.743 1.25 1.094.283.266.574.532.875.781.366.352.76.676 1.156 1 .34.324.697.638 1.063.938.011.01.021.021.031.031.138.112.265.235.406.344.109.098.232.186.344.281.522.518 1.07 1.042 1.656 1.5.158.143.337.268.5.406.016.016.015.047.031.063.124.105.248.211.375.313.312.29.604.574.938.844.4.378.813.75 1.25 1.094.267.245.53.488.813.719.4.381.813.747 1.25 1.094.27.25.526.515.813.75.368.353.756.676 1.156 1 .319.302.657.595 1 .875.335.321.669.641 1.031.938.317.304.658.593 1 .875.34.33.694.633 1.063.938.296.287.62.545.938.813.392.387.788.773 1.219 1.125.032.031.061.063.094.094.105.084.205.168.313.25.164.148.33.295.5.438.298.293.617.571.938.844.349.35.712.678 1.094 1 .011.011.021.021.031.031.097.081.182.171.281.25.211.2.434.404.656.594.01.01.021.021.031.031.095.081.184.171.281.25.342.328.69.636 1.063.938.295.282.589.581.906.844.405.396.833.767 1.281 1.125.251.237.514.464.781.688.074.073.144.147.219.219h-14.188c-.282-.303-.575-.591-.875-.875-.347-.379-.717-.743-1.094-1.094-.32-.345-.656-.679-1-1-.373-.401-.751-.788-1.156-1.156-.295-.31-.592-.616-.906-.906-.298-.318-.619-.609-.938-.906-.322-.347-.653-.677-1-1-.285-.307-.571-.619-.875-.906-.347-.379-.717-.743-1.094-1.094-.35-.377-.715-.745-1.094-1.094-.314-.333-.632-.659-.969-.969-.298-.318-.619-.609-.938-.906-.297-.32-.589-.638-.906-.938-.31-.337-.636-.654-.969-.969-.347-.379-.717-.743-1.094-1.094-.35-.377-.715-.745-1.094-1.094-.314-.333-.632-.659-.969-.969-.298-.318-.619-.609-.938-.906-.32-.345-.656-.679-1-1-.287-.309-.569-.617-.875-.906-.347-.379-.717-.743-1.094-1.094-.32-.345-.656-.679-1-1-.373-.401-.751-.788-1.156-1.156-.295-.31-.592-.616-.906-.906-.298-.318-.619-.609-.938-.906-.287-.309-.569-.617-.875-.906-.347-.379-.717-.743-1.094-1.094-.32-.345-.656-.679-1-1-.35-.377-.715-.745-1.094-1.094-.314-.333-.632-.659-.969-.969-.298-.318-.619-.609-.938-.906-.322-.347-.653-.677-1-1-.285-.307-.571-.619-.875-.906-.347-.379-.717-.743-1.094-1.094-.35-.377-.715-.745-1.094-1.094-.314-.333-.632-.659-.969-.969-.298-.318-.619-.609-.938-.906-.297-.32-.589-.638-.906-.938-.31-.337-.636-.654-.969-.969-.347-.379-.717-.743-1.094-1.094-.35-.377-.715-.745-1.094-1.094-.314-.333-.632-.659-.969-.969-.298-.318-.619-.609-.938-.906-.32-.345-.656-.679-1-1-.287-.309-.569-.617-.875-.906-.347-.379-.717-.743-1.094-1.094-.32-.345-.656-.679-1-1-.373-.401-.751-.788-1.156-1.156-.295-.31-.592-.616-.906-.906-.298-.318-.619-.609-.938-.906-.287-.309-.569-.617-.875-.906-.347-.379-.717-.743-1.094-1.094-.32-.345-.656-.679-1-1-.35-.377-.715-.745-1.094-1.094-.314-.333-.632-.659-.969-.969-.298-.318-.619-.609-.938-.906-.297-.32-.589-.638-.906-.938-.31-.337-.636-.654-.969-.969-.347-.379-.717-.743-1.094-1.094-.35-.377-.715-.745-1.094-1.094-.314-.333-.632-.659-.969-.969-.298-.318-.619-.609-.938-.906-.32-.345-.656-.679-1-1-.287-.309-.569-.617-.875-.906-.347-.379-.717-.743-1.094-1.094-.32-.345-.656-.679-1-1-.373-.401-.751-.788-1.156-1.156-3.552-3.734-8.567-6.06-14.156-6.06-.339 0-.666-.017-1 0m0 145.75c-10.367.522-18.563 9.06-18.563 19.563 0 5.731 2.473 10.833 6.375 14.406.372.391.753.766 1.156 1.125.047.048.078.109.125.156.134.117.269.23.406.344.053.051.102.106.156.156.341.363.694.727 1.063 1.063.354.37.743.69 1.125 1.031.297.305.589.622.906.906.288.298.599.566.906.844.261.272.567.494.844.75.373.399.749.791 1.156 1.156.242.251.494.482.75.719.34.363.694.728 1.063 1.063.306.321.641.608.969.906.359.378.735.747 1.125 1.094.052.054.103.103.156.156.111.097.23.187.344.281.069.066.149.123.219.188.334.357.67.702 1.031 1.031.366.387.758.741 1.156 1.094.263.27.533.528.813.781.349.367.715.726 1.094 1.063.288.297.598.567.906.844.311.324.634.638.969.938.332.346.672.682 1.031 1 .301.311.614.587.938.875.313.325.631.637.969.938.32.332.654.632 1 .938.245.253.49.512.75.75.329.351.674.678 1.031 1 .344.363.719.699 1.094 1.031.25.259.515.508.781.75.403.431.835.833 1.281 1.219.026.027.036.067.063.094.073.062.145.126.219.188.163.158.33.318.5.469.291.304.593.593.906.875.338.357.694.705 1.063 1.031.288.299.597.568.906.844.309.326.634.638.969.938.316.332.657.633 1 .938.352.368.709.729 1.094 1.063.046.047.078.109.125.156.051.043.105.083.156.125.176.171.348.337.531.5.328.345.674.654 1.031.969.249.26.515.507.781.75.358.386.73.746 1.125 1.094.289.301.594.598.906.875.278.294.575.572.875.844.387.416.788.816 1.219 1.188.041.042.084.084.125.125.04.033.085.061.125.094.183.18.37.361.563.531.317.335.654.664 1 .969.314.33.657.637 1 .938.292.306.589.595.906.875.309.327.632.64.969.938.305.323.636.612.969.906.345.365.682.734 1.063 1.063.06.062.126.126.188.188.017.014.045.017.063.031.228.225.446.446.688.656.071.074.147.147.219.219.017.014.045.017.063.031.223.221.451.45.688.656.076.08.141.172.219.25.017.014.046.017.063.031.175.174.347.336.531.5.339.365.688.703 1.063 1.031.298.314.613.621.938.906.273.29.578.546.875.813.381.413.76.822 1.188 1.188.051.053.104.104.156.156.006.005.025-.005.031 0 .182.181.371.36.563.531.342.369.714.732 1.094 1.063.39.412.781.795 1.219 1.156.215.216.427.424.656.625.403.432.825.843 1.281 1.219.192.192.391.382.594.563.416.452.838.89 1.313 1.281.315.318.623.621.969.906.313.316.625.654.969.938.227.229.445.445.688.656.386.414.782.827 1.219 1.188.22.223.452.45.688.656.276.297.572.574.875.844.409.449.843.863 1.313 1.25.232.236.469.47.719.688.378.406.791.803 1.219 1.156.305.311.601.629.938.906.312.32.623.652.969.938.31.318.626.623.969.906.221.227.449.447.688.656.385.422.778.824 1.219 1.188.311.322.623.621.969.906.31.32.625.654.969.938.307.318.596.625.938.906.313.326.619.649.969.938.249.258.509.516.781.75.355.386.72.729 1.125 1.063.309.323.623.652.969.938.255.266.533.51.813.75.351.382.724.763 1.125 1.094.302.315.601.629.938.906.308.324.624.653.969.938.305.321.627.624.969.906.321.338.638.674 1 .969.293.307.579.605.906.875.307.326.623.621.969.906.305.325.625.654.969.938.312.332.615.649.969.938.296.315.604.631.938.906.3.32.63.627.969.906.323.347.631.701 1 1 .283.299.588.582.906.844.301.325.627.624.969.906.303.328.624.653.969.938.297.321.6.628.938.906.302.33.623.653.969.938.299.326.627.624.969.906.323.353.658.699 1.031 1 .28.301.558.582.875.844.099.109.208.208.313.313.201.221.404.455.625.656.272.33.561.617.875.906.282.347.579.665.906.969.297.364.622.715.969 1.031.26.314.547.597.844.875.306.377.674.704 1.031 1.031.274.329.561.647.875.938.292.354.631.689.969 1 .325.39.652.757 1.031 1.094.254.293.527.581.813.844.28.334.586.673.906.969.27.324.568.618.875.906.302.367.651.678 1 1 .251.3.53.574.813.844.3.369.623.706.969 1.031.337.409.701.77 1.094 1.125.278.321.562.651.875.938.275.322.565.619.875.906.248.294.504.578.781.844.338.413.732.765 1.125 1.125.259.302.523.602.813.875.277.331.593.64.906.938.326.392.657.749 1.031 1.094.32.372.667.734 1.031 1.063.239.271.487.533.75.781.281.333.559.669.875.969.336.4.74.742 1.125 1.094.204.233.404.471.625.688.318.389.668.748 1.031 1.094.298.355.632.65.969.969.343.403.702.8 1.094 1.156.25.283.506.553.781.813.144.168.286.338.438.5 3.29.147 6.58.25 9.906.25 12.841 0 25.422-1.129 37.656-3.25-.326-.331-.642-.673-1-.969-.235-.237-.468-.467-.719-.688-.442-.474-.906-.931-1.406-1.344-.232-.234-.471-.47-.719-.688-.335-.36-.693-.706-1.063-1.031-.34-.365-.687-.702-1.063-1.031-.433-.466-.884-.907-1.375-1.313-.264-.267-.529-.536-.813-.781-.337-.358-.691-.71-1.063-1.031-.303-.322-.637-.614-.969-.906-.362-.393-.752-.775-1.156-1.125-.405-.431-.825-.873-1.281-1.25-.268-.273-.554-.531-.844-.781-.405-.433-.824-.872-1.281-1.25-.344-.352-.683-.686-1.063-1-.342-.35-.685-.719-1.063-1.031-.34-.349-.656-.69-1.031-1-.347-.358-.678-.714-1.063-1.031-.344-.355-.681-.685-1.063-1-.342-.353-.683-.718-1.063-1.031-.341-.352-.685-.719-1.063-1.031-.267-.275-.554-.53-.844-.781-.411-.446-.812-.896-1.281-1.281-.329-.339-.667-.668-1.031-.969-.34-.354-.684-.718-1.063-1.031-.272-.283-.547-.556-.844-.813-.397-.434-.828-.844-1.281-1.219-.248-.259-.511-.513-.781-.75-.409-.455-.841-.892-1.313-1.281-.282-.297-.564-.577-.875-.844-.388-.426-.805-.82-1.25-1.188-.335-.352-.688-.722-1.063-1.031-.282-.297-.595-.577-.906-.844-.379-.416-.754-.829-1.188-1.188-.337-.357-.684-.687-1.063-1-.335-.356-.685-.72-1.063-1.031-.333-.353-.688-.691-1.063-1-.339-.362-.68-.715-1.063-1.031-.336-.359-.683-.687-1.063-1-.344-.369-.672-.742-1.063-1.063-.347-.37-.7-.742-1.094-1.063-.317-.336-.644-.643-1-.938-.346-.374-.699-.739-1.094-1.063-.321-.344-.668-.669-1.031-.969-.336-.363-.712-.717-1.094-1.031-.334-.361-.65-.719-1.031-1.031-.351-.38-.722-.737-1.125-1.063-.302-.322-.597-.655-.938-.938-.344-.377-.73-.739-1.125-1.063-.32-.348-.666-.667-1.031-.969-.32-.352-.634-.695-1-1-.12-.121-.249-.229-.375-.344-.005-.006.005-.025 0-.031-.072-.072-.145-.149-.219-.219-.247-.281-.505-.529-.781-.781-.31-.377-.672-.733-1.031-1.063-.311-.378-.64-.732-1-1.063-.314-.381-.668-.729-1.031-1.063-.312-.379-.64-.73-1-1.063-.313-.38-.67-.729-1.031-1.063-.309-.376-.644-.701-1-1.031-.312-.379-.672-.729-1.031-1.063-.31-.376-.644-.73-1-1.063-.311-.378-.674-.729-1.031-1.063-.316-.385-.667-.723-1.031-1.063-.345-.419-.725-.791-1.125-1.156-.317-.373-.67-.733-1.031-1.063-.274-.323-.568-.647-.875-.938-.353-.429-.746-.844-1.156-1.219-.273-.32-.57-.617-.875-.906-.312-.379-.675-.725-1.031-1.063-.304-.369-.654-.701-1-1.031-.361-.438-.769-.867-1.188-1.25-.32-.373-.669-.731-1.031-1.063-.265-.309-.55-.594-.844-.875-.313-.38-.676-.723-1.031-1.063-.313-.38-.645-.722-1-1.063-.392-.476-.824-.899-1.281-1.313-.238-.272-.49-.53-.75-.781-.312-.379-.678-.722-1.031-1.063-.312-.38-.647-.722-1-1.063-.315-.382-.675-.719-1.031-1.063-.312-.379-.647-.721-1-1.063-.31-.377-.682-.692-1.031-1.031-.403-.49-.844-.948-1.313-1.375-.231-.263-.468-.506-.719-.75-.315-.383-.676-.717-1.031-1.063-.309-.375-.653-.723-1-1.063-.418-.508-.889-.965-1.375-1.406-.293-.33-.583-.668-.906-.969-.322-.37-.672-.729-1.031-1.063-.235-.271-.495-.53-.75-.781-.392-.476-.83-.924-1.281-1.344-.325-.374-.669-.725-1.031-1.063-.327-.376-.667-.723-1.031-1.063-.303-.348-.633-.683-.969-1-.338-.391-.685-.772-1.063-1.125-.324-.371-.671-.726-1.031-1.063-.229-.262-.472-.505-.719-.75-.313-.38-.682-.716-1.031-1.063-.407-.494-.846-.938-1.313-1.375-.323-.369-.673-.728-1.031-1.063-.219-.25-.453-.484-.688-.719-.395-.48-.831-.917-1.281-1.344-.343-.397-.711-.766-1.094-1.125-.328-.375-.668-.722-1.031-1.063-.305-.347-.634-.682-.969-1-.322-.37-.645-.725-1-1.063-.324-.372-.674-.723-1.031-1.063-.328-.378-.668-.749-1.031-1.094-.319-.366-.649-.728-1-1.063-.352-.405-.734-.758-1.125-1.125-.345-.39-.712-.771-1.094-1.125-.295-.329-.585-.665-.906-.969-.305-.346-.635-.681-.969-1-.361-.414-.724-.813-1.125-1.188-.311-.35-.629-.679-.969-1-.362-.411-.755-.783-1.156-1.156-.276-.307-.545-.621-.844-.906-.36-.411-.727-.814-1.125-1.188-.31-.347-.631-.68-.969-1-.327-.37-.673-.723-1.031-1.063-.309-.35-.632-.677-.969-1-.355-.404-.734-.788-1.125-1.156-.343-.384-.686-.773-1.063-1.125-.302-.336-.61-.658-.938-.969-.309-.348-.633-.678-.969-1-.335-.382-.664-.743-1.031-1.094-.367-.416-.752-.809-1.156-1.188-.301-.334-.612-.659-.938-.969-.288-.324-.595-.636-.906-.938-.364-.418-.724-.837-1.125-1.219-.337-.378-.695-.746-1.063-1.094-.3-.335-.613-.657-.938-.969-.336-.38-.696-.744-1.063-1.094-.357-.401-.734-.788-1.125-1.156-.316-.35-.627-.707-.969-1.031-.329-.366-.674-.724-1.031-1.063-.281-.313-.573-.613-.875-.906-.361-.411-.729-.81-1.125-1.188-.34-.381-.692-.742-1.063-1.094-.328-.364-.676-.725-1.031-1.063-.281-.312-.574-.614-.875-.906-.372-.422-.749-.832-1.156-1.219-.303-.337-.611-.654-.938-.969-.377-.425-.774-.829-1.188-1.219-.302-.332-.613-.659-.938-.969-.338-.375-.665-.746-1.031-1.094-.332-.368-.672-.721-1.031-1.063-3.568-3.954-8.726-6.438-14.5-6.438-.339 0-.666-.017-1 0" style="fill-opacity:.235;color:#000"/><path d="m256 1c-140.83 0-255 114.17-255 255 0 140.83 114.17 255 255 255 140.83 0 255-114.17 255-255 0-140.83-114.17-255-255-255m8.827 44.931c120.9 0 218.9 98 218.9 218.9 0 120.9-98 218.9-218.9 218.9-120.9 0-218.93-98-218.93-218.9 0-120.9 98.03-218.9 218.93-218.9" style="fill-opacity:.067"/><g style="fill-opacity:.129"><path d="m256 4.433c-138.94 0-251.57 112.63-251.57 251.57 0 138.94 112.63 251.57 251.57 251.57 138.94 0 251.57-112.63 251.57-251.57 0-138.94-112.63-251.57-251.57-251.57m5.885 38.556c120.9 0 218.9 98 218.9 218.9 0 120.9-98 218.9-218.9 218.9-120.9 0-218.93-98-218.93-218.9 0-120.9 98.03-218.9 218.93-218.9"/><path d="m256 8.356c-136.77 0-247.64 110.87-247.64 247.64 0 136.77 110.87 247.64 247.64 247.64 136.77 0 247.64-110.87 247.64-247.64 0-136.77-110.87-247.64-247.64-247.64m2.942 31.691c120.9 0 218.9 98 218.9 218.9 0 120.9-98 218.9-218.9 218.9-120.9 0-218.93-98-218.93-218.9 0-120.9 98.03-218.9 218.93-218.9"/></g><path d="m253.04 7.859c-135.42 0-245.19 109.78-245.19 245.19 0 135.42 109.78 245.19 245.19 245.19 135.42 0 245.19-109.78 245.19-245.19 0-135.42-109.78-245.19-245.19-245.19zm0 26.297c120.9 0 218.9 98 218.9 218.9 0 120.9-98 218.9-218.9 218.9-120.9 0-218.93-98-218.93-218.9 0-120.9 98.03-218.9 218.93-218.9z" style="stroke-opacity:.31;fill:#fff;stroke:#000;stroke-width:4.904"/></g><text x="729.64" y="231.36" line-height="125%" style="letter-spacing:0;word-spacing:0;font-size:129.23;font-family:Gentium Book Basic"><tspan x="729.64" y="231.36"/></text><text x="378.91" y="579.25" transform="scale(4.0128.2492)" style="font-size:46.954;font-family:Arial;text-anchor:middle"/><text x="1310.91" y="151.36" line-height="125%" style="letter-spacing:0;word-spacing:0;font-size:129.23;font-family:Gentium Book Basic"><tspan x="1310.91" y="151.36"/></text><text x="523.76" y="258.22" transform="scale(4.0128.2492)" style="font-size:46.954;font-family:Arial;text-anchor:middle"/><text x="239.33" y="-29.901" line-height="125%" style="letter-spacing:0;word-spacing:0;font-size:129.23;font-family:Gentium Book Basic"><tspan x="239.33" y="-29.901"/></text><text x="256.72" y="-469.14" transform="scale(4.0128.2492)" style="font-size:46.954;font-family:Arial;text-anchor:middle"/><text x="1337.38" y="-246.37" line-height="125%" style="letter-spacing:0;word-spacing:0;font-size:129.23;font-family:Gentium Book Basic"><tspan x="1337.38" y="-246.37"/></text><text x="530.36" y="-1337.81" transform="scale(4.0128.2492)" style="font-size:46.954;font-family:Arial;text-anchor:middle"/><text x="1918.65" y="-326.38" line-height="125%" style="letter-spacing:0;word-spacing:0;font-size:129.23;font-family:Gentium Book Basic"><tspan x="1918.65" y="-326.38"/></text><text x="675.21" y="-1658.85" transform="scale(4.0128.2492)" style="font-size:46.954;font-family:Arial;text-anchor:middle"/><text x="1529.53" y="-798.78" line-height="125%" style="letter-spacing:0;word-spacing:0;font-size:129.23;font-family:Gentium Book Basic"><tspan x="1529.53" y="-798.78"/></text><text x="578.24" y="-3554.51" transform="scale(4.0128.2492)" style="font-size:46.954;font-family:Arial;text-anchor:middle"/><text x="2110.79" y="-878.78" line-height="125%" style="letter-spacing:0;word-spacing:0;font-size:129.23;font-family:Gentium Book Basic"><tspan x="2110.79" y="-878.78"/></text><text x="723.09" y="-3875.54" transform="scale(4.0128.2492)" style="font-size:46.954;font-family:Arial;text-anchor:middle"/><text x="277.99" y="535.94" line-height="125%" style="letter-spacing:0;word-spacing:0;font-size:208.33;font-family:Gentium Book Basic"><tspan x="277.99" y="535.94"/></text><path d="m124.79 163.33c-10.839 0-19.569 8.73-19.569 19.569 0 10.839 8.73 19.569 19.569 19.569 10.839 0 19.539-8.73 19.539-19.569 0-10.839-8.7-19.569-19.539-19.569m65.828 0c-11.806 0-21.304 8.816-21.304 19.778 0 10.962 9.499 19.808 21.304 19.808h194.82c11.806 0 21.334-8.846 21.334-19.808 0-10.962-9.529-19.778-21.334-19.778h-194.82m-65.828 72.89c-10.839 0-19.569 8.73-19.569 19.569 0 10.839 8.73 19.539 19.569 19.539 10.839 0 19.539-8.7 19.539-19.539 0-10.839-8.7-19.569-19.539-19.569m65.828 0c-11.806 0-21.304 8.816-21.304 19.778 0 10.962 9.499 19.778 21.304 19.778h194.82c11.806 0 21.334-8.817 21.334-19.778 0-10.962-9.529-19.778-21.334-19.778h-194.82m-65.828 72.86c-10.839 0-19.569 8.73-19.569 19.569 0 10.839 8.73 19.569 19.569 19.569 10.839 0 19.539-8.73 19.539-19.569 0-10.839-8.7-19.569-19.539-19.569m65.828 0c-11.806 0-21.304 8.846-21.304 19.808 0 10.962 9.499 19.778 21.304 19.778h194.82c11.806 0 21.334-8.817 21.334-19.778 0-10.962-9.529-19.808-21.334-19.808h-194.82" style="fill:#fff;color:#000;fill-rule:evenodd"/></svg>