<svg xmlns="http://www.w3.org/2000/svg" xmlns:xlink="http://www.w3.org/1999/xlink" id="svg2" width="100%" height="100%" version="1.1" viewBox="0 0 512 512"><metadata id="metadata70"/><defs id="defs68"><filter id="filter3174" color-interpolation-filters="sRGB"><feGaussianBlur id="feGaussianBlur3176" stdDeviation="1.71"/></filter><linearGradient id="linearGradient3393" x1="45.448" x2="45.448" y1="92.54" y2="7.016" gradientTransform="matrix(1.0059 0 0 .99417 627.81 52.174)" gradientUnits="userSpaceOnUse"><stop id="stop3750" offset="0"/><stop id="stop3752" offset="1" stop-opacity=".588"/></linearGradient><linearGradient id="linearGradient3406" x1="39.48" x2="39.48" y1="81.5" y2="6.28" gradientTransform="matrix(4.4499 0 0 4.4499 42.186 77.475)" gradientUnits="userSpaceOnUse"><stop id="stop8206" offset="0" stop-color="#fff"/><stop id="stop8208" offset="1" stop-color="#50caff" stop-opacity="0"/></linearGradient></defs><path id="path8" fill="#4e7db5" fill-rule="evenodd" d="m471.95 253.05c0 120.9-98.006 218.91-218.91 218.91s-218.91-98.006-218.91-218.91 98.006-218.91 218.91-218.91 218.91 98.006 218.91 218.91"/><path id="path8185" fill="url(#linearGradient3406)" d="m146.31 96.308c71.33 94.082-78.243 157.44-58.129 232.51 19.579 73.08 108.02 69.4 139.9 109.16-22.01-42.73-52.11-40.57-63.97-80.66-30.17-101.91 283.47-152.82 181.61-261.01h-199.41z"/><path id="path10" fill-opacity=".067" fill-rule="evenodd" d="m256 1c-140.83 0-255 114.17-255 255s114.17 255 255 255 255-114.17 255-255-114.17-255-255-255m8.827 44.931c120.9 0 218.9 98 218.9 218.9s-98 218.9-218.9 218.9-218.93-98-218.93-218.9 98.03-218.9 218.93-218.9"/><g id="g12" fill-opacity=".129" fill-rule="evenodd" transform="translate(0,-540.36)"><path id="path14" d="m256 544.79c-138.94 0-251.57 112.63-251.57 251.57s112.63 251.54 251.57 251.54 251.57-112.6 251.57-251.54-112.63-251.57-251.57-251.57m5.885 38.556c120.9 0 218.9 98 218.9 218.9s-98 218.9-218.9 218.9-218.93-98-218.93-218.9 98.03-218.9 218.93-218.9"/><path id="path16" d="m256 548.72c-136.77 0-247.64 110.87-247.64 247.64s110.87 247.64 247.64 247.64 247.64-110.87 247.64-247.64-110.87-247.64-247.64-247.64m2.942 31.691c120.9 0 218.9 98 218.9 218.9s-98 218.9-218.9 218.9-218.93-98-218.93-218.9 98.03-218.9 218.93-218.9"/></g><path id="path18" fill="#fff" fill-rule="evenodd" stroke="#000" stroke-opacity=".31" stroke-width="4.904" d="m253.04 7.86c-135.42 0-245.19 109.78-245.19 245.19 0 135.42 109.78 245.19 245.19 245.19 135.42 0 245.19-109.78 245.19-245.19 0-135.42-109.78-245.19-245.19-245.19zm0 26.297c120.9 0 218.9 98 218.9 218.9s-98 218.9-218.9 218.9-218.93-98-218.93-218.9 98.03-218.9 218.93-218.9z"/><rect id="rect3745" width="86" height="85" x="632.81" y="59.174" fill="url(#linearGradient3393)" display="none" filter="url(#filter3174)" opacity=".9" rx="6" ry="6"/><path style="block-progression:tb;color:#000;text-transform:none;text-indent:0" id="path3568" d="m392.72 84.5-0.15625 0.28125c-1.912 3.0361-3.521 6.2005-4.7812 9-23.081 51.27-58.43 91.284-81.312 137.91-12.072 24.595-19.335 47.679-21.812 65.344-2.5118 3.1711-3.6407 7.0733-3.0938 10.906-5.5587 9.7112-21.607 37.761-30.312 55.719-10.54 21.72-23.54 72.84-23.54 72.84l35.219 35.219c116.31-5.1747 209-101.08 209-218.66 0-67.8-30.823-128.41-79.219-168.56z" opacity=".25"/><path style="block-progression:tb;color:#000;text-transform:none;text-indent:0" id="path3415" fill="#fff" d="m393.91 82.625-1.3438 2.1562c-1.912 3.0361-3.521 6.2005-4.7812 9-23.081 51.27-58.43 91.284-81.312 137.91-12.072 24.595-19.335 47.679-21.812 65.344-2.5118 3.1711-3.6407 7.0733-3.0938 10.906-5.5587 9.7112-21.607 37.761-30.312 55.719-10.55 21.72-23.55 72.84-23.55 72.84l3.9375 1.9062c20.31-27.06 67.15-62.41 67.15-62.41l1.5625-1.1875-0.96875-1.6875s-0.46106-0.7376-0.96875-3.0938-0.95659-6.1515-0.5625-11.656c0.85075-11.883 7.8776-26.699 12.938-35.781 1.9911-1.5817 3.8906-3.3454 5.9375-5.3125l0.375-0.15625 0.28125-0.28125c0.62141-0.60233 0.82946-0.98555 0.8125-0.96875 13.106-12.982 28.226-34.024 40.5-59.031 22.27-45.35 35.1-95.05 60.73-147.34l0.65625-1.3125-1-1.125c-7.18-8.153-14.94-15.757-23.22-22.779l-1.97-1.656z"/></svg>