<?xml version="1.0" encoding="UTF-8" standalone="no"?>
<svg
   xmlns:dc="http://purl.org/dc/elements/1.1/"
   xmlns:cc="http://creativecommons.org/ns#"
   xmlns:rdf="http://www.w3.org/1999/02/22-rdf-syntax-ns#"
   xmlns:svg="http://www.w3.org/2000/svg"
   xmlns="http://www.w3.org/2000/svg"
   xmlns:xlink="http://www.w3.org/1999/xlink"
   xmlns:sodipodi="http://sodipodi.sourceforge.net/DTD/sodipodi-0.dtd"
   xmlns:inkscape="http://www.inkscape.org/namespaces/inkscape"
   sodipodi:docname="software-updater.svg"
   height="100%"
   width="100%"
   inkscape:version="0.48.5 r10040"
   version="1.1"
   id="svg2"
   viewBox="0 0 512 512">
  <sodipodi:namedview
     pagecolor="#ffffff"
     bordercolor="#666666"
     borderopacity="1"
     objecttolerance="10"
     gridtolerance="10"
     guidetolerance="10"
     inkscape:pageopacity="0"
     inkscape:pageshadow="2"
     inkscape:window-width="1366"
     inkscape:window-height="705"
     id="namedview66"
     showgrid="false"
     inkscape:zoom="0.65186406"
     inkscape:cx="483.24292"
     inkscape:cy="211.56399"
     inkscape:window-x="-2"
     inkscape:window-y="-3"
     inkscape:window-maximized="1"
     inkscape:current-layer="svg2"
     showguides="true"
     inkscape:guide-bbox="true">
    <sodipodi:guide
       orientation="0,1"
       position="-70.56686,613.62487"
       id="guide67596" />
  </sodipodi:namedview>
  <metadata
     id="metadata70">
    <rdf:RDF>
      <cc:Work
         rdf:about="">
        <dc:format>image/svg+xml</dc:format>
        <dc:type
           rdf:resource="http://purl.org/dc/dcmitype/StillImage" />
        <dc:title />
      </cc:Work>
    </rdf:RDF>
  </metadata>
  <defs
     id="defs68">
    <linearGradient
       id="linearGradient67256"
       inkscape:collect="always">
      <stop
         id="stop67258"
         offset="0"
         style="stop-color:#0078ad;stop-opacity:1;" />
      <stop
         id="stop67260"
         offset="1"
         style="stop-color:#cd1d31;stop-opacity:1" />
    </linearGradient>
    <linearGradient
       id="linearGradient45780">
      <stop
         style="stop-color:#414485;stop-opacity:1"
         offset="0"
         id="stop45782" />
      <stop
         style="stop-color:#e1e2f5;stop-opacity:1"
         offset="1"
         id="stop45784" />
    </linearGradient>
    <linearGradient
       id="linearGradient4216-1">
      <stop
         id="stop4218-0"
         offset="0"
         style="stop-color:#ffffff;stop-opacity:1;" />
      <stop
         style="stop-color:#e8e8e8;stop-opacity:1;"
         offset="0.6875"
         id="stop4220-2" />
      <stop
         style="stop-color:#686868;stop-opacity:1;"
         offset="0.875"
         id="stop4222-6" />
      <stop
         id="stop4224-6"
         offset="1"
         style="stop-color:#000000;stop-opacity:1;" />
    </linearGradient>
    <radialGradient
       r="64"
       fy="64"
       fx="64"
       cy="64"
       cx="64"
       gradientUnits="userSpaceOnUse"
       id="radialGradient21305"
       xlink:href="#linearGradient4216-1"
       inkscape:collect="always" />
    <linearGradient
       id="linearGradient3931">
      <stop
         style="stop-color:#202020;stop-opacity:1;"
         offset="0"
         id="stop3933" />
      <stop
         style="stop-color:#1a1a1a;stop-opacity:1;"
         offset="1"
         id="stop3935" />
    </linearGradient>
    <clipPath
       clipPathUnits="userSpaceOnUse"
       id="clipPath62950">
      <path
         d="m 470.41154,253.05189 c 0,120.89699 -98.00565,218.90724 -218.90724,218.90724 -120.89698,0 -218.907232,-98.00566 -218.907232,-218.90724 0,-120.89698 98.005652,-218.907232 218.907232,-218.907232 120.89699,0 218.90724,98.005652 218.90724,218.907232"
         id="path62952"
         inkscape:connector-curvature="0"
         style="fill:#484043;fill-opacity:1;fill-rule:evenodd" />
    </clipPath>
    <clipPath
       id="clipPath3477">
      <path
         style="fill:#ffcc67"
         id="path3479"
         inkscape:connector-curvature="0"
         d="m 74.38,10.5 c -3.881,0 -7,3.119 -7,7 v 477 c 0,3.881 3.119,7 7,7 h 363.25 c 3.881,0 7,-3.119 7,-7 V 149.78 L 305.38,10.5 h -231" />
    </clipPath>
    <clipPath
       id="clipPath63463"
       clipPathUnits="userSpaceOnUse">
      <path
         d="m 470.41154,253.05189 c 0,120.89699 -98.00565,218.90724 -218.90724,218.90724 -120.89698,0 -218.907232,-98.00566 -218.907232,-218.90724 0,-120.89698 98.005652,-218.907232 218.907232,-218.907232 120.89699,0 218.90724,98.005652 218.90724,218.907232"
         id="path63465"
         inkscape:connector-curvature="0"
         style="fill:#484043;fill-opacity:1;fill-rule:evenodd" />
    </clipPath>
    <linearGradient
       x1="1049.89"
       y1="192.56"
       x2="1060.79"
       y2="240.28999"
       id="0"
       gradientUnits="userSpaceOnUse">
      <stop
         id="stop7"
         style="stop-color:#ffffff;stop-opacity:1"
         offset="0" />
      <stop
         id="stop9"
         style="stop-color:#ffffff;stop-opacity:0"
         offset="1" />
    </linearGradient>
    <clipPath
       clipPathUnits="userSpaceOnUse"
       id="clipPath67588">
      <path
         style="fill:url(#linearGradient67592);fill-opacity:1"
         d="m 256,31.25 c -37.81522,0 -73.44579,9.34394 -104.71875,25.84375 -0.0168,0.0088 -0.0145,0.05372 -0.0312,0.0625 -0.008,0.0042 -0.0231,-0.0042 -0.0312,0 -1.31917,0.69664 -2.63403,1.40304 -3.9375,2.125 C 78.100878,97.59837 31.25,171.32082 31.25,256 c 0,113.49943 84.2261,207.32928 193.53125,222.5625 0.0102,10e-4 0.0211,-10e-4 0.0312,0 10.2081,1.41929 20.5881,2.1875 31.1875,2.1875 124.12,0 224.75,-100.63 224.75,-224.75 0,-114.22 -85.18,-208.47125 -195.5,-222.78125 -3.09451,-0.40142 -6.20315,-0.74816 -9.34375,-1.03125 -1.70938,-0.16382 -3.4329,-0.29497 -5.15625,-0.40625 -4.88288,-0.3305 -9.801,-0.5 -14.75,-0.5 L 256,31.25 z"
         id="path67590"
         inkscape:connector-curvature="0" />
    </clipPath>
    <linearGradient
       inkscape:collect="always"
       xlink:href="#linearGradient67256"
       id="linearGradient67592"
       gradientUnits="userSpaceOnUse"
       x1="-57.69915"
       y1="472.94916"
       x2="526.30927"
       y2="101.9661" />
    <linearGradient
       inkscape:collect="always"
       xlink:href="#linearGradient67256"
       id="linearGradient67594"
       gradientUnits="userSpaceOnUse"
       x1="-10.105801"
       y1="280.6463"
       x2="454.54315"
       y2="299.1344" />
  </defs>
  <text
     font-size="129.23"
     letter-spacing="0"
     line-height="125%"
     word-spacing="0"
     x="729.64001"
     y="231.35997"
     id="text20"
     sodipodi:linespacing="125%"
     style="font-size:129.22999573px;line-height:125%;letter-spacing:0;word-spacing:0;font-family:Gentium Book Basic">
    <tspan
       x="729.64001"
       y="231.35997"
       id="tspan22" />
  </text>
  <text
     x="378.90805"
     y="579.25812"
     font-size="46.954"
     transform="scale(4.0128205,0.24920128)"
     id="text24"
     style="font-size:46.95375824px;text-anchor:middle;font-family:Arial" />
  <text
     font-size="129.23"
     letter-spacing="0"
     line-height="125%"
     word-spacing="0"
     x="1310.91"
     y="151.35997"
     id="text26"
     sodipodi:linespacing="125%"
     style="font-size:129.22999573px;line-height:125%;letter-spacing:0;word-spacing:0;font-family:Gentium Book Basic">
    <tspan
       x="1310.91"
       y="151.35997"
       id="tspan28" />
  </text>
  <text
     x="523.75732"
     y="258.21997"
     font-size="46.954"
     transform="scale(4.0128205,0.24920128)"
     id="text30"
     style="font-size:46.95375824px;text-anchor:middle;font-family:Arial" />
  <text
     font-size="129.23"
     letter-spacing="0"
     line-height="125%"
     word-spacing="0"
     x="239.33"
     y="-29.900009"
     id="text32"
     sodipodi:linespacing="125%"
     style="font-size:129.22999573px;line-height:125%;letter-spacing:0;word-spacing:0;font-family:Gentium Book Basic">
    <tspan
       x="239.33"
       y="-29.900009"
       id="tspan34" />
  </text>
  <text
     x="256.71869"
     y="-469.1264"
     font-size="46.954"
     transform="scale(4.0128205,0.24920128)"
     id="text36"
     style="font-size:46.95375824px;text-anchor:middle;font-family:Arial" />
  <text
     font-size="129.23"
     letter-spacing="0"
     line-height="125%"
     word-spacing="0"
     x="1337.38"
     y="-246.37001"
     id="text38"
     sodipodi:linespacing="125%"
     style="font-size:129.22999573px;line-height:125%;letter-spacing:0;word-spacing:0;font-family:Gentium Book Basic">
    <tspan
       x="1337.38"
       y="-246.37001"
       id="tspan40" />
  </text>
  <text
     x="530.3573"
     y="-1337.802"
     font-size="46.954"
     transform="scale(4.0128205,0.24920128)"
     id="text42"
     style="font-size:46.95375824px;text-anchor:middle;font-family:Arial" />
  <text
     font-size="129.23"
     letter-spacing="0"
     line-height="125%"
     word-spacing="0"
     x="1918.65"
     y="-326.37"
     id="text44"
     sodipodi:linespacing="125%"
     style="font-size:129.22999573px;line-height:125%;letter-spacing:0;word-spacing:0;font-family:Gentium Book Basic">
    <tspan
       x="1918.65"
       y="-326.37"
       id="tspan46" />
  </text>
  <text
     x="675.20654"
     y="-1658.8303"
     font-size="46.954"
     transform="scale(4.0128205,0.24920128)"
     id="text48"
     style="font-size:46.95375824px;text-anchor:middle;font-family:Arial" />
  <text
     font-size="129.23"
     letter-spacing="0"
     line-height="125%"
     word-spacing="0"
     x="1529.53"
     y="-798.77002"
     id="text50"
     sodipodi:linespacing="125%"
     style="font-size:129.22999573px;line-height:125%;letter-spacing:0;word-spacing:0;font-family:Gentium Book Basic">
    <tspan
       x="1529.53"
       y="-798.77002"
       id="tspan52" />
  </text>
  <text
     x="578.237"
     y="-3554.4807"
     font-size="46.954"
     transform="scale(4.0128205,0.24920128)"
     id="text54"
     style="font-size:46.95375824px;text-anchor:middle;font-family:Arial" />
  <text
     font-size="129.23"
     letter-spacing="0"
     line-height="125%"
     word-spacing="0"
     x="2110.79"
     y="-878.78003"
     id="text56"
     sodipodi:linespacing="125%"
     style="font-size:129.22999573px;line-height:125%;letter-spacing:0;word-spacing:0;font-family:Gentium Book Basic">
    <tspan
       x="2110.79"
       y="-878.78003"
       id="tspan58" />
  </text>
  <text
     x="723.0863"
     y="-3875.519"
     font-size="46.954"
     transform="scale(4.0128205,0.24920128)"
     id="text60"
     style="font-size:46.95375824px;text-anchor:middle;font-family:Arial" />
  <text
     font-size="208.33"
     letter-spacing="0"
     line-height="125%"
     word-spacing="0"
     x="277.98999"
     y="535.94006"
     id="text62"
     sodipodi:linespacing="125%"
     style="font-size:208.33000183px;line-height:125%;letter-spacing:0;word-spacing:0;font-family:Gentium Book Basic">
    <tspan
       x="277.98999"
       y="535.94006"
       id="tspan64" />
  </text>
  <path
     inkscape:connector-curvature="0"
     id="path3088"
     d=""
     style="fill:#000000" />
  <path
     sodipodi:nodetypes="csccscccc"
     inkscape:connector-curvature="0"
     id="path4230"
     d="m 1001.5344,165.46799 c -2.12025,7.3447 -36.40239,181.33436 -29.2674,189.97835 6.17649,7.48278 15.82564,4.24047 17.94587,-3.10424 -2.12023,7.34471 -6.3607,22.03412 -8.48093,29.37883 -17.94588,3.10423 -33.92048,-0.81668 -37.44387,-17.94588 -4.0713,-19.79285 27.13386,-182.58761 29.26738,-189.97835 -4.74112,-8.95799 -29.53105,-15.82564 -33.77151,-1.13623 -7.91282,-2.12024 0,0 -7.91282,-2.12024 18.51399,-34.60329 53.83762,-9.31271 69.66328,-5.07224 z"
     style="fill:#000000;fill-opacity:1;stroke:none;display:none" />
  <path
     sodipodi:nodetypes="csccssc"
     inkscape:connector-curvature="0"
     id="path4232"
     d="m 979.34804,183.26164 c -26.42681,32.48306 -124.22124,164.53554 -147.9597,158.17484 -7.91282,-2.12023 -7.91282,-2.12023 -15.82564,-4.24047 12.15329,-12.56918 0,0 12.15329,-12.56918 0,0 0,0 7.91282,2.12024 15.82564,4.24047 123.65312,-133.03649 140.04688,-160.29508 12.57344,-20.90638 3.67235,16.80965 3.67235,16.80965 z"
     style="fill:#000000;fill-opacity:1;stroke:none;display:none" />
  <path
     sodipodi:nodetypes="ccccc"
     inkscape:connector-curvature="0"
     id="path4234"
     d="m 916.46136,253.45223 47.47693,12.72141 -4.24047,14.68941 -55.38975,-14.84164 z"
     style="fill:#000000;fill-opacity:1;stroke:none;display:none" />
  <path
     transform="matrix(4.0238854,1.0781968,-1.0781968,3.7349835,710.43636,-81.379109)"
     sodipodi:type="arc"
     style="fill:url(#radialGradient21305);fill-opacity:1;stroke:none;display:none"
     id="path3281-0-0"
     sodipodi:cx="64"
     sodipodi:cy="64"
     sodipodi:rx="64"
     sodipodi:ry="64"
     d="M 128,64 A 64,64 0 1 1 0,64 64,64 0 1 1 128,64 z" />
  <path
     style="fill:#ffffff;fill-rule:evenodd"
     id="path13"
     inkscape:connector-curvature="0"
     d="m 471.95,253.05 c 0,120.9 -98.01,218.9 -218.9,218.9 -120.9,0 -218.9,-98.01 -218.9,-218.9 0,-120.9 98.01,-218.9 218.9,-218.9 120.9,0 218.9,98.01 218.9,218.9" />
  <path
     inkscape:connector-curvature="0"
     id="path67238"
     d="m 256,31.25 c -37.81522,0 -73.44579,9.34394 -104.71875,25.84375 -0.0168,0.0088 -0.0145,0.05372 -0.0312,0.0625 -0.008,0.0042 -0.0231,-0.0042 -0.0312,0 -1.31917,0.69664 -2.63403,1.40304 -3.9375,2.125 C 78.100878,97.59837 31.25,171.32082 31.25,256 c 0,113.49943 84.2261,207.32928 193.53125,222.5625 0.0102,0.001 0.0211,-0.001 0.0312,0 10.2081,1.41929 20.5881,2.1875 31.1875,2.1875 124.12,0 224.75,-100.63 224.75,-224.75 0,-114.22 -85.18,-208.47125 -195.5,-222.78125 -3.09451,-0.40142 -6.20315,-0.74816 -9.34375,-1.03125 -1.70938,-0.16382 -3.4329,-0.29497 -5.15625,-0.40625 -4.88288,-0.3305 -9.801,-0.5 -14.75,-0.5 L 256,31.25 z"
     style="fill:url(#linearGradient67594);fill-opacity:1" />
  <path
     d="M 256,1 C 115.17,1 1,115.17 1,256 1,396.83 115.17,511 256,511 396.83,511 511,396.83 511,256 511,115.17 396.83,1 256,1 m 8.827,44.931 c 120.9,0 218.9,98 218.9,218.9 0,120.9 -98,218.9 -218.9,218.9 -120.9,0 -218.93,-98 -218.93,-218.9 0,-120.9 98.03,-218.9 218.93,-218.9"
     inkscape:connector-curvature="0"
     id="path35"
     style="fill-opacity:0.06700003;fill-rule:evenodd" />
  <g
     transform="translate(0,-540.36)"
     id="g37"
     style="fill-opacity:0.12900002;fill-rule:evenodd">
    <path
       d="M 256,544.79 C 117.06,544.79 4.43,657.42 4.43,796.36 4.43,935.3 117.06,1047.93 256,1047.93 394.94,1047.93 507.57,935.3 507.57,796.36 507.57,657.42 394.94,544.79 256,544.79 m 5.885,38.556 c 120.9,0 218.9,98 218.9,218.9 0,120.9 -98,218.9 -218.9,218.9 -120.9,0 -218.93,-98 -218.93,-218.9 0,-120.9 98.03,-218.9 218.93,-218.9"
       inkscape:connector-curvature="0"
       id="path39" />
    <path
       d="M 256,548.72 C 119.23,548.72 8.36,659.59 8.36,796.36 8.36,933.13 119.23,1044 256,1044 392.77,1044 503.64,933.13 503.64,796.36 503.64,659.59 392.77,548.72 256,548.72 m 2.942,31.691 c 120.9,0 218.9,98 218.9,218.9 0,120.9 -98,218.9 -218.9,218.9 -120.9,0 -218.93,-98 -218.93,-218.9 0,-120.9 98.03,-218.9 218.93,-218.9"
       inkscape:connector-curvature="0"
       id="path41" />
  </g>
  <path
     d="M 253.04,7.86 C 117.62,7.86 7.85,117.64 7.85,253.05 c 0,135.42 109.78,245.19 245.19,245.19 135.42,0 245.19,-109.78 245.19,-245.19 C 498.23,117.63 388.45,7.86 253.04,7.86 z m 0,26.297 c 120.9,0 218.9,98 218.9,218.9 0,120.9 -98,218.9 -218.9,218.9 -120.9,0 -218.93,-98 -218.93,-218.9 0,-120.9 98.03,-218.9 218.93,-218.9 z"
     inkscape:connector-curvature="0"
     id="path43"
     style="fill:#ffffff;fill-rule:evenodd;stroke:#000000;stroke-width:4.90399981;stroke-opacity:0.31000001" />
  <text
     style="font-size:129.22999573px;line-height:125%;letter-spacing:0;word-spacing:0;font-family:Gentium Book Basic"
     id="text45"
     y="231.35997"
     x="729.64001"
     sodipodi:linespacing="125%">
    <tspan
       id="tspan47"
       y="231.35997"
       x="729.64001" />
  </text>
  <text
     style="font-size:46.95375824px;text-anchor:middle;font-family:Arial"
     id="text49"
     transform="scale(4.0128205,0.24920128)"
     y="579.25812"
     x="378.90805" />
  <text
     style="font-size:129.22999573px;line-height:125%;letter-spacing:0;word-spacing:0;font-family:Gentium Book Basic"
     id="text51"
     y="151.35997"
     x="1310.91"
     sodipodi:linespacing="125%">
    <tspan
       id="tspan53"
       y="151.35997"
       x="1310.91" />
  </text>
  <text
     style="font-size:46.95375824px;text-anchor:middle;font-family:Arial"
     id="text55"
     transform="scale(4.0128205,0.24920128)"
     y="258.21997"
     x="523.75732" />
  <text
     style="font-size:129.22999573px;line-height:125%;letter-spacing:0;word-spacing:0;font-family:Gentium Book Basic"
     id="text57"
     y="-29.900009"
     x="239.33"
     sodipodi:linespacing="125%">
    <tspan
       id="tspan59"
       y="-29.900009"
       x="239.33" />
  </text>
  <text
     style="font-size:46.95375824px;text-anchor:middle;font-family:Arial"
     id="text61"
     transform="scale(4.0128205,0.24920128)"
     y="-469.1264"
     x="256.71869" />
  <text
     style="font-size:129.22999573px;line-height:125%;letter-spacing:0;word-spacing:0;font-family:Gentium Book Basic"
     id="text63"
     y="-246.37001"
     x="1337.38"
     sodipodi:linespacing="125%">
    <tspan
       id="tspan65"
       y="-246.37001"
       x="1337.38" />
  </text>
  <text
     style="font-size:46.95375824px;text-anchor:middle;font-family:Arial"
     id="text67"
     transform="scale(4.0128205,0.24920128)"
     y="-1337.802"
     x="530.3573" />
  <text
     style="font-size:129.22999573px;line-height:125%;letter-spacing:0;word-spacing:0;font-family:Gentium Book Basic"
     id="text69"
     y="-326.37"
     x="1918.65"
     sodipodi:linespacing="125%">
    <tspan
       id="tspan71"
       y="-326.37"
       x="1918.65" />
  </text>
  <text
     style="font-size:46.95375824px;text-anchor:middle;font-family:Arial"
     id="text73"
     transform="scale(4.0128205,0.24920128)"
     y="-1658.8303"
     x="675.20654" />
  <text
     style="font-size:129.22999573px;line-height:125%;letter-spacing:0;word-spacing:0;font-family:Gentium Book Basic"
     id="text75"
     y="-798.77002"
     x="1529.53"
     sodipodi:linespacing="125%">
    <tspan
       id="tspan77"
       y="-798.77002"
       x="1529.53" />
  </text>
  <text
     style="font-size:46.95375824px;text-anchor:middle;font-family:Arial"
     id="text79"
     transform="scale(4.0128205,0.24920128)"
     y="-3554.4807"
     x="578.237" />
  <text
     style="font-size:129.22999573px;line-height:125%;letter-spacing:0;word-spacing:0;font-family:Gentium Book Basic"
     id="text81"
     y="-878.78003"
     x="2110.79"
     sodipodi:linespacing="125%">
    <tspan
       id="tspan83"
       y="-878.78003"
       x="2110.79" />
  </text>
  <text
     style="font-size:46.95375824px;text-anchor:middle;font-family:Arial"
     id="text85"
     transform="scale(4.0128205,0.24920128)"
     y="-3875.519"
     x="723.0863" />
  <text
     style="font-size:208.33000183px;line-height:125%;letter-spacing:0;word-spacing:0;font-family:Gentium Book Basic"
     id="text87"
     y="535.94006"
     x="277.98999"
     sodipodi:linespacing="125%">
    <tspan
       id="tspan89"
       y="535.94006"
       x="277.98999" />
  </text>
  <g
     style="fill:#000000;opacity:0.25"
     id="g67363"
     clip-path="url(#clipPath67588)">
    <path
       inkscape:connector-curvature="0"
       d="m 236.39062,125.0625 -120.71874,22.625 353.55339,353.55339 120.71874,-22.625 z"
       id="path67365"
       style="fill:#000000" />
    <path
       inkscape:connector-curvature="0"
       d="m 115.67188,147.6875 26.62499,27.125 353.55339,353.55339 -26.62499,-27.125 z"
       id="path67367"
       style="fill:#000000" />
    <path
       inkscape:connector-curvature="0"
       d="m 142.29687,174.8125 -0.0625,0.0625 353.55339,353.55339 0.0625,-0.0625 z"
       id="path67369"
       style="fill:#000000" />
    <path
       inkscape:connector-curvature="0"
       d="m 142.23437,174.875 -0.0312,0.0312 353.55339,353.55339 0.0312,-0.0312 z"
       id="path67371"
       style="fill:#000000" />
    <path
       inkscape:connector-curvature="0"
       d="m 142.20317,174.9062 c -32.04089,34.19369 -38.35981,82.59629 -27.68749,124.46875 l 353.55339,353.55339 c -10.67232,-41.87246 -4.3534,-90.27506 27.68749,-124.46875 z"
       id="path67373"
       style="fill:#000000" />
    <path
       inkscape:connector-curvature="0"
       d="m 114.51568,299.37495 c 6.14825,24.09448 17.96531,46.17732 33.9744,62.18641 l 353.55339,353.55339 c -16.00909,-16.00909 -27.82615,-38.09193 -33.9744,-62.18641 z"
       id="path67375"
       style="fill:#000000" />
    <path
       inkscape:connector-curvature="0"
       d="m 148.49008,361.56136 c 11.80237,11.80238 25.88315,20.30362 41.65059,23.87609 l 353.55339,353.55339 c -15.76744,-3.57247 -29.84822,-12.07371 -41.65059,-23.87609 z"
       id="path67377"
       style="fill:#000000" />
    <path
       inkscape:connector-curvature="0"
       d="m 190.14067,385.43745 c 0.01,0.002 0.0214,-0.002 0.0312,0 l 353.55339,353.55339 c -0.01,-0.002 -0.0212,0.002 -0.0312,0 z"
       id="path67379"
       style="fill:#000000" />
    <path
       inkscape:connector-curvature="0"
       d="m 190.17187,385.43745 5.1875,1.1875 353.55339,353.55339 -5.1875,-1.1875 z"
       id="path67381"
       style="fill:#000000" />
    <path
       inkscape:connector-curvature="0"
       d="m 195.35937,386.62495 1.375,0.3125 353.55339,353.55339 -1.375,-0.3125 z"
       id="path67383"
       style="fill:#000000" />
    <path
       inkscape:connector-curvature="0"
       d="m 196.73437,386.93745 -0.875,-1.125 353.55339,353.55339 0.875,1.125 z"
       id="path67385"
       style="fill:#000000" />
    <path
       inkscape:connector-curvature="0"
       d="m 195.85937,385.81245 -3.3125,-4.25 353.55339,353.55339 3.3125,4.25 z"
       id="path67387"
       style="fill:#000000" />
    <path
       inkscape:connector-curvature="0"
       d="m 192.54687,381.56245 c -42.18685,-54.09458 -46.91512,-124.61323 -8.46875,-164.2812 l 353.55339,353.55339 c -38.44637,39.66797 -33.7181,110.18662 8.46875,164.2812 z"
       id="path67389"
       style="fill:#000000" />
    <path
       inkscape:connector-curvature="0"
       d="m 184.07812,217.28125 28.28125,28.8125 353.55339,353.55339 -28.28125,-28.8125 z"
       id="path67391"
       style="fill:#000000" />
    <path
       inkscape:connector-curvature="0"
       d="M 212.35937,246.09375 236.39062,125.0625 589.94401,478.61589 565.91276,599.64714 z"
       id="path67393"
       style="fill:#000000" />
    <path
       inkscape:connector-curvature="0"
       d="m 315.26562,125.0625 0.875,1.125 353.55339,353.55339 -0.875,-1.125 z"
       id="path67395"
       style="fill:#000000" />
    <path
       inkscape:connector-curvature="0"
       d="m 316.14062,126.1875 3.3125,4.21875 353.55339,353.55339 -3.3125,-4.21875 z"
       id="path67397"
       style="fill:#000000" />
    <path
       inkscape:connector-curvature="0"
       d="m 319.45312,130.40625 c 42.1869,54.09464 46.91512,124.61329 8.46875,164.28125 l 353.55339,353.55339 c 38.44637,-39.66796 33.71815,-110.18661 -8.46875,-164.28125 z"
       id="path67399"
       style="fill:#000000" />
    <path
       inkscape:connector-curvature="0"
       d="m 327.92187,294.6875 -28.28125,-28.8125 353.55339,353.55339 28.28125,28.8125 z"
       id="path67401"
       style="fill:#000000" />
    <path
       inkscape:connector-curvature="0"
       d="m 299.64062,265.875 -24.03125,121.0625 353.55339,353.55339 24.03125,-121.0625 z"
       id="path67403"
       style="fill:#000000" />
    <path
       inkscape:connector-curvature="0"
       d="M 275.60937,386.9375 396.32812,364.28125 749.88151,717.83464 629.16276,740.49089 z"
       id="path67405"
       style="fill:#000000" />
    <path
       inkscape:connector-curvature="0"
       d="m 396.32812,364.28125 -26.625,-27.125 353.55339,353.55339 26.625,27.125 z"
       id="path67407"
       style="fill:#000000" />
    <path
       inkscape:connector-curvature="0"
       d="m 369.70312,337.15625 0.0625,-0.0625 353.55339,353.55339 -0.0625,0.0625 z"
       id="path67409"
       style="fill:#000000" />
    <path
       inkscape:connector-curvature="0"
       d="m 369.76562,337.09375 0.0312,0 353.55339,353.55339 -0.0312,0 z"
       id="path67411"
       style="fill:#000000" />
    <path
       inkscape:connector-curvature="0"
       d="m 369.79682,337.09375 c 32.04089,-34.19368 38.35983,-82.59628 27.6875,-124.46875 l 353.55339,353.55339 c 10.67233,41.87247 4.35339,90.27507 -27.6875,124.46875 z"
       id="path67413"
       style="fill:#000000" />
    <path
       inkscape:connector-curvature="0"
       d="m 397.48432,212.625 c -6.14825,-24.09448 -17.96531,-46.17731 -33.9744,-62.1864 l 353.5534,353.55339 c 16.00908,16.00909 27.82614,38.09192 33.97439,62.1864 z"
       id="path67415"
       style="fill:#000000" />
    <path
       inkscape:connector-curvature="0"
       d="m 363.50992,150.4386 c -11.80237,-11.80238 -25.88315,-20.30363 -41.6506,-23.8761 l 353.55339,353.55339 c 15.76745,3.57247 29.84823,12.07372 41.65061,23.8761 z"
       id="path67417"
       style="fill:#000000" />
    <path
       inkscape:connector-curvature="0"
       d="m 321.85932,126.5625 c -0.01,-0.002 -0.0215,0.002 -0.0312,0 l 353.55339,353.55339 c 0.01,0.002 0.0212,-0.002 0.0312,0 z"
       id="path67419"
       style="fill:#000000" />
    <path
       inkscape:connector-curvature="0"
       d="m 321.82812,126.5625 -5.1875,-1.1875 353.55339,353.55339 5.1875,1.1875 z"
       id="path67421"
       style="fill:#000000" />
    <path
       inkscape:connector-curvature="0"
       d="m 316.64062,125.375 -1.375,-0.3125 353.55339,353.55339 1.375,0.3125 z"
       id="path67423"
       style="fill:#000000" />
  </g>
  <path
     style="fill:#ffffff"
     d="m 236.39062,125.0625 -120.71874,22.625 26.62499,27.125 -0.0625,0.0625 -0.0312,0.0312 c -32.04089,34.19369 -38.35981,82.59629 -27.68749,124.46875 10.68092,41.85765 38.47012,77.64423 75.62499,86.0625 0.01,0.002 0.0214,-0.002 0.0312,0 l 5.1875,1.1875 1.375,0.3125 -0.875,-1.125 -3.3125,-4.25 c -42.18685,-54.09458 -46.91512,-124.61323 -8.46875,-164.2812 l 28.28125,28.8125 24.03125,-121.03125 z m 78.875,0 0.875,1.125 3.3125,4.21875 c 42.1869,54.09464 46.91512,124.61329 8.46875,164.28125 l -28.28125,-28.8125 -24.03125,121.0625 120.71875,-22.65625 -26.625,-27.125 0.0625,-0.0625 0.0312,0 c 32.04089,-34.19368 38.35983,-82.59628 27.6875,-124.46875 -10.68092,-41.85764 -38.47012,-77.64422 -75.625,-86.0625 -0.01,-0.002 -0.0215,0.002 -0.0312,0 l -5.1875,-1.1875 -1.375,-0.3125 z"
     id="path67245"
     inkscape:connector-curvature="0" />
</svg>
