<svg xmlns="http://www.w3.org/2000/svg" viewBox="0 0 512 512"><g fill-rule="evenodd"><path fill="#369" d="m471.95 253.05c0 120.9-98.01 218.91-218.91 218.91s-218.91-98.01-218.91-218.91 98.01-218.91 218.91-218.91 218.91 98.01 218.91 218.91"/><path fill-opacity=".067" d="m256 1c-140.83 0-255 114.17-255 255s114.17 255 255 255 255-114.17 255-255-114.17-255-255-255m8.827 44.931c120.9 0 218.9 98 218.9 218.9s-98 218.9-218.9 218.9-218.93-98-218.93-218.9 98.03-218.9 218.93-218.9"/><g fill-opacity=".129"><path d="m256 4.43c-138.94 0-251.57 112.63-251.57 251.57s112.63 251.57 251.57 251.57 251.57-112.63 251.57-251.57-112.63-251.57-251.57-251.57m5.885 38.556c120.9 0 218.9 98 218.9 218.9s-98 218.9-218.9 218.9-218.93-98-218.93-218.9 98.03-218.9 218.93-218.9"/><path d="m256 8.36c-136.77 0-247.64 110.87-247.64 247.64s110.87 247.64 247.64 247.64 247.64-110.87 247.64-247.64-110.87-247.64-247.64-247.64m2.942 31.691c120.9 0 218.9 98 218.9 218.9s-98 218.9-218.9 218.9-218.93-98-218.93-218.9 98.03-218.9 218.93-218.9"/></g><path fill="#fff" stroke="#000" stroke-opacity=".31" stroke-width="4.904" d="m253.04 7.86c-135.42 0-245.19 109.78-245.19 245.19 0 135.42 109.78 245.19 245.19 245.19 135.42 0 245.19-109.78 245.19-245.19 0-135.42-109.78-245.19-245.19-245.19m0 26.297c120.9 0 218.9 98 218.9 218.9s-98 218.9-218.9 218.9-218.93-98-218.93-218.9 98.03-218.9 218.93-218.9z"/></g><path d="m255.99 117.01l0.002 0.002c-65.39 0.168-118.35 165.84-118.35 239.29 0 4.086 0.179 8.262 0.482 12.27l103.07 103.07c3.924 0.209 7.875 0.322 11.852 0.322 102.39 0 188.35-70.3 212.27-165.26l-170.05-170.05c-12.257-12.257-25.437-19.595-39.17-19.633l-0.004-0.004c-0.021 0-0.042 0.002-0.063 0.002-0.013 0-0.026-0.002-0.039-0.002" opacity=".25"/><path fill="#fff" d="m256.09 117.01c-65.43 0-118.45 165.81-118.45 239.29 0 4.086 0.18 8.262 0.484 12.27 13.283-7.823 28.4-12.36 44.45-12.36 29.548 0 55.934 15.13 73.47 38.779 17.549-23.695 43.923-38.779 73.47-38.779 16.05 0 31.14 4.48 44.36 12.315 0.304-3.996 0.484-8.093 0.484-12.18 0-73.56-52.984-239.34-118.37-239.34"/></svg>