<svg xmlns="http://www.w3.org/2000/svg" viewBox="0 0 512 512"><defs><linearGradient id="0" gradientUnits="userSpaceOnUse" x1="-87.06" y1="460.15" x2="513.37" y2="114.99"><stop style="stop-color:#b9673d"/><stop offset="1" style="stop-color:#cd1d31"/></linearGradient><radialGradient gradientUnits="userSpaceOnUse" cx="64" cy="64" r="64" gradientTransform="matrix(4.16583 0 0 3.88749 660.12-262.53)"><stop style="stop-color:#fff"/><stop offset=".688" style="stop-color:#e8e8e8"/><stop offset=".875" style="stop-color:#686868"/><stop offset="1"/></radialGradient></defs><text x="729.64" y="231.36" line-height="125%" style="letter-spacing:0;word-spacing:0;font-size:129.23;font-family:&apos;Gentium Book Basic&apos;"><tspan x="729.64" y="231.36"/></text><text x="378.91" y="579.26" transform="scale(4.0128.2492)" style="font-size:46.954;font-family:Arial;text-anchor:middle"/><text x="1310.91" y="151.36" line-height="125%" style="letter-spacing:0;word-spacing:0;font-size:129.23;font-family:&apos;Gentium Book Basic&apos;"><tspan x="1310.91" y="151.36"/></text><text x="523.76" y="258.22" transform="scale(4.0128.2492)" style="font-size:46.954;font-family:Arial;text-anchor:middle"/><text x="239.33" y="-29.9" line-height="125%" style="letter-spacing:0;word-spacing:0;font-size:129.23;font-family:&apos;Gentium Book Basic&apos;"><tspan x="239.33" y="-29.9"/></text><text x="256.72" y="-469.13" transform="scale(4.0128.2492)" style="font-size:46.954;font-family:Arial;text-anchor:middle"/><text x="1337.38" y="-246.37" line-height="125%" style="letter-spacing:0;word-spacing:0;font-size:129.23;font-family:&apos;Gentium Book Basic&apos;"><tspan x="1337.38" y="-246.37"/></text><text x="530.36" y="-1337.8" transform="scale(4.0128.2492)" style="font-size:46.954;font-family:Arial;text-anchor:middle"/><text x="1918.65" y="-326.37" line-height="125%" style="letter-spacing:0;word-spacing:0;font-size:129.23;font-family:&apos;Gentium Book Basic&apos;"><tspan x="1918.65" y="-326.37"/></text><text x="675.21" y="-1658.83" transform="scale(4.0128.2492)" style="font-size:46.954;font-family:Arial;text-anchor:middle"/><text x="1529.53" y="-798.77" line-height="125%" style="letter-spacing:0;word-spacing:0;font-size:129.23;font-family:&apos;Gentium Book Basic&apos;"><tspan x="1529.53" y="-798.77"/></text><text x="578.24" y="-3554.48" transform="scale(4.0128.2492)" style="font-size:46.954;font-family:Arial;text-anchor:middle"/><text x="2110.79" y="-878.78" line-height="125%" style="letter-spacing:0;word-spacing:0;font-size:129.23;font-family:&apos;Gentium Book Basic&apos;"><tspan x="2110.79" y="-878.78"/></text><text x="723.09" y="-3875.52" transform="scale(4.0128.2492)" style="font-size:46.954;font-family:Arial;text-anchor:middle"/><g line-height="125%" style="letter-spacing:0;word-spacing:0;font-family:&apos;Gentium Book Basic&apos;"><text x="277.99" y="535.94" style="font-size:208.33"><tspan x="277.99" y="535.94"/></text><text x="729.64" y="231.36" style="font-size:129.23"><tspan x="729.64" y="231.36"/></text></g><text x="378.91" y="579.26" transform="scale(4.0128.2492)" style="font-size:46.954;font-family:Arial;text-anchor:middle"/><text x="1310.91" y="151.36" line-height="125%" style="letter-spacing:0;word-spacing:0;font-size:129.23;font-family:&apos;Gentium Book Basic&apos;"><tspan x="1310.91" y="151.36"/></text><text x="523.76" y="258.22" transform="scale(4.0128.2492)" style="font-size:46.954;font-family:Arial;text-anchor:middle"/><text x="239.33" y="-29.9" line-height="125%" style="letter-spacing:0;word-spacing:0;font-size:129.23;font-family:&apos;Gentium Book Basic&apos;"><tspan x="239.33" y="-29.9"/></text><text x="256.72" y="-469.13" transform="scale(4.0128.2492)" style="font-size:46.954;font-family:Arial;text-anchor:middle"/><text x="1337.38" y="-246.37" line-height="125%" style="letter-spacing:0;word-spacing:0;font-size:129.23;font-family:&apos;Gentium Book Basic&apos;"><tspan x="1337.38" y="-246.37"/></text><text x="530.36" y="-1337.79" transform="scale(4.0128.2492)" style="font-size:46.954;font-family:Arial;text-anchor:middle"/><text x="1918.65" y="-326.37" line-height="125%" style="letter-spacing:0;word-spacing:0;font-size:129.23;font-family:&apos;Gentium Book Basic&apos;"><tspan x="1918.65" y="-326.37"/></text><text x="675.21" y="-1658.82" transform="scale(4.0128.2492)" style="font-size:46.954;font-family:Arial;text-anchor:middle"/><text x="1529.53" y="-798.77" line-height="125%" style="letter-spacing:0;word-spacing:0;font-size:129.23;font-family:&apos;Gentium Book Basic&apos;"><tspan x="1529.53" y="-798.77"/></text><text x="578.24" y="-3554.46" transform="scale(4.0128.2492)" style="font-size:46.954;font-family:Arial;text-anchor:middle"/><text x="2110.79" y="-878.78" line-height="125%" style="letter-spacing:0;word-spacing:0;font-size:129.23;font-family:&apos;Gentium Book Basic&apos;"><tspan x="2110.79" y="-878.78"/></text><text x="723.09" y="-3875.5" transform="scale(4.0128.2492)" style="font-size:46.954;font-family:Arial;text-anchor:middle"/><g line-height="125%" style="letter-spacing:0;word-spacing:0;font-family:&apos;Gentium Book Basic&apos;"><text x="277.99" y="535.94" style="font-size:208.33"><tspan x="277.99" y="535.94"/></text><text x="729.64" y="231.36" style="font-size:129.23"><tspan x="729.64" y="231.36"/></text></g><text x="378.91" y="579.26" transform="scale(4.0128.2492)" style="font-size:46.954;font-family:Arial;text-anchor:middle"/><text x="1310.91" y="151.36" line-height="125%" style="letter-spacing:0;word-spacing:0;font-size:129.23;font-family:&apos;Gentium Book Basic&apos;"><tspan x="1310.91" y="151.36"/></text><text x="523.76" y="258.22" transform="scale(4.0128.2492)" style="font-size:46.954;font-family:Arial;text-anchor:middle"/><text x="239.33" y="-29.9" line-height="125%" style="letter-spacing:0;word-spacing:0;font-size:129.23;font-family:&apos;Gentium Book Basic&apos;"><tspan x="239.33" y="-29.9"/></text><text x="256.72" y="-469.13" transform="scale(4.0128.2492)" style="font-size:46.954;font-family:Arial;text-anchor:middle"/><text x="1337.38" y="-246.37" line-height="125%" style="letter-spacing:0;word-spacing:0;font-size:129.23;font-family:&apos;Gentium Book Basic&apos;"><tspan x="1337.38" y="-246.37"/></text><text x="530.36" y="-1337.8" transform="scale(4.0128.2492)" style="font-size:46.954;font-family:Arial;text-anchor:middle"/><text x="1918.65" y="-326.37" line-height="125%" style="letter-spacing:0;word-spacing:0;font-size:129.23;font-family:&apos;Gentium Book Basic&apos;"><tspan x="1918.65" y="-326.37"/></text><text x="675.21" y="-1658.83" transform="scale(4.0128.2492)" style="font-size:46.954;font-family:Arial;text-anchor:middle"/><text x="1529.53" y="-798.77" line-height="125%" style="letter-spacing:0;word-spacing:0;font-size:129.23;font-family:&apos;Gentium Book Basic&apos;"><tspan x="1529.53" y="-798.77"/></text><text x="578.24" y="-3554.48" transform="scale(4.0128.2492)" style="font-size:46.954;font-family:Arial;text-anchor:middle"/><text x="2110.79" y="-878.78" line-height="125%" style="letter-spacing:0;word-spacing:0;font-size:129.23;font-family:&apos;Gentium Book Basic&apos;"><tspan x="2110.79" y="-878.78"/></text><text x="723.09" y="-3875.52" transform="scale(4.0128.2492)" style="font-size:46.954;font-family:Arial;text-anchor:middle"/><g line-height="125%" style="letter-spacing:0;word-spacing:0;font-family:&apos;Gentium Book Basic&apos;"><text x="277.99" y="535.94" style="font-size:208.33"><tspan x="277.99" y="535.94"/></text><text x="729.64" y="231.36" style="font-size:129.23"><tspan x="729.64" y="231.36"/></text></g><text x="378.91" y="579.26" transform="scale(4.0128.2492)" style="font-size:46.954;font-family:Arial;text-anchor:middle"/><text line-height="125%" x="1310.91" y="151.36" style="letter-spacing:0;word-spacing:0;font-size:129.23;font-family:&apos;Gentium Book Basic&apos;"><tspan x="1310.91" y="151.36"/></text><text x="523.76" y="258.22" transform="scale(4.0128.2492)" style="font-size:46.954;font-family:Arial;text-anchor:middle"/><text line-height="125%" x="239.33" y="-29.9" style="letter-spacing:0;word-spacing:0;font-size:129.23;font-family:&apos;Gentium Book Basic&apos;"><tspan x="239.33" y="-29.9"/></text><text x="256.72" y="-469.13" transform="scale(4.0128.2492)" style="font-size:46.954;font-family:Arial;text-anchor:middle"/><text line-height="125%" x="1337.38" y="-246.37" style="letter-spacing:0;word-spacing:0;font-size:129.23;font-family:&apos;Gentium Book Basic&apos;"><tspan x="1337.38" y="-246.37"/></text><text x="530.36" y="-1337.8" transform="scale(4.0128.2492)" style="font-size:46.954;font-family:Arial;text-anchor:middle"/><text line-height="125%" x="1918.65" y="-326.37" style="letter-spacing:0;word-spacing:0;font-size:129.23;font-family:&apos;Gentium Book Basic&apos;"><tspan x="1918.65" y="-326.37"/></text><text x="675.21" y="-1658.83" transform="scale(4.0128.2492)" style="font-size:46.954;font-family:Arial;text-anchor:middle"/><text line-height="125%" x="1529.53" y="-798.77" style="letter-spacing:0;word-spacing:0;font-size:129.23;font-family:&apos;Gentium Book Basic&apos;"><tspan x="1529.53" y="-798.77"/></text><text x="578.24" y="-3554.48" transform="scale(4.0128.2492)" style="font-size:46.954;font-family:Arial;text-anchor:middle"/><text line-height="125%" x="2110.79" y="-878.78" style="letter-spacing:0;word-spacing:0;font-size:129.23;font-family:&apos;Gentium Book Basic&apos;"><tspan x="2110.79" y="-878.78"/></text><text x="723.09" y="-3875.52" transform="scale(4.0128.2492)" style="font-size:46.954;font-family:Arial;text-anchor:middle"/><g line-height="125%" style="letter-spacing:0;word-spacing:0;font-family:&apos;Gentium Book Basic&apos;"><text x="277.99" y="535.94" style="font-size:208.33"><tspan x="277.99" y="535.94"/></text><text x="729.64" y="231.36" style="font-size:129.23"><tspan x="729.64" y="231.36"/></text></g><text x="378.91" y="579.26" transform="scale(4.0128.2492)" style="font-size:46.954;font-family:Arial;text-anchor:middle"/><text line-height="125%" x="1310.91" y="151.36" style="letter-spacing:0;word-spacing:0;font-size:129.23;font-family:&apos;Gentium Book Basic&apos;"><tspan x="1310.91" y="151.36"/></text><text x="523.76" y="258.22" transform="scale(4.0128.2492)" style="font-size:46.954;font-family:Arial;text-anchor:middle"/><text line-height="125%" x="239.33" y="-29.9" style="letter-spacing:0;word-spacing:0;font-size:129.23;font-family:&apos;Gentium Book Basic&apos;"><tspan x="239.33" y="-29.9"/></text><text x="256.72" y="-469.13" transform="scale(4.0128.2492)" style="font-size:46.954;font-family:Arial;text-anchor:middle"/><text line-height="125%" x="1337.38" y="-246.37" style="letter-spacing:0;word-spacing:0;font-size:129.23;font-family:&apos;Gentium Book Basic&apos;"><tspan x="1337.38" y="-246.37"/></text><text x="530.36" y="-1337.8" transform="scale(4.0128.2492)" style="font-size:46.954;font-family:Arial;text-anchor:middle"/><text line-height="125%" x="1918.65" y="-326.37" style="letter-spacing:0;word-spacing:0;font-size:129.23;font-family:&apos;Gentium Book Basic&apos;"><tspan x="1918.65" y="-326.37"/></text><text x="675.21" y="-1658.83" transform="scale(4.0128.2492)" style="font-size:46.954;font-family:Arial;text-anchor:middle"/><text line-height="125%" x="1529.53" y="-798.77" style="letter-spacing:0;word-spacing:0;font-size:129.23;font-family:&apos;Gentium Book Basic&apos;"><tspan x="1529.53" y="-798.77"/></text><text x="578.24" y="-3554.48" transform="scale(4.0128.2492)" style="font-size:46.954;font-family:Arial;text-anchor:middle"/><text line-height="125%" x="2110.79" y="-878.78" style="letter-spacing:0;word-spacing:0;font-size:129.23;font-family:&apos;Gentium Book Basic&apos;"><tspan x="2110.79" y="-878.78"/></text><text x="723.09" y="-3875.52" transform="scale(4.0128.2492)" style="font-size:46.954;font-family:Arial;text-anchor:middle"/><text line-height="125%" x="277.99" y="535.94" style="letter-spacing:0;word-spacing:0;font-size:208.33;font-family:&apos;Gentium Book Basic&apos;"><tspan x="277.99" y="535.94"/></text><g style="fill-rule:evenodd"><path d="m470.41 253.05c0 120.9-98.01 218.91-218.91 218.91-120.9 0-218.91-98.01-218.91-218.91 0-120.9 98.01-218.91 218.91-218.91 120.9 0 218.91 98.01 218.91 218.91" style="fill:url(#0)"/><path d="m256 1c-140.83 0-255 114.17-255 255 0 140.83 114.17 255 255 255 140.83 0 255-114.17 255-255 0-140.83-114.17-255-255-255m8.827 44.931c120.9 0 218.9 98 218.9 218.9 0 120.9-98 218.9-218.9 218.9-120.9 0-218.93-98-218.93-218.9 0-120.9 98.03-218.9 218.93-218.9" style="fill-opacity:.067"/><g style="fill-opacity:.129"><path d="m256 4.43c-138.94 0-251.57 112.63-251.57 251.57 0 138.94 112.63 251.57 251.57 251.57 138.94 0 251.57-112.63 251.57-251.57 0-138.94-112.63-251.57-251.57-251.57m5.885 38.556c120.9 0 218.9 98 218.9 218.9 0 120.9-98 218.9-218.9 218.9-120.9 0-218.93-98-218.93-218.9 0-120.9 98.03-218.9 218.93-218.9"/><path d="m256 8.36c-136.77 0-247.64 110.87-247.64 247.64 0 136.77 110.87 247.64 247.64 247.64 136.77 0 247.64-110.87 247.64-247.64 0-136.77-110.87-247.64-247.64-247.64m2.942 31.691c120.9 0 218.9 98 218.9 218.9 0 120.9-98 218.9-218.9 218.9-120.9 0-218.93-98-218.93-218.9 0-120.9 98.03-218.9 218.93-218.9"/></g><path d="m253.04 7.86c-135.42 0-245.19 109.78-245.19 245.19 0 135.42 109.78 245.19 245.19 245.19 135.42 0 245.19-109.78 245.19-245.19 0-135.42-109.78-245.19-245.19-245.19m0 26.297c120.9 0 218.9 98 218.9 218.9 0 120.9-98 218.9-218.9 218.9-120.9 0-218.93-98-218.93-218.9 0-120.9 98.03-218.9 218.93-218.9z" style="stroke-opacity:.31;fill:#fff;stroke:#000;stroke-width:4.904"/></g><text line-height="125%" x="729.64" y="231.36" style="letter-spacing:0;word-spacing:0;font-size:129.23;font-family:&apos;Gentium Book Basic&apos;"><tspan x="729.64" y="231.36"/></text><text x="378.91" y="579.26" transform="scale(4.0128.2492)" style="font-size:46.954;font-family:Arial;text-anchor:middle"/><text line-height="125%" x="1310.91" y="151.36" style="letter-spacing:0;word-spacing:0;font-size:129.23;font-family:&apos;Gentium Book Basic&apos;"><tspan x="1310.91" y="151.36"/></text><text x="523.76" y="258.22" transform="scale(4.0128.2492)" style="font-size:46.954;font-family:Arial;text-anchor:middle"/><text line-height="125%" x="239.33" y="-29.9" style="letter-spacing:0;word-spacing:0;font-size:129.23;font-family:&apos;Gentium Book Basic&apos;"><tspan x="239.33" y="-29.9"/></text><text x="256.72" y="-469.13" transform="scale(4.0128.2492)" style="font-size:46.954;font-family:Arial;text-anchor:middle"/><text line-height="125%" x="1337.38" y="-246.37" style="letter-spacing:0;word-spacing:0;font-size:129.23;font-family:&apos;Gentium Book Basic&apos;"><tspan x="1337.38" y="-246.37"/></text><text x="530.36" y="-1337.8" transform="scale(4.0128.2492)" style="font-size:46.954;font-family:Arial;text-anchor:middle"/><text line-height="125%" x="1918.65" y="-326.37" style="letter-spacing:0;word-spacing:0;font-size:129.23;font-family:&apos;Gentium Book Basic&apos;"><tspan x="1918.65" y="-326.37"/></text><text x="675.21" y="-1658.83" transform="scale(4.0128.2492)" style="font-size:46.954;font-family:Arial;text-anchor:middle"/><text line-height="125%" x="1529.53" y="-798.77" style="letter-spacing:0;word-spacing:0;font-size:129.23;font-family:&apos;Gentium Book Basic&apos;"><tspan x="1529.53" y="-798.77"/></text><text x="578.24" y="-3554.48" transform="scale(4.0128.2492)" style="font-size:46.954;font-family:Arial;text-anchor:middle"/><text line-height="125%" x="2110.79" y="-878.78" style="letter-spacing:0;word-spacing:0;font-size:129.23;font-family:&apos;Gentium Book Basic&apos;"><tspan x="2110.79" y="-878.78"/></text><text x="723.09" y="-3875.52" transform="scale(4.0128.2492)" style="font-size:46.954;font-family:Arial;text-anchor:middle"/><g line-height="125%" style="letter-spacing:0;word-spacing:0;font-family:&apos;Gentium Book Basic&apos;"><text x="277.99" y="535.94" style="font-size:208.33"><tspan x="277.99" y="535.94"/></text><text y="282.62" x="1579.63" style="font-size:129.23"><tspan y="282.62" x="1579.63"/></text></g><text transform="scale(4.0128.2492)" y="784.96" x="590.73" style="font-size:46.954;font-family:Arial;text-anchor:middle"/><text y="202.62" x="2160.9" line-height="125%" style="letter-spacing:0;word-spacing:0;font-size:129.23;font-family:&apos;Gentium Book Basic&apos;"><tspan y="202.62" x="2160.9"/></text><text transform="scale(4.0128.2492)" y="463.92" x="735.58" style="font-size:46.954;font-family:Arial;text-anchor:middle"/><text y="21.362" x="1089.32" line-height="125%" style="letter-spacing:0;word-spacing:0;font-size:129.23;font-family:&apos;Gentium Book Basic&apos;"><tspan y="21.362" x="1089.32"/></text><text transform="scale(4.0128.2492)" y="-263.42" x="468.54" style="font-size:46.954;font-family:Arial;text-anchor:middle"/><text y="-195.11" x="2187.37" line-height="125%" style="letter-spacing:0;word-spacing:0;font-size:129.23;font-family:&apos;Gentium Book Basic&apos;"><tspan y="-195.11" x="2187.37"/></text><text transform="scale(4.0128.2492)" y="-1132.09" x="742.18" style="font-size:46.954;font-family:Arial;text-anchor:middle"/><text y="-275.12" x="2768.64" line-height="125%" style="letter-spacing:0;word-spacing:0;font-size:129.23;font-family:&apos;Gentium Book Basic&apos;"><tspan y="-275.12" x="2768.64"/></text><text transform="scale(4.0128.2492)" y="-1453.12" x="887.03" style="font-size:46.954;font-family:Arial;text-anchor:middle"/><text y="-747.52" x="2379.52" line-height="125%" style="letter-spacing:0;word-spacing:0;font-size:129.23;font-family:&apos;Gentium Book Basic&apos;"><tspan y="-747.52" x="2379.52"/></text><text transform="scale(4.0128.2492)" y="-3348.76" x="790.06" style="font-size:46.954;font-family:Arial;text-anchor:middle"/><text y="-827.52" x="2960.79" line-height="125%" style="letter-spacing:0;word-spacing:0;font-size:129.23;font-family:&apos;Gentium Book Basic&apos;"><tspan y="-827.52" x="2960.79"/></text><text transform="scale(4.0128.2492)" y="-3669.79" x="934.91" style="font-size:46.954;font-family:Arial;text-anchor:middle"/><g line-height="125%" style="letter-spacing:0;word-spacing:0;font-family:&apos;Gentium Book Basic&apos;"><text x="1127.98" y="587.2" style="font-size:208.33"><tspan x="1127.98" y="587.2"/></text><text x="4683.77" y="-460.26" style="font-size:129.23"><tspan x="4683.77" y="-460.26"/></text></g><text transform="scale(4.0128.2492)" y="-2196.05" x="1364.26" style="font-size:46.954;font-family:Arial;text-anchor:middle"/><text y="-540.26" x="5265.04" line-height="125%" style="letter-spacing:0;word-spacing:0;font-size:129.23;font-family:&apos;Gentium Book Basic&apos;"><tspan y="-540.26" x="5265.04"/></text><text transform="scale(4.0128.2492)" y="-2517.07" x="1509.11" style="font-size:46.954;font-family:Arial;text-anchor:middle"/><text y="-721.51" x="4193.46" line-height="125%" style="letter-spacing:0;word-spacing:0;font-size:129.23;font-family:&apos;Gentium Book Basic&apos;"><tspan y="-721.51" x="4193.46"/></text><text transform="scale(4.0128.2492)" y="-3244.43" x="1242.07" style="font-size:46.954;font-family:Arial;text-anchor:middle"/><text y="-937.99" x="5291.51" line-height="125%" style="letter-spacing:0;word-spacing:0;font-size:129.23;font-family:&apos;Gentium Book Basic&apos;"><tspan y="-937.99" x="5291.51"/></text><text transform="scale(4.0128.2492)" y="-4113.09" x="1515.71" style="font-size:46.954;font-family:Arial;text-anchor:middle"/><text y="-1017.99" x="5872.78" line-height="125%" style="letter-spacing:0;word-spacing:0;font-size:129.23;font-family:&apos;Gentium Book Basic&apos;"><tspan y="-1017.99" x="5872.78"/></text><text transform="scale(4.0128.2492)" y="-4434.11" x="1660.56" style="font-size:46.954;font-family:Arial;text-anchor:middle"/><text y="-1490.39" x="5483.66" line-height="125%" style="letter-spacing:0;word-spacing:0;font-size:129.23;font-family:&apos;Gentium Book Basic&apos;"><tspan y="-1490.39" x="5483.66"/></text><text transform="scale(4.0128.2492)" y="-6329.77" x="1563.59" style="font-size:46.954;font-family:Arial;text-anchor:middle"/><text y="-1570.39" x="6064.92" line-height="125%" style="letter-spacing:0;word-spacing:0;font-size:129.23;font-family:&apos;Gentium Book Basic&apos;"><tspan y="-1570.39" x="6064.92"/></text><text transform="scale(4.0128.2492)" y="-6650.79" x="1708.44" style="font-size:46.954;font-family:Arial;text-anchor:middle"/><g line-height="125%" style="letter-spacing:0;word-spacing:0;font-family:&apos;Gentium Book Basic&apos;"><text y="-155.68" x="4232.12" style="font-size:208.33"><tspan y="-155.68" x="4232.12"/></text><text y="189.54" x="940.11" style="font-size:129.23"><tspan y="189.54" x="940.11"/></text></g><text transform="scale(4.0128.2492)" y="411.44" x="431.36" style="font-size:46.954;font-family:Arial;text-anchor:middle"/><text y="109.54" x="1521.38" line-height="125%" style="letter-spacing:0;word-spacing:0;font-size:129.23;font-family:&apos;Gentium Book Basic&apos;"><tspan y="109.54" x="1521.38"/></text><text transform="scale(4.0128.2492)" y="90.43" x="576.21" style="font-size:46.954;font-family:Arial;text-anchor:middle"/><text y="-71.72" x="449.8" line-height="125%" style="letter-spacing:0;word-spacing:0;font-size:129.23;font-family:&apos;Gentium Book Basic&apos;"><tspan y="-71.72" x="449.8"/></text><text transform="scale(4.0128.2492)" y="-636.93" x="309.17" style="font-size:46.954;font-family:Arial;text-anchor:middle"/><text y="-288.19" x="1547.85" line-height="125%" style="letter-spacing:0;word-spacing:0;font-size:129.23;font-family:&apos;Gentium Book Basic&apos;"><tspan y="-288.19" x="1547.85"/></text><text transform="scale(4.0128.2492)" y="-1505.6" x="582.81" style="font-size:46.954;font-family:Arial;text-anchor:middle"/><text y="-368.2" x="2129.12" line-height="125%" style="letter-spacing:0;word-spacing:0;font-size:129.23;font-family:&apos;Gentium Book Basic&apos;"><tspan y="-368.2" x="2129.12"/></text><text transform="scale(4.0128.2492)" y="-1826.62" x="727.66" style="font-size:46.954;font-family:Arial;text-anchor:middle"/><text y="-840.6" x="1740" line-height="125%" style="letter-spacing:0;word-spacing:0;font-size:129.23;font-family:&apos;Gentium Book Basic&apos;"><tspan y="-840.6" x="1740"/></text><text transform="scale(4.0128.2492)" y="-3722.27" x="630.69" style="font-size:46.954;font-family:Arial;text-anchor:middle"/><text y="-920.6" x="2321.26" line-height="125%" style="letter-spacing:0;word-spacing:0;font-size:129.23;font-family:&apos;Gentium Book Basic&apos;"><tspan y="-920.6" x="2321.26"/></text><text transform="scale(4.0128.2492)" y="-4043.29" x="775.54" style="font-size:46.954;font-family:Arial;text-anchor:middle"/><g line-height="125%" style="letter-spacing:0;word-spacing:0;font-size:208.33;font-family:&apos;Gentium Book Basic&apos;"><text x="488.46" y="494.12"><tspan x="488.46" y="494.12"/></text><text x="-1735.37" y="475.16"><tspan x="-1735.37" y="475.16"/></text></g><text transform="scale(4.0128.2492)" y="1343.85" x="-114.73" style="font-size:75.7;font-family:Arial;text-anchor:middle"/><text y="319.53" x="-1029.03" line-height="125%" style="letter-spacing:0;word-spacing:0;font-size:208.33;font-family:&apos;Gentium Book Basic&apos;"><tspan y="319.53" x="-1029.03"/></text><text transform="scale(4.0128.2492)" y="719.32" x="61.29" style="font-size:75.7;font-family:Arial;text-anchor:middle"/><text y="311.41" x="-995.66" line-height="125%" style="letter-spacing:0;word-spacing:0;font-size:208.33;font-family:&apos;Gentium Book Basic&apos;"><tspan y="311.41" x="-995.66"/></text><text transform="scale(4.0128.2492)" y="686.72" x="69.61" style="font-size:75.7;font-family:Arial;text-anchor:middle"/><text y="157" x="154.76" line-height="125%" style="letter-spacing:0;word-spacing:0;font-size:129.23;font-family:&apos;Gentium Book Basic&apos;"><tspan y="157" x="154.76"/></text><text transform="scale(4.0128.2492)" y="280.86" x="235.65" style="font-size:46.954;font-family:Arial;text-anchor:middle"/><text y="77" x="736.02" line-height="125%" style="letter-spacing:0;word-spacing:0;font-size:129.23;font-family:&apos;Gentium Book Basic&apos;"><tspan y="77" x="736.02"/></text><text transform="scale(4.0128.2492)" y="-40.16" x="380.5" style="font-size:46.954;font-family:Arial;text-anchor:middle"/><text y="-104.26" x="-335.56" line-height="125%" style="letter-spacing:0;word-spacing:0;font-size:129.23;font-family:&apos;Gentium Book Basic&apos;"><tspan y="-104.26" x="-335.56"/></text><text transform="scale(4.0128.2492)" y="-767.5" x="113.46" style="font-size:46.954;font-family:Arial;text-anchor:middle"/><text y="-320.73" x="762.49" line-height="125%" style="letter-spacing:0;word-spacing:0;font-size:129.23;font-family:&apos;Gentium Book Basic&apos;"><tspan y="-320.73" x="762.49"/></text><text transform="scale(4.0128.2492)" y="-1636.18" x="387.1" style="font-size:46.954;font-family:Arial;text-anchor:middle"/><text y="-400.73" x="1343.76" line-height="125%" style="letter-spacing:0;word-spacing:0;font-size:129.23;font-family:&apos;Gentium Book Basic&apos;"><tspan y="-400.73" x="1343.76"/></text><text transform="scale(4.0128.2492)" y="-1957.19" x="531.94" style="font-size:46.954;font-family:Arial;text-anchor:middle"/><text y="-873.13" x="954.64" line-height="125%" style="letter-spacing:0;word-spacing:0;font-size:129.23;font-family:&apos;Gentium Book Basic&apos;"><tspan y="-873.13" x="954.64"/></text><text transform="scale(4.0128.2492)" y="-3852.82" x="434.98" style="font-size:46.954;font-family:Arial;text-anchor:middle"/><text y="-953.14" x="1535.9" line-height="125%" style="letter-spacing:0;word-spacing:0;font-size:129.23;font-family:&apos;Gentium Book Basic&apos;"><tspan y="-953.14" x="1535.9"/></text><text transform="scale(4.0128.2492)" y="-4173.86" x="579.82" style="font-size:46.954;font-family:Arial;text-anchor:middle"/><g line-height="125%" style="letter-spacing:0;word-spacing:0;font-family:&apos;Gentium Book Basic&apos;"><text x="-296.9" y="461.58" style="font-size:208.33"><tspan x="-296.9" y="461.58"/></text><text x="104.31" y="-582.01" style="font-size:129.23"><tspan x="104.31" y="-582.01"/></text></g><text transform="scale(4.0128.2492)" y="-2684.62" x="223.08" style="font-size:46.954;font-family:Arial;text-anchor:middle"/><text y="-662.01" x="685.58" line-height="125%" style="letter-spacing:0;word-spacing:0;font-size:129.23;font-family:&apos;Gentium Book Basic&apos;"><tspan y="-662.01" x="685.58"/></text><text transform="scale(4.0128.2492)" y="-3005.65" x="367.93" style="font-size:46.954;font-family:Arial;text-anchor:middle"/><text y="-843.27" x="-386" line-height="125%" style="letter-spacing:0;word-spacing:0;font-size:129.23;font-family:&apos;Gentium Book Basic&apos;"><tspan y="-843.27" x="-386"/></text><text transform="scale(4.0128.2492)" y="-3733" x="100.89" style="font-size:46.954;font-family:Arial;text-anchor:middle"/><text y="-1059.74" x="712.05" line-height="125%" style="letter-spacing:0;word-spacing:0;font-size:129.23;font-family:&apos;Gentium Book Basic&apos;"><tspan y="-1059.74" x="712.05"/></text><text transform="scale(4.0128.2492)" y="-4601.65" x="374.53" style="font-size:46.954;font-family:Arial;text-anchor:middle"/><text y="-1139.75" x="1293.31" line-height="125%" style="letter-spacing:0;word-spacing:0;font-size:129.23;font-family:&apos;Gentium Book Basic&apos;"><tspan y="-1139.75" x="1293.31"/></text><text transform="scale(4.0128.2492)" y="-4922.69" x="519.37" style="font-size:46.954;font-family:Arial;text-anchor:middle"/><text y="-1612.15" x="904.19" line-height="125%" style="letter-spacing:0;word-spacing:0;font-size:129.23;font-family:&apos;Gentium Book Basic&apos;"><tspan y="-1612.15" x="904.19"/></text><text transform="scale(4.0128.2492)" y="-6818.32" x="422.41" style="font-size:46.954;font-family:Arial;text-anchor:middle"/><text y="-1692.15" x="1485.46" line-height="125%" style="letter-spacing:0;word-spacing:0;font-size:129.23;font-family:&apos;Gentium Book Basic&apos;"><tspan y="-1692.15" x="1485.46"/></text><text transform="scale(4.0128.2492)" y="-7139.35" x="567.25" style="font-size:46.954;font-family:Arial;text-anchor:middle"/><g line-height="125%" style="letter-spacing:0;word-spacing:0;font-family:&apos;Gentium Book Basic&apos;"><text x="-347.35" y="-277.43" style="font-size:208.33"><tspan x="-347.35" y="-277.43"/></text><text x="3208.45" y="-1324.89" style="font-size:129.23"><tspan x="3208.45" y="-1324.89"/></text></g><text transform="scale(4.0128.2492)" y="-5665.6" x="996.61" style="font-size:46.954;font-family:Arial;text-anchor:middle"/><text y="-1404.89" x="3789.71" line-height="125%" style="letter-spacing:0;word-spacing:0;font-size:129.23;font-family:&apos;Gentium Book Basic&apos;"><tspan y="-1404.89" x="3789.71"/></text><text transform="scale(4.0128.2492)" y="-5986.64" x="1141.46" style="font-size:46.954;font-family:Arial;text-anchor:middle"/><text y="-1586.14" x="2718.13" line-height="125%" style="letter-spacing:0;word-spacing:0;font-size:129.23;font-family:&apos;Gentium Book Basic&apos;"><tspan y="-1586.14" x="2718.13"/></text><text transform="scale(4.0128.2492)" y="-6713.98" x="874.43" style="font-size:46.954;font-family:Arial;text-anchor:middle"/><text y="-1802.62" x="3816.18" line-height="125%" style="letter-spacing:0;word-spacing:0;font-size:129.23;font-family:&apos;Gentium Book Basic&apos;"><tspan y="-1802.62" x="3816.18"/></text><text transform="scale(4.0128.2492)" y="-7582.63" x="1148.06" style="font-size:46.954;font-family:Arial;text-anchor:middle"/><text y="-1882.62" x="4397.45" line-height="125%" style="letter-spacing:0;word-spacing:0;font-size:129.23;font-family:&apos;Gentium Book Basic&apos;"><tspan y="-1882.62" x="4397.45"/></text><text transform="scale(4.0128.2492)" y="-7903.67" x="1292.91" style="font-size:46.954;font-family:Arial;text-anchor:middle"/><text y="-2355.02" x="4008.33" line-height="125%" style="letter-spacing:0;word-spacing:0;font-size:129.23;font-family:&apos;Gentium Book Basic&apos;"><tspan y="-2355.02" x="4008.33"/></text><text transform="scale(4.0128.2492)" y="-9799.3" x="1195.94" style="font-size:46.954;font-family:Arial;text-anchor:middle"/><text y="-2435.02" x="4589.6" line-height="125%" style="letter-spacing:0;word-spacing:0;font-size:129.23;font-family:&apos;Gentium Book Basic&apos;"><tspan y="-2435.02" x="4589.6"/></text><text transform="scale(4.0128.2492)" y="-10120.33" x="1340.79" style="font-size:46.954;font-family:Arial;text-anchor:middle"/><g line-height="125%" style="letter-spacing:0;word-spacing:0;font-size:208.33;font-family:&apos;Gentium Book Basic&apos;"><text x="2756.79" y="-1020.31"><tspan x="2756.79" y="-1020.31"/></text><text x="-1785.82" y="-266.23"><tspan x="-1785.82" y="-266.23"/></text></g><text transform="scale(4.0128.2492)" y="-1631.21" x="-127.3" style="font-size:75.7;font-family:Arial;text-anchor:middle"/><text y="-266.23" x="-1785.82" line-height="125%" style="letter-spacing:0;word-spacing:0;font-size:208.33;font-family:&apos;Gentium Book Basic&apos;"><tspan y="-266.23" x="-1785.82"/></text><text transform="scale(4.0128.2492)" y="-1631.21" x="-127.3" style="font-size:75.7;font-family:Arial;text-anchor:middle"/><text y="366.68" x="-2119.37" line-height="125%" style="letter-spacing:0;word-spacing:0;font-size:208.33;font-family:&apos;Gentium Book Basic&apos;"><tspan y="366.68" x="-2119.37"/></text><text transform="scale(4.0128.2492)" y="908.55" x="-210.42" style="font-size:75.7;font-family:Arial;text-anchor:middle"/><text y="211.05" x="-1413.03" line-height="125%" style="letter-spacing:0;word-spacing:0;font-size:208.33;font-family:&apos;Gentium Book Basic&apos;"><tspan y="211.05" x="-1413.03"/></text><text transform="scale(4.0128.2492)" y="284.03" x="-34.4" style="font-size:75.7;font-family:Arial;text-anchor:middle"/><text y="282.64" x="1579.63" line-height="125%" style="letter-spacing:0;word-spacing:0;font-size:129.23;font-family:&apos;Gentium Book Basic&apos;"><tspan y="282.64" x="1579.63"/></text><text transform="scale(4.0128.2492)" y="785.04" x="590.73" style="font-size:46.954;font-family:Arial;text-anchor:middle"/><text y="202.64" x="2160.9" line-height="125%" style="letter-spacing:0;word-spacing:0;font-size:129.23;font-family:&apos;Gentium Book Basic&apos;"><tspan y="202.64" x="2160.9"/></text><text transform="scale(4.0128.2492)" y="464" x="735.58" style="font-size:46.954;font-family:Arial;text-anchor:middle"/><text y="21.382" x="1089.32" line-height="125%" style="letter-spacing:0;word-spacing:0;font-size:129.23;font-family:&apos;Gentium Book Basic&apos;"><tspan y="21.382" x="1089.32"/></text><text transform="scale(4.0128.2492)" y="-263.34" x="468.54" style="font-size:46.954;font-family:Arial;text-anchor:middle"/><text y="-195.09" x="2187.37" line-height="125%" style="letter-spacing:0;word-spacing:0;font-size:129.23;font-family:&apos;Gentium Book Basic&apos;"><tspan y="-195.09" x="2187.37"/></text><text transform="scale(4.0128.2492)" y="-1132.02" x="742.18" style="font-size:46.954;font-family:Arial;text-anchor:middle"/><text y="-275.1" x="2768.64" line-height="125%" style="letter-spacing:0;word-spacing:0;font-size:129.23;font-family:&apos;Gentium Book Basic&apos;"><tspan y="-275.1" x="2768.64"/></text><text transform="scale(4.0128.2492)" y="-1453.05" x="887.03" style="font-size:46.954;font-family:Arial;text-anchor:middle"/><text y="-747.5" x="2379.52" line-height="125%" style="letter-spacing:0;word-spacing:0;font-size:129.23;font-family:&apos;Gentium Book Basic&apos;"><tspan y="-747.5" x="2379.52"/></text><text transform="scale(4.0128.2492)" y="-3348.7" x="790.06" style="font-size:46.954;font-family:Arial;text-anchor:middle"/><text y="-827.5" x="2960.79" line-height="125%" style="letter-spacing:0;word-spacing:0;font-size:129.23;font-family:&apos;Gentium Book Basic&apos;"><tspan y="-827.5" x="2960.79"/></text><text transform="scale(4.0128.2492)" y="-3669.73" x="934.91" style="font-size:46.954;font-family:Arial;text-anchor:middle"/><g line-height="125%" style="letter-spacing:0;word-spacing:0;font-family:&apos;Gentium Book Basic&apos;"><text x="1127.98" y="587.22" style="font-size:208.33"><tspan x="1127.98" y="587.22"/></text><text x="4683.77" y="-460.24" style="font-size:129.23"><tspan x="4683.77" y="-460.24"/></text></g><text transform="scale(4.0128.2492)" y="-2195.98" x="1364.27" style="font-size:46.954;font-family:Arial;text-anchor:middle"/><text y="-540.24" x="5265.04" line-height="125%" style="letter-spacing:0;word-spacing:0;font-size:129.23;font-family:&apos;Gentium Book Basic&apos;"><tspan y="-540.24" x="5265.04"/></text><text transform="scale(4.0128.2492)" y="-2517.01" x="1509.12" style="font-size:46.954;font-family:Arial;text-anchor:middle"/><text y="-721.49" x="4193.46" line-height="125%" style="letter-spacing:0;word-spacing:0;font-size:129.23;font-family:&apos;Gentium Book Basic&apos;"><tspan y="-721.49" x="4193.46"/></text><text transform="scale(4.0128.2492)" y="-3244.37" x="1242.08" style="font-size:46.954;font-family:Arial;text-anchor:middle"/><text y="-937.97" x="5291.51" line-height="125%" style="letter-spacing:0;word-spacing:0;font-size:129.23;font-family:&apos;Gentium Book Basic&apos;"><tspan y="-937.97" x="5291.51"/></text><text transform="scale(4.0128.2492)" y="-4113.03" x="1515.72" style="font-size:46.954;font-family:Arial;text-anchor:middle"/><text y="-1017.97" x="5872.78" line-height="125%" style="letter-spacing:0;word-spacing:0;font-size:129.23;font-family:&apos;Gentium Book Basic&apos;"><tspan y="-1017.97" x="5872.78"/></text><text transform="scale(4.0128.2492)" y="-4434.06" x="1660.57" style="font-size:46.954;font-family:Arial;text-anchor:middle"/><text y="-1490.37" x="5483.66" line-height="125%" style="letter-spacing:0;word-spacing:0;font-size:129.23;font-family:&apos;Gentium Book Basic&apos;"><tspan y="-1490.37" x="5483.66"/></text><text transform="scale(4.0128.2492)" y="-6329.72" x="1563.6" style="font-size:46.954;font-family:Arial;text-anchor:middle"/><text y="-1570.37" x="6064.92" line-height="125%" style="letter-spacing:0;word-spacing:0;font-size:129.23;font-family:&apos;Gentium Book Basic&apos;"><tspan y="-1570.37" x="6064.92"/></text><text transform="scale(4.0128.2492)" y="-6650.75" x="1708.45" style="font-size:46.954;font-family:Arial;text-anchor:middle"/><text y="-155.66" x="4232.12" line-height="125%" style="letter-spacing:0;word-spacing:0;font-size:208.33;font-family:&apos;Gentium Book Basic&apos;"><tspan y="-155.66" x="4232.12"/></text><path d="m218.06 89.58v91.12 19.13h-43.844c-11.604 0-3.052 9.11-1.297 10.865l.324.324 77.79 94 .031.031c0 0 .124.146.357.379l25.09 25.09h-120.48c-17.808 0-32.16 14.317-32.16 32.13 0 17.808 14.348 32.16 32.16 32.16l76.31 76.31c6.316.548 12.704.846 19.16.846 117.05 0 212.63-91.86 218.61-207.42l-174.96-174.96h-77.09" style="opacity:.25"/><path d="m218.06 89.58v91.12 19.13h-43.844c-12.841 0-1 11.156-1 11.156l77.81 94.03.031.031c0 0 6.344 7.433 13 .75 9.229-9.22 75.44-97.09 75.44-97.09 0 0 11.705-11.719-3.875-11.719h-40.469v-17.06-90.34h-77.09m-62.03 240.94c-17.808 0-32.16 14.317-32.16 32.13 0 17.808 14.348 32.16 32.16 32.16h199.94c17.808 0 32.16-14.348 32.16-32.16 0-17.808-14.348-32.12-32.16-32.12h-199.94m-.969 14.844c.295-.015.639 0 .938 0 9.559 0 17.281 7.722 17.281 17.281 0 9.559-7.722 17.344-17.281 17.344-9.559 0-17.281-7.784-17.281-17.344 0-9.261 7.198-16.818 16.344-17.281" style="fill:#fff"/></svg>