<svg xmlns="http://www.w3.org/2000/svg" viewBox="0 0 512 512"><defs><clipPath><path d="m471.95 253.05c0 120.9-98.01 218.91-218.91 218.91-120.9 0-218.91-98.01-218.91-218.91 0-120.9 98.01-218.91 218.91-218.91 120.9 0 218.91 98.01 218.91 218.91"/></clipPath><radialGradient gradientUnits="userSpaceOnUse" cx="64" cy="64" r="64" gradientTransform="matrix(4.16583 0 0 3.88749 660.12-262.53)"><stop style="stop-color:#fff"/><stop offset=".688" style="stop-color:#e8e8e8"/><stop offset=".875" style="stop-color:#686868"/><stop offset="1"/></radialGradient></defs><text x="729.64" y="231.36" line-height="125%" style="letter-spacing:0;word-spacing:0;font-size:129.23;font-family:&apos;Gentium Book Basic&apos;"><tspan x="729.64" y="231.36"/></text><text x="378.91" y="579.26" transform="scale(4.0128.2492)" style="font-size:46.954;font-family:Arial;text-anchor:middle"/><text x="1310.91" y="151.36" line-height="125%" style="letter-spacing:0;word-spacing:0;font-size:129.23;font-family:&apos;Gentium Book Basic&apos;"><tspan x="1310.91" y="151.36"/></text><text x="523.76" y="258.22" transform="scale(4.0128.2492)" style="font-size:46.954;font-family:Arial;text-anchor:middle"/><text x="239.33" y="-29.9" line-height="125%" style="letter-spacing:0;word-spacing:0;font-size:129.23;font-family:&apos;Gentium Book Basic&apos;"><tspan x="239.33" y="-29.9"/></text><text x="256.72" y="-469.13" transform="scale(4.0128.2492)" style="font-size:46.954;font-family:Arial;text-anchor:middle"/><text x="1337.38" y="-246.37" line-height="125%" style="letter-spacing:0;word-spacing:0;font-size:129.23;font-family:&apos;Gentium Book Basic&apos;"><tspan x="1337.38" y="-246.37"/></text><text x="530.36" y="-1337.8" transform="scale(4.0128.2492)" style="font-size:46.954;font-family:Arial;text-anchor:middle"/><text x="1918.65" y="-326.37" line-height="125%" style="letter-spacing:0;word-spacing:0;font-size:129.23;font-family:&apos;Gentium Book Basic&apos;"><tspan x="1918.65" y="-326.37"/></text><text x="675.21" y="-1658.83" transform="scale(4.0128.2492)" style="font-size:46.954;font-family:Arial;text-anchor:middle"/><text x="1529.53" y="-798.77" line-height="125%" style="letter-spacing:0;word-spacing:0;font-size:129.23;font-family:&apos;Gentium Book Basic&apos;"><tspan x="1529.53" y="-798.77"/></text><text x="578.24" y="-3554.48" transform="scale(4.0128.2492)" style="font-size:46.954;font-family:Arial;text-anchor:middle"/><text x="2110.79" y="-878.78" line-height="125%" style="letter-spacing:0;word-spacing:0;font-size:129.23;font-family:&apos;Gentium Book Basic&apos;"><tspan x="2110.79" y="-878.78"/></text><text x="723.09" y="-3875.52" transform="scale(4.0128.2492)" style="font-size:46.954;font-family:Arial;text-anchor:middle"/><g line-height="125%" style="letter-spacing:0;word-spacing:0;font-family:&apos;Gentium Book Basic&apos;"><text x="277.99" y="535.94" style="font-size:208.33"><tspan x="277.99" y="535.94"/></text><text x="729.64" y="231.36" style="font-size:129.23"><tspan x="729.64" y="231.36"/></text></g><text x="378.91" y="579.26" transform="scale(4.0128.2492)" style="font-size:46.954;font-family:Arial;text-anchor:middle"/><text x="1310.91" y="151.36" line-height="125%" style="letter-spacing:0;word-spacing:0;font-size:129.23;font-family:&apos;Gentium Book Basic&apos;"><tspan x="1310.91" y="151.36"/></text><text x="523.76" y="258.22" transform="scale(4.0128.2492)" style="font-size:46.954;font-family:Arial;text-anchor:middle"/><text x="239.33" y="-29.9" line-height="125%" style="letter-spacing:0;word-spacing:0;font-size:129.23;font-family:&apos;Gentium Book Basic&apos;"><tspan x="239.33" y="-29.9"/></text><text x="256.72" y="-469.13" transform="scale(4.0128.2492)" style="font-size:46.954;font-family:Arial;text-anchor:middle"/><text x="1337.38" y="-246.37" line-height="125%" style="letter-spacing:0;word-spacing:0;font-size:129.23;font-family:&apos;Gentium Book Basic&apos;"><tspan x="1337.38" y="-246.37"/></text><text x="530.36" y="-1337.79" transform="scale(4.0128.2492)" style="font-size:46.954;font-family:Arial;text-anchor:middle"/><text x="1918.65" y="-326.37" line-height="125%" style="letter-spacing:0;word-spacing:0;font-size:129.23;font-family:&apos;Gentium Book Basic&apos;"><tspan x="1918.65" y="-326.37"/></text><text x="675.21" y="-1658.82" transform="scale(4.0128.2492)" style="font-size:46.954;font-family:Arial;text-anchor:middle"/><text x="1529.53" y="-798.77" line-height="125%" style="letter-spacing:0;word-spacing:0;font-size:129.23;font-family:&apos;Gentium Book Basic&apos;"><tspan x="1529.53" y="-798.77"/></text><text x="578.24" y="-3554.46" transform="scale(4.0128.2492)" style="font-size:46.954;font-family:Arial;text-anchor:middle"/><text x="2110.79" y="-878.78" line-height="125%" style="letter-spacing:0;word-spacing:0;font-size:129.23;font-family:&apos;Gentium Book Basic&apos;"><tspan x="2110.79" y="-878.78"/></text><text x="723.09" y="-3875.5" transform="scale(4.0128.2492)" style="font-size:46.954;font-family:Arial;text-anchor:middle"/><g line-height="125%" style="letter-spacing:0;word-spacing:0;font-family:&apos;Gentium Book Basic&apos;"><text x="277.99" y="535.94" style="font-size:208.33"><tspan x="277.99" y="535.94"/></text><text x="729.64" y="231.36" style="font-size:129.23"><tspan x="729.64" y="231.36"/></text></g><text x="378.91" y="579.26" transform="scale(4.0128.2492)" style="font-size:46.954;font-family:Arial;text-anchor:middle"/><text x="1310.91" y="151.36" line-height="125%" style="letter-spacing:0;word-spacing:0;font-size:129.23;font-family:&apos;Gentium Book Basic&apos;"><tspan x="1310.91" y="151.36"/></text><text x="523.76" y="258.22" transform="scale(4.0128.2492)" style="font-size:46.954;font-family:Arial;text-anchor:middle"/><text x="239.33" y="-29.9" line-height="125%" style="letter-spacing:0;word-spacing:0;font-size:129.23;font-family:&apos;Gentium Book Basic&apos;"><tspan x="239.33" y="-29.9"/></text><text x="256.72" y="-469.13" transform="scale(4.0128.2492)" style="font-size:46.954;font-family:Arial;text-anchor:middle"/><text x="1337.38" y="-246.37" line-height="125%" style="letter-spacing:0;word-spacing:0;font-size:129.23;font-family:&apos;Gentium Book Basic&apos;"><tspan x="1337.38" y="-246.37"/></text><text x="530.36" y="-1337.8" transform="scale(4.0128.2492)" style="font-size:46.954;font-family:Arial;text-anchor:middle"/><text x="1918.65" y="-326.37" line-height="125%" style="letter-spacing:0;word-spacing:0;font-size:129.23;font-family:&apos;Gentium Book Basic&apos;"><tspan x="1918.65" y="-326.37"/></text><text x="675.21" y="-1658.83" transform="scale(4.0128.2492)" style="font-size:46.954;font-family:Arial;text-anchor:middle"/><text x="1529.53" y="-798.77" line-height="125%" style="letter-spacing:0;word-spacing:0;font-size:129.23;font-family:&apos;Gentium Book Basic&apos;"><tspan x="1529.53" y="-798.77"/></text><text x="578.24" y="-3554.48" transform="scale(4.0128.2492)" style="font-size:46.954;font-family:Arial;text-anchor:middle"/><text x="2110.79" y="-878.78" line-height="125%" style="letter-spacing:0;word-spacing:0;font-size:129.23;font-family:&apos;Gentium Book Basic&apos;"><tspan x="2110.79" y="-878.78"/></text><text x="723.09" y="-3875.52" transform="scale(4.0128.2492)" style="font-size:46.954;font-family:Arial;text-anchor:middle"/><g line-height="125%" style="letter-spacing:0;word-spacing:0;font-family:&apos;Gentium Book Basic&apos;"><text x="277.99" y="535.94" style="font-size:208.33"><tspan x="277.99" y="535.94"/></text><text x="729.64" y="231.36" style="font-size:129.23"><tspan x="729.64" y="231.36"/></text></g><text x="378.91" y="579.26" transform="scale(4.0128.2492)" style="font-size:46.954;font-family:Arial;text-anchor:middle"/><text line-height="125%" x="1310.91" y="151.36" style="letter-spacing:0;word-spacing:0;font-size:129.23;font-family:&apos;Gentium Book Basic&apos;"><tspan x="1310.91" y="151.36"/></text><text x="523.76" y="258.22" transform="scale(4.0128.2492)" style="font-size:46.954;font-family:Arial;text-anchor:middle"/><text line-height="125%" x="239.33" y="-29.9" style="letter-spacing:0;word-spacing:0;font-size:129.23;font-family:&apos;Gentium Book Basic&apos;"><tspan x="239.33" y="-29.9"/></text><text x="256.72" y="-469.13" transform="scale(4.0128.2492)" style="font-size:46.954;font-family:Arial;text-anchor:middle"/><text line-height="125%" x="1337.38" y="-246.37" style="letter-spacing:0;word-spacing:0;font-size:129.23;font-family:&apos;Gentium Book Basic&apos;"><tspan x="1337.38" y="-246.37"/></text><text x="530.36" y="-1337.8" transform="scale(4.0128.2492)" style="font-size:46.954;font-family:Arial;text-anchor:middle"/><text line-height="125%" x="1918.65" y="-326.37" style="letter-spacing:0;word-spacing:0;font-size:129.23;font-family:&apos;Gentium Book Basic&apos;"><tspan x="1918.65" y="-326.37"/></text><text x="675.21" y="-1658.83" transform="scale(4.0128.2492)" style="font-size:46.954;font-family:Arial;text-anchor:middle"/><text line-height="125%" x="1529.53" y="-798.77" style="letter-spacing:0;word-spacing:0;font-size:129.23;font-family:&apos;Gentium Book Basic&apos;"><tspan x="1529.53" y="-798.77"/></text><text x="578.24" y="-3554.48" transform="scale(4.0128.2492)" style="font-size:46.954;font-family:Arial;text-anchor:middle"/><text line-height="125%" x="2110.79" y="-878.78" style="letter-spacing:0;word-spacing:0;font-size:129.23;font-family:&apos;Gentium Book Basic&apos;"><tspan x="2110.79" y="-878.78"/></text><text x="723.09" y="-3875.52" transform="scale(4.0128.2492)" style="font-size:46.954;font-family:Arial;text-anchor:middle"/><g line-height="125%" style="letter-spacing:0;word-spacing:0;font-family:&apos;Gentium Book Basic&apos;"><text x="277.99" y="535.94" style="font-size:208.33"><tspan x="277.99" y="535.94"/></text><text x="729.64" y="231.36" style="font-size:129.23"><tspan x="729.64" y="231.36"/></text></g><text x="378.91" y="579.26" transform="scale(4.0128.2492)" style="font-size:46.954;font-family:Arial;text-anchor:middle"/><text line-height="125%" x="1310.91" y="151.36" style="letter-spacing:0;word-spacing:0;font-size:129.23;font-family:&apos;Gentium Book Basic&apos;"><tspan x="1310.91" y="151.36"/></text><text x="523.76" y="258.22" transform="scale(4.0128.2492)" style="font-size:46.954;font-family:Arial;text-anchor:middle"/><text line-height="125%" x="239.33" y="-29.9" style="letter-spacing:0;word-spacing:0;font-size:129.23;font-family:&apos;Gentium Book Basic&apos;"><tspan x="239.33" y="-29.9"/></text><text x="256.72" y="-469.13" transform="scale(4.0128.2492)" style="font-size:46.954;font-family:Arial;text-anchor:middle"/><text line-height="125%" x="1337.38" y="-246.37" style="letter-spacing:0;word-spacing:0;font-size:129.23;font-family:&apos;Gentium Book Basic&apos;"><tspan x="1337.38" y="-246.37"/></text><text x="530.36" y="-1337.8" transform="scale(4.0128.2492)" style="font-size:46.954;font-family:Arial;text-anchor:middle"/><text line-height="125%" x="1918.65" y="-326.37" style="letter-spacing:0;word-spacing:0;font-size:129.23;font-family:&apos;Gentium Book Basic&apos;"><tspan x="1918.65" y="-326.37"/></text><text x="675.21" y="-1658.83" transform="scale(4.0128.2492)" style="font-size:46.954;font-family:Arial;text-anchor:middle"/><text line-height="125%" x="1529.53" y="-798.77" style="letter-spacing:0;word-spacing:0;font-size:129.23;font-family:&apos;Gentium Book Basic&apos;"><tspan x="1529.53" y="-798.77"/></text><text x="578.24" y="-3554.48" transform="scale(4.0128.2492)" style="font-size:46.954;font-family:Arial;text-anchor:middle"/><text line-height="125%" x="2110.79" y="-878.78" style="letter-spacing:0;word-spacing:0;font-size:129.23;font-family:&apos;Gentium Book Basic&apos;"><tspan x="2110.79" y="-878.78"/></text><text x="723.09" y="-3875.52" transform="scale(4.0128.2492)" style="font-size:46.954;font-family:Arial;text-anchor:middle"/><g line-height="125%" style="letter-spacing:0;word-spacing:0;font-family:&apos;Gentium Book Basic&apos;"><text x="277.99" y="535.94" style="font-size:208.33"><tspan x="277.99" y="535.94"/></text><text x="729.64" y="231.36" style="font-size:129.23"><tspan x="729.64" y="231.36"/></text></g><text x="378.91" y="579.26" transform="scale(4.0128.2492)" style="font-size:46.954;font-family:Arial;text-anchor:middle"/><text line-height="125%" x="1310.91" y="151.36" style="letter-spacing:0;word-spacing:0;font-size:129.23;font-family:&apos;Gentium Book Basic&apos;"><tspan x="1310.91" y="151.36"/></text><text x="523.76" y="258.22" transform="scale(4.0128.2492)" style="font-size:46.954;font-family:Arial;text-anchor:middle"/><text line-height="125%" x="239.33" y="-29.9" style="letter-spacing:0;word-spacing:0;font-size:129.23;font-family:&apos;Gentium Book Basic&apos;"><tspan x="239.33" y="-29.9"/></text><text x="256.72" y="-469.13" transform="scale(4.0128.2492)" style="font-size:46.954;font-family:Arial;text-anchor:middle"/><text line-height="125%" x="1337.38" y="-246.37" style="letter-spacing:0;word-spacing:0;font-size:129.23;font-family:&apos;Gentium Book Basic&apos;"><tspan x="1337.38" y="-246.37"/></text><text x="530.36" y="-1337.8" transform="scale(4.0128.2492)" style="font-size:46.954;font-family:Arial;text-anchor:middle"/><text line-height="125%" x="1918.65" y="-326.37" style="letter-spacing:0;word-spacing:0;font-size:129.23;font-family:&apos;Gentium Book Basic&apos;"><tspan x="1918.65" y="-326.37"/></text><text x="675.21" y="-1658.83" transform="scale(4.0128.2492)" style="font-size:46.954;font-family:Arial;text-anchor:middle"/><text line-height="125%" x="1529.53" y="-798.77" style="letter-spacing:0;word-spacing:0;font-size:129.23;font-family:&apos;Gentium Book Basic&apos;"><tspan x="1529.53" y="-798.77"/></text><text x="578.24" y="-3554.48" transform="scale(4.0128.2492)" style="font-size:46.954;font-family:Arial;text-anchor:middle"/><text line-height="125%" x="2110.79" y="-878.78" style="letter-spacing:0;word-spacing:0;font-size:129.23;font-family:&apos;Gentium Book Basic&apos;"><tspan x="2110.79" y="-878.78"/></text><text x="723.09" y="-3875.52" transform="scale(4.0128.2492)" style="font-size:46.954;font-family:Arial;text-anchor:middle"/><g line-height="125%" style="letter-spacing:0;word-spacing:0;font-family:&apos;Gentium Book Basic&apos;"><text x="277.99" y="535.94" style="font-size:208.33"><tspan x="277.99" y="535.94"/></text><text y="282.62" x="1579.63" style="font-size:129.23"><tspan y="282.62" x="1579.63"/></text></g><text transform="scale(4.0128.2492)" y="784.96" x="590.73" style="font-size:46.954;font-family:Arial;text-anchor:middle"/><text y="202.62" x="2160.9" line-height="125%" style="letter-spacing:0;word-spacing:0;font-size:129.23;font-family:&apos;Gentium Book Basic&apos;"><tspan y="202.62" x="2160.9"/></text><text transform="scale(4.0128.2492)" y="463.92" x="735.58" style="font-size:46.954;font-family:Arial;text-anchor:middle"/><text y="21.362" x="1089.32" line-height="125%" style="letter-spacing:0;word-spacing:0;font-size:129.23;font-family:&apos;Gentium Book Basic&apos;"><tspan y="21.362" x="1089.32"/></text><text transform="scale(4.0128.2492)" y="-263.42" x="468.54" style="font-size:46.954;font-family:Arial;text-anchor:middle"/><text y="-195.11" x="2187.37" line-height="125%" style="letter-spacing:0;word-spacing:0;font-size:129.23;font-family:&apos;Gentium Book Basic&apos;"><tspan y="-195.11" x="2187.37"/></text><text transform="scale(4.0128.2492)" y="-1132.09" x="742.18" style="font-size:46.954;font-family:Arial;text-anchor:middle"/><text y="-275.12" x="2768.64" line-height="125%" style="letter-spacing:0;word-spacing:0;font-size:129.23;font-family:&apos;Gentium Book Basic&apos;"><tspan y="-275.12" x="2768.64"/></text><text transform="scale(4.0128.2492)" y="-1453.12" x="887.03" style="font-size:46.954;font-family:Arial;text-anchor:middle"/><text y="-747.52" x="2379.52" line-height="125%" style="letter-spacing:0;word-spacing:0;font-size:129.23;font-family:&apos;Gentium Book Basic&apos;"><tspan y="-747.52" x="2379.52"/></text><text transform="scale(4.0128.2492)" y="-3348.76" x="790.06" style="font-size:46.954;font-family:Arial;text-anchor:middle"/><text y="-827.52" x="2960.79" line-height="125%" style="letter-spacing:0;word-spacing:0;font-size:129.23;font-family:&apos;Gentium Book Basic&apos;"><tspan y="-827.52" x="2960.79"/></text><text transform="scale(4.0128.2492)" y="-3669.79" x="934.91" style="font-size:46.954;font-family:Arial;text-anchor:middle"/><g line-height="125%" style="letter-spacing:0;word-spacing:0;font-family:&apos;Gentium Book Basic&apos;"><text x="1127.98" y="587.2" style="font-size:208.33"><tspan x="1127.98" y="587.2"/></text><text x="4683.77" y="-460.26" style="font-size:129.23"><tspan x="4683.77" y="-460.26"/></text></g><text transform="scale(4.0128.2492)" y="-2196.05" x="1364.26" style="font-size:46.954;font-family:Arial;text-anchor:middle"/><text y="-540.26" x="5265.04" line-height="125%" style="letter-spacing:0;word-spacing:0;font-size:129.23;font-family:&apos;Gentium Book Basic&apos;"><tspan y="-540.26" x="5265.04"/></text><text transform="scale(4.0128.2492)" y="-2517.07" x="1509.11" style="font-size:46.954;font-family:Arial;text-anchor:middle"/><text y="-721.51" x="4193.46" line-height="125%" style="letter-spacing:0;word-spacing:0;font-size:129.23;font-family:&apos;Gentium Book Basic&apos;"><tspan y="-721.51" x="4193.46"/></text><text transform="scale(4.0128.2492)" y="-3244.43" x="1242.07" style="font-size:46.954;font-family:Arial;text-anchor:middle"/><text y="-937.99" x="5291.51" line-height="125%" style="letter-spacing:0;word-spacing:0;font-size:129.23;font-family:&apos;Gentium Book Basic&apos;"><tspan y="-937.99" x="5291.51"/></text><text transform="scale(4.0128.2492)" y="-4113.09" x="1515.71" style="font-size:46.954;font-family:Arial;text-anchor:middle"/><text y="-1017.99" x="5872.78" line-height="125%" style="letter-spacing:0;word-spacing:0;font-size:129.23;font-family:&apos;Gentium Book Basic&apos;"><tspan y="-1017.99" x="5872.78"/></text><text transform="scale(4.0128.2492)" y="-4434.11" x="1660.56" style="font-size:46.954;font-family:Arial;text-anchor:middle"/><text y="-1490.39" x="5483.66" line-height="125%" style="letter-spacing:0;word-spacing:0;font-size:129.23;font-family:&apos;Gentium Book Basic&apos;"><tspan y="-1490.39" x="5483.66"/></text><text transform="scale(4.0128.2492)" y="-6329.77" x="1563.59" style="font-size:46.954;font-family:Arial;text-anchor:middle"/><text y="-1570.39" x="6064.92" line-height="125%" style="letter-spacing:0;word-spacing:0;font-size:129.23;font-family:&apos;Gentium Book Basic&apos;"><tspan y="-1570.39" x="6064.92"/></text><text transform="scale(4.0128.2492)" y="-6650.79" x="1708.44" style="font-size:46.954;font-family:Arial;text-anchor:middle"/><g line-height="125%" style="letter-spacing:0;word-spacing:0;font-family:&apos;Gentium Book Basic&apos;"><text y="-155.68" x="4232.12" style="font-size:208.33"><tspan y="-155.68" x="4232.12"/></text><text y="189.54" x="940.11" style="font-size:129.23"><tspan y="189.54" x="940.11"/></text></g><text transform="scale(4.0128.2492)" y="411.44" x="431.36" style="font-size:46.954;font-family:Arial;text-anchor:middle"/><text y="109.54" x="1521.38" line-height="125%" style="letter-spacing:0;word-spacing:0;font-size:129.23;font-family:&apos;Gentium Book Basic&apos;"><tspan y="109.54" x="1521.38"/></text><text transform="scale(4.0128.2492)" y="90.43" x="576.21" style="font-size:46.954;font-family:Arial;text-anchor:middle"/><text y="-71.72" x="449.8" line-height="125%" style="letter-spacing:0;word-spacing:0;font-size:129.23;font-family:&apos;Gentium Book Basic&apos;"><tspan y="-71.72" x="449.8"/></text><text transform="scale(4.0128.2492)" y="-636.93" x="309.17" style="font-size:46.954;font-family:Arial;text-anchor:middle"/><text y="-288.19" x="1547.85" line-height="125%" style="letter-spacing:0;word-spacing:0;font-size:129.23;font-family:&apos;Gentium Book Basic&apos;"><tspan y="-288.19" x="1547.85"/></text><text transform="scale(4.0128.2492)" y="-1505.6" x="582.81" style="font-size:46.954;font-family:Arial;text-anchor:middle"/><text y="-368.2" x="2129.12" line-height="125%" style="letter-spacing:0;word-spacing:0;font-size:129.23;font-family:&apos;Gentium Book Basic&apos;"><tspan y="-368.2" x="2129.12"/></text><text transform="scale(4.0128.2492)" y="-1826.62" x="727.66" style="font-size:46.954;font-family:Arial;text-anchor:middle"/><text y="-840.6" x="1740" line-height="125%" style="letter-spacing:0;word-spacing:0;font-size:129.23;font-family:&apos;Gentium Book Basic&apos;"><tspan y="-840.6" x="1740"/></text><text transform="scale(4.0128.2492)" y="-3722.27" x="630.69" style="font-size:46.954;font-family:Arial;text-anchor:middle"/><text y="-920.6" x="2321.26" line-height="125%" style="letter-spacing:0;word-spacing:0;font-size:129.23;font-family:&apos;Gentium Book Basic&apos;"><tspan y="-920.6" x="2321.26"/></text><text transform="scale(4.0128.2492)" y="-4043.29" x="775.54" style="font-size:46.954;font-family:Arial;text-anchor:middle"/><g line-height="125%" style="letter-spacing:0;word-spacing:0;font-size:208.33;font-family:&apos;Gentium Book Basic&apos;"><text x="488.46" y="494.12"><tspan x="488.46" y="494.12"/></text><text x="-1735.37" y="475.16"><tspan x="-1735.37" y="475.16"/></text></g><text transform="scale(4.0128.2492)" y="1343.85" x="-114.73" style="font-size:75.7;font-family:Arial;text-anchor:middle"/><text y="319.53" x="-1029.03" line-height="125%" style="letter-spacing:0;word-spacing:0;font-size:208.33;font-family:&apos;Gentium Book Basic&apos;"><tspan y="319.53" x="-1029.03"/></text><text transform="scale(4.0128.2492)" y="719.32" x="61.29" style="font-size:75.7;font-family:Arial;text-anchor:middle"/><text y="311.41" x="-995.66" line-height="125%" style="letter-spacing:0;word-spacing:0;font-size:208.33;font-family:&apos;Gentium Book Basic&apos;"><tspan y="311.41" x="-995.66"/></text><text transform="scale(4.0128.2492)" y="686.72" x="69.61" style="font-size:75.7;font-family:Arial;text-anchor:middle"/><text y="157" x="154.76" line-height="125%" style="letter-spacing:0;word-spacing:0;font-size:129.23;font-family:&apos;Gentium Book Basic&apos;"><tspan y="157" x="154.76"/></text><text transform="scale(4.0128.2492)" y="280.86" x="235.65" style="font-size:46.954;font-family:Arial;text-anchor:middle"/><text y="77" x="736.02" line-height="125%" style="letter-spacing:0;word-spacing:0;font-size:129.23;font-family:&apos;Gentium Book Basic&apos;"><tspan y="77" x="736.02"/></text><text transform="scale(4.0128.2492)" y="-40.16" x="380.5" style="font-size:46.954;font-family:Arial;text-anchor:middle"/><text y="-104.26" x="-335.56" line-height="125%" style="letter-spacing:0;word-spacing:0;font-size:129.23;font-family:&apos;Gentium Book Basic&apos;"><tspan y="-104.26" x="-335.56"/></text><text transform="scale(4.0128.2492)" y="-767.5" x="113.46" style="font-size:46.954;font-family:Arial;text-anchor:middle"/><text y="-320.73" x="762.49" line-height="125%" style="letter-spacing:0;word-spacing:0;font-size:129.23;font-family:&apos;Gentium Book Basic&apos;"><tspan y="-320.73" x="762.49"/></text><text transform="scale(4.0128.2492)" y="-1636.18" x="387.1" style="font-size:46.954;font-family:Arial;text-anchor:middle"/><text y="-400.73" x="1343.76" line-height="125%" style="letter-spacing:0;word-spacing:0;font-size:129.23;font-family:&apos;Gentium Book Basic&apos;"><tspan y="-400.73" x="1343.76"/></text><text transform="scale(4.0128.2492)" y="-1957.19" x="531.94" style="font-size:46.954;font-family:Arial;text-anchor:middle"/><text y="-873.13" x="954.64" line-height="125%" style="letter-spacing:0;word-spacing:0;font-size:129.23;font-family:&apos;Gentium Book Basic&apos;"><tspan y="-873.13" x="954.64"/></text><text transform="scale(4.0128.2492)" y="-3852.82" x="434.98" style="font-size:46.954;font-family:Arial;text-anchor:middle"/><text y="-953.14" x="1535.9" line-height="125%" style="letter-spacing:0;word-spacing:0;font-size:129.23;font-family:&apos;Gentium Book Basic&apos;"><tspan y="-953.14" x="1535.9"/></text><text transform="scale(4.0128.2492)" y="-4173.86" x="579.82" style="font-size:46.954;font-family:Arial;text-anchor:middle"/><g line-height="125%" style="letter-spacing:0;word-spacing:0;font-family:&apos;Gentium Book Basic&apos;"><text x="-296.9" y="461.58" style="font-size:208.33"><tspan x="-296.9" y="461.58"/></text><text x="104.31" y="-582.01" style="font-size:129.23"><tspan x="104.31" y="-582.01"/></text></g><text transform="scale(4.0128.2492)" y="-2684.62" x="223.08" style="font-size:46.954;font-family:Arial;text-anchor:middle"/><text y="-662.01" x="685.58" line-height="125%" style="letter-spacing:0;word-spacing:0;font-size:129.23;font-family:&apos;Gentium Book Basic&apos;"><tspan y="-662.01" x="685.58"/></text><text transform="scale(4.0128.2492)" y="-3005.65" x="367.93" style="font-size:46.954;font-family:Arial;text-anchor:middle"/><text y="-843.27" x="-386" line-height="125%" style="letter-spacing:0;word-spacing:0;font-size:129.23;font-family:&apos;Gentium Book Basic&apos;"><tspan y="-843.27" x="-386"/></text><text transform="scale(4.0128.2492)" y="-3733" x="100.89" style="font-size:46.954;font-family:Arial;text-anchor:middle"/><text y="-1059.74" x="712.05" line-height="125%" style="letter-spacing:0;word-spacing:0;font-size:129.23;font-family:&apos;Gentium Book Basic&apos;"><tspan y="-1059.74" x="712.05"/></text><text transform="scale(4.0128.2492)" y="-4601.65" x="374.53" style="font-size:46.954;font-family:Arial;text-anchor:middle"/><text y="-1139.75" x="1293.31" line-height="125%" style="letter-spacing:0;word-spacing:0;font-size:129.23;font-family:&apos;Gentium Book Basic&apos;"><tspan y="-1139.75" x="1293.31"/></text><text transform="scale(4.0128.2492)" y="-4922.69" x="519.37" style="font-size:46.954;font-family:Arial;text-anchor:middle"/><text y="-1612.15" x="904.19" line-height="125%" style="letter-spacing:0;word-spacing:0;font-size:129.23;font-family:&apos;Gentium Book Basic&apos;"><tspan y="-1612.15" x="904.19"/></text><text transform="scale(4.0128.2492)" y="-6818.32" x="422.41" style="font-size:46.954;font-family:Arial;text-anchor:middle"/><text y="-1692.15" x="1485.46" line-height="125%" style="letter-spacing:0;word-spacing:0;font-size:129.23;font-family:&apos;Gentium Book Basic&apos;"><tspan y="-1692.15" x="1485.46"/></text><text transform="scale(4.0128.2492)" y="-7139.35" x="567.25" style="font-size:46.954;font-family:Arial;text-anchor:middle"/><g line-height="125%" style="letter-spacing:0;word-spacing:0;font-family:&apos;Gentium Book Basic&apos;"><text x="-347.35" y="-277.43" style="font-size:208.33"><tspan x="-347.35" y="-277.43"/></text><text x="3208.45" y="-1324.89" style="font-size:129.23"><tspan x="3208.45" y="-1324.89"/></text></g><text transform="scale(4.0128.2492)" y="-5665.6" x="996.61" style="font-size:46.954;font-family:Arial;text-anchor:middle"/><text y="-1404.89" x="3789.71" line-height="125%" style="letter-spacing:0;word-spacing:0;font-size:129.23;font-family:&apos;Gentium Book Basic&apos;"><tspan y="-1404.89" x="3789.71"/></text><text transform="scale(4.0128.2492)" y="-5986.64" x="1141.46" style="font-size:46.954;font-family:Arial;text-anchor:middle"/><text y="-1586.14" x="2718.13" line-height="125%" style="letter-spacing:0;word-spacing:0;font-size:129.23;font-family:&apos;Gentium Book Basic&apos;"><tspan y="-1586.14" x="2718.13"/></text><text transform="scale(4.0128.2492)" y="-6713.98" x="874.43" style="font-size:46.954;font-family:Arial;text-anchor:middle"/><text y="-1802.62" x="3816.18" line-height="125%" style="letter-spacing:0;word-spacing:0;font-size:129.23;font-family:&apos;Gentium Book Basic&apos;"><tspan y="-1802.62" x="3816.18"/></text><text transform="scale(4.0128.2492)" y="-7582.63" x="1148.06" style="font-size:46.954;font-family:Arial;text-anchor:middle"/><text y="-1882.62" x="4397.45" line-height="125%" style="letter-spacing:0;word-spacing:0;font-size:129.23;font-family:&apos;Gentium Book Basic&apos;"><tspan y="-1882.62" x="4397.45"/></text><text transform="scale(4.0128.2492)" y="-7903.67" x="1292.91" style="font-size:46.954;font-family:Arial;text-anchor:middle"/><text y="-2355.02" x="4008.33" line-height="125%" style="letter-spacing:0;word-spacing:0;font-size:129.23;font-family:&apos;Gentium Book Basic&apos;"><tspan y="-2355.02" x="4008.33"/></text><text transform="scale(4.0128.2492)" y="-9799.3" x="1195.94" style="font-size:46.954;font-family:Arial;text-anchor:middle"/><text y="-2435.02" x="4589.6" line-height="125%" style="letter-spacing:0;word-spacing:0;font-size:129.23;font-family:&apos;Gentium Book Basic&apos;"><tspan y="-2435.02" x="4589.6"/></text><text transform="scale(4.0128.2492)" y="-10120.33" x="1340.79" style="font-size:46.954;font-family:Arial;text-anchor:middle"/><g line-height="125%" style="letter-spacing:0;word-spacing:0;font-size:208.33;font-family:&apos;Gentium Book Basic&apos;"><text x="2756.79" y="-1020.31"><tspan x="2756.79" y="-1020.31"/></text><text x="-1785.82" y="-266.23"><tspan x="-1785.82" y="-266.23"/></text></g><text transform="scale(4.0128.2492)" y="-1631.21" x="-127.3" style="font-size:75.7;font-family:Arial;text-anchor:middle"/><text y="-266.23" x="-1785.82" line-height="125%" style="letter-spacing:0;word-spacing:0;font-size:208.33;font-family:&apos;Gentium Book Basic&apos;"><tspan y="-266.23" x="-1785.82"/></text><text transform="scale(4.0128.2492)" y="-1631.21" x="-127.3" style="font-size:75.7;font-family:Arial;text-anchor:middle"/><text y="366.68" x="-2119.37" line-height="125%" style="letter-spacing:0;word-spacing:0;font-size:208.33;font-family:&apos;Gentium Book Basic&apos;"><tspan y="366.68" x="-2119.37"/></text><text transform="scale(4.0128.2492)" y="908.55" x="-210.42" style="font-size:75.7;font-family:Arial;text-anchor:middle"/><text y="211.05" x="-1413.03" line-height="125%" style="letter-spacing:0;word-spacing:0;font-size:208.33;font-family:&apos;Gentium Book Basic&apos;"><tspan y="211.05" x="-1413.03"/></text><text transform="scale(4.0128.2492)" y="284.03" x="-34.4" style="font-size:75.7;font-family:Arial;text-anchor:middle"/><text y="282.64" x="1579.63" line-height="125%" style="letter-spacing:0;word-spacing:0;font-size:129.23;font-family:&apos;Gentium Book Basic&apos;"><tspan y="282.64" x="1579.63"/></text><text transform="scale(4.0128.2492)" y="785.04" x="590.73" style="font-size:46.954;font-family:Arial;text-anchor:middle"/><text y="202.64" x="2160.9" line-height="125%" style="letter-spacing:0;word-spacing:0;font-size:129.23;font-family:&apos;Gentium Book Basic&apos;"><tspan y="202.64" x="2160.9"/></text><text transform="scale(4.0128.2492)" y="464" x="735.58" style="font-size:46.954;font-family:Arial;text-anchor:middle"/><text y="21.382" x="1089.32" line-height="125%" style="letter-spacing:0;word-spacing:0;font-size:129.23;font-family:&apos;Gentium Book Basic&apos;"><tspan y="21.382" x="1089.32"/></text><text transform="scale(4.0128.2492)" y="-263.34" x="468.54" style="font-size:46.954;font-family:Arial;text-anchor:middle"/><text y="-195.09" x="2187.37" line-height="125%" style="letter-spacing:0;word-spacing:0;font-size:129.23;font-family:&apos;Gentium Book Basic&apos;"><tspan y="-195.09" x="2187.37"/></text><text transform="scale(4.0128.2492)" y="-1132.02" x="742.18" style="font-size:46.954;font-family:Arial;text-anchor:middle"/><text y="-275.1" x="2768.64" line-height="125%" style="letter-spacing:0;word-spacing:0;font-size:129.23;font-family:&apos;Gentium Book Basic&apos;"><tspan y="-275.1" x="2768.64"/></text><text transform="scale(4.0128.2492)" y="-1453.05" x="887.03" style="font-size:46.954;font-family:Arial;text-anchor:middle"/><text y="-747.5" x="2379.52" line-height="125%" style="letter-spacing:0;word-spacing:0;font-size:129.23;font-family:&apos;Gentium Book Basic&apos;"><tspan y="-747.5" x="2379.52"/></text><text transform="scale(4.0128.2492)" y="-3348.7" x="790.06" style="font-size:46.954;font-family:Arial;text-anchor:middle"/><text y="-827.5" x="2960.79" line-height="125%" style="letter-spacing:0;word-spacing:0;font-size:129.23;font-family:&apos;Gentium Book Basic&apos;"><tspan y="-827.5" x="2960.79"/></text><text transform="scale(4.0128.2492)" y="-3669.73" x="934.91" style="font-size:46.954;font-family:Arial;text-anchor:middle"/><g line-height="125%" style="letter-spacing:0;word-spacing:0;font-family:&apos;Gentium Book Basic&apos;"><text x="1127.98" y="587.22" style="font-size:208.33"><tspan x="1127.98" y="587.22"/></text><text x="4683.77" y="-460.24" style="font-size:129.23"><tspan x="4683.77" y="-460.24"/></text></g><text transform="scale(4.0128.2492)" y="-2195.98" x="1364.27" style="font-size:46.954;font-family:Arial;text-anchor:middle"/><text y="-540.24" x="5265.04" line-height="125%" style="letter-spacing:0;word-spacing:0;font-size:129.23;font-family:&apos;Gentium Book Basic&apos;"><tspan y="-540.24" x="5265.04"/></text><text transform="scale(4.0128.2492)" y="-2517.01" x="1509.12" style="font-size:46.954;font-family:Arial;text-anchor:middle"/><text y="-721.49" x="4193.46" line-height="125%" style="letter-spacing:0;word-spacing:0;font-size:129.23;font-family:&apos;Gentium Book Basic&apos;"><tspan y="-721.49" x="4193.46"/></text><text transform="scale(4.0128.2492)" y="-3244.37" x="1242.08" style="font-size:46.954;font-family:Arial;text-anchor:middle"/><text y="-937.97" x="5291.51" line-height="125%" style="letter-spacing:0;word-spacing:0;font-size:129.23;font-family:&apos;Gentium Book Basic&apos;"><tspan y="-937.97" x="5291.51"/></text><text transform="scale(4.0128.2492)" y="-4113.03" x="1515.72" style="font-size:46.954;font-family:Arial;text-anchor:middle"/><text y="-1017.97" x="5872.78" line-height="125%" style="letter-spacing:0;word-spacing:0;font-size:129.23;font-family:&apos;Gentium Book Basic&apos;"><tspan y="-1017.97" x="5872.78"/></text><text transform="scale(4.0128.2492)" y="-4434.06" x="1660.57" style="font-size:46.954;font-family:Arial;text-anchor:middle"/><text y="-1490.37" x="5483.66" line-height="125%" style="letter-spacing:0;word-spacing:0;font-size:129.23;font-family:&apos;Gentium Book Basic&apos;"><tspan y="-1490.37" x="5483.66"/></text><text transform="scale(4.0128.2492)" y="-6329.72" x="1563.6" style="font-size:46.954;font-family:Arial;text-anchor:middle"/><text y="-1570.37" x="6064.92" line-height="125%" style="letter-spacing:0;word-spacing:0;font-size:129.23;font-family:&apos;Gentium Book Basic&apos;"><tspan y="-1570.37" x="6064.92"/></text><text transform="scale(4.0128.2492)" y="-6650.75" x="1708.45" style="font-size:46.954;font-family:Arial;text-anchor:middle"/><g line-height="125%" style="letter-spacing:0;word-spacing:0;font-family:&apos;Gentium Book Basic&apos;"><text y="-155.66" x="4232.12" style="font-size:208.33"><tspan y="-155.66" x="4232.12"/></text><text y="231.36" x="729.64" style="font-size:129.23"><tspan y="231.36" x="729.64"/></text></g><text transform="scale(4.0128.2492)" y="579.26" x="378.91" style="font-size:46.954;font-family:Arial;text-anchor:middle"/><text y="151.36" x="1310.91" line-height="125%" style="letter-spacing:0;word-spacing:0;font-size:129.23;font-family:&apos;Gentium Book Basic&apos;"><tspan y="151.36" x="1310.91"/></text><text transform="scale(4.0128.2492)" y="258.22" x="523.76" style="font-size:46.954;font-family:Arial;text-anchor:middle"/><text y="-29.9" x="239.33" line-height="125%" style="letter-spacing:0;word-spacing:0;font-size:129.23;font-family:&apos;Gentium Book Basic&apos;"><tspan y="-29.9" x="239.33"/></text><text transform="scale(4.0128.2492)" y="-469.13" x="256.72" style="font-size:46.954;font-family:Arial;text-anchor:middle"/><text y="-246.37" x="1337.38" line-height="125%" style="letter-spacing:0;word-spacing:0;font-size:129.23;font-family:&apos;Gentium Book Basic&apos;"><tspan y="-246.37" x="1337.38"/></text><text transform="scale(4.0128.2492)" y="-1337.8" x="530.36" style="font-size:46.954;font-family:Arial;text-anchor:middle"/><text y="-326.37" x="1918.65" line-height="125%" style="letter-spacing:0;word-spacing:0;font-size:129.23;font-family:&apos;Gentium Book Basic&apos;"><tspan y="-326.37" x="1918.65"/></text><text transform="scale(4.0128.2492)" y="-1658.83" x="675.21" style="font-size:46.954;font-family:Arial;text-anchor:middle"/><text y="-798.77" x="1529.53" line-height="125%" style="letter-spacing:0;word-spacing:0;font-size:129.23;font-family:&apos;Gentium Book Basic&apos;"><tspan y="-798.77" x="1529.53"/></text><text transform="scale(4.0128.2492)" y="-3554.48" x="578.24" style="font-size:46.954;font-family:Arial;text-anchor:middle"/><text y="-878.78" x="2110.79" line-height="125%" style="letter-spacing:0;word-spacing:0;font-size:129.23;font-family:&apos;Gentium Book Basic&apos;"><tspan y="-878.78" x="2110.79"/></text><text transform="scale(4.0128.2492)" y="-3875.52" x="723.09" style="font-size:46.954;font-family:Arial;text-anchor:middle"/><g line-height="125%" style="letter-spacing:0;word-spacing:0;font-family:&apos;Gentium Book Basic&apos;"><text y="535.94" x="277.99" style="font-size:208.33"><tspan y="535.94" x="277.99"/></text><text x="1781.5" y="272.72" style="font-size:129.23"><tspan x="1781.5" y="272.72"/></text></g><text x="641.03" y="745.22" transform="scale(4.0128.2492)" style="font-size:46.954;font-family:Arial;text-anchor:middle"/><text x="2362.77" y="192.72" line-height="125%" style="letter-spacing:0;word-spacing:0;font-size:129.23;font-family:&apos;Gentium Book Basic&apos;"><tspan x="2362.77" y="192.72"/></text><text x="785.88" y="424.18" transform="scale(4.0128.2492)" style="font-size:46.954;font-family:Arial;text-anchor:middle"/><text x="1291.19" y="11.457" line-height="125%" style="letter-spacing:0;word-spacing:0;font-size:129.23;font-family:&apos;Gentium Book Basic&apos;"><tspan x="1291.19" y="11.457"/></text><text x="518.84" y="-303.17" transform="scale(4.0128.2492)" style="font-size:46.954;font-family:Arial;text-anchor:middle"/><text x="2389.24" y="-205.01" line-height="125%" style="letter-spacing:0;word-spacing:0;font-size:129.23;font-family:&apos;Gentium Book Basic&apos;"><tspan x="2389.24" y="-205.01"/></text><text x="792.48" y="-1171.84" transform="scale(4.0128.2492)" style="font-size:46.954;font-family:Arial;text-anchor:middle"/><text x="2970.51" y="-285.01" line-height="125%" style="letter-spacing:0;word-spacing:0;font-size:129.23;font-family:&apos;Gentium Book Basic&apos;"><tspan x="2970.51" y="-285.01"/></text><text x="937.33" y="-1492.87" transform="scale(4.0128.2492)" style="font-size:46.954;font-family:Arial;text-anchor:middle"/><text x="2581.39" y="-757.41" line-height="125%" style="letter-spacing:0;word-spacing:0;font-size:129.23;font-family:&apos;Gentium Book Basic&apos;"><tspan x="2581.39" y="-757.41"/></text><text x="840.36" y="-3388.52" transform="scale(4.0128.2492)" style="font-size:46.954;font-family:Arial;text-anchor:middle"/><text x="3162.65" y="-837.42" line-height="125%" style="letter-spacing:0;word-spacing:0;font-size:129.23;font-family:&apos;Gentium Book Basic&apos;"><tspan x="3162.65" y="-837.42"/></text><text x="985.21" y="-3709.56" transform="scale(4.0128.2492)" style="font-size:46.954;font-family:Arial;text-anchor:middle"/><text x="1329.85" y="577.3" line-height="125%" style="letter-spacing:0;word-spacing:0;font-size:208.33;font-family:&apos;Gentium Book Basic&apos;"><tspan x="1329.85" y="577.3"/></text><g style="fill-rule:evenodd"><path d="m471.95 253.05c0 120.9-98.01 218.91-218.91 218.91-120.9 0-218.91-98.01-218.91-218.91 0-120.9 98.01-218.91 218.91-218.91 120.9 0 218.91 98.01 218.91 218.91" style="fill:#c02929"/><path d="m256 1c-140.83 0-255 114.17-255 255 0 140.83 114.17 255 255 255 140.83 0 255-114.17 255-255 0-140.83-114.17-255-255-255m8.827 44.931c120.9 0 218.9 98 218.9 218.9 0 120.9-98 218.9-218.9 218.9-120.9 0-218.93-98-218.93-218.9 0-120.9 98.03-218.9 218.93-218.9" style="fill-opacity:.067"/><g style="fill-opacity:.129"><path d="m256 4.43c-138.94 0-251.57 112.63-251.57 251.57 0 138.94 112.63 251.57 251.57 251.57 138.94 0 251.57-112.63 251.57-251.57 0-138.94-112.63-251.57-251.57-251.57m5.885 38.556c120.9 0 218.9 98 218.9 218.9 0 120.9-98 218.9-218.9 218.9-120.9 0-218.93-98-218.93-218.9 0-120.9 98.03-218.9 218.93-218.9"/><path d="m256 8.36c-136.77 0-247.64 110.87-247.64 247.64 0 136.77 110.87 247.64 247.64 247.64 136.77 0 247.64-110.87 247.64-247.64 0-136.77-110.87-247.64-247.64-247.64m2.942 31.691c120.9 0 218.9 98 218.9 218.9 0 120.9-98 218.9-218.9 218.9-120.9 0-218.93-98-218.93-218.9 0-120.9 98.03-218.9 218.93-218.9"/></g><path d="m253.04 7.86c-135.42 0-245.19 109.78-245.19 245.19 0 135.42 109.78 245.19 245.19 245.19 135.42 0 245.19-109.78 245.19-245.19 0-135.42-109.78-245.19-245.19-245.19m0 26.297c120.9 0 218.9 98 218.9 218.9 0 120.9-98 218.9-218.9 218.9-120.9 0-218.93-98-218.93-218.9 0-120.9 98.03-218.9 218.93-218.9z" style="stroke-opacity:.31;fill:#fff;stroke:#000;stroke-width:4.904"/></g><text x="729.64" y="231.36" line-height="125%" style="letter-spacing:0;word-spacing:0;font-size:129.23;font-family:&apos;Gentium Book Basic&apos;"><tspan x="729.64" y="231.36"/></text><text x="378.91" y="579.26" transform="scale(4.0128.2492)" style="font-size:46.954;font-family:Arial;text-anchor:middle"/><text x="1310.91" y="151.36" line-height="125%" style="letter-spacing:0;word-spacing:0;font-size:129.23;font-family:&apos;Gentium Book Basic&apos;"><tspan x="1310.91" y="151.36"/></text><text x="523.76" y="258.22" transform="scale(4.0128.2492)" style="font-size:46.954;font-family:Arial;text-anchor:middle"/><text x="239.33" y="-29.9" line-height="125%" style="letter-spacing:0;word-spacing:0;font-size:129.23;font-family:&apos;Gentium Book Basic&apos;"><tspan x="239.33" y="-29.9"/></text><text x="256.72" y="-469.13" transform="scale(4.0128.2492)" style="font-size:46.954;font-family:Arial;text-anchor:middle"/><text x="1337.38" y="-246.37" line-height="125%" style="letter-spacing:0;word-spacing:0;font-size:129.23;font-family:&apos;Gentium Book Basic&apos;"><tspan x="1337.38" y="-246.37"/></text><text x="530.36" y="-1337.8" transform="scale(4.0128.2492)" style="font-size:46.954;font-family:Arial;text-anchor:middle"/><text x="1918.65" y="-326.37" line-height="125%" style="letter-spacing:0;word-spacing:0;font-size:129.23;font-family:&apos;Gentium Book Basic&apos;"><tspan x="1918.65" y="-326.37"/></text><text x="675.21" y="-1658.83" transform="scale(4.0128.2492)" style="font-size:46.954;font-family:Arial;text-anchor:middle"/><text x="1529.53" y="-798.77" line-height="125%" style="letter-spacing:0;word-spacing:0;font-size:129.23;font-family:&apos;Gentium Book Basic&apos;"><tspan x="1529.53" y="-798.77"/></text><text x="578.24" y="-3554.48" transform="scale(4.0128.2492)" style="font-size:46.954;font-family:Arial;text-anchor:middle"/><text x="2110.79" y="-878.78" line-height="125%" style="letter-spacing:0;word-spacing:0;font-size:129.23;font-family:&apos;Gentium Book Basic&apos;"><tspan x="2110.79" y="-878.78"/></text><text x="723.09" y="-3875.52" transform="scale(4.0128.2492)" style="font-size:46.954;font-family:Arial;text-anchor:middle"/><text x="277.99" y="535.94" line-height="125%" style="letter-spacing:0;word-spacing:0;font-size:208.33;font-family:&apos;Gentium Book Basic&apos;"><tspan x="277.99" y="535.94"/></text><path d="m199.32 195.43v5.723l-5.717-5.717h-52.55-52.55v15.535 15.535l33.986 33.986v11.04l.002.002v45.03l154.13 154.13c103.18-11.05 184.89-93.78 194.39-197.41l-63.736-63.736c-5.961-5.961-13.415-10.06-22.32-12.252-3.03-.747-6.09-1.235-10.375-1.654-.99-.096-10.162-.143-34.13-.172l-32.781-.039v6.289l-6.289-6.289h-51.03-51.03" style="opacity:.25"/><path d="m122.48 271.53v-45.03h-16.993-16.993v-15.535-15.535h52.55 52.55v15.535 15.535h-16.937-16.937v45.03 45.03h-18.619-18.619v-45.03m76.83-15.535v-60.57h51.03 51.03v15.479 15.479h-26.62c-14.641 0-29.2.034-32.359.074l-5.739.074v7.441 7.441h32.359 32.359v14.413 14.413h-32.359-32.359v7.627 7.627h32.359 32.359v15.535 15.535h-51.03-51.03v-60.57m108.35.001v-60.57l32.78.04c23.967.029 33.14.076 34.13.172 4.285.419 7.345.907 10.375 1.654 12.615 3.111 22.316 10.03 28.991 20.673 3.547 5.656 6.259 12.663 7.841 20.259 1.639 7.865 2.138 17.504 1.354 26.12-1.166 12.807-4.906 23.381-11.182 31.618-8.911 11.695-22.697 18.467-41.04 20.16-4.496.415-7.212.449-35.571.45h-27.677v-60.57m57.27 29.2c5.927-.961 10.141-3.02 13.756-6.716 4.878-4.991 7.496-12.943 7.509-22.812.01-4.574-.499-7.93-1.773-11.777-.585-1.768-1.883-4.516-2.794-5.916-4.419-6.796-11.179-10.477-20.856-11.357-.679-.062-4.502-.112-8.496-.112h-7.263v29.505 29.505l9.226-.041c8.753-.038 9.301-.053 10.691-.278" style="fill:#fff"/></svg>