<svg xmlns="http://www.w3.org/2000/svg" id="svg2" width="100%" height="100%" version="1.1" viewBox="0 0 512 512"><metadata id="metadata290"/><path id="path4" fill="#0078ad" fill-rule="evenodd" d="m471.95 253.05c0 120.9-98.01 218.9-218.9 218.9-120.9 0-218.9-98.01-218.9-218.9 0-120.9 98.01-218.9 218.9-218.9 120.9 0 218.9 98.01 218.9 218.9"/><path id="path6" fill-opacity=".235" d="m163.37 157.09c-2.193-0.022-4.602 0.198-7.75 0.688-10.52 1.063-10.751 18.366-16.906 26.22-13.617 27.849-24.326 57.45-40.22 83.938-5.092 8.804-4.975 13.52-13.406 22.16 20.5 19.865 0.003 0.165 19.813 19.844 0.354 5.894-13.437 15.848-18.06 23.906-1.323 3.764-1.031 7.07 0.281 10.09 39.22 40.21 82.75 82.985 121.53 121.53 16.994 4.233 34.758 6.5 53.06 6.5 120.9 0 218.91-98.01 218.91-218.91 0-10.867-0.783-21.557-2.313-32-21.701-20.927-55.617-52.93-65.62-63.25-14.587 12.889-15.806 5.257-36.16-0.563-19.38 4.439-32.393 26.675-45.47 29.16-25.965-21.21-13.12-11.154-26.22-21.563-13.486-9.718-31.25-6.944-47.813-7-13 0-24.893 0.563-37.875 0.563-2.145 7.144-0.475 11.08-2.938 15.188 11.36 9.55 8.818 7.02 11.09 9.313 6.491 0.877-0.478 35.15-3.5 25.06-17.515-15.184-34.823-33.28-50.16-50.12-2.667 0.205-5.358-0.37-8.156-0.594l0.031-0.031c-0.695-0.056-1.425-0.118-2.156-0.125"/><g id="g8" fill-rule="evenodd"><path id="path10" fill-opacity=".067" d="m256 1c-140.83 0-255 114.17-255 255s114.17 255 255 255 255-114.17 255-255-114.17-255-255-255m8.827 44.931c120.9 0 218.9 98 218.9 218.9s-98 218.9-218.9 218.9-218.93-98-218.93-218.9 98.03-218.9 218.93-218.9"/><g id="g12" fill-opacity=".129"><path id="path14" d="m256 4.433c-138.94 0-251.57 112.63-251.57 251.57s112.63 251.57 251.57 251.57 251.57-112.63 251.57-251.57-112.63-251.57-251.57-251.57m5.885 38.556c120.9 0 218.9 98 218.9 218.9s-98 218.9-218.9 218.9-218.93-98-218.93-218.9 98.03-218.9 218.93-218.9"/><path id="path16" d="m256 8.356c-136.77 0-247.64 110.87-247.64 247.64s110.87 247.64 247.64 247.64 247.64-110.87 247.64-247.64-110.87-247.64-247.64-247.64m2.942 31.691c120.9 0 218.9 98 218.9 218.9s-98 218.9-218.9 218.9-218.93-98-218.93-218.9 98.03-218.9 218.93-218.9"/></g><path id="path18" fill="#fff" stroke="#000" stroke-opacity=".31" stroke-width="4.904" d="m253.04 7.859c-135.42 0-245.19 109.78-245.19 245.19 0 135.42 109.78 245.19 245.19 245.19 135.42 0 245.19-109.78 245.19-245.19 0-135.42-109.78-245.19-245.19-245.19zm0 26.297c120.9 0 218.9 98 218.9 218.9s-98 218.9-218.9 218.9-218.93-98-218.93-218.9 98.03-218.9 218.93-218.9z"/></g><g id="g274" fill="#fff" transform="matrix(18.653 0 0 18.653 47.17 45.865)"><g id="g276" transform="scale(.881 1.1351)"><path id="path278" d="m7.703 5.273h-1.388l-2.556 4.33c-0.046 0.074-0.101 0.184-0.175 0.303-0.276 0.524-0.561 0.735-1.177 0.883l-0.138 0.745h2.657l0.138-0.745-0.175-0.018c-0.377-0.046-0.533-0.12-0.533-0.276 0-0.11 0.009-0.12 0.147-0.386l0.423-0.8h2.041l0.147 0.708c0.037 0.175 0.064 0.34 0.064 0.423 0 0.184-0.129 0.257-0.524 0.313l-0.175 0.018-0.129 0.018-0.138 0.745h3.236l0.138-0.745c-0.046-0.009-0.092-0.028-0.11-0.028-0.386-0.092-0.414-0.101-0.515-0.257-0.046-0.064-0.092-0.202-0.193-0.607l-1.066-4.624m-0.873 3.319h-1.508l1.131-2 0.377 2"/><path id="path280" d="m10.404 5.273-0.129 0.745 0.202 0.018c0.331 0.028 0.487 0.165 0.487 0.423 0 0.092-0.018 0.248-0.037 0.359l-0.579 3.172c-0.11 0.57-0.248 0.717-0.735 0.781l-0.202 0.018-0.138 0.745h3.87c0.873 0 1.554-0.202 2.041-0.607 0.46-0.386 0.754-0.974 0.754-1.526 0-0.717-0.588-1.214-1.453-1.232 0.984-0.12 1.664-0.763 1.664-1.581 0-0.45-0.23-0.855-0.607-1.066-0.331-0.184-0.754-0.248-1.673-0.248h-3.466m1.802 3.3h0.772c0.855 0 1.177 0.221 1.177 0.818 0 0.377-0.156 0.717-0.46 0.993-0.294 0.276-0.598 0.377-1.076 0.377s-0.708-0.11-0.708-0.34c0-0.028 0.028-0.276 0.092-0.735l0.202-1.112m0.138-0.763 0.202-1.103c0.074-0.386 0.138-0.533 0.257-0.588 0.138-0.074 0.331-0.101 0.616-0.101 0.726 0 1.103 0.257 1.103 0.763 0 0.671-0.57 1.03-1.609 1.03h-0.57"/><path id="path282" d="m22.24 5.273h-0.515l-0.11 0.276c-0.616-0.285-1.039-0.395-1.544-0.395-1.094 0-2.041 0.46-2.694 1.305-0.561 0.726-0.892 1.636-0.892 2.482 0 0.68 0.285 1.397 0.735 1.866 0.524 0.533 1.324 0.846 2.197 0.846 1.305 0 2.39-0.607 3.135-1.765l-0.634-0.414c-0.533 0.809-1.379 1.333-2.142 1.333-0.956 0-1.526-0.653-1.526-1.756 0-0.791 0.23-1.618 0.607-2.197 0.377-0.57 0.827-0.855 1.351-0.855 0.478 0 0.938 0.257 1.259 0.69 0.285 0.386 0.496 0.827 0.552 1.14l0.68-0.147-0.46-2.409"/></g><path id="path284" d="m3.3438 13.879a0.39145 0.39145 0 0 0 -0.1875 0.15625l-1.094 1.469a0.40323 0.40323 0 1 0 0.65625 0.46875l0.75-1.063 0.75 1.063a0.39145 0.39145 0 0 0 0.65625 0l0.75-1.063 0.75 1.063a0.39145 0.39145 0 0 0 0.625 0l0.781-1.063 0.75 1.063a0.39145 0.39145 0 0 0 0.625 0l0.781-1.063 0.75 1.063a0.39145 0.39145 0 0 0 0.59375 0.03125 0.39145 0.39145 0 0 0 0.03125 -0.03125l0.75-1.063 0.781 1.063a0.39145 0.39145 0 0 0 0.625 0l0.75-1.063 0.781 1.063a0.39145 0.39145 0 0 0 0.625 0l0.75-1.063 0.75 1.063a0.39145 0.39145 0 0 0 0.65625 0l0.75-1.063 0.75 1.063a0.40323 0.40323 0 1 0 0.65625 -0.46875l-1.094-1.469a0.39145 0.39145 0 0 0 -0.625 0l-0.781 1.031-0.75-1.031a0.39145 0.39145 0 0 0 -0.625 0l-0.75 1.031-0.781-1.031a0.39145 0.39145 0 0 0 -0.625 0l-0.75 1.031-0.75-1.031a0.39145 0.39145 0 0 0 -0.65625 0l-0.75 1.031-0.75-1.031a0.39145 0.39145 0 0 0 -0.65625 0l-0.75 1.031-0.75-1.031a0.39145 0.39145 0 0 0 -0.625 0l-0.781 1.031-0.75-1.031a0.39145 0.39145 0 0 0 -0.625 0l-0.75 1.031-0.781-1.031a0.39145 0.39145 0 0 0 -0.4375 -0.15625" style="color:#000"/></g></svg>