<svg xmlns="http://www.w3.org/2000/svg" xmlns:xlink="http://www.w3.org/1999/xlink" viewBox="0 0 512 512"><defs><use id="5" xlink:href="#W"/><use id="6" xlink:href="#W"/><use id="7" xlink:href="#W"/><use id="8" xlink:href="#W"/><use id="9" xlink:href="#W"/><use id="A" xlink:href="#W"/><use id="B" xlink:href="#W"/><use id="M" xlink:href="#W"/><use id="N" xlink:href="#W"/><use id="O" xlink:href="#W"/><use id="P" xlink:href="#W"/><use id="Q" xlink:href="#W"/><use id="R" xlink:href="#W"/><use id="S" xlink:href="#W"/><path id="W" d="m296 26a10 10 0 1 1 -20 0 10 10 0 1 1 20 0" style="fill:none;color:#000"/><clipPath><rect y="32" x="292" height="88" width="88" rx="18" style="fill:url(#E);color:#bebebe"/></clipPath><clipPath><rect width="22" height="22" x="417" y="101" rx="5" style="fill:url(#D);color:#bebebe"/></clipPath><clipPath><use transform="matrix(8 0 0 8-2141.58-54.42)" xlink:href="#P"/></clipPath><clipPath><rect y="32" x="292" height="88" width="88" rx="18" style="fill:url(#E);color:#bebebe"/></clipPath><clipPath><rect width="60" height="60" x="290" y="142" rx="12.5" style="fill:url(#F);color:#bebebe"/></clipPath><clipPath><use transform="matrix(8 0 0 8-2141.58-54.42)" xlink:href="#S"/></clipPath><clipPath><rect y="53" x="417" height="30" width="30" rx="7" style="fill:url(#C);color:#bebebe"/></clipPath><clipPath><rect y="53" x="417" height="30" width="30" rx="7" style="fill:url(#C);color:#bebebe"/></clipPath><clipPath><use xlink:href="#9"/></clipPath><clipPath><use transform="matrix(8 0 0 8-2141.58-54.42)" xlink:href="#9"/></clipPath><clipPath><rect width="60" height="60" x="290" y="142" rx="12.5" style="fill:url(#F);color:#bebebe"/></clipPath><clipPath><use xlink:href="#A"/></clipPath><clipPath><use xlink:href="#B"/></clipPath><clipPath><use transform="matrix(8 0 0 8-2141.58-54.42)" xlink:href="#B"/></clipPath><clipPath><use transform="matrix(8 0 0 8-2141.58-54.42)" xlink:href="#A"/></clipPath><clipPath><rect width="220" height="220" x="34" y="46" rx="50" style="fill:url(#G);color:#bebebe"/></clipPath><clipPath><use transform="matrix(8 0 0 8-2141.58-54.42)" xlink:href="#M"/></clipPath><clipPath><use xlink:href="#N"/></clipPath><clipPath><use xlink:href="#S"/></clipPath><clipPath><use transform="matrix(8 0 0 8-2141.58-54.42)" xlink:href="#N"/></clipPath><clipPath><use transform="matrix(8 0 0 8-2141.58-54.42)" xlink:href="#O"/></clipPath><clipPath><use xlink:href="#P"/></clipPath><clipPath><use xlink:href="#O"/></clipPath><clipPath><use xlink:href="#M"/></clipPath><clipPath><rect transform="matrix(0 1-1 0 0 0)" y="212" x="304" height="16" width="16" rx="3" style="fill:url(#H);color:#bebebe"/></clipPath><clipPath><use transform="matrix(8 0 0 8-2141.58-54.42)" xlink:href="#R"/></clipPath><clipPath><use xlink:href="#Q"/></clipPath><clipPath><rect y="37" x="433" height="30" width="30" rx="6" style="fill:url(#I);color:#bebebe"/></clipPath><clipPath><use xlink:href="#R"/></clipPath><clipPath><rect transform="matrix(0 1-1 0 0 0)" width="42" height="42" x="307" y="223" rx="9" style="fill:url(#K);color:#bebebe"/></clipPath><clipPath><rect width="22" height="22" x="433" y="85" rx="4" style="fill:url(#J);color:#bebebe"/></clipPath><clipPath><use transform="matrix(8 0 0 8-2141.58-54.42)" xlink:href="#Q"/></clipPath><clipPath><use transform="matrix(8 0 0 8-2141.58-54.42)" xlink:href="#8"/></clipPath><clipPath><path d="m145 215c33.14 0 60-26.863 60-60 0-33.14-26.863-60-60-60-33.14 0-60 26.863-60 60 0 12.507 3.829 24.11 10.375 33.719l-6.375 22.281 22.281-6.375c9.612 6.547 21.21 10.375 33.719 10.375"/></clipPath><clipPath><rect width="16" x="432" y="116" rx="3" height="16" style="color:#bebebe"/></clipPath><clipPath><rect width="60" x="306" y="142" rx="12.5" height="60" transform="matrix(0-1 1 0 0 0)" style="fill:url(#1);color:#bebebe"/></clipPath><clipPath><path d="m144 70c-49.706 0-90 40.29-90 90 0 49.706 40.29 90 90 90 49.706 0 90-40.29 90-90 0-49.706-40.29-90-90-90m0 32.19c32.03 0 58 25.967 58 58 0 32.03-25.967 58-58 58-32.03 0-58-25.967-58-58 0-32.03 25.967-58 58-58"/></clipPath><clipPath><rect width="30" x="433" y="29" rx="4" height="30" style="fill:#6d6d6d;opacity:.2;color:#bebebe"/></clipPath><clipPath><use xlink:href="#8"/></clipPath><clipPath><rect width="22" x="433" y="77" rx="3" height="22" style="fill:#6d6d6d;opacity:.2;color:#bebebe"/></clipPath><clipPath><path d="m152 204a8 8 0 1 1 -16 0 8 8 0 1 1 16 0"/></clipPath><clipPath><rect width="22" height="22" x="417" y="101" rx="5" style="fill:url(#D);color:#bebebe"/></clipPath><clipPath><rect width="84" height="84" rx="6" x="6" y="6" style="fill:#fff"/></clipPath><clipPath><path d="m98.03 23.19c-41.492 1.052-74.844 35.07-74.844 76.81 0 42.41 34.406 76.81 76.81 76.81 42.41 0 76.81-34.406 76.81-76.81 0-42.41-34.406-76.81-76.81-76.81-.663 0-1.31-.017-1.969 0m1.969 27.469c27.24 0 49.34 22.1 49.34 49.34 0 27.24-22.1 49.34-49.34 49.34-27.24 0-49.34-22.1-49.34-49.34 0-27.24 22.1-49.34 49.34-49.34"/></clipPath><clipPath><path d="m489.22 197.28c-2.603 0-3.953-1.367-3.953-3.971v-1.034c0-2.604 1.35-3.971 3.953-3.971h1.035c2.62 0 3.97 1.367 3.97 3.971v1.034c0 2.604-1.35 3.971-3.97 3.971h-1.035"/></clipPath><clipPath><path d="m471.95 253.05c0 120.9-98.01 218.91-218.91 218.91-120.9 0-218.91-98.01-218.91-218.91 0-120.9 98.01-218.91 218.91-218.91 120.9 0 218.91 98.01 218.91 218.91"/></clipPath><clipPath><rect width="16" x="432" y="116" rx="2" height="16" style="fill:#6d6d6d;opacity:.2;color:#bebebe"/></clipPath><clipPath><rect width="42" x="307" y="223" rx="9" height="42" transform="matrix(0 1-1 0 0 0)" style="fill:url(#4);color:#bebebe"/></clipPath><clipPath><rect width="240" x="24" y="36" rx="50" height="240" style="fill:#986767;color:#bebebe"/></clipPath><clipPath><rect width="90" x="307" y="31" rx="18.75" height="90" style="fill:url(#2);color:#bebebe"/></clipPath><clipPath><use xlink:href="#5"/></clipPath><clipPath><use transform="matrix(8 0 0 8-2141.58-54.42)" xlink:href="#5"/></clipPath><clipPath><rect width="30" x="433" y="29" rx="6" height="30" style="color:#bebebe"/></clipPath><clipPath><use xlink:href="#6"/></clipPath><clipPath><use xlink:href="#7"/></clipPath><clipPath><use transform="matrix(8 0 0 8-2141.58-54.42)" xlink:href="#7"/></clipPath><clipPath><use transform="matrix(8 0 0 8-2141.58-54.42)" xlink:href="#6"/></clipPath><clipPath><rect width="220" height="220" x="34" y="46" rx="50" style="fill:url(#G);color:#bebebe"/></clipPath><clipPath><rect width="22" x="433" y="77" rx="5" height="22" style="color:#bebebe"/></clipPath><clipPath><rect width="22" x="433" y="77" rx="4" height="22" style="color:#bebebe"/></clipPath><clipPath><rect transform="matrix(0 1-1 0 0 0)" y="212" x="304" height="16" width="16" rx="3" style="fill:url(#H);color:#bebebe"/></clipPath><clipPath><rect width="20" x="434" y="78" rx="4" height="20" style="color:#bebebe"/></clipPath><clipPath><rect transform="matrix(0 1-1 0 0 0)" width="42" height="42" x="307" y="223" rx="9" style="fill:url(#K);color:#bebebe"/></clipPath><clipPath><rect width="22" height="22" x="433" y="85" rx="4" style="fill:url(#J);color:#bebebe"/></clipPath><clipPath><rect y="37" x="433" height="30" width="30" rx="6" style="fill:url(#I);color:#bebebe"/></clipPath><filter style="color-interpolation-filters:sRGB"><feGaussianBlur stdDeviation="1.71"/></filter><filter id="U"><feGaussianBlur stdDeviation="4.79818"/></filter><linearGradient y2="100" x2="0" y1="124" gradientUnits="userSpaceOnUse" id="D" xlink:href="#L"/><linearGradient id="4" xlink:href="#3" y1="265" y2="223" x2="0" gradientUnits="userSpaceOnUse"/><linearGradient id="3"><stop style="stop-color:#151515"/><stop offset="1" style="stop-color:#222"/></linearGradient><linearGradient id="L"><stop style="stop-color:#620000"/><stop offset="1" style="stop-color:#dd0f0f"/></linearGradient><linearGradient id="2" xlink:href="#3" y1="102.25" y2="49.75" x2="0" gradientUnits="userSpaceOnUse"/><linearGradient id="1" xlink:href="#3" y1="189.5" y2="154.5" x2="0" gradientUnits="userSpaceOnUse"/><linearGradient gradientTransform="scale(1.0059.99417)" gradientUnits="userSpaceOnUse" id="0" y2="7.02" x2="0" y1="92.54"><stop/><stop offset="1" style="stop-opacity:.588"/></linearGradient><linearGradient xlink:href="#3" y1="275" y2="39" x1="24" x2="25" gradientUnits="userSpaceOnUse"/><linearGradient xlink:href="#0" gradientUnits="userSpaceOnUse" gradientTransform="scale(1.0059.99417)" y1="92.54" x2="0" y2="7.02"/><linearGradient y2="52" x2="0" y1="84" gradientUnits="userSpaceOnUse" id="C" xlink:href="#L"/><linearGradient y2="223" x2="0" y1="265" gradientUnits="userSpaceOnUse" id="K" xlink:href="#L"/><linearGradient y2="85" x2="0" y1="107" gradientUnits="userSpaceOnUse" id="J" xlink:href="#L"/><linearGradient id="T" x1="109.47" x2="402.68" gradientUnits="userSpaceOnUse"><stop style="stop-color:#de6f42"/><stop offset=".5" style="stop-color:#a7d138"/><stop offset="1" style="stop-color:#69cdbf"/></linearGradient><linearGradient y2="37" x2="0" y1="67" gradientUnits="userSpaceOnUse" id="I" xlink:href="#L"/><linearGradient y2="212" x2="0" y1="228" gradientUnits="userSpaceOnUse" id="H" xlink:href="#L"/><linearGradient y2="28" x2="0" y1="124" gradientUnits="userSpaceOnUse" id="E" xlink:href="#L"/><linearGradient y2="36" x2="0" y1="276" gradientUnits="userSpaceOnUse" id="G" xlink:href="#L"/><linearGradient y2="140" x2="0" y1="204" gradientUnits="userSpaceOnUse" id="F" xlink:href="#L"/><radialGradient gradientUnits="userSpaceOnUse" cx="64" cy="64" r="64" gradientTransform="matrix(4.16583 0 0 3.88749 660.12-262.53)"><stop style="stop-color:#fff"/><stop offset=".688" style="stop-color:#e8e8e8"/><stop offset=".875" style="stop-color:#686868"/><stop offset="1"/></radialGradient><radialGradient gradientUnits="userSpaceOnUse" gradientTransform="matrix(.92072.86717-.68562.72796 140.13-110.56)" r="218.91" cy="183" cx="184.91" id="V"><stop style="stop-color:#535353"/><stop offset="1" style="stop-color:#282629"/></radialGradient></defs><text x="729.64" y="231.36" line-height="125%" style="letter-spacing:0;word-spacing:0;font-size:129.23;font-family:&apos;Gentium Book Basic&apos;"><tspan x="729.64" y="231.36"/></text><text x="378.91" y="579.26" transform="scale(4.0128.2492)" style="font-size:46.954;font-family:Arial;text-anchor:middle"/><text x="1310.91" y="151.36" line-height="125%" style="letter-spacing:0;word-spacing:0;font-size:129.23;font-family:&apos;Gentium Book Basic&apos;"><tspan x="1310.91" y="151.36"/></text><text x="523.76" y="258.22" transform="scale(4.0128.2492)" style="font-size:46.954;font-family:Arial;text-anchor:middle"/><text x="239.33" y="-29.9" line-height="125%" style="letter-spacing:0;word-spacing:0;font-size:129.23;font-family:&apos;Gentium Book Basic&apos;"><tspan x="239.33" y="-29.9"/></text><text x="256.72" y="-469.13" transform="scale(4.0128.2492)" style="font-size:46.954;font-family:Arial;text-anchor:middle"/><text x="1337.38" y="-246.37" line-height="125%" style="letter-spacing:0;word-spacing:0;font-size:129.23;font-family:&apos;Gentium Book Basic&apos;"><tspan x="1337.38" y="-246.37"/></text><text x="530.36" y="-1337.8" transform="scale(4.0128.2492)" style="font-size:46.954;font-family:Arial;text-anchor:middle"/><text x="1918.65" y="-326.37" line-height="125%" style="letter-spacing:0;word-spacing:0;font-size:129.23;font-family:&apos;Gentium Book Basic&apos;"><tspan x="1918.65" y="-326.37"/></text><text x="675.21" y="-1658.83" transform="scale(4.0128.2492)" style="font-size:46.954;font-family:Arial;text-anchor:middle"/><text x="1529.53" y="-798.77" line-height="125%" style="letter-spacing:0;word-spacing:0;font-size:129.23;font-family:&apos;Gentium Book Basic&apos;"><tspan x="1529.53" y="-798.77"/></text><text x="578.24" y="-3554.48" transform="scale(4.0128.2492)" style="font-size:46.954;font-family:Arial;text-anchor:middle"/><text x="2110.79" y="-878.78" line-height="125%" style="letter-spacing:0;word-spacing:0;font-size:129.23;font-family:&apos;Gentium Book Basic&apos;"><tspan x="2110.79" y="-878.78"/></text><text x="723.09" y="-3875.52" transform="scale(4.0128.2492)" style="font-size:46.954;font-family:Arial;text-anchor:middle"/><text x="277.99" y="535.94" line-height="125%" style="letter-spacing:0;word-spacing:0;font-size:208.33;font-family:&apos;Gentium Book Basic&apos;"><tspan x="277.99" y="535.94"/></text><g style="fill-rule:evenodd"><path d="m471.95 253.05c0 120.9-98.01 218.91-218.91 218.91-120.9 0-218.91-98.01-218.91-218.91 0-120.9 98.01-218.91 218.91-218.91 120.9 0 218.91 98.01 218.91 218.91" style="fill:url(#V)"/><g style="color:#000"><path d="m253.03 34.16c-89.39 0-166.25 53.58-200.25 130.38h400.5c-34-76.8-110.86-130.37-200.25-130.37" style="fill:#282629"/><path d="m256.91 202.2c-.97-.015-1.939-.01-2.904.018-2.207.062-4.399.253-6.551.545-18.299 2.483-33.495 12.633-42.04 28.07-4.905 10.525-5.751 14.03-5.881 24.531l-52.76-52.76h-16.654-16.598l.545 66.885c0 57.41-3.482 57.57 6.279 78.57 2.825 5.735 6.487 10.791 10.787 15.09l108.39 108.39c4.473.273 8.978.428 13.52.428 103.76 0 190.65-72.19 213.21-169.09l-82.56-82.56c-17.627-17.627-44.848-22.476-68.36-11.711-5.606 2.567-11.606 5.926-13.324 7.48-2.89 2.616-3.422 2.552-7.04-.766-8.686-7.957-23.499-12.892-38.05-13.12" style="opacity:.25"/><path d="m253.03 34.16c-11.935 0-23.646.943-35.06 2.781l40.06 53.09-44.19 58.59h40.13l44.19-58.59-42.12-55.844c-.999-.013-1.998-.031-3-.031m37.469 3.188l39.75 52.688-44.19 58.59h40.16l44.16-58.59-27.719-36.781c-16.409-7.372-33.901-12.758-52.16-15.906m-99.91 5.844c-10.754 3.195-21.16 7.173-31.16 11.906l26.344 34.938-44.16 58.59h40.13l44.19-58.59-35.34-46.844zm-53.813 24.375c-9.08 5.705-17.724 12.06-25.844 19l2.625 3.469-44.16 58.59h40.13l44.19-58.59-16.938-22.469m264.34 24.281l-42.844 56.781h40.16l24.938-33.06c-6.822-8.441-14.267-16.381-22.25-23.719" style="fill:#fff"/></g><path d="m256 1c-140.83 0-255 114.17-255 255 0 140.83 114.17 255 255 255 140.83 0 255-114.17 255-255 0-140.83-114.17-255-255-255m8.827 44.931c120.9 0 218.9 98 218.9 218.9 0 120.9-98 218.9-218.9 218.9-120.9 0-218.93-98-218.93-218.9 0-120.9 98.03-218.9 218.93-218.9" style="fill-opacity:.067"/><g style="fill-opacity:.129"><path d="m256 4.43c-138.94 0-251.57 112.63-251.57 251.57 0 138.94 112.63 251.57 251.57 251.57 138.94 0 251.57-112.63 251.57-251.57 0-138.94-112.63-251.57-251.57-251.57m5.885 38.556c120.9 0 218.9 98 218.9 218.9 0 120.9-98 218.9-218.9 218.9-120.9 0-218.93-98-218.93-218.9 0-120.9 98.03-218.9 218.93-218.9"/><path d="m256 8.36c-136.77 0-247.64 110.87-247.64 247.64 0 136.77 110.87 247.64 247.64 247.64 136.77 0 247.64-110.87 247.64-247.64 0-136.77-110.87-247.64-247.64-247.64m2.942 31.691c120.9 0 218.9 98 218.9 218.9 0 120.9-98 218.9-218.9 218.9-120.9 0-218.93-98-218.93-218.9 0-120.9 98.03-218.9 218.93-218.9"/></g><path d="m253.04 7.86c-135.42 0-245.19 109.78-245.19 245.19 0 135.42 109.78 245.19 245.19 245.19 135.42 0 245.19-109.78 245.19-245.19 0-135.42-109.78-245.19-245.19-245.19m0 26.297c120.9 0 218.9 98 218.9 218.9 0 120.9-98 218.9-218.9 218.9-120.9 0-218.93-98-218.93-218.9 0-120.9 98.03-218.9 218.93-218.9z" style="stroke-opacity:.31;fill:#fff;stroke:#000;stroke-width:4.904"/></g><text y="231.36" x="729.64" line-height="125%" style="letter-spacing:0;word-spacing:0;font-size:129.23;font-family:&apos;Gentium Book Basic&apos;"><tspan y="231.36" x="729.64"/></text><text transform="scale(4.0128.2492)" y="579.26" x="378.91" style="font-size:46.954;font-family:Arial;text-anchor:middle"/><text y="151.36" x="1310.91" line-height="125%" style="letter-spacing:0;word-spacing:0;font-size:129.23;font-family:&apos;Gentium Book Basic&apos;"><tspan y="151.36" x="1310.91"/></text><text transform="scale(4.0128.2492)" y="258.22" x="523.76" style="font-size:46.954;font-family:Arial;text-anchor:middle"/><text y="-29.9" x="239.33" line-height="125%" style="letter-spacing:0;word-spacing:0;font-size:129.23;font-family:&apos;Gentium Book Basic&apos;"><tspan y="-29.9" x="239.33"/></text><text transform="scale(4.0128.2492)" y="-469.13" x="256.72" style="font-size:46.954;font-family:Arial;text-anchor:middle"/><text y="-246.37" x="1337.38" line-height="125%" style="letter-spacing:0;word-spacing:0;font-size:129.23;font-family:&apos;Gentium Book Basic&apos;"><tspan y="-246.37" x="1337.38"/></text><text transform="scale(4.0128.2492)" y="-1337.8" x="530.36" style="font-size:46.954;font-family:Arial;text-anchor:middle"/><text y="-326.37" x="1918.65" line-height="125%" style="letter-spacing:0;word-spacing:0;font-size:129.23;font-family:&apos;Gentium Book Basic&apos;"><tspan y="-326.37" x="1918.65"/></text><text transform="scale(4.0128.2492)" y="-1658.83" x="675.21" style="font-size:46.954;font-family:Arial;text-anchor:middle"/><text y="-798.77" x="1529.53" line-height="125%" style="letter-spacing:0;word-spacing:0;font-size:129.23;font-family:&apos;Gentium Book Basic&apos;"><tspan y="-798.77" x="1529.53"/></text><text transform="scale(4.0128.2492)" y="-3554.48" x="578.24" style="font-size:46.954;font-family:Arial;text-anchor:middle"/><text y="-878.78" x="2110.79" line-height="125%" style="letter-spacing:0;word-spacing:0;font-size:129.23;font-family:&apos;Gentium Book Basic&apos;"><tspan y="-878.78" x="2110.79"/></text><text transform="scale(4.0128.2492)" y="-3875.52" x="723.09" style="font-size:46.954;font-family:Arial;text-anchor:middle"/><text y="535.94" x="277.99" line-height="125%" style="letter-spacing:0;word-spacing:0;font-size:208.33;font-family:&apos;Gentium Book Basic&apos;"><tspan y="535.94" x="277.99"/></text><g style="color:#000;fill-rule:evenodd"><path d="m253.94 196.22c-31.02-.289-61.21 26.04-60.31 57.969-.397 23.09-.026 46.24-1.531 69.28-.607 10.491-9.69 20.276-20.688 18.875-9.109-.342-17.256-8.092-16.938-17.5-1.875-42.704-.891-85.51-1.781-128.25-15.08 0-30.17 0-45.25 0 .993 44.21-.036 88.55.625 132.69 3.663 30.2 30.404 56 61.13 56.781 28.667 1.776 59.37-16.738 65.5-45.813 3.434-19.445 1.481-39.33 2.226-58.968.011-13.205-1.835-29.724 9.649-38.875 9.818-7.867 25.465-1.474 28.344 10.313 2.349 10.122.694 20.778 1.56 31.12.639 34.32.475 68.65 1 102.97 14.385 0 28.771 0 43.16 0 .831-44.47-1.728-89.12 2.094-133.47 5.179-14.15 28.518-17.292 35.03-2.781 4.902 11.559 1.579 24.529 3.01 36.718.576 33.17.14 66.36.338 99.53 14.49 0 28.979 0 43.47 0-.988-48.669 2.091-97.53-2.188-146.06-6.309-26.26-33.617-43.47-59.844-43.781-15.576-.413-31.05 5.059-43.531 13.719-12.244-10.361-29.05-14.807-45.06-14.469" style="fill:url(#T);filter:url(#U)"/><path d="m254.01 202.21c-2.207.062-4.4.254-6.552.546-18.299 2.483-33.494 12.631-42.04 28.06-7.837 16.818-5.312 15.687-6.06 53.891-.833 42.478-1.082 44.868-4.859 50.943-5.468 8.793-11.938 12.581-21.677 12.722-8.865.129-14.953-3.268-21.404-11.903-3.463-4.637-3.616-7.31-4.095-69.34l-.546-64.54h-16.653-16.599l.546 66.886c0 57.41-3.483 57.57 6.279 78.57 13.168 26.736 44.52 38.698 74.04 28.28 9.422-3.324 21.409-12.198 26.645-19.766 8.825-12.754 9.774-18.553 9.774-61.21 0-37.618.196-39.975 3.931-47.28 5.437-10.641 11.791-14.906 22.277-14.906 9.781 0 16.378 4.05 21.84 13.323 3.295 5.595 3.498 9.554 3.986 70.11l.546 64.21h15.616 15.67v-60.716c.006-34.455.771-63.37 1.747-66.886 4.207-12.465 15.931-18.266 24.461-18.291 12.11.428 20.857 6.275 24.461 18.291.976 3.514 1.687 32.431 1.693 66.886l.055 60.716h15.725 15.725v-66.941c0-74.72-.312-76.85-11.739-90.2-17.409-20.339-46.527-26.49-71.47-15.07-5.606 2.567-11.605 5.926-13.323 7.48-2.89 2.616-3.422 2.553-7.04-.764-9.265-8.488-25.501-13.537-40.951-13.1" style="fill:#fff"/></g></svg>