<svg xmlns="http://www.w3.org/2000/svg" id="svg2" width="100%" height="100%" version="1.1" viewBox="0 0 512 512"><metadata id="metadata102"/><g id="g4" fill-rule="evenodd"><path id="path6" fill="#499f26" d="m471.95 253.05c0 120.9-98.01 218.9-218.9 218.9-120.9 0-218.9-98.01-218.9-218.9 0-120.9 98.01-218.9 218.9-218.9 120.9 0 218.9 98.01 218.9 218.9"/><path id="path8" fill-opacity=".235" d="m254.75 109.38c-38.38 0-77.25 25.62-77.25 64.5v70.75h-28.438v158h0.969v1h1v1h1v1h1v1h1v1h1v0.969h0.97v1h1v1h1v1h1v1h1v1h1v0.969h1v1h0.969v1h1v1h1v1h1v1h1v0.969h1v1h0.969v1h1v1h1v1h1v1h1v0.969h1v1h0.969v1h1v1h1v1h1v1h1v1h1v0.969h0.969v1h1v1h1v1h1v1h1v1h1v0.969h1v1h0.969v1h1v1h1v1h1v1h1v0.969h1v1h0.969v1h1v1h1v1h1v1h1v0.969h1v1h0.969v1h1v1h1v1h1v1h1v1h1v0.969h0.969v1h1v1h1v1h1v1h1v1h1v0.969h1v1h0.969v1h1v1h1v1h1v0.469c12.13 2.083 24.589 3.188 37.31 3.188 109.52 0 200.27-80.46 216.38-185.47-0.084-0.093-0.164-0.191-0.25-0.281-0.214-0.207-0.439-0.42-0.656-0.625-0.115-0.122-0.227-0.253-0.344-0.375-0.216-0.208-0.437-0.419-0.656-0.625-0.116-0.123-0.227-0.253-0.344-0.375-0.095-0.092-0.185-0.19-0.281-0.281-0.094-0.094-0.186-0.188-0.281-0.281-0.021-0.021-0.042-0.041-0.063-0.063-0.32-0.34-0.671-0.665-1-1-0.116-0.123-0.227-0.253-0.344-0.375-0.215-0.208-0.437-0.419-0.656-0.625-0.33-0.323-0.662-0.65-1-0.969-0.115-0.122-0.227-0.253-0.344-0.375-0.214-0.207-0.439-0.42-0.656-0.625-0.115-0.122-0.227-0.253-0.344-0.375-0.214-0.207-0.439-0.42-0.656-0.625-0.115-0.122-0.227-0.253-0.344-0.375-0.053-0.051-0.103-0.105-0.156-0.156-0.094-0.094-0.187-0.188-0.281-0.281-0.061-0.063-0.126-0.125-0.188-0.188-0.32-0.34-0.671-0.665-1-1-0.436-0.462-0.892-0.921-1.344-1.375-0.068-0.066-0.15-0.122-0.219-0.188-0.472-0.471-0.948-0.945-1.438-1.406-0.115-0.122-0.227-0.253-0.344-0.375-0.214-0.207-0.439-0.42-0.656-0.625-0.115-0.122-0.227-0.253-0.344-0.375-0.053-0.051-0.103-0.105-0.156-0.156-0.094-0.094-0.187-0.188-0.281-0.281-0.061-0.063-0.126-0.125-0.188-0.188-0.32-0.34-0.671-0.665-1-1-0.436-0.462-0.892-0.921-1.344-1.375-0.068-0.066-0.15-0.122-0.219-0.188-0.472-0.471-0.948-0.945-1.438-1.406-0.115-0.122-0.227-0.253-0.344-0.375-0.214-0.207-0.439-0.42-0.656-0.625-0.115-0.122-0.227-0.253-0.344-0.375-0.216-0.208-0.437-0.419-0.656-0.625-0.116-0.123-0.227-0.253-0.344-0.375-0.095-0.092-0.185-0.19-0.281-0.281-0.094-0.094-0.186-0.188-0.281-0.281-0.021-0.021-0.042-0.041-0.063-0.063-0.32-0.34-0.671-0.665-1-1-0.116-0.123-0.227-0.253-0.344-0.375-0.215-0.208-0.437-0.419-0.656-0.625-0.33-0.323-0.662-0.65-1-0.969-0.115-0.122-0.227-0.253-0.344-0.375-0.214-0.207-0.439-0.42-0.656-0.625-0.115-0.122-0.227-0.253-0.344-0.375-0.216-0.208-0.437-0.419-0.656-0.625-0.116-0.123-0.227-0.253-0.344-0.375-0.095-0.092-0.185-0.19-0.281-0.281-0.094-0.094-0.186-0.188-0.281-0.281-0.021-0.021-0.042-0.041-0.063-0.063-0.32-0.34-0.671-0.665-1-1-0.115-0.122-0.227-0.253-0.344-0.375-0.215-0.208-0.437-0.419-0.656-0.625-0.118-0.121-0.224-0.255-0.344-0.375-0.068-0.066-0.15-0.122-0.219-0.188-0.472-0.471-0.948-0.945-1.438-1.406-0.115-0.122-0.227-0.253-0.344-0.375-0.214-0.207-0.439-0.42-0.656-0.625-0.115-0.122-0.227-0.253-0.344-0.375-0.053-0.051-0.103-0.105-0.156-0.156-0.094-0.094-0.187-0.188-0.281-0.281-0.061-0.063-0.126-0.125-0.188-0.188-0.32-0.34-0.671-0.665-1-1-0.436-0.462-0.892-0.921-1.344-1.375-0.068-0.066-0.15-0.122-0.219-0.188-0.472-0.471-0.948-0.945-1.438-1.406-0.115-0.122-0.227-0.253-0.344-0.375-0.214-0.207-0.439-0.42-0.656-0.625-0.115-0.122-0.227-0.253-0.344-0.375-0.217-0.209-0.436-0.418-0.656-0.625-0.116-0.123-0.227-0.253-0.344-0.375-0.095-0.092-0.185-0.19-0.281-0.281-0.094-0.094-0.186-0.188-0.281-0.281-0.021-0.021-0.042-0.041-0.063-0.063-0.32-0.34-0.671-0.665-1-1-0.116-0.123-0.227-0.253-0.344-0.375-0.215-0.208-0.437-0.419-0.656-0.625-0.33-0.323-0.662-0.65-1-0.969-0.115-0.122-0.227-0.253-0.344-0.375-0.214-0.207-0.439-0.42-0.656-0.625-0.115-0.122-0.227-0.253-0.344-0.375-0.216-0.208-0.437-0.419-0.656-0.625-0.116-0.123-0.227-0.253-0.344-0.375-0.095-0.092-0.185-0.19-0.281-0.281-0.094-0.094-0.186-0.188-0.281-0.281-0.021-0.021-0.042-0.041-0.063-0.063-0.32-0.34-0.671-0.665-1-1-0.116-0.123-0.227-0.253-0.344-0.375-0.215-0.208-0.437-0.419-0.656-0.625-0.33-0.323-0.662-0.65-1-0.969-0.115-0.122-0.227-0.253-0.344-0.375-0.214-0.207-0.439-0.42-0.656-0.625-0.115-0.122-0.227-0.253-0.344-0.375-0.214-0.207-0.439-0.42-0.656-0.625-0.115-0.122-0.227-0.253-0.344-0.375-0.053-0.051-0.103-0.105-0.156-0.156-0.094-0.094-0.187-0.188-0.281-0.281-0.061-0.063-0.126-0.125-0.188-0.188-0.32-0.34-0.671-0.665-1-1-0.436-0.462-0.892-0.921-1.344-1.375-0.068-0.066-0.15-0.122-0.219-0.188-0.472-0.471-0.948-0.945-1.438-1.406-0.115-0.122-0.227-0.253-0.344-0.375-0.214-0.207-0.439-0.42-0.656-0.625-0.115-0.122-0.227-0.253-0.344-0.375-0.053-0.051-0.103-0.105-0.156-0.156-0.094-0.094-0.187-0.188-0.281-0.281-0.061-0.063-0.126-0.125-0.188-0.188-0.32-0.34-0.671-0.665-1-1-0.436-0.462-0.892-0.921-1.344-1.375-0.068-0.066-0.15-0.122-0.219-0.188-0.472-0.471-0.948-0.945-1.438-1.406-0.115-0.122-0.227-0.253-0.344-0.375-0.214-0.207-0.439-0.42-0.656-0.625-0.115-0.122-0.227-0.253-0.344-0.375-0.216-0.208-0.437-0.419-0.656-0.625-0.116-0.123-0.227-0.253-0.344-0.375-0.095-0.092-0.185-0.19-0.281-0.281-0.094-0.094-0.186-0.188-0.281-0.281-0.021-0.021-0.042-0.041-0.063-0.063-0.32-0.34-0.671-0.665-1-1-0.116-0.123-0.227-0.253-0.344-0.375-0.215-0.208-0.437-0.419-0.656-0.625-0.33-0.323-0.662-0.65-1-0.969-0.115-0.122-0.227-0.253-0.344-0.375-0.214-0.207-0.439-0.42-0.656-0.625-0.115-0.122-0.227-0.253-0.344-0.375-0.216-0.208-0.437-0.419-0.656-0.625-0.116-0.123-0.227-0.253-0.344-0.375-0.095-0.092-0.185-0.19-0.281-0.281-0.094-0.094-0.186-0.188-0.281-0.281-0.021-0.021-0.042-0.041-0.063-0.063-0.32-0.34-0.671-0.665-1-1-0.116-0.123-0.227-0.253-0.344-0.375-0.215-0.208-0.437-0.419-0.656-0.625-0.33-0.323-0.662-0.65-1-0.969-0.115-0.122-0.227-0.253-0.344-0.375-0.214-0.207-0.439-0.42-0.656-0.625-0.115-0.122-0.227-0.253-0.344-0.375-0.214-0.207-0.439-0.42-0.656-0.625-0.115-0.122-0.227-0.253-0.344-0.375-0.053-0.051-0.103-0.105-0.156-0.156-0.094-0.094-0.187-0.188-0.281-0.281-0.061-0.063-0.126-0.125-0.188-0.188-0.32-0.34-0.671-0.665-1-1-0.436-0.462-0.892-0.921-1.344-1.375-0.068-0.066-0.15-0.122-0.219-0.188-0.472-0.471-0.948-0.945-1.438-1.406-0.115-0.122-0.227-0.253-0.344-0.375-0.214-0.207-0.439-0.42-0.656-0.625-0.115-0.122-0.227-0.253-0.344-0.375-0.217-0.209-0.436-0.418-0.656-0.625-0.116-0.123-0.227-0.253-0.344-0.375-0.095-0.092-0.185-0.19-0.281-0.281-0.094-0.094-0.186-0.188-0.281-0.281-0.021-0.021-0.042-0.041-0.063-0.063-0.436-0.462-0.892-0.921-1.344-1.375-0.068-0.066-0.15-0.122-0.219-0.188-0.472-0.471-0.948-0.945-1.438-1.406-0.115-0.122-0.227-0.253-0.344-0.375-0.214-0.207-0.439-0.42-0.656-0.625-0.115-0.122-0.227-0.253-0.344-0.375-0.216-0.208-0.437-0.419-0.656-0.625-0.116-0.123-0.227-0.253-0.344-0.375-0.095-0.092-0.185-0.19-0.281-0.281-0.094-0.094-0.186-0.188-0.281-0.281-0.021-0.021-0.042-0.041-0.063-0.063-0.32-0.34-0.671-0.665-1-1-0.116-0.123-0.227-0.253-0.344-0.375-0.215-0.208-0.437-0.419-0.656-0.625-0.33-0.323-0.662-0.65-1-0.969-0.115-0.122-0.227-0.253-0.344-0.375-0.214-0.207-0.439-0.42-0.656-0.625-0.115-0.122-0.227-0.253-0.344-0.375-0.214-0.207-0.439-0.42-0.656-0.625-0.116-0.123-0.227-0.253-0.344-0.375-0.095-0.092-0.185-0.19-0.281-0.281-0.094-0.094-0.186-0.188-0.281-0.281-0.021-0.021-0.042-0.041-0.063-0.063-0.32-0.34-0.671-0.665-1-1-0.115-0.122-0.227-0.253-0.344-0.375-0.215-0.208-0.437-0.419-0.656-0.625-0.118-0.121-0.224-0.255-0.344-0.375-0.068-0.066-0.15-0.122-0.219-0.188-0.472-0.471-0.948-0.945-1.438-1.406-0.115-0.122-0.227-0.253-0.344-0.375-0.214-0.207-0.439-0.42-0.656-0.625-0.115-0.122-0.227-0.253-0.344-0.375-0.053-0.051-0.103-0.105-0.156-0.156-0.094-0.094-0.187-0.188-0.281-0.281-0.061-0.063-0.126-0.125-0.188-0.188-0.32-0.34-0.671-0.665-1-1-0.436-0.462-0.892-0.921-1.344-1.375-0.068-0.066-0.15-0.122-0.219-0.188-0.472-0.471-0.948-0.945-1.438-1.406-0.115-0.122-0.227-0.253-0.344-0.375-0.214-0.207-0.439-0.42-0.656-0.625-0.115-0.122-0.227-0.253-0.344-0.375-0.217-0.209-0.436-0.418-0.656-0.625-0.116-0.123-0.227-0.253-0.344-0.375-0.095-0.092-0.185-0.19-0.281-0.281-0.094-0.094-0.186-0.188-0.281-0.281-0.021-0.021-0.042-0.041-0.063-0.063-0.32-0.34-0.671-0.665-1-1-0.116-0.123-0.227-0.253-0.344-0.375-0.215-0.208-0.437-0.419-0.656-0.625-0.33-0.323-0.662-0.65-1-0.969-0.115-0.122-0.227-0.253-0.344-0.375-0.214-0.207-0.439-0.42-0.656-0.625-0.115-0.122-0.227-0.253-0.344-0.375-0.216-0.208-0.437-0.419-0.656-0.625-0.116-0.123-0.227-0.253-0.344-0.375-0.095-0.092-0.185-0.19-0.281-0.281-0.094-0.094-0.186-0.188-0.281-0.281-0.021-0.021-0.042-0.041-0.063-0.063-0.32-0.34-0.671-0.665-1-1-0.116-0.123-0.227-0.253-0.344-0.375-0.215-0.208-0.437-0.419-0.656-0.625-0.33-0.323-0.662-0.65-1-0.969-0.115-0.122-0.227-0.253-0.344-0.375-0.214-0.207-0.439-0.42-0.656-0.625-0.115-0.122-0.227-0.253-0.344-0.375-0.214-0.207-0.439-0.42-0.656-0.625-0.115-0.122-0.227-0.253-0.344-0.375-0.053-0.051-0.103-0.105-0.156-0.156-0.094-0.094-0.187-0.188-0.281-0.281-0.061-0.063-0.126-0.125-0.188-0.188-0.32-0.34-0.671-0.665-1-1-0.436-0.462-0.892-0.921-1.344-1.375-0.068-0.066-0.15-0.122-0.219-0.188-0.472-0.471-0.948-0.945-1.438-1.406-0.115-0.122-0.227-0.253-0.344-0.375-0.214-0.207-0.439-0.42-0.656-0.625-0.115-0.122-0.227-0.253-0.344-0.375-0.217-0.209-0.436-0.418-0.656-0.625-0.116-0.123-0.227-0.253-0.344-0.375-0.095-0.092-0.185-0.19-0.281-0.281-0.094-0.094-0.186-0.188-0.281-0.281-0.021-0.021-0.042-0.041-0.063-0.063-0.436-0.462-0.892-0.921-1.344-1.375-0.068-0.066-0.15-0.122-0.219-0.188-0.472-0.471-0.948-0.945-1.438-1.406-0.115-0.122-0.227-0.253-0.344-0.375-0.214-0.207-0.439-0.42-0.656-0.625-0.115-0.122-0.227-0.253-0.344-0.375-0.216-0.208-0.437-0.419-0.656-0.625-0.116-0.123-0.227-0.253-0.344-0.375-0.095-0.092-0.185-0.19-0.281-0.281-0.094-0.094-0.186-0.188-0.281-0.281-0.021-0.021-0.042-0.041-0.063-0.063-0.32-0.34-0.671-0.665-1-1-0.116-0.123-0.227-0.253-0.344-0.375-0.215-0.208-0.437-0.419-0.656-0.625-0.33-0.323-0.662-0.65-1-0.969-0.115-0.122-0.227-0.253-0.344-0.375-0.214-0.207-0.439-0.42-0.656-0.625-0.115-0.122-0.227-0.253-0.344-0.375-0.214-0.207-0.439-0.42-0.656-0.625-0.116-0.123-0.227-0.253-0.344-0.375-0.095-0.092-0.185-0.19-0.281-0.281-0.094-0.094-0.186-0.188-0.281-0.281-0.021-0.021-0.042-0.041-0.063-0.063-0.32-0.34-0.671-0.665-1-1-0.115-0.122-0.227-0.253-0.344-0.375-0.215-0.208-0.437-0.419-0.656-0.625-0.118-0.121-0.224-0.255-0.344-0.375-0.068-0.066-0.15-0.122-0.219-0.188-0.472-0.471-0.948-0.945-1.438-1.406-0.115-0.122-0.227-0.253-0.344-0.375-0.214-0.207-0.439-0.42-0.656-0.625-0.115-0.122-0.227-0.253-0.344-0.375-0.053-0.051-0.103-0.105-0.156-0.156-0.094-0.094-0.187-0.188-0.281-0.281-0.061-0.063-0.126-0.125-0.188-0.188-0.32-0.34-0.671-0.665-1-1-0.436-0.462-0.892-0.921-1.344-1.375-0.068-0.066-0.15-0.122-0.219-0.188-0.472-0.471-0.948-0.945-1.438-1.406-0.115-0.122-0.227-0.253-0.344-0.375-0.214-0.207-0.439-0.42-0.656-0.625-0.115-0.122-0.227-0.253-0.344-0.375-0.217-0.209-0.436-0.418-0.656-0.625-0.116-0.123-0.227-0.253-0.344-0.375-0.063-0.061-0.124-0.126-0.188-0.188-0.143-0.149-0.293-0.29-0.438-0.438-0.127-0.124-0.247-0.252-0.375-0.375-13.66-13.717-34.662-23.594-61.16-23.594"/><path id="path10" fill-opacity=".067" d="m256 1c-140.83 0-255 114.17-255 255s114.17 255 255 255 255-114.17 255-255-114.17-255-255-255m8.827 44.931c120.9 0 218.9 98 218.9 218.9s-98 218.9-218.9 218.9-218.93-98-218.93-218.9 98.03-218.9 218.93-218.9"/><g id="g12" fill-opacity=".129"><path id="path14" d="m256 4.433c-138.94 0-251.57 112.63-251.57 251.57s112.63 251.57 251.57 251.57 251.57-112.63 251.57-251.57-112.63-251.57-251.57-251.57m5.885 38.556c120.9 0 218.9 98 218.9 218.9s-98 218.9-218.9 218.9-218.93-98-218.93-218.9 98.03-218.9 218.93-218.9"/><path id="path16" d="m256 8.356c-136.77 0-247.64 110.87-247.64 247.64s110.87 247.64 247.64 247.64 247.64-110.87 247.64-247.64-110.87-247.64-247.64-247.64m2.942 31.691c120.9 0 218.9 98 218.9 218.9s-98 218.9-218.9 218.9-218.93-98-218.93-218.9 98.03-218.9 218.93-218.9"/></g><path id="path18" fill="#fff" stroke="#000" stroke-opacity=".31" stroke-width="4.904" d="m253.04 7.859c-135.42 0-245.19 109.78-245.19 245.19 0 135.42 109.78 245.19 245.19 245.19 135.42 0 245.19-109.78 245.19-245.19 0-135.42-109.78-245.19-245.19-245.19zm0 26.297c120.9 0 218.9 98 218.9 218.9s-98 218.9-218.9 218.9-218.93-98-218.93-218.9 98.03-218.9 218.93-218.9z"/></g><path id="path96" fill="#fff" fill-rule="evenodd" d="m254.75 109.38c-38.38 0-77.25 25.62-77.25 64.5v70.75h-28.438v158h213.88v-158c-50.635-0.013-103.95-0.001-150.31 0l0.063-0.031v-63.22c0-23.843 23.723-36.469 41.5-36.563 20.665-0.108 43.19 14.299 43.19 36.28v10.219h33.5c0.931 0 1.849 0.07 2.75 0.188v-19.57c0-29.22-30.21-62.56-78.875-62.56m0.406 169.91c11.824 0 21.406 9.582 21.406 21.406 0 7.05-3.427 13.287-8.688 17.188l8.5 47.625h-42.06l8.438-47.37c-5.441-3.882-9-10.244-9-17.438 0-11.824 9.582-21.406 21.406-21.406"/></svg>