<svg xmlns="http://www.w3.org/2000/svg" id="svg2" width="100%" height="100%" version="1.1" viewBox="0 0 512 512"><metadata id="metadata390"/><path id="path160" fill="#0078ad" fill-rule="evenodd" d="m471.95 253.05c0 120.9-98.01 218.9-218.9 218.9-120.9 0-218.9-98.01-218.9-218.9 0-120.9 98.01-218.9 218.9-218.9 120.9 0 218.9 98.01 218.9 218.9"/><path id="path162" fill-opacity=".235" d="m346.94 104.25-48.531 48.563c54.678 54.712 109.37 109.4 164.06 164.09 6.151-20.2 9.469-41.63 9.469-63.844 0-8.521-0.49-16.951-1.438-25.22-41.19-41.2-82.38-82.39-123.56-123.59m-77.81 46.34c-53.35 53.766-107.58 106.74-160.37 161-11.402 16.992 5.808 30.842 16.906 41.688 39.657 39.678 79.05 79.08 118.44 118.47 2.972 0.12 5.967 0.188 8.969 0.188 91.22 0 169.39-55.796 202.28-135.12-62.07-62.08-124.14-124.15-186.22-186.22"/><g id="g164" fill-rule="evenodd"><path id="path166" fill-opacity=".067" d="m256 1c-140.83 0-255 114.17-255 255s114.17 255 255 255 255-114.17 255-255-114.17-255-255-255m8.827 44.931c120.9 0 218.9 98 218.9 218.9s-98 218.9-218.9 218.9-218.93-98-218.93-218.9 98.03-218.9 218.93-218.9"/><g id="g168" fill-opacity=".129"><path id="path170" d="m256 4.433c-138.94 0-251.57 112.63-251.57 251.57s112.63 251.57 251.57 251.57 251.57-112.63 251.57-251.57-112.63-251.57-251.57-251.57m5.885 38.556c120.9 0 218.9 98 218.9 218.9s-98 218.9-218.9 218.9-218.93-98-218.93-218.9 98.03-218.9 218.93-218.9"/><path id="path172" d="m256 8.356c-136.77 0-247.64 110.87-247.64 247.64s110.87 247.64 247.64 247.64 247.64-110.87 247.64-247.64-110.87-247.64-247.64-247.64m2.942 31.691c120.9 0 218.9 98 218.9 218.9s-98 218.9-218.9 218.9-218.93-98-218.93-218.9 98.03-218.9 218.93-218.9"/></g><path id="path174" fill="#fff" stroke="#000" stroke-opacity=".31" stroke-width="4.904" d="m253.04 7.859c-135.42 0-245.19 109.78-245.19 245.19 0 135.42 109.78 245.19 245.19 245.19 135.42 0 245.19-109.78 245.19-245.19 0-135.42-109.78-245.19-245.19-245.19zm0 26.297c120.9 0 218.9 98 218.9 218.9s-98 218.9-218.9 218.9-218.93-98-218.93-218.9 98.03-218.9 218.93-218.9z"/></g><g id="g380" fill="#fff" transform="matrix(9.4959 0 0 9.4959 105.14 104.24)"><path id="path382" d="m17.268 4.883-16.591 16.592c-0.902 0.902-0.902 2.367 0 3.272l6.543 6.54c0.904 0.904 2.369 0.9 3.268 0l16.591-16.59-9.811-9.814"/><path id="path384" d="m31.774 6.312-6.31-6.312-5.111 5.115 6.309 6.311 5.112-5.114m-2.731-0.366-1.054 1.049-1.283-1.283 1.051-1.053 1.286 1.287m-4.292-2.192 1.051-1.049 1.283 1.283-1.053 1.049-1.281-1.283"/></g></svg>