<?xml version="1.0" encoding="UTF-8" standalone="no"?>
<!-- Created with Inkscape (http://www.inkscape.org/) -->
<svg id="svg2" xmlns:rdf="http://www.w3.org/1999/02/22-rdf-syntax-ns#" xmlns="http://www.w3.org/2000/svg" height="100%" viewBox="0 0 512 512" width="100%" version="1.1" xmlns:cc="http://creativecommons.org/ns#" xmlns:dc="http://purl.org/dc/elements/1.1/">
 <metadata id="metadata38">
  <rdf:RDF>
   <cc:Work rdf:about="">
    <dc:format>image/svg+xml</dc:format>
    <dc:type rdf:resource="http://purl.org/dc/dcmitype/StillImage"/>
   </cc:Work>
  </rdf:RDF>
 </metadata>
 <g id="g4" transform="translate(0,-540.36)">
  <path id="path6" fill-rule="evenodd" fill="#f38725" transform="matrix(1.5323 0 0 1.5323 42.896 144.03)" d="m280 423.79c0 78.898-63.959 142.86-142.86 142.86-78.898 0-142.86-63.959-142.86-142.86 0-78.898 63.959-142.86 142.86-142.86 78.898 0 142.86 63.959 142.86 142.86"/>
  <path id="path8" d="m255.28 101.38c-4.9 0.024-9.593 3.275-19.375 9.625l-20.531 79.56h1.25c-0.006 0.025-0.25 1-0.25 1h1.25c-0.006 0.025-0.25 1-0.25 1h1.25c-0.006 0.025-0.25 1-0.25 1h1.219l-0.25 0.969h1.25c-0.006 0.025-0.25 1-0.25 1h1.25c-0.006 0.025-0.25 1-0.25 1h1.25c-0.006 0.025-0.25 1-0.25 1h1.25c-0.006 0.025-0.25 1-0.25 1h1.25c-0.006 0.025-0.25 1-0.25 1h1.219l-0.25 0.969h1.25c-0.006 0.025-0.25 1-0.25 1h1.25c-0.006 0.025-0.25 1-0.25 1h1.25c-0.006 0.025-0.25 1-0.25 1h1.25c-0.006 0.025-0.25 1-0.25 1h1.25c-0.006 0.025-0.25 1-0.25 1h1.219l-0.25 0.969h1.25c-0.006 0.025-0.25 1-0.25 1h1.25c-0.006 0.025-0.25 1-0.25 1h1.25c-0.006 0.025-0.25 1-0.25 1h1.25c-0.006 0.025-0.25 1-0.25 1h1.25c-0.006 0.025-0.25 1-0.25 1h1.219l-0.25 0.969h1.25c-0.006 0.025-0.25 1-0.25 1h1.25c-0.006 0.025-0.25 1-0.25 1h1.25c-0.006 0.025-0.25 1-0.25 1h1.25c-0.006 0.025-0.25 1-0.25 1h1.25c-0.006 0.025-0.25 1-0.25 1h1.25c-0.006 0.025-0.25 1-0.25 1h1.219l-0.25 0.969h1.25c-0.006 0.025-0.25 1-0.25 1h1.25c-0.006 0.025-0.25 1-0.25 1h1.25c-0.006 0.025-0.25 1-0.25 1h1.25l-0.25 1h1.25c-0.006 0.025-0.25 1-0.25 1h1.219l-0.25 0.969h1.25c-0.006 0.025-0.25 1-0.25 1h1.25v0.031l-46.34-0.031-7.656 29.563h1.25l-0.219 0.844-0.031 0.156h1.25l-0.188 0.688c0 0.001-0.063 0.313-0.063 0.313h1.219l-0.125 0.531c0 0.002-0.094 0.469-0.094 0.469h1.219l-0.094 0.406c-0.001 0.002-0.156 0.563-0.156 0.563h1.25l-0.063 0.281c-0.001 0.003-0.188 0.719-0.188 0.719h1.25l-0.031 0.125c-0.001 0.003-0.219 0.875-0.219 0.875h1.25c-0.015 0.059-0.25 1-0.25 1h1.25c-0.068 0.263-0.25 1-0.25 1h1.25c-0.097 0.376-0.25 1-0.25 1h1.25c-0.113 0.436-0.281 0.969-0.281 0.969h1.281c-0.122 0.471-0.281 1-0.281 1h1.281c-0.128 0.494-0.281 1-0.281 1h1.25c-0.129 0.498-0.25 1-0.25 1h1.25c-0.129 0.497-0.25 1-0.25 1h1.25c-0.127 0.491-0.25 1-0.25 1h1.219c-0.122 0.469-0.25 0.969-0.25 0.969h1.25c-0.123 0.477-0.25 1-0.25 1h1.25c-0.12 0.465-0.25 1-0.25 1h1.25c-0.119 0.46-0.25 1-0.25 1h1.25c-0.116 0.448-0.25 1-0.25 1h1.25c-0.113 0.435-0.25 1-0.25 1h1.219c-0.106 0.408-0.25 0.969-0.25 0.969h1.25c-0.108 0.415-0.25 1-0.25 1h1.25c-0.104 0.404-0.25 1-0.25 1h1.25c-0.102 0.392-0.25 1-0.25 1h1.25c-0.098 0.38-0.25 1-0.25 1h1.25c-0.097 0.374-0.25 1-0.25 1h1.25c-0.094 0.364-0.25 1-0.25 1h1.219c-0.088 0.34-0.25 0.969-0.25 0.969h1.25c-0.09 0.348-0.25 1-0.25 1h1.25c-0.088 0.339-0.25 1-0.25 1h1.25c-0.086 0.331-0.25 1-0.25 1h1.25c-0.084 0.323-0.25 1-0.25 1h1.25c-0.082 0.318-0.25 1-0.25 1h1.219c-0.077 0.297-0.25 0.969-0.25 0.969h1.25c-0.079 0.305-0.25 1-0.25 1h1.25c-0.044 0.169-0.135 0.48-0.156 0.563l-46.25-0.031-11.938 46.25c0.115 0.066 0.229 0.122 0.344 0.188h-30.438l-2.719 5.125s-11.705 22.06-29.28 52.25l-8.438 14.5h1.594l-0.594 1h1.594c-0.075 0.13-0.594 1-0.594 1h1.594c-0.075 0.13-0.594 1-0.594 1h1.531c-0.07 0.121-0.563 0.969-0.563 0.969h1.594c-0.075 0.13-0.594 1-0.594 1h1.594c-0.075 0.13-0.594 1-0.594 1h1.594c-0.075 0.13-0.594 1-0.594 1h1.594c-0.075 0.13-0.594 1-0.594 1h1.594c-0.075 0.13-0.594 1-0.594 1h1.531c-0.07 0.121-0.563 0.969-0.563 0.969h1.594c-0.075 0.13-0.594 1-0.594 1h1.594c-0.075 0.13-0.594 1-0.594 1h1.594c-0.075 0.13-0.594 1-0.594 1h1.594c-0.075 0.13-0.594 1-0.594 1h1.594c-0.075 0.13-0.594 1-0.594 1h1.531c-0.07 0.121-0.563 0.969-0.563 0.969h1.594c-0.075 0.13-0.594 1-0.594 1h1.594c-0.075 0.13-0.594 1-0.594 1h1.594c-0.075 0.13-0.594 1-0.594 1h1.594c-0.075 0.13-0.594 1-0.594 1h1.594c-0.075 0.13-0.594 1-0.594 1h1.531c-0.07 0.121-0.563 0.969-0.563 0.969h1.594c-0.075 0.13-0.594 1-0.594 1h1.594c-0.075 0.13-0.594 1-0.594 1 0.007 0.005 0.024-0.005 0.031 0h1.563c-0.056 0.097-0.287 0.498-0.438 0.75 0.125 0.083 0.25 0.167 0.375 0.25h1.063c-0.038 0.066-0.172 0.263-0.313 0.5 0.251 0.165 0.499 0.336 0.75 0.5h0.563c-0.019 0.033-0.096 0.148-0.156 0.25 0.378 0.245 0.746 0.507 1.125 0.75h0.031c34.04 21.82 74.5 34.5 117.94 34.5 104.17 0 191.34-72.78 213.47-170.25-0.099-0.058-0.197-0.118-0.313-0.188-0.001-0.005-0.125-0.469-0.125-0.469-0.332-0.199-0.554-0.338-0.875-0.531-0.001-0.005-0.125-0.469-0.125-0.469-0.332-0.199-0.554-0.338-0.875-0.531-0.001-0.005-0.125-0.469-0.125-0.469-0.333-0.2-0.553-0.338-0.875-0.531-0.001-0.005-0.125-0.469-0.125-0.469-0.334-0.201-0.552-0.337-0.875-0.531-0.001-0.005-0.125-0.469-0.125-0.469-0.334-0.201-0.552-0.337-0.875-0.531-0.001-0.005-0.125-0.469-0.125-0.469-0.32-0.192-0.534-0.314-0.844-0.5-0.001-0.005-0.125-0.469-0.125-0.469-0.332-0.199-0.554-0.338-0.875-0.531-0.001-0.005-0.125-0.469-0.125-0.469-0.332-0.199-0.554-0.338-0.875-0.531-0.001-0.005-0.125-0.469-0.125-0.469-0.333-0.2-0.553-0.338-0.875-0.531-0.001-0.005-0.125-0.469-0.125-0.469-0.334-0.201-0.552-0.337-0.875-0.531-0.001-0.005-0.125-0.469-0.125-0.469-0.334-0.201-0.552-0.337-0.875-0.531-0.001-0.005-0.125-0.469-0.125-0.469-0.32-0.192-0.534-0.314-0.844-0.5-0.001-0.005-0.125-0.469-0.125-0.469l-0.031-0.031c-0.32-0.192-0.534-0.314-0.844-0.5-0.001-0.005-0.125-0.469-0.125-0.469-0.332-0.199-0.554-0.338-0.875-0.531-0.001-0.005-0.125-0.469-0.125-0.469-0.333-0.2-0.553-0.338-0.875-0.531-0.001-0.005-0.125-0.469-0.125-0.469-0.334-0.201-0.552-0.337-0.875-0.531-0.001-0.005-0.125-0.469-0.125-0.469-0.334-0.201-0.552-0.337-0.875-0.531-0.001-0.005-0.125-0.469-0.125-0.469-0.334-0.201-0.552-0.337-0.875-0.531-0.001-0.005-0.125-0.469-0.125-0.469-0.32-0.192-0.534-0.314-0.844-0.5-0.001-0.005-0.125-0.469-0.125-0.469-0.332-0.199-0.554-0.338-0.875-0.531-0.001-0.005-0.125-0.469-0.125-0.469-0.333-0.2-0.553-0.338-0.875-0.531-0.001-0.005-0.125-0.469-0.125-0.469-0.334-0.201-0.552-0.337-0.875-0.531-0.001-0.005-0.125-0.469-0.125-0.469-0.334-0.201-0.552-0.337-0.875-0.531-0.001-0.005-0.125-0.469-0.125-0.469-0.334-0.201-0.552-0.337-0.875-0.531-0.001-0.005-0.125-0.469-0.125-0.469-0.32-0.192-0.534-0.314-0.844-0.5-0.001-0.005-0.125-0.469-0.125-0.469-0.332-0.199-0.554-0.338-0.875-0.531-0.001-0.005-0.125-0.469-0.125-0.469-0.332-0.199-0.554-0.338-0.875-0.531-0.001-0.005-0.125-0.469-0.125-0.469-0.333-0.2-0.553-0.338-0.875-0.531-0.001-0.005-0.125-0.469-0.125-0.469-0.334-0.201-0.552-0.337-0.875-0.531-0.001-0.005-0.125-0.469-0.125-0.469-0.334-0.201-0.552-0.337-0.875-0.531l-0.125-0.469c-0.32-0.192-0.534-0.314-0.844-0.5l-0.125-0.469c-0.332-0.199-0.554-0.338-0.875-0.531l-0.125-0.469c-0.332-0.199-0.554-0.338-0.875-0.531l-0.125-0.469c-0.333-0.2-0.553-0.338-0.875-0.531l-0.125-0.469c-0.334-0.201-0.552-0.337-0.875-0.531l-0.125-0.469c-0.334-0.201-0.552-0.337-0.875-0.531l-0.125-0.469c-0.334-0.201-0.552-0.337-0.875-0.531l-0.125-0.469c-0.32-0.192-0.534-0.314-0.844-0.5l-0.125-0.469c-0.332-0.199-0.554-0.338-0.875-0.531-0.001-0.005-0.125-0.469-0.125-0.469-0.333-0.2-0.553-0.338-0.875-0.531-0.001-0.005-0.125-0.469-0.125-0.469-0.334-0.201-0.552-0.337-0.875-0.531-0.001-0.005-0.125-0.469-0.125-0.469-0.334-0.201-0.552-0.337-0.875-0.531-0.001-0.005-0.125-0.469-0.125-0.469-0.334-0.201-0.552-0.337-0.875-0.531-0.001-0.005-0.125-0.469-0.125-0.469-0.32-0.192-0.534-0.314-0.844-0.5-0.001-0.005-0.125-0.469-0.125-0.469-0.332-0.199-0.554-0.338-0.875-0.531-0.001-0.005-0.125-0.469-0.125-0.469-0.332-0.199-0.554-0.338-0.875-0.531-0.001-0.006-0.125-0.469-0.125-0.469-0.333-0.2-0.553-0.338-0.875-0.531-0.001-0.006-0.125-0.469-0.125-0.469-0.334-0.201-0.552-0.337-0.875-0.531-0.001-0.006-0.125-0.469-0.125-0.469-0.334-0.201-0.552-0.337-0.875-0.531-0.001-0.006-0.125-0.469-0.125-0.469-0.32-0.192-0.534-0.314-0.844-0.5-0.001-0.006-0.125-0.469-0.125-0.469-0.332-0.199-0.554-0.338-0.875-0.531-0.001-0.006-0.125-0.469-0.125-0.469-0.332-0.199-0.554-0.338-0.875-0.531-0.001-0.006-0.125-0.469-0.125-0.469-0.333-0.2-0.553-0.338-0.875-0.531-0.001-0.006-0.125-0.469-0.125-0.469-0.334-0.201-0.552-0.337-0.875-0.531-0.001-0.006-0.125-0.469-0.125-0.469-0.334-0.201-0.552-0.337-0.875-0.531-0.001-0.006-0.125-0.469-0.125-0.469-0.32-0.192-0.534-0.314-0.844-0.5-0.001-0.006-0.125-0.469-0.125-0.469h-0.031c-0.319-0.192-0.534-0.314-0.844-0.5-0.002-0.006-0.125-0.5-0.125-0.5-0.332-0.199-0.554-0.338-0.875-0.531-0.001-0.006-0.125-0.469-0.125-0.469-0.333-0.2-0.553-0.338-0.875-0.531-0.001-0.006-0.125-0.469-0.125-0.469-0.334-0.201-0.552-0.337-0.875-0.531-0.001-0.006-0.125-0.469-0.125-0.469-0.334-0.201-0.552-0.337-0.875-0.531-0.001-0.006-0.125-0.469-0.125-0.469-0.334-0.201-0.552-0.337-0.875-0.531-0.001-0.006-0.125-0.469-0.125-0.469-0.32-0.192-0.534-0.314-0.844-0.5-0.001-0.006-0.125-0.469-0.125-0.469-0.332-0.199-0.554-0.338-0.875-0.531-0.001-0.006-0.125-0.469-0.125-0.469-0.333-0.2-0.553-0.338-0.875-0.531-0.001-0.006-0.125-0.469-0.125-0.469-0.334-0.201-0.552-0.337-0.875-0.531-0.001-0.006-0.125-0.469-0.125-0.469-0.334-0.201-0.552-0.337-0.875-0.531-0.001-0.006-0.125-0.469-0.125-0.469-0.334-0.201-0.552-0.337-0.875-0.531-0.001-0.006-0.125-0.469-0.125-0.469-0.32-0.192-0.534-0.314-0.844-0.5-0.001-0.006-0.125-0.469-0.125-0.469-0.332-0.199-0.554-0.338-0.875-0.531l-0.125-0.469c-0.332-0.199-0.554-0.338-0.875-0.531l-0.125-0.469c-0.333-0.2-0.553-0.338-0.875-0.531l-0.125-0.469c-0.334-0.201-0.552-0.337-0.875-0.531l-0.125-0.469c-0.334-0.201-0.552-0.337-0.875-0.531l-0.125-0.469c-0.32-0.192-0.534-0.314-0.844-0.5l-0.125-0.469c-0.332-0.199-0.554-0.338-0.875-0.531l-0.125-0.469c-0.332-0.199-0.554-0.338-0.875-0.531l-0.125-0.469c-0.333-0.2-0.553-0.338-0.875-0.531-0.001-0.006-0.125-0.469-0.125-0.469-0.334-0.201-0.552-0.337-0.875-0.531-0.001-0.006-0.125-0.469-0.125-0.469-0.334-0.201-0.552-0.337-0.875-0.531-0.001-0.006-0.125-0.469-0.125-0.469-0.334-0.201-0.552-0.337-0.875-0.531-0.001-0.006-0.125-0.469-0.125-0.469-0.32-0.192-0.534-0.314-0.844-0.5-0.001-0.006-0.125-0.469-0.125-0.469-0.332-0.199-0.554-0.338-0.875-0.531-0.001-0.006-0.125-0.469-0.125-0.469-0.333-0.2-0.553-0.338-0.875-0.531-0.001-0.006-0.125-0.469-0.125-0.469-0.334-0.201-0.552-0.337-0.875-0.531-0.001-0.006-0.125-0.469-0.125-0.469-0.334-0.201-0.552-0.337-0.875-0.531-0.001-0.006-0.125-0.469-0.125-0.469-0.334-0.201-0.552-0.337-0.875-0.531-0.001-0.006-0.125-0.469-0.125-0.469-0.32-0.192-0.534-0.314-0.844-0.5-0.001-0.006-0.125-0.469-0.125-0.469-0.332-0.199-0.554-0.338-0.875-0.531-0.001-0.006-0.125-0.469-0.125-0.469-0.333-0.2-0.553-0.338-0.875-0.531-0.001-0.006-0.125-0.469-0.125-0.469-0.333-0.2-0.553-0.338-0.875-0.531-0.001-0.006-0.125-0.469-0.125-0.469-0.334-0.201-0.552-0.337-0.875-0.531-0.001-0.006-0.125-0.469-0.125-0.469-0.334-0.201-0.552-0.337-0.875-0.531-0.001-0.006-0.125-0.469-0.125-0.469-0.32-0.192-0.534-0.314-0.844-0.5-0.001-0.006-0.125-0.469-0.125-0.469-0.332-0.199-0.554-0.338-0.875-0.531-0.001-0.006-0.125-0.469-0.125-0.469-0.332-0.199-0.554-0.338-0.875-0.531-0.001-0.006-0.125-0.469-0.125-0.469-0.333-0.2-0.553-0.338-0.875-0.531-0.001-0.006-0.125-0.469-0.125-0.469-0.334-0.201-0.552-0.337-0.875-0.531-0.001-0.006-0.125-0.469-0.125-0.469-0.334-0.201-0.552-0.337-0.875-0.531-0.001-0.006-0.125-0.469-0.125-0.469-0.32-0.192-0.534-0.314-0.844-0.5-0.001-0.006-0.125-0.469-0.125-0.469-0.332-0.199-0.554-0.338-0.875-0.531-0.001-0.006-0.125-0.469-0.125-0.469-0.332-0.199-0.554-0.338-0.875-0.531-0.001-0.006-0.125-0.469-0.125-0.469-0.333-0.2-0.553-0.338-0.875-0.531-0.001-0.006-0.125-0.469-0.125-0.469-0.334-0.201-0.552-0.337-0.875-0.531-0.001-0.006-0.125-0.469-0.125-0.469-0.334-0.201-0.552-0.337-0.875-0.531-0.001-0.006-0.125-0.469-0.125-0.469-0.334-0.201-0.552-0.337-0.875-0.531-0.001-0.006-0.125-0.469-0.125-0.469-0.32-0.192-0.534-0.314-0.844-0.5-0.001-0.006-0.125-0.469-0.125-0.469-0.332-0.199-0.554-0.338-0.875-0.531-0.001-0.006-0.125-0.469-0.125-0.469-0.333-0.2-0.553-0.338-0.875-0.531l-0.125-0.469c-0.334-0.201-0.552-0.337-0.875-0.531l-0.125-0.469c-0.334-0.201-0.552-0.337-0.875-0.531l-0.125-0.469c-0.334-0.201-0.552-0.337-0.875-0.531l-0.125-0.469c-0.32-0.192-0.534-0.314-0.844-0.5l-0.125-0.469c-0.332-0.199-0.554-0.338-0.875-0.531l-0.125-0.469c-0.332-0.199-0.554-0.338-0.875-0.531l-0.125-0.469c-0.333-0.2-0.553-0.338-0.875-0.531l-0.125-0.469c-0.334-0.201-0.552-0.337-0.875-0.531l-0.125-0.469c-0.334-0.201-0.552-0.337-0.875-0.531-0.001-0.006-0.125-0.469-0.125-0.469-0.32-0.192-0.534-0.314-0.844-0.5-0.001-0.006-0.125-0.469-0.125-0.469-0.332-0.199-0.554-0.338-0.875-0.531-0.001-0.006-0.125-0.469-0.125-0.469-0.332-0.199-0.554-0.338-0.875-0.531-0.001-0.006-0.125-0.469-0.125-0.469-0.333-0.2-0.553-0.338-0.875-0.531-0.001-0.006-0.125-0.469-0.125-0.469-0.334-0.201-0.552-0.337-0.875-0.531-0.001-0.006-0.125-0.469-0.125-0.469-0.334-0.201-0.552-0.337-0.875-0.531-0.001-0.006-0.125-0.469-0.125-0.469-0.334-0.201-0.552-0.337-0.875-0.531-0.001-0.006-0.125-0.469-0.125-0.469-0.32-0.192-0.534-0.314-0.844-0.5-0.001-0.006-0.125-0.469-0.125-0.469-0.332-0.199-0.554-0.338-0.875-0.531-0.001-0.006-0.125-0.469-0.125-0.469-0.333-0.2-0.553-0.338-0.875-0.531-0.001-0.006-0.125-0.469-0.125-0.469-0.334-0.201-0.552-0.337-0.875-0.531-0.001-0.006-0.125-0.469-0.125-0.469-0.334-0.201-0.552-0.337-0.875-0.531-0.001-0.006-0.125-0.469-0.125-0.469-0.334-0.201-0.552-0.337-0.875-0.531-0.001-0.006-0.125-0.469-0.125-0.469-0.32-0.192-0.534-0.314-0.844-0.5-0.001-0.006-0.125-0.469-0.125-0.469-0.332-0.199-0.554-0.338-0.875-0.531-0.001-0.006-0.125-0.469-0.125-0.469-0.333-0.2-0.553-0.338-0.875-0.531-0.001-0.006-0.125-0.469-0.125-0.469-0.334-0.201-0.552-0.337-0.875-0.531-0.001-0.006-0.125-0.469-0.125-0.469-0.334-0.201-0.552-0.337-0.875-0.531-0.001-0.006-0.125-0.469-0.125-0.469-0.334-0.201-0.552-0.337-0.875-0.531-0.001-0.006-0.125-0.469-0.125-0.469-0.32-0.192-0.534-0.314-0.844-0.5-0.001-0.006-0.125-0.469-0.125-0.469-0.332-0.199-0.554-0.338-0.875-0.531-0.001-0.006-0.125-0.469-0.125-0.469-0.332-0.199-0.554-0.338-0.875-0.531-0.001-0.006-0.125-0.469-0.125-0.469-0.333-0.2-0.553-0.338-0.875-0.531-0.001-0.006-0.125-0.469-0.125-0.469-0.334-0.201-0.552-0.337-0.875-0.531-0.001-0.006-0.125-0.469-0.125-0.469-0.334-0.201-0.552-0.337-0.875-0.531-0.001-0.006-0.125-0.469-0.125-0.469-0.32-0.192-0.534-0.314-0.844-0.5l-0.125-0.469c-0.332-0.199-0.554-0.338-0.875-0.531-0.001-0.006-0.125-0.469-0.125-0.469-0.332-0.199-0.554-0.338-0.875-0.531l-0.125-0.469c-0.333-0.2-0.553-0.338-0.875-0.531l-0.125-0.469c-0.334-0.201-0.552-0.337-0.875-0.531l-0.125-0.469c-0.334-0.201-0.552-0.337-0.875-0.531l-0.125-0.469c-0.334-0.201-0.552-0.337-0.875-0.531-0.001-0.006-0.125-0.469-0.125-0.469-0.32-0.192-0.534-0.314-0.844-0.5l-0.125-0.469c-0.332-0.199-0.554-0.338-0.875-0.531-0.001-0.006-0.125-0.469-0.125-0.469-0.333-0.2-0.553-0.338-0.875-0.531l-0.125-0.469c-0.334-0.201-0.552-0.337-0.875-0.531-0.001-0.006-0.125-0.469-0.125-0.469-0.334-0.201-0.552-0.337-0.875-0.531l-0.125-0.469c-0.334-0.201-0.552-0.337-0.875-0.531-0.001-0.006-0.125-0.469-0.125-0.469-0.32-0.192-0.534-0.314-0.844-0.5l-0.125-0.469c-0.332-0.199-0.554-0.338-0.875-0.531-0.001-0.006-0.125-0.469-0.125-0.469-0.332-0.199-0.554-0.338-0.875-0.531-0.001-0.006-0.125-0.469-0.125-0.469-0.333-0.2-0.553-0.338-0.875-0.531-0.001-0.006-0.125-0.469-0.125-0.469-0.334-0.201-0.552-0.337-0.875-0.531-0.001-0.006-0.125-0.469-0.125-0.469-0.334-0.201-0.552-0.337-0.875-0.531-0.001-0.006-0.125-0.469-0.125-0.469-0.32-0.192-0.534-0.314-0.844-0.5-0.001-0.006-0.125-0.469-0.125-0.469-0.332-0.199-0.554-0.338-0.875-0.531-0.001-0.006-0.125-0.469-0.125-0.469-0.332-0.199-0.554-0.338-0.875-0.531-0.001-0.006-0.125-0.469-0.125-0.469-0.333-0.2-0.553-0.338-0.875-0.531-0.001-0.006-0.125-0.469-0.125-0.469-0.334-0.201-0.552-0.337-0.875-0.531-0.001-0.006-0.125-0.469-0.125-0.469-0.334-0.201-0.552-0.337-0.875-0.531-0.001-0.006-0.125-0.469-0.125-0.469-0.334-0.201-0.552-0.337-0.875-0.531-0.001-0.006-0.125-0.469-0.125-0.469-0.32-0.192-0.534-0.314-0.844-0.5-0.001-0.006-0.125-0.469-0.125-0.469-0.332-0.199-0.554-0.338-0.875-0.531-0.001-0.006-0.125-0.469-0.125-0.469-0.333-0.2-0.553-0.338-0.875-0.531-0.001-0.006-0.125-0.469-0.125-0.469-0.334-0.201-0.552-0.337-0.875-0.531-0.001-0.006-0.125-0.469-0.125-0.469-0.334-0.201-0.552-0.337-0.875-0.531-0.001-0.006-0.125-0.469-0.125-0.469-0.334-0.201-0.552-0.337-0.875-0.531-0.001-0.006-0.125-0.469-0.125-0.469-0.32-0.192-0.534-0.314-0.844-0.5-0.001-0.006-0.125-0.469-0.125-0.469-0.332-0.199-0.554-0.338-0.875-0.531-0.001-0.006-0.125-0.469-0.125-0.469-0.333-0.2-0.553-0.338-0.875-0.531-0.001-0.006-0.125-0.469-0.125-0.469-0.334-0.201-0.552-0.337-0.875-0.531-0.001-0.006-0.125-0.469-0.125-0.469-0.334-0.201-0.552-0.337-0.875-0.531-0.001-0.006-0.125-0.469-0.125-0.469-0.334-0.201-0.552-0.337-0.875-0.531-0.001-0.006-0.125-0.469-0.125-0.469-0.32-0.192-0.534-0.314-0.844-0.5-0.001-0.006-0.125-0.469-0.125-0.469-0.332-0.199-0.554-0.338-0.875-0.531-0.001-0.006-0.125-0.469-0.125-0.469-0.332-0.199-0.554-0.338-0.875-0.531-0.001-0.006-0.125-0.469-0.125-0.469-0.333-0.2-0.553-0.338-0.875-0.531-0.001-0.006-0.125-0.469-0.125-0.469-0.334-0.201-0.552-0.337-0.875-0.531-0.001-0.006-0.125-0.469-0.125-0.469-0.334-0.201-0.552-0.337-0.875-0.531-0.001-0.006-0.125-0.469-0.125-0.469-0.32-0.192-0.534-0.314-0.844-0.5-0.001-0.006-0.125-0.469-0.125-0.469-0.332-0.199-0.554-0.338-0.875-0.531-0.001-0.006-0.125-0.469-0.125-0.469-0.332-0.199-0.554-0.338-0.875-0.531-0.001-0.006-0.125-0.469-0.125-0.469-0.333-0.2-0.553-0.338-0.875-0.531l-0.125-0.469c-10.731-6.446-15.819-9.649-20.719-9.625" style="color:#000000" fill-opacity=".235" transform="translate(0,540.36)"/>
  <g id="g10" transform="matrix(1.1417 0 0 1.1417 -629.6 -65.725)" fill="#fff">
   <path id="path12" stroke="#fff" stroke-width="16.9" d="m659.52 882.06h232.29l-23.53-46.06h-182.95s-10.333 19.482-25.808 46.06z"/>
   <path id="path14" d="m775.03 619.65c-4.291 0.021-8.403 2.86-16.971 8.422l-17.987 69.7 71.1-0.042-17.987-69.66c-9.399-5.646-13.865-8.443-18.16-8.422m-43.08 109.49-6.687 25.901h100.73l-6.645-25.816zm94.04 25.901 8.253 31.91-8.253-31.91m8.253 31.91-117.19-0.085-10.454 40.502c49.886 28.516 83.27 30.27 138.14 0.169z"/>
  </g>
  <g id="g16" fill-rule="evenodd">
   <path id="path18" fill-opacity=".067" d="m256 541.36c-140.83 0-255 114.17-255 255s114.17 255 255 255 255-114.17 255-255-114.17-255-255-255m8.827 44.931c120.9 0 218.9 98 218.9 218.9s-98 218.9-218.9 218.9-218.93-98-218.93-218.9 98.03-218.9 218.93-218.9"/>
   <g id="g20" fill-opacity=".129">
    <path id="path22" d="m256 544.79c-138.94 0-251.57 112.63-251.57 251.57s112.63 251.54 251.57 251.54 251.57-112.6 251.57-251.54-112.63-251.57-251.57-251.57m5.885 38.556c120.9 0 218.9 98 218.9 218.9s-98 218.9-218.9 218.9-218.93-98-218.93-218.9 98.03-218.9 218.93-218.9"/>
    <path id="path24" d="m256 548.72c-136.77 0-247.64 110.87-247.64 247.64s110.87 247.64 247.64 247.64 247.64-110.87 247.64-247.64-110.87-247.64-247.64-247.64m2.942 31.691c120.9 0 218.9 98 218.9 218.9s-98 218.9-218.9 218.9-218.93-98-218.93-218.9 98.03-218.9 218.93-218.9"/>
   </g>
   <path id="path26" d="m253.04 548.22c-135.42 0-245.19 109.78-245.19 245.19 0 135.42 109.78 245.19 245.19 245.19 135.42 0 245.19-109.78 245.19-245.19 0-135.42-109.78-245.19-245.19-245.19zm0 26.297c120.9 0 218.9 98 218.9 218.9s-98 218.9-218.9 218.9-218.93-98-218.93-218.9 98.03-218.9 218.93-218.9z" stroke-opacity=".31" stroke="#000" stroke-width="4.904" fill="#fff"/>
  </g>
  <text id="text28" style="word-spacing:0;letter-spacing:0" font-size="195.71px" line-height="125%" y="998.90002" x="-188.49001" font-family="Gentium Book Basic">
   <tspan id="tspan30" y="998.90002" x="-188.49001"/>
  </text>
  <text id="text32" style="text-anchor:middle" font-size="71.11px" transform="scale(4.0128 .2492)" y="3479.6101" x="251.50999" font-family="Arial"/>
 </g>
</svg>
