<svg xmlns="http://www.w3.org/2000/svg" id="svg2" version="1.1" viewBox="0 0 512 512"><metadata id="metadata3712"/><defs id="defs4"><radialGradient id="1C" cx="253.04" cy="253.05" r="218.91" gradientUnits="userSpaceOnUse"><stop id="stop10" offset="0" stop-color="#1e9016"/><stop id="stop12" offset=".7" stop-color="#1d6418"/><stop id="stop14" offset="1" stop-color="#1d381b"/></radialGradient></defs><path id="path3472" fill="url(#1C)" fill-rule="evenodd" d="m471.95 253.05c0 120.9-98.01 218.91-218.91 218.91s-218.91-98.01-218.91-218.91 98.01-218.91 218.91-218.91 218.91 98.01 218.91 218.91"/><path id="path3476" fill="#fff" d="m253.04 34.141c-4.81 0-9.58 0.172-14.32 0.478h28.64c-4.74-0.306-9.51-0.478-14.32-0.478zm-39.07 3.478c-4.7 0.848-9.35 1.857-13.95 3h106.04c-4.6-1.143-9.25-2.152-13.95-3h-78.14zm-24.81 6c-3.06 0.934-6.1 1.937-9.1 3h145.96c-3-1.063-6.04-2.066-9.1-3h-127.76zm-17.11 6c-2.4 0.957-4.78 1.962-7.13 3h176.24c-2.35-1.038-4.73-2.043-7.13-3h-161.98zm-13.69 6c-2.01 0.968-4 1.973-5.98 3h201.33c-1.99-1.027-3.98-2.032-6-3h-189.35zm-11.56 6c-1.76 0.977-3.5 1.977-5.22 3h222.92c-1.72-1.023-3.46-2.023-5.22-3h-212.48zm-10.14 6c-1.56 0.981-3.1 1.981-4.63 3h242.02c-1.53-1.019-3.07-2.019-4.63-3h-232.76zm-9.03 6c-1.41 0.984-2.8 1.984-4.18 3h259.18c-1.38-1.016-2.77-2.016-4.18-3h-250.82zm-8.16 6c-1.28 0.986-2.55 1.987-3.8 3h274.74c-1.25-1.013-2.52-2.014-3.8-3h-267.14zm-7.44 6c-1.17 0.989-2.34 1.988-3.49 3h289c-1.15-1.012-2.32-2.011-3.49-3h-282.02zm-6.83 6c-1.09 0.992-2.16 1.987-3.23 3h302.14c-1.07-1.013-2.14-2.008-3.23-3h-295.68zm-6.298 6c-0.997 0.99-1.982 1.992-2.961 3.001h314.2c-0.98-1.009-1.96-2.011-2.96-3.001h-308.28zm-5.816 6.001c-0.928 0.99-1.85 1.99-2.76 3h325.42c-0.91-1.01-1.83-2.01-2.76-3h-319.9zm-5.424 6c-0.859 0.99-1.701 1.99-2.543 3h335.84c-0.84-1.01-1.68-2.01-2.54-3h-330.76zm-5.006 6c-0.803 0.99-1.603 1.99-2.388 3h345.54c-0.78-1.01-1.58-2.01-2.39-3h-340.76zm-4.689 6c-0.746 0.99-1.476 1.99-2.205 3h354.56c-0.73-1.01-1.46-2.01-2.21-3h-350.14zm-4.346 6c-0.698 1-1.398 1.99-2.08 3h363c-0.68-1.01-1.38-2-2.08-3h-358.84zm-4.055 6c-0.648 0.99-1.289 1.99-1.921 3h370.8c-0.64-1.01-1.28-2.01-1.93-3h-366.94zm-3.793 6c-0.602 0.99-1.186 2-1.773 3h378.08c-0.59-1-1.17-2.01-1.77-3h-374.54zm-3.498 6c-0.562 1-1.128 1.99-1.675 3h384.88c-0.55-1.01-1.11-2-1.68-3h-381.52zm-3.261 6c-0.522 1-1.038 1.99-1.545 3h391.14c-0.51-1.01-1.02-2-1.54-3h-388.06zm-3.035 6c-0.483 0.99-0.949 2-1.417 3h396.96c-0.47-1-0.94-2.01-1.42-3h-394.12zm-2.797 6c-0.447 0.99-0.883 2-1.315 3h402.34c-0.43-1-0.87-2.01-1.31-3h-399.72zm-2.575 6c-0.411 1-0.829 1.99-1.226 3h407.32c-0.4-1.01-0.82-2-1.23-3h-404.86zm-2.371 6c-0.377 1-0.754 1.99-1.117 3h411.84c-0.36-1.01-0.74-2-1.12-3h-409.6zm-2.174 6c-0.343 1-0.678 2-1.007 3h415.98l-1.02-3h-413.96zm-1.98 6c-0.311 0.99-0.607 2-0.904 3h419.72c-0.3-1-0.59-2.01-0.9-3h-417.92zm-1.783 6c-0.28 0.99-0.544 2-0.811 3h423.1c-0.26-1-0.53-2-0.81-3h-421.48zm-1.59 6c-0.25 1-0.494 2-0.73 3h426.12c-0.23-1-0.48-2-0.73-3h-424.66zm-1.41 6c-0.221 1-0.446 2-0.653 3h428.78c-0.2-1-0.43-2-0.65-3h-427.48zm-1.237 6c-0.191 1-0.388 2-0.566 3h431.08c-0.17-1-0.37-2-0.56-3h-429.96zm-1.062 6c-0.163 1-0.326 2-0.475 3h433.02c-0.13-1-0.3-2-0.46-3h-432.08zm-0.895 6c-0.134 1-0.262 2-0.382 3h434.64c-0.12-1-0.25-2-0.39-3h-433.86zm-0.726 6c-0.106 1-0.2 2-0.293 3h435.9c-0.09-1-0.18-2-0.29-3h-435.32zm-0.559 6c-0.078 1-0.14 2-0.205 3h436.84c-0.06-1-0.12-2-0.2-3h-436.44zm-0.396 6c-0.051 1-0.079 2-0.117 3h437.46c-0.03-1-0.06-2-0.11-3h-437.24zm-0.225 6c-0.024 1-0.028 2-0.039 3h437.76c-0.01-1-0.01-2-0.04-3h-437.68zm-0.06 6c0.002 1 0.021 2 0.037 3h437.72c0.02-1 0.04-2 0.04-3h-437.8zm0.097 6c0.03 1 0.071 2 0.114 3h437.38c0.04-1 0.08-2 0.11-3h-437.6zm0.26 6c0.057 1 0.121 2 0.192 3h436.7c0.07-1 0.14-2 0.19-3h-437.08zm0.426 6c0.084 1 0.168 2 0.266 3h435.7c0.1-1 0.18-2 0.27-3h-436.24zm0.588 6c0.112 1 0.218 2 0.344 3h434.38c0.12-1 0.23-2 0.34-3h-435.06zm0.756 6c0.14 1 0.272 2 0.425 3h432.7c0.15-1 0.28-2 0.42-3h-433.54zm0.922 6c0.168 1 0.335 2 0.517 3h430.68c0.18-1 0.34-2 0.51-3h-431.7zm1.093 6c0.198 1 0.402 2 0.614 3h428.3l0.6-3h-429.52zm1.266 6c0.227 1 0.468 2 0.709 3h425.56c0.25-1 0.49-2 0.71-3h-426.98zm1.439 6c0.258 1 0.537 2 0.809 3h422.48c0.27-1 0.56-2 0.81-3h-424.1zm1.639 6c0.288 1 0.59 2 0.893 3h419.04c0.3-1 0.6-2 0.89-3h-420.82zm1.826 6c0.32 1 0.641 2 0.975 3h415.22c0.34-1 0.66-2 0.98-3h-417.18zm2.012 6c0.352 1 0.7 2 1.066 3h411.02c0.37-1 0.72-2 1.07-3h-413.16zm2.205 6c0.386 1 0.777 2 1.178 3h406.38c0.4-1 0.8-2 1.18-3h-408.74zm2.404 6c0.422 1 0.859 2 1.295 3h401.34c0.44-1 0.88-2 1.3-3h-403.94zm2.621 6c0.458 1 0.927 2 1.399 3h395.9c0.47-1 0.94-2 1.4-3h-398.7zm2.85 6c0.493 1 0.982 2.01 1.49 3h390.02c0.51-0.99 0.99-2 1.49-3h-393zm3.07 6c0.534 1 1.073 2 1.621 3h383.62c0.54-1 1.08-2 1.62-3h-386.86zm3.299 6c0.576 1.01 1.17 2 1.762 3h376.74c0.59-1 1.18-1.99 1.76-3h-380.26zm3.57 6c0.619 1 1.24 2.01 1.873 3h369.36c0.64-0.99 1.26-2 1.88-3h-373.12zm3.832 6c0.665 1 1.335 2.01 2.016 3h361.42c0.68-0.99 1.35-2 2.01-3h-365.45zm4.096 6c0.716 1.01 1.449 2 2.182 3h352.9c0.73-1 1.46-1.99 2.18-3h-357.26zm4.43 6c0.766 1 1.533 2.01 2.316 3h343.76c0.79-0.99 1.55-2 2.32-3h-348.4zm4.734 6c0.826 1.01 1.665 2.01 2.508 3h333.92c0.84-0.99 1.68-1.99 2.51-3h-338.94zm5.1 6c0.886 1.01 1.775 2.01 2.68 3h323.38c0.9-0.99 1.79-1.99 2.68-3h-328.74zm5.471 6c0.958 1.01 1.932 2.01 2.91 3h311.98c0.96-0.99 1.94-1.99 2.9-3h-317.8zm5.925 6c1.03 1.01 2.07 2.01 3.13 3h299.68c1.06-0.99 2.1-1.99 3.13-3h-305.94zm6.37 6c1.12 1.01 2.25 2.01 3.39 3h286.42c1.14-0.99 2.27-1.99 3.39-3h-293.2zm6.94 6c1.22 1.01 2.46 2.01 3.7 3h271.92c1.24-0.99 2.48-1.99 3.7-3h-279.32zm7.57 6c1.34 1.01 2.7 2.01 4.06 3h256.06c1.36-0.99 2.72-1.99 4.06-3h-264.18zm8.32 6c1.48 1.02 2.98 2.02 4.48 3h238.58c1.5-0.98 3-1.98 4.48-3h-247.54zm9.22 6c1.66 1.02 3.33 2.02 5.01 3h219.08c1.68-0.98 3.35-1.98 5.01-3h-229.1zm10.36 6c1.9 1.03 3.82 2.02 5.75 3h196.88c1.93-0.98 3.85-1.97 5.75-3h-208.38zm11.95 6c2.22 1.03 4.45 2.04 6.71 3h171.06c2.26-0.96 4.49-1.97 6.71-3h-184.48zm14.19 6c2.76 1.05 5.53 2.06 8.34 3h139.42c2.81-0.94 5.58-1.95 8.34-3h-156.1zm18 6c3.9 1.11 7.85 2.1 11.83 3h96.44c3.98-0.9 7.93-1.89 11.83-3h-120.1zm28.01 6c10.46 1.53 21.15 2.34 32.04 2.34 10.88 0 21.58-0.81 32.04-2.34h-64.08z" opacity=".2"/><g id="g3648" fill-rule="evenodd"><path id="path3650" fill-opacity=".067" d="m256 1c-140.83 0-255 114.17-255 255s114.17 255 255 255 255-114.17 255-255-114.17-255-255-255m8.827 44.931c120.9 0 218.9 98 218.9 218.9s-98 218.9-218.9 218.9-218.93-98-218.93-218.9 98.03-218.9 218.93-218.9"/><g id="g3652" fill-opacity=".129"><path id="path3654" d="m256 4.43c-138.94 0-251.57 112.63-251.57 251.57s112.63 251.57 251.57 251.57 251.57-112.63 251.57-251.57-112.63-251.57-251.57-251.57m5.885 38.556c120.9 0 218.9 98 218.9 218.9s-98 218.9-218.9 218.9-218.93-98-218.93-218.9 98.03-218.9 218.93-218.9"/><path id="path3656" d="m256 8.36c-136.77 0-247.64 110.87-247.64 247.64s110.87 247.64 247.64 247.64 247.64-110.87 247.64-247.64-110.87-247.64-247.64-247.64m2.942 31.691c120.9 0 218.9 98 218.9 218.9s-98 218.9-218.9 218.9-218.93-98-218.93-218.9 98.03-218.9 218.93-218.9"/></g><path id="path3658" fill="#fff" stroke="#000" stroke-opacity=".31" stroke-width="4.904" d="m253.04 7.86c-135.42 0-245.19 109.78-245.19 245.19 0 135.42 109.78 245.19 245.19 245.19 135.42 0 245.19-109.78 245.19-245.19 0-135.42-109.78-245.19-245.19-245.19m0 26.297c120.9 0 218.9 98 218.9 218.9s-98 218.9-218.9 218.9-218.93-98-218.93-218.9 98.03-218.9 218.93-218.9z"/></g><path id="path3706" d="m255.95 119.14c-46.32-0.072-91.71 28.31-126.08 79.885-19.249 28.882-39.33 75.31-37.725 87.25 0.573 4.274 2.945 8.678 6.129 11.861l173.06 173.06c103.09-8.528 185.92-88.48 198.86-190.25l-115.37-115.37c-22.861-22.861-49.728-38.667-76.11-44.09-7.584-1.559-15.187-2.334-22.766-2.346" opacity=".25"/><path id="path3708" fill="#fff" d="m217.76 391.51c-5.115-3.238 8.695-26.446 20.312-34.13 6.783-4.489 17.02-6.347 25.852-4.691 8.259 1.549 21.828 14.704 27.909 27.06 2.746 5.578 4.711 10.425 4.365 10.771s-2.398 1.055-4.562 1.576c-3.558 0.858-4.459-0.053-9.444-9.54-3.03-5.769-8.08-12.571-11.23-15.12-6.723-5.441-16.463-7.256-23.436-4.368-6.309 2.613-16.317 14.11-19.931 22.9-2.839 6.905-5.403 8.351-9.835 5.545m-40.03-28.542c-5.03-3.953-5.146-6.04-0.98-16.999 11.27-29.653 31.367-54.833 52.05-65.22 36.09-18.12 75.52 1.867 99.32 50.35 9.514 19.382 11 26.986 6.216 31.772-1.833 1.833-4.299 3.332-5.482 3.332-4.631 0-10.05-6.562-14.239-17.231-5.519-14.07-17.226-32.03-26.26-40.31-20.842-19.08-45.41-18.952-65.05 0.334-12.212 11.994-21.261 26.2-27.771 43.602-1.768 4.724-4.073 9.276-5.123 10.115-4.295 3.432-8.532 3.515-12.684 0.249m-39.32-32.06c-8.487-7.865-7.427-14.311 7.554-45.959 11.244-23.752 22.341-39.819 38.496-55.738 15.2-14.976 25.945-21.968 42.734-27.807 26.342-9.161 52.05-5.706 79.74 10.715 11.68 6.927 31.25 26.462 41.02 40.957 16.877 25.02 33.35 63.36 30.47 70.896-2.395 6.263-7.76 9.879-14.658 9.879-7.786 0-12.05-4.643-17.215-18.767-9.455-25.832-23.1-47.942-39.884-64.62-12.534-12.453-22.602-18.461-37.22-22.2-39.34-10.08-80.36 24.01-104.38 86.76-4.747 12.398-6.567 15.222-11.502 17.851-5.375 2.863-10.693 2.172-15.16-1.971m-34.935-29.11c-5.599-2.459-10.473-9.138-11.329-15.526-1.601-11.934 18.475-58.37 37.723-87.25 39.997-60.01 94.92-88.62 148.85-77.54 37.19 7.643 75.35 35.933 101.89 75.53 19.714 29.416 41.656 79.887 39.15 90.06-3.386 13.75-16.994 20.14-28.651 13.447-5.784-3.32-8.406-7.629-13.773-22.641-14.1-39.43-40.32-78.85-64.748-97.33-35.811-27.09-70.916-28.637-106.71-4.694-27.902 18.662-50.918 51.3-70.854 100.46-5.407 13.334-9.217 20.498-11.996 22.554-4.653 3.442-14.892 4.98-19.546 2.935"/></svg>