<svg xmlns="http://www.w3.org/2000/svg" xmlns:xlink="http://www.w3.org/1999/xlink" viewBox="0 0 512 512"><path fill="#a04" fill-rule="evenodd" d="m471.95 253.05c0 120.9-98.01 218.9-218.9 218.9-120.9 0-218.9-98.01-218.9-218.9 0-120.9 98.01-218.9 218.9-218.9 120.9 0 218.9 98.01 218.9 218.9"/><path fill="#98d53b" d="m257.94 34.16c120.89 0 218.91 98.01 218.91 218.91 0 0.814-0.022 1.626-0.031 2.438h-221.31v-221.31c0.816-0.009 1.619-0.031 2.438-0.031"/><path fill="#e4b033" d="m257.94 476.84c120.89 0 218.91-98.01 218.91-218.91 0-0.814-0.022-1.626-0.031-2.438h-221.31v221.31c0.816 0.009 1.619 0.031 2.438 0.031"/><path fill="#20a9bc" d="m253.06 476.84c-120.89 0-218.91-98.01-218.91-218.91 0-0.814 0.022-1.626 0.031-2.438h221.31v221.31c-0.816 0.009-1.619 0.031-2.438 0.031"/><path fill="#fb4e26" d="m253.06 34.16c-120.89 0-218.91 98.01-218.91 218.91 0 0.814 0.022 1.626 0.031 2.438h221.31v-221.31c-0.816-0.009-1.619-0.031-2.438-0.031"/><g fill-rule="evenodd"><path fill-opacity=".067" d="m256 1c-140.83 0-255 114.17-255 255s114.17 255 255 255 255-114.17 255-255-114.17-255-255-255m8.827 44.931c120.9 0 218.9 98 218.9 218.9s-98 218.9-218.9 218.9-218.93-98-218.93-218.9 98.03-218.9 218.93-218.9"/><g fill-opacity=".129"><path d="m256 4.433c-138.94 0-251.57 112.63-251.57 251.57s112.63 251.57 251.57 251.57 251.57-112.63 251.57-251.57-112.63-251.57-251.57-251.57m5.885 38.556c120.9 0 218.9 98 218.9 218.9s-98 218.9-218.9 218.9-218.93-98-218.93-218.9 98.03-218.9 218.93-218.9"/><path d="m256 8.356c-136.77 0-247.64 110.87-247.64 247.64s110.87 247.64 247.64 247.64 247.64-110.87 247.64-247.64-110.87-247.64-247.64-247.64m2.942 31.691c120.9 0 218.9 98 218.9 218.9s-98 218.9-218.9 218.9-218.93-98-218.93-218.9 98.03-218.9 218.93-218.9"/></g><path fill="#fff" stroke="#000" stroke-opacity=".31" stroke-width="4.904" d="m253.04 7.859c-135.42 0-245.19 109.78-245.19 245.19 0 135.42 109.78 245.19 245.19 245.19 135.42 0 245.19-109.78 245.19-245.19 0-135.42-109.78-245.19-245.19-245.19zm0 26.297c120.9 0 218.9 98 218.9 218.9s-98 218.9-218.9 218.9-218.93-98-218.93-218.9 98.03-218.9 218.93-218.9z"/></g><path d="m316.02 129.6l-60.04 60.04-60.01-60.01-66.35 66.35 60.01 60.01-60.04 60.04 66.37 66.37 87.45 87.45c96.59-13.409 173.01-89.83 186.42-186.42l-87.45-87.45-66.37-66.37" opacity=".25"/><path fill="#fff" d="m316.02 129.6l-60.04 60.04-60.01-60.01-66.35 66.35 60.01 60.01-60.04 60.04 66.37 66.37 60.04-60.04 60.04 60.04 66.35-66.35-60.04-60.04 60.04-60.04-66.37-66.37"/></svg>