<svg xmlns="http://www.w3.org/2000/svg" xmlns:xlink="http://www.w3.org/1999/xlink" viewBox="0 0 512 512"><defs><filter style="color-interpolation-filters:sRGB"><feGaussianBlur stdDeviation="1.71"/></filter><linearGradient gradientUnits="userSpaceOnUse" gradientTransform="scale(1.0059.99417)" y1="92.54" x2="0" y2="7.02"><stop/><stop offset="1" style="stop-opacity:.588"/></linearGradient><linearGradient xlink:href="#1" gradientUnits="userSpaceOnUse" gradientTransform="scale(1.0059.99417)" y1="92.54" x2="0" y2="7.02"/><linearGradient gradientTransform="scale(1.0059.99417)" gradientUnits="userSpaceOnUse" id="1" y2="7.02" x2="0" y1="92.54"><stop/><stop offset="1" style="stop-opacity:.588"/></linearGradient><linearGradient id="0"><stop style="stop-color:#fff"/><stop offset=".688" style="stop-color:#e8e8e8"/><stop offset=".875" style="stop-color:#686868"/><stop offset="1"/></linearGradient><radialGradient r="64" cy="64" cx="64" gradientUnits="userSpaceOnUse" xlink:href="#0" gradientTransform="matrix(4.16583 0 0 3.88749 2083.54-377.93)"/><radialGradient xlink:href="#0" gradientUnits="userSpaceOnUse" cx="64" cy="64" r="64" gradientTransform="matrix(4.16583 0 0 3.88749 660.12-262.53)"/></defs><text x="729.64" y="231.36" line-height="125%" style="letter-spacing:0;word-spacing:0;font-size:129.23;font-family:&apos;Gentium Book Basic&apos;"><tspan x="729.64" y="231.36"/></text><text x="378.91" y="579.25" transform="scale(4.0128.2492)" style="font-size:46.954;font-family:Arial;text-anchor:middle"/><text x="1310.91" y="151.36" line-height="125%" style="letter-spacing:0;word-spacing:0;font-size:129.23;font-family:&apos;Gentium Book Basic&apos;"><tspan x="1310.91" y="151.36"/></text><text x="523.76" y="258.22" transform="scale(4.0128.2492)" style="font-size:46.954;font-family:Arial;text-anchor:middle"/><text x="239.33" y="-29.901" line-height="125%" style="letter-spacing:0;word-spacing:0;font-size:129.23;font-family:&apos;Gentium Book Basic&apos;"><tspan x="239.33" y="-29.901"/></text><text x="256.72" y="-469.14" transform="scale(4.0128.2492)" style="font-size:46.954;font-family:Arial;text-anchor:middle"/><text x="1337.38" y="-246.37" line-height="125%" style="letter-spacing:0;word-spacing:0;font-size:129.23;font-family:&apos;Gentium Book Basic&apos;"><tspan x="1337.38" y="-246.37"/></text><text x="530.36" y="-1337.8" transform="scale(4.0128.2492)" style="font-size:46.954;font-family:Arial;text-anchor:middle"/><text x="1918.65" y="-326.38" line-height="125%" style="letter-spacing:0;word-spacing:0;font-size:129.23;font-family:&apos;Gentium Book Basic&apos;"><tspan x="1918.65" y="-326.38"/></text><text x="675.21" y="-1658.84" transform="scale(4.0128.2492)" style="font-size:46.954;font-family:Arial;text-anchor:middle"/><text x="1529.53" y="-798.78" line-height="125%" style="letter-spacing:0;word-spacing:0;font-size:129.23;font-family:&apos;Gentium Book Basic&apos;"><tspan x="1529.53" y="-798.78"/></text><text x="578.24" y="-3554.49" transform="scale(4.0128.2492)" style="font-size:46.954;font-family:Arial;text-anchor:middle"/><text x="2110.79" y="-878.78" line-height="125%" style="letter-spacing:0;word-spacing:0;font-size:129.23;font-family:&apos;Gentium Book Basic&apos;"><tspan x="2110.79" y="-878.78"/></text><text x="723.09" y="-3875.52" transform="scale(4.0128.2492)" style="font-size:46.954;font-family:Arial;text-anchor:middle"/><text x="277.99" y="535.94" line-height="125%" style="letter-spacing:0;word-spacing:0;font-size:208.33;font-family:&apos;Gentium Book Basic&apos;"><tspan x="277.99" y="535.94"/></text><path d="m471.95 253.05c0 120.9-98.01 218.9-218.9 218.9-120.9 0-218.9-98.01-218.9-218.9 0-120.9 98.01-218.9 218.9-218.9 120.9 0 218.9 98.01 218.9 218.9" style="fill:#a04;fill-rule:evenodd"/><path d="m257.94 34.16c120.89 0 218.91 98.01 218.91 218.91 0 .814-.022 1.626-.031 2.438h-221.31v-221.31c.816-.009 1.619-.031 2.438-.031" style="fill:#98d53b"/><path d="m257.94 476.84c120.89 0 218.91-98.01 218.91-218.91 0-.814-.022-1.626-.031-2.438h-221.31v221.31c.816.009 1.619.031 2.438.031" style="fill:#e4b033"/><path d="m253.06 476.84c-120.89 0-218.91-98.01-218.91-218.91 0-.814.022-1.626.031-2.438h221.31v221.31c-.816.009-1.619.031-2.438.031" style="fill:#20a9bc"/><path d="m253.06 34.16c-120.89 0-218.91 98.01-218.91 218.91 0 .814.022 1.626.031 2.438h221.31v-221.31c-.816-.009-1.619-.031-2.438-.031" style="fill:#fb4e26"/><g style="fill-rule:evenodd"><path d="m256 1c-140.83 0-255 114.17-255 255 0 140.83 114.17 255 255 255 140.83 0 255-114.17 255-255 0-140.83-114.17-255-255-255m8.827 44.931c120.9 0 218.9 98 218.9 218.9 0 120.9-98 218.9-218.9 218.9-120.9 0-218.93-98-218.93-218.9 0-120.9 98.03-218.9 218.93-218.9" style="fill-opacity:.067"/><g style="fill-opacity:.129"><path d="m256 4.433c-138.94 0-251.57 112.63-251.57 251.57 0 138.94 112.63 251.57 251.57 251.57 138.94 0 251.57-112.63 251.57-251.57 0-138.94-112.63-251.57-251.57-251.57m5.885 38.556c120.9 0 218.9 98 218.9 218.9 0 120.9-98 218.9-218.9 218.9-120.9 0-218.93-98-218.93-218.9 0-120.9 98.03-218.9 218.93-218.9"/><path d="m256 8.356c-136.77 0-247.64 110.87-247.64 247.64 0 136.77 110.87 247.64 247.64 247.64 136.77 0 247.64-110.87 247.64-247.64 0-136.77-110.87-247.64-247.64-247.64m2.942 31.691c120.9 0 218.9 98 218.9 218.9 0 120.9-98 218.9-218.9 218.9-120.9 0-218.93-98-218.93-218.9 0-120.9 98.03-218.9 218.93-218.9"/></g><path d="m253.04 7.859c-135.42 0-245.19 109.78-245.19 245.19 0 135.42 109.78 245.19 245.19 245.19 135.42 0 245.19-109.78 245.19-245.19 0-135.42-109.78-245.19-245.19-245.19zm0 26.297c120.9 0 218.9 98 218.9 218.9 0 120.9-98 218.9-218.9 218.9-120.9 0-218.93-98-218.93-218.9 0-120.9 98.03-218.9 218.93-218.9z" style="stroke-opacity:.31;fill:#fff;stroke:#000;stroke-width:4.904"/></g><text x="729.64" y="231.36" line-height="125%" style="letter-spacing:0;word-spacing:0;font-size:129.23;font-family:&apos;Gentium Book Basic&apos;"><tspan x="729.64" y="231.36"/></text><text x="378.91" y="579.25" transform="scale(4.0128.2492)" style="font-size:46.954;font-family:Arial;text-anchor:middle"/><text x="1310.91" y="151.36" line-height="125%" style="letter-spacing:0;word-spacing:0;font-size:129.23;font-family:&apos;Gentium Book Basic&apos;"><tspan x="1310.91" y="151.36"/></text><text x="523.76" y="258.22" transform="scale(4.0128.2492)" style="font-size:46.954;font-family:Arial;text-anchor:middle"/><text x="239.33" y="-29.901" line-height="125%" style="letter-spacing:0;word-spacing:0;font-size:129.23;font-family:&apos;Gentium Book Basic&apos;"><tspan x="239.33" y="-29.901"/></text><text x="256.72" y="-469.14" transform="scale(4.0128.2492)" style="font-size:46.954;font-family:Arial;text-anchor:middle"/><text x="1337.38" y="-246.37" line-height="125%" style="letter-spacing:0;word-spacing:0;font-size:129.23;font-family:&apos;Gentium Book Basic&apos;"><tspan x="1337.38" y="-246.37"/></text><text x="530.36" y="-1337.8" transform="scale(4.0128.2492)" style="font-size:46.954;font-family:Arial;text-anchor:middle"/><text x="1918.65" y="-326.38" line-height="125%" style="letter-spacing:0;word-spacing:0;font-size:129.23;font-family:&apos;Gentium Book Basic&apos;"><tspan x="1918.65" y="-326.38"/></text><text x="675.21" y="-1658.84" transform="scale(4.0128.2492)" style="font-size:46.954;font-family:Arial;text-anchor:middle"/><text x="1529.53" y="-798.78" line-height="125%" style="letter-spacing:0;word-spacing:0;font-size:129.23;font-family:&apos;Gentium Book Basic&apos;"><tspan x="1529.53" y="-798.78"/></text><text x="578.24" y="-3554.49" transform="scale(4.0128.2492)" style="font-size:46.954;font-family:Arial;text-anchor:middle"/><text x="2110.79" y="-878.78" line-height="125%" style="letter-spacing:0;word-spacing:0;font-size:129.23;font-family:&apos;Gentium Book Basic&apos;"><tspan x="2110.79" y="-878.78"/></text><text x="723.09" y="-3875.52" transform="scale(4.0128.2492)" style="font-size:46.954;font-family:Arial;text-anchor:middle"/><g line-height="125%" style="letter-spacing:0;word-spacing:0;font-family:&apos;Gentium Book Basic&apos;"><text x="277.99" y="535.94" style="font-size:208.33"><tspan x="277.99" y="535.94"/></text><text x="102.66" y="285.6" style="font-size:129.23"><tspan x="102.66" y="285.6"/></text></g><text x="222.66" y="796.89" transform="scale(4.0128.2492)" style="font-size:46.954;font-family:Arial;text-anchor:middle"/><text x="683.93" y="205.6" line-height="125%" style="letter-spacing:0;word-spacing:0;font-size:129.23;font-family:&apos;Gentium Book Basic&apos;"><tspan x="683.93" y="205.6"/></text><text x="367.51" y="475.86" transform="scale(4.0128.2492)" style="font-size:46.954;font-family:Arial;text-anchor:middle"/><text x="-387.65" y="24.336" line-height="125%" style="letter-spacing:0;word-spacing:0;font-size:129.23;font-family:&apos;Gentium Book Basic&apos;"><tspan x="-387.65" y="24.336"/></text><text x="100.47" y="-251.49" transform="scale(4.0128.2492)" style="font-size:46.954;font-family:Arial;text-anchor:middle"/><text x="710.4" y="-192.13" line-height="125%" style="letter-spacing:0;word-spacing:0;font-size:129.23;font-family:&apos;Gentium Book Basic&apos;"><tspan x="710.4" y="-192.13"/></text><text x="374.11" y="-1120.16" transform="scale(4.0128.2492)" style="font-size:46.954;font-family:Arial;text-anchor:middle"/><text x="1291.67" y="-272.14" line-height="125%" style="letter-spacing:0;word-spacing:0;font-size:129.23;font-family:&apos;Gentium Book Basic&apos;"><tspan x="1291.67" y="-272.14"/></text><text x="518.96" y="-1441.2" transform="scale(4.0128.2492)" style="font-size:46.954;font-family:Arial;text-anchor:middle"/><text x="902.55" y="-744.54" line-height="125%" style="letter-spacing:0;word-spacing:0;font-size:129.23;font-family:&apos;Gentium Book Basic&apos;"><tspan x="902.55" y="-744.54"/></text><text x="421.99" y="-3336.85" transform="scale(4.0128.2492)" style="font-size:46.954;font-family:Arial;text-anchor:middle"/><text x="1483.81" y="-824.54" line-height="125%" style="letter-spacing:0;word-spacing:0;font-size:129.23;font-family:&apos;Gentium Book Basic&apos;"><tspan x="1483.81" y="-824.54"/></text><text x="566.84" y="-3657.88" transform="scale(4.0128.2492)" style="font-size:46.954;font-family:Arial;text-anchor:middle"/><g transform="translate(-626.98 54.24)" line-height="125%" style="letter-spacing:0;word-spacing:0;font-size:208.33;font-family:&apos;Gentium Book Basic&apos;"><text x="277.99" y="535.94"><tspan x="277.99" y="535.94"/></text><text x="-1771.42" y="413.27"><tspan x="-1771.42" y="413.27"/></text></g><text x="-279.95" y="1313.13" transform="scale(4.0128.2492)" style="font-size:75.7;font-family:Arial;text-anchor:middle"/><text x="-1840.22" y="913.42" line-height="125%" style="letter-spacing:0;word-spacing:0;font-size:208.33;font-family:&apos;Gentium Book Basic&apos;"><tspan x="-1840.22" y="913.42"/></text><text x="-140.86" y="3102.48" transform="scale(4.0128.2492)" style="font-size:75.7;font-family:Arial;text-anchor:middle"/><text x="248.47" y="675.9" line-height="125%" style="letter-spacing:0;word-spacing:0;font-size:40;font-family:Sans"><tspan x="248.47" y="675.9" style="font-weight:bold;font-style:italic"/></text><path d="m255.96 97.51l103.9 103.9c0 .005 0 .01 0 .016l-103.91-103.9c-57.42 0-103.91 44.601-103.91 99.68 0 26.793 11.01 51.12 28.928 69.04l6.66 6.66c3.19 3.729 6.302 8.721 8.934 14.639 3.719 8.356 5.7 16.847 5.898 23.697l.027.057c.451 7.161 3.52 13.587 8.268 18.334l19.18 19.18-19.916 2.348 12.795 12.795-11.131 1.313 10.826 10.826-12.521 1.475 12.975 12.975-11.281 1.33 22.13 22.13-4.172.449 55.2 55.2c100.81-14.668 179.34-98.03 186.56-201.07l-140.34-140.34c-18.933-18.933-45.584-30.715-75.1-30.715" style="opacity:.25"/><path d="m255.95 97.53c-57.42 0-103.91 44.601-103.91 99.68 0 28.359 12.336 53.953 32.14 72.11l.028.084c4.334 3.755 8.785 10.113 12.355 18.14 3.719 8.356 5.699 16.847 5.897 23.697l.028.057c.94 14.93 13.264 26.66 28.44 26.66h50.34c15.792 0 28.525-12.704 28.525-28.497v-2.257c.702-6.01 2.566-12.876 5.587-19.666 3.573-8.03 7.995-14.387 12.326-18.14 19.864-18.17 32.25-43.805 32.25-72.2 0-55.08-46.579-99.68-104-99.68m-3.72435 26.380847a7.926705 7.926705 0 0 1 1.38252 15.77208c-14.552 1.813-27.22 6.25-36.736 14.587-9.515 8.337-16.451 20.743-18.791 40.709a7.934768 7.934768 0 1 1 -15.74386 -1.86218c2.685-22.92 11.446-39.7 24.1-50.786 12.653-11.09 28.629-16.303 45.2-18.368a7.926705 7.926705 0 0 1 .59251 -.0564m51.6331 216.21008a7.105889 7.105889 0 0 0 -.50787 .0564l-93.34 11a7.105889 7.105889 0 1 0 1.66467 14.10741l93.34-11a7.105889 7.105889 0 0 0 -1.15681 -14.16384m0 26.40907a7.206096 7.206096 0 0 0 -.50787 .0564l-93.37 11a7.206096 7.206096 0 1 0 1.69288 14.30491l93.37-11a7.206096 7.206096 0 0 0 -1.18502 -14.36134m-17.63426 27.34016a7.213686 7.213686 0 0 0 -.31036 .0282 7.206096 7.206096 0 0 0 -.50787 .0564l-57.33 6.179a7.208443 7.208443 0 0 0 1.55182 14.33312l57.33-6.179a7.218211 7.218211 0 0 0 -.73359 -14.41777" style="fill:#fff"/></svg>