<svg xmlns="http://www.w3.org/2000/svg" xmlns:xlink="http://www.w3.org/1999/xlink" viewBox="0 0 512 512"><defs><clipPath><path d="m41.735 10.497c-4.578 0-8.258 3.119-8.258 7v132.28 344.72c0 3.881 3.68 7 8.258 7h428.53c4.578 0 8.258-3.119 8.258-7v-344.72-132.28c0-3.881-3.68-7-8.258-7h-156.02-116.5-156.02"/></clipPath><clipPath><path d="m471.95 253.05c0 120.9-98.01 218.91-218.91 218.91-120.9 0-218.91-98.01-218.91-218.91 0-120.9 98.01-218.91 218.91-218.91 120.9 0 218.91 98.01 218.91 218.91"/></clipPath><filter style="color-interpolation-filters:sRGB"><feGaussianBlur stdDeviation="1.71"/></filter><linearGradient gradientUnits="userSpaceOnUse" gradientTransform="scale(1.0059.99417)" y1="92.54" x2="0" y2="7.02"><stop/><stop offset="1" style="stop-opacity:.588"/></linearGradient><linearGradient xlink:href="#1" gradientUnits="userSpaceOnUse" gradientTransform="scale(1.0059.99417)" y1="92.54" x2="0" y2="7.02"/><linearGradient id="0"><stop style="stop-color:#fff"/><stop offset=".688" style="stop-color:#e8e8e8"/><stop offset=".875" style="stop-color:#686868"/><stop offset="1"/></linearGradient><linearGradient gradientTransform="scale(1.0059.99417)" gradientUnits="userSpaceOnUse" id="1" y2="7.02" x2="0" y1="92.54"><stop/><stop offset="1" style="stop-opacity:.588"/></linearGradient><radialGradient xlink:href="#0" gradientUnits="userSpaceOnUse" cx="64" cy="64" r="64" gradientTransform="matrix(4.16583 0 0 3.88749 660.12-262.53)"/><radialGradient r="64" cy="64" cx="64" gradientUnits="userSpaceOnUse" xlink:href="#0" gradientTransform="matrix(4.16583 0 0 3.88749 2083.54-377.93)"/></defs><text x="729.64" y="231.36" line-height="125%" style="letter-spacing:0;word-spacing:0;font-size:129.23;font-family:&apos;Gentium Book Basic&apos;"><tspan x="729.64" y="231.36"/></text><text x="378.91" y="579.25" transform="scale(4.0128.2492)" style="font-size:46.954;font-family:Arial;text-anchor:middle"/><text x="1310.91" y="151.36" line-height="125%" style="letter-spacing:0;word-spacing:0;font-size:129.23;font-family:&apos;Gentium Book Basic&apos;"><tspan x="1310.91" y="151.36"/></text><text x="523.76" y="258.22" transform="scale(4.0128.2492)" style="font-size:46.954;font-family:Arial;text-anchor:middle"/><text x="239.33" y="-29.901" line-height="125%" style="letter-spacing:0;word-spacing:0;font-size:129.23;font-family:&apos;Gentium Book Basic&apos;"><tspan x="239.33" y="-29.901"/></text><text x="256.72" y="-469.14" transform="scale(4.0128.2492)" style="font-size:46.954;font-family:Arial;text-anchor:middle"/><text x="1337.38" y="-246.37" line-height="125%" style="letter-spacing:0;word-spacing:0;font-size:129.23;font-family:&apos;Gentium Book Basic&apos;"><tspan x="1337.38" y="-246.37"/></text><text x="530.36" y="-1337.8" transform="scale(4.0128.2492)" style="font-size:46.954;font-family:Arial;text-anchor:middle"/><text x="1918.65" y="-326.38" line-height="125%" style="letter-spacing:0;word-spacing:0;font-size:129.23;font-family:&apos;Gentium Book Basic&apos;"><tspan x="1918.65" y="-326.38"/></text><text x="675.21" y="-1658.84" transform="scale(4.0128.2492)" style="font-size:46.954;font-family:Arial;text-anchor:middle"/><text x="1529.53" y="-798.78" line-height="125%" style="letter-spacing:0;word-spacing:0;font-size:129.23;font-family:&apos;Gentium Book Basic&apos;"><tspan x="1529.53" y="-798.78"/></text><text x="578.24" y="-3554.49" transform="scale(4.0128.2492)" style="font-size:46.954;font-family:Arial;text-anchor:middle"/><text x="2110.79" y="-878.78" line-height="125%" style="letter-spacing:0;word-spacing:0;font-size:129.23;font-family:&apos;Gentium Book Basic&apos;"><tspan x="2110.79" y="-878.78"/></text><text x="723.09" y="-3875.52" transform="scale(4.0128.2492)" style="font-size:46.954;font-family:Arial;text-anchor:middle"/><g line-height="125%" style="letter-spacing:0;word-spacing:0;font-family:&apos;Gentium Book Basic&apos;"><text x="277.99" y="535.94" style="font-size:208.33"><tspan x="277.99" y="535.94"/></text><text x="729.64" y="231.36" style="font-size:129.23"><tspan x="729.64" y="231.36"/></text></g><text x="378.91" y="579.25" transform="scale(4.0128.2492)" style="font-size:46.954;font-family:Arial;text-anchor:middle"/><text x="1310.91" y="151.36" line-height="125%" style="letter-spacing:0;word-spacing:0;font-size:129.23;font-family:&apos;Gentium Book Basic&apos;"><tspan x="1310.91" y="151.36"/></text><text x="523.76" y="258.22" transform="scale(4.0128.2492)" style="font-size:46.954;font-family:Arial;text-anchor:middle"/><text x="239.33" y="-29.901" line-height="125%" style="letter-spacing:0;word-spacing:0;font-size:129.23;font-family:&apos;Gentium Book Basic&apos;"><tspan x="239.33" y="-29.901"/></text><text x="256.72" y="-469.14" transform="scale(4.0128.2492)" style="font-size:46.954;font-family:Arial;text-anchor:middle"/><text x="1337.38" y="-246.37" line-height="125%" style="letter-spacing:0;word-spacing:0;font-size:129.23;font-family:&apos;Gentium Book Basic&apos;"><tspan x="1337.38" y="-246.37"/></text><text x="530.36" y="-1337.8" transform="scale(4.0128.2492)" style="font-size:46.954;font-family:Arial;text-anchor:middle"/><text x="1918.65" y="-326.38" line-height="125%" style="letter-spacing:0;word-spacing:0;font-size:129.23;font-family:&apos;Gentium Book Basic&apos;"><tspan x="1918.65" y="-326.38"/></text><text x="675.21" y="-1658.84" transform="scale(4.0128.2492)" style="font-size:46.954;font-family:Arial;text-anchor:middle"/><text x="1529.53" y="-798.78" line-height="125%" style="letter-spacing:0;word-spacing:0;font-size:129.23;font-family:&apos;Gentium Book Basic&apos;"><tspan x="1529.53" y="-798.78"/></text><text x="578.24" y="-3554.49" transform="scale(4.0128.2492)" style="font-size:46.954;font-family:Arial;text-anchor:middle"/><text x="2110.79" y="-878.78" line-height="125%" style="letter-spacing:0;word-spacing:0;font-size:129.23;font-family:&apos;Gentium Book Basic&apos;"><tspan x="2110.79" y="-878.78"/></text><text x="723.09" y="-3875.52" transform="scale(4.0128.2492)" style="font-size:46.954;font-family:Arial;text-anchor:middle"/><g line-height="125%" style="letter-spacing:0;word-spacing:0;font-family:&apos;Gentium Book Basic&apos;"><text x="277.99" y="535.94" style="font-size:208.33"><tspan x="277.99" y="535.94"/></text><text x="102.66" y="285.6" style="font-size:129.23"><tspan x="102.66" y="285.6"/></text></g><text x="222.66" y="796.89" transform="scale(4.0128.2492)" style="font-size:46.954;font-family:Arial;text-anchor:middle"/><text x="683.93" y="205.6" line-height="125%" style="letter-spacing:0;word-spacing:0;font-size:129.23;font-family:&apos;Gentium Book Basic&apos;"><tspan x="683.93" y="205.6"/></text><text x="367.51" y="475.86" transform="scale(4.0128.2492)" style="font-size:46.954;font-family:Arial;text-anchor:middle"/><text x="-387.65" y="24.336" line-height="125%" style="letter-spacing:0;word-spacing:0;font-size:129.23;font-family:&apos;Gentium Book Basic&apos;"><tspan x="-387.65" y="24.336"/></text><text x="100.47" y="-251.49" transform="scale(4.0128.2492)" style="font-size:46.954;font-family:Arial;text-anchor:middle"/><text x="710.4" y="-192.13" line-height="125%" style="letter-spacing:0;word-spacing:0;font-size:129.23;font-family:&apos;Gentium Book Basic&apos;"><tspan x="710.4" y="-192.13"/></text><text x="374.11" y="-1120.16" transform="scale(4.0128.2492)" style="font-size:46.954;font-family:Arial;text-anchor:middle"/><text x="1291.67" y="-272.14" line-height="125%" style="letter-spacing:0;word-spacing:0;font-size:129.23;font-family:&apos;Gentium Book Basic&apos;"><tspan x="1291.67" y="-272.14"/></text><text x="518.96" y="-1441.2" transform="scale(4.0128.2492)" style="font-size:46.954;font-family:Arial;text-anchor:middle"/><text x="902.55" y="-744.54" line-height="125%" style="letter-spacing:0;word-spacing:0;font-size:129.23;font-family:&apos;Gentium Book Basic&apos;"><tspan x="902.55" y="-744.54"/></text><text x="421.99" y="-3336.85" transform="scale(4.0128.2492)" style="font-size:46.954;font-family:Arial;text-anchor:middle"/><text x="1483.81" y="-824.54" line-height="125%" style="letter-spacing:0;word-spacing:0;font-size:129.23;font-family:&apos;Gentium Book Basic&apos;"><tspan x="1483.81" y="-824.54"/></text><text x="566.84" y="-3657.88" transform="scale(4.0128.2492)" style="font-size:46.954;font-family:Arial;text-anchor:middle"/><g line-height="125%" style="letter-spacing:0;word-spacing:0;font-size:0;font-family:&apos;Gentium Book Basic&apos;"><text y="590.18" x="-348.99"><tspan y="590.18" x="-348.99"/></text><text y="467.51" x="-2398.4"><tspan y="467.51" x="-2398.4"/></text></g><text x="-279.95" y="1313.13" transform="scale(4.0128.2492)" style="font-size:75.7;font-family:Arial;text-anchor:middle"/><text x="-1840.22" y="913.42" line-height="125%" style="letter-spacing:0;word-spacing:0;font-size:208.33;font-family:&apos;Gentium Book Basic&apos;"><tspan x="-1840.22" y="913.42"/></text><text x="-140.86" y="3102.48" transform="scale(4.0128.2492)" style="font-size:75.7;font-family:Arial;text-anchor:middle"/><g line-height="125%" style="letter-spacing:0;word-spacing:0"><text x="248.47" y="675.9" style="font-size:40;font-family:Sans"><tspan x="248.47" y="675.9" style="font-weight:bold;font-style:italic"/></text><text x="729.64" y="231.36" style="font-size:129.23;font-family:&apos;Gentium Book Basic&apos;"><tspan x="729.64" y="231.36"/></text></g><text x="378.91" y="579.25" transform="scale(4.0128.2492)" style="font-size:46.954;font-family:Arial;text-anchor:middle"/><text x="1310.91" y="151.36" line-height="125%" style="letter-spacing:0;word-spacing:0;font-size:129.23;font-family:&apos;Gentium Book Basic&apos;"><tspan x="1310.91" y="151.36"/></text><text x="523.76" y="258.22" transform="scale(4.0128.2492)" style="font-size:46.954;font-family:Arial;text-anchor:middle"/><text x="239.33" y="-29.901" line-height="125%" style="letter-spacing:0;word-spacing:0;font-size:129.23;font-family:&apos;Gentium Book Basic&apos;"><tspan x="239.33" y="-29.901"/></text><text x="256.72" y="-469.14" transform="scale(4.0128.2492)" style="font-size:46.954;font-family:Arial;text-anchor:middle"/><text x="1337.38" y="-246.37" line-height="125%" style="letter-spacing:0;word-spacing:0;font-size:129.23;font-family:&apos;Gentium Book Basic&apos;"><tspan x="1337.38" y="-246.37"/></text><text x="530.36" y="-1337.8" transform="scale(4.0128.2492)" style="font-size:46.954;font-family:Arial;text-anchor:middle"/><text x="1918.65" y="-326.38" line-height="125%" style="letter-spacing:0;word-spacing:0;font-size:129.23;font-family:&apos;Gentium Book Basic&apos;"><tspan x="1918.65" y="-326.38"/></text><text x="675.21" y="-1658.84" transform="scale(4.0128.2492)" style="font-size:46.954;font-family:Arial;text-anchor:middle"/><text x="1529.53" y="-798.78" line-height="125%" style="letter-spacing:0;word-spacing:0;font-size:129.23;font-family:&apos;Gentium Book Basic&apos;"><tspan x="1529.53" y="-798.78"/></text><text x="578.24" y="-3554.49" transform="scale(4.0128.2492)" style="font-size:46.954;font-family:Arial;text-anchor:middle"/><text x="2110.79" y="-878.78" line-height="125%" style="letter-spacing:0;word-spacing:0;font-size:129.23;font-family:&apos;Gentium Book Basic&apos;"><tspan x="2110.79" y="-878.78"/></text><text x="723.09" y="-3875.52" transform="scale(4.0128.2492)" style="font-size:46.954;font-family:Arial;text-anchor:middle"/><g line-height="125%" style="letter-spacing:0;word-spacing:0;font-family:&apos;Gentium Book Basic&apos;"><text x="277.99" y="535.94" style="font-size:208.33"><tspan x="277.99" y="535.94"/></text><text x="729.64" y="231.36" style="font-size:129.23"><tspan x="729.64" y="231.36"/></text></g><text x="378.91" y="579.26" transform="scale(4.0128.2492)" style="font-size:46.954;font-family:Arial;text-anchor:middle"/><text line-height="125%" x="1310.91" y="151.36" style="letter-spacing:0;word-spacing:0;font-size:129.23;font-family:&apos;Gentium Book Basic&apos;"><tspan x="1310.91" y="151.36"/></text><text x="523.76" y="258.22" transform="scale(4.0128.2492)" style="font-size:46.954;font-family:Arial;text-anchor:middle"/><text line-height="125%" x="239.33" y="-29.9" style="letter-spacing:0;word-spacing:0;font-size:129.23;font-family:&apos;Gentium Book Basic&apos;"><tspan x="239.33" y="-29.9"/></text><text x="256.72" y="-469.13" transform="scale(4.0128.2492)" style="font-size:46.954;font-family:Arial;text-anchor:middle"/><text line-height="125%" x="1337.38" y="-246.37" style="letter-spacing:0;word-spacing:0;font-size:129.23;font-family:&apos;Gentium Book Basic&apos;"><tspan x="1337.38" y="-246.37"/></text><text x="530.36" y="-1337.8" transform="scale(4.0128.2492)" style="font-size:46.954;font-family:Arial;text-anchor:middle"/><text line-height="125%" x="1918.65" y="-326.37" style="letter-spacing:0;word-spacing:0;font-size:129.23;font-family:&apos;Gentium Book Basic&apos;"><tspan x="1918.65" y="-326.37"/></text><text x="675.21" y="-1658.83" transform="scale(4.0128.2492)" style="font-size:46.954;font-family:Arial;text-anchor:middle"/><text line-height="125%" x="1529.53" y="-798.77" style="letter-spacing:0;word-spacing:0;font-size:129.23;font-family:&apos;Gentium Book Basic&apos;"><tspan x="1529.53" y="-798.77"/></text><text x="578.24" y="-3554.48" transform="scale(4.0128.2492)" style="font-size:46.954;font-family:Arial;text-anchor:middle"/><text line-height="125%" x="2110.79" y="-878.78" style="letter-spacing:0;word-spacing:0;font-size:129.23;font-family:&apos;Gentium Book Basic&apos;"><tspan x="2110.79" y="-878.78"/></text><text x="723.09" y="-3875.52" transform="scale(4.0128.2492)" style="font-size:46.954;font-family:Arial;text-anchor:middle"/><text line-height="125%" x="277.99" y="535.94" style="letter-spacing:0;word-spacing:0;font-size:208.33;font-family:&apos;Gentium Book Basic&apos;"><tspan x="277.99" y="535.94"/></text><path d="m471.95 253.05c0 120.9-98.01 218.91-218.91 218.91-120.9 0-218.91-98.01-218.91-218.91 0-120.9 98.01-218.91 218.91-218.91 120.9 0 218.91 98.01 218.91 218.91" style="fill:#e4b033;fill-rule:evenodd"/><path d="m34.16 255.75c1.448 119.66 98.88 216.22 218.88 216.22 1.012 0 2.022-.049 3.03-.063v-216.16h-221.91" style="fill:#20a9bc"/><path d="m253.03 34.16c-120.9 0-218.91 98.01-218.91 218.91 0 .903.02 1.788.031 2.688h221.91v-221.56c-1.01-.014-2.02-.031-3.03-.031" style="fill:#fb4e26"/><path d="m256.06 34.19v221.56h215.84c.011-.9.031-1.785.031-2.688 0-119.89-96.38-217.25-215.87-218.87" style="fill:#98d53b"/><g style="fill-rule:evenodd"><path d="m256 1c-140.83 0-255 114.17-255 255 0 140.83 114.17 255 255 255 140.83 0 255-114.17 255-255 0-140.83-114.17-255-255-255m8.827 44.931c120.9 0 218.9 98 218.9 218.9 0 120.9-98 218.9-218.9 218.9-120.9 0-218.93-98-218.93-218.9 0-120.9 98.03-218.9 218.93-218.9" style="fill-opacity:.067"/><g style="fill-opacity:.129"><path d="m256 4.43c-138.94 0-251.57 112.63-251.57 251.57 0 138.94 112.63 251.57 251.57 251.57 138.94 0 251.57-112.63 251.57-251.57 0-138.94-112.63-251.57-251.57-251.57m5.885 38.556c120.9 0 218.9 98 218.9 218.9 0 120.9-98 218.9-218.9 218.9-120.9 0-218.93-98-218.93-218.9 0-120.9 98.03-218.9 218.93-218.9"/><path d="m256 8.36c-136.77 0-247.64 110.87-247.64 247.64 0 136.77 110.87 247.64 247.64 247.64 136.77 0 247.64-110.87 247.64-247.64 0-136.77-110.87-247.64-247.64-247.64m2.942 31.691c120.9 0 218.9 98 218.9 218.9 0 120.9-98 218.9-218.9 218.9-120.9 0-218.93-98-218.93-218.9 0-120.9 98.03-218.9 218.93-218.9"/></g><path d="m253.04 7.86c-135.42 0-245.19 109.78-245.19 245.19 0 135.42 109.78 245.19 245.19 245.19 135.42 0 245.19-109.78 245.19-245.19 0-135.42-109.78-245.19-245.19-245.19m0 26.297c120.9 0 218.9 98 218.9 218.9 0 120.9-98 218.9-218.9 218.9-120.9 0-218.93-98-218.93-218.9 0-120.9 98.03-218.9 218.93-218.9z" style="stroke-opacity:.31;fill:#fff;stroke:#000;stroke-width:4.904"/></g><text y="231.36" x="729.64" line-height="125%" style="letter-spacing:0;word-spacing:0;font-size:129.23;font-family:&apos;Gentium Book Basic&apos;"><tspan y="231.36" x="729.64"/></text><text transform="scale(4.0128.2492)" y="579.26" x="378.91" style="font-size:46.954;font-family:Arial;text-anchor:middle"/><text y="151.36" x="1310.91" line-height="125%" style="letter-spacing:0;word-spacing:0;font-size:129.23;font-family:&apos;Gentium Book Basic&apos;"><tspan y="151.36" x="1310.91"/></text><text transform="scale(4.0128.2492)" y="258.22" x="523.76" style="font-size:46.954;font-family:Arial;text-anchor:middle"/><text y="-29.9" x="239.33" line-height="125%" style="letter-spacing:0;word-spacing:0;font-size:129.23;font-family:&apos;Gentium Book Basic&apos;"><tspan y="-29.9" x="239.33"/></text><text transform="scale(4.0128.2492)" y="-469.13" x="256.72" style="font-size:46.954;font-family:Arial;text-anchor:middle"/><text y="-246.37" x="1337.38" line-height="125%" style="letter-spacing:0;word-spacing:0;font-size:129.23;font-family:&apos;Gentium Book Basic&apos;"><tspan y="-246.37" x="1337.38"/></text><text transform="scale(4.0128.2492)" y="-1337.8" x="530.36" style="font-size:46.954;font-family:Arial;text-anchor:middle"/><text y="-326.37" x="1918.65" line-height="125%" style="letter-spacing:0;word-spacing:0;font-size:129.23;font-family:&apos;Gentium Book Basic&apos;"><tspan y="-326.37" x="1918.65"/></text><text transform="scale(4.0128.2492)" y="-1658.83" x="675.21" style="font-size:46.954;font-family:Arial;text-anchor:middle"/><text y="-798.77" x="1529.53" line-height="125%" style="letter-spacing:0;word-spacing:0;font-size:129.23;font-family:&apos;Gentium Book Basic&apos;"><tspan y="-798.77" x="1529.53"/></text><text transform="scale(4.0128.2492)" y="-3554.48" x="578.24" style="font-size:46.954;font-family:Arial;text-anchor:middle"/><text y="-878.78" x="2110.79" line-height="125%" style="letter-spacing:0;word-spacing:0;font-size:129.23;font-family:&apos;Gentium Book Basic&apos;"><tspan y="-878.78" x="2110.79"/></text><text transform="scale(4.0128.2492)" y="-3875.52" x="723.09" style="font-size:46.954;font-family:Arial;text-anchor:middle"/><g line-height="125%" style="letter-spacing:0;word-spacing:0;font-family:&apos;Gentium Book Basic&apos;"><text y="535.94" x="277.99" style="font-size:208.33"><tspan y="535.94" x="277.99"/></text><text y="739.52" x="753.79" style="font-size:129.23"><tspan y="739.52" x="753.79"/></text></g><text transform="scale(4.0128.2492)" y="2618.42" x="384.93" style="font-size:46.954;font-family:Arial;text-anchor:middle"/><text y="659.52" x="1335.06" line-height="125%" style="letter-spacing:0;word-spacing:0;font-size:129.23;font-family:&apos;Gentium Book Basic&apos;"><tspan y="659.52" x="1335.06"/></text><text transform="scale(4.0128.2492)" y="2297.39" x="529.78" style="font-size:46.954;font-family:Arial;text-anchor:middle"/><text y="478.26" x="263.48" line-height="125%" style="letter-spacing:0;word-spacing:0;font-size:129.23;font-family:&apos;Gentium Book Basic&apos;"><tspan y="478.26" x="263.48"/></text><text transform="scale(4.0128.2492)" y="1570.04" x="262.74" style="font-size:46.954;font-family:Arial;text-anchor:middle"/><text y="261.79" x="1361.53" line-height="125%" style="letter-spacing:0;word-spacing:0;font-size:129.23;font-family:&apos;Gentium Book Basic&apos;"><tspan y="261.79" x="1361.53"/></text><text transform="scale(4.0128.2492)" y="701.37" x="536.38" style="font-size:46.954;font-family:Arial;text-anchor:middle"/><text y="181.78" x="1942.8" line-height="125%" style="letter-spacing:0;word-spacing:0;font-size:129.23;font-family:&apos;Gentium Book Basic&apos;"><tspan y="181.78" x="1942.8"/></text><text transform="scale(4.0128.2492)" y="380.33" x="681.23" style="font-size:46.954;font-family:Arial;text-anchor:middle"/><text y="-290.62" x="1553.68" line-height="125%" style="letter-spacing:0;word-spacing:0;font-size:129.23;font-family:&apos;Gentium Book Basic&apos;"><tspan y="-290.62" x="1553.68"/></text><text transform="scale(4.0128.2492)" y="-1515.32" x="584.26" style="font-size:46.954;font-family:Arial;text-anchor:middle"/><text y="-370.62" x="2134.94" line-height="125%" style="letter-spacing:0;word-spacing:0;font-size:129.23;font-family:&apos;Gentium Book Basic&apos;"><tspan y="-370.62" x="2134.94"/></text><text transform="scale(4.0128.2492)" y="-1836.35" x="729.11" style="font-size:46.954;font-family:Arial;text-anchor:middle"/><g line-height="125%" style="letter-spacing:0;word-spacing:0;font-family:&apos;Gentium Book Basic&apos;"><text y="1044.1" x="302.14" style="font-size:208.33"><tspan y="1044.1" x="302.14"/></text><text y="909.78" x="1056.16" style="font-size:129.23"><tspan y="909.78" x="1056.16"/></text></g><text transform="scale(4.0128.2492)" y="3301.61" x="460.28" style="font-size:46.954;font-family:Arial;text-anchor:middle"/><text y="829.78" x="1637.43" line-height="125%" style="letter-spacing:0;word-spacing:0;font-size:129.23;font-family:&apos;Gentium Book Basic&apos;"><tspan y="829.78" x="1637.43"/></text><text transform="scale(4.0128.2492)" y="2980.58" x="605.13" style="font-size:46.954;font-family:Arial;text-anchor:middle"/><text y="648.52" x="565.85" line-height="125%" style="letter-spacing:0;word-spacing:0;font-size:129.23;font-family:&apos;Gentium Book Basic&apos;"><tspan y="648.52" x="565.85"/></text><text transform="scale(4.0128.2492)" y="2253.22" x="338.09" style="font-size:46.954;font-family:Arial;text-anchor:middle"/><text y="432.05" x="1663.9" line-height="125%" style="letter-spacing:0;word-spacing:0;font-size:129.23;font-family:&apos;Gentium Book Basic&apos;"><tspan y="432.05" x="1663.9"/></text><text transform="scale(4.0128.2492)" y="1384.56" x="611.73" style="font-size:46.954;font-family:Arial;text-anchor:middle"/><text y="352.04" x="2245.17" line-height="125%" style="letter-spacing:0;word-spacing:0;font-size:129.23;font-family:&apos;Gentium Book Basic&apos;"><tspan y="352.04" x="2245.17"/></text><text transform="scale(4.0128.2492)" y="1063.52" x="756.57" style="font-size:46.954;font-family:Arial;text-anchor:middle"/><text y="-120.36" x="1856.05" line-height="125%" style="letter-spacing:0;word-spacing:0;font-size:129.23;font-family:&apos;Gentium Book Basic&apos;"><tspan y="-120.36" x="1856.05"/></text><text transform="scale(4.0128.2492)" y="-832.13" x="659.61" style="font-size:46.954;font-family:Arial;text-anchor:middle"/><text y="-200.36" x="2437.31" line-height="125%" style="letter-spacing:0;word-spacing:0;font-size:129.23;font-family:&apos;Gentium Book Basic&apos;"><tspan y="-200.36" x="2437.31"/></text><text transform="scale(4.0128.2492)" y="-1153.16" x="804.45" style="font-size:46.954;font-family:Arial;text-anchor:middle"/><g line-height="125%" style="letter-spacing:0;word-spacing:0;font-family:&apos;Gentium Book Basic&apos;"><text y="1214.36" x="604.51" style="font-size:208.33"><tspan y="1214.36" x="604.51"/></text><text y="879.4" x="1043.14" style="font-size:129.23"><tspan y="879.4" x="1043.14"/></text></g><text transform="scale(4.0128.2492)" y="3179.73" x="457.03" style="font-size:46.954;font-family:Arial;text-anchor:middle"/><text y="799.4" x="1624.41" line-height="125%" style="letter-spacing:0;word-spacing:0;font-size:129.23;font-family:&apos;Gentium Book Basic&apos;"><tspan y="799.4" x="1624.41"/></text><text transform="scale(4.0128.2492)" y="2858.7" x="601.88" style="font-size:46.954;font-family:Arial;text-anchor:middle"/><text y="618.14" x="552.83" line-height="125%" style="letter-spacing:0;word-spacing:0;font-size:129.23;font-family:&apos;Gentium Book Basic&apos;"><tspan y="618.14" x="552.83"/></text><text transform="scale(4.0128.2492)" y="2131.34" x="334.84" style="font-size:46.954;font-family:Arial;text-anchor:middle"/><text y="401.67" x="1650.88" line-height="125%" style="letter-spacing:0;word-spacing:0;font-size:129.23;font-family:&apos;Gentium Book Basic&apos;"><tspan y="401.67" x="1650.88"/></text><text transform="scale(4.0128.2492)" y="1262.68" x="608.48" style="font-size:46.954;font-family:Arial;text-anchor:middle"/><text y="321.66" x="2232.15" line-height="125%" style="letter-spacing:0;word-spacing:0;font-size:129.23;font-family:&apos;Gentium Book Basic&apos;"><tspan y="321.66" x="2232.15"/></text><text transform="scale(4.0128.2492)" y="941.64" x="753.33" style="font-size:46.954;font-family:Arial;text-anchor:middle"/><text y="-150.74" x="1843.03" line-height="125%" style="letter-spacing:0;word-spacing:0;font-size:129.23;font-family:&apos;Gentium Book Basic&apos;"><tspan y="-150.74" x="1843.03"/></text><text transform="scale(4.0128.2492)" y="-954.01" x="656.36" style="font-size:46.954;font-family:Arial;text-anchor:middle"/><text y="-230.74" x="2424.29" line-height="125%" style="letter-spacing:0;word-spacing:0;font-size:129.23;font-family:&apos;Gentium Book Basic&apos;"><tspan y="-230.74" x="2424.29"/></text><text transform="scale(4.0128.2492)" y="-1275.04" x="801.21" style="font-size:46.954;font-family:Arial;text-anchor:middle"/><g line-height="125%" style="letter-spacing:0;word-spacing:0;font-family:&apos;Gentium Book Basic&apos;"><text y="1183.98" x="591.49" style="font-size:208.33"><tspan y="1183.98" x="591.49"/></text><text y="945.09" x="1003.85" style="font-size:129.23"><tspan y="945.09" x="1003.85"/></text></g><text transform="scale(4.0128.2492)" y="3443.31" x="447.24" style="font-size:46.954;font-family:Arial;text-anchor:middle"/><text y="865.09" x="1585.12" line-height="125%" style="letter-spacing:0;word-spacing:0;font-size:129.23;font-family:&apos;Gentium Book Basic&apos;"><tspan y="865.09" x="1585.12"/></text><text transform="scale(4.0128.2492)" y="3122.29" x="592.09" style="font-size:46.954;font-family:Arial;text-anchor:middle"/><text y="683.83" x="513.54" line-height="125%" style="letter-spacing:0;word-spacing:0;font-size:129.23;font-family:&apos;Gentium Book Basic&apos;"><tspan y="683.83" x="513.54"/></text><text transform="scale(4.0128.2492)" y="2394.93" x="325.05" style="font-size:46.954;font-family:Arial;text-anchor:middle"/><text y="467.36" x="1611.59" line-height="125%" style="letter-spacing:0;word-spacing:0;font-size:129.23;font-family:&apos;Gentium Book Basic&apos;"><tspan y="467.36" x="1611.59"/></text><text transform="scale(4.0128.2492)" y="1526.26" x="598.69" style="font-size:46.954;font-family:Arial;text-anchor:middle"/><text y="387.35" x="2192.86" line-height="125%" style="letter-spacing:0;word-spacing:0;font-size:129.23;font-family:&apos;Gentium Book Basic&apos;"><tspan y="387.35" x="2192.86"/></text><text transform="scale(4.0128.2492)" y="1205.23" x="743.54" style="font-size:46.954;font-family:Arial;text-anchor:middle"/><text y="-85.05" x="1803.74" line-height="125%" style="letter-spacing:0;word-spacing:0;font-size:129.23;font-family:&apos;Gentium Book Basic&apos;"><tspan y="-85.05" x="1803.74"/></text><text transform="scale(4.0128.2492)" y="-690.42" x="646.57" style="font-size:46.954;font-family:Arial;text-anchor:middle"/><text y="-165.05" x="2385" line-height="125%" style="letter-spacing:0;word-spacing:0;font-size:129.23;font-family:&apos;Gentium Book Basic&apos;"><tspan y="-165.05" x="2385"/></text><text transform="scale(4.0128.2492)" y="-1011.45" x="791.42" style="font-size:46.954;font-family:Arial;text-anchor:middle"/><g transform="translate(274.21 713.73)" line-height="125%" style="letter-spacing:0;word-spacing:0;font-family:&apos;Gentium Book Basic&apos;"><text y="535.94" x="277.99" style="font-size:208.33"><tspan y="535.94" x="277.99"/></text><text y="135.65" x="148.44" style="font-size:129.23"><tspan y="135.65" x="148.44"/></text></g><text transform="scale(4.0128.2492)" y="3059.27" x="302.4" style="font-size:46.954;font-family:Arial;text-anchor:middle"/><text y="769.38" x="1003.92" line-height="125%" style="letter-spacing:0;word-spacing:0;font-size:129.23;font-family:&apos;Gentium Book Basic&apos;"><tspan y="769.38" x="1003.92"/></text><text transform="scale(4.0128.2492)" y="2738.24" x="447.25" style="font-size:46.954;font-family:Arial;text-anchor:middle"/><text y="588.12" x="-67.66" line-height="125%" style="letter-spacing:0;word-spacing:0;font-size:129.23;font-family:&apos;Gentium Book Basic&apos;"><tspan y="588.12" x="-67.66"/></text><text transform="scale(4.0128.2492)" y="2010.88" x="180.21" style="font-size:46.954;font-family:Arial;text-anchor:middle"/><text y="371.65" x="1030.39" line-height="125%" style="letter-spacing:0;word-spacing:0;font-size:129.23;font-family:&apos;Gentium Book Basic&apos;"><tspan y="371.65" x="1030.39"/></text><text transform="scale(4.0128.2492)" y="1142.23" x="453.85" style="font-size:46.954;font-family:Arial;text-anchor:middle"/><text y="291.64" x="1611.66" line-height="125%" style="letter-spacing:0;word-spacing:0;font-size:129.23;font-family:&apos;Gentium Book Basic&apos;"><tspan y="291.64" x="1611.66"/></text><text transform="scale(4.0128.2492)" y="821.19" x="598.7" style="font-size:46.954;font-family:Arial;text-anchor:middle"/><text y="-180.76" x="1222.54" line-height="125%" style="letter-spacing:0;word-spacing:0;font-size:129.23;font-family:&apos;Gentium Book Basic&apos;"><tspan y="-180.76" x="1222.54"/></text><text transform="scale(4.0128.2492)" y="-1074.45" x="501.73" style="font-size:46.954;font-family:Arial;text-anchor:middle"/><text y="-260.76" x="1803.8" line-height="125%" style="letter-spacing:0;word-spacing:0;font-size:129.23;font-family:&apos;Gentium Book Basic&apos;"><tspan y="-260.76" x="1803.8"/></text><text transform="scale(4.0128.2492)" y="-1395.48" x="646.58" style="font-size:46.954;font-family:Arial;text-anchor:middle"/><g line-height="125%" style="letter-spacing:0;word-spacing:0;font-family:&apos;Gentium Book Basic&apos;"><text y="1153.96" x="-29" style="font-size:208.33"><tspan y="1153.96" x="-29"/></text><text y="816.4" x="388.61" style="font-size:200;fill:#555753;stroke:#555753"><tspan y="816.4" x="388.61"/></text></g><g style="fill:#555753"><text transform="scale(4.0128.2492)" y="2735.69" x="401.86" style="font-size:72.67;font-family:Arial;stroke:none;text-anchor:middle"/><text y="869.54" x="1133.98" line-height="125%" style="letter-spacing:0;word-spacing:0;font-size:200;font-family:&apos;Gentium Book Basic&apos;;stroke:#555753"><tspan y="869.54" x="1133.98"/></text><text transform="scale(4.0128.2492)" y="2948.94" x="587.61" style="font-size:72.67;font-family:Arial;stroke:none;text-anchor:middle"/><text y="745.72" x="2033.6" line-height="125%" style="letter-spacing:0;word-spacing:0;font-size:200;font-family:&apos;Gentium Book Basic&apos;;stroke:#555753"><tspan y="745.72" x="2033.6"/></text><text transform="scale(4.0128.2492)" y="2452.08" x="811.79" style="font-size:72.67;font-family:Arial;stroke:none;text-anchor:middle"/><text y="693.08" x="1161.45" line-height="125%" style="letter-spacing:0;word-spacing:0;font-size:200;font-family:&apos;Gentium Book Basic&apos;;stroke:#555753"><tspan y="693.08" x="1161.45"/></text><text transform="scale(4.0128.2492)" y="2240.86" x="594.45" style="font-size:72.67;font-family:Arial;stroke:none;text-anchor:middle"/><text y="569.27" x="2061.06" line-height="125%" style="letter-spacing:0;word-spacing:0;font-size:200;font-family:&apos;Gentium Book Basic&apos;;stroke:#555753"><tspan y="569.27" x="2061.06"/></text><text transform="scale(4.0128.2492)" y="1744" x="818.63" style="font-size:72.67;font-family:Arial;stroke:none;text-anchor:middle"/><text y="1144.97" x="-1848.54" line-height="125%" style="letter-spacing:0;word-spacing:0;font-size:200;font-family:&apos;Gentium Book Basic&apos;;stroke:#555753"><tspan y="1144.97" x="-1848.54"/></text><text transform="scale(4.0128.2492)" y="4054.19" x="-155.64" style="font-size:72.67;font-family:Arial;stroke:none;text-anchor:middle"/></g><text y="1179.08" x="7.02" line-height="125%" style="letter-spacing:0;word-spacing:0;font-size:208.33;font-family:&apos;Gentium Book Basic&apos;"><tspan y="1179.08" x="7.02"/></text><text transform="scale(4.0128.2492)" y="4168.58" x="319.47" style="font-size:75.7;font-family:Arial;text-anchor:middle"/><g transform="translate(964.35 700.11)" style="fill:#654641"><text transform="scale(1.05082.95163)" y="221.3" x="681.22" line-height="125%" style="letter-spacing:0;word-spacing:0;font-size:84.77;font-family:&apos;Gentium Book Basic&apos;"><tspan y="221.3" x="681.22"/></text><text transform="scale(4.21679.23715)" y="659.01" x="299.04" style="font-size:30.8;font-family:Arial;text-anchor:middle"/><text transform="scale(1.05082.95163)" y="197.8" x="949.03" line-height="125%" style="letter-spacing:0;word-spacing:0;font-size:45.38;font-family:&apos;Gentium Book Basic&apos;"><tspan y="197.8" x="949.03"/></text><text transform="scale(4.21679.23715)" y="671.14" x="305.7" style="font-size:16.488;font-family:Arial;text-anchor:middle"/><text y="290.09" x="-25.07" line-height="125%" style="letter-spacing:0;word-spacing:0;font-size:132.57;font-family:&apos;Gentium Book Basic&apos;"><tspan y="290.09" x="-25.07"/></text><text transform="scale(4.0128.2492)" y="805.88" x="195.94" style="font-size:48.17;font-family:Arial;text-anchor:middle"/></g><g transform="translate(964.35 700.11)"><g style="fill:#654641"><text transform="scale(1.05082.95163)" y="185.78" x="119.84" line-height="125%" style="letter-spacing:0;word-spacing:0;font-size:84.77;font-family:&apos;Gentium Book Basic&apos;"><tspan y="185.78" x="119.84"/></text><text transform="scale(4.21679.23715)" y="516.46" x="159.14" style="font-size:30.8;font-family:Arial;text-anchor:middle"/><text transform="scale(1.05082.95163)" y="162.28" x="387.65" line-height="125%" style="letter-spacing:0;word-spacing:0;font-size:45.38;font-family:&apos;Gentium Book Basic&apos;"><tspan y="162.28" x="387.65"/></text><text transform="scale(4.21679.23715)" y="528.59" x="165.81" style="font-size:16.488;font-family:Arial;text-anchor:middle"/><text y="256.28" x="-614.98" line-height="125%" style="letter-spacing:0;word-spacing:0;font-size:132.57;font-family:&apos;Gentium Book Basic&apos;"><tspan y="256.28" x="-614.98"/></text><text transform="scale(4.0128.2492)" y="670.22" x="48.929" style="font-size:48.17;font-family:Arial;text-anchor:middle"/></g><g line-height="125%" style="letter-spacing:0;word-spacing:0;font-family:&apos;Gentium Book Basic&apos;"><g style="font-size:208.33"><text y="236.4" x="-352.73"><tspan y="236.4" x="-352.73"/></text><text y="78.57" x="-645.81"><tspan y="78.57" x="-645.81"/></text></g><text transform="scale(1.05082.95163)" y="181.15" x="89.53" style="font-size:84.77;fill:#654641"><tspan y="181.15" x="89.53"/></text></g><g style="fill:#654641"><text transform="scale(4.21679.23715)" y="497.89" x="151.59" style="font-size:30.8;font-family:Arial;text-anchor:middle"/><text transform="scale(1.05082.95163)" y="157.65" x="357.34" line-height="125%" style="letter-spacing:0;word-spacing:0;font-size:45.38;font-family:&apos;Gentium Book Basic&apos;"><tspan y="157.65" x="357.34"/></text><text transform="scale(4.21679.23715)" y="510.03" x="158.26" style="font-size:16.488;font-family:Arial;text-anchor:middle"/><text y="251.88" x="-646.83" line-height="125%" style="letter-spacing:0;word-spacing:0;font-size:132.57;font-family:&apos;Gentium Book Basic&apos;"><tspan y="251.88" x="-646.83"/></text><text transform="scale(4.0128.2492)" y="652.56" x="40.993" style="font-size:48.17;font-family:Arial;text-anchor:middle"/></g></g><text y="731.85" x="903.37" line-height="125%" style="letter-spacing:0;word-spacing:0;font-size:129.23;font-family:&apos;Gentium Book Basic&apos;"><tspan y="731.85" x="903.37"/></text><text transform="scale(4.0128.2492)" y="2587.64" x="422.2" style="font-size:46.954;font-family:Arial;text-anchor:middle"/><text y="651.85" x="1484.64" line-height="125%" style="letter-spacing:0;word-spacing:0;font-size:129.23;font-family:&apos;Gentium Book Basic&apos;"><tspan y="651.85" x="1484.64"/></text><text transform="scale(4.0128.2492)" y="2266.61" x="567.05" style="font-size:46.954;font-family:Arial;text-anchor:middle"/><text y="470.59" x="413.06" line-height="125%" style="letter-spacing:0;word-spacing:0;font-size:129.23;font-family:&apos;Gentium Book Basic&apos;"><tspan y="470.59" x="413.06"/></text><text transform="scale(4.0128.2492)" y="1539.26" x="300.01" style="font-size:46.954;font-family:Arial;text-anchor:middle"/><text y="254.12" x="1511.11" line-height="125%" style="letter-spacing:0;word-spacing:0;font-size:129.23;font-family:&apos;Gentium Book Basic&apos;"><tspan y="254.12" x="1511.11"/></text><text transform="scale(4.0128.2492)" y="670.59" x="573.65" style="font-size:46.954;font-family:Arial;text-anchor:middle"/><text y="174.11" x="2092.38" line-height="125%" style="letter-spacing:0;word-spacing:0;font-size:129.23;font-family:&apos;Gentium Book Basic&apos;"><tspan y="174.11" x="2092.38"/></text><text transform="scale(4.0128.2492)" y="349.55" x="718.5" style="font-size:46.954;font-family:Arial;text-anchor:middle"/><text y="-298.29" x="1703.26" line-height="125%" style="letter-spacing:0;word-spacing:0;font-size:129.23;font-family:&apos;Gentium Book Basic&apos;"><tspan y="-298.29" x="1703.26"/></text><text transform="scale(4.0128.2492)" y="-1546.1" x="621.53" style="font-size:46.954;font-family:Arial;text-anchor:middle"/><text y="-378.29" x="2284.52" line-height="125%" style="letter-spacing:0;word-spacing:0;font-size:129.23;font-family:&apos;Gentium Book Basic&apos;"><tspan y="-378.29" x="2284.52"/></text><text transform="scale(4.0128.2492)" y="-1867.13" x="766.38" style="font-size:46.954;font-family:Arial;text-anchor:middle"/><text y="1036.43" x="451.72" line-height="125%" style="letter-spacing:0;word-spacing:0;font-size:208.33;font-family:&apos;Gentium Book Basic&apos;"><tspan y="1036.43" x="451.72"/></text><g style="color:#000;fill-rule:evenodd"><path d="m189.02 97.28c-18.13 0-32.758 14.63-32.758 32.76v141.83c0 9.03 3.63 17.17 9.518 23.05l24.766 24.766v57.19c0 10.48 4.219 19.94 11.06 26.779l67.68 67.68c113.31-8.313 202.66-102.85 202.66-218.29 0-7.239-.362-14.393-1.049-21.451l-124.74-124.74c-5.924-5.924-14.11-9.58-23.18-9.58h-133.96" style="opacity:.25"/><path d="m189.02 97.28c-18.13 0-32.76 14.63-32.76 32.76v141.83c0 18.13 14.63 32.633 32.76 32.633h1.524v72.38c0 20.959 16.879 37.839 37.839 37.839h55.23c20.959 0 37.839-16.879 37.839-37.839v-72.38h1.524c18.13 0 32.76-14.503 32.76-32.633v-141.83c0-18.13-14.63-32.76-32.76-32.76h-133.96m66.916 27.554c45.34 0 82.15 36.816 82.15 82.15 0 45.34-36.816 82.03-82.15 82.03-45.34 0-82.03-36.689-82.03-82.03 0-45.34 36.689-82.15 82.03-82.15m43.17 29.712l-25.395 5.079c-13.974 2.773-26.544 5.186-27.935 5.46l-2.54.508-.127 19.554v19.554h1.143c.605 0 13.163-.215 27.935-.381 14.772-.164 26.904-.237 26.919-.254.016 0 .008-11.163 0-24.76v-24.76m-60.948 12.06c-.129.032-7.911 1.55-17.396 3.428l-17.269 3.428v15.872 15.745h1.905c1.049-.002 8.358-.032 16.253-.127 7.894-.092 14.946-.251 15.618-.254h1.143v-19.05-19.05h-.254m-34.664 42.28v15.745 15.872h.127c.151.037 34.462 6.824 34.664 6.857.028.008.097-8.574.127-19.05.029-10.472.008-19.04 0-19.05-.02 0-33.23-.385-34.28-.381h-.635m39.617.508v19.427c0 10.723-.016 19.553 0 19.554.012 0 12.537 2.426 27.808 5.46 15.27 3.034 27.86 5.582 27.935 5.587.122.003.202-1.314.254-13.332.033-7.29 0-18.325 0-24.633v-11.555h-.254c-.153 0-12.205-.09-26.792-.254-14.587-.164-27.03-.254-27.681-.254h-1.27m-28.823 125.2h30.855v32.25h-30.855v-32.25m52.57 0h30.855v32.25h-30.855v-32.25" style="fill:#fff"/></g></svg>