<svg xmlns="http://www.w3.org/2000/svg" xmlns:xlink="http://www.w3.org/1999/xlink" viewBox="0 0 512 512"><defs><clipPath><path d="m41.735 10.497c-4.578 0-8.258 3.119-8.258 7v132.28 344.72c0 3.881 3.68 7 8.258 7h428.53c4.578 0 8.258-3.119 8.258-7v-344.72-132.28c0-3.881-3.68-7-8.258-7h-156.02-116.5-156.02"/></clipPath><clipPath><path d="m471.95 253.05c0 120.9-98.01 218.91-218.91 218.91-120.9 0-218.91-98.01-218.91-218.91 0-120.9 98.01-218.91 218.91-218.91 120.9 0 218.91 98.01 218.91 218.91"/></clipPath><filter style="color-interpolation-filters:sRGB"><feGaussianBlur stdDeviation="1.71"/></filter><linearGradient gradientUnits="userSpaceOnUse" gradientTransform="scale(1.0059.99417)" y1="92.54" x2="0" y2="7.02"><stop/><stop offset="1" style="stop-opacity:.588"/></linearGradient><linearGradient xlink:href="#1" gradientUnits="userSpaceOnUse" gradientTransform="scale(1.0059.99417)" y1="92.54" x2="0" y2="7.02"/><linearGradient id="0"><stop style="stop-color:#fff"/><stop offset=".688" style="stop-color:#e8e8e8"/><stop offset=".875" style="stop-color:#686868"/><stop offset="1"/></linearGradient><linearGradient gradientTransform="scale(1.0059.99417)" gradientUnits="userSpaceOnUse" id="1" y2="7.02" x2="0" y1="92.54"><stop/><stop offset="1" style="stop-opacity:.588"/></linearGradient><radialGradient xlink:href="#0" gradientUnits="userSpaceOnUse" cx="64" cy="64" r="64" gradientTransform="matrix(4.16583 0 0 3.88749 660.12-262.53)"/><radialGradient r="64" cy="64" cx="64" gradientUnits="userSpaceOnUse" xlink:href="#0" gradientTransform="matrix(4.16583 0 0 3.88749 2083.54-377.93)"/></defs><text x="729.64" y="231.36" line-height="125%" style="letter-spacing:0;word-spacing:0;font-size:129.23;font-family:&apos;Gentium Book Basic&apos;"><tspan x="729.64" y="231.36"/></text><text x="378.91" y="579.25" transform="scale(4.0128.2492)" style="font-size:46.954;font-family:Arial;text-anchor:middle"/><text x="1310.91" y="151.36" line-height="125%" style="letter-spacing:0;word-spacing:0;font-size:129.23;font-family:&apos;Gentium Book Basic&apos;"><tspan x="1310.91" y="151.36"/></text><text x="523.76" y="258.22" transform="scale(4.0128.2492)" style="font-size:46.954;font-family:Arial;text-anchor:middle"/><text x="239.33" y="-29.901" line-height="125%" style="letter-spacing:0;word-spacing:0;font-size:129.23;font-family:&apos;Gentium Book Basic&apos;"><tspan x="239.33" y="-29.901"/></text><text x="256.72" y="-469.14" transform="scale(4.0128.2492)" style="font-size:46.954;font-family:Arial;text-anchor:middle"/><text x="1337.38" y="-246.37" line-height="125%" style="letter-spacing:0;word-spacing:0;font-size:129.23;font-family:&apos;Gentium Book Basic&apos;"><tspan x="1337.38" y="-246.37"/></text><text x="530.36" y="-1337.8" transform="scale(4.0128.2492)" style="font-size:46.954;font-family:Arial;text-anchor:middle"/><text x="1918.65" y="-326.38" line-height="125%" style="letter-spacing:0;word-spacing:0;font-size:129.23;font-family:&apos;Gentium Book Basic&apos;"><tspan x="1918.65" y="-326.38"/></text><text x="675.21" y="-1658.84" transform="scale(4.0128.2492)" style="font-size:46.954;font-family:Arial;text-anchor:middle"/><text x="1529.53" y="-798.78" line-height="125%" style="letter-spacing:0;word-spacing:0;font-size:129.23;font-family:&apos;Gentium Book Basic&apos;"><tspan x="1529.53" y="-798.78"/></text><text x="578.24" y="-3554.49" transform="scale(4.0128.2492)" style="font-size:46.954;font-family:Arial;text-anchor:middle"/><text x="2110.79" y="-878.78" line-height="125%" style="letter-spacing:0;word-spacing:0;font-size:129.23;font-family:&apos;Gentium Book Basic&apos;"><tspan x="2110.79" y="-878.78"/></text><text x="723.09" y="-3875.52" transform="scale(4.0128.2492)" style="font-size:46.954;font-family:Arial;text-anchor:middle"/><g line-height="125%" style="letter-spacing:0;word-spacing:0;font-family:&apos;Gentium Book Basic&apos;"><text x="277.99" y="535.94" style="font-size:208.33"><tspan x="277.99" y="535.94"/></text><text x="729.64" y="231.36" style="font-size:129.23"><tspan x="729.64" y="231.36"/></text></g><text x="378.91" y="579.25" transform="scale(4.0128.2492)" style="font-size:46.954;font-family:Arial;text-anchor:middle"/><text x="1310.91" y="151.36" line-height="125%" style="letter-spacing:0;word-spacing:0;font-size:129.23;font-family:&apos;Gentium Book Basic&apos;"><tspan x="1310.91" y="151.36"/></text><text x="523.76" y="258.22" transform="scale(4.0128.2492)" style="font-size:46.954;font-family:Arial;text-anchor:middle"/><text x="239.33" y="-29.901" line-height="125%" style="letter-spacing:0;word-spacing:0;font-size:129.23;font-family:&apos;Gentium Book Basic&apos;"><tspan x="239.33" y="-29.901"/></text><text x="256.72" y="-469.14" transform="scale(4.0128.2492)" style="font-size:46.954;font-family:Arial;text-anchor:middle"/><text x="1337.38" y="-246.37" line-height="125%" style="letter-spacing:0;word-spacing:0;font-size:129.23;font-family:&apos;Gentium Book Basic&apos;"><tspan x="1337.38" y="-246.37"/></text><text x="530.36" y="-1337.8" transform="scale(4.0128.2492)" style="font-size:46.954;font-family:Arial;text-anchor:middle"/><text x="1918.65" y="-326.38" line-height="125%" style="letter-spacing:0;word-spacing:0;font-size:129.23;font-family:&apos;Gentium Book Basic&apos;"><tspan x="1918.65" y="-326.38"/></text><text x="675.21" y="-1658.84" transform="scale(4.0128.2492)" style="font-size:46.954;font-family:Arial;text-anchor:middle"/><text x="1529.53" y="-798.78" line-height="125%" style="letter-spacing:0;word-spacing:0;font-size:129.23;font-family:&apos;Gentium Book Basic&apos;"><tspan x="1529.53" y="-798.78"/></text><text x="578.24" y="-3554.49" transform="scale(4.0128.2492)" style="font-size:46.954;font-family:Arial;text-anchor:middle"/><text x="2110.79" y="-878.78" line-height="125%" style="letter-spacing:0;word-spacing:0;font-size:129.23;font-family:&apos;Gentium Book Basic&apos;"><tspan x="2110.79" y="-878.78"/></text><text x="723.09" y="-3875.52" transform="scale(4.0128.2492)" style="font-size:46.954;font-family:Arial;text-anchor:middle"/><g line-height="125%" style="letter-spacing:0;word-spacing:0;font-family:&apos;Gentium Book Basic&apos;"><text x="277.99" y="535.94" style="font-size:208.33"><tspan x="277.99" y="535.94"/></text><text x="102.66" y="285.6" style="font-size:129.23"><tspan x="102.66" y="285.6"/></text></g><text x="222.66" y="796.89" transform="scale(4.0128.2492)" style="font-size:46.954;font-family:Arial;text-anchor:middle"/><text x="683.93" y="205.6" line-height="125%" style="letter-spacing:0;word-spacing:0;font-size:129.23;font-family:&apos;Gentium Book Basic&apos;"><tspan x="683.93" y="205.6"/></text><text x="367.51" y="475.86" transform="scale(4.0128.2492)" style="font-size:46.954;font-family:Arial;text-anchor:middle"/><text x="-387.65" y="24.336" line-height="125%" style="letter-spacing:0;word-spacing:0;font-size:129.23;font-family:&apos;Gentium Book Basic&apos;"><tspan x="-387.65" y="24.336"/></text><text x="100.47" y="-251.49" transform="scale(4.0128.2492)" style="font-size:46.954;font-family:Arial;text-anchor:middle"/><text x="710.4" y="-192.13" line-height="125%" style="letter-spacing:0;word-spacing:0;font-size:129.23;font-family:&apos;Gentium Book Basic&apos;"><tspan x="710.4" y="-192.13"/></text><text x="374.11" y="-1120.16" transform="scale(4.0128.2492)" style="font-size:46.954;font-family:Arial;text-anchor:middle"/><text x="1291.67" y="-272.14" line-height="125%" style="letter-spacing:0;word-spacing:0;font-size:129.23;font-family:&apos;Gentium Book Basic&apos;"><tspan x="1291.67" y="-272.14"/></text><text x="518.96" y="-1441.2" transform="scale(4.0128.2492)" style="font-size:46.954;font-family:Arial;text-anchor:middle"/><text x="902.55" y="-744.54" line-height="125%" style="letter-spacing:0;word-spacing:0;font-size:129.23;font-family:&apos;Gentium Book Basic&apos;"><tspan x="902.55" y="-744.54"/></text><text x="421.99" y="-3336.85" transform="scale(4.0128.2492)" style="font-size:46.954;font-family:Arial;text-anchor:middle"/><text x="1483.81" y="-824.54" line-height="125%" style="letter-spacing:0;word-spacing:0;font-size:129.23;font-family:&apos;Gentium Book Basic&apos;"><tspan x="1483.81" y="-824.54"/></text><text x="566.84" y="-3657.88" transform="scale(4.0128.2492)" style="font-size:46.954;font-family:Arial;text-anchor:middle"/><g line-height="125%" style="letter-spacing:0;word-spacing:0;font-size:0;font-family:&apos;Gentium Book Basic&apos;"><text y="590.18" x="-348.99"><tspan y="590.18" x="-348.99"/></text><text y="467.51" x="-2398.4"><tspan y="467.51" x="-2398.4"/></text></g><text x="-279.95" y="1313.13" transform="scale(4.0128.2492)" style="font-size:75.7;font-family:Arial;text-anchor:middle"/><text x="-1840.22" y="913.42" line-height="125%" style="letter-spacing:0;word-spacing:0;font-size:208.33;font-family:&apos;Gentium Book Basic&apos;"><tspan x="-1840.22" y="913.42"/></text><text x="-140.86" y="3102.48" transform="scale(4.0128.2492)" style="font-size:75.7;font-family:Arial;text-anchor:middle"/><g line-height="125%" style="letter-spacing:0;word-spacing:0"><text x="248.47" y="675.9" style="font-size:40;font-family:Sans"><tspan x="248.47" y="675.9" style="font-weight:bold;font-style:italic"/></text><text x="729.64" y="231.36" style="font-size:129.23;font-family:&apos;Gentium Book Basic&apos;"><tspan x="729.64" y="231.36"/></text></g><text x="378.91" y="579.25" transform="scale(4.0128.2492)" style="font-size:46.954;font-family:Arial;text-anchor:middle"/><text x="1310.91" y="151.36" line-height="125%" style="letter-spacing:0;word-spacing:0;font-size:129.23;font-family:&apos;Gentium Book Basic&apos;"><tspan x="1310.91" y="151.36"/></text><text x="523.76" y="258.22" transform="scale(4.0128.2492)" style="font-size:46.954;font-family:Arial;text-anchor:middle"/><text x="239.33" y="-29.901" line-height="125%" style="letter-spacing:0;word-spacing:0;font-size:129.23;font-family:&apos;Gentium Book Basic&apos;"><tspan x="239.33" y="-29.901"/></text><text x="256.72" y="-469.14" transform="scale(4.0128.2492)" style="font-size:46.954;font-family:Arial;text-anchor:middle"/><text x="1337.38" y="-246.37" line-height="125%" style="letter-spacing:0;word-spacing:0;font-size:129.23;font-family:&apos;Gentium Book Basic&apos;"><tspan x="1337.38" y="-246.37"/></text><text x="530.36" y="-1337.8" transform="scale(4.0128.2492)" style="font-size:46.954;font-family:Arial;text-anchor:middle"/><text x="1918.65" y="-326.38" line-height="125%" style="letter-spacing:0;word-spacing:0;font-size:129.23;font-family:&apos;Gentium Book Basic&apos;"><tspan x="1918.65" y="-326.38"/></text><text x="675.21" y="-1658.84" transform="scale(4.0128.2492)" style="font-size:46.954;font-family:Arial;text-anchor:middle"/><text x="1529.53" y="-798.78" line-height="125%" style="letter-spacing:0;word-spacing:0;font-size:129.23;font-family:&apos;Gentium Book Basic&apos;"><tspan x="1529.53" y="-798.78"/></text><text x="578.24" y="-3554.49" transform="scale(4.0128.2492)" style="font-size:46.954;font-family:Arial;text-anchor:middle"/><text x="2110.79" y="-878.78" line-height="125%" style="letter-spacing:0;word-spacing:0;font-size:129.23;font-family:&apos;Gentium Book Basic&apos;"><tspan x="2110.79" y="-878.78"/></text><text x="723.09" y="-3875.52" transform="scale(4.0128.2492)" style="font-size:46.954;font-family:Arial;text-anchor:middle"/><g line-height="125%" style="letter-spacing:0;word-spacing:0;font-family:&apos;Gentium Book Basic&apos;"><text x="277.99" y="535.94" style="font-size:208.33"><tspan x="277.99" y="535.94"/></text><text x="729.64" y="231.36" style="font-size:129.23"><tspan x="729.64" y="231.36"/></text></g><text x="378.91" y="579.26" transform="scale(4.0128.2492)" style="font-size:46.954;font-family:Arial;text-anchor:middle"/><text line-height="125%" x="1310.91" y="151.36" style="letter-spacing:0;word-spacing:0;font-size:129.23;font-family:&apos;Gentium Book Basic&apos;"><tspan x="1310.91" y="151.36"/></text><text x="523.76" y="258.22" transform="scale(4.0128.2492)" style="font-size:46.954;font-family:Arial;text-anchor:middle"/><text line-height="125%" x="239.33" y="-29.9" style="letter-spacing:0;word-spacing:0;font-size:129.23;font-family:&apos;Gentium Book Basic&apos;"><tspan x="239.33" y="-29.9"/></text><text x="256.72" y="-469.13" transform="scale(4.0128.2492)" style="font-size:46.954;font-family:Arial;text-anchor:middle"/><text line-height="125%" x="1337.38" y="-246.37" style="letter-spacing:0;word-spacing:0;font-size:129.23;font-family:&apos;Gentium Book Basic&apos;"><tspan x="1337.38" y="-246.37"/></text><text x="530.36" y="-1337.8" transform="scale(4.0128.2492)" style="font-size:46.954;font-family:Arial;text-anchor:middle"/><text line-height="125%" x="1918.65" y="-326.37" style="letter-spacing:0;word-spacing:0;font-size:129.23;font-family:&apos;Gentium Book Basic&apos;"><tspan x="1918.65" y="-326.37"/></text><text x="675.21" y="-1658.83" transform="scale(4.0128.2492)" style="font-size:46.954;font-family:Arial;text-anchor:middle"/><text line-height="125%" x="1529.53" y="-798.77" style="letter-spacing:0;word-spacing:0;font-size:129.23;font-family:&apos;Gentium Book Basic&apos;"><tspan x="1529.53" y="-798.77"/></text><text x="578.24" y="-3554.48" transform="scale(4.0128.2492)" style="font-size:46.954;font-family:Arial;text-anchor:middle"/><text line-height="125%" x="2110.79" y="-878.78" style="letter-spacing:0;word-spacing:0;font-size:129.23;font-family:&apos;Gentium Book Basic&apos;"><tspan x="2110.79" y="-878.78"/></text><text x="723.09" y="-3875.52" transform="scale(4.0128.2492)" style="font-size:46.954;font-family:Arial;text-anchor:middle"/><g line-height="125%" style="letter-spacing:0;word-spacing:0;font-family:&apos;Gentium Book Basic&apos;"><text x="277.99" y="535.94" style="font-size:208.33"><tspan x="277.99" y="535.94"/></text><text y="231.36" x="729.64" style="font-size:129.23"><tspan y="231.36" x="729.64"/></text></g><text transform="scale(4.0128.2492)" y="579.26" x="378.91" style="font-size:46.954;font-family:Arial;text-anchor:middle"/><text y="151.36" x="1310.91" line-height="125%" style="letter-spacing:0;word-spacing:0;font-size:129.23;font-family:&apos;Gentium Book Basic&apos;"><tspan y="151.36" x="1310.91"/></text><text transform="scale(4.0128.2492)" y="258.22" x="523.76" style="font-size:46.954;font-family:Arial;text-anchor:middle"/><text y="-29.9" x="239.33" line-height="125%" style="letter-spacing:0;word-spacing:0;font-size:129.23;font-family:&apos;Gentium Book Basic&apos;"><tspan y="-29.9" x="239.33"/></text><text transform="scale(4.0128.2492)" y="-469.13" x="256.72" style="font-size:46.954;font-family:Arial;text-anchor:middle"/><text y="-246.37" x="1337.38" line-height="125%" style="letter-spacing:0;word-spacing:0;font-size:129.23;font-family:&apos;Gentium Book Basic&apos;"><tspan y="-246.37" x="1337.38"/></text><text transform="scale(4.0128.2492)" y="-1337.8" x="530.36" style="font-size:46.954;font-family:Arial;text-anchor:middle"/><text y="-326.37" x="1918.65" line-height="125%" style="letter-spacing:0;word-spacing:0;font-size:129.23;font-family:&apos;Gentium Book Basic&apos;"><tspan y="-326.37" x="1918.65"/></text><text transform="scale(4.0128.2492)" y="-1658.83" x="675.21" style="font-size:46.954;font-family:Arial;text-anchor:middle"/><text y="-798.77" x="1529.53" line-height="125%" style="letter-spacing:0;word-spacing:0;font-size:129.23;font-family:&apos;Gentium Book Basic&apos;"><tspan y="-798.77" x="1529.53"/></text><text transform="scale(4.0128.2492)" y="-3554.48" x="578.24" style="font-size:46.954;font-family:Arial;text-anchor:middle"/><text y="-878.78" x="2110.79" line-height="125%" style="letter-spacing:0;word-spacing:0;font-size:129.23;font-family:&apos;Gentium Book Basic&apos;"><tspan y="-878.78" x="2110.79"/></text><text transform="scale(4.0128.2492)" y="-3875.52" x="723.09" style="font-size:46.954;font-family:Arial;text-anchor:middle"/><g line-height="125%" style="letter-spacing:0;word-spacing:0;font-family:&apos;Gentium Book Basic&apos;"><text y="535.94" x="277.99" style="font-size:208.33"><tspan y="535.94" x="277.99"/></text><text y="739.52" x="753.79" style="font-size:129.23"><tspan y="739.52" x="753.79"/></text></g><text transform="scale(4.0128.2492)" y="2618.42" x="384.93" style="font-size:46.954;font-family:Arial;text-anchor:middle"/><text y="659.52" x="1335.06" line-height="125%" style="letter-spacing:0;word-spacing:0;font-size:129.23;font-family:&apos;Gentium Book Basic&apos;"><tspan y="659.52" x="1335.06"/></text><text transform="scale(4.0128.2492)" y="2297.39" x="529.78" style="font-size:46.954;font-family:Arial;text-anchor:middle"/><text y="478.26" x="263.48" line-height="125%" style="letter-spacing:0;word-spacing:0;font-size:129.23;font-family:&apos;Gentium Book Basic&apos;"><tspan y="478.26" x="263.48"/></text><text transform="scale(4.0128.2492)" y="1570.04" x="262.74" style="font-size:46.954;font-family:Arial;text-anchor:middle"/><text y="261.79" x="1361.53" line-height="125%" style="letter-spacing:0;word-spacing:0;font-size:129.23;font-family:&apos;Gentium Book Basic&apos;"><tspan y="261.79" x="1361.53"/></text><text transform="scale(4.0128.2492)" y="701.37" x="536.38" style="font-size:46.954;font-family:Arial;text-anchor:middle"/><text y="181.78" x="1942.8" line-height="125%" style="letter-spacing:0;word-spacing:0;font-size:129.23;font-family:&apos;Gentium Book Basic&apos;"><tspan y="181.78" x="1942.8"/></text><text transform="scale(4.0128.2492)" y="380.33" x="681.23" style="font-size:46.954;font-family:Arial;text-anchor:middle"/><text y="-290.62" x="1553.68" line-height="125%" style="letter-spacing:0;word-spacing:0;font-size:129.23;font-family:&apos;Gentium Book Basic&apos;"><tspan y="-290.62" x="1553.68"/></text><text transform="scale(4.0128.2492)" y="-1515.32" x="584.26" style="font-size:46.954;font-family:Arial;text-anchor:middle"/><text y="-370.62" x="2134.94" line-height="125%" style="letter-spacing:0;word-spacing:0;font-size:129.23;font-family:&apos;Gentium Book Basic&apos;"><tspan y="-370.62" x="2134.94"/></text><text transform="scale(4.0128.2492)" y="-1836.35" x="729.11" style="font-size:46.954;font-family:Arial;text-anchor:middle"/><g line-height="125%" style="letter-spacing:0;word-spacing:0;font-family:&apos;Gentium Book Basic&apos;"><text y="1044.1" x="302.14" style="font-size:208.33"><tspan y="1044.1" x="302.14"/></text><text y="909.78" x="1056.16" style="font-size:129.23"><tspan y="909.78" x="1056.16"/></text></g><text transform="scale(4.0128.2492)" y="3301.61" x="460.28" style="font-size:46.954;font-family:Arial;text-anchor:middle"/><text y="829.78" x="1637.43" line-height="125%" style="letter-spacing:0;word-spacing:0;font-size:129.23;font-family:&apos;Gentium Book Basic&apos;"><tspan y="829.78" x="1637.43"/></text><text transform="scale(4.0128.2492)" y="2980.58" x="605.13" style="font-size:46.954;font-family:Arial;text-anchor:middle"/><text y="648.52" x="565.85" line-height="125%" style="letter-spacing:0;word-spacing:0;font-size:129.23;font-family:&apos;Gentium Book Basic&apos;"><tspan y="648.52" x="565.85"/></text><text transform="scale(4.0128.2492)" y="2253.22" x="338.09" style="font-size:46.954;font-family:Arial;text-anchor:middle"/><text y="432.05" x="1663.9" line-height="125%" style="letter-spacing:0;word-spacing:0;font-size:129.23;font-family:&apos;Gentium Book Basic&apos;"><tspan y="432.05" x="1663.9"/></text><text transform="scale(4.0128.2492)" y="1384.56" x="611.73" style="font-size:46.954;font-family:Arial;text-anchor:middle"/><text y="352.04" x="2245.17" line-height="125%" style="letter-spacing:0;word-spacing:0;font-size:129.23;font-family:&apos;Gentium Book Basic&apos;"><tspan y="352.04" x="2245.17"/></text><text transform="scale(4.0128.2492)" y="1063.52" x="756.57" style="font-size:46.954;font-family:Arial;text-anchor:middle"/><text y="-120.36" x="1856.05" line-height="125%" style="letter-spacing:0;word-spacing:0;font-size:129.23;font-family:&apos;Gentium Book Basic&apos;"><tspan y="-120.36" x="1856.05"/></text><text transform="scale(4.0128.2492)" y="-832.13" x="659.61" style="font-size:46.954;font-family:Arial;text-anchor:middle"/><text y="-200.36" x="2437.31" line-height="125%" style="letter-spacing:0;word-spacing:0;font-size:129.23;font-family:&apos;Gentium Book Basic&apos;"><tspan y="-200.36" x="2437.31"/></text><text transform="scale(4.0128.2492)" y="-1153.16" x="804.45" style="font-size:46.954;font-family:Arial;text-anchor:middle"/><g line-height="125%" style="letter-spacing:0;word-spacing:0;font-family:&apos;Gentium Book Basic&apos;"><text y="1214.36" x="604.51" style="font-size:208.33"><tspan y="1214.36" x="604.51"/></text><text y="879.4" x="1043.14" style="font-size:129.23"><tspan y="879.4" x="1043.14"/></text></g><text transform="scale(4.0128.2492)" y="3179.73" x="457.03" style="font-size:46.954;font-family:Arial;text-anchor:middle"/><text y="799.4" x="1624.41" line-height="125%" style="letter-spacing:0;word-spacing:0;font-size:129.23;font-family:&apos;Gentium Book Basic&apos;"><tspan y="799.4" x="1624.41"/></text><text transform="scale(4.0128.2492)" y="2858.7" x="601.88" style="font-size:46.954;font-family:Arial;text-anchor:middle"/><text y="618.14" x="552.83" line-height="125%" style="letter-spacing:0;word-spacing:0;font-size:129.23;font-family:&apos;Gentium Book Basic&apos;"><tspan y="618.14" x="552.83"/></text><text transform="scale(4.0128.2492)" y="2131.34" x="334.84" style="font-size:46.954;font-family:Arial;text-anchor:middle"/><text y="401.67" x="1650.88" line-height="125%" style="letter-spacing:0;word-spacing:0;font-size:129.23;font-family:&apos;Gentium Book Basic&apos;"><tspan y="401.67" x="1650.88"/></text><text transform="scale(4.0128.2492)" y="1262.68" x="608.48" style="font-size:46.954;font-family:Arial;text-anchor:middle"/><text y="321.66" x="2232.15" line-height="125%" style="letter-spacing:0;word-spacing:0;font-size:129.23;font-family:&apos;Gentium Book Basic&apos;"><tspan y="321.66" x="2232.15"/></text><text transform="scale(4.0128.2492)" y="941.64" x="753.33" style="font-size:46.954;font-family:Arial;text-anchor:middle"/><text y="-150.74" x="1843.03" line-height="125%" style="letter-spacing:0;word-spacing:0;font-size:129.23;font-family:&apos;Gentium Book Basic&apos;"><tspan y="-150.74" x="1843.03"/></text><text transform="scale(4.0128.2492)" y="-954.01" x="656.36" style="font-size:46.954;font-family:Arial;text-anchor:middle"/><text y="-230.74" x="2424.29" line-height="125%" style="letter-spacing:0;word-spacing:0;font-size:129.23;font-family:&apos;Gentium Book Basic&apos;"><tspan y="-230.74" x="2424.29"/></text><text transform="scale(4.0128.2492)" y="-1275.04" x="801.21" style="font-size:46.954;font-family:Arial;text-anchor:middle"/><g line-height="125%" style="letter-spacing:0;word-spacing:0;font-family:&apos;Gentium Book Basic&apos;"><text y="1183.98" x="591.49" style="font-size:208.33"><tspan y="1183.98" x="591.49"/></text><text y="945.09" x="1003.85" style="font-size:129.23"><tspan y="945.09" x="1003.85"/></text></g><text transform="scale(4.0128.2492)" y="3443.31" x="447.24" style="font-size:46.954;font-family:Arial;text-anchor:middle"/><text y="865.09" x="1585.12" line-height="125%" style="letter-spacing:0;word-spacing:0;font-size:129.23;font-family:&apos;Gentium Book Basic&apos;"><tspan y="865.09" x="1585.12"/></text><text transform="scale(4.0128.2492)" y="3122.29" x="592.09" style="font-size:46.954;font-family:Arial;text-anchor:middle"/><text y="683.83" x="513.54" line-height="125%" style="letter-spacing:0;word-spacing:0;font-size:129.23;font-family:&apos;Gentium Book Basic&apos;"><tspan y="683.83" x="513.54"/></text><text transform="scale(4.0128.2492)" y="2394.93" x="325.05" style="font-size:46.954;font-family:Arial;text-anchor:middle"/><text y="467.36" x="1611.59" line-height="125%" style="letter-spacing:0;word-spacing:0;font-size:129.23;font-family:&apos;Gentium Book Basic&apos;"><tspan y="467.36" x="1611.59"/></text><text transform="scale(4.0128.2492)" y="1526.26" x="598.69" style="font-size:46.954;font-family:Arial;text-anchor:middle"/><text y="387.35" x="2192.86" line-height="125%" style="letter-spacing:0;word-spacing:0;font-size:129.23;font-family:&apos;Gentium Book Basic&apos;"><tspan y="387.35" x="2192.86"/></text><text transform="scale(4.0128.2492)" y="1205.23" x="743.54" style="font-size:46.954;font-family:Arial;text-anchor:middle"/><text y="-85.05" x="1803.74" line-height="125%" style="letter-spacing:0;word-spacing:0;font-size:129.23;font-family:&apos;Gentium Book Basic&apos;"><tspan y="-85.05" x="1803.74"/></text><text transform="scale(4.0128.2492)" y="-690.42" x="646.57" style="font-size:46.954;font-family:Arial;text-anchor:middle"/><text y="-165.05" x="2385" line-height="125%" style="letter-spacing:0;word-spacing:0;font-size:129.23;font-family:&apos;Gentium Book Basic&apos;"><tspan y="-165.05" x="2385"/></text><text transform="scale(4.0128.2492)" y="-1011.45" x="791.42" style="font-size:46.954;font-family:Arial;text-anchor:middle"/><g line-height="125%" style="letter-spacing:0;word-spacing:0;font-family:&apos;Gentium Book Basic&apos;"><text x="552.2" y="1249.67" style="font-size:208.33"><tspan x="552.2" y="1249.67"/></text><text x="422.65" y="849.38" style="font-size:129.23"><tspan x="422.65" y="849.38"/></text></g><text transform="scale(4.0128.2492)" y="3059.27" x="302.4" style="font-size:46.954;font-family:Arial;text-anchor:middle"/><text y="769.38" x="1003.92" line-height="125%" style="letter-spacing:0;word-spacing:0;font-size:129.23;font-family:&apos;Gentium Book Basic&apos;"><tspan y="769.38" x="1003.92"/></text><text transform="scale(4.0128.2492)" y="2738.24" x="447.25" style="font-size:46.954;font-family:Arial;text-anchor:middle"/><text y="588.12" x="-67.66" line-height="125%" style="letter-spacing:0;word-spacing:0;font-size:129.23;font-family:&apos;Gentium Book Basic&apos;"><tspan y="588.12" x="-67.66"/></text><text transform="scale(4.0128.2492)" y="2010.88" x="180.21" style="font-size:46.954;font-family:Arial;text-anchor:middle"/><text y="371.65" x="1030.39" line-height="125%" style="letter-spacing:0;word-spacing:0;font-size:129.23;font-family:&apos;Gentium Book Basic&apos;"><tspan y="371.65" x="1030.39"/></text><text transform="scale(4.0128.2492)" y="1142.23" x="453.85" style="font-size:46.954;font-family:Arial;text-anchor:middle"/><text y="291.64" x="1611.66" line-height="125%" style="letter-spacing:0;word-spacing:0;font-size:129.23;font-family:&apos;Gentium Book Basic&apos;"><tspan y="291.64" x="1611.66"/></text><text transform="scale(4.0128.2492)" y="821.19" x="598.7" style="font-size:46.954;font-family:Arial;text-anchor:middle"/><text y="-180.76" x="1222.54" line-height="125%" style="letter-spacing:0;word-spacing:0;font-size:129.23;font-family:&apos;Gentium Book Basic&apos;"><tspan y="-180.76" x="1222.54"/></text><text transform="scale(4.0128.2492)" y="-1074.45" x="501.73" style="font-size:46.954;font-family:Arial;text-anchor:middle"/><text y="-260.76" x="1803.8" line-height="125%" style="letter-spacing:0;word-spacing:0;font-size:129.23;font-family:&apos;Gentium Book Basic&apos;"><tspan y="-260.76" x="1803.8"/></text><text transform="scale(4.0128.2492)" y="-1395.48" x="646.58" style="font-size:46.954;font-family:Arial;text-anchor:middle"/><g line-height="125%" style="letter-spacing:0;word-spacing:0;font-family:&apos;Gentium Book Basic&apos;"><text y="1153.96" x="-29" style="font-size:208.33"><tspan y="1153.96" x="-29"/></text><text y="816.4" x="388.61" style="font-size:200;fill:#555753;stroke:#555753"><tspan y="816.4" x="388.61"/></text></g><g style="fill:#555753"><text transform="scale(4.0128.2492)" y="2735.69" x="401.86" style="font-size:72.67;font-family:Arial;stroke:none;text-anchor:middle"/><text y="869.54" x="1133.98" line-height="125%" style="letter-spacing:0;word-spacing:0;font-size:200;font-family:&apos;Gentium Book Basic&apos;;stroke:#555753"><tspan y="869.54" x="1133.98"/></text><text transform="scale(4.0128.2492)" y="2948.94" x="587.61" style="font-size:72.67;font-family:Arial;stroke:none;text-anchor:middle"/><text y="745.72" x="2033.6" line-height="125%" style="letter-spacing:0;word-spacing:0;font-size:200;font-family:&apos;Gentium Book Basic&apos;;stroke:#555753"><tspan y="745.72" x="2033.6"/></text><text transform="scale(4.0128.2492)" y="2452.08" x="811.79" style="font-size:72.67;font-family:Arial;stroke:none;text-anchor:middle"/><text y="693.08" x="1161.45" line-height="125%" style="letter-spacing:0;word-spacing:0;font-size:200;font-family:&apos;Gentium Book Basic&apos;;stroke:#555753"><tspan y="693.08" x="1161.45"/></text><text transform="scale(4.0128.2492)" y="2240.86" x="594.45" style="font-size:72.67;font-family:Arial;stroke:none;text-anchor:middle"/><text y="569.27" x="2061.06" line-height="125%" style="letter-spacing:0;word-spacing:0;font-size:200;font-family:&apos;Gentium Book Basic&apos;;stroke:#555753"><tspan y="569.27" x="2061.06"/></text><text transform="scale(4.0128.2492)" y="1744" x="818.63" style="font-size:72.67;font-family:Arial;stroke:none;text-anchor:middle"/><text y="1144.97" x="-1848.54" line-height="125%" style="letter-spacing:0;word-spacing:0;font-size:200;font-family:&apos;Gentium Book Basic&apos;;stroke:#555753"><tspan y="1144.97" x="-1848.54"/></text><text transform="scale(4.0128.2492)" y="4054.19" x="-155.64" style="font-size:72.67;font-family:Arial;stroke:none;text-anchor:middle"/></g><text y="1179.08" x="7.02" line-height="125%" style="letter-spacing:0;word-spacing:0;font-size:208.33;font-family:&apos;Gentium Book Basic&apos;"><tspan y="1179.08" x="7.02"/></text><text transform="scale(4.0128.2492)" y="4168.58" x="319.47" style="font-size:75.7;font-family:Arial;text-anchor:middle"/><g style="fill:#654641"><text x="1598.92" y="956.99" transform="scale(1.05082.95163)" line-height="125%" style="letter-spacing:0;word-spacing:0;font-size:84.77;font-family:&apos;Gentium Book Basic&apos;"><tspan x="1598.92" y="956.99"/></text><text x="527.74" y="3611.2" transform="scale(4.21677.23715)" style="font-size:30.8;font-family:Arial;text-anchor:middle"/><text x="1866.73" y="933.49" transform="scale(1.05082.95163)" line-height="125%" style="letter-spacing:0;word-spacing:0;font-size:45.38;font-family:&apos;Gentium Book Basic&apos;"><tspan x="1866.73" y="933.49"/></text><text x="534.4" y="3623.34" transform="scale(4.21677.23715)" style="font-size:16.488;font-family:Arial;text-anchor:middle"/><text x="939.28" y="990.2" line-height="125%" style="letter-spacing:0;word-spacing:0;font-size:132.57;font-family:&apos;Gentium Book Basic&apos;"><tspan x="939.28" y="990.2"/></text><text x="436.26" y="3615.28" transform="scale(4.0128.2492)" style="font-size:48.17;font-family:Arial;text-anchor:middle"/><text x="1037.55" y="921.47" transform="scale(1.05082.95163)" line-height="125%" style="letter-spacing:0;word-spacing:0;font-size:84.77;font-family:&apos;Gentium Book Basic&apos;"><tspan x="1037.55" y="921.47"/></text><text x="387.83" y="3468.65" transform="scale(4.21677.23715)" style="font-size:30.8;font-family:Arial;text-anchor:middle"/><text x="1305.35" y="897.97" transform="scale(1.05082.95163)" line-height="125%" style="letter-spacing:0;word-spacing:0;font-size:45.38;font-family:&apos;Gentium Book Basic&apos;"><tspan x="1305.35" y="897.97"/></text><text x="394.5" y="3480.78" transform="scale(4.21677.23715)" style="font-size:16.488;font-family:Arial;text-anchor:middle"/><text x="349.37" y="956.39" line-height="125%" style="letter-spacing:0;word-spacing:0;font-size:132.57;font-family:&apos;Gentium Book Basic&apos;"><tspan x="349.37" y="956.39"/></text><text x="289.25" y="3479.62" transform="scale(4.0128.2492)" style="font-size:48.17;font-family:Arial;text-anchor:middle"/></g><g transform="translate(964.35 700.11)" line-height="125%" style="letter-spacing:0;word-spacing:0;font-size:208.33;font-family:&apos;Gentium Book Basic&apos;;fill:#000"><text x="-352.73" y="236.4"><tspan x="-352.73" y="236.4"/></text><text x="-645.81" y="78.57"><tspan x="-645.81" y="78.57"/></text></g><g style="fill:#654641"><text x="1007.24" y="916.84" transform="scale(1.05082.95163)" line-height="125%" style="letter-spacing:0;word-spacing:0;font-size:84.77;font-family:&apos;Gentium Book Basic&apos;"><tspan x="1007.24" y="916.84"/></text><text x="380.28" y="3450.08" transform="scale(4.21677.23715)" style="font-size:30.8;font-family:Arial;text-anchor:middle"/><text x="1275.04" y="893.34" transform="scale(1.05082.95163)" line-height="125%" style="letter-spacing:0;word-spacing:0;font-size:45.38;font-family:&apos;Gentium Book Basic&apos;"><tspan x="1275.04" y="893.34"/></text><text x="386.95" y="3462.22" transform="scale(4.21677.23715)" style="font-size:16.488;font-family:Arial;text-anchor:middle"/><text x="317.52" y="951.99" line-height="125%" style="letter-spacing:0;word-spacing:0;font-size:132.57;font-family:&apos;Gentium Book Basic&apos;"><tspan x="317.52" y="951.99"/></text><text x="281.31" y="3461.96" transform="scale(4.0128.2492)" style="font-size:48.17;font-family:Arial;text-anchor:middle"/></g><text y="731.85" x="903.37" line-height="125%" style="letter-spacing:0;word-spacing:0;font-size:129.23;font-family:&apos;Gentium Book Basic&apos;"><tspan y="731.85" x="903.37"/></text><text transform="scale(4.0128.2492)" y="2587.64" x="422.2" style="font-size:46.954;font-family:Arial;text-anchor:middle"/><text y="651.85" x="1484.64" line-height="125%" style="letter-spacing:0;word-spacing:0;font-size:129.23;font-family:&apos;Gentium Book Basic&apos;"><tspan y="651.85" x="1484.64"/></text><text transform="scale(4.0128.2492)" y="2266.61" x="567.05" style="font-size:46.954;font-family:Arial;text-anchor:middle"/><text y="470.59" x="413.06" line-height="125%" style="letter-spacing:0;word-spacing:0;font-size:129.23;font-family:&apos;Gentium Book Basic&apos;"><tspan y="470.59" x="413.06"/></text><text transform="scale(4.0128.2492)" y="1539.26" x="300.01" style="font-size:46.954;font-family:Arial;text-anchor:middle"/><text y="254.12" x="1511.11" line-height="125%" style="letter-spacing:0;word-spacing:0;font-size:129.23;font-family:&apos;Gentium Book Basic&apos;"><tspan y="254.12" x="1511.11"/></text><text transform="scale(4.0128.2492)" y="670.59" x="573.65" style="font-size:46.954;font-family:Arial;text-anchor:middle"/><text y="174.11" x="2092.38" line-height="125%" style="letter-spacing:0;word-spacing:0;font-size:129.23;font-family:&apos;Gentium Book Basic&apos;"><tspan y="174.11" x="2092.38"/></text><text transform="scale(4.0128.2492)" y="349.55" x="718.5" style="font-size:46.954;font-family:Arial;text-anchor:middle"/><text y="-298.29" x="1703.26" line-height="125%" style="letter-spacing:0;word-spacing:0;font-size:129.23;font-family:&apos;Gentium Book Basic&apos;"><tspan y="-298.29" x="1703.26"/></text><text transform="scale(4.0128.2492)" y="-1546.1" x="621.53" style="font-size:46.954;font-family:Arial;text-anchor:middle"/><text y="-378.29" x="2284.52" line-height="125%" style="letter-spacing:0;word-spacing:0;font-size:129.23;font-family:&apos;Gentium Book Basic&apos;"><tspan y="-378.29" x="2284.52"/></text><text transform="scale(4.0128.2492)" y="-1867.13" x="766.38" style="font-size:46.954;font-family:Arial;text-anchor:middle"/><text y="1036.43" x="451.72" line-height="125%" style="letter-spacing:0;word-spacing:0;font-size:208.33;font-family:&apos;Gentium Book Basic&apos;"><tspan y="1036.43" x="451.72"/></text><g style="fill-rule:evenodd"><path d="m471.95 253.05c0 120.9-98.01 218.91-218.91 218.91-120.9 0-218.91-98.01-218.91-218.91 0-120.9 98.01-218.91 218.91-218.91 120.9 0 218.91 98.01 218.91 218.91" style="fill:#295c8e"/><path d="m256 1c-140.83 0-255 114.17-255 255 0 140.83 114.17 255 255 255 140.83 0 255-114.17 255-255 0-140.83-114.17-255-255-255m8.827 44.931c120.9 0 218.9 98 218.9 218.9 0 120.9-98 218.9-218.9 218.9-120.9 0-218.93-98-218.93-218.9 0-120.9 98.03-218.9 218.93-218.9" style="fill-opacity:.067"/><g style="fill-opacity:.129"><path d="m256 4.43c-138.94 0-251.57 112.63-251.57 251.57 0 138.94 112.63 251.57 251.57 251.57 138.94 0 251.57-112.63 251.57-251.57 0-138.94-112.63-251.57-251.57-251.57m5.885 38.556c120.9 0 218.9 98 218.9 218.9 0 120.9-98 218.9-218.9 218.9-120.9 0-218.93-98-218.93-218.9 0-120.9 98.03-218.9 218.93-218.9"/><path d="m256 8.36c-136.77 0-247.64 110.87-247.64 247.64 0 136.77 110.87 247.64 247.64 247.64 136.77 0 247.64-110.87 247.64-247.64 0-136.77-110.87-247.64-247.64-247.64m2.942 31.691c120.9 0 218.9 98 218.9 218.9 0 120.9-98 218.9-218.9 218.9-120.9 0-218.93-98-218.93-218.9 0-120.9 98.03-218.9 218.93-218.9"/></g><path d="m253.04 7.86c-135.42 0-245.19 109.78-245.19 245.19 0 135.42 109.78 245.19 245.19 245.19 135.42 0 245.19-109.78 245.19-245.19 0-135.42-109.78-245.19-245.19-245.19m0 26.297c120.9 0 218.9 98 218.9 218.9 0 120.9-98 218.9-218.9 218.9-120.9 0-218.93-98-218.93-218.9 0-120.9 98.03-218.9 218.93-218.9z" style="stroke-opacity:.31;fill:#fff;stroke:#000;stroke-width:4.904"/></g><text x="729.64" y="231.36" line-height="125%" style="letter-spacing:0;word-spacing:0;font-size:129.23;font-family:&apos;Gentium Book Basic&apos;"><tspan x="729.64" y="231.36"/></text><text x="378.91" y="579.26" transform="scale(4.0128.2492)" style="font-size:46.954;font-family:Arial;text-anchor:middle"/><text x="1310.91" y="151.36" line-height="125%" style="letter-spacing:0;word-spacing:0;font-size:129.23;font-family:&apos;Gentium Book Basic&apos;"><tspan x="1310.91" y="151.36"/></text><text x="523.76" y="258.22" transform="scale(4.0128.2492)" style="font-size:46.954;font-family:Arial;text-anchor:middle"/><text x="239.33" y="-29.9" line-height="125%" style="letter-spacing:0;word-spacing:0;font-size:129.23;font-family:&apos;Gentium Book Basic&apos;"><tspan x="239.33" y="-29.9"/></text><text x="256.72" y="-469.13" transform="scale(4.0128.2492)" style="font-size:46.954;font-family:Arial;text-anchor:middle"/><text x="1337.38" y="-246.37" line-height="125%" style="letter-spacing:0;word-spacing:0;font-size:129.23;font-family:&apos;Gentium Book Basic&apos;"><tspan x="1337.38" y="-246.37"/></text><text x="530.36" y="-1337.8" transform="scale(4.0128.2492)" style="font-size:46.954;font-family:Arial;text-anchor:middle"/><text x="1918.65" y="-326.37" line-height="125%" style="letter-spacing:0;word-spacing:0;font-size:129.23;font-family:&apos;Gentium Book Basic&apos;"><tspan x="1918.65" y="-326.37"/></text><text x="675.21" y="-1658.83" transform="scale(4.0128.2492)" style="font-size:46.954;font-family:Arial;text-anchor:middle"/><text x="1529.53" y="-798.77" line-height="125%" style="letter-spacing:0;word-spacing:0;font-size:129.23;font-family:&apos;Gentium Book Basic&apos;"><tspan x="1529.53" y="-798.77"/></text><text x="578.24" y="-3554.48" transform="scale(4.0128.2492)" style="font-size:46.954;font-family:Arial;text-anchor:middle"/><text x="2110.79" y="-878.78" line-height="125%" style="letter-spacing:0;word-spacing:0;font-size:129.23;font-family:&apos;Gentium Book Basic&apos;"><tspan x="2110.79" y="-878.78"/></text><text x="723.09" y="-3875.52" transform="scale(4.0128.2492)" style="font-size:46.954;font-family:Arial;text-anchor:middle"/><text x="277.99" y="535.94" line-height="125%" style="letter-spacing:0;word-spacing:0;font-size:208.33;font-family:&apos;Gentium Book Basic&apos;"><tspan x="277.99" y="535.94"/></text><path d="m255.99 102.31c-84.74 0-153.68 68.946-153.68 153.69 0 42.38 17.236 80.8 45.06 108.63l107.31 107.31c119.6-.88 216.38-97.66 217.25-217.26l-107.3-107.3c-27.833-27.833-66.26-45.07-108.64-45.07" style="opacity:.25"/><path d="m124.16 256.01c0 52.18 30.32 97.28 74.31 118.65l-62.89-172.31c-7.319 16.397-11.412 34.537-11.412 53.66m220.85-6.652c0-16.301-5.86-27.582-10.869-36.36-6.69-10.859-12.956-20.05-12.956-30.921 0-12.11 9.185-23.395 22.15-23.395.576 0 1.124.072 1.7.101-23.458-21.489-54.697-34.6-89.03-34.6-46.06 0-86.57 23.621-110.16 59.42 3.102.096 6.01.159 8.501.159 13.782 0 35.12-1.686 35.12-1.686 7.104-.413 7.954 10.03.845 10.879 0 0-7.142.831-15.1 1.253l48.02 142.8 28.851-86.54-20.533-56.27c-7.104-.423-13.828-1.253-13.828-1.253-7.113-.428-6.283-11.292.836-10.879 0 0 21.767 1.686 34.72 1.686 13.791 0 35.13-1.686 35.13-1.686 7.108-.413 7.949 10.03.845 10.879 0 0-7.152.831-15.09 1.253l47.645 141.73 13.155-43.937c6.672-17.14 10.03-31.34 10.03-42.63m-86.69 18.17l-39.566 114.95c11.816 3.482 24.307 5.37 37.24 5.37 15.355 0 30.08-2.656 43.784-7.468-.351-.562-.677-1.157-.937-1.825l-40.529-111.04m113.38-74.77c.557 4.202.888 8.703.888 13.559 0 13.381-2.502 28.419-10.03 47.22l-40.27 116.43c39.21-22.857 65.56-65.32 65.56-113.96 0-22.925-5.864-44.47-16.15-63.25m-269.39 63.25c0 84.76 68.946 153.69 153.68 153.69 84.75 0 153.7-68.937 153.7-153.69 0-84.75-68.956-153.69-153.7-153.69-84.74 0-153.68 68.946-153.68 153.69m7.05 0c0-80.86 65.79-146.63 146.64-146.63 80.87 0 146.66 65.772 146.66 146.63 0 80.86-65.79 146.65-146.66 146.65-80.86 0-146.64-65.79-146.64-146.65" style="fill:#fff"/></svg>