<?xml version="1.0" encoding="UTF-8" standalone="no"?>
<!-- Created with Inkscape (http://www.inkscape.org/) -->

<svg
   xmlns:dc="http://purl.org/dc/elements/1.1/"
   xmlns:cc="http://creativecommons.org/ns#"
   xmlns:rdf="http://www.w3.org/1999/02/22-rdf-syntax-ns#"
   xmlns:svg="http://www.w3.org/2000/svg"
   xmlns="http://www.w3.org/2000/svg"
   xmlns:sodipodi="http://sodipodi.sourceforge.net/DTD/sodipodi-0.dtd"
   xmlns:inkscape="http://www.inkscape.org/namespaces/inkscape"
   version="1.1"
   width="100%"
   height="100%"
   viewBox="0 0 512 512"
   id="svg2"
   inkscape:version="0.91+devel r13804 custom"
   sodipodi:docname="xfce4-cpufreq-plugin.svg">
  <sodipodi:namedview
     pagecolor="#ffffff"
     bordercolor="#666666"
     borderopacity="1"
     objecttolerance="10"
     gridtolerance="10"
     guidetolerance="10"
     inkscape:pageopacity="0"
     inkscape:pageshadow="2"
     inkscape:window-width="1366"
     inkscape:window-height="709"
     id="namedview1318"
     showgrid="false"
     inkscape:zoom="0.4609375"
     inkscape:cx="-8.6779661"
     inkscape:cy="237.55932"
     inkscape:window-x="-2"
     inkscape:window-y="-3"
     inkscape:window-maximized="1"
     inkscape:current-layer="svg2" />
  <metadata
     id="metadata2634">
    <rdf:RDF>
      <cc:Work
         rdf:about="">
        <dc:format>image/svg+xml</dc:format>
        <dc:type
           rdf:resource="http://purl.org/dc/dcmitype/StillImage" />
      </cc:Work>
    </rdf:RDF>
  </metadata>
  <defs
     id="defs2632" />
  <rect
     width="512"
     height="512"
     rx="26.26"
     x="-0.0025020996"
     y="-0.0075015528"
     id="rect2578"
     style="fill:#0096bb" />
  <path
     d="m 181.21751,45.77351 c -17.51,1.772 -11.957,21.645 -12.875,33.75 0.614,13.6 -1.344,27.49 1.219,40.875 7.348,9.463 16.674,17.192 24.875,25.906 -18.13,-1.632 -39.857,2.278 -47,21.625 -7.164,3.971 2.709,34.665 -6.938,23.594 -9.768,-8.672 -17.758,-23.927 -32.906,-21.09 -18.1,0.58 -36.439,-1.216 -54.37,1 -19.464,12.36 3.409,27.647 12.906,37.5 11.229,11.01 22.496,21.983 33.688,33.03 -15.517,0.538 -31.24,-1.14 -46.594,1.031 -19.2,12.397 3.669,28.06 13.156,38.13 10.779,10.804 21.603,21.567 32.375,32.375 -15.15,0.578 -30.546,-1.198 -45.531,1.031 -19.2,12.05 2.807,27.375 12.156,37.16 34.33,34.411 68.806,68.71 103.09,103.16 2.444,4.079 6.219,9.313 11.344,14.438 16.1,16.1 33.32,32.28 44.03,42.719 l 261.91,0 c 14.546,0 26.25,-11.704 26.25,-26.25 l 0,-264.41 c -14.639,-14.534 -41.4,-39.646 -52.53,-49.594 -11.375,0.421 -16.221,-11.591 -24.19,-17.906 -33.692,-34.499 -67.33,-68.875 -101.03,-103.34 -17.408,-15.25 -26.18,10.468 -22.813,24.906 -0.386,7.664 0.767,18.852 -0.563,24.344 -17.613,-17.425 -34.09,-36.15 -52.53,-52.688 -19.35,-6.613 -19.416,16.959 -18.406,29.719 -1.42,5.16 2.944,24.323 -2.375,20.06 -17.13,-16.447 -32.998,-34.29 -50.906,-49.844 l -2.625,-0.906 -2.781,-0.313 -0.031,0"
     inkscape:connector-curvature="0"
     id="path2580"
     style="fill-opacity:0.23500001;fill-rule:evenodd" />
  <path
     d="m 181.22751,45.74451 c -7.127,0 -12.887,5.76 -12.887,12.887 l 0,56.32 c 0,7.127 5.76,12.812 12.887,12.812 7.127,0 12.887,-5.686 12.887,-12.812 l 0,-56.32 c 0,-7.127 -5.76,-12.887 -12.887,-12.887 m 71.54,0 c -7.127,0 -12.812,5.76 -12.812,12.887 l 0,56.32 c 0,7.127 5.686,12.812 12.812,12.812 7.127,0 12.887,-5.686 12.887,-12.812 l 0,-56.32 c 0,-7.127 -5.76,-12.887 -12.887,-12.887 m 71.57,0 c -7.127,0 -12.887,5.76 -12.887,12.887 l 0,56.32 c 0,7.127 5.76,12.812 12.887,12.812 7.127,0 12.812,-5.686 12.812,-12.812 l 0,-56.32 c 0,-7.127 -5.686,-12.887 -12.812,-12.887 m -144.31,100.54 c -19.598,0 -35.35,15.831 -35.35,35.43 l 0,146.3 c 0,19.598 15.762,35.392 35.35,35.392 l 145.51,0 c 19.598,0 35.35,-15.797 35.35,-35.392 l 0,-146.3 c 0,-19.598 -15.762,-35.43 -35.35,-35.43 l -145.51,0 m -121.81,24.12 c -7.127,0 -12.887,5.686 -12.887,12.812 0,7.127 5.76,12.887 12.887,12.887 l 56.32,0 c 7.127,0 12.812,-5.76 12.812,-12.887 0,-7.127 -5.686,-12.812 -12.812,-12.812 l -56.32,0 m 339.3,0 c -7.127,0 -12.887,5.686 -12.887,12.812 0,7.127 5.76,12.887 12.887,12.887 l 56.32,0 c 7.127,0 12.812,-5.76 12.812,-12.887 0,-7.127 -5.686,-12.812 -12.812,-12.812 l -56.32,0 m -339.3,71.54 c -7.127,0 -12.887,5.76 -12.887,12.887 0,7.127 5.76,12.812 12.887,12.812 l 56.32,0 c 7.127,0 12.812,-5.686 12.812,-12.812 0,-7.127 -5.686,-12.887 -12.812,-12.887 l -56.32,0 m 339.3,0 c -7.127,0 -12.887,5.76 -12.887,12.887 0,7.127 5.76,12.812 12.887,12.812 l 56.32,0 c 7.127,0 12.812,-5.686 12.812,-12.812 0,-7.127 -5.686,-12.887 -12.812,-12.887 l -56.32,0 m -339.3,71.54 c -7.127,0 -12.887,5.76 -12.887,12.887 0,7.127 5.76,12.887 12.887,12.887 l 56.32,0 c 7.127,0 12.812,-5.76 12.812,-12.887 0,-7.127 -5.686,-12.887 -12.812,-12.887 l -56.32,0 m 339.3,0 c -7.127,0 -12.887,5.76 -12.887,12.887 0,7.127 5.76,12.887 12.887,12.887 l 56.32,0 c 7.127,0 12.812,-5.76 12.812,-12.887 0,-7.127 -5.686,-12.887 -12.812,-12.887 l -56.32,0 m -216.3,70.75 c -7.127,0 -12.887,5.76 -12.887,12.887 l 0,56.32 c 0,7.127 5.76,12.812 12.887,12.812 7.127,0 12.887,-5.686 12.887,-12.812 l 0,-56.32 c 0,-7.127 -5.76,-12.887 -12.887,-12.887 m 71.54,0 c -7.127,0 -12.812,5.76 -12.812,12.887 l 0,56.32 c 0,7.127 5.686,12.812 12.812,12.812 7.127,0 12.887,-5.686 12.887,-12.812 l 0,-56.32 c 0,-7.127 -5.76,-12.887 -12.887,-12.887 m 71.57,0 c -7.127,0 -12.887,5.76 -12.887,12.887 l 0,56.32 c 0,7.127 5.76,12.812 12.887,12.812 7.127,0 12.812,-5.686 12.812,-12.812 l 0,-56.32 c 0,-7.127 -5.686,-12.887 -12.812,-12.887"
     inkscape:connector-curvature="0"
     id="path2628"
     style="fill:#ffffff" />
</svg>
