<?xml version="1.0" encoding="UTF-8" standalone="no"?>
<!-- Created with Inkscape (http://www.inkscape.org/) -->

<svg
   xmlns:dc="http://purl.org/dc/elements/1.1/"
   xmlns:cc="http://creativecommons.org/ns#"
   xmlns:rdf="http://www.w3.org/1999/02/22-rdf-syntax-ns#"
   xmlns:svg="http://www.w3.org/2000/svg"
   xmlns="http://www.w3.org/2000/svg"
   xmlns:sodipodi="http://sodipodi.sourceforge.net/DTD/sodipodi-0.dtd"
   xmlns:inkscape="http://www.inkscape.org/namespaces/inkscape"
   version="1.1"
   width="100%"
   height="100%"
   viewBox="0 0 512 512"
   id="svg2"
   inkscape:version="0.91+devel r13804 custom"
   sodipodi:docname="system-config-printer.svg">
  <sodipodi:namedview
     pagecolor="#ffffff"
     bordercolor="#666666"
     borderopacity="1"
     objecttolerance="10"
     gridtolerance="10"
     guidetolerance="10"
     inkscape:pageopacity="0"
     inkscape:pageshadow="2"
     inkscape:window-width="1366"
     inkscape:window-height="709"
     id="namedview2348"
     showgrid="false"
     inkscape:zoom="0.4609375"
     inkscape:cx="-8.6779661"
     inkscape:cy="237.55932"
     inkscape:window-x="-2"
     inkscape:window-y="-3"
     inkscape:window-maximized="1"
     inkscape:current-layer="svg2" />
  <metadata
     id="metadata4694">
    <rdf:RDF>
      <cc:Work
         rdf:about="">
        <dc:format>image/svg+xml</dc:format>
        <dc:type
           rdf:resource="http://purl.org/dc/dcmitype/StillImage" />
      </cc:Work>
    </rdf:RDF>
  </metadata>
  <defs
     id="defs4692" />
  <rect
     width="512"
     height="512"
     rx="26.853001"
     x="-0.005006826"
     y="-3.0859376e-06"
     id="rect2780"
     style="fill:#e75177" />
  <path
     d="m 348.405,46.09 c -9.62,0.046 -19.451,1.01 -28.875,0.281 l -168.31,0 C 127.723,45.968 122.94,71.007 125,89.401 l 0,35.594 c 5.866,3.611 9.104,9.826 14.938,13.469 0.932,4.571 15.02,11.244 8.938,12.75 -27.17,0.323 -54.43,-0.666 -81.56,0.531 -21.33,3.751 -21.948,26.887 -20.938,43.969 0.376,39.4 -0.763,78.901 0.594,118.25 7.741,18.644 26.307,30.03 39.31,45.09 12.534,13.594 28.02,25.942 38.719,40.31 1.475,18.447 -3.876,38.465 4.969,55.38 18.785,19.226 37.751,38.25 56.781,57.25 l 298.41,0 c 14.876,0 26.844,-11.967 26.844,-26.844 l 0,-298.28 c -45.2,-45.28 -90.33,-90.66 -135.91,-135.53 -8.657,-4.405 -18.07,-5.296 -27.688,-5.25"
     inkscape:connector-curvature="0"
     id="path4630"
     style="fill-opacity:0.23500001" />
  <g
     transform="matrix(0.81882,0,0,0.81882,46.375,46.38)"
     id="g4678"
     style="fill:#ffffff">
    <path
       d="m 128,32 256,0 0,64 32,0 0,-64 C 416,14.344 401.687,0 384,0 L 128,0 C 110.344,0 96,14.344 96,32 l 0,64 32,0 0,-64"
       inkscape:connector-curvature="0"
       id="path4680" />
    <path
       d="M 480,128 32,128 C 14.344,128 0,142.344 0,160 l 0,160 c 0,17.688 14.344,32 32,32 l 64,0 0,128 c 0,17.688 14.344,32 32,32 l 256,0 c 17.688,0 32,-14.313 32,-32 l 0,-128 64,0 c 17.688,0 32,-14.313 32,-32 l 0,-160 c 0,-17.656 -14.312,-32 -32,-32 m -96,352 -256,0 0,-224 256,0 0,224 m 64,-256 c -17.688,0 -32,-14.313 -32,-32 0,-17.656 14.313,-32 32,-32 17.687,0 32,14.344 32,32 0,17.688 -14.312,32 -32,32"
       inkscape:connector-curvature="0"
       id="path4682" />
    <path
       d="m 160,288 128,0 0,32 -128,0 z"
       inkscape:connector-curvature="0"
       id="path4684" />
    <path
       d="m 160,352 192,0 0,32 -192,0 z"
       inkscape:connector-curvature="0"
       id="path4686" />
    <path
       d="m 160,416 192,0 0,32 -192,0 z"
       inkscape:connector-curvature="0"
       id="path4688" />
  </g>
</svg>
