<svg xmlns="http://www.w3.org/2000/svg" id="svg2" width="100%" height="100%" version="1.1" viewBox="0 0 512 512"><metadata id="metadata118"/><path id="path4" fill="#cd1d31" fill-rule="evenodd" d="m471.95 253.05c0 120.9-98.01 218.91-218.91 218.91s-218.91-98.01-218.91-218.91 98.01-218.91 218.91-218.91 218.91 98.01 218.91 218.91"/><path id="path6" fill-opacity=".235" d="m295.28 119.31c-20.716-0.599-19.999 27.717-42.44 17.969-34.931 0.398-38.619 39.5-48.34 64.53-10.465 29.777-33.767 52.22-60.28 68.19-12.801 9.592-32.517 32.769-24.625 46.38 7.388 6.497 13.328 13.625 20.719 20.13 5.577 6.471 12.607 12.307 18.19 18.781 6.412 5.97 12.55 12.04 18.313 18.313 7.386 6.495 13.327 13.624 20.719 20.13 5.575 6.468 12.606 12.307 18.19 18.781 7.386 6.495 13.327 13.624 20.719 20.13 5.575 6.468 12.606 12.307 18.19 18.781 7.151 6.287 12.96 13.169 20.03 19.5 100.39-9.849 180.89-87.53 195.06-186.59-53.26-53.28-106.46-106.63-159.87-159.75-4.068-3.339-9.308-5.19-14.563-5.25"/><g id="g8" fill-rule="evenodd"><path id="path10" fill-opacity=".067" d="m256 1c-140.83 0-255 114.17-255 255s114.17 255 255 255 255-114.17 255-255-114.17-255-255-255m8.827 44.931c120.9 0 218.9 98 218.9 218.9s-98 218.9-218.9 218.9-218.93-98-218.93-218.9 98.03-218.9 218.93-218.9"/><g id="g12" fill-opacity=".129"><path id="path14" d="m256 4.43c-138.94 0-251.57 112.63-251.57 251.57s112.63 251.57 251.57 251.57 251.57-112.63 251.57-251.57-112.63-251.57-251.57-251.57m5.885 38.556c120.9 0 218.9 98 218.9 218.9s-98 218.9-218.9 218.9-218.93-98-218.93-218.9 98.03-218.9 218.93-218.9"/><path id="path16" d="m256 8.36c-136.77 0-247.64 110.87-247.64 247.64s110.87 247.64 247.64 247.64 247.64-110.87 247.64-247.64-110.87-247.64-247.64-247.64m2.942 31.691c120.9 0 218.9 98 218.9 218.9s-98 218.9-218.9 218.9-218.93-98-218.93-218.9 98.03-218.9 218.93-218.9"/></g><path id="path18" fill="#fff" stroke="#000" stroke-opacity=".31" stroke-width="4.904" d="m253.04 7.86c-135.42 0-245.19 109.78-245.19 245.19 0 135.42 109.78 245.19 245.19 245.19 135.42 0 245.19-109.78 245.19-245.19 0-135.42-109.78-245.19-245.19-245.19zm0 26.297c120.9 0 218.9 98 218.9 218.9s-98 218.9-218.9 218.9-218.93-98-218.93-218.9 98.03-218.9 218.93-218.9z"/></g><path id="path66" fill="#fff" d="m295.28 119.31c-10.428-0.104-19.985 6.808-22.813 17.344-0.116 0.434-0.191 0.877-0.281 1.313-27.307-3.655-49.22 2.456-57.16 32.06-30.03 112.09-80.8 75.45-98.87 142.91 0 0 42.35 23.466 121.44 44.656 79.08 21.19 127.31 22 127.31 22 17.967-67.05-44.4-60.44-14.188-173.19 7.979-29.776-7.808-45.958-33.406-56.41 0.127-0.407 0.264-0.804 0.375-1.219 3.346-12.488-4.072-25.309-16.563-28.656-1.952-0.523-3.913-0.793-5.844-0.813m-39.969 72.59 20.531 35.625 35.625-20.563 20.719 35.906-35.563 20.625 20.563 35.656-35.781 20.938-20.625-35.813-35.844 20.781-20.563-36.28 35.625-20.563-20.625-35.813 35.938-20.5m-52.688 167.72c0.863 14.691 10.788 27.858 25.781 31.875 14.993 4.02 30.19-2.409 38.28-14.688-10.06-2.276-20.727-4.852-32.12-7.906-11.458-3.07-22.04-6.188-31.938-9.281"/></svg>