<svg xmlns="http://www.w3.org/2000/svg" id="svg2" width="100%" height="100%" version="1.1" viewBox="0 0 512 512"><metadata id="metadata72"/><path id="path4" fill="#ef6a47" fill-rule="evenodd" d="m471.95 253.05c0 120.9-98.01 218.91-218.91 218.91s-218.91-98.01-218.91-218.91 98.01-218.91 218.91-218.91 218.91 98.01 218.91 218.91"/><path id="path6" fill-opacity=".235" d="m295.28 119.31c-20.716-0.599-19.999 27.717-42.44 17.969-34.931 0.398-38.619 39.5-48.34 64.53-10.465 29.777-33.767 52.22-60.28 68.19-12.801 9.592-32.517 32.769-24.625 46.38 7.388 6.497 13.328 13.625 20.719 20.13 5.577 6.471 12.607 12.307 18.19 18.781 6.412 5.97 12.55 12.04 18.313 18.313 7.386 6.495 13.327 13.624 20.719 20.13 5.575 6.468 12.606 12.307 18.19 18.781 7.386 6.495 13.327 13.624 20.719 20.13 5.575 6.468 12.606 12.307 18.19 18.781 7.151 6.287 12.96 13.169 20.03 19.5 100.39-9.849 180.89-87.53 195.06-186.59-53.26-53.28-106.46-106.63-159.87-159.75-4.068-3.339-9.308-5.19-14.563-5.25"/><g id="g8" fill-rule="evenodd"><path id="path10" fill-opacity=".067" d="m256 1c-140.83 0-255 114.17-255 255s114.17 255 255 255 255-114.17 255-255-114.17-255-255-255m8.827 44.931c120.9 0 218.9 98 218.9 218.9s-98 218.9-218.9 218.9-218.93-98-218.93-218.9 98.03-218.9 218.93-218.9"/><g id="g12" fill-opacity=".129"><path id="path14" d="m256 4.43c-138.94 0-251.57 112.63-251.57 251.57s112.63 251.57 251.57 251.57 251.57-112.63 251.57-251.57-112.63-251.57-251.57-251.57m5.885 38.556c120.9 0 218.9 98 218.9 218.9s-98 218.9-218.9 218.9-218.93-98-218.93-218.9 98.03-218.9 218.93-218.9"/><path id="path16" d="m256 8.36c-136.77 0-247.64 110.87-247.64 247.64s110.87 247.64 247.64 247.64 247.64-110.87 247.64-247.64-110.87-247.64-247.64-247.64m2.942 31.691c120.9 0 218.9 98 218.9 218.9s-98 218.9-218.9 218.9-218.93-98-218.93-218.9 98.03-218.9 218.93-218.9"/></g><path id="path18" fill="#fff" stroke="#000" stroke-opacity=".31" stroke-width="4.904" d="m253.04 7.86c-135.42 0-245.19 109.78-245.19 245.19 0 135.42 109.78 245.19 245.19 245.19 135.42 0 245.19-109.78 245.19-245.19 0-135.42-109.78-245.19-245.19-245.19zm0 26.297c120.9 0 218.9 98 218.9 218.9s-98 218.9-218.9 218.9-218.93-98-218.93-218.9 98.03-218.9 218.93-218.9z"/></g><path id="path66" fill="#fff" d="m237.59 357.59c-79.08-21.19-121.43-44.65-121.43-44.65 18.08-67.46 68.847-30.806 98.88-142.9 7.933-29.607 29.83-35.722 57.14-32.07 0.091-0.435 0.163-0.87 0.279-1.304 3.351-12.487 16.187-19.9 28.678-16.553s19.903 16.186 16.557 28.674c-0.111 0.414-0.261 0.808-0.388 1.215 25.598 10.448 41.41 26.617 33.427 56.39-30.21 112.75 32.16 106.14 14.19 173.19 0 0-48.25-0.811-127.33-22m-34.975 2.032c0.863 14.691 10.812 27.851 25.806 31.869 14.993 4.02 30.19-2.405 38.28-14.684-10.06-2.276-20.742-4.857-32.14-7.911-11.458-3.07-22.05-6.181-31.948-9.275"/></svg>