<svg xmlns="http://www.w3.org/2000/svg" viewBox="0 0 512 512"><g fill-rule="evenodd"><path fill="#cd1c30" d="m471.95 253.05c0 120.9-98.01 218.91-218.91 218.91s-218.91-98.01-218.91-218.91 98.01-218.91 218.91-218.91 218.91 98.01 218.91 218.91"/><path fill-opacity=".067" d="m256 1c-140.83 0-255 114.17-255 255s114.17 255 255 255 255-114.17 255-255-114.17-255-255-255m8.827 44.931c120.9 0 218.9 98 218.9 218.9s-98 218.9-218.9 218.9-218.93-98-218.93-218.9 98.03-218.9 218.93-218.9"/><g fill-opacity=".129"><path d="m256 4.43c-138.94 0-251.57 112.63-251.57 251.57s112.63 251.57 251.57 251.57 251.57-112.63 251.57-251.57-112.63-251.57-251.57-251.57m5.885 38.556c120.9 0 218.9 98 218.9 218.9s-98 218.9-218.9 218.9-218.93-98-218.93-218.9 98.03-218.9 218.93-218.9"/><path d="m256 8.36c-136.77 0-247.64 110.87-247.64 247.64s110.87 247.64 247.64 247.64 247.64-110.87 247.64-247.64-110.87-247.64-247.64-247.64m2.942 31.691c120.9 0 218.9 98 218.9 218.9s-98 218.9-218.9 218.9-218.93-98-218.93-218.9 98.03-218.9 218.93-218.9"/></g><path fill="#fff" stroke="#000" stroke-opacity=".31" stroke-width="4.904" d="m253.04 7.86c-135.42 0-245.19 109.78-245.19 245.19 0 135.42 109.78 245.19 245.19 245.19 135.42 0 245.19-109.78 245.19-245.19 0-135.42-109.78-245.19-245.19-245.19m0 26.297c120.9 0 218.9 98 218.9 218.9s-98 218.9-218.9 218.9-218.93-98-218.93-218.9 98.03-218.9 218.93-218.9z"/></g><g><path d="m237.06 112.63c-1.835 0.007-3.857 0.337-6 1.094-4.02 1.424-4.124 1.567-55.16 51.719l-25.22 24.781v11l-8-8h-41.969c-6.214 0-11.219 5-11.219 11.219v103.13c0 3.099 1.245 5.889 3.264 7.908l156.44 156.44c1.278 0.022 2.555 0.049 3.838 0.049 119.04 0 215.88-95.01 218.84-213.33l-59.844-59.844c-15.803-15.803-36.538-23.719-57.25-23.719-13.823 0-27.635 3.546-39.996 10.59l-69.975-69.975c-2.028-2.028-4.651-3.064-7.748-3.053" opacity=".25"/><path fill="#fff" d="m237.06 112.63c-1.835 0.007-3.857 0.337-6 1.094-4.02 1.424-4.124 1.567-55.16 51.719l-25.22 24.781v131.34l21.969 21.594c51.664 50.782 54.1 53.1 57.41 54.719h0.031c5.891 2.86 11.79 1.598 15.438-3.313 3.722-5.02 3.525 3.681 3.719-137.87 0.159-115.89 0.057-131.4-0.844-134.5-1.829-6.292-5.837-9.583-11.344-9.563m117.72 62.44c-20.712 0-41.42 7.916-57.22 23.719-31.605 31.605-31.605 82.83 0 114.44 31.605 31.605 82.86 31.605 114.47 0 31.605-31.605 31.605-82.83 0-114.44-15.803-15.803-36.538-23.719-57.25-23.719m-254.06 18.16c-6.214 0-11.219 5-11.219 11.219v103.13c0 6.214 5 11.188 11.219 11.188h41.969v-125.53h-41.969m255.06 0.813c12.591 0.197 25.14 4.202 35.75 12.03l-86.69 86.66c-17.895-24.26-15.841-58.57 6.125-80.53 12.356-12.356 28.624-18.41 44.813-18.16m48.969 25.25c17.895 24.26 15.841 58.6-6.125 80.56-21.966 21.966-56.3 24.02-80.56 6.125l86.69-86.69"/></g></svg>