<svg xmlns="http://www.w3.org/2000/svg" viewBox="0 0 512 512"><g fill-rule="evenodd"><path fill="#ef6a47" d="m471.95 253.05c0 120.9-98.01 218.91-218.91 218.91s-218.91-98.01-218.91-218.91 98.01-218.91 218.91-218.91 218.91 98.01 218.91 218.91"/><path fill-opacity=".067" d="m256 1c-140.83 0-255 114.17-255 255s114.17 255 255 255 255-114.17 255-255-114.17-255-255-255m8.827 44.931c120.9 0 218.9 98 218.9 218.9s-98 218.9-218.9 218.9-218.93-98-218.93-218.9 98.03-218.9 218.93-218.9"/><g fill-opacity=".129"><path d="m256 4.43c-138.94 0-251.57 112.63-251.57 251.57s112.63 251.57 251.57 251.57 251.57-112.63 251.57-251.57-112.63-251.57-251.57-251.57m5.885 38.556c120.9 0 218.9 98 218.9 218.9s-98 218.9-218.9 218.9-218.93-98-218.93-218.9 98.03-218.9 218.93-218.9"/><path d="m256 8.36c-136.77 0-247.64 110.87-247.64 247.64s110.87 247.64 247.64 247.64 247.64-110.87 247.64-247.64-110.87-247.64-247.64-247.64m2.942 31.691c120.9 0 218.9 98 218.9 218.9s-98 218.9-218.9 218.9-218.93-98-218.93-218.9 98.03-218.9 218.93-218.9"/></g><path fill="#fff" stroke="#000" stroke-opacity=".31" stroke-width="4.904" d="m253.04 7.86c-135.42 0-245.19 109.78-245.19 245.19 0 135.42 109.78 245.19 245.19 245.19 135.42 0 245.19-109.78 245.19-245.19 0-135.42-109.78-245.19-245.19-245.19m0 26.297c120.9 0 218.9 98 218.9 218.9s-98 218.9-218.9 218.9-218.93-98-218.93-218.9 98.03-218.9 218.93-218.9z"/></g><g><path d="m237.05 112.62c-1.835 0.007-3.833 0.356-5.977 1.113-4.02 1.424-4.146 1.541-55.18 51.693l-25.22 24.805v10.988l-7.986-7.986h-41.988c-6.214 0-11.205 4.991-11.205 11.205v103.12c0 3.107 1.247 5.907 3.271 7.932l156.42 156.42c1.28 0.022 2.56 0.049 3.846 0.049 120.9 0 218.91-98.01 218.91-218.91 0-7.574-0.386-15.06-1.137-22.436l-100.69-100.69c-1.362-1.362-2.746-2.702-4.15-4.02l-23.11 24.66 6.422 6.422c18.682 19.85 31.8 44.975 36.891 72.906l-57.98-57.98c-0.434-0.434-0.883-0.854-1.324-1.281l-1.504-1.504-13.03 14.07-67.53-67.53c-2.03-2.03-4.656-3.068-7.756-3.057" opacity=".25"/><path fill="#fff" d="m237.05 112.62c-1.835 0.007-3.834 0.356-5.977 1.113-4.02 1.424-4.146 1.54-55.18 51.692l-25.22 24.806v131.34l21.974 21.587c51.664 50.782 54.1 53.1 57.4 54.718h0.024c5.891 2.86 11.817 1.595 15.464-3.315 3.722-5.02 3.509 3.685 3.703-137.87 0.159-115.89 0.054-131.41-0.847-134.51-1.829-6.292-5.843-9.58-11.35-9.559m128.92 13.286l-23.11 24.66c28.12 26.368 45.666 63.841 45.666 105.42 0 41.571-17.559 79.04-45.666 105.39l23.11 24.709c34.694-32.57 56.53-78.78 56.53-130.13 0-51.33-21.833-97.5-56.53-130.05m-40.609 43.22l-23.11 24.975c16.483 15.52 26.814 37.467 26.814 61.881 0 24.417-10.323 46.38-26.814 61.881l23.11 24.951c23.17-21.695 37.704-52.54 37.704-86.81 0-34.26-14.526-65.13-37.704-86.83v-0.048m-224.65 24.1c-6.214 0-11.205 4.991-11.205 11.205v103.12c0 6.214 4.991 11.205 11.205 11.205h41.988v-125.53h-41.988m182.96 18.683l-22.603 25.22c5.174 4.665 8.519 11.313 8.519 18.828s-3.345 14.211-8.519 18.876l22.579 25.22c12.09-10.876 19.917-26.51 19.917-44.07 0-17.536-7.818-33.19-19.893-44.07"/></g></svg>