<svg xmlns="http://www.w3.org/2000/svg" viewBox="0 0 512 512"><g fill-rule="evenodd"><path fill="#ef6a47" d="m471.95 253.05c0 120.9-98.01 218.91-218.91 218.91s-218.91-98.01-218.91-218.91 98.01-218.91 218.91-218.91 218.91 98.01 218.91 218.91"/><path fill-opacity=".067" d="m256 1c-140.83 0-255 114.17-255 255s114.17 255 255 255 255-114.17 255-255-114.17-255-255-255m8.827 44.931c120.9 0 218.9 98 218.9 218.9s-98 218.9-218.9 218.9-218.93-98-218.93-218.9 98.03-218.9 218.93-218.9"/><g fill-opacity=".129"><path d="m256 4.43c-138.94 0-251.57 112.63-251.57 251.57s112.63 251.57 251.57 251.57 251.57-112.63 251.57-251.57-112.63-251.57-251.57-251.57m5.885 38.556c120.9 0 218.9 98 218.9 218.9s-98 218.9-218.9 218.9-218.93-98-218.93-218.9 98.03-218.9 218.93-218.9"/><path d="m256 8.36c-136.77 0-247.64 110.87-247.64 247.64s110.87 247.64 247.64 247.64 247.64-110.87 247.64-247.64-110.87-247.64-247.64-247.64m2.942 31.691c120.9 0 218.9 98 218.9 218.9s-98 218.9-218.9 218.9-218.93-98-218.93-218.9 98.03-218.9 218.93-218.9"/></g><path fill="#fff" stroke="#000" stroke-opacity=".31" stroke-width="4.904" d="m253.04 7.86c-135.42 0-245.19 109.78-245.19 245.19 0 135.42 109.78 245.19 245.19 245.19 135.42 0 245.19-109.78 245.19-245.19 0-135.42-109.78-245.19-245.19-245.19zm0 26.297c120.9 0 218.9 98 218.9 218.9s-98 218.9-218.9 218.9-218.93-98-218.93-218.9 98.03-218.9 218.93-218.9z"/></g><g><path d="m231.74 117.78c-1.769 0.006-3.698 0.342-5.764 1.072-3.875 1.373-3.995 1.486-53.19 49.832l-24.309 23.912v10.592l-7.699-7.699h-40.477c-5.99 0-10.801 4.811-10.801 10.801v99.41c0 2.995 1.203 5.695 3.154 7.646l158.59 158.59c0.599 0.005 1.195 0.023 1.795 0.023 109.59 0 200.36-80.52 216.39-185.63l-46.932-46.932h-64.62l-118.67-118.67c-1.957-1.957-4.489-2.956-7.477-2.945" opacity=".25"/><path fill="#fff" d="m231.74 117.78c-1.769 0.006-3.696 0.343-5.762 1.073-3.875 1.373-3.996 1.485-53.19 49.831l-24.309 23.912v126.61l21.18 20.81c49.803 48.954 52.15 51.19 55.34 52.747h0.023c5.679 2.757 11.391 1.538 14.907-3.196 3.588-4.838 3.382 3.553 3.569-132.91 0.154-111.72 0.052-126.67-0.817-129.66-1.763-6.07-5.633-9.235-10.941-9.215m-131.44 77.71c-5.99 0-10.801 4.811-10.801 10.801v99.41c0 5.99 4.811 10.801 10.801 10.801h40.476v-121.01h-40.476m167.92 43.905v33.22h66.39v-33.22h-66.39m87.86 0v33.22h66.42v-33.22h-66.42"/></g></svg>