<svg xmlns="http://www.w3.org/2000/svg" id="svg2" width="100%" height="100%" version="1.1" viewBox="0 0 512 512"><metadata id="metadata60"/><path id="path3090" fill="#ef6a47" fill-rule="evenodd" d="m471.95 253.05c0 120.9-98.006 218.91-218.91 218.91s-218.91-98.006-218.91-218.91 98.006-218.91 218.91-218.91 218.91 98.006 218.91 218.91"/><path style="color:#000" id="path4849" d="m246.66 118.06c0.70998 1.1847 1.2973 2.5676 1.75 4.125 0.90089 3.1014 1.003 18.608 0.84375 134.5-0.19392 141.56 0.003 132.86-3.7188 137.88-3.6477 4.9105-9.5466 6.1724-15.438 3.3125h-0.0312c-3.3061-1.616-5.7427-3.9365-57.406-54.719l-21.969-21.594v-120.12c-3.7739-3.7739 0.14502 0.022-8-8.125v125.44h-41.969c-1.9027 0-3.7161-0.45357-5.2812-1.2812 8.6774 11.386 21.677 20.19 31.031 31.156 41.875 40.851 83.458 81.984 124.84 123.31 0.57299 0.004 1.1447 0.0312 1.7188 0.0312 120.9 0 218.91-98.009 218.91-218.91 0-7.5353-0.38174-15.005-1.125-22.344-22.913-22.885-45.741-45.655-68.344-68.156-9.6789-9.7782-17.639-17.578-26.594-26.594 28.889 31.686 46.625 73.751 46.625 120 0 51.348-21.837 97.555-56.531 130.12l-23.125-24.719c28.108-26.354 45.688-63.835 45.688-105.41 0-8.8311-0.82753-17.45-2.3438-25.844-20.355-20.907-38.915-38.114-55.594-55.781-1.3435-2.4501-2.6632-3.6263-3.9688-3.9375 22.432 21.635 36.438 51.967 36.438 85.594 0 34.27-14.551 65.118-37.719 86.812l-23.11-24.92c16.492-15.498 26.812-37.489 26.812-61.906 0-24.414-10.329-46.355-26.812-61.875l21.219-22.938c-6.1515 3.9905-12.104 20.292-18.656 4.625-19.526-19.081-38.288-39.018-58.156-57.719zm100.28 36.5c0.6086 0.61805 1.2149 1.2455 1.8125 1.875-0.5994-0.63027-1.2019-1.2556-1.8125-1.875zm5.9688 6.4062c1.2289 1.4109 2.4192 2.8532 3.5938 4.3125-1.1783-1.459-2.3605-2.9011-3.5938-4.3125zm5.625 6.9062c8.096 10.539 14.793 22.231 19.75 34.594-4.9814-12.491-11.663-24.102-19.75-34.594zm19.75 34.594c0.35787 0.89249 0.69149 1.7881 1.0312 2.6875-0.33824-0.90032-0.67565-1.7958-1.0312-2.6875zm2.9688 8.125c0.30284 0.9122 0.59098 1.8319 0.875 2.75-0.28399-0.92117-0.57318-1.8368-0.875-2.75zm0.875 2.75c0.28402 0.91807 0.54753 1.8264 0.8125 2.75-0.26338-0.91918-0.53147-1.8384-0.8125-2.75zm-98.469-1.4375c12.074 10.883 19.906 26.526 19.906 44.062 0.0001 17.56-7.844 33.218-19.938 44.094l-22.562-25.219c5.1739-4.6655 8.5-11.36 8.5-18.875s-3.3261-14.179-8.5-18.844l22.594-25.219zm101.41 12.562c0.19714 0.89604 0.3836 1.7877 0.5625 2.6875-0.18152-0.89667-0.36446-1.7969-0.5625-2.6875zm-295.58 0.72c-0.23535 13.988-0.11607 28.008 0 42.031v-42.031z" opacity=".25"/><path id="path3092" fill-opacity=".067" fill-rule="evenodd" d="m256 1c-140.83 0-255 114.17-255 255s114.17 255 255 255 255-114.17 255-255-114.17-255-255-255m8.827 44.931c120.9 0 218.9 98 218.9 218.9s-98 218.9-218.9 218.9-218.93-98-218.93-218.9 98.03-218.9 218.93-218.9"/><path id="path3096" fill-opacity=".129" fill-rule="evenodd" d="m256 4.43c-138.94 0-251.57 112.63-251.57 251.57s112.63 251.57 251.57 251.57 251.57-112.63 251.57-251.57-112.63-251.57-251.57-251.57m5.885 38.556c120.9 0 218.9 98 218.9 218.9s-98 218.9-218.9 218.9-218.93-98-218.93-218.9 98.03-218.9 218.93-218.9"/><path id="path3098" fill-opacity=".129" fill-rule="evenodd" d="m256 8.36c-136.77 0-247.64 110.87-247.64 247.64s110.87 247.64 247.64 247.64 247.64-110.87 247.64-247.64-110.87-247.64-247.64-247.64m2.942 31.691c120.9 0 218.9 98 218.9 218.9s-98 218.9-218.9 218.9-218.93-98-218.93-218.9 98.03-218.9 218.93-218.9"/><path id="path3100" fill="#fff" fill-rule="evenodd" stroke="#000" stroke-opacity=".31" stroke-width="4.904" d="m253.04 7.86c-135.42 0-245.19 109.78-245.19 245.19 0 135.42 109.78 245.19 245.19 245.19 135.42 0 245.19-109.78 245.19-245.19 0-135.42-109.78-245.19-245.19-245.19zm0 26.297c120.9 0 218.9 98 218.9 218.9s-98 218.9-218.9 218.9-218.93-98-218.93-218.9 98.03-218.9 218.93-218.9z"/><path style="color:#000" id="path5807" fill="#fff" d="m237.05 112.62c-1.8354 0.007-3.8342 0.35606-5.9775 1.1132-4.0195 1.424-4.1455 1.5404-55.177 51.692l-25.217 24.806v131.34l21.974 21.587c51.664 50.782 54.098 53.102 57.404 54.718h0.0242c5.8909 2.8599 11.817 1.595 15.464-3.3155 3.7218-5.0185 3.5087 3.6855 3.7026-137.87 0.15929-115.89 0.0539-131.41-0.84699-134.51-1.8287-6.2919-5.8431-9.5795-11.35-9.5592z"/><path style="color:#000" id="path5805" fill="#fff" d="m365.97 125.91-23.112 24.66c28.124 26.368 45.666 63.841 45.666 105.42 0 41.571-17.559 79.04-45.666 105.39l23.112 24.709c34.694-32.57 56.532-78.779 56.532-130.13 0-51.331-21.833-97.499-56.532-130.05z" opacity=".4"/><path style="color:#000" id="path5803" fill="#fff" d="m325.36 169.13-23.112 24.975c16.483 15.52 26.814 37.467 26.814 61.881 0 24.417-10.323 46.383-26.814 61.881l23.112 24.951c23.167-21.695 37.704-52.538 37.704-86.807 0-34.261-14.526-65.126-37.704-86.832v-0.0484z" opacity=".4"/><path style="color:#000" id="path5801" fill="#fff" d="m100.7 193.23c-6.2139 0-11.205 4.9909-11.205 11.205v103.12c0 6.214 4.9909 11.205 11.205 11.205h41.988v-125.53h-41.988z"/><path style="color:#000" id="path3069" fill="#fff" d="m283.66 211.92-22.603 25.217c5.1739 4.6652 8.5186 11.313 8.5186 18.828s-3.3447 14.211-8.5186 18.876l22.579 25.217c12.094-10.876 19.917-26.51 19.917-44.069 0-17.536-7.8184-33.186-19.893-44.069z" opacity=".4"/></svg>