<?xml version="1.0" encoding="UTF-8" standalone="no"?>
<!-- Created with Inkscape (http://www.inkscape.org/) -->
<svg id="svg2" xmlns:rdf="http://www.w3.org/1999/02/22-rdf-syntax-ns#" xmlns="http://www.w3.org/2000/svg" height="100%" width="100%" version="1.1" xmlns:cc="http://creativecommons.org/ns#" viewBox="0 0 512 512" xmlns:dc="http://purl.org/dc/elements/1.1/">
 <metadata id="metadata158">
  <rdf:RDF>
   <cc:Work rdf:about="">
    <dc:format>image/svg+xml</dc:format>
    <dc:type rdf:resource="http://purl.org/dc/dcmitype/StillImage"/>
    <dc:title/>
   </cc:Work>
  </rdf:RDF>
 </metadata>
 <rect id="rect4" rx="25.988" height="512" width="512" y="0" x="0" fill="#e4a146"/>
 <path id="path3181" opacity=".25" d="m256 41c-22.44 0-44.8 3.916-66.41 10.938-43.22 14.043-80.88 41.39-107.59 78.152-26.712 36.77-41.188 80.65-41.188 126.1 0 45.445 14.476 89.328 41.188 126.09 6.6619 9.1692 13.997 17.747 21.938 25.688l104.03 104.03h278.03c14.397 0 26-11.603 26-26v-277.66l-103.91-103.9c-23.9-23.905-53.23-41.957-85.68-52.502-21.61-7.022-43.97-10.938-66.41-10.938z"/>
 <text id="text12" style="word-spacing:0;letter-spacing:0" font-size="157.21px" line-height="125%" y="226.02" x="881.22998" font-family="Gentium Book Basic">
  <tspan id="tspan14" y="226.02" x="881.22998"/>
 </text>
 <text id="text16" style="text-anchor:middle" transform="scale(4.0128 .2492)" font-size="57.12px" y="482.22" x="459.35999" font-family="Arial"/>
 <text id="text18" style="word-spacing:0;letter-spacing:0" font-size="157.21px" line-height="125%" y="128.69" x="1588.38" font-family="Gentium Book Basic">
  <tspan id="tspan20" y="128.69" x="1588.38"/>
 </text>
 <text id="text22" style="text-anchor:middle" transform="scale(4.0128 .2492)" font-size="57.12px" y="91.660004" x="635.59003" font-family="Arial"/>
 <text id="text24" style="word-spacing:0;letter-spacing:0" font-size="157.21px" line-height="125%" y="-91.82" x="284.73001" font-family="Gentium Book Basic">
  <tspan id="tspan26" y="-91.82" x="284.73001"/>
 </text>
 <text id="text28" style="text-anchor:middle" transform="scale(4.0128 .2492)" font-size="57.12px" y="-793.21997" x="310.72" font-family="Arial"/>
 <text id="text30" style="word-spacing:0;letter-spacing:0" font-size="157.21px" line-height="125%" y="-355.17999" x="1620.58" font-family="Gentium Book Basic">
  <tspan id="tspan32" y="-355.17999" x="1620.58"/>
 </text>
 <text id="text34" style="text-anchor:middle" transform="scale(4.0128 .2492)" font-size="57.12px" y="-1850.03" x="643.60999" font-family="Arial"/>
 <text id="text36" style="word-spacing:0;letter-spacing:0" font-size="157.21px" line-height="125%" y="-452.5" x="2327.74" font-family="Gentium Book Basic">
  <tspan id="tspan38" y="-452.5" x="2327.74"/>
 </text>
 <text id="text40" style="text-anchor:middle" transform="scale(4.0128 .2492)" font-size="57.12px" y="-2240.5901" x="819.84003" font-family="Arial"/>
 <text id="text42" style="word-spacing:0;letter-spacing:0" font-size="157.21px" line-height="125%" y="-1027.21" x="1854.34" font-family="Gentium Book Basic">
  <tspan id="tspan44" y="-1027.21" x="1854.34"/>
 </text>
 <text id="text46" style="text-anchor:middle" transform="scale(4.0128 .2492)" font-size="57.12px" y="-4546.7998" x="701.87" font-family="Arial"/>
 <text id="text48" style="word-spacing:0;letter-spacing:0" font-size="157.21px" line-height="125%" y="-1124.54" x="2561.5" font-family="Gentium Book Basic">
  <tspan id="tspan50" y="-1124.54" x="2561.5"/>
 </text>
 <text id="text52" style="text-anchor:middle" transform="scale(4.0128 .2492)" font-size="57.12px" y="-4937.3701" x="878.09003" font-family="Arial"/>
 <g id="g54" style="word-spacing:0;letter-spacing:0" font-family="Gentium Book Basic" line-height="125%">
  <text id="text56" y="596.56" x="331.75" font-size="253.45px">
   <tspan id="tspan58" y="596.56" x="331.75"/>
  </text>
  <text id="text60" y="231.36" x="720.78998" font-size="129.23px">
   <tspan id="tspan62" y="231.36" x="720.78998"/>
  </text>
 </g>
 <text id="text64" style="text-anchor:middle" transform="scale(4.0128 .2492)" font-size="46.954px" y="579.25" x="376.70001" font-family="Arial"/>
 <text id="text66" style="word-spacing:0;letter-spacing:0" font-size="129.23px" line-height="125%" y="151.36" x="1302.0601" font-family="Gentium Book Basic">
  <tspan id="tspan68" y="151.36" x="1302.0601"/>
 </text>
 <text id="text70" style="text-anchor:middle" transform="scale(4.0128 .2492)" font-size="46.954px" y="258.22" x="521.54999" font-family="Arial"/>
 <text id="text72" style="word-spacing:0;letter-spacing:0" font-size="129.23px" line-height="125%" y="-29.900999" x="230.48" font-family="Gentium Book Basic">
  <tspan id="tspan74" y="-29.900999" x="230.48"/>
 </text>
 <text id="text76" style="text-anchor:middle" transform="scale(4.0128 .2492)" font-size="46.954px" y="-469.14001" x="254.50999" font-family="Arial"/>
 <text id="text78" style="word-spacing:0;letter-spacing:0" font-size="129.23px" line-height="125%" y="-246.37" x="1328.53" font-family="Gentium Book Basic">
  <tspan id="tspan80" y="-246.37" x="1328.53"/>
 </text>
 <text id="text82" style="text-anchor:middle" transform="scale(4.0128 .2492)" font-size="46.954px" y="-1337.8101" x="528.15002" font-family="Arial"/>
 <text id="text84" style="word-spacing:0;letter-spacing:0" font-size="129.23px" line-height="125%" y="-326.38" x="1909.79" font-family="Gentium Book Basic">
  <tspan id="tspan86" y="-326.38" x="1909.79"/>
 </text>
 <text id="text88" style="text-anchor:middle" transform="scale(4.0128 .2492)" font-size="46.954px" y="-1658.85" x="673" font-family="Arial"/>
 <text id="text90" style="word-spacing:0;letter-spacing:0" font-size="129.23px" line-height="125%" y="-798.78003" x="1520.67" font-family="Gentium Book Basic">
  <tspan id="tspan92" y="-798.78003" x="1520.67"/>
 </text>
 <text id="text94" style="text-anchor:middle" transform="scale(4.0128 .2492)" font-size="46.954px" y="-3554.51" x="576.03003" font-family="Arial"/>
 <text id="text96" style="word-spacing:0;letter-spacing:0" font-size="129.23px" line-height="125%" y="-878.78003" x="2101.9399" font-family="Gentium Book Basic">
  <tspan id="tspan98" y="-878.78003" x="2101.9399"/>
 </text>
 <text id="text100" style="text-anchor:middle" transform="scale(4.0128 .2492)" font-size="46.954px" y="-3875.54" x="720.88" font-family="Arial"/>
 <g id="g102" style="word-spacing:0;letter-spacing:0" font-family="Gentium Book Basic" line-height="125%">
  <text id="text104" y="535.94" x="269.13" font-size="208.33px">
   <tspan id="tspan106" y="535.94" x="269.13"/>
  </text>
  <text id="text108" y="231.36" x="677.52002" font-size="129.23px">
   <tspan id="tspan110" y="231.36" x="677.52002"/>
  </text>
 </g>
 <text id="text112" style="text-anchor:middle" transform="scale(4.0128 .2492)" font-size="46.954px" y="579.25" x="365.92001" font-family="Arial"/>
 <text id="text114" style="word-spacing:0;letter-spacing:0" font-size="129.23px" line-height="125%" y="151.36" x="1258.79" font-family="Gentium Book Basic">
  <tspan id="tspan116" y="151.36" x="1258.79"/>
 </text>
 <text id="text118" style="text-anchor:middle" transform="scale(4.0128 .2492)" font-size="46.954px" y="258.22" x="510.76999" font-family="Arial"/>
 <text id="text120" style="word-spacing:0;letter-spacing:0" font-size="129.23px" line-height="125%" y="-29.900999" x="187.21001" font-family="Gentium Book Basic">
  <tspan id="tspan122" y="-29.900999" x="187.21001"/>
 </text>
 <text id="text124" style="text-anchor:middle" transform="scale(4.0128 .2492)" font-size="46.954px" y="-469.14001" x="243.73" font-family="Arial"/>
 <text id="text126" style="word-spacing:0;letter-spacing:0" font-size="129.23px" line-height="125%" y="-246.37" x="1285.26" font-family="Gentium Book Basic">
  <tspan id="tspan128" y="-246.37" x="1285.26"/>
 </text>
 <text id="text130" style="text-anchor:middle" transform="scale(4.0128 .2492)" font-size="46.954px" y="-1337.8101" x="517.37" font-family="Arial"/>
 <text id="text132" style="word-spacing:0;letter-spacing:0" font-size="129.23px" line-height="125%" y="-326.38" x="1866.53" font-family="Gentium Book Basic">
  <tspan id="tspan134" y="-326.38" x="1866.53"/>
 </text>
 <text id="text136" style="text-anchor:middle" transform="scale(4.0128 .2492)" font-size="46.954px" y="-1658.85" x="662.21997" font-family="Arial"/>
 <text id="text138" style="word-spacing:0;letter-spacing:0" font-size="129.23px" line-height="125%" y="-798.78003" x="1477.41" font-family="Gentium Book Basic">
  <tspan id="tspan140" y="-798.78003" x="1477.41"/>
 </text>
 <text id="text142" style="text-anchor:middle" transform="scale(4.0128 .2492)" font-size="46.954px" y="-3554.51" x="565.25" font-family="Arial"/>
 <text id="text144" style="word-spacing:0;letter-spacing:0" font-size="129.23px" line-height="125%" y="-878.78003" x="2058.6699" font-family="Gentium Book Basic">
  <tspan id="tspan146" y="-878.78003" x="2058.6699"/>
 </text>
 <text id="text148" style="text-anchor:middle" transform="scale(4.0128 .2492)" font-size="46.954px" y="-3875.54" x="710.09998" font-family="Arial"/>
 <text id="text150" style="word-spacing:0;letter-spacing:0" font-size="208.33px" line-height="125%" y="535.94" x="225.87" font-family="Gentium Book Basic">
  <tspan id="tspan152" y="535.94" x="225.87"/>
 </text>
 <g id="g8" fill="#fff" transform="matrix(.68258 0 0 .68258 81.262 81.276)">
  <path id="path10" d="m-80.26 130.11c0.082-0.262-0.086-0.522-0.375-0.522h-4.908c-0.289 0-0.352-0.235-0.167-0.446l10.486-13.416c0.185-0.212 0.252-0.175 0.148 0.082l-2.303 9.37c-0.104 0.257 0.047 0.411 0.336 0.411h4.919c0.289 0 0.382 0.232 0.205 0.451l-10.511 13.407c-0.176 0.219-0.254 0.18-0.17-0.082z" fill-rule="evenodd" transform="matrix(17.855 0 0 17.855 1663.4 -2022.1)" fill="#fff"/>
 </g>
 <path id="path3096" opacity=".4" d="m256 41c-22.44 0-44.8 3.916-66.41 10.938-43.22 14.043-80.88 41.39-107.59 78.152-26.712 36.77-41.188 80.65-41.188 126.1 0 45.445 14.476 89.328 41.188 126.09 26.712 36.766 64.373 64.144 107.59 78.188 43.221 14.043 89.591 14.043 132.81 0 43.23-14.04 80.89-41.42 107.6-78.19 26.71-36.76 41.19-80.65 41.19-126.09 0-45.45-14.48-89.33-41.19-126.1-26.71-36.762-64.37-64.109-107.59-78.152-21.61-7.022-43.97-10.938-66.41-10.938zm0 45.656c18.239 0 35.63 3.5137 52.094 8.8438 34.543 11.184 63.919 33.028 84.781 61.812 20.239 27.924 32.656 61.751 32.656 98.875s-12.417 70.982-32.656 98.906c-20.863 28.784-50.238 50.629-84.781 61.812-16.463 5.3301-33.855 8.8125-52.094 8.8125s-35.631-3.4824-52.094-8.8125c-34.55-11.19-63.92-33.03-84.79-61.82-20.234-27.92-32.651-61.78-32.651-98.9 0-37.124 12.417-70.951 32.656-98.875 20.87-28.79 50.24-50.64 84.79-61.82 16.46-5.33 33.85-8.844 52.09-8.844z" fill="#fff"/>
 <path id="path3589" fill="#fff" d="m256.5 41v45.656c18.056 0.06373 35.281 3.5626 51.594 8.8438 34.543 11.184 63.919 33.028 84.781 61.812 20.239 27.924 32.656 61.751 32.656 98.875s-12.417 70.982-32.656 98.906c-2.2474 3.1007-4.5905 6.1275-7.0312 9.0625l35.406 29.312c3.0205-3.6284 5.962-7.3501 8.75-11.188 26.712-36.766 41.188-80.648 41.188-126.09 0-45.445-14.475-89.328-41.188-126.09-26.72-36.772-64.38-64.119-107.6-78.162-21.45-6.97-43.63-10.88-65.91-10.938zm164.75 352.47c-2.4015 2.8849-4.8653 5.7209-7.4062 8.4688 2.546-2.752 5.0007-5.579 7.4062-8.4688zm-39.281-24.812c-1.2969 1.4539-2.6241 2.8737-3.9688 4.2812 1.3468-1.4099 2.6699-2.8248 3.9688-4.2812zm-4 4.3438c-0.74831 0.78272-1.5184 1.5444-2.2812 2.3125 0.76247-0.76777 1.5333-1.5301 2.2812-2.3125zm-9.5 9.1562c-0.8225 0.73667-1.632 1.467-2.4688 2.1875 0.83305-0.71725 1.6498-1.4542 2.4688-2.1875zm-221.06 3.375c0.59851 0.50417 1.207 1.0041 1.8125 1.5-0.60751-0.4974-1.2121-0.99426-1.8125-1.5zm214.81 1.96c-1.2605 1.0232-2.5224 2.0444-3.8125 3.0312 1.2897-0.98633 2.5525-2.0087 3.8125-3.0312zm51.53 14.53c-3.4301 3.7048-6.9854 7.2732-10.656 10.719 3.669-3.4418 7.2283-7.018 10.656-10.719zm-10.66 10.72c-0.9177 0.8614-1.8491 1.7177-2.7812 2.5625 0.93444-0.8462 1.8614-1.6996 2.7812-2.5625zm-2.7812 2.5625c-0.93216 0.84476-1.8661 1.672-2.8125 2.5 0.9456-0.82664 1.8811-1.6566 2.8125-2.5zm-2.8125 2.5c-0.9464 0.82795-1.9146 1.6578-2.875 2.4688 0.96745-0.81609 1.9218-1.6354 2.875-2.4688zm-210.47-7.4062c0.86321 0.38629 1.7226 0.784 2.5938 1.1562-0.86926-0.37154-1.7324-0.77074-2.5938-1.1562zm133.69 1.8438c-1.0076 0.41787-2.0447 0.81976-3.0625 1.2188 1.0268-0.40235 2.0461-0.7972 3.0625-1.2188zm65.062 15.125c-2.9919 2.2675-6.0497 4.4546-9.1562 6.5625 3.1056-2.1052 6.1651-4.298 9.1562-6.5625zm-9.1562 6.5625c-0.97725 0.66311-1.9493 1.3217-2.9375 1.9688 0.98539-0.64463 1.963-1.3081 2.9375-1.9688zm-12.781 8c-1.0876 0.63148-2.1509 1.2624-3.25 1.875 1.0908-0.60761 2.1705-1.2488 3.25-1.875z"/>
</svg>
