<svg xmlns="http://www.w3.org/2000/svg" id="svg2" width="100%" height="100%" version="1.1" viewBox="0 0 512 512"><metadata id="metadata240"/><path id="path4" fill="#cd1c30" fill-rule="evenodd" d="m471.95 253.05c0 120.9-98.01 218.9-218.9 218.9-120.9 0-218.9-98.01-218.9-218.9 0-120.9 98.01-218.9 218.9-218.9 120.9 0 218.9 98.01 218.9 218.9"/><path id="path6" fill-opacity=".235" d="m353.38 145.66c-8.202 0.11-16.534 0.885-24.563 0.25-62.01-0.062-124.03 0.123-186.03-0.094-18.27 2.691-15.733 23.298-15.594 36.969 0.279 56.35-0.571 112.75 0.406 169.06 7.475 15.205 22.81 25.09 33.906 37.813 27.389 27.319 54.726 54.687 82.06 82.06 3.147 0.134 6.32 0.219 9.5 0.219 120.89 0 218.88-97.98 218.88-218.87 0-3.169-0.085-6.332-0.219-9.469-31.453-31.483-62.942-62.918-94.59-94.19-7.478-3.311-15.548-3.86-23.75-3.75"/><path id="path8" fill="#fff" d="m240.86 288.72 42.915-42.43 42.4 42.42 42.41-42.41 42.724 42.768-42.31 42.487 42.469 42.487-42.542 42.994-42.573-42.657-42.631 42.817-42.693-43.35 42.44-42.44"/><g id="g10" fill-rule="evenodd"><path id="path12" fill-opacity=".067" d="m256 1c-140.83 0-255 114.17-255 255s114.17 255 255 255 255-114.17 255-255-114.17-255-255-255m8.827 44.931c120.9 0 218.9 98 218.9 218.9s-98 218.9-218.9 218.9-218.93-98-218.93-218.9 98.03-218.9 218.93-218.9"/><g id="g14" fill-opacity=".129"><path id="path16" d="m256 4.433c-138.94 0-251.57 112.63-251.57 251.57s112.63 251.57 251.57 251.57 251.57-112.63 251.57-251.57-112.63-251.57-251.57-251.57m5.885 38.556c120.9 0 218.9 98 218.9 218.9s-98 218.9-218.9 218.9-218.93-98-218.93-218.9 98.03-218.9 218.93-218.9"/><path id="path18" d="m256 8.356c-136.77 0-247.64 110.87-247.64 247.64s110.87 247.64 247.64 247.64 247.64-110.87 247.64-247.64-110.87-247.64-247.64-247.64m2.942 31.691c120.9 0 218.9 98 218.9 218.9s-98 218.9-218.9 218.9-218.93-98-218.93-218.9 98.03-218.9 218.93-218.9"/></g><path id="path20" fill="#fff" stroke="#000" stroke-opacity=".31" stroke-width="4.904" d="m253.04 7.859c-135.42 0-245.19 109.78-245.19 245.19 0 135.42 109.78 245.19 245.19 245.19 135.42 0 245.19-109.78 245.19-245.19 0-135.42-109.78-245.19-245.19-245.19zm0 26.297c120.9 0 218.9 98 218.9 218.9s-98 218.9-218.9 218.9-218.93-98-218.93-218.9 98.03-218.9 218.93-218.9z"/></g><path id="path234" fill="#fff8eb" fill-rule="evenodd" d="m142.78 145.81c-0.331 0.011-0.639 0.035-0.938 0.094-8.402 1.697-14.656 9.28-14.656 18.19v183.91c0 10.15 8.457 18.19 18.656 18.19h88.72l18.19-18.19h-106.91v-155.91h220.31l0.576 38.3c2.944 2.944 5.965 5.87 8.924 8.828l9.156 9.156v-84.28c0-10.184-8.525-18.19-18.656-18.19h-220.31c-0.958 0-2.069-0.127-3.063-0.094"/></svg>