<svg xmlns="http://www.w3.org/2000/svg" viewBox="0 0 512 512"><defs><linearGradient gradientUnits="userSpaceOnUse" y2="-26.27" x2="512" y1="814.21" x1="-328.48" id="0"><stop style="stop-color:#0078ad"/><stop offset="1" style="stop-color:#904ab5"/></linearGradient></defs><path d="m26 0c-14.397 0-26 11.603-26 26v460c0 14.397 11.603 26 26 26h460c14.397 0 26-11.603 26-26v-460c0-14.397-11.603-26-26-26h-460" style="fill:url(#0)"/><g style="color:#000"><path d="m256 41c-118.74 0-215 96.26-215 215 0 59.37 24.07 113.12 62.975 152.03l103.97 103.97h278.05c14.397 0 26-11.603 26-26v-278.05l-103.97-103.97c-38.908-38.908-92.66-62.975-152.03-62.975" style="opacity:.25"/><path d="m256 41c-118.74 0-215 96.26-215 215 0 118.74 96.26 215 215 215 118.74 0 215-96.26 215-215 0-118.74-96.26-215-215-215m0 31.6c101.29 0 183.4 82.12 183.4 183.4 0 101.29-82.12 183.4-183.4 183.4-101.29 0-183.4-82.11-183.4-183.4 0-101.29 82.12-183.4 183.4-183.4zm.098 19.04c-16.898 0-33.28 2.548-48.619 7.285 11.88 3.867 23.321 8.423 34.42 13.66l18.393-20.76c-1.411-.035-2.769-.182-4.188-.182l-.005-.003m20.402 1.276l-22.581 25.678c4.733 2.491 9.431 5.112 14.02 7.832 3.572-2.473 7.892-4.01 12.568-4.01 7.128 0 13.436 3.508 17.482 8.742 14.308-5.758 28.699-10.997 43.17-15.843-19.293-11.697-41.23-19.489-64.65-22.402h-.005m-88.5 13.478c-17.28 7.886-32.993 18.613-46.44 31.686 7.715 22.758 16.515 43.714 26.409 62.837 8.687-6.095 17.464-11.903 26.409-17.482-1.437-2.934-2.365-6.167-2.365-9.653 0-12.219 9.998-22.03 22.22-22.03h.182c5.956-9.441 12.674-19.1 19.666-28.774-14.666-6.763-29.987-12.398-46.08-16.575l-.005-.005m168.83 19.858l-.003.003c0 0 .003.003.003.003 0-.002 0-.004 0-.005zm0 .005c.029 1.098.144 2.223.182 3.088.234 5.43.352 10.113.547 13.478.099 1.683.287 3.048.366 4.01.04.48.159 1.036.182 1.273v.547.91c-.368 16.859-1.644 32.531-3.644 47.535 9.142 9.692 17.729 19.872 26.22 30.23 8.671-7.101 16.554-13.392 26.04-21.305 1.606-1.34 3.129-2.666 4.736-4.01-10.526-30.29-29.81-56.46-54.636-75.76m-12.573 1.639c-13.966 4.693-27.905 9.737-41.705 15.299.024.44.182.827.182 1.273 0 1.728-.354 3.484-.729 5.099 14.34 10.976 28.03 23.03 40.976 35.878 1.214-11.505 2.086-23.409 2.368-36.06-.004-.048.003-.134 0-.181-.024-.338-.141-.807-.182-1.276-.093-1.136-.264-2.629-.366-4.37-.201-3.48-.307-8.194-.545-13.66-.024-.56.024-1.425 0-2m-98.71.91c-6.643 9.116-12.89 18.1-18.577 26.951 2.219 1.574 4.137 3.56 5.646 5.827 8.646-4.579 17.432-8.941 26.22-13.11-.23-1.279-.366-2.66-.366-4 0-2.788.513-5.37 1.458-7.832-4.7-2.756-9.536-5.326-14.386-7.83m-113.65 19.482c.001.004.001.007.003.011.002-.002.004-.004.005-.005l-.008-.005m.003.01c-25.02 28.838-40.25 66.45-40.25 107.62 0 3.143.005 6.37.182 9.469 20.738-21.16 42.913-40.14 66.11-57.19-9.708-18.39-18.324-38.36-26.04-59.897m132.75 11.463c0 0 .003.003.003.003.002-.001.004-.002.005-.003h-.008m.003.003c-9.55 4.523-19.04 9.374-28.406 14.383-.194 12.05-9.935 21.855-22.03 21.855-3.343 0-6.449-.858-9.29-2.184-6.783 13.301-12.478 26.617-17.482 40.06 20.396 31.05 44.54 56.886 72.48 78.67 14.02-7.174 28.28-15.517 42.978-25.315-1.173-3.068-1.821-6.534-1.821-10.02 0-15.272 12.406-27.501 27.68-27.501.494 0 .971.157 1.458.182 4.622-15.13 8.194-31.2 10.745-48.26-14.282-14.806-29.519-28.598-45.528-40.976-3.942 3.634-9.151 6.01-14.936 6.01-6.256 0-11.817-2.743-15.841-6.917m-78.32 44.07c-4.082 2.721-8.177 5.36-12.199 8.195 1.626 2.902 3.237 5.738 4.917 8.558 2.245-5.619 4.742-11.165 7.282-16.754m165.54 9.834c-2.483 13.842-5.614 27.08-9.469 39.7 1.232.702 2.355 1.491 3.46 2.368 4.111-3.299 11.769-9.477 24.949-20.22-6.125-7.478-12.498-14.734-18.94-21.852m63.56 1.821c-.169.141-.378.224-.547.366-9.547 7.963-17.312 14.332-26.04 21.489 10.466 13.276 20.456 26.935 30.05 40.792.974-7.236 1.455-14.715 1.455-22.22 0-13.979-1.63-27.465-4.914-40.43m-251.31 3.993l-.003.005c-24.866 18.379-48.44 39.09-70.29 62.28 3.676 23.332 12.181 44.942 24.583 63.918 6.496-.086 12.908-.198 19.12-.545.078-9.687 6.388-17.845 15.11-20.76 4.311-31.574 10.992-60.66 20.945-88.87-3.274-5.136-6.385-10.623-9.469-16.03m214.72 26.04l-.014.005c-13.164 10.74-20.806 16.886-24.949 20.21 1.613 3.511 2.549 7.358 2.549 11.473 0 15.272-12.409 27.682-27.682 27.682-2.239 0-4.47-.227-6.553-.729-3.726 7.617-7.787 15.15-12.02 22.581 6.797 3.776 11.473 10.979 11.473 19.306 0 1.85-.302 3.563-.729 5.28 15.774 8.06 32.457 15.298 50.09 22.03 21.356-20.89 36.954-47.48 44.44-77.4-11.584-17.217-23.776-34.15-36.606-50.45m-196.49 2.729l-.003.003c-7.848 24.06-13.227 48.923-16.935 75.76 7.837 2.104 13.818 8.269 15.662 16.209 23.13-4.425 44.882-11.627 66.65-21.673-24.719-20.02-46.46-43.24-65.37-70.3m127.66 49.36c-13.244 8.781-26.18 16.727-38.974 23.491 4.355 3.12 8.762 6.155 13.294 9.106 3.468-3.347 7.867-5.492 12.931-6.01 4.977-8.496 9.394-17.15 13.66-25.859-.302-.258-.619-.458-.91-.729m-51.17 29.497v.005c-25.704 12.394-51.22 21.01-78.67 26.04-3.02 7.872-10.33 13.453-19.12 14.03-.523 7.135-.882 14.589-1.276 22.03 20.422 14.795 44.31 24.833 70.3 28.956l.726-.545c17.774-22.63 33.784-43.658 47.898-64.47-.775-2.255-1.276-4.582-1.276-7.101 0-1.878.289-3.722.729-5.464-6.621-4.326-13.03-8.795-19.303-13.478m-117.28 30.779c-4.509.306-9.198.389-13.838.547 5.934 7.417 12.554 14.294 19.669 20.579.295-5.05.529-10.02.91-14.933-2.665-1.619-4.969-3.637-6.74-6.193m173.18 4.191c.002.001.006.001.008.003 0 0 .003-.003.003-.003h-.011m.008.003c-3.971 3.792-9.372 6.01-15.299 6.01-4.816 0-9.115-1.385-12.747-4-12.484 18.231-26.507 36.66-41.521 55.912 3.595.234 7.271.366 10.926.366 39.714 0 76.12-14.07 104.53-37.522-16.02-6.368-31.31-13.212-45.891-20.758" style="fill:#fff"/></g></svg>