<svg xmlns="http://www.w3.org/2000/svg" id="svg2" width="100%" height="100%" version="1.1" viewBox="0 0 512 512"><metadata id="metadata746"/><path id="path520" fill="#55405f" fill-rule="evenodd" d="m471.95 253.05c0 120.9-98.01 218.9-218.9 218.9-120.9 0-218.9-98.01-218.9-218.9 0-120.9 98.01-218.9 218.9-218.9 120.9 0 218.9 98.01 218.9 218.9"/><path id="path522" fill-opacity=".235" d="m256.59 109.28c-59.95 0.785-104.23 54.47-117.78 109.09-3.489 13.398-10.899 5.193-13.563 0.375-27.946 4.459-36.4 37.712-39.5 61.75-3.499 33.601 3.035 74.11 33.656 93.5 27.08 27.08 60.82 61.07 93.75 94.31 12.94 2.384 26.28 3.625 39.906 3.625 111.79 0 204-83.78 217.25-192-48.4-48.48-96.61-97.17-145.59-145.03-18.826-16.08-43.2-26.01-68.12-25.625"/><g id="g524" fill-rule="evenodd"><path id="path526" fill-opacity=".067" d="m256 1c-140.83 0-255 114.17-255 255s114.17 255 255 255 255-114.17 255-255-114.17-255-255-255m8.827 44.931c120.9 0 218.9 98 218.9 218.9s-98 218.9-218.9 218.9-218.93-98-218.93-218.9 98.03-218.9 218.93-218.9"/><g id="g528" fill-opacity=".129"><path id="path530" d="m256 4.433c-138.94 0-251.57 112.63-251.57 251.57s112.63 251.57 251.57 251.57 251.57-112.63 251.57-251.57-112.63-251.57-251.57-251.57m5.885 38.556c120.9 0 218.9 98 218.9 218.9s-98 218.9-218.9 218.9-218.93-98-218.93-218.9 98.03-218.9 218.93-218.9"/><path id="path532" d="m256 8.356c-136.77 0-247.64 110.87-247.64 247.64s110.87 247.64 247.64 247.64 247.64-110.87 247.64-247.64-110.87-247.64-247.64-247.64m2.942 31.691c120.9 0 218.9 98 218.9 218.9s-98 218.9-218.9 218.9-218.93-98-218.93-218.9 98.03-218.9 218.93-218.9"/></g><path id="path534" fill="#fff" stroke="#000" stroke-opacity=".31" stroke-width="4.904" d="m253.04 7.859c-135.42 0-245.19 109.78-245.19 245.19 0 135.42 109.78 245.19 245.19 245.19 135.42 0 245.19-109.78 245.19-245.19 0-135.42-109.78-245.19-245.19-245.19zm0 26.297c120.9 0 218.9 98 218.9 218.9s-98 218.9-218.9 218.9-218.93-98-218.93-218.9 98.03-218.9 218.93-218.9z"/></g><path id="path740" fill="#fff" d="m254.27 109.34c-49.64 1.699-98.33 41.64-116.34 112.31-0.05 0.182 0.045 0.392 0 0.578-5.04 3.469-8.642 8.943-8.642 15.551v115.77c0 10.676 8.332 19.01 19.01 19.01 10.676 0 19.585-8.332 19.585-19.01v-115.77c0-6.076-3.122-11.451-7.491-14.977 17.588-46.37 57.36-78.963 100.22-77.76 40.27 1.073 71.952 36.624 85.82 73.15l2.88 6.336c-3.164 3.432-4.607 8.192-4.607 13.249v115.77c0 10.676 8.332 19.01 19.01 19.01 10.676 0 19.585-8.332 19.585-19.01v-115.77c0-5.511-2.653-10.32-6.336-13.822-0.05-0.182 0.05-0.396 0-0.578-22.08-79.39-73.03-115.74-122.68-114.04m-129.01 109.44c-22.397 0.578-40.32 34.833-40.32 77.18 0 42.35 17.922 76.02 40.32 76.61m261.48-153.79v153.79c22.397-0.582 40.32-34.26 40.32-76.61 0-42.34-17.922-76.6-40.32-77.18"/></svg>