<svg xmlns="http://www.w3.org/2000/svg" id="svg2" width="100%" height="100%" version="1.1" viewBox="0 0 512 512"><metadata id="metadata746"/><path id="path520" fill="#ae4a32" fill-rule="evenodd" d="m471.95 253.05c0 120.9-98.01 218.9-218.9 218.9-120.9 0-218.9-98.01-218.9-218.9 0-120.9 98.01-218.9 218.9-218.9 120.9 0 218.9 98.01 218.9 218.9"/><path id="path522" fill-opacity=".235" d="m256.56 111.16c-58.36 0.814-101.45 54.23-113.09 107.66-9.109 12.234-7.685-9.66-19.875-1.656-28.16 16.551-31.875 54.37-30.12 84.03 4.175 22.7-1.482 46.35 3.594 68.781 16.344 20.399 36.923 37.627 54.969 56.75 11.695 11.636 23.447 23.402 35.22 35.16 20.772 6.54 42.88 10.06 65.813 10.06 110.6 0 202.01-82.02 216.78-188.56-48.2-48.21-96.31-96.49-144.66-144.56-18.488-17.17-43.18-28.06-68.62-27.656"/><g id="g524" fill-rule="evenodd"><path id="path526" fill-opacity=".067" d="m256 1c-140.83 0-255 114.17-255 255s114.17 255 255 255 255-114.17 255-255-114.17-255-255-255m8.827 44.931c120.9 0 218.9 98 218.9 218.9s-98 218.9-218.9 218.9-218.93-98-218.93-218.9 98.03-218.9 218.93-218.9"/><g id="g528" fill-opacity=".129"><path id="path530" d="m256 4.433c-138.94 0-251.57 112.63-251.57 251.57s112.63 251.57 251.57 251.57 251.57-112.63 251.57-251.57-112.63-251.57-251.57-251.57m5.885 38.556c120.9 0 218.9 98 218.9 218.9s-98 218.9-218.9 218.9-218.93-98-218.93-218.9 98.03-218.9 218.93-218.9"/><path id="path532" d="m256 8.356c-136.77 0-247.64 110.87-247.64 247.64s110.87 247.64 247.64 247.64 247.64-110.87 247.64-247.64-110.87-247.64-247.64-247.64m2.942 31.691c120.9 0 218.9 98 218.9 218.9s-98 218.9-218.9 218.9-218.93-98-218.93-218.9 98.03-218.9 218.93-218.9"/></g><path id="path534" fill="#fff" stroke="#000" stroke-opacity=".31" stroke-width="4.904" d="m253.04 7.859c-135.42 0-245.19 109.78-245.19 245.19 0 135.42 109.78 245.19 245.19 245.19 135.42 0 245.19-109.78 245.19-245.19 0-135.42-109.78-245.19-245.19-245.19zm0 26.297c120.9 0 218.9 98 218.9 218.9s-98 218.9-218.9 218.9-218.93-98-218.93-218.9 98.03-218.9 218.93-218.9z"/></g><path id="path740" fill="#fff" d="m256.57 111.15c-0.74 0.008-1.465 0.004-2.204 0.03v0.03c-47.32 1.62-93.73 39.695-110.9 107.06-0.047 0.173 0.043 0.359 0 0.536-4.808 3.307-8.251 8.536-8.251 14.835v110.37c0 10.176 7.936 18.11 18.11 18.11 10.176 0 18.677-7.936 18.677-18.11v-110.37c0-5.792-2.985-10.907-7.149-14.269 16.765-44.2 54.675-75.29 95.53-74.14 38.39 1.023 68.61 34.922 81.83 69.73l2.741 6.05c-3.02 3.271-4.409 7.81-4.409 12.63v110.34c0 10.176 7.966 18.14 18.14 18.14 10.176 0 18.648-7.966 18.648-18.14v-110.34c0-5.253-2.536-9.857-6.05-13.196-0.047-0.173 0.047-0.363 0-0.536-20.714-74.49-68.1-109.24-114.72-108.76m-125.2 104.35c-21.349 0.551-38.427 33.21-38.427 73.58 0 8.267 0.733 16.189 2.055 23.563v48.47c0 3.245 1.282 7.963 3.634 11.975 9.764 13.975 51.09 16.913 64.05 16.92h50.521c2.925 8.53 12.348 14.745 23.592 14.745h12.154c13.595 0 24.546-9.07 24.546-20.345 0-11.28-10.951-20.375-24.546-20.375h-12.154c-8.353 0-15.709 3.439-20.14 8.698h-13.405c-18.259-0.616-38.43 0.755-55.734-0.149-4.72-0.214-9.14-1.035-13.524-2.115-8.64-2.194-15.27-3.294-18.826-8.222-1.662-2.302-2.664-5.454-2.86-9.92 5.608 6.077 12.11 9.619 19.06 9.8v-146.62m249.27 0v146.62c21.349-0.555 38.427-32.669 38.427-73.04 0-40.36-17.08-73.02-38.427-73.58"/></svg>