<svg xmlns="http://www.w3.org/2000/svg" id="svg2" width="100%" height="100%" version="1.1" viewBox="0 0 512 512"><metadata id="metadata392"/><path id="path160" fill="#0078ad" fill-rule="evenodd" d="m471.95 253.05c0 120.9-98.01 218.9-218.9 218.9-120.9 0-218.9-98.01-218.9-218.9 0-120.9 98.01-218.9 218.9-218.9 120.9 0 218.9 98.01 218.9 218.9"/><path id="path162" fill-opacity=".235" d="m253.13 104.66c-60.05 0.092-112.03 57.37-105.66 117.31 1.324 33.28 21.824 60.686 45.44 82.28 13.194 13.212 26.42 26.393 39.594 39.625-19.861 1.287-50.968-31.348-60.56-0.969-4.701 17.461-12.956 34.34-15.12 52.22 5.386 12.946 18.637 20.687 27.531 31.344 14.671 14.7 29.391 29.391 44.13 44.09 8.07 0.901 16.286 1.375 24.594 1.375 113.6 0 206.96-86.52 217.81-197.28-48.15-48.11-95.98-96.56-144.59-144.19-19.401-16.57-44.772-25.876-70.28-25.781-0.957-0.028-1.922-0.033-2.875-0.031"/><g id="g164" fill-rule="evenodd"><path id="path166" fill-opacity=".067" d="m256 1c-140.83 0-255 114.17-255 255s114.17 255 255 255 255-114.17 255-255-114.17-255-255-255m8.827 44.931c120.9 0 218.9 98 218.9 218.9s-98 218.9-218.9 218.9-218.93-98-218.93-218.9 98.03-218.9 218.93-218.9"/><g id="g168" fill-opacity=".129"><path id="path170" d="m256 4.433c-138.94 0-251.57 112.63-251.57 251.57s112.63 251.57 251.57 251.57 251.57-112.63 251.57-251.57-112.63-251.57-251.57-251.57m5.885 38.556c120.9 0 218.9 98 218.9 218.9s-98 218.9-218.9 218.9-218.93-98-218.93-218.9 98.03-218.9 218.93-218.9"/><path id="path172" d="m256 8.356c-136.77 0-247.64 110.87-247.64 247.64s110.87 247.64 247.64 247.64 247.64-110.87 247.64-247.64-110.87-247.64-247.64-247.64m2.942 31.691c120.9 0 218.9 98 218.9 218.9s-98 218.9-218.9 218.9-218.93-98-218.93-218.9 98.03-218.9 218.93-218.9"/></g><path id="path174" fill="#fff" stroke="#000" stroke-opacity=".31" stroke-width="4.904" d="m253.04 7.859c-135.42 0-245.19 109.78-245.19 245.19 0 135.42 109.78 245.19 245.19 245.19 135.42 0 245.19-109.78 245.19-245.19 0-135.42-109.78-245.19-245.19-245.19zm0 26.297c120.9 0 218.9 98 218.9 218.9s-98 218.9-218.9 218.9-218.93-98-218.93-218.9 98.03-218.9 218.93-218.9z"/></g><g id="g380" fill="#fff" transform="matrix(5.4451 0 0 5.4451 147.17 104.69)"><path id="path382" d="m37.2 49.34-2.063-6.313c-0.238-0.725-0.781-1.311-1.488-1.6-0.707-0.291-1.504-0.256-2.184 0.093-7.228 3.722-15.794 3.708-23-0.021-0.682-0.354-1.482-0.385-2.192-0.094-0.71 0.293-1.252 0.883-1.487 1.612l-2.922 9.1c-0.257 0.793-0.117 1.688 0.375 2.361 0.489 0.672 1.271 1.1 2.104 1.1h31.28c1.476 0 2.643-1.195 2.643-2.635 0-0.211-0.639-2.289-1.068-3.6"/><path id="path384" d="m19.986 31.574c-6.397 0-11.586-5.186-11.586-11.588 0-6.396 5.188-11.587 11.586-11.587 6.397 0 11.588 5.191 11.588 11.587 0 6.403-5.189 11.588-11.588 11.588m0-31.574c-11.02 0-19.986 8.966-19.986 19.986s8.966 19.987 19.986 19.987 19.987-8.968 19.987-19.987c0-11.02-8.965-19.986-19.987-19.986"/><path id="path386" d="m17.813 19.907c-1.199 0-2.172-0.973-2.172-2.173 0-1.198 0.973-2.172 2.172-2.172 1.2 0 2.173 0.974 2.173 2.172 0 1.201-0.972 2.173-2.173 2.173m2.173-7.162c-4 0-7.241 3.245-7.241 7.241 0 4 3.241 7.242 7.241 7.242s7.242-3.24 7.242-7.242c0.001-3.996-3.241-7.241-7.242-7.241"/></g></svg>