<svg xmlns="http://www.w3.org/2000/svg" id="svg2" width="100%" height="100%" version="1.1" viewBox="0 0 512 512"><metadata id="metadata388"/><path id="path160" fill="#0078ad" fill-rule="evenodd" d="m471.95 253.05c0 120.9-98.01 218.9-218.9 218.9-120.9 0-218.9-98.01-218.9-218.9 0-120.9 98.01-218.9 218.9-218.9 120.9 0 218.9 98.01 218.9 218.9"/><path id="path162" fill-opacity=".235" d="m366.25 145.69c-8.093 0.085-16.367 0.945-24.12 0.25h-205.37c-21.46-0.608-30.12 21.883-27.5 39.938 0.408 37.552-0.832 75.21 0.625 112.69 5.7 17.02 22.654 26.665 33.844 40-12.528 0.755-32.826-4.519-34.469 13.75 2.753 13.474 16.989 20.554 25.22 30.875 28.833 28.778 57.644 57.59 86.44 86.41 10.493 1.544 21.234 2.344 32.16 2.344 120.89 0 218.88-97.98 218.88-218.87 0-7.749-0.402-15.428-1.188-22.969-25.293-25.292-50.582-50.586-75.875-75.875-8.142-7.464-18.219-8.641-28.625-8.531"/><g id="g164" fill-rule="evenodd"><path id="path166" fill-opacity=".067" d="m256 1c-140.83 0-255 114.17-255 255s114.17 255 255 255 255-114.17 255-255-114.17-255-255-255m8.827 44.931c120.9 0 218.9 98 218.9 218.9s-98 218.9-218.9 218.9-218.93-98-218.93-218.9 98.03-218.9 218.93-218.9"/><g id="g168" fill-opacity=".129"><path id="path170" d="m256 4.433c-138.94 0-251.57 112.63-251.57 251.57s112.63 251.57 251.57 251.57 251.57-112.63 251.57-251.57-112.63-251.57-251.57-251.57m5.885 38.556c120.9 0 218.9 98 218.9 218.9s-98 218.9-218.9 218.9-218.93-98-218.93-218.9 98.03-218.9 218.93-218.9"/><path id="path172" d="m256 8.356c-136.77 0-247.64 110.87-247.64 247.64s110.87 247.64 247.64 247.64 247.64-110.87 247.64-247.64-110.87-247.64-247.64-247.64m2.942 31.691c120.9 0 218.9 98 218.9 218.9s-98 218.9-218.9 218.9-218.93-98-218.93-218.9 98.03-218.9 218.93-218.9"/></g><path id="path174" fill="#fff" stroke="#000" stroke-opacity=".31" stroke-width="4.904" d="m253.04 7.859c-135.42 0-245.19 109.78-245.19 245.19 0 135.42 109.78 245.19 245.19 245.19 135.42 0 245.19-109.78 245.19-245.19 0-135.42-109.78-245.19-245.19-245.19zm0 26.297c120.9 0 218.9 98 218.9 218.9s-98 218.9-218.9 218.9-218.93-98-218.93-218.9 98.03-218.9 218.93-218.9z"/></g><g id="g380" fill="#fff"><path id="path382" d="m29 0h-26c-1.654 0-3 1.346-3 3v13c0 1.654 1.346 3 3 3h26c1.654 0 3-1.346 3-3v-13c0-1.654-1.346-3-3-3m1 16c0 0.551-0.448 1-1 1h-26c-0.552 0-1-0.449-1-1v-13c0-0.551 0.448-1 1-1h26c0.552 0 1 0.449 1 1v13m0.5 5h-10.5c0 0.552-0.447 1-1 1h-6c-0.553 0-1-0.448-1-1h-10.5c-0.828 0-1.5 0.672-1.5 1.5s0.672 1.5 1.5 1.5h29c0.828 0 1.5-0.672 1.5-1.5s-0.672-1.5-1.5-1.5" transform="matrix(9.1719 0 0 9.1719 109.25 145.94)"/></g></svg>