<svg xmlns="http://www.w3.org/2000/svg" id="svg2" width="100%" height="100%" version="1.1" viewBox="0 0 512 512"><metadata id="metadata280"/><path id="path50" fill="#68af4c" fill-rule="evenodd" d="m471.95 253.05c0 120.9-98.01 218.9-218.9 218.9-120.9 0-218.9-98.01-218.9-218.9 0-120.9 98.01-218.9 218.9-218.9 120.9 0 218.9 98.01 218.9 218.9"/><path id="path52" fill-opacity=".235" d="m331.54 122.13c-8.987 0.103-18.14 0.972-26.793 0.265h-140.13c-21.06-1.067-37.27 19.32-33.69 39.526v139.44c4.765 2.928 7.389 7.997 12.136 10.943 1.684 4.366-18.535-3.082-12.136 10.05 0.306 20.363-3.654 44.777 14.69 59.02 33.696 33.575 67.3 67.24 100.91 100.91 1.104 0.015 2.209 0.033 3.316 0.033 128.28 0 232.25-103.96 232.25-232.25 0-0.543-0.029-1.083-0.033-1.625-39.34-39.37-78.66-78.74-118.11-117.98-9.553-7.321-20.842-8.455-32.397-8.323"/><g id="g54" fill-rule="evenodd"><path id="path56" fill-opacity=".067" d="m256 1c-140.83 0-255 114.17-255 255s114.17 255 255 255 255-114.17 255-255-114.17-255-255-255m8.827 44.931c120.9 0 218.9 98 218.9 218.9s-98 218.9-218.9 218.9-218.93-98-218.93-218.9 98.03-218.9 218.93-218.9"/><g id="g58" fill-opacity=".129"><path id="path60" d="m256 4.433c-138.94 0-251.57 112.63-251.57 251.57s112.63 251.57 251.57 251.57 251.57-112.63 251.57-251.57-112.63-251.57-251.57-251.57m5.885 38.556c120.9 0 218.9 98 218.9 218.9s-98 218.9-218.9 218.9-218.93-98-218.93-218.9 98.03-218.9 218.93-218.9"/><path id="path62" d="m256 8.356c-136.77 0-247.64 110.87-247.64 247.64s110.87 247.64 247.64 247.64 247.64-110.87 247.64-247.64-110.87-247.64-247.64-247.64m2.942 31.691c120.9 0 218.9 98 218.9 218.9s-98 218.9-218.9 218.9-218.93-98-218.93-218.9 98.03-218.9 218.93-218.9"/></g><path id="path64" fill="#fff" stroke="#000" stroke-opacity=".31" stroke-width="4.904" d="m253.04 7.859c-135.42 0-245.19 109.78-245.19 245.19 0 135.42 109.78 245.19 245.19 245.19 135.42 0 245.19-109.78 245.19-245.19 0-135.42-109.78-245.19-245.19-245.19zm0 26.297c120.9 0 218.9 98 218.9 218.9s-98 218.9-218.9 218.9-218.93-98-218.93-218.9 98.03-218.9 218.93-218.9z"/></g><path id="path274" fill="#fff" d="m164.61 122.39c-18.656 0-33.69 13.874-33.69 31.1v147.86h244.06v-147.86c0-17.229-15.03-31.1-33.69-31.1h-176.68m-33.69 191.53v36.811h0.033c0.676 18.569 11.897 33.23 25.732 33.23h89.86v-70.03h-115.62m128.43 0v70.03h89.86c13.835 0 25.06-14.657 25.732-33.23h0.033v-36.81h-115.62"/></svg>