<svg xmlns="http://www.w3.org/2000/svg" id="svg2" width="100%" height="100%" version="1.1" viewBox="0 0 512 512"><metadata id="metadata386"/><path id="path160" fill="#e4a146" fill-rule="evenodd" d="m471.95 253.05c0 120.9-98.01 218.9-218.9 218.9-120.9 0-218.9-98.01-218.9-218.9 0-120.9 98.01-218.9 218.9-218.9 120.9 0 218.9 98.01 218.9 218.9"/><path id="path162" fill-opacity=".235" d="m320.56 109.56c-13.958 0.832-14.159 27.16-18.19 25.688-11.865-10.594-21.688-27.644-40.03-25.06-14.634-0.301-35.572-2.276-39.625 16.406 0.609 10.03-0.585 12.696-6.906 4.438-10.172-9.692-19.721-23.619-35.844-20.844-6.453-0.004-12.927 0.012-19.375 0-19.428 0.183-22.23 20.769-20.656 35.75-2.923 18.06 14.408 27.688 24.688 39.41 3.03 5.077-31.747 5.02-24.688 24.5 0.063 14.05-2.535 30.681 11.09 39.719 2.48 4.976 23.303 17.545 10.719 16.281-18.295-0.871-23.905 18.211-21.813 32.938-1.675 11.633 2.935 22.632 12.219 29.719 46.733 46.561 93.25 93.36 139.91 140 102.29-18.393 179.88-107.85 179.88-215.44 0-11.247-0.833-22.304-2.469-33.09-34.26-34.26-68.51-68.53-102.78-102.78-11.09-10.876-27.446-5.832-41.34-7-1.758-0.518-3.337-0.711-4.781-0.625"/><g id="g164" fill-rule="evenodd"><path id="path166" fill-opacity=".067" d="m256 1c-140.83 0-255 114.17-255 255s114.17 255 255 255 255-114.17 255-255-114.17-255-255-255m8.827 44.931c120.9 0 218.9 98 218.9 218.9s-98 218.9-218.9 218.9-218.93-98-218.93-218.9 98.03-218.9 218.93-218.9"/><g id="g168" fill-opacity=".129"><path id="path170" d="m256 4.433c-138.94 0-251.57 112.63-251.57 251.57s112.63 251.57 251.57 251.57 251.57-112.63 251.57-251.57-112.63-251.57-251.57-251.57m5.885 38.556c120.9 0 218.9 98 218.9 218.9s-98 218.9-218.9 218.9-218.93-98-218.93-218.9 98.03-218.9 218.93-218.9"/><path id="path172" d="m256 8.356c-136.77 0-247.64 110.87-247.64 247.64s110.87 247.64 247.64 247.64 247.64-110.87 247.64-247.64-110.87-247.64-247.64-247.64m2.942 31.691c120.9 0 218.9 98 218.9 218.9s-98 218.9-218.9 218.9-218.93-98-218.93-218.9 98.03-218.9 218.93-218.9"/></g><path id="path174" fill="#fff" stroke="#000" stroke-opacity=".31" stroke-width="4.904" d="m253.04 7.859c-135.42 0-245.19 109.78-245.19 245.19 0 135.42 109.78 245.19 245.19 245.19 135.42 0 245.19-109.78 245.19-245.19 0-135.42-109.78-245.19-245.19-245.19zm0 26.297c120.9 0 218.9 98 218.9 218.9s-98 218.9-218.9 218.9-218.93-98-218.93-218.9 98.03-218.9 218.93-218.9z"/></g><path id="path380" fill="#fff" d="m160.59 110.19c-11.538 0.544-20.656 9.449-20.656 20.406v22c0 11.311 9.717 20.406 21.781 20.406h23.813c12.06 0 21.781-9.1 21.781-20.406v-22c0-11.311-9.717-20.406-21.781-20.406h-23.813c-0.377 0-0.753-0.017-1.125 0m82.38 0c-11.538 0.544-20.656 9.449-20.656 20.406v22c0 11.311 9.717 20.406 21.781 20.406h23.813c12.06 0 21.781-9.1 21.781-20.406v-22c0-11.311-9.717-20.406-21.781-20.406h-23.813c-0.377 0-0.753-0.017-1.125 0m82.38 0c-11.538 0.544-20.656 9.449-20.656 20.406v22c0 11.311 9.717 20.406 21.781 20.406h23.813c12.06 0 21.781-9.1 21.781-20.406v-22c0-11.311-9.717-20.406-21.781-20.406h-23.813c-0.377 0-0.753-0.017-1.125 0m-164.74 77.81c-11.538 0.546-20.656 9.48-20.656 20.438v21.969c0 11.311 9.717 20.438 21.781 20.438h23.813c12.06 0 21.781-9.127 21.781-20.438v-21.97c0.01-11.31-9.71-20.44-21.77-20.44h-23.813c-0.377 0-0.753-0.018-1.125 0m82.38 0c-11.538 0.546-20.656 9.48-20.656 20.438v21.969c0 11.311 9.717 20.438 21.781 20.438h23.813c12.06 0 21.781-9.127 21.781-20.438v-21.97c0.01-11.31-9.71-20.44-21.77-20.44h-23.813c-0.377 0-0.753-0.018-1.125 0m82.38 0c-11.538 0.546-20.656 9.48-20.656 20.438v21.969c0 11.311 9.717 20.438 21.781 20.438h23.813c12.06 0 21.781-9.127 21.781-20.438v-21.97c0.01-11.31-9.71-20.44-21.77-20.44h-23.813c-0.377 0-0.753-0.018-1.125 0m-164.75 77.84c-11.538 0.544-20.656 9.449-20.656 20.406v22c0 11.311 9.717 20.406 21.781 20.406h23.813c12.06 0 21.781-9.1 21.781-20.406v-22c0-11.311-9.717-20.406-21.781-20.406h-23.813c-0.377 0-0.753-0.018-1.125 0m82.38 0c-11.538 0.544-20.656 9.449-20.656 20.406v22c0 11.311 9.717 20.406 21.781 20.406h23.813c12.06 0 21.781-9.1 21.781-20.406v-22c0-11.311-9.717-20.406-21.781-20.406h-23.813c-0.377 0-0.753-0.018-1.125 0m82.38 0c-11.538 0.544-20.656 9.449-20.656 20.406v22c0 11.311 9.717 20.406 21.781 20.406h23.813c12.06 0 21.781-9.1 21.781-20.406v-22c0-11.311-9.717-20.406-21.781-20.406h-23.813c-0.377 0-0.753-0.018-1.125 0m-81.25 73.13c-12.06 0-21.781 9.127-21.781 20.438v21.969c0 11.311 9.717 20.438 21.781 20.438h23.813c12.06 0 21.781-9.127 21.781-20.438v-21.969c0-11.311-9.717-20.438-21.781-20.438h-23.8"/></svg>