<svg xmlns="http://www.w3.org/2000/svg" id="svg2" width="100%" height="100%" version="1.1" viewBox="0 0 512 512"><metadata id="metadata386"/><path id="path160" fill="#cd1d31" fill-rule="evenodd" d="m471.95 253.05c0 120.9-98.01 218.9-218.9 218.9-120.9 0-218.9-98.01-218.9-218.9 0-120.9 98.01-218.9 218.9-218.9 120.9 0 218.9 98.01 218.9 218.9"/><path id="path162" fill-opacity=".235" stroke-linejoin="round" d="m194.91 150.47c-0.948-0.009-2.01 0.057-3.156 0.25-11.335-0.006-22.672 0.022-34 0l-42.12 42.13v159.31c4.865 12.316 17.761 19.854 26.25 30 29.567 29.541 59.1 59.1 88.66 88.66 7.399 0.756 14.933 1.125 22.531 1.125 120.89 0 218.88-97.98 218.88-218.87 0-7.587-0.371-15.11-1.125-22.5-25.541-25.538-51.08-51.09-76.62-76.62-10.296-6.171-23.565-1.997-35.25-3.219h-138.03c4.222 11.195-8.197 9.593-14.188 8-3.119-3.58-5.18-8.184-11.813-8.25"/><g id="g164" fill-rule="evenodd"><path id="path166" fill-opacity=".067" d="m256 1c-140.83 0-255 114.17-255 255s114.17 255 255 255 255-114.17 255-255-114.17-255-255-255m8.827 44.931c120.9 0 218.9 98 218.9 218.9s-98 218.9-218.9 218.9-218.93-98-218.93-218.9 98.03-218.9 218.93-218.9"/><g id="g168" fill-opacity=".129"><path id="path170" d="m256 4.433c-138.94 0-251.57 112.63-251.57 251.57s112.63 251.57 251.57 251.57 251.57-112.63 251.57-251.57-112.63-251.57-251.57-251.57m5.885 38.556c120.9 0 218.9 98 218.9 218.9s-98 218.9-218.9 218.9-218.93-98-218.93-218.9 98.03-218.9 218.93-218.9"/><path id="path172" d="m256 8.356c-136.77 0-247.64 110.87-247.64 247.64s110.87 247.64 247.64 247.64 247.64-110.87 247.64-247.64-110.87-247.64-247.64-247.64m2.942 31.691c120.9 0 218.9 98 218.9 218.9s-98 218.9-218.9 218.9-218.93-98-218.93-218.9 98.03-218.9 218.93-218.9"/></g><path id="path174" fill="#fff" stroke="#000" stroke-opacity=".31" stroke-width="4.904" d="m253.04 7.859c-135.42 0-245.19 109.78-245.19 245.19 0 135.42 109.78 245.19 245.19 245.19 135.42 0 245.19-109.78 245.19-245.19 0-135.42-109.78-245.19-245.19-245.19zm0 26.297c120.9 0 218.9 98 218.9 218.9s-98 218.9-218.9 218.9-218.93-98-218.93-218.9 98.03-218.9 218.93-218.9z"/></g><path id="path380" fill="#fff" stroke-linejoin="round" d="m115.62 352.16v-159.33l42.11-42.11h42.11v8.774h21.06v-8.774h166.35c5.04 0 9.125 4.085 9.125 9.125v32.989c-3.877 0-7.02 3.142-7.02 7.02v98.26c0 3.877 3.142 7.02 7.02 7.02v47.03c0 5.04-4.085 9.125-9.125 9.125h-138.28v-12.283h-63.17v12.283h-61.06c-5.04 0-9.125-4.085-9.125-9.125"/></svg>