<svg xmlns="http://www.w3.org/2000/svg" id="svg2" width="100%" height="100%" version="1.1" viewBox="0 0 512 512"><metadata id="metadata386"/><path id="path160" fill="#f37257" fill-rule="evenodd" d="m471.95 253.05c0 120.9-98.01 218.9-218.9 218.9-120.9 0-218.9-98.01-218.9-218.9 0-120.9 98.01-218.9 218.9-218.9 120.9 0 218.9 98.01 218.9 218.9"/><path id="path162" fill-opacity=".235" stroke-linejoin="round" d="m159.84 115.63c-14 2.484-7.716 19.334-9.125 29.375v40.813c4.5 2.739 6.926 7.553 11.438 10.281 1.931 11.776 0.309 27.11 0.844 40.28 2.279 10.525-1.318 15.186-12.156 12.594-0.327 45.814-0.032 92.23-0.125 138.28 5.2 12.69 18.481 20.577 27.344 31.06 17.498 17.502 35 34.999 52.5 52.5 7.389 0.754 14.912 1.125 22.5 1.125 115.9 0 210.74-90.06 218.38-204.03-50.69-50.69-101.33-101.34-152.28-152.28-53.1-0.001-106.21 0.005-159.31 0"/><g id="g164" fill-rule="evenodd"><path id="path166" fill-opacity=".067" d="m256 1c-140.83 0-255 114.17-255 255s114.17 255 255 255 255-114.17 255-255-114.17-255-255-255m8.827 44.931c120.9 0 218.9 98 218.9 218.9s-98 218.9-218.9 218.9-218.93-98-218.93-218.9 98.03-218.9 218.93-218.9"/><g id="g168" fill-opacity=".129"><path id="path170" d="m256 4.433c-138.94 0-251.57 112.63-251.57 251.57s112.63 251.57 251.57 251.57 251.57-112.63 251.57-251.57-112.63-251.57-251.57-251.57m5.885 38.556c120.9 0 218.9 98 218.9 218.9s-98 218.9-218.9 218.9-218.93-98-218.93-218.9 98.03-218.9 218.93-218.9"/><path id="path172" d="m256 8.356c-136.77 0-247.64 110.87-247.64 247.64s110.87 247.64 247.64 247.64 247.64-110.87 247.64-247.64-110.87-247.64-247.64-247.64m2.942 31.691c120.9 0 218.9 98 218.9 218.9s-98 218.9-218.9 218.9-218.93-98-218.93-218.9 98.03-218.9 218.93-218.9"/></g><path id="path174" fill="#fff" stroke="#000" stroke-opacity=".31" stroke-width="4.904" d="m253.04 7.859c-135.42 0-245.19 109.78-245.19 245.19 0 135.42 109.78 245.19 245.19 245.19 135.42 0 245.19-109.78 245.19-245.19 0-135.42-109.78-245.19-245.19-245.19zm0 26.297c120.9 0 218.9 98 218.9 218.9s-98 218.9-218.9 218.9-218.93-98-218.93-218.9 98.03-218.9 218.93-218.9z"/></g><path id="path380" fill="#fff" stroke-linejoin="round" d="m159.84 115.62h159.33l42.11 42.11v42.11h-8.774v21.06h8.774v166.35c0 5.04-4.085 9.125-9.125 9.125h-32.989c0-3.877-3.142-7.02-7.02-7.02h-98.26c-3.877 0-7.02 3.142-7.02 7.02h-47.03c-5.04 0-9.125-4.085-9.125-9.125v-138.28h12.283v-63.17h-12.283v-61.06c0-5.04 4.085-9.125 9.125-9.125"/></svg>