<svg xmlns="http://www.w3.org/2000/svg" id="svg2" width="100%" height="100%" version="1.1" viewBox="0 0 512 512"><metadata id="metadata236"/><path id="path166" fill="#b93d48" fill-rule="evenodd" d="m471.95 253.05c0 120.9-98.01 218.9-218.9 218.9-120.9 0-218.9-98.01-218.9-218.9 0-120.9 98.01-218.9 218.9-218.9 120.9 0 218.9 98.01 218.9 218.9"/><path id="path168" fill-opacity=".235" d="m372.91 154.44c-7.05-0.172-14.167 1.121-20.375 3.5-5.982 7.07-8.06 16.343-12.55 17.305-13.484-12.6 0.064-0.393-20.781-18.901-4.764-2.183-11.721-2.152-20.14-1.591h-105.12c-13.02 6.487 1.175 19.567 7.02 30.78 5.995 5.995 6.57 6.439 21.07 22.44-0.368 1.03-2.562 1.319-7.781 0.374-2.05 0.396-3.87 0.24-5.529-0.307-16.232-16.232-30.491-28.746-45.679-43.935-2.977-2.637-6.06-5.134-9.323-7.415-6.873-3.111-14.649-1.564-21.938-1.938-19.498-0.479-30.377 20.224-27.656 37.594 0.395 47.25-0.787 94.59 0.625 141.78 4.955 17.732 22.464 27.48 33.813 41 32.03 32 64.05 64.01 96.06 96.03 6.071 0.506 12.205 0.813 18.406 0.813 120.9 0 218.91-98.01 218.91-218.91 0-5.487-0.197-10.927-0.594-16.313-24.522-24.519-49.05-49.03-73.59-73.53-6.803-5.9-15.775-8.561-24.844-8.781"/><g id="g170" fill-rule="evenodd"><path id="path172" fill-opacity=".067" d="m256 1c-140.83 0-255 114.17-255 255s114.17 255 255 255 255-114.17 255-255-114.17-255-255-255m8.827 44.931c120.9 0 218.9 98 218.9 218.9s-98 218.9-218.9 218.9-218.93-98-218.93-218.9 98.03-218.9 218.93-218.9"/><g id="g174" fill-opacity=".129"><path id="path176" d="m256 4.433c-138.94 0-251.57 112.63-251.57 251.57s112.63 251.57 251.57 251.57 251.57-112.63 251.57-251.57-112.63-251.57-251.57-251.57m5.885 38.556c120.9 0 218.9 98 218.9 218.9s-98 218.9-218.9 218.9-218.93-98-218.93-218.9 98.03-218.9 218.93-218.9"/><path id="path178" d="m256 8.356c-136.77 0-247.64 110.87-247.64 247.64s110.87 247.64 247.64 247.64 247.64-110.87 247.64-247.64-110.87-247.64-247.64-247.64m2.942 31.691c120.9 0 218.9 98 218.9 218.9s-98 218.9-218.9 218.9-218.93-98-218.93-218.9 98.03-218.9 218.93-218.9"/></g><path id="path180" fill="#fff" stroke="#000" stroke-opacity=".31" stroke-width="4.904" d="m253.04 7.859c-135.42 0-245.19 109.78-245.19 245.19 0 135.42 109.78 245.19 245.19 245.19 135.42 0 245.19-109.78 245.19-245.19 0-135.42-109.78-245.19-245.19-245.19zm0 26.297c120.9 0 218.9 98 218.9 218.9s-98 218.9-218.9 218.9-218.93-98-218.93-218.9 98.03-218.9 218.93-218.9z"/></g><g id="g228" fill="#fff"><path id="path230" d="m376.29 154.74h-13.628c-6.576 0-14.495 4.956-17.683 10.712l-18.856 32.913c-3.803 6.862-11.03 9.983-18.875 9.983h-106.39c-7.843 0-15.07-2.973-18.87-9.835l-18.879-33.737c-3.193-5.751-11.11-10.06-17.688-10.06h-13.652c-15.887 0-27.666 13.461-27.666 29.339v143.81c0 15.887 11.779 29.348 27.666 29.348h244.5c15.882 0 31.593-13.461 31.593-29.348v-143.81c0-15.877-15.711-29.339-31.593-29.339m-193.88 135.32c-11.898 0-21.576-9.683-21.576-21.581 0-11.894 9.678-21.576 21.576-21.576s21.572 9.678 21.572 21.576-9.678 21.581-21.572 21.581m105.17-12.08c0 5.79-4.689 10.478-10.478 10.478h-47.5c-5.785 0-10.478-4.689-10.478-10.478v-19.99c0-5.79 4.694-10.483 10.478-10.483h47.5c5.79 0 10.478 4.694 10.478 10.483v19.99m36.887 12.08c-11.898 0-21.576-9.683-21.576-21.581 0-11.894 9.673-21.576 21.576-21.576 11.889 0 21.567 9.678 21.567 21.576s-9.678 21.581-21.567 21.581"/><path id="path232" d="m195.08 179.35c3.193 5.761 11.11 11.131 17.688 11.131h82.56c6.581 0 14.495-5.232 17.679-10.988l7.3-13.762c3.188-5.751 0.438-10.988-6.142-10.988h-120.27c-6.581 0-9.33 4.951-6.142 10.712l7.31 13.895"/></g></svg>