<svg xmlns="http://www.w3.org/2000/svg" id="svg2" width="100%" height="100%" version="1.1" viewBox="0 0 512 512"><metadata id="metadata456"/><g id="g190" fill-rule="evenodd"><path id="path192" fill="#f68d5c" d="m471.95 253.05c0 120.9-98.01 218.9-218.9 218.9-120.9 0-218.9-98.01-218.9-218.9 0-120.9 98.01-218.9 218.9-218.9 120.9 0 218.9 98.01 218.9 218.9"/><path id="path194" fill-opacity=".235" d="m252.56 105.69c-72.04 0.287-137.95 59.39-145.62 131.19-7.337 50.96 15.03 102.8 53.5 136.09 33.02 32.891 65.918 65.89 98.84 98.88 115.91-3.247 209.28-96.59 212.56-212.5-39.42-39.587-78.8-79.23-118.87-118.12-26.788-22.824-61.769-35.649-96.97-35.5-1.146-0.025-2.294-0.036-3.438-0.031"/><path id="path196" fill-opacity=".067" d="m256 1c-140.83 0-255 114.17-255 255s114.17 255 255 255 255-114.17 255-255-114.17-255-255-255m8.827 44.931c120.9 0 218.9 98 218.9 218.9s-98 218.9-218.9 218.9-218.93-98-218.93-218.9 98.03-218.9 218.93-218.9"/><g id="g198" fill-opacity=".129"><path id="path200" d="m256 4.433c-138.94 0-251.57 112.63-251.57 251.57s112.63 251.57 251.57 251.57 251.57-112.63 251.57-251.57-112.63-251.57-251.57-251.57m5.885 38.556c120.9 0 218.9 98 218.9 218.9s-98 218.9-218.9 218.9-218.93-98-218.93-218.9 98.03-218.9 218.93-218.9"/><path id="path202" d="m256 8.356c-136.77 0-247.64 110.87-247.64 247.64s110.87 247.64 247.64 247.64 247.64-110.87 247.64-247.64-110.87-247.64-247.64-247.64m2.942 31.691c120.9 0 218.9 98 218.9 218.9s-98 218.9-218.9 218.9-218.93-98-218.93-218.9 98.03-218.9 218.93-218.9"/></g><path id="path204" fill="#fff" stroke="#000" stroke-opacity=".31" stroke-width="4.904" d="m253.04 7.859c-135.42 0-245.19 109.78-245.19 245.19 0 135.42 109.78 245.19 245.19 245.19 135.42 0 245.19-109.78 245.19-245.19 0-135.42-109.78-245.19-245.19-245.19zm0 26.297c120.9 0 218.9 98 218.9 218.9s-98 218.9-218.9 218.9-218.93-98-218.93-218.9 98.03-218.9 218.93-218.9z"/></g><g id="g410" fill="#fff"><path id="path412" d="m256 105.72c-82.998 0-150.28 67.28-150.28 150.28 0 75.55 55.763 138.08 128.38 148.69l-0.094-2.469-2.719-71.75-27.469 57.844c-1.117-0.437-2.235-0.846-3.344-1.313-1.101-0.462-2.19-0.947-3.281-1.438-2.193-0.988-4.319-2.02-6.469-3.125-1.063-0.545-2.136-1.145-3.188-1.719-0.009-0.003-0.024 0.003-0.031 0-1.059-0.578-2.078-1.143-3.125-1.75-2.1-1.218-4.17-2.478-6.219-3.813-1.021-0.665-2.026-1.337-3.03-2.031-4.04-2.779-7.955-5.785-11.75-9.03-0.942-0.805-1.887-1.635-2.813-2.469-0.005-0.005-0.026 0.005-0.031 0-0.931-0.838-1.836-1.695-2.75-2.563-0.914-0.867-1.823-1.759-2.719-2.656-4.533-4.533-8.675-9.294-12.469-14.25-0.631-0.825-1.233-1.633-1.844-2.469-5.501-7.52-10.189-15.461-14.03-23.688l87.81-50.688c0.322 1.399 0.722 2.788 1.188 4.156 0.155 0.456 0.298 0.892 0.469 1.344 1.369 3.618 3.257 7.07 5.656 10.281 0.299 0.4 0.592 0.796 0.906 1.188 0.949 1.18 1.968 2.311 3.063 3.406 0.876 0.876 1.789 1.686 2.719 2.469l-0.531-10.938c-4.475-5.898-7.156-13.244-7.156-21.22 0-19.417 15.744-35.16 35.16-35.16 14.681 0 27.24 9 32.5 21.781 2.314-0.427 4.61-0.846 6.969-1.281-2.053-5.496-5.27-10.677-9.688-15.09-6.05-6.05-13.484-9.857-21.281-11.469l43.28-91.16c17.756 6.938 34.407 17.563 48.75 31.906 12.07 12.07 21.549 25.785 28.375 40.41l-73.62 42.5c31.89-5.866 65.05-11.953 86.59-16.06l4.438-0.844c-15.579-66.38-75.17-115.81-146.31-115.81"/><path id="path414" d="m256 228.63c-14.427 0-26.23 11.158-27.28 25.313 2.407-0.487 5.111-1.035 8.313-1.656 1.73-8.896 9.567-15.594 18.969-15.594 6.855 0 12.883 3.555 16.313 8.938 2.784-0.517 5.443-0.994 8.344-1.531-4.428-9.154-13.806-15.469-24.656-15.469"/></g><g id="g446" fill="#fff" fill-rule="evenodd" transform="matrix(.8221 0 0 .8221 116.75 -347.06)"><path id="path448" d="m176.91 779.51-26.682 24.532 4.046 106.91 203.67-5.719-4.945-130.66-176.09 4.944m13.11 49.2 126.03-3.539 0.281 7.424-126.03 3.539-0.281-7.424m1 26.498 126.03-3.539 0.281 7.424-126.03 3.539-0.281-7.424"/><path id="path450" d="m146.56 750.19 1.214 25.12 1.148 23.746 26.423-24.81 0.762-0.716-29.547-23.338"/><path id="path452" d="m145.97 741.14 1.349 4.92 34.16 18.774-0.59 0.815 171.3-31.982-8.092-29.519-198.13 36.991m42.01-4.552 21.928-4.094 14.1 22.755-21.929 4.094-14.1-22.755m53.4-9.97 21.928-4.094 14.1 22.755-21.928 4.094-14.1-22.755m51.34-9.585 21.928-4.094 14.1 22.755-21.929 4.094-14.1-22.755"/></g></svg>