<svg xmlns="http://www.w3.org/2000/svg" id="svg2" width="100%" height="100%" version="1.1" viewBox="0 0 512 512"><metadata id="metadata204"/><path id="path50" fill="#68af4c" fill-rule="evenodd" d="m471.95 253.05c0 120.9-98.01 218.9-218.9 218.9-120.9 0-218.9-98.01-218.9-218.9 0-120.9 98.01-218.9 218.9-218.9 120.9 0 218.9 98.01 218.9 218.9"/><path id="path52" fill-opacity=".235" d="m391.16 109.5c-16.262 7.468-27.04 24.413-40.656 36.22l-20.531 20.438c-27.919-20.637-68.896-11.972-89.66 14.75-8.889 15.238-16.255 5.187-26.813-3.219-32.634 9.475 11.253 37.31 22.375 51.44 58.51 58.46 116.81 116.95 175.25 175.38 37.678-39.32 60.813-92.68 60.813-151.44 0-29.722-5.925-58.07-16.656-83.91-19.287-19.247-38.581-38.451-57.938-57.62-1.763-1.284-4.03-2.028-6.188-2.031m-202.97 90.31c-31.568 8.938 21.2 31.22-8.281 41.5-26.14 20.756-33.877 61.2-13.688 88.63-18.651 19.489-39.24 37.448-56.19 58.31-0.562 13.439 14.533 19.844 21.906 29.563 12.671 12.561 25.308 25.17 37.938 37.781 25.645 10.543 53.741 16.344 83.19 16.344 58.77 0 112.11-23.15 151.44-60.844-69.59-69.7-139.2-139.37-209.66-209.06-1.169-3.17-4.988-0.527-6.656-2.219"/><g id="g54" fill-rule="evenodd"><path id="path56" fill-opacity=".067" d="m256 1c-140.83 0-255 114.17-255 255s114.17 255 255 255 255-114.17 255-255-114.17-255-255-255m8.827 44.931c120.9 0 218.9 98 218.9 218.9s-98 218.9-218.9 218.9-218.93-98-218.93-218.9 98.03-218.9 218.93-218.9"/><g id="g58" fill-opacity=".129"><path id="path60" d="m256 4.433c-138.94 0-251.57 112.63-251.57 251.57s112.63 251.57 251.57 251.57 251.57-112.63 251.57-251.57-112.63-251.57-251.57-251.57m5.885 38.556c120.9 0 218.9 98 218.9 218.9s-98 218.9-218.9 218.9-218.93-98-218.93-218.9 98.03-218.9 218.93-218.9"/><path id="path62" d="m256 8.356c-136.77 0-247.64 110.87-247.64 247.64s110.87 247.64 247.64 247.64 247.64-110.87 247.64-247.64-110.87-247.64-247.64-247.64m2.942 31.691c120.9 0 218.9 98 218.9 218.9s-98 218.9-218.9 218.9-218.93-98-218.93-218.9 98.03-218.9 218.93-218.9"/></g><path id="path64" fill="#fff" stroke="#000" stroke-opacity=".31" stroke-width="4.904" d="m253.04 7.859c-135.42 0-245.19 109.78-245.19 245.19 0 135.42 109.78 245.19 245.19 245.19 135.42 0 245.19-109.78 245.19-245.19 0-135.42-109.78-245.19-245.19-245.19zm0 26.297c120.9 0 218.9 98 218.9 218.9s-98 218.9-218.9 218.9-218.93-98-218.93-218.9 98.03-218.9 218.93-218.9z"/></g><path id="path198" fill="#fff" d="m119.39 402.2c-0.623-0.128-1.721-0.366-2.417-0.513-1.502-0.311-5.073-3.333-6.01-5.05-1.154-2.143-1.538-5.695-0.916-8.369 0.568-2.381 2.784-4.761 28.385-30.454l27.781-27.872-1.19-1.685c-0.659-0.916-2.234-3.754-3.498-6.281-9.101-18.24-9.175-39.13-0.183-57.15 3.772-7.582 7.234-11.94 18.569-23.495l11.262-11.464-5.988-6.116c-6.501-6.648-7.673-8.625-7.673-13.06 0-9.101 9.742-13.973 17.324-8.662 1.337 0.934 27.982 27.304 59.21 58.6 53.25 53.38 56.825 57.06 57.5 59.63 1.996 7.472-2.747 14.08-10.2 14.266-4.102 0.092-6.574-1.373-13.258-7.893l-6.01-5.842-11.464 11.262c-11.537 11.336-15.914 14.778-23.495 18.569-18.02 8.992-38.915 8.918-57.15-0.183-2.527-1.264-5.366-2.838-6.281-3.498l-1.685-1.19-27.872 27.762c-23.825 23.733-28.22 27.854-30.23 28.44-2.436 0.696-2.6 0.696-4.523 0.293m201.07-90.56c-0.623-0.165-2.179-1.01-3.443-1.886-1.264-0.879-27.835-27.21-59.06-58.51-53.25-53.38-56.825-57.06-57.5-59.63-1.996-7.472 2.747-14.08 10.2-14.266 4.102-0.092 6.574 1.373 13.258 7.893l6.01 5.842 11.464-11.262c11.537-11.336 15.914-14.778 23.495-18.569 18.02-8.992 38.915-8.918 57.15 0.183 2.527 1.264 5.366 2.838 6.281 3.498l1.685 1.19 27.872-27.762c24.12-24.03 28.2-27.854 30.29-28.44 1.319-0.385 3-0.568 3.717-0.421 0.714 0.147 2.01 0.421 2.875 0.604 1.74 0.366 5.292 3.26 6.3 5.128 1.154 2.143 1.538 5.695 0.916 8.369-0.568 2.381-2.784 4.761-28.385 30.454l-27.781 27.872 1.19 1.685c0.659 0.916 2.234 3.754 3.498 6.281 9.101 18.24 9.175 39.13 0.183 57.15-3.772 7.582-7.234 11.94-18.569 23.495l-11.262 11.464 5.988 6.116c3.296 3.37 6.355 7.03 6.831 8.131 1.758 4.194 0.623 10.31-2.417 13.06-2.491 2.252-7.124 3.241-10.786 2.326"/></svg>