<svg xmlns="http://www.w3.org/2000/svg" id="svg2" width="100%" height="100%" version="1.1" viewBox="0 0 512 512"><metadata id="metadata754"/><path id="path520" fill="#ae4a32" fill-rule="evenodd" d="m471.95 253.05c0 120.9-98.01 218.9-218.9 218.9-120.9 0-218.9-98.01-218.9-218.9 0-120.9 98.01-218.9 218.9-218.9 120.9 0 218.9 98.01 218.9 218.9"/><path id="path522" fill-opacity=".235" d="m371.88 134.88c-4.715 0.05-10.284 0.95-14.281 0.281h-224.62v83.5c1.656 2.138 13.6 9.175 5.125 8.781-9.977-1.563-3.107 13.698-5.125 20.09v63.41c4.491 2.759 6.963 7.537 11.438 10.313 2.772 4.478 7.556 6.944 10.313 11.438 4.503 2.737 6.924 7.555 11.438 10.281 3.901 4.675 1.148 15.996 1.969 23.75-1.501 9.07 2.059 13.09 6.875 15.844 2.726 4.513 7.544 6.935 10.281 11.438 4.496 2.754 6.959 7.541 11.438 10.313 2.776 4.474 7.553 6.947 10.313 11.438 4.491 2.759 6.963 7.537 11.438 10.313 2.772 4.478 7.556 6.944 10.313 11.438 4.503 2.737 6.924 7.555 11.438 10.281 2.729 4.511 7.543 6.937 10.281 11.438 4.512 2.748 6.947 7.574 11.469 10.313 0.47 0.779 1.021 1.481 1.594 2.156 116.01-5.488 208.38-101.25 208.38-218.62 0-8.8-0.522-17.502-1.531-26.03-0.996-0.963-2.04-1.876-3.25-2.625-2.776-4.474-7.553-6.947-10.313-11.438-4.494-2.756-6.96-7.54-11.438-10.313-2.771-4.479-7.558-6.942-10.313-11.438-4.503-2.737-6.924-7.555-11.438-10.281-2.729-4.511-7.542-6.937-10.281-11.438-4.512-2.748-6.947-7.574-11.469-10.313-2.726-4.513-7.544-6.935-10.281-11.438-4.496-2.754-6.959-7.541-11.438-10.313-1.504-2.125-4.645-2.601-8.313-2.563"/><g id="g524" fill-rule="evenodd"><path id="path526" fill-opacity=".067" d="m256 1c-140.83 0-255 114.17-255 255s114.17 255 255 255 255-114.17 255-255-114.17-255-255-255m8.827 44.931c120.9 0 218.9 98 218.9 218.9s-98 218.9-218.9 218.9-218.93-98-218.93-218.9 98.03-218.9 218.93-218.9"/><g id="g528" fill-opacity=".129"><path id="path530" d="m256 4.433c-138.94 0-251.57 112.63-251.57 251.57s112.63 251.57 251.57 251.57 251.57-112.63 251.57-251.57-112.63-251.57-251.57-251.57m5.885 38.556c120.9 0 218.9 98 218.9 218.9s-98 218.9-218.9 218.9-218.93-98-218.93-218.9 98.03-218.9 218.93-218.9"/><path id="path532" d="m256 8.356c-136.77 0-247.64 110.87-247.64 247.64s110.87 247.64 247.64 247.64 247.64-110.87 247.64-247.64-110.87-247.64-247.64-247.64m2.942 31.691c120.9 0 218.9 98 218.9 218.9s-98 218.9-218.9 218.9-218.93-98-218.93-218.9 98.03-218.9 218.93-218.9"/></g><path id="path534" fill="#fff" stroke="#000" stroke-opacity=".31" stroke-width="4.904" d="m253.04 7.859c-135.42 0-245.19 109.78-245.19 245.19 0 135.42 109.78 245.19 245.19 245.19 135.42 0 245.19-109.78 245.19-245.19 0-135.42-109.78-245.19-245.19-245.19zm0 26.297c120.9 0 218.9 98 218.9 218.9s-98 218.9-218.9 218.9-218.93-98-218.93-218.9 98.03-218.9 218.93-218.9z"/></g><g id="g740" fill="#fff" transform="matrix(4.3943,0,0,4.3943,115.38,113.19)"><path id="path742" d="m20 39h23v3h-23z"/><path id="path744" d="m43 35v-3h-23v3z"/><path id="path746" d="m20 46h23v3h-23z"/><path id="path748" d="m4 24h8v2h-8v19h8v15h39v-15h9v-19h-9v-2h9v-19h-56v19m8 10h-3v-2h3v2m36-8v31h-33v-33h33v2m8 6v2h-5v-2h5m-47-23h47v2h-47v-2"/></g></svg>