<svg xmlns="http://www.w3.org/2000/svg" id="svg2" width="100%" height="100%" version="1.1" viewBox="0 0 512 512"><metadata id="metadata750"/><path id="path520" fill="#0078ad" fill-rule="evenodd" d="m471.95 253.05c0 120.9-98.01 218.9-218.9 218.9-120.9 0-218.9-98.01-218.9-218.9 0-120.9 98.01-218.9 218.9-218.9 120.9 0 218.9 98.01 218.9 218.9"/><path id="path522" fill-opacity=".235" d="m272.97 123.91c-14.427 4.496-24.05 18.11-36.19 26.906-34.591 30-70.05 59.1-104.09 89.66-10.675 12.06-9.234 22.08-2.469 26.75 6.593 3.382-14.603-0.45-7.438 11.938 0.453 24.02-0.955 48.17 0.844 72.09 5.767 20.07 25.739 30.505 39.16 45.19 26.703 25.35 54.14 49.991 80.88 75.28 3.116 0.132 6.258 0.219 9.406 0.219 101.28 0 186.48-68.782 211.47-162.19-61.09-61.1-122.12-122.26-183.34-183.22-2.354-1.755-5.286-2.685-8.219-2.625"/><g id="g524" fill-rule="evenodd"><path id="path526" fill-opacity=".067" d="m256 1c-140.83 0-255 114.17-255 255s114.17 255 255 255 255-114.17 255-255-114.17-255-255-255m8.827 44.931c120.9 0 218.9 98 218.9 218.9s-98 218.9-218.9 218.9-218.93-98-218.93-218.9 98.03-218.9 218.93-218.9"/><g id="g528" fill-opacity=".129"><path id="path530" d="m256 4.433c-138.94 0-251.57 112.63-251.57 251.57s112.63 251.57 251.57 251.57 251.57-112.63 251.57-251.57-112.63-251.57-251.57-251.57m5.885 38.556c120.9 0 218.9 98 218.9 218.9s-98 218.9-218.9 218.9-218.93-98-218.93-218.9 98.03-218.9 218.93-218.9"/><path id="path532" d="m256 8.356c-136.77 0-247.64 110.87-247.64 247.64s110.87 247.64 247.64 247.64 247.64-110.87 247.64-247.64-110.87-247.64-247.64-247.64m2.942 31.691c120.9 0 218.9 98 218.9 218.9s-98 218.9-218.9 218.9-218.93-98-218.93-218.9 98.03-218.9 218.93-218.9"/></g><path id="path534" fill="#fff" stroke="#000" stroke-opacity=".31" stroke-width="4.904" d="m253.04 7.859c-135.42 0-245.19 109.78-245.19 245.19 0 135.42 109.78 245.19 245.19 245.19 135.42 0 245.19-109.78 245.19-245.19 0-135.42-109.78-245.19-245.19-245.19zm0 26.297c120.9 0 218.9 98 218.9 218.9s-98 218.9-218.9 218.9-218.93-98-218.93-218.9 98.03-218.9 218.93-218.9z"/></g><g id="g740" fill="#fff" transform="matrix(4.4904 0 0 4.4904 112.31 116.42)"><path id="path742" d="m61.67 50.577v-16.525h-59.334v16.524c0 4.418 3.582 8 8 8h1.834v1.924h39.667v-1.923h1.834c4.417 0 7.999-3.582 7.999-8m-5.334-11.909c1.15 0 2.083 0.932 2.083 2.083s-0.932 2.083-2.083 2.083c-1.15 0-2.083-0.932-2.083-2.083s0.933-2.083 2.083-2.083m-7 0c1.15 0 2.083 0.932 2.083 2.083s-0.932 2.083-2.083 2.083c-1.15 0-2.083-0.932-2.083-2.083s0.933-2.083 2.083-2.083m-34.666 9.285h34.667v9.547h-34.667v-9.547"/><path id="path744" d="m38.11 2.716c-1.076-1.26-2.972-1.405-4.229-0.33l-28.833 24.668c-0.401 0.343-0.675 0.772-0.847 1.234-0.887 1.057-1.499 2.348-1.744 3.765h19.872v-6.63h-6.147l21.596-18.477c1.259-1.077 1.406-2.971 0.329-4.23"/></g></svg>