<svg xmlns="http://www.w3.org/2000/svg" id="svg2" width="100%" height="100%" version="1.1" viewBox="0 0 512 512"><metadata id="metadata388"/><path id="path160" fill="#366378" fill-rule="evenodd" d="m471.95 253.05c0 120.9-98.01 218.9-218.9 218.9-120.9 0-218.9-98.01-218.9-218.9 0-120.9 98.01-218.9 218.9-218.9 120.9 0 218.9 98.01 218.9 218.9"/><path id="path162" fill-opacity=".235" d="m311.09 94.31c-8.515 0.108-17.2 0.947-25.375 0.25h-94.28c-21.257-0.713-35.567 20.899-32.31 40.625 0.125 84.48-0.252 168.99 0.188 253.47 3.137 19.922 22.702 30.346 34.781 44.781 12.5 12.476 24.982 24.979 37.469 37.469 7.07 0.688 14.252 1.031 21.5 1.031 120.89 0 218.88-97.98 218.88-218.87 0-7.259-0.372-14.454-1.063-21.531-43.05-43.07-86.1-86.16-129.22-129.16-8.932-7.141-19.615-8.201-30.563-8.06"/><g id="g164" fill-rule="evenodd"><path id="path166" fill-opacity=".067" d="m256 1c-140.83 0-255 114.17-255 255s114.17 255 255 255 255-114.17 255-255-114.17-255-255-255m8.827 44.931c120.9 0 218.9 98 218.9 218.9s-98 218.9-218.9 218.9-218.93-98-218.93-218.9 98.03-218.9 218.93-218.9"/><g id="g168" fill-opacity=".129"><path id="path170" d="m256 4.433c-138.94 0-251.57 112.63-251.57 251.57s112.63 251.57 251.57 251.57 251.57-112.63 251.57-251.57-112.63-251.57-251.57-251.57m5.885 38.556c120.9 0 218.9 98 218.9 218.9s-98 218.9-218.9 218.9-218.93-98-218.93-218.9 98.03-218.9 218.93-218.9"/><path id="path172" d="m256 8.356c-136.77 0-247.64 110.87-247.64 247.64s110.87 247.64 247.64 247.64 247.64-110.87 247.64-247.64-110.87-247.64-247.64-247.64m2.942 31.691c120.9 0 218.9 98 218.9 218.9s-98 218.9-218.9 218.9-218.93-98-218.93-218.9 98.03-218.9 218.93-218.9"/></g><path id="path174" fill="#fff" stroke="#000" stroke-opacity=".31" stroke-width="4.904" d="m253.04 7.859c-135.42 0-245.19 109.78-245.19 245.19 0 135.42 109.78 245.19 245.19 245.19 135.42 0 245.19-109.78 245.19-245.19 0-135.42-109.78-245.19-245.19-245.19zm0 26.297c120.9 0 218.9 98 218.9 218.9s-98 218.9-218.9 218.9-218.93-98-218.93-218.9 98.03-218.9 218.93-218.9z"/></g><g id="g380" fill="#fff" transform="matrix(8.0718,0,0,8.0718,159.14,94.56)"><path id="path382" fill="#fff" d="m20 0h-16c-2.209 0-4 1.79-4 4v32c0 2.209 1.791 4 4 4h16c2.209 0 4-1.791 4-4v-32c0-2.21-1.791-4-4-4m-8 38c-1.104 0-2-0.896-2-2s0.896-2 2-2 2 0.896 2 2-0.896 2-2 2m8-6h-16v-27.999h16v27.999"/></g></svg>