<svg xmlns="http://www.w3.org/2000/svg" id="svg2" width="100%" height="100%" version="1.1" viewBox="0 0 512 512"><metadata id="metadata394"/><path id="path160" fill="#e96d63" fill-rule="evenodd" d="m471.95 253.05c0 120.9-98.01 218.9-218.9 218.9-120.9 0-218.9-98.01-218.9-218.9 0-120.9 98.01-218.9 218.9-218.9 120.9 0 218.9 98.01 218.9 218.9"/><path id="path162" fill-opacity=".235" d="m354.28 164.28c-8.305 0.105-16.79 0.916-24.781 0.25-60.38-0.001-120.75 0.004-181.12 0-20.992-0.702-35.442 20.572-32.28 40.16 0.44 28.36-0.898 56.846 0.75 85.13 3.911 17.531 22.837 26.09 31.531 40.06-2.314 15.241 13.677 23.02 22.09 33.28 35.769 35.799 71.56 71.59 107.34 107.38 107.18-12.07 190.91-101.5 194.03-211.16-29.18-29.18-58.38-58.33-87.66-87.41-8.814-6.793-19.229-7.822-29.906-7.688"/><g id="g164" fill-rule="evenodd"><path id="path166" fill-opacity=".067" d="m256 1c-140.83 0-255 114.17-255 255s114.17 255 255 255 255-114.17 255-255-114.17-255-255-255m8.827 44.931c120.9 0 218.9 98 218.9 218.9s-98 218.9-218.9 218.9-218.93-98-218.93-218.9 98.03-218.9 218.93-218.9"/><g id="g168" fill-opacity=".129"><path id="path170" d="m256 4.433c-138.94 0-251.57 112.63-251.57 251.57s112.63 251.57 251.57 251.57 251.57-112.63 251.57-251.57-112.63-251.57-251.57-251.57m5.885 38.556c120.9 0 218.9 98 218.9 218.9s-98 218.9-218.9 218.9-218.93-98-218.93-218.9 98.03-218.9 218.93-218.9"/><path id="path172" d="m256 8.356c-136.77 0-247.64 110.87-247.64 247.64s110.87 247.64 247.64 247.64 247.64-110.87 247.64-247.64-110.87-247.64-247.64-247.64m2.942 31.691c120.9 0 218.9 98 218.9 218.9s-98 218.9-218.9 218.9-218.93-98-218.93-218.9 98.03-218.9 218.93-218.9"/></g><path id="path174" fill="#fff" stroke="#000" stroke-opacity=".31" stroke-width="4.904" d="m253.04 7.859c-135.42 0-245.19 109.78-245.19 245.19 0 135.42 109.78 245.19 245.19 245.19 135.42 0 245.19-109.78 245.19-245.19 0-135.42-109.78-245.19-245.19-245.19zm0 26.297c120.9 0 218.9 98 218.9 218.9s-98 218.9-218.9 218.9-218.93-98-218.93-218.9 98.03-218.9 218.93-218.9z"/></g><g id="g380" fill="#fff" transform="matrix(10.762 0 0 10.762 116.1 89.19)"><path id="path382" d="m7 22v1c0 0.551-0.449 1-1 1h-2c-0.551 0-1-0.449-1-1v-1h4"/><path id="path384" d="m23 22v1c0 0.551-0.449 1-1 1h-2c-0.551 0-1-0.449-1-1v-1h4"/><path id="path386" d="m23 7h-20c-1.657 0-3 1.344-3 3v8c0 1.656 1.343 3 3 3h20c1.657 0 3-1.344 3-3v-8c0-1.656-1.343-3-3-3m-12.5 10h-7c-0.276 0-0.5-0.225-0.5-0.5s0.224-0.5 0.5-0.5h7c0.276 0 0.5 0.225 0.5 0.5s-0.224 0.5-0.5 0.5m0-2h-7c-0.276 0-0.5-0.225-0.5-0.5s0.224-0.5 0.5-0.5h7c0.276 0 0.5 0.225 0.5 0.5s-0.224 0.5-0.5 0.5m0-2h-7c-0.276 0-0.5-0.224-0.5-0.5s0.224-0.5 0.5-0.5h7c0.276 0 0.5 0.224 0.5 0.5s-0.224 0.5-0.5 0.5m8.5 6.06c-2.793 0-5.059-2.265-5.059-5.059s2.266-5.059 5.059-5.059 5.059 2.265 5.059 5.059-2.266 5.059-5.059 5.059"/><circle id="circle388" cx="19" cy="14" r="2.813"/></g></svg>