<svg xmlns="http://www.w3.org/2000/svg" xmlns:xlink="http://www.w3.org/1999/xlink" viewBox="0 0 512 512"><path d="m36.06 512c-5.63 0-10.156-4.527-10.156-10.156v-491.69c0-5.63 4.527-10.156 10.156-10.156h439.88c5.63 0 10.156 4.527 10.156 10.156v334.09l-167.75 167.75h-282.28" opacity=".1"/><path d="m39.06 508.5c-5.553 0-10.03-4.479-10.03-10.03v-484.94c0-5.553 4.479-10.03 10.03-10.03h433.88c5.553 0 10.03 4.479 10.03 10.03v327.84l-167.12 167.13h-276.78" opacity=".1"/><path d="m42.06 505c-5.476 0-9.875-4.399-9.875-9.875v-478.25c0-5.476 4.399-9.875 9.875-9.875h427.88c5.476 0 9.875 4.399 9.875 9.875v321.66l-166.47 166.47h-271.28" opacity=".1"/><path fill="#f95" d="m45.06 501.5c-5.399 0-9.719-4.351-9.719-9.75v-471.5c0-5.399 4.32-9.75 9.719-9.75h421.88c5.399 0 9.719 4.351 9.719 9.75v315.44l-165.81 165.81h-265.78"/><path d="m91.66 60.22v76.844l38.438 38.438h-38.438v76.81l38.41 38.41h-38.41v25.594l185.19 185.19h34l165.81-165.81v-170.91l-76.78-76.78-1.5-1.531c-16.218-16.218-38.611-26.25-63.37-26.25v25.813l-13-13c-31.26 0-58.766 15.992-74.81 40.25l-53.06-53.06h-102.47" opacity=".25"/><path id="0" fill="#fff" fill-opacity=".196" d="m476.66 335.69l-165.81 165.81v-156.06c0-5.399 4.32-9.75 9.719-9.75h156.09"/><use xlink:href="#0"/><path fill="#fff" d="m230.04 394.61c-17.246-0.088-26.601 4.26-32.03 7.563-23.597-5.201-46.2-4.799-64.34 10.438 26.617-7.348 50.23-7.967 66.969 1.5 15.649-12.541 47.969-17.09 58.19-16.12-11.476-2.371-20.942-3.335-28.781-3.375m-31.438 34.969c-22.75 0.255-39.08 9.467-43.75 16.344-22.23-9.765-72.01-0.897-83.66 18.656 37.2-14.404 65.56-13.868 87.44 1.375 19.34-22.85 61.07-31.628 74.47-30.09-12.513-4.65-24.16-6.397-34.5-6.281"/><path fill="#f9f9f9" d="m91.66 60.21v76.844h102.47v-76.844h-102.47m243.34 0v89.69h89.66c0-49.51-40.1-89.69-89.66-89.69m-13 12.813c-49.51 0-89.66 40.1-89.66 89.66 0 49.51 40.1 89.69 89.66 89.69 49.51 0 89.69-40.13 89.69-89.69h-89.69v-89.66m-230.34 102.47v76.81h102.47v-76.81h-102.47m0 115.22v25.594h333v-25.594h-333"/></svg>