<svg xmlns="http://www.w3.org/2000/svg" xmlns:xlink="http://www.w3.org/1999/xlink" viewBox="0 0 512 512"><path d="m36.06 512c-5.63 0-10.156-4.527-10.156-10.156v-491.69c0-5.63 4.527-10.156 10.156-10.156h439.88c5.63 0 10.156 4.527 10.156 10.156v334.09l-167.75 167.75h-282.28" opacity=".1"/><path d="m39.06 508.5c-5.553 0-10.03-4.479-10.03-10.03v-484.94c0-5.553 4.479-10.03 10.03-10.03h433.88c5.553 0 10.03 4.479 10.03 10.03v327.84l-167.12 167.13h-276.78" opacity=".1"/><path d="m42.06 505c-5.476 0-9.875-4.399-9.875-9.875v-478.25c0-5.476 4.399-9.875 9.875-9.875h427.88c5.476 0 9.875 4.399 9.875 9.875v321.66l-166.47 166.47h-271.28" opacity=".1"/><path fill="#d8b232" d="m45.06 501.5c-5.399 0-9.719-4.351-9.719-9.75v-471.5c0-5.399 4.32-9.75 9.719-9.75h421.88c5.399 0 9.719 4.351 9.719 9.75v315.44l-165.81 165.81h-265.78"/><path d="m257.47 28.13c-14.355 5.635-12.204 25.834-13.469 38.844-0.427 6.622 1.271 17.99 6.406 23.13l0.531 0.5 8.03 8.06c-25.26 3.737-49.41 14.627-67.44 33.06-5.63 5.286-10.634 11.29-14.875 17.813l-19.16-19.16c-8.599-8.599-20.52-13.953-31.375-19.12-2.875-1.171-5.888-2.166-9.03-2.156-15.764 1.533-11.357 13.08-3.063 21.375l49.38 49.38c-5.579 22.02-3.526 45.708 8.813 65.56 3.591 5.907 7.883 11.289 12.719 16.13l182.94 182.94 108.78-108.78v-154.72l-69.19-69.19c-1.922-1.922-4.785-3-7.625-2.688-14.14 2.991-26.26 12-37.5 21l-99.12-99.12c-1.464-1.464-3.325-2.476-5.75-2.844m-78.06 244.47c-15.243 3.825-26.373 16.73-37 27.625-8.266 5.3-7.669 15.14-3 19.813l176.47 176.47 45.03-45.06-177-177c-1.164-1.164-2.753-1.881-4.5-1.844" opacity=".25"/><path id="0" fill="#fff" fill-opacity=".196" d="m476.66 335.69l-165.81 165.81v-156.06c0-5.399 4.32-9.75 9.719-9.75h156.09"/><use xlink:href="#0"/><path fill="#fff" d="m230.04 394.61c-17.246-0.088-26.601 4.26-32.03 7.563-23.597-5.201-46.2-4.799-64.34 10.438 26.617-7.348 50.23-7.967 66.969 1.5 15.649-12.541 47.969-17.09 58.19-16.12-11.476-2.371-20.942-3.335-28.781-3.375m-31.438 34.969c-22.75 0.255-39.08 9.467-43.75 16.344-22.23-9.765-72.01-0.897-83.66 18.656 37.2-14.404 65.56-13.868 87.44 1.375 19.34-22.85 61.07-31.628 74.47-30.09-12.513-4.65-24.16-6.397-34.5-6.281"/><path fill="#fff" d="m257.47 28.11c-14.355 5.635-12.194 25.834-13.459 38.844-0.665 10.304 3.778 32.12 18.394 24.02 10.806-9.76 7.537-26.559 7.217-39.587-1.527-8.06-1.796-21.699-12.153-23.27m24.269 69.08c-33.08-0.64-66.802 10.57-90.21 34.505-30.11 28.27-41.855 77.39-19.298 113.69 16.683 27.44 48.46 43.563 79.86 46.15 27.768-0.14 54.821-13.1 75.1-31.582 19.543-17.515 26.843-45.967 19.08-70.886-7.523-31.36-38.592-54.762-70.92-52.33-27.951 0.845-57.16 17.917-63.993 46.46-5.857 21.385 9.04 45.36 29.13 52.971 14 7.03 34.469-12.636 13.781-19.505-15.727-4.584-25.783-24.26-12.57-37.22 14.493-18.329 44.16-26.08 62.834-9.461 16.414 14.529 26.9 42.11 12.511 61.52-13.23 17.488-32.15 34.376-55.55 33.33-17.12 0.577-36.82 1.158-49.17-13-12.984-11.688-26.666-26.13-24.947-45.09-2.619-43.14 34.6-81.18 76.42-85.65 16.21-2.943 31.925 2.452 47.649 5.236 26.17 4.518 16.355-25.299-2.822-25.868-8.718-2.549-17.858-3.258-26.907-3.289m-164.64 11.886c-22.895 2.226-3.236 25.62 9.07 29.411 10.179 6.76 35.657 18.847 36.951-1.263-8.359-12.834-23.493-19.574-36.975-25.997-2.875-1.171-5.91-2.161-9.05-2.152m282.76 0c-15.68 3.318-28.857 14.07-41.13 23.961-15.531 7.743-2.565 29.72 11.192 18.218 14.379-8.496 31.718-15.97 39.48-31.694 2.02-5.972-3.814-11.122-9.546-10.489m-220.44 163.5c-15.243 3.825-26.36 16.754-36.987 27.649-14.284 9.158-2.135 31.85 11.84 18.05 12.57-10.365 26.428-21.899 31.514-37.897 0.796-3.865-2.343-7.884-6.363-7.797m144.32 11.546c-15.33 7.681 2.547 27.381 8.06 37.19 4.773 13.278 30.907 29.886 29.09 5.115-4.541-15.352-16.15-27.883-27.881-38.35-2.657-2.02-5.765-4.133-9.267-3.95"/></svg>