<svg xmlns="http://www.w3.org/2000/svg" xmlns:xlink="http://www.w3.org/1999/xlink" viewBox="0 0 512 512"><text x="-477.49" y="456.61" line-height="125%" style="letter-spacing:0;word-spacing:0;font-size:208.33;font-family:Gentium Book Basic"><tspan x="-477.49" y="456.61"/></text><text x="198.74" y="1269.4" transform="scale(4.0128.2492)" style="font-size:75.7;font-family:Arial;text-anchor:middle"/><text x="228.86" y="300.98" line-height="125%" style="letter-spacing:0;word-spacing:0;font-size:208.33;font-family:Gentium Book Basic"><tspan x="228.86" y="300.98"/></text><text x="374.76" y="644.88" transform="scale(4.0128.2492)" style="font-size:75.7;font-family:Arial;text-anchor:middle"/><text x="262.23" y="292.85" line-height="125%" style="letter-spacing:0;word-spacing:0;font-size:208.33;font-family:Gentium Book Basic"><tspan x="262.23" y="292.85"/></text><text x="383.07" y="612.28" transform="scale(4.0128.2492)" style="font-size:75.7;font-family:Arial;text-anchor:middle"/><g style="fill-opacity:.078"><path d="m32.563 0c-4.774 0-8.594 3.266-8.594 7.313v137.94 359.44c0 4.047 3.82 7.313 8.594 7.313h446.87c4.774 0 8.594-3.266 8.594-7.313v-359.44-.594l-144.66-144.66h-26.625-121.5-162.69"/><path d="m35.625 3.5c-4.709 0-8.5 3.196-8.5 7.188v136.06 354.56c0 3.991 3.791 7.188 8.5 7.188h440.75c4.709 0 8.5-3.196 8.5-7.188v-354.56-1.719l-141.53-141.53h-27.438-119.81-160.47"/><path d="m38.688 7c-4.643 0-8.375 3.158-8.375 7.094v134.19 349.63c0 3.936 3.732 7.094 8.375 7.094h434.62c4.643 0 8.375-3.158 8.375-7.094v-349.62-3l-138.28-138.28h-28.313-118.19-158.22"/></g><path d="m41.719 10.5c-4.578 0-8.25 3.119-8.25 7v132.28 344.72c0 3.881 3.672 7 8.25 7h428.56c4.578 0 8.25-3.119 8.25-7v-344.72-3.344l-135.97-135.94h-28.313-116.5-156.03" style="fill:#68af4c;fill-opacity:1"/><path d="m478.53 146.44l-135.97-135.94v128.94c0 3.881 3.672 7 8.25 7h127.72" id="0" style="fill:#fff;fill-opacity:.196"/><use width="1" height="1" xlink:href="#0"/><path d="m345.03 144.56l133.5 129.38v-124.16-3.344h-127.72c-2.185 0-4.154-.71-5.625-1.875h-.156" style="fill-opacity:.196"/><text x="1462.93" y="190.14" line-height="125%" style="letter-spacing:0;word-spacing:0;font-size:129.23;font-family:Gentium Book Basic"><tspan x="1462.93" y="190.14"/></text><text x="561.64" y="413.84" transform="scale(4.0128.2492)" style="font-size:46.954;font-family:Arial;text-anchor:middle"/><text x="2044.2" y="110.14" line-height="125%" style="letter-spacing:0;word-spacing:0;font-size:129.23;font-family:Gentium Book Basic"><tspan x="2044.2" y="110.14"/></text><text x="706.49" y="92.81" transform="scale(4.0128.2492)" style="font-size:46.954;font-family:Arial;text-anchor:middle"/><text x="972.62" y="-71.12" line-height="125%" style="letter-spacing:0;word-spacing:0;font-size:129.23;font-family:Gentium Book Basic"><tspan x="972.62" y="-71.12"/></text><text x="439.46" y="-634.55" transform="scale(4.0128.2492)" style="font-size:46.954;font-family:Arial;text-anchor:middle"/><text x="2070.67" y="-287.59" line-height="125%" style="letter-spacing:0;word-spacing:0;font-size:129.23;font-family:Gentium Book Basic"><tspan x="2070.67" y="-287.59"/></text><text x="713.09" y="-1503.21" transform="scale(4.0128.2492)" style="font-size:46.954;font-family:Arial;text-anchor:middle"/><text x="2651.94" y="-367.6" line-height="125%" style="letter-spacing:0;word-spacing:0;font-size:129.23;font-family:Gentium Book Basic"><tspan x="2651.94" y="-367.6"/></text><text x="857.94" y="-1824.25" transform="scale(4.0128.2492)" style="font-size:46.954;font-family:Arial;text-anchor:middle"/><text x="2262.82" y="-840" line-height="125%" style="letter-spacing:0;word-spacing:0;font-size:129.23;font-family:Gentium Book Basic"><tspan x="2262.82" y="-840"/></text><text x="760.97" y="-3719.9" transform="scale(4.0128.2492)" style="font-size:46.954;font-family:Arial;text-anchor:middle"/><text x="2844.08" y="-920" line-height="125%" style="letter-spacing:0;word-spacing:0;font-size:129.23;font-family:Gentium Book Basic"><tspan x="2844.08" y="-920"/></text><text x="905.82" y="-4040.93" transform="scale(4.0128.2492)" style="font-size:46.954;font-family:Arial;text-anchor:middle"/><g line-height="125%" style="letter-spacing:0;word-spacing:0;font-family:Gentium Book Basic"><text x="1011.28" y="494.72" style="font-size:208.33"><tspan x="1011.28" y="494.72"/></text><text y="203.16" x="1486.79" style="font-size:129.23"><tspan y="203.16" x="1486.79"/></text></g><text transform="scale(4.0128.2492)" y="466.07" x="567.59" style="font-size:46.954;font-family:Arial;text-anchor:middle"/><text y="123.16" x="2068.06" line-height="125%" style="letter-spacing:0;word-spacing:0;font-size:129.23;font-family:Gentium Book Basic"><tspan y="123.16" x="2068.06"/></text><text transform="scale(4.0128.2492)" y="145.04" x="712.44" style="font-size:46.954;font-family:Arial;text-anchor:middle"/><text y="-58.1" x="996.48" line-height="125%" style="letter-spacing:0;word-spacing:0;font-size:129.23;font-family:Gentium Book Basic"><tspan y="-58.1" x="996.48"/></text><text transform="scale(4.0128.2492)" y="-582.31" x="445.4" style="font-size:46.954;font-family:Arial;text-anchor:middle"/><text y="-274.57" x="2094.53" line-height="125%" style="letter-spacing:0;word-spacing:0;font-size:129.23;font-family:Gentium Book Basic"><tspan y="-274.57" x="2094.53"/></text><text transform="scale(4.0128.2492)" y="-1450.98" x="719.04" style="font-size:46.954;font-family:Arial;text-anchor:middle"/><text y="-354.58" x="2675.8" line-height="125%" style="letter-spacing:0;word-spacing:0;font-size:129.23;font-family:Gentium Book Basic"><tspan y="-354.58" x="2675.8"/></text><text transform="scale(4.0128.2492)" y="-1772.02" x="863.89" style="font-size:46.954;font-family:Arial;text-anchor:middle"/><text y="-826.98" x="2286.68" line-height="125%" style="letter-spacing:0;word-spacing:0;font-size:129.23;font-family:Gentium Book Basic"><tspan y="-826.98" x="2286.68"/></text><text transform="scale(4.0128.2492)" y="-3667.67" x="766.92" style="font-size:46.954;font-family:Arial;text-anchor:middle"/><text y="-906.98" x="2867.94" line-height="125%" style="letter-spacing:0;word-spacing:0;font-size:129.23;font-family:Gentium Book Basic"><tspan y="-906.98" x="2867.94"/></text><text transform="scale(4.0128.2492)" y="-3988.7" x="911.77" style="font-size:46.954;font-family:Arial;text-anchor:middle"/><g transform="translate(757.15-28.2)" line-height="125%" style="letter-spacing:0;word-spacing:0;font-family:Gentium Book Basic"><text y="535.94" x="277.99" style="font-size:208.33"><tspan y="535.94" x="277.99"/></text><text y="-11.341" x="-307.18" style="font-size:200"><tspan y="-11.341" x="-307.18"/></text></g><text transform="scale(4.0128.2492)" y="-699.05" x="417.15" style="font-size:72.67;font-family:Arial;text-anchor:middle"/><text y="13.599" x="1195.35" line-height="125%" style="letter-spacing:0;word-spacing:0;font-size:200;font-family:Gentium Book Basic"><tspan y="13.599" x="1195.35"/></text><text transform="scale(4.0128.2492)" y="-485.8" x="602.9" style="font-size:72.67;font-family:Arial;text-anchor:middle"/><text y="-110.22" x="2094.96" line-height="125%" style="letter-spacing:0;word-spacing:0;font-size:200;font-family:Gentium Book Basic"><tspan y="-110.22" x="2094.96"/></text><text transform="scale(4.0128.2492)" y="-982.66" x="827.08" style="font-size:72.67;font-family:Arial;text-anchor:middle"/><text y="-162.85" x="1222.81" line-height="125%" style="letter-spacing:0;word-spacing:0;font-size:200;font-family:Gentium Book Basic"><tspan y="-162.85" x="1222.81"/></text><text transform="scale(4.0128.2492)" y="-1193.88" x="609.74" style="font-size:72.67;font-family:Arial;text-anchor:middle"/><text y="-286.67" x="2122.42" line-height="125%" style="letter-spacing:0;word-spacing:0;font-size:200;font-family:Gentium Book Basic"><tspan y="-286.67" x="2122.42"/></text><text transform="scale(4.0128.2492)" y="-1690.74" x="833.92" style="font-size:72.67;font-family:Arial;text-anchor:middle"/><text y="289.03" x="-1787.17" line-height="125%" style="letter-spacing:0;word-spacing:0;font-size:200;font-family:Gentium Book Basic"><tspan y="289.03" x="-1787.17"/></text><text transform="scale(4.0128.2492)" y="619.44" x="-140.34" style="font-size:72.67;font-family:Arial;text-anchor:middle"/><text y="53.597" x="141.11" line-height="125%" style="letter-spacing:0;word-spacing:0;font-size:200;font-family:Gentium Book Basic"><tspan y="53.597" x="141.11"/></text><text transform="scale(4.0128.2492)" y="-325.29" x="340.18" style="font-size:72.67;font-family:Arial;text-anchor:middle"/><text y="106.74" x="886.49" line-height="125%" style="letter-spacing:0;word-spacing:0;font-size:200;font-family:Gentium Book Basic"><tspan y="106.74" x="886.49"/></text><text transform="scale(4.0128.2492)" y="-112.04" x="525.93" style="font-size:72.67;font-family:Arial;text-anchor:middle"/><text y="-17.08" x="1786.1" line-height="125%" style="letter-spacing:0;word-spacing:0;font-size:200;font-family:Gentium Book Basic"><tspan y="-17.08" x="1786.1"/></text><text transform="scale(4.0128.2492)" y="-608.89" x="750.11" style="font-size:72.67;font-family:Arial;text-anchor:middle"/><text y="-69.71" x="913.95" line-height="125%" style="letter-spacing:0;word-spacing:0;font-size:200;font-family:Gentium Book Basic"><tspan y="-69.71" x="913.95"/></text><text transform="scale(4.0128.2492)" y="-820.12" x="532.77" style="font-size:72.67;font-family:Arial;text-anchor:middle"/><text y="-193.53" x="1813.57" line-height="125%" style="letter-spacing:0;word-spacing:0;font-size:200;font-family:Gentium Book Basic"><tspan y="-193.53" x="1813.57"/></text><text transform="scale(4.0128.2492)" y="-1316.98" x="756.96" style="font-size:72.67;font-family:Arial;text-anchor:middle"/><text y="382.17" x="-2096.03" line-height="125%" style="letter-spacing:0;word-spacing:0;font-size:200;font-family:Gentium Book Basic"><tspan y="382.17" x="-2096.03"/></text><text transform="scale(4.0128.2492)" y="993.21" x="-217.31" style="font-size:72.67;font-family:Arial;text-anchor:middle"/><text y="-63.26" x="-573.46" line-height="125%" style="letter-spacing:0;word-spacing:0;font-size:200;font-family:Gentium Book Basic"><tspan y="-63.26" x="-573.46"/></text><text transform="scale(4.0128.2492)" y="-794.21" x="162.11" style="font-size:72.67;font-family:Arial;text-anchor:middle"/><text y="-10.113" x="171.92" line-height="125%" style="letter-spacing:0;word-spacing:0;font-size:200;font-family:Gentium Book Basic"><tspan y="-10.113" x="171.92"/></text><text transform="scale(4.0128.2492)" y="-580.96" x="347.86" style="font-size:72.67;font-family:Arial;text-anchor:middle"/><text y="-133.93" x="1071.53" line-height="125%" style="letter-spacing:0;word-spacing:0;font-size:200;font-family:Gentium Book Basic"><tspan y="-133.93" x="1071.53"/></text><text transform="scale(4.0128.2492)" y="-1077.82" x="572.04" style="font-size:72.67;font-family:Arial;text-anchor:middle"/><text y="-186.57" x="199.38" line-height="125%" style="letter-spacing:0;word-spacing:0;font-size:200;font-family:Gentium Book Basic"><tspan y="-186.57" x="199.38"/></text><text transform="scale(4.0128.2492)" y="-1289.05" x="354.7" style="font-size:72.67;font-family:Arial;text-anchor:middle"/><text y="-310.38" x="1099" line-height="125%" style="letter-spacing:0;word-spacing:0;font-size:200;font-family:Gentium Book Basic"><tspan y="-310.38" x="1099"/></text><text transform="scale(4.0128.2492)" y="-1785.9" x="578.88" style="font-size:72.67;font-family:Arial;text-anchor:middle"/><text y="265.32" x="-2810.6" line-height="125%" style="letter-spacing:0;word-spacing:0;font-size:200;font-family:Gentium Book Basic"><tspan y="265.32" x="-2810.6"/></text><text transform="scale(4.0128.2492)" y="524.28" x="-395.38" style="font-size:72.67;font-family:Arial;text-anchor:middle"/><text y="203.16" x="1486.79" line-height="125%" style="letter-spacing:0;word-spacing:0;font-size:129.23;font-family:Gentium Book Basic"><tspan y="203.16" x="1486.79"/></text><text transform="scale(4.0128.2492)" y="466.07" x="567.59" style="font-size:46.954;font-family:Arial;text-anchor:middle"/><text y="123.16" x="2068.06" line-height="125%" style="letter-spacing:0;word-spacing:0;font-size:129.23;font-family:Gentium Book Basic"><tspan y="123.16" x="2068.06"/></text><text transform="scale(4.0128.2492)" y="145.04" x="712.44" style="font-size:46.954;font-family:Arial;text-anchor:middle"/><text y="-58.1" x="996.48" line-height="125%" style="letter-spacing:0;word-spacing:0;font-size:129.23;font-family:Gentium Book Basic"><tspan y="-58.1" x="996.48"/></text><text transform="scale(4.0128.2492)" y="-582.31" x="445.4" style="font-size:46.954;font-family:Arial;text-anchor:middle"/><text y="-274.57" x="2094.53" line-height="125%" style="letter-spacing:0;word-spacing:0;font-size:129.23;font-family:Gentium Book Basic"><tspan y="-274.57" x="2094.53"/></text><text transform="scale(4.0128.2492)" y="-1450.97" x="719.04" style="font-size:46.954;font-family:Arial;text-anchor:middle"/><text y="-354.58" x="2675.8" line-height="125%" style="letter-spacing:0;word-spacing:0;font-size:129.23;font-family:Gentium Book Basic"><tspan y="-354.58" x="2675.8"/></text><text transform="scale(4.0128.2492)" y="-1772.01" x="863.89" style="font-size:46.954;font-family:Arial;text-anchor:middle"/><text y="-826.98" x="2286.68" line-height="125%" style="letter-spacing:0;word-spacing:0;font-size:129.23;font-family:Gentium Book Basic"><tspan y="-826.98" x="2286.68"/></text><text transform="scale(4.0128.2492)" y="-3667.65" x="766.92" style="font-size:46.954;font-family:Arial;text-anchor:middle"/><text y="-906.98" x="2867.94" line-height="125%" style="letter-spacing:0;word-spacing:0;font-size:129.23;font-family:Gentium Book Basic"><tspan y="-906.98" x="2867.94"/></text><text transform="scale(4.0128.2492)" y="-3988.68" x="911.77" style="font-size:46.954;font-family:Arial;text-anchor:middle"/><g transform="translate(757.15-28.2)" line-height="125%" style="letter-spacing:0;word-spacing:0;font-family:Gentium Book Basic"><text y="535.94" x="277.99" style="font-size:208.33"><tspan y="535.94" x="277.99"/></text><text y="227.12" x="104.96" style="font-size:129.23"><tspan y="227.12" x="104.96"/></text></g><text transform="scale(4.0128.2492)" y="449.05" x="411.92" style="font-size:46.954;font-family:Arial;text-anchor:middle"/><text y="118.91" x="1443.38" line-height="125%" style="letter-spacing:0;word-spacing:0;font-size:129.23;font-family:Gentium Book Basic"><tspan y="118.91" x="1443.38"/></text><text transform="scale(4.0128.2492)" y="128.01" x="556.77" style="font-size:46.954;font-family:Arial;text-anchor:middle"/><text y="-62.34" x="371.8" line-height="125%" style="letter-spacing:0;word-spacing:0;font-size:129.23;font-family:Gentium Book Basic"><tspan y="-62.34" x="371.8"/></text><text transform="scale(4.0128.2492)" y="-599.33" x="289.73" style="font-size:46.954;font-family:Arial;text-anchor:middle"/><text y="-278.82" x="1469.85" line-height="125%" style="letter-spacing:0;word-spacing:0;font-size:129.23;font-family:Gentium Book Basic"><tspan y="-278.82" x="1469.85"/></text><text transform="scale(4.0128.2492)" y="-1468.01" x="563.37" style="font-size:46.954;font-family:Arial;text-anchor:middle"/><text y="-358.82" x="2051.12" line-height="125%" style="letter-spacing:0;word-spacing:0;font-size:129.23;font-family:Gentium Book Basic"><tspan y="-358.82" x="2051.12"/></text><text transform="scale(4.0128.2492)" y="-1789.04" x="708.22" style="font-size:46.954;font-family:Arial;text-anchor:middle"/><text y="-831.22" x="1662" line-height="125%" style="letter-spacing:0;word-spacing:0;font-size:129.23;font-family:Gentium Book Basic"><tspan y="-831.22" x="1662"/></text><text transform="scale(4.0128.2492)" y="-3684.69" x="611.25" style="font-size:46.954;font-family:Arial;text-anchor:middle"/><text y="-911.22" x="2243.27" line-height="125%" style="letter-spacing:0;word-spacing:0;font-size:129.23;font-family:Gentium Book Basic"><tspan y="-911.22" x="2243.27"/></text><text transform="scale(4.0128.2492)" y="-4005.73" x="756.1" style="font-size:46.954;font-family:Arial;text-anchor:middle"/><g transform="translate(757.15-28.2)" line-height="125%" style="letter-spacing:0;word-spacing:0;font-family:Gentium Book Basic"><text y="531.69" x="-346.69" style="font-size:208.33"><tspan y="531.69" x="-346.69"/></text><text y="-15.584" x="-931.86" style="font-size:200"><tspan y="-15.584" x="-931.86"/></text></g><text transform="scale(4.0128.2492)" y="-716.08" x="261.48" style="font-size:72.67;font-family:Arial;text-anchor:middle"/><text y="9.356" x="570.67" line-height="125%" style="letter-spacing:0;word-spacing:0;font-size:200;font-family:Gentium Book Basic"><tspan y="9.356" x="570.67"/></text><text transform="scale(4.0128.2492)" y="-502.83" x="447.23" style="font-size:72.67;font-family:Arial;text-anchor:middle"/><text y="-114.46" x="1470.28" line-height="125%" style="letter-spacing:0;word-spacing:0;font-size:200;font-family:Gentium Book Basic"><tspan y="-114.46" x="1470.28"/></text><text transform="scale(4.0128.2492)" y="-999.68" x="671.41" style="font-size:72.67;font-family:Arial;text-anchor:middle"/><text y="-167.1" x="598.13" line-height="125%" style="letter-spacing:0;word-spacing:0;font-size:200;font-family:Gentium Book Basic"><tspan y="-167.1" x="598.13"/></text><text transform="scale(4.0128.2492)" y="-1210.91" x="454.07" style="font-size:72.67;font-family:Arial;text-anchor:middle"/><text y="-290.91" x="1497.75" line-height="125%" style="letter-spacing:0;word-spacing:0;font-size:200;font-family:Gentium Book Basic"><tspan y="-290.91" x="1497.75"/></text><text transform="scale(4.0128.2492)" y="-1707.77" x="678.25" style="font-size:72.67;font-family:Arial;text-anchor:middle"/><text y="284.79" x="-2411.85" line-height="125%" style="letter-spacing:0;word-spacing:0;font-size:200;font-family:Gentium Book Basic"><tspan y="284.79" x="-2411.85"/></text><text transform="scale(4.0128.2492)" y="602.41" x="-296.01" style="font-size:72.67;font-family:Arial;text-anchor:middle"/><text y="49.36" x="-483.57" line-height="125%" style="letter-spacing:0;word-spacing:0;font-size:200;font-family:Gentium Book Basic"><tspan y="49.36" x="-483.57"/></text><text transform="scale(4.0128.2492)" y="-342.31" x="184.51" style="font-size:72.67;font-family:Arial;text-anchor:middle"/><text y="102.5" x="261.81" line-height="125%" style="letter-spacing:0;word-spacing:0;font-size:200;font-family:Gentium Book Basic"><tspan y="102.5" x="261.81"/></text><text transform="scale(4.0128.2492)" y="-129.06" x="370.26" style="font-size:72.67;font-family:Arial;text-anchor:middle"/><text y="-21.319" x="1161.42" line-height="125%" style="letter-spacing:0;word-spacing:0;font-size:200;font-family:Gentium Book Basic"><tspan y="-21.319" x="1161.42"/></text><text transform="scale(4.0128.2492)" y="-625.92" x="594.44" style="font-size:72.67;font-family:Arial;text-anchor:middle"/><text y="-73.957" x="289.27" line-height="125%" style="letter-spacing:0;word-spacing:0;font-size:200;font-family:Gentium Book Basic"><tspan y="-73.957" x="289.27"/></text><text transform="scale(4.0128.2492)" y="-837.14" x="377.1" style="font-size:72.67;font-family:Arial;text-anchor:middle"/><text y="-197.77" x="1188.89" line-height="125%" style="letter-spacing:0;word-spacing:0;font-size:200;font-family:Gentium Book Basic"><tspan y="-197.77" x="1188.89"/></text><text transform="scale(4.0128.2492)" y="-1334" x="601.29" style="font-size:72.67;font-family:Arial;text-anchor:middle"/><text y="377.93" x="-2720.71" line-height="125%" style="letter-spacing:0;word-spacing:0;font-size:200;font-family:Gentium Book Basic"><tspan y="377.93" x="-2720.71"/></text><text transform="scale(4.0128.2492)" y="976.18" x="-372.98" style="font-size:72.67;font-family:Arial;text-anchor:middle"/><text y="-67.5" x="-1198.14" line-height="125%" style="letter-spacing:0;word-spacing:0;font-size:200;font-family:Gentium Book Basic"><tspan y="-67.5" x="-1198.14"/></text><text transform="scale(4.0128.2492)" y="-811.24" x="6.444" style="font-size:72.67;font-family:Arial;text-anchor:middle"/><text y="-14.359" x="-452.76" line-height="125%" style="letter-spacing:0;word-spacing:0;font-size:200;font-family:Gentium Book Basic"><tspan y="-14.359" x="-452.76"/></text><text transform="scale(4.0128.2492)" y="-597.99" x="192.19" style="font-size:72.67;font-family:Arial;text-anchor:middle"/><text y="-138.17" x="446.85" line-height="125%" style="letter-spacing:0;word-spacing:0;font-size:200;font-family:Gentium Book Basic"><tspan y="-138.17" x="446.85"/></text><text transform="scale(4.0128.2492)" y="-1094.85" x="416.37" style="font-size:72.67;font-family:Arial;text-anchor:middle"/><text y="-190.81" x="-425.3" line-height="125%" style="letter-spacing:0;word-spacing:0;font-size:200;font-family:Gentium Book Basic"><tspan y="-190.81" x="-425.3"/></text><text transform="scale(4.0128.2492)" y="-1306.07" x="199.03" style="font-size:72.67;font-family:Arial;text-anchor:middle"/><text y="-314.63" x="474.32" line-height="125%" style="letter-spacing:0;word-spacing:0;font-size:200;font-family:Gentium Book Basic"><tspan y="-314.63" x="474.32"/></text><text transform="scale(4.0128.2492)" y="-1802.93" x="423.22" style="font-size:72.67;font-family:Arial;text-anchor:middle"/><text y="261.07" x="-3435.28" line-height="125%" style="letter-spacing:0;word-spacing:0;font-size:200;font-family:Gentium Book Basic"><tspan y="261.07" x="-3435.28"/></text><text transform="scale(4.0128.2492)" y="507.25" x="-551.05" style="font-size:72.67;font-family:Arial;text-anchor:middle"/><text y="1181.01" x="-26947.39" line-height="125%" style="letter-spacing:0;word-spacing:0;font-size:4847.53;font-family:Gentium Book Basic"><tspan y="1181.01" x="-26947.39"/></text><text transform="scale(4.0128.2492)" y="-8358.42" x="677.63" style="font-size:1761.41;font-family:Arial;text-anchor:middle"/><text y="2092.9" x="-27082.11" line-height="125%" style="letter-spacing:0;word-spacing:0;font-size:4847.53;font-family:Gentium Book Basic"><tspan y="2092.9" x="-27082.11"/></text><text transform="scale(4.0128.2492)" y="-4699.25" x="644.1" style="font-size:1761.41;font-family:Arial;text-anchor:middle"/><g transform="translate(757.15-28.2)" style="fill:#555753"><text transform="scale(1.05082.95163)" y="-4932.81" x="-13349.95" line-height="125%" style="letter-spacing:0;word-spacing:0;font-size:2975.56;font-family:Gentium Book Basic"><tspan y="-4932.81" x="-13349.95"/></text><text transform="scale(4.21677.23715)" y="-27834.31" x="1211.27" style="font-size:1081.29;font-family:Arial;text-anchor:middle"/><text transform="scale(1.05082.95163)" y="-5757.68" x="-3948.82" line-height="125%" style="letter-spacing:0;word-spacing:0;font-size:1592.95;font-family:Gentium Book Basic"><tspan y="-5757.68" x="-3948.82"/></text><text transform="scale(4.21677.23715)" y="-27408.26" x="1445.33" style="font-size:578.78;font-family:Arial;text-anchor:middle"/><text y="-1903.88" x="-40036.84" line-height="125%" style="letter-spacing:0;word-spacing:0;font-size:4653.7;font-family:Gentium Book Basic"><tspan y="-1903.88" x="-40036.84"/></text><text transform="scale(4.0128.2492)" y="-20213.15" x="-2879.85" style="font-size:1690.91;font-family:Arial;text-anchor:middle"/></g><g transform="translate(757.15-28.2)" style="fill:#000"><text y="-14128.22" x="-25856.32" line-height="125%" style="letter-spacing:0;word-spacing:0;font-size:4847.53;font-family:Gentium Book Basic;stroke:#cd1d31;stroke-width:23.268"><tspan y="-14128.22" x="-25856.32" style="stroke-width:23.268"/></text><text transform="scale(4.0128.2492)" y="-69791.79" x="949.66" style="font-size:1761.42;font-family:Arial;stroke:none;text-anchor:middle"/><text y="-13216.33" x="-25991.28" line-height="125%" style="letter-spacing:0;word-spacing:0;font-size:4847.53;font-family:Gentium Book Basic;stroke:#cd1d31;stroke-width:23.268"><tspan y="-13216.33" x="-25991.28" style="stroke-width:23.268"/></text><text transform="scale(4.0128.2492)" y="-66132.37" x="916" style="font-size:1761.42;font-family:Arial;stroke:none;text-anchor:middle"/></g><g transform="matrix(23.2685 0 0 23.2685 175.77-203.93)" style="fill:#555753;stroke:#cd1d31"><text transform="scale(1.05082.95163)" y="-896.71" x="-474.37" line-height="125%" style="letter-spacing:0;word-spacing:0;font-size:127.88;font-family:Gentium Book Basic"><tspan y="-896.71" x="-474.37"/></text><text transform="scale(4.21679.23715)" y="-3943.87" x="76.82" style="font-size:46.47;font-family:Arial;text-anchor:middle"/><text transform="scale(1.05082.95163)" y="-932.16" x="-70.35" line-height="125%" style="letter-spacing:0;word-spacing:0;font-size:68.46;font-family:Gentium Book Basic"><tspan y="-932.16" x="-70.35"/></text><text transform="scale(4.21679.23715)" y="-3925.56" x="86.87" style="font-size:24.874;font-family:Arial;text-anchor:middle"/><text y="-733.42" x="-1616.23" line-height="125%" style="letter-spacing:0;word-spacing:0;font-size:200;font-family:Gentium Book Basic"><tspan y="-733.42" x="-1616.23"/></text></g><text transform="scale(4.0128.2492)" y="-81872.4" x="-2230.66" style="font-size:1690.9;font-family:Arial;fill:#555753;stroke:none;text-anchor:middle"/><g transform="translate(757.15-28.2)" style="fill:#000"><text y="-20816.52" x="-8883.58" line-height="125%" style="letter-spacing:0;word-spacing:0;font-size:4653.7;font-family:Gentium Book Basic;stroke:#cd1d31;stroke-width:23.268"><tspan y="-20816.52" x="-8883.58" style="stroke-width:23.268"/></text><text transform="scale(4.0128.2492)" y="-96106.23" x="4883.42" style="font-size:1690.91;font-family:Arial;stroke:none;text-anchor:middle"/><text y="-23697.62" x="12049.23" line-height="125%" style="letter-spacing:0;word-spacing:0;font-size:4653.7;font-family:Gentium Book Basic;stroke:#cd1d31;stroke-width:23.268"><tspan y="-23697.62" x="12049.23" style="stroke-width:23.268"/></text><text transform="scale(4.0128.2492)" y="-107667.36" x="10099.96" style="font-size:1690.91;font-family:Arial;stroke:none;text-anchor:middle"/></g><path d="m244.27 150.79v.031c-79.86 0-144.61 64.709-144.61 144.57 0 39.932 16.185 76.08 42.35 102.25l103.85 103.85h224.41c4.578 0 8.25-3.119 8.25-7v-169.32l-132.04-132.04c-26.16-26.16-62.29-42.34-102.21-42.34" style="fill:#000;opacity:.25"/><path d="m244.27 150.8v.03c-79.86 0-144.61 64.71-144.61 144.58 0 79.86 64.74 144.61 144.61 144.61 1.036 0 2.066-.038 3.097-.06-.137-1.129-.241-2.262-.241-3.428 0-11.72 7.157-21.628 16.719-27.995 9.562-6.372 21.886-9.893 35.33-9.893 6.592 0 12.852.927 18.673 2.556v-120.28-9.622h9.622 14.163v.03c.086.001 18.963.22 37.798 14.283 3.158 2.358 6.314 5.121 9.412 8.299-.825-79.15-65.22-143.1-144.58-143.1m49.826 17.23c17.09 6.676 33.11 16.9 46.909 30.701 11.614 11.614 20.735 24.838 27.303 38.91l-84.5 48.773c-1.651-7.18-5.292-14.01-10.885-19.605-5.822-5.822-12.975-9.484-20.478-11.04l41.647-87.74m-49.826 93.58c18.684 0 33.828 15.15 33.828 33.828 0 18.684-15.15 33.828-33.828 33.828-18.684 0-33.828-15.15-33.828-33.828 0-18.684 15.15-33.828 33.828-33.828m0 7.487c-14.549 0-26.341 11.795-26.341 26.341 0 14.549 11.795 26.341 26.341 26.341 14.549 0 26.341-11.795 26.341-26.341 0-14.549-11.795-26.341-26.341-26.341m0 7.728c10.268 0 18.583 8.315 18.583 18.583 0 10.268-8.315 18.583-18.583 18.583-10.268 0-18.583-8.315-18.583-18.583 0-10.268 8.315-18.583 18.583-18.583m83.2 4.089v134.65c-7.517-4.518-17.374-7.337-28.3-7.337-23.426 0-42.43 12.652-42.43 28.3 0 15.644 19.01 28.3 42.43 28.3 23.426 0 42.43-12.652 42.43-28.3v-113.18c35.37-5.747 56.58 35.37 70.72 56.59-8.815-98.75-70.36-99.02-70.69-99.02h-14.163m-123.11 23.484c.309 1.337.697 2.662 1.143 3.969.149.439.287.858.451 1.293 1.317 3.481 3.134 6.803 5.443 9.893.288.385.57.765.872 1.143.913 1.135 1.893 2.224 2.947 3.278 1.82 1.82 3.753 3.409 5.803 4.811.41.28.815.578 1.233.842 1.676 1.057 3.419 1.978 5.202 2.766.888.394 1.768.726 2.676 1.052 1.363.49 2.782.922 4.18 1.263.466.114.915.204 1.383.301l-41.647 87.74c-1.075-.421-2.15-.814-3.217-1.263-1.059-.445-2.108-.911-3.157-1.383-2.11-.951-4.156-1.944-6.224-3.01-1.023-.524-2.055-1.102-3.067-1.654-.009-.003-.023.003-.03 0-1.019-.556-2-1.1-3.01-1.684-2.02-1.172-4.01-2.384-5.984-3.669-.982-.64-1.951-1.287-2.917-1.955-3.887-2.674-7.655-5.568-11.306-8.69-.906-.775-1.815-1.573-2.706-2.376-.005-.005-.025.005-.03 0-.896-.806-1.767-1.63-2.646-2.466-.879-.834-1.754-1.693-2.616-2.556-4.362-4.362-8.347-8.943-11.998-13.712-.607-.794-1.186-1.571-1.774-2.375-5.293-7.236-9.805-14.877-13.501-22.793l84.5-48.773m146.86 28.24v60.11c11.595-12.736 20.941-27.541 27.424-43.812-.241-.262-.479-.524-.722-.782-8.255-8.771-16.675-14.598-26.702-15.516" style="fill:#fff"/></svg>