<svg xmlns="http://www.w3.org/2000/svg" viewBox="0 0 512 512" xmlns:xlink="http://www.w3.org/1999/xlink"><text x="-210.55" y="39.41" line-height="125%" style="letter-spacing:0;word-spacing:0;font-size:129.23;font-family:Gentium Book Basic"><tspan x="-210.55" y="39.41"/></text><text x="144.61" y="-191" transform="scale(4.0128.2492)" style="font-size:46.954;font-family:Arial;text-anchor:middle"/><text x="370.72" y="-40.586" line-height="125%" style="letter-spacing:0;word-spacing:0;font-size:129.23;font-family:Gentium Book Basic"><tspan x="370.72" y="-40.586"/></text><text x="289.46" y="-512.03" transform="scale(4.0128.2492)" style="font-size:46.954;font-family:Arial;text-anchor:middle"/><text x="-700.86" y="-221.85" line-height="125%" style="letter-spacing:0;word-spacing:0;font-size:129.23;font-family:Gentium Book Basic"><tspan x="-700.86" y="-221.85"/></text><text x="22.422" y="-1239.38" transform="scale(4.0128.2492)" style="font-size:46.954;font-family:Arial;text-anchor:middle"/><text x="397.19" y="-438.32" line-height="125%" style="letter-spacing:0;word-spacing:0;font-size:129.23;font-family:Gentium Book Basic"><tspan x="397.19" y="-438.32"/></text><text x="296.06" y="-2108.05" transform="scale(4.0128.2492)" style="font-size:46.954;font-family:Arial;text-anchor:middle"/><text x="978.46" y="-518.33" line-height="125%" style="letter-spacing:0;word-spacing:0;font-size:129.23;font-family:Gentium Book Basic"><tspan x="978.46" y="-518.33"/></text><text x="440.91" y="-2429.09" transform="scale(4.0128.2492)" style="font-size:46.954;font-family:Arial;text-anchor:middle"/><text x="589.34" y="-990.73" line-height="125%" style="letter-spacing:0;word-spacing:0;font-size:129.23;font-family:Gentium Book Basic"><tspan x="589.34" y="-990.73"/></text><text x="343.94" y="-4324.74" transform="scale(4.0128.2492)" style="font-size:46.954;font-family:Arial;text-anchor:middle"/><text x="1170.6" y="-1070.73" line-height="125%" style="letter-spacing:0;word-spacing:0;font-size:129.23;font-family:Gentium Book Basic"><tspan x="1170.6" y="-1070.73"/></text><text x="488.79" y="-4645.77" transform="scale(4.0128.2492)" style="font-size:46.954;font-family:Arial;text-anchor:middle"/><g line-height="125%" style="letter-spacing:0;word-spacing:0;font-family:Gentium Book Basic"><text x="-662.2" y="343.99" style="font-size:208.33"><tspan x="-662.2" y="343.99"/></text><text x="91.81" y="209.67" style="font-size:129.23"><tspan x="91.81" y="209.67"/></text></g><text x="219.96" y="492.19" transform="scale(4.0128.2492)" style="font-size:46.954;font-family:Arial;text-anchor:middle"/><text x="673.08" y="129.67" line-height="125%" style="letter-spacing:0;word-spacing:0;font-size:129.23;font-family:Gentium Book Basic"><tspan x="673.08" y="129.67"/></text><text x="364.81" y="171.16" transform="scale(4.0128.2492)" style="font-size:46.954;font-family:Arial;text-anchor:middle"/><text x="-398.5" y="-51.596" line-height="125%" style="letter-spacing:0;word-spacing:0;font-size:129.23;font-family:Gentium Book Basic"><tspan x="-398.5" y="-51.596"/></text><text x="97.77" y="-556.2" transform="scale(4.0128.2492)" style="font-size:46.954;font-family:Arial;text-anchor:middle"/><text x="699.55" y="-268.06" line-height="125%" style="letter-spacing:0;word-spacing:0;font-size:129.23;font-family:Gentium Book Basic"><tspan x="699.55" y="-268.06"/></text><text x="371.41" y="-1424.86" transform="scale(4.0128.2492)" style="font-size:46.954;font-family:Arial;text-anchor:middle"/><text x="1280.82" y="-348.07" line-height="125%" style="letter-spacing:0;word-spacing:0;font-size:129.23;font-family:Gentium Book Basic"><tspan x="1280.82" y="-348.07"/></text><text x="516.26" y="-1745.9" transform="scale(4.0128.2492)" style="font-size:46.954;font-family:Arial;text-anchor:middle"/><text x="891.7" y="-820.47" line-height="125%" style="letter-spacing:0;word-spacing:0;font-size:129.23;font-family:Gentium Book Basic"><tspan x="891.7" y="-820.47"/></text><text x="419.29" y="-3641.55" transform="scale(4.0128.2492)" style="font-size:46.954;font-family:Arial;text-anchor:middle"/><text x="1472.96" y="-900.47" line-height="125%" style="letter-spacing:0;word-spacing:0;font-size:129.23;font-family:Gentium Book Basic"><tspan x="1472.96" y="-900.47"/></text><text x="564.14" y="-3962.58" transform="scale(4.0128.2492)" style="font-size:46.954;font-family:Arial;text-anchor:middle"/><g line-height="125%" style="letter-spacing:0;word-spacing:0;font-family:Gentium Book Basic"><text x="-359.84" y="514.25" style="font-size:208.33"><tspan x="-359.84" y="514.25"/></text><text x="78.79" y="179.29" style="font-size:129.23"><tspan x="78.79" y="179.29"/></text></g><text x="216.72" y="370.31" transform="scale(4.0128.2492)" style="font-size:46.954;font-family:Arial;text-anchor:middle"/><text x="660.06" y="99.29" line-height="125%" style="letter-spacing:0;word-spacing:0;font-size:129.23;font-family:Gentium Book Basic"><tspan x="660.06" y="99.29"/></text><text x="361.57" y="49.28" transform="scale(4.0128.2492)" style="font-size:46.954;font-family:Arial;text-anchor:middle"/><text x="-411.52" y="-81.969" line-height="125%" style="letter-spacing:0;word-spacing:0;font-size:129.23;font-family:Gentium Book Basic"><tspan x="-411.52" y="-81.969"/></text><text x="94.53" y="-678.08" transform="scale(4.0128.2492)" style="font-size:46.954;font-family:Arial;text-anchor:middle"/><text x="686.53" y="-298.44" line-height="125%" style="letter-spacing:0;word-spacing:0;font-size:129.23;font-family:Gentium Book Basic"><tspan x="686.53" y="-298.44"/></text><text x="368.17" y="-1546.74" transform="scale(4.0128.2492)" style="font-size:46.954;font-family:Arial;text-anchor:middle"/><text x="1267.8" y="-378.45" line-height="125%" style="letter-spacing:0;word-spacing:0;font-size:129.23;font-family:Gentium Book Basic"><tspan x="1267.8" y="-378.45"/></text><text x="513.01" y="-1867.78" transform="scale(4.0128.2492)" style="font-size:46.954;font-family:Arial;text-anchor:middle"/><text x="878.68" y="-850.85" line-height="125%" style="letter-spacing:0;word-spacing:0;font-size:129.23;font-family:Gentium Book Basic"><tspan x="878.68" y="-850.85"/></text><text x="416.05" y="-3763.43" transform="scale(4.0128.2492)" style="font-size:46.954;font-family:Arial;text-anchor:middle"/><text x="1459.94" y="-930.85" line-height="125%" style="letter-spacing:0;word-spacing:0;font-size:129.23;font-family:Gentium Book Basic"><tspan x="1459.94" y="-930.85"/></text><text x="560.89" y="-4084.46" transform="scale(4.0128.2492)" style="font-size:46.954;font-family:Arial;text-anchor:middle"/><g line-height="125%" style="letter-spacing:0;word-spacing:0;font-family:Gentium Book Basic"><text x="-372.86" y="483.87" style="font-size:208.33"><tspan x="-372.86" y="483.87"/></text><text x="39.5" y="244.98" style="font-size:129.23"><tspan x="39.5" y="244.98"/></text></g><text x="206.92" y="633.89" transform="scale(4.0128.2492)" style="font-size:46.954;font-family:Arial;text-anchor:middle"/><text x="620.77" y="164.98" line-height="125%" style="letter-spacing:0;word-spacing:0;font-size:129.23;font-family:Gentium Book Basic"><tspan x="620.77" y="164.98"/></text><text x="351.77" y="312.87" transform="scale(4.0128.2492)" style="font-size:46.954;font-family:Arial;text-anchor:middle"/><text x="-450.81" y="-16.283" line-height="125%" style="letter-spacing:0;word-spacing:0;font-size:129.23;font-family:Gentium Book Basic"><tspan x="-450.81" y="-16.283"/></text><text x="84.74" y="-414.49" transform="scale(4.0128.2492)" style="font-size:46.954;font-family:Arial;text-anchor:middle"/><text x="647.24" y="-232.75" line-height="125%" style="letter-spacing:0;word-spacing:0;font-size:129.23;font-family:Gentium Book Basic"><tspan x="647.24" y="-232.75"/></text><text x="358.37" y="-1283.16" transform="scale(4.0128.2492)" style="font-size:46.954;font-family:Arial;text-anchor:middle"/><text x="1228.51" y="-312.76" line-height="125%" style="letter-spacing:0;word-spacing:0;font-size:129.23;font-family:Gentium Book Basic"><tspan x="1228.51" y="-312.76"/></text><text x="503.22" y="-1604.19" transform="scale(4.0128.2492)" style="font-size:46.954;font-family:Arial;text-anchor:middle"/><text x="839.39" y="-785.16" line-height="125%" style="letter-spacing:0;word-spacing:0;font-size:129.23;font-family:Gentium Book Basic"><tspan x="839.39" y="-785.16"/></text><text x="406.25" y="-3499.84" transform="scale(4.0128.2492)" style="font-size:46.954;font-family:Arial;text-anchor:middle"/><text x="1420.65" y="-865.16" line-height="125%" style="letter-spacing:0;word-spacing:0;font-size:129.23;font-family:Gentium Book Basic"><tspan x="1420.65" y="-865.16"/></text><text x="551.1" y="-3820.87" transform="scale(4.0128.2492)" style="font-size:46.954;font-family:Arial;text-anchor:middle"/><g transform="translate(-690.14 13.618)" line-height="125%" style="letter-spacing:0;word-spacing:0;font-family:Gentium Book Basic"><text x="277.99" y="535.94" style="font-size:208.33"><tspan x="277.99" y="535.94"/></text><text x="148.44" y="135.65" style="font-size:129.23"><tspan x="148.44" y="135.65"/></text></g><text x="62.09" y="249.85" transform="scale(4.0128.2492)" style="font-size:46.954;font-family:Arial;text-anchor:middle"/><text x="39.57" y="69.27" line-height="125%" style="letter-spacing:0;word-spacing:0;font-size:129.23;font-family:Gentium Book Basic"><tspan x="39.57" y="69.27"/></text><text x="206.93" y="-71.18" transform="scale(4.0128.2492)" style="font-size:46.954;font-family:Arial;text-anchor:middle"/><text x="-1032.01" y="-111.99" line-height="125%" style="letter-spacing:0;word-spacing:0;font-size:129.23;font-family:Gentium Book Basic"><tspan x="-1032.01" y="-111.99"/></text><text x="-60.1" y="-798.54" transform="scale(4.0128.2492)" style="font-size:46.954;font-family:Arial;text-anchor:middle"/><text x="66.04" y="-328.46" line-height="125%" style="letter-spacing:0;word-spacing:0;font-size:129.23;font-family:Gentium Book Basic"><tspan x="66.04" y="-328.46"/></text><text x="213.53" y="-1667.19" transform="scale(4.0128.2492)" style="font-size:46.954;font-family:Arial;text-anchor:middle"/><text x="647.31" y="-408.47" line-height="125%" style="letter-spacing:0;word-spacing:0;font-size:129.23;font-family:Gentium Book Basic"><tspan x="647.31" y="-408.47"/></text><text x="358.38" y="-1988.23" transform="scale(4.0128.2492)" style="font-size:46.954;font-family:Arial;text-anchor:middle"/><text x="258.19" y="-880.87" line-height="125%" style="letter-spacing:0;word-spacing:0;font-size:129.23;font-family:Gentium Book Basic"><tspan x="258.19" y="-880.87"/></text><text x="261.41" y="-3883.87" transform="scale(4.0128.2492)" style="font-size:46.954;font-family:Arial;text-anchor:middle"/><text x="839.45" y="-960.87" line-height="125%" style="letter-spacing:0;word-spacing:0;font-size:129.23;font-family:Gentium Book Basic"><tspan x="839.45" y="-960.87"/></text><text x="406.26" y="-4204.9" transform="scale(4.0128.2492)" style="font-size:46.954;font-family:Arial;text-anchor:middle"/><g line-height="125%" style="letter-spacing:0;word-spacing:0;font-family:Gentium Book Basic"><text x="-993.35" y="453.85" style="font-size:208.33"><tspan x="-993.35" y="453.85"/></text><text x="-575.74" y="116.28" style="font-size:200;fill:#555753;stroke:#555753"><tspan x="-575.74" y="116.28"/></text></g><g style="fill:#555753"><text x="161.54" y="-73.74" transform="scale(4.0128.2492)" style="font-size:72.67;font-family:Arial;stroke:none;text-anchor:middle"/><text x="169.64" y="169.43" line-height="125%" style="letter-spacing:0;word-spacing:0;font-size:200;font-family:Gentium Book Basic;stroke:#555753"><tspan x="169.64" y="169.43"/></text><text x="347.29" y="139.51" transform="scale(4.0128.2492)" style="font-size:72.67;font-family:Arial;stroke:none;text-anchor:middle"/><text x="1069.25" y="45.61" line-height="125%" style="letter-spacing:0;word-spacing:0;font-size:200;font-family:Gentium Book Basic;stroke:#555753"><tspan x="1069.25" y="45.61"/></text><text x="571.47" y="-357.35" transform="scale(4.0128.2492)" style="font-size:72.67;font-family:Arial;stroke:none;text-anchor:middle"/><text x="197.1" y="-7.03" line-height="125%" style="letter-spacing:0;word-spacing:0;font-size:200;font-family:Gentium Book Basic;stroke:#555753"><tspan x="197.1" y="-7.03"/></text><text x="354.13" y="-568.58" transform="scale(4.0128.2492)" style="font-size:72.67;font-family:Arial;stroke:none;text-anchor:middle"/><text x="1096.72" y="-130.85" line-height="125%" style="letter-spacing:0;word-spacing:0;font-size:200;font-family:Gentium Book Basic;stroke:#555753"><tspan x="1096.72" y="-130.85"/></text><text x="578.32" y="-1065.43" transform="scale(4.0128.2492)" style="font-size:72.67;font-family:Arial;stroke:none;text-anchor:middle"/><text x="-2812.88" y="444.86" line-height="125%" style="letter-spacing:0;word-spacing:0;font-size:200;font-family:Gentium Book Basic;stroke:#555753"><tspan x="-2812.88" y="444.86"/></text><text x="-395.95" y="1244.76" transform="scale(4.0128.2492)" style="font-size:72.67;font-family:Arial;stroke:none;text-anchor:middle"/></g><text x="-957.33" y="478.97" line-height="125%" style="letter-spacing:0;word-spacing:0;font-size:208.33;font-family:Gentium Book Basic"><tspan x="-957.33" y="478.97"/></text><text x="79.16" y="1359.15" transform="scale(4.0128.2492)" style="font-size:75.7;font-family:Arial;text-anchor:middle"/><g transform="translate(.001-.003)" style="fill:#654641"><text x="681.22" y="221.3" transform="scale(1.05082.95163)" line-height="125%" style="letter-spacing:0;word-spacing:0;font-size:84.77;font-family:Gentium Book Basic"><tspan x="681.22" y="221.3"/></text><text x="299.04" y="659.01" transform="scale(4.21679.23715)" style="font-size:30.8;font-family:Arial;text-anchor:middle"/><text x="949.03" y="197.8" transform="scale(1.05082.95163)" line-height="125%" style="letter-spacing:0;word-spacing:0;font-size:45.38;font-family:Gentium Book Basic"><tspan x="949.03" y="197.8"/></text><text x="305.7" y="671.14" transform="scale(4.21679.23715)" style="font-size:16.488;font-family:Arial;text-anchor:middle"/><text x="-25.07" y="290.09" line-height="125%" style="letter-spacing:0;word-spacing:0;font-size:132.57;font-family:Gentium Book Basic"><tspan x="-25.07" y="290.09"/></text><text x="195.94" y="805.88" transform="scale(4.0128.2492)" style="font-size:48.17;font-family:Arial;text-anchor:middle"/></g><g transform="translate(.001-.003)"><g style="fill:#654641"><text x="119.84" y="185.78" transform="scale(1.05082.95163)" line-height="125%" style="letter-spacing:0;word-spacing:0;font-size:84.77;font-family:Gentium Book Basic"><tspan x="119.84" y="185.78"/></text><text x="159.14" y="516.46" transform="scale(4.21679.23715)" style="font-size:30.8;font-family:Arial;text-anchor:middle"/><text x="387.65" y="162.28" transform="scale(1.05082.95163)" line-height="125%" style="letter-spacing:0;word-spacing:0;font-size:45.38;font-family:Gentium Book Basic"><tspan x="387.65" y="162.28"/></text><text x="165.81" y="528.59" transform="scale(4.21679.23715)" style="font-size:16.488;font-family:Arial;text-anchor:middle"/><text x="-614.98" y="256.28" line-height="125%" style="letter-spacing:0;word-spacing:0;font-size:132.57;font-family:Gentium Book Basic"><tspan x="-614.98" y="256.28"/></text><text x="48.929" y="670.22" transform="scale(4.0128.2492)" style="font-size:48.17;font-family:Arial;text-anchor:middle"/></g><g line-height="125%" style="letter-spacing:0;word-spacing:0;font-family:Gentium Book Basic"><g style="font-size:208.33"><text x="-352.73" y="236.4"><tspan x="-352.73" y="236.4"/></text><text x="-645.81" y="78.57"><tspan x="-645.81" y="78.57"/></text></g><text x="89.53" y="181.15" transform="scale(1.05082.95163)" style="font-size:84.77;fill:#654641"><tspan x="89.53" y="181.15"/></text></g><g style="fill:#654641"><text x="151.59" y="497.89" transform="scale(4.21679.23715)" style="font-size:30.8;font-family:Arial;text-anchor:middle"/><text x="357.34" y="157.65" transform="scale(1.05082.95163)" line-height="125%" style="letter-spacing:0;word-spacing:0;font-size:45.38;font-family:Gentium Book Basic"><tspan x="357.34" y="157.65"/></text><text x="158.26" y="510.03" transform="scale(4.21679.23715)" style="font-size:16.488;font-family:Arial;text-anchor:middle"/><text x="-646.83" y="251.88" line-height="125%" style="letter-spacing:0;word-spacing:0;font-size:132.57;font-family:Gentium Book Basic"><tspan x="-646.83" y="251.88"/></text><text x="40.993" y="652.56" transform="scale(4.0128.2492)" style="font-size:48.17;font-family:Arial;text-anchor:middle"/></g></g><text x="-60.981" y="31.744" line-height="125%" style="letter-spacing:0;word-spacing:0;font-size:129.23;font-family:Gentium Book Basic"><tspan x="-60.981" y="31.744"/></text><text x="181.88" y="-221.78" transform="scale(4.0128.2492)" style="font-size:46.954;font-family:Arial;text-anchor:middle"/><text x="520.29" y="-48.26" line-height="125%" style="letter-spacing:0;word-spacing:0;font-size:129.23;font-family:Gentium Book Basic"><tspan x="520.29" y="-48.26"/></text><text x="326.73" y="-542.81" transform="scale(4.0128.2492)" style="font-size:46.954;font-family:Arial;text-anchor:middle"/><text x="-551.29" y="-229.52" line-height="125%" style="letter-spacing:0;word-spacing:0;font-size:129.23;font-family:Gentium Book Basic"><tspan x="-551.29" y="-229.52"/></text><text x="59.695" y="-1270.16" transform="scale(4.0128.2492)" style="font-size:46.954;font-family:Arial;text-anchor:middle"/><text x="546.76" y="-445.99" line-height="125%" style="letter-spacing:0;word-spacing:0;font-size:129.23;font-family:Gentium Book Basic"><tspan x="546.76" y="-445.99"/></text><text x="333.33" y="-2138.83" transform="scale(4.0128.2492)" style="font-size:46.954;font-family:Arial;text-anchor:middle"/><text x="1128.03" y="-526" line-height="125%" style="letter-spacing:0;word-spacing:0;font-size:129.23;font-family:Gentium Book Basic"><tspan x="1128.03" y="-526"/></text><text x="478.18" y="-2459.87" transform="scale(4.0128.2492)" style="font-size:46.954;font-family:Arial;text-anchor:middle"/><text x="738.91" y="-998.4" line-height="125%" style="letter-spacing:0;word-spacing:0;font-size:129.23;font-family:Gentium Book Basic"><tspan x="738.91" y="-998.4"/></text><text x="381.21" y="-4355.52" transform="scale(4.0128.2492)" style="font-size:46.954;font-family:Arial;text-anchor:middle"/><text x="1320.17" y="-1078.4" line-height="125%" style="letter-spacing:0;word-spacing:0;font-size:129.23;font-family:Gentium Book Basic"><tspan x="1320.17" y="-1078.4"/></text><text x="526.06" y="-4676.55" transform="scale(4.0128.2492)" style="font-size:46.954;font-family:Arial;text-anchor:middle"/><g line-height="125%" style="letter-spacing:0;word-spacing:0;font-family:Gentium Book Basic"><text x="-512.63" y="336.32" style="font-size:208.33"><tspan x="-512.63" y="336.32"/></text><text x="-271" y="-640.32" style="font-size:129.23"><tspan x="-271" y="-640.32"/></text></g><text x="129.55" y="-2918.64" transform="scale(4.0128.2492)" style="font-size:46.954;font-family:Arial;text-anchor:middle"/><text x="310.27" y="-720.32" line-height="125%" style="letter-spacing:0;word-spacing:0;font-size:129.23;font-family:Gentium Book Basic"><tspan x="310.27" y="-720.32"/></text><text x="274.4" y="-3239.67" transform="scale(4.0128.2492)" style="font-size:46.954;font-family:Arial;text-anchor:middle"/><text x="-761.31" y="-901.58" line-height="125%" style="letter-spacing:0;word-spacing:0;font-size:129.23;font-family:Gentium Book Basic"><tspan x="-761.31" y="-901.58"/></text><text x="7.358" y="-3967.02" transform="scale(4.0128.2492)" style="font-size:46.954;font-family:Arial;text-anchor:middle"/><text x="336.74" y="-1118.05" line-height="125%" style="letter-spacing:0;word-spacing:0;font-size:129.23;font-family:Gentium Book Basic"><tspan x="336.74" y="-1118.05"/></text><text x="281" y="-4835.69" transform="scale(4.0128.2492)" style="font-size:46.954;font-family:Arial;text-anchor:middle"/><text x="918.01" y="-1198.06" line-height="125%" style="letter-spacing:0;word-spacing:0;font-size:129.23;font-family:Gentium Book Basic"><tspan x="918.01" y="-1198.06"/></text><text x="425.85" y="-5156.73" transform="scale(4.0128.2492)" style="font-size:46.954;font-family:Arial;text-anchor:middle"/><text x="528.89" y="-1670.46" line-height="125%" style="letter-spacing:0;word-spacing:0;font-size:129.23;font-family:Gentium Book Basic"><tspan x="528.89" y="-1670.46"/></text><text x="328.88" y="-7052.38" transform="scale(4.0128.2492)" style="font-size:46.954;font-family:Arial;text-anchor:middle"/><text x="1110.15" y="-1750.46" line-height="125%" style="letter-spacing:0;word-spacing:0;font-size:129.23;font-family:Gentium Book Basic"><tspan x="1110.15" y="-1750.46"/></text><text x="473.73" y="-7373.41" transform="scale(4.0128.2492)" style="font-size:46.954;font-family:Arial;text-anchor:middle"/><text x="-722.65" y="-335.74" line-height="125%" style="letter-spacing:0;word-spacing:0;font-size:208.33;font-family:Gentium Book Basic"><tspan x="-722.65" y="-335.74"/></text><g transform="translate(161.05 789.24)"><path d="m-124.98-789.24c-5.63 0-10.156 4.527-10.156 10.156v491.69c0 5.63 4.527 10.156 10.156 10.156h439.88c5.63 0 10.156-4.527 10.156-10.156v-334.09l-167.75-167.75h-282.28" style="opacity:.1"/><path d="m-121.98-785.74c-5.553 0-10.03 4.479-10.03 10.03v484.94c0 5.553 4.479 10.03 10.03 10.03h433.88c5.553 0 10.03-4.479 10.03-10.03v-327.84l-167.12-167.12h-276.78" style="opacity:.1"/><path d="m-118.98-782.24c-5.476 0-9.875 4.399-9.875 9.875v478.25c0 5.476 4.399 9.875 9.875 9.875h427.88c5.476 0 9.875-4.399 9.875-9.875v-321.66l-166.47-166.47h-271.28" style="opacity:.1"/><path d="m-115.98-778.74c-5.399 0-9.719 4.351-9.719 9.75v471.5c0 5.399 4.32 9.75 9.719 9.75h421.88c5.399 0 9.719-4.351 9.719-9.75v-315.44l-165.81-165.81h-265.78" style="fill:#fb4e26"/><path d="m315.61-612.92l-165.81-165.81v156.06c0 5.399 4.32 9.75 9.719 9.75h156.09" id="0" style="fill:#fff;fill-opacity:.196"/><use xlink:href="#0"/><path d="m155.55-613.77c54.11 54.4 112.06 112.7 160.06 160.69v-.625-72.19-87.03h-156.09c-1.422 0-2.756-.3-3.969-.844" style="opacity:.25;color:#000"/></g><text x="-1151.56" y="-832.81" line-height="125%" style="letter-spacing:0;word-spacing:0;font-size:208.33;font-family:Gentium Book Basic"><tspan x="-1151.56" y="-832.81"/></text><text x="30.758" y="-3904.83" transform="scale(4.0128.2492)" style="font-size:75.7;font-family:Arial;text-anchor:middle"/><text x="-1799.32" y="-1600.76" line-height="125%" style="letter-spacing:0;word-spacing:0;font-size:208.33;font-family:Gentium Book Basic"><tspan x="-1799.32" y="-1600.76"/></text><text x="-130.67" y="-6986.49" transform="scale(4.0128.2492)" style="font-size:75.7;font-family:Arial;text-anchor:middle"/><text x="-1092.98" y="-1756.4" line-height="125%" style="letter-spacing:0;word-spacing:0;font-size:208.33;font-family:Gentium Book Basic"><tspan x="-1092.98" y="-1756.4"/></text><text x="45.35" y="-7611.02" transform="scale(4.0128.2492)" style="font-size:75.7;font-family:Arial;text-anchor:middle"/><text x="-195.07" y="-544.86" line-height="125%" style="letter-spacing:0;word-spacing:0;font-size:129.23;font-family:Gentium Book Basic"><tspan x="-195.07" y="-544.86"/></text><text x="148.47" y="-2535.58" transform="scale(4.0128.2492)" style="font-size:46.954;font-family:Arial;text-anchor:middle"/><text x="386.2" y="-624.86" line-height="125%" style="letter-spacing:0;word-spacing:0;font-size:129.23;font-family:Gentium Book Basic"><tspan x="386.2" y="-624.86"/></text><text x="293.32" y="-2856.61" transform="scale(4.0128.2492)" style="font-size:46.954;font-family:Arial;text-anchor:middle"/><text x="-685.38" y="-806.12" line-height="125%" style="letter-spacing:0;word-spacing:0;font-size:129.23;font-family:Gentium Book Basic"><tspan x="-685.38" y="-806.12"/></text><text x="26.28" y="-3583.97" transform="scale(4.0128.2492)" style="font-size:46.954;font-family:Arial;text-anchor:middle"/><text x="412.67" y="-1022.59" line-height="125%" style="letter-spacing:0;word-spacing:0;font-size:129.23;font-family:Gentium Book Basic"><tspan x="412.67" y="-1022.59"/></text><text x="299.92" y="-4452.63" transform="scale(4.0128.2492)" style="font-size:46.954;font-family:Arial;text-anchor:middle"/><text x="993.94" y="-1102.6" line-height="125%" style="letter-spacing:0;word-spacing:0;font-size:129.23;font-family:Gentium Book Basic"><tspan x="993.94" y="-1102.6"/></text><text x="444.77" y="-4773.67" transform="scale(4.0128.2492)" style="font-size:46.954;font-family:Arial;text-anchor:middle"/><text x="604.82" y="-1575" line-height="125%" style="letter-spacing:0;word-spacing:0;font-size:129.23;font-family:Gentium Book Basic"><tspan x="604.82" y="-1575"/></text><text x="347.8" y="-6669.32" transform="scale(4.0128.2492)" style="font-size:46.954;font-family:Arial;text-anchor:middle"/><text x="1186.08" y="-1655" line-height="125%" style="letter-spacing:0;word-spacing:0;font-size:129.23;font-family:Gentium Book Basic"><tspan x="1186.08" y="-1655"/></text><text x="492.65" y="-6990.35" transform="scale(4.0128.2492)" style="font-size:46.954;font-family:Arial;text-anchor:middle"/><text x="-646.72" y="-240.28" line-height="125%" style="letter-spacing:0;word-spacing:0;font-size:208.33;font-family:Gentium Book Basic"><tspan x="-646.72" y="-240.28"/></text></svg>