<svg xmlns="http://www.w3.org/2000/svg" xmlns:xlink="http://www.w3.org/1999/xlink" viewBox="0 0 512 512"><path d="m36.06 0c-5.63 0-10.156 4.527-10.156 10.156v491.69c0 5.63 4.527 10.156 10.156 10.156h439.88c5.63 0 10.156-4.527 10.156-10.156v-334.09l-167.75-167.75h-282.28" opacity=".1"/><path d="m39.06 3.5c-5.553 0-10.03 4.479-10.03 10.03v484.94c0 5.553 4.479 10.03 10.03 10.03h433.88c5.553 0 10.03-4.479 10.03-10.03v-327.84l-167.12-167.12h-276.78" opacity=".1"/><path d="m42.06 7c-5.476 0-9.875 4.399-9.875 9.875v478.25c0 5.476 4.399 9.875 9.875 9.875h427.88c5.476 0 9.875-4.399 9.875-9.875v-321.66l-166.47-166.47h-271.28" opacity=".1"/><path fill="#e02b2b" d="m45.06 10.5c-5.399 0-9.719 4.351-9.719 9.75v471.5c0 5.399 4.32 9.75 9.719 9.75h421.88c5.399 0 9.719-4.351 9.719-9.75v-315.44l-165.81-165.81h-265.78"/><path id="0" fill="#fff" fill-opacity=".196" d="m476.66 176.31l-165.81-165.81v156.06c0 5.399 4.32 9.75 9.719 9.75h156.09"/><use xlink:href="#0"/><path d="m316.59 175.47c8.98 9.03 18.18 18.292 27.313 27.469-27.443-11.623-58.09-15.815-88.16-15.969-2.426-0.012-4.834-0.007-7.25 0.031-42.04 1.509-86.956 10.926-117.97 39.438-14.247 13.526-20.741 35.575-9.938 52.719 3 5.176 6.673 9.798 10.844 13.969l45.563 45.563c-5.661-1.927-11.243-4.083-16.719-6.469-4.459-2.038-8.87-4.277-13.12-6.781l-32-32.03c0.809 15.278-1.662 30.832 1.281 45.938 2.607 9.318 7.861 17.236 14.594 23.969l49 49c-6.393-2.07-12.709-4.418-18.875-7.06-4.674-2.12-9.3-4.467-13.781-7.094l-32.22-32.22v36.875c0.419 12.947 6.919 24.14 16.09 33.31l65.38 65.38h270.31c5.399 0 9.719-4.351 9.719-9.75v-315.44h-156.09c-1.422 0-2.756-0.3-3.969-0.844" opacity=".25"/><g fill="#fff"><path d="m72.27 108.77c37.2-14.404 65.56-13.86 87.44 1.383 19.34-22.85 61.09-31.632 74.49-30.1-40.04-14.88-71.46 0.077-78.25 10.08-22.23-9.765-72.03-0.918-83.67 18.636"/><path d="m134.75 56.812c26.617-7.348 50.23-7.979 66.97 1.488 15.649-12.541 47.967-17.08 58.19-16.11-36.725-7.588-52.912-0.63-60.811 4.174-23.597-5.201-46.2-4.787-64.34 10.45"/></g><path fill="#fff" d="m248.5 187c-42.04 1.509-86.951 10.944-117.96 39.456-14.247 13.526-20.736 35.55-9.932 52.694 14.264 24.605 43.529 37.11 70.888 44.601 51.563 13.346 108.64 11.02 157.5-10.02 21.488-9.526 43.23-25.613 47.36-48.86 3.26-23.11-15.719-42.915-35.565-53.592-33.469-19.252-73.63-24.89-112.3-24.278m147.71 107.41c-14.08 26.343-44.43 39.91-73.07 48.02-53.24 14.12-112.39 11.792-162.86-10.197-18.536-8.473-36.29-20.723-45.11-38.838 0.809 15.278-1.661 30.85 1.282 45.955 6.584 23.532 29.894 38.01 51.895 47.51 44.14 17.35 94.53 19.474 141.16 10.356 28.653-6.723 58.733-17.602 77.15-40.506 10.195-12.05 10.991-27.793 9.979-42.599 0.178-6.911 0.015-13.831 0.072-20.748l-0.471 0.986-0.029 0.062m-281.05 108.39c0.753 23.283 21.22 40.886 41.42 51.3 40.02 19.657 86.97 24.18 131.48 19.357 33.08-4.522 67.62-14.15 92.06-36.751 13.06-11.695 18.616-29.14 16.488-45.989 0.197-8.242 0.074-16.491 0.108-24.737-13.244 26.303-43.19 40.18-71.25 48.43-53.57 14.793-113.28 12.737-164.29-9.141-18.802-8.53-37.19-20.871-46.01-39.32v36.852"/></svg>