<svg xmlns="http://www.w3.org/2000/svg" xmlns:xlink="http://www.w3.org/1999/xlink" viewBox="0 0 512 512"><path d="m36.06 512c-5.63 0-10.156-4.527-10.156-10.156v-491.69c0-5.63 4.527-10.156 10.156-10.156h439.88c5.63 0 10.156 4.527 10.156 10.156v334.09l-167.75 167.75h-282.28" opacity=".1"/><path d="m39.06 508.5c-5.553 0-10.03-4.479-10.03-10.03v-484.94c0-5.553 4.479-10.03 10.03-10.03h433.88c5.553 0 10.03 4.479 10.03 10.03v327.84l-167.12 167.13h-276.78" opacity=".1"/><path d="m42.06 505c-5.476 0-9.875-4.399-9.875-9.875v-478.25c0-5.476 4.399-9.875 9.875-9.875h427.88c5.476 0 9.875 4.399 9.875 9.875v321.66l-166.47 166.47h-271.28" opacity=".1"/><path fill="#3c3c3c" d="m45.06 501.5c-5.399 0-9.719-4.351-9.719-9.75v-471.5c0-5.399 4.32-9.75 9.719-9.75h421.88c5.399 0 9.719 4.351 9.719 9.75v315.44l-165.81 165.81h-265.78"/><path d="m375.28 56.41c-10.303 0.088-20.805 0.972-30.906 0.281h-130.37c-28.495 0.395-65.14 1.687-77.969 32.469-12.664 21.703-30.935 47.47-1.281 63.16 15.984 16.07 32.16 31.996 48.03 48.16-6.498 29.955-26.458 54.972-34.16 84 1.03 22.649 24.928 33.777 37.781 50.09 48.621 48.5 97.16 97.09 145.69 145.69l144.56-144.56v-198.84c-26-26.02-52.02-52.02-78-78.06-7.48-2.036-15.361-2.444-23.375-2.375" opacity=".25"/><path id="0" fill="#fff" fill-opacity=".196" d="m476.66 335.69l-165.81 165.81v-156.06c0-5.399 4.32-9.75 9.719-9.75h156.09"/><use xlink:href="#0"/><path fill="#fff" d="m230.04 394.61c-17.246-0.088-26.601 4.26-32.03 7.563-23.597-5.201-46.2-4.799-64.34 10.438 26.617-7.348 50.23-7.967 66.969 1.5 15.649-12.541 47.969-17.09 58.19-16.12-11.476-2.371-20.942-3.335-28.781-3.375m-31.438 34.969c-22.75 0.255-39.08 9.467-43.75 16.344-22.23-9.765-72.01-0.897-83.66 18.656 37.2-14.404 65.56-13.868 87.44 1.375 19.34-22.85 61.07-31.628 74.47-30.09-12.513-4.65-24.16-6.397-34.5-6.281"/><path fill="#fff" d="m214.02 56.677c-23.865 0.846-39.34 2.078-51.48 6.742-12.138 4.664-20.01 13.381-26.465 25.694a7.0963 7.0963 0 0 0 -0.0297 0.0296l-19.664 38.02a7.0963 7.0963 0 0 0 5.7327 10.337l6.713 0.505a7.0963 7.0963 0 0 0 6.7723 -3.6535c6.903-12.662 13.613-21.561 21.03-27.15 7.37-5.553 15.518-8.253 27.03-8.287h0.208l17.05 0.445c-9.705 56.16-7.786 99.63-49.1 172.07a7.0963 7.0963 0 0 0 -0.41584 0.8911c-3.335 8.394-3.682 16.345-1.278 22.926 2.399 6.586 7.509 11.447 13.456 13.872 11.893 4.847 27.315 0.337 35.674-13.426a7.0963 7.0963 0 0 0 0.32674 -0.62376c17.365-36.407 26.501-105.53 32.14-195.62h57.861l-9.445 147.9a7.0963 7.0963 0 0 0 0 0.29703c-0.469 21.924 4.878 38.45 14.643 49.22 9.765 10.762 23.766 15.01 37.664 13.245 27.797-3.516 56.24-28.948 67.28-69.74a7.0963 7.0963 0 0 0 -6.8614 -8.9704h-6.683a7.0963 7.0963 0 0 0 -6.2971 3.802c-9.789 18.588-19.279 29.32-26.763 34.07-7.487 4.753-12.136 4.378-16.99 1.396s-9.87-9.979-13.13-20.02c-3.257-10.03-4.799-22.866-3.862-36.594 0.001-0.01-0.001-0.019 0-0.03l8.287-114.15 66.29-0.95a7.0963 7.0963 0 0 0 7.01 -7.099v-28.04a7.0963 7.0963 0 0 0 -7.0991 -7.0991h-179.35a7.0963 7.0963 0 0 0 -0.26734 0"/></svg>