<svg xmlns="http://www.w3.org/2000/svg" xmlns:xlink="http://www.w3.org/1999/xlink" viewBox="0 0 512 512"><path d="m36.06 0c-5.63 0-10.156 4.527-10.156 10.156v491.69c0 5.63 4.527 10.156 10.156 10.156h439.88c5.63 0 10.156-4.527 10.156-10.156v-334.09l-167.75-167.75h-282.28" opacity=".1"/><path d="m39.06 3.5c-5.553 0-10.03 4.479-10.03 10.03v484.94c0 5.553 4.479 10.03 10.03 10.03h433.88c5.553 0 10.03-4.479 10.03-10.03v-327.84l-167.12-167.12h-276.78" opacity=".1"/><path d="m42.06 7c-5.476 0-9.875 4.399-9.875 9.875v478.25c0 5.476 4.399 9.875 9.875 9.875h427.88c5.476 0 9.875-4.399 9.875-9.875v-321.66l-166.47-166.47h-271.28" opacity=".1"/><path fill="#9bbe22" d="m45.06 10.5c-5.399 0-9.719 4.351-9.719 9.75v471.5c0 5.399 4.32 9.75 9.719 9.75h421.88c5.399 0 9.719-4.351 9.719-9.75v-315.44l-165.81-165.81h-265.78"/><path id="0" fill="#fff" fill-opacity=".196" d="m476.66 176.31l-165.81-165.81v156.06c0 5.399 4.32 9.75 9.719 9.75h156.09"/><use xlink:href="#0"/><path d="m316.59 175.47c6.521 6.555 13.236 13.294 19.844 19.938h-248.87v275.38l30.719 30.719h348.66c5.399 0 9.719-4.351 9.719-9.75v-315.44h-156.09c-1.422 0-2.756-0.3-3.969-0.844" opacity=".25"/><g fill="#fff"><path d="m72.27 108.77c37.2-14.404 65.56-13.86 87.44 1.383 19.34-22.85 61.09-31.632 74.49-30.1-40.04-14.88-71.46 0.077-78.25 10.08-22.23-9.765-72.03-0.918-83.67 18.636"/><path d="m134.75 56.812c26.617-7.348 50.23-7.979 66.97 1.488 15.649-12.541 47.967-17.08 58.19-16.11-36.725-7.588-52.912-0.63-60.811 4.174-23.597-5.201-46.2-4.787-64.34 10.45"/></g><path fill="#f9f9f9" d="m87.57 195.41v275.36h315.39v-275.36h-315.39m30.522 30.523h70.69v91.9h-70.69v-91.9m101.21 0h153.13v91.9h-153.13v-91.9m-101.21 122.42h70.69v91.9h-70.69v-91.9m101.21 0h153.13v91.9h-153.13v-91.9"/></svg>