<svg xmlns="http://www.w3.org/2000/svg" xmlns:xlink="http://www.w3.org/1999/xlink" viewBox="0 0 512 512"><text x="-210.55" y="39.41" line-height="125%" style="letter-spacing:0;word-spacing:0;font-size:129.23;font-family:Gentium Book Basic"><tspan x="-210.55" y="39.41"/></text><text x="144.61" y="-191" transform="scale(4.0128.2492)" style="font-size:46.954;font-family:Arial;text-anchor:middle"/><text x="370.72" y="-40.586" line-height="125%" style="letter-spacing:0;word-spacing:0;font-size:129.23;font-family:Gentium Book Basic"><tspan x="370.72" y="-40.586"/></text><text x="289.46" y="-512.03" transform="scale(4.0128.2492)" style="font-size:46.954;font-family:Arial;text-anchor:middle"/><text x="-700.86" y="-221.85" line-height="125%" style="letter-spacing:0;word-spacing:0;font-size:129.23;font-family:Gentium Book Basic"><tspan x="-700.86" y="-221.85"/></text><text x="22.422" y="-1239.38" transform="scale(4.0128.2492)" style="font-size:46.954;font-family:Arial;text-anchor:middle"/><text x="397.19" y="-438.32" line-height="125%" style="letter-spacing:0;word-spacing:0;font-size:129.23;font-family:Gentium Book Basic"><tspan x="397.19" y="-438.32"/></text><text x="296.06" y="-2108.05" transform="scale(4.0128.2492)" style="font-size:46.954;font-family:Arial;text-anchor:middle"/><text x="978.46" y="-518.33" line-height="125%" style="letter-spacing:0;word-spacing:0;font-size:129.23;font-family:Gentium Book Basic"><tspan x="978.46" y="-518.33"/></text><text x="440.91" y="-2429.09" transform="scale(4.0128.2492)" style="font-size:46.954;font-family:Arial;text-anchor:middle"/><text x="589.34" y="-990.73" line-height="125%" style="letter-spacing:0;word-spacing:0;font-size:129.23;font-family:Gentium Book Basic"><tspan x="589.34" y="-990.73"/></text><text x="343.94" y="-4324.74" transform="scale(4.0128.2492)" style="font-size:46.954;font-family:Arial;text-anchor:middle"/><text x="1170.6" y="-1070.73" line-height="125%" style="letter-spacing:0;word-spacing:0;font-size:129.23;font-family:Gentium Book Basic"><tspan x="1170.6" y="-1070.73"/></text><text x="488.79" y="-4645.77" transform="scale(4.0128.2492)" style="font-size:46.954;font-family:Arial;text-anchor:middle"/><g line-height="125%" style="letter-spacing:0;word-spacing:0;font-family:Gentium Book Basic"><text x="-662.2" y="343.99" style="font-size:208.33"><tspan x="-662.2" y="343.99"/></text><text x="91.81" y="209.67" style="font-size:129.23"><tspan x="91.81" y="209.67"/></text></g><text x="219.96" y="492.19" transform="scale(4.0128.2492)" style="font-size:46.954;font-family:Arial;text-anchor:middle"/><text x="673.08" y="129.67" line-height="125%" style="letter-spacing:0;word-spacing:0;font-size:129.23;font-family:Gentium Book Basic"><tspan x="673.08" y="129.67"/></text><text x="364.81" y="171.16" transform="scale(4.0128.2492)" style="font-size:46.954;font-family:Arial;text-anchor:middle"/><text x="-398.5" y="-51.596" line-height="125%" style="letter-spacing:0;word-spacing:0;font-size:129.23;font-family:Gentium Book Basic"><tspan x="-398.5" y="-51.596"/></text><text x="97.77" y="-556.2" transform="scale(4.0128.2492)" style="font-size:46.954;font-family:Arial;text-anchor:middle"/><text x="699.55" y="-268.06" line-height="125%" style="letter-spacing:0;word-spacing:0;font-size:129.23;font-family:Gentium Book Basic"><tspan x="699.55" y="-268.06"/></text><text x="371.41" y="-1424.86" transform="scale(4.0128.2492)" style="font-size:46.954;font-family:Arial;text-anchor:middle"/><text x="1280.82" y="-348.07" line-height="125%" style="letter-spacing:0;word-spacing:0;font-size:129.23;font-family:Gentium Book Basic"><tspan x="1280.82" y="-348.07"/></text><text x="516.26" y="-1745.9" transform="scale(4.0128.2492)" style="font-size:46.954;font-family:Arial;text-anchor:middle"/><text x="891.7" y="-820.47" line-height="125%" style="letter-spacing:0;word-spacing:0;font-size:129.23;font-family:Gentium Book Basic"><tspan x="891.7" y="-820.47"/></text><text x="419.29" y="-3641.55" transform="scale(4.0128.2492)" style="font-size:46.954;font-family:Arial;text-anchor:middle"/><text x="1472.96" y="-900.47" line-height="125%" style="letter-spacing:0;word-spacing:0;font-size:129.23;font-family:Gentium Book Basic"><tspan x="1472.96" y="-900.47"/></text><text x="564.14" y="-3962.58" transform="scale(4.0128.2492)" style="font-size:46.954;font-family:Arial;text-anchor:middle"/><g line-height="125%" style="letter-spacing:0;word-spacing:0;font-family:Gentium Book Basic"><text x="-359.84" y="514.25" style="font-size:208.33"><tspan x="-359.84" y="514.25"/></text><text x="78.79" y="179.29" style="font-size:129.23"><tspan x="78.79" y="179.29"/></text></g><text x="216.72" y="370.31" transform="scale(4.0128.2492)" style="font-size:46.954;font-family:Arial;text-anchor:middle"/><text x="660.06" y="99.29" line-height="125%" style="letter-spacing:0;word-spacing:0;font-size:129.23;font-family:Gentium Book Basic"><tspan x="660.06" y="99.29"/></text><text x="361.57" y="49.28" transform="scale(4.0128.2492)" style="font-size:46.954;font-family:Arial;text-anchor:middle"/><text x="-411.52" y="-81.969" line-height="125%" style="letter-spacing:0;word-spacing:0;font-size:129.23;font-family:Gentium Book Basic"><tspan x="-411.52" y="-81.969"/></text><text x="94.53" y="-678.08" transform="scale(4.0128.2492)" style="font-size:46.954;font-family:Arial;text-anchor:middle"/><text x="686.53" y="-298.44" line-height="125%" style="letter-spacing:0;word-spacing:0;font-size:129.23;font-family:Gentium Book Basic"><tspan x="686.53" y="-298.44"/></text><text x="368.17" y="-1546.74" transform="scale(4.0128.2492)" style="font-size:46.954;font-family:Arial;text-anchor:middle"/><text x="1267.8" y="-378.45" line-height="125%" style="letter-spacing:0;word-spacing:0;font-size:129.23;font-family:Gentium Book Basic"><tspan x="1267.8" y="-378.45"/></text><text x="513.01" y="-1867.78" transform="scale(4.0128.2492)" style="font-size:46.954;font-family:Arial;text-anchor:middle"/><text x="878.68" y="-850.85" line-height="125%" style="letter-spacing:0;word-spacing:0;font-size:129.23;font-family:Gentium Book Basic"><tspan x="878.68" y="-850.85"/></text><text x="416.05" y="-3763.43" transform="scale(4.0128.2492)" style="font-size:46.954;font-family:Arial;text-anchor:middle"/><text x="1459.94" y="-930.85" line-height="125%" style="letter-spacing:0;word-spacing:0;font-size:129.23;font-family:Gentium Book Basic"><tspan x="1459.94" y="-930.85"/></text><text x="560.89" y="-4084.46" transform="scale(4.0128.2492)" style="font-size:46.954;font-family:Arial;text-anchor:middle"/><g line-height="125%" style="letter-spacing:0;word-spacing:0;font-family:Gentium Book Basic"><text x="-372.86" y="483.87" style="font-size:208.33"><tspan x="-372.86" y="483.87"/></text><text x="39.5" y="244.98" style="font-size:129.23"><tspan x="39.5" y="244.98"/></text></g><text x="206.92" y="633.89" transform="scale(4.0128.2492)" style="font-size:46.954;font-family:Arial;text-anchor:middle"/><text x="620.77" y="164.98" line-height="125%" style="letter-spacing:0;word-spacing:0;font-size:129.23;font-family:Gentium Book Basic"><tspan x="620.77" y="164.98"/></text><text x="351.77" y="312.87" transform="scale(4.0128.2492)" style="font-size:46.954;font-family:Arial;text-anchor:middle"/><text x="-450.81" y="-16.283" line-height="125%" style="letter-spacing:0;word-spacing:0;font-size:129.23;font-family:Gentium Book Basic"><tspan x="-450.81" y="-16.283"/></text><text x="84.74" y="-414.49" transform="scale(4.0128.2492)" style="font-size:46.954;font-family:Arial;text-anchor:middle"/><text x="647.24" y="-232.75" line-height="125%" style="letter-spacing:0;word-spacing:0;font-size:129.23;font-family:Gentium Book Basic"><tspan x="647.24" y="-232.75"/></text><text x="358.37" y="-1283.16" transform="scale(4.0128.2492)" style="font-size:46.954;font-family:Arial;text-anchor:middle"/><text x="1228.51" y="-312.76" line-height="125%" style="letter-spacing:0;word-spacing:0;font-size:129.23;font-family:Gentium Book Basic"><tspan x="1228.51" y="-312.76"/></text><text x="503.22" y="-1604.19" transform="scale(4.0128.2492)" style="font-size:46.954;font-family:Arial;text-anchor:middle"/><text x="839.39" y="-785.16" line-height="125%" style="letter-spacing:0;word-spacing:0;font-size:129.23;font-family:Gentium Book Basic"><tspan x="839.39" y="-785.16"/></text><text x="406.25" y="-3499.84" transform="scale(4.0128.2492)" style="font-size:46.954;font-family:Arial;text-anchor:middle"/><text x="1420.65" y="-865.16" line-height="125%" style="letter-spacing:0;word-spacing:0;font-size:129.23;font-family:Gentium Book Basic"><tspan x="1420.65" y="-865.16"/></text><text x="551.1" y="-3820.87" transform="scale(4.0128.2492)" style="font-size:46.954;font-family:Arial;text-anchor:middle"/><g transform="translate(-690.14 13.618)" line-height="125%" style="letter-spacing:0;word-spacing:0;font-family:Gentium Book Basic"><text x="277.99" y="535.94" style="font-size:208.33"><tspan x="277.99" y="535.94"/></text><text x="148.44" y="135.65" style="font-size:129.23"><tspan x="148.44" y="135.65"/></text></g><text x="62.09" y="249.85" transform="scale(4.0128.2492)" style="font-size:46.954;font-family:Arial;text-anchor:middle"/><text x="39.57" y="69.27" line-height="125%" style="letter-spacing:0;word-spacing:0;font-size:129.23;font-family:Gentium Book Basic"><tspan x="39.57" y="69.27"/></text><text x="206.93" y="-71.18" transform="scale(4.0128.2492)" style="font-size:46.954;font-family:Arial;text-anchor:middle"/><text x="-1032.01" y="-111.99" line-height="125%" style="letter-spacing:0;word-spacing:0;font-size:129.23;font-family:Gentium Book Basic"><tspan x="-1032.01" y="-111.99"/></text><text x="-60.1" y="-798.54" transform="scale(4.0128.2492)" style="font-size:46.954;font-family:Arial;text-anchor:middle"/><text x="66.04" y="-328.46" line-height="125%" style="letter-spacing:0;word-spacing:0;font-size:129.23;font-family:Gentium Book Basic"><tspan x="66.04" y="-328.46"/></text><text x="213.53" y="-1667.19" transform="scale(4.0128.2492)" style="font-size:46.954;font-family:Arial;text-anchor:middle"/><text x="647.31" y="-408.47" line-height="125%" style="letter-spacing:0;word-spacing:0;font-size:129.23;font-family:Gentium Book Basic"><tspan x="647.31" y="-408.47"/></text><text x="358.38" y="-1988.23" transform="scale(4.0128.2492)" style="font-size:46.954;font-family:Arial;text-anchor:middle"/><text x="258.19" y="-880.87" line-height="125%" style="letter-spacing:0;word-spacing:0;font-size:129.23;font-family:Gentium Book Basic"><tspan x="258.19" y="-880.87"/></text><text x="261.41" y="-3883.87" transform="scale(4.0128.2492)" style="font-size:46.954;font-family:Arial;text-anchor:middle"/><text x="839.45" y="-960.87" line-height="125%" style="letter-spacing:0;word-spacing:0;font-size:129.23;font-family:Gentium Book Basic"><tspan x="839.45" y="-960.87"/></text><text x="406.26" y="-4204.9" transform="scale(4.0128.2492)" style="font-size:46.954;font-family:Arial;text-anchor:middle"/><g line-height="125%" style="letter-spacing:0;word-spacing:0;font-family:Gentium Book Basic"><text x="-993.35" y="453.85" style="font-size:208.33"><tspan x="-993.35" y="453.85"/></text><text x="-575.74" y="116.28" style="font-size:200;fill:#555753;stroke:#555753"><tspan x="-575.74" y="116.28"/></text></g><g style="fill:#555753"><text x="161.54" y="-73.74" transform="scale(4.0128.2492)" style="font-size:72.67;font-family:Arial;stroke:none;text-anchor:middle"/><text x="169.64" y="169.43" line-height="125%" style="letter-spacing:0;word-spacing:0;font-size:200;font-family:Gentium Book Basic;stroke:#555753"><tspan x="169.64" y="169.43"/></text><text x="347.29" y="139.51" transform="scale(4.0128.2492)" style="font-size:72.67;font-family:Arial;stroke:none;text-anchor:middle"/><text x="1069.25" y="45.61" line-height="125%" style="letter-spacing:0;word-spacing:0;font-size:200;font-family:Gentium Book Basic;stroke:#555753"><tspan x="1069.25" y="45.61"/></text><text x="571.47" y="-357.35" transform="scale(4.0128.2492)" style="font-size:72.67;font-family:Arial;stroke:none;text-anchor:middle"/><text x="197.1" y="-7.03" line-height="125%" style="letter-spacing:0;word-spacing:0;font-size:200;font-family:Gentium Book Basic;stroke:#555753"><tspan x="197.1" y="-7.03"/></text><text x="354.13" y="-568.58" transform="scale(4.0128.2492)" style="font-size:72.67;font-family:Arial;stroke:none;text-anchor:middle"/><text x="1096.72" y="-130.85" line-height="125%" style="letter-spacing:0;word-spacing:0;font-size:200;font-family:Gentium Book Basic;stroke:#555753"><tspan x="1096.72" y="-130.85"/></text><text x="578.32" y="-1065.43" transform="scale(4.0128.2492)" style="font-size:72.67;font-family:Arial;stroke:none;text-anchor:middle"/><text x="-2812.88" y="444.86" line-height="125%" style="letter-spacing:0;word-spacing:0;font-size:200;font-family:Gentium Book Basic;stroke:#555753"><tspan x="-2812.88" y="444.86"/></text><text x="-395.95" y="1244.76" transform="scale(4.0128.2492)" style="font-size:72.67;font-family:Arial;stroke:none;text-anchor:middle"/></g><text x="-957.33" y="478.97" line-height="125%" style="letter-spacing:0;word-spacing:0;font-size:208.33;font-family:Gentium Book Basic"><tspan x="-957.33" y="478.97"/></text><text x="79.16" y="1359.15" transform="scale(4.0128.2492)" style="font-size:75.7;font-family:Arial;text-anchor:middle"/><g transform="translate(-.003-.003)" style="fill-opacity:.078"><path d="m32.563 0c-4.774 0-8.594 3.266-8.594 7.313v137.94 359.44c0 4.047 3.82 7.313 8.594 7.313h446.88c4.774 0 8.594-3.266 8.594-7.313v-359.44-.594l-144.66-144.66h-26.625-121.5-162.69"/><path d="m35.625 3.5c-4.709 0-8.5 3.196-8.5 7.188v136.06 354.56c0 3.991 3.791 7.188 8.5 7.188h440.75c4.709 0 8.5-3.196 8.5-7.188v-354.56-1.719l-141.53-141.53h-27.438-119.81-160.47"/><path d="m38.688 7c-4.643 0-8.375 3.158-8.375 7.094v134.19 349.63c0 3.936 3.732 7.094 8.375 7.094h434.63c4.643 0 8.375-3.158 8.375-7.094v-349.62-3l-138.28-138.28h-28.313-118.19-158.22"/></g><path d="m41.716 10.498c-4.578 0-8.25 3.119-8.25 7v132.28 344.72c0 3.881 3.672 7 8.25 7h428.56c4.578 0 8.25-3.119 8.25-7v-344.72-3.344l-135.97-135.94h-28.313-116.5-156.03" style="fill:#654641"/><path d="m63.47 24.03v16.16h44.531v-16.16h-44.531m0 47.22v1 1 33.688h44.531v-35.688h-44.531m0 66.72v1 1 33.75h44.531v-35.75h-44.531m340.53 8.469v27.28h44.531v-27.28h-44.531m-340.53 58.28v1 1 33.75h44.531v-35.75h-44.531m340.53 0v1 1 33.75h44.531v-35.75h-44.531m-340.53 66.781v1 1 33.688h44.531v-35.688h-44.531m340.53 0v1 1 33.688h44.531v-35.688h-44.531m-340.53 66.781v1 1 33.656h44.531v-35.656h-44.531m340.53 0v1 1 33.656h44.531v-35.656h-44.531m-340.53 66.72v1 1 33.719h44.531v-35.719h-44.531m340.53 0v1 1 33.719h44.531v-35.719h-44.531m-340.53 66.75v1 1 14.219h44.531v-16.219h-44.531m340.53 0v1 1 14.219h44.531v-16.219h-44.531" style="fill:#fff"/><path d="m478.53 146.44l-135.97-135.94v128.94c0 3.881 3.672 7 8.25 7h127.72" id="0" style="fill:#fff;fill-opacity:.196"/><use width="1" height="1" xlink:href="#0"/><path d="m345.03 144.56l133.5 129.38v-124.16-3.344h-127.72c-2.185 0-4.154-.71-5.625-1.875h-.156" style="fill-opacity:.196"/><path d="m142.88 183v28.22l31.648 31.648h-31.648v28.22l31.648 31.648h-31.648v28.25l31.648 31.648h-31.648v28.22l31.648 31.648h-31.648v28.22l50.785 50.785h276.61c4.578 0 8.25-3.119 8.25-7v-142.23l-109.41-109.41h-32.16l-59.867-59.867h-134.21" style="opacity:.25"/><path d="m142.88 183v28.22h134.21v-28.22h-134.21m0 59.866v28.22h226.24v-28.22h-226.24m0 59.866v28.25h226.24v-28.25h-226.24m0 59.899v28.22h226.24v-28.22h-226.24m0 59.866v28.22h226.24v-28.22h-226.24" style="fill:#fff"/></svg>