<svg xmlns="http://www.w3.org/2000/svg" xmlns:xlink="http://www.w3.org/1999/xlink" viewBox="0 0 512 512"><g fill-opacity=".078"><path d="m32.563 0c-4.774 0-8.594 3.266-8.594 7.313v497.38c0 4.047 3.82 7.313 8.594 7.313h446.88c4.774 0 8.594-3.266 8.594-7.313v-360.03l-144.66-144.66h-310.81"/><path d="m35.625 3.5c-4.709 0-8.5 3.196-8.5 7.188v490.62c0 3.991 3.791 7.188 8.5 7.188h440.75c4.709 0 8.5-3.196 8.5-7.188v-356.28l-141.53-141.53h-307.72"/><path d="m38.688 7c-4.643 0-8.375 3.158-8.375 7.094v483.82c0 3.936 3.732 7.094 8.375 7.094h434.63c4.643 0 8.375-3.158 8.375-7.094v-352.62l-138.28-138.28h-304.72"/></g><path fill="#924565" d="m41.719 10.5c-4.578 0-8.25 3.119-8.25 7v477c0 3.881 3.672 7 8.25 7h428.56c4.578 0 8.25-3.119 8.25-7v-348.06l-135.97-135.94h-300.84"/><path id="0" fill="#fff" fill-opacity=".196" d="m478.53 146.44l-135.97-135.94v128.94c0 3.881 3.672 7 8.25 7h127.72"/><use width="1" height="1" xlink:href="#0"/><path fill-opacity=".196" d="m345.03 144.56l133.5 129.38v-127.5h-127.72c-2.185 0-4.154-0.71-5.625-1.875h-0.156"/><g fill-rule="evenodd"><path d="m256 164.3c-84.2 0-152.45 68.25-152.45 152.45 0 42.1 17.06 80.21 44.65 107.8l76.955 76.955h245.12c4.578 0 8.25-3.119 8.25-7v-170.82l-114.73-114.73c-27.588-27.588-65.7-44.65-107.8-44.65" opacity=".25"/><path fill="#fff" d="m256 164.3c-84.2 0-152.45 68.25-152.45 152.45s68.25 152.45 152.45 152.45 152.45-68.25 152.45-152.45-68.25-152.45-152.45-152.45m52.54 18.16c18.01 7.04 34.887 17.819 49.44 32.369 12.244 12.244 21.85 26.16 28.774 40.993l-89.08 51.42c-1.741-7.57-5.564-14.765-11.461-20.662-6.137-6.137-13.679-10.02-21.588-11.652l43.915-92.48m-52.54 98.63c19.697 0 35.657 15.965 35.657 35.657 0 19.697-15.965 35.657-35.657 35.657-19.697 0-35.657-15.965-35.657-35.657 0-19.697 15.965-35.657 35.657-35.657m0 7.894c-15.338 0-27.768 12.433-27.768 27.768 0 15.338 12.433 27.768 27.768 27.768 15.338 0 27.768-12.433 27.768-27.768 0-15.338-12.433-27.768-27.768-27.768m0 8.166c10.825 0 19.601 8.776 19.601 19.601s-8.776 19.601-19.601 19.601-19.601-8.776-19.601-19.601 8.776-19.601 19.601-19.601m-42.06 29.05c0.327 1.419 0.726 2.832 1.198 4.22 0.157 0.463 0.316 0.903 0.49 1.361 1.389 3.67 3.284 7.172 5.717 10.426 0.303 0.406 0.607 0.8 0.925 1.198 0.963 1.197 1.992 2.346 3.103 3.457 1.918 1.918 3.964 3.614 6.127 5.092 0.432 0.295 0.866 0.593 1.307 0.871 1.767 1.115 3.592 2.082 5.472 2.912 0.936 0.415 1.874 0.772 2.831 1.116 1.436 0.516 2.909 0.975 4.383 1.334 0.491 0.12 0.976 0.224 1.47 0.327l-43.915 92.48c-1.133-0.443-2.251-0.889-3.376-1.361-1.117-0.469-2.215-0.944-3.321-1.443-2.225-1-4.407-2.064-6.588-3.185-1.078-0.553-2.146-1.133-3.213-1.715-0.009-0.003-0.02 0.003-0.027 0-1.074-0.586-2.123-1.181-3.185-1.797-2.13-1.236-4.237-2.513-6.316-3.866-1.036-0.675-2.054-1.365-3.074-2.069-4.098-2.819-8.07-5.857-11.924-9.15-0.956-0.817-1.892-1.659-2.831-2.505-0.005-0.005-0.022 0.005-0.027 0-0.944-0.85-1.877-1.706-2.804-2.586s-1.84-1.785-2.749-2.695c-4.598-4.598-8.81-9.428-12.659-14.456-0.64-0.837-1.259-1.657-1.879-2.505-5.58-7.629-10.315-15.692-14.212-24.04l89.08-51.42"/></g></svg>