<svg xmlns="http://www.w3.org/2000/svg" xmlns:xlink="http://www.w3.org/1999/xlink" viewBox="0 0 512 512"><path d="m36.06 0c-5.63 0-10.156 4.527-10.156 10.156v491.69c0 5.63 4.527 10.156 10.156 10.156h439.88c5.63 0 10.156-4.527 10.156-10.156v-334.09l-167.75-167.75h-282.28" opacity=".1"/><path d="m39.06 3.5c-5.553 0-10.03 4.479-10.03 10.03v484.94c0 5.553 4.479 10.03 10.03 10.03h433.88c5.553 0 10.03-4.479 10.03-10.03v-327.84l-167.12-167.12h-276.78" opacity=".1"/><path d="m42.06 7c-5.476 0-9.875 4.399-9.875 9.875v478.25c0 5.476 4.399 9.875 9.875 9.875h427.88c5.476 0 9.875-4.399 9.875-9.875v-321.66l-166.47-166.47h-271.28" opacity=".1"/><path fill="#3c3c3c" d="m45.06 10.5c-5.399 0-9.719 4.351-9.719 9.75v471.5c0 5.399 4.32 9.75 9.719 9.75h421.88c5.399 0 9.719-4.351 9.719-9.75v-315.44l-165.81-165.81h-265.78"/><path id="0" fill="#fff" fill-opacity=".196" d="m476.66 176.31l-165.81-165.81v156.06c0 5.399 4.32 9.75 9.719 9.75h156.09"/><use xlink:href="#0"/><path d="m316.59 175.47c10.209 10.263 20.673 20.774 31.06 31.22h-155.06l42.625 42.625c-0.073 0.006-0.145 0.025-0.219 0.031l-42.656-42.656c-4.763-2.709-9.466-3.918-13.844-3.969-14.395-0.167-25.404 12.06-24.563 23.781l-13.09-13.09c-23.854 10.933-20.6 27.24-9.188 43l-17.281-17.281c-15.235 19.744-23.756 43.686 0.75 58.44l3.813 3.813c-5.962-4.863-12.1-9.505-18.5-13.875l59.719 59.719c-8.08 26.39-17 52.607-23.09 79.38 8.606 8.856 17.241 17.703 25.875 26.531-0.756 0.016-1.52 0.067-2.281 0.125l-30.938-30.938c-1.645 12.12 1.28 22.14 6.719 30.938l-8-8c2.956 3.149 5.941 6.266 8.906 9.406 2.538 3.857 5.519 7.489 8.844 10.969-4.092-3.934-8.18-7.888-12.281-11.813 16.02 15.849 31.988 31.76 47.938 47.688h285.09c5.399 0 9.719-4.351 9.719-9.75v-315.43h-156.09c-1.422 0-2.756-0.3-3.969-0.844m-162.53 297.72c1.66 1.489 3.379 2.945 5.094 4.406 2.151 2.246 4.282 4.508 6.438 6.75-3.842-3.719-7.682-7.445-11.531-11.156" opacity=".25"/><g fill="#fff"><path d="m72.27 108.77c37.2-14.404 65.56-13.86 87.44 1.383 19.34-22.85 61.09-31.632 74.49-30.1-40.04-14.88-71.46 0.077-78.25 10.08-22.23-9.765-72.03-0.918-83.67 18.636"/><path d="m134.75 56.812c26.617-7.348 50.23-7.979 66.97 1.488 15.649-12.541 47.967-17.08 58.19-16.11-36.725-7.588-52.912-0.63-60.811 4.174-23.597-5.201-46.2-4.787-64.34 10.45"/></g><path fill="#fff" d="m192.33 206.67c-23.865 0.846-39.34 2.078-51.48 6.742-12.138 4.664-20.01 13.381-26.465 25.694a7.0963 7.0963 0 0 0 -0.0297 0.0296l-19.664 38.02a7.0963 7.0963 0 0 0 5.7327 10.337l6.713 0.505a7.0963 7.0963 0 0 0 6.7723 -3.6535c6.903-12.661 13.613-21.561 21.03-27.15 7.37-5.553 15.518-8.253 27.03-8.287h0.208l17.05 0.445c-9.705 56.16-7.786 99.63-49.1 172.07a7.0963 7.0963 0 0 0 -0.41584 0.8911c-3.335 8.394-3.682 16.345-1.278 22.926 2.399 6.586 7.509 11.447 13.456 13.872 11.893 4.847 27.315 0.337 35.674-13.426a7.0963 7.0963 0 0 0 0.32674 -0.62376c17.365-36.407 26.501-105.53 32.14-195.62h57.861l-9.445 147.9a7.0963 7.0963 0 0 0 0 0.29703c-0.469 21.924 4.878 38.45 14.643 49.22 9.765 10.762 23.766 15.01 37.664 13.245 27.797-3.516 56.24-28.948 67.28-69.74a7.0963 7.0963 0 0 0 -6.8614 -8.9704h-6.683a7.0963 7.0963 0 0 0 -6.2971 3.802c-9.789 18.588-19.279 29.32-26.763 34.07-7.487 4.753-12.136 4.378-16.99 1.396s-9.87-9.979-13.13-20.02c-3.257-10.03-4.799-22.866-3.862-36.594 0.001-0.01-0.001-0.019 0-0.03l8.287-114.15 66.29-0.95a7.0963 7.0963 0 0 0 7.01 -7.099v-28.04a7.0963 7.0963 0 0 0 -7.0991 -7.0991h-179.35a7.0963 7.0963 0 0 0 -0.26734 0"/></svg>