<svg xmlns="http://www.w3.org/2000/svg" viewBox="0 0 512 512"><g style="fill-opacity:.078"><rect width="464.07" height="512" rx="58.46" x="23.964"/><rect width="457.73" height="505" rx="57.661" x="27.14" y="3.5"/><rect width="451.38" height="498" rx="56.862" x="30.31" y="7"/></g><rect width="445.04" height="491" rx="56.06" x="33.481" y="10.5" style="fill:#ba9f74"/><path d="m33.469 334.16v111.28c0 31.06 25 56.06 56.06 56.06h332.94c31.06 0 56.06-25 56.06-56.06v-111.28h-445.06" style="fill:#282629;fill-opacity:.235"/><rect width="147.32" height="58.46" rx="10.523" x="89.46" y="387.54" style="fill:#fff"/><path d="m101.8 392.78v47.969h10.458v-47.969h-10.458m20.376 0v47.969h2.185v-47.969h-2.185m14.411 0v47.969h5.843v-47.969h-5.843m13.944 0v47.969h10.409v-47.969h-10.409m17.946 0v47.969h6.948v-47.969h-6.948m14.19 0v47.969h11.05v-47.969h-11.05m19.15 0v47.969h5.205v-47.969h-5.205m15.05 0v47.969h7.586v-47.969h-7.586" style="fill:#282629"/><g style="color:#000"><path d="m316.91 10.5v259.19a4.350435 4.350435 0 0 1 -7.8125 2.625l-22.12-29.406-35.25 27.375a4.350435 4.350435 0 0 1 -6.34375 -1.09375l-18.313-29-24.16 32.13a4.350435 4.350435 0 0 1 -3.5625 1.71875l222.78 227.47h.344c31.06 0 56.06-25 56.06-56.06v-273.31l-161.62-161.62" style="opacity:.25"/><path d="m195.09 10.5v259.19a4.350435 4.350435 0 0 0 7.8125 2.625l24.16-32.12 18.313 29a4.350435 4.350435 0 0 0 6.34375 1.09375l35.25-27.375 22.13 29.406a4.350435 4.350435 0 0 0 7.8125 -2.625v-259.19h-121.81" style="fill:#fff8eb;opacity:.32"/></g></svg>