<svg xmlns="http://www.w3.org/2000/svg" viewBox="0 0 512 512"><g fill-opacity=".078"><path d="m66.61 0c-4.047 0-7.299 3.253-7.299 7.299v497.4c0 4.047 3.253 7.299 7.299 7.299h378.79c4.047 0 7.299-3.253 7.299-7.299v-359.46l-145.21-145.24h-240.88" transform="translate(-.005.002)"/><path d="m69.2 3.5c-3.991 0-7.2 3.208-7.2 7.2v490.6c0 3.991 3.208 7.2 7.2 7.2h373.61c3.991 0 7.2-3.208 7.2-7.2v-354.55l-143.22-143.25h-237.59" transform="translate(-.005.002)"/><path d="m71.786 7c-3.936 0-7.1 3.164-7.1 7.1v483.8c0 3.936 3.164 7.1 7.1 7.1h368.43c3.936 0 7.1-3.164 7.1-7.1v-349.63l-141.24-141.27h-234.29" transform="translate(-.005.002)"/></g><path fill="#009587" d="m74.38 10.502c-3.881 0-7 3.119-7 7v477c0 3.881 3.119 7 7 7h363.25c3.881 0 7-3.119 7-7v-344.72l-139.25-139.28h-231"/><path fill-opacity=".235" d="m106 131.91v26.16h2v2h1.969v1.969h2v2h2v2h1.969v1.969h2v2h2v2h1.969v1.969h2v2h2v2h1.969v1.969h2v2h2v2h2v2h1.969v1.469h-29.844v26.16h2v2h1.969v1.969h2v2h2v2h1.969v1.969h2v2h2v2h1.969v1.969h2v2h2v2h1.969v1.969h2v2h2v2h2v2h1.969v1.469h-29.844v26.19h2v2h1.969v1.969h2v2h2v2h1.969v1.969h2v2h2v2h1.969v1.969h2v2h2v2h1.969v1.969h2v2h2v2h2v2h1.969v1.469h-29.844v26.16h2v2h1.969v1.969h2v2h2v2h1.969v1.969h2v2h2v2h1.969v1.969h2v2h2v2h1.969v1.969h2v2h2v2h2v2h1.969v1.469h-29.844v26.16h2v2h1.969v1.969h2v2h2v2h1.969v1.969h2v2h2v2h1.969v1.969h2v2h2v2h1.969v1.969h2v2h2v2h2v2h1.969v1.969h2v2h2v2h1.969v1.969h2v2h2v2h1.969v1.969h2v2h2v2h1.969v1.969h2v2h2v2h1.969v1.969h2v2h2v2h1.969v1.969h2v2h2v2h1.969v1.969h2v2h2v2h2v2h1.969v1.969h2v2h2v2h1.969v1.969h2v2h2v2h1.969v1.969h2v2h2v2h1.969v1.969h2v2h2v2h1.969v1.969h2v2h2v2h1.969v1.969h2v2h2v2h1.969v1.969h2v2h2v2h2v2h1.969v1.969h2v2h2v2h210.22c3.881 0 7-3.119 7-7v-344.72h-132.25c-0.364 0-0.714-0.041-1.063-0.094-0.12-0.018-0.226-0.038-0.344-0.063-0.209-0.042-0.424-0.096-0.625-0.156-0.239-0.072-0.46-0.154-0.688-0.25-0.137-0.059-0.273-0.12-0.406-0.188-0.251-0.125-0.486-0.253-0.719-0.406 0.52 0.789 1.18 1.48 1.969 2 0.521 0.789 1.211 1.449 2 1.969 0.521 0.79 1.21 1.479 2 2 0.528 0.8 1.196 1.508 2 2.031 0.513 0.771 1.166 1.424 1.938 1.938 0.524 0.804 1.231 1.472 2.031 2 0.528 0.8 1.196 1.508 2 2.031 0.513 0.771 1.166 1.424 1.938 1.938 0.524 0.804 1.231 1.472 2.031 2 0.528 0.8 1.196 1.508 2 2.031 0.513 0.771 1.167 1.425 1.938 1.938 0.524 0.804 1.231 1.472 2.031 2 0.528 0.8 1.196 1.508 2 2.031 0.513 0.771 1.166 1.424 1.938 1.938 0.524 0.804 1.231 1.472 2.031 2 0.528 0.8 1.196 1.508 2 2.031 0.513 0.772 1.166 1.424 1.938 1.938 0.524 0.804 1.231 1.472 2.031 2 0.521 0.79 1.21 1.479 2 2 0.231 0.351 0.492 0.666 0.781 0.969h-9.438v-1.781h-1.969v-1.969h-2v-2h-2v-2h-1.969v-1.969h-2v-2h-2v-2h-1.969v-1.969h-2v-2h-2v-2h-1.969v-1.969h-2v-2h-2v-2h-1.969v-1.969h-2v-2h-2v-2h-2v-2h-1.969v-1.969h-2v-2h-2v-2h-1.969v-1.969h-2v-2h-2v-2h-1.969v-1.969h-2v-2h-2v-2h-1.969v-1.969h-2v-2h-177.97"/><g fill="#fff"><path d="m106 131.91v26.16h177.97v-26.16h-177.97m0 55.5v26.16h300v-26.16h-300m0 55.5v26.19h231.91c0.23-0.186 0.457-0.377 0.688-0.563 11.724-8.089 22.85-18.478 35.406-25.625h-268m0 55.53v26.16h175.31c7.784-8.989 15.836-17.743 24.22-26.16h-199.53m300 5.25c-6.731 6.788-13.28 13.757-19.625 20.906h19.625v-20.906m-300 50.25v26.16h89.44c-5.05-7.751-5.508-17.453-2.625-26.16h-86.81m256.25 0c-6.493 8.519-12.725 17.234-18.656 26.16h62.41v-26.16h-43.75"/><path fill-opacity=".196" d="m444.62 149.78l-139.25-139.28v132.28c0 3.881 3.119 7 7 7h132.25"/></g><path fill="#fff" d="m397.36 250.81a16.697 16.697 0 0 0 -8.2812 2.125c-41.553 23.447-84.7 64.774-122.81 115.75l-34.31-19.375a16.697 16.697 0 0 0 -20.875 25.438l55.38 64.22a16.697 16.697 0 0 0 27.625 -3.5312c27.61-56.28 60.692-106.96 114.41-155.56a16.697 16.697 0 0 0 -11.125 -29.062"/></svg>