<svg xmlns="http://www.w3.org/2000/svg" viewBox="0 0 512 512"><text x="-210.55" y="39.41" line-height="125%" style="letter-spacing:0;word-spacing:0;font-size:129.23;font-family:Gentium Book Basic"><tspan x="-210.55" y="39.41"/></text><text x="144.61" y="-191" transform="scale(4.0128.2492)" style="font-size:46.954;font-family:Arial;text-anchor:middle"/><text x="370.72" y="-40.586" line-height="125%" style="letter-spacing:0;word-spacing:0;font-size:129.23;font-family:Gentium Book Basic"><tspan x="370.72" y="-40.586"/></text><text x="289.46" y="-512.03" transform="scale(4.0128.2492)" style="font-size:46.954;font-family:Arial;text-anchor:middle"/><text x="-700.86" y="-221.85" line-height="125%" style="letter-spacing:0;word-spacing:0;font-size:129.23;font-family:Gentium Book Basic"><tspan x="-700.86" y="-221.85"/></text><text x="22.422" y="-1239.38" transform="scale(4.0128.2492)" style="font-size:46.954;font-family:Arial;text-anchor:middle"/><text x="397.19" y="-438.32" line-height="125%" style="letter-spacing:0;word-spacing:0;font-size:129.23;font-family:Gentium Book Basic"><tspan x="397.19" y="-438.32"/></text><text x="296.06" y="-2108.05" transform="scale(4.0128.2492)" style="font-size:46.954;font-family:Arial;text-anchor:middle"/><text x="978.46" y="-518.33" line-height="125%" style="letter-spacing:0;word-spacing:0;font-size:129.23;font-family:Gentium Book Basic"><tspan x="978.46" y="-518.33"/></text><text x="440.91" y="-2429.09" transform="scale(4.0128.2492)" style="font-size:46.954;font-family:Arial;text-anchor:middle"/><text x="589.34" y="-990.73" line-height="125%" style="letter-spacing:0;word-spacing:0;font-size:129.23;font-family:Gentium Book Basic"><tspan x="589.34" y="-990.73"/></text><text x="343.94" y="-4324.74" transform="scale(4.0128.2492)" style="font-size:46.954;font-family:Arial;text-anchor:middle"/><text x="1170.6" y="-1070.73" line-height="125%" style="letter-spacing:0;word-spacing:0;font-size:129.23;font-family:Gentium Book Basic"><tspan x="1170.6" y="-1070.73"/></text><text x="488.79" y="-4645.77" transform="scale(4.0128.2492)" style="font-size:46.954;font-family:Arial;text-anchor:middle"/><g line-height="125%" style="letter-spacing:0;word-spacing:0;font-family:Gentium Book Basic"><text x="-662.2" y="343.99" style="font-size:208.33"><tspan x="-662.2" y="343.99"/></text><text x="91.81" y="209.67" style="font-size:129.23"><tspan x="91.81" y="209.67"/></text></g><text x="219.96" y="492.19" transform="scale(4.0128.2492)" style="font-size:46.954;font-family:Arial;text-anchor:middle"/><text x="673.08" y="129.67" line-height="125%" style="letter-spacing:0;word-spacing:0;font-size:129.23;font-family:Gentium Book Basic"><tspan x="673.08" y="129.67"/></text><text x="364.81" y="171.16" transform="scale(4.0128.2492)" style="font-size:46.954;font-family:Arial;text-anchor:middle"/><text x="-398.5" y="-51.596" line-height="125%" style="letter-spacing:0;word-spacing:0;font-size:129.23;font-family:Gentium Book Basic"><tspan x="-398.5" y="-51.596"/></text><text x="97.77" y="-556.2" transform="scale(4.0128.2492)" style="font-size:46.954;font-family:Arial;text-anchor:middle"/><text x="699.55" y="-268.06" line-height="125%" style="letter-spacing:0;word-spacing:0;font-size:129.23;font-family:Gentium Book Basic"><tspan x="699.55" y="-268.06"/></text><text x="371.41" y="-1424.86" transform="scale(4.0128.2492)" style="font-size:46.954;font-family:Arial;text-anchor:middle"/><text x="1280.82" y="-348.07" line-height="125%" style="letter-spacing:0;word-spacing:0;font-size:129.23;font-family:Gentium Book Basic"><tspan x="1280.82" y="-348.07"/></text><text x="516.26" y="-1745.9" transform="scale(4.0128.2492)" style="font-size:46.954;font-family:Arial;text-anchor:middle"/><text x="891.7" y="-820.47" line-height="125%" style="letter-spacing:0;word-spacing:0;font-size:129.23;font-family:Gentium Book Basic"><tspan x="891.7" y="-820.47"/></text><text x="419.29" y="-3641.55" transform="scale(4.0128.2492)" style="font-size:46.954;font-family:Arial;text-anchor:middle"/><text x="1472.96" y="-900.47" line-height="125%" style="letter-spacing:0;word-spacing:0;font-size:129.23;font-family:Gentium Book Basic"><tspan x="1472.96" y="-900.47"/></text><text x="564.14" y="-3962.58" transform="scale(4.0128.2492)" style="font-size:46.954;font-family:Arial;text-anchor:middle"/><g line-height="125%" style="letter-spacing:0;word-spacing:0;font-family:Gentium Book Basic"><text x="-359.84" y="514.25" style="font-size:208.33"><tspan x="-359.84" y="514.25"/></text><text x="78.79" y="179.29" style="font-size:129.23"><tspan x="78.79" y="179.29"/></text></g><text x="216.72" y="370.31" transform="scale(4.0128.2492)" style="font-size:46.954;font-family:Arial;text-anchor:middle"/><text x="660.06" y="99.29" line-height="125%" style="letter-spacing:0;word-spacing:0;font-size:129.23;font-family:Gentium Book Basic"><tspan x="660.06" y="99.29"/></text><text x="361.57" y="49.28" transform="scale(4.0128.2492)" style="font-size:46.954;font-family:Arial;text-anchor:middle"/><text x="-411.52" y="-81.969" line-height="125%" style="letter-spacing:0;word-spacing:0;font-size:129.23;font-family:Gentium Book Basic"><tspan x="-411.52" y="-81.969"/></text><text x="94.53" y="-678.08" transform="scale(4.0128.2492)" style="font-size:46.954;font-family:Arial;text-anchor:middle"/><text x="686.53" y="-298.44" line-height="125%" style="letter-spacing:0;word-spacing:0;font-size:129.23;font-family:Gentium Book Basic"><tspan x="686.53" y="-298.44"/></text><text x="368.17" y="-1546.74" transform="scale(4.0128.2492)" style="font-size:46.954;font-family:Arial;text-anchor:middle"/><text x="1267.8" y="-378.45" line-height="125%" style="letter-spacing:0;word-spacing:0;font-size:129.23;font-family:Gentium Book Basic"><tspan x="1267.8" y="-378.45"/></text><text x="513.01" y="-1867.78" transform="scale(4.0128.2492)" style="font-size:46.954;font-family:Arial;text-anchor:middle"/><text x="878.68" y="-850.85" line-height="125%" style="letter-spacing:0;word-spacing:0;font-size:129.23;font-family:Gentium Book Basic"><tspan x="878.68" y="-850.85"/></text><text x="416.05" y="-3763.43" transform="scale(4.0128.2492)" style="font-size:46.954;font-family:Arial;text-anchor:middle"/><text x="1459.94" y="-930.85" line-height="125%" style="letter-spacing:0;word-spacing:0;font-size:129.23;font-family:Gentium Book Basic"><tspan x="1459.94" y="-930.85"/></text><text x="560.89" y="-4084.46" transform="scale(4.0128.2492)" style="font-size:46.954;font-family:Arial;text-anchor:middle"/><g line-height="125%" style="letter-spacing:0;word-spacing:0;font-family:Gentium Book Basic"><text x="-372.86" y="483.87" style="font-size:208.33"><tspan x="-372.86" y="483.87"/></text><text x="39.5" y="244.98" style="font-size:129.23"><tspan x="39.5" y="244.98"/></text></g><text x="206.92" y="633.89" transform="scale(4.0128.2492)" style="font-size:46.954;font-family:Arial;text-anchor:middle"/><text x="620.77" y="164.98" line-height="125%" style="letter-spacing:0;word-spacing:0;font-size:129.23;font-family:Gentium Book Basic"><tspan x="620.77" y="164.98"/></text><text x="351.77" y="312.87" transform="scale(4.0128.2492)" style="font-size:46.954;font-family:Arial;text-anchor:middle"/><text x="-450.81" y="-16.283" line-height="125%" style="letter-spacing:0;word-spacing:0;font-size:129.23;font-family:Gentium Book Basic"><tspan x="-450.81" y="-16.283"/></text><text x="84.74" y="-414.49" transform="scale(4.0128.2492)" style="font-size:46.954;font-family:Arial;text-anchor:middle"/><text x="647.24" y="-232.75" line-height="125%" style="letter-spacing:0;word-spacing:0;font-size:129.23;font-family:Gentium Book Basic"><tspan x="647.24" y="-232.75"/></text><text x="358.37" y="-1283.16" transform="scale(4.0128.2492)" style="font-size:46.954;font-family:Arial;text-anchor:middle"/><text x="1228.51" y="-312.76" line-height="125%" style="letter-spacing:0;word-spacing:0;font-size:129.23;font-family:Gentium Book Basic"><tspan x="1228.51" y="-312.76"/></text><text x="503.22" y="-1604.19" transform="scale(4.0128.2492)" style="font-size:46.954;font-family:Arial;text-anchor:middle"/><text x="839.39" y="-785.16" line-height="125%" style="letter-spacing:0;word-spacing:0;font-size:129.23;font-family:Gentium Book Basic"><tspan x="839.39" y="-785.16"/></text><text x="406.25" y="-3499.84" transform="scale(4.0128.2492)" style="font-size:46.954;font-family:Arial;text-anchor:middle"/><text x="1420.65" y="-865.16" line-height="125%" style="letter-spacing:0;word-spacing:0;font-size:129.23;font-family:Gentium Book Basic"><tspan x="1420.65" y="-865.16"/></text><text x="551.1" y="-3820.87" transform="scale(4.0128.2492)" style="font-size:46.954;font-family:Arial;text-anchor:middle"/><g transform="translate(-690.14 13.618)" line-height="125%" style="letter-spacing:0;word-spacing:0;font-family:Gentium Book Basic"><text x="277.99" y="535.94" style="font-size:208.33"><tspan x="277.99" y="535.94"/></text><text x="148.44" y="135.65" style="font-size:129.23"><tspan x="148.44" y="135.65"/></text></g><text x="62.09" y="249.85" transform="scale(4.0128.2492)" style="font-size:46.954;font-family:Arial;text-anchor:middle"/><text x="39.57" y="69.27" line-height="125%" style="letter-spacing:0;word-spacing:0;font-size:129.23;font-family:Gentium Book Basic"><tspan x="39.57" y="69.27"/></text><text x="206.93" y="-71.18" transform="scale(4.0128.2492)" style="font-size:46.954;font-family:Arial;text-anchor:middle"/><text x="-1032.01" y="-111.99" line-height="125%" style="letter-spacing:0;word-spacing:0;font-size:129.23;font-family:Gentium Book Basic"><tspan x="-1032.01" y="-111.99"/></text><text x="-60.1" y="-798.54" transform="scale(4.0128.2492)" style="font-size:46.954;font-family:Arial;text-anchor:middle"/><text x="66.04" y="-328.46" line-height="125%" style="letter-spacing:0;word-spacing:0;font-size:129.23;font-family:Gentium Book Basic"><tspan x="66.04" y="-328.46"/></text><text x="213.53" y="-1667.19" transform="scale(4.0128.2492)" style="font-size:46.954;font-family:Arial;text-anchor:middle"/><text x="647.31" y="-408.47" line-height="125%" style="letter-spacing:0;word-spacing:0;font-size:129.23;font-family:Gentium Book Basic"><tspan x="647.31" y="-408.47"/></text><text x="358.38" y="-1988.23" transform="scale(4.0128.2492)" style="font-size:46.954;font-family:Arial;text-anchor:middle"/><text x="258.19" y="-880.87" line-height="125%" style="letter-spacing:0;word-spacing:0;font-size:129.23;font-family:Gentium Book Basic"><tspan x="258.19" y="-880.87"/></text><text x="261.41" y="-3883.87" transform="scale(4.0128.2492)" style="font-size:46.954;font-family:Arial;text-anchor:middle"/><text x="839.45" y="-960.87" line-height="125%" style="letter-spacing:0;word-spacing:0;font-size:129.23;font-family:Gentium Book Basic"><tspan x="839.45" y="-960.87"/></text><text x="406.26" y="-4204.9" transform="scale(4.0128.2492)" style="font-size:46.954;font-family:Arial;text-anchor:middle"/><text x="-993.35" y="453.85" line-height="125%" style="letter-spacing:0;word-spacing:0;font-size:208.33;font-family:Gentium Book Basic"><tspan x="-993.35" y="453.85"/></text><g transform="translate(-.005.002)" style="fill-opacity:.078"><path d="m66.61 0c-4.047 0-7.299 3.253-7.299 7.299v497.4c0 4.047 3.253 7.299 7.299 7.299h378.79c4.047 0 7.299-3.253 7.299-7.299v-359.46l-145.21-145.24h-240.88"/><path d="m69.2 3.5c-3.991 0-7.2 3.208-7.2 7.2v490.6c0 3.991 3.208 7.2 7.2 7.2h373.61c3.991 0 7.2-3.208 7.2-7.2v-354.55l-143.22-143.25h-237.59"/><path d="m71.786 7c-3.936 0-7.1 3.164-7.1 7.1v483.8c0 3.936 3.164 7.1 7.1 7.1h368.43c3.936 0 7.1-3.164 7.1-7.1v-349.63l-141.24-141.27h-234.29"/></g><path d="m74.38 10.502c-3.881 0-7 3.119-7 7v477c0 3.881 3.119 7 7 7h363.25c3.881 0 7-3.119 7-7v-344.72l-139.25-139.28h-231" style="fill:#009587"/><path d="m106 131.91v26.16h2v2h1.969v1.969h2v2h2v2h1.969v1.969h2v2h2v2h1.969v1.969h2v2h2v2h1.969v1.969h2v2h2v2h2v2h1.969v1.469h-29.844v26.16h2v2h1.969v1.969h2v2h2v2h1.969v1.969h2v2h2v2h1.969v1.969h2v2h2v2h1.969v1.969h2v2h2v2h2v2h1.969v1.469h-29.844v26.19h2v2h1.969v1.969h2v2h2v2h1.969v1.969h2v2h2v2h1.969v1.969h2v2h2v2h1.969v1.969h2v2h2v2h2v2h1.969v1.469h-29.844v26.16h2v2h1.969v1.969h2v2h2v2h1.969v1.969h2v2h2v2h1.969v1.969h2v2h2v2h1.969v1.969h2v2h2v2h2v2h1.969v1.469h-29.844v26.16h2v2h1.969v1.969h2v2h2v2h1.969v1.969h2v2h2v2h1.969v1.969h2v2h2v2h1.969v1.969h2v2h2v2h2v2h1.969v1.969h2v2h2v2h1.969v1.969h2v2h2v2h1.969v1.969h2v2h2v2h1.969v1.969h2v2h2v2h1.969v1.969h2v2h2v2h1.969v1.969h2v2h2v2h1.969v1.969h2v2h2v2h2v2h1.969v1.969h2v2h2v2h1.969v1.969h2v2h2v2h1.969v1.969h2v2h2v2h1.969v1.969h2v2h2v2h1.969v1.969h2v2h2v2h1.969v1.969h2v2h2v2h1.969v1.969h2v2h2v2h2v2h1.969v1.969h2v2h2v2h1.969 208.25c3.881 0 7-3.119 7-7v-344.72h-132.25c-.364 0-.714-.041-1.063-.094-.12-.018-.226-.038-.344-.063-.209-.042-.424-.096-.625-.156-.239-.072-.46-.154-.688-.25-.137-.059-.273-.12-.406-.188-.251-.125-.486-.253-.719-.406.52.789 1.18 1.48 1.969 2 .521.789 1.211 1.449 2 1.969.521.79 1.21 1.479 2 2 .528.8 1.196 1.508 2 2.031.513.771 1.166 1.424 1.938 1.938.524.804 1.231 1.472 2.031 2 .528.8 1.196 1.508 2 2.031.513.771 1.166 1.424 1.938 1.938.524.804 1.231 1.472 2.031 2 .528.8 1.196 1.508 2 2.031.513.771 1.167 1.425 1.938 1.938.524.804 1.231 1.472 2.031 2 .528.8 1.196 1.508 2 2.031.513.771 1.166 1.424 1.938 1.938.524.804 1.231 1.472 2.031 2 .528.8 1.196 1.508 2 2.031.513.772 1.166 1.424 1.938 1.938.524.804 1.231 1.472 2.031 2 .521.79 1.21 1.479 2 2 .231.351.492.666.781.969h-9.438v-1.781h-1.969v-1.969h-2v-2h-2v-2h-1.969v-1.969h-2v-2h-2v-2h-1.969v-1.969h-2v-2h-2v-2h-1.969v-1.969h-2v-2h-2v-2h-1.969v-1.969h-2v-2h-2v-2h-2v-2h-1.969v-1.969h-2v-2h-2v-2h-1.969v-1.969h-2v-2h-2v-2h-1.969v-1.969h-2v-2h-2v-2h-1.969v-1.969h-2v-2h-177.97" style="fill-opacity:.235"/><g style="fill:#fff"><path d="m106 131.91v26.16h177.97v-26.16h-177.97m0 55.5v26.16h300v-26.16h-300m0 55.5v26.19h231.91c.23-.186.457-.377.688-.563 11.724-8.089 22.85-18.478 35.406-25.625h-268m0 55.53v26.16h175.31c7.784-8.989 15.836-17.743 24.22-26.16h-199.53m300 5.25c-6.731 6.788-13.28 13.757-19.625 20.906h19.625v-20.906m-300 50.25v26.16h89.44c-5.05-7.751-5.508-17.453-2.625-26.16h-86.81m256.25 0c-6.493 8.519-12.725 17.234-18.656 26.16h62.41v-26.16h-43.75"/><path d="m444.62 149.78l-139.25-139.28v132.28c0 3.881 3.119 7 7 7h132.25" style="fill-opacity:.196"/></g><g style="fill:#555753"><text x="-575.74" y="116.28" line-height="125%" style="letter-spacing:0;word-spacing:0;font-size:200;font-family:Gentium Book Basic;stroke:#555753"><tspan x="-575.74" y="116.28"/></text><text x="161.54" y="-73.74" transform="scale(4.0128.2492)" style="font-size:72.67;font-family:Arial;stroke:none;text-anchor:middle"/><text x="169.64" y="169.43" line-height="125%" style="letter-spacing:0;word-spacing:0;font-size:200;font-family:Gentium Book Basic;stroke:#555753"><tspan x="169.64" y="169.43"/></text><text x="347.29" y="139.51" transform="scale(4.0128.2492)" style="font-size:72.67;font-family:Arial;stroke:none;text-anchor:middle"/><text x="1069.25" y="45.61" line-height="125%" style="letter-spacing:0;word-spacing:0;font-size:200;font-family:Gentium Book Basic;stroke:#555753"><tspan x="1069.25" y="45.61"/></text><text x="571.47" y="-357.35" transform="scale(4.0128.2492)" style="font-size:72.67;font-family:Arial;stroke:none;text-anchor:middle"/><text x="197.1" y="-7.03" line-height="125%" style="letter-spacing:0;word-spacing:0;font-size:200;font-family:Gentium Book Basic;stroke:#555753"><tspan x="197.1" y="-7.03"/></text><text x="354.13" y="-568.58" transform="scale(4.0128.2492)" style="font-size:72.67;font-family:Arial;stroke:none;text-anchor:middle"/><text x="1096.72" y="-130.85" line-height="125%" style="letter-spacing:0;word-spacing:0;font-size:200;font-family:Gentium Book Basic;stroke:#555753"><tspan x="1096.72" y="-130.85"/></text><text x="578.32" y="-1065.43" transform="scale(4.0128.2492)" style="font-size:72.67;font-family:Arial;stroke:none;text-anchor:middle"/><text x="-2812.88" y="444.86" line-height="125%" style="letter-spacing:0;word-spacing:0;font-size:200;font-family:Gentium Book Basic;stroke:#555753"><tspan x="-2812.88" y="444.86"/></text><text x="-395.95" y="1244.76" transform="scale(4.0128.2492)" style="font-size:72.67;font-family:Arial;stroke:none;text-anchor:middle"/></g><path d="m397.36123 250.81197a16.69662 16.69662 0 0 0 -8.28125 2.125c-41.553 23.447-84.7 64.774-122.81 115.75l-34.31-19.375a16.69662 16.69662 0 0 0 -20.875 25.4375l55.38 64.22a16.69662 16.69662 0 0 0 27.625 -3.53125c27.61-56.28 60.692-106.96 114.41-155.56a16.69662 16.69662 0 0 0 -11.125 -29.0625" style="fill:#fff;stroke:none;color:#000"/><text x="-957.33" y="478.97" line-height="125%" style="letter-spacing:0;word-spacing:0;font-size:208.33;font-family:Gentium Book Basic"><tspan x="-957.33" y="478.97"/></text><text x="79.16" y="1359.15" transform="scale(4.0128.2492)" style="font-size:75.7;font-family:Arial;text-anchor:middle"/></svg>