<svg xmlns="http://www.w3.org/2000/svg" xmlns:xlink="http://www.w3.org/1999/xlink" viewBox="0 0 512 512"><g fill-opacity=".078"><path d="m32.563 0c-4.774 0-8.594 3.266-8.594 7.313v497.38c0 4.047 3.82 7.313 8.594 7.313h446.88c4.774 0 8.594-3.266 8.594-7.313v-360.03l-144.66-144.66h-310.81" transform="translate(-.003-.003)"/><path d="m35.625 3.5c-4.709 0-8.5 3.196-8.5 7.188v490.62c0 3.991 3.791 7.188 8.5 7.188h440.75c4.709 0 8.5-3.196 8.5-7.188v-356.28l-141.53-141.53h-307.72" transform="translate(-.003-.003)"/><path d="m38.688 7c-4.643 0-8.375 3.158-8.375 7.094v483.82c0 3.936 3.732 7.094 8.375 7.094h434.63c4.643 0 8.375-3.158 8.375-7.094v-352.62l-138.28-138.28h-304.72" transform="translate(-.003-.003)"/></g><path fill="#ef6a47" d="m41.716 10.498c-4.578 0-8.25 3.119-8.25 7v477c0 3.881 3.672 7 8.25 7h428.56c4.578 0 8.25-3.119 8.25-7v-348.06l-135.97-135.94h-300.84"/><path fill="#fff" d="m63.47 24.03v16.16h44.531v-16.16h-44.531m0 47.22v35.688h44.531v-35.688h-44.531m0 66.72v35.75h44.531v-35.75h-44.531m340.53 8.469v27.28h44.531v-27.28h-44.531m-340.53 58.28v35.75h44.531v-35.75h-44.531m340.53 0v35.75h44.531v-35.75h-44.531m-340.53 66.781v35.688h44.531v-35.688h-44.531m340.53 0v35.688h44.531v-35.688h-44.531m-340.53 66.781v35.656h44.531v-35.656h-44.531m340.53 0v35.656h44.531v-35.656h-44.531m-340.53 66.72v35.719h44.531v-35.719h-44.531m340.53 0v35.719h44.531v-35.719h-44.531m-340.53 66.75v16.219h44.531v-16.219h-44.531m340.53 0v16.219h44.531v-16.219h-44.531"/><path id="0" fill="#fff" fill-opacity=".196" d="m478.53 146.44l-135.97-135.94v128.94c0 3.881 3.672 7 8.25 7h127.72"/><use width="1" height="1" xlink:href="#0"/><path fill-opacity=".196" d="m345.03 144.56l133.5 129.38v-127.5h-127.72c-2.185 0-4.154-0.71-5.625-1.875h-0.156"/><path d="m142.88 183v28.22l31.648 31.648h-31.648v28.22l31.648 31.648h-31.648v28.25l31.648 31.648h-31.648v28.22l31.648 31.648h-31.648v28.22l50.785 50.785h276.61c4.578 0 8.25-3.119 8.25-7v-142.23l-109.41-109.41h-32.16l-59.867-59.867h-134.21" opacity=".25"/><path fill="#fff" d="m142.88 183v28.22h134.21v-28.22h-134.21m0 59.866v28.22h226.24v-28.22h-226.24m0 59.866v28.25h226.24v-28.25h-226.24m0 59.899v28.22h226.24v-28.22h-226.24m0 59.866v28.22h226.24v-28.22h-226.24"/></svg>