<svg xmlns="http://www.w3.org/2000/svg" xmlns:xlink="http://www.w3.org/1999/xlink" viewBox="0 0 512 512"><g style="fill-opacity:.078"><path d="m32.563 0c-4.774 0-8.594 3.266-8.594 7.313v137.94 359.44c0 4.047 3.82 7.313 8.594 7.313h446.88c4.774 0 8.594-3.266 8.594-7.313v-359.44-.594l-144.66-144.66h-26.625-121.5-162.69"/><path d="m35.625 3.5c-4.709 0-8.5 3.196-8.5 7.188v136.06 354.56c0 3.991 3.791 7.188 8.5 7.188h440.75c4.709 0 8.5-3.196 8.5-7.188v-354.56-1.719l-141.53-141.53h-27.438-119.81-160.47"/><path d="m38.688 7c-4.643 0-8.375 3.158-8.375 7.094v134.19 349.63c0 3.936 3.732 7.094 8.375 7.094h434.63c4.643 0 8.375-3.158 8.375-7.094v-349.62-3l-138.28-138.28h-28.313-118.19-158.22"/></g><path d="m41.719 10.5c-4.578 0-8.25 3.119-8.25 7v132.28 344.72c0 3.881 3.672 7 8.25 7h428.56c4.578 0 8.25-3.119 8.25-7v-344.72-3.344l-135.97-135.94h-28.313-116.5-156.03" style="fill:#b93d48"/><path d="m63.47 24.03v16.16h44.531v-16.16h-44.531m0 47.22v1 1 33.688h44.531v-35.688h-44.531m0 66.72v1 1 33.75h44.531v-35.75h-44.531m340.53 8.469v27.28h44.531v-27.28h-44.531m-340.53 58.28v1 1 33.75h44.531v-35.75h-44.531m340.53 0v1 1 33.75h44.531v-35.75h-44.531m-340.53 66.781v1 1 33.688h44.531v-35.688h-44.531m340.53 0v1 1 33.688h44.531v-35.688h-44.531m-340.53 66.781v1 1 33.656h44.531v-35.656h-44.531m340.53 0v1 1 33.656h44.531v-35.656h-44.531m-340.53 66.72v1 1 33.719h44.531v-35.719h-44.531m340.53 0v1 1 33.719h44.531v-35.719h-44.531m-340.53 66.75v1 1 14.219h44.531v-16.219h-44.531m340.53 0v1 1 14.219h44.531v-16.219h-44.531" style="fill:#fff"/><path d="m174.63 194.59c-22.467 0-40.563 18.06-40.563 40.531v108.41c0 7.971 9.776 17.931 16.16 32.25l136.72 125.72h183.34c4.578 0 8.25-3.119 8.25-7v-175.62l-112.44-112.44c-7.33-7.33-17.485-11.844-28.719-11.844h-162.75" style="opacity:.25"/><path d="m174.62 194.58h162.77c22.467 0 40.554 18.09 40.554 40.554v108.4c0 22.467-18.09 40.554-40.554 40.554h-162.77c-22.467 0-40.554-18.09-40.554-40.554v-108.4c0-22.467 18.09-40.554 40.554-40.554" style="fill:#fff"/><path d="m220.4375 235.74314a11.805919 11.805919 0 0 0 -11.09375 11.8125v83.56a11.805919 11.805919 0 0 0 17.875 10.125l69.72-41.781a11.805919 11.805919 0 0 0 0 -20.25l-69.72-41.781a11.805919 11.805919 0 0 0 -5.59375 -1.6875 11.805919 11.805919 0 0 0 -1.1875 0" style="fill:#b93d48;color:#000"/><path d="m478.53 146.44l-135.97-135.94v128.94c0 3.881 3.672 7 8.25 7h127.72" id="0" style="fill:#fff;fill-opacity:.196"/><path d="M 478.53,146.44 342.56,10.5 558.51,226.45 694.48,362.39 z" style="fill-opacity:.196"/><use width="1" height="1" xlink:href="#0"/><path d="m345.03 144.56l133.5 129.38v-124.16-3.344h-127.72c-2.185 0-4.154-.71-5.625-1.875h-.156" style="fill-opacity:.196"/></svg>